G04 EAGLE Gerber RS-274X export*
G75*
%MOMM*%
%FSLAX34Y34*%
%LPD*%
%INTop Copper*%
%IPPOS*%
%AMOC8*
5,1,8,0,0,1.08239X$1,22.5*%
G01*
%ADD10C,1.320800*%
%ADD11C,1.900000*%
%ADD12C,1.508000*%
%ADD13C,1.408000*%
%ADD14C,1.000000*%
%ADD15C,0.254000*%
%ADD16C,0.756400*%
%ADD17C,0.508000*%

G36*
X334124Y365272D02*
X334124Y365272D01*
X334196Y365274D01*
X334245Y365292D01*
X334296Y365300D01*
X334359Y365334D01*
X334427Y365359D01*
X334467Y365391D01*
X334513Y365416D01*
X334563Y365467D01*
X334619Y365512D01*
X334647Y365556D01*
X334683Y365594D01*
X334713Y365659D01*
X334752Y365719D01*
X334764Y365770D01*
X334786Y365817D01*
X334794Y365888D01*
X334812Y365958D01*
X334808Y366010D01*
X334813Y366061D01*
X334798Y366132D01*
X334793Y366203D01*
X334772Y366251D01*
X334761Y366302D01*
X334724Y366363D01*
X334696Y366429D01*
X334651Y366485D01*
X334635Y366513D01*
X334617Y366528D01*
X334591Y366560D01*
X334345Y366806D01*
X334271Y366859D01*
X334202Y366919D01*
X334172Y366931D01*
X334146Y366950D01*
X334059Y366977D01*
X333974Y367011D01*
X333933Y367015D01*
X333910Y367022D01*
X333878Y367021D01*
X333807Y367029D01*
X329042Y367029D01*
X321159Y374912D01*
X321085Y374965D01*
X321016Y375025D01*
X320986Y375037D01*
X320960Y375056D01*
X320873Y375083D01*
X320788Y375117D01*
X320747Y375121D01*
X320725Y375128D01*
X320692Y375127D01*
X320621Y375135D01*
X317696Y375135D01*
X314548Y376439D01*
X312139Y378848D01*
X310835Y381996D01*
X310835Y385404D01*
X312139Y388552D01*
X314548Y390961D01*
X317696Y392265D01*
X321104Y392265D01*
X324252Y390961D01*
X326661Y388552D01*
X327898Y385565D01*
X327936Y385504D01*
X327965Y385439D01*
X328000Y385400D01*
X328027Y385356D01*
X328083Y385310D01*
X328131Y385257D01*
X328177Y385232D01*
X328217Y385199D01*
X328284Y385173D01*
X328347Y385139D01*
X328398Y385130D01*
X328447Y385111D01*
X328518Y385108D01*
X328589Y385095D01*
X328640Y385103D01*
X328692Y385101D01*
X328761Y385120D01*
X328832Y385131D01*
X328879Y385155D01*
X328929Y385169D01*
X328987Y385210D01*
X329051Y385242D01*
X329088Y385280D01*
X329131Y385309D01*
X329173Y385367D01*
X329224Y385418D01*
X329258Y385481D01*
X329277Y385507D01*
X329285Y385529D01*
X329305Y385565D01*
X330888Y389388D01*
X333712Y392212D01*
X336219Y393251D01*
X336305Y393304D01*
X336395Y393352D01*
X336410Y393369D01*
X336429Y393380D01*
X336493Y393458D01*
X336562Y393532D01*
X336571Y393553D01*
X336585Y393570D01*
X336622Y393664D01*
X336663Y393757D01*
X336666Y393779D01*
X336674Y393799D01*
X336678Y393900D01*
X336688Y394001D01*
X336683Y394023D01*
X336684Y394045D01*
X336656Y394142D01*
X336633Y394241D01*
X336622Y394260D01*
X336615Y394281D01*
X336558Y394364D01*
X336505Y394451D01*
X336488Y394465D01*
X336475Y394483D01*
X336394Y394544D01*
X336316Y394609D01*
X336291Y394620D01*
X336278Y394630D01*
X336247Y394640D01*
X336163Y394678D01*
X335722Y394821D01*
X334379Y395506D01*
X333158Y396392D01*
X332092Y397458D01*
X331206Y398679D01*
X330521Y400022D01*
X330055Y401457D01*
X329941Y402177D01*
X338638Y402177D01*
X338658Y402180D01*
X338677Y402178D01*
X338779Y402200D01*
X338881Y402217D01*
X338898Y402226D01*
X338918Y402230D01*
X339007Y402283D01*
X339098Y402332D01*
X339112Y402346D01*
X339129Y402356D01*
X339196Y402435D01*
X339267Y402510D01*
X339276Y402528D01*
X339289Y402543D01*
X339327Y402639D01*
X339371Y402733D01*
X339373Y402753D01*
X339381Y402771D01*
X339399Y402938D01*
X339399Y403701D01*
X339401Y403701D01*
X339401Y402938D01*
X339404Y402918D01*
X339402Y402899D01*
X339424Y402797D01*
X339441Y402695D01*
X339450Y402678D01*
X339454Y402658D01*
X339507Y402569D01*
X339556Y402478D01*
X339570Y402464D01*
X339580Y402447D01*
X339659Y402380D01*
X339734Y402309D01*
X339752Y402300D01*
X339767Y402287D01*
X339863Y402248D01*
X339957Y402205D01*
X339977Y402203D01*
X339995Y402195D01*
X340162Y402177D01*
X348859Y402177D01*
X348745Y401457D01*
X348279Y400022D01*
X347594Y398679D01*
X346708Y397458D01*
X345642Y396392D01*
X344421Y395506D01*
X343078Y394821D01*
X342637Y394678D01*
X342547Y394631D01*
X342454Y394590D01*
X342438Y394575D01*
X342418Y394565D01*
X342348Y394492D01*
X342273Y394424D01*
X342262Y394404D01*
X342247Y394389D01*
X342203Y394297D01*
X342154Y394208D01*
X342150Y394186D01*
X342141Y394167D01*
X342129Y394066D01*
X342111Y393966D01*
X342114Y393944D01*
X342111Y393922D01*
X342132Y393823D01*
X342146Y393723D01*
X342157Y393703D01*
X342161Y393681D01*
X342212Y393594D01*
X342258Y393504D01*
X342274Y393488D01*
X342285Y393469D01*
X342361Y393402D01*
X342434Y393331D01*
X342458Y393318D01*
X342470Y393307D01*
X342500Y393295D01*
X342581Y393251D01*
X344794Y392334D01*
X344908Y392307D01*
X345021Y392278D01*
X345028Y392279D01*
X345034Y392277D01*
X345150Y392288D01*
X345267Y392298D01*
X345272Y392300D01*
X345279Y392301D01*
X345386Y392348D01*
X345493Y392394D01*
X345499Y392398D01*
X345503Y392401D01*
X345517Y392413D01*
X345624Y392499D01*
X350424Y397299D01*
X350477Y397373D01*
X350537Y397442D01*
X350549Y397473D01*
X350568Y397499D01*
X350595Y397586D01*
X350629Y397671D01*
X350633Y397712D01*
X350640Y397734D01*
X350639Y397766D01*
X350647Y397837D01*
X350647Y408867D01*
X350633Y408957D01*
X350625Y409048D01*
X350613Y409077D01*
X350608Y409109D01*
X350565Y409190D01*
X350529Y409274D01*
X350503Y409306D01*
X350492Y409327D01*
X350469Y409349D01*
X350424Y409405D01*
X317965Y441864D01*
X317891Y441917D01*
X317822Y441977D01*
X317791Y441989D01*
X317765Y442008D01*
X317678Y442035D01*
X317593Y442069D01*
X317552Y442073D01*
X317530Y442080D01*
X317498Y442079D01*
X317427Y442087D01*
X313369Y442087D01*
X310428Y443305D01*
X299033Y454700D01*
X297815Y457641D01*
X297815Y458084D01*
X297805Y458149D01*
X297804Y458215D01*
X297781Y458295D01*
X297776Y458327D01*
X297766Y458344D01*
X297757Y458376D01*
X297157Y459825D01*
X297095Y459925D01*
X297035Y460025D01*
X297031Y460029D01*
X297027Y460034D01*
X296938Y460109D01*
X296848Y460185D01*
X296843Y460187D01*
X296838Y460191D01*
X296730Y460233D01*
X296620Y460277D01*
X296613Y460278D01*
X296608Y460279D01*
X296590Y460280D01*
X296454Y460295D01*
X296286Y460295D01*
X292755Y461758D01*
X290054Y464459D01*
X288591Y467990D01*
X288591Y471810D01*
X290054Y475341D01*
X292755Y478042D01*
X295313Y479102D01*
X295413Y479164D01*
X295513Y479224D01*
X295517Y479228D01*
X295522Y479232D01*
X295597Y479322D01*
X295673Y479410D01*
X295675Y479416D01*
X295679Y479421D01*
X295721Y479530D01*
X295765Y479639D01*
X295766Y479646D01*
X295767Y479651D01*
X295768Y479669D01*
X295783Y479805D01*
X295783Y483175D01*
X296741Y485488D01*
X296756Y485552D01*
X296781Y485613D01*
X296790Y485696D01*
X296797Y485728D01*
X296796Y485747D01*
X296799Y485780D01*
X296799Y491612D01*
X296791Y491663D01*
X296792Y491668D01*
X296789Y491681D01*
X296788Y491743D01*
X296765Y491823D01*
X296760Y491855D01*
X296750Y491872D01*
X296741Y491904D01*
X295783Y494217D01*
X295783Y498095D01*
X295765Y498209D01*
X295747Y498326D01*
X295745Y498331D01*
X295744Y498337D01*
X295689Y498440D01*
X295636Y498545D01*
X295631Y498549D01*
X295628Y498555D01*
X295544Y498635D01*
X295460Y498717D01*
X295454Y498721D01*
X295450Y498724D01*
X295433Y498732D01*
X295313Y498798D01*
X292755Y499858D01*
X290054Y502559D01*
X288591Y506090D01*
X288591Y509910D01*
X290054Y513441D01*
X292755Y516142D01*
X295313Y517202D01*
X295413Y517264D01*
X295513Y517324D01*
X295517Y517328D01*
X295522Y517332D01*
X295597Y517422D01*
X295673Y517510D01*
X295675Y517516D01*
X295679Y517521D01*
X295721Y517630D01*
X295765Y517739D01*
X295766Y517746D01*
X295767Y517751D01*
X295768Y517769D01*
X295783Y517905D01*
X295783Y521783D01*
X296741Y524096D01*
X296750Y524135D01*
X296761Y524157D01*
X296763Y524176D01*
X296781Y524221D01*
X296790Y524304D01*
X296797Y524336D01*
X296796Y524355D01*
X296799Y524388D01*
X296799Y530220D01*
X296789Y530285D01*
X296788Y530351D01*
X296765Y530431D01*
X296760Y530463D01*
X296750Y530480D01*
X296741Y530512D01*
X295783Y532825D01*
X295783Y536195D01*
X295764Y536309D01*
X295747Y536426D01*
X295745Y536431D01*
X295744Y536437D01*
X295689Y536540D01*
X295636Y536645D01*
X295631Y536649D01*
X295628Y536655D01*
X295544Y536735D01*
X295460Y536817D01*
X295454Y536821D01*
X295450Y536824D01*
X295433Y536832D01*
X295313Y536898D01*
X292755Y537958D01*
X290054Y540659D01*
X288591Y544190D01*
X288591Y548010D01*
X290054Y551541D01*
X292755Y554242D01*
X295313Y555302D01*
X295413Y555364D01*
X295513Y555424D01*
X295517Y555428D01*
X295522Y555432D01*
X295597Y555522D01*
X295673Y555610D01*
X295675Y555616D01*
X295679Y555621D01*
X295721Y555730D01*
X295765Y555839D01*
X295766Y555846D01*
X295767Y555851D01*
X295768Y555869D01*
X295783Y556005D01*
X295783Y559375D01*
X296741Y561688D01*
X296756Y561752D01*
X296781Y561813D01*
X296790Y561896D01*
X296797Y561928D01*
X296796Y561947D01*
X296799Y561980D01*
X296799Y567812D01*
X296789Y567877D01*
X296788Y567943D01*
X296765Y568023D01*
X296760Y568055D01*
X296750Y568072D01*
X296741Y568104D01*
X295783Y570417D01*
X295783Y574295D01*
X295764Y574409D01*
X295747Y574526D01*
X295745Y574531D01*
X295744Y574537D01*
X295689Y574640D01*
X295636Y574745D01*
X295631Y574749D01*
X295628Y574755D01*
X295544Y574835D01*
X295460Y574917D01*
X295454Y574921D01*
X295450Y574924D01*
X295433Y574932D01*
X295313Y574998D01*
X292755Y576058D01*
X292327Y576485D01*
X292249Y576542D01*
X292173Y576604D01*
X292149Y576614D01*
X292128Y576629D01*
X292035Y576657D01*
X291944Y576692D01*
X291918Y576694D01*
X291893Y576701D01*
X291795Y576699D01*
X291698Y576703D01*
X291673Y576696D01*
X291647Y576695D01*
X291555Y576661D01*
X291462Y576634D01*
X291440Y576619D01*
X291416Y576610D01*
X291340Y576550D01*
X291260Y576494D01*
X291244Y576473D01*
X291224Y576457D01*
X291171Y576375D01*
X291113Y576297D01*
X291105Y576272D01*
X291091Y576250D01*
X291067Y576155D01*
X291037Y576063D01*
X291037Y576037D01*
X291031Y576011D01*
X291038Y575914D01*
X291039Y575817D01*
X291048Y575785D01*
X291050Y575766D01*
X291063Y575736D01*
X291086Y575656D01*
X291279Y575190D01*
X291279Y572890D01*
X290398Y570764D01*
X288772Y569138D01*
X286646Y568257D01*
X284346Y568257D01*
X282220Y569138D01*
X280594Y570764D01*
X279713Y572890D01*
X279713Y573086D01*
X279710Y573104D01*
X279712Y573121D01*
X279697Y573189D01*
X279691Y573267D01*
X279679Y573297D01*
X279674Y573329D01*
X279663Y573349D01*
X279660Y573362D01*
X279629Y573414D01*
X279595Y573493D01*
X279569Y573525D01*
X279558Y573546D01*
X279539Y573565D01*
X279534Y573573D01*
X279526Y573580D01*
X279490Y573624D01*
X274694Y578420D01*
X271811Y581303D01*
X271811Y588100D01*
X271797Y588190D01*
X271789Y588281D01*
X271777Y588311D01*
X271772Y588343D01*
X271729Y588423D01*
X271693Y588507D01*
X271667Y588539D01*
X271656Y588560D01*
X271633Y588582D01*
X271588Y588638D01*
X249430Y610796D01*
X249372Y610838D01*
X249320Y610887D01*
X249273Y610909D01*
X249231Y610940D01*
X249162Y610961D01*
X249097Y610991D01*
X249045Y610997D01*
X248995Y611012D01*
X248924Y611010D01*
X248853Y611018D01*
X248802Y611007D01*
X248750Y611006D01*
X248682Y610981D01*
X248612Y610966D01*
X248567Y610939D01*
X248519Y610921D01*
X248463Y610876D01*
X248401Y610840D01*
X248367Y610800D01*
X248327Y610768D01*
X248288Y610707D01*
X248241Y610653D01*
X248222Y610604D01*
X248194Y610561D01*
X248176Y610491D01*
X248149Y610425D01*
X248141Y610353D01*
X248133Y610322D01*
X248135Y610299D01*
X248131Y610258D01*
X248131Y607402D01*
X245022Y604293D01*
X241785Y604293D01*
X241695Y604279D01*
X241604Y604271D01*
X241574Y604259D01*
X241542Y604254D01*
X241462Y604211D01*
X241378Y604175D01*
X241346Y604149D01*
X241325Y604138D01*
X241303Y604115D01*
X241247Y604070D01*
X241191Y604014D01*
X241149Y603956D01*
X241099Y603904D01*
X241077Y603857D01*
X241047Y603815D01*
X241026Y603746D01*
X240996Y603681D01*
X240990Y603629D01*
X240975Y603580D01*
X240977Y603508D01*
X240969Y603437D01*
X240980Y603386D01*
X240981Y603334D01*
X241006Y603266D01*
X241021Y603196D01*
X241048Y603152D01*
X241065Y603103D01*
X241110Y603047D01*
X241147Y602985D01*
X241187Y602951D01*
X241219Y602911D01*
X241279Y602872D01*
X241334Y602825D01*
X241382Y602806D01*
X241426Y602778D01*
X241496Y602760D01*
X241562Y602733D01*
X241633Y602725D01*
X241664Y602717D01*
X241688Y602719D01*
X241729Y602715D01*
X242990Y602715D01*
X246099Y599606D01*
X246099Y595210D01*
X245446Y594558D01*
X245433Y594539D01*
X245415Y594524D01*
X245361Y594439D01*
X245303Y594358D01*
X245296Y594336D01*
X245284Y594316D01*
X245260Y594219D01*
X245231Y594123D01*
X245231Y594100D01*
X245226Y594077D01*
X245234Y593977D01*
X245237Y593877D01*
X245245Y593855D01*
X245247Y593832D01*
X245287Y593740D01*
X245321Y593646D01*
X245336Y593628D01*
X245345Y593607D01*
X245412Y593532D01*
X245475Y593454D01*
X245494Y593441D01*
X245510Y593424D01*
X245597Y593375D01*
X245682Y593321D01*
X245704Y593315D01*
X245724Y593304D01*
X245823Y593285D01*
X245920Y593261D01*
X245943Y593263D01*
X245966Y593258D01*
X246133Y593273D01*
X246495Y593345D01*
X252477Y593345D01*
X252477Y584962D01*
X252480Y584942D01*
X252478Y584923D01*
X252500Y584821D01*
X252517Y584719D01*
X252526Y584702D01*
X252530Y584682D01*
X252583Y584593D01*
X252632Y584502D01*
X252646Y584488D01*
X252656Y584471D01*
X252735Y584404D01*
X252810Y584333D01*
X252828Y584324D01*
X252843Y584311D01*
X252939Y584273D01*
X253033Y584229D01*
X253053Y584227D01*
X253071Y584219D01*
X253238Y584201D01*
X254001Y584201D01*
X254001Y584199D01*
X253238Y584199D01*
X253218Y584196D01*
X253199Y584198D01*
X253097Y584176D01*
X252995Y584159D01*
X252978Y584150D01*
X252958Y584146D01*
X252869Y584093D01*
X252778Y584044D01*
X252764Y584030D01*
X252747Y584020D01*
X252680Y583941D01*
X252609Y583866D01*
X252600Y583848D01*
X252587Y583833D01*
X252548Y583737D01*
X252505Y583643D01*
X252503Y583623D01*
X252495Y583605D01*
X252477Y583438D01*
X252477Y575055D01*
X246495Y575055D01*
X244729Y575407D01*
X243064Y576096D01*
X241723Y576992D01*
X241614Y577042D01*
X241505Y577093D01*
X241502Y577093D01*
X241499Y577094D01*
X241379Y577107D01*
X241261Y577120D01*
X241257Y577119D01*
X241254Y577119D01*
X241138Y577093D01*
X241020Y577067D01*
X241017Y577066D01*
X241014Y577065D01*
X240912Y577003D01*
X240809Y576941D01*
X240807Y576939D01*
X240804Y576937D01*
X240727Y576845D01*
X240649Y576754D01*
X240648Y576751D01*
X240646Y576749D01*
X240602Y576638D01*
X240557Y576526D01*
X240557Y576522D01*
X240556Y576520D01*
X240555Y576509D01*
X240539Y576359D01*
X240539Y575513D01*
X240553Y575423D01*
X240561Y575332D01*
X240573Y575302D01*
X240578Y575270D01*
X240621Y575190D01*
X240657Y575106D01*
X240683Y575073D01*
X240694Y575053D01*
X240717Y575031D01*
X240762Y574975D01*
X242743Y572994D01*
X242817Y572941D01*
X242886Y572881D01*
X242916Y572869D01*
X242942Y572850D01*
X243030Y572823D01*
X243114Y572789D01*
X243155Y572785D01*
X243177Y572778D01*
X243210Y572779D01*
X243281Y572771D01*
X257190Y572771D01*
X277115Y552846D01*
X277115Y453593D01*
X277129Y453503D01*
X277137Y453412D01*
X277149Y453382D01*
X277154Y453350D01*
X277197Y453270D01*
X277233Y453186D01*
X277259Y453154D01*
X277270Y453133D01*
X277293Y453111D01*
X277321Y453076D01*
X277321Y453075D01*
X277322Y453074D01*
X277338Y453055D01*
X317905Y412488D01*
X317979Y412435D01*
X318048Y412375D01*
X318078Y412363D01*
X318104Y412344D01*
X318191Y412317D01*
X318276Y412283D01*
X318317Y412279D01*
X318339Y412272D01*
X318372Y412273D01*
X318443Y412265D01*
X321104Y412265D01*
X324252Y410961D01*
X326661Y408552D01*
X327965Y405404D01*
X327965Y401996D01*
X326661Y398848D01*
X324252Y396439D01*
X321104Y395135D01*
X317696Y395135D01*
X314548Y396439D01*
X312139Y398848D01*
X310835Y401996D01*
X310835Y405404D01*
X312139Y408552D01*
X312499Y408912D01*
X312511Y408928D01*
X312527Y408940D01*
X312583Y409027D01*
X312643Y409111D01*
X312649Y409130D01*
X312660Y409147D01*
X312685Y409248D01*
X312715Y409347D01*
X312715Y409366D01*
X312720Y409386D01*
X312712Y409489D01*
X312709Y409592D01*
X312702Y409611D01*
X312700Y409631D01*
X312660Y409726D01*
X312624Y409823D01*
X312612Y409839D01*
X312604Y409857D01*
X312499Y409988D01*
X273385Y449102D01*
X271525Y450962D01*
X271525Y550215D01*
X271511Y550305D01*
X271503Y550396D01*
X271491Y550426D01*
X271486Y550458D01*
X271443Y550538D01*
X271407Y550622D01*
X271381Y550654D01*
X271370Y550675D01*
X271347Y550697D01*
X271302Y550753D01*
X255097Y566958D01*
X255023Y567011D01*
X254954Y567071D01*
X254924Y567083D01*
X254898Y567102D01*
X254811Y567129D01*
X254726Y567163D01*
X254685Y567167D01*
X254663Y567174D01*
X254630Y567173D01*
X254559Y567181D01*
X240650Y567181D01*
X237774Y570057D01*
X237716Y570099D01*
X237664Y570149D01*
X237617Y570171D01*
X237575Y570201D01*
X237506Y570222D01*
X237441Y570252D01*
X237389Y570258D01*
X237339Y570273D01*
X237268Y570271D01*
X237197Y570279D01*
X237146Y570268D01*
X237094Y570267D01*
X237026Y570242D01*
X236956Y570227D01*
X236911Y570200D01*
X236863Y570182D01*
X236807Y570138D01*
X236745Y570101D01*
X236711Y570061D01*
X236671Y570029D01*
X236632Y569968D01*
X236585Y569914D01*
X236566Y569866D01*
X236538Y569822D01*
X236520Y569752D01*
X236493Y569686D01*
X236485Y569614D01*
X236477Y569583D01*
X236479Y569560D01*
X236475Y569519D01*
X236475Y465785D01*
X236489Y465695D01*
X236497Y465604D01*
X236509Y465574D01*
X236514Y465542D01*
X236557Y465462D01*
X236593Y465378D01*
X236619Y465346D01*
X236630Y465325D01*
X236653Y465303D01*
X236698Y465247D01*
X242743Y459202D01*
X242817Y459149D01*
X242886Y459089D01*
X242916Y459077D01*
X242942Y459058D01*
X243029Y459031D01*
X243114Y458997D01*
X243155Y458993D01*
X243177Y458986D01*
X243210Y458987D01*
X243281Y458979D01*
X251094Y458979D01*
X252954Y457119D01*
X297585Y412488D01*
X297659Y412435D01*
X297728Y412375D01*
X297758Y412363D01*
X297784Y412344D01*
X297871Y412317D01*
X297956Y412283D01*
X297997Y412279D01*
X298019Y412272D01*
X298052Y412273D01*
X298123Y412265D01*
X301104Y412265D01*
X304252Y410961D01*
X306661Y408552D01*
X307965Y405404D01*
X307965Y401996D01*
X306661Y398848D01*
X304252Y396439D01*
X301104Y395135D01*
X297696Y395135D01*
X294548Y396439D01*
X292139Y398848D01*
X290835Y401996D01*
X290835Y405404D01*
X292139Y408552D01*
X292339Y408752D01*
X292351Y408768D01*
X292367Y408780D01*
X292423Y408867D01*
X292483Y408951D01*
X292489Y408970D01*
X292500Y408987D01*
X292525Y409088D01*
X292555Y409187D01*
X292555Y409206D01*
X292560Y409226D01*
X292552Y409329D01*
X292549Y409432D01*
X292542Y409451D01*
X292540Y409471D01*
X292500Y409566D01*
X292464Y409663D01*
X292452Y409679D01*
X292444Y409697D01*
X292339Y409828D01*
X249001Y453166D01*
X248927Y453219D01*
X248858Y453279D01*
X248828Y453291D01*
X248802Y453310D01*
X248715Y453337D01*
X248630Y453371D01*
X248589Y453375D01*
X248567Y453382D01*
X248534Y453381D01*
X248463Y453389D01*
X244297Y453389D01*
X244226Y453378D01*
X244154Y453376D01*
X244105Y453358D01*
X244054Y453350D01*
X243991Y453316D01*
X243923Y453291D01*
X243883Y453259D01*
X243837Y453234D01*
X243787Y453182D01*
X243731Y453138D01*
X243703Y453094D01*
X243667Y453056D01*
X243637Y452991D01*
X243598Y452931D01*
X243586Y452880D01*
X243564Y452833D01*
X243556Y452762D01*
X243538Y452692D01*
X243542Y452640D01*
X243537Y452589D01*
X243552Y452518D01*
X243557Y452447D01*
X243578Y452399D01*
X243589Y452348D01*
X243626Y452287D01*
X243654Y452221D01*
X243699Y452165D01*
X243715Y452137D01*
X243733Y452122D01*
X243759Y452090D01*
X274067Y421782D01*
X274067Y416001D01*
X274081Y415911D01*
X274089Y415820D01*
X274101Y415790D01*
X274106Y415758D01*
X274149Y415678D01*
X274185Y415594D01*
X274211Y415562D01*
X274222Y415541D01*
X274245Y415519D01*
X274290Y415463D01*
X277265Y412488D01*
X277339Y412435D01*
X277408Y412375D01*
X277438Y412363D01*
X277464Y412344D01*
X277551Y412317D01*
X277636Y412283D01*
X277677Y412279D01*
X277699Y412272D01*
X277732Y412273D01*
X277803Y412265D01*
X281104Y412265D01*
X284252Y410961D01*
X286661Y408552D01*
X287965Y405404D01*
X287965Y401996D01*
X286661Y398848D01*
X284252Y396439D01*
X281104Y395135D01*
X277696Y395135D01*
X274548Y396439D01*
X273334Y397653D01*
X273276Y397695D01*
X273224Y397745D01*
X273177Y397767D01*
X273135Y397797D01*
X273066Y397818D01*
X273001Y397848D01*
X272949Y397854D01*
X272899Y397869D01*
X272828Y397867D01*
X272757Y397875D01*
X272706Y397864D01*
X272654Y397863D01*
X272586Y397838D01*
X272516Y397823D01*
X272471Y397796D01*
X272423Y397778D01*
X272367Y397734D01*
X272305Y397697D01*
X272271Y397657D01*
X272231Y397625D01*
X272192Y397564D01*
X272145Y397510D01*
X272126Y397462D01*
X272098Y397418D01*
X272080Y397348D01*
X272053Y397282D01*
X272045Y397210D01*
X272037Y397179D01*
X272039Y397156D01*
X272035Y397115D01*
X272035Y393050D01*
X270175Y391190D01*
X267277Y388292D01*
X267209Y388198D01*
X267139Y388104D01*
X267137Y388098D01*
X267133Y388093D01*
X267099Y387982D01*
X267063Y387870D01*
X267063Y387864D01*
X267061Y387858D01*
X267064Y387741D01*
X267065Y387624D01*
X267067Y387617D01*
X267067Y387612D01*
X267074Y387594D01*
X267112Y387463D01*
X267965Y385404D01*
X267965Y381996D01*
X266661Y378848D01*
X264252Y376439D01*
X261104Y375135D01*
X257696Y375135D01*
X254548Y376439D01*
X252139Y378848D01*
X250835Y381996D01*
X250835Y385404D01*
X252139Y388552D01*
X254548Y390961D01*
X257696Y392265D01*
X261104Y392265D01*
X262218Y391803D01*
X262332Y391776D01*
X262445Y391748D01*
X262452Y391748D01*
X262458Y391747D01*
X262574Y391758D01*
X262690Y391767D01*
X262696Y391769D01*
X262703Y391770D01*
X262810Y391818D01*
X262917Y391863D01*
X262923Y391868D01*
X262927Y391870D01*
X262941Y391883D01*
X263048Y391968D01*
X266222Y395143D01*
X266275Y395217D01*
X266335Y395286D01*
X266347Y395316D01*
X266366Y395342D01*
X266393Y395430D01*
X266427Y395514D01*
X266431Y395555D01*
X266438Y395577D01*
X266437Y395610D01*
X266445Y395681D01*
X266445Y396795D01*
X266434Y396866D01*
X266432Y396938D01*
X266414Y396986D01*
X266406Y397038D01*
X266372Y397101D01*
X266347Y397169D01*
X266315Y397209D01*
X266290Y397255D01*
X266238Y397305D01*
X266194Y397361D01*
X266150Y397389D01*
X266112Y397425D01*
X266047Y397455D01*
X265987Y397494D01*
X265936Y397506D01*
X265889Y397528D01*
X265818Y397536D01*
X265748Y397554D01*
X265696Y397550D01*
X265645Y397555D01*
X265574Y397540D01*
X265503Y397534D01*
X265455Y397514D01*
X265404Y397503D01*
X265343Y397466D01*
X265277Y397438D01*
X265221Y397393D01*
X265193Y397377D01*
X265178Y397359D01*
X265146Y397333D01*
X264252Y396439D01*
X261104Y395135D01*
X257696Y395135D01*
X254548Y396439D01*
X252139Y398848D01*
X250835Y401996D01*
X250835Y405404D01*
X252190Y408673D01*
X252216Y408787D01*
X252245Y408901D01*
X252244Y408907D01*
X252246Y408913D01*
X252235Y409029D01*
X252226Y409146D01*
X252223Y409151D01*
X252223Y409158D01*
X252175Y409265D01*
X252129Y409372D01*
X252125Y409378D01*
X252123Y409382D01*
X252110Y409396D01*
X252025Y409503D01*
X197185Y464342D01*
X195325Y466202D01*
X195325Y474015D01*
X195311Y474105D01*
X195303Y474196D01*
X195291Y474226D01*
X195286Y474258D01*
X195243Y474338D01*
X195207Y474422D01*
X195181Y474454D01*
X195170Y474475D01*
X195147Y474497D01*
X195102Y474553D01*
X177881Y491774D01*
X177807Y491827D01*
X177738Y491887D01*
X177708Y491899D01*
X177682Y491918D01*
X177595Y491945D01*
X177510Y491979D01*
X177469Y491983D01*
X177447Y491990D01*
X177414Y491989D01*
X177343Y491997D01*
X142185Y491997D01*
X142095Y491983D01*
X142004Y491975D01*
X141975Y491963D01*
X141943Y491958D01*
X141862Y491915D01*
X141778Y491879D01*
X141746Y491853D01*
X141725Y491842D01*
X141703Y491819D01*
X141647Y491774D01*
X139358Y489485D01*
X138347Y489485D01*
X138277Y489474D01*
X138205Y489472D01*
X138156Y489454D01*
X138105Y489446D01*
X138041Y489412D01*
X137974Y489387D01*
X137933Y489355D01*
X137887Y489330D01*
X137838Y489278D01*
X137782Y489234D01*
X137754Y489190D01*
X137718Y489152D01*
X137688Y489087D01*
X137649Y489027D01*
X137636Y488976D01*
X137614Y488929D01*
X137606Y488858D01*
X137589Y488788D01*
X137593Y488736D01*
X137587Y488685D01*
X137602Y488614D01*
X137608Y488543D01*
X137628Y488495D01*
X137639Y488444D01*
X137676Y488383D01*
X137704Y488317D01*
X137749Y488261D01*
X137765Y488233D01*
X137783Y488218D01*
X137809Y488186D01*
X166667Y459328D01*
X166741Y459275D01*
X166810Y459215D01*
X166841Y459203D01*
X166867Y459184D01*
X166954Y459157D01*
X167039Y459123D01*
X167080Y459119D01*
X167102Y459112D01*
X167134Y459113D01*
X167205Y459105D01*
X173295Y459105D01*
X176236Y457887D01*
X220159Y413964D01*
X220233Y413911D01*
X220302Y413851D01*
X220333Y413839D01*
X220359Y413820D01*
X220446Y413793D01*
X220531Y413759D01*
X220572Y413755D01*
X220594Y413748D01*
X220626Y413749D01*
X220697Y413741D01*
X221397Y413741D01*
X225088Y412212D01*
X227912Y409388D01*
X229495Y405565D01*
X229533Y405504D01*
X229562Y405439D01*
X229598Y405400D01*
X229625Y405356D01*
X229680Y405310D01*
X229729Y405257D01*
X229775Y405232D01*
X229815Y405199D01*
X229881Y405173D01*
X229944Y405139D01*
X229996Y405130D01*
X230044Y405111D01*
X230116Y405108D01*
X230186Y405095D01*
X230238Y405103D01*
X230290Y405101D01*
X230359Y405121D01*
X230430Y405131D01*
X230476Y405155D01*
X230526Y405169D01*
X230585Y405210D01*
X230649Y405242D01*
X230685Y405280D01*
X230728Y405309D01*
X230771Y405367D01*
X230821Y405418D01*
X230856Y405481D01*
X230875Y405507D01*
X230882Y405529D01*
X230902Y405565D01*
X232139Y408552D01*
X234548Y410961D01*
X237696Y412265D01*
X241104Y412265D01*
X244252Y410961D01*
X246661Y408552D01*
X247965Y405404D01*
X247965Y401996D01*
X246661Y398848D01*
X244252Y396439D01*
X241104Y395135D01*
X237696Y395135D01*
X234548Y396439D01*
X232139Y398848D01*
X230902Y401835D01*
X230864Y401896D01*
X230835Y401961D01*
X230800Y402000D01*
X230772Y402044D01*
X230717Y402090D01*
X230669Y402143D01*
X230623Y402168D01*
X230583Y402201D01*
X230516Y402227D01*
X230453Y402261D01*
X230402Y402270D01*
X230353Y402289D01*
X230282Y402292D01*
X230211Y402305D01*
X230160Y402297D01*
X230108Y402299D01*
X230039Y402279D01*
X229968Y402269D01*
X229921Y402245D01*
X229871Y402231D01*
X229813Y402190D01*
X229749Y402158D01*
X229712Y402120D01*
X229669Y402091D01*
X229627Y402033D01*
X229576Y401982D01*
X229542Y401919D01*
X229523Y401893D01*
X229515Y401871D01*
X229495Y401835D01*
X227912Y398012D01*
X225088Y395188D01*
X222581Y394149D01*
X222495Y394096D01*
X222405Y394048D01*
X222390Y394031D01*
X222371Y394020D01*
X222307Y393942D01*
X222238Y393868D01*
X222229Y393847D01*
X222215Y393830D01*
X222178Y393735D01*
X222137Y393643D01*
X222134Y393621D01*
X222126Y393601D01*
X222122Y393500D01*
X222112Y393399D01*
X222117Y393377D01*
X222116Y393355D01*
X222144Y393258D01*
X222167Y393159D01*
X222178Y393140D01*
X222185Y393119D01*
X222242Y393036D01*
X222295Y392949D01*
X222312Y392935D01*
X222325Y392917D01*
X222406Y392856D01*
X222484Y392791D01*
X222509Y392780D01*
X222522Y392770D01*
X222553Y392760D01*
X222637Y392722D01*
X223078Y392579D01*
X224421Y391894D01*
X225642Y391008D01*
X226708Y389942D01*
X227594Y388721D01*
X228279Y387378D01*
X228745Y385943D01*
X228859Y385223D01*
X220162Y385223D01*
X220142Y385220D01*
X220123Y385222D01*
X220021Y385200D01*
X219919Y385183D01*
X219902Y385174D01*
X219882Y385170D01*
X219793Y385117D01*
X219702Y385068D01*
X219688Y385054D01*
X219671Y385044D01*
X219604Y384965D01*
X219533Y384890D01*
X219524Y384872D01*
X219511Y384857D01*
X219473Y384761D01*
X219429Y384667D01*
X219427Y384647D01*
X219419Y384629D01*
X219401Y384462D01*
X219401Y383699D01*
X219399Y383699D01*
X219399Y384462D01*
X219396Y384482D01*
X219398Y384501D01*
X219376Y384603D01*
X219359Y384705D01*
X219350Y384722D01*
X219346Y384742D01*
X219293Y384831D01*
X219244Y384922D01*
X219230Y384936D01*
X219220Y384953D01*
X219141Y385020D01*
X219066Y385091D01*
X219048Y385100D01*
X219033Y385113D01*
X218937Y385152D01*
X218843Y385195D01*
X218823Y385197D01*
X218805Y385205D01*
X218638Y385223D01*
X209941Y385223D01*
X210055Y385943D01*
X210521Y387378D01*
X211206Y388721D01*
X212092Y389942D01*
X213158Y391008D01*
X214379Y391894D01*
X215722Y392579D01*
X216163Y392722D01*
X216253Y392769D01*
X216346Y392810D01*
X216362Y392825D01*
X216382Y392835D01*
X216452Y392908D01*
X216527Y392976D01*
X216538Y392996D01*
X216553Y393011D01*
X216597Y393103D01*
X216646Y393192D01*
X216650Y393214D01*
X216659Y393233D01*
X216671Y393334D01*
X216689Y393434D01*
X216686Y393456D01*
X216689Y393478D01*
X216668Y393577D01*
X216654Y393677D01*
X216643Y393697D01*
X216639Y393719D01*
X216588Y393806D01*
X216542Y393896D01*
X216526Y393912D01*
X216515Y393931D01*
X216439Y393998D01*
X216366Y394069D01*
X216342Y394082D01*
X216330Y394093D01*
X216300Y394105D01*
X216219Y394149D01*
X213712Y395188D01*
X210888Y398012D01*
X209359Y401703D01*
X209359Y401819D01*
X209357Y401831D01*
X209358Y401840D01*
X209348Y401887D01*
X209345Y401909D01*
X209337Y402000D01*
X209325Y402029D01*
X209320Y402061D01*
X209277Y402142D01*
X209241Y402226D01*
X209215Y402258D01*
X209204Y402279D01*
X209181Y402301D01*
X209136Y402357D01*
X168613Y442880D01*
X168539Y442933D01*
X168470Y442993D01*
X168439Y443005D01*
X168413Y443024D01*
X168326Y443051D01*
X168241Y443085D01*
X168200Y443089D01*
X168178Y443096D01*
X168146Y443095D01*
X168075Y443103D01*
X161985Y443103D01*
X159044Y444321D01*
X109041Y494324D01*
X107823Y497265D01*
X107823Y514531D01*
X107809Y514621D01*
X107801Y514712D01*
X107789Y514741D01*
X107784Y514773D01*
X107741Y514854D01*
X107705Y514938D01*
X107679Y514970D01*
X107668Y514991D01*
X107645Y515013D01*
X107600Y515069D01*
X100941Y521728D01*
X100888Y521766D01*
X100841Y521812D01*
X100768Y521852D01*
X100742Y521871D01*
X100723Y521877D01*
X100694Y521893D01*
X99100Y522553D01*
X96717Y524936D01*
X96643Y524989D01*
X96574Y525049D01*
X96543Y525061D01*
X96517Y525080D01*
X96430Y525107D01*
X96345Y525141D01*
X96304Y525145D01*
X96282Y525152D01*
X96250Y525151D01*
X96179Y525159D01*
X79263Y525159D01*
X75389Y526764D01*
X72424Y529729D01*
X70819Y533603D01*
X70819Y537797D01*
X72424Y541671D01*
X75389Y544636D01*
X79263Y546241D01*
X98537Y546241D01*
X102411Y544636D01*
X105376Y541671D01*
X106981Y537797D01*
X106981Y537617D01*
X106995Y537527D01*
X107003Y537436D01*
X107015Y537407D01*
X107020Y537375D01*
X107063Y537294D01*
X107099Y537210D01*
X107125Y537178D01*
X107136Y537157D01*
X107159Y537135D01*
X107204Y537079D01*
X107339Y536944D01*
X107392Y536906D01*
X107439Y536860D01*
X107512Y536820D01*
X107538Y536801D01*
X107557Y536795D01*
X107586Y536779D01*
X109180Y536119D01*
X110206Y535093D01*
X110222Y535081D01*
X110234Y535066D01*
X110322Y535010D01*
X110405Y534949D01*
X110424Y534944D01*
X110441Y534933D01*
X110542Y534908D01*
X110641Y534877D01*
X110660Y534878D01*
X110680Y534873D01*
X110783Y534881D01*
X110886Y534883D01*
X110905Y534890D01*
X110925Y534892D01*
X111020Y534932D01*
X111117Y534968D01*
X111133Y534980D01*
X111151Y534988D01*
X111282Y535093D01*
X144176Y567987D01*
X144220Y568047D01*
X144257Y568086D01*
X144263Y568101D01*
X144289Y568130D01*
X144301Y568161D01*
X144320Y568187D01*
X144347Y568274D01*
X144381Y568359D01*
X144385Y568400D01*
X144392Y568422D01*
X144391Y568454D01*
X144399Y568525D01*
X144399Y631511D01*
X145617Y634452D01*
X183428Y672263D01*
X186369Y673481D01*
X207699Y673481D01*
X207789Y673495D01*
X207880Y673503D01*
X207909Y673515D01*
X207941Y673520D01*
X208022Y673563D01*
X208106Y673599D01*
X208138Y673625D01*
X208159Y673636D01*
X208181Y673659D01*
X208237Y673704D01*
X213264Y678731D01*
X213317Y678805D01*
X213377Y678874D01*
X213389Y678905D01*
X213408Y678931D01*
X213435Y679018D01*
X213469Y679103D01*
X213473Y679144D01*
X213480Y679166D01*
X213479Y679198D01*
X213486Y679261D01*
X214705Y682204D01*
X215671Y683170D01*
X215739Y683264D01*
X215809Y683359D01*
X215811Y683365D01*
X215815Y683370D01*
X215849Y683481D01*
X215885Y683593D01*
X215885Y683599D01*
X215887Y683605D01*
X215884Y683722D01*
X215883Y683839D01*
X215881Y683846D01*
X215881Y683851D01*
X215874Y683868D01*
X215836Y684000D01*
X215462Y684903D01*
X215424Y684964D01*
X215395Y685030D01*
X215360Y685068D01*
X215332Y685112D01*
X215277Y685158D01*
X215229Y685211D01*
X215183Y685236D01*
X215143Y685269D01*
X215076Y685295D01*
X215013Y685329D01*
X214962Y685339D01*
X214913Y685357D01*
X214842Y685360D01*
X214771Y685373D01*
X214720Y685365D01*
X214668Y685368D01*
X214599Y685348D01*
X214528Y685337D01*
X214481Y685314D01*
X214431Y685299D01*
X214373Y685258D01*
X214309Y685226D01*
X214272Y685189D01*
X214229Y685159D01*
X214187Y685101D01*
X214136Y685050D01*
X214102Y684987D01*
X214083Y684961D01*
X214075Y684939D01*
X214055Y684903D01*
X212350Y680785D01*
X209115Y677550D01*
X204888Y675799D01*
X200312Y675799D01*
X196085Y677550D01*
X192850Y680785D01*
X191099Y685012D01*
X191099Y689588D01*
X192850Y693815D01*
X196085Y697050D01*
X200312Y698801D01*
X204888Y698801D01*
X205003Y698753D01*
X205116Y698726D01*
X205230Y698698D01*
X205236Y698698D01*
X205242Y698697D01*
X205359Y698708D01*
X205475Y698717D01*
X205481Y698719D01*
X205487Y698720D01*
X205594Y698768D01*
X205701Y698813D01*
X205707Y698818D01*
X205712Y698820D01*
X205726Y698833D01*
X205832Y698918D01*
X215708Y708794D01*
X218591Y711677D01*
X362561Y711677D01*
X390621Y683617D01*
X390621Y627023D01*
X385764Y622166D01*
X385711Y622092D01*
X385651Y622023D01*
X385639Y621993D01*
X385620Y621966D01*
X385593Y621879D01*
X385559Y621795D01*
X385555Y621754D01*
X385548Y621731D01*
X385549Y621699D01*
X385541Y621628D01*
X385541Y593566D01*
X385544Y593546D01*
X385542Y593527D01*
X385564Y593425D01*
X385580Y593323D01*
X385590Y593306D01*
X385594Y593286D01*
X385647Y593197D01*
X385696Y593106D01*
X385710Y593092D01*
X385720Y593075D01*
X385799Y593008D01*
X385874Y592936D01*
X385892Y592928D01*
X385907Y592915D01*
X386003Y592876D01*
X386097Y592833D01*
X386117Y592831D01*
X386135Y592823D01*
X386302Y592805D01*
X389316Y592805D01*
X392478Y591495D01*
X394899Y589074D01*
X396209Y585912D01*
X396209Y582488D01*
X394899Y579326D01*
X392478Y576905D01*
X389316Y575595D01*
X372684Y575595D01*
X369522Y576905D01*
X367101Y579326D01*
X365791Y582488D01*
X365791Y585912D01*
X367101Y589074D01*
X369522Y591495D01*
X372684Y592805D01*
X375698Y592805D01*
X375718Y592808D01*
X375737Y592806D01*
X375839Y592828D01*
X375941Y592844D01*
X375958Y592854D01*
X375978Y592858D01*
X376067Y592911D01*
X376158Y592960D01*
X376172Y592974D01*
X376189Y592984D01*
X376256Y593063D01*
X376328Y593138D01*
X376336Y593156D01*
X376349Y593171D01*
X376388Y593267D01*
X376431Y593361D01*
X376433Y593381D01*
X376441Y593399D01*
X376459Y593566D01*
X376459Y625705D01*
X381316Y630562D01*
X381369Y630636D01*
X381429Y630705D01*
X381441Y630735D01*
X381460Y630762D01*
X381487Y630849D01*
X381521Y630933D01*
X381525Y630974D01*
X381532Y630997D01*
X381531Y631029D01*
X381539Y631100D01*
X381539Y679540D01*
X381525Y679630D01*
X381517Y679721D01*
X381505Y679751D01*
X381500Y679783D01*
X381457Y679863D01*
X381421Y679947D01*
X381395Y679979D01*
X381384Y680000D01*
X381361Y680022D01*
X381316Y680078D01*
X359022Y702372D01*
X358948Y702425D01*
X358879Y702485D01*
X358849Y702497D01*
X358822Y702516D01*
X358735Y702543D01*
X358651Y702577D01*
X358610Y702581D01*
X358587Y702588D01*
X358555Y702587D01*
X358484Y702595D01*
X222668Y702595D01*
X222578Y702581D01*
X222487Y702573D01*
X222457Y702561D01*
X222425Y702556D01*
X222345Y702513D01*
X222261Y702477D01*
X222229Y702451D01*
X222208Y702440D01*
X222186Y702417D01*
X222130Y702372D01*
X213068Y693310D01*
X213000Y693216D01*
X212930Y693121D01*
X212928Y693115D01*
X212924Y693110D01*
X212890Y692999D01*
X212853Y692887D01*
X212853Y692881D01*
X212852Y692875D01*
X212855Y692758D01*
X212856Y692641D01*
X212858Y692634D01*
X212858Y692629D01*
X212864Y692612D01*
X212903Y692480D01*
X214055Y689697D01*
X214093Y689636D01*
X214122Y689570D01*
X214158Y689532D01*
X214185Y689488D01*
X214240Y689442D01*
X214289Y689389D01*
X214334Y689364D01*
X214375Y689331D01*
X214442Y689305D01*
X214504Y689271D01*
X214556Y689261D01*
X214604Y689243D01*
X214676Y689240D01*
X214746Y689227D01*
X214798Y689235D01*
X214850Y689232D01*
X214919Y689252D01*
X214990Y689263D01*
X215036Y689286D01*
X215086Y689301D01*
X215145Y689342D01*
X215209Y689374D01*
X215245Y689411D01*
X215288Y689441D01*
X215331Y689499D01*
X215381Y689550D01*
X215416Y689613D01*
X215435Y689639D01*
X215442Y689661D01*
X215462Y689697D01*
X217402Y694381D01*
X220919Y697898D01*
X225513Y699801D01*
X230487Y699801D01*
X235081Y697898D01*
X238598Y694381D01*
X240501Y689787D01*
X240501Y684813D01*
X238598Y680219D01*
X235081Y676702D01*
X230487Y674799D01*
X230250Y674799D01*
X230230Y674796D01*
X230211Y674798D01*
X230109Y674776D01*
X230007Y674760D01*
X229990Y674750D01*
X229970Y674746D01*
X229881Y674693D01*
X229790Y674644D01*
X229776Y674630D01*
X229759Y674620D01*
X229692Y674541D01*
X229620Y674466D01*
X229612Y674448D01*
X229599Y674433D01*
X229560Y674337D01*
X229517Y674243D01*
X229515Y674223D01*
X229507Y674205D01*
X229490Y674052D01*
X228271Y671108D01*
X225913Y668750D01*
X216577Y659414D01*
X216535Y659356D01*
X216486Y659304D01*
X216464Y659257D01*
X216433Y659215D01*
X216412Y659146D01*
X216382Y659081D01*
X216376Y659029D01*
X216361Y658979D01*
X216363Y658908D01*
X216355Y658837D01*
X216366Y658786D01*
X216367Y658734D01*
X216392Y658666D01*
X216407Y658596D01*
X216434Y658551D01*
X216452Y658503D01*
X216497Y658447D01*
X216533Y658385D01*
X216573Y658351D01*
X216606Y658311D01*
X216666Y658272D01*
X216720Y658225D01*
X216769Y658206D01*
X216813Y658178D01*
X216882Y658160D01*
X216949Y658133D01*
X217020Y658125D01*
X217051Y658117D01*
X217074Y658119D01*
X217115Y658115D01*
X226623Y658115D01*
X226693Y658126D01*
X226765Y658128D01*
X226814Y658146D01*
X226865Y658154D01*
X226929Y658188D01*
X226996Y658213D01*
X227037Y658245D01*
X227083Y658270D01*
X227132Y658322D01*
X227188Y658366D01*
X227216Y658410D01*
X227252Y658448D01*
X227282Y658513D01*
X227321Y658573D01*
X227334Y658624D01*
X227356Y658671D01*
X227364Y658742D01*
X227381Y658812D01*
X227377Y658864D01*
X227383Y658915D01*
X227368Y658986D01*
X227362Y659057D01*
X227342Y659105D01*
X227331Y659156D01*
X227294Y659217D01*
X227266Y659283D01*
X227221Y659339D01*
X227204Y659367D01*
X227187Y659382D01*
X227161Y659414D01*
X225325Y661250D01*
X225325Y665646D01*
X228434Y668755D01*
X231671Y668755D01*
X231761Y668769D01*
X231852Y668777D01*
X231882Y668789D01*
X231914Y668794D01*
X231994Y668837D01*
X232078Y668873D01*
X232110Y668899D01*
X232131Y668910D01*
X232153Y668933D01*
X232209Y668978D01*
X243762Y680531D01*
X243830Y680625D01*
X243900Y680719D01*
X243902Y680725D01*
X243906Y680730D01*
X243940Y680841D01*
X243976Y680953D01*
X243976Y680959D01*
X243978Y680965D01*
X243975Y681082D01*
X243974Y681199D01*
X243972Y681206D01*
X243972Y681211D01*
X243965Y681229D01*
X243927Y681360D01*
X242375Y685107D01*
X242375Y689493D01*
X244054Y693545D01*
X247155Y696646D01*
X251207Y698325D01*
X255593Y698325D01*
X259645Y696646D01*
X262746Y693545D01*
X264425Y689493D01*
X264425Y685107D01*
X262746Y681055D01*
X259645Y677954D01*
X255593Y676275D01*
X251207Y676275D01*
X248993Y677192D01*
X248880Y677219D01*
X248766Y677248D01*
X248760Y677247D01*
X248754Y677248D01*
X248637Y677237D01*
X248521Y677228D01*
X248515Y677226D01*
X248509Y677225D01*
X248401Y677178D01*
X248295Y677132D01*
X248289Y677127D01*
X248284Y677125D01*
X248270Y677113D01*
X248164Y677027D01*
X236162Y665025D01*
X236109Y664951D01*
X236049Y664882D01*
X236037Y664852D01*
X236018Y664826D01*
X235991Y664739D01*
X235957Y664654D01*
X235953Y664613D01*
X235946Y664591D01*
X235947Y664558D01*
X235939Y664487D01*
X235939Y661250D01*
X234103Y659414D01*
X234061Y659356D01*
X234012Y659304D01*
X233990Y659257D01*
X233960Y659215D01*
X233938Y659146D01*
X233908Y659081D01*
X233903Y659029D01*
X233887Y658979D01*
X233889Y658908D01*
X233881Y658837D01*
X233892Y658786D01*
X233894Y658734D01*
X233918Y658666D01*
X233933Y658596D01*
X233960Y658551D01*
X233978Y658503D01*
X234023Y658447D01*
X234060Y658385D01*
X234099Y658351D01*
X234132Y658311D01*
X234192Y658272D01*
X234247Y658225D01*
X234295Y658206D01*
X234339Y658178D01*
X234408Y658160D01*
X234475Y658133D01*
X234546Y658125D01*
X234577Y658117D01*
X234600Y658119D01*
X234641Y658115D01*
X293167Y658115D01*
X293257Y658129D01*
X293348Y658137D01*
X293378Y658149D01*
X293410Y658154D01*
X293490Y658197D01*
X293574Y658233D01*
X293606Y658259D01*
X293627Y658270D01*
X293649Y658293D01*
X293705Y658338D01*
X318772Y683404D01*
X318840Y683499D01*
X318910Y683593D01*
X318912Y683599D01*
X318915Y683604D01*
X318950Y683715D01*
X318986Y683827D01*
X318986Y683833D01*
X318988Y683839D01*
X318985Y683956D01*
X318984Y684073D01*
X318982Y684080D01*
X318981Y684085D01*
X318975Y684103D01*
X318937Y684234D01*
X318575Y685107D01*
X318575Y689493D01*
X320254Y693545D01*
X323355Y696646D01*
X327407Y698325D01*
X331793Y698325D01*
X335845Y696646D01*
X338946Y693545D01*
X340625Y689493D01*
X340625Y685107D01*
X338946Y681055D01*
X335845Y677954D01*
X331793Y676275D01*
X327407Y676275D01*
X323355Y677954D01*
X322829Y678480D01*
X322813Y678492D01*
X322800Y678507D01*
X322713Y678563D01*
X322629Y678623D01*
X322610Y678629D01*
X322593Y678640D01*
X322493Y678665D01*
X322394Y678696D01*
X322374Y678695D01*
X322355Y678700D01*
X322252Y678692D01*
X322148Y678689D01*
X322129Y678683D01*
X322110Y678681D01*
X322015Y678641D01*
X321917Y678605D01*
X321901Y678592D01*
X321883Y678585D01*
X321752Y678480D01*
X295798Y652525D01*
X192481Y652525D01*
X192391Y652511D01*
X192300Y652503D01*
X192270Y652491D01*
X192238Y652486D01*
X192158Y652443D01*
X192074Y652407D01*
X192042Y652381D01*
X192021Y652370D01*
X191999Y652347D01*
X191943Y652302D01*
X188600Y648959D01*
X188554Y648896D01*
X188533Y648874D01*
X188529Y648865D01*
X188487Y648816D01*
X188475Y648786D01*
X188456Y648760D01*
X188429Y648673D01*
X188395Y648588D01*
X188391Y648547D01*
X188384Y648525D01*
X188385Y648492D01*
X188377Y648421D01*
X188377Y638023D01*
X177979Y638023D01*
X177889Y638008D01*
X177798Y638001D01*
X177768Y637989D01*
X177736Y637983D01*
X177655Y637941D01*
X177572Y637905D01*
X177539Y637879D01*
X177519Y637868D01*
X177497Y637845D01*
X177441Y637800D01*
X175738Y636097D01*
X175685Y636023D01*
X175625Y635954D01*
X175613Y635924D01*
X175594Y635898D01*
X175567Y635811D01*
X175533Y635726D01*
X175529Y635685D01*
X175522Y635663D01*
X175523Y635630D01*
X175515Y635559D01*
X175515Y624785D01*
X175529Y624695D01*
X175537Y624604D01*
X175549Y624575D01*
X175554Y624543D01*
X175597Y624462D01*
X175633Y624378D01*
X175659Y624346D01*
X175670Y624325D01*
X175693Y624303D01*
X175738Y624247D01*
X178027Y621958D01*
X178027Y617562D01*
X174918Y614453D01*
X170522Y614453D01*
X167413Y617562D01*
X167413Y621958D01*
X169702Y624247D01*
X169755Y624321D01*
X169815Y624391D01*
X169827Y624421D01*
X169846Y624447D01*
X169873Y624534D01*
X169907Y624619D01*
X169911Y624660D01*
X169918Y624682D01*
X169917Y624714D01*
X169925Y624785D01*
X169925Y634293D01*
X169914Y634363D01*
X169912Y634435D01*
X169894Y634484D01*
X169886Y634535D01*
X169852Y634599D01*
X169827Y634666D01*
X169795Y634707D01*
X169770Y634753D01*
X169718Y634802D01*
X169674Y634858D01*
X169630Y634886D01*
X169592Y634922D01*
X169527Y634952D01*
X169467Y634991D01*
X169416Y635004D01*
X169369Y635026D01*
X169298Y635034D01*
X169228Y635051D01*
X169176Y635047D01*
X169125Y635053D01*
X169054Y635038D01*
X168983Y635032D01*
X168935Y635012D01*
X168884Y635001D01*
X168823Y634964D01*
X168757Y634936D01*
X168701Y634891D01*
X168673Y634875D01*
X168658Y634857D01*
X168626Y634831D01*
X160624Y626829D01*
X160571Y626755D01*
X160511Y626686D01*
X160499Y626655D01*
X160480Y626629D01*
X160453Y626542D01*
X160419Y626457D01*
X160415Y626416D01*
X160408Y626394D01*
X160409Y626362D01*
X160401Y626291D01*
X160401Y563305D01*
X159183Y560364D01*
X156825Y558006D01*
X122597Y523778D01*
X122585Y523762D01*
X122570Y523750D01*
X122514Y523662D01*
X122453Y523579D01*
X122448Y523560D01*
X122437Y523543D01*
X122412Y523442D01*
X122381Y523343D01*
X122382Y523324D01*
X122377Y523304D01*
X122385Y523201D01*
X122387Y523098D01*
X122394Y523079D01*
X122396Y523059D01*
X122436Y522964D01*
X122472Y522867D01*
X122484Y522851D01*
X122492Y522833D01*
X122597Y522702D01*
X122607Y522692D01*
X123825Y519751D01*
X123825Y502485D01*
X123839Y502395D01*
X123847Y502304D01*
X123859Y502275D01*
X123864Y502243D01*
X123907Y502162D01*
X123943Y502078D01*
X123969Y502046D01*
X123980Y502025D01*
X124003Y502003D01*
X124048Y501947D01*
X130554Y495441D01*
X130612Y495399D01*
X130664Y495350D01*
X130711Y495328D01*
X130753Y495297D01*
X130822Y495276D01*
X130887Y495246D01*
X130939Y495240D01*
X130989Y495225D01*
X131060Y495227D01*
X131131Y495219D01*
X131182Y495230D01*
X131234Y495231D01*
X131302Y495256D01*
X131372Y495271D01*
X131417Y495298D01*
X131465Y495316D01*
X131521Y495361D01*
X131583Y495397D01*
X131617Y495437D01*
X131657Y495470D01*
X131696Y495530D01*
X131743Y495584D01*
X131762Y495633D01*
X131790Y495677D01*
X131808Y495746D01*
X131835Y495813D01*
X131843Y495884D01*
X131851Y495915D01*
X131849Y495938D01*
X131853Y495979D01*
X131853Y496990D01*
X134962Y500099D01*
X139358Y500099D01*
X141647Y497810D01*
X141721Y497757D01*
X141791Y497697D01*
X141821Y497685D01*
X141847Y497666D01*
X141934Y497639D01*
X142019Y497605D01*
X142060Y497601D01*
X142082Y497594D01*
X142114Y497595D01*
X142185Y497587D01*
X179974Y497587D01*
X200915Y476646D01*
X200915Y468833D01*
X200929Y468743D01*
X200937Y468652D01*
X200949Y468622D01*
X200954Y468590D01*
X200997Y468510D01*
X201033Y468426D01*
X201059Y468394D01*
X201070Y468373D01*
X201093Y468351D01*
X201138Y468295D01*
X256963Y412470D01*
X257057Y412402D01*
X257152Y412332D01*
X257158Y412330D01*
X257163Y412326D01*
X257274Y412292D01*
X257385Y412255D01*
X257392Y412255D01*
X257398Y412254D01*
X257515Y412257D01*
X257631Y412258D01*
X257639Y412260D01*
X257644Y412260D01*
X257656Y412265D01*
X261104Y412265D01*
X262345Y411751D01*
X262389Y411740D01*
X262431Y411721D01*
X262451Y411719D01*
X262459Y411715D01*
X262527Y411708D01*
X262584Y411694D01*
X262619Y411698D01*
X262626Y411697D01*
X262636Y411697D01*
X262640Y411698D01*
X262675Y411694D01*
X262752Y411710D01*
X262829Y411718D01*
X262868Y411735D01*
X262879Y411737D01*
X262883Y411739D01*
X262916Y411746D01*
X262983Y411786D01*
X263054Y411818D01*
X263084Y411845D01*
X263096Y411852D01*
X263100Y411856D01*
X263127Y411872D01*
X263178Y411931D01*
X263235Y411984D01*
X263253Y412017D01*
X263266Y412030D01*
X263270Y412039D01*
X263287Y412059D01*
X263316Y412131D01*
X263353Y412199D01*
X263359Y412232D01*
X263369Y412253D01*
X263371Y412267D01*
X263379Y412287D01*
X263394Y412423D01*
X263397Y412442D01*
X263396Y412446D01*
X263397Y412454D01*
X263397Y414670D01*
X264190Y415463D01*
X264243Y415537D01*
X264303Y415606D01*
X264315Y415636D01*
X264334Y415662D01*
X264361Y415749D01*
X264395Y415834D01*
X264399Y415875D01*
X264406Y415897D01*
X264405Y415930D01*
X264413Y416001D01*
X264413Y417119D01*
X264399Y417209D01*
X264391Y417300D01*
X264379Y417330D01*
X264374Y417362D01*
X264331Y417442D01*
X264295Y417526D01*
X264269Y417558D01*
X264258Y417579D01*
X264235Y417601D01*
X264190Y417657D01*
X212597Y469250D01*
X212597Y572063D01*
X212583Y572153D01*
X212575Y572244D01*
X212563Y572273D01*
X212558Y572305D01*
X212515Y572386D01*
X212479Y572470D01*
X212453Y572502D01*
X212442Y572523D01*
X212419Y572545D01*
X212374Y572601D01*
X210085Y574890D01*
X210085Y579286D01*
X212429Y581630D01*
X212440Y581646D01*
X212456Y581658D01*
X212512Y581745D01*
X212572Y581829D01*
X212578Y581848D01*
X212589Y581865D01*
X212614Y581966D01*
X212645Y582065D01*
X212644Y582084D01*
X212649Y582104D01*
X212641Y582207D01*
X212638Y582310D01*
X212632Y582329D01*
X212630Y582349D01*
X212590Y582444D01*
X212554Y582541D01*
X212542Y582557D01*
X212534Y582575D01*
X212429Y582706D01*
X212341Y582794D01*
X212325Y582806D01*
X212312Y582822D01*
X212225Y582878D01*
X212141Y582938D01*
X212122Y582944D01*
X212105Y582955D01*
X212005Y582980D01*
X211906Y583010D01*
X211886Y583010D01*
X211867Y583015D01*
X211764Y583007D01*
X211660Y583004D01*
X211641Y582997D01*
X211621Y582996D01*
X211526Y582955D01*
X211429Y582920D01*
X211413Y582907D01*
X211395Y582899D01*
X211264Y582795D01*
X208922Y580452D01*
X184474Y556004D01*
X184432Y555946D01*
X184383Y555894D01*
X184361Y555847D01*
X184330Y555805D01*
X184309Y555736D01*
X184279Y555671D01*
X184273Y555619D01*
X184258Y555569D01*
X184260Y555498D01*
X184252Y555427D01*
X184263Y555376D01*
X184264Y555324D01*
X184289Y555256D01*
X184304Y555186D01*
X184331Y555141D01*
X184349Y555093D01*
X184394Y555037D01*
X184430Y554975D01*
X184470Y554941D01*
X184502Y554901D01*
X184563Y554862D01*
X184617Y554815D01*
X184666Y554796D01*
X184709Y554768D01*
X184779Y554750D01*
X184845Y554723D01*
X184917Y554715D01*
X184948Y554707D01*
X184971Y554709D01*
X185012Y554705D01*
X186116Y554705D01*
X189278Y553395D01*
X191699Y550974D01*
X193009Y547812D01*
X193009Y544388D01*
X191699Y541226D01*
X189278Y538805D01*
X186116Y537495D01*
X169484Y537495D01*
X166322Y538805D01*
X163901Y541226D01*
X162591Y544388D01*
X162591Y547812D01*
X163901Y550974D01*
X166322Y553395D01*
X169484Y554705D01*
X172498Y554705D01*
X172518Y554708D01*
X172537Y554706D01*
X172639Y554728D01*
X172741Y554744D01*
X172758Y554754D01*
X172778Y554758D01*
X172867Y554811D01*
X172958Y554860D01*
X172972Y554874D01*
X172989Y554884D01*
X173056Y554963D01*
X173128Y555038D01*
X173136Y555056D01*
X173149Y555071D01*
X173188Y555167D01*
X173231Y555261D01*
X173233Y555281D01*
X173241Y555299D01*
X173259Y555466D01*
X173259Y557633D01*
X202500Y586874D01*
X202553Y586948D01*
X202613Y587017D01*
X202625Y587047D01*
X202644Y587074D01*
X202671Y587161D01*
X202705Y587245D01*
X202709Y587286D01*
X202716Y587309D01*
X202715Y587341D01*
X202723Y587412D01*
X202723Y624689D01*
X206247Y628212D01*
X206258Y628228D01*
X206274Y628241D01*
X206330Y628328D01*
X206390Y628412D01*
X206396Y628431D01*
X206407Y628448D01*
X206432Y628548D01*
X206463Y628647D01*
X206462Y628667D01*
X206467Y628686D01*
X206459Y628789D01*
X206456Y628893D01*
X206449Y628912D01*
X206448Y628932D01*
X206407Y629026D01*
X206372Y629124D01*
X206359Y629140D01*
X206352Y629158D01*
X206247Y629289D01*
X205550Y629985D01*
X203799Y634212D01*
X203799Y638788D01*
X205550Y643015D01*
X208785Y646250D01*
X213012Y648001D01*
X217588Y648001D01*
X221815Y646250D01*
X225050Y643015D01*
X226801Y638788D01*
X226801Y634212D01*
X225050Y629985D01*
X221815Y626750D01*
X217588Y624999D01*
X216192Y624999D01*
X216102Y624985D01*
X216011Y624977D01*
X215981Y624965D01*
X215949Y624960D01*
X215869Y624917D01*
X215785Y624881D01*
X215753Y624855D01*
X215732Y624844D01*
X215710Y624821D01*
X215654Y624776D01*
X214446Y623568D01*
X214404Y623510D01*
X214355Y623458D01*
X214333Y623411D01*
X214302Y623369D01*
X214281Y623300D01*
X214251Y623235D01*
X214245Y623183D01*
X214230Y623133D01*
X214232Y623062D01*
X214224Y622991D01*
X214235Y622940D01*
X214236Y622888D01*
X214261Y622820D01*
X214276Y622750D01*
X214303Y622706D01*
X214321Y622657D01*
X214366Y622601D01*
X214402Y622539D01*
X214442Y622505D01*
X214474Y622465D01*
X214535Y622426D01*
X214589Y622379D01*
X214638Y622360D01*
X214681Y622332D01*
X214751Y622314D01*
X214817Y622287D01*
X214889Y622279D01*
X214920Y622271D01*
X214943Y622273D01*
X214984Y622269D01*
X215228Y622269D01*
X215318Y622283D01*
X215409Y622291D01*
X215439Y622303D01*
X215471Y622308D01*
X215551Y622351D01*
X215635Y622387D01*
X215667Y622413D01*
X215688Y622424D01*
X215710Y622447D01*
X215766Y622492D01*
X216559Y623285D01*
X249785Y623285D01*
X280893Y592177D01*
X280893Y585380D01*
X280907Y585290D01*
X280915Y585199D01*
X280927Y585169D01*
X280932Y585137D01*
X280975Y585057D01*
X281011Y584973D01*
X281037Y584941D01*
X281048Y584920D01*
X281071Y584898D01*
X281116Y584842D01*
X285912Y580046D01*
X285986Y579993D01*
X286055Y579933D01*
X286085Y579921D01*
X286112Y579902D01*
X286199Y579875D01*
X286283Y579841D01*
X286324Y579837D01*
X286347Y579830D01*
X286379Y579831D01*
X286450Y579823D01*
X286646Y579823D01*
X288530Y579043D01*
X288599Y579026D01*
X288666Y579001D01*
X288718Y578998D01*
X288769Y578986D01*
X288840Y578993D01*
X288912Y578990D01*
X288962Y579005D01*
X289014Y579010D01*
X289079Y579039D01*
X289148Y579059D01*
X289191Y579088D01*
X289239Y579110D01*
X289291Y579158D01*
X289350Y579199D01*
X289381Y579241D01*
X289420Y579276D01*
X289454Y579339D01*
X289497Y579396D01*
X289513Y579446D01*
X289538Y579491D01*
X289551Y579562D01*
X289573Y579630D01*
X289573Y579682D01*
X289582Y579734D01*
X289572Y579805D01*
X289571Y579876D01*
X289551Y579945D01*
X289546Y579977D01*
X289536Y579998D01*
X289524Y580037D01*
X288591Y582290D01*
X288591Y586110D01*
X290054Y589641D01*
X292755Y592342D01*
X295313Y593402D01*
X295413Y593464D01*
X295513Y593524D01*
X295517Y593528D01*
X295522Y593532D01*
X295597Y593621D01*
X295673Y593710D01*
X295675Y593716D01*
X295679Y593721D01*
X295721Y593829D01*
X295765Y593939D01*
X295766Y593946D01*
X295767Y593951D01*
X295768Y593969D01*
X295783Y594105D01*
X295783Y597983D01*
X296741Y600296D01*
X296756Y600360D01*
X296781Y600421D01*
X296790Y600504D01*
X296797Y600536D01*
X296796Y600555D01*
X296799Y600588D01*
X296799Y615115D01*
X296785Y615205D01*
X296777Y615296D01*
X296765Y615325D01*
X296760Y615357D01*
X296717Y615438D01*
X296681Y615522D01*
X296655Y615554D01*
X296644Y615575D01*
X296621Y615597D01*
X296576Y615653D01*
X291921Y620308D01*
X291261Y621902D01*
X291226Y621958D01*
X291201Y622018D01*
X291149Y622083D01*
X291131Y622112D01*
X291116Y622124D01*
X291096Y622149D01*
X289469Y623776D01*
X289395Y623829D01*
X289326Y623889D01*
X289295Y623901D01*
X289269Y623920D01*
X289182Y623947D01*
X289097Y623981D01*
X289056Y623985D01*
X289034Y623992D01*
X289031Y623992D01*
X284419Y625902D01*
X280902Y629419D01*
X278999Y634013D01*
X278999Y638987D01*
X280902Y643581D01*
X284419Y647098D01*
X289013Y649001D01*
X293987Y649001D01*
X298581Y647098D01*
X302098Y643581D01*
X304001Y638987D01*
X304001Y634013D01*
X303569Y632971D01*
X303542Y632857D01*
X303514Y632743D01*
X303514Y632737D01*
X303513Y632731D01*
X303524Y632614D01*
X303533Y632498D01*
X303535Y632493D01*
X303536Y632486D01*
X303583Y632379D01*
X303629Y632272D01*
X303634Y632266D01*
X303636Y632261D01*
X303648Y632248D01*
X303734Y632141D01*
X305487Y630388D01*
X306147Y628794D01*
X306182Y628738D01*
X306207Y628678D01*
X306259Y628613D01*
X306277Y628584D01*
X306292Y628572D01*
X306312Y628547D01*
X311583Y623276D01*
X312801Y620335D01*
X312801Y595817D01*
X312528Y595159D01*
X312508Y595071D01*
X312479Y594984D01*
X312480Y594951D01*
X312472Y594920D01*
X312481Y594829D01*
X312482Y594738D01*
X312493Y594698D01*
X312495Y594675D01*
X312509Y594646D01*
X312528Y594577D01*
X312654Y594275D01*
X312715Y594176D01*
X312775Y594075D01*
X312780Y594071D01*
X312783Y594066D01*
X312873Y593992D01*
X312962Y593915D01*
X312968Y593913D01*
X312973Y593909D01*
X313080Y593867D01*
X313190Y593823D01*
X313198Y593822D01*
X313202Y593821D01*
X313221Y593820D01*
X313299Y593811D01*
X316845Y592342D01*
X319546Y589641D01*
X321009Y586110D01*
X321009Y582290D01*
X319546Y578759D01*
X316845Y576058D01*
X313287Y574584D01*
X313242Y574576D01*
X313126Y574559D01*
X313120Y574557D01*
X313114Y574556D01*
X313012Y574501D01*
X312907Y574448D01*
X312902Y574443D01*
X312897Y574440D01*
X312817Y574356D01*
X312734Y574272D01*
X312731Y574266D01*
X312727Y574262D01*
X312720Y574245D01*
X312654Y574125D01*
X312528Y573823D01*
X312508Y573735D01*
X312479Y573648D01*
X312480Y573615D01*
X312472Y573584D01*
X312481Y573493D01*
X312482Y573402D01*
X312493Y573362D01*
X312495Y573339D01*
X312509Y573310D01*
X312528Y573241D01*
X312801Y572583D01*
X312801Y557209D01*
X312614Y556757D01*
X312603Y556713D01*
X312584Y556671D01*
X312575Y556594D01*
X312558Y556518D01*
X312562Y556472D01*
X312557Y556427D01*
X312573Y556350D01*
X312581Y556273D01*
X312599Y556231D01*
X312609Y556186D01*
X312649Y556119D01*
X312681Y556048D01*
X312712Y556014D01*
X312735Y555975D01*
X312795Y555924D01*
X312847Y555867D01*
X312887Y555845D01*
X312922Y555815D01*
X312995Y555786D01*
X313063Y555749D01*
X313108Y555740D01*
X313150Y555723D01*
X313286Y555708D01*
X313305Y555705D01*
X313310Y555706D01*
X313314Y555705D01*
X316845Y554242D01*
X319546Y551541D01*
X321009Y548010D01*
X321009Y544190D01*
X319546Y540659D01*
X316845Y537958D01*
X313313Y536495D01*
X313272Y536488D01*
X313226Y536490D01*
X313151Y536468D01*
X313074Y536456D01*
X313034Y536434D01*
X312990Y536421D01*
X312926Y536377D01*
X312857Y536340D01*
X312825Y536307D01*
X312788Y536281D01*
X312741Y536218D01*
X312688Y536162D01*
X312668Y536120D01*
X312641Y536084D01*
X312617Y536010D01*
X312584Y535939D01*
X312579Y535893D01*
X312565Y535850D01*
X312565Y535772D01*
X312557Y535695D01*
X312567Y535650D01*
X312567Y535604D01*
X312605Y535473D01*
X312609Y535454D01*
X312612Y535450D01*
X312614Y535443D01*
X312801Y534991D01*
X312801Y519617D01*
X312528Y518959D01*
X312508Y518871D01*
X312479Y518784D01*
X312480Y518751D01*
X312472Y518720D01*
X312481Y518629D01*
X312482Y518538D01*
X312493Y518498D01*
X312495Y518475D01*
X312509Y518446D01*
X312528Y518377D01*
X312654Y518075D01*
X312715Y517976D01*
X312775Y517875D01*
X312780Y517871D01*
X312783Y517866D01*
X312873Y517792D01*
X312962Y517715D01*
X312968Y517713D01*
X312973Y517709D01*
X313080Y517667D01*
X313190Y517623D01*
X313198Y517622D01*
X313202Y517621D01*
X313221Y517620D01*
X313299Y517611D01*
X316845Y516142D01*
X319546Y513441D01*
X321009Y509910D01*
X321009Y506090D01*
X319546Y502559D01*
X316845Y499858D01*
X313287Y498384D01*
X313242Y498377D01*
X313126Y498359D01*
X313120Y498357D01*
X313114Y498356D01*
X313011Y498301D01*
X312907Y498248D01*
X312902Y498243D01*
X312897Y498240D01*
X312816Y498156D01*
X312734Y498072D01*
X312731Y498066D01*
X312727Y498062D01*
X312719Y498045D01*
X312654Y497925D01*
X312528Y497623D01*
X312508Y497535D01*
X312479Y497448D01*
X312480Y497415D01*
X312472Y497384D01*
X312481Y497293D01*
X312482Y497202D01*
X312493Y497162D01*
X312495Y497139D01*
X312509Y497109D01*
X312528Y497041D01*
X312801Y496383D01*
X312801Y481009D01*
X312614Y480557D01*
X312603Y480513D01*
X312584Y480471D01*
X312575Y480394D01*
X312558Y480318D01*
X312562Y480272D01*
X312557Y480227D01*
X312573Y480150D01*
X312581Y480073D01*
X312599Y480031D01*
X312609Y479986D01*
X312649Y479919D01*
X312681Y479848D01*
X312712Y479814D01*
X312735Y479775D01*
X312795Y479724D01*
X312847Y479667D01*
X312887Y479645D01*
X312922Y479615D01*
X312995Y479586D01*
X313063Y479549D01*
X313108Y479540D01*
X313150Y479523D01*
X313286Y479508D01*
X313305Y479505D01*
X313310Y479506D01*
X313314Y479505D01*
X316845Y478042D01*
X319530Y475357D01*
X319588Y475316D01*
X319640Y475266D01*
X319687Y475244D01*
X319729Y475214D01*
X319798Y475193D01*
X319863Y475163D01*
X319915Y475157D01*
X319965Y475141D01*
X320036Y475143D01*
X320107Y475135D01*
X320158Y475147D01*
X320210Y475148D01*
X320278Y475172D01*
X320348Y475188D01*
X320393Y475214D01*
X320441Y475232D01*
X320497Y475277D01*
X320559Y475314D01*
X320593Y475353D01*
X320633Y475386D01*
X320672Y475446D01*
X320719Y475501D01*
X320738Y475549D01*
X320766Y475593D01*
X320784Y475662D01*
X320811Y475729D01*
X320819Y475800D01*
X320827Y475831D01*
X320825Y475855D01*
X320829Y475896D01*
X320829Y479718D01*
X323118Y482007D01*
X323171Y482081D01*
X323231Y482151D01*
X323243Y482181D01*
X323262Y482207D01*
X323289Y482294D01*
X323323Y482379D01*
X323327Y482420D01*
X323334Y482442D01*
X323333Y482474D01*
X323341Y482545D01*
X323341Y616255D01*
X323327Y616345D01*
X323319Y616436D01*
X323307Y616466D01*
X323302Y616498D01*
X323259Y616578D01*
X323223Y616662D01*
X323197Y616694D01*
X323186Y616715D01*
X323163Y616737D01*
X323118Y616793D01*
X315213Y624698D01*
X315213Y624757D01*
X315194Y624872D01*
X315177Y624988D01*
X315175Y624994D01*
X315174Y625000D01*
X315119Y625102D01*
X315066Y625207D01*
X315061Y625212D01*
X315058Y625217D01*
X314974Y625297D01*
X314890Y625379D01*
X314884Y625383D01*
X314880Y625386D01*
X314863Y625394D01*
X314743Y625460D01*
X310655Y627154D01*
X307554Y630255D01*
X305875Y634307D01*
X305875Y638693D01*
X307554Y642745D01*
X310655Y645846D01*
X314707Y647525D01*
X319093Y647525D01*
X323145Y645846D01*
X326246Y642745D01*
X327925Y638693D01*
X327925Y634307D01*
X326246Y630255D01*
X323145Y627154D01*
X322442Y626863D01*
X322403Y626838D01*
X322360Y626823D01*
X322299Y626774D01*
X322233Y626733D01*
X322204Y626698D01*
X322168Y626669D01*
X322126Y626604D01*
X322076Y626544D01*
X322060Y626501D01*
X322035Y626462D01*
X322016Y626387D01*
X321988Y626314D01*
X321986Y626268D01*
X321975Y626224D01*
X321981Y626146D01*
X321978Y626068D01*
X321991Y626024D01*
X321994Y625978D01*
X322025Y625907D01*
X322046Y625832D01*
X322073Y625794D01*
X322091Y625752D01*
X322176Y625645D01*
X322187Y625630D01*
X322191Y625627D01*
X322195Y625621D01*
X328931Y618886D01*
X328931Y482545D01*
X328945Y482455D01*
X328953Y482364D01*
X328965Y482335D01*
X328970Y482303D01*
X329013Y482222D01*
X329049Y482138D01*
X329075Y482106D01*
X329086Y482085D01*
X329109Y482063D01*
X329154Y482007D01*
X331443Y479718D01*
X331443Y475322D01*
X328334Y472213D01*
X323938Y472213D01*
X321359Y474792D01*
X321280Y474849D01*
X321205Y474911D01*
X321180Y474921D01*
X321159Y474936D01*
X321066Y474965D01*
X320975Y474999D01*
X320949Y475001D01*
X320924Y475008D01*
X320827Y475006D01*
X320729Y475010D01*
X320704Y475003D01*
X320678Y475002D01*
X320587Y474968D01*
X320493Y474941D01*
X320472Y474926D01*
X320447Y474917D01*
X320371Y474857D01*
X320291Y474801D01*
X320275Y474780D01*
X320255Y474764D01*
X320202Y474682D01*
X320144Y474604D01*
X320136Y474579D01*
X320122Y474557D01*
X320098Y474462D01*
X320068Y474370D01*
X320068Y474344D01*
X320062Y474318D01*
X320070Y474221D01*
X320071Y474124D01*
X320080Y474092D01*
X320081Y474073D01*
X320094Y474043D01*
X320117Y473963D01*
X321009Y471810D01*
X321009Y467990D01*
X319546Y464459D01*
X316845Y461758D01*
X316314Y461538D01*
X316275Y461513D01*
X316232Y461498D01*
X316171Y461449D01*
X316105Y461408D01*
X316075Y461373D01*
X316040Y461344D01*
X315997Y461278D01*
X315948Y461218D01*
X315931Y461176D01*
X315907Y461137D01*
X315888Y461061D01*
X315860Y460989D01*
X315858Y460943D01*
X315846Y460898D01*
X315853Y460821D01*
X315849Y460743D01*
X315862Y460699D01*
X315866Y460653D01*
X315896Y460582D01*
X315918Y460507D01*
X315944Y460469D01*
X315962Y460427D01*
X316047Y460320D01*
X316058Y460305D01*
X316062Y460302D01*
X316067Y460296D01*
X318051Y458312D01*
X318125Y458259D01*
X318194Y458199D01*
X318225Y458187D01*
X318251Y458168D01*
X318338Y458141D01*
X318423Y458107D01*
X318464Y458103D01*
X318486Y458096D01*
X318518Y458097D01*
X318589Y458089D01*
X322647Y458089D01*
X325588Y456871D01*
X327946Y454513D01*
X364714Y417745D01*
X364772Y417703D01*
X364824Y417654D01*
X364871Y417632D01*
X364913Y417601D01*
X364982Y417580D01*
X365047Y417550D01*
X365099Y417544D01*
X365149Y417529D01*
X365220Y417531D01*
X365291Y417523D01*
X365342Y417534D01*
X365394Y417535D01*
X365462Y417560D01*
X365532Y417575D01*
X365577Y417602D01*
X365625Y417620D01*
X365681Y417665D01*
X365743Y417701D01*
X365777Y417741D01*
X365817Y417774D01*
X365856Y417834D01*
X365903Y417888D01*
X365922Y417937D01*
X365950Y417981D01*
X365968Y418050D01*
X365995Y418117D01*
X366003Y418188D01*
X366011Y418219D01*
X366009Y418242D01*
X366013Y418283D01*
X366013Y454711D01*
X365999Y454801D01*
X365991Y454892D01*
X365979Y454922D01*
X365974Y454954D01*
X365931Y455034D01*
X365895Y455118D01*
X365869Y455150D01*
X365858Y455171D01*
X365835Y455193D01*
X365790Y455249D01*
X357885Y463154D01*
X357885Y514238D01*
X378826Y535179D01*
X391719Y535179D01*
X391809Y535193D01*
X391900Y535201D01*
X391930Y535213D01*
X391962Y535218D01*
X392042Y535261D01*
X392126Y535297D01*
X392158Y535323D01*
X392179Y535334D01*
X392201Y535357D01*
X392257Y535402D01*
X434878Y578023D01*
X434931Y578097D01*
X434991Y578166D01*
X435003Y578196D01*
X435022Y578222D01*
X435049Y578309D01*
X435083Y578394D01*
X435087Y578435D01*
X435094Y578457D01*
X435093Y578490D01*
X435101Y578561D01*
X435101Y596534D01*
X451978Y613411D01*
X452666Y613411D01*
X452780Y613430D01*
X452896Y613447D01*
X452902Y613449D01*
X452908Y613450D01*
X453011Y613505D01*
X453116Y613558D01*
X453120Y613563D01*
X453126Y613566D01*
X453206Y613650D01*
X453288Y613734D01*
X453292Y613740D01*
X453295Y613744D01*
X453303Y613761D01*
X453369Y613881D01*
X454675Y617035D01*
X457225Y619585D01*
X460557Y620965D01*
X479243Y620965D01*
X482575Y619585D01*
X485125Y617035D01*
X486505Y613703D01*
X486505Y610097D01*
X485125Y606765D01*
X482575Y604215D01*
X479243Y602835D01*
X460557Y602835D01*
X457225Y604215D01*
X454662Y606778D01*
X454650Y606811D01*
X454602Y606872D01*
X454561Y606938D01*
X454525Y606968D01*
X454497Y607003D01*
X454431Y607045D01*
X454371Y607095D01*
X454328Y607112D01*
X454290Y607136D01*
X454214Y607155D01*
X454142Y607183D01*
X454096Y607185D01*
X454051Y607196D01*
X453974Y607190D01*
X453896Y607194D01*
X453852Y607181D01*
X453806Y607177D01*
X453734Y607147D01*
X453660Y607125D01*
X453622Y607099D01*
X453580Y607081D01*
X453473Y606996D01*
X453458Y606985D01*
X453454Y606981D01*
X453449Y606976D01*
X445850Y599378D01*
X445823Y599340D01*
X445789Y599309D01*
X445752Y599241D01*
X445707Y599178D01*
X445693Y599134D01*
X445671Y599094D01*
X445657Y599017D01*
X445634Y598943D01*
X445635Y598897D01*
X445627Y598852D01*
X445638Y598775D01*
X445641Y598697D01*
X445656Y598654D01*
X445663Y598608D01*
X445698Y598539D01*
X445725Y598466D01*
X445754Y598430D01*
X445774Y598389D01*
X445830Y598335D01*
X445879Y598274D01*
X445917Y598249D01*
X445950Y598217D01*
X446070Y598151D01*
X446086Y598141D01*
X446090Y598140D01*
X446097Y598136D01*
X448284Y597230D01*
X449910Y595604D01*
X450791Y593478D01*
X450791Y591178D01*
X449910Y589052D01*
X449772Y588914D01*
X449719Y588840D01*
X449659Y588770D01*
X449647Y588740D01*
X449628Y588714D01*
X449601Y588627D01*
X449567Y588542D01*
X449563Y588501D01*
X449556Y588479D01*
X449557Y588447D01*
X449549Y588375D01*
X449549Y530516D01*
X449564Y530426D01*
X449571Y530335D01*
X449583Y530305D01*
X449588Y530273D01*
X449631Y530193D01*
X449667Y530109D01*
X449693Y530077D01*
X449704Y530056D01*
X449727Y530034D01*
X449772Y529978D01*
X459711Y520038D01*
X459805Y519971D01*
X459900Y519900D01*
X459906Y519898D01*
X459911Y519895D01*
X460022Y519861D01*
X460134Y519824D01*
X460140Y519824D01*
X460146Y519822D01*
X460263Y519825D01*
X460380Y519827D01*
X460387Y519829D01*
X460392Y519829D01*
X460409Y519835D01*
X460429Y519841D01*
X479338Y519841D01*
X482844Y518388D01*
X485528Y515704D01*
X486981Y512198D01*
X486981Y508402D01*
X485528Y504896D01*
X482844Y502212D01*
X479338Y500759D01*
X460462Y500759D01*
X456956Y502212D01*
X454272Y504896D01*
X452819Y508402D01*
X452819Y512198D01*
X453178Y513064D01*
X453205Y513177D01*
X453233Y513291D01*
X453233Y513297D01*
X453234Y513303D01*
X453223Y513420D01*
X453214Y513536D01*
X453212Y513542D01*
X453211Y513548D01*
X453163Y513656D01*
X453118Y513762D01*
X453113Y513768D01*
X453111Y513773D01*
X453098Y513787D01*
X453013Y513893D01*
X440467Y526439D01*
X440467Y573869D01*
X440466Y573878D01*
X440466Y573883D01*
X440461Y573905D01*
X440456Y573940D01*
X440454Y574012D01*
X440436Y574061D01*
X440428Y574112D01*
X440394Y574175D01*
X440369Y574243D01*
X440337Y574283D01*
X440312Y574329D01*
X440261Y574379D01*
X440216Y574435D01*
X440172Y574463D01*
X440134Y574499D01*
X440069Y574529D01*
X440009Y574568D01*
X439958Y574580D01*
X439911Y574602D01*
X439840Y574610D01*
X439770Y574628D01*
X439718Y574624D01*
X439667Y574629D01*
X439596Y574614D01*
X439525Y574609D01*
X439477Y574588D01*
X439426Y574577D01*
X439365Y574540D01*
X439299Y574512D01*
X439243Y574467D01*
X439215Y574451D01*
X439200Y574433D01*
X439168Y574407D01*
X438831Y574070D01*
X394350Y529589D01*
X381457Y529589D01*
X381367Y529575D01*
X381276Y529567D01*
X381246Y529555D01*
X381214Y529550D01*
X381134Y529507D01*
X381050Y529471D01*
X381018Y529445D01*
X380997Y529434D01*
X380975Y529411D01*
X380919Y529366D01*
X363698Y512145D01*
X363645Y512071D01*
X363585Y512002D01*
X363573Y511972D01*
X363554Y511946D01*
X363527Y511859D01*
X363493Y511774D01*
X363489Y511733D01*
X363482Y511711D01*
X363483Y511678D01*
X363475Y511607D01*
X363475Y465785D01*
X363489Y465695D01*
X363497Y465604D01*
X363509Y465574D01*
X363514Y465542D01*
X363557Y465462D01*
X363593Y465378D01*
X363619Y465346D01*
X363630Y465325D01*
X363653Y465303D01*
X363698Y465247D01*
X371603Y457342D01*
X371603Y390002D01*
X348630Y367029D01*
X345897Y367029D01*
X345807Y367015D01*
X345716Y367007D01*
X345686Y366995D01*
X345654Y366990D01*
X345574Y366947D01*
X345490Y366911D01*
X345458Y366885D01*
X345437Y366874D01*
X345415Y366851D01*
X345359Y366806D01*
X345113Y366560D01*
X345071Y366502D01*
X345021Y366450D01*
X344999Y366403D01*
X344969Y366361D01*
X344948Y366292D01*
X344918Y366227D01*
X344912Y366175D01*
X344897Y366125D01*
X344899Y366054D01*
X344891Y365983D01*
X344902Y365932D01*
X344903Y365880D01*
X344928Y365812D01*
X344943Y365742D01*
X344970Y365697D01*
X344988Y365649D01*
X345032Y365593D01*
X345069Y365531D01*
X345109Y365497D01*
X345141Y365457D01*
X345201Y365418D01*
X345256Y365371D01*
X345304Y365352D01*
X345348Y365324D01*
X345418Y365306D01*
X345484Y365279D01*
X345555Y365271D01*
X345587Y365263D01*
X345610Y365265D01*
X345651Y365261D01*
X519278Y365261D01*
X519298Y365264D01*
X519317Y365262D01*
X519419Y365284D01*
X519521Y365300D01*
X519538Y365310D01*
X519558Y365314D01*
X519647Y365367D01*
X519738Y365416D01*
X519752Y365430D01*
X519769Y365440D01*
X519836Y365519D01*
X519908Y365594D01*
X519916Y365612D01*
X519929Y365627D01*
X519968Y365723D01*
X520011Y365817D01*
X520013Y365837D01*
X520021Y365855D01*
X520039Y366022D01*
X520039Y734578D01*
X520036Y734598D01*
X520038Y734617D01*
X520016Y734719D01*
X520000Y734821D01*
X519990Y734838D01*
X519986Y734858D01*
X519933Y734947D01*
X519884Y735038D01*
X519870Y735052D01*
X519860Y735069D01*
X519781Y735136D01*
X519706Y735208D01*
X519688Y735216D01*
X519673Y735229D01*
X519577Y735268D01*
X519483Y735311D01*
X519463Y735313D01*
X519445Y735321D01*
X519278Y735339D01*
X35822Y735339D01*
X35802Y735336D01*
X35783Y735338D01*
X35681Y735316D01*
X35579Y735300D01*
X35562Y735290D01*
X35542Y735286D01*
X35453Y735233D01*
X35362Y735184D01*
X35348Y735170D01*
X35331Y735160D01*
X35264Y735081D01*
X35192Y735006D01*
X35184Y734988D01*
X35171Y734973D01*
X35132Y734877D01*
X35089Y734783D01*
X35087Y734763D01*
X35079Y734745D01*
X35061Y734578D01*
X35061Y366022D01*
X35064Y366002D01*
X35062Y365983D01*
X35084Y365881D01*
X35100Y365779D01*
X35110Y365762D01*
X35114Y365742D01*
X35167Y365653D01*
X35216Y365562D01*
X35230Y365548D01*
X35240Y365531D01*
X35319Y365464D01*
X35394Y365392D01*
X35412Y365384D01*
X35427Y365371D01*
X35523Y365332D01*
X35617Y365289D01*
X35637Y365287D01*
X35655Y365279D01*
X35822Y365261D01*
X334053Y365261D01*
X334124Y365272D01*
G37*
%LPC*%
G36*
X77909Y660080D02*
X77909Y660080D01*
X69386Y664324D01*
X62971Y671360D01*
X59532Y680239D01*
X59532Y689761D01*
X62971Y698640D01*
X69386Y705676D01*
X77909Y709920D01*
X87391Y710799D01*
X96549Y708193D01*
X104147Y702455D01*
X109160Y694360D01*
X110910Y685000D01*
X109160Y675640D01*
X104147Y667545D01*
X96549Y661807D01*
X87391Y659201D01*
X77909Y660080D01*
G37*
%LPD*%
%LPC*%
G36*
X462909Y660080D02*
X462909Y660080D01*
X454386Y664324D01*
X447971Y671360D01*
X444532Y680239D01*
X444532Y689761D01*
X447971Y698640D01*
X454386Y705676D01*
X462909Y709920D01*
X472391Y710799D01*
X481549Y708193D01*
X489147Y702455D01*
X494160Y694360D01*
X495910Y685000D01*
X494160Y675640D01*
X489147Y667545D01*
X481549Y661807D01*
X472391Y659201D01*
X462909Y660080D01*
G37*
%LPD*%
%LPC*%
G36*
X462909Y390080D02*
X462909Y390080D01*
X454386Y394324D01*
X447971Y401360D01*
X444532Y410239D01*
X444532Y419761D01*
X447971Y428640D01*
X454386Y435676D01*
X462909Y439920D01*
X472391Y440799D01*
X481549Y438193D01*
X489147Y432455D01*
X494160Y424360D01*
X495910Y415000D01*
X494160Y405640D01*
X489147Y397545D01*
X481549Y391807D01*
X472391Y389201D01*
X462909Y390080D01*
G37*
%LPD*%
%LPC*%
G36*
X77909Y390080D02*
X77909Y390080D01*
X69386Y394324D01*
X62971Y401360D01*
X59532Y410239D01*
X59532Y419761D01*
X62971Y428640D01*
X69386Y435676D01*
X77909Y439920D01*
X87391Y440799D01*
X96549Y438193D01*
X104147Y432455D01*
X109160Y424360D01*
X110910Y415000D01*
X109160Y405640D01*
X104147Y397545D01*
X96549Y391807D01*
X87391Y389201D01*
X77909Y390080D01*
G37*
%LPD*%
%LPC*%
G36*
X460462Y475359D02*
X460462Y475359D01*
X456956Y476812D01*
X454272Y479496D01*
X452819Y483002D01*
X452819Y483292D01*
X452805Y483382D01*
X452797Y483473D01*
X452785Y483503D01*
X452780Y483535D01*
X452737Y483615D01*
X452701Y483699D01*
X452675Y483731D01*
X452664Y483752D01*
X452641Y483774D01*
X452596Y483830D01*
X452494Y483932D01*
X452420Y483986D01*
X452351Y484045D01*
X452321Y484057D01*
X452294Y484076D01*
X452207Y484103D01*
X452123Y484137D01*
X452081Y484141D01*
X452059Y484148D01*
X452027Y484147D01*
X451956Y484155D01*
X451255Y484155D01*
X448430Y486980D01*
X448356Y487033D01*
X448287Y487093D01*
X448257Y487105D01*
X448230Y487124D01*
X448143Y487151D01*
X448059Y487185D01*
X448018Y487189D01*
X447995Y487196D01*
X447963Y487195D01*
X447892Y487203D01*
X386231Y487203D01*
X376459Y496975D01*
X376459Y498634D01*
X376456Y498654D01*
X376458Y498673D01*
X376436Y498775D01*
X376420Y498877D01*
X376410Y498894D01*
X376406Y498914D01*
X376353Y499003D01*
X376304Y499094D01*
X376290Y499108D01*
X376280Y499125D01*
X376201Y499192D01*
X376126Y499264D01*
X376108Y499272D01*
X376093Y499285D01*
X375997Y499324D01*
X375903Y499367D01*
X375883Y499369D01*
X375865Y499377D01*
X375698Y499395D01*
X372684Y499395D01*
X369522Y500705D01*
X367101Y503126D01*
X365791Y506288D01*
X365791Y509712D01*
X367101Y512874D01*
X369522Y515295D01*
X372684Y516605D01*
X389316Y516605D01*
X392478Y515295D01*
X394899Y512874D01*
X396209Y509712D01*
X396209Y506288D01*
X394899Y503126D01*
X392478Y500705D01*
X389316Y499395D01*
X388720Y499395D01*
X388649Y499384D01*
X388578Y499382D01*
X388529Y499364D01*
X388477Y499356D01*
X388414Y499322D01*
X388347Y499297D01*
X388306Y499265D01*
X388260Y499240D01*
X388211Y499188D01*
X388155Y499144D01*
X388126Y499100D01*
X388091Y499062D01*
X388060Y498997D01*
X388022Y498937D01*
X388009Y498886D01*
X387987Y498839D01*
X387979Y498768D01*
X387962Y498698D01*
X387966Y498646D01*
X387960Y498595D01*
X387975Y498524D01*
X387981Y498453D01*
X388001Y498405D01*
X388012Y498354D01*
X388049Y498293D01*
X388077Y498227D01*
X388122Y498171D01*
X388138Y498143D01*
X388156Y498128D01*
X388182Y498096D01*
X389770Y496508D01*
X389844Y496455D01*
X389913Y496395D01*
X389943Y496383D01*
X389970Y496364D01*
X390057Y496337D01*
X390141Y496303D01*
X390182Y496299D01*
X390205Y496292D01*
X390237Y496293D01*
X390308Y496285D01*
X451969Y496285D01*
X454794Y493460D01*
X454868Y493407D01*
X454937Y493347D01*
X454967Y493335D01*
X454994Y493316D01*
X455081Y493289D01*
X455165Y493255D01*
X455206Y493251D01*
X455229Y493244D01*
X455261Y493245D01*
X455332Y493237D01*
X456033Y493237D01*
X456119Y493150D01*
X456214Y493082D01*
X456308Y493012D01*
X456314Y493011D01*
X456319Y493007D01*
X456431Y492973D01*
X456542Y492936D01*
X456548Y492936D01*
X456554Y492935D01*
X456671Y492938D01*
X456788Y492939D01*
X456795Y492941D01*
X456800Y492941D01*
X456817Y492947D01*
X456949Y492985D01*
X460462Y494441D01*
X479338Y494441D01*
X482844Y492988D01*
X485528Y490304D01*
X486981Y486798D01*
X486981Y483002D01*
X485528Y479496D01*
X482844Y476812D01*
X479338Y475359D01*
X460462Y475359D01*
G37*
%LPD*%
%LPC*%
G36*
X460263Y550559D02*
X460263Y550559D01*
X456389Y552164D01*
X453424Y555129D01*
X451819Y559003D01*
X451819Y563197D01*
X453424Y567071D01*
X456389Y570036D01*
X460263Y571641D01*
X479537Y571641D01*
X483411Y570036D01*
X486376Y567071D01*
X487981Y563197D01*
X487981Y559003D01*
X486376Y555129D01*
X483411Y552164D01*
X479537Y550559D01*
X460263Y550559D01*
G37*
%LPD*%
%LPC*%
G36*
X79462Y602359D02*
X79462Y602359D01*
X75956Y603812D01*
X73272Y606496D01*
X71819Y610002D01*
X71819Y613798D01*
X73272Y617304D01*
X75956Y619988D01*
X79462Y621441D01*
X98338Y621441D01*
X101844Y619988D01*
X104528Y617304D01*
X105981Y613798D01*
X105981Y610002D01*
X104528Y606496D01*
X101844Y603812D01*
X98338Y602359D01*
X79462Y602359D01*
G37*
%LPD*%
%LPC*%
G36*
X79462Y576959D02*
X79462Y576959D01*
X75956Y578412D01*
X73272Y581096D01*
X71819Y584602D01*
X71819Y588398D01*
X73272Y591904D01*
X75956Y594588D01*
X79462Y596041D01*
X98338Y596041D01*
X101844Y594588D01*
X104528Y591904D01*
X105981Y588398D01*
X105981Y584602D01*
X104528Y581096D01*
X101844Y578412D01*
X98338Y576959D01*
X79462Y576959D01*
G37*
%LPD*%
%LPC*%
G36*
X79557Y475835D02*
X79557Y475835D01*
X76225Y477215D01*
X73675Y479765D01*
X72295Y483097D01*
X72295Y486703D01*
X73675Y490035D01*
X76225Y492585D01*
X79557Y493965D01*
X98243Y493965D01*
X101575Y492585D01*
X104125Y490035D01*
X105505Y486703D01*
X105505Y483097D01*
X104125Y479765D01*
X101575Y477215D01*
X98243Y475835D01*
X79557Y475835D01*
G37*
%LPD*%
%LPC*%
G36*
X79557Y501235D02*
X79557Y501235D01*
X76225Y502615D01*
X73675Y505165D01*
X72295Y508497D01*
X72295Y512103D01*
X73675Y515435D01*
X76225Y517985D01*
X79557Y519365D01*
X98243Y519365D01*
X101575Y517985D01*
X104125Y515435D01*
X105505Y512103D01*
X105505Y508497D01*
X104125Y505165D01*
X101575Y502615D01*
X98243Y501235D01*
X79557Y501235D01*
G37*
%LPD*%
%LPC*%
G36*
X460557Y577435D02*
X460557Y577435D01*
X457225Y578815D01*
X454675Y581365D01*
X453295Y584697D01*
X453295Y588303D01*
X454675Y591635D01*
X457225Y594185D01*
X460557Y595565D01*
X479243Y595565D01*
X482575Y594185D01*
X485125Y591635D01*
X486505Y588303D01*
X486505Y584697D01*
X485125Y581365D01*
X482575Y578815D01*
X479243Y577435D01*
X460557Y577435D01*
G37*
%LPD*%
%LPC*%
G36*
X169484Y461295D02*
X169484Y461295D01*
X166322Y462605D01*
X163901Y465026D01*
X162591Y468188D01*
X162591Y471612D01*
X163901Y474774D01*
X166322Y477195D01*
X169484Y478505D01*
X186116Y478505D01*
X189278Y477195D01*
X191699Y474774D01*
X193009Y471612D01*
X193009Y468188D01*
X191699Y465026D01*
X189278Y462605D01*
X186116Y461295D01*
X169484Y461295D01*
G37*
%LPD*%
%LPC*%
G36*
X372684Y461295D02*
X372684Y461295D01*
X369522Y462605D01*
X367101Y465026D01*
X365791Y468188D01*
X365791Y471612D01*
X367101Y474774D01*
X369522Y477195D01*
X372684Y478505D01*
X389316Y478505D01*
X392478Y477195D01*
X394899Y474774D01*
X396209Y471612D01*
X396209Y468188D01*
X394899Y465026D01*
X392478Y462605D01*
X389316Y461295D01*
X372684Y461295D01*
G37*
%LPD*%
%LPC*%
G36*
X169484Y499395D02*
X169484Y499395D01*
X166322Y500705D01*
X163901Y503126D01*
X162591Y506288D01*
X162591Y509712D01*
X163901Y512874D01*
X166322Y515295D01*
X169484Y516605D01*
X186116Y516605D01*
X189278Y515295D01*
X191699Y512874D01*
X193009Y509712D01*
X193009Y506288D01*
X191699Y503126D01*
X189278Y500705D01*
X186116Y499395D01*
X169484Y499395D01*
G37*
%LPD*%
%LPC*%
G36*
X372684Y537495D02*
X372684Y537495D01*
X369522Y538805D01*
X367101Y541226D01*
X365791Y544388D01*
X365791Y547812D01*
X367101Y550974D01*
X369522Y553395D01*
X372684Y554705D01*
X389316Y554705D01*
X392478Y553395D01*
X394899Y550974D01*
X396209Y547812D01*
X396209Y544388D01*
X394899Y541226D01*
X392478Y538805D01*
X389316Y537495D01*
X372684Y537495D01*
G37*
%LPD*%
%LPC*%
G36*
X169484Y575595D02*
X169484Y575595D01*
X166322Y576905D01*
X163901Y579326D01*
X162591Y582488D01*
X162591Y585912D01*
X163901Y589074D01*
X166322Y591495D01*
X169484Y592805D01*
X186116Y592805D01*
X189278Y591495D01*
X191699Y589074D01*
X193009Y585912D01*
X193009Y582488D01*
X191699Y579326D01*
X189278Y576905D01*
X186116Y575595D01*
X169484Y575595D01*
G37*
%LPD*%
%LPC*%
G36*
X352712Y675799D02*
X352712Y675799D01*
X348485Y677550D01*
X345250Y680785D01*
X343499Y685012D01*
X343499Y689588D01*
X345250Y693815D01*
X348485Y697050D01*
X352712Y698801D01*
X357288Y698801D01*
X361515Y697050D01*
X364750Y693815D01*
X366501Y689588D01*
X366501Y685012D01*
X364750Y680785D01*
X361515Y677550D01*
X357288Y675799D01*
X352712Y675799D01*
G37*
%LPD*%
%LPC*%
G36*
X340012Y624999D02*
X340012Y624999D01*
X335785Y626750D01*
X332550Y629985D01*
X330799Y634212D01*
X330799Y638788D01*
X332550Y643015D01*
X335785Y646250D01*
X340012Y648001D01*
X344588Y648001D01*
X348815Y646250D01*
X352050Y643015D01*
X353801Y638788D01*
X353801Y634212D01*
X352050Y629985D01*
X348815Y626750D01*
X344588Y624999D01*
X340012Y624999D01*
G37*
%LPD*%
%LPC*%
G36*
X302007Y676275D02*
X302007Y676275D01*
X297955Y677954D01*
X294854Y681055D01*
X293175Y685107D01*
X293175Y689493D01*
X294854Y693545D01*
X297955Y696646D01*
X302007Y698325D01*
X306393Y698325D01*
X310445Y696646D01*
X313546Y693545D01*
X315225Y689493D01*
X315225Y685107D01*
X313546Y681055D01*
X310445Y677954D01*
X306393Y676275D01*
X302007Y676275D01*
G37*
%LPD*%
%LPC*%
G36*
X263907Y625475D02*
X263907Y625475D01*
X259855Y627154D01*
X256754Y630255D01*
X255075Y634307D01*
X255075Y638693D01*
X256754Y642745D01*
X259855Y645846D01*
X263907Y647525D01*
X268293Y647525D01*
X272345Y645846D01*
X275446Y642745D01*
X277125Y638693D01*
X277125Y634307D01*
X275446Y630255D01*
X272345Y627154D01*
X268293Y625475D01*
X263907Y625475D01*
G37*
%LPD*%
%LPC*%
G36*
X238507Y625475D02*
X238507Y625475D01*
X234455Y627154D01*
X231354Y630255D01*
X229675Y634307D01*
X229675Y638693D01*
X231354Y642745D01*
X234455Y645846D01*
X238507Y647525D01*
X242893Y647525D01*
X246945Y645846D01*
X250046Y642745D01*
X251725Y638693D01*
X251725Y634307D01*
X250046Y630255D01*
X246945Y627154D01*
X242893Y625475D01*
X238507Y625475D01*
G37*
%LPD*%
%LPC*%
G36*
X237696Y375135D02*
X237696Y375135D01*
X234548Y376439D01*
X232139Y378848D01*
X230835Y381996D01*
X230835Y385404D01*
X232139Y388552D01*
X234548Y390961D01*
X237696Y392265D01*
X241104Y392265D01*
X244252Y390961D01*
X246661Y388552D01*
X247965Y385404D01*
X247965Y381996D01*
X246661Y378848D01*
X244252Y376439D01*
X241104Y375135D01*
X237696Y375135D01*
G37*
%LPD*%
%LPC*%
G36*
X277696Y375135D02*
X277696Y375135D01*
X274548Y376439D01*
X272139Y378848D01*
X270835Y381996D01*
X270835Y385404D01*
X272139Y388552D01*
X274548Y390961D01*
X277696Y392265D01*
X281104Y392265D01*
X284252Y390961D01*
X286661Y388552D01*
X287965Y385404D01*
X287965Y381996D01*
X286661Y378848D01*
X284252Y376439D01*
X281104Y375135D01*
X277696Y375135D01*
G37*
%LPD*%
%LPC*%
G36*
X297696Y375135D02*
X297696Y375135D01*
X294548Y376439D01*
X292139Y378848D01*
X290835Y381996D01*
X290835Y385404D01*
X292139Y388552D01*
X294548Y390961D01*
X297696Y392265D01*
X301104Y392265D01*
X304252Y390961D01*
X306661Y388552D01*
X307965Y385404D01*
X307965Y381996D01*
X306661Y378848D01*
X304252Y376439D01*
X301104Y375135D01*
X297696Y375135D01*
G37*
%LPD*%
%LPC*%
G36*
X90423Y562623D02*
X90423Y562623D01*
X90423Y571181D01*
X97233Y571181D01*
X98801Y570933D01*
X100310Y570442D01*
X101723Y569722D01*
X103007Y568789D01*
X104129Y567667D01*
X105062Y566383D01*
X105782Y564970D01*
X106273Y563461D01*
X106405Y562623D01*
X90423Y562623D01*
G37*
%LPD*%
%LPC*%
G36*
X471423Y537223D02*
X471423Y537223D01*
X471423Y545781D01*
X478233Y545781D01*
X479801Y545533D01*
X481310Y545042D01*
X482723Y544322D01*
X484007Y543389D01*
X485129Y542267D01*
X486062Y540983D01*
X486782Y539570D01*
X487273Y538061D01*
X487405Y537223D01*
X471423Y537223D01*
G37*
%LPD*%
%LPC*%
G36*
X452395Y537223D02*
X452395Y537223D01*
X452527Y538061D01*
X453018Y539570D01*
X453738Y540983D01*
X454671Y542267D01*
X455793Y543389D01*
X457077Y544322D01*
X458490Y545042D01*
X459999Y545533D01*
X461567Y545781D01*
X468377Y545781D01*
X468377Y537223D01*
X452395Y537223D01*
G37*
%LPD*%
%LPC*%
G36*
X71395Y562623D02*
X71395Y562623D01*
X71527Y563461D01*
X72018Y564970D01*
X72738Y566383D01*
X73671Y567667D01*
X74793Y568789D01*
X76077Y569722D01*
X77490Y570442D01*
X78999Y570933D01*
X80567Y571181D01*
X87377Y571181D01*
X87377Y562623D01*
X71395Y562623D01*
G37*
%LPD*%
%LPC*%
G36*
X471423Y525619D02*
X471423Y525619D01*
X471423Y534177D01*
X487405Y534177D01*
X487273Y533339D01*
X486782Y531830D01*
X486062Y530417D01*
X485129Y529133D01*
X484007Y528011D01*
X482723Y527078D01*
X481310Y526358D01*
X479801Y525867D01*
X478233Y525619D01*
X471423Y525619D01*
G37*
%LPD*%
%LPC*%
G36*
X90423Y551019D02*
X90423Y551019D01*
X90423Y559577D01*
X106405Y559577D01*
X106273Y558739D01*
X105782Y557230D01*
X105062Y555817D01*
X104129Y554533D01*
X103007Y553411D01*
X101723Y552478D01*
X100310Y551758D01*
X98801Y551267D01*
X97233Y551019D01*
X90423Y551019D01*
G37*
%LPD*%
%LPC*%
G36*
X80567Y551019D02*
X80567Y551019D01*
X78999Y551267D01*
X77490Y551758D01*
X76077Y552478D01*
X74793Y553411D01*
X73671Y554533D01*
X72738Y555817D01*
X72018Y557230D01*
X71527Y558739D01*
X71395Y559577D01*
X87377Y559577D01*
X87377Y551019D01*
X80567Y551019D01*
G37*
%LPD*%
%LPC*%
G36*
X461567Y525619D02*
X461567Y525619D01*
X459999Y525867D01*
X458490Y526358D01*
X457077Y527078D01*
X455793Y528011D01*
X454671Y529133D01*
X453738Y530417D01*
X453018Y531830D01*
X452527Y533339D01*
X452395Y534177D01*
X468377Y534177D01*
X468377Y525619D01*
X461567Y525619D01*
G37*
%LPD*%
%LPC*%
G36*
X255523Y471423D02*
X255523Y471423D01*
X255523Y479045D01*
X261505Y479045D01*
X263271Y478693D01*
X264936Y478004D01*
X266434Y477003D01*
X267707Y475730D01*
X268708Y474232D01*
X269397Y472567D01*
X269625Y471423D01*
X255523Y471423D01*
G37*
%LPD*%
%LPC*%
G36*
X255523Y585723D02*
X255523Y585723D01*
X255523Y593345D01*
X261505Y593345D01*
X263271Y592993D01*
X264936Y592304D01*
X266434Y591303D01*
X267707Y590030D01*
X268708Y588532D01*
X269397Y586867D01*
X269625Y585723D01*
X255523Y585723D01*
G37*
%LPD*%
%LPC*%
G36*
X255523Y547623D02*
X255523Y547623D01*
X255523Y555245D01*
X261505Y555245D01*
X263271Y554893D01*
X264936Y554204D01*
X266434Y553203D01*
X267707Y551930D01*
X268708Y550432D01*
X269397Y548767D01*
X269625Y547623D01*
X255523Y547623D01*
G37*
%LPD*%
%LPC*%
G36*
X255523Y509523D02*
X255523Y509523D01*
X255523Y517145D01*
X261505Y517145D01*
X263271Y516793D01*
X264936Y516104D01*
X266434Y515103D01*
X267707Y513830D01*
X268708Y512332D01*
X269397Y510667D01*
X269625Y509523D01*
X255523Y509523D01*
G37*
%LPD*%
%LPC*%
G36*
X238375Y509523D02*
X238375Y509523D01*
X238603Y510667D01*
X239292Y512332D01*
X240293Y513830D01*
X241566Y515103D01*
X243064Y516104D01*
X244729Y516793D01*
X246495Y517145D01*
X252477Y517145D01*
X252477Y509523D01*
X238375Y509523D01*
G37*
%LPD*%
%LPC*%
G36*
X238375Y547623D02*
X238375Y547623D01*
X238603Y548767D01*
X239292Y550432D01*
X240293Y551930D01*
X241566Y553203D01*
X243064Y554204D01*
X244729Y554893D01*
X246495Y555245D01*
X252477Y555245D01*
X252477Y547623D01*
X238375Y547623D01*
G37*
%LPD*%
%LPC*%
G36*
X238375Y471423D02*
X238375Y471423D01*
X238603Y472567D01*
X239292Y474232D01*
X240293Y475730D01*
X241566Y477003D01*
X243064Y478004D01*
X244729Y478693D01*
X246495Y479045D01*
X252477Y479045D01*
X252477Y471423D01*
X238375Y471423D01*
G37*
%LPD*%
%LPC*%
G36*
X255523Y536955D02*
X255523Y536955D01*
X255523Y544577D01*
X269625Y544577D01*
X269397Y543433D01*
X268708Y541768D01*
X267707Y540270D01*
X266434Y538997D01*
X264936Y537996D01*
X263271Y537307D01*
X261505Y536955D01*
X255523Y536955D01*
G37*
%LPD*%
%LPC*%
G36*
X255523Y575055D02*
X255523Y575055D01*
X255523Y582677D01*
X269625Y582677D01*
X269397Y581533D01*
X268708Y579868D01*
X267707Y578370D01*
X266434Y577097D01*
X264936Y576096D01*
X263271Y575407D01*
X261505Y575055D01*
X255523Y575055D01*
G37*
%LPD*%
%LPC*%
G36*
X255523Y498855D02*
X255523Y498855D01*
X255523Y506477D01*
X269625Y506477D01*
X269397Y505333D01*
X268708Y503668D01*
X267707Y502170D01*
X266434Y500897D01*
X264936Y499896D01*
X263271Y499207D01*
X261505Y498855D01*
X255523Y498855D01*
G37*
%LPD*%
%LPC*%
G36*
X255523Y460755D02*
X255523Y460755D01*
X255523Y468377D01*
X269625Y468377D01*
X269397Y467233D01*
X268708Y465568D01*
X267707Y464070D01*
X266434Y462797D01*
X264936Y461796D01*
X263271Y461107D01*
X261505Y460755D01*
X255523Y460755D01*
G37*
%LPD*%
%LPC*%
G36*
X246495Y460755D02*
X246495Y460755D01*
X244729Y461107D01*
X243064Y461796D01*
X241566Y462797D01*
X240293Y464070D01*
X239292Y465568D01*
X238603Y467233D01*
X238375Y468377D01*
X252477Y468377D01*
X252477Y460755D01*
X246495Y460755D01*
G37*
%LPD*%
%LPC*%
G36*
X246495Y536955D02*
X246495Y536955D01*
X244729Y537307D01*
X243064Y537996D01*
X241566Y538997D01*
X240293Y540270D01*
X239292Y541768D01*
X238603Y543433D01*
X238375Y544577D01*
X252477Y544577D01*
X252477Y536955D01*
X246495Y536955D01*
G37*
%LPD*%
%LPC*%
G36*
X246495Y498855D02*
X246495Y498855D01*
X244729Y499207D01*
X243064Y499896D01*
X241566Y500897D01*
X240293Y502170D01*
X239292Y503668D01*
X238603Y505333D01*
X238375Y506477D01*
X252477Y506477D01*
X252477Y498855D01*
X246495Y498855D01*
G37*
%LPD*%
%LPC*%
G36*
X280323Y688823D02*
X280323Y688823D01*
X280323Y699250D01*
X281619Y699044D01*
X283422Y698459D01*
X285111Y697598D01*
X286644Y696484D01*
X287984Y695144D01*
X289098Y693611D01*
X289959Y691922D01*
X290544Y690119D01*
X290750Y688823D01*
X280323Y688823D01*
G37*
%LPD*%
%LPC*%
G36*
X369223Y638023D02*
X369223Y638023D01*
X369223Y648450D01*
X370519Y648244D01*
X372322Y647659D01*
X374011Y646798D01*
X375544Y645684D01*
X376884Y644344D01*
X377998Y642811D01*
X378859Y641122D01*
X379444Y639319D01*
X379650Y638023D01*
X369223Y638023D01*
G37*
%LPD*%
%LPC*%
G36*
X191423Y638023D02*
X191423Y638023D01*
X191423Y648450D01*
X192719Y648244D01*
X194522Y647659D01*
X196211Y646798D01*
X197744Y645684D01*
X199084Y644344D01*
X200198Y642811D01*
X201059Y641122D01*
X201644Y639319D01*
X201850Y638023D01*
X191423Y638023D01*
G37*
%LPD*%
%LPC*%
G36*
X191423Y634977D02*
X191423Y634977D01*
X201850Y634977D01*
X201644Y633681D01*
X201059Y631878D01*
X200198Y630189D01*
X199084Y628656D01*
X197744Y627316D01*
X196211Y626202D01*
X194522Y625341D01*
X192719Y624756D01*
X191423Y624550D01*
X191423Y634977D01*
G37*
%LPD*%
%LPC*%
G36*
X369223Y634977D02*
X369223Y634977D01*
X379650Y634977D01*
X379444Y633681D01*
X378859Y631878D01*
X377998Y630189D01*
X376884Y628656D01*
X375544Y627316D01*
X374011Y626202D01*
X372322Y625341D01*
X370519Y624756D01*
X369223Y624550D01*
X369223Y634977D01*
G37*
%LPD*%
%LPC*%
G36*
X280323Y685777D02*
X280323Y685777D01*
X290750Y685777D01*
X290544Y684481D01*
X289959Y682678D01*
X289098Y680989D01*
X287984Y679456D01*
X286644Y678116D01*
X285111Y677002D01*
X283422Y676141D01*
X281619Y675556D01*
X280323Y675350D01*
X280323Y685777D01*
G37*
%LPD*%
%LPC*%
G36*
X355750Y638023D02*
X355750Y638023D01*
X355956Y639319D01*
X356541Y641122D01*
X357402Y642811D01*
X358516Y644344D01*
X359856Y645684D01*
X361389Y646798D01*
X363078Y647659D01*
X364881Y648244D01*
X366177Y648450D01*
X366177Y638023D01*
X355750Y638023D01*
G37*
%LPD*%
%LPC*%
G36*
X266850Y688823D02*
X266850Y688823D01*
X267056Y690119D01*
X267641Y691922D01*
X268502Y693611D01*
X269616Y695144D01*
X270956Y696484D01*
X272489Y697598D01*
X274178Y698459D01*
X275981Y699044D01*
X277277Y699250D01*
X277277Y688823D01*
X266850Y688823D01*
G37*
%LPD*%
%LPC*%
G36*
X187081Y624756D02*
X187081Y624756D01*
X185278Y625341D01*
X183589Y626202D01*
X182056Y627316D01*
X180716Y628656D01*
X179602Y630189D01*
X178741Y631878D01*
X178156Y633681D01*
X177950Y634977D01*
X188377Y634977D01*
X188377Y624550D01*
X187081Y624756D01*
G37*
%LPD*%
%LPC*%
G36*
X364881Y624756D02*
X364881Y624756D01*
X363078Y625341D01*
X361389Y626202D01*
X359856Y627316D01*
X358516Y628656D01*
X357402Y630189D01*
X356541Y631878D01*
X355956Y633681D01*
X355750Y634977D01*
X366177Y634977D01*
X366177Y624550D01*
X364881Y624756D01*
G37*
%LPD*%
%LPC*%
G36*
X275981Y675556D02*
X275981Y675556D01*
X274178Y676141D01*
X272489Y677002D01*
X270956Y678116D01*
X269616Y679456D01*
X268502Y680989D01*
X267641Y682678D01*
X267056Y684481D01*
X266850Y685777D01*
X277277Y685777D01*
X277277Y675350D01*
X275981Y675556D01*
G37*
%LPD*%
%LPC*%
G36*
X340923Y405223D02*
X340923Y405223D01*
X340923Y413159D01*
X341643Y413045D01*
X343078Y412579D01*
X344421Y411894D01*
X345642Y411008D01*
X346708Y409942D01*
X347594Y408721D01*
X348279Y407378D01*
X348745Y405943D01*
X348859Y405223D01*
X340923Y405223D01*
G37*
%LPD*%
%LPC*%
G36*
X329941Y405223D02*
X329941Y405223D01*
X330055Y405943D01*
X330521Y407378D01*
X331206Y408721D01*
X332092Y409942D01*
X333158Y411008D01*
X334379Y411894D01*
X335722Y412579D01*
X337157Y413045D01*
X337877Y413159D01*
X337877Y405223D01*
X329941Y405223D01*
G37*
%LPD*%
%LPC*%
G36*
X220923Y382177D02*
X220923Y382177D01*
X228859Y382177D01*
X228745Y381457D01*
X228279Y380022D01*
X227594Y378679D01*
X226708Y377458D01*
X225642Y376392D01*
X224421Y375506D01*
X223078Y374821D01*
X221643Y374355D01*
X220923Y374241D01*
X220923Y382177D01*
G37*
%LPD*%
%LPC*%
G36*
X217157Y374355D02*
X217157Y374355D01*
X215722Y374821D01*
X214379Y375506D01*
X213158Y376392D01*
X212092Y377458D01*
X211206Y378679D01*
X210521Y380022D01*
X210055Y381457D01*
X209941Y382177D01*
X217877Y382177D01*
X217877Y374241D01*
X217157Y374355D01*
G37*
%LPD*%
%LPC*%
G36*
X367699Y636499D02*
X367699Y636499D01*
X367699Y636501D01*
X367701Y636501D01*
X367701Y636499D01*
X367699Y636499D01*
G37*
%LPD*%
%LPC*%
G36*
X469899Y535699D02*
X469899Y535699D01*
X469899Y535701D01*
X469901Y535701D01*
X469901Y535699D01*
X469899Y535699D01*
G37*
%LPD*%
%LPC*%
G36*
X253999Y469899D02*
X253999Y469899D01*
X253999Y469901D01*
X254001Y469901D01*
X254001Y469899D01*
X253999Y469899D01*
G37*
%LPD*%
%LPC*%
G36*
X88899Y561099D02*
X88899Y561099D01*
X88899Y561101D01*
X88901Y561101D01*
X88901Y561099D01*
X88899Y561099D01*
G37*
%LPD*%
%LPC*%
G36*
X278799Y687299D02*
X278799Y687299D01*
X278799Y687301D01*
X278801Y687301D01*
X278801Y687299D01*
X278799Y687299D01*
G37*
%LPD*%
%LPC*%
G36*
X253999Y546099D02*
X253999Y546099D01*
X253999Y546101D01*
X254001Y546101D01*
X254001Y546099D01*
X253999Y546099D01*
G37*
%LPD*%
%LPC*%
G36*
X253999Y507999D02*
X253999Y507999D01*
X253999Y508001D01*
X254001Y508001D01*
X254001Y507999D01*
X253999Y507999D01*
G37*
%LPD*%
%LPC*%
G36*
X189899Y636499D02*
X189899Y636499D01*
X189899Y636501D01*
X189901Y636501D01*
X189901Y636499D01*
X189899Y636499D01*
G37*
%LPD*%
D10*
X298196Y584200D02*
X311404Y584200D01*
X374396Y584200D02*
X387604Y584200D01*
X311404Y546100D02*
X298196Y546100D01*
X374396Y546100D02*
X387604Y546100D01*
X184404Y584200D02*
X171196Y584200D01*
X247396Y584200D02*
X260604Y584200D01*
X184404Y546100D02*
X171196Y546100D01*
X247396Y546100D02*
X260604Y546100D01*
X298196Y508000D02*
X311404Y508000D01*
X374396Y508000D02*
X387604Y508000D01*
X311404Y469900D02*
X298196Y469900D01*
X374396Y469900D02*
X387604Y469900D01*
X184404Y508000D02*
X171196Y508000D01*
X247396Y508000D02*
X260604Y508000D01*
X184404Y469900D02*
X171196Y469900D01*
X247396Y469900D02*
X260604Y469900D01*
D11*
X202600Y687300D03*
X228000Y687300D03*
X253400Y687300D03*
X278800Y687300D03*
X304200Y687300D03*
X329600Y687300D03*
X355000Y687300D03*
X189900Y636500D03*
X215300Y636500D03*
X240700Y636500D03*
X266100Y636500D03*
X291500Y636500D03*
X316900Y636500D03*
X342300Y636500D03*
X367700Y636500D03*
D12*
X96440Y611900D02*
X81360Y611900D01*
X81360Y586500D02*
X96440Y586500D01*
X96440Y561100D02*
X81360Y561100D01*
X81360Y535700D02*
X96440Y535700D01*
X96440Y510300D02*
X81360Y510300D01*
X81360Y484900D02*
X96440Y484900D01*
X462360Y484900D02*
X477440Y484900D01*
X477440Y510300D02*
X462360Y510300D01*
X462360Y535700D02*
X477440Y535700D01*
X477440Y561100D02*
X462360Y561100D01*
X462360Y586500D02*
X477440Y586500D01*
X477440Y611900D02*
X462360Y611900D01*
D13*
X339400Y403700D03*
X339400Y383700D03*
X319400Y403700D03*
X319400Y383700D03*
X299400Y403700D03*
X299400Y383700D03*
X279400Y403700D03*
X279400Y383700D03*
X259400Y403700D03*
X259400Y383700D03*
X239400Y403700D03*
X239400Y383700D03*
X219400Y403700D03*
X219400Y383700D03*
D14*
X218440Y404368D02*
X171704Y451104D01*
X163576Y451104D01*
X115824Y498856D01*
X115824Y518160D01*
X110744Y523240D02*
X104648Y529336D01*
X110744Y523240D02*
X115824Y518160D01*
X104648Y529336D02*
X103632Y529336D01*
X97536Y535432D01*
X89408Y535432D01*
X218440Y404368D02*
X219400Y403700D01*
X89408Y535432D02*
X88900Y535700D01*
X110744Y523240D02*
X152400Y564896D01*
X152400Y629920D01*
X187960Y665480D01*
X211328Y665480D01*
X221488Y675640D01*
X221488Y677672D01*
X227584Y683768D01*
X227584Y686816D01*
X228000Y687300D01*
X304800Y477520D02*
X304800Y469900D01*
X304800Y477520D02*
X303784Y478536D01*
X303784Y481584D01*
X304800Y482600D01*
X304800Y494792D01*
X303784Y495808D01*
X303784Y498856D01*
X304800Y499872D01*
X304800Y508000D01*
X304800Y538480D02*
X304800Y546100D01*
X304800Y538480D02*
X303784Y537464D01*
X303784Y534416D01*
X304800Y533400D01*
X304800Y521208D01*
X303784Y520192D01*
X303784Y517144D01*
X304800Y516128D01*
X304800Y508000D01*
X304800Y576072D02*
X304800Y584200D01*
X304800Y576072D02*
X303784Y575056D01*
X303784Y572008D01*
X304800Y570992D01*
X304800Y558800D01*
X303784Y557784D01*
X303784Y554736D01*
X304800Y553720D01*
X304800Y546100D01*
X340360Y384048D02*
X348488Y384048D01*
X358648Y394208D01*
X358648Y412496D01*
X321056Y450088D01*
X314960Y450088D01*
X305816Y459232D01*
X305816Y461264D01*
X304800Y462280D01*
X339400Y383700D02*
X340360Y384048D01*
X304800Y462280D02*
X304800Y469900D01*
X291592Y632968D02*
X291592Y636016D01*
X291592Y632968D02*
X298704Y625856D01*
X298704Y624840D01*
X304800Y618744D01*
X304800Y597408D01*
X303784Y596392D01*
X303784Y593344D01*
X304800Y592328D01*
X291592Y636016D02*
X291500Y636500D01*
X304800Y592328D02*
X304800Y584200D01*
D15*
X279400Y406400D02*
X279400Y403700D01*
X279400Y406400D02*
X271272Y414528D01*
X271272Y420624D01*
X222504Y469392D01*
X222504Y580136D01*
X216408Y586232D01*
X230632Y663448D02*
X254000Y686816D01*
X253400Y687300D01*
D16*
X216408Y586232D03*
X230632Y663448D03*
D15*
X326136Y617728D02*
X326136Y477520D01*
X326136Y617728D02*
X318008Y625856D01*
X318008Y626872D01*
X316992Y627888D01*
X316992Y636016D01*
X316900Y636500D01*
D16*
X326136Y477520D03*
D15*
X298704Y407416D02*
X298704Y404368D01*
X298704Y407416D02*
X249936Y456184D01*
X241808Y456184D01*
X233680Y464312D01*
X233680Y600456D01*
X242824Y609600D01*
X298704Y404368D02*
X299400Y403700D01*
D16*
X242824Y609600D03*
D15*
X263144Y387096D02*
X260096Y384048D01*
X263144Y387096D02*
X263144Y388112D01*
X269240Y394208D01*
X269240Y409448D01*
X266192Y412496D01*
X266192Y413512D01*
X267208Y414528D01*
X267208Y418592D01*
X215392Y470408D01*
X215392Y577088D01*
X172720Y619760D02*
X172720Y637032D01*
X191008Y655320D01*
X294640Y655320D01*
X326136Y686816D01*
X329184Y686816D01*
X260096Y384048D02*
X259400Y383700D01*
X329184Y686816D02*
X329600Y687300D01*
D16*
X215392Y577088D03*
X172720Y619760D03*
D17*
X381000Y623824D02*
X381000Y584200D01*
X381000Y623824D02*
X386080Y628904D01*
X386080Y681736D01*
X360680Y707136D01*
X220472Y707136D01*
X203200Y689864D01*
X203200Y687832D01*
X202600Y687300D01*
X177800Y555752D02*
X177800Y546100D01*
X177800Y555752D02*
X207264Y585216D01*
X207264Y617728D02*
X207264Y622808D01*
X207264Y617728D02*
X207264Y585216D01*
X207264Y622808D02*
X214376Y629920D01*
X214376Y636016D01*
X215300Y636500D01*
X276352Y583184D02*
X285496Y574040D01*
X276352Y583184D02*
X276352Y590296D01*
X247904Y618744D01*
X218440Y618744D01*
X217424Y617728D01*
X207264Y617728D01*
D16*
X285496Y574040D03*
D17*
X381000Y508000D02*
X381000Y498856D01*
X388112Y491744D01*
X450088Y491744D01*
X453136Y488696D01*
X454152Y488696D01*
X455168Y487680D01*
X456184Y487680D01*
X458216Y485648D01*
X469392Y485648D01*
X469900Y484900D01*
X445008Y528320D02*
X445008Y592328D01*
X445008Y528320D02*
X462280Y511048D01*
X469392Y511048D01*
X469900Y510300D01*
D16*
X445008Y592328D03*
D15*
X319024Y407416D02*
X319024Y404368D01*
X319024Y407416D02*
X274320Y452120D01*
X274320Y551688D01*
X256032Y569976D01*
X241808Y569976D01*
X237744Y574040D01*
X237744Y594360D01*
X240792Y597408D01*
X319024Y404368D02*
X319400Y403700D01*
D16*
X240792Y597408D03*
D15*
X259080Y406400D02*
X259080Y404368D01*
X259080Y406400D02*
X198120Y467360D01*
X198120Y475488D01*
X178816Y494792D01*
X137160Y494792D01*
X259080Y404368D02*
X259400Y403700D01*
D16*
X137160Y494792D03*
D15*
X320040Y383032D02*
X320040Y379984D01*
X330200Y369824D01*
X335280Y369824D01*
X336296Y368808D01*
X343408Y368808D01*
X344424Y369824D01*
X347472Y369824D01*
X368808Y391160D01*
X368808Y456184D01*
X360680Y464312D01*
X360680Y513080D01*
X379984Y532384D01*
X393192Y532384D01*
X437896Y577088D01*
X437896Y595376D01*
X453136Y610616D01*
X468376Y610616D01*
X469392Y611632D01*
X319400Y383700D02*
X320040Y383032D01*
X469392Y611632D02*
X469900Y611900D01*
M02*
