G04 EAGLE Gerber RS-274X export*
G75*
%MOMM*%
%FSLAX34Y34*%
%LPD*%
%INBottom Copper*%
%IPPOS*%
%AMOC8*
5,1,8,0,0,1.08239X$1,22.5*%
G01*
%ADD10C,1.320800*%
%ADD11C,1.900000*%
%ADD12C,1.508000*%
%ADD13C,1.408000*%
%ADD14C,1.000000*%
%ADD15C,0.254000*%
%ADD16C,0.756400*%
%ADD17C,0.508000*%

G36*
X215252Y365272D02*
X215252Y365272D01*
X215324Y365274D01*
X215373Y365292D01*
X215424Y365300D01*
X215487Y365334D01*
X215555Y365359D01*
X215595Y365391D01*
X215641Y365416D01*
X215691Y365467D01*
X215747Y365512D01*
X215775Y365556D01*
X215811Y365594D01*
X215841Y365659D01*
X215880Y365719D01*
X215892Y365770D01*
X215914Y365817D01*
X215922Y365888D01*
X215940Y365958D01*
X215936Y366010D01*
X215941Y366061D01*
X215926Y366132D01*
X215921Y366203D01*
X215900Y366251D01*
X215889Y366302D01*
X215852Y366363D01*
X215824Y366429D01*
X215779Y366485D01*
X215763Y366513D01*
X215745Y366528D01*
X215719Y366560D01*
X215473Y366806D01*
X215399Y366859D01*
X215330Y366919D01*
X215300Y366931D01*
X215274Y366950D01*
X215187Y366977D01*
X215102Y367011D01*
X215061Y367015D01*
X215038Y367022D01*
X215006Y367021D01*
X214935Y367029D01*
X175626Y367029D01*
X63245Y479410D01*
X63245Y617870D01*
X153274Y707899D01*
X285638Y707899D01*
X296884Y696652D01*
X296900Y696640D01*
X296913Y696625D01*
X297000Y696569D01*
X297084Y696509D01*
X297103Y696503D01*
X297120Y696492D01*
X297220Y696467D01*
X297319Y696436D01*
X297339Y696437D01*
X297358Y696432D01*
X297461Y696440D01*
X297565Y696443D01*
X297584Y696449D01*
X297604Y696451D01*
X297699Y696492D01*
X297796Y696527D01*
X297812Y696540D01*
X297830Y696547D01*
X297952Y696645D01*
X302007Y698325D01*
X306393Y698325D01*
X310445Y696646D01*
X313546Y693545D01*
X315225Y689493D01*
X315225Y685107D01*
X313546Y681055D01*
X310445Y677954D01*
X306393Y676275D01*
X302007Y676275D01*
X297955Y677954D01*
X294854Y681055D01*
X293175Y685107D01*
X293175Y689493D01*
X293849Y691118D01*
X293875Y691232D01*
X293904Y691346D01*
X293903Y691352D01*
X293905Y691358D01*
X293894Y691474D01*
X293885Y691591D01*
X293882Y691597D01*
X293882Y691603D01*
X293834Y691710D01*
X293788Y691817D01*
X293784Y691823D01*
X293782Y691828D01*
X293769Y691841D01*
X293684Y691948D01*
X283545Y702086D01*
X283471Y702139D01*
X283402Y702199D01*
X283372Y702211D01*
X283346Y702230D01*
X283259Y702257D01*
X283174Y702291D01*
X283133Y702295D01*
X283111Y702302D01*
X283078Y702301D01*
X283007Y702309D01*
X155905Y702309D01*
X155815Y702295D01*
X155724Y702287D01*
X155694Y702275D01*
X155662Y702270D01*
X155582Y702227D01*
X155498Y702191D01*
X155466Y702165D01*
X155445Y702154D01*
X155423Y702131D01*
X155367Y702086D01*
X69058Y615777D01*
X69005Y615703D01*
X68945Y615634D01*
X68933Y615604D01*
X68914Y615578D01*
X68887Y615491D01*
X68853Y615406D01*
X68849Y615365D01*
X68842Y615343D01*
X68843Y615310D01*
X68835Y615239D01*
X68835Y482041D01*
X68849Y481951D01*
X68857Y481860D01*
X68869Y481830D01*
X68874Y481798D01*
X68917Y481718D01*
X68953Y481634D01*
X68979Y481602D01*
X68990Y481581D01*
X69013Y481559D01*
X69058Y481503D01*
X177719Y372842D01*
X177793Y372789D01*
X177862Y372729D01*
X177892Y372717D01*
X177918Y372698D01*
X178005Y372671D01*
X178090Y372637D01*
X178131Y372633D01*
X178153Y372626D01*
X178186Y372627D01*
X178257Y372619D01*
X217566Y372619D01*
X218359Y371826D01*
X218433Y371773D01*
X218502Y371713D01*
X218532Y371701D01*
X218558Y371682D01*
X218645Y371655D01*
X218730Y371621D01*
X218771Y371617D01*
X218793Y371610D01*
X218826Y371611D01*
X218897Y371603D01*
X220015Y371603D01*
X220105Y371617D01*
X220196Y371625D01*
X220226Y371637D01*
X220258Y371642D01*
X220338Y371685D01*
X220422Y371721D01*
X220454Y371747D01*
X220475Y371758D01*
X220497Y371781D01*
X220553Y371826D01*
X221346Y372619D01*
X227127Y372619D01*
X227217Y372633D01*
X227308Y372641D01*
X227338Y372653D01*
X227370Y372658D01*
X227450Y372701D01*
X227534Y372737D01*
X227566Y372763D01*
X227587Y372774D01*
X227609Y372797D01*
X227665Y372842D01*
X232367Y377544D01*
X232379Y377560D01*
X232395Y377572D01*
X232451Y377660D01*
X232511Y377743D01*
X232517Y377762D01*
X232528Y377779D01*
X232553Y377880D01*
X232583Y377979D01*
X232583Y377998D01*
X232588Y378018D01*
X232580Y378121D01*
X232577Y378224D01*
X232570Y378243D01*
X232568Y378263D01*
X232528Y378358D01*
X232492Y378455D01*
X232480Y378471D01*
X232472Y378489D01*
X232367Y378620D01*
X232139Y378848D01*
X230835Y381996D01*
X230835Y385404D01*
X232139Y388552D01*
X234548Y390961D01*
X237696Y392265D01*
X241104Y392265D01*
X244252Y390961D01*
X246661Y388552D01*
X247965Y385404D01*
X247965Y381996D01*
X246661Y378848D01*
X244252Y376439D01*
X241104Y375135D01*
X238179Y375135D01*
X238089Y375121D01*
X237998Y375113D01*
X237968Y375101D01*
X237936Y375096D01*
X237856Y375053D01*
X237772Y375017D01*
X237740Y374991D01*
X237719Y374980D01*
X237697Y374957D01*
X237641Y374912D01*
X229758Y367029D01*
X223977Y367029D01*
X223887Y367015D01*
X223796Y367007D01*
X223766Y366995D01*
X223734Y366990D01*
X223654Y366947D01*
X223570Y366911D01*
X223538Y366885D01*
X223517Y366874D01*
X223495Y366851D01*
X223439Y366806D01*
X223193Y366560D01*
X223151Y366502D01*
X223101Y366450D01*
X223079Y366403D01*
X223049Y366361D01*
X223028Y366292D01*
X222998Y366227D01*
X222992Y366175D01*
X222977Y366125D01*
X222979Y366054D01*
X222971Y365983D01*
X222982Y365932D01*
X222983Y365880D01*
X223008Y365812D01*
X223023Y365742D01*
X223050Y365697D01*
X223068Y365649D01*
X223112Y365593D01*
X223149Y365531D01*
X223189Y365497D01*
X223221Y365457D01*
X223281Y365418D01*
X223336Y365371D01*
X223384Y365352D01*
X223428Y365324D01*
X223498Y365306D01*
X223564Y365279D01*
X223635Y365271D01*
X223667Y365263D01*
X223690Y365265D01*
X223731Y365261D01*
X334053Y365261D01*
X334124Y365272D01*
X334196Y365274D01*
X334245Y365292D01*
X334296Y365300D01*
X334359Y365334D01*
X334427Y365359D01*
X334467Y365391D01*
X334513Y365416D01*
X334563Y365467D01*
X334619Y365512D01*
X334647Y365556D01*
X334683Y365594D01*
X334713Y365659D01*
X334752Y365719D01*
X334764Y365770D01*
X334786Y365817D01*
X334794Y365888D01*
X334812Y365958D01*
X334808Y366010D01*
X334813Y366061D01*
X334798Y366132D01*
X334793Y366203D01*
X334772Y366251D01*
X334761Y366302D01*
X334724Y366363D01*
X334696Y366429D01*
X334651Y366485D01*
X334635Y366513D01*
X334617Y366528D01*
X334591Y366560D01*
X334345Y366806D01*
X334271Y366859D01*
X334202Y366919D01*
X334172Y366931D01*
X334146Y366950D01*
X334059Y366977D01*
X333974Y367011D01*
X333933Y367015D01*
X333910Y367022D01*
X333878Y367021D01*
X333807Y367029D01*
X309738Y367029D01*
X301837Y374930D01*
X301743Y374998D01*
X301648Y375068D01*
X301642Y375070D01*
X301637Y375074D01*
X301526Y375108D01*
X301415Y375145D01*
X301408Y375145D01*
X301402Y375146D01*
X301285Y375143D01*
X301169Y375142D01*
X301161Y375140D01*
X301156Y375140D01*
X301144Y375135D01*
X297696Y375135D01*
X294548Y376439D01*
X292139Y378848D01*
X290835Y381996D01*
X290835Y385404D01*
X292139Y388552D01*
X294548Y390961D01*
X297696Y392265D01*
X301104Y392265D01*
X304252Y390961D01*
X306661Y388552D01*
X307965Y385404D01*
X307965Y381996D01*
X306610Y378727D01*
X306584Y378613D01*
X306555Y378499D01*
X306556Y378493D01*
X306554Y378487D01*
X306565Y378371D01*
X306574Y378254D01*
X306577Y378249D01*
X306577Y378242D01*
X306625Y378135D01*
X306671Y378028D01*
X306675Y378022D01*
X306677Y378018D01*
X306690Y378004D01*
X306775Y377897D01*
X311831Y372842D01*
X311905Y372789D01*
X311974Y372729D01*
X312004Y372717D01*
X312030Y372698D01*
X312118Y372671D01*
X312202Y372637D01*
X312243Y372633D01*
X312265Y372626D01*
X312298Y372627D01*
X312369Y372619D01*
X336088Y372619D01*
X336184Y372634D01*
X336281Y372644D01*
X336305Y372654D01*
X336331Y372658D01*
X336417Y372704D01*
X336483Y372734D01*
X336484Y372729D01*
X336494Y372705D01*
X336498Y372679D01*
X336542Y372592D01*
X336580Y372502D01*
X336600Y372477D01*
X336609Y372460D01*
X336633Y372437D01*
X336685Y372371D01*
X337231Y371826D01*
X337305Y371773D01*
X337374Y371713D01*
X337404Y371701D01*
X337430Y371682D01*
X337517Y371655D01*
X337602Y371621D01*
X337643Y371617D01*
X337665Y371610D01*
X337698Y371611D01*
X337769Y371603D01*
X341935Y371603D01*
X342025Y371617D01*
X342116Y371625D01*
X342146Y371637D01*
X342178Y371642D01*
X342258Y371685D01*
X342342Y371721D01*
X342374Y371747D01*
X342395Y371758D01*
X342417Y371781D01*
X342473Y371826D01*
X343266Y372619D01*
X380543Y372619D01*
X380633Y372633D01*
X380724Y372641D01*
X380754Y372653D01*
X380786Y372658D01*
X380866Y372701D01*
X380950Y372737D01*
X380982Y372763D01*
X381003Y372774D01*
X381025Y372797D01*
X381081Y372842D01*
X483474Y475235D01*
X484175Y475235D01*
X484265Y475249D01*
X484356Y475257D01*
X484386Y475269D01*
X484418Y475274D01*
X484498Y475317D01*
X484582Y475353D01*
X484614Y475379D01*
X484635Y475390D01*
X484657Y475413D01*
X484713Y475458D01*
X489742Y480487D01*
X489795Y480561D01*
X489855Y480630D01*
X489867Y480660D01*
X489886Y480686D01*
X489913Y480773D01*
X489947Y480858D01*
X489951Y480899D01*
X489958Y480921D01*
X489957Y480954D01*
X489965Y481025D01*
X489965Y566471D01*
X489951Y566561D01*
X489943Y566652D01*
X489931Y566682D01*
X489926Y566714D01*
X489883Y566794D01*
X489847Y566878D01*
X489821Y566910D01*
X489810Y566931D01*
X489787Y566953D01*
X489742Y567009D01*
X479688Y577064D01*
X479650Y577134D01*
X479636Y577148D01*
X479626Y577165D01*
X479547Y577232D01*
X479472Y577304D01*
X479454Y577312D01*
X479439Y577325D01*
X479343Y577364D01*
X479249Y577407D01*
X479229Y577409D01*
X479211Y577417D01*
X479044Y577435D01*
X460557Y577435D01*
X457225Y578815D01*
X454675Y581365D01*
X453295Y584697D01*
X453295Y588303D01*
X454675Y591635D01*
X457225Y594185D01*
X460557Y595565D01*
X479243Y595565D01*
X482575Y594185D01*
X485125Y591635D01*
X486505Y588303D01*
X486505Y584697D01*
X485080Y581257D01*
X485053Y581144D01*
X485025Y581030D01*
X485025Y581024D01*
X485024Y581018D01*
X485035Y580899D01*
X485044Y580785D01*
X485046Y580779D01*
X485047Y580773D01*
X485095Y580665D01*
X485140Y580558D01*
X485145Y580553D01*
X485147Y580548D01*
X485160Y580534D01*
X485245Y580427D01*
X485395Y580278D01*
X485395Y579577D01*
X485409Y579487D01*
X485417Y579396D01*
X485429Y579366D01*
X485434Y579334D01*
X485477Y579254D01*
X485513Y579170D01*
X485539Y579138D01*
X485550Y579117D01*
X485573Y579095D01*
X485618Y579039D01*
X495555Y569102D01*
X495555Y478394D01*
X486806Y469645D01*
X486105Y469645D01*
X486015Y469631D01*
X485924Y469623D01*
X485894Y469611D01*
X485862Y469606D01*
X485782Y469563D01*
X485698Y469527D01*
X485666Y469501D01*
X485645Y469490D01*
X485623Y469467D01*
X485567Y469422D01*
X383174Y367029D01*
X345897Y367029D01*
X345807Y367015D01*
X345716Y367007D01*
X345686Y366995D01*
X345654Y366990D01*
X345574Y366947D01*
X345490Y366911D01*
X345458Y366885D01*
X345437Y366874D01*
X345415Y366851D01*
X345359Y366806D01*
X345113Y366560D01*
X345071Y366502D01*
X345021Y366450D01*
X344999Y366403D01*
X344969Y366361D01*
X344948Y366292D01*
X344918Y366227D01*
X344912Y366175D01*
X344897Y366125D01*
X344899Y366054D01*
X344891Y365983D01*
X344902Y365932D01*
X344903Y365880D01*
X344928Y365812D01*
X344943Y365742D01*
X344970Y365697D01*
X344988Y365649D01*
X345032Y365593D01*
X345069Y365531D01*
X345109Y365497D01*
X345141Y365457D01*
X345201Y365418D01*
X345256Y365371D01*
X345304Y365352D01*
X345348Y365324D01*
X345418Y365306D01*
X345484Y365279D01*
X345555Y365271D01*
X345587Y365263D01*
X345610Y365265D01*
X345651Y365261D01*
X519278Y365261D01*
X519298Y365264D01*
X519317Y365262D01*
X519419Y365284D01*
X519521Y365300D01*
X519538Y365310D01*
X519558Y365314D01*
X519647Y365367D01*
X519738Y365416D01*
X519752Y365430D01*
X519769Y365440D01*
X519836Y365519D01*
X519908Y365594D01*
X519916Y365612D01*
X519929Y365627D01*
X519968Y365723D01*
X520011Y365817D01*
X520013Y365837D01*
X520021Y365855D01*
X520039Y366022D01*
X520039Y734578D01*
X520036Y734598D01*
X520038Y734617D01*
X520016Y734719D01*
X520000Y734821D01*
X519990Y734838D01*
X519986Y734858D01*
X519933Y734947D01*
X519884Y735038D01*
X519870Y735052D01*
X519860Y735069D01*
X519781Y735136D01*
X519706Y735208D01*
X519688Y735216D01*
X519673Y735229D01*
X519577Y735268D01*
X519483Y735311D01*
X519463Y735313D01*
X519445Y735321D01*
X519278Y735339D01*
X35822Y735339D01*
X35802Y735336D01*
X35783Y735338D01*
X35681Y735316D01*
X35579Y735300D01*
X35562Y735290D01*
X35542Y735286D01*
X35453Y735233D01*
X35362Y735184D01*
X35348Y735170D01*
X35331Y735160D01*
X35264Y735081D01*
X35192Y735006D01*
X35184Y734988D01*
X35171Y734973D01*
X35132Y734877D01*
X35089Y734783D01*
X35087Y734763D01*
X35079Y734745D01*
X35061Y734578D01*
X35061Y366022D01*
X35064Y366002D01*
X35062Y365983D01*
X35084Y365881D01*
X35100Y365779D01*
X35110Y365762D01*
X35114Y365742D01*
X35167Y365653D01*
X35216Y365562D01*
X35230Y365548D01*
X35240Y365531D01*
X35319Y365464D01*
X35394Y365392D01*
X35412Y365384D01*
X35427Y365371D01*
X35523Y365332D01*
X35617Y365289D01*
X35637Y365287D01*
X35655Y365279D01*
X35822Y365261D01*
X215181Y365261D01*
X215252Y365272D01*
G37*
%LPC*%
G36*
X460263Y550559D02*
X460263Y550559D01*
X456389Y552164D01*
X453424Y555129D01*
X453343Y555324D01*
X453309Y555380D01*
X453283Y555440D01*
X453231Y555505D01*
X453214Y555533D01*
X453199Y555546D01*
X453178Y555571D01*
X385719Y623030D01*
X383361Y625388D01*
X382143Y628329D01*
X382143Y641531D01*
X382129Y641621D01*
X382121Y641712D01*
X382109Y641741D01*
X382104Y641773D01*
X382061Y641854D01*
X382025Y641938D01*
X381999Y641970D01*
X381988Y641991D01*
X381965Y642013D01*
X381920Y642069D01*
X366733Y657256D01*
X366659Y657309D01*
X366590Y657369D01*
X366559Y657381D01*
X366533Y657400D01*
X366446Y657427D01*
X366361Y657461D01*
X366320Y657465D01*
X366298Y657472D01*
X366266Y657471D01*
X366195Y657479D01*
X244281Y657479D01*
X241340Y658697D01*
X237238Y662799D01*
X237180Y662841D01*
X237128Y662890D01*
X237081Y662912D01*
X237039Y662943D01*
X236970Y662964D01*
X236905Y662994D01*
X236853Y663000D01*
X236803Y663015D01*
X236732Y663013D01*
X236661Y663021D01*
X236610Y663010D01*
X236558Y663009D01*
X236490Y662984D01*
X236420Y662969D01*
X236375Y662942D01*
X236327Y662924D01*
X236271Y662879D01*
X236209Y662843D01*
X236175Y662803D01*
X236135Y662770D01*
X236096Y662710D01*
X236049Y662656D01*
X236030Y662607D01*
X236002Y662563D01*
X235984Y662494D01*
X235957Y662427D01*
X235949Y662356D01*
X235941Y662325D01*
X235943Y662302D01*
X235939Y662261D01*
X235939Y661250D01*
X232830Y658141D01*
X228434Y658141D01*
X226145Y660430D01*
X226071Y660483D01*
X226001Y660543D01*
X225971Y660555D01*
X225945Y660574D01*
X225858Y660601D01*
X225773Y660635D01*
X225732Y660639D01*
X225710Y660646D01*
X225678Y660645D01*
X225607Y660653D01*
X194513Y660653D01*
X194423Y660639D01*
X194332Y660631D01*
X194302Y660619D01*
X194270Y660614D01*
X194190Y660571D01*
X194106Y660535D01*
X194074Y660509D01*
X194053Y660498D01*
X194031Y660475D01*
X194026Y660471D01*
X194025Y660471D01*
X194025Y660470D01*
X193975Y660430D01*
X175738Y642193D01*
X175685Y642119D01*
X175625Y642050D01*
X175613Y642020D01*
X175594Y641994D01*
X175567Y641907D01*
X175533Y641822D01*
X175529Y641781D01*
X175522Y641759D01*
X175523Y641726D01*
X175515Y641655D01*
X175515Y631393D01*
X175529Y631303D01*
X175537Y631212D01*
X175549Y631182D01*
X175554Y631150D01*
X175597Y631070D01*
X175633Y630986D01*
X175659Y630954D01*
X175670Y630933D01*
X175693Y630911D01*
X175738Y630855D01*
X214831Y591762D01*
X214905Y591709D01*
X214974Y591649D01*
X215004Y591637D01*
X215030Y591618D01*
X215117Y591591D01*
X215202Y591557D01*
X215243Y591553D01*
X215265Y591546D01*
X215298Y591547D01*
X215369Y591539D01*
X218606Y591539D01*
X221715Y588430D01*
X221715Y584034D01*
X219371Y581690D01*
X219360Y581674D01*
X219344Y581662D01*
X219288Y581574D01*
X219228Y581491D01*
X219222Y581472D01*
X219211Y581455D01*
X219186Y581354D01*
X219155Y581255D01*
X219156Y581236D01*
X219151Y581216D01*
X219159Y581113D01*
X219162Y581010D01*
X219168Y580991D01*
X219170Y580971D01*
X219210Y580876D01*
X219246Y580779D01*
X219259Y580763D01*
X219266Y580745D01*
X219371Y580614D01*
X220699Y579286D01*
X220699Y574890D01*
X217590Y571781D01*
X213194Y571781D01*
X210085Y574890D01*
X210085Y578127D01*
X210071Y578217D01*
X210063Y578308D01*
X210051Y578338D01*
X210046Y578370D01*
X210003Y578450D01*
X209967Y578534D01*
X209941Y578567D01*
X209930Y578587D01*
X209907Y578609D01*
X209862Y578665D01*
X174297Y614230D01*
X174223Y614283D01*
X174154Y614343D01*
X174124Y614355D01*
X174098Y614374D01*
X174011Y614401D01*
X173926Y614435D01*
X173885Y614439D01*
X173863Y614446D01*
X173830Y614445D01*
X173759Y614453D01*
X170522Y614453D01*
X169416Y615559D01*
X169358Y615601D01*
X169306Y615650D01*
X169259Y615672D01*
X169217Y615702D01*
X169148Y615724D01*
X169083Y615754D01*
X169031Y615759D01*
X168981Y615775D01*
X168910Y615773D01*
X168839Y615781D01*
X168788Y615770D01*
X168736Y615768D01*
X168668Y615744D01*
X168598Y615729D01*
X168553Y615702D01*
X168505Y615684D01*
X168449Y615639D01*
X168387Y615602D01*
X168353Y615563D01*
X168313Y615530D01*
X168274Y615470D01*
X168227Y615415D01*
X168208Y615367D01*
X168180Y615323D01*
X168162Y615254D01*
X168135Y615187D01*
X168127Y615116D01*
X168119Y615085D01*
X168121Y615062D01*
X168117Y615021D01*
X168117Y609764D01*
X168131Y609674D01*
X168139Y609583D01*
X168151Y609553D01*
X168156Y609521D01*
X168199Y609441D01*
X168235Y609357D01*
X168261Y609325D01*
X168272Y609304D01*
X168295Y609282D01*
X168340Y609226D01*
X171388Y606178D01*
X182341Y595225D01*
X182341Y593566D01*
X182344Y593546D01*
X182342Y593527D01*
X182364Y593425D01*
X182380Y593323D01*
X182390Y593306D01*
X182394Y593286D01*
X182447Y593197D01*
X182496Y593106D01*
X182510Y593092D01*
X182520Y593075D01*
X182599Y593008D01*
X182674Y592936D01*
X182692Y592928D01*
X182707Y592915D01*
X182803Y592876D01*
X182897Y592833D01*
X182917Y592831D01*
X182935Y592823D01*
X183102Y592805D01*
X186116Y592805D01*
X189278Y591495D01*
X191699Y589074D01*
X193009Y585912D01*
X193009Y582488D01*
X191699Y579326D01*
X189278Y576905D01*
X186116Y575595D01*
X169484Y575595D01*
X166322Y576905D01*
X163901Y579326D01*
X162591Y582488D01*
X162591Y585912D01*
X163901Y589074D01*
X166322Y591495D01*
X169484Y592805D01*
X170080Y592805D01*
X170151Y592816D01*
X170222Y592818D01*
X170271Y592836D01*
X170323Y592844D01*
X170386Y592878D01*
X170453Y592903D01*
X170494Y592935D01*
X170540Y592960D01*
X170589Y593011D01*
X170645Y593056D01*
X170674Y593100D01*
X170709Y593138D01*
X170740Y593203D01*
X170778Y593263D01*
X170791Y593314D01*
X170813Y593361D01*
X170821Y593432D01*
X170838Y593502D01*
X170834Y593554D01*
X170840Y593605D01*
X170825Y593676D01*
X170819Y593747D01*
X170799Y593795D01*
X170788Y593846D01*
X170751Y593907D01*
X170723Y593973D01*
X170678Y594029D01*
X170662Y594057D01*
X170644Y594072D01*
X170618Y594104D01*
X164966Y599756D01*
X164892Y599809D01*
X164823Y599869D01*
X164793Y599881D01*
X164766Y599900D01*
X164679Y599927D01*
X164595Y599961D01*
X164554Y599965D01*
X164531Y599972D01*
X164499Y599971D01*
X164428Y599979D01*
X106831Y599979D01*
X102990Y603820D01*
X102916Y603873D01*
X102847Y603933D01*
X102817Y603945D01*
X102790Y603964D01*
X102703Y603991D01*
X102619Y604025D01*
X102578Y604029D01*
X102555Y604036D01*
X102523Y604035D01*
X102452Y604043D01*
X102391Y604043D01*
X102301Y604029D01*
X102210Y604021D01*
X102180Y604009D01*
X102148Y604004D01*
X102068Y603961D01*
X101984Y603925D01*
X101952Y603899D01*
X101931Y603888D01*
X101909Y603865D01*
X101853Y603820D01*
X101844Y603812D01*
X98338Y602359D01*
X79462Y602359D01*
X75956Y603812D01*
X73272Y606496D01*
X71819Y610002D01*
X71819Y613798D01*
X73272Y617304D01*
X75956Y619988D01*
X79462Y621441D01*
X98338Y621441D01*
X101844Y619988D01*
X104528Y617304D01*
X106005Y613740D01*
X106020Y613643D01*
X106030Y613626D01*
X106034Y613606D01*
X106087Y613517D01*
X106136Y613426D01*
X106150Y613412D01*
X106160Y613395D01*
X106239Y613328D01*
X106314Y613256D01*
X106332Y613248D01*
X106347Y613235D01*
X106443Y613196D01*
X106469Y613184D01*
X110370Y609284D01*
X110444Y609231D01*
X110513Y609171D01*
X110543Y609159D01*
X110570Y609140D01*
X110657Y609113D01*
X110741Y609079D01*
X110782Y609075D01*
X110805Y609068D01*
X110837Y609069D01*
X110908Y609061D01*
X158274Y609061D01*
X158294Y609064D01*
X158313Y609062D01*
X158415Y609084D01*
X158517Y609100D01*
X158534Y609110D01*
X158554Y609114D01*
X158643Y609167D01*
X158734Y609216D01*
X158748Y609230D01*
X158765Y609240D01*
X158832Y609319D01*
X158904Y609394D01*
X158912Y609412D01*
X158925Y609427D01*
X158964Y609523D01*
X159007Y609617D01*
X159009Y609637D01*
X159017Y609655D01*
X159035Y609822D01*
X159035Y648057D01*
X192172Y681194D01*
X192240Y681288D01*
X192310Y681383D01*
X192312Y681389D01*
X192316Y681394D01*
X192350Y681504D01*
X192386Y681616D01*
X192386Y681623D01*
X192388Y681629D01*
X192385Y681745D01*
X192384Y681862D01*
X192382Y681870D01*
X192382Y681875D01*
X192375Y681892D01*
X192337Y682023D01*
X191099Y685012D01*
X191099Y689588D01*
X192850Y693815D01*
X196085Y697050D01*
X200312Y698801D01*
X204888Y698801D01*
X209115Y697050D01*
X212350Y693815D01*
X214055Y689697D01*
X214093Y689636D01*
X214122Y689570D01*
X214158Y689532D01*
X214185Y689488D01*
X214240Y689442D01*
X214289Y689389D01*
X214334Y689364D01*
X214375Y689331D01*
X214442Y689305D01*
X214504Y689271D01*
X214556Y689261D01*
X214604Y689243D01*
X214676Y689240D01*
X214746Y689227D01*
X214798Y689235D01*
X214850Y689232D01*
X214919Y689252D01*
X214990Y689263D01*
X215036Y689286D01*
X215086Y689301D01*
X215145Y689342D01*
X215209Y689374D01*
X215245Y689411D01*
X215288Y689441D01*
X215331Y689499D01*
X215381Y689550D01*
X215416Y689613D01*
X215435Y689639D01*
X215442Y689661D01*
X215462Y689697D01*
X217402Y694381D01*
X220919Y697898D01*
X225513Y699801D01*
X230487Y699801D01*
X235081Y697898D01*
X238598Y694381D01*
X240501Y689787D01*
X240501Y684813D01*
X240483Y684770D01*
X240462Y684681D01*
X240434Y684595D01*
X240434Y684562D01*
X240427Y684531D01*
X240435Y684440D01*
X240436Y684349D01*
X240448Y684309D01*
X240450Y684286D01*
X240463Y684256D01*
X240483Y684188D01*
X241682Y681292D01*
X241695Y681211D01*
X241703Y681120D01*
X241715Y681091D01*
X241720Y681059D01*
X241763Y680978D01*
X241799Y680894D01*
X241825Y680862D01*
X241836Y680841D01*
X241859Y680819D01*
X241904Y680763D01*
X248963Y673704D01*
X249037Y673651D01*
X249106Y673591D01*
X249137Y673579D01*
X249163Y673560D01*
X249250Y673533D01*
X249335Y673499D01*
X249376Y673495D01*
X249398Y673488D01*
X249430Y673489D01*
X249501Y673481D01*
X364740Y673481D01*
X364811Y673492D01*
X364882Y673494D01*
X364931Y673512D01*
X364983Y673520D01*
X365046Y673554D01*
X365113Y673579D01*
X365154Y673611D01*
X365200Y673636D01*
X365249Y673687D01*
X365305Y673732D01*
X365334Y673776D01*
X365369Y673814D01*
X365400Y673879D01*
X365438Y673939D01*
X365451Y673990D01*
X365473Y674037D01*
X365481Y674108D01*
X365498Y674178D01*
X365494Y674230D01*
X365500Y674281D01*
X365485Y674352D01*
X365479Y674423D01*
X365459Y674471D01*
X365448Y674522D01*
X365411Y674583D01*
X365383Y674649D01*
X365338Y674705D01*
X365322Y674733D01*
X365304Y674748D01*
X365278Y674780D01*
X365060Y674998D01*
X362550Y677509D01*
X362534Y677520D01*
X362521Y677536D01*
X362434Y677592D01*
X362350Y677652D01*
X362331Y677658D01*
X362314Y677669D01*
X362214Y677694D01*
X362115Y677725D01*
X362095Y677724D01*
X362075Y677729D01*
X361972Y677721D01*
X361869Y677718D01*
X361850Y677711D01*
X361830Y677710D01*
X361735Y677669D01*
X361638Y677634D01*
X361622Y677621D01*
X361604Y677613D01*
X361536Y677559D01*
X357288Y675799D01*
X352712Y675799D01*
X348485Y677550D01*
X345250Y680785D01*
X343499Y685012D01*
X343499Y689588D01*
X345250Y693815D01*
X348485Y697050D01*
X352712Y698801D01*
X357288Y698801D01*
X361515Y697050D01*
X364750Y693815D01*
X366501Y689588D01*
X366501Y686716D01*
X366515Y686626D01*
X366523Y686535D01*
X366535Y686505D01*
X366540Y686473D01*
X366583Y686393D01*
X366619Y686309D01*
X366645Y686277D01*
X366656Y686256D01*
X366679Y686234D01*
X366724Y686178D01*
X371482Y681420D01*
X371556Y681367D01*
X371625Y681307D01*
X371655Y681295D01*
X371682Y681276D01*
X371769Y681249D01*
X371853Y681215D01*
X371894Y681211D01*
X371917Y681204D01*
X371949Y681205D01*
X372020Y681197D01*
X375769Y681197D01*
X449549Y607417D01*
X449549Y596281D01*
X449563Y596191D01*
X449571Y596100D01*
X449583Y596070D01*
X449588Y596038D01*
X449631Y595957D01*
X449667Y595873D01*
X449693Y595841D01*
X449704Y595821D01*
X449727Y595798D01*
X449772Y595742D01*
X449910Y595604D01*
X450791Y593478D01*
X450791Y591178D01*
X449910Y589052D01*
X448284Y587426D01*
X446274Y586593D01*
X446235Y586569D01*
X446192Y586553D01*
X446131Y586505D01*
X446065Y586464D01*
X446036Y586428D01*
X446000Y586400D01*
X445958Y586334D01*
X445908Y586274D01*
X445892Y586231D01*
X445867Y586193D01*
X445848Y586117D01*
X445820Y586045D01*
X445818Y585999D01*
X445807Y585954D01*
X445813Y585877D01*
X445810Y585799D01*
X445822Y585755D01*
X445826Y585709D01*
X445856Y585637D01*
X445878Y585563D01*
X445904Y585525D01*
X445922Y585483D01*
X446008Y585376D01*
X446018Y585360D01*
X446022Y585357D01*
X446027Y585352D01*
X459532Y571847D01*
X459627Y571778D01*
X459721Y571708D01*
X459727Y571706D01*
X459732Y571703D01*
X459843Y571669D01*
X459955Y571632D01*
X459961Y571632D01*
X459967Y571631D01*
X460084Y571634D01*
X460201Y571635D01*
X460208Y571637D01*
X460213Y571637D01*
X460223Y571641D01*
X479537Y571641D01*
X483411Y570036D01*
X486376Y567071D01*
X487981Y563197D01*
X487981Y559003D01*
X486376Y555129D01*
X483411Y552164D01*
X479537Y550559D01*
X460263Y550559D01*
G37*
%LPD*%
%LPC*%
G36*
X169484Y499395D02*
X169484Y499395D01*
X166322Y500705D01*
X163901Y503126D01*
X162591Y506288D01*
X162591Y509712D01*
X163901Y512874D01*
X166322Y515295D01*
X169484Y516605D01*
X172498Y516605D01*
X172518Y516608D01*
X172537Y516606D01*
X172639Y516628D01*
X172741Y516644D01*
X172758Y516654D01*
X172778Y516658D01*
X172867Y516711D01*
X172958Y516760D01*
X172972Y516774D01*
X172989Y516784D01*
X173056Y516863D01*
X173128Y516938D01*
X173136Y516956D01*
X173149Y516971D01*
X173188Y517067D01*
X173231Y517161D01*
X173233Y517181D01*
X173241Y517199D01*
X173259Y517366D01*
X173259Y519025D01*
X226719Y572485D01*
X263996Y572485D01*
X264086Y572499D01*
X264177Y572507D01*
X264207Y572519D01*
X264239Y572524D01*
X264319Y572567D01*
X264403Y572603D01*
X264435Y572629D01*
X264456Y572640D01*
X264478Y572663D01*
X264534Y572708D01*
X276668Y584842D01*
X276721Y584916D01*
X276781Y584985D01*
X276793Y585015D01*
X276812Y585042D01*
X276839Y585129D01*
X276873Y585213D01*
X276877Y585254D01*
X276884Y585277D01*
X276883Y585309D01*
X276891Y585380D01*
X276891Y592177D01*
X307999Y623285D01*
X322924Y623285D01*
X323014Y623299D01*
X323105Y623307D01*
X323135Y623319D01*
X323167Y623324D01*
X323247Y623367D01*
X323331Y623403D01*
X323363Y623429D01*
X323384Y623440D01*
X323406Y623463D01*
X323462Y623508D01*
X331426Y631471D01*
X331494Y631566D01*
X331564Y631660D01*
X331566Y631666D01*
X331569Y631671D01*
X331604Y631782D01*
X331640Y631894D01*
X331640Y631900D01*
X331642Y631906D01*
X331639Y632023D01*
X331638Y632140D01*
X331636Y632147D01*
X331635Y632152D01*
X331629Y632170D01*
X331591Y632301D01*
X330799Y634212D01*
X330799Y638788D01*
X332550Y643015D01*
X335785Y646250D01*
X340012Y648001D01*
X344588Y648001D01*
X348815Y646250D01*
X352050Y643015D01*
X353801Y638788D01*
X353801Y634212D01*
X352050Y629985D01*
X348815Y626750D01*
X344588Y624999D01*
X340012Y624999D01*
X338916Y625454D01*
X338802Y625480D01*
X338689Y625509D01*
X338682Y625508D01*
X338676Y625510D01*
X338560Y625499D01*
X338443Y625490D01*
X338438Y625487D01*
X338431Y625487D01*
X338324Y625439D01*
X338217Y625393D01*
X338211Y625389D01*
X338207Y625387D01*
X338193Y625374D01*
X338086Y625289D01*
X327001Y614203D01*
X312076Y614203D01*
X311986Y614189D01*
X311895Y614181D01*
X311865Y614169D01*
X311833Y614164D01*
X311753Y614121D01*
X311669Y614085D01*
X311637Y614059D01*
X311616Y614048D01*
X311604Y614035D01*
X311602Y614035D01*
X311591Y614023D01*
X311538Y613980D01*
X286196Y588638D01*
X286143Y588564D01*
X286083Y588495D01*
X286071Y588465D01*
X286052Y588438D01*
X286025Y588351D01*
X285991Y588267D01*
X285987Y588226D01*
X285980Y588203D01*
X285981Y588171D01*
X285973Y588100D01*
X285973Y581303D01*
X285792Y581122D01*
X285750Y581064D01*
X285701Y581012D01*
X285679Y580965D01*
X285648Y580923D01*
X285627Y580854D01*
X285597Y580789D01*
X285591Y580737D01*
X285576Y580687D01*
X285578Y580616D01*
X285570Y580545D01*
X285581Y580494D01*
X285582Y580442D01*
X285607Y580374D01*
X285622Y580304D01*
X285649Y580259D01*
X285667Y580211D01*
X285712Y580155D01*
X285748Y580093D01*
X285788Y580059D01*
X285820Y580019D01*
X285881Y579980D01*
X285935Y579933D01*
X285984Y579914D01*
X286027Y579886D01*
X286097Y579868D01*
X286163Y579841D01*
X286235Y579833D01*
X286266Y579825D01*
X286289Y579827D01*
X286330Y579823D01*
X286646Y579823D01*
X288530Y579043D01*
X288599Y579026D01*
X288666Y579001D01*
X288718Y578998D01*
X288769Y578986D01*
X288840Y578993D01*
X288912Y578990D01*
X288962Y579005D01*
X289014Y579010D01*
X289079Y579039D01*
X289148Y579059D01*
X289191Y579088D01*
X289239Y579110D01*
X289291Y579158D01*
X289350Y579199D01*
X289381Y579241D01*
X289420Y579276D01*
X289454Y579339D01*
X289497Y579396D01*
X289513Y579446D01*
X289538Y579491D01*
X289551Y579562D01*
X289573Y579630D01*
X289573Y579682D01*
X289582Y579734D01*
X289572Y579805D01*
X289571Y579876D01*
X289551Y579945D01*
X289546Y579977D01*
X289536Y579998D01*
X289524Y580037D01*
X288591Y582290D01*
X288591Y586110D01*
X290054Y589641D01*
X292755Y592342D01*
X296286Y593805D01*
X313314Y593805D01*
X316845Y592342D01*
X319546Y589641D01*
X321009Y586110D01*
X321009Y582290D01*
X319546Y578759D01*
X316845Y576058D01*
X313314Y574595D01*
X296286Y574595D01*
X292755Y576057D01*
X292328Y576485D01*
X292248Y576542D01*
X292173Y576604D01*
X292149Y576614D01*
X292128Y576629D01*
X292035Y576658D01*
X291944Y576692D01*
X291918Y576694D01*
X291893Y576701D01*
X291795Y576699D01*
X291698Y576703D01*
X291673Y576696D01*
X291647Y576695D01*
X291555Y576661D01*
X291462Y576634D01*
X291440Y576619D01*
X291416Y576610D01*
X291340Y576550D01*
X291260Y576494D01*
X291244Y576473D01*
X291224Y576457D01*
X291171Y576375D01*
X291113Y576297D01*
X291105Y576272D01*
X291091Y576250D01*
X291067Y576156D01*
X291037Y576063D01*
X291037Y576037D01*
X291031Y576011D01*
X291038Y575914D01*
X291039Y575817D01*
X291048Y575786D01*
X291050Y575766D01*
X291063Y575736D01*
X291086Y575656D01*
X291279Y575190D01*
X291279Y574994D01*
X291293Y574904D01*
X291301Y574813D01*
X291313Y574783D01*
X291318Y574751D01*
X291361Y574671D01*
X291397Y574587D01*
X291423Y574555D01*
X291434Y574534D01*
X291457Y574512D01*
X291502Y574456D01*
X293250Y572708D01*
X293324Y572655D01*
X293393Y572595D01*
X293423Y572583D01*
X293450Y572564D01*
X293537Y572537D01*
X293621Y572503D01*
X293662Y572499D01*
X293685Y572492D01*
X293717Y572493D01*
X293788Y572485D01*
X369673Y572485D01*
X385541Y556617D01*
X385541Y555466D01*
X385544Y555446D01*
X385542Y555427D01*
X385564Y555325D01*
X385580Y555223D01*
X385590Y555206D01*
X385594Y555186D01*
X385647Y555097D01*
X385696Y555006D01*
X385710Y554992D01*
X385720Y554975D01*
X385799Y554908D01*
X385874Y554836D01*
X385892Y554828D01*
X385907Y554815D01*
X386003Y554776D01*
X386097Y554733D01*
X386117Y554731D01*
X386135Y554723D01*
X386302Y554705D01*
X389316Y554705D01*
X392478Y553395D01*
X394899Y550974D01*
X396209Y547812D01*
X396209Y544388D01*
X394899Y541226D01*
X392478Y538805D01*
X389316Y537495D01*
X372684Y537495D01*
X369522Y538805D01*
X367101Y541226D01*
X365791Y544388D01*
X365791Y547812D01*
X367101Y550974D01*
X369522Y553395D01*
X372684Y554705D01*
X372772Y554705D01*
X372843Y554716D01*
X372914Y554718D01*
X372963Y554736D01*
X373015Y554744D01*
X373078Y554778D01*
X373145Y554803D01*
X373186Y554835D01*
X373232Y554860D01*
X373281Y554912D01*
X373337Y554956D01*
X373366Y555000D01*
X373401Y555038D01*
X373432Y555103D01*
X373470Y555163D01*
X373483Y555214D01*
X373505Y555261D01*
X373513Y555332D01*
X373530Y555402D01*
X373526Y555454D01*
X373532Y555505D01*
X373517Y555576D01*
X373511Y555647D01*
X373491Y555695D01*
X373480Y555746D01*
X373443Y555807D01*
X373415Y555873D01*
X373370Y555929D01*
X373354Y555957D01*
X373336Y555972D01*
X373310Y556004D01*
X366134Y563180D01*
X366060Y563233D01*
X365991Y563293D01*
X365961Y563305D01*
X365934Y563324D01*
X365847Y563351D01*
X365763Y563385D01*
X365722Y563389D01*
X365699Y563396D01*
X365667Y563395D01*
X365596Y563403D01*
X289711Y563403D01*
X285080Y568034D01*
X285006Y568087D01*
X284937Y568147D01*
X284907Y568159D01*
X284880Y568178D01*
X284793Y568205D01*
X284709Y568239D01*
X284668Y568243D01*
X284645Y568250D01*
X284613Y568249D01*
X284542Y568257D01*
X284346Y568257D01*
X282220Y569138D01*
X280594Y570764D01*
X279713Y572890D01*
X279713Y573206D01*
X279702Y573277D01*
X279700Y573348D01*
X279682Y573397D01*
X279674Y573449D01*
X279640Y573512D01*
X279615Y573579D01*
X279583Y573620D01*
X279558Y573666D01*
X279506Y573715D01*
X279462Y573771D01*
X279418Y573800D01*
X279380Y573835D01*
X279315Y573866D01*
X279255Y573904D01*
X279204Y573917D01*
X279157Y573939D01*
X279086Y573947D01*
X279016Y573964D01*
X278964Y573960D01*
X278913Y573966D01*
X278842Y573951D01*
X278771Y573945D01*
X278723Y573925D01*
X278672Y573914D01*
X278611Y573877D01*
X278545Y573849D01*
X278489Y573804D01*
X278461Y573788D01*
X278446Y573770D01*
X278414Y573744D01*
X272644Y567974D01*
X272632Y567958D01*
X272617Y567946D01*
X272561Y567858D01*
X272500Y567775D01*
X272494Y567756D01*
X272484Y567739D01*
X272458Y567638D01*
X272428Y567539D01*
X272428Y567520D01*
X272424Y567500D01*
X272432Y567397D01*
X272434Y567294D01*
X272441Y567275D01*
X272443Y567255D01*
X272483Y567160D01*
X272519Y567063D01*
X272531Y567047D01*
X272539Y567029D01*
X272644Y566898D01*
X280893Y558649D01*
X280893Y546772D01*
X280907Y546682D01*
X280915Y546591D01*
X280927Y546561D01*
X280932Y546529D01*
X280975Y546449D01*
X281011Y546365D01*
X281037Y546333D01*
X281048Y546312D01*
X281071Y546290D01*
X281116Y546234D01*
X293250Y534100D01*
X293324Y534047D01*
X293393Y533987D01*
X293423Y533975D01*
X293450Y533956D01*
X293537Y533929D01*
X293621Y533895D01*
X293662Y533891D01*
X293685Y533884D01*
X293717Y533885D01*
X293788Y533877D01*
X370689Y533877D01*
X385541Y519025D01*
X385541Y517366D01*
X385544Y517346D01*
X385542Y517327D01*
X385564Y517225D01*
X385580Y517123D01*
X385590Y517106D01*
X385594Y517086D01*
X385647Y516997D01*
X385696Y516906D01*
X385710Y516892D01*
X385720Y516875D01*
X385799Y516808D01*
X385874Y516736D01*
X385892Y516728D01*
X385907Y516715D01*
X386003Y516676D01*
X386097Y516633D01*
X386117Y516631D01*
X386135Y516623D01*
X386302Y516605D01*
X389316Y516605D01*
X392478Y515295D01*
X394899Y512874D01*
X396209Y509712D01*
X396209Y506288D01*
X394899Y503126D01*
X392478Y500705D01*
X389316Y499395D01*
X372684Y499395D01*
X369522Y500705D01*
X367101Y503126D01*
X365791Y506288D01*
X365791Y509712D01*
X367101Y512874D01*
X369522Y515295D01*
X372684Y516605D01*
X373280Y516605D01*
X373351Y516616D01*
X373422Y516618D01*
X373471Y516636D01*
X373523Y516644D01*
X373586Y516678D01*
X373653Y516703D01*
X373694Y516735D01*
X373740Y516760D01*
X373789Y516812D01*
X373845Y516856D01*
X373874Y516900D01*
X373909Y516938D01*
X373940Y517003D01*
X373978Y517063D01*
X373991Y517114D01*
X374013Y517161D01*
X374021Y517232D01*
X374038Y517302D01*
X374034Y517354D01*
X374040Y517405D01*
X374025Y517476D01*
X374019Y517547D01*
X373999Y517595D01*
X373988Y517646D01*
X373951Y517707D01*
X373923Y517773D01*
X373878Y517829D01*
X373862Y517857D01*
X373844Y517872D01*
X373818Y517904D01*
X367150Y524572D01*
X367076Y524625D01*
X367007Y524685D01*
X366977Y524697D01*
X366950Y524716D01*
X366863Y524743D01*
X366779Y524777D01*
X366738Y524781D01*
X366715Y524788D01*
X366683Y524787D01*
X366612Y524795D01*
X289711Y524795D01*
X271811Y542695D01*
X271811Y554572D01*
X271797Y554662D01*
X271789Y554753D01*
X271777Y554783D01*
X271772Y554815D01*
X271729Y554895D01*
X271693Y554979D01*
X271667Y555011D01*
X271656Y555032D01*
X271633Y555054D01*
X271588Y555110D01*
X264882Y561816D01*
X264807Y561870D01*
X264737Y561930D01*
X264701Y561946D01*
X264683Y561960D01*
X264652Y561969D01*
X264585Y562000D01*
X263988Y562199D01*
X263596Y562982D01*
X263543Y563055D01*
X263497Y563133D01*
X263472Y563155D01*
X263452Y563182D01*
X263379Y563234D01*
X263310Y563293D01*
X263279Y563305D01*
X263252Y563325D01*
X263166Y563351D01*
X263082Y563385D01*
X263040Y563389D01*
X263017Y563396D01*
X262985Y563396D01*
X262915Y563403D01*
X230796Y563403D01*
X230706Y563389D01*
X230615Y563381D01*
X230585Y563369D01*
X230553Y563364D01*
X230473Y563321D01*
X230389Y563285D01*
X230357Y563259D01*
X230336Y563248D01*
X230314Y563225D01*
X230258Y563180D01*
X184982Y517904D01*
X184940Y517846D01*
X184891Y517794D01*
X184869Y517747D01*
X184838Y517705D01*
X184817Y517636D01*
X184787Y517571D01*
X184781Y517519D01*
X184766Y517469D01*
X184768Y517398D01*
X184760Y517327D01*
X184771Y517276D01*
X184772Y517224D01*
X184797Y517156D01*
X184812Y517086D01*
X184839Y517041D01*
X184857Y516993D01*
X184902Y516937D01*
X184938Y516875D01*
X184978Y516841D01*
X185010Y516801D01*
X185071Y516762D01*
X185125Y516715D01*
X185174Y516696D01*
X185217Y516668D01*
X185287Y516650D01*
X185353Y516623D01*
X185425Y516615D01*
X185456Y516607D01*
X185479Y516609D01*
X185520Y516605D01*
X186116Y516605D01*
X189278Y515295D01*
X191699Y512874D01*
X193009Y509712D01*
X193009Y506288D01*
X191699Y503126D01*
X189278Y500705D01*
X186116Y499395D01*
X169484Y499395D01*
G37*
%LPD*%
%LPC*%
G36*
X277696Y375135D02*
X277696Y375135D01*
X274548Y376439D01*
X272139Y378848D01*
X270835Y381996D01*
X270835Y385404D01*
X272139Y388552D01*
X274548Y390961D01*
X277696Y392265D01*
X281104Y392265D01*
X283881Y391114D01*
X283995Y391088D01*
X284108Y391059D01*
X284115Y391059D01*
X284121Y391058D01*
X284237Y391069D01*
X284354Y391078D01*
X284359Y391081D01*
X284366Y391081D01*
X284473Y391129D01*
X284580Y391174D01*
X284586Y391179D01*
X284590Y391181D01*
X284604Y391194D01*
X284711Y391279D01*
X286542Y393111D01*
X286595Y393185D01*
X286655Y393254D01*
X286667Y393284D01*
X286686Y393310D01*
X286713Y393398D01*
X286747Y393482D01*
X286751Y393523D01*
X286758Y393545D01*
X286757Y393578D01*
X286765Y393649D01*
X286765Y397115D01*
X286754Y397186D01*
X286752Y397258D01*
X286734Y397306D01*
X286726Y397358D01*
X286692Y397421D01*
X286667Y397489D01*
X286635Y397529D01*
X286610Y397575D01*
X286558Y397625D01*
X286514Y397681D01*
X286470Y397709D01*
X286432Y397745D01*
X286367Y397775D01*
X286307Y397814D01*
X286256Y397826D01*
X286209Y397848D01*
X286138Y397856D01*
X286068Y397874D01*
X286016Y397870D01*
X285965Y397875D01*
X285894Y397860D01*
X285823Y397854D01*
X285775Y397834D01*
X285724Y397823D01*
X285663Y397786D01*
X285597Y397758D01*
X285541Y397713D01*
X285513Y397697D01*
X285498Y397679D01*
X285466Y397653D01*
X284252Y396439D01*
X281104Y395135D01*
X277696Y395135D01*
X274548Y396439D01*
X272139Y398848D01*
X270835Y401996D01*
X270835Y405404D01*
X272139Y408552D01*
X274548Y410961D01*
X277696Y412265D01*
X281104Y412265D01*
X283681Y411197D01*
X283725Y411187D01*
X283767Y411167D01*
X283844Y411159D01*
X283920Y411141D01*
X283966Y411145D01*
X284011Y411140D01*
X284088Y411157D01*
X284165Y411164D01*
X284207Y411183D01*
X284252Y411193D01*
X284319Y411233D01*
X284390Y411264D01*
X284424Y411295D01*
X284463Y411319D01*
X284514Y411378D01*
X284571Y411431D01*
X284593Y411471D01*
X284623Y411506D01*
X284627Y411515D01*
X323118Y450007D01*
X323164Y450070D01*
X323185Y450093D01*
X323190Y450102D01*
X323231Y450150D01*
X323243Y450180D01*
X323262Y450206D01*
X323289Y450293D01*
X323323Y450378D01*
X323327Y450419D01*
X323334Y450441D01*
X323333Y450474D01*
X323341Y450545D01*
X323341Y472495D01*
X323327Y472585D01*
X323319Y472676D01*
X323307Y472705D01*
X323302Y472737D01*
X323259Y472818D01*
X323223Y472902D01*
X323197Y472934D01*
X323186Y472955D01*
X323163Y472977D01*
X323118Y473033D01*
X321359Y474792D01*
X321280Y474849D01*
X321205Y474911D01*
X321180Y474921D01*
X321159Y474936D01*
X321066Y474965D01*
X320975Y474999D01*
X320949Y475001D01*
X320924Y475008D01*
X320827Y475006D01*
X320729Y475010D01*
X320704Y475003D01*
X320678Y475002D01*
X320587Y474968D01*
X320493Y474941D01*
X320472Y474926D01*
X320447Y474917D01*
X320371Y474857D01*
X320291Y474801D01*
X320275Y474780D01*
X320255Y474764D01*
X320202Y474682D01*
X320144Y474604D01*
X320136Y474579D01*
X320122Y474557D01*
X320098Y474462D01*
X320068Y474370D01*
X320068Y474344D01*
X320062Y474318D01*
X320070Y474221D01*
X320071Y474124D01*
X320080Y474092D01*
X320081Y474073D01*
X320094Y474043D01*
X320117Y473963D01*
X321009Y471810D01*
X321009Y467990D01*
X319546Y464459D01*
X316845Y461758D01*
X313314Y460295D01*
X296286Y460295D01*
X292755Y461758D01*
X290054Y464459D01*
X288591Y467990D01*
X288591Y471810D01*
X290054Y475341D01*
X292755Y478042D01*
X296286Y479505D01*
X313314Y479505D01*
X316845Y478042D01*
X319530Y475357D01*
X319588Y475316D01*
X319640Y475266D01*
X319687Y475244D01*
X319729Y475214D01*
X319798Y475193D01*
X319863Y475163D01*
X319915Y475157D01*
X319965Y475141D01*
X320036Y475143D01*
X320107Y475135D01*
X320158Y475147D01*
X320210Y475148D01*
X320278Y475172D01*
X320348Y475188D01*
X320393Y475214D01*
X320441Y475232D01*
X320497Y475277D01*
X320559Y475314D01*
X320593Y475353D01*
X320633Y475386D01*
X320672Y475446D01*
X320719Y475501D01*
X320738Y475549D01*
X320766Y475593D01*
X320784Y475662D01*
X320811Y475729D01*
X320819Y475800D01*
X320827Y475831D01*
X320825Y475855D01*
X320829Y475896D01*
X320829Y479718D01*
X321935Y480824D01*
X321977Y480882D01*
X322026Y480934D01*
X322048Y480981D01*
X322078Y481023D01*
X322100Y481092D01*
X322130Y481157D01*
X322135Y481209D01*
X322151Y481259D01*
X322149Y481330D01*
X322157Y481401D01*
X322146Y481452D01*
X322144Y481504D01*
X322120Y481572D01*
X322105Y481642D01*
X322078Y481687D01*
X322060Y481735D01*
X322015Y481791D01*
X321978Y481853D01*
X321939Y481887D01*
X321906Y481927D01*
X321846Y481966D01*
X321791Y482013D01*
X321743Y482032D01*
X321699Y482060D01*
X321630Y482078D01*
X321563Y482105D01*
X321492Y482113D01*
X321461Y482121D01*
X321438Y482119D01*
X321397Y482123D01*
X188124Y482123D01*
X188034Y482109D01*
X187943Y482101D01*
X187913Y482089D01*
X187881Y482084D01*
X187801Y482041D01*
X187717Y482005D01*
X187685Y481979D01*
X187664Y481968D01*
X187642Y481945D01*
X187586Y481900D01*
X185490Y479804D01*
X185448Y479746D01*
X185399Y479694D01*
X185377Y479647D01*
X185346Y479605D01*
X185325Y479536D01*
X185295Y479471D01*
X185289Y479419D01*
X185274Y479369D01*
X185276Y479298D01*
X185268Y479227D01*
X185279Y479176D01*
X185280Y479124D01*
X185305Y479056D01*
X185320Y478986D01*
X185347Y478941D01*
X185365Y478893D01*
X185410Y478837D01*
X185446Y478775D01*
X185486Y478741D01*
X185518Y478701D01*
X185579Y478662D01*
X185633Y478615D01*
X185682Y478596D01*
X185725Y478568D01*
X185795Y478550D01*
X185861Y478523D01*
X185933Y478515D01*
X185964Y478507D01*
X185987Y478509D01*
X186028Y478505D01*
X186116Y478505D01*
X189278Y477195D01*
X191699Y474774D01*
X193009Y471612D01*
X193009Y468188D01*
X191699Y465026D01*
X189278Y462605D01*
X186116Y461295D01*
X169484Y461295D01*
X166322Y462605D01*
X163901Y465026D01*
X162591Y468188D01*
X162591Y471612D01*
X163901Y474774D01*
X166322Y477195D01*
X169484Y478505D01*
X172498Y478505D01*
X172518Y478508D01*
X172537Y478506D01*
X172639Y478528D01*
X172741Y478544D01*
X172758Y478554D01*
X172778Y478558D01*
X172867Y478611D01*
X172958Y478660D01*
X172972Y478674D01*
X172989Y478684D01*
X173056Y478763D01*
X173128Y478838D01*
X173136Y478856D01*
X173149Y478871D01*
X173188Y478967D01*
X173231Y479061D01*
X173233Y479081D01*
X173241Y479099D01*
X173259Y479266D01*
X173259Y480417D01*
X184047Y491205D01*
X359513Y491205D01*
X371991Y478726D01*
X372086Y478658D01*
X372098Y478649D01*
X372138Y478615D01*
X372153Y478609D01*
X372184Y478586D01*
X372188Y478585D01*
X372191Y478583D01*
X372304Y478548D01*
X372308Y478547D01*
X372366Y478523D01*
X372390Y478521D01*
X372419Y478511D01*
X372423Y478511D01*
X372426Y478510D01*
X372472Y478512D01*
X372533Y478505D01*
X389467Y478505D01*
X389537Y478516D01*
X389651Y478525D01*
X389655Y478527D01*
X389659Y478527D01*
X389692Y478542D01*
X389710Y478544D01*
X389762Y478572D01*
X389769Y478575D01*
X389878Y478621D01*
X389881Y478624D01*
X389884Y478625D01*
X389894Y478634D01*
X389922Y478657D01*
X389927Y478660D01*
X389933Y478666D01*
X390009Y478726D01*
X396391Y485109D01*
X425540Y485109D01*
X425630Y485123D01*
X425721Y485131D01*
X425751Y485143D01*
X425783Y485148D01*
X425863Y485191D01*
X425947Y485227D01*
X425979Y485253D01*
X426000Y485264D01*
X426022Y485287D01*
X426078Y485332D01*
X452321Y511574D01*
X452338Y511578D01*
X452427Y511631D01*
X452518Y511680D01*
X452532Y511694D01*
X452549Y511704D01*
X452616Y511783D01*
X452688Y511858D01*
X452696Y511876D01*
X452709Y511891D01*
X452748Y511987D01*
X452791Y512081D01*
X452793Y512101D01*
X452801Y512119D01*
X452806Y512166D01*
X454272Y515704D01*
X456956Y518388D01*
X460462Y519841D01*
X479338Y519841D01*
X482844Y518388D01*
X485528Y515704D01*
X486981Y512198D01*
X486981Y508402D01*
X485528Y504896D01*
X482844Y502212D01*
X479338Y500759D01*
X460462Y500759D01*
X456956Y502212D01*
X456947Y502220D01*
X456873Y502273D01*
X456804Y502333D01*
X456773Y502345D01*
X456747Y502364D01*
X456660Y502391D01*
X456575Y502425D01*
X456535Y502429D01*
X456512Y502436D01*
X456480Y502435D01*
X456409Y502443D01*
X456348Y502443D01*
X456258Y502429D01*
X456167Y502421D01*
X456137Y502409D01*
X456105Y502404D01*
X456025Y502361D01*
X455941Y502325D01*
X455909Y502299D01*
X455888Y502288D01*
X455866Y502265D01*
X455810Y502220D01*
X429617Y476027D01*
X400468Y476027D01*
X400378Y476013D01*
X400287Y476005D01*
X400257Y475993D01*
X400225Y475988D01*
X400145Y475945D01*
X400061Y475909D01*
X400029Y475883D01*
X400008Y475872D01*
X399986Y475849D01*
X399930Y475804D01*
X396430Y472305D01*
X396361Y472209D01*
X396353Y472198D01*
X396319Y472158D01*
X396313Y472143D01*
X396290Y472112D01*
X396289Y472108D01*
X396287Y472105D01*
X396252Y471992D01*
X396251Y471988D01*
X396227Y471930D01*
X396225Y471906D01*
X396215Y471877D01*
X396215Y471873D01*
X396214Y471870D01*
X396216Y471824D01*
X396209Y471763D01*
X396209Y468188D01*
X394899Y465026D01*
X392478Y462605D01*
X389316Y461295D01*
X372684Y461295D01*
X369522Y462605D01*
X367101Y465026D01*
X365791Y468188D01*
X365791Y471763D01*
X365780Y471833D01*
X365771Y471947D01*
X365769Y471951D01*
X365769Y471955D01*
X365754Y471988D01*
X365752Y472006D01*
X365724Y472058D01*
X365721Y472064D01*
X365675Y472174D01*
X365672Y472177D01*
X365671Y472180D01*
X365662Y472190D01*
X365639Y472218D01*
X365636Y472223D01*
X365630Y472229D01*
X365570Y472305D01*
X355974Y481900D01*
X355900Y481953D01*
X355831Y482013D01*
X355801Y482025D01*
X355774Y482044D01*
X355687Y482071D01*
X355603Y482105D01*
X355562Y482109D01*
X355539Y482116D01*
X355507Y482115D01*
X355436Y482123D01*
X330875Y482123D01*
X330805Y482112D01*
X330733Y482110D01*
X330684Y482092D01*
X330633Y482084D01*
X330569Y482050D01*
X330502Y482025D01*
X330461Y481993D01*
X330415Y481968D01*
X330366Y481916D01*
X330310Y481872D01*
X330282Y481828D01*
X330246Y481790D01*
X330216Y481725D01*
X330177Y481665D01*
X330164Y481614D01*
X330142Y481567D01*
X330134Y481496D01*
X330117Y481426D01*
X330121Y481374D01*
X330115Y481323D01*
X330130Y481252D01*
X330136Y481181D01*
X330156Y481133D01*
X330167Y481082D01*
X330204Y481021D01*
X330232Y480955D01*
X330277Y480899D01*
X330294Y480871D01*
X330311Y480856D01*
X330337Y480824D01*
X331443Y479718D01*
X331443Y475322D01*
X329154Y473033D01*
X329101Y472959D01*
X329041Y472889D01*
X329029Y472859D01*
X329010Y472833D01*
X328983Y472746D01*
X328949Y472661D01*
X328945Y472620D01*
X328938Y472598D01*
X328939Y472566D01*
X328931Y472495D01*
X328931Y447914D01*
X292019Y411002D01*
X292007Y410986D01*
X291991Y410974D01*
X291935Y410886D01*
X291875Y410803D01*
X291869Y410784D01*
X291858Y410767D01*
X291833Y410666D01*
X291803Y410567D01*
X291803Y410548D01*
X291798Y410528D01*
X291806Y410425D01*
X291809Y410322D01*
X291816Y410303D01*
X291818Y410283D01*
X291858Y410188D01*
X291894Y410091D01*
X291906Y410075D01*
X291914Y410057D01*
X292019Y409926D01*
X292228Y409717D01*
X292244Y409705D01*
X292256Y409689D01*
X292344Y409633D01*
X292427Y409573D01*
X292446Y409567D01*
X292463Y409556D01*
X292564Y409531D01*
X292663Y409501D01*
X292682Y409501D01*
X292702Y409496D01*
X292805Y409504D01*
X292908Y409507D01*
X292927Y409514D01*
X292947Y409516D01*
X293042Y409556D01*
X293139Y409592D01*
X293155Y409604D01*
X293173Y409612D01*
X293304Y409717D01*
X294548Y410961D01*
X297696Y412265D01*
X301104Y412265D01*
X304252Y410961D01*
X306661Y408552D01*
X307965Y405404D01*
X307965Y401996D01*
X306661Y398848D01*
X304252Y396439D01*
X301104Y395135D01*
X297696Y395135D01*
X294548Y396439D01*
X293654Y397333D01*
X293596Y397375D01*
X293544Y397425D01*
X293497Y397447D01*
X293455Y397477D01*
X293386Y397498D01*
X293321Y397528D01*
X293269Y397534D01*
X293219Y397549D01*
X293148Y397547D01*
X293077Y397555D01*
X293026Y397544D01*
X292974Y397543D01*
X292906Y397518D01*
X292836Y397503D01*
X292791Y397476D01*
X292743Y397458D01*
X292687Y397414D01*
X292625Y397377D01*
X292591Y397337D01*
X292551Y397305D01*
X292512Y397244D01*
X292465Y397190D01*
X292446Y397142D01*
X292418Y397098D01*
X292400Y397028D01*
X292373Y396962D01*
X292365Y396891D01*
X292357Y396859D01*
X292359Y396836D01*
X292355Y396795D01*
X292355Y391018D01*
X290495Y389158D01*
X287966Y386629D01*
X287898Y386535D01*
X287828Y386441D01*
X287826Y386435D01*
X287822Y386430D01*
X287788Y386318D01*
X287752Y386207D01*
X287752Y386200D01*
X287750Y386195D01*
X287753Y386078D01*
X287754Y385961D01*
X287756Y385954D01*
X287756Y385949D01*
X287762Y385931D01*
X287801Y385800D01*
X287965Y385404D01*
X287965Y381996D01*
X286661Y378848D01*
X284252Y376439D01*
X281104Y375135D01*
X277696Y375135D01*
G37*
%LPD*%
%LPC*%
G36*
X219399Y383699D02*
X219399Y383699D01*
X219399Y384462D01*
X219396Y384482D01*
X219398Y384501D01*
X219376Y384603D01*
X219359Y384705D01*
X219350Y384722D01*
X219346Y384742D01*
X219293Y384831D01*
X219244Y384922D01*
X219230Y384936D01*
X219220Y384953D01*
X219141Y385020D01*
X219066Y385091D01*
X219048Y385100D01*
X219033Y385113D01*
X218937Y385152D01*
X218843Y385195D01*
X218823Y385197D01*
X218805Y385205D01*
X218638Y385223D01*
X209941Y385223D01*
X210055Y385943D01*
X210521Y387378D01*
X211206Y388721D01*
X212092Y389942D01*
X213158Y391008D01*
X214379Y391894D01*
X215722Y392579D01*
X216163Y392722D01*
X216253Y392769D01*
X216346Y392810D01*
X216362Y392825D01*
X216382Y392835D01*
X216452Y392908D01*
X216527Y392976D01*
X216538Y392996D01*
X216553Y393011D01*
X216597Y393103D01*
X216646Y393192D01*
X216650Y393214D01*
X216659Y393233D01*
X216671Y393334D01*
X216689Y393434D01*
X216686Y393456D01*
X216689Y393478D01*
X216668Y393577D01*
X216654Y393677D01*
X216643Y393697D01*
X216639Y393719D01*
X216588Y393806D01*
X216542Y393896D01*
X216526Y393912D01*
X216515Y393931D01*
X216439Y393998D01*
X216366Y394069D01*
X216342Y394082D01*
X216330Y394093D01*
X216300Y394105D01*
X216219Y394149D01*
X213712Y395188D01*
X210888Y398012D01*
X209359Y401703D01*
X209359Y405697D01*
X210888Y409388D01*
X213712Y412212D01*
X217403Y413741D01*
X221397Y413741D01*
X225088Y412212D01*
X227912Y409388D01*
X229495Y405565D01*
X229533Y405504D01*
X229562Y405439D01*
X229598Y405400D01*
X229625Y405356D01*
X229680Y405310D01*
X229729Y405257D01*
X229775Y405232D01*
X229815Y405199D01*
X229881Y405173D01*
X229944Y405139D01*
X229996Y405130D01*
X230044Y405111D01*
X230116Y405108D01*
X230186Y405095D01*
X230238Y405103D01*
X230290Y405101D01*
X230359Y405121D01*
X230430Y405131D01*
X230476Y405155D01*
X230526Y405169D01*
X230585Y405210D01*
X230649Y405242D01*
X230685Y405280D01*
X230728Y405309D01*
X230771Y405367D01*
X230821Y405418D01*
X230856Y405481D01*
X230875Y405507D01*
X230882Y405529D01*
X230902Y405565D01*
X232139Y408552D01*
X232367Y408780D01*
X232379Y408796D01*
X232395Y408808D01*
X232451Y408896D01*
X232511Y408979D01*
X232517Y408998D01*
X232528Y409015D01*
X232553Y409116D01*
X232583Y409215D01*
X232583Y409234D01*
X232588Y409254D01*
X232580Y409357D01*
X232577Y409460D01*
X232570Y409479D01*
X232568Y409499D01*
X232528Y409594D01*
X232492Y409691D01*
X232480Y409707D01*
X232472Y409725D01*
X232367Y409856D01*
X189057Y453166D01*
X188983Y453219D01*
X188914Y453279D01*
X188884Y453291D01*
X188858Y453310D01*
X188771Y453337D01*
X188686Y453371D01*
X188645Y453375D01*
X188623Y453382D01*
X188590Y453381D01*
X188519Y453389D01*
X126858Y453389D01*
X102842Y477406D01*
X102826Y477417D01*
X102813Y477433D01*
X102726Y477489D01*
X102642Y477549D01*
X102623Y477555D01*
X102606Y477566D01*
X102506Y477591D01*
X102407Y477622D01*
X102387Y477621D01*
X102368Y477626D01*
X102265Y477618D01*
X102161Y477615D01*
X102142Y477608D01*
X102123Y477607D01*
X102028Y477567D01*
X101930Y477531D01*
X101914Y477518D01*
X101896Y477511D01*
X101765Y477406D01*
X101575Y477215D01*
X98243Y475835D01*
X79557Y475835D01*
X76225Y477215D01*
X73675Y479765D01*
X72295Y483097D01*
X72295Y486703D01*
X73675Y490035D01*
X76225Y492585D01*
X79557Y493965D01*
X98243Y493965D01*
X101575Y492585D01*
X104125Y490035D01*
X105505Y486703D01*
X105505Y482963D01*
X105519Y482873D01*
X105527Y482782D01*
X105539Y482752D01*
X105544Y482720D01*
X105587Y482639D01*
X105623Y482556D01*
X105649Y482523D01*
X105660Y482503D01*
X105683Y482481D01*
X105728Y482425D01*
X128951Y459202D01*
X129025Y459149D01*
X129094Y459089D01*
X129124Y459077D01*
X129150Y459058D01*
X129237Y459031D01*
X129322Y458997D01*
X129363Y458993D01*
X129385Y458986D01*
X129418Y458987D01*
X129489Y458979D01*
X191150Y458979D01*
X193010Y457119D01*
X237641Y412488D01*
X237715Y412435D01*
X237784Y412375D01*
X237814Y412363D01*
X237840Y412344D01*
X237927Y412317D01*
X238012Y412283D01*
X238053Y412279D01*
X238075Y412272D01*
X238108Y412273D01*
X238179Y412265D01*
X241104Y412265D01*
X244252Y410961D01*
X246661Y408552D01*
X247965Y405404D01*
X247965Y401996D01*
X246661Y398848D01*
X244252Y396439D01*
X241104Y395135D01*
X237696Y395135D01*
X234548Y396439D01*
X232139Y398848D01*
X230902Y401835D01*
X230864Y401896D01*
X230835Y401961D01*
X230800Y402000D01*
X230772Y402044D01*
X230717Y402090D01*
X230669Y402143D01*
X230623Y402168D01*
X230583Y402201D01*
X230516Y402227D01*
X230453Y402261D01*
X230402Y402270D01*
X230353Y402289D01*
X230282Y402292D01*
X230211Y402305D01*
X230160Y402297D01*
X230108Y402299D01*
X230039Y402279D01*
X229968Y402269D01*
X229921Y402245D01*
X229871Y402231D01*
X229813Y402190D01*
X229749Y402158D01*
X229712Y402120D01*
X229669Y402091D01*
X229627Y402033D01*
X229576Y401982D01*
X229542Y401919D01*
X229523Y401893D01*
X229515Y401871D01*
X229495Y401835D01*
X227912Y398012D01*
X225088Y395188D01*
X222581Y394149D01*
X222495Y394096D01*
X222405Y394048D01*
X222390Y394031D01*
X222371Y394020D01*
X222307Y393942D01*
X222238Y393868D01*
X222229Y393847D01*
X222215Y393830D01*
X222178Y393735D01*
X222137Y393643D01*
X222134Y393621D01*
X222126Y393601D01*
X222122Y393500D01*
X222112Y393399D01*
X222117Y393377D01*
X222116Y393355D01*
X222144Y393258D01*
X222167Y393159D01*
X222178Y393140D01*
X222185Y393119D01*
X222242Y393036D01*
X222295Y392949D01*
X222312Y392935D01*
X222325Y392917D01*
X222406Y392856D01*
X222484Y392791D01*
X222509Y392780D01*
X222522Y392770D01*
X222553Y392760D01*
X222637Y392722D01*
X223078Y392579D01*
X224421Y391894D01*
X225642Y391008D01*
X226708Y389942D01*
X227594Y388721D01*
X228279Y387378D01*
X228745Y385943D01*
X228859Y385223D01*
X220162Y385223D01*
X220142Y385220D01*
X220123Y385222D01*
X220021Y385200D01*
X219919Y385183D01*
X219902Y385174D01*
X219882Y385170D01*
X219793Y385117D01*
X219702Y385068D01*
X219688Y385054D01*
X219671Y385044D01*
X219604Y384965D01*
X219533Y384890D01*
X219524Y384872D01*
X219511Y384857D01*
X219473Y384761D01*
X219429Y384667D01*
X219427Y384647D01*
X219419Y384629D01*
X219401Y384462D01*
X219401Y383699D01*
X219399Y383699D01*
G37*
%LPD*%
%LPC*%
G36*
X77909Y660080D02*
X77909Y660080D01*
X69386Y664324D01*
X62971Y671360D01*
X59532Y680239D01*
X59532Y689761D01*
X62971Y698640D01*
X69386Y705676D01*
X77909Y709920D01*
X87391Y710799D01*
X96549Y708193D01*
X104147Y702455D01*
X109160Y694360D01*
X110910Y685000D01*
X109160Y675640D01*
X104147Y667545D01*
X96549Y661807D01*
X87391Y659201D01*
X77909Y660080D01*
G37*
%LPD*%
%LPC*%
G36*
X462909Y660080D02*
X462909Y660080D01*
X454386Y664324D01*
X447971Y671360D01*
X444532Y680239D01*
X444532Y689761D01*
X447971Y698640D01*
X454386Y705676D01*
X462909Y709920D01*
X472391Y710799D01*
X481549Y708193D01*
X489147Y702455D01*
X494160Y694360D01*
X495910Y685000D01*
X494160Y675640D01*
X489147Y667545D01*
X481549Y661807D01*
X472391Y659201D01*
X462909Y660080D01*
G37*
%LPD*%
%LPC*%
G36*
X462909Y390080D02*
X462909Y390080D01*
X454386Y394324D01*
X447971Y401360D01*
X444532Y410239D01*
X444532Y419761D01*
X447971Y428640D01*
X454386Y435676D01*
X462909Y439920D01*
X472391Y440799D01*
X481549Y438193D01*
X489147Y432455D01*
X494160Y424360D01*
X495910Y415000D01*
X494160Y405640D01*
X489147Y397545D01*
X481549Y391807D01*
X472391Y389201D01*
X462909Y390080D01*
G37*
%LPD*%
%LPC*%
G36*
X77909Y390080D02*
X77909Y390080D01*
X69386Y394324D01*
X62971Y401360D01*
X59532Y410239D01*
X59532Y419761D01*
X62971Y428640D01*
X69386Y435676D01*
X77909Y439920D01*
X87391Y440799D01*
X96549Y438193D01*
X104147Y432455D01*
X109160Y424360D01*
X110910Y415000D01*
X109160Y405640D01*
X104147Y397545D01*
X96549Y391807D01*
X87391Y389201D01*
X77909Y390080D01*
G37*
%LPD*%
%LPC*%
G36*
X169484Y537495D02*
X169484Y537495D01*
X166322Y538805D01*
X163901Y541226D01*
X162591Y544388D01*
X162591Y547963D01*
X162588Y547982D01*
X162590Y548000D01*
X162578Y548057D01*
X162571Y548147D01*
X162569Y548151D01*
X162569Y548155D01*
X162554Y548188D01*
X162552Y548206D01*
X162541Y548225D01*
X162538Y548241D01*
X162515Y548280D01*
X162475Y548374D01*
X162472Y548377D01*
X162471Y548380D01*
X162462Y548389D01*
X162439Y548418D01*
X162436Y548423D01*
X162430Y548429D01*
X162370Y548505D01*
X158870Y552004D01*
X158796Y552057D01*
X158727Y552117D01*
X158697Y552129D01*
X158670Y552148D01*
X158583Y552175D01*
X158499Y552209D01*
X158458Y552213D01*
X158435Y552220D01*
X158403Y552219D01*
X158332Y552227D01*
X129183Y552227D01*
X102990Y578420D01*
X102916Y578473D01*
X102847Y578533D01*
X102817Y578545D01*
X102790Y578564D01*
X102703Y578591D01*
X102619Y578625D01*
X102578Y578629D01*
X102555Y578636D01*
X102523Y578635D01*
X102452Y578643D01*
X102391Y578643D01*
X102301Y578629D01*
X102210Y578621D01*
X102180Y578609D01*
X102148Y578604D01*
X102068Y578561D01*
X101984Y578525D01*
X101952Y578499D01*
X101931Y578488D01*
X101909Y578465D01*
X101853Y578420D01*
X101844Y578412D01*
X98338Y576959D01*
X79462Y576959D01*
X75956Y578412D01*
X73272Y581096D01*
X71819Y584602D01*
X71819Y588398D01*
X73272Y591904D01*
X75956Y594588D01*
X79462Y596041D01*
X98338Y596041D01*
X101844Y594588D01*
X104528Y591904D01*
X106005Y588340D01*
X106020Y588243D01*
X106030Y588226D01*
X106034Y588206D01*
X106087Y588117D01*
X106136Y588026D01*
X106150Y588012D01*
X106160Y587995D01*
X106239Y587928D01*
X106314Y587856D01*
X106332Y587848D01*
X106347Y587835D01*
X106443Y587796D01*
X106469Y587784D01*
X132722Y561532D01*
X132796Y561479D01*
X132865Y561419D01*
X132895Y561407D01*
X132922Y561388D01*
X133009Y561361D01*
X133093Y561327D01*
X133134Y561323D01*
X133157Y561316D01*
X133189Y561317D01*
X133260Y561309D01*
X162409Y561309D01*
X168791Y554926D01*
X168887Y554857D01*
X168898Y554849D01*
X168938Y554815D01*
X168953Y554809D01*
X168984Y554786D01*
X168988Y554785D01*
X168991Y554783D01*
X169104Y554748D01*
X169108Y554747D01*
X169166Y554723D01*
X169190Y554721D01*
X169219Y554711D01*
X169223Y554711D01*
X169226Y554710D01*
X169272Y554712D01*
X169333Y554705D01*
X186116Y554705D01*
X189278Y553395D01*
X191699Y550974D01*
X193009Y547812D01*
X193009Y544388D01*
X191699Y541226D01*
X189278Y538805D01*
X186116Y537495D01*
X169484Y537495D01*
G37*
%LPD*%
%LPC*%
G36*
X238375Y585723D02*
X238375Y585723D01*
X238603Y586867D01*
X239292Y588532D01*
X240293Y590030D01*
X241065Y590802D01*
X241107Y590860D01*
X241156Y590912D01*
X241178Y590959D01*
X241209Y591001D01*
X241230Y591070D01*
X241260Y591135D01*
X241266Y591187D01*
X241281Y591237D01*
X241279Y591308D01*
X241287Y591379D01*
X241276Y591430D01*
X241275Y591482D01*
X241250Y591550D01*
X241235Y591620D01*
X241208Y591665D01*
X241190Y591713D01*
X241145Y591769D01*
X241109Y591831D01*
X241069Y591865D01*
X241037Y591905D01*
X240976Y591944D01*
X240922Y591991D01*
X240873Y592010D01*
X240830Y592038D01*
X240760Y592056D01*
X240694Y592083D01*
X240622Y592091D01*
X240591Y592099D01*
X240568Y592097D01*
X240527Y592101D01*
X238594Y592101D01*
X235485Y595210D01*
X235485Y599606D01*
X236557Y600678D01*
X236569Y600694D01*
X236584Y600707D01*
X236640Y600794D01*
X236701Y600878D01*
X236706Y600897D01*
X236717Y600913D01*
X236743Y601014D01*
X236773Y601113D01*
X236772Y601133D01*
X236777Y601152D01*
X236769Y601255D01*
X236767Y601359D01*
X236760Y601377D01*
X236758Y601397D01*
X236718Y601492D01*
X236682Y601590D01*
X236670Y601605D01*
X236662Y601624D01*
X236557Y601755D01*
X232917Y605394D01*
X232917Y622950D01*
X235535Y625567D01*
X235562Y625604D01*
X235595Y625635D01*
X235633Y625704D01*
X235678Y625767D01*
X235692Y625811D01*
X235714Y625851D01*
X235728Y625928D01*
X235751Y626002D01*
X235750Y626048D01*
X235758Y626093D01*
X235746Y626170D01*
X235744Y626248D01*
X235729Y626291D01*
X235722Y626336D01*
X235687Y626406D01*
X235660Y626479D01*
X235631Y626515D01*
X235610Y626556D01*
X235555Y626610D01*
X235506Y626671D01*
X235468Y626696D01*
X235435Y626728D01*
X235315Y626794D01*
X235299Y626804D01*
X235294Y626805D01*
X235288Y626809D01*
X234455Y627154D01*
X231354Y630255D01*
X229675Y634307D01*
X229675Y638693D01*
X231354Y642745D01*
X234455Y645846D01*
X238507Y647525D01*
X242893Y647525D01*
X246945Y645846D01*
X250046Y642745D01*
X251725Y638693D01*
X251725Y634307D01*
X250046Y630255D01*
X246945Y627154D01*
X242893Y625475D01*
X242647Y625475D01*
X242557Y625461D01*
X242466Y625453D01*
X242436Y625441D01*
X242404Y625436D01*
X242323Y625393D01*
X242240Y625357D01*
X242207Y625331D01*
X242187Y625320D01*
X242165Y625297D01*
X242109Y625252D01*
X241778Y624921D01*
X241725Y624847D01*
X241665Y624778D01*
X241653Y624748D01*
X241634Y624722D01*
X241607Y624635D01*
X241573Y624550D01*
X241569Y624509D01*
X241562Y624487D01*
X241563Y624454D01*
X241555Y624383D01*
X241555Y623682D01*
X238730Y620857D01*
X238677Y620783D01*
X238617Y620714D01*
X238605Y620684D01*
X238586Y620658D01*
X238559Y620571D01*
X238525Y620486D01*
X238521Y620445D01*
X238514Y620423D01*
X238515Y620390D01*
X238507Y620319D01*
X238507Y614625D01*
X238518Y614555D01*
X238520Y614483D01*
X238538Y614434D01*
X238546Y614383D01*
X238580Y614319D01*
X238605Y614252D01*
X238637Y614211D01*
X238662Y614165D01*
X238714Y614116D01*
X238758Y614060D01*
X238802Y614032D01*
X238840Y613996D01*
X238905Y613966D01*
X238965Y613927D01*
X239016Y613914D01*
X239063Y613892D01*
X239134Y613884D01*
X239204Y613867D01*
X239256Y613871D01*
X239307Y613865D01*
X239378Y613880D01*
X239449Y613886D01*
X239497Y613906D01*
X239548Y613917D01*
X239609Y613954D01*
X239675Y613982D01*
X239731Y614027D01*
X239759Y614044D01*
X239774Y614061D01*
X239806Y614087D01*
X240626Y614907D01*
X243863Y614907D01*
X243953Y614921D01*
X244044Y614929D01*
X244074Y614941D01*
X244106Y614946D01*
X244186Y614989D01*
X244270Y615025D01*
X244302Y615051D01*
X244323Y615062D01*
X244345Y615085D01*
X244401Y615130D01*
X257602Y628330D01*
X257614Y628346D01*
X257629Y628359D01*
X257685Y628446D01*
X257745Y628530D01*
X257751Y628549D01*
X257762Y628566D01*
X257787Y628666D01*
X257818Y628765D01*
X257817Y628785D01*
X257822Y628804D01*
X257814Y628907D01*
X257811Y629011D01*
X257805Y629030D01*
X257803Y629050D01*
X257763Y629144D01*
X257727Y629242D01*
X257714Y629258D01*
X257707Y629276D01*
X257602Y629407D01*
X256754Y630255D01*
X255075Y634307D01*
X255075Y638693D01*
X256754Y642745D01*
X259855Y645846D01*
X263907Y647525D01*
X268293Y647525D01*
X272345Y645846D01*
X275446Y642745D01*
X277125Y638693D01*
X277125Y634307D01*
X275446Y630255D01*
X272345Y627154D01*
X268293Y625475D01*
X263907Y625475D01*
X263489Y625648D01*
X263375Y625675D01*
X263262Y625704D01*
X263256Y625703D01*
X263250Y625704D01*
X263133Y625694D01*
X263017Y625684D01*
X263011Y625682D01*
X263005Y625681D01*
X262898Y625634D01*
X262791Y625588D01*
X262785Y625583D01*
X262780Y625581D01*
X262766Y625569D01*
X262660Y625483D01*
X248354Y611177D01*
X248301Y611103D01*
X248241Y611034D01*
X248229Y611004D01*
X248210Y610978D01*
X248183Y610891D01*
X248149Y610806D01*
X248145Y610765D01*
X248138Y610743D01*
X248139Y610710D01*
X248131Y610639D01*
X248131Y607402D01*
X245022Y604293D01*
X243761Y604293D01*
X243690Y604282D01*
X243618Y604280D01*
X243569Y604262D01*
X243518Y604254D01*
X243455Y604220D01*
X243387Y604195D01*
X243347Y604163D01*
X243301Y604138D01*
X243251Y604086D01*
X243195Y604042D01*
X243167Y603998D01*
X243131Y603960D01*
X243101Y603895D01*
X243062Y603835D01*
X243050Y603784D01*
X243028Y603737D01*
X243020Y603666D01*
X243002Y603596D01*
X243006Y603544D01*
X243001Y603493D01*
X243016Y603422D01*
X243021Y603351D01*
X243042Y603303D01*
X243053Y603252D01*
X243090Y603191D01*
X243118Y603125D01*
X243163Y603069D01*
X243179Y603041D01*
X243197Y603026D01*
X243223Y602994D01*
X243587Y602630D01*
X243587Y602433D01*
X243601Y602343D01*
X243609Y602252D01*
X243621Y602223D01*
X243626Y602191D01*
X243669Y602110D01*
X243705Y602026D01*
X243731Y601994D01*
X243742Y601973D01*
X243765Y601951D01*
X243810Y601895D01*
X246099Y599606D01*
X246099Y595210D01*
X245446Y594558D01*
X245433Y594539D01*
X245415Y594524D01*
X245361Y594439D01*
X245303Y594358D01*
X245296Y594336D01*
X245284Y594316D01*
X245260Y594219D01*
X245231Y594123D01*
X245231Y594100D01*
X245226Y594077D01*
X245234Y593977D01*
X245237Y593877D01*
X245245Y593855D01*
X245247Y593832D01*
X245287Y593740D01*
X245321Y593646D01*
X245336Y593628D01*
X245345Y593607D01*
X245412Y593532D01*
X245475Y593454D01*
X245494Y593441D01*
X245510Y593424D01*
X245597Y593375D01*
X245682Y593321D01*
X245704Y593315D01*
X245724Y593304D01*
X245823Y593285D01*
X245920Y593261D01*
X245943Y593263D01*
X245966Y593258D01*
X246133Y593273D01*
X246495Y593345D01*
X252477Y593345D01*
X252477Y585723D01*
X238375Y585723D01*
G37*
%LPD*%
%LPC*%
G36*
X134962Y489485D02*
X134962Y489485D01*
X132673Y491774D01*
X132599Y491827D01*
X132529Y491887D01*
X132499Y491899D01*
X132473Y491918D01*
X132386Y491945D01*
X132301Y491979D01*
X132260Y491983D01*
X132238Y491990D01*
X132206Y491989D01*
X132135Y491997D01*
X113650Y491997D01*
X102842Y502806D01*
X102826Y502817D01*
X102813Y502833D01*
X102726Y502889D01*
X102642Y502949D01*
X102623Y502955D01*
X102606Y502966D01*
X102506Y502991D01*
X102407Y503022D01*
X102387Y503021D01*
X102368Y503026D01*
X102265Y503018D01*
X102161Y503015D01*
X102142Y503008D01*
X102123Y503007D01*
X102028Y502967D01*
X101930Y502931D01*
X101914Y502918D01*
X101896Y502911D01*
X101765Y502806D01*
X101575Y502615D01*
X98243Y501235D01*
X79557Y501235D01*
X76225Y502615D01*
X73675Y505165D01*
X72295Y508497D01*
X72295Y512103D01*
X73675Y515435D01*
X76225Y517985D01*
X79557Y519365D01*
X98243Y519365D01*
X101575Y517985D01*
X104125Y515435D01*
X105505Y512103D01*
X105505Y508363D01*
X105507Y508348D01*
X105506Y508336D01*
X105519Y508274D01*
X105519Y508273D01*
X105527Y508182D01*
X105539Y508152D01*
X105544Y508120D01*
X105587Y508039D01*
X105623Y507956D01*
X105649Y507923D01*
X105660Y507903D01*
X105683Y507881D01*
X105728Y507825D01*
X115743Y497810D01*
X115817Y497757D01*
X115886Y497697D01*
X115916Y497685D01*
X115942Y497666D01*
X116029Y497639D01*
X116114Y497605D01*
X116155Y497601D01*
X116177Y497594D01*
X116210Y497595D01*
X116281Y497587D01*
X132135Y497587D01*
X132225Y497601D01*
X132316Y497609D01*
X132345Y497621D01*
X132377Y497626D01*
X132458Y497669D01*
X132542Y497705D01*
X132574Y497731D01*
X132595Y497742D01*
X132617Y497765D01*
X132673Y497810D01*
X134962Y500099D01*
X139358Y500099D01*
X142467Y496990D01*
X142467Y492594D01*
X139358Y489485D01*
X134962Y489485D01*
G37*
%LPD*%
%LPC*%
G36*
X336813Y373611D02*
X336813Y373611D01*
X336801Y373634D01*
X336796Y373660D01*
X336746Y373743D01*
X336702Y373830D01*
X336683Y373849D01*
X336670Y373871D01*
X336596Y373934D01*
X336526Y374002D01*
X336498Y374018D01*
X336483Y374031D01*
X336452Y374043D01*
X336379Y374083D01*
X333712Y375188D01*
X330888Y378012D01*
X329305Y381835D01*
X329267Y381896D01*
X329238Y381961D01*
X329202Y382000D01*
X329175Y382044D01*
X329120Y382090D01*
X329071Y382143D01*
X329026Y382168D01*
X328985Y382201D01*
X328918Y382227D01*
X328856Y382261D01*
X328804Y382270D01*
X328756Y382289D01*
X328684Y382292D01*
X328614Y382305D01*
X328562Y382297D01*
X328510Y382299D01*
X328441Y382280D01*
X328370Y382269D01*
X328324Y382245D01*
X328274Y382231D01*
X328215Y382190D01*
X328151Y382158D01*
X328115Y382120D01*
X328072Y382091D01*
X328029Y382033D01*
X327979Y381982D01*
X327944Y381919D01*
X327925Y381893D01*
X327918Y381871D01*
X327898Y381835D01*
X326661Y378848D01*
X324252Y376439D01*
X321104Y375135D01*
X317696Y375135D01*
X314548Y376439D01*
X312139Y378848D01*
X310835Y381996D01*
X310835Y385404D01*
X312139Y388552D01*
X314548Y390961D01*
X317696Y392265D01*
X321104Y392265D01*
X324252Y390961D01*
X326661Y388552D01*
X327898Y385565D01*
X327936Y385504D01*
X327965Y385439D01*
X328000Y385400D01*
X328027Y385356D01*
X328083Y385310D01*
X328131Y385257D01*
X328177Y385232D01*
X328217Y385199D01*
X328284Y385173D01*
X328347Y385139D01*
X328398Y385130D01*
X328447Y385111D01*
X328518Y385108D01*
X328589Y385095D01*
X328640Y385103D01*
X328692Y385101D01*
X328761Y385120D01*
X328832Y385131D01*
X328879Y385155D01*
X328929Y385169D01*
X328987Y385210D01*
X329051Y385242D01*
X329088Y385280D01*
X329131Y385309D01*
X329173Y385367D01*
X329224Y385418D01*
X329258Y385481D01*
X329277Y385507D01*
X329285Y385529D01*
X329305Y385565D01*
X330888Y389388D01*
X333712Y392212D01*
X336219Y393251D01*
X336305Y393304D01*
X336395Y393352D01*
X336410Y393369D01*
X336429Y393380D01*
X336493Y393458D01*
X336562Y393532D01*
X336571Y393553D01*
X336585Y393570D01*
X336622Y393664D01*
X336663Y393757D01*
X336666Y393779D01*
X336674Y393799D01*
X336678Y393900D01*
X336688Y394001D01*
X336683Y394023D01*
X336684Y394045D01*
X336656Y394142D01*
X336633Y394241D01*
X336622Y394260D01*
X336615Y394281D01*
X336558Y394364D01*
X336505Y394451D01*
X336488Y394465D01*
X336475Y394483D01*
X336394Y394544D01*
X336316Y394609D01*
X336291Y394620D01*
X336278Y394630D01*
X336247Y394640D01*
X336163Y394678D01*
X335722Y394821D01*
X334379Y395506D01*
X333158Y396392D01*
X332092Y397458D01*
X331206Y398679D01*
X330521Y400022D01*
X330055Y401457D01*
X329941Y402177D01*
X338638Y402177D01*
X338658Y402180D01*
X338677Y402178D01*
X338779Y402200D01*
X338881Y402217D01*
X338898Y402226D01*
X338918Y402230D01*
X339007Y402283D01*
X339098Y402332D01*
X339112Y402346D01*
X339129Y402356D01*
X339196Y402435D01*
X339267Y402510D01*
X339276Y402528D01*
X339289Y402543D01*
X339327Y402639D01*
X339371Y402733D01*
X339373Y402753D01*
X339381Y402771D01*
X339399Y402938D01*
X339399Y403701D01*
X339401Y403701D01*
X339401Y402938D01*
X339404Y402918D01*
X339402Y402899D01*
X339424Y402797D01*
X339441Y402695D01*
X339450Y402678D01*
X339454Y402658D01*
X339507Y402569D01*
X339556Y402478D01*
X339570Y402464D01*
X339580Y402447D01*
X339659Y402380D01*
X339734Y402309D01*
X339752Y402300D01*
X339767Y402287D01*
X339863Y402248D01*
X339957Y402205D01*
X339977Y402203D01*
X339995Y402195D01*
X340162Y402177D01*
X348859Y402177D01*
X348745Y401457D01*
X348279Y400022D01*
X347594Y398679D01*
X346708Y397458D01*
X345642Y396392D01*
X344421Y395506D01*
X343078Y394821D01*
X342637Y394678D01*
X342547Y394631D01*
X342454Y394590D01*
X342438Y394575D01*
X342418Y394565D01*
X342348Y394492D01*
X342273Y394424D01*
X342262Y394404D01*
X342247Y394389D01*
X342203Y394297D01*
X342154Y394208D01*
X342150Y394186D01*
X342141Y394167D01*
X342129Y394066D01*
X342111Y393966D01*
X342114Y393944D01*
X342111Y393922D01*
X342132Y393823D01*
X342146Y393723D01*
X342157Y393703D01*
X342161Y393681D01*
X342212Y393594D01*
X342258Y393504D01*
X342274Y393488D01*
X342285Y393469D01*
X342361Y393402D01*
X342434Y393331D01*
X342458Y393318D01*
X342470Y393307D01*
X342500Y393295D01*
X342581Y393251D01*
X345088Y392212D01*
X347912Y389388D01*
X349441Y385697D01*
X349441Y381703D01*
X347912Y378012D01*
X345088Y375188D01*
X341397Y373659D01*
X337342Y373659D01*
X337327Y373664D01*
X337301Y373663D01*
X337276Y373669D01*
X337179Y373660D01*
X337081Y373657D01*
X337057Y373649D01*
X337031Y373646D01*
X336942Y373607D01*
X336850Y373573D01*
X336830Y373557D01*
X336822Y373553D01*
X336813Y373611D01*
G37*
%LPD*%
%LPC*%
G36*
X79263Y525159D02*
X79263Y525159D01*
X75389Y526764D01*
X72424Y529729D01*
X70819Y533603D01*
X70819Y537797D01*
X72424Y541671D01*
X75389Y544636D01*
X79263Y546241D01*
X98537Y546241D01*
X102411Y544636D01*
X105376Y541671D01*
X106981Y537797D01*
X106981Y533603D01*
X105376Y529729D01*
X102411Y526764D01*
X98537Y525159D01*
X79263Y525159D01*
G37*
%LPD*%
%LPC*%
G36*
X460462Y475359D02*
X460462Y475359D01*
X456956Y476812D01*
X454272Y479496D01*
X452819Y483002D01*
X452819Y486798D01*
X454272Y490304D01*
X456956Y492988D01*
X460462Y494441D01*
X479338Y494441D01*
X482844Y492988D01*
X485528Y490304D01*
X486981Y486798D01*
X486981Y483002D01*
X485528Y479496D01*
X482844Y476812D01*
X479338Y475359D01*
X460462Y475359D01*
G37*
%LPD*%
%LPC*%
G36*
X296286Y536495D02*
X296286Y536495D01*
X292755Y537958D01*
X290054Y540659D01*
X288591Y544190D01*
X288591Y548010D01*
X290054Y551541D01*
X292755Y554242D01*
X296286Y555705D01*
X313314Y555705D01*
X316845Y554242D01*
X319546Y551541D01*
X321009Y548010D01*
X321009Y544190D01*
X319546Y540659D01*
X316845Y537958D01*
X313314Y536495D01*
X296286Y536495D01*
G37*
%LPD*%
%LPC*%
G36*
X296286Y498395D02*
X296286Y498395D01*
X292755Y499858D01*
X290054Y502559D01*
X288591Y506090D01*
X288591Y509910D01*
X290054Y513441D01*
X292755Y516142D01*
X296286Y517605D01*
X313314Y517605D01*
X316845Y516142D01*
X319546Y513441D01*
X321009Y509910D01*
X321009Y506090D01*
X319546Y502559D01*
X316845Y499858D01*
X313314Y498395D01*
X296286Y498395D01*
G37*
%LPD*%
%LPC*%
G36*
X460557Y602835D02*
X460557Y602835D01*
X457225Y604215D01*
X454675Y606765D01*
X453295Y610097D01*
X453295Y613703D01*
X454675Y617035D01*
X457225Y619585D01*
X460557Y620965D01*
X479243Y620965D01*
X482575Y619585D01*
X485125Y617035D01*
X486505Y613703D01*
X486505Y610097D01*
X485125Y606765D01*
X482575Y604215D01*
X479243Y602835D01*
X460557Y602835D01*
G37*
%LPD*%
%LPC*%
G36*
X289013Y623999D02*
X289013Y623999D01*
X284419Y625902D01*
X280902Y629419D01*
X278999Y634013D01*
X278999Y638987D01*
X280902Y643581D01*
X284419Y647098D01*
X289013Y649001D01*
X293987Y649001D01*
X298581Y647098D01*
X302098Y643581D01*
X304001Y638987D01*
X304001Y634013D01*
X302098Y629419D01*
X298581Y625902D01*
X293987Y623999D01*
X289013Y623999D01*
G37*
%LPD*%
%LPC*%
G36*
X372684Y575595D02*
X372684Y575595D01*
X369522Y576905D01*
X367101Y579326D01*
X365791Y582488D01*
X365791Y585912D01*
X367101Y589074D01*
X369522Y591495D01*
X372684Y592805D01*
X389316Y592805D01*
X392478Y591495D01*
X394899Y589074D01*
X396209Y585912D01*
X396209Y582488D01*
X394899Y579326D01*
X392478Y576905D01*
X389316Y575595D01*
X372684Y575595D01*
G37*
%LPD*%
%LPC*%
G36*
X213012Y624999D02*
X213012Y624999D01*
X208785Y626750D01*
X205550Y629985D01*
X203799Y634212D01*
X203799Y638788D01*
X205550Y643015D01*
X208785Y646250D01*
X213012Y648001D01*
X217588Y648001D01*
X221815Y646250D01*
X225050Y643015D01*
X226801Y638788D01*
X226801Y634212D01*
X225050Y629985D01*
X221815Y626750D01*
X217588Y624999D01*
X213012Y624999D01*
G37*
%LPD*%
%LPC*%
G36*
X251207Y676275D02*
X251207Y676275D01*
X247155Y677954D01*
X244054Y681055D01*
X242375Y685107D01*
X242375Y689493D01*
X244054Y693545D01*
X247155Y696646D01*
X251207Y698325D01*
X255593Y698325D01*
X259645Y696646D01*
X262746Y693545D01*
X264425Y689493D01*
X264425Y685107D01*
X262746Y681055D01*
X259645Y677954D01*
X255593Y676275D01*
X251207Y676275D01*
G37*
%LPD*%
%LPC*%
G36*
X327407Y676275D02*
X327407Y676275D01*
X323355Y677954D01*
X320254Y681055D01*
X318575Y685107D01*
X318575Y689493D01*
X320254Y693545D01*
X323355Y696646D01*
X327407Y698325D01*
X331793Y698325D01*
X335845Y696646D01*
X338946Y693545D01*
X340625Y689493D01*
X340625Y685107D01*
X338946Y681055D01*
X335845Y677954D01*
X331793Y676275D01*
X327407Y676275D01*
G37*
%LPD*%
%LPC*%
G36*
X314707Y625475D02*
X314707Y625475D01*
X310655Y627154D01*
X307554Y630255D01*
X305875Y634307D01*
X305875Y638693D01*
X307554Y642745D01*
X310655Y645846D01*
X314707Y647525D01*
X319093Y647525D01*
X323145Y645846D01*
X326246Y642745D01*
X327925Y638693D01*
X327925Y634307D01*
X326246Y630255D01*
X323145Y627154D01*
X319093Y625475D01*
X314707Y625475D01*
G37*
%LPD*%
%LPC*%
G36*
X257696Y375135D02*
X257696Y375135D01*
X254548Y376439D01*
X252139Y378848D01*
X250835Y381996D01*
X250835Y385404D01*
X252139Y388552D01*
X254548Y390961D01*
X257696Y392265D01*
X261104Y392265D01*
X264252Y390961D01*
X266661Y388552D01*
X267965Y385404D01*
X267965Y381996D01*
X266661Y378848D01*
X264252Y376439D01*
X261104Y375135D01*
X257696Y375135D01*
G37*
%LPD*%
%LPC*%
G36*
X257696Y395135D02*
X257696Y395135D01*
X254548Y396439D01*
X252139Y398848D01*
X250835Y401996D01*
X250835Y405404D01*
X252139Y408552D01*
X254548Y410961D01*
X257696Y412265D01*
X261104Y412265D01*
X264252Y410961D01*
X266661Y408552D01*
X267965Y405404D01*
X267965Y401996D01*
X266661Y398848D01*
X264252Y396439D01*
X261104Y395135D01*
X257696Y395135D01*
G37*
%LPD*%
%LPC*%
G36*
X317696Y395135D02*
X317696Y395135D01*
X314548Y396439D01*
X312139Y398848D01*
X310835Y401996D01*
X310835Y405404D01*
X312139Y408552D01*
X314548Y410961D01*
X317696Y412265D01*
X321104Y412265D01*
X324252Y410961D01*
X326661Y408552D01*
X327965Y405404D01*
X327965Y401996D01*
X326661Y398848D01*
X324252Y396439D01*
X321104Y395135D01*
X317696Y395135D01*
G37*
%LPD*%
%LPC*%
G36*
X471423Y537223D02*
X471423Y537223D01*
X471423Y545781D01*
X478233Y545781D01*
X479801Y545533D01*
X481310Y545042D01*
X482723Y544322D01*
X484007Y543389D01*
X485129Y542267D01*
X486062Y540983D01*
X486782Y539570D01*
X487273Y538061D01*
X487405Y537223D01*
X471423Y537223D01*
G37*
%LPD*%
%LPC*%
G36*
X90423Y562623D02*
X90423Y562623D01*
X90423Y571181D01*
X97233Y571181D01*
X98801Y570933D01*
X100310Y570442D01*
X101723Y569722D01*
X103007Y568789D01*
X104129Y567667D01*
X105062Y566383D01*
X105782Y564970D01*
X106273Y563461D01*
X106405Y562623D01*
X90423Y562623D01*
G37*
%LPD*%
%LPC*%
G36*
X452395Y537223D02*
X452395Y537223D01*
X452527Y538061D01*
X453018Y539570D01*
X453738Y540983D01*
X454671Y542267D01*
X455793Y543389D01*
X457077Y544322D01*
X458490Y545042D01*
X459999Y545533D01*
X461567Y545781D01*
X468377Y545781D01*
X468377Y537223D01*
X452395Y537223D01*
G37*
%LPD*%
%LPC*%
G36*
X71395Y562623D02*
X71395Y562623D01*
X71527Y563461D01*
X72018Y564970D01*
X72738Y566383D01*
X73671Y567667D01*
X74793Y568789D01*
X76077Y569722D01*
X77490Y570442D01*
X78999Y570933D01*
X80567Y571181D01*
X87377Y571181D01*
X87377Y562623D01*
X71395Y562623D01*
G37*
%LPD*%
%LPC*%
G36*
X471423Y525619D02*
X471423Y525619D01*
X471423Y534177D01*
X487405Y534177D01*
X487273Y533339D01*
X486782Y531830D01*
X486062Y530417D01*
X485129Y529133D01*
X484007Y528011D01*
X482723Y527078D01*
X481310Y526358D01*
X479801Y525867D01*
X478233Y525619D01*
X471423Y525619D01*
G37*
%LPD*%
%LPC*%
G36*
X90423Y551019D02*
X90423Y551019D01*
X90423Y559577D01*
X106405Y559577D01*
X106273Y558739D01*
X105782Y557230D01*
X105062Y555817D01*
X104129Y554533D01*
X103007Y553411D01*
X101723Y552478D01*
X100310Y551758D01*
X98801Y551267D01*
X97233Y551019D01*
X90423Y551019D01*
G37*
%LPD*%
%LPC*%
G36*
X80567Y551019D02*
X80567Y551019D01*
X78999Y551267D01*
X77490Y551758D01*
X76077Y552478D01*
X74793Y553411D01*
X73671Y554533D01*
X72738Y555817D01*
X72018Y557230D01*
X71527Y558739D01*
X71395Y559577D01*
X87377Y559577D01*
X87377Y551019D01*
X80567Y551019D01*
G37*
%LPD*%
%LPC*%
G36*
X461567Y525619D02*
X461567Y525619D01*
X459999Y525867D01*
X458490Y526358D01*
X457077Y527078D01*
X455793Y528011D01*
X454671Y529133D01*
X453738Y530417D01*
X453018Y531830D01*
X452527Y533339D01*
X452395Y534177D01*
X468377Y534177D01*
X468377Y525619D01*
X461567Y525619D01*
G37*
%LPD*%
%LPC*%
G36*
X255523Y509523D02*
X255523Y509523D01*
X255523Y517145D01*
X261505Y517145D01*
X263271Y516793D01*
X264936Y516104D01*
X266434Y515103D01*
X267707Y513830D01*
X268708Y512332D01*
X269397Y510667D01*
X269625Y509523D01*
X255523Y509523D01*
G37*
%LPD*%
%LPC*%
G36*
X255523Y471423D02*
X255523Y471423D01*
X255523Y479045D01*
X261505Y479045D01*
X263271Y478693D01*
X264936Y478004D01*
X266434Y477003D01*
X267707Y475730D01*
X268708Y474232D01*
X269397Y472567D01*
X269625Y471423D01*
X255523Y471423D01*
G37*
%LPD*%
%LPC*%
G36*
X255523Y585723D02*
X255523Y585723D01*
X255523Y593345D01*
X261505Y593345D01*
X263271Y592993D01*
X264936Y592304D01*
X266434Y591303D01*
X267707Y590030D01*
X268708Y588532D01*
X269397Y586867D01*
X269625Y585723D01*
X255523Y585723D01*
G37*
%LPD*%
%LPC*%
G36*
X255523Y547623D02*
X255523Y547623D01*
X255523Y555245D01*
X261505Y555245D01*
X263271Y554893D01*
X264936Y554204D01*
X266434Y553203D01*
X267707Y551930D01*
X268708Y550432D01*
X269397Y548767D01*
X269625Y547623D01*
X255523Y547623D01*
G37*
%LPD*%
%LPC*%
G36*
X238375Y547623D02*
X238375Y547623D01*
X238603Y548767D01*
X239292Y550432D01*
X240293Y551930D01*
X241566Y553203D01*
X243064Y554204D01*
X244729Y554893D01*
X246495Y555245D01*
X252477Y555245D01*
X252477Y547623D01*
X238375Y547623D01*
G37*
%LPD*%
%LPC*%
G36*
X238375Y509523D02*
X238375Y509523D01*
X238603Y510667D01*
X239292Y512332D01*
X240293Y513830D01*
X241566Y515103D01*
X243064Y516104D01*
X244729Y516793D01*
X246495Y517145D01*
X252477Y517145D01*
X252477Y509523D01*
X238375Y509523D01*
G37*
%LPD*%
%LPC*%
G36*
X238375Y471423D02*
X238375Y471423D01*
X238603Y472567D01*
X239292Y474232D01*
X240293Y475730D01*
X241566Y477003D01*
X243064Y478004D01*
X244729Y478693D01*
X246495Y479045D01*
X252477Y479045D01*
X252477Y471423D01*
X238375Y471423D01*
G37*
%LPD*%
%LPC*%
G36*
X255523Y575055D02*
X255523Y575055D01*
X255523Y582677D01*
X269625Y582677D01*
X269397Y581533D01*
X268708Y579868D01*
X267707Y578370D01*
X266434Y577097D01*
X264936Y576096D01*
X263271Y575407D01*
X261505Y575055D01*
X255523Y575055D01*
G37*
%LPD*%
%LPC*%
G36*
X255523Y536955D02*
X255523Y536955D01*
X255523Y544577D01*
X269625Y544577D01*
X269397Y543433D01*
X268708Y541768D01*
X267707Y540270D01*
X266434Y538997D01*
X264936Y537996D01*
X263271Y537307D01*
X261505Y536955D01*
X255523Y536955D01*
G37*
%LPD*%
%LPC*%
G36*
X255523Y498855D02*
X255523Y498855D01*
X255523Y506477D01*
X269625Y506477D01*
X269397Y505333D01*
X268708Y503668D01*
X267707Y502170D01*
X266434Y500897D01*
X264936Y499896D01*
X263271Y499207D01*
X261505Y498855D01*
X255523Y498855D01*
G37*
%LPD*%
%LPC*%
G36*
X255523Y460755D02*
X255523Y460755D01*
X255523Y468377D01*
X269625Y468377D01*
X269397Y467233D01*
X268708Y465568D01*
X267707Y464070D01*
X266434Y462797D01*
X264936Y461796D01*
X263271Y461107D01*
X261505Y460755D01*
X255523Y460755D01*
G37*
%LPD*%
%LPC*%
G36*
X246495Y498855D02*
X246495Y498855D01*
X244729Y499207D01*
X243064Y499896D01*
X241566Y500897D01*
X240293Y502170D01*
X239292Y503668D01*
X238603Y505333D01*
X238375Y506477D01*
X252477Y506477D01*
X252477Y498855D01*
X246495Y498855D01*
G37*
%LPD*%
%LPC*%
G36*
X246495Y575055D02*
X246495Y575055D01*
X244729Y575407D01*
X243064Y576096D01*
X241566Y577097D01*
X240293Y578370D01*
X239292Y579868D01*
X238603Y581533D01*
X238375Y582677D01*
X252477Y582677D01*
X252477Y575055D01*
X246495Y575055D01*
G37*
%LPD*%
%LPC*%
G36*
X246495Y536955D02*
X246495Y536955D01*
X244729Y537307D01*
X243064Y537996D01*
X241566Y538997D01*
X240293Y540270D01*
X239292Y541768D01*
X238603Y543433D01*
X238375Y544577D01*
X252477Y544577D01*
X252477Y536955D01*
X246495Y536955D01*
G37*
%LPD*%
%LPC*%
G36*
X246495Y460755D02*
X246495Y460755D01*
X244729Y461107D01*
X243064Y461796D01*
X241566Y462797D01*
X240293Y464070D01*
X239292Y465568D01*
X238603Y467233D01*
X238375Y468377D01*
X252477Y468377D01*
X252477Y460755D01*
X246495Y460755D01*
G37*
%LPD*%
%LPC*%
G36*
X280323Y688823D02*
X280323Y688823D01*
X280323Y699250D01*
X281619Y699044D01*
X283422Y698459D01*
X285111Y697598D01*
X286644Y696484D01*
X287984Y695144D01*
X289098Y693611D01*
X289959Y691922D01*
X290544Y690119D01*
X290750Y688823D01*
X280323Y688823D01*
G37*
%LPD*%
%LPC*%
G36*
X369223Y638023D02*
X369223Y638023D01*
X369223Y648450D01*
X370519Y648244D01*
X372322Y647659D01*
X374011Y646798D01*
X375544Y645684D01*
X376884Y644344D01*
X377998Y642811D01*
X378859Y641122D01*
X379444Y639319D01*
X379650Y638023D01*
X369223Y638023D01*
G37*
%LPD*%
%LPC*%
G36*
X191423Y638023D02*
X191423Y638023D01*
X191423Y648450D01*
X192719Y648244D01*
X194522Y647659D01*
X196211Y646798D01*
X197744Y645684D01*
X199084Y644344D01*
X200198Y642811D01*
X201059Y641122D01*
X201644Y639319D01*
X201850Y638023D01*
X191423Y638023D01*
G37*
%LPD*%
%LPC*%
G36*
X177950Y638023D02*
X177950Y638023D01*
X178156Y639319D01*
X178741Y641122D01*
X179602Y642811D01*
X180716Y644344D01*
X182056Y645684D01*
X183589Y646798D01*
X185278Y647659D01*
X187081Y648244D01*
X188377Y648450D01*
X188377Y638023D01*
X177950Y638023D01*
G37*
%LPD*%
%LPC*%
G36*
X280323Y685777D02*
X280323Y685777D01*
X290750Y685777D01*
X290544Y684481D01*
X289959Y682678D01*
X289098Y680989D01*
X287984Y679456D01*
X286644Y678116D01*
X285111Y677002D01*
X283422Y676141D01*
X281619Y675556D01*
X280323Y675350D01*
X280323Y685777D01*
G37*
%LPD*%
%LPC*%
G36*
X191423Y634977D02*
X191423Y634977D01*
X201850Y634977D01*
X201644Y633681D01*
X201059Y631878D01*
X200198Y630189D01*
X199084Y628656D01*
X197744Y627316D01*
X196211Y626202D01*
X194522Y625341D01*
X192719Y624756D01*
X191423Y624550D01*
X191423Y634977D01*
G37*
%LPD*%
%LPC*%
G36*
X369223Y634977D02*
X369223Y634977D01*
X379650Y634977D01*
X379444Y633681D01*
X378859Y631878D01*
X377998Y630189D01*
X376884Y628656D01*
X375544Y627316D01*
X374011Y626202D01*
X372322Y625341D01*
X370519Y624756D01*
X369223Y624550D01*
X369223Y634977D01*
G37*
%LPD*%
%LPC*%
G36*
X266850Y688823D02*
X266850Y688823D01*
X267056Y690119D01*
X267641Y691922D01*
X268502Y693611D01*
X269616Y695144D01*
X270956Y696484D01*
X272489Y697598D01*
X274178Y698459D01*
X275981Y699044D01*
X277277Y699250D01*
X277277Y688823D01*
X266850Y688823D01*
G37*
%LPD*%
%LPC*%
G36*
X355750Y638023D02*
X355750Y638023D01*
X355956Y639319D01*
X356541Y641122D01*
X357402Y642811D01*
X358516Y644344D01*
X359856Y645684D01*
X361389Y646798D01*
X363078Y647659D01*
X364881Y648244D01*
X366177Y648450D01*
X366177Y638023D01*
X355750Y638023D01*
G37*
%LPD*%
%LPC*%
G36*
X364881Y624756D02*
X364881Y624756D01*
X363078Y625341D01*
X361389Y626202D01*
X359856Y627316D01*
X358516Y628656D01*
X357402Y630189D01*
X356541Y631878D01*
X355956Y633681D01*
X355750Y634977D01*
X366177Y634977D01*
X366177Y624550D01*
X364881Y624756D01*
G37*
%LPD*%
%LPC*%
G36*
X187081Y624756D02*
X187081Y624756D01*
X185278Y625341D01*
X183589Y626202D01*
X182056Y627316D01*
X180716Y628656D01*
X179602Y630189D01*
X178741Y631878D01*
X178156Y633681D01*
X177950Y634977D01*
X188377Y634977D01*
X188377Y624550D01*
X187081Y624756D01*
G37*
%LPD*%
%LPC*%
G36*
X275981Y675556D02*
X275981Y675556D01*
X274178Y676141D01*
X272489Y677002D01*
X270956Y678116D01*
X269616Y679456D01*
X268502Y680989D01*
X267641Y682678D01*
X267056Y684481D01*
X266850Y685777D01*
X277277Y685777D01*
X277277Y675350D01*
X275981Y675556D01*
G37*
%LPD*%
%LPC*%
G36*
X340923Y405223D02*
X340923Y405223D01*
X340923Y413159D01*
X341643Y413045D01*
X343078Y412579D01*
X344421Y411894D01*
X345642Y411008D01*
X346708Y409942D01*
X347594Y408721D01*
X348279Y407378D01*
X348745Y405943D01*
X348859Y405223D01*
X340923Y405223D01*
G37*
%LPD*%
%LPC*%
G36*
X329941Y405223D02*
X329941Y405223D01*
X330055Y405943D01*
X330521Y407378D01*
X331206Y408721D01*
X332092Y409942D01*
X333158Y411008D01*
X334379Y411894D01*
X335722Y412579D01*
X337157Y413045D01*
X337877Y413159D01*
X337877Y405223D01*
X329941Y405223D01*
G37*
%LPD*%
%LPC*%
G36*
X220923Y382177D02*
X220923Y382177D01*
X228859Y382177D01*
X228745Y381457D01*
X228279Y380022D01*
X227594Y378679D01*
X226708Y377458D01*
X225642Y376392D01*
X224421Y375506D01*
X223078Y374821D01*
X221643Y374355D01*
X220923Y374241D01*
X220923Y382177D01*
G37*
%LPD*%
%LPC*%
G36*
X217157Y374355D02*
X217157Y374355D01*
X215722Y374821D01*
X214379Y375506D01*
X213158Y376392D01*
X212092Y377458D01*
X211206Y378679D01*
X210521Y380022D01*
X210055Y381457D01*
X209941Y382177D01*
X217877Y382177D01*
X217877Y374241D01*
X217157Y374355D01*
G37*
%LPD*%
%LPC*%
G36*
X253999Y546099D02*
X253999Y546099D01*
X253999Y546101D01*
X254001Y546101D01*
X254001Y546099D01*
X253999Y546099D01*
G37*
%LPD*%
%LPC*%
G36*
X253999Y584199D02*
X253999Y584199D01*
X253999Y584201D01*
X254001Y584201D01*
X254001Y584199D01*
X253999Y584199D01*
G37*
%LPD*%
%LPC*%
G36*
X367699Y636499D02*
X367699Y636499D01*
X367699Y636501D01*
X367701Y636501D01*
X367701Y636499D01*
X367699Y636499D01*
G37*
%LPD*%
%LPC*%
G36*
X253999Y469899D02*
X253999Y469899D01*
X253999Y469901D01*
X254001Y469901D01*
X254001Y469899D01*
X253999Y469899D01*
G37*
%LPD*%
%LPC*%
G36*
X253999Y507999D02*
X253999Y507999D01*
X253999Y508001D01*
X254001Y508001D01*
X254001Y507999D01*
X253999Y507999D01*
G37*
%LPD*%
%LPC*%
G36*
X189899Y636499D02*
X189899Y636499D01*
X189899Y636501D01*
X189901Y636501D01*
X189901Y636499D01*
X189899Y636499D01*
G37*
%LPD*%
%LPC*%
G36*
X469899Y535699D02*
X469899Y535699D01*
X469899Y535701D01*
X469901Y535701D01*
X469901Y535699D01*
X469899Y535699D01*
G37*
%LPD*%
%LPC*%
G36*
X88899Y561099D02*
X88899Y561099D01*
X88899Y561101D01*
X88901Y561101D01*
X88901Y561099D01*
X88899Y561099D01*
G37*
%LPD*%
%LPC*%
G36*
X278799Y687299D02*
X278799Y687299D01*
X278799Y687301D01*
X278801Y687301D01*
X278801Y687299D01*
X278799Y687299D01*
G37*
%LPD*%
D10*
X298196Y584200D02*
X311404Y584200D01*
X374396Y584200D02*
X387604Y584200D01*
X311404Y546100D02*
X298196Y546100D01*
X374396Y546100D02*
X387604Y546100D01*
X184404Y584200D02*
X171196Y584200D01*
X247396Y584200D02*
X260604Y584200D01*
X184404Y546100D02*
X171196Y546100D01*
X247396Y546100D02*
X260604Y546100D01*
X298196Y508000D02*
X311404Y508000D01*
X374396Y508000D02*
X387604Y508000D01*
X311404Y469900D02*
X298196Y469900D01*
X374396Y469900D02*
X387604Y469900D01*
X184404Y508000D02*
X171196Y508000D01*
X247396Y508000D02*
X260604Y508000D01*
X184404Y469900D02*
X171196Y469900D01*
X247396Y469900D02*
X260604Y469900D01*
D11*
X202600Y687300D03*
X228000Y687300D03*
X253400Y687300D03*
X278800Y687300D03*
X304200Y687300D03*
X329600Y687300D03*
X355000Y687300D03*
X189900Y636500D03*
X215300Y636500D03*
X240700Y636500D03*
X266100Y636500D03*
X291500Y636500D03*
X316900Y636500D03*
X342300Y636500D03*
X367700Y636500D03*
D12*
X96440Y611900D02*
X81360Y611900D01*
X81360Y586500D02*
X96440Y586500D01*
X96440Y561100D02*
X81360Y561100D01*
X81360Y535700D02*
X96440Y535700D01*
X96440Y510300D02*
X81360Y510300D01*
X81360Y484900D02*
X96440Y484900D01*
X462360Y484900D02*
X477440Y484900D01*
X477440Y510300D02*
X462360Y510300D01*
X462360Y535700D02*
X477440Y535700D01*
X477440Y561100D02*
X462360Y561100D01*
X462360Y586500D02*
X477440Y586500D01*
X477440Y611900D02*
X462360Y611900D01*
D13*
X339400Y403700D03*
X339400Y383700D03*
X319400Y403700D03*
X319400Y383700D03*
X299400Y403700D03*
X299400Y383700D03*
X279400Y403700D03*
X279400Y383700D03*
X259400Y403700D03*
X259400Y383700D03*
X239400Y403700D03*
X239400Y383700D03*
X219400Y403700D03*
X219400Y383700D03*
D14*
X459232Y560832D02*
X469392Y560832D01*
X459232Y560832D02*
X390144Y629920D01*
X390144Y645160D01*
X369824Y665480D01*
X245872Y665480D01*
X233680Y677672D01*
X233680Y679704D01*
X228600Y684784D01*
X228600Y686816D01*
X469392Y560832D02*
X469900Y561100D01*
X228600Y686816D02*
X228000Y687300D01*
D15*
X172720Y629920D02*
X216408Y586232D01*
X172720Y629920D02*
X172720Y643128D01*
X193040Y663448D01*
X230632Y663448D01*
D16*
X216408Y586232D03*
X230632Y663448D03*
D15*
X279400Y384048D02*
X281432Y384048D01*
X289560Y392176D01*
X289560Y408432D01*
X287528Y410464D01*
X326136Y449072D01*
X326136Y477520D01*
X279400Y384048D02*
X279400Y383700D01*
D16*
X326136Y477520D03*
D15*
X242824Y609600D02*
X265176Y631952D01*
X265176Y636016D01*
X266100Y636500D01*
D16*
X242824Y609600D03*
D15*
X238760Y383032D02*
X238760Y379984D01*
X228600Y369824D01*
X222504Y369824D01*
X221488Y368808D01*
X217424Y368808D01*
X216408Y369824D01*
X176784Y369824D01*
X66040Y480568D01*
X66040Y616712D01*
X154432Y705104D01*
X284480Y705104D01*
X301752Y687832D01*
X303784Y687832D01*
X239400Y383700D02*
X238760Y383032D01*
X304200Y687300D02*
X303784Y687832D01*
X215392Y577088D02*
X172720Y619760D01*
D16*
X215392Y577088D03*
X172720Y619760D03*
D17*
X177800Y593344D02*
X177800Y584200D01*
X177800Y593344D02*
X166624Y604520D01*
X163576Y604520D02*
X108712Y604520D01*
X163576Y604520D02*
X166624Y604520D01*
X108712Y604520D02*
X104648Y608584D01*
X103632Y608584D01*
X100584Y611632D01*
X89408Y611632D01*
X88900Y611900D01*
X163576Y604520D02*
X163576Y646176D01*
X202184Y684784D01*
X202184Y686816D01*
X202600Y687300D01*
X381000Y554736D02*
X381000Y546100D01*
X381000Y554736D02*
X367792Y567944D01*
X291592Y567944D01*
X285496Y574040D01*
X100584Y586232D02*
X89408Y586232D01*
X100584Y586232D02*
X103632Y583184D01*
X104648Y583184D01*
X131064Y556768D01*
X160528Y556768D01*
X170688Y546608D01*
X177800Y546608D01*
X89408Y586232D02*
X88900Y586500D01*
X177800Y546608D02*
X177800Y546100D01*
D16*
X285496Y574040D03*
D17*
X177800Y517144D02*
X177800Y508000D01*
X177800Y517144D02*
X228600Y567944D01*
X266192Y567944D01*
X281432Y583184D01*
X281432Y590296D01*
X309880Y618744D01*
X325120Y618744D01*
X342392Y636016D01*
X342300Y636500D01*
X381000Y517144D02*
X381000Y508000D01*
X381000Y517144D02*
X368808Y529336D01*
X291592Y529336D01*
X276352Y544576D01*
X276352Y556768D01*
X267208Y565912D01*
X266192Y567944D01*
X177800Y478536D02*
X177800Y469900D01*
X177800Y478536D02*
X185928Y486664D01*
X357632Y486664D01*
X373888Y470408D01*
X381000Y470408D01*
X381000Y469900D01*
X458216Y510032D02*
X469392Y510032D01*
X458216Y510032D02*
X455168Y506984D01*
X454152Y506984D01*
X427736Y480568D01*
X398272Y480568D01*
X389128Y471424D01*
X383032Y471424D01*
X469392Y510032D02*
X469900Y510300D01*
X383032Y471424D02*
X381000Y469900D01*
X359664Y686816D02*
X355600Y686816D01*
X359664Y686816D02*
X369824Y676656D01*
X373888Y676656D01*
X445008Y605536D01*
X445008Y592328D01*
X355600Y686816D02*
X355000Y687300D01*
D16*
X445008Y592328D03*
D15*
X240792Y597408D02*
X240792Y601472D01*
X235712Y606552D01*
X235712Y621792D01*
X238760Y624840D01*
X238760Y625856D01*
X240792Y627888D01*
X240792Y636016D01*
X240700Y636500D01*
D16*
X240792Y597408D03*
D15*
X137160Y494792D02*
X114808Y494792D01*
X99568Y510032D01*
X89408Y510032D01*
X88900Y510300D01*
D16*
X137160Y494792D03*
D15*
X238760Y407416D02*
X238760Y404368D01*
X238760Y407416D02*
X189992Y456184D01*
X128016Y456184D01*
X99568Y484632D01*
X89408Y484632D01*
X238760Y404368D02*
X239400Y403700D01*
X89408Y484632D02*
X88900Y484900D01*
X299720Y383032D02*
X299720Y381000D01*
X310896Y369824D01*
X335280Y369824D01*
X336296Y368808D01*
X343408Y368808D01*
X344424Y369824D01*
X382016Y369824D01*
X484632Y472440D01*
X485648Y472440D01*
X492760Y479552D01*
X492760Y567944D01*
X482600Y578104D01*
X482600Y579120D01*
X475488Y586232D01*
X470408Y586232D01*
X299400Y383700D02*
X299720Y383032D01*
X469900Y586500D02*
X470408Y586232D01*
M02*
