G04 EAGLE Gerber RS-274X export*
G75*
%MOMM*%
%FSLAX34Y34*%
%LPD*%
%IN*%
%IPPOS*%
%AMOC8*
5,1,8,0,0,1.08239X$1,22.5*%
G01*
%ADD10C,0.254000*%


D10*
X24900Y355100D02*
X530200Y355100D01*
X530200Y745500D01*
X24900Y745500D01*
X24900Y355100D01*
X100000Y684464D02*
X100000Y685536D01*
X99924Y686604D01*
X99771Y687665D01*
X99543Y688712D01*
X99241Y689740D01*
X98867Y690744D01*
X98422Y691719D01*
X97908Y692659D01*
X97329Y693560D01*
X96687Y694418D01*
X95985Y695228D01*
X95228Y695985D01*
X94418Y696687D01*
X93560Y697329D01*
X92659Y697908D01*
X91719Y698422D01*
X90744Y698867D01*
X89740Y699241D01*
X88712Y699543D01*
X87665Y699771D01*
X86604Y699924D01*
X85536Y700000D01*
X84464Y700000D01*
X83396Y699924D01*
X82335Y699771D01*
X81288Y699543D01*
X80260Y699241D01*
X79256Y698867D01*
X78281Y698422D01*
X77341Y697908D01*
X76440Y697329D01*
X75582Y696687D01*
X74772Y695985D01*
X74015Y695228D01*
X73313Y694418D01*
X72671Y693560D01*
X72092Y692659D01*
X71578Y691719D01*
X71133Y690744D01*
X70759Y689740D01*
X70457Y688712D01*
X70229Y687665D01*
X70076Y686604D01*
X70000Y685536D01*
X70000Y684464D01*
X70076Y683396D01*
X70229Y682335D01*
X70457Y681288D01*
X70759Y680260D01*
X71133Y679256D01*
X71578Y678281D01*
X72092Y677341D01*
X72671Y676440D01*
X73313Y675582D01*
X74015Y674772D01*
X74772Y674015D01*
X75582Y673313D01*
X76440Y672671D01*
X77341Y672092D01*
X78281Y671578D01*
X79256Y671133D01*
X80260Y670759D01*
X81288Y670457D01*
X82335Y670229D01*
X83396Y670076D01*
X84464Y670000D01*
X85536Y670000D01*
X86604Y670076D01*
X87665Y670229D01*
X88712Y670457D01*
X89740Y670759D01*
X90744Y671133D01*
X91719Y671578D01*
X92659Y672092D01*
X93560Y672671D01*
X94418Y673313D01*
X95228Y674015D01*
X95985Y674772D01*
X96687Y675582D01*
X97329Y676440D01*
X97908Y677341D01*
X98422Y678281D01*
X98867Y679256D01*
X99241Y680260D01*
X99543Y681288D01*
X99771Y682335D01*
X99924Y683396D01*
X100000Y684464D01*
X100000Y414464D02*
X100000Y415536D01*
X99924Y416604D01*
X99771Y417665D01*
X99543Y418712D01*
X99241Y419740D01*
X98867Y420744D01*
X98422Y421719D01*
X97908Y422659D01*
X97329Y423560D01*
X96687Y424418D01*
X95985Y425228D01*
X95228Y425985D01*
X94418Y426687D01*
X93560Y427329D01*
X92659Y427908D01*
X91719Y428422D01*
X90744Y428867D01*
X89740Y429241D01*
X88712Y429543D01*
X87665Y429771D01*
X86604Y429924D01*
X85536Y430000D01*
X84464Y430000D01*
X83396Y429924D01*
X82335Y429771D01*
X81288Y429543D01*
X80260Y429241D01*
X79256Y428867D01*
X78281Y428422D01*
X77341Y427908D01*
X76440Y427329D01*
X75582Y426687D01*
X74772Y425985D01*
X74015Y425228D01*
X73313Y424418D01*
X72671Y423560D01*
X72092Y422659D01*
X71578Y421719D01*
X71133Y420744D01*
X70759Y419740D01*
X70457Y418712D01*
X70229Y417665D01*
X70076Y416604D01*
X70000Y415536D01*
X70000Y414464D01*
X70076Y413396D01*
X70229Y412335D01*
X70457Y411288D01*
X70759Y410260D01*
X71133Y409256D01*
X71578Y408281D01*
X72092Y407341D01*
X72671Y406440D01*
X73313Y405582D01*
X74015Y404772D01*
X74772Y404015D01*
X75582Y403313D01*
X76440Y402671D01*
X77341Y402092D01*
X78281Y401578D01*
X79256Y401133D01*
X80260Y400759D01*
X81288Y400457D01*
X82335Y400229D01*
X83396Y400076D01*
X84464Y400000D01*
X85536Y400000D01*
X86604Y400076D01*
X87665Y400229D01*
X88712Y400457D01*
X89740Y400759D01*
X90744Y401133D01*
X91719Y401578D01*
X92659Y402092D01*
X93560Y402671D01*
X94418Y403313D01*
X95228Y404015D01*
X95985Y404772D01*
X96687Y405582D01*
X97329Y406440D01*
X97908Y407341D01*
X98422Y408281D01*
X98867Y409256D01*
X99241Y410260D01*
X99543Y411288D01*
X99771Y412335D01*
X99924Y413396D01*
X100000Y414464D01*
X485000Y414464D02*
X485000Y415536D01*
X484924Y416604D01*
X484771Y417665D01*
X484543Y418712D01*
X484241Y419740D01*
X483867Y420744D01*
X483422Y421719D01*
X482908Y422659D01*
X482329Y423560D01*
X481687Y424418D01*
X480985Y425228D01*
X480228Y425985D01*
X479418Y426687D01*
X478560Y427329D01*
X477659Y427908D01*
X476719Y428422D01*
X475744Y428867D01*
X474740Y429241D01*
X473712Y429543D01*
X472665Y429771D01*
X471604Y429924D01*
X470536Y430000D01*
X469464Y430000D01*
X468396Y429924D01*
X467335Y429771D01*
X466288Y429543D01*
X465260Y429241D01*
X464256Y428867D01*
X463281Y428422D01*
X462341Y427908D01*
X461440Y427329D01*
X460582Y426687D01*
X459772Y425985D01*
X459015Y425228D01*
X458313Y424418D01*
X457671Y423560D01*
X457092Y422659D01*
X456578Y421719D01*
X456133Y420744D01*
X455759Y419740D01*
X455457Y418712D01*
X455229Y417665D01*
X455076Y416604D01*
X455000Y415536D01*
X455000Y414464D01*
X455076Y413396D01*
X455229Y412335D01*
X455457Y411288D01*
X455759Y410260D01*
X456133Y409256D01*
X456578Y408281D01*
X457092Y407341D01*
X457671Y406440D01*
X458313Y405582D01*
X459015Y404772D01*
X459772Y404015D01*
X460582Y403313D01*
X461440Y402671D01*
X462341Y402092D01*
X463281Y401578D01*
X464256Y401133D01*
X465260Y400759D01*
X466288Y400457D01*
X467335Y400229D01*
X468396Y400076D01*
X469464Y400000D01*
X470536Y400000D01*
X471604Y400076D01*
X472665Y400229D01*
X473712Y400457D01*
X474740Y400759D01*
X475744Y401133D01*
X476719Y401578D01*
X477659Y402092D01*
X478560Y402671D01*
X479418Y403313D01*
X480228Y404015D01*
X480985Y404772D01*
X481687Y405582D01*
X482329Y406440D01*
X482908Y407341D01*
X483422Y408281D01*
X483867Y409256D01*
X484241Y410260D01*
X484543Y411288D01*
X484771Y412335D01*
X484924Y413396D01*
X485000Y414464D01*
X485000Y684464D02*
X485000Y685536D01*
X484924Y686604D01*
X484771Y687665D01*
X484543Y688712D01*
X484241Y689740D01*
X483867Y690744D01*
X483422Y691719D01*
X482908Y692659D01*
X482329Y693560D01*
X481687Y694418D01*
X480985Y695228D01*
X480228Y695985D01*
X479418Y696687D01*
X478560Y697329D01*
X477659Y697908D01*
X476719Y698422D01*
X475744Y698867D01*
X474740Y699241D01*
X473712Y699543D01*
X472665Y699771D01*
X471604Y699924D01*
X470536Y700000D01*
X469464Y700000D01*
X468396Y699924D01*
X467335Y699771D01*
X466288Y699543D01*
X465260Y699241D01*
X464256Y698867D01*
X463281Y698422D01*
X462341Y697908D01*
X461440Y697329D01*
X460582Y696687D01*
X459772Y695985D01*
X459015Y695228D01*
X458313Y694418D01*
X457671Y693560D01*
X457092Y692659D01*
X456578Y691719D01*
X456133Y690744D01*
X455759Y689740D01*
X455457Y688712D01*
X455229Y687665D01*
X455076Y686604D01*
X455000Y685536D01*
X455000Y684464D01*
X455076Y683396D01*
X455229Y682335D01*
X455457Y681288D01*
X455759Y680260D01*
X456133Y679256D01*
X456578Y678281D01*
X457092Y677341D01*
X457671Y676440D01*
X458313Y675582D01*
X459015Y674772D01*
X459772Y674015D01*
X460582Y673313D01*
X461440Y672671D01*
X462341Y672092D01*
X463281Y671578D01*
X464256Y671133D01*
X465260Y670759D01*
X466288Y670457D01*
X467335Y670229D01*
X468396Y670076D01*
X469464Y670000D01*
X470536Y670000D01*
X471604Y670076D01*
X472665Y670229D01*
X473712Y670457D01*
X474740Y670759D01*
X475744Y671133D01*
X476719Y671578D01*
X477659Y672092D01*
X478560Y672671D01*
X479418Y673313D01*
X480228Y674015D01*
X480985Y674772D01*
X481687Y675582D01*
X482329Y676440D01*
X482908Y677341D01*
X483422Y678281D01*
X483867Y679256D01*
X484241Y680260D01*
X484543Y681288D01*
X484771Y682335D01*
X484924Y683396D01*
X485000Y684464D01*
M02*
