G04 EAGLE Gerber RS-274X export*
G75*
%MOMM*%
%FSLAX34Y34*%
%LPD*%
%INSilkscreen Top*%
%IPPOS*%
%AMOC8*
5,1,8,0,0,1.08239X$1,22.5*%
G01*
%ADD10C,0.025400*%
%ADD11C,0.101600*%
%ADD12C,0.508000*%
%ADD13C,0.152400*%
%ADD14R,0.508000X2.032000*%
%ADD15R,0.635000X0.508000*%
%ADD16C,0.203200*%
%ADD17C,0.254000*%
%ADD18R,0.500000X0.500000*%


D10*
X40664Y589167D02*
X40664Y592977D01*
X41934Y590860D01*
X43204Y592977D01*
X43204Y589167D01*
X44687Y589167D02*
X45957Y592977D01*
X47227Y589167D01*
X46910Y590120D02*
X45005Y590120D01*
X48556Y592130D02*
X49615Y592977D01*
X49615Y589167D01*
X50673Y589167D02*
X48556Y589167D01*
X40664Y574689D02*
X40664Y570879D01*
X41934Y572572D02*
X40664Y574689D01*
X41934Y572572D02*
X43204Y574689D01*
X43204Y570879D01*
X44687Y570879D02*
X45957Y574689D01*
X47227Y570879D01*
X46910Y571832D02*
X45005Y571832D01*
X49721Y574690D02*
X49781Y574688D01*
X49840Y574682D01*
X49900Y574673D01*
X49958Y574660D01*
X50015Y574643D01*
X50072Y574623D01*
X50127Y574599D01*
X50180Y574572D01*
X50232Y574542D01*
X50281Y574508D01*
X50328Y574471D01*
X50373Y574432D01*
X50416Y574389D01*
X50455Y574344D01*
X50492Y574297D01*
X50526Y574248D01*
X50556Y574196D01*
X50583Y574143D01*
X50607Y574088D01*
X50627Y574031D01*
X50644Y573974D01*
X50657Y573916D01*
X50666Y573856D01*
X50672Y573797D01*
X50674Y573737D01*
X49721Y574689D02*
X49654Y574687D01*
X49587Y574682D01*
X49521Y574673D01*
X49455Y574660D01*
X49391Y574644D01*
X49327Y574624D01*
X49264Y574600D01*
X49202Y574574D01*
X49143Y574544D01*
X49085Y574511D01*
X49028Y574474D01*
X48974Y574435D01*
X48922Y574393D01*
X48873Y574348D01*
X48826Y574300D01*
X48782Y574250D01*
X48740Y574197D01*
X48702Y574142D01*
X48666Y574086D01*
X48634Y574027D01*
X48605Y573967D01*
X48579Y573905D01*
X48557Y573842D01*
X50356Y572996D02*
X50397Y573038D01*
X50436Y573083D01*
X50473Y573129D01*
X50507Y573178D01*
X50538Y573228D01*
X50565Y573280D01*
X50590Y573334D01*
X50612Y573389D01*
X50631Y573445D01*
X50646Y573502D01*
X50658Y573560D01*
X50666Y573619D01*
X50671Y573678D01*
X50673Y573737D01*
X50356Y572996D02*
X48556Y570879D01*
X50673Y570879D01*
X42870Y554708D02*
X42235Y554708D01*
X42870Y554708D02*
X42870Y552591D01*
X41600Y552591D01*
X41545Y552593D01*
X41489Y552598D01*
X41435Y552607D01*
X41381Y552620D01*
X41328Y552636D01*
X41276Y552655D01*
X41225Y552678D01*
X41177Y552704D01*
X41129Y552734D01*
X41084Y552766D01*
X41042Y552801D01*
X41001Y552839D01*
X40963Y552880D01*
X40928Y552922D01*
X40896Y552967D01*
X40866Y553015D01*
X40840Y553063D01*
X40817Y553114D01*
X40798Y553166D01*
X40782Y553219D01*
X40769Y553273D01*
X40760Y553327D01*
X40755Y553383D01*
X40753Y553438D01*
X40754Y553438D02*
X40754Y555554D01*
X40753Y555554D02*
X40755Y555612D01*
X40761Y555669D01*
X40771Y555726D01*
X40784Y555783D01*
X40802Y555838D01*
X40823Y555891D01*
X40848Y555944D01*
X40876Y555994D01*
X40908Y556042D01*
X40943Y556089D01*
X40981Y556132D01*
X41022Y556173D01*
X41065Y556211D01*
X41112Y556246D01*
X41160Y556278D01*
X41210Y556306D01*
X41263Y556331D01*
X41316Y556352D01*
X41371Y556370D01*
X41428Y556383D01*
X41485Y556393D01*
X41542Y556399D01*
X41600Y556401D01*
X42870Y556401D01*
X44655Y556401D02*
X44655Y552591D01*
X46772Y552591D02*
X44655Y556401D01*
X46772Y556401D02*
X46772Y552591D01*
X48556Y552591D02*
X48556Y556401D01*
X49615Y556401D01*
X49679Y556399D01*
X49743Y556393D01*
X49806Y556384D01*
X49868Y556370D01*
X49930Y556353D01*
X49990Y556332D01*
X50049Y556308D01*
X50107Y556280D01*
X50162Y556248D01*
X50216Y556214D01*
X50267Y556176D01*
X50317Y556135D01*
X50363Y556091D01*
X50407Y556045D01*
X50448Y555995D01*
X50486Y555944D01*
X50520Y555890D01*
X50552Y555835D01*
X50580Y555777D01*
X50604Y555718D01*
X50625Y555658D01*
X50642Y555596D01*
X50656Y555534D01*
X50665Y555471D01*
X50671Y555407D01*
X50673Y555343D01*
X50673Y553649D01*
X50671Y553585D01*
X50665Y553521D01*
X50656Y553458D01*
X50642Y553396D01*
X50625Y553334D01*
X50604Y553274D01*
X50580Y553215D01*
X50552Y553157D01*
X50520Y553102D01*
X50486Y553048D01*
X50448Y552997D01*
X50407Y552947D01*
X50363Y552901D01*
X50317Y552857D01*
X50267Y552816D01*
X50216Y552778D01*
X50162Y552744D01*
X50107Y552712D01*
X50049Y552684D01*
X49990Y552660D01*
X49930Y552639D01*
X49868Y552622D01*
X49806Y552608D01*
X49743Y552599D01*
X49679Y552593D01*
X49615Y552591D01*
X48556Y552591D01*
X45957Y534303D02*
X44687Y534303D01*
X45957Y534303D02*
X46012Y534305D01*
X46068Y534310D01*
X46122Y534319D01*
X46176Y534332D01*
X46229Y534348D01*
X46281Y534367D01*
X46332Y534390D01*
X46381Y534416D01*
X46428Y534446D01*
X46473Y534478D01*
X46515Y534513D01*
X46556Y534551D01*
X46594Y534592D01*
X46629Y534634D01*
X46661Y534679D01*
X46691Y534727D01*
X46717Y534775D01*
X46740Y534826D01*
X46759Y534878D01*
X46775Y534931D01*
X46788Y534985D01*
X46797Y535039D01*
X46802Y535095D01*
X46804Y535150D01*
X46804Y535573D01*
X46802Y535628D01*
X46797Y535684D01*
X46788Y535738D01*
X46775Y535792D01*
X46759Y535845D01*
X46740Y535897D01*
X46717Y535948D01*
X46691Y535997D01*
X46661Y536044D01*
X46629Y536089D01*
X46594Y536131D01*
X46556Y536172D01*
X46515Y536210D01*
X46473Y536245D01*
X46428Y536277D01*
X46381Y536307D01*
X46332Y536333D01*
X46281Y536356D01*
X46229Y536375D01*
X46176Y536391D01*
X46122Y536404D01*
X46068Y536413D01*
X46012Y536418D01*
X45957Y536420D01*
X44687Y536420D01*
X44687Y538113D01*
X46804Y538113D01*
X48133Y538113D02*
X49403Y534303D01*
X50673Y538113D01*
X36390Y516015D02*
X34696Y516015D01*
X34696Y519825D01*
X36390Y519825D01*
X35966Y518132D02*
X34696Y518132D01*
X37860Y519825D02*
X37860Y516015D01*
X39976Y516015D02*
X37860Y519825D01*
X39976Y519825D02*
X39976Y516015D01*
X42476Y516015D02*
X43323Y516015D01*
X42476Y516015D02*
X42421Y516017D01*
X42365Y516022D01*
X42311Y516031D01*
X42257Y516044D01*
X42204Y516060D01*
X42152Y516079D01*
X42101Y516102D01*
X42053Y516128D01*
X42005Y516158D01*
X41960Y516190D01*
X41918Y516225D01*
X41877Y516263D01*
X41839Y516304D01*
X41804Y516346D01*
X41772Y516391D01*
X41742Y516439D01*
X41716Y516487D01*
X41693Y516538D01*
X41674Y516590D01*
X41658Y516643D01*
X41645Y516697D01*
X41636Y516751D01*
X41631Y516807D01*
X41629Y516862D01*
X41630Y516862D02*
X41630Y518978D01*
X41629Y518978D02*
X41631Y519036D01*
X41637Y519093D01*
X41647Y519150D01*
X41660Y519207D01*
X41678Y519262D01*
X41699Y519315D01*
X41724Y519368D01*
X41752Y519418D01*
X41784Y519466D01*
X41819Y519513D01*
X41857Y519556D01*
X41898Y519597D01*
X41941Y519635D01*
X41988Y519670D01*
X42036Y519702D01*
X42086Y519730D01*
X42139Y519755D01*
X42192Y519776D01*
X42247Y519794D01*
X42304Y519807D01*
X42361Y519817D01*
X42418Y519823D01*
X42476Y519825D01*
X43323Y519825D01*
X44687Y518978D02*
X45745Y519825D01*
X45745Y516015D01*
X44687Y516015D02*
X46804Y516015D01*
X48133Y516015D02*
X49403Y519825D01*
X50673Y516015D01*
X50356Y516968D02*
X48451Y516968D01*
X36431Y497727D02*
X34738Y497727D01*
X34738Y501537D01*
X36431Y501537D01*
X36008Y499844D02*
X34738Y499844D01*
X37901Y501537D02*
X37901Y497727D01*
X40018Y497727D02*
X37901Y501537D01*
X40018Y501537D02*
X40018Y497727D01*
X42518Y497727D02*
X43364Y497727D01*
X42518Y497727D02*
X42463Y497729D01*
X42407Y497734D01*
X42353Y497743D01*
X42299Y497756D01*
X42246Y497772D01*
X42194Y497791D01*
X42143Y497814D01*
X42095Y497840D01*
X42047Y497870D01*
X42002Y497902D01*
X41960Y497937D01*
X41919Y497975D01*
X41881Y498016D01*
X41846Y498058D01*
X41814Y498103D01*
X41784Y498151D01*
X41758Y498199D01*
X41735Y498250D01*
X41716Y498302D01*
X41700Y498355D01*
X41687Y498409D01*
X41678Y498463D01*
X41673Y498519D01*
X41671Y498574D01*
X41671Y500690D01*
X41673Y500748D01*
X41679Y500805D01*
X41689Y500862D01*
X41702Y500919D01*
X41720Y500974D01*
X41741Y501027D01*
X41766Y501080D01*
X41794Y501130D01*
X41826Y501178D01*
X41861Y501225D01*
X41899Y501268D01*
X41940Y501309D01*
X41983Y501347D01*
X42030Y501382D01*
X42078Y501414D01*
X42128Y501442D01*
X42181Y501467D01*
X42234Y501488D01*
X42289Y501506D01*
X42346Y501519D01*
X42403Y501529D01*
X42460Y501535D01*
X42518Y501537D01*
X43364Y501537D01*
X44729Y500690D02*
X45787Y501537D01*
X45787Y497727D01*
X44729Y497727D02*
X46845Y497727D01*
X48556Y499844D02*
X49615Y499844D01*
X49615Y499843D02*
X49679Y499841D01*
X49743Y499835D01*
X49806Y499826D01*
X49868Y499812D01*
X49930Y499795D01*
X49990Y499774D01*
X50049Y499750D01*
X50107Y499722D01*
X50162Y499690D01*
X50216Y499656D01*
X50267Y499618D01*
X50317Y499577D01*
X50363Y499533D01*
X50407Y499487D01*
X50448Y499437D01*
X50486Y499386D01*
X50520Y499332D01*
X50552Y499277D01*
X50580Y499219D01*
X50604Y499160D01*
X50625Y499100D01*
X50642Y499038D01*
X50656Y498976D01*
X50665Y498913D01*
X50671Y498849D01*
X50673Y498785D01*
X50671Y498721D01*
X50665Y498657D01*
X50656Y498594D01*
X50642Y498532D01*
X50625Y498470D01*
X50604Y498410D01*
X50580Y498351D01*
X50552Y498293D01*
X50520Y498238D01*
X50486Y498184D01*
X50448Y498133D01*
X50407Y498083D01*
X50363Y498037D01*
X50317Y497993D01*
X50267Y497952D01*
X50216Y497914D01*
X50162Y497880D01*
X50107Y497848D01*
X50049Y497820D01*
X49990Y497796D01*
X49930Y497775D01*
X49868Y497758D01*
X49806Y497744D01*
X49743Y497735D01*
X49679Y497729D01*
X49615Y497727D01*
X48556Y497727D01*
X48556Y501537D01*
X49615Y501537D01*
X49672Y501535D01*
X49728Y501529D01*
X49784Y501520D01*
X49839Y501507D01*
X49893Y501490D01*
X49946Y501470D01*
X49997Y501446D01*
X50047Y501419D01*
X50094Y501388D01*
X50140Y501355D01*
X50183Y501318D01*
X50224Y501279D01*
X50262Y501237D01*
X50297Y501192D01*
X50329Y501146D01*
X50358Y501097D01*
X50383Y501047D01*
X50405Y500994D01*
X50424Y500941D01*
X50439Y500886D01*
X50450Y500831D01*
X50458Y500775D01*
X50462Y500718D01*
X50462Y500662D01*
X50458Y500605D01*
X50450Y500549D01*
X50439Y500494D01*
X50424Y500439D01*
X50405Y500386D01*
X50383Y500333D01*
X50358Y500283D01*
X50329Y500234D01*
X50297Y500188D01*
X50262Y500143D01*
X50224Y500101D01*
X50183Y500062D01*
X50140Y500025D01*
X50094Y499992D01*
X50047Y499961D01*
X49997Y499934D01*
X49946Y499910D01*
X49893Y499890D01*
X49839Y499873D01*
X49784Y499860D01*
X49728Y499851D01*
X49672Y499845D01*
X49615Y499843D01*
X508127Y589167D02*
X508127Y592977D01*
X509397Y590860D01*
X510667Y592977D01*
X510667Y589167D01*
X512532Y591284D02*
X513591Y591284D01*
X513591Y591283D02*
X513655Y591281D01*
X513719Y591275D01*
X513782Y591266D01*
X513844Y591252D01*
X513906Y591235D01*
X513966Y591214D01*
X514025Y591190D01*
X514083Y591162D01*
X514138Y591130D01*
X514192Y591096D01*
X514243Y591058D01*
X514293Y591017D01*
X514339Y590973D01*
X514383Y590927D01*
X514424Y590877D01*
X514462Y590826D01*
X514496Y590772D01*
X514528Y590717D01*
X514556Y590659D01*
X514580Y590600D01*
X514601Y590540D01*
X514618Y590478D01*
X514632Y590416D01*
X514641Y590353D01*
X514647Y590289D01*
X514649Y590225D01*
X514647Y590161D01*
X514641Y590097D01*
X514632Y590034D01*
X514618Y589972D01*
X514601Y589910D01*
X514580Y589850D01*
X514556Y589791D01*
X514528Y589733D01*
X514496Y589678D01*
X514462Y589624D01*
X514424Y589573D01*
X514383Y589523D01*
X514339Y589477D01*
X514293Y589433D01*
X514243Y589392D01*
X514192Y589354D01*
X514138Y589320D01*
X514083Y589288D01*
X514025Y589260D01*
X513966Y589236D01*
X513906Y589215D01*
X513844Y589198D01*
X513782Y589184D01*
X513719Y589175D01*
X513655Y589169D01*
X513591Y589167D01*
X512532Y589167D01*
X512532Y592977D01*
X513591Y592977D01*
X513648Y592975D01*
X513704Y592969D01*
X513760Y592960D01*
X513815Y592947D01*
X513869Y592930D01*
X513922Y592910D01*
X513973Y592886D01*
X514023Y592859D01*
X514070Y592828D01*
X514116Y592795D01*
X514159Y592758D01*
X514200Y592719D01*
X514238Y592677D01*
X514273Y592632D01*
X514305Y592586D01*
X514334Y592537D01*
X514359Y592487D01*
X514381Y592434D01*
X514400Y592381D01*
X514415Y592326D01*
X514426Y592271D01*
X514434Y592215D01*
X514438Y592158D01*
X514438Y592102D01*
X514434Y592045D01*
X514426Y591989D01*
X514415Y591934D01*
X514400Y591879D01*
X514381Y591826D01*
X514359Y591773D01*
X514334Y591723D01*
X514305Y591674D01*
X514273Y591628D01*
X514238Y591583D01*
X514200Y591541D01*
X514159Y591502D01*
X514116Y591465D01*
X514070Y591432D01*
X514023Y591401D01*
X513973Y591374D01*
X513922Y591350D01*
X513869Y591330D01*
X513815Y591313D01*
X513760Y591300D01*
X513704Y591291D01*
X513648Y591285D01*
X513591Y591283D01*
X516020Y592130D02*
X517078Y592977D01*
X517078Y589167D01*
X516020Y589167D02*
X518136Y589167D01*
X508127Y574689D02*
X508127Y570879D01*
X509397Y572572D02*
X508127Y574689D01*
X509397Y572572D02*
X510667Y574689D01*
X510667Y570879D01*
X512532Y572996D02*
X513591Y572996D01*
X513591Y572995D02*
X513655Y572993D01*
X513719Y572987D01*
X513782Y572978D01*
X513844Y572964D01*
X513906Y572947D01*
X513966Y572926D01*
X514025Y572902D01*
X514083Y572874D01*
X514138Y572842D01*
X514192Y572808D01*
X514243Y572770D01*
X514293Y572729D01*
X514339Y572685D01*
X514383Y572639D01*
X514424Y572589D01*
X514462Y572538D01*
X514496Y572484D01*
X514528Y572429D01*
X514556Y572371D01*
X514580Y572312D01*
X514601Y572252D01*
X514618Y572190D01*
X514632Y572128D01*
X514641Y572065D01*
X514647Y572001D01*
X514649Y571937D01*
X514647Y571873D01*
X514641Y571809D01*
X514632Y571746D01*
X514618Y571684D01*
X514601Y571622D01*
X514580Y571562D01*
X514556Y571503D01*
X514528Y571445D01*
X514496Y571390D01*
X514462Y571336D01*
X514424Y571285D01*
X514383Y571235D01*
X514339Y571189D01*
X514293Y571145D01*
X514243Y571104D01*
X514192Y571066D01*
X514138Y571032D01*
X514083Y571000D01*
X514025Y570972D01*
X513966Y570948D01*
X513906Y570927D01*
X513844Y570910D01*
X513782Y570896D01*
X513719Y570887D01*
X513655Y570881D01*
X513591Y570879D01*
X512532Y570879D01*
X512532Y574689D01*
X513591Y574689D01*
X513648Y574687D01*
X513704Y574681D01*
X513760Y574672D01*
X513815Y574659D01*
X513869Y574642D01*
X513922Y574622D01*
X513973Y574598D01*
X514023Y574571D01*
X514070Y574540D01*
X514116Y574507D01*
X514159Y574470D01*
X514200Y574431D01*
X514238Y574389D01*
X514273Y574344D01*
X514305Y574298D01*
X514334Y574249D01*
X514359Y574199D01*
X514381Y574146D01*
X514400Y574093D01*
X514415Y574038D01*
X514426Y573983D01*
X514434Y573927D01*
X514438Y573870D01*
X514438Y573814D01*
X514434Y573757D01*
X514426Y573701D01*
X514415Y573646D01*
X514400Y573591D01*
X514381Y573538D01*
X514359Y573485D01*
X514334Y573435D01*
X514305Y573386D01*
X514273Y573340D01*
X514238Y573295D01*
X514200Y573253D01*
X514159Y573214D01*
X514116Y573177D01*
X514070Y573144D01*
X514023Y573113D01*
X513973Y573086D01*
X513922Y573062D01*
X513869Y573042D01*
X513815Y573025D01*
X513760Y573012D01*
X513704Y573003D01*
X513648Y572997D01*
X513591Y572995D01*
X517184Y574690D02*
X517244Y574688D01*
X517303Y574682D01*
X517363Y574673D01*
X517421Y574660D01*
X517478Y574643D01*
X517535Y574623D01*
X517590Y574599D01*
X517643Y574572D01*
X517695Y574542D01*
X517744Y574508D01*
X517791Y574471D01*
X517836Y574432D01*
X517879Y574389D01*
X517918Y574344D01*
X517955Y574297D01*
X517989Y574248D01*
X518019Y574196D01*
X518046Y574143D01*
X518070Y574088D01*
X518090Y574031D01*
X518107Y573974D01*
X518120Y573916D01*
X518129Y573856D01*
X518135Y573797D01*
X518137Y573737D01*
X517184Y574689D02*
X517117Y574687D01*
X517050Y574682D01*
X516984Y574673D01*
X516918Y574660D01*
X516854Y574644D01*
X516790Y574624D01*
X516727Y574600D01*
X516665Y574574D01*
X516606Y574544D01*
X516548Y574511D01*
X516491Y574474D01*
X516437Y574435D01*
X516385Y574393D01*
X516336Y574348D01*
X516289Y574300D01*
X516245Y574250D01*
X516203Y574197D01*
X516165Y574142D01*
X516129Y574086D01*
X516097Y574027D01*
X516068Y573967D01*
X516042Y573905D01*
X516020Y573842D01*
X517819Y572996D02*
X517860Y573038D01*
X517899Y573083D01*
X517936Y573129D01*
X517970Y573178D01*
X518001Y573228D01*
X518028Y573280D01*
X518053Y573334D01*
X518075Y573389D01*
X518094Y573445D01*
X518109Y573502D01*
X518121Y573560D01*
X518129Y573619D01*
X518134Y573678D01*
X518136Y573737D01*
X517819Y572996D02*
X516020Y570879D01*
X518136Y570879D01*
X510244Y554708D02*
X509609Y554708D01*
X510244Y554708D02*
X510244Y552591D01*
X508974Y552591D01*
X508919Y552593D01*
X508863Y552598D01*
X508809Y552607D01*
X508755Y552620D01*
X508702Y552636D01*
X508650Y552655D01*
X508599Y552678D01*
X508551Y552704D01*
X508503Y552734D01*
X508458Y552766D01*
X508416Y552801D01*
X508375Y552839D01*
X508337Y552880D01*
X508302Y552922D01*
X508270Y552967D01*
X508240Y553015D01*
X508214Y553063D01*
X508191Y553114D01*
X508172Y553166D01*
X508156Y553219D01*
X508143Y553273D01*
X508134Y553327D01*
X508129Y553383D01*
X508127Y553438D01*
X508127Y555554D01*
X508129Y555612D01*
X508135Y555669D01*
X508145Y555726D01*
X508158Y555783D01*
X508176Y555838D01*
X508197Y555891D01*
X508222Y555944D01*
X508250Y555994D01*
X508282Y556042D01*
X508317Y556089D01*
X508355Y556132D01*
X508396Y556173D01*
X508439Y556211D01*
X508486Y556246D01*
X508534Y556278D01*
X508584Y556306D01*
X508637Y556331D01*
X508690Y556352D01*
X508745Y556370D01*
X508802Y556383D01*
X508859Y556393D01*
X508916Y556399D01*
X508974Y556401D01*
X510244Y556401D01*
X512028Y556401D02*
X512028Y552591D01*
X514145Y552591D02*
X512028Y556401D01*
X514145Y556401D02*
X514145Y552591D01*
X515930Y552591D02*
X515930Y556401D01*
X516988Y556401D01*
X517052Y556399D01*
X517116Y556393D01*
X517179Y556384D01*
X517241Y556370D01*
X517303Y556353D01*
X517363Y556332D01*
X517422Y556308D01*
X517480Y556280D01*
X517535Y556248D01*
X517589Y556214D01*
X517640Y556176D01*
X517690Y556135D01*
X517736Y556091D01*
X517780Y556045D01*
X517821Y555995D01*
X517859Y555944D01*
X517893Y555890D01*
X517925Y555835D01*
X517953Y555777D01*
X517977Y555718D01*
X517998Y555658D01*
X518015Y555596D01*
X518029Y555534D01*
X518038Y555471D01*
X518044Y555407D01*
X518046Y555343D01*
X518046Y553649D01*
X518044Y553585D01*
X518038Y553521D01*
X518029Y553458D01*
X518015Y553396D01*
X517998Y553334D01*
X517977Y553274D01*
X517953Y553215D01*
X517925Y553157D01*
X517893Y553102D01*
X517859Y553048D01*
X517821Y552997D01*
X517780Y552947D01*
X517736Y552901D01*
X517690Y552857D01*
X517640Y552816D01*
X517589Y552778D01*
X517535Y552744D01*
X517480Y552712D01*
X517422Y552684D01*
X517363Y552660D01*
X517303Y552639D01*
X517241Y552622D01*
X517179Y552608D01*
X517116Y552599D01*
X517052Y552593D01*
X516988Y552591D01*
X515930Y552591D01*
X509397Y534303D02*
X508127Y534303D01*
X509397Y534303D02*
X509452Y534305D01*
X509508Y534310D01*
X509562Y534319D01*
X509616Y534332D01*
X509669Y534348D01*
X509721Y534367D01*
X509772Y534390D01*
X509821Y534416D01*
X509868Y534446D01*
X509913Y534478D01*
X509955Y534513D01*
X509996Y534551D01*
X510034Y534592D01*
X510069Y534634D01*
X510101Y534679D01*
X510131Y534727D01*
X510157Y534775D01*
X510180Y534826D01*
X510199Y534878D01*
X510215Y534931D01*
X510228Y534985D01*
X510237Y535039D01*
X510242Y535095D01*
X510244Y535150D01*
X510244Y535573D01*
X510242Y535628D01*
X510237Y535684D01*
X510228Y535738D01*
X510215Y535792D01*
X510199Y535845D01*
X510180Y535897D01*
X510157Y535948D01*
X510131Y535997D01*
X510101Y536044D01*
X510069Y536089D01*
X510034Y536131D01*
X509996Y536172D01*
X509955Y536210D01*
X509913Y536245D01*
X509868Y536277D01*
X509821Y536307D01*
X509772Y536333D01*
X509721Y536356D01*
X509669Y536375D01*
X509616Y536391D01*
X509562Y536404D01*
X509508Y536413D01*
X509452Y536418D01*
X509397Y536420D01*
X508127Y536420D01*
X508127Y538113D01*
X510244Y538113D01*
X511573Y538113D02*
X512843Y534303D01*
X514113Y538113D01*
X509820Y516015D02*
X508127Y516015D01*
X508127Y519825D01*
X509820Y519825D01*
X509397Y518132D02*
X508127Y518132D01*
X511290Y519825D02*
X511290Y516015D01*
X513407Y516015D02*
X511290Y519825D01*
X513407Y519825D02*
X513407Y516015D01*
X515907Y516015D02*
X516754Y516015D01*
X515907Y516015D02*
X515852Y516017D01*
X515796Y516022D01*
X515742Y516031D01*
X515688Y516044D01*
X515635Y516060D01*
X515583Y516079D01*
X515532Y516102D01*
X515484Y516128D01*
X515436Y516158D01*
X515391Y516190D01*
X515349Y516225D01*
X515308Y516263D01*
X515270Y516304D01*
X515235Y516346D01*
X515203Y516391D01*
X515173Y516439D01*
X515147Y516487D01*
X515124Y516538D01*
X515105Y516590D01*
X515089Y516643D01*
X515076Y516697D01*
X515067Y516751D01*
X515062Y516807D01*
X515060Y516862D01*
X515060Y518978D01*
X515062Y519036D01*
X515068Y519093D01*
X515078Y519150D01*
X515091Y519207D01*
X515109Y519262D01*
X515130Y519315D01*
X515155Y519368D01*
X515183Y519418D01*
X515215Y519466D01*
X515250Y519513D01*
X515288Y519556D01*
X515329Y519597D01*
X515372Y519635D01*
X515419Y519670D01*
X515467Y519702D01*
X515517Y519730D01*
X515570Y519755D01*
X515623Y519776D01*
X515678Y519794D01*
X515735Y519807D01*
X515792Y519817D01*
X515849Y519823D01*
X515907Y519825D01*
X516754Y519825D01*
X519282Y519826D02*
X519342Y519824D01*
X519401Y519818D01*
X519461Y519809D01*
X519519Y519796D01*
X519576Y519779D01*
X519633Y519759D01*
X519688Y519735D01*
X519741Y519708D01*
X519793Y519678D01*
X519842Y519644D01*
X519889Y519607D01*
X519934Y519568D01*
X519977Y519525D01*
X520016Y519480D01*
X520053Y519433D01*
X520087Y519384D01*
X520117Y519332D01*
X520144Y519279D01*
X520168Y519224D01*
X520188Y519167D01*
X520205Y519110D01*
X520218Y519052D01*
X520227Y518992D01*
X520233Y518933D01*
X520235Y518873D01*
X519282Y519825D02*
X519215Y519823D01*
X519148Y519818D01*
X519082Y519809D01*
X519016Y519796D01*
X518952Y519780D01*
X518888Y519760D01*
X518825Y519736D01*
X518763Y519710D01*
X518704Y519680D01*
X518646Y519647D01*
X518589Y519610D01*
X518535Y519571D01*
X518483Y519529D01*
X518434Y519484D01*
X518387Y519436D01*
X518343Y519386D01*
X518301Y519333D01*
X518263Y519278D01*
X518227Y519222D01*
X518195Y519163D01*
X518166Y519103D01*
X518140Y519041D01*
X518118Y518978D01*
X519917Y518132D02*
X519958Y518174D01*
X519997Y518219D01*
X520034Y518265D01*
X520068Y518314D01*
X520099Y518364D01*
X520126Y518416D01*
X520151Y518470D01*
X520173Y518525D01*
X520192Y518581D01*
X520207Y518638D01*
X520219Y518696D01*
X520227Y518755D01*
X520232Y518814D01*
X520234Y518873D01*
X519917Y518132D02*
X518118Y516015D01*
X520235Y516015D01*
X521564Y516015D02*
X522834Y519825D01*
X524104Y516015D01*
X523786Y516968D02*
X521881Y516968D01*
X509820Y497727D02*
X508127Y497727D01*
X508127Y501537D01*
X509820Y501537D01*
X509397Y499844D02*
X508127Y499844D01*
X511290Y501537D02*
X511290Y497727D01*
X513407Y497727D02*
X511290Y501537D01*
X513407Y501537D02*
X513407Y497727D01*
X515907Y497727D02*
X516754Y497727D01*
X515907Y497727D02*
X515852Y497729D01*
X515796Y497734D01*
X515742Y497743D01*
X515688Y497756D01*
X515635Y497772D01*
X515583Y497791D01*
X515532Y497814D01*
X515484Y497840D01*
X515436Y497870D01*
X515391Y497902D01*
X515349Y497937D01*
X515308Y497975D01*
X515270Y498016D01*
X515235Y498058D01*
X515203Y498103D01*
X515173Y498151D01*
X515147Y498199D01*
X515124Y498250D01*
X515105Y498302D01*
X515089Y498355D01*
X515076Y498409D01*
X515067Y498463D01*
X515062Y498519D01*
X515060Y498574D01*
X515060Y500690D01*
X515062Y500748D01*
X515068Y500805D01*
X515078Y500862D01*
X515091Y500919D01*
X515109Y500974D01*
X515130Y501027D01*
X515155Y501080D01*
X515183Y501130D01*
X515215Y501178D01*
X515250Y501225D01*
X515288Y501268D01*
X515329Y501309D01*
X515372Y501347D01*
X515419Y501382D01*
X515467Y501414D01*
X515517Y501442D01*
X515570Y501467D01*
X515623Y501488D01*
X515678Y501506D01*
X515735Y501519D01*
X515792Y501529D01*
X515849Y501535D01*
X515907Y501537D01*
X516754Y501537D01*
X519282Y501538D02*
X519342Y501536D01*
X519401Y501530D01*
X519461Y501521D01*
X519519Y501508D01*
X519576Y501491D01*
X519633Y501471D01*
X519688Y501447D01*
X519741Y501420D01*
X519793Y501390D01*
X519842Y501356D01*
X519889Y501319D01*
X519934Y501280D01*
X519977Y501237D01*
X520016Y501192D01*
X520053Y501145D01*
X520087Y501096D01*
X520117Y501044D01*
X520144Y500991D01*
X520168Y500936D01*
X520188Y500879D01*
X520205Y500822D01*
X520218Y500764D01*
X520227Y500704D01*
X520233Y500645D01*
X520235Y500585D01*
X519282Y501537D02*
X519215Y501535D01*
X519148Y501530D01*
X519082Y501521D01*
X519016Y501508D01*
X518952Y501492D01*
X518888Y501472D01*
X518825Y501448D01*
X518763Y501422D01*
X518704Y501392D01*
X518646Y501359D01*
X518589Y501322D01*
X518535Y501283D01*
X518483Y501241D01*
X518434Y501196D01*
X518387Y501148D01*
X518343Y501098D01*
X518301Y501045D01*
X518263Y500990D01*
X518227Y500934D01*
X518195Y500875D01*
X518166Y500815D01*
X518140Y500753D01*
X518118Y500690D01*
X519917Y499844D02*
X519958Y499886D01*
X519997Y499931D01*
X520034Y499977D01*
X520068Y500026D01*
X520099Y500076D01*
X520126Y500128D01*
X520151Y500182D01*
X520173Y500237D01*
X520192Y500293D01*
X520207Y500350D01*
X520219Y500408D01*
X520227Y500467D01*
X520232Y500526D01*
X520234Y500585D01*
X519917Y499844D02*
X518118Y497727D01*
X520235Y497727D01*
X521946Y499844D02*
X523004Y499844D01*
X523004Y499843D02*
X523068Y499841D01*
X523132Y499835D01*
X523195Y499826D01*
X523257Y499812D01*
X523319Y499795D01*
X523379Y499774D01*
X523438Y499750D01*
X523496Y499722D01*
X523551Y499690D01*
X523605Y499656D01*
X523656Y499618D01*
X523706Y499577D01*
X523752Y499533D01*
X523796Y499487D01*
X523837Y499437D01*
X523875Y499386D01*
X523909Y499332D01*
X523941Y499277D01*
X523969Y499219D01*
X523993Y499160D01*
X524014Y499100D01*
X524031Y499038D01*
X524045Y498976D01*
X524054Y498913D01*
X524060Y498849D01*
X524062Y498785D01*
X524060Y498721D01*
X524054Y498657D01*
X524045Y498594D01*
X524031Y498532D01*
X524014Y498470D01*
X523993Y498410D01*
X523969Y498351D01*
X523941Y498293D01*
X523909Y498238D01*
X523875Y498184D01*
X523837Y498133D01*
X523796Y498083D01*
X523752Y498037D01*
X523706Y497993D01*
X523656Y497952D01*
X523605Y497914D01*
X523551Y497880D01*
X523496Y497848D01*
X523438Y497820D01*
X523379Y497796D01*
X523319Y497775D01*
X523257Y497758D01*
X523195Y497744D01*
X523132Y497735D01*
X523068Y497729D01*
X523004Y497727D01*
X521946Y497727D01*
X521946Y501537D01*
X523004Y501537D01*
X523061Y501535D01*
X523117Y501529D01*
X523173Y501520D01*
X523228Y501507D01*
X523282Y501490D01*
X523335Y501470D01*
X523386Y501446D01*
X523436Y501419D01*
X523483Y501388D01*
X523529Y501355D01*
X523572Y501318D01*
X523613Y501279D01*
X523651Y501237D01*
X523686Y501192D01*
X523718Y501146D01*
X523747Y501097D01*
X523772Y501047D01*
X523794Y500994D01*
X523813Y500941D01*
X523828Y500886D01*
X523839Y500831D01*
X523847Y500775D01*
X523851Y500718D01*
X523851Y500662D01*
X523847Y500605D01*
X523839Y500549D01*
X523828Y500494D01*
X523813Y500439D01*
X523794Y500386D01*
X523772Y500333D01*
X523747Y500283D01*
X523718Y500234D01*
X523686Y500188D01*
X523651Y500143D01*
X523613Y500101D01*
X523572Y500062D01*
X523529Y500025D01*
X523483Y499992D01*
X523436Y499961D01*
X523386Y499934D01*
X523335Y499910D01*
X523282Y499890D01*
X523228Y499873D01*
X523173Y499860D01*
X523117Y499851D01*
X523061Y499845D01*
X523004Y499843D01*
D11*
X388021Y367303D02*
X382828Y367303D01*
X382828Y378987D01*
X388021Y378987D01*
X386723Y373794D02*
X382828Y373794D01*
X397255Y373794D02*
X399203Y373794D01*
X399203Y367303D01*
X395308Y367303D01*
X395209Y367305D01*
X395109Y367311D01*
X395010Y367320D01*
X394912Y367333D01*
X394814Y367350D01*
X394716Y367371D01*
X394620Y367396D01*
X394525Y367424D01*
X394431Y367456D01*
X394338Y367491D01*
X394246Y367530D01*
X394156Y367573D01*
X394068Y367618D01*
X393981Y367668D01*
X393897Y367720D01*
X393814Y367776D01*
X393734Y367834D01*
X393656Y367896D01*
X393581Y367961D01*
X393508Y368029D01*
X393438Y368099D01*
X393370Y368172D01*
X393305Y368247D01*
X393243Y368325D01*
X393185Y368405D01*
X393129Y368488D01*
X393077Y368572D01*
X393027Y368659D01*
X392982Y368747D01*
X392939Y368837D01*
X392900Y368929D01*
X392865Y369022D01*
X392833Y369116D01*
X392805Y369211D01*
X392780Y369307D01*
X392759Y369405D01*
X392742Y369503D01*
X392729Y369601D01*
X392720Y369700D01*
X392714Y369800D01*
X392712Y369899D01*
X392711Y369899D02*
X392711Y376391D01*
X392712Y376391D02*
X392714Y376490D01*
X392720Y376590D01*
X392729Y376689D01*
X392742Y376787D01*
X392759Y376885D01*
X392780Y376983D01*
X392805Y377079D01*
X392833Y377174D01*
X392865Y377268D01*
X392900Y377361D01*
X392939Y377453D01*
X392982Y377543D01*
X393027Y377631D01*
X393077Y377718D01*
X393129Y377802D01*
X393185Y377885D01*
X393243Y377965D01*
X393305Y378043D01*
X393370Y378118D01*
X393438Y378191D01*
X393508Y378261D01*
X393581Y378329D01*
X393656Y378394D01*
X393734Y378456D01*
X393814Y378514D01*
X393897Y378570D01*
X393981Y378622D01*
X394068Y378672D01*
X394156Y378717D01*
X394246Y378760D01*
X394338Y378799D01*
X394430Y378834D01*
X394525Y378866D01*
X394620Y378894D01*
X394716Y378919D01*
X394814Y378940D01*
X394912Y378957D01*
X395010Y378970D01*
X395109Y378979D01*
X395209Y378985D01*
X395308Y378987D01*
X399203Y378987D01*
X404903Y378987D02*
X404903Y367303D01*
X404903Y373794D02*
X411394Y373794D01*
X411394Y378987D02*
X411394Y367303D01*
X416714Y369899D02*
X419311Y378987D01*
X416714Y369899D02*
X423205Y369899D01*
X421258Y372496D02*
X421258Y367303D01*
X428144Y376391D02*
X431390Y378987D01*
X431390Y367303D01*
X434635Y367303D02*
X428144Y367303D01*
X442171Y372496D02*
X446065Y372496D01*
X442171Y372496D02*
X442072Y372498D01*
X441972Y372504D01*
X441873Y372513D01*
X441775Y372526D01*
X441677Y372543D01*
X441579Y372564D01*
X441483Y372589D01*
X441388Y372617D01*
X441294Y372649D01*
X441201Y372684D01*
X441109Y372723D01*
X441019Y372766D01*
X440931Y372811D01*
X440844Y372861D01*
X440760Y372913D01*
X440677Y372969D01*
X440597Y373027D01*
X440519Y373089D01*
X440444Y373154D01*
X440371Y373222D01*
X440301Y373292D01*
X440233Y373365D01*
X440168Y373440D01*
X440106Y373518D01*
X440048Y373598D01*
X439992Y373681D01*
X439940Y373765D01*
X439890Y373852D01*
X439845Y373940D01*
X439802Y374030D01*
X439763Y374122D01*
X439728Y374215D01*
X439696Y374309D01*
X439668Y374404D01*
X439643Y374500D01*
X439622Y374598D01*
X439605Y374696D01*
X439592Y374794D01*
X439583Y374893D01*
X439577Y374993D01*
X439575Y375092D01*
X439574Y375092D02*
X439574Y375741D01*
X439576Y375854D01*
X439582Y375967D01*
X439592Y376080D01*
X439606Y376193D01*
X439623Y376305D01*
X439645Y376416D01*
X439670Y376526D01*
X439700Y376636D01*
X439733Y376744D01*
X439770Y376851D01*
X439810Y376957D01*
X439855Y377061D01*
X439903Y377164D01*
X439954Y377265D01*
X440009Y377364D01*
X440067Y377461D01*
X440129Y377556D01*
X440194Y377649D01*
X440262Y377739D01*
X440333Y377827D01*
X440408Y377913D01*
X440485Y377996D01*
X440565Y378076D01*
X440648Y378153D01*
X440734Y378228D01*
X440822Y378299D01*
X440912Y378367D01*
X441005Y378432D01*
X441100Y378494D01*
X441197Y378552D01*
X441296Y378607D01*
X441397Y378658D01*
X441500Y378706D01*
X441604Y378751D01*
X441710Y378791D01*
X441817Y378828D01*
X441925Y378861D01*
X442035Y378891D01*
X442145Y378916D01*
X442256Y378938D01*
X442368Y378955D01*
X442481Y378969D01*
X442594Y378979D01*
X442707Y378985D01*
X442820Y378987D01*
X442933Y378985D01*
X443046Y378979D01*
X443159Y378969D01*
X443272Y378955D01*
X443384Y378938D01*
X443495Y378916D01*
X443605Y378891D01*
X443715Y378861D01*
X443823Y378828D01*
X443930Y378791D01*
X444036Y378751D01*
X444140Y378706D01*
X444243Y378658D01*
X444344Y378607D01*
X444443Y378552D01*
X444540Y378494D01*
X444635Y378432D01*
X444728Y378367D01*
X444818Y378299D01*
X444906Y378228D01*
X444992Y378153D01*
X445075Y378076D01*
X445155Y377996D01*
X445232Y377913D01*
X445307Y377827D01*
X445378Y377739D01*
X445446Y377649D01*
X445511Y377556D01*
X445573Y377461D01*
X445631Y377364D01*
X445686Y377265D01*
X445737Y377164D01*
X445785Y377061D01*
X445830Y376957D01*
X445870Y376851D01*
X445907Y376744D01*
X445940Y376636D01*
X445970Y376526D01*
X445995Y376416D01*
X446017Y376305D01*
X446034Y376193D01*
X446048Y376080D01*
X446058Y375967D01*
X446064Y375854D01*
X446066Y375741D01*
X446065Y375741D02*
X446065Y372496D01*
X446066Y372496D02*
X446064Y372353D01*
X446058Y372210D01*
X446048Y372067D01*
X446034Y371925D01*
X446017Y371783D01*
X445995Y371641D01*
X445970Y371500D01*
X445940Y371360D01*
X445907Y371221D01*
X445870Y371083D01*
X445829Y370946D01*
X445785Y370810D01*
X445736Y370675D01*
X445684Y370542D01*
X445629Y370410D01*
X445569Y370280D01*
X445506Y370151D01*
X445440Y370024D01*
X445370Y369899D01*
X445297Y369777D01*
X445220Y369656D01*
X445140Y369537D01*
X445057Y369421D01*
X444971Y369306D01*
X444882Y369195D01*
X444789Y369085D01*
X444694Y368979D01*
X444595Y368875D01*
X444494Y368774D01*
X444390Y368675D01*
X444284Y368580D01*
X444174Y368487D01*
X444063Y368398D01*
X443948Y368312D01*
X443832Y368229D01*
X443713Y368149D01*
X443592Y368072D01*
X443470Y367999D01*
X443345Y367929D01*
X443218Y367863D01*
X443089Y367800D01*
X442959Y367740D01*
X442827Y367685D01*
X442694Y367633D01*
X442559Y367584D01*
X442423Y367540D01*
X442286Y367499D01*
X442148Y367462D01*
X442009Y367429D01*
X441869Y367399D01*
X441728Y367374D01*
X441586Y367352D01*
X441444Y367335D01*
X441302Y367321D01*
X441159Y367311D01*
X441016Y367305D01*
X440873Y367303D01*
X450877Y368277D02*
X450877Y368926D01*
X451526Y368926D01*
X451526Y368277D01*
X450877Y368277D01*
X450877Y373470D02*
X450877Y374119D01*
X451526Y374119D01*
X451526Y373470D01*
X450877Y373470D01*
X464918Y378987D02*
X464918Y367303D01*
X461672Y378987D02*
X468163Y378987D01*
X474175Y367303D02*
X477420Y367303D01*
X474175Y367303D02*
X474088Y367305D01*
X474000Y367311D01*
X473914Y367321D01*
X473827Y367334D01*
X473742Y367352D01*
X473657Y367373D01*
X473573Y367398D01*
X473491Y367427D01*
X473410Y367460D01*
X473330Y367496D01*
X473252Y367535D01*
X473176Y367579D01*
X473102Y367625D01*
X473031Y367675D01*
X472961Y367728D01*
X472894Y367784D01*
X472830Y367843D01*
X472768Y367905D01*
X472709Y367969D01*
X472653Y368036D01*
X472600Y368106D01*
X472550Y368177D01*
X472504Y368251D01*
X472460Y368327D01*
X472421Y368405D01*
X472385Y368485D01*
X472352Y368566D01*
X472323Y368648D01*
X472298Y368732D01*
X472277Y368817D01*
X472259Y368902D01*
X472246Y368989D01*
X472236Y369075D01*
X472230Y369163D01*
X472228Y369250D01*
X472227Y369250D02*
X472227Y372496D01*
X472228Y372496D02*
X472230Y372597D01*
X472236Y372697D01*
X472246Y372797D01*
X472259Y372897D01*
X472277Y372996D01*
X472298Y373095D01*
X472323Y373192D01*
X472352Y373289D01*
X472385Y373384D01*
X472421Y373478D01*
X472461Y373570D01*
X472504Y373661D01*
X472551Y373750D01*
X472601Y373837D01*
X472655Y373923D01*
X472712Y374006D01*
X472772Y374086D01*
X472835Y374165D01*
X472902Y374241D01*
X472971Y374314D01*
X473043Y374384D01*
X473117Y374452D01*
X473194Y374517D01*
X473274Y374578D01*
X473356Y374637D01*
X473440Y374692D01*
X473526Y374744D01*
X473614Y374793D01*
X473704Y374838D01*
X473796Y374880D01*
X473889Y374918D01*
X473984Y374952D01*
X474079Y374983D01*
X474176Y375010D01*
X474274Y375033D01*
X474373Y375053D01*
X474473Y375068D01*
X474573Y375080D01*
X474673Y375088D01*
X474774Y375092D01*
X474874Y375092D01*
X474975Y375088D01*
X475075Y375080D01*
X475175Y375068D01*
X475275Y375053D01*
X475374Y375033D01*
X475472Y375010D01*
X475569Y374983D01*
X475664Y374952D01*
X475759Y374918D01*
X475852Y374880D01*
X475944Y374838D01*
X476034Y374793D01*
X476122Y374744D01*
X476208Y374692D01*
X476292Y374637D01*
X476374Y374578D01*
X476454Y374517D01*
X476531Y374452D01*
X476605Y374384D01*
X476677Y374314D01*
X476746Y374241D01*
X476813Y374165D01*
X476876Y374086D01*
X476936Y374006D01*
X476993Y373923D01*
X477047Y373837D01*
X477097Y373750D01*
X477144Y373661D01*
X477187Y373570D01*
X477227Y373478D01*
X477263Y373384D01*
X477296Y373289D01*
X477325Y373192D01*
X477350Y373095D01*
X477371Y372996D01*
X477389Y372897D01*
X477402Y372797D01*
X477412Y372697D01*
X477418Y372597D01*
X477420Y372496D01*
X477420Y371198D01*
X472227Y371198D01*
X484346Y371847D02*
X487267Y371847D01*
X484346Y371847D02*
X484252Y371845D01*
X484158Y371839D01*
X484065Y371830D01*
X483972Y371816D01*
X483880Y371799D01*
X483788Y371777D01*
X483698Y371753D01*
X483608Y371724D01*
X483520Y371692D01*
X483433Y371656D01*
X483348Y371616D01*
X483265Y371573D01*
X483183Y371527D01*
X483103Y371477D01*
X483026Y371424D01*
X482951Y371368D01*
X482878Y371309D01*
X482807Y371247D01*
X482739Y371182D01*
X482674Y371114D01*
X482612Y371043D01*
X482553Y370970D01*
X482497Y370895D01*
X482444Y370818D01*
X482394Y370738D01*
X482348Y370656D01*
X482305Y370573D01*
X482265Y370488D01*
X482229Y370401D01*
X482197Y370313D01*
X482168Y370223D01*
X482144Y370133D01*
X482122Y370041D01*
X482105Y369949D01*
X482091Y369856D01*
X482082Y369763D01*
X482076Y369669D01*
X482074Y369575D01*
X482076Y369481D01*
X482082Y369387D01*
X482091Y369294D01*
X482105Y369201D01*
X482122Y369109D01*
X482144Y369017D01*
X482168Y368927D01*
X482197Y368837D01*
X482229Y368749D01*
X482265Y368662D01*
X482305Y368577D01*
X482348Y368494D01*
X482394Y368412D01*
X482444Y368332D01*
X482497Y368255D01*
X482553Y368180D01*
X482612Y368107D01*
X482674Y368036D01*
X482739Y367968D01*
X482807Y367903D01*
X482878Y367841D01*
X482951Y367782D01*
X483026Y367726D01*
X483103Y367673D01*
X483183Y367623D01*
X483265Y367577D01*
X483348Y367534D01*
X483433Y367494D01*
X483520Y367458D01*
X483608Y367426D01*
X483698Y367397D01*
X483788Y367373D01*
X483880Y367351D01*
X483972Y367334D01*
X484065Y367320D01*
X484158Y367311D01*
X484252Y367305D01*
X484346Y367303D01*
X487267Y367303D01*
X487267Y373145D01*
X487265Y373232D01*
X487259Y373320D01*
X487249Y373406D01*
X487236Y373493D01*
X487218Y373578D01*
X487197Y373663D01*
X487172Y373747D01*
X487143Y373829D01*
X487110Y373910D01*
X487074Y373990D01*
X487035Y374068D01*
X486991Y374144D01*
X486945Y374218D01*
X486895Y374289D01*
X486842Y374359D01*
X486786Y374426D01*
X486727Y374490D01*
X486665Y374552D01*
X486601Y374611D01*
X486534Y374667D01*
X486464Y374720D01*
X486393Y374770D01*
X486319Y374816D01*
X486243Y374860D01*
X486165Y374899D01*
X486085Y374935D01*
X486004Y374968D01*
X485922Y374997D01*
X485838Y375022D01*
X485753Y375043D01*
X485668Y375061D01*
X485581Y375074D01*
X485495Y375084D01*
X485407Y375090D01*
X485320Y375092D01*
X482724Y375092D01*
X493027Y375092D02*
X493027Y367303D01*
X493027Y375092D02*
X498869Y375092D01*
X498956Y375090D01*
X499044Y375084D01*
X499130Y375074D01*
X499217Y375061D01*
X499302Y375043D01*
X499387Y375022D01*
X499471Y374997D01*
X499553Y374968D01*
X499634Y374935D01*
X499714Y374899D01*
X499792Y374860D01*
X499868Y374816D01*
X499942Y374770D01*
X500013Y374720D01*
X500083Y374667D01*
X500150Y374611D01*
X500214Y374552D01*
X500276Y374490D01*
X500335Y374426D01*
X500391Y374359D01*
X500444Y374289D01*
X500494Y374218D01*
X500540Y374144D01*
X500584Y374068D01*
X500623Y373990D01*
X500659Y373910D01*
X500692Y373829D01*
X500721Y373747D01*
X500746Y373663D01*
X500767Y373578D01*
X500785Y373493D01*
X500798Y373406D01*
X500808Y373320D01*
X500814Y373232D01*
X500816Y373145D01*
X500816Y367303D01*
X496922Y367303D02*
X496922Y375092D01*
X512345Y376391D02*
X515591Y378987D01*
X515591Y367303D01*
X518836Y367303D02*
X512345Y367303D01*
D12*
X381000Y584200D02*
X372110Y584200D01*
X313690Y584200D02*
X304800Y584200D01*
D13*
X336550Y584200D02*
X342900Y584200D01*
X353060Y590550D02*
X353060Y577850D01*
X342900Y584200D01*
X358140Y584200D01*
X353060Y590550D02*
X342900Y584200D01*
X342900Y590550D01*
X342900Y584200D02*
X342900Y577850D01*
X363220Y594360D02*
X363320Y594358D01*
X363419Y594352D01*
X363519Y594342D01*
X363617Y594329D01*
X363716Y594311D01*
X363813Y594290D01*
X363909Y594265D01*
X364005Y594236D01*
X364099Y594203D01*
X364192Y594167D01*
X364283Y594127D01*
X364373Y594083D01*
X364461Y594036D01*
X364547Y593986D01*
X364631Y593932D01*
X364713Y593875D01*
X364792Y593815D01*
X364870Y593751D01*
X364944Y593685D01*
X365016Y593616D01*
X365085Y593544D01*
X365151Y593470D01*
X365215Y593392D01*
X365275Y593313D01*
X365332Y593231D01*
X365386Y593147D01*
X365436Y593061D01*
X365483Y592973D01*
X365527Y592883D01*
X365567Y592792D01*
X365603Y592699D01*
X365636Y592605D01*
X365665Y592509D01*
X365690Y592413D01*
X365711Y592316D01*
X365729Y592217D01*
X365742Y592119D01*
X365752Y592019D01*
X365758Y591920D01*
X365760Y591820D01*
X365760Y576580D01*
X365758Y576480D01*
X365752Y576381D01*
X365742Y576281D01*
X365729Y576183D01*
X365711Y576084D01*
X365690Y575987D01*
X365665Y575891D01*
X365636Y575795D01*
X365603Y575701D01*
X365567Y575608D01*
X365527Y575517D01*
X365483Y575427D01*
X365436Y575339D01*
X365386Y575253D01*
X365332Y575169D01*
X365275Y575087D01*
X365215Y575008D01*
X365151Y574930D01*
X365085Y574856D01*
X365016Y574784D01*
X364944Y574715D01*
X364870Y574649D01*
X364792Y574585D01*
X364713Y574525D01*
X364631Y574468D01*
X364547Y574414D01*
X364461Y574364D01*
X364373Y574317D01*
X364283Y574273D01*
X364192Y574233D01*
X364099Y574197D01*
X364005Y574164D01*
X363909Y574135D01*
X363813Y574110D01*
X363716Y574089D01*
X363617Y574071D01*
X363519Y574058D01*
X363419Y574048D01*
X363320Y574042D01*
X363220Y574040D01*
X322580Y594360D02*
X322480Y594358D01*
X322381Y594352D01*
X322281Y594342D01*
X322183Y594329D01*
X322084Y594311D01*
X321987Y594290D01*
X321891Y594265D01*
X321795Y594236D01*
X321701Y594203D01*
X321608Y594167D01*
X321517Y594127D01*
X321427Y594083D01*
X321339Y594036D01*
X321253Y593986D01*
X321169Y593932D01*
X321087Y593875D01*
X321008Y593815D01*
X320930Y593751D01*
X320856Y593685D01*
X320784Y593616D01*
X320715Y593544D01*
X320649Y593470D01*
X320585Y593392D01*
X320525Y593313D01*
X320468Y593231D01*
X320414Y593147D01*
X320364Y593061D01*
X320317Y592973D01*
X320273Y592883D01*
X320233Y592792D01*
X320197Y592699D01*
X320164Y592605D01*
X320135Y592509D01*
X320110Y592413D01*
X320089Y592316D01*
X320071Y592217D01*
X320058Y592119D01*
X320048Y592019D01*
X320042Y591920D01*
X320040Y591820D01*
X320040Y576580D02*
X320042Y576480D01*
X320048Y576381D01*
X320058Y576281D01*
X320071Y576183D01*
X320089Y576084D01*
X320110Y575987D01*
X320135Y575891D01*
X320164Y575795D01*
X320197Y575701D01*
X320233Y575608D01*
X320273Y575517D01*
X320317Y575427D01*
X320364Y575339D01*
X320414Y575253D01*
X320468Y575169D01*
X320525Y575087D01*
X320585Y575008D01*
X320649Y574930D01*
X320715Y574856D01*
X320784Y574784D01*
X320856Y574715D01*
X320930Y574649D01*
X321008Y574585D01*
X321087Y574525D01*
X321169Y574468D01*
X321253Y574414D01*
X321339Y574364D01*
X321427Y574317D01*
X321517Y574273D01*
X321608Y574233D01*
X321701Y574197D01*
X321795Y574164D01*
X321891Y574135D01*
X321987Y574110D01*
X322084Y574089D01*
X322183Y574071D01*
X322281Y574058D01*
X322381Y574048D01*
X322480Y574042D01*
X322580Y574040D01*
X363220Y574040D01*
X320040Y576580D02*
X320040Y591820D01*
X322580Y594360D02*
X363220Y594360D01*
D14*
X326390Y584200D03*
D15*
X368935Y584200D03*
X316865Y584200D03*
D12*
X372110Y546100D02*
X381000Y546100D01*
X313690Y546100D02*
X304800Y546100D01*
D13*
X336550Y546100D02*
X342900Y546100D01*
X353060Y552450D02*
X353060Y539750D01*
X342900Y546100D01*
X358140Y546100D01*
X353060Y552450D02*
X342900Y546100D01*
X342900Y552450D01*
X342900Y546100D02*
X342900Y539750D01*
X363220Y556260D02*
X363320Y556258D01*
X363419Y556252D01*
X363519Y556242D01*
X363617Y556229D01*
X363716Y556211D01*
X363813Y556190D01*
X363909Y556165D01*
X364005Y556136D01*
X364099Y556103D01*
X364192Y556067D01*
X364283Y556027D01*
X364373Y555983D01*
X364461Y555936D01*
X364547Y555886D01*
X364631Y555832D01*
X364713Y555775D01*
X364792Y555715D01*
X364870Y555651D01*
X364944Y555585D01*
X365016Y555516D01*
X365085Y555444D01*
X365151Y555370D01*
X365215Y555292D01*
X365275Y555213D01*
X365332Y555131D01*
X365386Y555047D01*
X365436Y554961D01*
X365483Y554873D01*
X365527Y554783D01*
X365567Y554692D01*
X365603Y554599D01*
X365636Y554505D01*
X365665Y554409D01*
X365690Y554313D01*
X365711Y554216D01*
X365729Y554117D01*
X365742Y554019D01*
X365752Y553919D01*
X365758Y553820D01*
X365760Y553720D01*
X365760Y538480D01*
X365758Y538380D01*
X365752Y538281D01*
X365742Y538181D01*
X365729Y538083D01*
X365711Y537984D01*
X365690Y537887D01*
X365665Y537791D01*
X365636Y537695D01*
X365603Y537601D01*
X365567Y537508D01*
X365527Y537417D01*
X365483Y537327D01*
X365436Y537239D01*
X365386Y537153D01*
X365332Y537069D01*
X365275Y536987D01*
X365215Y536908D01*
X365151Y536830D01*
X365085Y536756D01*
X365016Y536684D01*
X364944Y536615D01*
X364870Y536549D01*
X364792Y536485D01*
X364713Y536425D01*
X364631Y536368D01*
X364547Y536314D01*
X364461Y536264D01*
X364373Y536217D01*
X364283Y536173D01*
X364192Y536133D01*
X364099Y536097D01*
X364005Y536064D01*
X363909Y536035D01*
X363813Y536010D01*
X363716Y535989D01*
X363617Y535971D01*
X363519Y535958D01*
X363419Y535948D01*
X363320Y535942D01*
X363220Y535940D01*
X322580Y556260D02*
X322480Y556258D01*
X322381Y556252D01*
X322281Y556242D01*
X322183Y556229D01*
X322084Y556211D01*
X321987Y556190D01*
X321891Y556165D01*
X321795Y556136D01*
X321701Y556103D01*
X321608Y556067D01*
X321517Y556027D01*
X321427Y555983D01*
X321339Y555936D01*
X321253Y555886D01*
X321169Y555832D01*
X321087Y555775D01*
X321008Y555715D01*
X320930Y555651D01*
X320856Y555585D01*
X320784Y555516D01*
X320715Y555444D01*
X320649Y555370D01*
X320585Y555292D01*
X320525Y555213D01*
X320468Y555131D01*
X320414Y555047D01*
X320364Y554961D01*
X320317Y554873D01*
X320273Y554783D01*
X320233Y554692D01*
X320197Y554599D01*
X320164Y554505D01*
X320135Y554409D01*
X320110Y554313D01*
X320089Y554216D01*
X320071Y554117D01*
X320058Y554019D01*
X320048Y553919D01*
X320042Y553820D01*
X320040Y553720D01*
X320040Y538480D02*
X320042Y538380D01*
X320048Y538281D01*
X320058Y538181D01*
X320071Y538083D01*
X320089Y537984D01*
X320110Y537887D01*
X320135Y537791D01*
X320164Y537695D01*
X320197Y537601D01*
X320233Y537508D01*
X320273Y537417D01*
X320317Y537327D01*
X320364Y537239D01*
X320414Y537153D01*
X320468Y537069D01*
X320525Y536987D01*
X320585Y536908D01*
X320649Y536830D01*
X320715Y536756D01*
X320784Y536684D01*
X320856Y536615D01*
X320930Y536549D01*
X321008Y536485D01*
X321087Y536425D01*
X321169Y536368D01*
X321253Y536314D01*
X321339Y536264D01*
X321427Y536217D01*
X321517Y536173D01*
X321608Y536133D01*
X321701Y536097D01*
X321795Y536064D01*
X321891Y536035D01*
X321987Y536010D01*
X322084Y535989D01*
X322183Y535971D01*
X322281Y535958D01*
X322381Y535948D01*
X322480Y535942D01*
X322580Y535940D01*
X363220Y535940D01*
X320040Y538480D02*
X320040Y553720D01*
X322580Y556260D02*
X363220Y556260D01*
D14*
X326390Y546100D03*
D15*
X368935Y546100D03*
X316865Y546100D03*
D12*
X254000Y584200D02*
X245110Y584200D01*
X186690Y584200D02*
X177800Y584200D01*
D13*
X209550Y584200D02*
X215900Y584200D01*
X226060Y590550D02*
X226060Y577850D01*
X215900Y584200D01*
X231140Y584200D01*
X226060Y590550D02*
X215900Y584200D01*
X215900Y590550D01*
X215900Y584200D02*
X215900Y577850D01*
X236220Y594360D02*
X236320Y594358D01*
X236419Y594352D01*
X236519Y594342D01*
X236617Y594329D01*
X236716Y594311D01*
X236813Y594290D01*
X236909Y594265D01*
X237005Y594236D01*
X237099Y594203D01*
X237192Y594167D01*
X237283Y594127D01*
X237373Y594083D01*
X237461Y594036D01*
X237547Y593986D01*
X237631Y593932D01*
X237713Y593875D01*
X237792Y593815D01*
X237870Y593751D01*
X237944Y593685D01*
X238016Y593616D01*
X238085Y593544D01*
X238151Y593470D01*
X238215Y593392D01*
X238275Y593313D01*
X238332Y593231D01*
X238386Y593147D01*
X238436Y593061D01*
X238483Y592973D01*
X238527Y592883D01*
X238567Y592792D01*
X238603Y592699D01*
X238636Y592605D01*
X238665Y592509D01*
X238690Y592413D01*
X238711Y592316D01*
X238729Y592217D01*
X238742Y592119D01*
X238752Y592019D01*
X238758Y591920D01*
X238760Y591820D01*
X238760Y576580D01*
X238758Y576480D01*
X238752Y576381D01*
X238742Y576281D01*
X238729Y576183D01*
X238711Y576084D01*
X238690Y575987D01*
X238665Y575891D01*
X238636Y575795D01*
X238603Y575701D01*
X238567Y575608D01*
X238527Y575517D01*
X238483Y575427D01*
X238436Y575339D01*
X238386Y575253D01*
X238332Y575169D01*
X238275Y575087D01*
X238215Y575008D01*
X238151Y574930D01*
X238085Y574856D01*
X238016Y574784D01*
X237944Y574715D01*
X237870Y574649D01*
X237792Y574585D01*
X237713Y574525D01*
X237631Y574468D01*
X237547Y574414D01*
X237461Y574364D01*
X237373Y574317D01*
X237283Y574273D01*
X237192Y574233D01*
X237099Y574197D01*
X237005Y574164D01*
X236909Y574135D01*
X236813Y574110D01*
X236716Y574089D01*
X236617Y574071D01*
X236519Y574058D01*
X236419Y574048D01*
X236320Y574042D01*
X236220Y574040D01*
X195580Y594360D02*
X195480Y594358D01*
X195381Y594352D01*
X195281Y594342D01*
X195183Y594329D01*
X195084Y594311D01*
X194987Y594290D01*
X194891Y594265D01*
X194795Y594236D01*
X194701Y594203D01*
X194608Y594167D01*
X194517Y594127D01*
X194427Y594083D01*
X194339Y594036D01*
X194253Y593986D01*
X194169Y593932D01*
X194087Y593875D01*
X194008Y593815D01*
X193930Y593751D01*
X193856Y593685D01*
X193784Y593616D01*
X193715Y593544D01*
X193649Y593470D01*
X193585Y593392D01*
X193525Y593313D01*
X193468Y593231D01*
X193414Y593147D01*
X193364Y593061D01*
X193317Y592973D01*
X193273Y592883D01*
X193233Y592792D01*
X193197Y592699D01*
X193164Y592605D01*
X193135Y592509D01*
X193110Y592413D01*
X193089Y592316D01*
X193071Y592217D01*
X193058Y592119D01*
X193048Y592019D01*
X193042Y591920D01*
X193040Y591820D01*
X193040Y576580D02*
X193042Y576480D01*
X193048Y576381D01*
X193058Y576281D01*
X193071Y576183D01*
X193089Y576084D01*
X193110Y575987D01*
X193135Y575891D01*
X193164Y575795D01*
X193197Y575701D01*
X193233Y575608D01*
X193273Y575517D01*
X193317Y575427D01*
X193364Y575339D01*
X193414Y575253D01*
X193468Y575169D01*
X193525Y575087D01*
X193585Y575008D01*
X193649Y574930D01*
X193715Y574856D01*
X193784Y574784D01*
X193856Y574715D01*
X193930Y574649D01*
X194008Y574585D01*
X194087Y574525D01*
X194169Y574468D01*
X194253Y574414D01*
X194339Y574364D01*
X194427Y574317D01*
X194517Y574273D01*
X194608Y574233D01*
X194701Y574197D01*
X194795Y574164D01*
X194891Y574135D01*
X194987Y574110D01*
X195084Y574089D01*
X195183Y574071D01*
X195281Y574058D01*
X195381Y574048D01*
X195480Y574042D01*
X195580Y574040D01*
X236220Y574040D01*
X193040Y576580D02*
X193040Y591820D01*
X195580Y594360D02*
X236220Y594360D01*
D14*
X199390Y584200D03*
D15*
X241935Y584200D03*
X189865Y584200D03*
D12*
X245110Y546100D02*
X254000Y546100D01*
X186690Y546100D02*
X177800Y546100D01*
D13*
X209550Y546100D02*
X215900Y546100D01*
X226060Y552450D02*
X226060Y539750D01*
X215900Y546100D01*
X231140Y546100D01*
X226060Y552450D02*
X215900Y546100D01*
X215900Y552450D01*
X215900Y546100D02*
X215900Y539750D01*
X236220Y556260D02*
X236320Y556258D01*
X236419Y556252D01*
X236519Y556242D01*
X236617Y556229D01*
X236716Y556211D01*
X236813Y556190D01*
X236909Y556165D01*
X237005Y556136D01*
X237099Y556103D01*
X237192Y556067D01*
X237283Y556027D01*
X237373Y555983D01*
X237461Y555936D01*
X237547Y555886D01*
X237631Y555832D01*
X237713Y555775D01*
X237792Y555715D01*
X237870Y555651D01*
X237944Y555585D01*
X238016Y555516D01*
X238085Y555444D01*
X238151Y555370D01*
X238215Y555292D01*
X238275Y555213D01*
X238332Y555131D01*
X238386Y555047D01*
X238436Y554961D01*
X238483Y554873D01*
X238527Y554783D01*
X238567Y554692D01*
X238603Y554599D01*
X238636Y554505D01*
X238665Y554409D01*
X238690Y554313D01*
X238711Y554216D01*
X238729Y554117D01*
X238742Y554019D01*
X238752Y553919D01*
X238758Y553820D01*
X238760Y553720D01*
X238760Y538480D01*
X238758Y538380D01*
X238752Y538281D01*
X238742Y538181D01*
X238729Y538083D01*
X238711Y537984D01*
X238690Y537887D01*
X238665Y537791D01*
X238636Y537695D01*
X238603Y537601D01*
X238567Y537508D01*
X238527Y537417D01*
X238483Y537327D01*
X238436Y537239D01*
X238386Y537153D01*
X238332Y537069D01*
X238275Y536987D01*
X238215Y536908D01*
X238151Y536830D01*
X238085Y536756D01*
X238016Y536684D01*
X237944Y536615D01*
X237870Y536549D01*
X237792Y536485D01*
X237713Y536425D01*
X237631Y536368D01*
X237547Y536314D01*
X237461Y536264D01*
X237373Y536217D01*
X237283Y536173D01*
X237192Y536133D01*
X237099Y536097D01*
X237005Y536064D01*
X236909Y536035D01*
X236813Y536010D01*
X236716Y535989D01*
X236617Y535971D01*
X236519Y535958D01*
X236419Y535948D01*
X236320Y535942D01*
X236220Y535940D01*
X195580Y556260D02*
X195480Y556258D01*
X195381Y556252D01*
X195281Y556242D01*
X195183Y556229D01*
X195084Y556211D01*
X194987Y556190D01*
X194891Y556165D01*
X194795Y556136D01*
X194701Y556103D01*
X194608Y556067D01*
X194517Y556027D01*
X194427Y555983D01*
X194339Y555936D01*
X194253Y555886D01*
X194169Y555832D01*
X194087Y555775D01*
X194008Y555715D01*
X193930Y555651D01*
X193856Y555585D01*
X193784Y555516D01*
X193715Y555444D01*
X193649Y555370D01*
X193585Y555292D01*
X193525Y555213D01*
X193468Y555131D01*
X193414Y555047D01*
X193364Y554961D01*
X193317Y554873D01*
X193273Y554783D01*
X193233Y554692D01*
X193197Y554599D01*
X193164Y554505D01*
X193135Y554409D01*
X193110Y554313D01*
X193089Y554216D01*
X193071Y554117D01*
X193058Y554019D01*
X193048Y553919D01*
X193042Y553820D01*
X193040Y553720D01*
X193040Y538480D02*
X193042Y538380D01*
X193048Y538281D01*
X193058Y538181D01*
X193071Y538083D01*
X193089Y537984D01*
X193110Y537887D01*
X193135Y537791D01*
X193164Y537695D01*
X193197Y537601D01*
X193233Y537508D01*
X193273Y537417D01*
X193317Y537327D01*
X193364Y537239D01*
X193414Y537153D01*
X193468Y537069D01*
X193525Y536987D01*
X193585Y536908D01*
X193649Y536830D01*
X193715Y536756D01*
X193784Y536684D01*
X193856Y536615D01*
X193930Y536549D01*
X194008Y536485D01*
X194087Y536425D01*
X194169Y536368D01*
X194253Y536314D01*
X194339Y536264D01*
X194427Y536217D01*
X194517Y536173D01*
X194608Y536133D01*
X194701Y536097D01*
X194795Y536064D01*
X194891Y536035D01*
X194987Y536010D01*
X195084Y535989D01*
X195183Y535971D01*
X195281Y535958D01*
X195381Y535948D01*
X195480Y535942D01*
X195580Y535940D01*
X236220Y535940D01*
X193040Y538480D02*
X193040Y553720D01*
X195580Y556260D02*
X236220Y556260D01*
D14*
X199390Y546100D03*
D15*
X241935Y546100D03*
X189865Y546100D03*
D12*
X372110Y508000D02*
X381000Y508000D01*
X313690Y508000D02*
X304800Y508000D01*
D13*
X336550Y508000D02*
X342900Y508000D01*
X353060Y514350D02*
X353060Y501650D01*
X342900Y508000D01*
X358140Y508000D01*
X353060Y514350D02*
X342900Y508000D01*
X342900Y514350D01*
X342900Y508000D02*
X342900Y501650D01*
X363220Y518160D02*
X363320Y518158D01*
X363419Y518152D01*
X363519Y518142D01*
X363617Y518129D01*
X363716Y518111D01*
X363813Y518090D01*
X363909Y518065D01*
X364005Y518036D01*
X364099Y518003D01*
X364192Y517967D01*
X364283Y517927D01*
X364373Y517883D01*
X364461Y517836D01*
X364547Y517786D01*
X364631Y517732D01*
X364713Y517675D01*
X364792Y517615D01*
X364870Y517551D01*
X364944Y517485D01*
X365016Y517416D01*
X365085Y517344D01*
X365151Y517270D01*
X365215Y517192D01*
X365275Y517113D01*
X365332Y517031D01*
X365386Y516947D01*
X365436Y516861D01*
X365483Y516773D01*
X365527Y516683D01*
X365567Y516592D01*
X365603Y516499D01*
X365636Y516405D01*
X365665Y516309D01*
X365690Y516213D01*
X365711Y516116D01*
X365729Y516017D01*
X365742Y515919D01*
X365752Y515819D01*
X365758Y515720D01*
X365760Y515620D01*
X365760Y500380D01*
X365758Y500280D01*
X365752Y500181D01*
X365742Y500081D01*
X365729Y499983D01*
X365711Y499884D01*
X365690Y499787D01*
X365665Y499691D01*
X365636Y499595D01*
X365603Y499501D01*
X365567Y499408D01*
X365527Y499317D01*
X365483Y499227D01*
X365436Y499139D01*
X365386Y499053D01*
X365332Y498969D01*
X365275Y498887D01*
X365215Y498808D01*
X365151Y498730D01*
X365085Y498656D01*
X365016Y498584D01*
X364944Y498515D01*
X364870Y498449D01*
X364792Y498385D01*
X364713Y498325D01*
X364631Y498268D01*
X364547Y498214D01*
X364461Y498164D01*
X364373Y498117D01*
X364283Y498073D01*
X364192Y498033D01*
X364099Y497997D01*
X364005Y497964D01*
X363909Y497935D01*
X363813Y497910D01*
X363716Y497889D01*
X363617Y497871D01*
X363519Y497858D01*
X363419Y497848D01*
X363320Y497842D01*
X363220Y497840D01*
X322580Y518160D02*
X322480Y518158D01*
X322381Y518152D01*
X322281Y518142D01*
X322183Y518129D01*
X322084Y518111D01*
X321987Y518090D01*
X321891Y518065D01*
X321795Y518036D01*
X321701Y518003D01*
X321608Y517967D01*
X321517Y517927D01*
X321427Y517883D01*
X321339Y517836D01*
X321253Y517786D01*
X321169Y517732D01*
X321087Y517675D01*
X321008Y517615D01*
X320930Y517551D01*
X320856Y517485D01*
X320784Y517416D01*
X320715Y517344D01*
X320649Y517270D01*
X320585Y517192D01*
X320525Y517113D01*
X320468Y517031D01*
X320414Y516947D01*
X320364Y516861D01*
X320317Y516773D01*
X320273Y516683D01*
X320233Y516592D01*
X320197Y516499D01*
X320164Y516405D01*
X320135Y516309D01*
X320110Y516213D01*
X320089Y516116D01*
X320071Y516017D01*
X320058Y515919D01*
X320048Y515819D01*
X320042Y515720D01*
X320040Y515620D01*
X320040Y500380D02*
X320042Y500280D01*
X320048Y500181D01*
X320058Y500081D01*
X320071Y499983D01*
X320089Y499884D01*
X320110Y499787D01*
X320135Y499691D01*
X320164Y499595D01*
X320197Y499501D01*
X320233Y499408D01*
X320273Y499317D01*
X320317Y499227D01*
X320364Y499139D01*
X320414Y499053D01*
X320468Y498969D01*
X320525Y498887D01*
X320585Y498808D01*
X320649Y498730D01*
X320715Y498656D01*
X320784Y498584D01*
X320856Y498515D01*
X320930Y498449D01*
X321008Y498385D01*
X321087Y498325D01*
X321169Y498268D01*
X321253Y498214D01*
X321339Y498164D01*
X321427Y498117D01*
X321517Y498073D01*
X321608Y498033D01*
X321701Y497997D01*
X321795Y497964D01*
X321891Y497935D01*
X321987Y497910D01*
X322084Y497889D01*
X322183Y497871D01*
X322281Y497858D01*
X322381Y497848D01*
X322480Y497842D01*
X322580Y497840D01*
X363220Y497840D01*
X320040Y500380D02*
X320040Y515620D01*
X322580Y518160D02*
X363220Y518160D01*
D14*
X326390Y508000D03*
D15*
X368935Y508000D03*
X316865Y508000D03*
D12*
X372110Y469900D02*
X381000Y469900D01*
X313690Y469900D02*
X304800Y469900D01*
D13*
X336550Y469900D02*
X342900Y469900D01*
X353060Y476250D02*
X353060Y463550D01*
X342900Y469900D01*
X358140Y469900D01*
X353060Y476250D02*
X342900Y469900D01*
X342900Y476250D01*
X342900Y469900D02*
X342900Y463550D01*
X363220Y480060D02*
X363320Y480058D01*
X363419Y480052D01*
X363519Y480042D01*
X363617Y480029D01*
X363716Y480011D01*
X363813Y479990D01*
X363909Y479965D01*
X364005Y479936D01*
X364099Y479903D01*
X364192Y479867D01*
X364283Y479827D01*
X364373Y479783D01*
X364461Y479736D01*
X364547Y479686D01*
X364631Y479632D01*
X364713Y479575D01*
X364792Y479515D01*
X364870Y479451D01*
X364944Y479385D01*
X365016Y479316D01*
X365085Y479244D01*
X365151Y479170D01*
X365215Y479092D01*
X365275Y479013D01*
X365332Y478931D01*
X365386Y478847D01*
X365436Y478761D01*
X365483Y478673D01*
X365527Y478583D01*
X365567Y478492D01*
X365603Y478399D01*
X365636Y478305D01*
X365665Y478209D01*
X365690Y478113D01*
X365711Y478016D01*
X365729Y477917D01*
X365742Y477819D01*
X365752Y477719D01*
X365758Y477620D01*
X365760Y477520D01*
X365760Y462280D01*
X365758Y462180D01*
X365752Y462081D01*
X365742Y461981D01*
X365729Y461883D01*
X365711Y461784D01*
X365690Y461687D01*
X365665Y461591D01*
X365636Y461495D01*
X365603Y461401D01*
X365567Y461308D01*
X365527Y461217D01*
X365483Y461127D01*
X365436Y461039D01*
X365386Y460953D01*
X365332Y460869D01*
X365275Y460787D01*
X365215Y460708D01*
X365151Y460630D01*
X365085Y460556D01*
X365016Y460484D01*
X364944Y460415D01*
X364870Y460349D01*
X364792Y460285D01*
X364713Y460225D01*
X364631Y460168D01*
X364547Y460114D01*
X364461Y460064D01*
X364373Y460017D01*
X364283Y459973D01*
X364192Y459933D01*
X364099Y459897D01*
X364005Y459864D01*
X363909Y459835D01*
X363813Y459810D01*
X363716Y459789D01*
X363617Y459771D01*
X363519Y459758D01*
X363419Y459748D01*
X363320Y459742D01*
X363220Y459740D01*
X322580Y480060D02*
X322480Y480058D01*
X322381Y480052D01*
X322281Y480042D01*
X322183Y480029D01*
X322084Y480011D01*
X321987Y479990D01*
X321891Y479965D01*
X321795Y479936D01*
X321701Y479903D01*
X321608Y479867D01*
X321517Y479827D01*
X321427Y479783D01*
X321339Y479736D01*
X321253Y479686D01*
X321169Y479632D01*
X321087Y479575D01*
X321008Y479515D01*
X320930Y479451D01*
X320856Y479385D01*
X320784Y479316D01*
X320715Y479244D01*
X320649Y479170D01*
X320585Y479092D01*
X320525Y479013D01*
X320468Y478931D01*
X320414Y478847D01*
X320364Y478761D01*
X320317Y478673D01*
X320273Y478583D01*
X320233Y478492D01*
X320197Y478399D01*
X320164Y478305D01*
X320135Y478209D01*
X320110Y478113D01*
X320089Y478016D01*
X320071Y477917D01*
X320058Y477819D01*
X320048Y477719D01*
X320042Y477620D01*
X320040Y477520D01*
X320040Y462280D02*
X320042Y462180D01*
X320048Y462081D01*
X320058Y461981D01*
X320071Y461883D01*
X320089Y461784D01*
X320110Y461687D01*
X320135Y461591D01*
X320164Y461495D01*
X320197Y461401D01*
X320233Y461308D01*
X320273Y461217D01*
X320317Y461127D01*
X320364Y461039D01*
X320414Y460953D01*
X320468Y460869D01*
X320525Y460787D01*
X320585Y460708D01*
X320649Y460630D01*
X320715Y460556D01*
X320784Y460484D01*
X320856Y460415D01*
X320930Y460349D01*
X321008Y460285D01*
X321087Y460225D01*
X321169Y460168D01*
X321253Y460114D01*
X321339Y460064D01*
X321427Y460017D01*
X321517Y459973D01*
X321608Y459933D01*
X321701Y459897D01*
X321795Y459864D01*
X321891Y459835D01*
X321987Y459810D01*
X322084Y459789D01*
X322183Y459771D01*
X322281Y459758D01*
X322381Y459748D01*
X322480Y459742D01*
X322580Y459740D01*
X363220Y459740D01*
X320040Y462280D02*
X320040Y477520D01*
X322580Y480060D02*
X363220Y480060D01*
D14*
X326390Y469900D03*
D15*
X368935Y469900D03*
X316865Y469900D03*
D12*
X254000Y508000D02*
X245110Y508000D01*
X186690Y508000D02*
X177800Y508000D01*
D13*
X209550Y508000D02*
X215900Y508000D01*
X226060Y514350D02*
X226060Y501650D01*
X215900Y508000D01*
X231140Y508000D01*
X226060Y514350D02*
X215900Y508000D01*
X215900Y514350D01*
X215900Y508000D02*
X215900Y501650D01*
X236220Y518160D02*
X236320Y518158D01*
X236419Y518152D01*
X236519Y518142D01*
X236617Y518129D01*
X236716Y518111D01*
X236813Y518090D01*
X236909Y518065D01*
X237005Y518036D01*
X237099Y518003D01*
X237192Y517967D01*
X237283Y517927D01*
X237373Y517883D01*
X237461Y517836D01*
X237547Y517786D01*
X237631Y517732D01*
X237713Y517675D01*
X237792Y517615D01*
X237870Y517551D01*
X237944Y517485D01*
X238016Y517416D01*
X238085Y517344D01*
X238151Y517270D01*
X238215Y517192D01*
X238275Y517113D01*
X238332Y517031D01*
X238386Y516947D01*
X238436Y516861D01*
X238483Y516773D01*
X238527Y516683D01*
X238567Y516592D01*
X238603Y516499D01*
X238636Y516405D01*
X238665Y516309D01*
X238690Y516213D01*
X238711Y516116D01*
X238729Y516017D01*
X238742Y515919D01*
X238752Y515819D01*
X238758Y515720D01*
X238760Y515620D01*
X238760Y500380D01*
X238758Y500280D01*
X238752Y500181D01*
X238742Y500081D01*
X238729Y499983D01*
X238711Y499884D01*
X238690Y499787D01*
X238665Y499691D01*
X238636Y499595D01*
X238603Y499501D01*
X238567Y499408D01*
X238527Y499317D01*
X238483Y499227D01*
X238436Y499139D01*
X238386Y499053D01*
X238332Y498969D01*
X238275Y498887D01*
X238215Y498808D01*
X238151Y498730D01*
X238085Y498656D01*
X238016Y498584D01*
X237944Y498515D01*
X237870Y498449D01*
X237792Y498385D01*
X237713Y498325D01*
X237631Y498268D01*
X237547Y498214D01*
X237461Y498164D01*
X237373Y498117D01*
X237283Y498073D01*
X237192Y498033D01*
X237099Y497997D01*
X237005Y497964D01*
X236909Y497935D01*
X236813Y497910D01*
X236716Y497889D01*
X236617Y497871D01*
X236519Y497858D01*
X236419Y497848D01*
X236320Y497842D01*
X236220Y497840D01*
X195580Y518160D02*
X195480Y518158D01*
X195381Y518152D01*
X195281Y518142D01*
X195183Y518129D01*
X195084Y518111D01*
X194987Y518090D01*
X194891Y518065D01*
X194795Y518036D01*
X194701Y518003D01*
X194608Y517967D01*
X194517Y517927D01*
X194427Y517883D01*
X194339Y517836D01*
X194253Y517786D01*
X194169Y517732D01*
X194087Y517675D01*
X194008Y517615D01*
X193930Y517551D01*
X193856Y517485D01*
X193784Y517416D01*
X193715Y517344D01*
X193649Y517270D01*
X193585Y517192D01*
X193525Y517113D01*
X193468Y517031D01*
X193414Y516947D01*
X193364Y516861D01*
X193317Y516773D01*
X193273Y516683D01*
X193233Y516592D01*
X193197Y516499D01*
X193164Y516405D01*
X193135Y516309D01*
X193110Y516213D01*
X193089Y516116D01*
X193071Y516017D01*
X193058Y515919D01*
X193048Y515819D01*
X193042Y515720D01*
X193040Y515620D01*
X193040Y500380D02*
X193042Y500280D01*
X193048Y500181D01*
X193058Y500081D01*
X193071Y499983D01*
X193089Y499884D01*
X193110Y499787D01*
X193135Y499691D01*
X193164Y499595D01*
X193197Y499501D01*
X193233Y499408D01*
X193273Y499317D01*
X193317Y499227D01*
X193364Y499139D01*
X193414Y499053D01*
X193468Y498969D01*
X193525Y498887D01*
X193585Y498808D01*
X193649Y498730D01*
X193715Y498656D01*
X193784Y498584D01*
X193856Y498515D01*
X193930Y498449D01*
X194008Y498385D01*
X194087Y498325D01*
X194169Y498268D01*
X194253Y498214D01*
X194339Y498164D01*
X194427Y498117D01*
X194517Y498073D01*
X194608Y498033D01*
X194701Y497997D01*
X194795Y497964D01*
X194891Y497935D01*
X194987Y497910D01*
X195084Y497889D01*
X195183Y497871D01*
X195281Y497858D01*
X195381Y497848D01*
X195480Y497842D01*
X195580Y497840D01*
X236220Y497840D01*
X193040Y500380D02*
X193040Y515620D01*
X195580Y518160D02*
X236220Y518160D01*
D14*
X199390Y508000D03*
D15*
X241935Y508000D03*
X189865Y508000D03*
D12*
X245110Y469900D02*
X254000Y469900D01*
X186690Y469900D02*
X177800Y469900D01*
D13*
X209550Y469900D02*
X215900Y469900D01*
X226060Y476250D02*
X226060Y463550D01*
X215900Y469900D01*
X231140Y469900D01*
X226060Y476250D02*
X215900Y469900D01*
X215900Y476250D01*
X215900Y469900D02*
X215900Y463550D01*
X236220Y480060D02*
X236320Y480058D01*
X236419Y480052D01*
X236519Y480042D01*
X236617Y480029D01*
X236716Y480011D01*
X236813Y479990D01*
X236909Y479965D01*
X237005Y479936D01*
X237099Y479903D01*
X237192Y479867D01*
X237283Y479827D01*
X237373Y479783D01*
X237461Y479736D01*
X237547Y479686D01*
X237631Y479632D01*
X237713Y479575D01*
X237792Y479515D01*
X237870Y479451D01*
X237944Y479385D01*
X238016Y479316D01*
X238085Y479244D01*
X238151Y479170D01*
X238215Y479092D01*
X238275Y479013D01*
X238332Y478931D01*
X238386Y478847D01*
X238436Y478761D01*
X238483Y478673D01*
X238527Y478583D01*
X238567Y478492D01*
X238603Y478399D01*
X238636Y478305D01*
X238665Y478209D01*
X238690Y478113D01*
X238711Y478016D01*
X238729Y477917D01*
X238742Y477819D01*
X238752Y477719D01*
X238758Y477620D01*
X238760Y477520D01*
X238760Y462280D01*
X238758Y462180D01*
X238752Y462081D01*
X238742Y461981D01*
X238729Y461883D01*
X238711Y461784D01*
X238690Y461687D01*
X238665Y461591D01*
X238636Y461495D01*
X238603Y461401D01*
X238567Y461308D01*
X238527Y461217D01*
X238483Y461127D01*
X238436Y461039D01*
X238386Y460953D01*
X238332Y460869D01*
X238275Y460787D01*
X238215Y460708D01*
X238151Y460630D01*
X238085Y460556D01*
X238016Y460484D01*
X237944Y460415D01*
X237870Y460349D01*
X237792Y460285D01*
X237713Y460225D01*
X237631Y460168D01*
X237547Y460114D01*
X237461Y460064D01*
X237373Y460017D01*
X237283Y459973D01*
X237192Y459933D01*
X237099Y459897D01*
X237005Y459864D01*
X236909Y459835D01*
X236813Y459810D01*
X236716Y459789D01*
X236617Y459771D01*
X236519Y459758D01*
X236419Y459748D01*
X236320Y459742D01*
X236220Y459740D01*
X195580Y480060D02*
X195480Y480058D01*
X195381Y480052D01*
X195281Y480042D01*
X195183Y480029D01*
X195084Y480011D01*
X194987Y479990D01*
X194891Y479965D01*
X194795Y479936D01*
X194701Y479903D01*
X194608Y479867D01*
X194517Y479827D01*
X194427Y479783D01*
X194339Y479736D01*
X194253Y479686D01*
X194169Y479632D01*
X194087Y479575D01*
X194008Y479515D01*
X193930Y479451D01*
X193856Y479385D01*
X193784Y479316D01*
X193715Y479244D01*
X193649Y479170D01*
X193585Y479092D01*
X193525Y479013D01*
X193468Y478931D01*
X193414Y478847D01*
X193364Y478761D01*
X193317Y478673D01*
X193273Y478583D01*
X193233Y478492D01*
X193197Y478399D01*
X193164Y478305D01*
X193135Y478209D01*
X193110Y478113D01*
X193089Y478016D01*
X193071Y477917D01*
X193058Y477819D01*
X193048Y477719D01*
X193042Y477620D01*
X193040Y477520D01*
X193040Y462280D02*
X193042Y462180D01*
X193048Y462081D01*
X193058Y461981D01*
X193071Y461883D01*
X193089Y461784D01*
X193110Y461687D01*
X193135Y461591D01*
X193164Y461495D01*
X193197Y461401D01*
X193233Y461308D01*
X193273Y461217D01*
X193317Y461127D01*
X193364Y461039D01*
X193414Y460953D01*
X193468Y460869D01*
X193525Y460787D01*
X193585Y460708D01*
X193649Y460630D01*
X193715Y460556D01*
X193784Y460484D01*
X193856Y460415D01*
X193930Y460349D01*
X194008Y460285D01*
X194087Y460225D01*
X194169Y460168D01*
X194253Y460114D01*
X194339Y460064D01*
X194427Y460017D01*
X194517Y459973D01*
X194608Y459933D01*
X194701Y459897D01*
X194795Y459864D01*
X194891Y459835D01*
X194987Y459810D01*
X195084Y459789D01*
X195183Y459771D01*
X195281Y459758D01*
X195381Y459748D01*
X195480Y459742D01*
X195580Y459740D01*
X236220Y459740D01*
X193040Y462280D02*
X193040Y477520D01*
X195580Y480060D02*
X236220Y480060D01*
D14*
X199390Y469900D03*
D15*
X241935Y469900D03*
X189865Y469900D03*
D16*
X177800Y685800D02*
X177800Y719800D01*
X177800Y735800D01*
X379800Y735800D01*
X379800Y719800D01*
X379800Y685800D01*
X177800Y685800D01*
X177800Y719800D02*
X379800Y719800D01*
X190900Y685900D02*
X177900Y685900D01*
X214400Y685900D02*
X216400Y685900D01*
X239900Y685900D02*
X241900Y685900D01*
X264900Y685900D02*
X266900Y685900D01*
X290400Y685900D02*
X292400Y685900D01*
X315900Y685900D02*
X317900Y685900D01*
X341400Y685900D02*
X343400Y685900D01*
X366900Y685900D02*
X379900Y685900D01*
D11*
X176592Y695308D02*
X164908Y695308D01*
X176592Y695308D02*
X176592Y700501D01*
X167829Y711302D02*
X167722Y711300D01*
X167616Y711294D01*
X167510Y711284D01*
X167404Y711271D01*
X167298Y711253D01*
X167194Y711232D01*
X167090Y711207D01*
X166987Y711178D01*
X166886Y711146D01*
X166786Y711109D01*
X166687Y711069D01*
X166589Y711026D01*
X166493Y710979D01*
X166399Y710928D01*
X166307Y710874D01*
X166217Y710817D01*
X166129Y710757D01*
X166044Y710693D01*
X165961Y710626D01*
X165880Y710556D01*
X165802Y710484D01*
X165726Y710408D01*
X165654Y710330D01*
X165584Y710249D01*
X165517Y710166D01*
X165453Y710081D01*
X165393Y709993D01*
X165336Y709903D01*
X165282Y709811D01*
X165231Y709717D01*
X165184Y709621D01*
X165141Y709523D01*
X165101Y709424D01*
X165064Y709324D01*
X165032Y709223D01*
X165003Y709120D01*
X164978Y709016D01*
X164957Y708912D01*
X164939Y708806D01*
X164926Y708700D01*
X164916Y708594D01*
X164910Y708488D01*
X164908Y708381D01*
X164910Y708260D01*
X164916Y708139D01*
X164926Y708019D01*
X164939Y707898D01*
X164957Y707779D01*
X164978Y707659D01*
X165003Y707541D01*
X165032Y707424D01*
X165065Y707307D01*
X165101Y707192D01*
X165142Y707078D01*
X165185Y706965D01*
X165233Y706853D01*
X165284Y706744D01*
X165339Y706636D01*
X165397Y706529D01*
X165458Y706425D01*
X165523Y706323D01*
X165591Y706223D01*
X165662Y706125D01*
X165736Y706029D01*
X165813Y705936D01*
X165894Y705846D01*
X165977Y705758D01*
X166063Y705673D01*
X166152Y705590D01*
X166243Y705511D01*
X166337Y705434D01*
X166433Y705361D01*
X166531Y705291D01*
X166632Y705224D01*
X166735Y705160D01*
X166840Y705100D01*
X166947Y705042D01*
X167055Y704989D01*
X167165Y704939D01*
X167277Y704893D01*
X167390Y704850D01*
X167505Y704811D01*
X170101Y710327D02*
X170023Y710406D01*
X169943Y710482D01*
X169860Y710555D01*
X169774Y710625D01*
X169687Y710692D01*
X169596Y710756D01*
X169504Y710816D01*
X169410Y710874D01*
X169313Y710928D01*
X169215Y710978D01*
X169115Y711025D01*
X169014Y711069D01*
X168911Y711109D01*
X168806Y711145D01*
X168701Y711177D01*
X168594Y711206D01*
X168487Y711231D01*
X168378Y711253D01*
X168269Y711270D01*
X168160Y711284D01*
X168050Y711293D01*
X167939Y711299D01*
X167829Y711301D01*
X170101Y710328D02*
X176592Y704810D01*
X176592Y711302D01*
X171399Y718837D02*
X171399Y722731D01*
X171399Y718837D02*
X171397Y718738D01*
X171391Y718638D01*
X171382Y718539D01*
X171369Y718441D01*
X171352Y718343D01*
X171331Y718245D01*
X171306Y718149D01*
X171278Y718054D01*
X171246Y717960D01*
X171211Y717867D01*
X171172Y717775D01*
X171129Y717685D01*
X171084Y717597D01*
X171034Y717510D01*
X170982Y717426D01*
X170926Y717343D01*
X170868Y717263D01*
X170806Y717185D01*
X170741Y717110D01*
X170673Y717037D01*
X170603Y716967D01*
X170530Y716899D01*
X170455Y716834D01*
X170377Y716772D01*
X170297Y716714D01*
X170214Y716658D01*
X170130Y716606D01*
X170043Y716556D01*
X169955Y716511D01*
X169865Y716468D01*
X169773Y716429D01*
X169680Y716394D01*
X169586Y716362D01*
X169491Y716334D01*
X169395Y716309D01*
X169297Y716288D01*
X169199Y716271D01*
X169101Y716258D01*
X169002Y716249D01*
X168902Y716243D01*
X168803Y716241D01*
X168803Y716240D02*
X168154Y716240D01*
X168041Y716242D01*
X167928Y716248D01*
X167815Y716258D01*
X167702Y716272D01*
X167590Y716289D01*
X167479Y716311D01*
X167369Y716336D01*
X167259Y716366D01*
X167151Y716399D01*
X167044Y716436D01*
X166938Y716476D01*
X166834Y716521D01*
X166731Y716569D01*
X166630Y716620D01*
X166531Y716675D01*
X166434Y716733D01*
X166339Y716795D01*
X166246Y716860D01*
X166156Y716928D01*
X166068Y716999D01*
X165982Y717074D01*
X165899Y717151D01*
X165819Y717231D01*
X165742Y717314D01*
X165667Y717400D01*
X165596Y717488D01*
X165528Y717578D01*
X165463Y717671D01*
X165401Y717766D01*
X165343Y717863D01*
X165288Y717962D01*
X165237Y718063D01*
X165189Y718166D01*
X165144Y718270D01*
X165104Y718376D01*
X165067Y718483D01*
X165034Y718591D01*
X165004Y718701D01*
X164979Y718811D01*
X164957Y718922D01*
X164940Y719034D01*
X164926Y719147D01*
X164916Y719260D01*
X164910Y719373D01*
X164908Y719486D01*
X164910Y719599D01*
X164916Y719712D01*
X164926Y719825D01*
X164940Y719938D01*
X164957Y720050D01*
X164979Y720161D01*
X165004Y720271D01*
X165034Y720381D01*
X165067Y720489D01*
X165104Y720596D01*
X165144Y720702D01*
X165189Y720806D01*
X165237Y720909D01*
X165288Y721010D01*
X165343Y721109D01*
X165401Y721206D01*
X165463Y721301D01*
X165528Y721394D01*
X165596Y721484D01*
X165667Y721572D01*
X165742Y721658D01*
X165819Y721741D01*
X165899Y721821D01*
X165982Y721898D01*
X166068Y721973D01*
X166156Y722044D01*
X166246Y722112D01*
X166339Y722177D01*
X166434Y722239D01*
X166531Y722297D01*
X166630Y722352D01*
X166731Y722403D01*
X166834Y722451D01*
X166938Y722496D01*
X167044Y722536D01*
X167151Y722573D01*
X167259Y722606D01*
X167369Y722636D01*
X167479Y722661D01*
X167590Y722683D01*
X167702Y722700D01*
X167815Y722714D01*
X167928Y722724D01*
X168041Y722730D01*
X168154Y722732D01*
X168154Y722731D02*
X171399Y722731D01*
X171399Y722732D02*
X171542Y722730D01*
X171685Y722724D01*
X171828Y722714D01*
X171970Y722700D01*
X172112Y722683D01*
X172254Y722661D01*
X172395Y722636D01*
X172535Y722606D01*
X172674Y722573D01*
X172812Y722536D01*
X172949Y722495D01*
X173085Y722451D01*
X173220Y722402D01*
X173353Y722350D01*
X173485Y722295D01*
X173615Y722235D01*
X173744Y722172D01*
X173871Y722106D01*
X173996Y722036D01*
X174118Y721963D01*
X174239Y721886D01*
X174358Y721806D01*
X174474Y721723D01*
X174589Y721637D01*
X174700Y721548D01*
X174810Y721455D01*
X174916Y721360D01*
X175020Y721261D01*
X175121Y721160D01*
X175220Y721056D01*
X175315Y720950D01*
X175408Y720840D01*
X175497Y720729D01*
X175583Y720614D01*
X175666Y720498D01*
X175746Y720379D01*
X175823Y720258D01*
X175896Y720136D01*
X175966Y720011D01*
X176032Y719884D01*
X176095Y719755D01*
X176155Y719625D01*
X176210Y719493D01*
X176262Y719360D01*
X176311Y719225D01*
X176355Y719089D01*
X176396Y718952D01*
X176433Y718814D01*
X176466Y718675D01*
X176496Y718535D01*
X176521Y718394D01*
X176543Y718252D01*
X176560Y718110D01*
X176574Y717968D01*
X176584Y717825D01*
X176590Y717682D01*
X176592Y717539D01*
X173346Y727670D02*
X173233Y727672D01*
X173120Y727678D01*
X173007Y727688D01*
X172894Y727702D01*
X172782Y727719D01*
X172671Y727741D01*
X172561Y727766D01*
X172451Y727796D01*
X172343Y727829D01*
X172236Y727866D01*
X172130Y727906D01*
X172026Y727951D01*
X171923Y727999D01*
X171822Y728050D01*
X171723Y728105D01*
X171626Y728163D01*
X171531Y728225D01*
X171438Y728290D01*
X171348Y728358D01*
X171260Y728429D01*
X171174Y728504D01*
X171091Y728581D01*
X171011Y728661D01*
X170934Y728744D01*
X170859Y728830D01*
X170788Y728918D01*
X170720Y729008D01*
X170655Y729101D01*
X170593Y729196D01*
X170535Y729293D01*
X170480Y729392D01*
X170429Y729493D01*
X170381Y729596D01*
X170336Y729700D01*
X170296Y729806D01*
X170259Y729913D01*
X170226Y730021D01*
X170196Y730131D01*
X170171Y730241D01*
X170149Y730352D01*
X170132Y730464D01*
X170118Y730577D01*
X170108Y730690D01*
X170102Y730803D01*
X170100Y730916D01*
X170102Y731029D01*
X170108Y731142D01*
X170118Y731255D01*
X170132Y731368D01*
X170149Y731480D01*
X170171Y731591D01*
X170196Y731701D01*
X170226Y731811D01*
X170259Y731919D01*
X170296Y732026D01*
X170336Y732132D01*
X170381Y732236D01*
X170429Y732339D01*
X170480Y732440D01*
X170535Y732539D01*
X170593Y732636D01*
X170655Y732731D01*
X170720Y732824D01*
X170788Y732914D01*
X170859Y733002D01*
X170934Y733088D01*
X171011Y733171D01*
X171091Y733251D01*
X171174Y733328D01*
X171260Y733403D01*
X171348Y733474D01*
X171438Y733542D01*
X171531Y733607D01*
X171626Y733669D01*
X171723Y733727D01*
X171822Y733782D01*
X171923Y733833D01*
X172026Y733881D01*
X172130Y733926D01*
X172236Y733966D01*
X172343Y734003D01*
X172451Y734036D01*
X172561Y734066D01*
X172671Y734091D01*
X172782Y734113D01*
X172894Y734130D01*
X173007Y734144D01*
X173120Y734154D01*
X173233Y734160D01*
X173346Y734162D01*
X173459Y734160D01*
X173572Y734154D01*
X173685Y734144D01*
X173798Y734130D01*
X173910Y734113D01*
X174021Y734091D01*
X174131Y734066D01*
X174241Y734036D01*
X174349Y734003D01*
X174456Y733966D01*
X174562Y733926D01*
X174666Y733881D01*
X174769Y733833D01*
X174870Y733782D01*
X174969Y733727D01*
X175066Y733669D01*
X175161Y733607D01*
X175254Y733542D01*
X175344Y733474D01*
X175432Y733403D01*
X175518Y733328D01*
X175601Y733251D01*
X175681Y733171D01*
X175758Y733088D01*
X175833Y733002D01*
X175904Y732914D01*
X175972Y732824D01*
X176037Y732731D01*
X176099Y732636D01*
X176157Y732539D01*
X176212Y732440D01*
X176263Y732339D01*
X176311Y732236D01*
X176356Y732132D01*
X176396Y732026D01*
X176433Y731919D01*
X176466Y731811D01*
X176496Y731701D01*
X176521Y731591D01*
X176543Y731480D01*
X176560Y731368D01*
X176574Y731255D01*
X176584Y731142D01*
X176590Y731029D01*
X176592Y730916D01*
X176590Y730803D01*
X176584Y730690D01*
X176574Y730577D01*
X176560Y730464D01*
X176543Y730352D01*
X176521Y730241D01*
X176496Y730131D01*
X176466Y730021D01*
X176433Y729913D01*
X176396Y729806D01*
X176356Y729700D01*
X176311Y729596D01*
X176263Y729493D01*
X176212Y729392D01*
X176157Y729293D01*
X176099Y729196D01*
X176037Y729101D01*
X175972Y729008D01*
X175904Y728918D01*
X175833Y728830D01*
X175758Y728744D01*
X175681Y728661D01*
X175601Y728581D01*
X175518Y728504D01*
X175432Y728429D01*
X175344Y728358D01*
X175254Y728290D01*
X175161Y728225D01*
X175066Y728163D01*
X174969Y728105D01*
X174870Y728050D01*
X174769Y727999D01*
X174666Y727951D01*
X174562Y727906D01*
X174456Y727866D01*
X174349Y727829D01*
X174241Y727796D01*
X174131Y727766D01*
X174021Y727741D01*
X173910Y727719D01*
X173798Y727702D01*
X173685Y727688D01*
X173572Y727678D01*
X173459Y727672D01*
X173346Y727670D01*
X167504Y728320D02*
X167403Y728322D01*
X167303Y728328D01*
X167203Y728338D01*
X167103Y728351D01*
X167004Y728369D01*
X166905Y728390D01*
X166808Y728415D01*
X166711Y728444D01*
X166616Y728477D01*
X166522Y728513D01*
X166430Y728553D01*
X166339Y728596D01*
X166250Y728643D01*
X166163Y728693D01*
X166077Y728747D01*
X165994Y728804D01*
X165914Y728864D01*
X165835Y728927D01*
X165759Y728994D01*
X165686Y729063D01*
X165616Y729135D01*
X165548Y729209D01*
X165483Y729286D01*
X165422Y729366D01*
X165363Y729448D01*
X165308Y729532D01*
X165256Y729618D01*
X165207Y729706D01*
X165162Y729796D01*
X165120Y729888D01*
X165082Y729981D01*
X165048Y730076D01*
X165017Y730171D01*
X164990Y730268D01*
X164967Y730366D01*
X164947Y730465D01*
X164932Y730565D01*
X164920Y730665D01*
X164912Y730765D01*
X164908Y730866D01*
X164908Y730966D01*
X164912Y731067D01*
X164920Y731167D01*
X164932Y731267D01*
X164947Y731367D01*
X164967Y731466D01*
X164990Y731564D01*
X165017Y731661D01*
X165048Y731756D01*
X165082Y731851D01*
X165120Y731944D01*
X165162Y732036D01*
X165207Y732126D01*
X165256Y732214D01*
X165308Y732300D01*
X165363Y732384D01*
X165422Y732466D01*
X165483Y732546D01*
X165548Y732623D01*
X165616Y732697D01*
X165686Y732769D01*
X165759Y732838D01*
X165835Y732905D01*
X165914Y732968D01*
X165994Y733028D01*
X166077Y733085D01*
X166163Y733139D01*
X166250Y733189D01*
X166339Y733236D01*
X166430Y733279D01*
X166522Y733319D01*
X166616Y733355D01*
X166711Y733388D01*
X166808Y733417D01*
X166905Y733442D01*
X167004Y733463D01*
X167103Y733481D01*
X167203Y733494D01*
X167303Y733504D01*
X167403Y733510D01*
X167504Y733512D01*
X167605Y733510D01*
X167705Y733504D01*
X167805Y733494D01*
X167905Y733481D01*
X168004Y733463D01*
X168103Y733442D01*
X168200Y733417D01*
X168297Y733388D01*
X168392Y733355D01*
X168486Y733319D01*
X168578Y733279D01*
X168669Y733236D01*
X168758Y733189D01*
X168845Y733139D01*
X168931Y733085D01*
X169014Y733028D01*
X169094Y732968D01*
X169173Y732905D01*
X169249Y732838D01*
X169322Y732769D01*
X169392Y732697D01*
X169460Y732623D01*
X169525Y732546D01*
X169586Y732466D01*
X169645Y732384D01*
X169700Y732300D01*
X169752Y732214D01*
X169801Y732126D01*
X169846Y732036D01*
X169888Y731944D01*
X169926Y731851D01*
X169960Y731756D01*
X169991Y731661D01*
X170018Y731564D01*
X170041Y731466D01*
X170061Y731367D01*
X170076Y731267D01*
X170088Y731167D01*
X170096Y731067D01*
X170100Y730966D01*
X170100Y730866D01*
X170096Y730765D01*
X170088Y730665D01*
X170076Y730565D01*
X170061Y730465D01*
X170041Y730366D01*
X170018Y730268D01*
X169991Y730171D01*
X169960Y730076D01*
X169926Y729981D01*
X169888Y729888D01*
X169846Y729796D01*
X169801Y729706D01*
X169752Y729618D01*
X169700Y729532D01*
X169645Y729448D01*
X169586Y729366D01*
X169525Y729286D01*
X169460Y729209D01*
X169392Y729135D01*
X169322Y729063D01*
X169249Y728994D01*
X169173Y728927D01*
X169094Y728864D01*
X169014Y728804D01*
X168931Y728747D01*
X168845Y728693D01*
X168758Y728643D01*
X168669Y728596D01*
X168578Y728553D01*
X168486Y728513D01*
X168392Y728477D01*
X168297Y728444D01*
X168200Y728415D01*
X168103Y728390D01*
X168004Y728369D01*
X167905Y728351D01*
X167805Y728338D01*
X167705Y728328D01*
X167605Y728322D01*
X167504Y728320D01*
D17*
X120650Y624600D02*
X120650Y472200D01*
X101600Y472200D01*
X57150Y472200D01*
X57150Y624600D01*
X101600Y624600D01*
X120650Y624600D01*
X101600Y624600D02*
X101600Y472200D01*
D11*
X130048Y565367D02*
X134112Y565367D01*
X130048Y565367D02*
X129948Y565369D01*
X129849Y565375D01*
X129749Y565385D01*
X129651Y565398D01*
X129552Y565416D01*
X129455Y565437D01*
X129359Y565462D01*
X129263Y565491D01*
X129169Y565524D01*
X129076Y565560D01*
X128985Y565600D01*
X128895Y565644D01*
X128807Y565691D01*
X128721Y565741D01*
X128637Y565795D01*
X128555Y565852D01*
X128476Y565912D01*
X128398Y565976D01*
X128324Y566042D01*
X128252Y566111D01*
X128183Y566183D01*
X128117Y566257D01*
X128053Y566335D01*
X127993Y566414D01*
X127936Y566496D01*
X127882Y566580D01*
X127832Y566666D01*
X127785Y566754D01*
X127741Y566844D01*
X127701Y566935D01*
X127665Y567028D01*
X127632Y567122D01*
X127603Y567218D01*
X127578Y567314D01*
X127557Y567411D01*
X127539Y567510D01*
X127526Y567608D01*
X127516Y567708D01*
X127510Y567807D01*
X127508Y567907D01*
X127510Y568007D01*
X127516Y568106D01*
X127526Y568206D01*
X127539Y568304D01*
X127557Y568403D01*
X127578Y568500D01*
X127603Y568596D01*
X127632Y568692D01*
X127665Y568786D01*
X127701Y568879D01*
X127741Y568970D01*
X127785Y569060D01*
X127832Y569148D01*
X127882Y569234D01*
X127936Y569318D01*
X127993Y569400D01*
X128053Y569479D01*
X128117Y569557D01*
X128183Y569631D01*
X128252Y569703D01*
X128324Y569772D01*
X128398Y569838D01*
X128476Y569902D01*
X128555Y569962D01*
X128637Y570019D01*
X128721Y570073D01*
X128807Y570123D01*
X128895Y570170D01*
X128985Y570214D01*
X129076Y570254D01*
X129169Y570290D01*
X129263Y570323D01*
X129359Y570352D01*
X129455Y570377D01*
X129552Y570398D01*
X129651Y570416D01*
X129749Y570429D01*
X129849Y570439D01*
X129948Y570445D01*
X130048Y570447D01*
X134112Y570447D01*
X134212Y570445D01*
X134311Y570439D01*
X134411Y570429D01*
X134509Y570416D01*
X134608Y570398D01*
X134705Y570377D01*
X134801Y570352D01*
X134897Y570323D01*
X134991Y570290D01*
X135084Y570254D01*
X135175Y570214D01*
X135265Y570170D01*
X135353Y570123D01*
X135439Y570073D01*
X135523Y570019D01*
X135605Y569962D01*
X135684Y569902D01*
X135762Y569838D01*
X135836Y569772D01*
X135908Y569703D01*
X135977Y569631D01*
X136043Y569557D01*
X136107Y569479D01*
X136167Y569400D01*
X136224Y569318D01*
X136278Y569234D01*
X136328Y569148D01*
X136375Y569060D01*
X136419Y568970D01*
X136459Y568879D01*
X136495Y568786D01*
X136528Y568692D01*
X136557Y568596D01*
X136582Y568500D01*
X136603Y568403D01*
X136621Y568304D01*
X136634Y568206D01*
X136644Y568106D01*
X136650Y568007D01*
X136652Y567907D01*
X136650Y567807D01*
X136644Y567708D01*
X136634Y567608D01*
X136621Y567510D01*
X136603Y567411D01*
X136582Y567314D01*
X136557Y567218D01*
X136528Y567122D01*
X136495Y567028D01*
X136459Y566935D01*
X136419Y566844D01*
X136375Y566754D01*
X136328Y566666D01*
X136278Y566580D01*
X136224Y566496D01*
X136167Y566414D01*
X136107Y566335D01*
X136043Y566257D01*
X135977Y566183D01*
X135908Y566111D01*
X135836Y566042D01*
X135762Y565976D01*
X135684Y565912D01*
X135605Y565852D01*
X135523Y565795D01*
X135439Y565741D01*
X135353Y565691D01*
X135265Y565644D01*
X135175Y565600D01*
X135084Y565560D01*
X134991Y565524D01*
X134897Y565491D01*
X134801Y565462D01*
X134705Y565437D01*
X134608Y565416D01*
X134509Y565398D01*
X134411Y565385D01*
X134311Y565375D01*
X134212Y565369D01*
X134112Y565367D01*
X134112Y574816D02*
X127508Y574816D01*
X134112Y574816D02*
X134212Y574818D01*
X134311Y574824D01*
X134411Y574834D01*
X134509Y574847D01*
X134608Y574865D01*
X134705Y574886D01*
X134801Y574911D01*
X134897Y574940D01*
X134991Y574973D01*
X135084Y575009D01*
X135175Y575049D01*
X135265Y575093D01*
X135353Y575140D01*
X135439Y575190D01*
X135523Y575244D01*
X135605Y575301D01*
X135684Y575361D01*
X135762Y575425D01*
X135836Y575491D01*
X135908Y575560D01*
X135977Y575632D01*
X136043Y575706D01*
X136107Y575784D01*
X136167Y575863D01*
X136224Y575945D01*
X136278Y576029D01*
X136328Y576115D01*
X136375Y576203D01*
X136419Y576293D01*
X136459Y576384D01*
X136495Y576477D01*
X136528Y576571D01*
X136557Y576667D01*
X136582Y576763D01*
X136603Y576860D01*
X136621Y576959D01*
X136634Y577057D01*
X136644Y577157D01*
X136650Y577256D01*
X136652Y577356D01*
X136650Y577456D01*
X136644Y577555D01*
X136634Y577655D01*
X136621Y577753D01*
X136603Y577852D01*
X136582Y577949D01*
X136557Y578045D01*
X136528Y578141D01*
X136495Y578235D01*
X136459Y578328D01*
X136419Y578419D01*
X136375Y578509D01*
X136328Y578597D01*
X136278Y578683D01*
X136224Y578767D01*
X136167Y578849D01*
X136107Y578928D01*
X136043Y579006D01*
X135977Y579080D01*
X135908Y579152D01*
X135836Y579221D01*
X135762Y579287D01*
X135684Y579351D01*
X135605Y579411D01*
X135523Y579468D01*
X135439Y579522D01*
X135353Y579572D01*
X135265Y579619D01*
X135175Y579663D01*
X135084Y579703D01*
X134991Y579739D01*
X134897Y579772D01*
X134801Y579801D01*
X134705Y579826D01*
X134608Y579847D01*
X134509Y579865D01*
X134411Y579878D01*
X134311Y579888D01*
X134212Y579894D01*
X134112Y579896D01*
X127508Y579896D01*
X127508Y586195D02*
X136652Y586195D01*
X127508Y583655D02*
X127508Y588735D01*
X127508Y592647D02*
X136652Y592647D01*
X127508Y592647D02*
X127508Y595187D01*
X127510Y595287D01*
X127516Y595386D01*
X127526Y595486D01*
X127539Y595584D01*
X127557Y595683D01*
X127578Y595780D01*
X127603Y595876D01*
X127632Y595972D01*
X127665Y596066D01*
X127701Y596159D01*
X127741Y596250D01*
X127785Y596340D01*
X127832Y596428D01*
X127882Y596514D01*
X127936Y596598D01*
X127993Y596680D01*
X128053Y596759D01*
X128117Y596837D01*
X128183Y596911D01*
X128252Y596983D01*
X128324Y597052D01*
X128398Y597118D01*
X128476Y597182D01*
X128555Y597242D01*
X128637Y597299D01*
X128721Y597353D01*
X128807Y597403D01*
X128895Y597450D01*
X128985Y597494D01*
X129076Y597534D01*
X129169Y597570D01*
X129263Y597603D01*
X129359Y597632D01*
X129455Y597657D01*
X129552Y597678D01*
X129651Y597696D01*
X129749Y597709D01*
X129849Y597719D01*
X129948Y597725D01*
X130048Y597727D01*
X130148Y597725D01*
X130247Y597719D01*
X130347Y597709D01*
X130445Y597696D01*
X130544Y597678D01*
X130641Y597657D01*
X130737Y597632D01*
X130833Y597603D01*
X130927Y597570D01*
X131020Y597534D01*
X131111Y597494D01*
X131201Y597450D01*
X131289Y597403D01*
X131375Y597353D01*
X131459Y597299D01*
X131541Y597242D01*
X131620Y597182D01*
X131698Y597118D01*
X131772Y597052D01*
X131844Y596983D01*
X131913Y596911D01*
X131979Y596837D01*
X132043Y596759D01*
X132103Y596680D01*
X132160Y596598D01*
X132214Y596514D01*
X132264Y596428D01*
X132311Y596340D01*
X132355Y596250D01*
X132395Y596159D01*
X132431Y596066D01*
X132464Y595972D01*
X132493Y595876D01*
X132518Y595780D01*
X132539Y595683D01*
X132557Y595584D01*
X132570Y595486D01*
X132580Y595386D01*
X132586Y595287D01*
X132588Y595187D01*
X132588Y592647D01*
X134112Y601638D02*
X127508Y601638D01*
X134112Y601638D02*
X134212Y601640D01*
X134311Y601646D01*
X134411Y601656D01*
X134509Y601669D01*
X134608Y601687D01*
X134705Y601708D01*
X134801Y601733D01*
X134897Y601762D01*
X134991Y601795D01*
X135084Y601831D01*
X135175Y601871D01*
X135265Y601915D01*
X135353Y601962D01*
X135439Y602012D01*
X135523Y602066D01*
X135605Y602123D01*
X135684Y602183D01*
X135762Y602247D01*
X135836Y602313D01*
X135908Y602382D01*
X135977Y602454D01*
X136043Y602528D01*
X136107Y602606D01*
X136167Y602685D01*
X136224Y602767D01*
X136278Y602851D01*
X136328Y602937D01*
X136375Y603025D01*
X136419Y603115D01*
X136459Y603206D01*
X136495Y603299D01*
X136528Y603393D01*
X136557Y603489D01*
X136582Y603585D01*
X136603Y603682D01*
X136621Y603781D01*
X136634Y603879D01*
X136644Y603979D01*
X136650Y604078D01*
X136652Y604178D01*
X136650Y604278D01*
X136644Y604377D01*
X136634Y604477D01*
X136621Y604575D01*
X136603Y604674D01*
X136582Y604771D01*
X136557Y604867D01*
X136528Y604963D01*
X136495Y605057D01*
X136459Y605150D01*
X136419Y605241D01*
X136375Y605331D01*
X136328Y605419D01*
X136278Y605505D01*
X136224Y605589D01*
X136167Y605671D01*
X136107Y605750D01*
X136043Y605828D01*
X135977Y605902D01*
X135908Y605974D01*
X135836Y606043D01*
X135762Y606109D01*
X135684Y606173D01*
X135605Y606233D01*
X135523Y606290D01*
X135439Y606344D01*
X135353Y606394D01*
X135265Y606441D01*
X135175Y606485D01*
X135084Y606525D01*
X134991Y606561D01*
X134897Y606594D01*
X134801Y606623D01*
X134705Y606648D01*
X134608Y606669D01*
X134509Y606687D01*
X134411Y606700D01*
X134311Y606710D01*
X134212Y606716D01*
X134112Y606718D01*
X127508Y606718D01*
X127508Y613018D02*
X136652Y613018D01*
X127508Y610478D02*
X127508Y615558D01*
X129540Y619012D02*
X127508Y621552D01*
X136652Y621552D01*
X136652Y619012D02*
X136652Y624092D01*
D17*
X438150Y624600D02*
X438150Y472200D01*
X438150Y624600D02*
X457200Y624600D01*
X501650Y624600D01*
X501650Y472200D01*
X457200Y472200D01*
X438150Y472200D01*
X457200Y472200D02*
X457200Y624600D01*
D11*
X428752Y472708D02*
X424688Y472708D01*
X424588Y472710D01*
X424489Y472716D01*
X424389Y472726D01*
X424291Y472739D01*
X424192Y472757D01*
X424095Y472778D01*
X423999Y472803D01*
X423903Y472832D01*
X423809Y472865D01*
X423716Y472901D01*
X423625Y472941D01*
X423535Y472985D01*
X423447Y473032D01*
X423361Y473082D01*
X423277Y473136D01*
X423195Y473193D01*
X423116Y473253D01*
X423038Y473317D01*
X422964Y473383D01*
X422892Y473452D01*
X422823Y473524D01*
X422757Y473598D01*
X422693Y473676D01*
X422633Y473755D01*
X422576Y473837D01*
X422522Y473921D01*
X422472Y474007D01*
X422425Y474095D01*
X422381Y474185D01*
X422341Y474276D01*
X422305Y474369D01*
X422272Y474463D01*
X422243Y474559D01*
X422218Y474655D01*
X422197Y474752D01*
X422179Y474851D01*
X422166Y474949D01*
X422156Y475049D01*
X422150Y475148D01*
X422148Y475248D01*
X422150Y475348D01*
X422156Y475447D01*
X422166Y475547D01*
X422179Y475645D01*
X422197Y475744D01*
X422218Y475841D01*
X422243Y475937D01*
X422272Y476033D01*
X422305Y476127D01*
X422341Y476220D01*
X422381Y476311D01*
X422425Y476401D01*
X422472Y476489D01*
X422522Y476575D01*
X422576Y476659D01*
X422633Y476741D01*
X422693Y476820D01*
X422757Y476898D01*
X422823Y476972D01*
X422892Y477044D01*
X422964Y477113D01*
X423038Y477179D01*
X423116Y477243D01*
X423195Y477303D01*
X423277Y477360D01*
X423361Y477414D01*
X423447Y477464D01*
X423535Y477511D01*
X423625Y477555D01*
X423716Y477595D01*
X423809Y477631D01*
X423903Y477664D01*
X423999Y477693D01*
X424095Y477718D01*
X424192Y477739D01*
X424291Y477757D01*
X424389Y477770D01*
X424489Y477780D01*
X424588Y477786D01*
X424688Y477788D01*
X428752Y477788D01*
X428852Y477786D01*
X428951Y477780D01*
X429051Y477770D01*
X429149Y477757D01*
X429248Y477739D01*
X429345Y477718D01*
X429441Y477693D01*
X429537Y477664D01*
X429631Y477631D01*
X429724Y477595D01*
X429815Y477555D01*
X429905Y477511D01*
X429993Y477464D01*
X430079Y477414D01*
X430163Y477360D01*
X430245Y477303D01*
X430324Y477243D01*
X430402Y477179D01*
X430476Y477113D01*
X430548Y477044D01*
X430617Y476972D01*
X430683Y476898D01*
X430747Y476820D01*
X430807Y476741D01*
X430864Y476659D01*
X430918Y476575D01*
X430968Y476489D01*
X431015Y476401D01*
X431059Y476311D01*
X431099Y476220D01*
X431135Y476127D01*
X431168Y476033D01*
X431197Y475937D01*
X431222Y475841D01*
X431243Y475744D01*
X431261Y475645D01*
X431274Y475547D01*
X431284Y475447D01*
X431290Y475348D01*
X431292Y475248D01*
X431290Y475148D01*
X431284Y475049D01*
X431274Y474949D01*
X431261Y474851D01*
X431243Y474752D01*
X431222Y474655D01*
X431197Y474559D01*
X431168Y474463D01*
X431135Y474369D01*
X431099Y474276D01*
X431059Y474185D01*
X431015Y474095D01*
X430968Y474007D01*
X430918Y473921D01*
X430864Y473837D01*
X430807Y473755D01*
X430747Y473676D01*
X430683Y473598D01*
X430617Y473524D01*
X430548Y473452D01*
X430476Y473383D01*
X430402Y473317D01*
X430324Y473253D01*
X430245Y473193D01*
X430163Y473136D01*
X430079Y473082D01*
X429993Y473032D01*
X429905Y472985D01*
X429815Y472941D01*
X429724Y472901D01*
X429631Y472865D01*
X429537Y472832D01*
X429441Y472803D01*
X429345Y472778D01*
X429248Y472757D01*
X429149Y472739D01*
X429051Y472726D01*
X428951Y472716D01*
X428852Y472710D01*
X428752Y472708D01*
X428752Y482157D02*
X422148Y482157D01*
X428752Y482157D02*
X428852Y482159D01*
X428951Y482165D01*
X429051Y482175D01*
X429149Y482188D01*
X429248Y482206D01*
X429345Y482227D01*
X429441Y482252D01*
X429537Y482281D01*
X429631Y482314D01*
X429724Y482350D01*
X429815Y482390D01*
X429905Y482434D01*
X429993Y482481D01*
X430079Y482531D01*
X430163Y482585D01*
X430245Y482642D01*
X430324Y482702D01*
X430402Y482766D01*
X430476Y482832D01*
X430548Y482901D01*
X430617Y482973D01*
X430683Y483047D01*
X430747Y483125D01*
X430807Y483204D01*
X430864Y483286D01*
X430918Y483370D01*
X430968Y483456D01*
X431015Y483544D01*
X431059Y483634D01*
X431099Y483725D01*
X431135Y483818D01*
X431168Y483912D01*
X431197Y484008D01*
X431222Y484104D01*
X431243Y484201D01*
X431261Y484300D01*
X431274Y484398D01*
X431284Y484498D01*
X431290Y484597D01*
X431292Y484697D01*
X431290Y484797D01*
X431284Y484896D01*
X431274Y484996D01*
X431261Y485094D01*
X431243Y485193D01*
X431222Y485290D01*
X431197Y485386D01*
X431168Y485482D01*
X431135Y485576D01*
X431099Y485669D01*
X431059Y485760D01*
X431015Y485850D01*
X430968Y485938D01*
X430918Y486024D01*
X430864Y486108D01*
X430807Y486190D01*
X430747Y486269D01*
X430683Y486347D01*
X430617Y486421D01*
X430548Y486493D01*
X430476Y486562D01*
X430402Y486628D01*
X430324Y486692D01*
X430245Y486752D01*
X430163Y486809D01*
X430079Y486863D01*
X429993Y486913D01*
X429905Y486960D01*
X429815Y487004D01*
X429724Y487044D01*
X429631Y487080D01*
X429537Y487113D01*
X429441Y487142D01*
X429345Y487167D01*
X429248Y487188D01*
X429149Y487206D01*
X429051Y487219D01*
X428951Y487229D01*
X428852Y487235D01*
X428752Y487237D01*
X422148Y487237D01*
X422148Y493536D02*
X431292Y493536D01*
X422148Y490996D02*
X422148Y496076D01*
X422148Y499988D02*
X431292Y499988D01*
X422148Y499988D02*
X422148Y502528D01*
X422150Y502628D01*
X422156Y502727D01*
X422166Y502827D01*
X422179Y502925D01*
X422197Y503024D01*
X422218Y503121D01*
X422243Y503217D01*
X422272Y503313D01*
X422305Y503407D01*
X422341Y503500D01*
X422381Y503591D01*
X422425Y503681D01*
X422472Y503769D01*
X422522Y503855D01*
X422576Y503939D01*
X422633Y504021D01*
X422693Y504100D01*
X422757Y504178D01*
X422823Y504252D01*
X422892Y504324D01*
X422964Y504393D01*
X423038Y504459D01*
X423116Y504523D01*
X423195Y504583D01*
X423277Y504640D01*
X423361Y504694D01*
X423447Y504744D01*
X423535Y504791D01*
X423625Y504835D01*
X423716Y504875D01*
X423809Y504911D01*
X423903Y504944D01*
X423999Y504973D01*
X424095Y504998D01*
X424192Y505019D01*
X424291Y505037D01*
X424389Y505050D01*
X424489Y505060D01*
X424588Y505066D01*
X424688Y505068D01*
X424788Y505066D01*
X424887Y505060D01*
X424987Y505050D01*
X425085Y505037D01*
X425184Y505019D01*
X425281Y504998D01*
X425377Y504973D01*
X425473Y504944D01*
X425567Y504911D01*
X425660Y504875D01*
X425751Y504835D01*
X425841Y504791D01*
X425929Y504744D01*
X426015Y504694D01*
X426099Y504640D01*
X426181Y504583D01*
X426260Y504523D01*
X426338Y504459D01*
X426412Y504393D01*
X426484Y504324D01*
X426553Y504252D01*
X426619Y504178D01*
X426683Y504100D01*
X426743Y504021D01*
X426800Y503939D01*
X426854Y503855D01*
X426904Y503769D01*
X426951Y503681D01*
X426995Y503591D01*
X427035Y503500D01*
X427071Y503407D01*
X427104Y503313D01*
X427133Y503217D01*
X427158Y503121D01*
X427179Y503024D01*
X427197Y502925D01*
X427210Y502827D01*
X427220Y502727D01*
X427226Y502628D01*
X427228Y502528D01*
X427228Y499988D01*
X428752Y508979D02*
X422148Y508979D01*
X428752Y508979D02*
X428852Y508981D01*
X428951Y508987D01*
X429051Y508997D01*
X429149Y509010D01*
X429248Y509028D01*
X429345Y509049D01*
X429441Y509074D01*
X429537Y509103D01*
X429631Y509136D01*
X429724Y509172D01*
X429815Y509212D01*
X429905Y509256D01*
X429993Y509303D01*
X430079Y509353D01*
X430163Y509407D01*
X430245Y509464D01*
X430324Y509524D01*
X430402Y509588D01*
X430476Y509654D01*
X430548Y509723D01*
X430617Y509795D01*
X430683Y509869D01*
X430747Y509947D01*
X430807Y510026D01*
X430864Y510108D01*
X430918Y510192D01*
X430968Y510278D01*
X431015Y510366D01*
X431059Y510456D01*
X431099Y510547D01*
X431135Y510640D01*
X431168Y510734D01*
X431197Y510830D01*
X431222Y510926D01*
X431243Y511023D01*
X431261Y511122D01*
X431274Y511220D01*
X431284Y511320D01*
X431290Y511419D01*
X431292Y511519D01*
X431290Y511619D01*
X431284Y511718D01*
X431274Y511818D01*
X431261Y511916D01*
X431243Y512015D01*
X431222Y512112D01*
X431197Y512208D01*
X431168Y512304D01*
X431135Y512398D01*
X431099Y512491D01*
X431059Y512582D01*
X431015Y512672D01*
X430968Y512760D01*
X430918Y512846D01*
X430864Y512930D01*
X430807Y513012D01*
X430747Y513091D01*
X430683Y513169D01*
X430617Y513243D01*
X430548Y513315D01*
X430476Y513384D01*
X430402Y513450D01*
X430324Y513514D01*
X430245Y513574D01*
X430163Y513631D01*
X430079Y513685D01*
X429993Y513735D01*
X429905Y513782D01*
X429815Y513826D01*
X429724Y513866D01*
X429631Y513902D01*
X429537Y513935D01*
X429441Y513964D01*
X429345Y513989D01*
X429248Y514010D01*
X429149Y514028D01*
X429051Y514041D01*
X428951Y514051D01*
X428852Y514057D01*
X428752Y514059D01*
X422148Y514059D01*
X422148Y520358D02*
X431292Y520358D01*
X422148Y517818D02*
X422148Y522898D01*
X422148Y529147D02*
X422150Y529241D01*
X422156Y529336D01*
X422166Y529430D01*
X422179Y529523D01*
X422197Y529616D01*
X422218Y529708D01*
X422243Y529799D01*
X422272Y529889D01*
X422304Y529978D01*
X422341Y530065D01*
X422380Y530151D01*
X422424Y530235D01*
X422470Y530317D01*
X422520Y530397D01*
X422574Y530475D01*
X422630Y530551D01*
X422690Y530624D01*
X422752Y530695D01*
X422818Y530763D01*
X422886Y530829D01*
X422957Y530891D01*
X423030Y530951D01*
X423106Y531007D01*
X423184Y531061D01*
X423264Y531111D01*
X423346Y531157D01*
X423430Y531201D01*
X423516Y531240D01*
X423603Y531277D01*
X423692Y531309D01*
X423782Y531338D01*
X423873Y531363D01*
X423965Y531384D01*
X424058Y531402D01*
X424151Y531415D01*
X424245Y531425D01*
X424340Y531431D01*
X424434Y531433D01*
X422148Y529147D02*
X422150Y529041D01*
X422156Y528936D01*
X422165Y528831D01*
X422178Y528726D01*
X422195Y528622D01*
X422216Y528519D01*
X422240Y528416D01*
X422269Y528314D01*
X422300Y528214D01*
X422336Y528114D01*
X422374Y528016D01*
X422417Y527920D01*
X422463Y527824D01*
X422512Y527731D01*
X422564Y527640D01*
X422620Y527550D01*
X422679Y527462D01*
X422741Y527377D01*
X422806Y527294D01*
X422874Y527213D01*
X422945Y527135D01*
X423019Y527060D01*
X423095Y526987D01*
X423174Y526917D01*
X423255Y526850D01*
X423339Y526785D01*
X423425Y526724D01*
X423513Y526666D01*
X423603Y526611D01*
X423695Y526560D01*
X423789Y526511D01*
X423885Y526466D01*
X423982Y526425D01*
X424080Y526387D01*
X424180Y526353D01*
X426212Y530670D02*
X426145Y530737D01*
X426076Y530802D01*
X426004Y530864D01*
X425931Y530923D01*
X425854Y530979D01*
X425776Y531033D01*
X425696Y531083D01*
X425614Y531130D01*
X425530Y531174D01*
X425444Y531214D01*
X425357Y531252D01*
X425269Y531286D01*
X425179Y531316D01*
X425089Y531343D01*
X424997Y531367D01*
X424904Y531387D01*
X424811Y531403D01*
X424717Y531416D01*
X424623Y531425D01*
X424529Y531430D01*
X424434Y531432D01*
X426212Y530671D02*
X431292Y526353D01*
X431292Y531433D01*
D16*
X347900Y412700D02*
X210900Y412700D01*
X210900Y397700D01*
X210900Y389700D02*
X210900Y374700D01*
X347900Y374700D01*
X347900Y389700D01*
X347900Y397700D02*
X347900Y412700D01*
X347900Y397700D02*
X347782Y397642D01*
X347666Y397580D01*
X347552Y397515D01*
X347440Y397447D01*
X347330Y397375D01*
X347222Y397300D01*
X347116Y397222D01*
X347013Y397141D01*
X346912Y397057D01*
X346814Y396970D01*
X346718Y396880D01*
X346625Y396787D01*
X346535Y396691D01*
X346448Y396593D01*
X346363Y396492D01*
X346282Y396389D01*
X346204Y396284D01*
X346129Y396176D01*
X346057Y396066D01*
X345988Y395954D01*
X345923Y395840D01*
X345862Y395724D01*
X345803Y395606D01*
X345748Y395487D01*
X345697Y395366D01*
X345650Y395243D01*
X345606Y395120D01*
X345565Y394994D01*
X345529Y394868D01*
X345496Y394741D01*
X345467Y394613D01*
X345442Y394484D01*
X345421Y394354D01*
X345403Y394224D01*
X345390Y394094D01*
X345380Y393963D01*
X345374Y393831D01*
X345372Y393700D01*
X345374Y393569D01*
X345380Y393437D01*
X345390Y393306D01*
X345403Y393176D01*
X345421Y393046D01*
X345442Y392916D01*
X345467Y392787D01*
X345496Y392659D01*
X345529Y392532D01*
X345565Y392406D01*
X345606Y392280D01*
X345650Y392157D01*
X345697Y392034D01*
X345748Y391913D01*
X345803Y391794D01*
X345862Y391676D01*
X345923Y391560D01*
X345988Y391446D01*
X346057Y391334D01*
X346129Y391224D01*
X346204Y391116D01*
X346282Y391011D01*
X346363Y390908D01*
X346448Y390807D01*
X346535Y390709D01*
X346625Y390613D01*
X346718Y390520D01*
X346814Y390430D01*
X346912Y390343D01*
X347013Y390259D01*
X347116Y390178D01*
X347222Y390100D01*
X347330Y390025D01*
X347440Y389953D01*
X347552Y389885D01*
X347666Y389820D01*
X347782Y389758D01*
X347900Y389700D01*
X210900Y389700D02*
X211018Y389758D01*
X211134Y389820D01*
X211248Y389885D01*
X211360Y389953D01*
X211470Y390025D01*
X211578Y390100D01*
X211684Y390178D01*
X211787Y390259D01*
X211888Y390343D01*
X211986Y390430D01*
X212082Y390520D01*
X212175Y390613D01*
X212265Y390709D01*
X212352Y390807D01*
X212437Y390908D01*
X212518Y391011D01*
X212596Y391116D01*
X212671Y391224D01*
X212743Y391334D01*
X212812Y391446D01*
X212877Y391560D01*
X212938Y391676D01*
X212997Y391794D01*
X213052Y391913D01*
X213103Y392034D01*
X213150Y392157D01*
X213194Y392280D01*
X213235Y392406D01*
X213271Y392532D01*
X213304Y392659D01*
X213333Y392787D01*
X213358Y392916D01*
X213379Y393046D01*
X213397Y393176D01*
X213410Y393306D01*
X213420Y393437D01*
X213426Y393569D01*
X213428Y393700D01*
X213426Y393831D01*
X213420Y393963D01*
X213410Y394094D01*
X213397Y394224D01*
X213379Y394354D01*
X213358Y394484D01*
X213333Y394613D01*
X213304Y394741D01*
X213271Y394868D01*
X213235Y394994D01*
X213194Y395120D01*
X213150Y395243D01*
X213103Y395366D01*
X213052Y395487D01*
X212997Y395606D01*
X212938Y395724D01*
X212877Y395840D01*
X212812Y395954D01*
X212743Y396066D01*
X212671Y396176D01*
X212596Y396284D01*
X212518Y396389D01*
X212437Y396492D01*
X212352Y396593D01*
X212265Y396691D01*
X212175Y396787D01*
X212082Y396880D01*
X211986Y396970D01*
X211888Y397057D01*
X211787Y397141D01*
X211684Y397222D01*
X211578Y397300D01*
X211470Y397375D01*
X211360Y397447D01*
X211248Y397515D01*
X211134Y397580D01*
X211018Y397642D01*
X210900Y397700D01*
D10*
X344221Y410452D02*
X344997Y411073D01*
X344997Y408279D01*
X344221Y408279D02*
X345773Y408279D01*
D18*
X339400Y403700D03*
X339400Y383700D03*
X319400Y403700D03*
X319400Y383700D03*
X299400Y403700D03*
X299400Y383700D03*
X279400Y403700D03*
X279400Y383700D03*
X259400Y403700D03*
X259400Y383700D03*
X239400Y403700D03*
X239400Y383700D03*
X219400Y403700D03*
X219400Y383700D03*
D11*
X297651Y419608D02*
X297651Y431292D01*
X296352Y419608D02*
X298949Y419608D01*
X298949Y431292D02*
X296352Y431292D01*
X303930Y431292D02*
X303930Y419608D01*
X310421Y419608D02*
X303930Y431292D01*
X310421Y431292D02*
X310421Y419608D01*
X316291Y419608D02*
X316291Y431292D01*
X319537Y431292D01*
X319650Y431290D01*
X319763Y431284D01*
X319876Y431274D01*
X319989Y431260D01*
X320101Y431243D01*
X320212Y431221D01*
X320322Y431196D01*
X320432Y431166D01*
X320540Y431133D01*
X320647Y431096D01*
X320753Y431056D01*
X320857Y431011D01*
X320960Y430963D01*
X321061Y430912D01*
X321160Y430857D01*
X321257Y430799D01*
X321352Y430737D01*
X321445Y430672D01*
X321535Y430604D01*
X321623Y430533D01*
X321709Y430458D01*
X321792Y430381D01*
X321872Y430301D01*
X321949Y430218D01*
X322024Y430132D01*
X322095Y430044D01*
X322163Y429954D01*
X322228Y429861D01*
X322290Y429766D01*
X322348Y429669D01*
X322403Y429570D01*
X322454Y429469D01*
X322502Y429366D01*
X322547Y429262D01*
X322587Y429156D01*
X322624Y429049D01*
X322657Y428941D01*
X322687Y428831D01*
X322712Y428721D01*
X322734Y428610D01*
X322751Y428498D01*
X322765Y428385D01*
X322775Y428272D01*
X322781Y428159D01*
X322783Y428046D01*
X322781Y427933D01*
X322775Y427820D01*
X322765Y427707D01*
X322751Y427594D01*
X322734Y427482D01*
X322712Y427371D01*
X322687Y427261D01*
X322657Y427151D01*
X322624Y427043D01*
X322587Y426936D01*
X322547Y426830D01*
X322502Y426726D01*
X322454Y426623D01*
X322403Y426522D01*
X322348Y426423D01*
X322290Y426326D01*
X322228Y426231D01*
X322163Y426138D01*
X322095Y426048D01*
X322024Y425960D01*
X321949Y425874D01*
X321872Y425791D01*
X321792Y425711D01*
X321709Y425634D01*
X321623Y425559D01*
X321535Y425488D01*
X321445Y425420D01*
X321352Y425355D01*
X321257Y425293D01*
X321160Y425235D01*
X321061Y425180D01*
X320960Y425129D01*
X320857Y425081D01*
X320753Y425036D01*
X320647Y424996D01*
X320540Y424959D01*
X320432Y424926D01*
X320322Y424896D01*
X320212Y424871D01*
X320101Y424849D01*
X319989Y424832D01*
X319876Y424818D01*
X319763Y424808D01*
X319650Y424802D01*
X319537Y424800D01*
X319537Y424801D02*
X316291Y424801D01*
X327552Y422854D02*
X327552Y431292D01*
X327551Y422854D02*
X327553Y422741D01*
X327559Y422628D01*
X327569Y422515D01*
X327583Y422402D01*
X327600Y422290D01*
X327622Y422179D01*
X327647Y422069D01*
X327677Y421959D01*
X327710Y421851D01*
X327747Y421744D01*
X327787Y421638D01*
X327832Y421534D01*
X327880Y421431D01*
X327931Y421330D01*
X327986Y421231D01*
X328044Y421134D01*
X328106Y421039D01*
X328171Y420946D01*
X328239Y420856D01*
X328310Y420768D01*
X328385Y420682D01*
X328462Y420599D01*
X328542Y420519D01*
X328625Y420442D01*
X328711Y420367D01*
X328799Y420296D01*
X328889Y420228D01*
X328982Y420163D01*
X329077Y420101D01*
X329174Y420043D01*
X329273Y419988D01*
X329374Y419937D01*
X329477Y419889D01*
X329581Y419844D01*
X329687Y419804D01*
X329794Y419767D01*
X329902Y419734D01*
X330012Y419704D01*
X330122Y419679D01*
X330233Y419657D01*
X330345Y419640D01*
X330458Y419626D01*
X330571Y419616D01*
X330684Y419610D01*
X330797Y419608D01*
X330910Y419610D01*
X331023Y419616D01*
X331136Y419626D01*
X331249Y419640D01*
X331361Y419657D01*
X331472Y419679D01*
X331582Y419704D01*
X331692Y419734D01*
X331800Y419767D01*
X331907Y419804D01*
X332013Y419844D01*
X332117Y419889D01*
X332220Y419937D01*
X332321Y419988D01*
X332420Y420043D01*
X332517Y420101D01*
X332612Y420163D01*
X332705Y420228D01*
X332795Y420296D01*
X332883Y420367D01*
X332969Y420442D01*
X333052Y420519D01*
X333132Y420599D01*
X333209Y420682D01*
X333284Y420768D01*
X333355Y420856D01*
X333423Y420946D01*
X333488Y421039D01*
X333550Y421134D01*
X333608Y421231D01*
X333663Y421330D01*
X333714Y421431D01*
X333762Y421534D01*
X333807Y421638D01*
X333847Y421744D01*
X333884Y421851D01*
X333917Y421959D01*
X333947Y422069D01*
X333972Y422179D01*
X333994Y422290D01*
X334011Y422402D01*
X334025Y422515D01*
X334035Y422628D01*
X334041Y422741D01*
X334043Y422854D01*
X334043Y431292D01*
X341846Y431292D02*
X341846Y419608D01*
X338601Y431292D02*
X345092Y431292D01*
M02*
