G04 EAGLE Gerber RS-274X export*
G75*
%MOMM*%
%FSLAX34Y34*%
%LPD*%
%INSilkscreen Bottom*%
%IPPOS*%
%AMOC8*
5,1,8,0,0,1.08239X$1,22.5*%
G01*
%ADD10R,0.013500X0.053900*%
%ADD11R,0.013500X0.067400*%
%ADD12R,0.013500X0.040400*%
%ADD13R,0.013500X0.013500*%
%ADD14R,0.013500X0.081000*%
%ADD15R,0.013500X0.553500*%
%ADD16R,0.013500X0.931500*%
%ADD17R,0.013500X1.106900*%
%ADD18R,0.013500X1.296000*%
%ADD19R,0.013500X1.485000*%
%ADD20R,0.013500X1.606500*%
%ADD21R,0.013500X0.027000*%
%ADD22R,0.013500X1.768600*%
%ADD23R,0.013500X1.809100*%
%ADD24R,0.013500X1.876500*%
%ADD25R,0.013500X1.943900*%
%ADD26R,0.013500X1.930600*%
%ADD27R,0.013500X1.984600*%
%ADD28R,0.013500X2.011600*%
%ADD29R,0.013500X2.051900*%
%ADD30R,0.013500X2.065500*%
%ADD31R,0.013500X0.256500*%
%ADD32R,0.013500X2.052000*%
%ADD33R,0.013500X0.013600*%
%ADD34R,0.013500X0.647900*%
%ADD35R,0.013500X2.106100*%
%ADD36R,0.013500X0.972000*%
%ADD37R,0.013500X2.119500*%
%ADD38R,0.013500X1.107100*%
%ADD39R,0.013500X2.173600*%
%ADD40R,0.013500X1.309500*%
%ADD41R,0.013500X2.187000*%
%ADD42R,0.013500X1.431000*%
%ADD43R,0.013500X2.200400*%
%ADD44R,0.013500X1.498500*%
%ADD45R,0.013500X0.013400*%
%ADD46R,0.013500X2.227400*%
%ADD47R,0.013500X0.040500*%
%ADD48R,0.013500X2.214100*%
%ADD49R,0.013500X1.552500*%
%ADD50R,0.013500X2.268000*%
%ADD51R,0.013500X1.620000*%
%ADD52R,0.013500X1.620100*%
%ADD53R,0.013500X0.067500*%
%ADD54R,0.013500X0.459100*%
%ADD55R,0.013500X0.769500*%
%ADD56R,0.013500X0.459000*%
%ADD57R,0.013500X1.080000*%
%ADD58R,0.013500X0.756000*%
%ADD59R,0.013500X1.323000*%
%ADD60R,0.013500X1.079900*%
%ADD61R,0.013500X0.445500*%
%ADD62R,0.013500X2.295100*%
%ADD63R,0.013500X1.633500*%
%ADD64R,0.013500X0.081100*%
%ADD65R,0.013500X2.322000*%
%ADD66R,0.013500X1.660500*%
%ADD67R,0.013500X0.094500*%
%ADD68R,0.013500X0.445600*%
%ADD69R,0.013500X2.335500*%
%ADD70R,0.013500X1.701000*%
%ADD71R,0.013500X0.121500*%
%ADD72R,0.013500X2.349000*%
%ADD73R,0.013500X1.741500*%
%ADD74R,0.013500X0.108100*%
%ADD75R,0.013500X2.362500*%
%ADD76R,0.013500X1.755000*%
%ADD77R,0.013500X0.121600*%
%ADD78R,0.013500X2.389400*%
%ADD79R,0.013500X0.027100*%
%ADD80R,0.013500X1.795500*%
%ADD81R,0.013500X0.135000*%
%ADD82R,0.013500X2.416500*%
%ADD83R,0.013500X1.822400*%
%ADD84R,0.013500X0.189000*%
%ADD85R,0.013500X1.836000*%
%ADD86R,0.013500X0.445400*%
%ADD87R,0.013500X2.456900*%
%ADD88R,0.013500X1.903500*%
%ADD89R,0.013500X0.202400*%
%ADD90R,0.013500X2.443500*%
%ADD91R,0.013500X1.916900*%
%ADD92R,0.013500X0.216000*%
%ADD93R,0.013500X2.484100*%
%ADD94R,0.013500X2.173500*%
%ADD95R,0.013500X2.470600*%
%ADD96R,0.013500X2.200500*%
%ADD97R,0.013500X2.511000*%
%ADD98R,0.013500X1.957500*%
%ADD99R,0.013500X2.254500*%
%ADD100R,0.013500X0.458900*%
%ADD101R,0.013500X2.551600*%
%ADD102R,0.013500X2.281400*%
%ADD103R,0.013500X2.538000*%
%ADD104R,0.013500X2.308400*%
%ADD105R,0.013500X2.565000*%
%ADD106R,0.013500X2.605400*%
%ADD107R,0.013500X2.375900*%
%ADD108R,0.013500X2.618900*%
%ADD109R,0.013500X2.402900*%
%ADD110R,0.013500X2.619000*%
%ADD111R,0.013500X2.632500*%
%ADD112R,0.013500X2.659400*%
%ADD113R,0.013500X2.470400*%
%ADD114R,0.013500X2.672900*%
%ADD115R,0.013500X2.483900*%
%ADD116R,0.013500X2.686400*%
%ADD117R,0.013500X2.524500*%
%ADD118R,0.013500X2.673000*%
%ADD119R,0.013500X2.700100*%
%ADD120R,0.013500X2.564900*%
%ADD121R,0.013500X2.740500*%
%ADD122R,0.013500X2.578400*%
%ADD123R,0.013500X2.754000*%
%ADD124R,0.013500X2.605500*%
%ADD125R,0.013500X2.781100*%
%ADD126R,0.013500X2.794500*%
%ADD127R,0.013500X2.659500*%
%ADD128R,0.013500X2.808000*%
%ADD129R,0.013500X2.699900*%
%ADD130R,0.013500X2.713500*%
%ADD131R,0.013500X2.821500*%
%ADD132R,0.013500X2.713600*%
%ADD133R,0.013500X2.848600*%
%ADD134R,0.013500X2.754100*%
%ADD135R,0.013500X2.767500*%
%ADD136R,0.013500X2.862100*%
%ADD137R,0.013500X2.875500*%
%ADD138R,0.013500X2.821600*%
%ADD139R,0.013500X2.889000*%
%ADD140R,0.013500X2.821400*%
%ADD141R,0.013500X2.929600*%
%ADD142R,0.013500X2.861900*%
%ADD143R,0.013500X2.956600*%
%ADD144R,0.013500X2.875400*%
%ADD145R,0.013500X2.916000*%
%ADD146R,0.013500X2.943100*%
%ADD147R,0.013500X2.929500*%
%ADD148R,0.013500X2.956500*%
%ADD149R,0.013500X2.970000*%
%ADD150R,0.013500X2.997000*%
%ADD151R,0.013500X2.970100*%
%ADD152R,0.013500X3.010600*%
%ADD153R,0.013500X3.024100*%
%ADD154R,0.013500X3.010500*%
%ADD155R,0.013500X0.431900*%
%ADD156R,0.013500X3.024000*%
%ADD157R,0.013500X3.091500*%
%ADD158R,0.013500X3.064400*%
%ADD159R,0.013500X3.077900*%
%ADD160R,0.013500X3.118600*%
%ADD161R,0.013500X3.132000*%
%ADD162R,0.013500X0.648000*%
%ADD163R,0.013500X3.172500*%
%ADD164R,0.013500X3.186100*%
%ADD165R,0.013500X3.105000*%
%ADD166R,0.013500X3.226600*%
%ADD167R,0.013500X1.282400*%
%ADD168R,0.013500X1.269100*%
%ADD169R,0.013500X3.158900*%
%ADD170R,0.013500X3.213000*%
%ADD171R,0.013500X3.240000*%
%ADD172R,0.013500X3.172400*%
%ADD173R,0.013500X3.186000*%
%ADD174R,0.013500X3.294000*%
%ADD175R,0.013500X3.199500*%
%ADD176R,0.013500X3.307400*%
%ADD177R,0.013500X3.348100*%
%ADD178R,0.013500X1.322900*%
%ADD179R,0.013500X3.320900*%
%ADD180R,0.013500X3.361500*%
%ADD181R,0.013500X3.212900*%
%ADD182R,0.013500X3.361600*%
%ADD183R,0.013500X3.239900*%
%ADD184R,0.013500X3.402000*%
%ADD185R,0.013500X3.415500*%
%ADD186R,0.013500X1.012500*%
%ADD187R,0.013500X1.039500*%
%ADD188R,0.013500X0.999100*%
%ADD189R,0.013500X3.253400*%
%ADD190R,0.013500X3.429100*%
%ADD191R,0.013500X3.253500*%
%ADD192R,0.013500X3.456100*%
%ADD193R,0.013500X3.267000*%
%ADD194R,0.013500X3.469500*%
%ADD195R,0.013500X3.280500*%
%ADD196R,0.013500X3.496600*%
%ADD197R,0.013500X3.523500*%
%ADD198R,0.013500X3.523400*%
%ADD199R,0.013500X3.564000*%
%ADD200R,0.013500X3.334400*%
%ADD201R,0.013500X3.577400*%
%ADD202R,0.013500X3.577600*%
%ADD203R,0.013500X3.348000*%
%ADD204R,0.013500X3.617900*%
%ADD205R,0.013500X3.631500*%
%ADD206R,0.013500X3.672100*%
%ADD207R,0.013500X3.375000*%
%ADD208R,0.013500X3.685400*%
%ADD209R,0.013500X3.685600*%
%ADD210R,0.013500X3.726000*%
%ADD211R,0.013500X3.388400*%
%ADD212R,0.013500X3.753100*%
%ADD213R,0.013500X3.739500*%
%ADD214R,0.013500X3.401900*%
%ADD215R,0.013500X3.780000*%
%ADD216R,0.013500X3.415400*%
%ADD217R,0.013500X3.428900*%
%ADD218R,0.013500X3.807000*%
%ADD219R,0.013500X3.442500*%
%ADD220R,0.013500X3.847600*%
%ADD221R,0.013500X3.874500*%
%ADD222R,0.013500X3.456000*%
%ADD223R,0.013500X3.887900*%
%ADD224R,0.013500X3.901400*%
%ADD225R,0.013500X3.482900*%
%ADD226R,0.013500X3.928500*%
%ADD227R,0.013500X3.941900*%
%ADD228R,0.013500X3.496400*%
%ADD229R,0.013500X3.996000*%
%ADD230R,0.013500X4.009500*%
%ADD231R,0.013500X3.483000*%
%ADD232R,0.013500X4.036500*%
%ADD233R,0.013500X4.022900*%
%ADD234R,0.013500X3.510000*%
%ADD235R,0.013500X4.063500*%
%ADD236R,0.013500X4.077100*%
%ADD237R,0.013500X3.523600*%
%ADD238R,0.013500X4.104000*%
%ADD239R,0.013500X4.117600*%
%ADD240R,0.013500X4.144400*%
%ADD241R,0.013500X4.171500*%
%ADD242R,0.013500X4.185100*%
%ADD243R,0.013500X3.537100*%
%ADD244R,0.013500X4.198500*%
%ADD245R,0.013500X3.550500*%
%ADD246R,0.013500X4.212100*%
%ADD247R,0.013500X4.239000*%
%ADD248R,0.013500X4.252600*%
%ADD249R,0.013500X4.279500*%
%ADD250R,0.013500X4.306400*%
%ADD251R,0.013500X3.577500*%
%ADD252R,0.013500X4.320000*%
%ADD253R,0.013500X4.333400*%
%ADD254R,0.013500X4.347000*%
%ADD255R,0.013500X4.360400*%
%ADD256R,0.013500X4.387600*%
%ADD257R,0.013500X4.414500*%
%ADD258R,0.013500X4.428000*%
%ADD259R,0.013500X4.441600*%
%ADD260R,0.013500X3.591100*%
%ADD261R,0.013500X4.455000*%
%ADD262R,0.013500X4.468600*%
%ADD263R,0.013500X3.604600*%
%ADD264R,0.013500X4.495400*%
%ADD265R,0.013500X4.509000*%
%ADD266R,0.013500X4.536000*%
%ADD267R,0.013500X4.549500*%
%ADD268R,0.013500X4.563100*%
%ADD269R,0.013500X4.576500*%
%ADD270R,0.013500X4.590100*%
%ADD271R,0.013500X3.618000*%
%ADD272R,0.013500X4.616900*%
%ADD273R,0.013500X1.053000*%
%ADD274R,0.013500X1.066600*%
%ADD275R,0.013500X1.242000*%
%ADD276R,0.013500X1.066400*%
%ADD277R,0.013500X4.630400*%
%ADD278R,0.013500X3.604400*%
%ADD279R,0.013500X4.644000*%
%ADD280R,0.013500X4.657400*%
%ADD281R,0.013500X4.684600*%
%ADD282R,0.013500X4.698000*%
%ADD283R,0.013500X4.711600*%
%ADD284R,0.013500X4.725000*%
%ADD285R,0.013500X1.269000*%
%ADD286R,0.013500X4.738500*%
%ADD287R,0.013500X1.039400*%
%ADD288R,0.013500X1.255500*%
%ADD289R,0.013500X1.255600*%
%ADD290R,0.013500X4.752100*%
%ADD291R,0.013500X1.026000*%
%ADD292R,0.013500X1.241900*%
%ADD293R,0.013500X4.765500*%
%ADD294R,0.013500X1.228500*%
%ADD295R,0.013500X4.792600*%
%ADD296R,0.013500X0.998900*%
%ADD297R,0.013500X1.215000*%
%ADD298R,0.013500X4.806000*%
%ADD299R,0.013500X0.985500*%
%ADD300R,0.013500X1.201400*%
%ADD301R,0.013500X0.985400*%
%ADD302R,0.013500X1.201600*%
%ADD303R,0.013500X4.819600*%
%ADD304R,0.013500X0.971900*%
%ADD305R,0.013500X1.187900*%
%ADD306R,0.013500X1.188100*%
%ADD307R,0.013500X4.860100*%
%ADD308R,0.013500X0.958500*%
%ADD309R,0.013500X1.174500*%
%ADD310R,0.013500X1.174600*%
%ADD311R,0.013500X4.873500*%
%ADD312R,0.013500X0.944900*%
%ADD313R,0.013500X1.161000*%
%ADD314R,0.013500X1.161100*%
%ADD315R,0.013500X4.887100*%
%ADD316R,0.013500X1.147400*%
%ADD317R,0.013500X1.134000*%
%ADD318R,0.013500X0.918000*%
%ADD319R,0.013500X1.120500*%
%ADD320R,0.013500X1.201500*%
%ADD321R,0.013500X2.389500*%
%ADD322R,0.013500X4.913900*%
%ADD323R,0.013500X0.904400*%
%ADD324R,0.013500X1.188000*%
%ADD325R,0.013500X4.927500*%
%ADD326R,0.013500X0.891000*%
%ADD327R,0.013500X1.093400*%
%ADD328R,0.013500X1.093600*%
%ADD329R,0.013500X2.281500*%
%ADD330R,0.013500X4.954500*%
%ADD331R,0.013500X0.877400*%
%ADD332R,0.013500X0.877500*%
%ADD333R,0.013500X1.080100*%
%ADD334R,0.013500X4.954400*%
%ADD335R,0.013500X0.864000*%
%ADD336R,0.013500X1.066500*%
%ADD337R,0.013500X0.863900*%
%ADD338R,0.013500X4.940900*%
%ADD339R,0.013500X0.850400*%
%ADD340R,0.013500X1.052900*%
%ADD341R,0.013500X0.837000*%
%ADD342R,0.013500X2.213900*%
%ADD343R,0.013500X4.968000*%
%ADD344R,0.013500X0.823500*%
%ADD345R,0.013500X2.227500*%
%ADD346R,0.013500X4.981400*%
%ADD347R,0.013500X0.809900*%
%ADD348R,0.013500X1.012400*%
%ADD349R,0.013500X1.012600*%
%ADD350R,0.013500X4.995000*%
%ADD351R,0.013500X0.796500*%
%ADD352R,0.013500X2.200600*%
%ADD353R,0.013500X5.022000*%
%ADD354R,0.013500X0.782900*%
%ADD355R,0.013500X0.783000*%
%ADD356R,0.013500X0.985600*%
%ADD357R,0.013500X2.187100*%
%ADD358R,0.013500X5.035600*%
%ADD359R,0.013500X0.769400*%
%ADD360R,0.013500X0.972100*%
%ADD361R,0.013500X5.049100*%
%ADD362R,0.013500X0.755900*%
%ADD363R,0.013500X0.958400*%
%ADD364R,0.013500X0.945000*%
%ADD365R,0.013500X0.958600*%
%ADD366R,0.013500X2.160000*%
%ADD367R,0.013500X5.062500*%
%ADD368R,0.013500X5.076100*%
%ADD369R,0.013500X5.089500*%
%ADD370R,0.013500X0.945100*%
%ADD371R,0.013500X5.103100*%
%ADD372R,0.013500X2.146500*%
%ADD373R,0.013500X5.116500*%
%ADD374R,0.013500X5.130000*%
%ADD375R,0.013500X2.133100*%
%ADD376R,0.013500X5.143600*%
%ADD377R,0.013500X0.890900*%
%ADD378R,0.013500X5.157000*%
%ADD379R,0.013500X2.119600*%
%ADD380R,0.013500X5.170600*%
%ADD381R,0.013500X5.197600*%
%ADD382R,0.013500X5.211000*%
%ADD383R,0.013500X5.224400*%
%ADD384R,0.013500X2.092600*%
%ADD385R,0.013500X5.237900*%
%ADD386R,0.013500X2.079000*%
%ADD387R,0.013500X5.251500*%
%ADD388R,0.013500X2.092500*%
%ADD389R,0.013500X5.264900*%
%ADD390R,0.013500X5.278500*%
%ADD391R,0.013500X5.291900*%
%ADD392R,0.013500X5.305500*%
%ADD393R,0.013500X5.318900*%
%ADD394R,0.013500X0.418600*%
%ADD395R,0.013500X0.135100*%
%ADD396R,0.013500X5.332400*%
%ADD397R,0.013500X5.359400*%
%ADD398R,0.013500X0.148600*%
%ADD399R,0.013500X0.783100*%
%ADD400R,0.013500X5.346000*%
%ADD401R,0.013500X0.162100*%
%ADD402R,0.013500X5.373000*%
%ADD403R,0.013500X2.052100*%
%ADD404R,0.013500X5.386400*%
%ADD405R,0.013500X0.175500*%
%ADD406R,0.013500X5.400000*%
%ADD407R,0.013500X0.742500*%
%ADD408R,0.013500X2.038600*%
%ADD409R,0.013500X5.413400*%
%ADD410R,0.013500X0.729000*%
%ADD411R,0.013500X2.025100*%
%ADD412R,0.013500X5.454000*%
%ADD413R,0.013500X5.440400*%
%ADD414R,0.013500X0.202500*%
%ADD415R,0.013500X0.729100*%
%ADD416R,0.013500X2.038500*%
%ADD417R,0.013500X0.715600*%
%ADD418R,0.013500X2.025000*%
%ADD419R,0.013500X5.467400*%
%ADD420R,0.013500X0.215900*%
%ADD421R,0.013500X5.481000*%
%ADD422R,0.013500X5.480900*%
%ADD423R,0.013500X0.229400*%
%ADD424R,0.013500X0.702100*%
%ADD425R,0.013500X2.011400*%
%ADD426R,0.013500X5.521500*%
%ADD427R,0.013500X0.688600*%
%ADD428R,0.013500X5.507900*%
%ADD429R,0.013500X0.242900*%
%ADD430R,0.013500X0.675100*%
%ADD431R,0.013500X0.675000*%
%ADD432R,0.013500X2.024900*%
%ADD433R,0.013500X5.534900*%
%ADD434R,0.013500X0.256400*%
%ADD435R,0.013500X1.997900*%
%ADD436R,0.013500X5.548500*%
%ADD437R,0.013500X0.661500*%
%ADD438R,0.013500X5.575500*%
%ADD439R,0.013500X0.269900*%
%ADD440R,0.013500X5.561900*%
%ADD441R,0.013500X0.621100*%
%ADD442R,0.013500X1.984400*%
%ADD443R,0.013500X0.283500*%
%ADD444R,0.013500X1.971000*%
%ADD445R,0.013500X5.588900*%
%ADD446R,0.013500X0.297100*%
%ADD447R,0.013500X0.634600*%
%ADD448R,0.013500X5.616000*%
%ADD449R,0.013500X0.634500*%
%ADD450R,0.013500X1.984500*%
%ADD451R,0.013500X5.602400*%
%ADD452R,0.013500X0.621000*%
%ADD453R,0.013500X0.310600*%
%ADD454R,0.013500X5.629400*%
%ADD455R,0.013500X0.324100*%
%ADD456R,0.013500X5.656400*%
%ADD457R,0.013500X0.580400*%
%ADD458R,0.013500X5.643000*%
%ADD459R,0.013500X0.337600*%
%ADD460R,0.013500X1.944000*%
%ADD461R,0.013500X5.670000*%
%ADD462R,0.013500X0.351100*%
%ADD463R,0.013500X5.710500*%
%ADD464R,0.013500X0.567000*%
%ADD465R,0.013500X5.697000*%
%ADD466R,0.013500X5.696900*%
%ADD467R,0.013500X0.364500*%
%ADD468R,0.013500X0.526500*%
%ADD469R,0.013500X1.930400*%
%ADD470R,0.013500X5.723900*%
%ADD471R,0.013500X0.378000*%
%ADD472R,0.013500X0.512900*%
%ADD473R,0.013500X5.737500*%
%ADD474R,0.013500X0.540000*%
%ADD475R,0.013500X5.764500*%
%ADD476R,0.013500X0.391500*%
%ADD477R,0.013500X0.526400*%
%ADD478R,0.013500X5.751100*%
%ADD479R,0.013500X0.404900*%
%ADD480R,0.013500X0.513100*%
%ADD481R,0.013500X5.791500*%
%ADD482R,0.013500X0.499600*%
%ADD483R,0.013500X5.778100*%
%ADD484R,0.013500X0.418400*%
%ADD485R,0.013500X0.472600*%
%ADD486R,0.013500X1.890000*%
%ADD487R,0.013500X5.818600*%
%ADD488R,0.013500X5.805000*%
%ADD489R,0.013500X0.472500*%
%ADD490R,0.013500X5.845600*%
%ADD491R,0.013500X5.832000*%
%ADD492R,0.013500X1.863000*%
%ADD493R,0.013500X1.849400*%
%ADD494R,0.013500X5.859000*%
%ADD495R,0.013500X0.486100*%
%ADD496R,0.013500X0.432000*%
%ADD497R,0.013500X5.886000*%
%ADD498R,0.013500X1.862900*%
%ADD499R,0.013500X5.912900*%
%ADD500R,0.013500X5.899400*%
%ADD501R,0.013500X0.405000*%
%ADD502R,0.013500X5.939900*%
%ADD503R,0.013500X5.926500*%
%ADD504R,0.013500X0.526600*%
%ADD505R,0.013500X1.809000*%
%ADD506R,0.013500X4.387500*%
%ADD507R,0.013500X0.540100*%
%ADD508R,0.013500X1.822500*%
%ADD509R,0.013500X4.373900*%
%ADD510R,0.013500X1.525400*%
%ADD511R,0.013500X5.967100*%
%ADD512R,0.013500X0.351000*%
%ADD513R,0.013500X1.511900*%
%ADD514R,0.013500X4.441500*%
%ADD515R,0.013500X0.296900*%
%ADD516R,0.013500X4.414400*%
%ADD517R,0.013500X0.283400*%
%ADD518R,0.013500X1.795600*%
%ADD519R,0.013500X0.297000*%
%ADD520R,0.013500X1.498600*%
%ADD521R,0.013500X4.427900*%
%ADD522R,0.013500X0.580500*%
%ADD523R,0.013500X0.310500*%
%ADD524R,0.013500X4.482000*%
%ADD525R,0.013500X0.593900*%
%ADD526R,0.013500X1.782000*%
%ADD527R,0.013500X1.485100*%
%ADD528R,0.013500X1.768500*%
%ADD529R,0.013500X1.471500*%
%ADD530R,0.013500X4.509100*%
%ADD531R,0.013500X0.229500*%
%ADD532R,0.013500X4.468500*%
%ADD533R,0.013500X0.607400*%
%ADD534R,0.013500X0.229600*%
%ADD535R,0.013500X1.458000*%
%ADD536R,0.013500X4.495500*%
%ADD537R,0.013500X0.620900*%
%ADD538R,0.013500X0.256600*%
%ADD539R,0.013500X1.741600*%
%ADD540R,0.013500X0.634400*%
%ADD541R,0.013500X1.755100*%
%ADD542R,0.013500X1.444500*%
%ADD543R,0.013500X4.536100*%
%ADD544R,0.013500X1.431100*%
%ADD545R,0.013500X4.535900*%
%ADD546R,0.013500X1.728100*%
%ADD547R,0.013500X0.162000*%
%ADD548R,0.013500X1.417600*%
%ADD549R,0.013500X4.522600*%
%ADD550R,0.013500X1.714600*%
%ADD551R,0.013500X0.161900*%
%ADD552R,0.013500X4.562900*%
%ADD553R,0.013500X1.403900*%
%ADD554R,0.013500X1.714500*%
%ADD555R,0.013500X4.590000*%
%ADD556R,0.013500X1.376900*%
%ADD557R,0.013500X4.576400*%
%ADD558R,0.013500X1.687500*%
%ADD559R,0.013500X1.377100*%
%ADD560R,0.013500X4.563000*%
%ADD561R,0.013500X0.121400*%
%ADD562R,0.013500X1.390500*%
%ADD563R,0.013500X1.674100*%
%ADD564R,0.013500X1.377000*%
%ADD565R,0.013500X4.576600*%
%ADD566R,0.013500X1.363500*%
%ADD567R,0.013500X1.660600*%
%ADD568R,0.013500X1.349900*%
%ADD569R,0.013500X4.630500*%
%ADD570R,0.013500X1.674000*%
%ADD571R,0.013500X0.067600*%
%ADD572R,0.013500X1.647000*%
%ADD573R,0.013500X1.336500*%
%ADD574R,0.013500X4.643900*%
%ADD575R,0.013500X0.337500*%
%ADD576R,0.013500X1.633400*%
%ADD577R,0.013500X1.309600*%
%ADD578R,0.013500X0.054000*%
%ADD579R,0.013500X1.619900*%
%ADD580R,0.013500X1.296100*%
%ADD581R,0.013500X4.617000*%
%ADD582R,0.013500X0.337400*%
%ADD583R,0.013500X1.282500*%
%ADD584R,0.013500X1.593000*%
%ADD585R,0.013500X4.671000*%
%ADD586R,0.013500X1.282600*%
%ADD587R,0.013500X0.350900*%
%ADD588R,0.013500X1.579500*%
%ADD589R,0.013500X1.565900*%
%ADD590R,0.013500X4.697900*%
%ADD591R,0.013500X1.579400*%
%ADD592R,0.013500X4.684400*%
%ADD593R,0.013500X1.214900*%
%ADD594R,0.013500X4.725100*%
%ADD595R,0.013500X1.552600*%
%ADD596R,0.013500X1.539100*%
%ADD597R,0.013500X0.742600*%
%ADD598R,0.013500X1.525600*%
%ADD599R,0.013500X1.147600*%
%ADD600R,0.013500X4.711400*%
%ADD601R,0.013500X1.525500*%
%ADD602R,0.013500X1.120600*%
%ADD603R,0.013500X1.120400*%
%ADD604R,0.013500X1.471600*%
%ADD605R,0.013500X1.093500*%
%ADD606R,0.013500X1.458100*%
%ADD607R,0.013500X1.457900*%
%ADD608R,0.013500X1.039600*%
%ADD609R,0.013500X1.444400*%
%ADD610R,0.013500X3.159100*%
%ADD611R,0.013500X0.175400*%
%ADD612R,0.013500X0.688500*%
%ADD613R,0.013500X3.118500*%
%ADD614R,0.013500X0.040600*%
%ADD615R,0.013500X0.080900*%
%ADD616R,0.013500X0.054100*%
%ADD617R,0.013500X0.026900*%
%ADD618R,0.013500X1.228600*%
%ADD619R,0.013500X1.363600*%
%ADD620R,0.013500X3.078100*%
%ADD621R,0.013500X0.918100*%
%ADD622R,0.013500X3.064500*%
%ADD623R,0.013500X0.917900*%
%ADD624R,0.013500X1.350100*%
%ADD625R,0.013500X3.037400*%
%ADD626R,0.013500X0.877600*%
%ADD627R,0.013500X3.010400*%
%ADD628R,0.013500X0.850600*%
%ADD629R,0.013500X2.996900*%
%ADD630R,0.013500X2.983500*%
%ADD631R,0.013500X0.648100*%
%ADD632R,0.013500X1.268900*%
%ADD633R,0.013500X1.025900*%
%ADD634R,0.013500X2.969900*%
%ADD635R,0.013500X0.702000*%
%ADD636R,0.013500X0.796600*%
%ADD637R,0.013500X0.931400*%
%ADD638R,0.013500X0.904600*%
%ADD639R,0.013500X0.499500*%
%ADD640R,0.013500X1.147500*%
%ADD641R,0.013500X2.983600*%
%ADD642R,0.013500X0.864100*%
%ADD643R,0.013500X0.607600*%
%ADD644R,0.013500X0.810100*%
%ADD645R,0.013500X0.850500*%
%ADD646R,0.013500X0.324000*%
%ADD647R,0.013500X0.837100*%
%ADD648R,0.013500X0.594000*%
%ADD649R,0.013500X0.810000*%
%ADD650R,0.013500X2.997100*%
%ADD651R,0.013500X0.715400*%
%ADD652R,0.013500X1.107000*%
%ADD653R,0.013500X0.553600*%
%ADD654R,0.013500X0.836900*%
%ADD655R,0.013500X0.688400*%
%ADD656R,0.013500X3.037600*%
%ADD657R,0.013500X3.023900*%
%ADD658R,0.013500X0.661600*%
%ADD659R,0.013500X3.037500*%
%ADD660R,0.013500X0.539900*%
%ADD661R,0.013500X0.486000*%
%ADD662R,0.013500X3.050900*%
%ADD663R,0.013500X0.607500*%
%ADD664R,0.013500X0.485900*%
%ADD665R,0.013500X3.091600*%
%ADD666R,0.013500X3.091400*%
%ADD667R,0.013500X3.078000*%
%ADD668R,0.013500X0.566900*%
%ADD669R,0.013500X3.104900*%
%ADD670R,0.013500X0.513000*%
%ADD671R,0.013500X3.131900*%
%ADD672R,0.013500X3.145400*%
%ADD673R,0.013500X0.499400*%
%ADD674R,0.013500X3.159000*%
%ADD675R,0.013500X3.132100*%
%ADD676R,0.013500X0.432100*%
%ADD677R,0.013500X3.145500*%
%ADD678R,0.013500X0.364400*%
%ADD679R,0.013500X3.226500*%
%ADD680R,0.013500X3.213100*%
%ADD681R,0.013500X3.240100*%
%ADD682R,0.013500X3.253600*%
%ADD683R,0.013500X0.364600*%
%ADD684R,0.013500X3.280600*%
%ADD685R,0.013500X3.307600*%
%ADD686R,0.013500X3.293900*%
%ADD687R,0.013500X3.321000*%
%ADD688R,0.013500X3.361400*%
%ADD689R,0.013500X3.334500*%
%ADD690R,0.013500X0.270100*%
%ADD691R,0.013500X0.243100*%
%ADD692R,0.013500X3.347900*%
%ADD693R,0.013500X0.202600*%
%ADD694R,0.013500X3.374900*%
%ADD695R,0.013500X3.334600*%
%ADD696R,0.013500X0.216100*%
%ADD697R,0.013500X3.388500*%
%ADD698R,0.013500X0.175600*%
%ADD699R,0.013500X0.134900*%
%ADD700R,0.013500X3.402100*%
%ADD701R,0.013500X3.429000*%
%ADD702R,0.013500X3.415600*%
%ADD703R,0.013500X3.388600*%
%ADD704R,0.013500X3.442400*%
%ADD705R,0.013500X3.442600*%
%ADD706R,0.013500X3.375100*%
%ADD707R,0.013500X3.321100*%
%ADD708R,0.013500X3.280400*%
%ADD709R,0.013500X3.226400*%
%ADD710R,0.013500X3.199600*%
%ADD711R,0.013500X3.185900*%
%ADD712R,0.013500X3.105100*%
%ADD713R,0.013500X3.051000*%
%ADD714R,0.013500X3.051100*%
%ADD715R,0.013500X2.956400*%
%ADD716R,0.013500X2.942900*%
%ADD717R,0.013500X2.889100*%
%ADD718R,0.013500X2.862000*%
%ADD719R,0.013500X2.848500*%
%ADD720R,0.013500X2.835000*%
%ADD721R,0.013500X2.808100*%
%ADD722R,0.013500X2.794600*%
%ADD723R,0.013500X2.781000*%
%ADD724R,0.013500X2.740600*%
%ADD725R,0.013500X2.727100*%
%ADD726R,0.013500X2.700000*%
%ADD727R,0.013500X2.686500*%
%ADD728R,0.013500X2.673100*%
%ADD729R,0.013500X2.659600*%
%ADD730R,0.013500X2.646100*%
%ADD731R,0.013500X2.632600*%
%ADD732R,0.013500X2.592000*%
%ADD733R,0.013500X2.538100*%
%ADD734R,0.013500X2.524600*%
%ADD735R,0.013500X2.511100*%
%ADD736R,0.013500X2.497500*%
%ADD737R,0.013500X2.484000*%
%ADD738R,0.013500X2.457000*%
%ADD739R,0.013500X2.429900*%
%ADD740R,0.013500X2.416400*%
%ADD741R,0.013500X2.376000*%
%ADD742R,0.013500X2.294900*%
%ADD743R,0.013500X2.308500*%
%ADD744R,0.013500X2.281600*%
%ADD745R,0.013500X2.254600*%
%ADD746R,0.013500X2.214000*%
%ADD747R,0.013500X2.173400*%
%ADD748R,0.013500X2.159900*%
%ADD749R,0.013500X2.133000*%
%ADD750R,0.013500X2.079100*%
%ADD751R,0.013500X2.038400*%
%ADD752R,0.013500X1.998000*%
%ADD753R,0.013500X1.957600*%
%ADD754R,0.013500X1.917100*%
%ADD755R,0.013500X1.889900*%
%ADD756R,0.013500X1.849500*%
%ADD757R,0.013500X1.835900*%
%ADD758R,0.013500X1.822600*%
%ADD759R,0.013500X1.768400*%
%ADD760R,0.013500X1.714400*%
%ADD761R,0.013500X1.701100*%
%ADD762R,0.013500X1.579600*%
%ADD763R,0.013500X1.566000*%
%ADD764R,0.013500X1.538900*%
%ADD765R,0.013500X1.484900*%
%ADD766R,0.013500X1.444600*%
%ADD767R,0.013500X1.404000*%
%ADD768R,0.013500X1.390600*%
%ADD769R,0.013500X1.417400*%
%ADD770R,0.013500X1.363400*%
%ADD771R,0.013500X1.350000*%
%ADD772R,0.013500X1.309400*%
%ADD773R,0.013500X1.228400*%
%ADD774R,0.013500X1.134100*%
%ADD775R,0.013500X1.160900*%
%ADD776R,0.013500X1.026100*%
%ADD777R,0.013500X0.931600*%
%ADD778R,0.013500X0.553400*%
%ADD779R,0.013500X0.405100*%
%ADD780R,0.013500X0.391400*%
%ADD781R,0.013500X0.148500*%
%ADD782R,0.013500X0.108000*%
%ADD783C,0.000000*%


D10*
X108810Y605813D03*
D11*
X108810Y606825D03*
X108810Y607770D03*
D12*
X108810Y608580D03*
D13*
X108810Y609391D03*
D14*
X108945Y604058D03*
D15*
X108945Y607366D03*
D12*
X108945Y610470D03*
D13*
X108945Y611281D03*
D16*
X109080Y607366D03*
D17*
X109215Y607298D03*
D12*
X109215Y613305D03*
D18*
X109350Y607298D03*
D13*
X109350Y614250D03*
D19*
X109485Y607298D03*
D20*
X109620Y606961D03*
D21*
X109620Y615262D03*
D22*
X109755Y607095D03*
D21*
X109755Y616207D03*
D23*
X109890Y607703D03*
D24*
X110025Y608040D03*
X110160Y608311D03*
D25*
X110295Y608648D03*
D26*
X110430Y609120D03*
D27*
X110565Y609525D03*
D28*
X110700Y609660D03*
D13*
X110700Y620055D03*
D29*
X110835Y609998D03*
D13*
X110970Y423091D03*
D30*
X110970Y610201D03*
D13*
X111105Y422550D03*
D31*
X111105Y424306D03*
D32*
X111105Y610537D03*
D21*
X111105Y621067D03*
D33*
X111240Y421065D03*
D34*
X111240Y424643D03*
D35*
X111240Y610943D03*
D36*
X111375Y424642D03*
D37*
X111375Y611145D03*
D13*
X111375Y621945D03*
D38*
X111510Y424778D03*
D39*
X111510Y611415D03*
D40*
X111645Y424575D03*
D41*
X111645Y611618D03*
D42*
X111780Y424642D03*
D43*
X111780Y611685D03*
D13*
X111915Y416881D03*
D44*
X111915Y424575D03*
D45*
X111915Y432270D03*
D46*
X111915Y611955D03*
D13*
X112050Y416205D03*
D44*
X112050Y423900D03*
D47*
X112050Y431731D03*
D45*
X112050Y432270D03*
D48*
X112050Y612293D03*
D13*
X112185Y415530D03*
D49*
X112185Y423496D03*
D21*
X112185Y431527D03*
X112185Y431932D03*
D45*
X112185Y432270D03*
D50*
X112185Y612562D03*
D51*
X112320Y423158D03*
D33*
X112320Y431460D03*
D47*
X112320Y431865D03*
D45*
X112320Y432270D03*
D50*
X112320Y612697D03*
D52*
X112455Y422888D03*
D45*
X112455Y431325D03*
D53*
X112455Y431866D03*
D54*
X112455Y447728D03*
D55*
X112455Y461836D03*
D56*
X112455Y470003D03*
X112455Y478642D03*
D57*
X112455Y488227D03*
D56*
X112455Y504967D03*
D58*
X112455Y519007D03*
D59*
X112455Y531562D03*
D56*
X112455Y542633D03*
X112455Y551272D03*
X112455Y562342D03*
D60*
X112455Y576248D03*
D56*
X112455Y585697D03*
D61*
X112455Y594405D03*
D62*
X112455Y612833D03*
D63*
X112590Y422550D03*
D33*
X112590Y431190D03*
D64*
X112590Y431798D03*
D54*
X112590Y447728D03*
D55*
X112590Y461836D03*
D56*
X112590Y470003D03*
X112590Y478642D03*
D57*
X112590Y488227D03*
D56*
X112590Y504967D03*
D58*
X112590Y519007D03*
D59*
X112590Y531562D03*
D56*
X112590Y542633D03*
X112590Y551272D03*
X112590Y562342D03*
D60*
X112590Y576248D03*
D56*
X112590Y585697D03*
X112590Y594337D03*
D65*
X112590Y612967D03*
D66*
X112725Y422145D03*
D21*
X112725Y430987D03*
D67*
X112725Y431731D03*
D54*
X112725Y447728D03*
D55*
X112725Y461836D03*
D56*
X112725Y470003D03*
D68*
X112725Y478575D03*
D57*
X112725Y488227D03*
D56*
X112725Y504967D03*
D58*
X112725Y519007D03*
D59*
X112725Y531562D03*
D56*
X112725Y542633D03*
X112725Y551272D03*
X112725Y562342D03*
D60*
X112725Y576248D03*
D56*
X112725Y585697D03*
X112725Y594337D03*
D69*
X112725Y613170D03*
D70*
X112860Y421808D03*
D13*
X112860Y430785D03*
D71*
X112860Y431596D03*
D54*
X112860Y447728D03*
D55*
X112860Y461836D03*
D56*
X112860Y470003D03*
D54*
X112860Y478508D03*
D57*
X112860Y488227D03*
D56*
X112860Y504967D03*
D58*
X112860Y519007D03*
D59*
X112860Y531562D03*
D56*
X112860Y542633D03*
X112860Y551272D03*
X112860Y562342D03*
D60*
X112860Y576248D03*
D56*
X112860Y585697D03*
D61*
X112860Y594270D03*
D72*
X112860Y613373D03*
D73*
X112995Y421470D03*
D45*
X112995Y430650D03*
D74*
X112995Y431393D03*
D33*
X112995Y432135D03*
D54*
X112995Y447728D03*
D55*
X112995Y461836D03*
D56*
X112995Y470003D03*
D54*
X112995Y478508D03*
D57*
X112995Y488227D03*
D56*
X112995Y504967D03*
D58*
X112995Y519007D03*
D59*
X112995Y531562D03*
D56*
X112995Y542633D03*
X112995Y551272D03*
X112995Y562342D03*
D60*
X112995Y576248D03*
D56*
X112995Y585697D03*
X112995Y594202D03*
D75*
X112995Y613576D03*
D76*
X113130Y421268D03*
D33*
X113130Y430515D03*
D77*
X113130Y431325D03*
D33*
X113130Y432135D03*
D54*
X113130Y447728D03*
D55*
X113130Y461836D03*
D56*
X113130Y470003D03*
D68*
X113130Y478440D03*
D57*
X113130Y488227D03*
D56*
X113130Y504967D03*
D58*
X113130Y519007D03*
D59*
X113130Y531562D03*
D56*
X113130Y542633D03*
X113130Y551272D03*
X113130Y562342D03*
D60*
X113130Y576248D03*
D56*
X113130Y585697D03*
X113130Y594202D03*
D78*
X113130Y613710D03*
D79*
X113130Y625928D03*
D80*
X113265Y420930D03*
D21*
X113265Y430312D03*
D81*
X113265Y431258D03*
D33*
X113265Y432135D03*
D54*
X113265Y447728D03*
D55*
X113265Y461836D03*
D56*
X113265Y470003D03*
X113265Y478373D03*
D57*
X113265Y488227D03*
D56*
X113265Y504967D03*
D58*
X113265Y519007D03*
D59*
X113265Y531562D03*
D56*
X113265Y542633D03*
X113265Y551272D03*
X113265Y562342D03*
D60*
X113265Y576248D03*
D56*
X113265Y585697D03*
D54*
X113265Y594068D03*
D82*
X113265Y613981D03*
D83*
X113400Y420660D03*
D45*
X113400Y430110D03*
D84*
X113400Y431258D03*
D54*
X113400Y447728D03*
D55*
X113400Y461836D03*
D56*
X113400Y470003D03*
X113400Y478373D03*
D57*
X113400Y488227D03*
D56*
X113400Y504967D03*
D58*
X113400Y519007D03*
D59*
X113400Y531562D03*
D56*
X113400Y542633D03*
X113400Y551272D03*
X113400Y562342D03*
D60*
X113400Y576248D03*
D56*
X113400Y585697D03*
D54*
X113400Y594068D03*
D82*
X113400Y613981D03*
D85*
X113535Y420458D03*
D33*
X113535Y429975D03*
D84*
X113535Y431122D03*
D54*
X113535Y447728D03*
D55*
X113535Y461836D03*
D56*
X113535Y470003D03*
D86*
X113535Y478305D03*
D57*
X113535Y488227D03*
D56*
X113535Y504967D03*
D58*
X113535Y519007D03*
D59*
X113535Y531562D03*
D56*
X113535Y542633D03*
X113535Y551272D03*
X113535Y562342D03*
D60*
X113535Y576248D03*
D56*
X113535Y585697D03*
D68*
X113535Y594000D03*
D87*
X113535Y614183D03*
D88*
X113670Y420390D03*
D89*
X113670Y431055D03*
D54*
X113670Y447728D03*
D55*
X113670Y461836D03*
D56*
X113670Y470003D03*
X113670Y478237D03*
D57*
X113670Y488227D03*
D56*
X113670Y504967D03*
D58*
X113670Y519007D03*
D59*
X113670Y531562D03*
D56*
X113670Y542633D03*
X113670Y551272D03*
X113670Y562342D03*
D60*
X113670Y576248D03*
D56*
X113670Y585697D03*
X113670Y593933D03*
D90*
X113670Y614250D03*
D91*
X113805Y420188D03*
D92*
X113805Y430987D03*
D54*
X113805Y447728D03*
D55*
X113805Y461836D03*
D56*
X113805Y470003D03*
X113805Y478237D03*
D57*
X113805Y488227D03*
D56*
X113805Y504967D03*
D58*
X113805Y519007D03*
D59*
X113805Y531562D03*
D56*
X113805Y542633D03*
X113805Y551272D03*
X113805Y562342D03*
D60*
X113805Y576248D03*
D56*
X113805Y585697D03*
X113805Y593933D03*
D93*
X113805Y614588D03*
D94*
X113940Y421200D03*
D54*
X113940Y447728D03*
D55*
X113940Y461836D03*
D56*
X113940Y470003D03*
D61*
X113940Y478170D03*
D57*
X113940Y488227D03*
D56*
X113940Y504967D03*
D58*
X113940Y519007D03*
D59*
X113940Y531562D03*
D56*
X113940Y542633D03*
X113940Y551272D03*
X113940Y562342D03*
D60*
X113940Y576248D03*
D56*
X113940Y585697D03*
D61*
X113940Y593866D03*
D95*
X113940Y614655D03*
D96*
X114075Y421065D03*
D54*
X114075Y447728D03*
D55*
X114075Y461836D03*
D56*
X114075Y470003D03*
X114075Y478102D03*
D57*
X114075Y488227D03*
D56*
X114075Y504967D03*
D58*
X114075Y519007D03*
D59*
X114075Y531562D03*
D56*
X114075Y542633D03*
X114075Y551272D03*
X114075Y562342D03*
D60*
X114075Y576248D03*
D56*
X114075Y585697D03*
X114075Y593798D03*
D97*
X114075Y614857D03*
D43*
X114210Y420795D03*
D45*
X114210Y432000D03*
D54*
X114210Y447728D03*
D55*
X114210Y461836D03*
D56*
X114210Y470003D03*
D68*
X114210Y478035D03*
D57*
X114210Y488227D03*
D56*
X114210Y504967D03*
D58*
X114210Y519007D03*
D59*
X114210Y531562D03*
D56*
X114210Y542633D03*
X114210Y551272D03*
X114210Y562342D03*
D60*
X114210Y576248D03*
D56*
X114210Y585697D03*
X114210Y593798D03*
D97*
X114210Y614857D03*
D98*
X114345Y419311D03*
D31*
X114345Y430515D03*
D45*
X114345Y432000D03*
D54*
X114345Y447728D03*
D55*
X114345Y461836D03*
D56*
X114345Y470003D03*
X114345Y477968D03*
D57*
X114345Y488227D03*
D56*
X114345Y504967D03*
D58*
X114345Y519007D03*
D59*
X114345Y531562D03*
D56*
X114345Y542633D03*
X114345Y551272D03*
X114345Y562342D03*
D60*
X114345Y576248D03*
D56*
X114345Y585697D03*
D86*
X114345Y593730D03*
D97*
X114345Y614992D03*
D33*
X114345Y627885D03*
D99*
X114480Y420525D03*
D45*
X114480Y432000D03*
D54*
X114480Y447728D03*
D55*
X114480Y461836D03*
D56*
X114480Y470003D03*
X114480Y477968D03*
D57*
X114480Y488227D03*
D56*
X114480Y504967D03*
D58*
X114480Y519007D03*
D59*
X114480Y531562D03*
D56*
X114480Y542633D03*
X114480Y551272D03*
X114480Y562342D03*
D60*
X114480Y576248D03*
D56*
X114480Y585697D03*
D100*
X114480Y593663D03*
D101*
X114480Y615195D03*
D102*
X114615Y420390D03*
D45*
X114615Y432000D03*
D54*
X114615Y447728D03*
D55*
X114615Y461836D03*
D56*
X114615Y470003D03*
D86*
X114615Y477900D03*
D57*
X114615Y488227D03*
D56*
X114615Y504967D03*
D58*
X114615Y519007D03*
D59*
X114615Y531562D03*
D56*
X114615Y542633D03*
X114615Y551272D03*
X114615Y562342D03*
D60*
X114615Y576248D03*
D56*
X114615Y585697D03*
D100*
X114615Y593663D03*
D103*
X114615Y615263D03*
D13*
X114750Y408510D03*
D104*
X114750Y420255D03*
D45*
X114750Y432000D03*
D54*
X114750Y447728D03*
D55*
X114750Y461836D03*
D56*
X114750Y470003D03*
D100*
X114750Y477833D03*
D57*
X114750Y488227D03*
D56*
X114750Y504967D03*
D58*
X114750Y519007D03*
D59*
X114750Y531562D03*
D56*
X114750Y542633D03*
X114750Y551272D03*
X114750Y562342D03*
D60*
X114750Y576248D03*
D56*
X114750Y585697D03*
D86*
X114750Y593595D03*
D105*
X114750Y615398D03*
D69*
X114885Y420120D03*
D45*
X114885Y432000D03*
D54*
X114885Y447728D03*
D55*
X114885Y461836D03*
D56*
X114885Y470003D03*
D100*
X114885Y477833D03*
D57*
X114885Y488227D03*
D56*
X114885Y504967D03*
D58*
X114885Y519007D03*
D59*
X114885Y531562D03*
D56*
X114885Y542633D03*
X114885Y551272D03*
X114885Y562342D03*
D60*
X114885Y576248D03*
D56*
X114885Y585697D03*
X114885Y593527D03*
D106*
X114885Y615600D03*
D107*
X115020Y419918D03*
D45*
X115020Y432000D03*
D54*
X115020Y447728D03*
D55*
X115020Y461836D03*
D56*
X115020Y470003D03*
D86*
X115020Y477765D03*
D57*
X115020Y488227D03*
D56*
X115020Y504967D03*
D58*
X115020Y519007D03*
D59*
X115020Y531562D03*
D56*
X115020Y542633D03*
X115020Y551272D03*
X115020Y562342D03*
D60*
X115020Y576248D03*
D56*
X115020Y585697D03*
D61*
X115020Y593460D03*
D108*
X115020Y615668D03*
D109*
X115155Y419783D03*
D45*
X115155Y432000D03*
D54*
X115155Y447728D03*
D55*
X115155Y461836D03*
D56*
X115155Y470003D03*
X115155Y477697D03*
D57*
X115155Y488227D03*
D56*
X115155Y504967D03*
D58*
X115155Y519007D03*
D59*
X115155Y531562D03*
D56*
X115155Y542633D03*
X115155Y551272D03*
X115155Y562342D03*
D60*
X115155Y576248D03*
D56*
X115155Y585697D03*
D61*
X115155Y593460D03*
D110*
X115155Y615803D03*
D82*
X115290Y419715D03*
D45*
X115290Y432000D03*
D54*
X115290Y447728D03*
D55*
X115290Y461836D03*
D56*
X115290Y470003D03*
X115290Y477697D03*
D57*
X115290Y488227D03*
D56*
X115290Y504967D03*
D58*
X115290Y519007D03*
D59*
X115290Y531562D03*
D56*
X115290Y542633D03*
X115290Y551272D03*
X115290Y562342D03*
D60*
X115290Y576248D03*
D56*
X115290Y585697D03*
X115290Y593392D03*
D111*
X115290Y615871D03*
D90*
X115425Y419580D03*
D45*
X115425Y432000D03*
D54*
X115425Y447728D03*
D55*
X115425Y461836D03*
D56*
X115425Y470003D03*
D68*
X115425Y477630D03*
D57*
X115425Y488227D03*
D56*
X115425Y504967D03*
D58*
X115425Y519007D03*
D59*
X115425Y531562D03*
D56*
X115425Y542633D03*
X115425Y551272D03*
X115425Y562342D03*
D60*
X115425Y576248D03*
D56*
X115425Y585697D03*
D61*
X115425Y593325D03*
D112*
X115425Y616005D03*
D113*
X115560Y419445D03*
D45*
X115560Y432000D03*
D54*
X115560Y447728D03*
D55*
X115560Y461836D03*
D56*
X115560Y470003D03*
D54*
X115560Y477563D03*
D57*
X115560Y488227D03*
D56*
X115560Y504967D03*
D58*
X115560Y519007D03*
D59*
X115560Y531562D03*
D56*
X115560Y542633D03*
X115560Y551272D03*
X115560Y562342D03*
D60*
X115560Y576248D03*
D56*
X115560Y585697D03*
D61*
X115560Y593325D03*
D114*
X115560Y616208D03*
D115*
X115695Y419378D03*
D45*
X115695Y432000D03*
D54*
X115695Y447728D03*
D55*
X115695Y461836D03*
D56*
X115695Y470003D03*
D68*
X115695Y477495D03*
D57*
X115695Y488227D03*
D56*
X115695Y504967D03*
D58*
X115695Y519007D03*
D59*
X115695Y531562D03*
D56*
X115695Y542633D03*
X115695Y551272D03*
X115695Y562342D03*
D60*
X115695Y576248D03*
D56*
X115695Y585697D03*
X115695Y593257D03*
D116*
X115695Y616275D03*
D117*
X115830Y419175D03*
D45*
X115830Y432000D03*
D54*
X115830Y447728D03*
D55*
X115830Y461836D03*
D56*
X115830Y470003D03*
D68*
X115830Y477495D03*
D57*
X115830Y488227D03*
D56*
X115830Y504967D03*
D58*
X115830Y519007D03*
D59*
X115830Y531562D03*
D56*
X115830Y542633D03*
X115830Y551272D03*
X115830Y562342D03*
D60*
X115830Y576248D03*
D56*
X115830Y585697D03*
D68*
X115830Y593190D03*
D118*
X115830Y616342D03*
D117*
X115965Y419175D03*
D45*
X115965Y432000D03*
D54*
X115965Y447728D03*
D55*
X115965Y461836D03*
D56*
X115965Y470003D03*
X115965Y477428D03*
D57*
X115965Y488227D03*
D56*
X115965Y504967D03*
D58*
X115965Y519007D03*
D59*
X115965Y531562D03*
D56*
X115965Y542633D03*
X115965Y551272D03*
X115965Y562342D03*
D60*
X115965Y576248D03*
D56*
X115965Y585697D03*
D68*
X115965Y593190D03*
D119*
X115965Y616478D03*
D120*
X116100Y418973D03*
D45*
X116100Y432000D03*
D54*
X116100Y447728D03*
D55*
X116100Y461836D03*
D56*
X116100Y470003D03*
D86*
X116100Y477360D03*
D57*
X116100Y488227D03*
D56*
X116100Y504967D03*
D58*
X116100Y519007D03*
D59*
X116100Y531562D03*
D56*
X116100Y542633D03*
X116100Y551272D03*
X116100Y562342D03*
D60*
X116100Y576248D03*
D56*
X116100Y585697D03*
D54*
X116100Y593123D03*
D119*
X116100Y616478D03*
D120*
X116235Y418973D03*
D45*
X116235Y432000D03*
D54*
X116235Y447728D03*
D55*
X116235Y461836D03*
D56*
X116235Y470003D03*
D86*
X116235Y477360D03*
D57*
X116235Y488227D03*
D56*
X116235Y504967D03*
D58*
X116235Y519007D03*
D59*
X116235Y531562D03*
D56*
X116235Y542633D03*
X116235Y551272D03*
X116235Y562342D03*
D60*
X116235Y576248D03*
D56*
X116235Y585697D03*
D68*
X116235Y593055D03*
D121*
X116235Y616680D03*
D13*
X116370Y405810D03*
D122*
X116370Y418905D03*
D45*
X116370Y432000D03*
D54*
X116370Y447728D03*
D55*
X116370Y461836D03*
D56*
X116370Y470003D03*
X116370Y477292D03*
D57*
X116370Y488227D03*
D56*
X116370Y504967D03*
D58*
X116370Y519007D03*
D59*
X116370Y531562D03*
D56*
X116370Y542633D03*
X116370Y551272D03*
X116370Y562342D03*
D60*
X116370Y576248D03*
D56*
X116370Y585697D03*
D68*
X116370Y593055D03*
D123*
X116370Y616747D03*
D124*
X116505Y418770D03*
D45*
X116505Y432000D03*
D54*
X116505Y447728D03*
D55*
X116505Y461836D03*
D56*
X116505Y470003D03*
D68*
X116505Y477225D03*
D57*
X116505Y488227D03*
D56*
X116505Y504967D03*
D58*
X116505Y519007D03*
D59*
X116505Y531562D03*
D56*
X116505Y542633D03*
X116505Y551272D03*
X116505Y562342D03*
D60*
X116505Y576248D03*
D56*
X116505Y585697D03*
D61*
X116505Y592921D03*
D125*
X116505Y617018D03*
D108*
X116640Y418703D03*
D45*
X116640Y432000D03*
D54*
X116640Y447728D03*
D61*
X116640Y461836D03*
D56*
X116640Y470003D03*
D68*
X116640Y477225D03*
D54*
X116640Y485123D03*
D56*
X116640Y504967D03*
X116640Y519007D03*
D54*
X116640Y527243D03*
D56*
X116640Y535882D03*
X116640Y542633D03*
X116640Y551272D03*
X116640Y562342D03*
X116640Y573143D03*
X116640Y585697D03*
D61*
X116640Y592921D03*
D126*
X116640Y617085D03*
D45*
X116775Y405270D03*
D127*
X116775Y418770D03*
D54*
X116775Y447728D03*
D61*
X116775Y461836D03*
D56*
X116775Y470003D03*
D54*
X116775Y477158D03*
X116775Y485123D03*
D56*
X116775Y504967D03*
X116775Y519007D03*
D54*
X116775Y527243D03*
D56*
X116775Y535882D03*
X116775Y542633D03*
X116775Y551272D03*
X116775Y562342D03*
X116775Y573143D03*
X116775Y585697D03*
D61*
X116775Y592921D03*
D128*
X116775Y617152D03*
D129*
X116910Y418568D03*
D54*
X116910Y447728D03*
D61*
X116910Y461836D03*
D56*
X116910Y470003D03*
D68*
X116910Y477090D03*
D54*
X116910Y485123D03*
D56*
X116910Y504967D03*
X116910Y519007D03*
D54*
X116910Y527243D03*
D56*
X116910Y535882D03*
X116910Y542633D03*
X116910Y551272D03*
X116910Y562342D03*
X116910Y573143D03*
X116910Y585697D03*
D86*
X116910Y592785D03*
D128*
X116910Y617152D03*
D129*
X117045Y418568D03*
D54*
X117045Y447728D03*
D61*
X117045Y461836D03*
D56*
X117045Y470003D03*
D68*
X117045Y477090D03*
D54*
X117045Y485123D03*
D56*
X117045Y504967D03*
X117045Y519007D03*
D54*
X117045Y527243D03*
D56*
X117045Y535882D03*
X117045Y542633D03*
X117045Y551272D03*
X117045Y562342D03*
X117045Y573143D03*
D61*
X117045Y585765D03*
D86*
X117045Y592785D03*
D128*
X117045Y617152D03*
D130*
X117180Y418500D03*
D54*
X117180Y447728D03*
D61*
X117180Y461836D03*
D56*
X117180Y470003D03*
D86*
X117180Y476955D03*
D54*
X117180Y485123D03*
D56*
X117180Y504967D03*
X117180Y519007D03*
D54*
X117180Y527243D03*
D56*
X117180Y535882D03*
X117180Y542633D03*
X117180Y551272D03*
X117180Y562342D03*
X117180Y573143D03*
D61*
X117180Y585765D03*
D100*
X117180Y592718D03*
D131*
X117180Y617220D03*
D33*
X117315Y404595D03*
D132*
X117315Y418365D03*
D33*
X117315Y432135D03*
D54*
X117315Y447728D03*
D61*
X117315Y461836D03*
D56*
X117315Y470003D03*
D86*
X117315Y476955D03*
D54*
X117315Y485123D03*
D56*
X117315Y504967D03*
X117315Y519007D03*
D54*
X117315Y527243D03*
D56*
X117315Y535882D03*
X117315Y542633D03*
X117315Y551272D03*
X117315Y562342D03*
X117315Y573143D03*
D61*
X117315Y585765D03*
D86*
X117315Y592650D03*
D133*
X117315Y617355D03*
D134*
X117450Y418163D03*
D33*
X117450Y432135D03*
D54*
X117450Y447728D03*
D61*
X117450Y461836D03*
D56*
X117450Y470003D03*
D86*
X117450Y476955D03*
D54*
X117450Y485123D03*
D56*
X117450Y504967D03*
X117450Y519007D03*
D54*
X117450Y527243D03*
D56*
X117450Y535882D03*
X117450Y542633D03*
X117450Y551272D03*
X117450Y562342D03*
X117450Y573143D03*
D61*
X117450Y585765D03*
D86*
X117450Y592650D03*
D133*
X117450Y617490D03*
D135*
X117585Y418096D03*
D33*
X117585Y432135D03*
D54*
X117585Y447728D03*
D61*
X117585Y461836D03*
D56*
X117585Y470003D03*
D86*
X117585Y476820D03*
D54*
X117585Y485123D03*
D56*
X117585Y504967D03*
X117585Y519007D03*
D54*
X117585Y527243D03*
D56*
X117585Y535882D03*
X117585Y542633D03*
X117585Y551272D03*
X117585Y562342D03*
X117585Y573143D03*
D61*
X117585Y585765D03*
D56*
X117585Y592582D03*
D136*
X117585Y617558D03*
D126*
X117720Y418231D03*
D54*
X117720Y447728D03*
D61*
X117720Y461836D03*
D56*
X117720Y470003D03*
D86*
X117720Y476820D03*
D54*
X117720Y485123D03*
D56*
X117720Y504967D03*
X117720Y519007D03*
D54*
X117720Y527243D03*
D56*
X117720Y535882D03*
X117720Y542633D03*
X117720Y551272D03*
X117720Y562342D03*
X117720Y573143D03*
D61*
X117720Y585765D03*
X117720Y592515D03*
D137*
X117720Y617625D03*
D138*
X117855Y418095D03*
D54*
X117855Y447728D03*
D61*
X117855Y461836D03*
D56*
X117855Y470003D03*
D86*
X117855Y476820D03*
D54*
X117855Y485123D03*
D56*
X117855Y504967D03*
X117855Y519007D03*
D54*
X117855Y527243D03*
D56*
X117855Y535882D03*
X117855Y542633D03*
X117855Y551272D03*
X117855Y562342D03*
X117855Y573143D03*
D61*
X117855Y585765D03*
X117855Y592515D03*
D139*
X117855Y617692D03*
D140*
X117990Y417960D03*
D45*
X117990Y432270D03*
D54*
X117990Y447728D03*
D61*
X117990Y461836D03*
D56*
X117990Y470003D03*
D68*
X117990Y476685D03*
D54*
X117990Y485123D03*
D56*
X117990Y504967D03*
X117990Y519007D03*
D54*
X117990Y527243D03*
D56*
X117990Y535882D03*
X117990Y542633D03*
X117990Y551272D03*
X117990Y562342D03*
X117990Y573143D03*
D61*
X117990Y585765D03*
X117990Y592380D03*
D141*
X117990Y617895D03*
D142*
X118125Y417758D03*
D45*
X118125Y432270D03*
D54*
X118125Y447728D03*
D61*
X118125Y461836D03*
D56*
X118125Y470003D03*
D68*
X118125Y476685D03*
D54*
X118125Y485123D03*
D56*
X118125Y504967D03*
X118125Y519007D03*
D54*
X118125Y527243D03*
D56*
X118125Y535882D03*
X118125Y542633D03*
X118125Y551272D03*
X118125Y562342D03*
X118125Y573143D03*
D61*
X118125Y585765D03*
X118125Y592380D03*
D143*
X118125Y618030D03*
D144*
X118260Y417690D03*
D45*
X118260Y432270D03*
D54*
X118260Y447728D03*
D61*
X118260Y461836D03*
D56*
X118260Y470003D03*
D68*
X118260Y476685D03*
D54*
X118260Y485123D03*
D56*
X118260Y504967D03*
X118260Y519007D03*
D54*
X118260Y527243D03*
D56*
X118260Y535882D03*
X118260Y542633D03*
X118260Y551272D03*
X118260Y562342D03*
X118260Y573143D03*
D61*
X118260Y585765D03*
X118260Y592380D03*
D143*
X118260Y618030D03*
D145*
X118395Y417757D03*
D54*
X118395Y447728D03*
D61*
X118395Y461836D03*
D56*
X118395Y470003D03*
D68*
X118395Y476550D03*
D54*
X118395Y485123D03*
D56*
X118395Y504967D03*
X118395Y519007D03*
D54*
X118395Y527243D03*
D56*
X118395Y535882D03*
X118395Y542633D03*
X118395Y551272D03*
X118395Y562342D03*
X118395Y573143D03*
D61*
X118395Y585765D03*
D68*
X118395Y592245D03*
D146*
X118395Y618098D03*
D147*
X118530Y417556D03*
D54*
X118530Y447728D03*
D61*
X118530Y461836D03*
D56*
X118530Y470003D03*
D68*
X118530Y476550D03*
D54*
X118530Y485123D03*
D56*
X118530Y504967D03*
X118530Y519007D03*
D54*
X118530Y527243D03*
D56*
X118530Y535882D03*
X118530Y542633D03*
X118530Y551272D03*
X118530Y562342D03*
X118530Y573143D03*
D61*
X118530Y585765D03*
D68*
X118530Y592245D03*
D148*
X118530Y618165D03*
D147*
X118665Y417556D03*
D33*
X118665Y432405D03*
D54*
X118665Y447728D03*
D61*
X118665Y461836D03*
D56*
X118665Y470003D03*
D86*
X118665Y476415D03*
D54*
X118665Y485123D03*
D56*
X118665Y504967D03*
X118665Y519007D03*
D54*
X118665Y527243D03*
D56*
X118665Y535882D03*
X118665Y542633D03*
X118665Y551272D03*
X118665Y562342D03*
X118665Y573143D03*
D61*
X118665Y585765D03*
D68*
X118665Y592245D03*
D149*
X118665Y618232D03*
D148*
X118800Y417691D03*
D54*
X118800Y447728D03*
D61*
X118800Y461836D03*
D56*
X118800Y470003D03*
D86*
X118800Y476415D03*
D54*
X118800Y485123D03*
D56*
X118800Y504967D03*
X118800Y519007D03*
D54*
X118800Y527243D03*
D56*
X118800Y535882D03*
X118800Y542633D03*
X118800Y551272D03*
X118800Y562342D03*
X118800Y573143D03*
D61*
X118800Y585765D03*
D68*
X118800Y592110D03*
D150*
X118800Y618367D03*
D151*
X118935Y417623D03*
D54*
X118935Y447728D03*
D61*
X118935Y461836D03*
D56*
X118935Y470003D03*
D86*
X118935Y476415D03*
D54*
X118935Y485123D03*
D56*
X118935Y504967D03*
X118935Y519007D03*
D54*
X118935Y527243D03*
D56*
X118935Y535882D03*
X118935Y542633D03*
X118935Y551272D03*
X118935Y562342D03*
X118935Y573143D03*
D61*
X118935Y585765D03*
D68*
X118935Y592110D03*
D152*
X118935Y618435D03*
D149*
X119070Y417487D03*
D13*
X119070Y432541D03*
D54*
X119070Y447728D03*
D61*
X119070Y461836D03*
D56*
X119070Y470003D03*
D68*
X119070Y476280D03*
D54*
X119070Y485123D03*
D56*
X119070Y504967D03*
X119070Y519007D03*
D54*
X119070Y527243D03*
D56*
X119070Y535882D03*
X119070Y542633D03*
X119070Y551272D03*
X119070Y562342D03*
X119070Y573143D03*
D61*
X119070Y585765D03*
D68*
X119070Y592110D03*
D153*
X119070Y618503D03*
D154*
X119205Y417556D03*
D54*
X119205Y447728D03*
D61*
X119205Y461836D03*
D56*
X119205Y470003D03*
D68*
X119205Y476280D03*
D54*
X119205Y485123D03*
D56*
X119205Y504967D03*
X119205Y519007D03*
D54*
X119205Y527243D03*
D56*
X119205Y535882D03*
X119205Y542633D03*
X119205Y551272D03*
X119205Y562342D03*
X119205Y573143D03*
D61*
X119205Y585765D03*
X119205Y591976D03*
D153*
X119205Y618503D03*
X119340Y417488D03*
D54*
X119340Y447728D03*
D61*
X119340Y461836D03*
D56*
X119340Y470003D03*
D68*
X119340Y476280D03*
D54*
X119340Y485123D03*
D56*
X119340Y504967D03*
X119340Y519007D03*
D54*
X119340Y527243D03*
D56*
X119340Y535882D03*
X119340Y542633D03*
X119340Y551272D03*
X119340Y562342D03*
X119340Y573143D03*
D61*
X119340Y585765D03*
X119340Y591976D03*
D154*
X119340Y618571D03*
D153*
X119475Y417353D03*
D45*
X119475Y432675D03*
D54*
X119475Y447728D03*
D61*
X119475Y461836D03*
D56*
X119475Y470003D03*
D68*
X119475Y476145D03*
D54*
X119475Y485123D03*
D56*
X119475Y504967D03*
X119475Y519007D03*
D54*
X119475Y527243D03*
D56*
X119475Y535882D03*
X119475Y542633D03*
X119475Y551272D03*
X119475Y562342D03*
X119475Y573143D03*
D61*
X119475Y585765D03*
D155*
X119475Y591908D03*
D156*
X119475Y618638D03*
D157*
X119610Y417285D03*
D54*
X119610Y447728D03*
D61*
X119610Y461836D03*
D56*
X119610Y470003D03*
D68*
X119610Y476145D03*
D54*
X119610Y485123D03*
D56*
X119610Y504967D03*
X119610Y519007D03*
D54*
X119610Y527243D03*
D56*
X119610Y535882D03*
X119610Y542633D03*
X119610Y551272D03*
X119610Y562342D03*
X119610Y573143D03*
D61*
X119610Y585765D03*
D86*
X119610Y591840D03*
D158*
X119610Y618840D03*
D157*
X119745Y417151D03*
D33*
X119745Y432810D03*
D54*
X119745Y447728D03*
D61*
X119745Y461836D03*
D56*
X119745Y470003D03*
D68*
X119745Y476145D03*
D54*
X119745Y485123D03*
D56*
X119745Y504967D03*
X119745Y519007D03*
D54*
X119745Y527243D03*
D56*
X119745Y535882D03*
X119745Y542633D03*
X119745Y551272D03*
X119745Y562342D03*
X119745Y573143D03*
D61*
X119745Y585765D03*
D86*
X119745Y591840D03*
D159*
X119745Y618908D03*
D160*
X119880Y417015D03*
D33*
X119880Y432810D03*
D54*
X119880Y447728D03*
D61*
X119880Y461836D03*
D56*
X119880Y470003D03*
D86*
X119880Y476010D03*
D54*
X119880Y485123D03*
D56*
X119880Y504967D03*
X119880Y519007D03*
D54*
X119880Y527243D03*
D56*
X119880Y535882D03*
X119880Y542633D03*
X119880Y551272D03*
X119880Y562342D03*
X119880Y573143D03*
D61*
X119880Y585765D03*
D155*
X119880Y591773D03*
D159*
X119880Y618908D03*
D161*
X120015Y417218D03*
D54*
X120015Y447728D03*
D61*
X120015Y461836D03*
D56*
X120015Y470003D03*
D86*
X120015Y476010D03*
D54*
X120015Y485123D03*
D56*
X120015Y504967D03*
X120015Y519007D03*
D54*
X120015Y527243D03*
D56*
X120015Y535882D03*
X120015Y542633D03*
X120015Y551272D03*
X120015Y562342D03*
X120015Y573143D03*
D61*
X120015Y585765D03*
D86*
X120015Y591705D03*
D157*
X120015Y618976D03*
D161*
X120150Y417082D03*
D45*
X120150Y432945D03*
D54*
X120150Y447728D03*
D61*
X120150Y461836D03*
D56*
X120150Y470003D03*
D155*
X120150Y475943D03*
D54*
X120150Y485123D03*
D56*
X120150Y504967D03*
X120150Y519007D03*
D54*
X120150Y527243D03*
D162*
X120150Y534937D03*
D56*
X120150Y542633D03*
X120150Y551272D03*
X120150Y562342D03*
X120150Y573143D03*
D61*
X120150Y585765D03*
D86*
X120150Y591705D03*
D157*
X120150Y618976D03*
D163*
X120285Y417150D03*
D54*
X120285Y447728D03*
D61*
X120285Y461836D03*
D56*
X120285Y470003D03*
D86*
X120285Y475875D03*
D54*
X120285Y485123D03*
D56*
X120285Y504967D03*
X120285Y519007D03*
D54*
X120285Y527243D03*
D162*
X120285Y534937D03*
D56*
X120285Y542633D03*
X120285Y551272D03*
X120285Y562342D03*
X120285Y573143D03*
D61*
X120285Y585765D03*
D155*
X120285Y591638D03*
D157*
X120285Y619111D03*
D164*
X120420Y416948D03*
D33*
X120420Y433080D03*
D54*
X120420Y447728D03*
D61*
X120420Y461836D03*
D56*
X120420Y470003D03*
D86*
X120420Y475875D03*
D54*
X120420Y485123D03*
D56*
X120420Y504967D03*
X120420Y519007D03*
D54*
X120420Y527243D03*
D162*
X120420Y534937D03*
D56*
X120420Y542633D03*
X120420Y551272D03*
X120420Y562342D03*
X120420Y573143D03*
D61*
X120420Y585765D03*
X120420Y591570D03*
D165*
X120420Y619178D03*
D13*
X120420Y634905D03*
D166*
X120555Y417015D03*
D54*
X120555Y447728D03*
D61*
X120555Y461836D03*
D167*
X120555Y474120D03*
D54*
X120555Y485123D03*
D56*
X120555Y504967D03*
X120555Y519007D03*
D54*
X120555Y527243D03*
D162*
X120555Y534937D03*
D56*
X120555Y542633D03*
X120555Y551272D03*
X120555Y562342D03*
X120555Y573143D03*
D168*
X120555Y589883D03*
D169*
X120555Y619313D03*
D170*
X120690Y416947D03*
D45*
X120690Y433215D03*
D54*
X120690Y447728D03*
D61*
X120690Y461836D03*
D167*
X120690Y474120D03*
D54*
X120690Y485123D03*
D56*
X120690Y504967D03*
X120690Y519007D03*
D54*
X120690Y527243D03*
D162*
X120690Y534937D03*
D56*
X120690Y542633D03*
X120690Y551272D03*
X120690Y562342D03*
X120690Y573143D03*
D168*
X120690Y589883D03*
D169*
X120690Y619313D03*
D171*
X120825Y417082D03*
D54*
X120825Y447728D03*
D61*
X120825Y461836D03*
D167*
X120825Y474120D03*
D54*
X120825Y485123D03*
D56*
X120825Y504967D03*
X120825Y519007D03*
D54*
X120825Y527243D03*
D162*
X120825Y534937D03*
D56*
X120825Y542633D03*
X120825Y551272D03*
X120825Y562342D03*
X120825Y573143D03*
D168*
X120825Y589883D03*
D172*
X120825Y619380D03*
D171*
X120960Y416948D03*
D13*
X120960Y433350D03*
D54*
X120960Y447728D03*
D61*
X120960Y461836D03*
D167*
X120960Y474120D03*
D54*
X120960Y485123D03*
D56*
X120960Y504967D03*
X120960Y519007D03*
D54*
X120960Y527243D03*
D162*
X120960Y534937D03*
D56*
X120960Y542633D03*
X120960Y551272D03*
X120960Y562342D03*
X120960Y573143D03*
D168*
X120960Y589883D03*
D173*
X120960Y619448D03*
D174*
X121095Y416947D03*
D54*
X121095Y447728D03*
D61*
X121095Y461836D03*
D167*
X121095Y474120D03*
D54*
X121095Y485123D03*
D56*
X121095Y504967D03*
X121095Y519007D03*
D54*
X121095Y527243D03*
D162*
X121095Y534937D03*
D56*
X121095Y542633D03*
X121095Y551272D03*
X121095Y562342D03*
X121095Y573143D03*
D168*
X121095Y589883D03*
D175*
X121095Y619516D03*
D176*
X121230Y416745D03*
D33*
X121230Y433485D03*
D54*
X121230Y447728D03*
D61*
X121230Y461836D03*
D167*
X121230Y474120D03*
D54*
X121230Y485123D03*
D56*
X121230Y504967D03*
X121230Y519007D03*
D54*
X121230Y527243D03*
D162*
X121230Y534937D03*
D56*
X121230Y542633D03*
X121230Y551272D03*
X121230Y562342D03*
X121230Y573143D03*
D168*
X121230Y589883D03*
D173*
X121230Y619583D03*
D177*
X121365Y416813D03*
D54*
X121365Y447728D03*
D61*
X121365Y461836D03*
D167*
X121365Y474120D03*
D54*
X121365Y485123D03*
D56*
X121365Y504967D03*
X121365Y519007D03*
D54*
X121365Y527243D03*
D162*
X121365Y534937D03*
D178*
X121365Y546953D03*
D56*
X121365Y562342D03*
X121365Y573143D03*
D168*
X121365Y589883D03*
D173*
X121365Y619583D03*
D179*
X121500Y416813D03*
D45*
X121500Y433620D03*
D54*
X121500Y447728D03*
D61*
X121500Y461836D03*
D167*
X121500Y474120D03*
D54*
X121500Y485123D03*
D56*
X121500Y504967D03*
X121500Y519007D03*
D54*
X121500Y527243D03*
D162*
X121500Y534937D03*
D178*
X121500Y546953D03*
D56*
X121500Y562342D03*
X121500Y573143D03*
D168*
X121500Y589883D03*
D175*
X121500Y619651D03*
D180*
X121635Y416880D03*
D54*
X121635Y447728D03*
D61*
X121635Y461836D03*
D167*
X121635Y474120D03*
D54*
X121635Y485123D03*
D56*
X121635Y504967D03*
X121635Y519007D03*
D54*
X121635Y527243D03*
D162*
X121635Y534937D03*
D178*
X121635Y546953D03*
D56*
X121635Y562342D03*
X121635Y573143D03*
D168*
X121635Y589883D03*
D181*
X121635Y619718D03*
D182*
X121770Y416745D03*
D33*
X121770Y433755D03*
D54*
X121770Y447728D03*
D61*
X121770Y461836D03*
D167*
X121770Y474120D03*
D54*
X121770Y485123D03*
D56*
X121770Y504967D03*
X121770Y519007D03*
D54*
X121770Y527243D03*
D162*
X121770Y534937D03*
D178*
X121770Y546953D03*
D56*
X121770Y562342D03*
X121770Y573143D03*
D168*
X121770Y589883D03*
D183*
X121770Y619853D03*
D184*
X121905Y416677D03*
D54*
X121905Y447728D03*
D61*
X121905Y461836D03*
D167*
X121905Y474120D03*
D54*
X121905Y485123D03*
D56*
X121905Y504967D03*
X121905Y519007D03*
D54*
X121905Y527243D03*
D162*
X121905Y534937D03*
D178*
X121905Y546953D03*
D56*
X121905Y562342D03*
X121905Y573143D03*
D168*
X121905Y589883D03*
D183*
X121905Y619853D03*
D185*
X122040Y416610D03*
D45*
X122040Y433890D03*
D186*
X122040Y450495D03*
D61*
X122040Y461836D03*
D167*
X122040Y474120D03*
D187*
X122040Y488025D03*
D188*
X122040Y507668D03*
D56*
X122040Y519007D03*
D54*
X122040Y527243D03*
D162*
X122040Y534937D03*
D178*
X122040Y546953D03*
D56*
X122040Y562342D03*
D187*
X122040Y576046D03*
D168*
X122040Y589883D03*
D189*
X122040Y619920D03*
D190*
X122175Y416678D03*
D33*
X122175Y434025D03*
D186*
X122175Y450495D03*
D61*
X122175Y461836D03*
D167*
X122175Y474120D03*
D187*
X122175Y488025D03*
D188*
X122175Y507668D03*
D56*
X122175Y519007D03*
D54*
X122175Y527243D03*
D162*
X122175Y534937D03*
D178*
X122175Y546953D03*
D56*
X122175Y562342D03*
D187*
X122175Y576046D03*
D168*
X122175Y589883D03*
D191*
X122175Y620056D03*
D192*
X122310Y416813D03*
D186*
X122310Y450495D03*
D61*
X122310Y461836D03*
D167*
X122310Y474120D03*
D187*
X122310Y488025D03*
D188*
X122310Y507668D03*
D56*
X122310Y519007D03*
D54*
X122310Y527243D03*
D162*
X122310Y534937D03*
D178*
X122310Y546953D03*
D56*
X122310Y562342D03*
D187*
X122310Y576046D03*
D168*
X122310Y589883D03*
D193*
X122310Y619988D03*
D194*
X122445Y416610D03*
D45*
X122445Y434160D03*
D186*
X122445Y450495D03*
D61*
X122445Y461836D03*
D167*
X122445Y474120D03*
D187*
X122445Y488025D03*
D188*
X122445Y507668D03*
D56*
X122445Y519007D03*
D54*
X122445Y527243D03*
D162*
X122445Y534937D03*
D178*
X122445Y546953D03*
D56*
X122445Y562342D03*
D187*
X122445Y576046D03*
D168*
X122445Y589883D03*
D195*
X122445Y620056D03*
D196*
X122580Y416610D03*
D13*
X122580Y434295D03*
D186*
X122580Y450495D03*
D61*
X122580Y461836D03*
D167*
X122580Y474120D03*
D187*
X122580Y488025D03*
D188*
X122580Y507668D03*
D56*
X122580Y519007D03*
D54*
X122580Y527243D03*
D162*
X122580Y534937D03*
D178*
X122580Y546953D03*
D56*
X122580Y562342D03*
D187*
X122580Y576046D03*
D168*
X122580Y589883D03*
D174*
X122580Y620123D03*
D197*
X122715Y416745D03*
D186*
X122715Y450495D03*
D61*
X122715Y461836D03*
D167*
X122715Y474120D03*
D187*
X122715Y488025D03*
D188*
X122715Y507668D03*
D56*
X122715Y519007D03*
D54*
X122715Y527243D03*
D162*
X122715Y534937D03*
D178*
X122715Y546953D03*
D56*
X122715Y562342D03*
D187*
X122715Y576046D03*
D168*
X122715Y589883D03*
D176*
X122715Y620190D03*
D198*
X122850Y416610D03*
D33*
X122850Y434430D03*
D186*
X122850Y450495D03*
D61*
X122850Y461836D03*
D167*
X122850Y474120D03*
D187*
X122850Y488025D03*
D188*
X122850Y507668D03*
D56*
X122850Y519007D03*
D54*
X122850Y527243D03*
D162*
X122850Y534937D03*
D178*
X122850Y546953D03*
D56*
X122850Y562342D03*
D187*
X122850Y576046D03*
D168*
X122850Y589883D03*
D179*
X122850Y620258D03*
D199*
X122985Y416542D03*
D45*
X122985Y434565D03*
D186*
X122985Y450495D03*
D61*
X122985Y461836D03*
D167*
X122985Y474120D03*
D187*
X122985Y488025D03*
D188*
X122985Y507668D03*
D56*
X122985Y519007D03*
D54*
X122985Y527243D03*
D162*
X122985Y534937D03*
D178*
X122985Y546953D03*
D56*
X122985Y562342D03*
D187*
X122985Y576046D03*
D168*
X122985Y589883D03*
D200*
X122985Y620325D03*
D201*
X123120Y416745D03*
D186*
X123120Y450495D03*
D61*
X123120Y461836D03*
D167*
X123120Y474120D03*
D187*
X123120Y488025D03*
D188*
X123120Y507668D03*
D56*
X123120Y519007D03*
D54*
X123120Y527243D03*
D162*
X123120Y534937D03*
D178*
X123120Y546953D03*
D56*
X123120Y562342D03*
D187*
X123120Y576046D03*
D168*
X123120Y589883D03*
D179*
X123120Y620393D03*
D202*
X123255Y416610D03*
D33*
X123255Y434700D03*
D186*
X123255Y450495D03*
D61*
X123255Y461836D03*
D167*
X123255Y474120D03*
D187*
X123255Y488025D03*
D188*
X123255Y507668D03*
D56*
X123255Y519007D03*
D54*
X123255Y527243D03*
D162*
X123255Y534937D03*
D178*
X123255Y546953D03*
D56*
X123255Y562342D03*
D187*
X123255Y576046D03*
D168*
X123255Y589883D03*
D203*
X123255Y620528D03*
D204*
X123390Y416543D03*
D45*
X123390Y434835D03*
D186*
X123390Y450495D03*
D61*
X123390Y461836D03*
D167*
X123390Y474120D03*
D187*
X123390Y488025D03*
D188*
X123390Y507668D03*
D56*
X123390Y519007D03*
D54*
X123390Y527243D03*
D162*
X123390Y534937D03*
D178*
X123390Y546953D03*
D56*
X123390Y562342D03*
D187*
X123390Y576046D03*
D168*
X123390Y589883D03*
D203*
X123390Y620528D03*
D205*
X123525Y416611D03*
D33*
X123525Y434970D03*
D186*
X123525Y450495D03*
D61*
X123525Y461836D03*
D167*
X123525Y474120D03*
D187*
X123525Y488025D03*
D188*
X123525Y507668D03*
D56*
X123525Y519007D03*
D54*
X123525Y527243D03*
D162*
X123525Y534937D03*
D178*
X123525Y546953D03*
D56*
X123525Y562342D03*
D187*
X123525Y576046D03*
D168*
X123525Y589883D03*
D180*
X123525Y620596D03*
D206*
X123660Y416678D03*
D186*
X123660Y450495D03*
D61*
X123660Y461836D03*
D167*
X123660Y474120D03*
D187*
X123660Y488025D03*
D188*
X123660Y507668D03*
D56*
X123660Y519007D03*
D54*
X123660Y527243D03*
D162*
X123660Y534937D03*
D178*
X123660Y546953D03*
D56*
X123660Y562342D03*
D187*
X123660Y576046D03*
D168*
X123660Y589883D03*
D207*
X123660Y620663D03*
D208*
X123795Y416475D03*
D45*
X123795Y435105D03*
D186*
X123795Y450495D03*
D61*
X123795Y461836D03*
D167*
X123795Y474120D03*
D187*
X123795Y488025D03*
D188*
X123795Y507668D03*
D56*
X123795Y519007D03*
D54*
X123795Y527243D03*
D162*
X123795Y534937D03*
D178*
X123795Y546953D03*
D56*
X123795Y562342D03*
D187*
X123795Y576046D03*
D168*
X123795Y589883D03*
D207*
X123795Y620663D03*
D209*
X123930Y416610D03*
D13*
X123930Y435240D03*
D186*
X123930Y450495D03*
D61*
X123930Y461836D03*
D167*
X123930Y474120D03*
D187*
X123930Y488025D03*
D188*
X123930Y507668D03*
D56*
X123930Y519007D03*
D54*
X123930Y527243D03*
D162*
X123930Y534937D03*
D178*
X123930Y546953D03*
D56*
X123930Y562342D03*
D187*
X123930Y576046D03*
D168*
X123930Y589883D03*
D207*
X123930Y620663D03*
D210*
X124065Y416542D03*
D33*
X124065Y435375D03*
D186*
X124065Y450495D03*
D61*
X124065Y461836D03*
D167*
X124065Y474120D03*
D187*
X124065Y488025D03*
D188*
X124065Y507668D03*
D56*
X124065Y519007D03*
D54*
X124065Y527243D03*
D178*
X124065Y546953D03*
D56*
X124065Y562342D03*
D187*
X124065Y576046D03*
D168*
X124065Y589883D03*
D211*
X124065Y620730D03*
D212*
X124200Y416678D03*
D186*
X124200Y450495D03*
D61*
X124200Y461836D03*
D167*
X124200Y474120D03*
D187*
X124200Y488025D03*
D188*
X124200Y507668D03*
D56*
X124200Y519007D03*
D54*
X124200Y527243D03*
D178*
X124200Y546953D03*
D56*
X124200Y562342D03*
D187*
X124200Y576046D03*
D168*
X124200Y589883D03*
D211*
X124200Y620730D03*
D213*
X124335Y416610D03*
D45*
X124335Y435510D03*
D186*
X124335Y450495D03*
D61*
X124335Y461836D03*
D167*
X124335Y474120D03*
D187*
X124335Y488025D03*
D188*
X124335Y507668D03*
D56*
X124335Y519007D03*
D54*
X124335Y527243D03*
D178*
X124335Y546953D03*
D56*
X124335Y562342D03*
D187*
X124335Y576046D03*
D168*
X124335Y589883D03*
D214*
X124335Y620798D03*
D215*
X124470Y416543D03*
D33*
X124470Y435645D03*
D186*
X124470Y450495D03*
D61*
X124470Y461836D03*
D167*
X124470Y474120D03*
D187*
X124470Y488025D03*
D188*
X124470Y507668D03*
D56*
X124470Y519007D03*
D54*
X124470Y527243D03*
D178*
X124470Y546953D03*
D56*
X124470Y562342D03*
D187*
X124470Y576046D03*
D168*
X124470Y589883D03*
D216*
X124470Y620865D03*
D215*
X124605Y416677D03*
D45*
X124605Y435780D03*
D186*
X124605Y450495D03*
D61*
X124605Y461836D03*
D56*
X124605Y470003D03*
X124605Y478237D03*
D187*
X124605Y488025D03*
D188*
X124605Y507668D03*
D56*
X124605Y519007D03*
D54*
X124605Y527243D03*
D178*
X124605Y546953D03*
D56*
X124605Y562342D03*
D187*
X124605Y576046D03*
D61*
X124605Y585765D03*
D68*
X124605Y594000D03*
D217*
X124605Y620933D03*
D218*
X124740Y416678D03*
D33*
X124740Y435915D03*
D186*
X124740Y450495D03*
D61*
X124740Y461836D03*
D56*
X124740Y470003D03*
X124740Y478237D03*
D187*
X124740Y488025D03*
D188*
X124740Y507668D03*
D56*
X124740Y519007D03*
D54*
X124740Y527243D03*
D178*
X124740Y546953D03*
D56*
X124740Y562342D03*
D187*
X124740Y576046D03*
D61*
X124740Y585765D03*
D68*
X124740Y594000D03*
D219*
X124740Y621001D03*
D220*
X124875Y416745D03*
D186*
X124875Y450495D03*
D61*
X124875Y461836D03*
D56*
X124875Y470003D03*
X124875Y478237D03*
D187*
X124875Y488025D03*
D188*
X124875Y507668D03*
D56*
X124875Y519007D03*
D54*
X124875Y527243D03*
D178*
X124875Y546953D03*
D56*
X124875Y562342D03*
D187*
X124875Y576046D03*
D61*
X124875Y585765D03*
D68*
X124875Y594000D03*
D219*
X124875Y621001D03*
D221*
X125010Y416745D03*
D186*
X125010Y450495D03*
D61*
X125010Y461836D03*
D56*
X125010Y470003D03*
X125010Y478237D03*
D187*
X125010Y488025D03*
D188*
X125010Y507668D03*
D56*
X125010Y519007D03*
D54*
X125010Y527243D03*
D178*
X125010Y546953D03*
D56*
X125010Y562342D03*
D187*
X125010Y576046D03*
D61*
X125010Y585765D03*
D68*
X125010Y594000D03*
D190*
X125010Y621068D03*
D221*
X125145Y416611D03*
D13*
X125145Y436185D03*
D186*
X125145Y450495D03*
D61*
X125145Y461836D03*
D56*
X125145Y470003D03*
X125145Y478237D03*
D187*
X125145Y488025D03*
D188*
X125145Y507668D03*
D56*
X125145Y519007D03*
D54*
X125145Y527243D03*
D178*
X125145Y546953D03*
D56*
X125145Y562342D03*
D187*
X125145Y576046D03*
D61*
X125145Y585765D03*
D68*
X125145Y594000D03*
D222*
X125145Y621068D03*
D223*
X125280Y416678D03*
D33*
X125280Y436320D03*
D186*
X125280Y450495D03*
D61*
X125280Y461836D03*
D56*
X125280Y470003D03*
X125280Y478237D03*
D187*
X125280Y488025D03*
D188*
X125280Y507668D03*
D56*
X125280Y519007D03*
D54*
X125280Y527243D03*
D178*
X125280Y546953D03*
D56*
X125280Y562342D03*
D187*
X125280Y576046D03*
D61*
X125280Y585765D03*
D68*
X125280Y594000D03*
D222*
X125280Y621068D03*
D224*
X125415Y416745D03*
D45*
X125415Y436455D03*
D186*
X125415Y450495D03*
D61*
X125415Y461836D03*
D56*
X125415Y470003D03*
X125415Y478237D03*
D187*
X125415Y488025D03*
D188*
X125415Y507668D03*
D56*
X125415Y519007D03*
D54*
X125415Y527243D03*
D178*
X125415Y546953D03*
D56*
X125415Y562342D03*
D187*
X125415Y576046D03*
D61*
X125415Y585765D03*
D68*
X125415Y594000D03*
D225*
X125415Y621203D03*
D226*
X125550Y416746D03*
D33*
X125550Y436590D03*
D186*
X125550Y450495D03*
D61*
X125550Y461836D03*
D56*
X125550Y470003D03*
X125550Y478237D03*
D187*
X125550Y488025D03*
D188*
X125550Y507668D03*
D56*
X125550Y519007D03*
D54*
X125550Y527243D03*
D56*
X125550Y542633D03*
X125550Y551272D03*
X125550Y562342D03*
D187*
X125550Y576046D03*
D61*
X125550Y585765D03*
D68*
X125550Y594000D03*
D225*
X125550Y621203D03*
D227*
X125685Y416813D03*
D45*
X125685Y436725D03*
D186*
X125685Y450495D03*
D61*
X125685Y461836D03*
D56*
X125685Y470003D03*
X125685Y478237D03*
D187*
X125685Y488025D03*
D188*
X125685Y507668D03*
D56*
X125685Y519007D03*
D54*
X125685Y527243D03*
D56*
X125685Y542633D03*
X125685Y551272D03*
X125685Y562342D03*
D187*
X125685Y576046D03*
D61*
X125685Y585765D03*
D68*
X125685Y594000D03*
D228*
X125685Y621270D03*
D229*
X125820Y416947D03*
D186*
X125820Y450495D03*
D61*
X125820Y461836D03*
D56*
X125820Y470003D03*
X125820Y478237D03*
D187*
X125820Y488025D03*
D188*
X125820Y507668D03*
D56*
X125820Y519007D03*
D54*
X125820Y527243D03*
D56*
X125820Y542633D03*
X125820Y551272D03*
X125820Y562342D03*
D187*
X125820Y576046D03*
D61*
X125820Y585765D03*
D68*
X125820Y594000D03*
D228*
X125820Y621270D03*
D230*
X125955Y416880D03*
D186*
X125955Y450495D03*
D61*
X125955Y461836D03*
D56*
X125955Y470003D03*
X125955Y478237D03*
D187*
X125955Y488025D03*
D188*
X125955Y507668D03*
D56*
X125955Y519007D03*
D54*
X125955Y527243D03*
D56*
X125955Y542633D03*
X125955Y551272D03*
X125955Y562342D03*
D187*
X125955Y576046D03*
D61*
X125955Y585765D03*
D68*
X125955Y594000D03*
D231*
X125955Y621337D03*
D232*
X126090Y416881D03*
D54*
X126090Y447728D03*
D61*
X126090Y461836D03*
D56*
X126090Y470003D03*
X126090Y478237D03*
D68*
X126090Y485055D03*
D56*
X126090Y504967D03*
X126090Y519007D03*
D54*
X126090Y527243D03*
D56*
X126090Y542633D03*
X126090Y551272D03*
X126090Y562342D03*
D86*
X126090Y573075D03*
D61*
X126090Y585765D03*
D68*
X126090Y594000D03*
D231*
X126090Y621337D03*
D233*
X126225Y416813D03*
D45*
X126225Y437130D03*
D54*
X126225Y447728D03*
D61*
X126225Y461836D03*
D56*
X126225Y470003D03*
X126225Y478237D03*
D68*
X126225Y485055D03*
D56*
X126225Y504967D03*
X126225Y519007D03*
D54*
X126225Y527243D03*
D56*
X126225Y542633D03*
X126225Y551272D03*
X126225Y562342D03*
D86*
X126225Y573075D03*
D61*
X126225Y585765D03*
D68*
X126225Y594000D03*
D231*
X126225Y621337D03*
D232*
X126360Y416881D03*
D33*
X126360Y437265D03*
D54*
X126360Y447728D03*
D61*
X126360Y461836D03*
D56*
X126360Y470003D03*
X126360Y478237D03*
D68*
X126360Y485055D03*
D56*
X126360Y504967D03*
X126360Y519007D03*
D54*
X126360Y527243D03*
D56*
X126360Y542633D03*
X126360Y551272D03*
X126360Y562342D03*
D86*
X126360Y573075D03*
D61*
X126360Y585765D03*
D68*
X126360Y594000D03*
D234*
X126360Y621472D03*
D235*
X126495Y416880D03*
D45*
X126495Y437400D03*
D54*
X126495Y447728D03*
D61*
X126495Y461836D03*
D56*
X126495Y470003D03*
X126495Y478237D03*
D68*
X126495Y485055D03*
D56*
X126495Y504967D03*
X126495Y519007D03*
D54*
X126495Y527243D03*
D56*
X126495Y542633D03*
X126495Y551272D03*
X126495Y562342D03*
D86*
X126495Y573075D03*
D61*
X126495Y585765D03*
D68*
X126495Y594000D03*
D234*
X126495Y621472D03*
D236*
X126630Y416948D03*
D33*
X126630Y437535D03*
D54*
X126630Y447728D03*
D61*
X126630Y461836D03*
D56*
X126630Y470003D03*
X126630Y478237D03*
D68*
X126630Y485055D03*
D56*
X126630Y504967D03*
X126630Y519007D03*
D54*
X126630Y527243D03*
D56*
X126630Y542633D03*
X126630Y551272D03*
X126630Y562342D03*
D86*
X126630Y573075D03*
D61*
X126630Y585765D03*
D68*
X126630Y594000D03*
D237*
X126630Y621540D03*
D238*
X126765Y416947D03*
D45*
X126765Y437670D03*
D54*
X126765Y447728D03*
D61*
X126765Y461836D03*
D56*
X126765Y470003D03*
X126765Y478237D03*
D68*
X126765Y485055D03*
D56*
X126765Y504967D03*
X126765Y519007D03*
D54*
X126765Y527243D03*
D56*
X126765Y542633D03*
X126765Y551272D03*
X126765Y562342D03*
D86*
X126765Y573075D03*
D61*
X126765Y585765D03*
D68*
X126765Y594000D03*
D237*
X126765Y621540D03*
D239*
X126900Y417015D03*
D13*
X126900Y437805D03*
D54*
X126900Y447728D03*
D61*
X126900Y461836D03*
D56*
X126900Y470003D03*
X126900Y478237D03*
D68*
X126900Y485055D03*
D56*
X126900Y504967D03*
X126900Y519007D03*
D54*
X126900Y527243D03*
D56*
X126900Y542633D03*
X126900Y551272D03*
X126900Y562342D03*
D86*
X126900Y573075D03*
D61*
X126900Y585765D03*
D68*
X126900Y594000D03*
D237*
X126900Y621675D03*
D240*
X127035Y417015D03*
D33*
X127035Y437940D03*
D54*
X127035Y447728D03*
D61*
X127035Y461836D03*
D56*
X127035Y470003D03*
X127035Y478237D03*
D68*
X127035Y485055D03*
D56*
X127035Y504967D03*
X127035Y519007D03*
D54*
X127035Y527243D03*
D56*
X127035Y542633D03*
X127035Y551272D03*
X127035Y562342D03*
D86*
X127035Y573075D03*
D61*
X127035Y585765D03*
D68*
X127035Y594000D03*
D237*
X127035Y621675D03*
D241*
X127170Y417015D03*
D45*
X127170Y438075D03*
D54*
X127170Y447728D03*
D61*
X127170Y461836D03*
D56*
X127170Y470003D03*
X127170Y478237D03*
D68*
X127170Y485055D03*
D56*
X127170Y504967D03*
X127170Y519007D03*
D54*
X127170Y527243D03*
D56*
X127170Y542633D03*
X127170Y551272D03*
X127170Y562342D03*
D86*
X127170Y573075D03*
D61*
X127170Y585765D03*
D68*
X127170Y594000D03*
D237*
X127170Y621675D03*
D242*
X127305Y417083D03*
D33*
X127305Y438210D03*
D54*
X127305Y447728D03*
D61*
X127305Y461836D03*
D56*
X127305Y470003D03*
X127305Y478237D03*
D68*
X127305Y485055D03*
D56*
X127305Y504967D03*
X127305Y519007D03*
D54*
X127305Y527243D03*
D56*
X127305Y542633D03*
X127305Y551272D03*
X127305Y562342D03*
D86*
X127305Y573075D03*
D61*
X127305Y585765D03*
D68*
X127305Y594000D03*
D243*
X127305Y621743D03*
D244*
X127440Y417150D03*
D45*
X127440Y438345D03*
D54*
X127440Y447728D03*
D61*
X127440Y461836D03*
D56*
X127440Y470003D03*
X127440Y478237D03*
D68*
X127440Y485055D03*
D56*
X127440Y504967D03*
X127440Y519007D03*
D54*
X127440Y527243D03*
D56*
X127440Y542633D03*
X127440Y551272D03*
X127440Y562342D03*
D86*
X127440Y573075D03*
D61*
X127440Y585765D03*
D68*
X127440Y594000D03*
D245*
X127440Y621810D03*
D246*
X127575Y417218D03*
D33*
X127575Y438480D03*
D54*
X127575Y447728D03*
D61*
X127575Y461836D03*
D56*
X127575Y470003D03*
X127575Y478237D03*
D68*
X127575Y485055D03*
D56*
X127575Y504967D03*
X127575Y519007D03*
D54*
X127575Y527243D03*
D56*
X127575Y542633D03*
X127575Y551272D03*
X127575Y562342D03*
D86*
X127575Y573075D03*
D61*
X127575Y585765D03*
D68*
X127575Y594000D03*
D245*
X127575Y621810D03*
D247*
X127710Y417217D03*
D45*
X127710Y438615D03*
D54*
X127710Y447728D03*
D61*
X127710Y461836D03*
D56*
X127710Y470003D03*
X127710Y478237D03*
D68*
X127710Y485055D03*
D56*
X127710Y504967D03*
X127710Y519007D03*
D54*
X127710Y527243D03*
D56*
X127710Y542633D03*
X127710Y551272D03*
X127710Y562342D03*
D86*
X127710Y573075D03*
D61*
X127710Y585765D03*
D68*
X127710Y594000D03*
D245*
X127710Y621810D03*
D248*
X127845Y417285D03*
D13*
X127845Y438750D03*
D54*
X127845Y447728D03*
D61*
X127845Y461836D03*
D56*
X127845Y470003D03*
X127845Y478237D03*
D68*
X127845Y485055D03*
D56*
X127845Y504967D03*
X127845Y519007D03*
D54*
X127845Y527243D03*
D56*
X127845Y542633D03*
X127845Y551272D03*
X127845Y562342D03*
D86*
X127845Y573075D03*
D61*
X127845Y585765D03*
D68*
X127845Y594000D03*
D245*
X127845Y621810D03*
D249*
X127980Y417285D03*
D33*
X127980Y438885D03*
D54*
X127980Y447728D03*
D61*
X127980Y461836D03*
D56*
X127980Y470003D03*
X127980Y478237D03*
D68*
X127980Y485055D03*
D56*
X127980Y504967D03*
X127980Y519007D03*
D54*
X127980Y527243D03*
D56*
X127980Y542633D03*
X127980Y551272D03*
X127980Y562342D03*
D86*
X127980Y573075D03*
D61*
X127980Y585765D03*
D68*
X127980Y594000D03*
D199*
X127980Y621877D03*
D250*
X128115Y417285D03*
D45*
X128115Y439020D03*
D54*
X128115Y447728D03*
D61*
X128115Y461836D03*
D56*
X128115Y470003D03*
X128115Y478237D03*
D68*
X128115Y485055D03*
D56*
X128115Y504967D03*
X128115Y519007D03*
D54*
X128115Y527243D03*
D56*
X128115Y542633D03*
X128115Y551272D03*
X128115Y562342D03*
D86*
X128115Y573075D03*
D61*
X128115Y585765D03*
D68*
X128115Y594000D03*
D251*
X128115Y621945D03*
D252*
X128250Y417353D03*
D33*
X128250Y439155D03*
D54*
X128250Y447728D03*
D61*
X128250Y461836D03*
D56*
X128250Y470003D03*
X128250Y478237D03*
D68*
X128250Y485055D03*
D56*
X128250Y504967D03*
X128250Y519007D03*
D54*
X128250Y527243D03*
D56*
X128250Y542633D03*
X128250Y551272D03*
X128250Y562342D03*
D86*
X128250Y573075D03*
D61*
X128250Y585765D03*
D68*
X128250Y594000D03*
D251*
X128250Y621945D03*
D253*
X128385Y417420D03*
D45*
X128385Y439290D03*
D54*
X128385Y447728D03*
D61*
X128385Y461836D03*
D56*
X128385Y470003D03*
X128385Y478237D03*
D68*
X128385Y485055D03*
D56*
X128385Y504967D03*
X128385Y519007D03*
D54*
X128385Y527243D03*
D56*
X128385Y542633D03*
X128385Y551272D03*
X128385Y562342D03*
D86*
X128385Y573075D03*
D61*
X128385Y585765D03*
D68*
X128385Y594000D03*
D251*
X128385Y621945D03*
D254*
X128520Y417488D03*
D33*
X128520Y439425D03*
D54*
X128520Y447728D03*
D61*
X128520Y461836D03*
D56*
X128520Y470003D03*
X128520Y478237D03*
D68*
X128520Y485055D03*
D56*
X128520Y504967D03*
X128520Y519007D03*
D54*
X128520Y527243D03*
D56*
X128520Y542633D03*
X128520Y551272D03*
X128520Y562342D03*
D86*
X128520Y573075D03*
D61*
X128520Y585765D03*
D68*
X128520Y594000D03*
D199*
X128520Y622012D03*
D255*
X128655Y417555D03*
D45*
X128655Y439560D03*
D54*
X128655Y447728D03*
D61*
X128655Y461836D03*
D56*
X128655Y470003D03*
X128655Y478237D03*
D68*
X128655Y485055D03*
D56*
X128655Y504967D03*
X128655Y519007D03*
D54*
X128655Y527243D03*
D56*
X128655Y542633D03*
X128655Y551272D03*
X128655Y562342D03*
D86*
X128655Y573075D03*
D61*
X128655Y585765D03*
D68*
X128655Y594000D03*
D199*
X128655Y622012D03*
D256*
X128790Y417555D03*
D13*
X128790Y439695D03*
D54*
X128790Y447728D03*
D61*
X128790Y461836D03*
D56*
X128790Y470003D03*
X128790Y478237D03*
D68*
X128790Y485055D03*
D56*
X128790Y504967D03*
X128790Y519007D03*
D54*
X128790Y527243D03*
D56*
X128790Y542633D03*
X128790Y551272D03*
X128790Y562342D03*
D86*
X128790Y573075D03*
D61*
X128790Y585765D03*
D68*
X128790Y594000D03*
D245*
X128790Y622080D03*
D257*
X128925Y417555D03*
D33*
X128925Y439830D03*
D54*
X128925Y447728D03*
D61*
X128925Y461836D03*
D56*
X128925Y470003D03*
X128925Y478237D03*
D68*
X128925Y485055D03*
D56*
X128925Y504967D03*
X128925Y519007D03*
D54*
X128925Y527243D03*
D56*
X128925Y542633D03*
X128925Y551272D03*
X128925Y562342D03*
D86*
X128925Y573075D03*
D61*
X128925Y585765D03*
D68*
X128925Y594000D03*
D199*
X128925Y622147D03*
D258*
X129060Y417622D03*
D45*
X129060Y439965D03*
D54*
X129060Y447728D03*
D61*
X129060Y461836D03*
D56*
X129060Y470003D03*
X129060Y478237D03*
D68*
X129060Y485055D03*
D56*
X129060Y504967D03*
X129060Y519007D03*
D54*
X129060Y527243D03*
D56*
X129060Y542633D03*
X129060Y551272D03*
X129060Y562342D03*
D86*
X129060Y573075D03*
D61*
X129060Y585765D03*
D68*
X129060Y594000D03*
D202*
X129060Y622215D03*
D259*
X129195Y417690D03*
D33*
X129195Y440100D03*
D54*
X129195Y447728D03*
D61*
X129195Y461836D03*
D56*
X129195Y470003D03*
X129195Y478237D03*
D68*
X129195Y485055D03*
D56*
X129195Y504967D03*
X129195Y519007D03*
D54*
X129195Y527243D03*
D56*
X129195Y542633D03*
X129195Y551272D03*
X129195Y562342D03*
D86*
X129195Y573075D03*
D61*
X129195Y585765D03*
D68*
X129195Y594000D03*
D260*
X129195Y622148D03*
D261*
X129330Y417757D03*
D45*
X129330Y440235D03*
D54*
X129330Y447728D03*
D61*
X129330Y461836D03*
D56*
X129330Y470003D03*
X129330Y478237D03*
D68*
X129330Y485055D03*
D56*
X129330Y504967D03*
X129330Y519007D03*
D54*
X129330Y527243D03*
D56*
X129330Y542633D03*
X129330Y551272D03*
X129330Y562342D03*
D86*
X129330Y573075D03*
D61*
X129330Y585765D03*
D68*
X129330Y594000D03*
D260*
X129330Y622148D03*
D262*
X129465Y417825D03*
D33*
X129465Y440370D03*
D54*
X129465Y447728D03*
D61*
X129465Y461836D03*
D56*
X129465Y470003D03*
X129465Y478237D03*
D68*
X129465Y485055D03*
D56*
X129465Y504967D03*
X129465Y519007D03*
D54*
X129465Y527243D03*
D56*
X129465Y542633D03*
X129465Y551272D03*
X129465Y562342D03*
D86*
X129465Y573075D03*
D61*
X129465Y585765D03*
D68*
X129465Y594000D03*
D263*
X129465Y622215D03*
D264*
X129600Y417825D03*
D45*
X129600Y440505D03*
D54*
X129600Y447728D03*
D61*
X129600Y461836D03*
D56*
X129600Y470003D03*
X129600Y478237D03*
D68*
X129600Y485055D03*
D56*
X129600Y504967D03*
X129600Y519007D03*
D54*
X129600Y527243D03*
D56*
X129600Y542633D03*
X129600Y551272D03*
X129600Y562342D03*
D86*
X129600Y573075D03*
D61*
X129600Y585765D03*
D68*
X129600Y594000D03*
D263*
X129600Y622215D03*
D265*
X129735Y417893D03*
D13*
X129735Y440640D03*
D54*
X129735Y447728D03*
D61*
X129735Y461836D03*
D56*
X129735Y470003D03*
X129735Y478237D03*
D68*
X129735Y485055D03*
D56*
X129735Y504967D03*
X129735Y519007D03*
D54*
X129735Y527243D03*
D56*
X129735Y542633D03*
X129735Y551272D03*
X129735Y562342D03*
D86*
X129735Y573075D03*
D61*
X129735Y585765D03*
D68*
X129735Y594000D03*
D260*
X129735Y622283D03*
D266*
X129870Y417892D03*
D33*
X129870Y440775D03*
D54*
X129870Y447728D03*
D61*
X129870Y461836D03*
D56*
X129870Y470003D03*
X129870Y478237D03*
D68*
X129870Y485055D03*
D56*
X129870Y504967D03*
X129870Y519007D03*
D54*
X129870Y527243D03*
D56*
X129870Y542633D03*
X129870Y551272D03*
X129870Y562342D03*
D86*
X129870Y573075D03*
D61*
X129870Y585765D03*
D68*
X129870Y594000D03*
D260*
X129870Y622283D03*
D267*
X130005Y417960D03*
D45*
X130005Y440910D03*
D54*
X130005Y447728D03*
D61*
X130005Y461836D03*
D56*
X130005Y470003D03*
X130005Y478237D03*
D68*
X130005Y485055D03*
D56*
X130005Y504967D03*
X130005Y519007D03*
D54*
X130005Y527243D03*
D56*
X130005Y542633D03*
X130005Y551272D03*
X130005Y562342D03*
D86*
X130005Y573075D03*
D61*
X130005Y585765D03*
D68*
X130005Y594000D03*
D263*
X130005Y622350D03*
D268*
X130140Y418028D03*
D33*
X130140Y441045D03*
D54*
X130140Y447728D03*
D61*
X130140Y461836D03*
D56*
X130140Y470003D03*
X130140Y478237D03*
D68*
X130140Y485055D03*
D56*
X130140Y504967D03*
X130140Y519007D03*
D54*
X130140Y527243D03*
D56*
X130140Y542633D03*
X130140Y551272D03*
X130140Y562342D03*
D86*
X130140Y573075D03*
D61*
X130140Y585765D03*
D68*
X130140Y594000D03*
D263*
X130140Y622350D03*
D269*
X130275Y418095D03*
D45*
X130275Y441180D03*
D54*
X130275Y447728D03*
D61*
X130275Y461836D03*
D56*
X130275Y470003D03*
X130275Y478237D03*
D68*
X130275Y485055D03*
D56*
X130275Y504967D03*
X130275Y519007D03*
D54*
X130275Y527243D03*
D56*
X130275Y542633D03*
X130275Y551272D03*
X130275Y562342D03*
D86*
X130275Y573075D03*
D61*
X130275Y585765D03*
D68*
X130275Y594000D03*
D263*
X130275Y622350D03*
D270*
X130410Y418163D03*
D13*
X130410Y441315D03*
D54*
X130410Y447728D03*
D61*
X130410Y461836D03*
D56*
X130410Y470003D03*
X130410Y478237D03*
D68*
X130410Y485055D03*
D56*
X130410Y504967D03*
X130410Y519007D03*
D54*
X130410Y527243D03*
D56*
X130410Y542633D03*
X130410Y551272D03*
X130410Y562342D03*
D86*
X130410Y573075D03*
D61*
X130410Y585765D03*
D68*
X130410Y594000D03*
D271*
X130410Y622417D03*
D272*
X130545Y418163D03*
D33*
X130545Y441450D03*
D273*
X130545Y450697D03*
D55*
X130545Y461836D03*
D167*
X130545Y474120D03*
D274*
X130545Y488160D03*
D273*
X130545Y507937D03*
D58*
X130545Y519007D03*
D275*
X130545Y531157D03*
D56*
X130545Y542633D03*
X130545Y551272D03*
D40*
X130545Y562276D03*
D276*
X130545Y576180D03*
D168*
X130545Y589883D03*
D271*
X130545Y622417D03*
D277*
X130680Y418230D03*
D45*
X130680Y441585D03*
D273*
X130680Y450697D03*
D55*
X130680Y461836D03*
D167*
X130680Y474120D03*
D274*
X130680Y488160D03*
D273*
X130680Y507937D03*
D58*
X130680Y519007D03*
D275*
X130680Y531157D03*
D56*
X130680Y542633D03*
X130680Y551272D03*
D40*
X130680Y562276D03*
D276*
X130680Y576180D03*
D168*
X130680Y589883D03*
D278*
X130680Y622485D03*
D279*
X130815Y418298D03*
D33*
X130815Y441720D03*
D273*
X130815Y450697D03*
D55*
X130815Y461836D03*
D167*
X130815Y474120D03*
D274*
X130815Y488160D03*
D273*
X130815Y507937D03*
D58*
X130815Y519007D03*
D275*
X130815Y531157D03*
D56*
X130815Y542633D03*
X130815Y551272D03*
D40*
X130815Y562276D03*
D276*
X130815Y576180D03*
D168*
X130815Y589883D03*
D278*
X130815Y622485D03*
D280*
X130950Y418365D03*
D45*
X130950Y441855D03*
D273*
X130950Y450697D03*
D55*
X130950Y461836D03*
D167*
X130950Y474120D03*
D274*
X130950Y488160D03*
D273*
X130950Y507937D03*
D58*
X130950Y519007D03*
D275*
X130950Y531157D03*
D56*
X130950Y542633D03*
X130950Y551272D03*
D40*
X130950Y562276D03*
D276*
X130950Y576180D03*
D168*
X130950Y589883D03*
D204*
X130950Y622553D03*
D281*
X131085Y418365D03*
D33*
X131085Y441990D03*
D273*
X131085Y450697D03*
D55*
X131085Y461836D03*
D167*
X131085Y474120D03*
D274*
X131085Y488160D03*
D273*
X131085Y507937D03*
D58*
X131085Y519007D03*
D275*
X131085Y531157D03*
D56*
X131085Y542633D03*
X131085Y551272D03*
D40*
X131085Y562276D03*
D276*
X131085Y576180D03*
D168*
X131085Y589883D03*
D204*
X131085Y622553D03*
D282*
X131220Y418432D03*
D45*
X131220Y442125D03*
D273*
X131220Y450697D03*
D55*
X131220Y461836D03*
D167*
X131220Y474120D03*
D274*
X131220Y488160D03*
D273*
X131220Y507937D03*
D58*
X131220Y519007D03*
D275*
X131220Y531157D03*
D56*
X131220Y542633D03*
X131220Y551272D03*
D40*
X131220Y562276D03*
D276*
X131220Y576180D03*
D168*
X131220Y589883D03*
D204*
X131220Y622553D03*
D283*
X131355Y418500D03*
D13*
X131355Y442260D03*
D273*
X131355Y450697D03*
D55*
X131355Y461836D03*
D167*
X131355Y474120D03*
D274*
X131355Y488160D03*
D273*
X131355Y507937D03*
D58*
X131355Y519007D03*
D275*
X131355Y531157D03*
D56*
X131355Y542633D03*
X131355Y551272D03*
D40*
X131355Y562276D03*
D276*
X131355Y576180D03*
D168*
X131355Y589883D03*
D204*
X131355Y622553D03*
D284*
X131490Y418567D03*
D33*
X131490Y442395D03*
D273*
X131490Y450697D03*
D55*
X131490Y461836D03*
D285*
X131490Y474187D03*
D274*
X131490Y488160D03*
D273*
X131490Y507937D03*
D58*
X131490Y519007D03*
D275*
X131490Y531157D03*
D56*
X131490Y542633D03*
X131490Y551272D03*
D40*
X131490Y562276D03*
D276*
X131490Y576180D03*
D168*
X131490Y589883D03*
D204*
X131490Y622553D03*
D286*
X131625Y418635D03*
D45*
X131625Y442530D03*
D287*
X131625Y450765D03*
D55*
X131625Y461836D03*
D288*
X131625Y474255D03*
D274*
X131625Y488160D03*
D287*
X131625Y508005D03*
D58*
X131625Y519007D03*
D275*
X131625Y531157D03*
D56*
X131625Y542633D03*
X131625Y551272D03*
D40*
X131625Y562276D03*
D276*
X131625Y576180D03*
D289*
X131625Y589950D03*
D278*
X131625Y622620D03*
D290*
X131760Y418703D03*
D33*
X131760Y442665D03*
D291*
X131760Y450832D03*
D55*
X131760Y461836D03*
D292*
X131760Y474323D03*
D274*
X131760Y488160D03*
D291*
X131760Y508072D03*
D58*
X131760Y519007D03*
D275*
X131760Y531157D03*
D56*
X131760Y542633D03*
X131760Y551272D03*
D40*
X131760Y562276D03*
D276*
X131760Y576180D03*
D275*
X131760Y590018D03*
D278*
X131760Y622620D03*
D293*
X131895Y418770D03*
D45*
X131895Y442800D03*
D186*
X131895Y450900D03*
D55*
X131895Y461836D03*
D294*
X131895Y474390D03*
D274*
X131895Y488160D03*
D186*
X131895Y508140D03*
D58*
X131895Y519007D03*
D275*
X131895Y531157D03*
D56*
X131895Y542633D03*
X131895Y551272D03*
D40*
X131895Y562276D03*
D276*
X131895Y576180D03*
D294*
X131895Y590086D03*
D204*
X131895Y622688D03*
D295*
X132030Y418770D03*
D33*
X132030Y442935D03*
D296*
X132030Y450968D03*
D55*
X132030Y461836D03*
D297*
X132030Y474457D03*
D274*
X132030Y488160D03*
D296*
X132030Y508208D03*
D58*
X132030Y519007D03*
D275*
X132030Y531157D03*
D56*
X132030Y542633D03*
X132030Y551272D03*
D40*
X132030Y562276D03*
D276*
X132030Y576180D03*
D297*
X132030Y590153D03*
D204*
X132030Y622688D03*
D298*
X132165Y418837D03*
D45*
X132165Y443070D03*
D299*
X132165Y451035D03*
D55*
X132165Y461836D03*
D300*
X132165Y474525D03*
D274*
X132165Y488160D03*
D301*
X132165Y508275D03*
D58*
X132165Y519007D03*
D275*
X132165Y531157D03*
D56*
X132165Y542633D03*
X132165Y551272D03*
D40*
X132165Y562276D03*
D276*
X132165Y576180D03*
D302*
X132165Y590220D03*
D278*
X132165Y622755D03*
D303*
X132300Y418905D03*
D13*
X132300Y443205D03*
D304*
X132300Y451103D03*
D55*
X132300Y461836D03*
D305*
X132300Y474593D03*
D274*
X132300Y488160D03*
D36*
X132300Y508342D03*
D58*
X132300Y519007D03*
D275*
X132300Y531157D03*
D56*
X132300Y542633D03*
X132300Y551272D03*
D40*
X132300Y562276D03*
D276*
X132300Y576180D03*
D306*
X132300Y590288D03*
D278*
X132300Y622755D03*
D307*
X132435Y419108D03*
D308*
X132435Y451170D03*
D55*
X132435Y461836D03*
D309*
X132435Y474660D03*
D274*
X132435Y488160D03*
D308*
X132435Y508410D03*
D58*
X132435Y519007D03*
D275*
X132435Y531157D03*
D56*
X132435Y542633D03*
X132435Y551272D03*
D40*
X132435Y562276D03*
D276*
X132435Y576180D03*
D310*
X132435Y590355D03*
D204*
X132435Y622823D03*
D311*
X132570Y419175D03*
D312*
X132570Y451238D03*
D55*
X132570Y461836D03*
D313*
X132570Y474727D03*
D274*
X132570Y488160D03*
D312*
X132570Y508478D03*
D58*
X132570Y519007D03*
D275*
X132570Y531157D03*
D56*
X132570Y542633D03*
X132570Y551272D03*
D40*
X132570Y562276D03*
D276*
X132570Y576180D03*
D314*
X132570Y590423D03*
D278*
X132570Y622755D03*
D315*
X132705Y419243D03*
D16*
X132705Y451305D03*
D55*
X132705Y461836D03*
D316*
X132705Y474795D03*
D274*
X132705Y488160D03*
D16*
X132705Y508545D03*
D58*
X132705Y519007D03*
D275*
X132705Y531157D03*
D56*
X132705Y542633D03*
X132705Y551272D03*
D40*
X132705Y562276D03*
D276*
X132705Y576180D03*
D317*
X132705Y590558D03*
D278*
X132705Y622755D03*
D315*
X132840Y419243D03*
D318*
X132840Y451372D03*
D55*
X132840Y461836D03*
D317*
X132840Y474862D03*
D274*
X132840Y488160D03*
D318*
X132840Y508612D03*
D58*
X132840Y519007D03*
D275*
X132840Y531157D03*
D56*
X132840Y542633D03*
X132840Y551272D03*
D40*
X132840Y562276D03*
D276*
X132840Y576180D03*
D319*
X132840Y590626D03*
D320*
X132840Y610741D03*
D321*
X132840Y628965D03*
D322*
X132975Y419243D03*
D323*
X132975Y451440D03*
D55*
X132975Y461836D03*
D319*
X132975Y474930D03*
D274*
X132975Y488160D03*
D323*
X132975Y508680D03*
D58*
X132975Y519007D03*
D275*
X132975Y531157D03*
D56*
X132975Y542633D03*
X132975Y551272D03*
D40*
X132975Y562276D03*
D276*
X132975Y576180D03*
D38*
X132975Y590693D03*
D324*
X132975Y610673D03*
D13*
X132975Y617626D03*
D104*
X132975Y629370D03*
D325*
X133110Y419311D03*
D326*
X133110Y451507D03*
D55*
X133110Y461836D03*
D327*
X133110Y475065D03*
D274*
X133110Y488160D03*
D326*
X133110Y508747D03*
D58*
X133110Y519007D03*
D275*
X133110Y531157D03*
D56*
X133110Y542633D03*
X133110Y551272D03*
D40*
X133110Y562276D03*
D276*
X133110Y576180D03*
D328*
X133110Y590760D03*
D38*
X133110Y610403D03*
D329*
X133110Y629505D03*
D330*
X133245Y419310D03*
D331*
X133245Y451575D03*
D55*
X133245Y461836D03*
D57*
X133245Y475132D03*
D274*
X133245Y488160D03*
D332*
X133245Y508815D03*
D58*
X133245Y519007D03*
D275*
X133245Y531157D03*
D56*
X133245Y542633D03*
X133245Y551272D03*
D40*
X133245Y562276D03*
D276*
X133245Y576180D03*
D333*
X133245Y590828D03*
D328*
X133245Y610335D03*
D329*
X133245Y629505D03*
D334*
X133380Y419445D03*
D335*
X133380Y451642D03*
D55*
X133380Y461836D03*
D336*
X133380Y475200D03*
D274*
X133380Y488160D03*
D337*
X133380Y508883D03*
D58*
X133380Y519007D03*
D275*
X133380Y531157D03*
D56*
X133380Y542633D03*
X133380Y551272D03*
D40*
X133380Y562276D03*
D276*
X133380Y576180D03*
D274*
X133380Y590895D03*
D328*
X133380Y610335D03*
D329*
X133380Y629505D03*
D338*
X133515Y419378D03*
D33*
X133515Y444285D03*
D339*
X133515Y451710D03*
D55*
X133515Y461836D03*
D340*
X133515Y475268D03*
D274*
X133515Y488160D03*
D339*
X133515Y508950D03*
D58*
X133515Y519007D03*
D275*
X133515Y531157D03*
D56*
X133515Y542633D03*
X133515Y551272D03*
D40*
X133515Y562276D03*
D276*
X133515Y576180D03*
D273*
X133515Y590963D03*
D333*
X133515Y610403D03*
D99*
X133515Y629640D03*
D334*
X133650Y419445D03*
D45*
X133650Y444420D03*
D341*
X133650Y451777D03*
D55*
X133650Y461836D03*
D187*
X133650Y475335D03*
D274*
X133650Y488160D03*
D341*
X133650Y509017D03*
D58*
X133650Y519007D03*
D275*
X133650Y531157D03*
D56*
X133650Y542633D03*
X133650Y551272D03*
D40*
X133650Y562276D03*
D276*
X133650Y576180D03*
D187*
X133650Y591031D03*
D333*
X133650Y610403D03*
D342*
X133650Y629843D03*
D343*
X133785Y419513D03*
D33*
X133785Y444555D03*
D344*
X133785Y451845D03*
D55*
X133785Y461836D03*
D291*
X133785Y475402D03*
D274*
X133785Y488160D03*
D344*
X133785Y509085D03*
D58*
X133785Y519007D03*
D275*
X133785Y531157D03*
D56*
X133785Y542633D03*
X133785Y551272D03*
D40*
X133785Y562276D03*
D276*
X133785Y576180D03*
D291*
X133785Y591098D03*
D274*
X133785Y610335D03*
D345*
X133785Y629911D03*
D346*
X133920Y419580D03*
D45*
X133920Y444690D03*
D347*
X133920Y451913D03*
D55*
X133920Y461836D03*
D348*
X133920Y475470D03*
D274*
X133920Y488160D03*
D347*
X133920Y509153D03*
D58*
X133920Y519007D03*
D275*
X133920Y531157D03*
D56*
X133920Y542633D03*
X133920Y551272D03*
D40*
X133920Y562276D03*
D276*
X133920Y576180D03*
D349*
X133920Y591165D03*
D273*
X133920Y610267D03*
D48*
X133920Y629978D03*
D350*
X134055Y419648D03*
D33*
X134055Y444825D03*
D351*
X134055Y451980D03*
D55*
X134055Y461836D03*
D296*
X134055Y475538D03*
D274*
X134055Y488160D03*
D351*
X134055Y509220D03*
D58*
X134055Y519007D03*
D275*
X134055Y531157D03*
D56*
X134055Y542633D03*
X134055Y551272D03*
D40*
X134055Y562276D03*
D276*
X134055Y576180D03*
D188*
X134055Y591233D03*
D187*
X134055Y610200D03*
D352*
X134055Y630045D03*
D353*
X134190Y419647D03*
D13*
X134190Y444961D03*
D354*
X134190Y452048D03*
D55*
X134190Y461836D03*
D299*
X134190Y475605D03*
D274*
X134190Y488160D03*
D355*
X134190Y509287D03*
D58*
X134190Y519007D03*
D275*
X134190Y531157D03*
D56*
X134190Y542633D03*
X134190Y551272D03*
D40*
X134190Y562276D03*
D276*
X134190Y576180D03*
D356*
X134190Y591300D03*
D188*
X134190Y609998D03*
D357*
X134190Y630113D03*
D358*
X134325Y419715D03*
D45*
X134325Y445095D03*
D55*
X134325Y452115D03*
X134325Y461836D03*
D304*
X134325Y475673D03*
D274*
X134325Y488160D03*
D359*
X134325Y509355D03*
D58*
X134325Y519007D03*
D275*
X134325Y531157D03*
D56*
X134325Y542633D03*
X134325Y551272D03*
D40*
X134325Y562276D03*
D276*
X134325Y576180D03*
D360*
X134325Y591368D03*
D356*
X134325Y610065D03*
D39*
X134325Y630180D03*
D361*
X134460Y419783D03*
D33*
X134460Y445230D03*
D362*
X134460Y452183D03*
D55*
X134460Y461836D03*
D363*
X134460Y475740D03*
D274*
X134460Y488160D03*
D362*
X134460Y509423D03*
D58*
X134460Y519007D03*
D275*
X134460Y531157D03*
D56*
X134460Y542633D03*
X134460Y551272D03*
D40*
X134460Y562276D03*
D276*
X134460Y576180D03*
D364*
X134460Y591503D03*
D365*
X134460Y610065D03*
D366*
X134460Y630248D03*
D367*
X134595Y419850D03*
D45*
X134595Y445365D03*
D365*
X134595Y610065D03*
D366*
X134595Y630248D03*
D368*
X134730Y419918D03*
D33*
X134730Y445500D03*
D365*
X134730Y610065D03*
D366*
X134730Y630383D03*
D369*
X134865Y419985D03*
D45*
X134865Y445635D03*
D370*
X134865Y609998D03*
D366*
X134865Y630383D03*
D371*
X135000Y420053D03*
D13*
X135000Y445770D03*
D16*
X135000Y609930D03*
D372*
X135000Y630451D03*
D373*
X135135Y420120D03*
D33*
X135135Y445905D03*
D16*
X135135Y609930D03*
D372*
X135135Y630451D03*
D374*
X135270Y420187D03*
D45*
X135270Y446040D03*
D323*
X135270Y609930D03*
D375*
X135270Y630518D03*
D376*
X135405Y420255D03*
D33*
X135405Y446175D03*
D377*
X135405Y609998D03*
D375*
X135405Y630518D03*
D378*
X135540Y420322D03*
D45*
X135540Y446310D03*
D377*
X135540Y609998D03*
D379*
X135540Y630585D03*
D380*
X135675Y420390D03*
D33*
X135675Y446445D03*
D377*
X135675Y609998D03*
D375*
X135675Y630653D03*
D381*
X135810Y420525D03*
D377*
X135810Y609998D03*
D375*
X135810Y630653D03*
D382*
X135945Y420592D03*
D337*
X135945Y609998D03*
D379*
X135945Y630720D03*
D382*
X136080Y420458D03*
D13*
X136080Y446715D03*
D337*
X136080Y609998D03*
D35*
X136080Y630653D03*
D383*
X136215Y420525D03*
D33*
X136215Y446850D03*
D337*
X136215Y609998D03*
D384*
X136215Y630720D03*
D385*
X136350Y420593D03*
D45*
X136350Y446985D03*
D341*
X136350Y609997D03*
D386*
X136350Y630788D03*
D387*
X136485Y420661D03*
D33*
X136485Y447120D03*
D341*
X136485Y609997D03*
D388*
X136485Y630856D03*
D389*
X136620Y420728D03*
D45*
X136620Y447255D03*
D341*
X136620Y609997D03*
D388*
X136620Y630856D03*
D390*
X136755Y420796D03*
D33*
X136755Y447390D03*
D344*
X136755Y610065D03*
D388*
X136755Y630856D03*
D391*
X136890Y420863D03*
D45*
X136890Y447525D03*
D344*
X136890Y610065D03*
D388*
X136890Y630856D03*
D392*
X137025Y420931D03*
D13*
X137025Y447660D03*
D344*
X137025Y610065D03*
D388*
X137025Y630856D03*
D393*
X137160Y420998D03*
D33*
X137160Y447795D03*
D100*
X137160Y525218D03*
D327*
X137160Y539190D03*
D56*
X137160Y548708D03*
X137160Y557348D03*
D394*
X137160Y563895D03*
D395*
X137160Y570173D03*
D394*
X137160Y576450D03*
D54*
X137160Y594068D03*
D344*
X137160Y610065D03*
D30*
X137160Y630991D03*
D396*
X137295Y421065D03*
D45*
X137295Y447930D03*
D100*
X137295Y525218D03*
D327*
X137295Y539190D03*
D56*
X137295Y548708D03*
X137295Y557348D03*
D394*
X137295Y563895D03*
D395*
X137295Y570173D03*
D394*
X137295Y576450D03*
D54*
X137295Y594068D03*
D351*
X137295Y610200D03*
D30*
X137295Y630991D03*
D397*
X137430Y421200D03*
D100*
X137430Y525218D03*
D327*
X137430Y539190D03*
D56*
X137430Y548708D03*
X137430Y557348D03*
D394*
X137430Y563895D03*
D398*
X137430Y570240D03*
D394*
X137430Y576450D03*
D54*
X137430Y594068D03*
D399*
X137430Y610133D03*
D30*
X137430Y630991D03*
D400*
X137565Y421133D03*
D33*
X137565Y448065D03*
D100*
X137565Y525218D03*
D327*
X137565Y539190D03*
D56*
X137565Y548708D03*
X137565Y557348D03*
D394*
X137565Y563895D03*
D398*
X137565Y570240D03*
D394*
X137565Y576450D03*
D54*
X137565Y594068D03*
D351*
X137565Y610200D03*
D30*
X137565Y631125D03*
D397*
X137700Y421200D03*
D45*
X137700Y448200D03*
D100*
X137700Y525218D03*
D327*
X137700Y539190D03*
D56*
X137700Y548708D03*
X137700Y557348D03*
D394*
X137700Y563895D03*
D401*
X137700Y570173D03*
D394*
X137700Y576450D03*
D54*
X137700Y594068D03*
D354*
X137700Y610268D03*
D30*
X137700Y631125D03*
D402*
X137835Y421268D03*
D33*
X137835Y448335D03*
D100*
X137835Y525218D03*
D327*
X137835Y539190D03*
D56*
X137835Y548708D03*
X137835Y557348D03*
D394*
X137835Y563895D03*
D401*
X137835Y570173D03*
D394*
X137835Y576450D03*
D54*
X137835Y594068D03*
D55*
X137835Y610201D03*
D403*
X137835Y631058D03*
D404*
X137970Y421335D03*
D45*
X137970Y448470D03*
D100*
X137970Y525218D03*
D327*
X137970Y539190D03*
D56*
X137970Y548708D03*
X137970Y557348D03*
D394*
X137970Y563895D03*
D405*
X137970Y570240D03*
D394*
X137970Y576450D03*
D54*
X137970Y594068D03*
D55*
X137970Y610201D03*
D403*
X137970Y631058D03*
D406*
X138105Y421403D03*
D13*
X138105Y448605D03*
D100*
X138105Y525218D03*
D327*
X138105Y539190D03*
D56*
X138105Y548708D03*
X138105Y557348D03*
D394*
X138105Y563895D03*
D405*
X138105Y570240D03*
D394*
X138105Y576450D03*
D54*
X138105Y594068D03*
D407*
X138105Y610201D03*
D408*
X138105Y631125D03*
D409*
X138240Y421470D03*
D33*
X138240Y448740D03*
D100*
X138240Y525218D03*
D327*
X138240Y539190D03*
D56*
X138240Y548708D03*
X138240Y557348D03*
D394*
X138240Y563895D03*
D84*
X138240Y570172D03*
D394*
X138240Y576450D03*
D54*
X138240Y594068D03*
D410*
X138240Y610268D03*
D411*
X138240Y631193D03*
D412*
X138375Y421538D03*
D100*
X138375Y525218D03*
D327*
X138375Y539190D03*
D56*
X138375Y548708D03*
X138375Y557348D03*
D394*
X138375Y563895D03*
D84*
X138375Y570172D03*
D394*
X138375Y576450D03*
D54*
X138375Y594068D03*
D410*
X138375Y610268D03*
D411*
X138375Y631193D03*
D413*
X138510Y421470D03*
D45*
X138510Y448875D03*
D100*
X138510Y525218D03*
D327*
X138510Y539190D03*
D56*
X138510Y548708D03*
X138510Y557348D03*
D394*
X138510Y563895D03*
D414*
X138510Y570240D03*
D394*
X138510Y576450D03*
D54*
X138510Y594068D03*
D415*
X138510Y610403D03*
D416*
X138510Y631260D03*
D412*
X138645Y421538D03*
D33*
X138645Y449010D03*
D100*
X138645Y525218D03*
D327*
X138645Y539190D03*
D56*
X138645Y548708D03*
X138645Y557348D03*
D394*
X138645Y563895D03*
D414*
X138645Y570240D03*
D394*
X138645Y576450D03*
D54*
X138645Y594068D03*
D417*
X138645Y610470D03*
D418*
X138645Y631327D03*
D419*
X138780Y421605D03*
D45*
X138780Y449145D03*
D100*
X138780Y525218D03*
D327*
X138780Y539190D03*
D56*
X138780Y548708D03*
X138780Y557348D03*
D394*
X138780Y563895D03*
D420*
X138780Y570173D03*
D394*
X138780Y576450D03*
D54*
X138780Y594068D03*
D417*
X138780Y610470D03*
D418*
X138780Y631327D03*
D421*
X138915Y421673D03*
D13*
X138915Y449280D03*
D100*
X138915Y525218D03*
D327*
X138915Y539190D03*
D56*
X138915Y548708D03*
X138915Y557348D03*
D394*
X138915Y563895D03*
D420*
X138915Y570173D03*
D394*
X138915Y576450D03*
D54*
X138915Y594068D03*
D417*
X138915Y610470D03*
D418*
X138915Y631327D03*
D422*
X139050Y421808D03*
D33*
X139050Y449415D03*
D100*
X139050Y525218D03*
D327*
X139050Y539190D03*
D56*
X139050Y548708D03*
X139050Y557348D03*
D394*
X139050Y563895D03*
D423*
X139050Y570240D03*
D394*
X139050Y576450D03*
D54*
X139050Y594068D03*
D424*
X139050Y610538D03*
D425*
X139050Y631395D03*
D426*
X139185Y421876D03*
D100*
X139185Y525218D03*
D327*
X139185Y539190D03*
D56*
X139185Y548708D03*
X139185Y557348D03*
D394*
X139185Y563895D03*
D423*
X139185Y570240D03*
D394*
X139185Y576450D03*
D54*
X139185Y594068D03*
D427*
X139185Y610605D03*
D425*
X139185Y631395D03*
D428*
X139320Y421808D03*
D45*
X139320Y449550D03*
D100*
X139320Y525218D03*
D327*
X139320Y539190D03*
D56*
X139320Y548708D03*
X139320Y557348D03*
D394*
X139320Y563895D03*
D429*
X139320Y570173D03*
D394*
X139320Y576450D03*
D54*
X139320Y594068D03*
D430*
X139320Y610538D03*
D425*
X139320Y631395D03*
D426*
X139455Y421876D03*
D33*
X139455Y449685D03*
D100*
X139455Y525218D03*
D327*
X139455Y539190D03*
D56*
X139455Y548708D03*
X139455Y557348D03*
D394*
X139455Y563895D03*
D429*
X139455Y570173D03*
D394*
X139455Y576450D03*
D54*
X139455Y594068D03*
D431*
X139455Y610673D03*
D432*
X139455Y631463D03*
D433*
X139590Y421943D03*
D45*
X139590Y449820D03*
D100*
X139590Y525218D03*
D327*
X139590Y539190D03*
D56*
X139590Y548708D03*
X139590Y557348D03*
D394*
X139590Y563895D03*
D434*
X139590Y570240D03*
D394*
X139590Y576450D03*
D54*
X139590Y594068D03*
D431*
X139590Y610673D03*
D435*
X139590Y631463D03*
D436*
X139725Y422011D03*
D33*
X139725Y449955D03*
D100*
X139725Y525218D03*
D327*
X139725Y539190D03*
D56*
X139725Y548708D03*
X139725Y557348D03*
D394*
X139725Y563895D03*
D434*
X139725Y570240D03*
D394*
X139725Y576450D03*
D54*
X139725Y594068D03*
D437*
X139725Y610741D03*
D435*
X139725Y631463D03*
D438*
X139860Y422146D03*
D100*
X139860Y525218D03*
D327*
X139860Y539190D03*
D56*
X139860Y548708D03*
X139860Y557348D03*
D394*
X139860Y563895D03*
D439*
X139860Y570173D03*
D394*
X139860Y576450D03*
D54*
X139860Y594068D03*
D437*
X139860Y610741D03*
D435*
X139860Y631463D03*
D440*
X139995Y422078D03*
D45*
X139995Y450090D03*
D100*
X139995Y525218D03*
D327*
X139995Y539190D03*
D56*
X139995Y548708D03*
X139995Y557348D03*
D394*
X139995Y563895D03*
D439*
X139995Y570173D03*
D394*
X139995Y576450D03*
D54*
X139995Y594068D03*
D441*
X139995Y610808D03*
D442*
X139995Y631530D03*
D438*
X140130Y422146D03*
D13*
X140130Y450225D03*
D100*
X140130Y525218D03*
D327*
X140130Y539190D03*
D56*
X140130Y548708D03*
X140130Y557348D03*
D394*
X140130Y563895D03*
D443*
X140130Y570241D03*
D394*
X140130Y576450D03*
D54*
X140130Y594068D03*
D441*
X140130Y610808D03*
D444*
X140130Y631597D03*
D445*
X140265Y422213D03*
D33*
X140265Y450360D03*
D100*
X140265Y525218D03*
D327*
X140265Y539190D03*
D56*
X140265Y548708D03*
X140265Y557348D03*
D394*
X140265Y563895D03*
D446*
X140265Y570173D03*
D394*
X140265Y576450D03*
D54*
X140265Y594068D03*
D447*
X140265Y610875D03*
D444*
X140265Y631597D03*
D448*
X140400Y422348D03*
D100*
X140400Y525218D03*
D327*
X140400Y539190D03*
D56*
X140400Y548708D03*
X140400Y557348D03*
D394*
X140400Y563895D03*
D446*
X140400Y570173D03*
D394*
X140400Y576450D03*
D54*
X140400Y594068D03*
D449*
X140400Y611010D03*
D450*
X140400Y631665D03*
D451*
X140535Y422280D03*
D45*
X140535Y450495D03*
D100*
X140535Y525218D03*
D327*
X140535Y539190D03*
D56*
X140535Y548708D03*
X140535Y557348D03*
D394*
X140535Y563895D03*
D446*
X140535Y570173D03*
D394*
X140535Y576450D03*
D54*
X140535Y594068D03*
D452*
X140535Y611077D03*
D450*
X140535Y631665D03*
D448*
X140670Y422348D03*
D33*
X140670Y450630D03*
D100*
X140670Y525218D03*
D327*
X140670Y539190D03*
D56*
X140670Y548708D03*
X140670Y557348D03*
D394*
X140670Y563895D03*
D453*
X140670Y570240D03*
D394*
X140670Y576450D03*
D54*
X140670Y594068D03*
D452*
X140670Y611077D03*
D450*
X140670Y631665D03*
D454*
X140805Y422415D03*
D45*
X140805Y450765D03*
D100*
X140805Y525218D03*
D327*
X140805Y539190D03*
D56*
X140805Y548708D03*
X140805Y557348D03*
D394*
X140805Y563895D03*
D455*
X140805Y570173D03*
D394*
X140805Y576450D03*
D54*
X140805Y594068D03*
D452*
X140805Y611077D03*
D444*
X140805Y631732D03*
D456*
X140940Y422550D03*
D100*
X140940Y525218D03*
D327*
X140940Y539190D03*
D56*
X140940Y548708D03*
X140940Y557348D03*
D394*
X140940Y563895D03*
D455*
X140940Y570173D03*
D394*
X140940Y576450D03*
D54*
X140940Y594068D03*
D457*
X140940Y611280D03*
D98*
X140940Y631800D03*
D458*
X141075Y422483D03*
D33*
X141075Y450900D03*
D100*
X141075Y525218D03*
D327*
X141075Y539190D03*
D56*
X141075Y548708D03*
X141075Y557348D03*
D394*
X141075Y563895D03*
D455*
X141075Y570173D03*
D394*
X141075Y576450D03*
D54*
X141075Y594068D03*
D457*
X141075Y611280D03*
D98*
X141075Y631800D03*
D456*
X141210Y422550D03*
D45*
X141210Y451035D03*
D100*
X141210Y525218D03*
D327*
X141210Y539190D03*
D56*
X141210Y548708D03*
X141210Y557348D03*
D394*
X141210Y563895D03*
D459*
X141210Y570240D03*
D394*
X141210Y576450D03*
D54*
X141210Y594068D03*
D457*
X141210Y611280D03*
D460*
X141210Y631732D03*
D461*
X141345Y422618D03*
D13*
X141345Y451170D03*
D100*
X141345Y525218D03*
D56*
X141345Y536018D03*
X141345Y548708D03*
X141345Y557348D03*
D394*
X141345Y563895D03*
D462*
X141345Y570173D03*
D394*
X141345Y576450D03*
D54*
X141345Y594068D03*
D457*
X141345Y611415D03*
D460*
X141345Y631867D03*
D463*
X141480Y422685D03*
D100*
X141480Y525218D03*
D56*
X141480Y536018D03*
X141480Y548708D03*
X141480Y557348D03*
D394*
X141480Y563895D03*
D462*
X141480Y570173D03*
D394*
X141480Y576450D03*
D54*
X141480Y594068D03*
D464*
X141480Y611482D03*
D460*
X141480Y631867D03*
D465*
X141615Y422617D03*
D33*
X141615Y451305D03*
D100*
X141615Y525218D03*
D56*
X141615Y536018D03*
X141615Y548708D03*
X141615Y557348D03*
D394*
X141615Y563895D03*
D462*
X141615Y570173D03*
D394*
X141615Y576450D03*
D54*
X141615Y594068D03*
D464*
X141615Y611482D03*
D460*
X141615Y631867D03*
D466*
X141750Y422753D03*
D45*
X141750Y451440D03*
D100*
X141750Y525218D03*
D56*
X141750Y536018D03*
X141750Y548708D03*
X141750Y557348D03*
D394*
X141750Y563895D03*
D467*
X141750Y570240D03*
D394*
X141750Y576450D03*
D54*
X141750Y594068D03*
D468*
X141750Y611685D03*
D469*
X141750Y631935D03*
D470*
X141885Y422888D03*
D100*
X141885Y525218D03*
D56*
X141885Y536018D03*
X141885Y548708D03*
X141885Y557348D03*
D394*
X141885Y563895D03*
D471*
X141885Y570172D03*
D394*
X141885Y576450D03*
D54*
X141885Y594068D03*
D472*
X141885Y611753D03*
D469*
X141885Y631935D03*
D463*
X142020Y422821D03*
D33*
X142020Y451575D03*
D100*
X142020Y525218D03*
D56*
X142020Y536018D03*
X142020Y548708D03*
X142020Y557348D03*
D394*
X142020Y563895D03*
D471*
X142020Y570172D03*
D394*
X142020Y576450D03*
D54*
X142020Y594068D03*
D472*
X142020Y611753D03*
D91*
X142020Y632003D03*
D473*
X142155Y422820D03*
D45*
X142155Y451710D03*
D100*
X142155Y525218D03*
D56*
X142155Y536018D03*
X142155Y548708D03*
X142155Y557348D03*
D394*
X142155Y563895D03*
D471*
X142155Y570172D03*
D394*
X142155Y576450D03*
D54*
X142155Y594068D03*
D474*
X142155Y611752D03*
D91*
X142155Y632003D03*
D475*
X142290Y422955D03*
D100*
X142290Y525218D03*
D56*
X142290Y536018D03*
X142290Y548708D03*
X142290Y557348D03*
D394*
X142290Y563895D03*
D476*
X142290Y570240D03*
D394*
X142290Y576450D03*
D54*
X142290Y594068D03*
D477*
X142290Y611955D03*
D469*
X142290Y632070D03*
D478*
X142425Y422888D03*
D33*
X142425Y451845D03*
D100*
X142425Y525218D03*
D56*
X142425Y536018D03*
X142425Y548708D03*
X142425Y557348D03*
D394*
X142425Y563895D03*
D479*
X142425Y570173D03*
D394*
X142425Y576450D03*
D54*
X142425Y594068D03*
D472*
X142425Y612023D03*
D469*
X142425Y632070D03*
D475*
X142560Y422955D03*
D45*
X142560Y451980D03*
D100*
X142560Y525218D03*
D56*
X142560Y536018D03*
X142560Y548708D03*
X142560Y557348D03*
D394*
X142560Y563895D03*
D479*
X142560Y570173D03*
D394*
X142560Y576450D03*
D54*
X142560Y594068D03*
D480*
X142560Y612158D03*
D91*
X142560Y632138D03*
D481*
X142695Y423090D03*
D100*
X142695Y525218D03*
D56*
X142695Y536018D03*
X142695Y548708D03*
X142695Y557348D03*
D394*
X142695Y563895D03*
D479*
X142695Y570173D03*
D394*
X142695Y576450D03*
D54*
X142695Y594068D03*
D482*
X142695Y612225D03*
D88*
X142695Y632205D03*
D483*
X142830Y423023D03*
D13*
X142830Y452115D03*
D100*
X142830Y525218D03*
D56*
X142830Y536018D03*
X142830Y548708D03*
X142830Y557348D03*
D394*
X142830Y563895D03*
D484*
X142830Y570240D03*
D394*
X142830Y576450D03*
D54*
X142830Y594068D03*
D482*
X142830Y612225D03*
D88*
X142830Y632205D03*
D481*
X142965Y423090D03*
D33*
X142965Y452250D03*
D100*
X142965Y525218D03*
D56*
X142965Y536018D03*
X142965Y548708D03*
X142965Y557348D03*
D394*
X142965Y563895D03*
D155*
X142965Y570173D03*
D394*
X142965Y576450D03*
D54*
X142965Y594068D03*
D485*
X142965Y612360D03*
D486*
X142965Y632137D03*
D487*
X143100Y423225D03*
D100*
X143100Y525218D03*
D56*
X143100Y536018D03*
X143100Y548708D03*
X143100Y557348D03*
D394*
X143100Y563895D03*
D155*
X143100Y570173D03*
D394*
X143100Y576450D03*
D54*
X143100Y594068D03*
D56*
X143100Y612428D03*
D486*
X143100Y632137D03*
D488*
X143235Y423157D03*
D45*
X143235Y452385D03*
D100*
X143235Y525218D03*
D56*
X143235Y536018D03*
X143235Y548708D03*
X143235Y557348D03*
D394*
X143235Y563895D03*
D155*
X143235Y570173D03*
D394*
X143235Y576450D03*
D54*
X143235Y594068D03*
D489*
X143235Y612631D03*
D486*
X143235Y632272D03*
D487*
X143370Y423225D03*
D33*
X143370Y452520D03*
D100*
X143370Y525218D03*
D56*
X143370Y536018D03*
X143370Y548708D03*
X143370Y557348D03*
D394*
X143370Y563895D03*
D86*
X143370Y570240D03*
D394*
X143370Y576450D03*
D54*
X143370Y594068D03*
D56*
X143370Y612698D03*
D486*
X143370Y632272D03*
D490*
X143505Y423360D03*
D100*
X143505Y525218D03*
D56*
X143505Y536018D03*
X143505Y548708D03*
X143505Y557348D03*
D394*
X143505Y563895D03*
D100*
X143505Y570173D03*
D394*
X143505Y576450D03*
D54*
X143505Y594068D03*
D56*
X143505Y612698D03*
D486*
X143505Y632272D03*
D491*
X143640Y423292D03*
D45*
X143640Y452655D03*
D100*
X143640Y525218D03*
D56*
X143640Y536018D03*
X143640Y548708D03*
X143640Y557348D03*
D394*
X143640Y563895D03*
D100*
X143640Y570173D03*
D394*
X143640Y576450D03*
D54*
X143640Y594068D03*
D68*
X143640Y612765D03*
D492*
X143640Y632407D03*
D490*
X143775Y423360D03*
D100*
X143775Y525218D03*
D56*
X143775Y536018D03*
X143775Y548708D03*
X143775Y557348D03*
D394*
X143775Y563895D03*
D100*
X143775Y570173D03*
D394*
X143775Y576450D03*
D54*
X143775Y594068D03*
D61*
X143775Y612900D03*
D492*
X143775Y632407D03*
D490*
X143910Y423360D03*
D33*
X143910Y452790D03*
D100*
X143910Y525218D03*
D56*
X143910Y536018D03*
X143910Y548708D03*
X143910Y557348D03*
D394*
X143910Y563895D03*
D489*
X143910Y570241D03*
D394*
X143910Y576450D03*
D54*
X143910Y594068D03*
D61*
X143910Y612900D03*
D493*
X143910Y632475D03*
D494*
X144045Y423427D03*
D45*
X144045Y452925D03*
D100*
X144045Y525218D03*
D56*
X144045Y536018D03*
X144045Y548708D03*
X144045Y557348D03*
D394*
X144045Y563895D03*
D495*
X144045Y570173D03*
D394*
X144045Y576450D03*
D54*
X144045Y594068D03*
D496*
X144045Y612967D03*
D493*
X144045Y632475D03*
D497*
X144180Y423562D03*
D100*
X144180Y525218D03*
D56*
X144180Y536018D03*
X144180Y548708D03*
X144180Y557348D03*
D394*
X144180Y563895D03*
D495*
X144180Y570173D03*
D394*
X144180Y576450D03*
D54*
X144180Y594068D03*
D484*
X144180Y613170D03*
D498*
X144180Y632543D03*
D497*
X144315Y423428D03*
D13*
X144315Y453060D03*
D100*
X144315Y525218D03*
D56*
X144315Y536018D03*
X144315Y548708D03*
X144315Y557348D03*
D394*
X144315Y563895D03*
D495*
X144315Y570173D03*
D394*
X144315Y576450D03*
D54*
X144315Y594068D03*
D484*
X144315Y613305D03*
D498*
X144315Y632543D03*
D499*
X144450Y423563D03*
D100*
X144450Y525218D03*
D56*
X144450Y536018D03*
D59*
X144450Y553028D03*
D394*
X144450Y563895D03*
D482*
X144450Y570240D03*
D394*
X144450Y576450D03*
D54*
X144450Y594068D03*
D479*
X144450Y613373D03*
D498*
X144450Y632543D03*
D500*
X144585Y423495D03*
D33*
X144585Y453195D03*
D100*
X144585Y525218D03*
D56*
X144585Y536018D03*
D59*
X144585Y553028D03*
D394*
X144585Y563895D03*
D480*
X144585Y570173D03*
D394*
X144585Y576450D03*
D54*
X144585Y594068D03*
D501*
X144585Y613507D03*
D83*
X144585Y632610D03*
D499*
X144720Y423563D03*
D45*
X144720Y453330D03*
D100*
X144720Y525218D03*
D56*
X144720Y536018D03*
D59*
X144720Y553028D03*
D394*
X144720Y563895D03*
D480*
X144720Y570173D03*
D394*
X144720Y576450D03*
D54*
X144720Y594068D03*
D501*
X144720Y613507D03*
D83*
X144720Y632610D03*
D502*
X144855Y423698D03*
D100*
X144855Y525218D03*
D56*
X144855Y536018D03*
D59*
X144855Y553028D03*
D394*
X144855Y563895D03*
D480*
X144855Y570173D03*
D394*
X144855Y576450D03*
D54*
X144855Y594068D03*
D471*
X144855Y613642D03*
D83*
X144855Y632610D03*
D503*
X144990Y423631D03*
D33*
X144990Y453465D03*
D100*
X144990Y525218D03*
D56*
X144990Y536018D03*
D59*
X144990Y553028D03*
D394*
X144990Y563895D03*
D504*
X144990Y570240D03*
D394*
X144990Y576450D03*
D54*
X144990Y594068D03*
D467*
X144990Y613846D03*
D505*
X144990Y632677D03*
D49*
X145125Y401761D03*
D506*
X145125Y431596D03*
D100*
X145125Y525218D03*
D56*
X145125Y536018D03*
D59*
X145125Y553028D03*
D394*
X145125Y563895D03*
D507*
X145125Y570173D03*
D394*
X145125Y576450D03*
D54*
X145125Y594068D03*
D471*
X145125Y614048D03*
D508*
X145125Y632745D03*
D49*
X145260Y401761D03*
D509*
X145260Y431528D03*
D45*
X145260Y453600D03*
D100*
X145260Y525218D03*
D56*
X145260Y536018D03*
D59*
X145260Y553028D03*
D394*
X145260Y563895D03*
D507*
X145260Y570173D03*
D394*
X145260Y576450D03*
D54*
X145260Y594068D03*
D467*
X145260Y614116D03*
D508*
X145260Y632745D03*
D510*
X145395Y401625D03*
D258*
X145395Y431527D03*
D100*
X145395Y525218D03*
D56*
X145395Y536018D03*
D59*
X145395Y553028D03*
D394*
X145395Y563895D03*
D507*
X145395Y570173D03*
D394*
X145395Y576450D03*
D54*
X145395Y594068D03*
D459*
X145395Y614250D03*
D508*
X145395Y632745D03*
D511*
X145530Y423698D03*
D13*
X145530Y453735D03*
D100*
X145530Y525218D03*
D56*
X145530Y536018D03*
D59*
X145530Y553028D03*
D394*
X145530Y563895D03*
D15*
X145530Y570240D03*
D394*
X145530Y576450D03*
D54*
X145530Y594068D03*
D512*
X145530Y614317D03*
D80*
X145530Y632880D03*
D513*
X145665Y401558D03*
D514*
X145665Y431595D03*
D100*
X145665Y525218D03*
D56*
X145665Y536018D03*
D59*
X145665Y553028D03*
D394*
X145665Y563895D03*
D464*
X145665Y570172D03*
D394*
X145665Y576450D03*
D54*
X145665Y594068D03*
D515*
X145665Y614588D03*
D80*
X145665Y632880D03*
D513*
X145800Y401558D03*
D13*
X145800Y409320D03*
D516*
X145800Y431595D03*
D33*
X145800Y453870D03*
D100*
X145800Y525218D03*
D56*
X145800Y536018D03*
D59*
X145800Y553028D03*
D394*
X145800Y563895D03*
D464*
X145800Y570172D03*
D394*
X145800Y576450D03*
D54*
X145800Y594068D03*
D517*
X145800Y614655D03*
D518*
X145800Y633015D03*
D44*
X145935Y401491D03*
D13*
X145935Y409320D03*
D514*
X145935Y431731D03*
D100*
X145935Y525218D03*
D56*
X145935Y536018D03*
D59*
X145935Y553028D03*
D394*
X145935Y563895D03*
D464*
X145935Y570172D03*
D394*
X145935Y576450D03*
D54*
X145935Y594068D03*
D519*
X145935Y614857D03*
D518*
X145935Y633015D03*
D520*
X146070Y401355D03*
D13*
X146070Y409320D03*
D521*
X146070Y431663D03*
D45*
X146070Y454005D03*
D100*
X146070Y525218D03*
D56*
X146070Y536018D03*
D59*
X146070Y553028D03*
D394*
X146070Y563895D03*
D522*
X146070Y570240D03*
D394*
X146070Y576450D03*
D54*
X146070Y594068D03*
D523*
X146070Y614925D03*
D23*
X146070Y633083D03*
D520*
X146205Y401355D03*
D524*
X146205Y431662D03*
D100*
X146205Y525218D03*
D56*
X146205Y536018D03*
D59*
X146205Y553028D03*
D394*
X146205Y563895D03*
D525*
X146205Y570173D03*
D394*
X146205Y576450D03*
D54*
X146205Y594068D03*
D519*
X146205Y614992D03*
D526*
X146205Y633083D03*
D527*
X146340Y401288D03*
D262*
X146340Y431595D03*
D33*
X146340Y454140D03*
D100*
X146340Y525218D03*
D56*
X146340Y536018D03*
D59*
X146340Y553028D03*
D394*
X146340Y563895D03*
D525*
X146340Y570173D03*
D394*
X146340Y576450D03*
D54*
X146340Y594068D03*
D79*
X146340Y613778D03*
D429*
X146340Y615263D03*
D528*
X146340Y633151D03*
D529*
X146475Y401220D03*
D530*
X146475Y431663D03*
D100*
X146475Y525218D03*
D56*
X146475Y536018D03*
D59*
X146475Y553028D03*
D394*
X146475Y563895D03*
D525*
X146475Y570173D03*
D394*
X146475Y576450D03*
D54*
X146475Y594068D03*
D531*
X146475Y615330D03*
D528*
X146475Y633151D03*
D529*
X146610Y401220D03*
D13*
X146610Y409185D03*
D532*
X146610Y431730D03*
D45*
X146610Y454275D03*
D100*
X146610Y525218D03*
D56*
X146610Y536018D03*
D59*
X146610Y553028D03*
D394*
X146610Y563895D03*
D533*
X146610Y570240D03*
D394*
X146610Y576450D03*
D54*
X146610Y594068D03*
D534*
X146610Y615465D03*
D528*
X146610Y633151D03*
D535*
X146745Y401152D03*
D13*
X146745Y409185D03*
D536*
X146745Y431865D03*
D100*
X146745Y525218D03*
D187*
X146745Y538921D03*
D59*
X146745Y553028D03*
D394*
X146745Y563895D03*
D537*
X146745Y570173D03*
D394*
X146745Y576450D03*
D54*
X146745Y594068D03*
D534*
X146745Y615465D03*
D76*
X146745Y633218D03*
D529*
X146880Y401085D03*
D530*
X146880Y431663D03*
D33*
X146880Y454410D03*
D100*
X146880Y525218D03*
D187*
X146880Y538921D03*
D59*
X146880Y553028D03*
D394*
X146880Y563895D03*
D537*
X146880Y570173D03*
D394*
X146880Y576450D03*
D54*
X146880Y594068D03*
D538*
X146880Y615600D03*
D539*
X146880Y633285D03*
D535*
X147015Y401017D03*
D530*
X147015Y431663D03*
D33*
X147015Y454410D03*
D100*
X147015Y525218D03*
D187*
X147015Y538921D03*
D59*
X147015Y553028D03*
D394*
X147015Y563895D03*
D540*
X147015Y570240D03*
D394*
X147015Y576450D03*
D54*
X147015Y594068D03*
D13*
X147015Y614520D03*
D420*
X147015Y615938D03*
D541*
X147015Y633353D03*
D542*
X147150Y400950D03*
D543*
X147150Y431798D03*
D100*
X147150Y525218D03*
D187*
X147150Y538921D03*
D59*
X147150Y553028D03*
D394*
X147150Y563895D03*
D540*
X147150Y570240D03*
D394*
X147150Y576450D03*
D54*
X147150Y594068D03*
D414*
X147150Y616140D03*
D541*
X147150Y633353D03*
D544*
X147285Y400883D03*
D545*
X147285Y431663D03*
D45*
X147285Y454545D03*
D100*
X147285Y525218D03*
D187*
X147285Y538921D03*
D59*
X147285Y553028D03*
D394*
X147285Y563895D03*
D34*
X147285Y570173D03*
D394*
X147285Y576450D03*
D54*
X147285Y594068D03*
D414*
X147285Y616140D03*
D546*
X147285Y633488D03*
D542*
X147420Y400950D03*
D45*
X147420Y409050D03*
D266*
X147420Y431932D03*
D100*
X147420Y525218D03*
D187*
X147420Y538921D03*
D59*
X147420Y553028D03*
D394*
X147420Y563895D03*
D34*
X147420Y570173D03*
D394*
X147420Y576450D03*
D54*
X147420Y594068D03*
D547*
X147420Y616342D03*
D546*
X147420Y633488D03*
D548*
X147555Y400815D03*
D45*
X147555Y409050D03*
D549*
X147555Y431865D03*
D13*
X147555Y454680D03*
D100*
X147555Y525218D03*
D187*
X147555Y538921D03*
D59*
X147555Y553028D03*
D394*
X147555Y563895D03*
D437*
X147555Y570241D03*
D394*
X147555Y576450D03*
D54*
X147555Y594068D03*
D405*
X147555Y616410D03*
D550*
X147555Y633555D03*
D42*
X147690Y400748D03*
D45*
X147690Y409050D03*
D549*
X147690Y431865D03*
D13*
X147690Y454680D03*
D100*
X147690Y525218D03*
D187*
X147690Y538921D03*
D59*
X147690Y553028D03*
D394*
X147690Y563895D03*
D437*
X147690Y570241D03*
D394*
X147690Y576450D03*
D54*
X147690Y594068D03*
D551*
X147690Y616478D03*
D550*
X147690Y633555D03*
D42*
X147825Y400748D03*
D552*
X147825Y431798D03*
D100*
X147825Y525218D03*
D187*
X147825Y538921D03*
D59*
X147825Y553028D03*
D394*
X147825Y563895D03*
D430*
X147825Y570173D03*
D394*
X147825Y576450D03*
D54*
X147825Y594068D03*
D21*
X147825Y615803D03*
D398*
X147825Y616815D03*
D550*
X147825Y633555D03*
D553*
X147960Y400613D03*
D552*
X147960Y431798D03*
D33*
X147960Y454815D03*
D100*
X147960Y525218D03*
D187*
X147960Y538921D03*
D59*
X147960Y553028D03*
D394*
X147960Y563895D03*
D430*
X147960Y570173D03*
D394*
X147960Y576450D03*
D54*
X147960Y594068D03*
D395*
X147960Y617018D03*
D554*
X147960Y633691D03*
D553*
X148095Y400613D03*
D555*
X148095Y431933D03*
D100*
X148095Y525218D03*
D187*
X148095Y538921D03*
D59*
X148095Y553028D03*
D394*
X148095Y563895D03*
D427*
X148095Y570240D03*
D394*
X148095Y576450D03*
D54*
X148095Y594068D03*
D395*
X148095Y617018D03*
D554*
X148095Y633691D03*
D556*
X148230Y400478D03*
D557*
X148230Y431865D03*
D45*
X148230Y454950D03*
D100*
X148230Y525218D03*
D187*
X148230Y538921D03*
D59*
X148230Y553028D03*
D394*
X148230Y563895D03*
D427*
X148230Y570240D03*
D394*
X148230Y576450D03*
D54*
X148230Y594068D03*
D547*
X148230Y617152D03*
D558*
X148230Y633826D03*
D559*
X148365Y400343D03*
D13*
X148365Y408916D03*
D560*
X148365Y431932D03*
D45*
X148365Y454950D03*
D100*
X148365Y525218D03*
D187*
X148365Y538921D03*
D59*
X148365Y553028D03*
D394*
X148365Y563895D03*
D512*
X148365Y568417D03*
D459*
X148365Y571995D03*
D394*
X148365Y576450D03*
D54*
X148365Y594068D03*
D561*
X148365Y617355D03*
D558*
X148365Y633826D03*
D562*
X148500Y400410D03*
D13*
X148500Y408916D03*
D555*
X148500Y432067D03*
D100*
X148500Y525218D03*
D187*
X148500Y538921D03*
D59*
X148500Y553028D03*
D394*
X148500Y563895D03*
D512*
X148500Y568417D03*
D459*
X148500Y571995D03*
D394*
X148500Y576450D03*
D54*
X148500Y594068D03*
D14*
X148500Y617557D03*
D563*
X148500Y633893D03*
D564*
X148635Y400208D03*
D13*
X148635Y408916D03*
D565*
X148635Y432000D03*
D33*
X148635Y455085D03*
D100*
X148635Y525218D03*
D187*
X148635Y538921D03*
D56*
X148635Y548708D03*
X148635Y557348D03*
D394*
X148635Y563895D03*
D459*
X148635Y568350D03*
D462*
X148635Y572063D03*
D394*
X148635Y576450D03*
D54*
X148635Y594068D03*
D14*
X148635Y617692D03*
D563*
X148635Y633893D03*
D566*
X148770Y400141D03*
D13*
X148770Y408916D03*
D565*
X148770Y432000D03*
D33*
X148770Y455085D03*
D100*
X148770Y525218D03*
D187*
X148770Y538921D03*
D56*
X148770Y548708D03*
X148770Y557348D03*
D394*
X148770Y563895D03*
D459*
X148770Y568350D03*
D462*
X148770Y572063D03*
D394*
X148770Y576450D03*
D54*
X148770Y594068D03*
D74*
X148770Y617963D03*
D567*
X148770Y633960D03*
D568*
X148905Y400073D03*
D569*
X148905Y432001D03*
D100*
X148905Y525218D03*
D187*
X148905Y538921D03*
D56*
X148905Y548708D03*
X148905Y557348D03*
D394*
X148905Y563895D03*
D462*
X148905Y568283D03*
D459*
X148905Y572130D03*
D394*
X148905Y576450D03*
D54*
X148905Y594068D03*
D74*
X148905Y617963D03*
D570*
X148905Y634027D03*
D566*
X149040Y400141D03*
D272*
X149040Y431933D03*
D45*
X149040Y455220D03*
D100*
X149040Y525218D03*
D187*
X149040Y538921D03*
D56*
X149040Y548708D03*
X149040Y557348D03*
D394*
X149040Y563895D03*
D459*
X149040Y568215D03*
X149040Y572130D03*
D394*
X149040Y576450D03*
D54*
X149040Y594068D03*
D53*
X149040Y618166D03*
D66*
X149040Y634095D03*
D568*
X149175Y400073D03*
D272*
X149175Y431933D03*
D45*
X149175Y455220D03*
D100*
X149175Y525218D03*
D187*
X149175Y538921D03*
D56*
X149175Y548708D03*
X149175Y557348D03*
D394*
X149175Y563895D03*
D459*
X149175Y568215D03*
D512*
X149175Y572197D03*
D394*
X149175Y576450D03*
D54*
X149175Y594068D03*
D571*
X149175Y618300D03*
D572*
X149175Y634162D03*
D573*
X149310Y399870D03*
D574*
X149310Y432068D03*
D100*
X149310Y525218D03*
D187*
X149310Y538921D03*
D56*
X149310Y548708D03*
X149310Y557348D03*
D394*
X149310Y563895D03*
D459*
X149310Y568215D03*
D575*
X149310Y572265D03*
D394*
X149310Y576450D03*
D54*
X149310Y594068D03*
D79*
X149310Y618503D03*
D576*
X149310Y634230D03*
D577*
X149445Y399735D03*
D569*
X149445Y432001D03*
D33*
X149445Y455355D03*
D100*
X149445Y525218D03*
D187*
X149445Y538921D03*
D56*
X149445Y548708D03*
X149445Y557348D03*
D394*
X149445Y563895D03*
D462*
X149445Y568148D03*
D575*
X149445Y572265D03*
D394*
X149445Y576450D03*
D54*
X149445Y594068D03*
D578*
X149445Y618637D03*
D579*
X149445Y634298D03*
D580*
X149580Y399668D03*
D13*
X149580Y408781D03*
D581*
X149580Y432068D03*
D33*
X149580Y455355D03*
D100*
X149580Y525218D03*
D187*
X149580Y538921D03*
D56*
X149580Y548708D03*
X149580Y557348D03*
D394*
X149580Y563895D03*
D459*
X149580Y568080D03*
D575*
X149580Y572265D03*
D394*
X149580Y576450D03*
D54*
X149580Y594068D03*
D53*
X149580Y618705D03*
D579*
X149580Y634298D03*
D580*
X149715Y399533D03*
D13*
X149715Y408781D03*
D279*
X149715Y432203D03*
D100*
X149715Y525218D03*
D187*
X149715Y538921D03*
D56*
X149715Y548708D03*
X149715Y557348D03*
D394*
X149715Y563895D03*
D459*
X149715Y568080D03*
D512*
X149715Y572332D03*
D394*
X149715Y576450D03*
D54*
X149715Y594068D03*
D13*
X149715Y619110D03*
D576*
X149715Y634365D03*
D580*
X149850Y399533D03*
D13*
X149850Y408781D03*
D277*
X149850Y432135D03*
D45*
X149850Y455490D03*
D100*
X149850Y525218D03*
D187*
X149850Y538921D03*
D56*
X149850Y548708D03*
X149850Y557348D03*
D394*
X149850Y563895D03*
D512*
X149850Y568013D03*
D582*
X149850Y572400D03*
D394*
X149850Y576450D03*
D54*
X149850Y594068D03*
D576*
X149850Y634500D03*
D580*
X149985Y399533D03*
D13*
X149985Y408781D03*
D277*
X149985Y432135D03*
D45*
X149985Y455490D03*
D100*
X149985Y525218D03*
D187*
X149985Y538921D03*
D56*
X149985Y548708D03*
X149985Y557348D03*
D394*
X149985Y563895D03*
D582*
X149985Y567945D03*
X149985Y572400D03*
D394*
X149985Y576450D03*
D54*
X149985Y594068D03*
D13*
X149985Y619516D03*
D576*
X149985Y634500D03*
D583*
X150120Y399465D03*
D13*
X150120Y408781D03*
D280*
X150120Y432270D03*
D100*
X150120Y525218D03*
D187*
X150120Y538921D03*
D56*
X150120Y548708D03*
X150120Y557348D03*
D394*
X150120Y563895D03*
D582*
X150120Y567945D03*
X150120Y572400D03*
D394*
X150120Y576450D03*
D54*
X150120Y594068D03*
D13*
X150120Y619516D03*
X150120Y626535D03*
D584*
X150120Y634702D03*
D167*
X150255Y399330D03*
D585*
X150255Y432068D03*
D100*
X150255Y525218D03*
D187*
X150255Y538921D03*
D56*
X150255Y548708D03*
X150255Y557348D03*
D394*
X150255Y563895D03*
D582*
X150255Y567945D03*
X150255Y572535D03*
D394*
X150255Y576450D03*
D54*
X150255Y594068D03*
D584*
X150255Y634702D03*
D586*
X150390Y399195D03*
D585*
X150390Y432068D03*
D13*
X150390Y455625D03*
D100*
X150390Y525218D03*
D187*
X150390Y538921D03*
D56*
X150390Y548708D03*
X150390Y557348D03*
D394*
X150390Y563895D03*
D587*
X150390Y567878D03*
D582*
X150390Y572535D03*
D394*
X150390Y576450D03*
D54*
X150390Y594068D03*
D588*
X150390Y634770D03*
D285*
X150525Y399127D03*
D585*
X150525Y432068D03*
D13*
X150525Y455625D03*
D100*
X150525Y525218D03*
D187*
X150525Y538921D03*
D56*
X150525Y548708D03*
X150525Y557348D03*
D394*
X150525Y563895D03*
D582*
X150525Y567810D03*
X150525Y572535D03*
D394*
X150525Y576450D03*
D54*
X150525Y594068D03*
D589*
X150525Y634838D03*
D288*
X150660Y399060D03*
D590*
X150660Y432203D03*
D100*
X150660Y525218D03*
D187*
X150660Y538921D03*
D56*
X150660Y548708D03*
X150660Y557348D03*
D394*
X150660Y563895D03*
D582*
X150660Y567810D03*
X150660Y572535D03*
D394*
X150660Y576450D03*
D54*
X150660Y594068D03*
D591*
X150660Y634905D03*
D297*
X150795Y398857D03*
D592*
X150795Y432135D03*
D100*
X150795Y525218D03*
D56*
X150795Y536018D03*
X150795Y548708D03*
X150795Y557348D03*
D394*
X150795Y563895D03*
D582*
X150795Y567810D03*
D58*
X150795Y574763D03*
D54*
X150795Y594068D03*
D591*
X150795Y634905D03*
D593*
X150930Y398723D03*
D592*
X150930Y432135D03*
D33*
X150930Y455760D03*
D100*
X150930Y525218D03*
D56*
X150930Y536018D03*
X150930Y548708D03*
X150930Y557348D03*
D58*
X150930Y565582D03*
X150930Y574763D03*
D54*
X150930Y594068D03*
D589*
X150930Y634973D03*
D305*
X151065Y398588D03*
D594*
X151065Y432203D03*
D100*
X151065Y525218D03*
D56*
X151065Y536018D03*
X151065Y548708D03*
X151065Y557348D03*
D58*
X151065Y565582D03*
X151065Y574763D03*
D54*
X151065Y594068D03*
D595*
X151065Y635175D03*
D320*
X151200Y398520D03*
D33*
X151200Y408645D03*
D282*
X151200Y432338D03*
D100*
X151200Y525218D03*
D56*
X151200Y536018D03*
X151200Y548708D03*
X151200Y557348D03*
D58*
X151200Y565582D03*
X151200Y574763D03*
D54*
X151200Y594068D03*
D596*
X151200Y635243D03*
D320*
X151335Y398385D03*
D33*
X151335Y408645D03*
D592*
X151335Y432270D03*
D45*
X151335Y455895D03*
D100*
X151335Y525218D03*
D56*
X151335Y536018D03*
X151335Y548708D03*
X151335Y557348D03*
D58*
X151335Y565582D03*
D597*
X151335Y574830D03*
D54*
X151335Y594068D03*
D596*
X151335Y635243D03*
D306*
X151470Y398318D03*
D33*
X151470Y408645D03*
D592*
X151470Y432270D03*
D45*
X151470Y455895D03*
D100*
X151470Y525218D03*
D56*
X151470Y536018D03*
X151470Y548708D03*
X151470Y557348D03*
D407*
X151470Y565515D03*
D597*
X151470Y574830D03*
D54*
X151470Y594068D03*
D598*
X151470Y635310D03*
D599*
X151605Y398115D03*
D33*
X151605Y408645D03*
D600*
X151605Y432405D03*
D100*
X151605Y525218D03*
D56*
X151605Y536018D03*
X151605Y548708D03*
X151605Y557348D03*
D407*
X151605Y565515D03*
D597*
X151605Y574830D03*
D54*
X151605Y594068D03*
D596*
X151605Y635378D03*
D316*
X151740Y397980D03*
D33*
X151740Y408645D03*
D600*
X151740Y432405D03*
D100*
X151740Y525218D03*
D56*
X151740Y536018D03*
X151740Y548708D03*
X151740Y557348D03*
D407*
X151740Y565515D03*
D415*
X151740Y574898D03*
D54*
X151740Y594068D03*
D601*
X151740Y635581D03*
D319*
X151875Y397846D03*
D13*
X151875Y403650D03*
D33*
X151875Y408645D03*
D600*
X151875Y432405D03*
D100*
X151875Y525218D03*
D56*
X151875Y536018D03*
X151875Y548708D03*
X151875Y557348D03*
D407*
X151875Y565515D03*
D415*
X151875Y574898D03*
D54*
X151875Y594068D03*
D44*
X151875Y635716D03*
D602*
X152010Y397710D03*
D33*
X152010Y408645D03*
D282*
X152010Y432338D03*
D33*
X152010Y456030D03*
D100*
X152010Y525218D03*
D56*
X152010Y536018D03*
X152010Y548708D03*
X152010Y557348D03*
D415*
X152010Y565448D03*
X152010Y574898D03*
D54*
X152010Y594068D03*
D527*
X152010Y635783D03*
D603*
X152145Y397575D03*
D594*
X152145Y432203D03*
D33*
X152145Y456030D03*
D100*
X152145Y525218D03*
D56*
X152145Y536018D03*
X152145Y548708D03*
X152145Y557348D03*
D415*
X152145Y565448D03*
X152145Y574898D03*
D54*
X152145Y594068D03*
D604*
X152145Y635850D03*
D605*
X152280Y397441D03*
D13*
X152280Y403110D03*
D290*
X152280Y432338D03*
D100*
X152280Y525218D03*
D56*
X152280Y536018D03*
X152280Y548708D03*
X152280Y557348D03*
D415*
X152280Y565448D03*
D417*
X152280Y574965D03*
D54*
X152280Y594068D03*
D606*
X152280Y635918D03*
D60*
X152415Y397373D03*
D290*
X152415Y432338D03*
D100*
X152415Y525218D03*
D56*
X152415Y536018D03*
X152415Y548708D03*
X152415Y557348D03*
D417*
X152415Y565380D03*
X152415Y574965D03*
D54*
X152415Y594068D03*
D606*
X152415Y635918D03*
D274*
X152550Y397170D03*
D290*
X152550Y432338D03*
D100*
X152550Y525218D03*
D56*
X152550Y536018D03*
X152550Y548708D03*
X152550Y557348D03*
D417*
X152550Y565380D03*
X152550Y574965D03*
D54*
X152550Y594068D03*
D19*
X152550Y636052D03*
D273*
X152685Y397102D03*
D286*
X152685Y432270D03*
D45*
X152685Y456165D03*
D100*
X152685Y525218D03*
D56*
X152685Y536018D03*
X152685Y548708D03*
X152685Y557348D03*
D417*
X152685Y565380D03*
D424*
X152685Y575033D03*
D54*
X152685Y594068D03*
D607*
X152685Y636188D03*
D608*
X152820Y396900D03*
D13*
X152820Y402300D03*
D286*
X152820Y432270D03*
D45*
X152820Y456165D03*
D100*
X152820Y525218D03*
D56*
X152820Y536018D03*
X152820Y548708D03*
X152820Y557348D03*
D417*
X152820Y565380D03*
D424*
X152820Y575033D03*
D54*
X152820Y594068D03*
D609*
X152820Y636255D03*
D187*
X152955Y396766D03*
D286*
X152955Y432270D03*
D45*
X152955Y456165D03*
D100*
X152955Y525218D03*
D56*
X152955Y536018D03*
X152955Y548708D03*
X152955Y557348D03*
D424*
X152955Y565313D03*
X152955Y575033D03*
D54*
X152955Y594068D03*
D609*
X152955Y636390D03*
D186*
X153090Y396631D03*
D293*
X153090Y432405D03*
D100*
X153090Y525218D03*
D56*
X153090Y536018D03*
X153090Y548708D03*
X153090Y557348D03*
D424*
X153090Y565313D03*
X153090Y575033D03*
D54*
X153090Y594068D03*
D42*
X153090Y636457D03*
D349*
X153225Y396495D03*
D610*
X153225Y424373D03*
D611*
X153225Y441315D03*
D566*
X153225Y449415D03*
D100*
X153225Y525218D03*
D56*
X153225Y536018D03*
X153225Y548708D03*
X153225Y557348D03*
D424*
X153225Y565313D03*
D612*
X153225Y575101D03*
D54*
X153225Y594068D03*
D13*
X153225Y629505D03*
D562*
X153225Y636660D03*
D296*
X153360Y396293D03*
D613*
X153360Y424170D03*
D614*
X153360Y440235D03*
D615*
X153360Y442463D03*
D285*
X153360Y449753D03*
D100*
X153360Y525218D03*
D56*
X153360Y536018D03*
X153360Y548708D03*
X153360Y557348D03*
D612*
X153360Y565245D03*
X153360Y575101D03*
D54*
X153360Y594068D03*
D556*
X153360Y636728D03*
D301*
X153495Y396090D03*
D613*
X153495Y424035D03*
D33*
X153495Y439830D03*
D616*
X153495Y443138D03*
D289*
X153495Y449820D03*
D33*
X153495Y456300D03*
D100*
X153495Y525218D03*
D56*
X153495Y536018D03*
X153495Y548708D03*
X153495Y557348D03*
D612*
X153495Y565245D03*
X153495Y575101D03*
D58*
X153495Y592583D03*
D556*
X153495Y636863D03*
D308*
X153630Y395956D03*
D157*
X153630Y423900D03*
D617*
X153630Y439628D03*
D21*
X153630Y443543D03*
D618*
X153630Y449955D03*
D33*
X153630Y456300D03*
D100*
X153630Y525218D03*
D56*
X153630Y536018D03*
X153630Y548708D03*
X153630Y557348D03*
D612*
X153630Y565245D03*
D431*
X153630Y575168D03*
D58*
X153630Y592583D03*
D619*
X153630Y637065D03*
D364*
X153765Y395752D03*
D620*
X153765Y423833D03*
D33*
X153765Y439425D03*
D21*
X153765Y443813D03*
D302*
X153765Y450090D03*
D33*
X153765Y456300D03*
D100*
X153765Y525218D03*
D56*
X153765Y536018D03*
X153765Y548708D03*
X153765Y557348D03*
D612*
X153765Y565245D03*
D431*
X153765Y575168D03*
D58*
X153765Y592583D03*
D559*
X153765Y637133D03*
D621*
X153900Y395618D03*
D622*
X153900Y423765D03*
D45*
X153900Y439290D03*
D617*
X153900Y444083D03*
D320*
X153900Y450361D03*
D100*
X153900Y525218D03*
D56*
X153900Y536018D03*
X153900Y548708D03*
X153900Y557348D03*
D431*
X153900Y565177D03*
X153900Y575168D03*
D58*
X153900Y592583D03*
D619*
X153900Y637200D03*
D623*
X154035Y395348D03*
D13*
X154035Y408510D03*
D156*
X154035Y423833D03*
D33*
X154035Y439155D03*
X154035Y444285D03*
D309*
X154035Y450496D03*
D100*
X154035Y525218D03*
D56*
X154035Y536018D03*
X154035Y548708D03*
X154035Y557348D03*
D431*
X154035Y565177D03*
X154035Y575168D03*
D58*
X154035Y592583D03*
D624*
X154035Y637268D03*
D331*
X154170Y395280D03*
D13*
X154170Y408510D03*
D625*
X154170Y423900D03*
D33*
X154170Y444555D03*
D314*
X154170Y450563D03*
D100*
X154170Y525218D03*
D56*
X154170Y536018D03*
X154170Y548708D03*
X154170Y557348D03*
D431*
X154170Y565177D03*
D437*
X154170Y575236D03*
D55*
X154170Y592516D03*
D33*
X154170Y630585D03*
D59*
X154170Y637538D03*
D626*
X154305Y395010D03*
D13*
X154305Y408510D03*
D627*
X154305Y423765D03*
D45*
X154305Y439020D03*
D21*
X154305Y444758D03*
D317*
X154305Y450698D03*
D100*
X154305Y525218D03*
D56*
X154305Y536018D03*
X154305Y548708D03*
X154305Y557348D03*
D437*
X154305Y565110D03*
X154305Y575236D03*
D55*
X154305Y592516D03*
D577*
X154305Y637605D03*
D628*
X154440Y394740D03*
D13*
X154440Y408510D03*
D629*
X154440Y423698D03*
D33*
X154440Y438885D03*
D617*
X154440Y445028D03*
D327*
X154440Y450765D03*
D45*
X154440Y456435D03*
D100*
X154440Y525218D03*
D56*
X154440Y536018D03*
X154440Y548708D03*
X154440Y557348D03*
D437*
X154440Y565110D03*
X154440Y575236D03*
D55*
X154440Y592516D03*
D59*
X154440Y637807D03*
D344*
X154575Y394605D03*
D13*
X154575Y408510D03*
D629*
X154575Y423698D03*
D21*
X154575Y445297D03*
D276*
X154575Y450900D03*
D45*
X154575Y456435D03*
D100*
X154575Y525218D03*
D56*
X154575Y536018D03*
X154575Y548708D03*
X154575Y557348D03*
D437*
X154575Y565110D03*
X154575Y575236D03*
D55*
X154575Y592516D03*
D167*
X154575Y638010D03*
D347*
X154710Y394268D03*
D13*
X154710Y408510D03*
D630*
X154710Y423631D03*
D13*
X154710Y438750D03*
D33*
X154710Y445500D03*
D273*
X154710Y450967D03*
D45*
X154710Y456435D03*
D100*
X154710Y525218D03*
D56*
X154710Y536018D03*
X154710Y548708D03*
X154710Y557348D03*
D437*
X154710Y565110D03*
D631*
X154710Y575303D03*
D355*
X154710Y592448D03*
D632*
X154710Y638078D03*
D355*
X154845Y394133D03*
D13*
X154845Y408510D03*
D630*
X154845Y423631D03*
D13*
X154845Y438750D03*
D617*
X154845Y445703D03*
D633*
X154845Y451103D03*
D45*
X154845Y456435D03*
D100*
X154845Y525218D03*
D56*
X154845Y536018D03*
X154845Y548708D03*
X154845Y557348D03*
D162*
X154845Y565042D03*
D631*
X154845Y575303D03*
D355*
X154845Y592448D03*
D632*
X154845Y638078D03*
D407*
X154980Y393931D03*
D13*
X154980Y408510D03*
D629*
X154980Y423698D03*
D33*
X154980Y445905D03*
D187*
X154980Y451305D03*
D100*
X154980Y525218D03*
D56*
X154980Y536018D03*
X154980Y548708D03*
X154980Y557348D03*
D162*
X154980Y565042D03*
D631*
X154980Y575303D03*
D355*
X154980Y592448D03*
D632*
X154980Y638213D03*
D407*
X155115Y393660D03*
D13*
X155115Y408510D03*
D634*
X155115Y423563D03*
D45*
X155115Y438615D03*
D21*
X155115Y446108D03*
D186*
X155115Y451440D03*
D100*
X155115Y525218D03*
D56*
X155115Y536018D03*
X155115Y548708D03*
X155115Y557348D03*
D162*
X155115Y565042D03*
D447*
X155115Y575370D03*
D355*
X155115Y592448D03*
D294*
X155115Y638415D03*
D635*
X155250Y393322D03*
D13*
X155250Y408510D03*
D634*
X155250Y423563D03*
D45*
X155250Y438615D03*
X155250Y446310D03*
D299*
X155250Y451575D03*
D40*
X155250Y525150D03*
D276*
X155250Y539055D03*
D59*
X155250Y553028D03*
D447*
X155250Y564975D03*
X155250Y575370D03*
D355*
X155250Y592448D03*
D593*
X155250Y638618D03*
D162*
X155385Y393187D03*
D13*
X155385Y408510D03*
D630*
X155385Y423631D03*
D45*
X155385Y446580D03*
D36*
X155385Y451642D03*
D40*
X155385Y525150D03*
D276*
X155385Y539055D03*
D59*
X155385Y553028D03*
D447*
X155385Y564975D03*
X155385Y575370D03*
D636*
X155385Y592380D03*
D13*
X155385Y632611D03*
D320*
X155385Y638821D03*
D449*
X155520Y392850D03*
D13*
X155520Y408510D03*
D630*
X155520Y423631D03*
D13*
X155520Y446715D03*
D363*
X155520Y451710D03*
D40*
X155520Y525150D03*
D276*
X155520Y539055D03*
D59*
X155520Y553028D03*
D447*
X155520Y564975D03*
X155520Y575370D03*
D636*
X155520Y592380D03*
D302*
X155520Y638955D03*
D533*
X155655Y392445D03*
D13*
X155655Y408510D03*
D630*
X155655Y423631D03*
D21*
X155655Y446917D03*
D637*
X155655Y451845D03*
D40*
X155655Y525150D03*
D276*
X155655Y539055D03*
D59*
X155655Y553028D03*
D447*
X155655Y564975D03*
D441*
X155655Y575438D03*
D636*
X155655Y592380D03*
D310*
X155655Y639090D03*
D15*
X155790Y392311D03*
D13*
X155790Y408510D03*
D630*
X155790Y423631D03*
D33*
X155790Y447120D03*
D638*
X155790Y451845D03*
D13*
X155790Y456570D03*
D40*
X155790Y525150D03*
D276*
X155790Y539055D03*
D59*
X155790Y553028D03*
D441*
X155790Y564908D03*
X155790Y575438D03*
D636*
X155790Y592380D03*
D310*
X155790Y639225D03*
D639*
X155925Y391906D03*
D33*
X155925Y394605D03*
D152*
X155925Y423495D03*
D21*
X155925Y447323D03*
D626*
X155925Y451980D03*
D13*
X155925Y456570D03*
D40*
X155925Y525150D03*
D276*
X155925Y539055D03*
D40*
X155925Y553096D03*
D441*
X155925Y564908D03*
X155925Y575438D03*
D636*
X155925Y592380D03*
D640*
X155925Y639361D03*
D56*
X156060Y391432D03*
D33*
X156060Y393930D03*
D641*
X156060Y423360D03*
D33*
X156060Y438480D03*
D21*
X156060Y447457D03*
D642*
X156060Y452048D03*
D13*
X156060Y456570D03*
D40*
X156060Y525150D03*
D276*
X156060Y539055D03*
D18*
X156060Y553163D03*
D441*
X156060Y564908D03*
D643*
X156060Y575505D03*
D644*
X156060Y592313D03*
D13*
X156060Y633691D03*
D317*
X156060Y639562D03*
D476*
X156195Y390961D03*
D641*
X156195Y423360D03*
D33*
X156195Y438480D03*
D13*
X156195Y447660D03*
D645*
X156195Y452116D03*
D13*
X156195Y456570D03*
D40*
X156195Y525150D03*
D276*
X156195Y539055D03*
D586*
X156195Y553230D03*
D441*
X156195Y564908D03*
D643*
X156195Y575505D03*
D644*
X156195Y592313D03*
D319*
X156195Y639765D03*
D646*
X156330Y390623D03*
D33*
X156330Y392580D03*
D152*
X156330Y423495D03*
D33*
X156330Y447795D03*
D647*
X156330Y452183D03*
D13*
X156330Y456570D03*
D40*
X156330Y525150D03*
D276*
X156330Y539055D03*
D168*
X156330Y553298D03*
D643*
X156330Y564840D03*
X156330Y575505D03*
D636*
X156330Y592380D03*
D13*
X156330Y634501D03*
D60*
X156330Y640103D03*
D84*
X156465Y389948D03*
D33*
X156465Y391095D03*
D152*
X156465Y423495D03*
D45*
X156465Y447930D03*
D344*
X156465Y452251D03*
D13*
X156465Y456570D03*
D40*
X156465Y525150D03*
D276*
X156465Y539055D03*
D289*
X156465Y553365D03*
D643*
X156465Y564840D03*
X156465Y575505D03*
D355*
X156465Y592448D03*
D327*
X156465Y640170D03*
D578*
X156600Y389138D03*
D21*
X156600Y389812D03*
D152*
X156600Y423495D03*
D335*
X156600Y452317D03*
D40*
X156600Y525150D03*
D276*
X156600Y539055D03*
D275*
X156600Y553433D03*
D643*
X156600Y564840D03*
D648*
X156600Y575573D03*
D55*
X156600Y592516D03*
D336*
X156600Y640305D03*
D152*
X156735Y423495D03*
D33*
X156735Y448335D03*
D649*
X156735Y452587D03*
D40*
X156735Y525150D03*
D276*
X156735Y539055D03*
D294*
X156735Y553501D03*
D648*
X156735Y564772D03*
X156735Y575573D03*
D58*
X156735Y592583D03*
D187*
X156735Y640440D03*
D152*
X156870Y423495D03*
D45*
X156870Y448470D03*
D351*
X156870Y452655D03*
D40*
X156870Y525150D03*
D276*
X156870Y539055D03*
D297*
X156870Y553568D03*
D648*
X156870Y564772D03*
X156870Y575573D03*
D597*
X156870Y592650D03*
D187*
X156870Y640576D03*
D13*
X157005Y408510D03*
D634*
X157005Y423563D03*
D45*
X157005Y438615D03*
D13*
X157005Y448605D03*
D354*
X157005Y452723D03*
D40*
X157005Y525150D03*
D276*
X157005Y539055D03*
D320*
X157005Y553636D03*
D648*
X157005Y564772D03*
D522*
X157005Y575641D03*
D417*
X157005Y592785D03*
D356*
X157005Y640845D03*
D13*
X157140Y408510D03*
D634*
X157140Y423563D03*
D45*
X157140Y438615D03*
D33*
X157140Y448740D03*
D55*
X157140Y452790D03*
D40*
X157140Y525150D03*
D276*
X157140Y539055D03*
D306*
X157140Y553703D03*
D648*
X157140Y564772D03*
D522*
X157140Y575641D03*
D424*
X157140Y592853D03*
D186*
X157140Y641250D03*
D13*
X157275Y408510D03*
D634*
X157275Y423563D03*
D45*
X157275Y438615D03*
X157275Y448875D03*
D362*
X157275Y452858D03*
D40*
X157275Y525150D03*
D276*
X157275Y539055D03*
D310*
X157275Y553770D03*
D522*
X157275Y564705D03*
X157275Y575641D03*
D612*
X157275Y592921D03*
D301*
X157275Y641385D03*
D13*
X157410Y408510D03*
D629*
X157410Y423698D03*
D33*
X157410Y449010D03*
D407*
X157410Y452925D03*
D40*
X157410Y525150D03*
D276*
X157410Y539055D03*
D314*
X157410Y553838D03*
D522*
X157410Y564705D03*
X157410Y575641D03*
D431*
X157410Y592988D03*
D364*
X157410Y641587D03*
D13*
X157545Y408510D03*
D630*
X157545Y423631D03*
D13*
X157545Y438750D03*
D362*
X157545Y452858D03*
D40*
X157545Y525150D03*
D276*
X157545Y539055D03*
D640*
X157545Y553906D03*
D522*
X157545Y564705D03*
D464*
X157545Y575708D03*
D437*
X157545Y593056D03*
D364*
X157545Y641722D03*
D650*
X157680Y423563D03*
D13*
X157680Y438750D03*
D45*
X157680Y449145D03*
D410*
X157680Y452992D03*
D40*
X157680Y525150D03*
D276*
X157680Y539055D03*
D317*
X157680Y553973D03*
D464*
X157680Y564637D03*
X157680Y575708D03*
D631*
X157680Y593123D03*
D623*
X157680Y641858D03*
D156*
X157815Y423697D03*
D13*
X157815Y449280D03*
D651*
X157815Y453060D03*
D40*
X157815Y525150D03*
D276*
X157815Y539055D03*
D319*
X157815Y554041D03*
D464*
X157815Y564637D03*
X157815Y575708D03*
D447*
X157815Y593190D03*
D341*
X157815Y642262D03*
D154*
X157950Y423630D03*
D33*
X157950Y438885D03*
X157950Y449415D03*
D635*
X157950Y453127D03*
D40*
X157950Y525150D03*
D276*
X157950Y539055D03*
D652*
X157950Y554108D03*
D464*
X157950Y564637D03*
D653*
X157950Y575775D03*
D643*
X157950Y593325D03*
D654*
X157950Y642398D03*
D154*
X158085Y423630D03*
D33*
X158085Y438885D03*
D45*
X158085Y449550D03*
D655*
X158085Y453195D03*
D40*
X158085Y525150D03*
D276*
X158085Y539055D03*
D328*
X158085Y554175D03*
D464*
X158085Y564637D03*
D653*
X158085Y575775D03*
D648*
X158085Y593393D03*
D13*
X158085Y638416D03*
D344*
X158085Y642870D03*
D656*
X158220Y423765D03*
D33*
X158220Y449685D03*
D431*
X158220Y453262D03*
D40*
X158220Y525150D03*
D276*
X158220Y539055D03*
D333*
X158220Y554243D03*
D15*
X158220Y564570D03*
D653*
X158220Y575775D03*
D522*
X158220Y593461D03*
D354*
X158220Y643073D03*
D156*
X158355Y423697D03*
D45*
X158355Y439020D03*
D635*
X158355Y453263D03*
D40*
X158355Y525150D03*
D276*
X158355Y539055D03*
D274*
X158355Y554310D03*
D15*
X158355Y564570D03*
D653*
X158355Y575775D03*
D464*
X158355Y593528D03*
D362*
X158355Y643208D03*
D156*
X158490Y423697D03*
D45*
X158490Y439020D03*
X158490Y449820D03*
D431*
X158490Y453398D03*
D40*
X158490Y525150D03*
D276*
X158490Y539055D03*
D273*
X158490Y554378D03*
D15*
X158490Y564570D03*
D507*
X158490Y575843D03*
D653*
X158490Y593595D03*
D407*
X158490Y643545D03*
D33*
X158625Y408645D03*
D657*
X158625Y423968D03*
D33*
X158625Y449955D03*
D658*
X158625Y453465D03*
D40*
X158625Y525150D03*
D276*
X158625Y539055D03*
D187*
X158625Y554446D03*
D507*
X158625Y564503D03*
X158625Y575843D03*
X158625Y593663D03*
D45*
X158625Y640440D03*
D437*
X158625Y644085D03*
D33*
X158760Y408645D03*
D154*
X158760Y423901D03*
D33*
X158760Y439155D03*
D45*
X158760Y450090D03*
D631*
X158760Y453533D03*
D40*
X158760Y525150D03*
D276*
X158760Y539055D03*
D291*
X158760Y554513D03*
D507*
X158760Y564503D03*
X158760Y575843D03*
D504*
X158760Y593730D03*
D162*
X158760Y644152D03*
D33*
X158895Y408645D03*
D659*
X158895Y424036D03*
D658*
X158895Y453465D03*
D40*
X158895Y525150D03*
D276*
X158895Y539055D03*
D349*
X158895Y554580D03*
D507*
X158895Y564503D03*
X158895Y575843D03*
D639*
X158895Y593866D03*
D660*
X158895Y644693D03*
D33*
X159030Y408645D03*
D657*
X159030Y423968D03*
D45*
X159030Y439290D03*
D13*
X159030Y450225D03*
D449*
X159030Y453601D03*
D40*
X159030Y525150D03*
D276*
X159030Y539055D03*
D188*
X159030Y554648D03*
D507*
X159030Y564503D03*
D504*
X159030Y575910D03*
D661*
X159030Y593933D03*
D15*
X159030Y644896D03*
D33*
X159165Y408645D03*
D662*
X159165Y424103D03*
D33*
X159165Y450360D03*
D663*
X159165Y453600D03*
D40*
X159165Y525150D03*
D276*
X159165Y539055D03*
D360*
X159165Y554783D03*
D504*
X159165Y564435D03*
X159165Y575910D03*
D489*
X159165Y594001D03*
D664*
X159165Y645503D03*
D33*
X159300Y408645D03*
D659*
X159300Y424036D03*
D33*
X159300Y439425D03*
D537*
X159300Y453533D03*
D617*
X159300Y644153D03*
D512*
X159300Y646312D03*
D665*
X159435Y424035D03*
D45*
X159435Y450495D03*
D525*
X159435Y453668D03*
D12*
X159435Y645030D03*
D578*
X159435Y645907D03*
D547*
X159435Y647122D03*
D158*
X159570Y424035D03*
D45*
X159570Y439560D03*
D33*
X159570Y450630D03*
D522*
X159570Y453735D03*
D578*
X159570Y646852D03*
D617*
X159570Y647798D03*
D666*
X159705Y424170D03*
D33*
X159705Y450630D03*
D522*
X159705Y453735D03*
D13*
X159705Y648135D03*
D667*
X159840Y424103D03*
D13*
X159840Y439695D03*
D45*
X159840Y450765D03*
D668*
X159840Y453803D03*
D669*
X159975Y424238D03*
D522*
X159975Y453735D03*
D666*
X160110Y424170D03*
D33*
X160110Y439830D03*
X160110Y450900D03*
D15*
X160110Y453870D03*
D13*
X160245Y408781D03*
D157*
X160245Y424441D03*
D45*
X160245Y451035D03*
D474*
X160245Y453937D03*
D13*
X160380Y408781D03*
D159*
X160380Y424373D03*
D45*
X160380Y439965D03*
X160380Y451035D03*
D474*
X160380Y453937D03*
D13*
X160515Y408781D03*
D669*
X160515Y424508D03*
D13*
X160515Y451170D03*
D477*
X160515Y454005D03*
D13*
X160650Y408781D03*
D157*
X160650Y424441D03*
D33*
X160650Y440100D03*
D477*
X160650Y454005D03*
D13*
X160785Y408781D03*
D613*
X160785Y424576D03*
D33*
X160785Y451305D03*
D670*
X160785Y454072D03*
D671*
X160920Y424373D03*
D45*
X160920Y440235D03*
D670*
X160920Y454072D03*
D672*
X161055Y424575D03*
D45*
X161055Y451440D03*
D673*
X161055Y454140D03*
D161*
X161190Y424508D03*
D33*
X161190Y440370D03*
D670*
X161190Y454072D03*
D674*
X161325Y424643D03*
D33*
X161325Y451575D03*
D54*
X161325Y454073D03*
D13*
X161325Y456570D03*
D672*
X161460Y424575D03*
D45*
X161460Y440505D03*
D489*
X161460Y454006D03*
D13*
X161460Y456570D03*
D172*
X161595Y424710D03*
D45*
X161595Y451710D03*
D61*
X161595Y454141D03*
D13*
X161595Y456570D03*
X161730Y408916D03*
D675*
X161730Y424778D03*
D13*
X161730Y440640D03*
D61*
X161730Y454141D03*
D13*
X161730Y456570D03*
X161865Y408916D03*
D674*
X161865Y424912D03*
D33*
X161865Y451845D03*
D676*
X161865Y454208D03*
D13*
X161865Y456570D03*
X162000Y408916D03*
D677*
X162000Y424845D03*
D33*
X162000Y440775D03*
X162000Y451845D03*
D676*
X162000Y454208D03*
D13*
X162000Y456570D03*
D175*
X162135Y424846D03*
D61*
X162135Y454141D03*
D13*
X162135Y456570D03*
D172*
X162270Y424845D03*
D45*
X162270Y440910D03*
X162270Y451980D03*
D61*
X162270Y454410D03*
D173*
X162405Y424913D03*
D61*
X162405Y454275D03*
D173*
X162540Y424913D03*
D33*
X162540Y441045D03*
D13*
X162540Y452115D03*
D484*
X162540Y454410D03*
D45*
X162675Y409050D03*
D163*
X162675Y425115D03*
D45*
X162675Y441180D03*
D496*
X162675Y454342D03*
D45*
X162810Y409050D03*
D175*
X162810Y425250D03*
D33*
X162810Y452250D03*
D501*
X162810Y454477D03*
D45*
X162945Y409050D03*
D164*
X162945Y425183D03*
D13*
X162945Y441315D03*
D33*
X162945Y452250D03*
D501*
X162945Y454477D03*
D45*
X163080Y409050D03*
D170*
X163080Y425317D03*
D484*
X163080Y454410D03*
D170*
X163215Y425182D03*
D33*
X163215Y441450D03*
D45*
X163215Y452385D03*
D678*
X163215Y454410D03*
D45*
X163215Y456435D03*
D679*
X163350Y425250D03*
D471*
X163350Y454342D03*
D45*
X163350Y456435D03*
D679*
X163485Y425250D03*
D45*
X163485Y441585D03*
D33*
X163485Y452520D03*
D512*
X163485Y454477D03*
D45*
X163485Y456435D03*
D13*
X163620Y409185D03*
D680*
X163620Y425453D03*
D33*
X163620Y441720D03*
X163620Y452520D03*
D512*
X163620Y454477D03*
D45*
X163620Y456435D03*
D13*
X163755Y409185D03*
D681*
X163755Y425588D03*
D678*
X163755Y454410D03*
D45*
X163755Y456435D03*
D13*
X163890Y409185D03*
D679*
X163890Y425520D03*
D45*
X163890Y441855D03*
X163890Y452655D03*
D512*
X163890Y454613D03*
D13*
X164025Y409185D03*
D191*
X164025Y425655D03*
D512*
X164025Y454613D03*
D682*
X164160Y425520D03*
D33*
X164160Y441990D03*
D683*
X164160Y454545D03*
D684*
X164295Y425655D03*
D33*
X164295Y452790D03*
D459*
X164295Y454680D03*
D193*
X164430Y425587D03*
D45*
X164430Y442125D03*
D512*
X164430Y454613D03*
D13*
X164565Y409320D03*
D191*
X164565Y425791D03*
D646*
X164565Y454478D03*
D33*
X164565Y456300D03*
D13*
X164700Y409320D03*
D191*
X164700Y425791D03*
D13*
X164700Y442260D03*
D45*
X164700Y452925D03*
D446*
X164700Y454613D03*
D33*
X164700Y456300D03*
D195*
X164835Y425790D03*
D33*
X164835Y442395D03*
D453*
X164835Y454545D03*
D33*
X164835Y456300D03*
D685*
X164970Y425925D03*
D13*
X164970Y453060D03*
D443*
X164970Y454681D03*
D33*
X164970Y456300D03*
D174*
X165105Y425857D03*
D45*
X165105Y442530D03*
D13*
X165105Y453060D03*
D443*
X165105Y454681D03*
D33*
X165240Y409455D03*
D686*
X165240Y426128D03*
D523*
X165240Y454680D03*
D33*
X165375Y409455D03*
D195*
X165375Y426061D03*
D33*
X165375Y442665D03*
D523*
X165375Y454680D03*
D687*
X165510Y426128D03*
D33*
X165510Y453195D03*
D443*
X165510Y454815D03*
D176*
X165645Y426060D03*
D45*
X165645Y442800D03*
D443*
X165645Y454815D03*
D687*
X165780Y426128D03*
D439*
X165780Y454613D03*
D45*
X165780Y456165D03*
D13*
X165915Y409591D03*
D174*
X165915Y426263D03*
D33*
X165915Y442935D03*
D45*
X165915Y453330D03*
D429*
X165915Y454748D03*
D45*
X165915Y456165D03*
D13*
X166050Y409591D03*
D176*
X166050Y426330D03*
D45*
X166050Y443070D03*
X166050Y453330D03*
D429*
X166050Y454748D03*
D45*
X166050Y456165D03*
D688*
X166185Y426330D03*
D31*
X166185Y454680D03*
D45*
X166185Y456165D03*
D689*
X166320Y426331D03*
D13*
X166320Y443205D03*
D690*
X166320Y454748D03*
D688*
X166455Y426465D03*
D33*
X166455Y453465D03*
D691*
X166455Y454883D03*
D13*
X166590Y409726D03*
D687*
X166590Y426532D03*
D33*
X166590Y443340D03*
D691*
X166590Y454883D03*
D13*
X166725Y409726D03*
D177*
X166725Y426668D03*
D31*
X166725Y454816D03*
D692*
X166860Y426533D03*
D45*
X166860Y443475D03*
X166860Y453600D03*
D693*
X166860Y454815D03*
D33*
X166860Y456030D03*
D694*
X166995Y426668D03*
D45*
X166995Y453600D03*
D693*
X166995Y454815D03*
D33*
X166995Y456030D03*
D45*
X167130Y409860D03*
D695*
X167130Y426735D03*
D33*
X167130Y443610D03*
D696*
X167130Y454748D03*
D33*
X167130Y456030D03*
D45*
X167265Y409860D03*
D182*
X167265Y426870D03*
D531*
X167265Y454815D03*
D180*
X167400Y426735D03*
D45*
X167400Y443745D03*
D13*
X167400Y453735D03*
D89*
X167400Y454950D03*
D697*
X167535Y426870D03*
D13*
X167535Y453735D03*
D89*
X167535Y454950D03*
D13*
X167670Y409995D03*
D177*
X167670Y426938D03*
D33*
X167670Y443880D03*
D89*
X167670Y454950D03*
D13*
X167805Y409995D03*
D180*
X167805Y427005D03*
D84*
X167805Y454747D03*
D45*
X167805Y455895D03*
D207*
X167940Y426937D03*
D45*
X167940Y444015D03*
D84*
X167940Y454747D03*
D45*
X167940Y455895D03*
D13*
X168075Y410130D03*
D182*
X168075Y427140D03*
D13*
X168075Y444150D03*
D33*
X168075Y453870D03*
D547*
X168075Y454882D03*
D45*
X168075Y455895D03*
D13*
X168210Y410130D03*
D182*
X168210Y427140D03*
D13*
X168210Y444150D03*
D33*
X168210Y453870D03*
D698*
X168210Y454950D03*
D697*
X168345Y427140D03*
D33*
X168345Y444285D03*
D84*
X168345Y454883D03*
D13*
X168480Y410265D03*
D697*
X168480Y427411D03*
D84*
X168480Y454883D03*
D13*
X168615Y410265D03*
D694*
X168615Y427343D03*
D45*
X168615Y444420D03*
X168615Y454005D03*
D699*
X168615Y454883D03*
D33*
X168615Y455760D03*
D185*
X168750Y427410D03*
D45*
X168750Y454005D03*
D699*
X168750Y454883D03*
D33*
X168750Y455760D03*
D700*
X168885Y427343D03*
D33*
X168885Y444555D03*
D45*
X168885Y454005D03*
D699*
X168885Y454883D03*
D33*
X168885Y455760D03*
X169020Y410400D03*
D184*
X169020Y427613D03*
D547*
X169020Y454882D03*
D214*
X169155Y427478D03*
D45*
X169155Y444690D03*
D547*
X169155Y454882D03*
D217*
X169290Y427613D03*
D547*
X169290Y454882D03*
D13*
X169425Y410536D03*
D697*
X169425Y427681D03*
D33*
X169425Y444825D03*
X169425Y454140D03*
D81*
X169425Y455017D03*
D701*
X169560Y427748D03*
D33*
X169560Y454140D03*
D74*
X169560Y454883D03*
D13*
X169560Y455625D03*
X169695Y410671D03*
D697*
X169695Y427815D03*
D13*
X169695Y444961D03*
D33*
X169695Y454140D03*
D74*
X169695Y454883D03*
D13*
X169695Y455625D03*
X169830Y410671D03*
D702*
X169830Y427950D03*
D395*
X169830Y454748D03*
D13*
X169830Y455625D03*
D185*
X169965Y427816D03*
D45*
X169965Y445095D03*
D699*
X169965Y454883D03*
D45*
X170100Y410805D03*
D703*
X170100Y427950D03*
D45*
X170100Y445095D03*
D699*
X170100Y454883D03*
D45*
X170235Y410805D03*
D700*
X170235Y428018D03*
D33*
X170235Y445230D03*
D699*
X170235Y454883D03*
D702*
X170370Y427950D03*
D33*
X170370Y445230D03*
D45*
X170370Y454275D03*
D615*
X170370Y454883D03*
D45*
X170370Y455490D03*
D13*
X170505Y410940D03*
D184*
X170505Y428152D03*
D45*
X170505Y454275D03*
D615*
X170505Y454883D03*
D45*
X170505Y455490D03*
D185*
X170640Y428085D03*
D45*
X170640Y445365D03*
X170640Y454275D03*
D615*
X170640Y454883D03*
D45*
X170640Y455490D03*
D13*
X170775Y411075D03*
D184*
X170775Y428288D03*
D45*
X170775Y454275D03*
D67*
X170775Y454951D03*
D13*
X170910Y411075D03*
D184*
X170910Y428288D03*
D33*
X170910Y445500D03*
D74*
X170910Y454883D03*
D701*
X171045Y428287D03*
D74*
X171045Y454883D03*
D33*
X171180Y411210D03*
D214*
X171180Y428423D03*
D45*
X171180Y445635D03*
D64*
X171180Y454748D03*
D33*
X171180Y455355D03*
D704*
X171315Y428490D03*
D64*
X171315Y454748D03*
D33*
X171315Y455355D03*
D13*
X171450Y411346D03*
D184*
X171450Y428558D03*
D13*
X171450Y445770D03*
D33*
X171450Y454410D03*
D616*
X171450Y454883D03*
D33*
X171450Y455355D03*
D704*
X171585Y428625D03*
D33*
X171585Y454410D03*
D53*
X171585Y454950D03*
D13*
X171720Y411481D03*
D184*
X171720Y428692D03*
D33*
X171720Y445905D03*
X171720Y454410D03*
D53*
X171720Y454950D03*
D219*
X171855Y428761D03*
D33*
X171855Y454410D03*
D53*
X171855Y454950D03*
D45*
X171990Y411615D03*
D184*
X171990Y428827D03*
D33*
X171990Y454410D03*
D47*
X171990Y454815D03*
D45*
X171990Y455220D03*
X172125Y411615D03*
D184*
X172125Y428827D03*
D45*
X172125Y446040D03*
D53*
X172125Y454680D03*
D45*
X172125Y455220D03*
D13*
X172260Y411750D03*
D185*
X172260Y429030D03*
D10*
X172260Y454748D03*
D45*
X172260Y455220D03*
D13*
X172395Y411750D03*
D700*
X172395Y428963D03*
D33*
X172395Y446175D03*
D53*
X172395Y454816D03*
D705*
X172530Y429030D03*
D53*
X172530Y454816D03*
D13*
X172665Y411885D03*
D184*
X172665Y429097D03*
D45*
X172665Y446310D03*
D53*
X172665Y454816D03*
D13*
X172800Y412020D03*
D216*
X172800Y429300D03*
D47*
X172800Y454681D03*
D33*
X172800Y455085D03*
D13*
X172935Y412020D03*
D184*
X172935Y429233D03*
D45*
X172935Y454545D03*
D33*
X172935Y454815D03*
X172935Y455085D03*
X173070Y412155D03*
D697*
X173070Y429301D03*
D33*
X173070Y446445D03*
D45*
X173070Y454545D03*
D33*
X173070Y454815D03*
D185*
X173205Y429436D03*
D45*
X173205Y454545D03*
D21*
X173205Y454882D03*
D13*
X173340Y412291D03*
D211*
X173340Y429435D03*
D45*
X173340Y446580D03*
X173340Y454545D03*
D21*
X173340Y454882D03*
D216*
X173475Y429570D03*
D45*
X173475Y454545D03*
X173475Y454950D03*
D13*
X173610Y412426D03*
D703*
X173610Y429570D03*
D13*
X173610Y446715D03*
D45*
X173610Y454545D03*
X173610Y454950D03*
D184*
X173745Y429503D03*
D13*
X173745Y446715D03*
D617*
X173745Y454613D03*
D45*
X173745Y454950D03*
X173880Y412560D03*
D184*
X173880Y429772D03*
D79*
X173880Y454748D03*
D184*
X174015Y429637D03*
D33*
X174015Y446850D03*
D79*
X174015Y454748D03*
D13*
X174150Y412695D03*
D700*
X174150Y429908D03*
D79*
X174150Y454748D03*
D13*
X174285Y412830D03*
D207*
X174285Y429907D03*
D79*
X174285Y454748D03*
D697*
X174420Y429840D03*
D45*
X174420Y446985D03*
D79*
X174420Y454748D03*
D13*
X174555Y412965D03*
D211*
X174555Y430110D03*
D79*
X174555Y454748D03*
D703*
X174690Y429975D03*
D33*
X174690Y447120D03*
D13*
X174690Y454680D03*
D33*
X174825Y413100D03*
D180*
X174825Y430111D03*
D33*
X174825Y447120D03*
D13*
X174825Y454680D03*
X174960Y413236D03*
D706*
X174960Y430313D03*
D13*
X174960Y454680D03*
D694*
X175095Y430178D03*
D45*
X175095Y447255D03*
X175230Y413370D03*
D207*
X175230Y430447D03*
D13*
X175365Y413505D03*
D180*
X175365Y430515D03*
D182*
X175500Y430380D03*
D33*
X175500Y447390D03*
D13*
X175635Y413640D03*
D182*
X175635Y430650D03*
D13*
X175770Y413775D03*
D200*
X175770Y430650D03*
X175905Y430650D03*
D45*
X175905Y447525D03*
D33*
X176040Y413910D03*
D692*
X176040Y430853D03*
D13*
X176175Y414046D03*
D687*
X176175Y430853D03*
D689*
X176310Y430786D03*
D13*
X176310Y447660D03*
X176445Y414181D03*
D689*
X176445Y431055D03*
D45*
X176580Y414315D03*
D687*
X176580Y431122D03*
X176715Y430987D03*
D33*
X176715Y447795D03*
D707*
X176850Y431258D03*
D13*
X176985Y414585D03*
D685*
X176985Y431325D03*
D13*
X177120Y414720D03*
D708*
X177120Y431325D03*
D45*
X177120Y447930D03*
D174*
X177255Y431257D03*
D45*
X177255Y447930D03*
D33*
X177390Y414855D03*
D686*
X177390Y431528D03*
D13*
X177525Y414991D03*
D708*
X177525Y431595D03*
D13*
X177660Y415126D03*
D682*
X177660Y431595D03*
D33*
X177660Y448065D03*
D45*
X177795Y415260D03*
D681*
X177795Y431663D03*
D33*
X177795Y448065D03*
D684*
X177930Y431730D03*
D13*
X178065Y415395D03*
D171*
X178065Y431797D03*
D45*
X178065Y448200D03*
D13*
X178200Y415530D03*
D709*
X178200Y431865D03*
D45*
X178200Y448200D03*
D33*
X178335Y415665D03*
D183*
X178335Y432068D03*
D13*
X178470Y415801D03*
D709*
X178470Y432135D03*
D679*
X178605Y432001D03*
D33*
X178605Y448335D03*
D13*
X178740Y415936D03*
D710*
X178740Y432135D03*
D33*
X178740Y448335D03*
D45*
X178875Y416070D03*
D164*
X178875Y432203D03*
D33*
X178875Y448335D03*
D13*
X179010Y416205D03*
D710*
X179010Y432405D03*
D13*
X179145Y416340D03*
D164*
X179145Y432473D03*
D13*
X179280Y416475D03*
D169*
X179280Y432473D03*
D45*
X179280Y448470D03*
D163*
X179415Y432405D03*
D45*
X179415Y448470D03*
D711*
X179550Y432608D03*
D13*
X179685Y416746D03*
D169*
X179685Y432743D03*
D13*
X179820Y416881D03*
D677*
X179820Y432810D03*
D45*
X179955Y417015D03*
D160*
X179955Y432810D03*
D13*
X179955Y448605D03*
X180090Y417150D03*
D712*
X180090Y432878D03*
D13*
X180090Y448605D03*
X180225Y417285D03*
D613*
X180225Y433080D03*
D13*
X180360Y417420D03*
D669*
X180360Y433148D03*
D33*
X180495Y417555D03*
D666*
X180495Y433215D03*
X180630Y433080D03*
D33*
X180630Y448740D03*
D622*
X180765Y433215D03*
D33*
X180765Y448740D03*
D45*
X180900Y417825D03*
D713*
X180900Y433282D03*
D33*
X180900Y448740D03*
D13*
X181035Y417960D03*
D659*
X181035Y433350D03*
D33*
X181035Y448740D03*
D13*
X181170Y418095D03*
D714*
X181170Y433553D03*
D13*
X181305Y418230D03*
D659*
X181305Y433621D03*
D33*
X181440Y418365D03*
D156*
X181440Y433688D03*
D13*
X181575Y418501D03*
D629*
X181575Y433688D03*
D45*
X181575Y448875D03*
D13*
X181710Y418636D03*
D630*
X181710Y433755D03*
D45*
X181710Y448875D03*
X181845Y418770D03*
D149*
X181845Y433822D03*
D45*
X181845Y448875D03*
D13*
X181980Y418905D03*
D148*
X181980Y433890D03*
D45*
X181980Y448875D03*
D13*
X182115Y419040D03*
D149*
X182115Y434092D03*
D13*
X182250Y419175D03*
D715*
X182250Y434160D03*
D33*
X182385Y419310D03*
D716*
X182385Y434228D03*
D13*
X182520Y419446D03*
D147*
X182520Y434295D03*
D45*
X182655Y419580D03*
D145*
X182655Y434362D03*
D147*
X182790Y434295D03*
D141*
X182925Y434430D03*
D717*
X183060Y434363D03*
D33*
X183060Y449010D03*
D13*
X183195Y419985D03*
D718*
X183195Y434498D03*
D33*
X183195Y449010D03*
X183330Y420120D03*
D719*
X183330Y434566D03*
D33*
X183330Y449010D03*
D13*
X183465Y420256D03*
D720*
X183465Y434633D03*
D33*
X183465Y449010D03*
D13*
X183600Y420391D03*
D138*
X183600Y434700D03*
D33*
X183600Y449010D03*
D45*
X183735Y420525D03*
D721*
X183735Y434768D03*
D33*
X183735Y449010D03*
D13*
X183870Y420660D03*
D722*
X183870Y434835D03*
D33*
X183870Y449010D03*
D13*
X184005Y420795D03*
D125*
X184005Y434903D03*
D33*
X184005Y449010D03*
D13*
X184140Y420930D03*
D126*
X184140Y435106D03*
D33*
X184275Y421065D03*
D723*
X184275Y435173D03*
D13*
X184410Y421201D03*
D135*
X184410Y435241D03*
D13*
X184545Y421336D03*
D134*
X184545Y435308D03*
D45*
X184680Y421470D03*
D724*
X184680Y435375D03*
D13*
X184815Y421605D03*
D725*
X184815Y435443D03*
D13*
X184950Y421740D03*
D130*
X184950Y435511D03*
D33*
X185085Y421875D03*
D726*
X185085Y435578D03*
D13*
X185220Y422011D03*
D727*
X185220Y435646D03*
D13*
X185355Y422146D03*
D728*
X185355Y435713D03*
D45*
X185490Y422280D03*
D729*
X185490Y435780D03*
D13*
X185625Y422415D03*
D730*
X185625Y435848D03*
D13*
X185760Y422550D03*
D731*
X185760Y435915D03*
D13*
X185895Y422685D03*
D110*
X185895Y435983D03*
D33*
X186030Y422820D03*
D124*
X186030Y436051D03*
D13*
X186165Y422956D03*
D732*
X186165Y436118D03*
D13*
X186300Y423091D03*
D101*
X186300Y436050D03*
D33*
X186300Y449010D03*
D45*
X186435Y423225D03*
D733*
X186435Y436118D03*
D33*
X186435Y449010D03*
D13*
X186570Y423360D03*
D734*
X186570Y436185D03*
D33*
X186570Y449010D03*
D13*
X186705Y423495D03*
D735*
X186705Y436253D03*
D33*
X186705Y449010D03*
D13*
X186840Y423630D03*
D736*
X186840Y436321D03*
D33*
X186840Y449010D03*
X186975Y423765D03*
D737*
X186975Y436388D03*
D33*
X186975Y449010D03*
D13*
X187110Y423901D03*
D95*
X187110Y436455D03*
D33*
X187110Y449010D03*
D45*
X187245Y424035D03*
D93*
X187245Y436658D03*
D13*
X187380Y424170D03*
D738*
X187380Y436657D03*
D13*
X187515Y424305D03*
D90*
X187515Y436725D03*
D13*
X187650Y424440D03*
D739*
X187650Y436793D03*
D33*
X187785Y424575D03*
D740*
X187785Y436860D03*
D13*
X187920Y424711D03*
D109*
X187920Y436928D03*
D13*
X188055Y424846D03*
D321*
X188055Y436995D03*
D45*
X188190Y424980D03*
D741*
X188190Y437062D03*
D13*
X188325Y425115D03*
D75*
X188325Y437130D03*
D13*
X188460Y425250D03*
D65*
X188460Y437062D03*
D45*
X188460Y448875D03*
D13*
X188595Y425385D03*
D104*
X188595Y437130D03*
D45*
X188595Y448875D03*
D33*
X188730Y425520D03*
D742*
X188730Y437198D03*
D45*
X188730Y448875D03*
D13*
X188865Y425656D03*
D743*
X188865Y437400D03*
D45*
X189000Y425790D03*
D744*
X189000Y437400D03*
D13*
X189135Y425925D03*
D50*
X189135Y437468D03*
D33*
X189270Y426060D03*
D745*
X189270Y437535D03*
D45*
X189405Y426195D03*
D746*
X189405Y437467D03*
D33*
X189405Y448740D03*
D13*
X189540Y426330D03*
D43*
X189540Y437535D03*
D33*
X189540Y448740D03*
X189675Y426465D03*
D41*
X189675Y437602D03*
D33*
X189675Y448740D03*
D45*
X189810Y426600D03*
D747*
X189810Y437670D03*
D33*
X189810Y448740D03*
X189945Y426735D03*
D94*
X189945Y437805D03*
D45*
X190080Y426870D03*
D748*
X190080Y437873D03*
D33*
X190215Y427005D03*
D372*
X190215Y437940D03*
D45*
X190350Y427140D03*
D749*
X190350Y438007D03*
D13*
X190485Y427275D03*
D388*
X190485Y437941D03*
D13*
X190485Y448605D03*
D33*
X190620Y427410D03*
D750*
X190620Y438008D03*
D13*
X190620Y448605D03*
D45*
X190755Y427545D03*
D30*
X190755Y438076D03*
D13*
X190755Y448605D03*
D33*
X190890Y427680D03*
D403*
X190890Y438143D03*
D45*
X191025Y427815D03*
D29*
X191025Y438278D03*
D33*
X191160Y427950D03*
D751*
X191160Y438345D03*
D13*
X191295Y428086D03*
D752*
X191295Y438277D03*
D45*
X191295Y448470D03*
X191430Y428220D03*
D442*
X191430Y438345D03*
D45*
X191430Y448470D03*
D33*
X191565Y428355D03*
D444*
X191565Y438412D03*
D45*
X191565Y448470D03*
X191700Y428490D03*
D444*
X191700Y438548D03*
D33*
X191835Y428625D03*
D753*
X191835Y438615D03*
D45*
X191970Y428760D03*
D754*
X191970Y438548D03*
D33*
X191970Y448335D03*
D13*
X192105Y428895D03*
D88*
X192105Y438616D03*
D33*
X192105Y448335D03*
D754*
X192240Y438548D03*
D33*
X192240Y448335D03*
D91*
X192375Y438683D03*
D45*
X192510Y429165D03*
D755*
X192510Y438818D03*
D33*
X192645Y429300D03*
D756*
X192645Y438750D03*
D45*
X192645Y448200D03*
X192780Y429435D03*
D757*
X192780Y438818D03*
D45*
X192780Y448200D03*
D33*
X192915Y429570D03*
D508*
X192915Y438885D03*
D45*
X192915Y448200D03*
X193050Y429705D03*
D758*
X193050Y439020D03*
D13*
X193185Y429840D03*
D505*
X193185Y439088D03*
D33*
X193320Y429975D03*
D22*
X193320Y439020D03*
D33*
X193320Y448065D03*
D45*
X193455Y430110D03*
D76*
X193455Y439088D03*
D33*
X193455Y448065D03*
X193590Y430245D03*
D76*
X193590Y439222D03*
D759*
X193725Y439155D03*
D45*
X193860Y430380D03*
D760*
X193860Y439155D03*
D45*
X193860Y447930D03*
D33*
X193995Y430515D03*
D70*
X193995Y439222D03*
D45*
X193995Y447930D03*
X194130Y430650D03*
D761*
X194130Y439358D03*
D13*
X194265Y430785D03*
D558*
X194265Y439426D03*
D33*
X194400Y430920D03*
D572*
X194400Y439357D03*
D33*
X194400Y447795D03*
D45*
X194535Y431055D03*
D576*
X194535Y439425D03*
D33*
X194535Y447795D03*
D66*
X194670Y439425D03*
D33*
X194805Y431190D03*
D63*
X194805Y439560D03*
D45*
X194940Y431325D03*
D584*
X194940Y439493D03*
D13*
X194940Y447660D03*
D33*
X195075Y431460D03*
D762*
X195075Y439560D03*
D45*
X195210Y431595D03*
D588*
X195210Y439695D03*
D763*
X195345Y439492D03*
D45*
X195345Y447525D03*
D13*
X195480Y431730D03*
D764*
X195480Y439628D03*
D45*
X195480Y447525D03*
D33*
X195615Y431865D03*
D596*
X195615Y439763D03*
D45*
X195750Y432000D03*
D601*
X195750Y439831D03*
D33*
X195885Y432135D03*
D527*
X195885Y439763D03*
D33*
X195885Y447390D03*
D44*
X196020Y439696D03*
D45*
X196155Y432270D03*
D765*
X196155Y439898D03*
D33*
X196290Y432405D03*
D609*
X196290Y439830D03*
D45*
X196290Y447255D03*
D607*
X196425Y439763D03*
D13*
X196560Y432541D03*
D766*
X196560Y439965D03*
D45*
X196695Y432675D03*
D767*
X196695Y439898D03*
D33*
X196695Y447120D03*
X196830Y432810D03*
D768*
X196830Y439965D03*
D769*
X196965Y439965D03*
D45*
X197100Y432945D03*
D770*
X197100Y439965D03*
D45*
X197100Y446985D03*
D33*
X197235Y433080D03*
D771*
X197235Y440032D03*
D45*
X197235Y446985D03*
D564*
X197370Y440033D03*
D45*
X197505Y433215D03*
D59*
X197505Y440032D03*
D33*
X197505Y446850D03*
D13*
X197640Y433350D03*
D772*
X197640Y440100D03*
D33*
X197640Y446850D03*
D573*
X197775Y440100D03*
D33*
X197910Y433485D03*
D586*
X197910Y440100D03*
D13*
X197910Y446715D03*
D45*
X198045Y433620D03*
D285*
X198045Y440168D03*
D18*
X198180Y440167D03*
D33*
X198315Y433755D03*
D275*
X198315Y440167D03*
D45*
X198315Y446580D03*
X198450Y433890D03*
D275*
X198450Y440303D03*
D297*
X198585Y440168D03*
D33*
X198585Y446445D03*
X198720Y434025D03*
D302*
X198720Y440235D03*
D33*
X198720Y446445D03*
D773*
X198855Y440235D03*
D45*
X198990Y434160D03*
D309*
X198990Y440235D03*
D45*
X198990Y446310D03*
D13*
X199125Y434295D03*
D309*
X199125Y440371D03*
D13*
X199260Y434295D03*
D640*
X199260Y440236D03*
D33*
X199260Y446175D03*
X199395Y434430D03*
D774*
X199395Y440303D03*
D33*
X199395Y446175D03*
D775*
X199530Y440303D03*
D45*
X199665Y434565D03*
D17*
X199665Y440303D03*
D45*
X199665Y446040D03*
D319*
X199800Y440235D03*
D33*
X199935Y434700D03*
D38*
X199935Y440438D03*
D327*
X200070Y440235D03*
D33*
X200070Y445905D03*
D45*
X200205Y434835D03*
D60*
X200205Y440438D03*
D274*
X200340Y440235D03*
D13*
X200340Y445770D03*
D33*
X200475Y434970D03*
D273*
X200475Y440437D03*
D287*
X200610Y440235D03*
D45*
X200610Y445635D03*
X200745Y435105D03*
D776*
X200745Y440438D03*
D349*
X200880Y440235D03*
D33*
X200880Y445500D03*
D13*
X201015Y435240D03*
D299*
X201015Y440371D03*
X201150Y440235D03*
D45*
X201150Y445365D03*
D33*
X201285Y435375D03*
D308*
X201285Y440370D03*
D45*
X201285Y445365D03*
D360*
X201420Y440438D03*
D45*
X201555Y435510D03*
D16*
X201555Y440371D03*
D33*
X201555Y445230D03*
D45*
X201690Y435510D03*
D312*
X201690Y440438D03*
D777*
X201825Y440235D03*
D45*
X201825Y445095D03*
D33*
X201960Y435645D03*
D621*
X201960Y440438D03*
D323*
X202095Y440235D03*
D13*
X202095Y444961D03*
D45*
X202230Y435780D03*
D326*
X202230Y440438D03*
D45*
X202365Y435780D03*
D335*
X202365Y440303D03*
D33*
X202365Y444825D03*
D326*
X202500Y440302D03*
D33*
X202635Y435915D03*
D341*
X202635Y440302D03*
D45*
X202635Y444690D03*
D335*
X202770Y440303D03*
D341*
X202905Y440168D03*
D33*
X202905Y444555D03*
D45*
X203040Y436050D03*
D344*
X203040Y440370D03*
D649*
X203175Y440167D03*
D45*
X203175Y444420D03*
D13*
X203310Y436185D03*
D351*
X203310Y440371D03*
D13*
X203445Y436185D03*
D359*
X203445Y440235D03*
D33*
X203445Y444285D03*
D351*
X203580Y440235D03*
D33*
X203715Y436320D03*
D597*
X203715Y440235D03*
D13*
X203715Y444150D03*
D33*
X203850Y436320D03*
D410*
X203850Y440167D03*
D45*
X203850Y444015D03*
D58*
X203985Y440168D03*
D45*
X204120Y436455D03*
D635*
X204120Y440168D03*
D33*
X204120Y443880D03*
D45*
X204255Y436455D03*
D651*
X204255Y440235D03*
D635*
X204390Y440032D03*
D45*
X204390Y443745D03*
D427*
X204525Y439965D03*
D33*
X204525Y443610D03*
X204660Y436590D03*
D658*
X204660Y440100D03*
D33*
X204660Y443610D03*
X204795Y436590D03*
D162*
X204795Y440032D03*
D45*
X204795Y443475D03*
D431*
X204930Y440033D03*
D34*
X205065Y439898D03*
D33*
X205065Y443340D03*
D45*
X205200Y436725D03*
D449*
X205200Y440100D03*
D45*
X205335Y436725D03*
D643*
X205335Y439965D03*
D13*
X205335Y443205D03*
D663*
X205470Y439830D03*
D45*
X205470Y443070D03*
D441*
X205605Y439898D03*
D13*
X205740Y436860D03*
D464*
X205740Y439898D03*
D33*
X205740Y442935D03*
D13*
X205875Y436860D03*
D778*
X205875Y439830D03*
D45*
X205875Y442800D03*
D464*
X206010Y439762D03*
D653*
X206145Y439695D03*
D33*
X206145Y442665D03*
X206280Y436995D03*
D474*
X206280Y439897D03*
D33*
X206415Y436995D03*
D670*
X206415Y439762D03*
D472*
X206550Y439628D03*
D33*
X206550Y442395D03*
D477*
X206685Y439695D03*
D45*
X206820Y437130D03*
D489*
X206820Y439696D03*
D13*
X206820Y442260D03*
D45*
X206955Y437130D03*
D100*
X206955Y439628D03*
D45*
X206955Y442125D03*
X207090Y437130D03*
D489*
X207090Y439696D03*
D54*
X207225Y439493D03*
D33*
X207225Y441990D03*
D61*
X207360Y439425D03*
D45*
X207360Y441855D03*
D676*
X207495Y439358D03*
D33*
X207495Y441720D03*
X207630Y437265D03*
D779*
X207630Y439493D03*
D33*
X207765Y437265D03*
D476*
X207765Y439425D03*
D45*
X207765Y441585D03*
D780*
X207900Y439290D03*
D33*
X207900Y441450D03*
D479*
X208035Y439358D03*
D471*
X208170Y439223D03*
D13*
X208170Y441315D03*
D45*
X208305Y437400D03*
D582*
X208305Y439290D03*
D45*
X208305Y441180D03*
X208440Y437400D03*
D512*
X208440Y439358D03*
D45*
X208575Y437400D03*
D646*
X208575Y439223D03*
D33*
X208575Y441045D03*
D646*
X208710Y439087D03*
D45*
X208710Y440910D03*
D523*
X208845Y439020D03*
D33*
X208845Y440775D03*
D646*
X208980Y439087D03*
D446*
X209115Y438953D03*
D13*
X209115Y440640D03*
D33*
X209250Y437535D03*
D31*
X209250Y439020D03*
D45*
X209250Y440505D03*
D33*
X209385Y437535D03*
D691*
X209385Y438953D03*
D33*
X209385Y440370D03*
X209520Y437535D03*
D31*
X209520Y439020D03*
D429*
X209655Y438818D03*
D45*
X209655Y440235D03*
D531*
X209790Y438751D03*
D33*
X209790Y440100D03*
D420*
X209925Y438683D03*
D45*
X209925Y439965D03*
D531*
X210060Y438751D03*
D45*
X210195Y437670D03*
D405*
X210195Y438750D03*
D33*
X210195Y439830D03*
D45*
X210330Y437670D03*
D401*
X210330Y438683D03*
D13*
X210330Y439695D03*
D45*
X210465Y437670D03*
D781*
X210465Y438615D03*
D45*
X210465Y439560D03*
X210600Y437670D03*
D401*
X210600Y438683D03*
D398*
X210735Y438480D03*
D33*
X210735Y439425D03*
D81*
X210870Y438412D03*
D45*
X210870Y439290D03*
D77*
X211005Y438345D03*
D33*
X211005Y439155D03*
D782*
X211140Y438277D03*
D45*
X211140Y439020D03*
D77*
X211275Y438345D03*
D13*
X211410Y437805D03*
D11*
X211410Y438345D03*
D33*
X211410Y438885D03*
D13*
X211545Y437805D03*
D578*
X211545Y438278D03*
D13*
X211545Y438750D03*
X211680Y437805D03*
D12*
X211680Y438210D03*
D45*
X211680Y438615D03*
D13*
X211815Y437805D03*
D578*
X211815Y438278D03*
D614*
X211950Y438075D03*
D33*
X211950Y438480D03*
D21*
X212085Y438007D03*
D45*
X212085Y438345D03*
D33*
X212220Y437940D03*
X212220Y438210D03*
D21*
X212355Y438007D03*
D33*
X212490Y437940D03*
D783*
X120Y-675D02*
X60Y-675D01*
X47Y-673D01*
X34Y-669D01*
X23Y-662D01*
X13Y-652D01*
X6Y-641D01*
X2Y-628D01*
X0Y-615D01*
X0Y-465D01*
X2Y-452D01*
X6Y-439D01*
X13Y-428D01*
X23Y-418D01*
X34Y-411D01*
X47Y-407D01*
X60Y-405D01*
X120Y-405D01*
X206Y-638D02*
X206Y-653D01*
X206Y-638D02*
X221Y-638D01*
X221Y-653D01*
X206Y-653D01*
X206Y-533D02*
X206Y-518D01*
X221Y-518D01*
X221Y-533D01*
X206Y-533D01*
X307Y-705D02*
X427Y-375D01*
X519Y-405D02*
X519Y-600D01*
X521Y-616D01*
X525Y-631D01*
X533Y-644D01*
X544Y-656D01*
X557Y-665D01*
X571Y-671D01*
X586Y-675D01*
X602Y-675D01*
X617Y-671D01*
X632Y-665D01*
X644Y-656D01*
X655Y-644D01*
X663Y-631D01*
X667Y-616D01*
X669Y-600D01*
X669Y-405D01*
X791Y-570D02*
X866Y-600D01*
X792Y-570D02*
X781Y-564D01*
X773Y-555D01*
X768Y-544D01*
X767Y-532D01*
X769Y-521D01*
X775Y-510D01*
X784Y-502D01*
X795Y-497D01*
X807Y-495D01*
X806Y-494D02*
X830Y-496D01*
X852Y-501D01*
X874Y-509D01*
X866Y-600D02*
X877Y-606D01*
X885Y-615D01*
X890Y-626D01*
X891Y-638D01*
X889Y-649D01*
X883Y-660D01*
X874Y-668D01*
X863Y-673D01*
X851Y-675D01*
X823Y-673D01*
X796Y-668D01*
X769Y-660D01*
X1024Y-675D02*
X1099Y-675D01*
X1024Y-675D02*
X1012Y-673D01*
X1002Y-669D01*
X992Y-662D01*
X985Y-653D01*
X981Y-642D01*
X979Y-630D01*
X979Y-555D01*
X981Y-541D01*
X986Y-527D01*
X994Y-515D01*
X1005Y-506D01*
X1018Y-499D01*
X1032Y-495D01*
X1046Y-495D01*
X1060Y-499D01*
X1073Y-506D01*
X1084Y-515D01*
X1092Y-527D01*
X1097Y-541D01*
X1099Y-555D01*
X1099Y-585D01*
X979Y-585D01*
X1199Y-675D02*
X1199Y-495D01*
X1289Y-495D01*
X1289Y-525D01*
X1382Y-570D02*
X1457Y-600D01*
X1383Y-570D02*
X1372Y-564D01*
X1364Y-555D01*
X1359Y-544D01*
X1358Y-532D01*
X1360Y-521D01*
X1366Y-510D01*
X1375Y-502D01*
X1386Y-497D01*
X1398Y-495D01*
X1397Y-494D02*
X1421Y-496D01*
X1443Y-501D01*
X1465Y-509D01*
X1457Y-600D02*
X1468Y-606D01*
X1476Y-615D01*
X1481Y-626D01*
X1482Y-638D01*
X1480Y-649D01*
X1474Y-660D01*
X1465Y-668D01*
X1454Y-673D01*
X1442Y-675D01*
X1414Y-673D01*
X1387Y-668D01*
X1360Y-660D01*
X1562Y-705D02*
X1682Y-375D01*
X1826Y-675D02*
X1886Y-675D01*
X1826Y-675D02*
X1813Y-673D01*
X1800Y-669D01*
X1789Y-662D01*
X1779Y-652D01*
X1772Y-641D01*
X1768Y-628D01*
X1766Y-615D01*
X1766Y-465D01*
X1768Y-452D01*
X1772Y-439D01*
X1779Y-428D01*
X1789Y-418D01*
X1800Y-411D01*
X1813Y-407D01*
X1826Y-405D01*
X1886Y-405D01*
X1967Y-555D02*
X1967Y-615D01*
X1967Y-555D02*
X1969Y-541D01*
X1974Y-527D01*
X1982Y-515D01*
X1993Y-506D01*
X2006Y-499D01*
X2020Y-495D01*
X2034Y-495D01*
X2048Y-499D01*
X2061Y-506D01*
X2072Y-515D01*
X2080Y-527D01*
X2085Y-541D01*
X2087Y-555D01*
X2087Y-615D01*
X2085Y-629D01*
X2080Y-643D01*
X2072Y-655D01*
X2061Y-664D01*
X2048Y-671D01*
X2034Y-675D01*
X2020Y-675D01*
X2006Y-671D01*
X1993Y-664D01*
X1982Y-655D01*
X1974Y-643D01*
X1969Y-629D01*
X1967Y-615D01*
X2297Y-675D02*
X2297Y-405D01*
X2297Y-675D02*
X2222Y-675D01*
X2210Y-673D01*
X2200Y-669D01*
X2190Y-662D01*
X2183Y-653D01*
X2179Y-642D01*
X2177Y-630D01*
X2177Y-540D01*
X2179Y-528D01*
X2183Y-518D01*
X2190Y-508D01*
X2200Y-501D01*
X2210Y-497D01*
X2222Y-495D01*
X2297Y-495D01*
X2388Y-765D02*
X2418Y-765D01*
X2508Y-495D01*
X2388Y-495D02*
X2448Y-675D01*
X2674Y-675D02*
X2687Y-673D01*
X2700Y-669D01*
X2711Y-662D01*
X2721Y-652D01*
X2728Y-641D01*
X2732Y-628D01*
X2734Y-615D01*
X2674Y-675D02*
X2654Y-673D01*
X2635Y-669D01*
X2616Y-661D01*
X2599Y-650D01*
X2584Y-637D01*
X2591Y-465D02*
X2593Y-452D01*
X2597Y-439D01*
X2604Y-428D01*
X2614Y-418D01*
X2625Y-411D01*
X2638Y-407D01*
X2651Y-405D01*
X2669Y-406D01*
X2687Y-411D01*
X2703Y-418D01*
X2719Y-428D01*
X2591Y-465D02*
X2592Y-478D01*
X2596Y-490D01*
X2602Y-501D01*
X2611Y-510D01*
X2621Y-518D01*
X2704Y-562D02*
X2714Y-570D01*
X2723Y-579D01*
X2729Y-590D01*
X2733Y-602D01*
X2734Y-615D01*
X2704Y-563D02*
X2621Y-518D01*
X2809Y-705D02*
X2929Y-375D01*
X3013Y-480D02*
X3013Y-600D01*
X3013Y-480D02*
X3015Y-464D01*
X3019Y-449D01*
X3027Y-436D01*
X3038Y-424D01*
X3051Y-415D01*
X3065Y-409D01*
X3080Y-405D01*
X3096Y-405D01*
X3111Y-409D01*
X3126Y-415D01*
X3138Y-424D01*
X3149Y-436D01*
X3157Y-449D01*
X3161Y-464D01*
X3163Y-480D01*
X3163Y-600D01*
X3161Y-616D01*
X3157Y-631D01*
X3149Y-644D01*
X3138Y-656D01*
X3126Y-665D01*
X3111Y-671D01*
X3096Y-675D01*
X3080Y-675D01*
X3065Y-671D01*
X3051Y-665D01*
X3038Y-656D01*
X3027Y-644D01*
X3019Y-631D01*
X3015Y-616D01*
X3013Y-600D01*
X3263Y-675D02*
X3263Y-495D01*
X3338Y-495D01*
X3350Y-497D01*
X3361Y-501D01*
X3370Y-508D01*
X3377Y-518D01*
X3381Y-528D01*
X3383Y-540D01*
X3383Y-675D01*
X3527Y-675D02*
X3602Y-675D01*
X3527Y-675D02*
X3515Y-673D01*
X3505Y-669D01*
X3495Y-662D01*
X3488Y-653D01*
X3484Y-642D01*
X3482Y-630D01*
X3482Y-555D01*
X3484Y-541D01*
X3489Y-527D01*
X3497Y-515D01*
X3508Y-506D01*
X3521Y-499D01*
X3535Y-495D01*
X3549Y-495D01*
X3563Y-499D01*
X3576Y-506D01*
X3587Y-515D01*
X3595Y-527D01*
X3600Y-541D01*
X3602Y-555D01*
X3602Y-585D01*
X3482Y-585D01*
X3702Y-675D02*
X3702Y-405D01*
X3777Y-405D01*
X3792Y-406D01*
X3806Y-411D01*
X3819Y-418D01*
X3830Y-427D01*
X3839Y-438D01*
X3846Y-451D01*
X3851Y-465D01*
X3852Y-480D01*
X3852Y-600D01*
X3851Y-615D01*
X3846Y-629D01*
X3839Y-642D01*
X3830Y-653D01*
X3819Y-662D01*
X3806Y-669D01*
X3792Y-674D01*
X3777Y-675D01*
X3702Y-675D01*
X3960Y-675D02*
X3960Y-495D01*
X4050Y-495D01*
X4050Y-525D01*
X4125Y-495D02*
X4125Y-675D01*
X4117Y-420D02*
X4117Y-405D01*
X4132Y-405D01*
X4132Y-420D01*
X4117Y-420D01*
X4211Y-495D02*
X4271Y-675D01*
X4331Y-495D01*
X4458Y-675D02*
X4533Y-675D01*
X4458Y-675D02*
X4446Y-673D01*
X4436Y-669D01*
X4426Y-662D01*
X4419Y-653D01*
X4415Y-642D01*
X4413Y-630D01*
X4413Y-555D01*
X4415Y-541D01*
X4420Y-527D01*
X4428Y-515D01*
X4439Y-506D01*
X4452Y-499D01*
X4466Y-495D01*
X4480Y-495D01*
X4494Y-499D01*
X4507Y-506D01*
X4518Y-515D01*
X4526Y-527D01*
X4531Y-541D01*
X4533Y-555D01*
X4533Y-585D01*
X4413Y-585D01*
X4756Y-570D02*
X4936Y-570D01*
X5166Y-600D02*
X5166Y-480D01*
X5168Y-464D01*
X5172Y-449D01*
X5180Y-436D01*
X5191Y-424D01*
X5204Y-415D01*
X5218Y-409D01*
X5233Y-405D01*
X5249Y-405D01*
X5264Y-409D01*
X5279Y-415D01*
X5291Y-424D01*
X5302Y-436D01*
X5310Y-449D01*
X5314Y-464D01*
X5316Y-480D01*
X5316Y-600D01*
X5314Y-616D01*
X5310Y-631D01*
X5302Y-644D01*
X5291Y-656D01*
X5279Y-665D01*
X5264Y-671D01*
X5249Y-675D01*
X5233Y-675D01*
X5218Y-671D01*
X5204Y-665D01*
X5191Y-656D01*
X5180Y-644D01*
X5172Y-631D01*
X5168Y-616D01*
X5166Y-600D01*
X5286Y-615D02*
X5346Y-675D01*
X5417Y-630D02*
X5417Y-495D01*
X5417Y-630D02*
X5419Y-642D01*
X5423Y-653D01*
X5430Y-662D01*
X5440Y-669D01*
X5450Y-673D01*
X5462Y-675D01*
X5537Y-675D01*
X5537Y-495D01*
X5681Y-675D02*
X5756Y-675D01*
X5681Y-675D02*
X5669Y-673D01*
X5659Y-669D01*
X5649Y-662D01*
X5642Y-653D01*
X5638Y-642D01*
X5636Y-630D01*
X5636Y-555D01*
X5638Y-541D01*
X5643Y-527D01*
X5651Y-515D01*
X5662Y-506D01*
X5675Y-499D01*
X5689Y-495D01*
X5703Y-495D01*
X5717Y-499D01*
X5730Y-506D01*
X5741Y-515D01*
X5749Y-527D01*
X5754Y-541D01*
X5756Y-555D01*
X5756Y-585D01*
X5636Y-585D01*
X5891Y-675D02*
X5966Y-675D01*
X5891Y-675D02*
X5879Y-673D01*
X5869Y-669D01*
X5859Y-662D01*
X5852Y-653D01*
X5848Y-642D01*
X5846Y-630D01*
X5846Y-555D01*
X5848Y-541D01*
X5853Y-527D01*
X5861Y-515D01*
X5872Y-506D01*
X5885Y-499D01*
X5899Y-495D01*
X5913Y-495D01*
X5927Y-499D01*
X5940Y-506D01*
X5951Y-515D01*
X5959Y-527D01*
X5964Y-541D01*
X5966Y-555D01*
X5966Y-585D01*
X5846Y-585D01*
X6065Y-675D02*
X6065Y-495D01*
X6140Y-495D01*
X6152Y-497D01*
X6163Y-501D01*
X6172Y-508D01*
X6179Y-518D01*
X6183Y-528D01*
X6185Y-540D01*
X6185Y-675D01*
X6306Y-570D02*
X6381Y-600D01*
X6307Y-570D02*
X6296Y-564D01*
X6288Y-555D01*
X6283Y-544D01*
X6282Y-532D01*
X6284Y-521D01*
X6290Y-510D01*
X6299Y-502D01*
X6310Y-497D01*
X6322Y-495D01*
X6321Y-494D02*
X6345Y-496D01*
X6367Y-501D01*
X6389Y-509D01*
X6381Y-600D02*
X6392Y-606D01*
X6400Y-615D01*
X6405Y-626D01*
X6406Y-638D01*
X6404Y-649D01*
X6398Y-660D01*
X6389Y-668D01*
X6378Y-673D01*
X6366Y-675D01*
X6338Y-673D01*
X6311Y-668D01*
X6284Y-660D01*
X6500Y-630D02*
X6500Y-405D01*
X6500Y-630D02*
X6502Y-642D01*
X6506Y-653D01*
X6513Y-662D01*
X6523Y-669D01*
X6533Y-673D01*
X6545Y-675D01*
X6676Y-570D02*
X6743Y-570D01*
X6676Y-570D02*
X6662Y-572D01*
X6650Y-577D01*
X6639Y-586D01*
X6630Y-597D01*
X6625Y-609D01*
X6623Y-623D01*
X6625Y-637D01*
X6630Y-650D01*
X6639Y-660D01*
X6650Y-669D01*
X6662Y-674D01*
X6676Y-676D01*
X6676Y-675D02*
X6743Y-675D01*
X6743Y-540D01*
X6741Y-528D01*
X6737Y-518D01*
X6730Y-508D01*
X6721Y-501D01*
X6710Y-497D01*
X6698Y-495D01*
X6638Y-495D01*
X6851Y-495D02*
X6851Y-675D01*
X6851Y-495D02*
X6926Y-495D01*
X6938Y-497D01*
X6949Y-501D01*
X6958Y-508D01*
X6965Y-518D01*
X6969Y-528D01*
X6971Y-540D01*
X6971Y-675D01*
X7189Y-675D02*
X7189Y-405D01*
X7189Y-675D02*
X7114Y-675D01*
X7102Y-673D01*
X7092Y-669D01*
X7082Y-662D01*
X7075Y-653D01*
X7071Y-642D01*
X7069Y-630D01*
X7069Y-540D01*
X7071Y-528D01*
X7075Y-518D01*
X7082Y-508D01*
X7092Y-501D01*
X7102Y-497D01*
X7114Y-495D01*
X7189Y-495D01*
X7427Y-405D02*
X7427Y-600D01*
X7429Y-616D01*
X7433Y-631D01*
X7441Y-644D01*
X7452Y-656D01*
X7465Y-665D01*
X7479Y-671D01*
X7494Y-675D01*
X7510Y-675D01*
X7525Y-671D01*
X7540Y-665D01*
X7552Y-656D01*
X7563Y-644D01*
X7571Y-631D01*
X7575Y-616D01*
X7577Y-600D01*
X7577Y-405D01*
X7685Y-495D02*
X7685Y-675D01*
X7685Y-495D02*
X7760Y-495D01*
X7772Y-497D01*
X7783Y-501D01*
X7792Y-508D01*
X7799Y-518D01*
X7803Y-528D01*
X7805Y-540D01*
X7805Y-675D01*
X7907Y-675D02*
X7907Y-495D01*
X7899Y-420D02*
X7899Y-405D01*
X7914Y-405D01*
X7914Y-420D01*
X7899Y-420D01*
X7993Y-495D02*
X8053Y-675D01*
X8113Y-495D01*
X8240Y-675D02*
X8315Y-675D01*
X8240Y-675D02*
X8228Y-673D01*
X8218Y-669D01*
X8208Y-662D01*
X8201Y-653D01*
X8197Y-642D01*
X8195Y-630D01*
X8195Y-555D01*
X8197Y-541D01*
X8202Y-527D01*
X8210Y-515D01*
X8221Y-506D01*
X8234Y-499D01*
X8248Y-495D01*
X8262Y-495D01*
X8276Y-499D01*
X8289Y-506D01*
X8300Y-515D01*
X8308Y-527D01*
X8313Y-541D01*
X8315Y-555D01*
X8315Y-585D01*
X8195Y-585D01*
X8414Y-675D02*
X8414Y-495D01*
X8504Y-495D01*
X8504Y-525D01*
X8598Y-570D02*
X8673Y-600D01*
X8599Y-570D02*
X8588Y-564D01*
X8580Y-555D01*
X8575Y-544D01*
X8574Y-532D01*
X8576Y-521D01*
X8582Y-510D01*
X8591Y-502D01*
X8602Y-497D01*
X8614Y-495D01*
X8613Y-494D02*
X8637Y-496D01*
X8659Y-501D01*
X8681Y-509D01*
X8673Y-600D02*
X8684Y-606D01*
X8692Y-615D01*
X8697Y-626D01*
X8698Y-638D01*
X8696Y-649D01*
X8690Y-660D01*
X8681Y-668D01*
X8670Y-673D01*
X8658Y-675D01*
X8630Y-673D01*
X8603Y-668D01*
X8576Y-660D01*
X8790Y-675D02*
X8790Y-495D01*
X8782Y-420D02*
X8782Y-405D01*
X8797Y-405D01*
X8797Y-420D01*
X8782Y-420D01*
X8865Y-495D02*
X8955Y-495D01*
X8895Y-405D02*
X8895Y-630D01*
X8897Y-642D01*
X8901Y-653D01*
X8908Y-662D01*
X8918Y-669D01*
X8928Y-673D01*
X8940Y-675D01*
X8955Y-675D01*
X9029Y-765D02*
X9059Y-765D01*
X9149Y-495D01*
X9029Y-495D02*
X9089Y-675D01*
X9361Y-615D02*
X9361Y-555D01*
X9363Y-541D01*
X9368Y-527D01*
X9376Y-515D01*
X9387Y-506D01*
X9400Y-499D01*
X9414Y-495D01*
X9428Y-495D01*
X9442Y-499D01*
X9455Y-506D01*
X9466Y-515D01*
X9474Y-527D01*
X9479Y-541D01*
X9481Y-555D01*
X9481Y-615D01*
X9479Y-629D01*
X9474Y-643D01*
X9466Y-655D01*
X9455Y-664D01*
X9442Y-671D01*
X9428Y-675D01*
X9414Y-675D01*
X9400Y-671D01*
X9387Y-664D01*
X9376Y-655D01*
X9368Y-643D01*
X9363Y-629D01*
X9361Y-615D01*
X9587Y-675D02*
X9587Y-450D01*
X9589Y-438D01*
X9593Y-428D01*
X9600Y-418D01*
X9610Y-411D01*
X9620Y-407D01*
X9632Y-405D01*
X9647Y-405D01*
X9647Y-495D02*
X9557Y-495D01*
X9899Y-405D02*
X9899Y-675D01*
X9824Y-405D02*
X9974Y-405D01*
X10095Y-675D02*
X10170Y-675D01*
X10095Y-675D02*
X10083Y-673D01*
X10073Y-669D01*
X10063Y-662D01*
X10056Y-653D01*
X10052Y-642D01*
X10050Y-630D01*
X10050Y-555D01*
X10052Y-541D01*
X10057Y-527D01*
X10065Y-515D01*
X10076Y-506D01*
X10089Y-499D01*
X10103Y-495D01*
X10117Y-495D01*
X10131Y-499D01*
X10144Y-506D01*
X10155Y-515D01*
X10163Y-527D01*
X10168Y-541D01*
X10170Y-555D01*
X10170Y-585D01*
X10050Y-585D01*
X10305Y-675D02*
X10365Y-675D01*
X10305Y-675D02*
X10293Y-673D01*
X10283Y-669D01*
X10273Y-662D01*
X10266Y-653D01*
X10262Y-642D01*
X10260Y-630D01*
X10260Y-540D01*
X10262Y-528D01*
X10266Y-518D01*
X10273Y-508D01*
X10283Y-501D01*
X10293Y-497D01*
X10305Y-495D01*
X10365Y-495D01*
X10454Y-405D02*
X10454Y-675D01*
X10454Y-495D02*
X10529Y-495D01*
X10541Y-497D01*
X10552Y-501D01*
X10561Y-508D01*
X10568Y-518D01*
X10572Y-528D01*
X10574Y-540D01*
X10574Y-675D01*
X10681Y-675D02*
X10681Y-495D01*
X10756Y-495D01*
X10768Y-497D01*
X10779Y-501D01*
X10788Y-508D01*
X10795Y-518D01*
X10799Y-528D01*
X10801Y-540D01*
X10801Y-675D01*
X10900Y-615D02*
X10900Y-555D01*
X10902Y-541D01*
X10907Y-527D01*
X10915Y-515D01*
X10926Y-506D01*
X10939Y-499D01*
X10953Y-495D01*
X10967Y-495D01*
X10981Y-499D01*
X10994Y-506D01*
X11005Y-515D01*
X11013Y-527D01*
X11018Y-541D01*
X11020Y-555D01*
X11020Y-615D01*
X11018Y-629D01*
X11013Y-643D01*
X11005Y-655D01*
X10994Y-664D01*
X10981Y-671D01*
X10967Y-675D01*
X10953Y-675D01*
X10939Y-671D01*
X10926Y-664D01*
X10915Y-655D01*
X10907Y-643D01*
X10902Y-629D01*
X10900Y-615D01*
X11116Y-630D02*
X11116Y-405D01*
X11116Y-630D02*
X11118Y-642D01*
X11122Y-653D01*
X11129Y-662D01*
X11139Y-669D01*
X11149Y-673D01*
X11161Y-675D01*
X11240Y-615D02*
X11240Y-555D01*
X11242Y-541D01*
X11247Y-527D01*
X11255Y-515D01*
X11266Y-506D01*
X11279Y-499D01*
X11293Y-495D01*
X11307Y-495D01*
X11321Y-499D01*
X11334Y-506D01*
X11345Y-515D01*
X11353Y-527D01*
X11358Y-541D01*
X11360Y-555D01*
X11360Y-615D01*
X11358Y-629D01*
X11353Y-643D01*
X11345Y-655D01*
X11334Y-664D01*
X11321Y-671D01*
X11307Y-675D01*
X11293Y-675D01*
X11279Y-671D01*
X11266Y-664D01*
X11255Y-655D01*
X11247Y-643D01*
X11242Y-629D01*
X11240Y-615D01*
X11495Y-675D02*
X11570Y-675D01*
X11495Y-675D02*
X11483Y-673D01*
X11473Y-669D01*
X11463Y-662D01*
X11456Y-653D01*
X11452Y-642D01*
X11450Y-630D01*
X11450Y-540D01*
X11452Y-528D01*
X11456Y-518D01*
X11463Y-508D01*
X11473Y-501D01*
X11483Y-497D01*
X11495Y-495D01*
X11570Y-495D01*
X11570Y-720D01*
X11568Y-732D01*
X11564Y-743D01*
X11557Y-752D01*
X11548Y-759D01*
X11537Y-763D01*
X11525Y-765D01*
X11465Y-765D01*
X11661Y-765D02*
X11691Y-765D01*
X11781Y-495D01*
X11661Y-495D02*
X11721Y-675D01*
X11855Y-705D02*
X11975Y-375D01*
X12067Y-405D02*
X12067Y-600D01*
X12069Y-616D01*
X12073Y-631D01*
X12081Y-644D01*
X12092Y-656D01*
X12105Y-665D01*
X12119Y-671D01*
X12134Y-675D01*
X12150Y-675D01*
X12165Y-671D01*
X12180Y-665D01*
X12192Y-656D01*
X12203Y-644D01*
X12211Y-631D01*
X12215Y-616D01*
X12217Y-600D01*
X12217Y-405D01*
X12325Y-495D02*
X12325Y-675D01*
X12325Y-495D02*
X12400Y-495D01*
X12412Y-497D01*
X12423Y-501D01*
X12432Y-508D01*
X12439Y-518D01*
X12443Y-528D01*
X12445Y-540D01*
X12445Y-675D01*
X12547Y-675D02*
X12547Y-495D01*
X12540Y-420D02*
X12540Y-405D01*
X12555Y-405D01*
X12555Y-420D01*
X12540Y-420D01*
X12831Y-675D02*
X12891Y-675D01*
X12831Y-675D02*
X12818Y-673D01*
X12805Y-669D01*
X12794Y-662D01*
X12784Y-652D01*
X12777Y-641D01*
X12773Y-628D01*
X12771Y-615D01*
X12771Y-465D01*
X12773Y-452D01*
X12777Y-439D01*
X12784Y-428D01*
X12794Y-418D01*
X12805Y-411D01*
X12818Y-407D01*
X12831Y-405D01*
X12891Y-405D01*
X12973Y-555D02*
X12973Y-615D01*
X12973Y-555D02*
X12975Y-541D01*
X12980Y-527D01*
X12988Y-515D01*
X12999Y-506D01*
X13012Y-499D01*
X13026Y-495D01*
X13040Y-495D01*
X13054Y-499D01*
X13067Y-506D01*
X13078Y-515D01*
X13086Y-527D01*
X13091Y-541D01*
X13093Y-555D01*
X13093Y-615D01*
X13091Y-629D01*
X13086Y-643D01*
X13078Y-655D01*
X13067Y-664D01*
X13054Y-671D01*
X13040Y-675D01*
X13026Y-675D01*
X13012Y-671D01*
X12999Y-664D01*
X12988Y-655D01*
X12980Y-643D01*
X12975Y-629D01*
X12973Y-615D01*
X13192Y-630D02*
X13192Y-495D01*
X13192Y-630D02*
X13194Y-642D01*
X13198Y-653D01*
X13205Y-662D01*
X13215Y-669D01*
X13225Y-673D01*
X13237Y-675D01*
X13312Y-675D01*
X13312Y-495D01*
X13419Y-495D02*
X13419Y-675D01*
X13419Y-495D02*
X13509Y-495D01*
X13509Y-525D01*
X13603Y-570D02*
X13678Y-600D01*
X13603Y-570D02*
X13592Y-564D01*
X13584Y-555D01*
X13579Y-544D01*
X13578Y-532D01*
X13580Y-521D01*
X13586Y-510D01*
X13595Y-502D01*
X13606Y-497D01*
X13618Y-495D01*
X13618Y-494D02*
X13642Y-496D01*
X13664Y-501D01*
X13686Y-509D01*
X13678Y-600D02*
X13689Y-606D01*
X13697Y-615D01*
X13702Y-626D01*
X13703Y-638D01*
X13701Y-649D01*
X13695Y-660D01*
X13686Y-668D01*
X13675Y-673D01*
X13663Y-675D01*
X13635Y-673D01*
X13608Y-668D01*
X13581Y-660D01*
X13836Y-675D02*
X13911Y-675D01*
X13836Y-675D02*
X13824Y-673D01*
X13814Y-669D01*
X13804Y-662D01*
X13797Y-653D01*
X13793Y-642D01*
X13791Y-630D01*
X13791Y-555D01*
X13793Y-541D01*
X13798Y-527D01*
X13806Y-515D01*
X13817Y-506D01*
X13830Y-499D01*
X13844Y-495D01*
X13858Y-495D01*
X13872Y-499D01*
X13885Y-506D01*
X13896Y-515D01*
X13904Y-527D01*
X13909Y-541D01*
X13911Y-555D01*
X13911Y-585D01*
X13791Y-585D01*
X13996Y-495D02*
X14041Y-675D01*
X14086Y-555D01*
X14131Y-675D01*
X14176Y-495D01*
X14261Y-555D02*
X14261Y-615D01*
X14261Y-555D02*
X14263Y-541D01*
X14268Y-527D01*
X14276Y-515D01*
X14287Y-506D01*
X14300Y-499D01*
X14314Y-495D01*
X14328Y-495D01*
X14342Y-499D01*
X14355Y-506D01*
X14366Y-515D01*
X14374Y-527D01*
X14379Y-541D01*
X14381Y-555D01*
X14381Y-615D01*
X14379Y-629D01*
X14374Y-643D01*
X14366Y-655D01*
X14355Y-664D01*
X14342Y-671D01*
X14328Y-675D01*
X14314Y-675D01*
X14300Y-671D01*
X14287Y-664D01*
X14276Y-655D01*
X14268Y-643D01*
X14263Y-629D01*
X14261Y-615D01*
X14480Y-675D02*
X14480Y-495D01*
X14570Y-495D01*
X14570Y-525D01*
X14651Y-405D02*
X14651Y-675D01*
X14651Y-585D02*
X14771Y-495D01*
X14703Y-548D02*
X14771Y-675D01*
X14844Y-705D02*
X14964Y-375D01*
X15130Y-405D02*
X15145Y-407D01*
X15160Y-412D01*
X15172Y-420D01*
X15183Y-431D01*
X15191Y-443D01*
X15196Y-458D01*
X15198Y-473D01*
X15130Y-405D02*
X15114Y-406D01*
X15099Y-411D01*
X15085Y-417D01*
X15073Y-427D01*
X15062Y-438D01*
X15053Y-451D01*
X15047Y-465D01*
X15175Y-526D02*
X15185Y-515D01*
X15192Y-502D01*
X15197Y-488D01*
X15198Y-473D01*
X15175Y-525D02*
X15048Y-675D01*
X15198Y-675D01*
X15290Y-540D02*
X15291Y-515D01*
X15296Y-490D01*
X15303Y-466D01*
X15313Y-442D01*
X15313Y-443D02*
X15319Y-430D01*
X15328Y-420D01*
X15339Y-412D01*
X15352Y-407D01*
X15366Y-405D01*
X15380Y-407D01*
X15393Y-412D01*
X15404Y-420D01*
X15413Y-430D01*
X15419Y-443D01*
X15418Y-442D02*
X15428Y-466D01*
X15435Y-490D01*
X15440Y-515D01*
X15441Y-540D01*
X15290Y-540D02*
X15291Y-565D01*
X15296Y-590D01*
X15303Y-614D01*
X15313Y-638D01*
X15319Y-651D01*
X15328Y-661D01*
X15339Y-669D01*
X15352Y-674D01*
X15366Y-676D01*
X15418Y-638D02*
X15428Y-614D01*
X15435Y-590D01*
X15440Y-565D01*
X15441Y-540D01*
X15419Y-638D02*
X15413Y-651D01*
X15404Y-661D01*
X15393Y-669D01*
X15380Y-674D01*
X15366Y-676D01*
X15306Y-615D02*
X15426Y-465D01*
X15616Y-405D02*
X15631Y-407D01*
X15646Y-412D01*
X15658Y-420D01*
X15669Y-431D01*
X15677Y-443D01*
X15682Y-458D01*
X15684Y-473D01*
X15616Y-405D02*
X15600Y-406D01*
X15585Y-411D01*
X15571Y-417D01*
X15559Y-427D01*
X15548Y-438D01*
X15539Y-451D01*
X15533Y-465D01*
X15661Y-526D02*
X15671Y-515D01*
X15678Y-502D01*
X15683Y-488D01*
X15684Y-473D01*
X15661Y-525D02*
X15534Y-675D01*
X15684Y-675D01*
X15777Y-465D02*
X15852Y-405D01*
X15852Y-675D01*
X15777Y-675D02*
X15927Y-675D01*
X16010Y-705D02*
X16130Y-375D01*
X16222Y-675D02*
X16342Y-675D01*
X16222Y-675D02*
X16222Y-405D01*
X16342Y-405D01*
X16312Y-525D02*
X16222Y-525D01*
X16538Y-525D02*
X16583Y-525D01*
X16583Y-675D01*
X16493Y-675D01*
X16480Y-673D01*
X16467Y-669D01*
X16456Y-662D01*
X16446Y-652D01*
X16439Y-641D01*
X16435Y-628D01*
X16433Y-615D01*
X16433Y-465D01*
X16435Y-452D01*
X16439Y-439D01*
X16446Y-428D01*
X16456Y-418D01*
X16467Y-411D01*
X16480Y-407D01*
X16493Y-405D01*
X16583Y-405D01*
X16692Y-405D02*
X16692Y-675D01*
X16692Y-525D02*
X16842Y-525D01*
X16842Y-405D02*
X16842Y-675D01*
X16943Y-615D02*
X17003Y-405D01*
X16943Y-615D02*
X17093Y-615D01*
X17048Y-555D02*
X17048Y-675D01*
X17186Y-465D02*
X17261Y-405D01*
X17261Y-675D01*
X17186Y-675D02*
X17336Y-675D01*
X17489Y-555D02*
X17579Y-555D01*
X17489Y-555D02*
X17476Y-553D01*
X17463Y-549D01*
X17452Y-542D01*
X17442Y-532D01*
X17435Y-521D01*
X17431Y-508D01*
X17429Y-495D01*
X17429Y-480D01*
X17431Y-464D01*
X17435Y-449D01*
X17443Y-436D01*
X17454Y-424D01*
X17467Y-415D01*
X17481Y-409D01*
X17496Y-405D01*
X17512Y-405D01*
X17527Y-409D01*
X17542Y-415D01*
X17554Y-424D01*
X17565Y-436D01*
X17573Y-449D01*
X17577Y-464D01*
X17579Y-480D01*
X17579Y-555D01*
X17577Y-576D01*
X17572Y-596D01*
X17563Y-615D01*
X17551Y-632D01*
X17536Y-647D01*
X17519Y-659D01*
X17500Y-668D01*
X17480Y-673D01*
X17459Y-675D01*
X17914Y-525D02*
X17959Y-525D01*
X17959Y-675D01*
X17869Y-675D01*
X17856Y-673D01*
X17843Y-669D01*
X17832Y-662D01*
X17822Y-652D01*
X17815Y-641D01*
X17811Y-628D01*
X17809Y-615D01*
X17809Y-465D01*
X17811Y-452D01*
X17815Y-439D01*
X17822Y-428D01*
X17832Y-418D01*
X17843Y-411D01*
X17856Y-407D01*
X17869Y-405D01*
X17959Y-405D01*
X18068Y-495D02*
X18068Y-675D01*
X18068Y-495D02*
X18158Y-495D01*
X18158Y-525D01*
X18229Y-555D02*
X18229Y-615D01*
X18229Y-555D02*
X18231Y-541D01*
X18236Y-527D01*
X18244Y-515D01*
X18255Y-506D01*
X18268Y-499D01*
X18282Y-495D01*
X18296Y-495D01*
X18310Y-499D01*
X18323Y-506D01*
X18334Y-515D01*
X18342Y-527D01*
X18347Y-541D01*
X18349Y-555D01*
X18349Y-615D01*
X18347Y-629D01*
X18342Y-643D01*
X18334Y-655D01*
X18323Y-664D01*
X18310Y-671D01*
X18296Y-675D01*
X18282Y-675D01*
X18268Y-671D01*
X18255Y-664D01*
X18244Y-655D01*
X18236Y-643D01*
X18231Y-629D01*
X18229Y-615D01*
X18448Y-630D02*
X18448Y-495D01*
X18448Y-630D02*
X18450Y-642D01*
X18454Y-653D01*
X18461Y-662D01*
X18471Y-669D01*
X18481Y-673D01*
X18493Y-675D01*
X18568Y-675D01*
X18568Y-495D01*
X18675Y-495D02*
X18675Y-765D01*
X18675Y-495D02*
X18750Y-495D01*
X18762Y-497D01*
X18773Y-501D01*
X18782Y-508D01*
X18789Y-518D01*
X18793Y-528D01*
X18795Y-540D01*
X18795Y-630D01*
X18793Y-642D01*
X18789Y-653D01*
X18782Y-662D01*
X18773Y-669D01*
X18762Y-673D01*
X18750Y-675D01*
X18675Y-675D01*
X19016Y-465D02*
X19091Y-405D01*
X19091Y-675D01*
X19016Y-675D02*
X19166Y-675D01*
X19471Y-675D02*
X19484Y-673D01*
X19497Y-669D01*
X19508Y-662D01*
X19518Y-652D01*
X19525Y-641D01*
X19529Y-628D01*
X19531Y-615D01*
X19471Y-675D02*
X19451Y-673D01*
X19432Y-669D01*
X19413Y-661D01*
X19396Y-650D01*
X19381Y-637D01*
X19388Y-465D02*
X19390Y-452D01*
X19394Y-439D01*
X19401Y-428D01*
X19411Y-418D01*
X19422Y-411D01*
X19435Y-407D01*
X19448Y-405D01*
X19466Y-406D01*
X19484Y-411D01*
X19500Y-418D01*
X19516Y-428D01*
X19388Y-465D02*
X19389Y-478D01*
X19393Y-490D01*
X19399Y-501D01*
X19408Y-510D01*
X19418Y-518D01*
X19501Y-562D02*
X19511Y-570D01*
X19520Y-579D01*
X19526Y-590D01*
X19530Y-602D01*
X19531Y-615D01*
X19501Y-563D02*
X19418Y-518D01*
X19622Y-405D02*
X19622Y-675D01*
X19622Y-495D02*
X19697Y-495D01*
X19709Y-497D01*
X19720Y-501D01*
X19729Y-508D01*
X19736Y-518D01*
X19740Y-528D01*
X19742Y-540D01*
X19742Y-675D01*
X19893Y-570D02*
X19960Y-570D01*
X19893Y-570D02*
X19879Y-572D01*
X19867Y-577D01*
X19856Y-586D01*
X19847Y-597D01*
X19842Y-609D01*
X19840Y-623D01*
X19842Y-637D01*
X19847Y-650D01*
X19856Y-660D01*
X19867Y-669D01*
X19879Y-674D01*
X19893Y-676D01*
X19893Y-675D02*
X19960Y-675D01*
X19960Y-540D01*
X19958Y-528D01*
X19954Y-518D01*
X19947Y-508D01*
X19938Y-501D01*
X19927Y-497D01*
X19915Y-495D01*
X19855Y-495D01*
X20068Y-495D02*
X20068Y-675D01*
X20068Y-495D02*
X20158Y-495D01*
X20158Y-525D01*
X20275Y-675D02*
X20350Y-675D01*
X20275Y-675D02*
X20263Y-673D01*
X20253Y-669D01*
X20243Y-662D01*
X20236Y-653D01*
X20232Y-642D01*
X20230Y-630D01*
X20230Y-555D01*
X20232Y-541D01*
X20237Y-527D01*
X20245Y-515D01*
X20256Y-506D01*
X20269Y-499D01*
X20283Y-495D01*
X20297Y-495D01*
X20311Y-499D01*
X20324Y-506D01*
X20335Y-515D01*
X20343Y-527D01*
X20348Y-541D01*
X20350Y-555D01*
X20350Y-585D01*
X20230Y-585D01*
X20560Y-675D02*
X20560Y-405D01*
X20560Y-675D02*
X20485Y-675D01*
X20473Y-673D01*
X20463Y-669D01*
X20453Y-662D01*
X20446Y-653D01*
X20442Y-642D01*
X20440Y-630D01*
X20440Y-540D01*
X20442Y-528D01*
X20446Y-518D01*
X20453Y-508D01*
X20463Y-501D01*
X20473Y-497D01*
X20485Y-495D01*
X20560Y-495D01*
X20798Y-405D02*
X20798Y-675D01*
X20798Y-405D02*
X20918Y-405D01*
X20918Y-525D02*
X20798Y-525D01*
X20999Y-555D02*
X20999Y-615D01*
X20999Y-555D02*
X21001Y-541D01*
X21006Y-527D01*
X21014Y-515D01*
X21025Y-506D01*
X21038Y-499D01*
X21052Y-495D01*
X21066Y-495D01*
X21080Y-499D01*
X21093Y-506D01*
X21104Y-515D01*
X21112Y-527D01*
X21117Y-541D01*
X21119Y-555D01*
X21119Y-615D01*
X21117Y-629D01*
X21112Y-643D01*
X21104Y-655D01*
X21093Y-664D01*
X21080Y-671D01*
X21066Y-675D01*
X21052Y-675D01*
X21038Y-671D01*
X21025Y-664D01*
X21014Y-655D01*
X21006Y-643D01*
X21001Y-629D01*
X20999Y-615D01*
X21215Y-630D02*
X21215Y-405D01*
X21215Y-630D02*
X21217Y-642D01*
X21221Y-653D01*
X21228Y-662D01*
X21238Y-669D01*
X21248Y-673D01*
X21260Y-675D01*
X21459Y-675D02*
X21459Y-405D01*
X21459Y-675D02*
X21384Y-675D01*
X21372Y-673D01*
X21362Y-669D01*
X21352Y-662D01*
X21345Y-653D01*
X21341Y-642D01*
X21339Y-630D01*
X21339Y-540D01*
X21341Y-528D01*
X21345Y-518D01*
X21352Y-508D01*
X21362Y-501D01*
X21372Y-497D01*
X21384Y-495D01*
X21459Y-495D01*
X21603Y-675D02*
X21678Y-675D01*
X21603Y-675D02*
X21591Y-673D01*
X21581Y-669D01*
X21571Y-662D01*
X21564Y-653D01*
X21560Y-642D01*
X21558Y-630D01*
X21558Y-555D01*
X21560Y-541D01*
X21565Y-527D01*
X21573Y-515D01*
X21584Y-506D01*
X21597Y-499D01*
X21611Y-495D01*
X21625Y-495D01*
X21639Y-499D01*
X21652Y-506D01*
X21663Y-515D01*
X21671Y-527D01*
X21676Y-541D01*
X21678Y-555D01*
X21678Y-585D01*
X21558Y-585D01*
X21777Y-675D02*
X21777Y-495D01*
X21867Y-495D01*
X21867Y-525D01*
X21930Y-705D02*
X22050Y-375D01*
X22247Y-525D02*
X22292Y-525D01*
X22292Y-675D01*
X22202Y-675D01*
X22189Y-673D01*
X22176Y-669D01*
X22165Y-662D01*
X22155Y-652D01*
X22148Y-641D01*
X22144Y-628D01*
X22142Y-615D01*
X22142Y-465D01*
X22144Y-452D01*
X22148Y-439D01*
X22155Y-428D01*
X22165Y-418D01*
X22176Y-411D01*
X22189Y-407D01*
X22202Y-405D01*
X22292Y-405D01*
X22395Y-495D02*
X22395Y-675D01*
X22388Y-420D02*
X22388Y-405D01*
X22403Y-405D01*
X22403Y-420D01*
X22388Y-420D01*
X22471Y-495D02*
X22561Y-495D01*
X22501Y-405D02*
X22501Y-630D01*
X22503Y-642D01*
X22507Y-653D01*
X22514Y-662D01*
X22524Y-669D01*
X22534Y-673D01*
X22546Y-675D01*
X22561Y-675D01*
X22856Y-675D02*
X22869Y-673D01*
X22882Y-669D01*
X22893Y-662D01*
X22903Y-652D01*
X22910Y-641D01*
X22914Y-628D01*
X22916Y-615D01*
X22856Y-675D02*
X22836Y-673D01*
X22817Y-669D01*
X22798Y-661D01*
X22781Y-650D01*
X22766Y-637D01*
X22773Y-465D02*
X22775Y-452D01*
X22779Y-439D01*
X22786Y-428D01*
X22796Y-418D01*
X22807Y-411D01*
X22820Y-407D01*
X22833Y-405D01*
X22851Y-406D01*
X22869Y-411D01*
X22885Y-418D01*
X22901Y-428D01*
X22773Y-465D02*
X22774Y-478D01*
X22778Y-490D01*
X22784Y-501D01*
X22793Y-510D01*
X22803Y-518D01*
X22886Y-562D02*
X22896Y-570D01*
X22905Y-579D01*
X22911Y-590D01*
X22915Y-602D01*
X22916Y-615D01*
X22886Y-563D02*
X22803Y-518D01*
X22981Y-495D02*
X23071Y-495D01*
X23011Y-405D02*
X23011Y-630D01*
X23013Y-642D01*
X23017Y-653D01*
X23024Y-662D01*
X23034Y-669D01*
X23044Y-673D01*
X23056Y-675D01*
X23071Y-675D01*
X23161Y-630D02*
X23161Y-495D01*
X23161Y-630D02*
X23163Y-642D01*
X23167Y-653D01*
X23174Y-662D01*
X23184Y-669D01*
X23194Y-673D01*
X23206Y-675D01*
X23281Y-675D01*
X23281Y-495D01*
X23395Y-450D02*
X23395Y-675D01*
X23395Y-450D02*
X23397Y-438D01*
X23401Y-428D01*
X23408Y-418D01*
X23418Y-411D01*
X23428Y-407D01*
X23440Y-405D01*
X23455Y-405D01*
X23455Y-495D02*
X23365Y-495D01*
X23532Y-450D02*
X23532Y-675D01*
X23532Y-450D02*
X23534Y-438D01*
X23538Y-428D01*
X23545Y-418D01*
X23555Y-411D01*
X23565Y-407D01*
X23577Y-405D01*
X23592Y-405D01*
X23592Y-495D02*
X23502Y-495D01*
X23647Y-705D02*
X23767Y-375D01*
X23859Y-675D02*
X23979Y-675D01*
X23859Y-675D02*
X23859Y-405D01*
X23979Y-405D01*
X23949Y-525D02*
X23859Y-525D01*
X24175Y-525D02*
X24220Y-525D01*
X24220Y-675D01*
X24130Y-675D01*
X24117Y-673D01*
X24104Y-669D01*
X24093Y-662D01*
X24083Y-652D01*
X24076Y-641D01*
X24072Y-628D01*
X24070Y-615D01*
X24070Y-465D01*
X24072Y-452D01*
X24076Y-439D01*
X24083Y-428D01*
X24093Y-418D01*
X24104Y-411D01*
X24117Y-407D01*
X24130Y-405D01*
X24220Y-405D01*
X24329Y-405D02*
X24329Y-675D01*
X24329Y-525D02*
X24479Y-525D01*
X24479Y-405D02*
X24479Y-675D01*
X24580Y-615D02*
X24640Y-405D01*
X24580Y-615D02*
X24730Y-615D01*
X24685Y-555D02*
X24685Y-675D01*
X24823Y-465D02*
X24898Y-405D01*
X24898Y-675D01*
X24823Y-675D02*
X24973Y-675D01*
X25126Y-555D02*
X25216Y-555D01*
X25126Y-555D02*
X25113Y-553D01*
X25100Y-549D01*
X25089Y-542D01*
X25079Y-532D01*
X25072Y-521D01*
X25068Y-508D01*
X25066Y-495D01*
X25066Y-480D01*
X25068Y-464D01*
X25072Y-449D01*
X25080Y-436D01*
X25091Y-424D01*
X25104Y-415D01*
X25118Y-409D01*
X25133Y-405D01*
X25149Y-405D01*
X25164Y-409D01*
X25179Y-415D01*
X25191Y-424D01*
X25202Y-436D01*
X25210Y-449D01*
X25214Y-464D01*
X25216Y-480D01*
X25216Y-555D01*
X25214Y-576D01*
X25209Y-596D01*
X25200Y-615D01*
X25188Y-632D01*
X25173Y-647D01*
X25156Y-659D01*
X25137Y-668D01*
X25117Y-673D01*
X25096Y-675D01*
X25300Y-705D02*
X25420Y-375D01*
X25512Y-405D02*
X25512Y-675D01*
X25632Y-675D01*
X25714Y-600D02*
X25714Y-480D01*
X25716Y-464D01*
X25720Y-449D01*
X25728Y-436D01*
X25739Y-424D01*
X25752Y-415D01*
X25766Y-409D01*
X25781Y-405D01*
X25797Y-405D01*
X25812Y-409D01*
X25827Y-415D01*
X25839Y-424D01*
X25850Y-436D01*
X25858Y-449D01*
X25862Y-464D01*
X25864Y-480D01*
X25864Y-600D01*
X25862Y-616D01*
X25858Y-631D01*
X25850Y-644D01*
X25839Y-656D01*
X25827Y-665D01*
X25812Y-671D01*
X25797Y-675D01*
X25781Y-675D01*
X25766Y-671D01*
X25752Y-665D01*
X25739Y-656D01*
X25728Y-644D01*
X25720Y-631D01*
X25716Y-616D01*
X25714Y-600D01*
X26070Y-525D02*
X26115Y-525D01*
X26115Y-675D01*
X26025Y-675D01*
X26012Y-673D01*
X25999Y-669D01*
X25988Y-662D01*
X25978Y-652D01*
X25971Y-641D01*
X25967Y-628D01*
X25965Y-615D01*
X25965Y-465D01*
X25967Y-452D01*
X25971Y-439D01*
X25978Y-428D01*
X25988Y-418D01*
X25999Y-411D01*
X26012Y-407D01*
X26025Y-405D01*
X26115Y-405D01*
X26216Y-480D02*
X26216Y-600D01*
X26216Y-480D02*
X26218Y-464D01*
X26222Y-449D01*
X26230Y-436D01*
X26241Y-424D01*
X26254Y-415D01*
X26268Y-409D01*
X26283Y-405D01*
X26299Y-405D01*
X26314Y-409D01*
X26329Y-415D01*
X26341Y-424D01*
X26352Y-436D01*
X26360Y-449D01*
X26364Y-464D01*
X26366Y-480D01*
X26366Y-600D01*
X26364Y-616D01*
X26360Y-631D01*
X26352Y-644D01*
X26341Y-656D01*
X26329Y-665D01*
X26314Y-671D01*
X26299Y-675D01*
X26283Y-675D01*
X26268Y-671D01*
X26254Y-665D01*
X26241Y-656D01*
X26230Y-644D01*
X26222Y-631D01*
X26218Y-616D01*
X26216Y-600D01*
X26454Y-660D02*
X26454Y-675D01*
X26454Y-660D02*
X26469Y-660D01*
X26469Y-675D01*
X26454Y-675D01*
X26564Y-675D02*
X26564Y-405D01*
X26564Y-675D02*
X26639Y-675D01*
X26651Y-673D01*
X26662Y-669D01*
X26671Y-662D01*
X26678Y-653D01*
X26682Y-642D01*
X26684Y-630D01*
X26684Y-540D01*
X26682Y-528D01*
X26678Y-518D01*
X26671Y-508D01*
X26662Y-501D01*
X26651Y-497D01*
X26639Y-495D01*
X26564Y-495D01*
X26784Y-495D02*
X26784Y-675D01*
X26784Y-495D02*
X26919Y-495D01*
X26931Y-497D01*
X26942Y-501D01*
X26951Y-508D01*
X26958Y-518D01*
X26962Y-528D01*
X26964Y-540D01*
X26964Y-675D01*
X26874Y-675D02*
X26874Y-495D01*
X27074Y-495D02*
X27074Y-765D01*
X27074Y-495D02*
X27149Y-495D01*
X27161Y-497D01*
X27172Y-501D01*
X27181Y-508D01*
X27188Y-518D01*
X27192Y-528D01*
X27194Y-540D01*
X27194Y-630D01*
X27192Y-642D01*
X27188Y-653D01*
X27181Y-662D01*
X27172Y-669D01*
X27161Y-673D01*
X27149Y-675D01*
X27074Y-675D01*
M02*
