G04 EAGLE Gerber RS-274X export*
G75*
%MOMM*%
%FSLAX34Y34*%
%LPD*%
%INBottom Copper*%
%IPPOS*%
%AMOC8*
5,1,8,0,0,1.08239X$1,22.5*%
G01*
%ADD10C,1.879600*%
%ADD11C,0.508000*%
%ADD12C,0.756400*%
%ADD13C,0.254000*%

G36*
X219655Y159172D02*
X219655Y159172D01*
X219736Y159174D01*
X219793Y159192D01*
X219853Y159201D01*
X219927Y159234D01*
X220005Y159258D01*
X220051Y159290D01*
X220110Y159317D01*
X220191Y159386D01*
X220259Y159432D01*
X230525Y169094D01*
X230594Y169181D01*
X230669Y169264D01*
X230682Y169291D01*
X230701Y169315D01*
X230743Y169417D01*
X230792Y169517D01*
X230796Y169546D01*
X230808Y169575D01*
X230826Y169734D01*
X230839Y169822D01*
X230839Y183135D01*
X230833Y183183D01*
X230835Y183230D01*
X230813Y183321D01*
X230799Y183414D01*
X230780Y183458D01*
X230769Y183504D01*
X230722Y183586D01*
X230683Y183671D01*
X230652Y183708D01*
X230628Y183749D01*
X230561Y183814D01*
X230500Y183886D01*
X230460Y183912D01*
X230426Y183945D01*
X230342Y183989D01*
X230264Y184040D01*
X230218Y184054D01*
X230176Y184076D01*
X230084Y184095D01*
X229994Y184123D01*
X229946Y184123D01*
X229900Y184133D01*
X229806Y184125D01*
X229712Y184126D01*
X229666Y184114D01*
X229619Y184110D01*
X229531Y184076D01*
X229440Y184051D01*
X229400Y184026D01*
X229355Y184009D01*
X229280Y183952D01*
X229200Y183903D01*
X229168Y183867D01*
X229130Y183839D01*
X229082Y183772D01*
X229011Y183694D01*
X228983Y183635D01*
X228950Y183589D01*
X228111Y181943D01*
X227006Y180422D01*
X225678Y179094D01*
X224157Y177989D01*
X222483Y177136D01*
X220696Y176555D01*
X219899Y176429D01*
X219899Y187200D01*
X219891Y187258D01*
X219891Y187268D01*
X219890Y187270D01*
X219891Y187328D01*
X219870Y187402D01*
X219859Y187479D01*
X219833Y187538D01*
X219816Y187600D01*
X219775Y187666D01*
X219743Y187736D01*
X219701Y187785D01*
X219668Y187840D01*
X219610Y187891D01*
X219560Y187950D01*
X219506Y187986D01*
X219458Y188029D01*
X219389Y188062D01*
X219324Y188105D01*
X219262Y188124D01*
X219205Y188152D01*
X219135Y188162D01*
X219054Y188187D01*
X218969Y188188D01*
X218900Y188199D01*
X217899Y188199D01*
X217899Y188201D01*
X218900Y188201D01*
X218964Y188210D01*
X219028Y188209D01*
X219103Y188230D01*
X219179Y188241D01*
X219238Y188267D01*
X219300Y188284D01*
X219366Y188325D01*
X219436Y188357D01*
X219485Y188399D01*
X219540Y188432D01*
X219592Y188490D01*
X219650Y188540D01*
X219686Y188594D01*
X219729Y188642D01*
X219762Y188711D01*
X219805Y188776D01*
X219824Y188838D01*
X219852Y188896D01*
X219862Y188965D01*
X219887Y189046D01*
X219888Y189131D01*
X219899Y189200D01*
X219899Y199971D01*
X220696Y199845D01*
X222483Y199264D01*
X224157Y198411D01*
X225678Y197306D01*
X227006Y195978D01*
X228111Y194457D01*
X228950Y192811D01*
X228977Y192772D01*
X228997Y192729D01*
X229058Y192657D01*
X229112Y192580D01*
X229149Y192551D01*
X229180Y192514D01*
X229259Y192463D01*
X229332Y192404D01*
X229376Y192386D01*
X229416Y192360D01*
X229506Y192332D01*
X229593Y192297D01*
X229640Y192291D01*
X229686Y192277D01*
X229780Y192276D01*
X229873Y192266D01*
X229920Y192274D01*
X229968Y192274D01*
X230058Y192299D01*
X230151Y192315D01*
X230194Y192336D01*
X230240Y192349D01*
X230320Y192398D01*
X230404Y192440D01*
X230439Y192472D01*
X230480Y192497D01*
X230543Y192567D01*
X230612Y192630D01*
X230637Y192671D01*
X230669Y192706D01*
X230710Y192791D01*
X230758Y192871D01*
X230771Y192917D01*
X230792Y192960D01*
X230804Y193041D01*
X230832Y193143D01*
X230831Y193209D01*
X230839Y193265D01*
X230839Y307178D01*
X230824Y307288D01*
X230815Y307399D01*
X230804Y307427D01*
X230799Y307457D01*
X230754Y307558D01*
X230714Y307662D01*
X230696Y307685D01*
X230683Y307714D01*
X230580Y307835D01*
X230525Y307906D01*
X220259Y317568D01*
X220193Y317614D01*
X220133Y317669D01*
X220078Y317695D01*
X220028Y317730D01*
X219952Y317756D01*
X219879Y317792D01*
X219823Y317800D01*
X219762Y317822D01*
X219656Y317826D01*
X219574Y317839D01*
X90426Y317839D01*
X90345Y317828D01*
X90264Y317826D01*
X90207Y317808D01*
X90147Y317799D01*
X90073Y317766D01*
X89995Y317742D01*
X89949Y317710D01*
X89890Y317683D01*
X89809Y317614D01*
X89741Y317568D01*
X79475Y307906D01*
X79406Y307819D01*
X79331Y307736D01*
X79318Y307709D01*
X79299Y307685D01*
X79257Y307583D01*
X79208Y307483D01*
X79204Y307454D01*
X79192Y307425D01*
X79174Y307266D01*
X79161Y307178D01*
X79161Y169822D01*
X79176Y169712D01*
X79185Y169601D01*
X79196Y169573D01*
X79201Y169543D01*
X79246Y169442D01*
X79286Y169338D01*
X79304Y169315D01*
X79317Y169286D01*
X79420Y169165D01*
X79475Y169094D01*
X89741Y159432D01*
X89807Y159386D01*
X89867Y159331D01*
X89922Y159305D01*
X89972Y159270D01*
X90048Y159244D01*
X90121Y159208D01*
X90177Y159200D01*
X90238Y159178D01*
X90344Y159174D01*
X90426Y159161D01*
X219574Y159161D01*
X219655Y159172D01*
G37*
%LPC*%
G36*
X170648Y206021D02*
X170648Y206021D01*
X168698Y206829D01*
X167205Y208322D01*
X166397Y210272D01*
X166397Y212384D01*
X167205Y214334D01*
X167347Y214475D01*
X167404Y214552D01*
X167469Y214624D01*
X167489Y214665D01*
X167516Y214701D01*
X167550Y214791D01*
X167592Y214877D01*
X167598Y214919D01*
X167615Y214965D01*
X167625Y215093D01*
X167639Y215182D01*
X167639Y252918D01*
X167626Y253013D01*
X167621Y253110D01*
X167606Y253153D01*
X167599Y253198D01*
X167560Y253285D01*
X167528Y253376D01*
X167503Y253410D01*
X167483Y253455D01*
X167400Y253552D01*
X167347Y253625D01*
X159511Y261460D01*
X159511Y270924D01*
X160263Y271675D01*
X160334Y271770D01*
X160409Y271862D01*
X160418Y271883D01*
X160432Y271901D01*
X160474Y272012D01*
X160521Y272121D01*
X160524Y272143D01*
X160532Y272165D01*
X160541Y272283D01*
X160555Y272401D01*
X160552Y272423D01*
X160553Y272446D01*
X160529Y272562D01*
X160510Y272679D01*
X160501Y272700D01*
X160496Y272722D01*
X160440Y272827D01*
X160389Y272934D01*
X160374Y272951D01*
X160363Y272971D01*
X160280Y273056D01*
X160202Y273144D01*
X160183Y273156D01*
X160167Y273173D01*
X160004Y273265D01*
X159939Y273305D01*
X158538Y273885D01*
X157045Y275378D01*
X156237Y277328D01*
X156237Y279440D01*
X157045Y281390D01*
X158538Y282883D01*
X160488Y283691D01*
X160688Y283691D01*
X160783Y283704D01*
X160880Y283709D01*
X160923Y283724D01*
X160968Y283731D01*
X161055Y283770D01*
X161146Y283802D01*
X161180Y283827D01*
X161225Y283847D01*
X161322Y283930D01*
X161395Y283983D01*
X163924Y286513D01*
X202118Y286513D01*
X202213Y286526D01*
X202310Y286531D01*
X202353Y286546D01*
X202398Y286553D01*
X202485Y286592D01*
X202576Y286624D01*
X202610Y286649D01*
X202655Y286669D01*
X202752Y286752D01*
X202825Y286805D01*
X206685Y290665D01*
X206742Y290742D01*
X206807Y290813D01*
X206827Y290854D01*
X206854Y290891D01*
X206888Y290981D01*
X206930Y291067D01*
X206936Y291109D01*
X206953Y291154D01*
X206963Y291282D01*
X206977Y291372D01*
X206977Y291973D01*
X208640Y295987D01*
X211713Y299060D01*
X215727Y300723D01*
X220073Y300723D01*
X224087Y299060D01*
X227160Y295987D01*
X228823Y291973D01*
X228823Y287627D01*
X227160Y283613D01*
X224087Y280540D01*
X220073Y278877D01*
X215727Y278877D01*
X211713Y280540D01*
X210591Y281662D01*
X210540Y281700D01*
X210495Y281746D01*
X210428Y281784D01*
X210366Y281831D01*
X210306Y281854D01*
X210250Y281885D01*
X210174Y281903D01*
X210102Y281930D01*
X210038Y281935D01*
X209975Y281950D01*
X209898Y281946D01*
X209821Y281952D01*
X209758Y281939D01*
X209694Y281936D01*
X209620Y281911D01*
X209545Y281895D01*
X209488Y281864D01*
X209427Y281843D01*
X209370Y281802D01*
X209296Y281762D01*
X209235Y281703D01*
X209178Y281662D01*
X205734Y278217D01*
X205721Y278206D01*
X205692Y278191D01*
X205614Y278115D01*
X205531Y278044D01*
X205513Y278017D01*
X205490Y277994D01*
X205437Y277899D01*
X205377Y277808D01*
X205367Y277777D01*
X205351Y277749D01*
X205326Y277643D01*
X205294Y277538D01*
X205294Y277506D01*
X205286Y277475D01*
X205292Y277365D01*
X205290Y277256D01*
X205299Y277225D01*
X205301Y277193D01*
X205337Y277090D01*
X205366Y276984D01*
X205383Y276957D01*
X205393Y276926D01*
X205447Y276853D01*
X205514Y276744D01*
X205550Y276712D01*
X205575Y276677D01*
X209446Y272806D01*
X209498Y272768D01*
X209542Y272722D01*
X209610Y272684D01*
X209672Y272637D01*
X209732Y272614D01*
X209788Y272583D01*
X209863Y272565D01*
X209936Y272538D01*
X210000Y272533D01*
X210062Y272518D01*
X210140Y272522D01*
X210217Y272516D01*
X210280Y272529D01*
X210344Y272532D01*
X210417Y272557D01*
X210493Y272573D01*
X210550Y272604D01*
X210610Y272625D01*
X210667Y272666D01*
X210742Y272706D01*
X210802Y272765D01*
X210859Y272806D01*
X211713Y273660D01*
X215727Y275323D01*
X220073Y275323D01*
X224087Y273660D01*
X227160Y270587D01*
X228823Y266573D01*
X228823Y262227D01*
X227160Y258213D01*
X224087Y255140D01*
X220073Y253477D01*
X215727Y253477D01*
X211713Y255140D01*
X208640Y258213D01*
X206977Y262227D01*
X206977Y263364D01*
X206964Y263459D01*
X206959Y263556D01*
X206944Y263599D01*
X206937Y263644D01*
X206898Y263731D01*
X206866Y263822D01*
X206841Y263856D01*
X206821Y263901D01*
X206738Y263998D01*
X206685Y264071D01*
X200793Y269963D01*
X200716Y270020D01*
X200645Y270085D01*
X200604Y270105D01*
X200567Y270132D01*
X200477Y270166D01*
X200391Y270208D01*
X200349Y270214D01*
X200304Y270231D01*
X200176Y270241D01*
X200086Y270255D01*
X189010Y270255D01*
X188978Y270251D01*
X188945Y270253D01*
X188839Y270231D01*
X188730Y270215D01*
X188701Y270202D01*
X188669Y270196D01*
X188573Y270144D01*
X188473Y270099D01*
X188449Y270078D01*
X188420Y270063D01*
X188342Y269987D01*
X188259Y269916D01*
X188241Y269889D01*
X188218Y269866D01*
X188165Y269771D01*
X188105Y269680D01*
X188095Y269649D01*
X188079Y269621D01*
X188054Y269514D01*
X188022Y269410D01*
X188022Y269378D01*
X188014Y269347D01*
X188020Y269237D01*
X188018Y269128D01*
X188027Y269097D01*
X188029Y269065D01*
X188065Y268962D01*
X188094Y268856D01*
X188111Y268829D01*
X188121Y268798D01*
X188174Y268725D01*
X188242Y268616D01*
X188278Y268584D01*
X188303Y268549D01*
X209446Y247406D01*
X209497Y247368D01*
X209542Y247322D01*
X209610Y247284D01*
X209672Y247237D01*
X209732Y247214D01*
X209788Y247183D01*
X209863Y247165D01*
X209936Y247138D01*
X209999Y247133D01*
X210062Y247118D01*
X210140Y247122D01*
X210217Y247116D01*
X210279Y247129D01*
X210344Y247132D01*
X210417Y247158D01*
X210493Y247173D01*
X210550Y247203D01*
X210610Y247225D01*
X210667Y247266D01*
X210742Y247306D01*
X210803Y247365D01*
X210859Y247406D01*
X211713Y248260D01*
X215727Y249923D01*
X220073Y249923D01*
X224087Y248260D01*
X227160Y245187D01*
X228823Y241173D01*
X228823Y236827D01*
X227160Y232813D01*
X224087Y229740D01*
X220073Y228077D01*
X215727Y228077D01*
X211713Y229740D01*
X208640Y232813D01*
X206977Y236827D01*
X206977Y237964D01*
X206964Y238059D01*
X206959Y238156D01*
X206944Y238199D01*
X206937Y238244D01*
X206898Y238331D01*
X206866Y238422D01*
X206841Y238456D01*
X206821Y238501D01*
X206738Y238598D01*
X206685Y238671D01*
X183521Y261835D01*
X183444Y261892D01*
X183373Y261957D01*
X183332Y261977D01*
X183295Y262004D01*
X183205Y262038D01*
X183119Y262080D01*
X183077Y262086D01*
X183032Y262103D01*
X182904Y262113D01*
X182814Y262127D01*
X175558Y262127D01*
X175463Y262114D01*
X175367Y262109D01*
X175324Y262094D01*
X175279Y262087D01*
X175191Y262048D01*
X175100Y262016D01*
X175066Y261991D01*
X175022Y261971D01*
X174925Y261888D01*
X174851Y261835D01*
X174710Y261693D01*
X173309Y261113D01*
X173207Y261052D01*
X173103Y260997D01*
X173086Y260981D01*
X173067Y260969D01*
X172985Y260883D01*
X172901Y260800D01*
X172889Y260780D01*
X172874Y260764D01*
X172820Y260658D01*
X172762Y260555D01*
X172756Y260533D01*
X172746Y260512D01*
X172724Y260396D01*
X172697Y260280D01*
X172698Y260257D01*
X172694Y260235D01*
X172705Y260117D01*
X172711Y259999D01*
X172718Y259977D01*
X172721Y259954D01*
X172764Y259844D01*
X172803Y259732D01*
X172816Y259715D01*
X172825Y259692D01*
X172940Y259546D01*
X172985Y259483D01*
X175769Y256700D01*
X175769Y215182D01*
X175782Y215087D01*
X175787Y214991D01*
X175802Y214948D01*
X175809Y214903D01*
X175848Y214815D01*
X175880Y214724D01*
X175905Y214690D01*
X175925Y214646D01*
X176008Y214549D01*
X176061Y214475D01*
X176203Y214334D01*
X177011Y212384D01*
X177011Y210272D01*
X176203Y208322D01*
X174710Y206829D01*
X172760Y206021D01*
X170648Y206021D01*
G37*
%LPD*%
%LPC*%
G36*
X90727Y177277D02*
X90727Y177277D01*
X86713Y178940D01*
X83640Y182013D01*
X81977Y186027D01*
X81977Y190373D01*
X83640Y194387D01*
X86713Y197460D01*
X90727Y199123D01*
X95073Y199123D01*
X96267Y198628D01*
X96276Y198626D01*
X96285Y198621D01*
X96414Y198590D01*
X96540Y198558D01*
X96550Y198558D01*
X96559Y198556D01*
X96692Y198563D01*
X96822Y198567D01*
X96831Y198570D01*
X96841Y198570D01*
X96965Y198614D01*
X97090Y198654D01*
X97098Y198660D01*
X97107Y198663D01*
X97169Y198708D01*
X97323Y198813D01*
X97339Y198832D01*
X97356Y198845D01*
X127977Y229465D01*
X128034Y229542D01*
X128099Y229613D01*
X128119Y229654D01*
X128146Y229691D01*
X128180Y229781D01*
X128222Y229867D01*
X128228Y229909D01*
X128245Y229954D01*
X128255Y230082D01*
X128269Y230172D01*
X128269Y233636D01*
X128256Y233731D01*
X128251Y233827D01*
X128236Y233870D01*
X128229Y233915D01*
X128190Y234003D01*
X128158Y234094D01*
X128133Y234128D01*
X128113Y234172D01*
X128030Y234269D01*
X127977Y234343D01*
X126565Y235754D01*
X125757Y237704D01*
X125757Y239816D01*
X126565Y241766D01*
X128058Y243259D01*
X130008Y244067D01*
X132120Y244067D01*
X134070Y243259D01*
X135563Y241766D01*
X136371Y239816D01*
X136371Y237704D01*
X135563Y235754D01*
X134151Y234343D01*
X134094Y234266D01*
X134029Y234194D01*
X134009Y234153D01*
X133982Y234117D01*
X133948Y234027D01*
X133906Y233941D01*
X133900Y233899D01*
X133883Y233853D01*
X133873Y233725D01*
X133859Y233636D01*
X133859Y227442D01*
X102188Y195772D01*
X102150Y195721D01*
X102104Y195676D01*
X102065Y195608D01*
X102019Y195546D01*
X101996Y195486D01*
X101965Y195430D01*
X101947Y195355D01*
X101919Y195283D01*
X101915Y195219D01*
X101900Y195156D01*
X101904Y195078D01*
X101898Y195001D01*
X101911Y194939D01*
X101914Y194874D01*
X101940Y194801D01*
X101955Y194725D01*
X101985Y194669D01*
X102007Y194608D01*
X102048Y194551D01*
X102088Y194476D01*
X102147Y194415D01*
X102150Y194412D01*
X103823Y190373D01*
X103823Y186027D01*
X102160Y182013D01*
X99087Y178940D01*
X95073Y177277D01*
X90727Y177277D01*
G37*
%LPD*%
%LPC*%
G36*
X90727Y202677D02*
X90727Y202677D01*
X86713Y204340D01*
X83640Y207413D01*
X81977Y211427D01*
X81977Y215773D01*
X83640Y219787D01*
X86713Y222860D01*
X90727Y224523D01*
X95073Y224523D01*
X96267Y224028D01*
X96276Y224026D01*
X96285Y224021D01*
X96414Y223990D01*
X96540Y223958D01*
X96550Y223958D01*
X96559Y223956D01*
X96692Y223963D01*
X96822Y223967D01*
X96831Y223970D01*
X96841Y223970D01*
X96965Y224014D01*
X97090Y224054D01*
X97098Y224060D01*
X97107Y224063D01*
X97169Y224108D01*
X97323Y224213D01*
X97339Y224232D01*
X97356Y224245D01*
X115785Y242673D01*
X115842Y242750D01*
X115907Y242821D01*
X115927Y242862D01*
X115954Y242899D01*
X115988Y242989D01*
X116030Y243075D01*
X116036Y243117D01*
X116053Y243162D01*
X116063Y243290D01*
X116077Y243380D01*
X116077Y253956D01*
X116064Y254051D01*
X116059Y254147D01*
X116044Y254190D01*
X116037Y254235D01*
X115998Y254323D01*
X115966Y254414D01*
X115941Y254448D01*
X115921Y254492D01*
X115838Y254589D01*
X115785Y254663D01*
X114373Y256074D01*
X113565Y258024D01*
X113565Y260136D01*
X114373Y262086D01*
X115866Y263579D01*
X117816Y264387D01*
X119928Y264387D01*
X121878Y263579D01*
X123371Y262086D01*
X124179Y260136D01*
X124179Y258024D01*
X123371Y256074D01*
X121959Y254663D01*
X121902Y254586D01*
X121837Y254514D01*
X121817Y254473D01*
X121790Y254437D01*
X121756Y254347D01*
X121714Y254261D01*
X121708Y254219D01*
X121691Y254173D01*
X121681Y254045D01*
X121667Y253956D01*
X121667Y240650D01*
X102188Y221172D01*
X102150Y221121D01*
X102104Y221076D01*
X102065Y221008D01*
X102019Y220946D01*
X101996Y220886D01*
X101965Y220830D01*
X101947Y220755D01*
X101919Y220683D01*
X101915Y220619D01*
X101900Y220556D01*
X101904Y220478D01*
X101898Y220401D01*
X101911Y220339D01*
X101914Y220274D01*
X101940Y220201D01*
X101955Y220125D01*
X101985Y220069D01*
X102007Y220008D01*
X102048Y219951D01*
X102088Y219876D01*
X102147Y219815D01*
X102150Y219812D01*
X103823Y215773D01*
X103823Y211427D01*
X102160Y207413D01*
X99087Y204340D01*
X95073Y202677D01*
X90727Y202677D01*
G37*
%LPD*%
%LPC*%
G36*
X90633Y278401D02*
X90633Y278401D01*
X86443Y280137D01*
X83237Y283343D01*
X81501Y287533D01*
X81501Y292067D01*
X83237Y296257D01*
X86443Y299463D01*
X90633Y301199D01*
X95167Y301199D01*
X99357Y299463D01*
X102563Y296257D01*
X104299Y292067D01*
X104299Y287533D01*
X102563Y283343D01*
X99357Y280137D01*
X95167Y278401D01*
X90633Y278401D01*
G37*
%LPD*%
%LPC*%
G36*
X90727Y253477D02*
X90727Y253477D01*
X86713Y255140D01*
X83640Y258213D01*
X81977Y262227D01*
X81977Y266573D01*
X83640Y270587D01*
X86713Y273660D01*
X90727Y275323D01*
X95073Y275323D01*
X99087Y273660D01*
X102160Y270587D01*
X103823Y266573D01*
X103823Y262227D01*
X102160Y258213D01*
X99087Y255140D01*
X95073Y253477D01*
X90727Y253477D01*
G37*
%LPD*%
%LPC*%
G36*
X90727Y228077D02*
X90727Y228077D01*
X86713Y229740D01*
X83640Y232813D01*
X81977Y236827D01*
X81977Y241173D01*
X83640Y245187D01*
X86713Y248260D01*
X90727Y249923D01*
X95073Y249923D01*
X99087Y248260D01*
X102160Y245187D01*
X103823Y241173D01*
X103823Y236827D01*
X102160Y232813D01*
X99087Y229740D01*
X95073Y228077D01*
X90727Y228077D01*
G37*
%LPD*%
%LPC*%
G36*
X215727Y202677D02*
X215727Y202677D01*
X211713Y204340D01*
X208640Y207413D01*
X206977Y211427D01*
X206977Y215773D01*
X208640Y219787D01*
X211713Y222860D01*
X215727Y224523D01*
X220073Y224523D01*
X224087Y222860D01*
X227160Y219787D01*
X228823Y215773D01*
X228823Y211427D01*
X227160Y207413D01*
X224087Y204340D01*
X220073Y202677D01*
X215727Y202677D01*
G37*
%LPD*%
%LPC*%
G36*
X206129Y190199D02*
X206129Y190199D01*
X206255Y190996D01*
X206836Y192783D01*
X207689Y194457D01*
X208794Y195978D01*
X210122Y197306D01*
X211643Y198411D01*
X213317Y199264D01*
X215104Y199845D01*
X215901Y199971D01*
X215901Y190199D01*
X206129Y190199D01*
G37*
%LPD*%
%LPC*%
G36*
X215104Y176555D02*
X215104Y176555D01*
X213317Y177136D01*
X211643Y177989D01*
X210122Y179094D01*
X208794Y180422D01*
X207689Y181943D01*
X206836Y183617D01*
X206255Y185404D01*
X206129Y186201D01*
X215901Y186201D01*
X215901Y176429D01*
X215104Y176555D01*
G37*
%LPD*%
D10*
X92900Y188200D03*
X92900Y213600D03*
X92900Y239000D03*
X92900Y264400D03*
X92900Y289800D03*
X217900Y188200D03*
X217900Y213600D03*
X217900Y239000D03*
X217900Y264400D03*
X217900Y289800D03*
D11*
X165608Y282448D02*
X161544Y278384D01*
X165608Y282448D02*
X204216Y282448D01*
X211328Y289560D01*
X217424Y289560D01*
X217900Y289800D01*
D12*
X161544Y278384D03*
D11*
X171704Y255016D02*
X171704Y211328D01*
X171704Y255016D02*
X163576Y263144D01*
X163576Y269240D01*
X168656Y274320D01*
X202184Y274320D01*
X211328Y265176D01*
X217424Y265176D01*
X217900Y264400D01*
D12*
X171704Y211328D03*
D13*
X118872Y241808D02*
X118872Y259080D01*
X118872Y241808D02*
X93472Y216408D01*
X93472Y214376D01*
X92900Y213600D01*
D12*
X118872Y259080D03*
D13*
X131064Y238760D02*
X131064Y228600D01*
X93472Y191008D01*
X93472Y188976D01*
X92900Y188200D01*
D12*
X131064Y238760D03*
D11*
X171704Y266192D02*
X184912Y266192D01*
X211328Y239776D01*
X217424Y239776D01*
X217900Y239000D01*
D12*
X171704Y266192D03*
M02*
