G04 EAGLE Gerber RS-274X export*
G75*
%MOMM*%
%FSLAX34Y34*%
%LPD*%
%INTop Copper*%
%IPPOS*%
%AMOC8*
5,1,8,0,0,1.08239X$1,22.5*%
G01*
%ADD10R,1.300000X1.500000*%
%ADD11C,1.879600*%
%ADD12R,1.200000X0.600000*%
%ADD13C,0.152400*%
%ADD14C,0.756400*%
%ADD15C,0.200000*%
%ADD16C,0.300000*%

G36*
X139629Y159165D02*
X139629Y159165D01*
X139662Y159163D01*
X139768Y159185D01*
X139877Y159201D01*
X139906Y159214D01*
X139938Y159220D01*
X140034Y159272D01*
X140134Y159317D01*
X140158Y159338D01*
X140187Y159353D01*
X140265Y159429D01*
X140348Y159500D01*
X140366Y159527D01*
X140389Y159550D01*
X140442Y159645D01*
X140502Y159736D01*
X140512Y159767D01*
X140528Y159795D01*
X140553Y159901D01*
X140585Y160006D01*
X140585Y160038D01*
X140593Y160069D01*
X140587Y160179D01*
X140588Y160288D01*
X140580Y160319D01*
X140578Y160351D01*
X140542Y160454D01*
X140513Y160560D01*
X140496Y160587D01*
X140486Y160618D01*
X140432Y160691D01*
X140365Y160800D01*
X140329Y160832D01*
X140304Y160867D01*
X139399Y161771D01*
X139399Y178429D01*
X140571Y179601D01*
X143328Y179601D01*
X143392Y179610D01*
X143456Y179609D01*
X143531Y179630D01*
X143607Y179641D01*
X143666Y179667D01*
X143728Y179684D01*
X143794Y179725D01*
X143864Y179757D01*
X143913Y179799D01*
X143968Y179832D01*
X144020Y179890D01*
X144078Y179940D01*
X144114Y179994D01*
X144157Y180042D01*
X144190Y180111D01*
X144233Y180176D01*
X144252Y180238D01*
X144280Y180295D01*
X144291Y180365D01*
X144315Y180446D01*
X144316Y180531D01*
X144327Y180600D01*
X144327Y196593D01*
X144323Y196625D01*
X144325Y196657D01*
X144303Y196764D01*
X144287Y196872D01*
X144274Y196902D01*
X144268Y196933D01*
X144216Y197030D01*
X144171Y197129D01*
X144150Y197154D01*
X144135Y197182D01*
X144059Y197260D01*
X143988Y197343D01*
X143961Y197361D01*
X143938Y197384D01*
X143843Y197438D01*
X143752Y197498D01*
X143721Y197507D01*
X143693Y197523D01*
X143587Y197548D01*
X143482Y197580D01*
X143450Y197581D01*
X143419Y197588D01*
X143309Y197583D01*
X143200Y197584D01*
X143169Y197575D01*
X143137Y197574D01*
X143034Y197538D01*
X142928Y197509D01*
X142901Y197492D01*
X142870Y197481D01*
X142797Y197428D01*
X142688Y197361D01*
X142656Y197325D01*
X142621Y197300D01*
X141917Y196595D01*
X139424Y196595D01*
X139360Y196586D01*
X139296Y196587D01*
X139221Y196566D01*
X139145Y196555D01*
X139086Y196529D01*
X139024Y196512D01*
X138958Y196471D01*
X138888Y196439D01*
X138839Y196397D01*
X138784Y196364D01*
X138732Y196306D01*
X138674Y196256D01*
X138638Y196202D01*
X138595Y196154D01*
X138562Y196085D01*
X138519Y196020D01*
X138500Y195958D01*
X138472Y195901D01*
X138461Y195831D01*
X138437Y195750D01*
X138436Y195665D01*
X138425Y195596D01*
X138425Y194968D01*
X137763Y194307D01*
X137724Y194255D01*
X137678Y194210D01*
X137640Y194143D01*
X137594Y194081D01*
X137571Y194021D01*
X137539Y193965D01*
X137521Y193890D01*
X137494Y193817D01*
X137489Y193753D01*
X137474Y193691D01*
X137478Y193613D01*
X137472Y193536D01*
X137485Y193473D01*
X137489Y193409D01*
X137514Y193336D01*
X137530Y193260D01*
X137560Y193203D01*
X137581Y193142D01*
X137622Y193086D01*
X137662Y193011D01*
X137722Y192950D01*
X137763Y192893D01*
X138425Y192232D01*
X138425Y184968D01*
X137532Y184075D01*
X124268Y184075D01*
X123375Y184968D01*
X123375Y185690D01*
X123366Y185754D01*
X123367Y185818D01*
X123346Y185893D01*
X123335Y185969D01*
X123309Y186028D01*
X123292Y186090D01*
X123251Y186156D01*
X123219Y186226D01*
X123177Y186275D01*
X123144Y186330D01*
X123086Y186382D01*
X123036Y186440D01*
X122982Y186476D01*
X122934Y186519D01*
X122865Y186552D01*
X122800Y186595D01*
X122738Y186614D01*
X122681Y186642D01*
X122611Y186653D01*
X122530Y186677D01*
X122445Y186678D01*
X122376Y186689D01*
X120211Y186689D01*
X116585Y190315D01*
X116585Y206665D01*
X116572Y206760D01*
X116567Y206856D01*
X116552Y206899D01*
X116545Y206944D01*
X116506Y207032D01*
X116474Y207122D01*
X116449Y207157D01*
X116429Y207201D01*
X116346Y207298D01*
X116293Y207371D01*
X106026Y217638D01*
X106025Y217639D01*
X104498Y219166D01*
X104428Y219218D01*
X104376Y219267D01*
X104380Y219334D01*
X104393Y219419D01*
X104393Y221143D01*
X104385Y221204D01*
X104385Y221242D01*
X104378Y221267D01*
X104375Y221334D01*
X104360Y221377D01*
X104353Y221422D01*
X104314Y221510D01*
X104282Y221600D01*
X104257Y221635D01*
X104237Y221679D01*
X104154Y221776D01*
X104101Y221849D01*
X97525Y228425D01*
X97517Y228431D01*
X97511Y228438D01*
X97404Y228516D01*
X97299Y228595D01*
X97290Y228598D01*
X97283Y228603D01*
X97159Y228647D01*
X97035Y228694D01*
X97026Y228695D01*
X97017Y228698D01*
X96885Y228706D01*
X96754Y228716D01*
X96745Y228714D01*
X96735Y228715D01*
X96660Y228696D01*
X96478Y228658D01*
X96457Y228647D01*
X96436Y228642D01*
X95073Y228077D01*
X90727Y228077D01*
X86713Y229740D01*
X83640Y232813D01*
X81977Y236827D01*
X81977Y241173D01*
X83640Y245187D01*
X86713Y248260D01*
X90727Y249923D01*
X95073Y249923D01*
X99087Y248260D01*
X102160Y245187D01*
X103823Y241173D01*
X103823Y236672D01*
X103823Y236671D01*
X103823Y236670D01*
X103823Y236629D01*
X103833Y236556D01*
X103836Y236458D01*
X103846Y236425D01*
X103850Y236390D01*
X103861Y236363D01*
X103863Y236349D01*
X103890Y236288D01*
X103922Y236190D01*
X103941Y236161D01*
X103954Y236128D01*
X103974Y236103D01*
X103979Y236092D01*
X104018Y236046D01*
X104020Y236044D01*
X104079Y235956D01*
X104106Y235934D01*
X104128Y235906D01*
X104155Y235886D01*
X104162Y235878D01*
X104208Y235848D01*
X104214Y235844D01*
X104296Y235775D01*
X104328Y235761D01*
X104356Y235741D01*
X104390Y235729D01*
X104398Y235724D01*
X104449Y235708D01*
X104457Y235705D01*
X104555Y235663D01*
X104589Y235658D01*
X104622Y235647D01*
X104657Y235644D01*
X104668Y235641D01*
X104724Y235641D01*
X104729Y235640D01*
X104834Y235627D01*
X104869Y235632D01*
X104904Y235630D01*
X104935Y235638D01*
X104950Y235638D01*
X105010Y235654D01*
X105113Y235670D01*
X105159Y235692D01*
X105203Y235703D01*
X106062Y236059D01*
X106071Y236063D01*
X106080Y236066D01*
X106192Y236135D01*
X106305Y236202D01*
X106312Y236209D01*
X106320Y236214D01*
X106408Y236312D01*
X106498Y236408D01*
X106502Y236416D01*
X106509Y236423D01*
X106566Y236541D01*
X106626Y236659D01*
X106628Y236669D01*
X106632Y236677D01*
X106644Y236753D01*
X106678Y236936D01*
X106676Y236960D01*
X106679Y236982D01*
X106679Y248597D01*
X108311Y250229D01*
X116293Y258211D01*
X116350Y258287D01*
X116415Y258359D01*
X116435Y258400D01*
X116462Y258436D01*
X116496Y258526D01*
X116538Y258612D01*
X116544Y258655D01*
X116561Y258700D01*
X116571Y258828D01*
X116585Y258917D01*
X116585Y275267D01*
X120973Y279655D01*
X122376Y279655D01*
X122440Y279664D01*
X122504Y279663D01*
X122579Y279684D01*
X122655Y279695D01*
X122714Y279721D01*
X122776Y279738D01*
X122842Y279779D01*
X122912Y279811D01*
X122961Y279853D01*
X123016Y279886D01*
X123068Y279944D01*
X123126Y279994D01*
X123162Y280048D01*
X123205Y280096D01*
X123238Y280165D01*
X123281Y280230D01*
X123300Y280292D01*
X123328Y280349D01*
X123339Y280419D01*
X123363Y280500D01*
X123364Y280585D01*
X123375Y280654D01*
X123375Y280732D01*
X123701Y281057D01*
X123739Y281108D01*
X123785Y281153D01*
X123823Y281220D01*
X123870Y281282D01*
X123893Y281343D01*
X123924Y281398D01*
X123942Y281474D01*
X123969Y281546D01*
X123974Y281610D01*
X123989Y281673D01*
X123985Y281750D01*
X123991Y281827D01*
X123978Y281890D01*
X123975Y281955D01*
X123949Y282028D01*
X123934Y282104D01*
X123903Y282160D01*
X123882Y282221D01*
X123841Y282278D01*
X123801Y282353D01*
X123742Y282413D01*
X123701Y282470D01*
X122899Y283271D01*
X122899Y290929D01*
X124071Y292101D01*
X126564Y292101D01*
X126628Y292110D01*
X126692Y292109D01*
X126767Y292130D01*
X126843Y292141D01*
X126902Y292167D01*
X126964Y292184D01*
X127030Y292225D01*
X127100Y292257D01*
X127149Y292299D01*
X127204Y292332D01*
X127256Y292390D01*
X127314Y292440D01*
X127350Y292494D01*
X127393Y292542D01*
X127426Y292611D01*
X127469Y292676D01*
X127488Y292738D01*
X127516Y292795D01*
X127527Y292865D01*
X127551Y292946D01*
X127552Y293031D01*
X127563Y293100D01*
X127563Y293442D01*
X127554Y293506D01*
X127555Y293570D01*
X127534Y293645D01*
X127523Y293721D01*
X127497Y293780D01*
X127480Y293842D01*
X127439Y293908D01*
X127407Y293978D01*
X127365Y294027D01*
X127332Y294082D01*
X127274Y294134D01*
X127224Y294192D01*
X127170Y294228D01*
X127122Y294271D01*
X127053Y294304D01*
X126988Y294347D01*
X126926Y294366D01*
X126869Y294394D01*
X126799Y294405D01*
X126718Y294429D01*
X126633Y294430D01*
X126564Y294441D01*
X113116Y294441D01*
X113021Y294428D01*
X112925Y294423D01*
X112882Y294408D01*
X112837Y294401D01*
X112749Y294362D01*
X112658Y294330D01*
X112624Y294305D01*
X112580Y294285D01*
X112482Y294202D01*
X112409Y294149D01*
X106606Y288345D01*
X105298Y288345D01*
X105234Y288336D01*
X105170Y288337D01*
X105095Y288316D01*
X105019Y288305D01*
X104960Y288279D01*
X104898Y288262D01*
X104832Y288221D01*
X104762Y288189D01*
X104713Y288147D01*
X104658Y288114D01*
X104606Y288056D01*
X104548Y288006D01*
X104512Y287952D01*
X104469Y287904D01*
X104436Y287835D01*
X104393Y287770D01*
X104379Y287723D01*
X104375Y287716D01*
X104355Y287669D01*
X104346Y287651D01*
X104346Y287646D01*
X102563Y283343D01*
X99357Y280137D01*
X95167Y278401D01*
X90633Y278401D01*
X86443Y280137D01*
X83237Y283343D01*
X81501Y287533D01*
X81501Y292067D01*
X83237Y296257D01*
X86443Y299463D01*
X90633Y301199D01*
X95167Y301199D01*
X99357Y299463D01*
X102563Y296257D01*
X102592Y296187D01*
X102653Y296085D01*
X102708Y295980D01*
X102724Y295964D01*
X102736Y295944D01*
X102822Y295863D01*
X102905Y295778D01*
X102925Y295767D01*
X102942Y295751D01*
X103047Y295698D01*
X103151Y295639D01*
X103173Y295634D01*
X103193Y295624D01*
X103309Y295602D01*
X103425Y295574D01*
X103448Y295575D01*
X103470Y295571D01*
X103588Y295583D01*
X103707Y295589D01*
X103728Y295596D01*
X103751Y295598D01*
X103861Y295642D01*
X103973Y295681D01*
X103991Y295694D01*
X104013Y295703D01*
X104160Y295818D01*
X104222Y295863D01*
X109802Y301443D01*
X130724Y301443D01*
X130819Y301456D01*
X130915Y301461D01*
X130958Y301476D01*
X131003Y301483D01*
X131091Y301522D01*
X131182Y301554D01*
X131216Y301579D01*
X131260Y301599D01*
X131357Y301682D01*
X131431Y301735D01*
X132605Y302909D01*
X132605Y302910D01*
X134948Y305253D01*
X138400Y305253D01*
X138464Y305262D01*
X138528Y305261D01*
X138603Y305282D01*
X138679Y305293D01*
X138738Y305319D01*
X138800Y305336D01*
X138866Y305377D01*
X138936Y305409D01*
X138985Y305451D01*
X139040Y305484D01*
X139092Y305542D01*
X139150Y305592D01*
X139186Y305646D01*
X139229Y305694D01*
X139262Y305763D01*
X139305Y305828D01*
X139324Y305890D01*
X139352Y305947D01*
X139363Y306017D01*
X139387Y306098D01*
X139388Y306183D01*
X139399Y306252D01*
X139399Y313829D01*
X140571Y315001D01*
X155229Y315001D01*
X156459Y313771D01*
X156502Y313739D01*
X156538Y313699D01*
X156614Y313654D01*
X156684Y313601D01*
X156734Y313583D01*
X156781Y313555D01*
X156866Y313533D01*
X156948Y313502D01*
X157002Y313498D01*
X157054Y313484D01*
X157142Y313487D01*
X157229Y313480D01*
X157282Y313491D01*
X157335Y313493D01*
X157419Y313520D01*
X157505Y313538D01*
X157553Y313563D01*
X157604Y313579D01*
X157677Y313629D01*
X157754Y313670D01*
X157793Y313708D01*
X157837Y313738D01*
X157886Y313799D01*
X157956Y313867D01*
X157992Y313930D01*
X158031Y313978D01*
X158367Y314560D01*
X158840Y315033D01*
X159419Y315368D01*
X160065Y315541D01*
X164901Y315541D01*
X164901Y306500D01*
X164910Y306436D01*
X164909Y306372D01*
X164930Y306298D01*
X164941Y306221D01*
X164967Y306162D01*
X164984Y306100D01*
X165025Y306034D01*
X165057Y305964D01*
X165099Y305915D01*
X165132Y305860D01*
X165190Y305809D01*
X165240Y305750D01*
X165294Y305714D01*
X165342Y305671D01*
X165411Y305638D01*
X165476Y305595D01*
X165538Y305576D01*
X165595Y305548D01*
X165665Y305538D01*
X165746Y305513D01*
X165831Y305512D01*
X165900Y305501D01*
X166901Y305501D01*
X166901Y305499D01*
X165900Y305499D01*
X165836Y305490D01*
X165772Y305491D01*
X165697Y305470D01*
X165621Y305459D01*
X165562Y305433D01*
X165500Y305416D01*
X165434Y305375D01*
X165364Y305343D01*
X165315Y305301D01*
X165260Y305268D01*
X165208Y305210D01*
X165150Y305160D01*
X165114Y305106D01*
X165071Y305058D01*
X165038Y304989D01*
X164995Y304924D01*
X164976Y304862D01*
X164948Y304804D01*
X164938Y304735D01*
X164913Y304654D01*
X164912Y304569D01*
X164901Y304500D01*
X164901Y295459D01*
X160065Y295459D01*
X159419Y295632D01*
X158840Y295967D01*
X158367Y296440D01*
X158031Y297022D01*
X157998Y297065D01*
X157972Y297112D01*
X157911Y297175D01*
X157857Y297244D01*
X157813Y297275D01*
X157776Y297314D01*
X157699Y297357D01*
X157627Y297409D01*
X157577Y297426D01*
X157530Y297453D01*
X157444Y297473D01*
X157362Y297502D01*
X157308Y297505D01*
X157256Y297518D01*
X157168Y297513D01*
X157080Y297518D01*
X157028Y297506D01*
X156974Y297503D01*
X156891Y297475D01*
X156805Y297455D01*
X156758Y297429D01*
X156708Y297411D01*
X156644Y297365D01*
X156559Y297317D01*
X156508Y297265D01*
X156459Y297229D01*
X155229Y295999D01*
X140571Y295999D01*
X139399Y297171D01*
X139399Y297252D01*
X139390Y297316D01*
X139391Y297380D01*
X139370Y297455D01*
X139359Y297531D01*
X139333Y297590D01*
X139316Y297652D01*
X139275Y297718D01*
X139243Y297788D01*
X139201Y297837D01*
X139168Y297892D01*
X139110Y297944D01*
X139060Y298002D01*
X139006Y298038D01*
X138958Y298081D01*
X138889Y298114D01*
X138824Y298157D01*
X138762Y298176D01*
X138705Y298204D01*
X138635Y298215D01*
X138554Y298239D01*
X138469Y298240D01*
X138400Y298251D01*
X138262Y298251D01*
X138167Y298238D01*
X138071Y298233D01*
X138028Y298218D01*
X137983Y298211D01*
X137895Y298172D01*
X137804Y298140D01*
X137770Y298115D01*
X137726Y298095D01*
X137629Y298012D01*
X137555Y297959D01*
X134857Y295261D01*
X134800Y295184D01*
X134735Y295112D01*
X134715Y295071D01*
X134688Y295035D01*
X134654Y294945D01*
X134612Y294859D01*
X134606Y294817D01*
X134589Y294771D01*
X134579Y294644D01*
X134565Y294554D01*
X134565Y293100D01*
X134574Y293036D01*
X134573Y292972D01*
X134594Y292897D01*
X134605Y292821D01*
X134631Y292762D01*
X134648Y292700D01*
X134689Y292634D01*
X134721Y292564D01*
X134763Y292515D01*
X134796Y292460D01*
X134854Y292408D01*
X134904Y292350D01*
X134958Y292314D01*
X135006Y292271D01*
X135075Y292238D01*
X135140Y292195D01*
X135202Y292176D01*
X135259Y292148D01*
X135329Y292137D01*
X135410Y292113D01*
X135495Y292112D01*
X135564Y292101D01*
X137729Y292101D01*
X138909Y290920D01*
X138909Y290884D01*
X138930Y290809D01*
X138941Y290733D01*
X138967Y290674D01*
X138984Y290612D01*
X139025Y290546D01*
X139057Y290476D01*
X139099Y290427D01*
X139132Y290372D01*
X139190Y290320D01*
X139240Y290262D01*
X139294Y290226D01*
X139342Y290183D01*
X139411Y290150D01*
X139476Y290107D01*
X139538Y290088D01*
X139595Y290060D01*
X139665Y290049D01*
X139746Y290025D01*
X139831Y290024D01*
X139900Y290013D01*
X142420Y290013D01*
X148281Y284152D01*
X148281Y228178D01*
X148294Y228083D01*
X148299Y227987D01*
X148314Y227944D01*
X148321Y227899D01*
X148360Y227811D01*
X148392Y227720D01*
X148417Y227686D01*
X148437Y227642D01*
X148520Y227545D01*
X148573Y227471D01*
X148985Y227059D01*
X148986Y227059D01*
X151329Y224716D01*
X151329Y180600D01*
X151338Y180536D01*
X151337Y180472D01*
X151358Y180397D01*
X151369Y180321D01*
X151395Y180262D01*
X151412Y180200D01*
X151453Y180134D01*
X151485Y180064D01*
X151527Y180015D01*
X151560Y179960D01*
X151618Y179908D01*
X151668Y179850D01*
X151722Y179814D01*
X151770Y179771D01*
X151839Y179738D01*
X151904Y179695D01*
X151966Y179676D01*
X152023Y179648D01*
X152093Y179637D01*
X152174Y179613D01*
X152259Y179612D01*
X152328Y179601D01*
X155229Y179601D01*
X156459Y178371D01*
X156502Y178339D01*
X156538Y178299D01*
X156614Y178254D01*
X156684Y178201D01*
X156734Y178183D01*
X156781Y178155D01*
X156866Y178133D01*
X156948Y178102D01*
X157002Y178098D01*
X157054Y178084D01*
X157142Y178087D01*
X157229Y178080D01*
X157282Y178091D01*
X157335Y178093D01*
X157419Y178120D01*
X157505Y178138D01*
X157553Y178163D01*
X157604Y178179D01*
X157677Y178229D01*
X157754Y178270D01*
X157793Y178308D01*
X157837Y178338D01*
X157886Y178399D01*
X157956Y178467D01*
X157992Y178530D01*
X158031Y178578D01*
X158367Y179160D01*
X158840Y179633D01*
X159419Y179968D01*
X160065Y180141D01*
X164901Y180141D01*
X164901Y171100D01*
X164909Y171041D01*
X164909Y171024D01*
X164910Y171021D01*
X164909Y170972D01*
X164930Y170898D01*
X164941Y170821D01*
X164967Y170762D01*
X164984Y170700D01*
X165025Y170634D01*
X165057Y170564D01*
X165099Y170515D01*
X165132Y170460D01*
X165190Y170409D01*
X165240Y170350D01*
X165294Y170314D01*
X165342Y170271D01*
X165411Y170238D01*
X165476Y170195D01*
X165538Y170176D01*
X165595Y170148D01*
X165665Y170138D01*
X165746Y170113D01*
X165831Y170112D01*
X165900Y170101D01*
X166901Y170101D01*
X166901Y169100D01*
X166909Y169041D01*
X166909Y169025D01*
X166910Y169023D01*
X166909Y168972D01*
X166930Y168897D01*
X166941Y168821D01*
X166967Y168762D01*
X166984Y168700D01*
X167025Y168634D01*
X167057Y168564D01*
X167099Y168515D01*
X167132Y168460D01*
X167190Y168408D01*
X167240Y168350D01*
X167294Y168314D01*
X167342Y168271D01*
X167411Y168238D01*
X167476Y168195D01*
X167538Y168176D01*
X167596Y168148D01*
X167665Y168138D01*
X167746Y168113D01*
X167831Y168112D01*
X167900Y168101D01*
X175941Y168101D01*
X175941Y162265D01*
X175768Y161619D01*
X175433Y161040D01*
X175260Y160867D01*
X175240Y160841D01*
X175216Y160820D01*
X175156Y160728D01*
X175090Y160641D01*
X175079Y160611D01*
X175061Y160584D01*
X175030Y160480D01*
X174991Y160377D01*
X174988Y160345D01*
X174979Y160314D01*
X174978Y160205D01*
X174969Y160096D01*
X174976Y160064D01*
X174975Y160032D01*
X175004Y159927D01*
X175027Y159820D01*
X175042Y159791D01*
X175050Y159760D01*
X175108Y159667D01*
X175159Y159571D01*
X175182Y159548D01*
X175199Y159520D01*
X175280Y159447D01*
X175356Y159369D01*
X175384Y159353D01*
X175408Y159331D01*
X175506Y159284D01*
X175601Y159230D01*
X175633Y159222D01*
X175662Y159208D01*
X175751Y159194D01*
X175876Y159165D01*
X175924Y159167D01*
X175966Y159161D01*
X219574Y159161D01*
X219655Y159172D01*
X219736Y159174D01*
X219793Y159192D01*
X219853Y159201D01*
X219927Y159234D01*
X220005Y159258D01*
X220051Y159290D01*
X220110Y159317D01*
X220191Y159386D01*
X220259Y159432D01*
X230525Y169094D01*
X230594Y169181D01*
X230669Y169264D01*
X230682Y169291D01*
X230701Y169315D01*
X230743Y169417D01*
X230792Y169517D01*
X230796Y169546D01*
X230808Y169575D01*
X230826Y169734D01*
X230839Y169822D01*
X230839Y183135D01*
X230833Y183183D01*
X230835Y183230D01*
X230813Y183321D01*
X230799Y183414D01*
X230780Y183458D01*
X230769Y183504D01*
X230722Y183586D01*
X230683Y183671D01*
X230652Y183708D01*
X230628Y183749D01*
X230561Y183814D01*
X230500Y183886D01*
X230460Y183912D01*
X230426Y183945D01*
X230342Y183989D01*
X230264Y184040D01*
X230218Y184054D01*
X230176Y184076D01*
X230084Y184095D01*
X229994Y184123D01*
X229946Y184123D01*
X229900Y184133D01*
X229806Y184125D01*
X229712Y184126D01*
X229666Y184114D01*
X229619Y184110D01*
X229531Y184076D01*
X229440Y184051D01*
X229400Y184026D01*
X229355Y184009D01*
X229280Y183952D01*
X229200Y183903D01*
X229168Y183867D01*
X229130Y183839D01*
X229082Y183772D01*
X229011Y183694D01*
X228983Y183635D01*
X228950Y183589D01*
X228111Y181943D01*
X227006Y180422D01*
X225678Y179094D01*
X224157Y177989D01*
X222483Y177136D01*
X220696Y176555D01*
X219899Y176429D01*
X219899Y187200D01*
X219891Y187258D01*
X219891Y187268D01*
X219890Y187270D01*
X219891Y187328D01*
X219870Y187402D01*
X219859Y187479D01*
X219833Y187538D01*
X219816Y187600D01*
X219775Y187666D01*
X219743Y187736D01*
X219701Y187785D01*
X219668Y187840D01*
X219610Y187891D01*
X219560Y187950D01*
X219506Y187986D01*
X219458Y188029D01*
X219389Y188062D01*
X219324Y188105D01*
X219262Y188124D01*
X219205Y188152D01*
X219135Y188162D01*
X219054Y188187D01*
X218969Y188188D01*
X218900Y188199D01*
X217899Y188199D01*
X217899Y188201D01*
X218900Y188201D01*
X218964Y188210D01*
X219028Y188209D01*
X219103Y188230D01*
X219179Y188241D01*
X219238Y188267D01*
X219300Y188284D01*
X219366Y188325D01*
X219436Y188357D01*
X219485Y188399D01*
X219540Y188432D01*
X219592Y188490D01*
X219650Y188540D01*
X219686Y188594D01*
X219729Y188642D01*
X219762Y188711D01*
X219805Y188776D01*
X219824Y188838D01*
X219852Y188896D01*
X219862Y188965D01*
X219887Y189046D01*
X219888Y189131D01*
X219899Y189200D01*
X219899Y199971D01*
X220696Y199845D01*
X222483Y199264D01*
X224157Y198411D01*
X225678Y197306D01*
X227006Y195978D01*
X228111Y194457D01*
X228950Y192811D01*
X228977Y192772D01*
X228997Y192729D01*
X229058Y192657D01*
X229112Y192580D01*
X229149Y192551D01*
X229180Y192514D01*
X229259Y192463D01*
X229332Y192404D01*
X229376Y192386D01*
X229416Y192360D01*
X229506Y192332D01*
X229593Y192297D01*
X229640Y192291D01*
X229686Y192277D01*
X229780Y192276D01*
X229873Y192266D01*
X229920Y192274D01*
X229968Y192274D01*
X230058Y192299D01*
X230151Y192315D01*
X230194Y192336D01*
X230240Y192349D01*
X230320Y192398D01*
X230404Y192440D01*
X230439Y192472D01*
X230480Y192497D01*
X230543Y192567D01*
X230612Y192630D01*
X230637Y192671D01*
X230669Y192706D01*
X230710Y192791D01*
X230758Y192871D01*
X230771Y192917D01*
X230792Y192960D01*
X230804Y193041D01*
X230832Y193143D01*
X230831Y193209D01*
X230839Y193265D01*
X230839Y307178D01*
X230824Y307288D01*
X230815Y307399D01*
X230804Y307427D01*
X230799Y307457D01*
X230754Y307558D01*
X230714Y307662D01*
X230696Y307685D01*
X230683Y307714D01*
X230580Y307835D01*
X230525Y307906D01*
X220259Y317568D01*
X220193Y317614D01*
X220133Y317669D01*
X220078Y317695D01*
X220028Y317730D01*
X219952Y317756D01*
X219879Y317792D01*
X219823Y317800D01*
X219762Y317822D01*
X219656Y317826D01*
X219574Y317839D01*
X90426Y317839D01*
X90345Y317828D01*
X90264Y317826D01*
X90207Y317808D01*
X90147Y317799D01*
X90073Y317766D01*
X89995Y317742D01*
X89949Y317710D01*
X89890Y317683D01*
X89809Y317614D01*
X89741Y317568D01*
X79475Y307906D01*
X79406Y307819D01*
X79331Y307736D01*
X79318Y307709D01*
X79299Y307685D01*
X79257Y307583D01*
X79208Y307483D01*
X79204Y307454D01*
X79192Y307425D01*
X79174Y307266D01*
X79161Y307178D01*
X79161Y169822D01*
X79176Y169712D01*
X79185Y169601D01*
X79196Y169573D01*
X79201Y169543D01*
X79246Y169442D01*
X79286Y169338D01*
X79304Y169315D01*
X79317Y169286D01*
X79420Y169165D01*
X79475Y169094D01*
X89741Y159432D01*
X89807Y159386D01*
X89867Y159331D01*
X89922Y159305D01*
X89972Y159270D01*
X90048Y159244D01*
X90121Y159208D01*
X90177Y159200D01*
X90238Y159178D01*
X90344Y159174D01*
X90426Y159161D01*
X139597Y159161D01*
X139629Y159165D01*
G37*
%LPC*%
G36*
X183889Y189962D02*
X183889Y189962D01*
X183824Y190005D01*
X183762Y190024D01*
X183704Y190052D01*
X183635Y190063D01*
X183554Y190087D01*
X183469Y190088D01*
X183400Y190099D01*
X175359Y190099D01*
X175359Y191935D01*
X175532Y192581D01*
X175867Y193160D01*
X176319Y193612D01*
X176357Y193663D01*
X176403Y193708D01*
X176442Y193776D01*
X176488Y193837D01*
X176511Y193898D01*
X176542Y193954D01*
X176560Y194029D01*
X176588Y194101D01*
X176592Y194165D01*
X176607Y194228D01*
X176603Y194305D01*
X176609Y194382D01*
X176596Y194445D01*
X176593Y194510D01*
X176568Y194583D01*
X176552Y194659D01*
X176521Y194715D01*
X176500Y194776D01*
X176459Y194833D01*
X176419Y194908D01*
X176375Y194953D01*
X176375Y202232D01*
X177037Y202893D01*
X177076Y202945D01*
X177122Y202990D01*
X177160Y203057D01*
X177206Y203119D01*
X177229Y203179D01*
X177261Y203235D01*
X177279Y203310D01*
X177306Y203383D01*
X177311Y203447D01*
X177326Y203509D01*
X177322Y203587D01*
X177328Y203664D01*
X177315Y203727D01*
X177311Y203791D01*
X177286Y203864D01*
X177270Y203940D01*
X177240Y203997D01*
X177219Y204058D01*
X177178Y204114D01*
X177138Y204189D01*
X177078Y204250D01*
X177037Y204307D01*
X176375Y204968D01*
X176375Y205264D01*
X176366Y205328D01*
X176367Y205392D01*
X176346Y205467D01*
X176335Y205543D01*
X176309Y205602D01*
X176292Y205664D01*
X176251Y205730D01*
X176219Y205800D01*
X176177Y205849D01*
X176144Y205904D01*
X176086Y205956D01*
X176036Y206014D01*
X175982Y206050D01*
X175934Y206093D01*
X175865Y206126D01*
X175800Y206169D01*
X175738Y206188D01*
X175681Y206216D01*
X175611Y206227D01*
X175530Y206251D01*
X175445Y206252D01*
X175376Y206263D01*
X172690Y206263D01*
X168925Y210028D01*
X168925Y227140D01*
X168917Y227201D01*
X168917Y227238D01*
X168910Y227262D01*
X168907Y227331D01*
X168892Y227375D01*
X168885Y227420D01*
X168846Y227507D01*
X168814Y227598D01*
X168789Y227632D01*
X168769Y227676D01*
X168686Y227774D01*
X168633Y227847D01*
X165115Y231364D01*
X165115Y286796D01*
X170156Y291837D01*
X170157Y291837D01*
X172073Y293753D01*
X172092Y293779D01*
X172117Y293800D01*
X172177Y293892D01*
X172242Y293979D01*
X172254Y294009D01*
X172271Y294036D01*
X172303Y294141D01*
X172342Y294243D01*
X172344Y294275D01*
X172354Y294306D01*
X172355Y294415D01*
X172364Y294524D01*
X172357Y294556D01*
X172357Y294588D01*
X172328Y294693D01*
X172306Y294800D01*
X172291Y294829D01*
X172282Y294860D01*
X172225Y294953D01*
X172173Y295049D01*
X172151Y295072D01*
X172134Y295100D01*
X172053Y295173D01*
X171977Y295251D01*
X171949Y295267D01*
X171925Y295289D01*
X171826Y295336D01*
X171731Y295390D01*
X171700Y295398D01*
X171671Y295412D01*
X171582Y295426D01*
X171457Y295455D01*
X171408Y295453D01*
X171366Y295459D01*
X168899Y295459D01*
X168899Y303501D01*
X175941Y303501D01*
X175941Y297665D01*
X175803Y297153D01*
X175797Y297099D01*
X175781Y297048D01*
X175780Y296960D01*
X175769Y296873D01*
X175778Y296820D01*
X175777Y296766D01*
X175801Y296681D01*
X175815Y296594D01*
X175838Y296546D01*
X175853Y296494D01*
X175899Y296419D01*
X175937Y296340D01*
X175973Y296300D01*
X176001Y296254D01*
X176066Y296195D01*
X176125Y296130D01*
X176170Y296101D01*
X176210Y296065D01*
X176289Y296027D01*
X176364Y295980D01*
X176416Y295966D01*
X176464Y295942D01*
X176541Y295930D01*
X176635Y295904D01*
X176708Y295904D01*
X176768Y295895D01*
X177610Y295895D01*
X177705Y295908D01*
X177801Y295913D01*
X177845Y295928D01*
X177890Y295935D01*
X177977Y295974D01*
X178068Y296006D01*
X178102Y296031D01*
X178146Y296051D01*
X178244Y296134D01*
X178317Y296187D01*
X181072Y298943D01*
X203738Y298943D01*
X207012Y295668D01*
X207108Y295597D01*
X207199Y295521D01*
X207220Y295513D01*
X207238Y295499D01*
X207349Y295457D01*
X207458Y295410D01*
X207481Y295407D01*
X207502Y295399D01*
X207620Y295390D01*
X207738Y295376D01*
X207760Y295379D01*
X207783Y295377D01*
X207899Y295402D01*
X208016Y295421D01*
X208037Y295430D01*
X208059Y295435D01*
X208164Y295491D01*
X208271Y295542D01*
X208288Y295557D01*
X208308Y295568D01*
X208393Y295650D01*
X208482Y295729D01*
X208493Y295748D01*
X208510Y295764D01*
X208602Y295927D01*
X208638Y295985D01*
X211713Y299060D01*
X215727Y300723D01*
X220073Y300723D01*
X224087Y299060D01*
X227160Y295987D01*
X228823Y291973D01*
X228823Y287627D01*
X227160Y283613D01*
X224087Y280540D01*
X220073Y278877D01*
X215727Y278877D01*
X211713Y280540D01*
X208640Y283613D01*
X206977Y287627D01*
X206977Y289084D01*
X206968Y289146D01*
X206969Y289191D01*
X206969Y289192D01*
X206969Y289212D01*
X206948Y289287D01*
X206937Y289363D01*
X206911Y289422D01*
X206894Y289484D01*
X206853Y289550D01*
X206821Y289620D01*
X206779Y289669D01*
X206746Y289724D01*
X206688Y289776D01*
X206638Y289834D01*
X206584Y289870D01*
X206536Y289913D01*
X206467Y289946D01*
X206402Y289989D01*
X206340Y290008D01*
X206283Y290036D01*
X206213Y290047D01*
X206132Y290071D01*
X206047Y290072D01*
X205978Y290083D01*
X205456Y290083D01*
X201939Y293601D01*
X201862Y293658D01*
X201791Y293723D01*
X201750Y293743D01*
X201713Y293770D01*
X201623Y293804D01*
X201537Y293846D01*
X201495Y293852D01*
X201449Y293869D01*
X201322Y293879D01*
X201232Y293893D01*
X183578Y293893D01*
X183483Y293880D01*
X183387Y293875D01*
X183344Y293860D01*
X183298Y293853D01*
X183211Y293814D01*
X183120Y293782D01*
X183086Y293757D01*
X183042Y293737D01*
X182944Y293654D01*
X182871Y293601D01*
X182601Y293331D01*
X182582Y293305D01*
X182557Y293284D01*
X182497Y293192D01*
X182432Y293105D01*
X182420Y293075D01*
X182403Y293048D01*
X182371Y292944D01*
X182332Y292841D01*
X182330Y292809D01*
X182320Y292778D01*
X182319Y292669D01*
X182310Y292560D01*
X182317Y292528D01*
X182317Y292496D01*
X182346Y292391D01*
X182368Y292284D01*
X182383Y292255D01*
X182392Y292224D01*
X182449Y292131D01*
X182500Y292035D01*
X182523Y292012D01*
X182540Y291984D01*
X182621Y291911D01*
X182697Y291833D01*
X182725Y291817D01*
X182749Y291795D01*
X182848Y291748D01*
X182943Y291694D01*
X182974Y291686D01*
X183003Y291672D01*
X183093Y291658D01*
X183217Y291629D01*
X183265Y291631D01*
X183308Y291625D01*
X190532Y291625D01*
X191434Y290723D01*
X191433Y290670D01*
X191454Y290595D01*
X191465Y290519D01*
X191491Y290460D01*
X191508Y290398D01*
X191549Y290332D01*
X191581Y290262D01*
X191623Y290213D01*
X191656Y290158D01*
X191714Y290106D01*
X191764Y290048D01*
X191818Y290012D01*
X191866Y289969D01*
X191935Y289936D01*
X192000Y289893D01*
X192062Y289874D01*
X192119Y289846D01*
X192189Y289835D01*
X192270Y289811D01*
X192355Y289810D01*
X192424Y289799D01*
X194594Y289799D01*
X204455Y279938D01*
X204455Y259016D01*
X204463Y258958D01*
X204468Y258921D01*
X204473Y258825D01*
X204488Y258781D01*
X204495Y258736D01*
X204534Y258649D01*
X204566Y258558D01*
X204591Y258524D01*
X204611Y258480D01*
X204694Y258382D01*
X204747Y258309D01*
X213421Y249635D01*
X213429Y249630D01*
X213435Y249622D01*
X213542Y249545D01*
X213647Y249466D01*
X213656Y249463D01*
X213663Y249457D01*
X213787Y249413D01*
X213911Y249366D01*
X213920Y249366D01*
X213929Y249363D01*
X214061Y249355D01*
X214192Y249345D01*
X214201Y249347D01*
X214211Y249346D01*
X214286Y249364D01*
X214468Y249402D01*
X214489Y249414D01*
X214510Y249419D01*
X215727Y249923D01*
X220073Y249923D01*
X224087Y248260D01*
X227160Y245187D01*
X228823Y241173D01*
X228823Y236827D01*
X227160Y232813D01*
X224087Y229740D01*
X220073Y228077D01*
X215727Y228077D01*
X211713Y229740D01*
X208640Y232813D01*
X206977Y236827D01*
X206977Y241173D01*
X208640Y245187D01*
X208978Y245525D01*
X209016Y245576D01*
X209062Y245621D01*
X209100Y245688D01*
X209147Y245750D01*
X209170Y245810D01*
X209201Y245866D01*
X209219Y245942D01*
X209246Y246014D01*
X209251Y246078D01*
X209266Y246141D01*
X209262Y246218D01*
X209268Y246295D01*
X209255Y246358D01*
X209252Y246422D01*
X209226Y246496D01*
X209211Y246571D01*
X209180Y246628D01*
X209159Y246689D01*
X209118Y246746D01*
X209078Y246820D01*
X209019Y246881D01*
X208978Y246938D01*
X206161Y249755D01*
X206135Y249774D01*
X206114Y249799D01*
X206022Y249859D01*
X205935Y249924D01*
X205905Y249936D01*
X205878Y249953D01*
X205773Y249985D01*
X205671Y250024D01*
X205639Y250026D01*
X205608Y250036D01*
X205499Y250037D01*
X205390Y250046D01*
X205358Y250039D01*
X205326Y250039D01*
X205221Y250010D01*
X205114Y249988D01*
X205085Y249973D01*
X205054Y249964D01*
X204961Y249907D01*
X204865Y249855D01*
X204842Y249833D01*
X204814Y249816D01*
X204741Y249735D01*
X204663Y249659D01*
X204647Y249631D01*
X204625Y249607D01*
X204578Y249508D01*
X204524Y249413D01*
X204516Y249382D01*
X204502Y249353D01*
X204488Y249264D01*
X204459Y249139D01*
X204461Y249090D01*
X204455Y249048D01*
X204455Y233108D01*
X204466Y233028D01*
X204465Y232977D01*
X204471Y232957D01*
X204473Y232917D01*
X204488Y232873D01*
X204495Y232828D01*
X204526Y232760D01*
X204541Y232706D01*
X204554Y232684D01*
X204566Y232650D01*
X204591Y232616D01*
X204611Y232572D01*
X204656Y232519D01*
X204689Y232466D01*
X204723Y232435D01*
X204747Y232401D01*
X213062Y224086D01*
X213070Y224081D01*
X213075Y224073D01*
X213182Y223996D01*
X213288Y223917D01*
X213297Y223914D01*
X213304Y223908D01*
X213428Y223864D01*
X213552Y223818D01*
X213561Y223817D01*
X213570Y223814D01*
X213701Y223806D01*
X213833Y223796D01*
X213842Y223798D01*
X213851Y223797D01*
X213927Y223815D01*
X214109Y223853D01*
X214130Y223865D01*
X214151Y223870D01*
X215727Y224523D01*
X220073Y224523D01*
X224087Y222860D01*
X227160Y219787D01*
X228823Y215773D01*
X228823Y211427D01*
X227160Y207413D01*
X224087Y204340D01*
X220073Y202677D01*
X215727Y202677D01*
X211713Y204340D01*
X208640Y207413D01*
X206977Y211427D01*
X206977Y215773D01*
X208640Y219787D01*
X208724Y219871D01*
X208762Y219922D01*
X208808Y219967D01*
X208846Y220034D01*
X208893Y220096D01*
X208916Y220156D01*
X208947Y220212D01*
X208965Y220288D01*
X208992Y220360D01*
X208997Y220424D01*
X209012Y220487D01*
X209008Y220564D01*
X209014Y220641D01*
X209001Y220704D01*
X208998Y220768D01*
X208972Y220842D01*
X208957Y220917D01*
X208926Y220974D01*
X208905Y221035D01*
X208864Y221092D01*
X208824Y221166D01*
X208765Y221227D01*
X208724Y221284D01*
X199405Y230602D01*
X199405Y250762D01*
X199392Y250857D01*
X199387Y250953D01*
X199372Y250997D01*
X199365Y251042D01*
X199326Y251129D01*
X199294Y251220D01*
X199269Y251254D01*
X199249Y251298D01*
X199166Y251396D01*
X199113Y251469D01*
X195843Y254739D01*
X195766Y254796D01*
X195695Y254861D01*
X195654Y254881D01*
X195617Y254908D01*
X195527Y254942D01*
X195441Y254984D01*
X195399Y254990D01*
X195353Y255007D01*
X195226Y255017D01*
X195136Y255031D01*
X192424Y255031D01*
X192360Y255022D01*
X192296Y255023D01*
X192221Y255002D01*
X192145Y254991D01*
X192086Y254965D01*
X192024Y254948D01*
X191958Y254907D01*
X191888Y254875D01*
X191839Y254833D01*
X191784Y254800D01*
X191732Y254742D01*
X191674Y254692D01*
X191638Y254638D01*
X191595Y254590D01*
X191562Y254521D01*
X191519Y254456D01*
X191500Y254394D01*
X191472Y254337D01*
X191461Y254267D01*
X191437Y254186D01*
X191436Y254101D01*
X191425Y254032D01*
X191425Y253456D01*
X191397Y253429D01*
X191359Y253361D01*
X191312Y253299D01*
X191289Y253239D01*
X191258Y253183D01*
X191240Y253108D01*
X191212Y253036D01*
X191208Y252972D01*
X191193Y252909D01*
X191197Y252832D01*
X191191Y252754D01*
X191204Y252691D01*
X191207Y252627D01*
X191232Y252554D01*
X191248Y252478D01*
X191278Y252422D01*
X191300Y252361D01*
X191341Y252304D01*
X191381Y252229D01*
X191440Y252169D01*
X191481Y252112D01*
X191933Y251660D01*
X192268Y251081D01*
X192441Y250435D01*
X192441Y248599D01*
X184400Y248599D01*
X184337Y248590D01*
X184272Y248591D01*
X184198Y248570D01*
X184121Y248559D01*
X184063Y248533D01*
X184001Y248516D01*
X183935Y248475D01*
X183897Y248458D01*
X183889Y248462D01*
X183824Y248505D01*
X183762Y248524D01*
X183704Y248552D01*
X183635Y248563D01*
X183554Y248587D01*
X183469Y248588D01*
X183400Y248599D01*
X175359Y248599D01*
X175359Y250435D01*
X175532Y251081D01*
X175867Y251660D01*
X176319Y252112D01*
X176357Y252163D01*
X176403Y252208D01*
X176442Y252276D01*
X176488Y252337D01*
X176511Y252398D01*
X176542Y252454D01*
X176560Y252529D01*
X176588Y252601D01*
X176592Y252665D01*
X176607Y252728D01*
X176603Y252805D01*
X176609Y252882D01*
X176596Y252945D01*
X176593Y253010D01*
X176568Y253083D01*
X176552Y253159D01*
X176521Y253215D01*
X176500Y253276D01*
X176459Y253333D01*
X176419Y253408D01*
X176375Y253453D01*
X176375Y260732D01*
X177037Y261393D01*
X177051Y261413D01*
X177064Y261424D01*
X177083Y261452D01*
X177122Y261490D01*
X177160Y261557D01*
X177206Y261619D01*
X177229Y261679D01*
X177261Y261735D01*
X177279Y261810D01*
X177306Y261883D01*
X177311Y261947D01*
X177326Y262009D01*
X177322Y262087D01*
X177328Y262164D01*
X177315Y262227D01*
X177311Y262291D01*
X177286Y262364D01*
X177270Y262440D01*
X177240Y262497D01*
X177219Y262558D01*
X177178Y262614D01*
X177138Y262689D01*
X177078Y262750D01*
X177037Y262807D01*
X176375Y263468D01*
X176375Y263938D01*
X176366Y264002D01*
X176367Y264066D01*
X176346Y264141D01*
X176335Y264217D01*
X176309Y264276D01*
X176292Y264338D01*
X176251Y264404D01*
X176219Y264474D01*
X176177Y264523D01*
X176144Y264578D01*
X176086Y264630D01*
X176036Y264688D01*
X175982Y264724D01*
X175934Y264767D01*
X175865Y264800D01*
X175800Y264843D01*
X175738Y264862D01*
X175681Y264890D01*
X175611Y264901D01*
X175530Y264925D01*
X175445Y264926D01*
X175376Y264937D01*
X172690Y264937D01*
X171871Y265757D01*
X171845Y265776D01*
X171824Y265801D01*
X171732Y265861D01*
X171645Y265926D01*
X171615Y265938D01*
X171588Y265955D01*
X171483Y265987D01*
X171381Y266026D01*
X171349Y266028D01*
X171318Y266038D01*
X171209Y266039D01*
X171100Y266048D01*
X171068Y266041D01*
X171036Y266041D01*
X170931Y266012D01*
X170824Y265990D01*
X170795Y265975D01*
X170764Y265966D01*
X170671Y265909D01*
X170575Y265857D01*
X170552Y265835D01*
X170524Y265818D01*
X170451Y265737D01*
X170373Y265661D01*
X170357Y265633D01*
X170335Y265609D01*
X170288Y265511D01*
X170234Y265415D01*
X170226Y265384D01*
X170212Y265355D01*
X170198Y265266D01*
X170169Y265141D01*
X170171Y265093D01*
X170165Y265050D01*
X170165Y233870D01*
X170178Y233775D01*
X170183Y233679D01*
X170198Y233635D01*
X170205Y233590D01*
X170244Y233503D01*
X170276Y233412D01*
X170301Y233378D01*
X170321Y233334D01*
X170404Y233236D01*
X170457Y233163D01*
X172203Y231417D01*
X172280Y231360D01*
X172351Y231295D01*
X172392Y231275D01*
X172429Y231248D01*
X172519Y231214D01*
X172605Y231172D01*
X172647Y231166D01*
X172693Y231149D01*
X172820Y231139D01*
X172910Y231125D01*
X175376Y231125D01*
X175440Y231134D01*
X175504Y231133D01*
X175579Y231154D01*
X175655Y231165D01*
X175714Y231191D01*
X175776Y231208D01*
X175842Y231249D01*
X175912Y231281D01*
X175961Y231323D01*
X176016Y231356D01*
X176068Y231414D01*
X176126Y231464D01*
X176162Y231518D01*
X176205Y231566D01*
X176238Y231635D01*
X176281Y231700D01*
X176300Y231762D01*
X176328Y231819D01*
X176339Y231889D01*
X176363Y231970D01*
X176364Y232055D01*
X176375Y232124D01*
X176375Y232232D01*
X177268Y233125D01*
X190532Y233125D01*
X191425Y232232D01*
X191425Y224968D01*
X190763Y224307D01*
X190724Y224255D01*
X190678Y224210D01*
X190640Y224143D01*
X190594Y224081D01*
X190571Y224021D01*
X190539Y223965D01*
X190521Y223890D01*
X190494Y223817D01*
X190489Y223753D01*
X190474Y223690D01*
X190478Y223613D01*
X190472Y223536D01*
X190485Y223473D01*
X190489Y223409D01*
X190514Y223336D01*
X190530Y223260D01*
X190560Y223203D01*
X190581Y223142D01*
X190623Y223086D01*
X190662Y223011D01*
X190722Y222950D01*
X190763Y222893D01*
X191425Y222232D01*
X191425Y222218D01*
X191434Y222154D01*
X191433Y222090D01*
X191454Y222015D01*
X191465Y221939D01*
X191491Y221880D01*
X191508Y221818D01*
X191549Y221752D01*
X191581Y221682D01*
X191623Y221633D01*
X191656Y221578D01*
X191714Y221526D01*
X191764Y221468D01*
X191818Y221432D01*
X191866Y221389D01*
X191935Y221356D01*
X192000Y221313D01*
X192062Y221294D01*
X192119Y221266D01*
X192189Y221255D01*
X192270Y221231D01*
X192355Y221230D01*
X192424Y221219D01*
X194594Y221219D01*
X195329Y220483D01*
X195406Y220426D01*
X195477Y220361D01*
X195518Y220341D01*
X195555Y220314D01*
X195645Y220280D01*
X195731Y220238D01*
X195773Y220232D01*
X195819Y220215D01*
X195946Y220205D01*
X196036Y220191D01*
X196890Y220191D01*
X198840Y219383D01*
X200333Y217890D01*
X201141Y215940D01*
X201141Y213828D01*
X200333Y211878D01*
X199413Y210959D01*
X199356Y210882D01*
X199291Y210810D01*
X199271Y210769D01*
X199244Y210733D01*
X199210Y210643D01*
X199168Y210557D01*
X199162Y210515D01*
X199145Y210469D01*
X199135Y210341D01*
X199121Y210252D01*
X199121Y200122D01*
X195356Y196357D01*
X192424Y196357D01*
X192360Y196348D01*
X192296Y196349D01*
X192221Y196328D01*
X192145Y196317D01*
X192086Y196291D01*
X192024Y196274D01*
X191958Y196233D01*
X191888Y196201D01*
X191839Y196159D01*
X191784Y196126D01*
X191732Y196068D01*
X191674Y196018D01*
X191638Y195964D01*
X191595Y195916D01*
X191562Y195847D01*
X191519Y195782D01*
X191500Y195720D01*
X191472Y195663D01*
X191461Y195593D01*
X191437Y195512D01*
X191436Y195427D01*
X191425Y195358D01*
X191425Y194956D01*
X191397Y194929D01*
X191359Y194861D01*
X191312Y194799D01*
X191289Y194739D01*
X191258Y194683D01*
X191240Y194608D01*
X191212Y194536D01*
X191208Y194472D01*
X191193Y194409D01*
X191197Y194332D01*
X191191Y194254D01*
X191204Y194191D01*
X191207Y194127D01*
X191232Y194054D01*
X191248Y193978D01*
X191278Y193922D01*
X191300Y193861D01*
X191341Y193804D01*
X191381Y193729D01*
X191440Y193669D01*
X191481Y193612D01*
X191933Y193160D01*
X192268Y192581D01*
X192441Y191935D01*
X192441Y190099D01*
X184400Y190099D01*
X184337Y190090D01*
X184272Y190091D01*
X184198Y190070D01*
X184121Y190059D01*
X184063Y190033D01*
X184001Y190016D01*
X183935Y189975D01*
X183897Y189958D01*
X183889Y189962D01*
G37*
%LPD*%
%LPC*%
G36*
X90727Y202677D02*
X90727Y202677D01*
X86713Y204340D01*
X83640Y207413D01*
X81977Y211427D01*
X81977Y215773D01*
X83640Y219787D01*
X86713Y222860D01*
X90727Y224523D01*
X95073Y224523D01*
X99087Y222860D01*
X102160Y219787D01*
X102471Y219036D01*
X102515Y218962D01*
X102551Y218883D01*
X102586Y218841D01*
X102614Y218794D01*
X102678Y218734D01*
X102734Y218668D01*
X102780Y218638D01*
X102809Y218611D01*
X102809Y218604D01*
X102796Y218550D01*
X102801Y218463D01*
X102796Y218377D01*
X102808Y218327D01*
X102811Y218268D01*
X102848Y218161D01*
X102868Y218077D01*
X103823Y215773D01*
X103823Y211427D01*
X102160Y207413D01*
X99087Y204340D01*
X95073Y202677D01*
X90727Y202677D01*
G37*
%LPD*%
%LPC*%
G36*
X90727Y253477D02*
X90727Y253477D01*
X86713Y255140D01*
X83640Y258213D01*
X81977Y262227D01*
X81977Y266573D01*
X83640Y270587D01*
X86713Y273660D01*
X90727Y275323D01*
X95073Y275323D01*
X99087Y273660D01*
X102160Y270587D01*
X103823Y266573D01*
X103823Y262227D01*
X102160Y258213D01*
X99087Y255140D01*
X95073Y253477D01*
X90727Y253477D01*
G37*
%LPD*%
%LPC*%
G36*
X215727Y253477D02*
X215727Y253477D01*
X211713Y255140D01*
X208640Y258213D01*
X206977Y262227D01*
X206977Y266573D01*
X208640Y270587D01*
X211713Y273660D01*
X215727Y275323D01*
X220073Y275323D01*
X224087Y273660D01*
X227160Y270587D01*
X228823Y266573D01*
X228823Y262227D01*
X227160Y258213D01*
X224087Y255140D01*
X220073Y253477D01*
X215727Y253477D01*
G37*
%LPD*%
%LPC*%
G36*
X90727Y177277D02*
X90727Y177277D01*
X86713Y178940D01*
X83640Y182013D01*
X81977Y186027D01*
X81977Y190373D01*
X83640Y194387D01*
X86713Y197460D01*
X90727Y199123D01*
X95073Y199123D01*
X99087Y197460D01*
X102160Y194387D01*
X103823Y190373D01*
X103823Y186027D01*
X102160Y182013D01*
X99087Y178940D01*
X95073Y177277D01*
X90727Y177277D01*
G37*
%LPD*%
%LPC*%
G36*
X206129Y190199D02*
X206129Y190199D01*
X206255Y190996D01*
X206836Y192783D01*
X207689Y194457D01*
X208794Y195978D01*
X210122Y197306D01*
X211643Y198411D01*
X213317Y199264D01*
X215104Y199845D01*
X215901Y199971D01*
X215901Y190199D01*
X206129Y190199D01*
G37*
%LPD*%
%LPC*%
G36*
X215104Y176555D02*
X215104Y176555D01*
X213317Y177136D01*
X211643Y177989D01*
X210122Y179094D01*
X208794Y180422D01*
X207689Y181943D01*
X206836Y183617D01*
X206255Y185404D01*
X206129Y186201D01*
X215901Y186201D01*
X215901Y176429D01*
X215104Y176555D01*
G37*
%LPD*%
%LPC*%
G36*
X168899Y307499D02*
X168899Y307499D01*
X168899Y315541D01*
X173735Y315541D01*
X174381Y315368D01*
X174960Y315033D01*
X175433Y314560D01*
X175768Y313981D01*
X175941Y313335D01*
X175941Y307499D01*
X168899Y307499D01*
G37*
%LPD*%
%LPC*%
G36*
X168899Y172099D02*
X168899Y172099D01*
X168899Y180141D01*
X173735Y180141D01*
X174381Y179968D01*
X174960Y179633D01*
X175433Y179160D01*
X175768Y178581D01*
X175941Y177935D01*
X175941Y172099D01*
X168899Y172099D01*
G37*
%LPD*%
%LPC*%
G36*
X185399Y241559D02*
X185399Y241559D01*
X185399Y245601D01*
X192441Y245601D01*
X192441Y243765D01*
X192268Y243119D01*
X191933Y242540D01*
X191460Y242067D01*
X190881Y241732D01*
X190235Y241559D01*
X185399Y241559D01*
G37*
%LPD*%
%LPC*%
G36*
X185399Y183059D02*
X185399Y183059D01*
X185399Y187101D01*
X192441Y187101D01*
X192441Y185265D01*
X192268Y184619D01*
X191933Y184040D01*
X191460Y183567D01*
X190881Y183232D01*
X190235Y183059D01*
X185399Y183059D01*
G37*
%LPD*%
%LPC*%
G36*
X177565Y241559D02*
X177565Y241559D01*
X176919Y241732D01*
X176340Y242067D01*
X175867Y242540D01*
X175532Y243119D01*
X175359Y243765D01*
X175359Y245601D01*
X182401Y245601D01*
X182401Y241559D01*
X177565Y241559D01*
G37*
%LPD*%
%LPC*%
G36*
X177565Y183059D02*
X177565Y183059D01*
X176919Y183232D01*
X176340Y183567D01*
X175867Y184040D01*
X175532Y184619D01*
X175359Y185265D01*
X175359Y187101D01*
X182401Y187101D01*
X182401Y183059D01*
X177565Y183059D01*
G37*
%LPD*%
D10*
X147900Y305500D03*
X166900Y305500D03*
X147900Y170100D03*
X166900Y170100D03*
D11*
X92900Y188200D03*
X92900Y213600D03*
X92900Y239000D03*
X92900Y264400D03*
X92900Y289800D03*
X217900Y188200D03*
X217900Y213600D03*
X217900Y239000D03*
X217900Y264400D03*
X217900Y289800D03*
D12*
X130900Y287100D03*
X130900Y277100D03*
X130900Y267100D03*
X130900Y257100D03*
X130900Y247100D03*
X183900Y247100D03*
X183900Y257100D03*
X183900Y267100D03*
X183900Y277100D03*
X183900Y287100D03*
X130900Y228600D03*
X130900Y218600D03*
X130900Y208600D03*
X130900Y198600D03*
X130900Y188600D03*
X183900Y188600D03*
X183900Y198600D03*
X183900Y208600D03*
X183900Y218600D03*
X183900Y228600D03*
D13*
X140970Y198882D02*
X131064Y198882D01*
X140970Y198882D02*
X143256Y201168D01*
X143256Y215646D01*
X140970Y217932D01*
X131064Y217932D01*
X131064Y198882D02*
X130900Y198600D01*
X131064Y217932D02*
X130900Y218600D01*
X130302Y218694D02*
X121158Y218694D01*
X115062Y224790D01*
X115062Y240792D01*
X130302Y218694D02*
X130900Y218600D01*
D14*
X115062Y240792D03*
D13*
X121158Y188976D02*
X130302Y188976D01*
X121158Y188976D02*
X118872Y191262D01*
X118872Y205740D01*
X120015Y206883D02*
X121920Y208788D01*
X120015Y206883D02*
X118872Y205740D01*
X121920Y208788D02*
X130302Y208788D01*
X130302Y188976D02*
X130900Y188600D01*
X130900Y208600D02*
X130302Y208788D01*
X120015Y206883D02*
X106680Y220218D01*
X106680Y222504D01*
X92964Y236220D01*
X92964Y238506D01*
X92900Y239000D01*
D15*
X173736Y208788D02*
X183642Y208788D01*
X173736Y208788D02*
X171450Y211074D01*
X171450Y226314D01*
X172593Y227457D02*
X173736Y228600D01*
X172593Y227457D02*
X171450Y226314D01*
X173736Y228600D02*
X183900Y228600D01*
X183642Y208788D02*
X183900Y208600D01*
X172593Y227457D02*
X167640Y232410D01*
X167640Y285750D01*
X172974Y291084D01*
X175260Y291084D01*
X177546Y293370D01*
X179070Y293370D01*
X182118Y296418D01*
X202692Y296418D01*
X206502Y292608D01*
X214884Y292608D01*
X217170Y290322D01*
X217900Y289800D01*
X194310Y198882D02*
X184404Y198882D01*
X194310Y198882D02*
X196596Y201168D01*
X196596Y214884D02*
X196596Y215646D01*
X196596Y214884D02*
X196596Y201168D01*
X196596Y215646D02*
X193548Y218694D01*
X184404Y218694D01*
X184404Y198882D02*
X183900Y198600D01*
X183900Y218600D02*
X184404Y218694D01*
X195834Y214884D02*
X196596Y214884D01*
D14*
X195834Y214884D03*
D16*
X137160Y228600D02*
X130900Y228600D01*
X137160Y228600D02*
X137922Y229362D01*
X141732Y229362D01*
X143256Y227838D02*
X147828Y223266D01*
X143256Y227838D02*
X141732Y229362D01*
X147828Y223266D02*
X147828Y170688D01*
X147900Y170100D01*
X131064Y287274D02*
X131064Y296418D01*
X136398Y301752D01*
X144780Y301752D01*
X147828Y304800D01*
X131064Y287274D02*
X130900Y287100D01*
X147828Y304800D02*
X147900Y305500D01*
X129540Y297942D02*
X111252Y297942D01*
X105156Y291846D01*
X94488Y291846D01*
X92964Y290322D01*
X129540Y297942D02*
X131064Y296418D01*
X92964Y290322D02*
X92900Y289800D01*
X144780Y282702D02*
X144780Y229362D01*
X144780Y282702D02*
X140970Y286512D01*
X131826Y286512D01*
X144780Y229362D02*
X143256Y227838D01*
X131826Y286512D02*
X130900Y287100D01*
D13*
X130302Y257556D02*
X121158Y257556D01*
X120015Y258699D02*
X118872Y259842D01*
X120015Y258699D02*
X121158Y257556D01*
X118872Y259842D02*
X118872Y274320D01*
X121920Y277368D01*
X130302Y277368D01*
X130302Y257556D02*
X130900Y257100D01*
X130900Y277100D02*
X130302Y277368D01*
X120015Y258699D02*
X108966Y247650D01*
X108966Y232410D01*
X107442Y230886D01*
D14*
X107442Y230886D03*
D13*
X131064Y247650D02*
X134112Y247650D01*
X140208Y253746D01*
X140208Y260604D01*
X134112Y266700D01*
X131064Y266700D01*
X131064Y247650D02*
X130900Y247100D01*
X131064Y266700D02*
X130900Y267100D01*
X130302Y246888D02*
X130302Y238506D01*
X130302Y246888D02*
X130900Y247100D01*
D14*
X130302Y238506D03*
D15*
X173736Y267462D02*
X183642Y267462D01*
X173736Y267462D02*
X171450Y269748D01*
X171450Y284226D01*
X174498Y287274D01*
X183642Y287274D01*
X183642Y267462D02*
X183900Y267100D01*
X183900Y287100D02*
X183642Y287274D01*
X184404Y287274D02*
X193548Y287274D01*
X201930Y278892D01*
X201930Y257556D01*
X217170Y242316D01*
X217170Y239268D01*
X184404Y287274D02*
X183900Y287100D01*
X217170Y239268D02*
X217900Y239000D01*
X194310Y257556D02*
X184404Y257556D01*
X195453Y258699D02*
X196596Y259842D01*
X195453Y258699D02*
X194310Y257556D01*
X196596Y259842D02*
X196596Y274320D01*
X194310Y276606D01*
X184404Y276606D01*
X184404Y257556D02*
X183900Y257100D01*
X184404Y276606D02*
X183900Y277100D01*
X195453Y258699D02*
X201930Y252222D01*
X201930Y231648D01*
X217170Y216408D01*
X217170Y214122D01*
X217900Y213600D01*
M02*
