G04 EAGLE Gerber RS-274X export*
G75*
%MOMM*%
%FSLAX34Y34*%
%LPD*%
%INBottom Copper*%
%IPPOS*%
%AMOC8*
5,1,8,0,0,1.08239X$1,22.5*%
G01*
%ADD10C,1.879600*%
%ADD11C,0.152400*%
%ADD12C,0.756400*%
%ADD13C,0.200000*%

G36*
X219655Y159172D02*
X219655Y159172D01*
X219736Y159174D01*
X219793Y159192D01*
X219853Y159201D01*
X219927Y159234D01*
X220005Y159258D01*
X220051Y159290D01*
X220110Y159317D01*
X220191Y159386D01*
X220259Y159432D01*
X230525Y169094D01*
X230594Y169181D01*
X230669Y169264D01*
X230682Y169291D01*
X230701Y169315D01*
X230743Y169417D01*
X230792Y169517D01*
X230796Y169546D01*
X230808Y169575D01*
X230826Y169734D01*
X230839Y169822D01*
X230839Y183135D01*
X230833Y183183D01*
X230835Y183230D01*
X230813Y183321D01*
X230799Y183414D01*
X230780Y183458D01*
X230769Y183504D01*
X230722Y183586D01*
X230683Y183671D01*
X230652Y183708D01*
X230628Y183749D01*
X230561Y183814D01*
X230500Y183886D01*
X230460Y183912D01*
X230426Y183945D01*
X230342Y183989D01*
X230264Y184040D01*
X230218Y184054D01*
X230176Y184076D01*
X230084Y184095D01*
X229994Y184123D01*
X229946Y184123D01*
X229900Y184133D01*
X229806Y184125D01*
X229712Y184126D01*
X229666Y184114D01*
X229619Y184110D01*
X229531Y184076D01*
X229440Y184051D01*
X229400Y184026D01*
X229355Y184009D01*
X229280Y183952D01*
X229200Y183903D01*
X229168Y183867D01*
X229130Y183839D01*
X229082Y183772D01*
X229011Y183694D01*
X228983Y183635D01*
X228950Y183589D01*
X228111Y181943D01*
X227006Y180422D01*
X225678Y179094D01*
X224157Y177989D01*
X222483Y177136D01*
X220696Y176555D01*
X219899Y176429D01*
X219899Y187200D01*
X219891Y187258D01*
X219891Y187268D01*
X219890Y187270D01*
X219891Y187328D01*
X219870Y187402D01*
X219859Y187479D01*
X219833Y187538D01*
X219816Y187600D01*
X219775Y187666D01*
X219743Y187736D01*
X219701Y187785D01*
X219668Y187840D01*
X219610Y187891D01*
X219560Y187950D01*
X219506Y187986D01*
X219458Y188029D01*
X219389Y188062D01*
X219324Y188105D01*
X219262Y188124D01*
X219205Y188152D01*
X219135Y188162D01*
X219054Y188187D01*
X218969Y188188D01*
X218900Y188199D01*
X217899Y188199D01*
X217899Y188201D01*
X218900Y188201D01*
X218964Y188210D01*
X219028Y188209D01*
X219103Y188230D01*
X219179Y188241D01*
X219238Y188267D01*
X219300Y188284D01*
X219366Y188325D01*
X219436Y188357D01*
X219485Y188399D01*
X219540Y188432D01*
X219592Y188490D01*
X219650Y188540D01*
X219686Y188594D01*
X219729Y188642D01*
X219762Y188711D01*
X219805Y188776D01*
X219824Y188838D01*
X219852Y188896D01*
X219862Y188965D01*
X219887Y189046D01*
X219888Y189131D01*
X219899Y189200D01*
X219899Y199971D01*
X220696Y199845D01*
X222483Y199264D01*
X224157Y198411D01*
X225678Y197306D01*
X227006Y195978D01*
X228111Y194457D01*
X228950Y192811D01*
X228977Y192772D01*
X228997Y192729D01*
X229058Y192657D01*
X229112Y192580D01*
X229149Y192551D01*
X229180Y192514D01*
X229259Y192463D01*
X229332Y192404D01*
X229376Y192386D01*
X229416Y192360D01*
X229506Y192332D01*
X229593Y192297D01*
X229640Y192291D01*
X229686Y192277D01*
X229780Y192276D01*
X229873Y192266D01*
X229920Y192274D01*
X229968Y192274D01*
X230058Y192299D01*
X230151Y192315D01*
X230194Y192336D01*
X230240Y192349D01*
X230320Y192398D01*
X230404Y192440D01*
X230439Y192472D01*
X230480Y192497D01*
X230543Y192567D01*
X230612Y192630D01*
X230637Y192671D01*
X230669Y192706D01*
X230710Y192791D01*
X230758Y192871D01*
X230771Y192917D01*
X230792Y192960D01*
X230804Y193041D01*
X230832Y193143D01*
X230831Y193209D01*
X230839Y193265D01*
X230839Y307178D01*
X230824Y307288D01*
X230815Y307399D01*
X230804Y307427D01*
X230799Y307457D01*
X230754Y307558D01*
X230714Y307662D01*
X230696Y307685D01*
X230683Y307714D01*
X230580Y307835D01*
X230525Y307906D01*
X220259Y317568D01*
X220193Y317614D01*
X220133Y317669D01*
X220078Y317695D01*
X220028Y317730D01*
X219952Y317756D01*
X219879Y317792D01*
X219823Y317800D01*
X219762Y317822D01*
X219656Y317826D01*
X219574Y317839D01*
X90426Y317839D01*
X90345Y317828D01*
X90264Y317826D01*
X90207Y317808D01*
X90147Y317799D01*
X90073Y317766D01*
X89995Y317742D01*
X89949Y317710D01*
X89890Y317683D01*
X89809Y317614D01*
X89741Y317568D01*
X79475Y307906D01*
X79406Y307819D01*
X79331Y307736D01*
X79318Y307709D01*
X79299Y307685D01*
X79257Y307583D01*
X79208Y307483D01*
X79204Y307454D01*
X79192Y307425D01*
X79174Y307266D01*
X79161Y307178D01*
X79161Y169822D01*
X79176Y169712D01*
X79185Y169601D01*
X79196Y169573D01*
X79201Y169543D01*
X79246Y169442D01*
X79286Y169338D01*
X79304Y169315D01*
X79317Y169286D01*
X79420Y169165D01*
X79475Y169094D01*
X89741Y159432D01*
X89807Y159386D01*
X89867Y159331D01*
X89922Y159305D01*
X89972Y159270D01*
X90048Y159244D01*
X90121Y159208D01*
X90177Y159200D01*
X90238Y159178D01*
X90344Y159174D01*
X90426Y159161D01*
X219574Y159161D01*
X219655Y159172D01*
G37*
%LPC*%
G36*
X90727Y202677D02*
X90727Y202677D01*
X86713Y204340D01*
X83640Y207413D01*
X81977Y211427D01*
X81977Y215773D01*
X83640Y219787D01*
X86713Y222860D01*
X90727Y224523D01*
X95073Y224523D01*
X96416Y223966D01*
X96425Y223964D01*
X96433Y223959D01*
X96562Y223929D01*
X96689Y223896D01*
X96699Y223897D01*
X96708Y223894D01*
X96841Y223901D01*
X96971Y223905D01*
X96980Y223908D01*
X96990Y223909D01*
X97114Y223952D01*
X97239Y223993D01*
X97247Y223998D01*
X97256Y224001D01*
X97318Y224047D01*
X97472Y224152D01*
X97488Y224170D01*
X97505Y224183D01*
X101961Y228639D01*
X101967Y228647D01*
X101974Y228652D01*
X102051Y228759D01*
X102130Y228865D01*
X102134Y228874D01*
X102139Y228881D01*
X102183Y229005D01*
X102230Y229128D01*
X102231Y229138D01*
X102234Y229147D01*
X102242Y229278D01*
X102252Y229410D01*
X102250Y229419D01*
X102250Y229428D01*
X102232Y229504D01*
X102194Y229686D01*
X102183Y229707D01*
X102178Y229728D01*
X102135Y229830D01*
X102135Y230376D01*
X102131Y230408D01*
X102133Y230440D01*
X102111Y230547D01*
X102095Y230655D01*
X102082Y230684D01*
X102076Y230716D01*
X102024Y230812D01*
X101979Y230912D01*
X101958Y230936D01*
X101943Y230965D01*
X101867Y231043D01*
X101796Y231126D01*
X101769Y231144D01*
X101746Y231167D01*
X101651Y231221D01*
X101560Y231281D01*
X101529Y231290D01*
X101501Y231306D01*
X101395Y231331D01*
X101290Y231363D01*
X101258Y231364D01*
X101227Y231371D01*
X101117Y231365D01*
X101008Y231367D01*
X100977Y231358D01*
X100945Y231357D01*
X100842Y231321D01*
X100736Y231292D01*
X100709Y231275D01*
X100678Y231264D01*
X100605Y231211D01*
X100496Y231143D01*
X100464Y231107D01*
X100429Y231082D01*
X99087Y229740D01*
X95073Y228077D01*
X90727Y228077D01*
X86713Y229740D01*
X83640Y232813D01*
X81977Y236827D01*
X81977Y241173D01*
X83640Y245187D01*
X86713Y248260D01*
X90727Y249923D01*
X95073Y249923D01*
X99087Y248260D01*
X102160Y245187D01*
X103823Y241173D01*
X103823Y236672D01*
X103823Y236671D01*
X103823Y236670D01*
X103823Y236629D01*
X103833Y236557D01*
X103835Y236462D01*
X103846Y236427D01*
X103850Y236390D01*
X103861Y236363D01*
X103863Y236349D01*
X103890Y236289D01*
X103920Y236193D01*
X103941Y236163D01*
X103954Y236128D01*
X103974Y236103D01*
X103979Y236092D01*
X104019Y236046D01*
X104077Y235959D01*
X104105Y235935D01*
X104128Y235906D01*
X104155Y235886D01*
X104162Y235878D01*
X104208Y235848D01*
X104213Y235845D01*
X104293Y235778D01*
X104326Y235763D01*
X104356Y235741D01*
X104389Y235729D01*
X104398Y235724D01*
X104450Y235708D01*
X104455Y235706D01*
X104551Y235664D01*
X104587Y235659D01*
X104622Y235647D01*
X104657Y235644D01*
X104668Y235641D01*
X104725Y235641D01*
X104726Y235640D01*
X104830Y235627D01*
X104867Y235632D01*
X104904Y235630D01*
X104935Y235638D01*
X104950Y235638D01*
X105009Y235654D01*
X105109Y235669D01*
X105158Y235692D01*
X105203Y235703D01*
X106386Y236193D01*
X108498Y236193D01*
X110102Y235528D01*
X110187Y235506D01*
X110268Y235476D01*
X110323Y235472D01*
X110376Y235458D01*
X110462Y235461D01*
X110549Y235454D01*
X110603Y235465D01*
X110658Y235467D01*
X110740Y235494D01*
X110825Y235512D01*
X110873Y235537D01*
X110926Y235554D01*
X110997Y235603D01*
X111074Y235644D01*
X111113Y235682D01*
X111148Y235706D01*
X111132Y235667D01*
X111089Y235592D01*
X111076Y235538D01*
X111055Y235488D01*
X111044Y235402D01*
X111024Y235317D01*
X111027Y235262D01*
X111020Y235208D01*
X111034Y235122D01*
X111038Y235036D01*
X111056Y234984D01*
X111065Y234930D01*
X111102Y234851D01*
X111131Y234769D01*
X111161Y234728D01*
X111186Y234675D01*
X111262Y234590D01*
X111313Y234520D01*
X111941Y233892D01*
X112749Y231942D01*
X112749Y229830D01*
X111941Y227880D01*
X110448Y226387D01*
X108498Y225579D01*
X106386Y225579D01*
X106284Y225622D01*
X106275Y225624D01*
X106267Y225629D01*
X106138Y225659D01*
X106011Y225692D01*
X106001Y225691D01*
X105992Y225694D01*
X105859Y225687D01*
X105729Y225683D01*
X105720Y225680D01*
X105710Y225679D01*
X105586Y225636D01*
X105461Y225595D01*
X105453Y225590D01*
X105444Y225587D01*
X105382Y225541D01*
X105228Y225436D01*
X105212Y225418D01*
X105195Y225405D01*
X101575Y221785D01*
X101537Y221734D01*
X101490Y221689D01*
X101452Y221622D01*
X101406Y221560D01*
X101383Y221499D01*
X101351Y221444D01*
X101334Y221368D01*
X101306Y221296D01*
X101301Y221232D01*
X101286Y221169D01*
X101290Y221092D01*
X101284Y221015D01*
X101298Y220952D01*
X101301Y220887D01*
X101326Y220814D01*
X101342Y220738D01*
X101372Y220682D01*
X101393Y220621D01*
X101435Y220564D01*
X101475Y220489D01*
X101534Y220429D01*
X101575Y220372D01*
X102160Y219787D01*
X103823Y215773D01*
X103823Y211427D01*
X102160Y207413D01*
X99087Y204340D01*
X95073Y202677D01*
X90727Y202677D01*
G37*
%LPD*%
%LPC*%
G36*
X90727Y177277D02*
X90727Y177277D01*
X86713Y178940D01*
X83640Y182013D01*
X81977Y186027D01*
X81977Y190373D01*
X83640Y194387D01*
X86713Y197460D01*
X90727Y199123D01*
X95073Y199123D01*
X97314Y198194D01*
X97323Y198192D01*
X97331Y198187D01*
X97354Y198182D01*
X97360Y198179D01*
X97379Y198176D01*
X97460Y198157D01*
X97587Y198124D01*
X97597Y198125D01*
X97606Y198122D01*
X97739Y198129D01*
X97869Y198133D01*
X97878Y198136D01*
X97888Y198137D01*
X97986Y198171D01*
X97989Y198171D01*
X97994Y198174D01*
X98012Y198180D01*
X98137Y198221D01*
X98145Y198226D01*
X98154Y198229D01*
X98215Y198273D01*
X98246Y198288D01*
X98288Y198323D01*
X98370Y198380D01*
X98386Y198398D01*
X98403Y198411D01*
X127723Y227731D01*
X127780Y227807D01*
X127845Y227879D01*
X127865Y227920D01*
X127892Y227956D01*
X127926Y228046D01*
X127968Y228133D01*
X127974Y228175D01*
X127991Y228220D01*
X128001Y228347D01*
X128015Y228437D01*
X128015Y233042D01*
X128014Y233051D01*
X128015Y233060D01*
X127994Y233190D01*
X127975Y233321D01*
X127972Y233329D01*
X127970Y233339D01*
X127913Y233458D01*
X127859Y233578D01*
X127853Y233585D01*
X127849Y233594D01*
X127761Y233692D01*
X127676Y233792D01*
X127668Y233797D01*
X127662Y233804D01*
X127596Y233844D01*
X127440Y233946D01*
X127417Y233954D01*
X127398Y233965D01*
X127296Y234007D01*
X125803Y235500D01*
X124995Y237450D01*
X124995Y239562D01*
X125803Y241512D01*
X127296Y243005D01*
X129246Y243813D01*
X131358Y243813D01*
X133308Y243005D01*
X134801Y241512D01*
X135609Y239562D01*
X135609Y237450D01*
X134801Y235500D01*
X133308Y234007D01*
X133206Y233965D01*
X133197Y233960D01*
X133188Y233957D01*
X133076Y233888D01*
X132963Y233821D01*
X132956Y233814D01*
X132948Y233809D01*
X132860Y233712D01*
X132770Y233615D01*
X132766Y233607D01*
X132759Y233600D01*
X132702Y233481D01*
X132642Y233364D01*
X132640Y233355D01*
X132636Y233346D01*
X132624Y233270D01*
X132590Y233087D01*
X132592Y233063D01*
X132589Y233042D01*
X132589Y226129D01*
X102210Y195750D01*
X102171Y195699D01*
X102125Y195654D01*
X102087Y195586D01*
X102041Y195525D01*
X102018Y195464D01*
X101986Y195408D01*
X101969Y195333D01*
X101941Y195261D01*
X101936Y195197D01*
X101921Y195134D01*
X101925Y195057D01*
X101919Y194980D01*
X101933Y194917D01*
X101936Y194852D01*
X101961Y194779D01*
X101977Y194703D01*
X102007Y194647D01*
X102028Y194586D01*
X102070Y194529D01*
X102110Y194454D01*
X102149Y194414D01*
X103823Y190373D01*
X103823Y186027D01*
X102160Y182013D01*
X99087Y178940D01*
X95073Y177277D01*
X90727Y177277D01*
G37*
%LPD*%
%LPC*%
G36*
X194778Y209577D02*
X194778Y209577D01*
X192828Y210385D01*
X191335Y211878D01*
X190527Y213828D01*
X190527Y215940D01*
X191335Y217890D01*
X192887Y219442D01*
X192935Y219470D01*
X192942Y219477D01*
X192950Y219482D01*
X193038Y219580D01*
X193128Y219676D01*
X193132Y219684D01*
X193139Y219691D01*
X193196Y219810D01*
X193256Y219927D01*
X193258Y219937D01*
X193262Y219945D01*
X193274Y220022D01*
X193308Y220205D01*
X193306Y220228D01*
X193309Y220250D01*
X193309Y241076D01*
X208837Y256603D01*
X208875Y256654D01*
X208921Y256699D01*
X208959Y256767D01*
X209006Y256829D01*
X209029Y256889D01*
X209060Y256945D01*
X209078Y257020D01*
X209105Y257093D01*
X209110Y257157D01*
X209125Y257219D01*
X209121Y257297D01*
X209127Y257374D01*
X209114Y257437D01*
X209111Y257501D01*
X209085Y257574D01*
X209070Y257650D01*
X209039Y257707D01*
X209018Y257767D01*
X208977Y257824D01*
X208937Y257899D01*
X208878Y257960D01*
X208837Y258016D01*
X208640Y258213D01*
X206977Y262227D01*
X206977Y266573D01*
X208640Y270587D01*
X211713Y273660D01*
X215727Y275323D01*
X220073Y275323D01*
X224087Y273660D01*
X227160Y270587D01*
X228823Y266573D01*
X228823Y262227D01*
X227160Y258213D01*
X224087Y255140D01*
X220073Y253477D01*
X215727Y253477D01*
X214311Y254064D01*
X214302Y254066D01*
X214293Y254071D01*
X214164Y254102D01*
X214038Y254134D01*
X214028Y254134D01*
X214019Y254136D01*
X213886Y254129D01*
X213756Y254125D01*
X213747Y254122D01*
X213737Y254122D01*
X213613Y254078D01*
X213488Y254038D01*
X213480Y254032D01*
X213471Y254029D01*
X213409Y253984D01*
X213255Y253879D01*
X213239Y253860D01*
X213222Y253847D01*
X198651Y239277D01*
X198594Y239200D01*
X198529Y239129D01*
X198509Y239088D01*
X198482Y239051D01*
X198448Y238961D01*
X198406Y238875D01*
X198400Y238833D01*
X198383Y238787D01*
X198373Y238660D01*
X198359Y238570D01*
X198359Y220250D01*
X198360Y220240D01*
X198359Y220231D01*
X198380Y220101D01*
X198399Y219971D01*
X198402Y219962D01*
X198404Y219953D01*
X198461Y219833D01*
X198515Y219714D01*
X198521Y219707D01*
X198525Y219698D01*
X198613Y219599D01*
X198698Y219499D01*
X198706Y219494D01*
X198712Y219487D01*
X198772Y219451D01*
X200333Y217890D01*
X201141Y215940D01*
X201141Y213828D01*
X200333Y211878D01*
X198840Y210385D01*
X196890Y209577D01*
X194778Y209577D01*
G37*
%LPD*%
%LPC*%
G36*
X114006Y235485D02*
X114006Y235485D01*
X112402Y236150D01*
X112317Y236172D01*
X112236Y236202D01*
X112181Y236206D01*
X112128Y236220D01*
X112042Y236217D01*
X111955Y236224D01*
X111901Y236213D01*
X111846Y236211D01*
X111764Y236184D01*
X111679Y236166D01*
X111631Y236141D01*
X111578Y236124D01*
X111507Y236075D01*
X111430Y236034D01*
X111391Y235996D01*
X111356Y235972D01*
X111372Y236011D01*
X111415Y236086D01*
X111428Y236140D01*
X111449Y236190D01*
X111460Y236276D01*
X111480Y236361D01*
X111477Y236416D01*
X111484Y236470D01*
X111470Y236556D01*
X111466Y236642D01*
X111448Y236694D01*
X111439Y236748D01*
X111402Y236827D01*
X111373Y236909D01*
X111343Y236950D01*
X111318Y237003D01*
X111242Y237088D01*
X111191Y237158D01*
X110563Y237786D01*
X109755Y239736D01*
X109755Y241848D01*
X109798Y241950D01*
X109800Y241959D01*
X109805Y241967D01*
X109835Y242096D01*
X109868Y242223D01*
X109867Y242233D01*
X109870Y242242D01*
X109863Y242375D01*
X109859Y242505D01*
X109856Y242514D01*
X109855Y242524D01*
X109812Y242648D01*
X109771Y242773D01*
X109766Y242781D01*
X109763Y242790D01*
X109717Y242852D01*
X109612Y243006D01*
X109594Y243022D01*
X109581Y243039D01*
X98423Y254197D01*
X98415Y254203D01*
X98409Y254210D01*
X98302Y254288D01*
X98197Y254367D01*
X98188Y254370D01*
X98181Y254375D01*
X98057Y254419D01*
X97933Y254466D01*
X97924Y254467D01*
X97915Y254470D01*
X97783Y254478D01*
X97652Y254488D01*
X97643Y254486D01*
X97633Y254487D01*
X97558Y254468D01*
X97376Y254430D01*
X97355Y254419D01*
X97334Y254414D01*
X95073Y253477D01*
X90727Y253477D01*
X86713Y255140D01*
X83640Y258213D01*
X81977Y262227D01*
X81977Y266573D01*
X83640Y270587D01*
X86713Y273660D01*
X90727Y275323D01*
X95073Y275323D01*
X99087Y273660D01*
X102160Y270587D01*
X103823Y266573D01*
X103823Y262227D01*
X102151Y258192D01*
X102139Y258181D01*
X102101Y258113D01*
X102055Y258052D01*
X102032Y257991D01*
X102000Y257935D01*
X101983Y257860D01*
X101955Y257788D01*
X101950Y257724D01*
X101935Y257661D01*
X101939Y257584D01*
X101933Y257507D01*
X101947Y257444D01*
X101950Y257379D01*
X101975Y257306D01*
X101991Y257230D01*
X102021Y257174D01*
X102042Y257113D01*
X102084Y257056D01*
X102123Y256981D01*
X102183Y256921D01*
X102224Y256864D01*
X112815Y246273D01*
X112823Y246267D01*
X112828Y246260D01*
X112935Y246183D01*
X113041Y246104D01*
X113050Y246100D01*
X113057Y246095D01*
X113181Y246051D01*
X113304Y246004D01*
X113314Y246003D01*
X113323Y246000D01*
X113454Y245992D01*
X113586Y245982D01*
X113595Y245984D01*
X113604Y245984D01*
X113680Y246002D01*
X113862Y246040D01*
X113883Y246051D01*
X113904Y246056D01*
X114006Y246099D01*
X116118Y246099D01*
X118068Y245291D01*
X119561Y243798D01*
X120369Y241848D01*
X120369Y239736D01*
X119561Y237786D01*
X118068Y236293D01*
X116118Y235485D01*
X114006Y235485D01*
G37*
%LPD*%
%LPC*%
G36*
X90633Y278401D02*
X90633Y278401D01*
X86443Y280137D01*
X83237Y283343D01*
X81501Y287533D01*
X81501Y292067D01*
X83237Y296257D01*
X86443Y299463D01*
X90633Y301199D01*
X95167Y301199D01*
X99357Y299463D01*
X102563Y296257D01*
X104299Y292067D01*
X104299Y287533D01*
X102563Y283343D01*
X99357Y280137D01*
X95167Y278401D01*
X90633Y278401D01*
G37*
%LPD*%
%LPC*%
G36*
X215727Y278877D02*
X215727Y278877D01*
X211713Y280540D01*
X208640Y283613D01*
X206977Y287627D01*
X206977Y291973D01*
X208640Y295987D01*
X211713Y299060D01*
X215727Y300723D01*
X220073Y300723D01*
X224087Y299060D01*
X227160Y295987D01*
X228823Y291973D01*
X228823Y287627D01*
X227160Y283613D01*
X224087Y280540D01*
X220073Y278877D01*
X215727Y278877D01*
G37*
%LPD*%
%LPC*%
G36*
X215727Y228077D02*
X215727Y228077D01*
X211713Y229740D01*
X208640Y232813D01*
X206977Y236827D01*
X206977Y241173D01*
X208640Y245187D01*
X211713Y248260D01*
X215727Y249923D01*
X220073Y249923D01*
X224087Y248260D01*
X227160Y245187D01*
X228823Y241173D01*
X228823Y236827D01*
X227160Y232813D01*
X224087Y229740D01*
X220073Y228077D01*
X215727Y228077D01*
G37*
%LPD*%
%LPC*%
G36*
X215727Y202677D02*
X215727Y202677D01*
X211713Y204340D01*
X208640Y207413D01*
X206977Y211427D01*
X206977Y215773D01*
X208640Y219787D01*
X211713Y222860D01*
X215727Y224523D01*
X220073Y224523D01*
X224087Y222860D01*
X227160Y219787D01*
X228823Y215773D01*
X228823Y211427D01*
X227160Y207413D01*
X224087Y204340D01*
X220073Y202677D01*
X215727Y202677D01*
G37*
%LPD*%
%LPC*%
G36*
X206129Y190199D02*
X206129Y190199D01*
X206255Y190996D01*
X206836Y192783D01*
X207689Y194457D01*
X208794Y195978D01*
X210122Y197306D01*
X211643Y198411D01*
X213317Y199264D01*
X215104Y199845D01*
X215901Y199971D01*
X215901Y190199D01*
X206129Y190199D01*
G37*
%LPD*%
%LPC*%
G36*
X215104Y176555D02*
X215104Y176555D01*
X213317Y177136D01*
X211643Y177989D01*
X210122Y179094D01*
X208794Y180422D01*
X207689Y181943D01*
X206836Y183617D01*
X206255Y185404D01*
X206129Y186201D01*
X215901Y186201D01*
X215901Y176429D01*
X215104Y176555D01*
G37*
%LPD*%
D10*
X92900Y188200D03*
X92900Y213600D03*
X92900Y239000D03*
X92900Y264400D03*
X92900Y289800D03*
X217900Y188200D03*
X217900Y213600D03*
X217900Y239000D03*
X217900Y264400D03*
X217900Y289800D03*
D11*
X115062Y240792D02*
X92202Y263652D01*
X92900Y264400D01*
D12*
X115062Y240792D03*
D13*
X195834Y240030D02*
X195834Y214884D01*
X195834Y240030D02*
X217170Y261366D01*
X217170Y263652D01*
X217900Y264400D01*
D12*
X195834Y214884D03*
D11*
X107442Y230886D02*
X92964Y216408D01*
X92964Y214122D01*
X92900Y213600D01*
D12*
X107442Y230886D03*
D11*
X130302Y227076D02*
X130302Y238506D01*
X130302Y227076D02*
X92964Y189738D01*
X92964Y188214D01*
X92900Y188200D01*
D12*
X130302Y238506D03*
M02*
