G04 EAGLE Gerber RS-274X export*
G75*
%MOMM*%
%FSLAX34Y34*%
%LPD*%
%INTop Copper*%
%IPPOS*%
%AMOC8*
5,1,8,0,0,1.08239X$1,22.5*%
G01*
%ADD10R,1.300000X1.500000*%
%ADD11C,1.879600*%
%ADD12R,1.200000X0.600000*%
%ADD13C,0.254000*%
%ADD14C,0.508000*%
%ADD15C,0.756400*%
%ADD16C,0.635000*%

G36*
X139629Y159165D02*
X139629Y159165D01*
X139662Y159163D01*
X139768Y159185D01*
X139877Y159201D01*
X139906Y159214D01*
X139938Y159220D01*
X140034Y159272D01*
X140134Y159317D01*
X140158Y159338D01*
X140187Y159353D01*
X140265Y159429D01*
X140348Y159500D01*
X140366Y159527D01*
X140389Y159550D01*
X140442Y159645D01*
X140502Y159736D01*
X140512Y159767D01*
X140528Y159795D01*
X140553Y159901D01*
X140585Y160006D01*
X140585Y160038D01*
X140593Y160069D01*
X140587Y160179D01*
X140588Y160288D01*
X140580Y160319D01*
X140578Y160351D01*
X140542Y160454D01*
X140513Y160560D01*
X140496Y160587D01*
X140486Y160618D01*
X140432Y160691D01*
X140365Y160800D01*
X140329Y160832D01*
X140304Y160867D01*
X139399Y161771D01*
X139399Y178429D01*
X140571Y179601D01*
X142161Y179601D01*
X142225Y179610D01*
X142289Y179609D01*
X142364Y179630D01*
X142440Y179641D01*
X142499Y179667D01*
X142561Y179684D01*
X142627Y179725D01*
X142697Y179757D01*
X142746Y179799D01*
X142801Y179832D01*
X142853Y179890D01*
X142911Y179940D01*
X142947Y179994D01*
X142990Y180042D01*
X143023Y180111D01*
X143066Y180176D01*
X143085Y180238D01*
X143113Y180295D01*
X143124Y180365D01*
X143148Y180446D01*
X143149Y180531D01*
X143160Y180600D01*
X143160Y190644D01*
X143156Y190675D01*
X143158Y190708D01*
X143136Y190815D01*
X143120Y190923D01*
X143107Y190952D01*
X143101Y190984D01*
X143049Y191080D01*
X143004Y191180D01*
X142983Y191204D01*
X142968Y191233D01*
X142892Y191311D01*
X142821Y191394D01*
X142794Y191412D01*
X142771Y191435D01*
X142676Y191489D01*
X142585Y191548D01*
X142554Y191558D01*
X142526Y191574D01*
X142420Y191599D01*
X142315Y191631D01*
X142283Y191631D01*
X142251Y191639D01*
X142142Y191633D01*
X142033Y191635D01*
X142002Y191626D01*
X141970Y191624D01*
X141867Y191589D01*
X141761Y191559D01*
X141734Y191542D01*
X141703Y191532D01*
X141630Y191478D01*
X141521Y191411D01*
X141489Y191375D01*
X141454Y191350D01*
X141073Y190969D01*
X138717Y188613D01*
X138660Y188536D01*
X138595Y188465D01*
X138575Y188424D01*
X138548Y188388D01*
X138514Y188298D01*
X138472Y188211D01*
X138466Y188169D01*
X138449Y188124D01*
X138439Y187996D01*
X138425Y187907D01*
X138425Y184968D01*
X137532Y184075D01*
X124268Y184075D01*
X123375Y184968D01*
X123375Y185182D01*
X123367Y185242D01*
X123367Y185269D01*
X123367Y185271D01*
X123367Y185310D01*
X123346Y185385D01*
X123335Y185461D01*
X123309Y185520D01*
X123292Y185582D01*
X123251Y185648D01*
X123219Y185718D01*
X123177Y185767D01*
X123144Y185822D01*
X123086Y185874D01*
X123036Y185932D01*
X122982Y185968D01*
X122934Y186011D01*
X122865Y186044D01*
X122800Y186087D01*
X122738Y186106D01*
X122681Y186134D01*
X122611Y186145D01*
X122530Y186169D01*
X122445Y186170D01*
X122376Y186181D01*
X118730Y186181D01*
X106933Y197978D01*
X106933Y217884D01*
X106920Y217979D01*
X106915Y218076D01*
X106900Y218119D01*
X106893Y218164D01*
X106854Y218251D01*
X106822Y218342D01*
X106797Y218376D01*
X106777Y218421D01*
X106694Y218518D01*
X106641Y218591D01*
X97017Y228215D01*
X97009Y228221D01*
X97003Y228228D01*
X96896Y228305D01*
X96791Y228384D01*
X96782Y228388D01*
X96775Y228393D01*
X96651Y228437D01*
X96527Y228484D01*
X96518Y228484D01*
X96509Y228488D01*
X96377Y228495D01*
X96246Y228505D01*
X96237Y228504D01*
X96227Y228504D01*
X96152Y228486D01*
X95970Y228448D01*
X95949Y228437D01*
X95928Y228431D01*
X95073Y228077D01*
X90727Y228077D01*
X86713Y229740D01*
X83640Y232813D01*
X81977Y236827D01*
X81977Y241173D01*
X83640Y245187D01*
X86713Y248260D01*
X90727Y249923D01*
X95073Y249923D01*
X99087Y248260D01*
X102160Y245187D01*
X103823Y241173D01*
X103823Y236827D01*
X102160Y232813D01*
X101948Y232601D01*
X101910Y232550D01*
X101864Y232505D01*
X101825Y232438D01*
X101779Y232376D01*
X101756Y232315D01*
X101725Y232260D01*
X101707Y232184D01*
X101679Y232112D01*
X101675Y232048D01*
X101660Y231985D01*
X101664Y231908D01*
X101658Y231831D01*
X101671Y231768D01*
X101674Y231703D01*
X101700Y231630D01*
X101715Y231554D01*
X101745Y231498D01*
X101767Y231437D01*
X101808Y231380D01*
X101848Y231305D01*
X101907Y231245D01*
X101948Y231188D01*
X105227Y227909D01*
X105253Y227890D01*
X105274Y227865D01*
X105366Y227805D01*
X105453Y227740D01*
X105483Y227728D01*
X105510Y227711D01*
X105615Y227679D01*
X105717Y227640D01*
X105749Y227638D01*
X105780Y227628D01*
X105889Y227627D01*
X105998Y227618D01*
X106030Y227625D01*
X106062Y227624D01*
X106167Y227654D01*
X106274Y227676D01*
X106303Y227691D01*
X106334Y227700D01*
X106427Y227757D01*
X106523Y227808D01*
X106546Y227831D01*
X106574Y227848D01*
X106647Y227929D01*
X106725Y228005D01*
X106741Y228033D01*
X106763Y228057D01*
X106810Y228155D01*
X106864Y228250D01*
X106872Y228282D01*
X106886Y228311D01*
X106900Y228400D01*
X106929Y228525D01*
X106927Y228573D01*
X106933Y228615D01*
X106933Y243284D01*
X106920Y243379D01*
X106915Y243476D01*
X106900Y243519D01*
X106893Y243564D01*
X106854Y243651D01*
X106822Y243742D01*
X106797Y243776D01*
X106777Y243821D01*
X106694Y243918D01*
X106641Y243991D01*
X97017Y253615D01*
X97009Y253621D01*
X97003Y253628D01*
X96896Y253705D01*
X96791Y253784D01*
X96782Y253788D01*
X96775Y253793D01*
X96651Y253837D01*
X96527Y253884D01*
X96518Y253884D01*
X96509Y253888D01*
X96377Y253895D01*
X96246Y253905D01*
X96237Y253904D01*
X96227Y253904D01*
X96152Y253886D01*
X95970Y253848D01*
X95949Y253837D01*
X95928Y253831D01*
X95073Y253477D01*
X90727Y253477D01*
X86713Y255140D01*
X83640Y258213D01*
X81977Y262227D01*
X81977Y266573D01*
X83640Y270587D01*
X86713Y273660D01*
X90727Y275323D01*
X95073Y275323D01*
X99087Y273660D01*
X102160Y270587D01*
X103823Y266573D01*
X103823Y262227D01*
X102160Y258213D01*
X101948Y258001D01*
X101910Y257950D01*
X101864Y257905D01*
X101825Y257838D01*
X101779Y257776D01*
X101756Y257716D01*
X101725Y257660D01*
X101707Y257584D01*
X101679Y257512D01*
X101675Y257448D01*
X101660Y257385D01*
X101664Y257308D01*
X101658Y257231D01*
X101671Y257168D01*
X101674Y257103D01*
X101699Y257030D01*
X101715Y256955D01*
X101745Y256898D01*
X101767Y256837D01*
X101808Y256780D01*
X101848Y256706D01*
X101907Y256645D01*
X101948Y256588D01*
X112523Y246014D01*
X112523Y227124D01*
X112536Y227029D01*
X112541Y226932D01*
X112556Y226889D01*
X112563Y226844D01*
X112602Y226757D01*
X112634Y226666D01*
X112659Y226632D01*
X112679Y226587D01*
X112739Y226516D01*
X112768Y226470D01*
X112793Y226447D01*
X112815Y226417D01*
X118673Y220559D01*
X118725Y220520D01*
X118770Y220474D01*
X118837Y220436D01*
X118899Y220390D01*
X118959Y220367D01*
X119015Y220335D01*
X119090Y220317D01*
X119163Y220290D01*
X119227Y220285D01*
X119290Y220270D01*
X119367Y220274D01*
X119444Y220268D01*
X119507Y220281D01*
X119571Y220285D01*
X119644Y220310D01*
X119720Y220326D01*
X119777Y220356D01*
X119838Y220377D01*
X119894Y220419D01*
X119969Y220458D01*
X120030Y220518D01*
X120087Y220559D01*
X120762Y221235D01*
X122376Y221235D01*
X122440Y221244D01*
X122504Y221243D01*
X122579Y221264D01*
X122655Y221275D01*
X122714Y221301D01*
X122776Y221318D01*
X122842Y221359D01*
X122912Y221391D01*
X122961Y221433D01*
X123016Y221466D01*
X123068Y221524D01*
X123126Y221574D01*
X123162Y221628D01*
X123205Y221676D01*
X123238Y221745D01*
X123281Y221810D01*
X123300Y221872D01*
X123328Y221929D01*
X123339Y221999D01*
X123363Y222080D01*
X123364Y222165D01*
X123375Y222231D01*
X123701Y222557D01*
X123739Y222608D01*
X123785Y222653D01*
X123823Y222720D01*
X123870Y222782D01*
X123893Y222843D01*
X123924Y222898D01*
X123942Y222974D01*
X123969Y223046D01*
X123974Y223110D01*
X123989Y223173D01*
X123985Y223250D01*
X123991Y223327D01*
X123978Y223390D01*
X123975Y223455D01*
X123949Y223528D01*
X123934Y223604D01*
X123903Y223660D01*
X123882Y223721D01*
X123841Y223778D01*
X123801Y223853D01*
X123742Y223913D01*
X123701Y223970D01*
X122899Y224771D01*
X122899Y232429D01*
X124071Y233601D01*
X126306Y233601D01*
X126338Y233605D01*
X126370Y233603D01*
X126477Y233625D01*
X126585Y233641D01*
X126615Y233654D01*
X126646Y233660D01*
X126743Y233712D01*
X126842Y233757D01*
X126867Y233778D01*
X126895Y233793D01*
X126974Y233869D01*
X127056Y233940D01*
X127074Y233967D01*
X127097Y233990D01*
X127151Y234084D01*
X127211Y234176D01*
X127220Y234207D01*
X127236Y234235D01*
X127261Y234341D01*
X127293Y234446D01*
X127294Y234478D01*
X127301Y234509D01*
X127296Y234619D01*
X127297Y234728D01*
X127288Y234759D01*
X127287Y234791D01*
X127251Y234894D01*
X127222Y235000D01*
X127205Y235027D01*
X127194Y235058D01*
X127141Y235131D01*
X127074Y235240D01*
X127038Y235272D01*
X127013Y235307D01*
X126565Y235754D01*
X125757Y237704D01*
X125757Y239816D01*
X126328Y241194D01*
X126358Y241309D01*
X126392Y241422D01*
X126393Y241445D01*
X126398Y241467D01*
X126394Y241585D01*
X126396Y241704D01*
X126390Y241726D01*
X126389Y241749D01*
X126352Y241861D01*
X126321Y241976D01*
X126309Y241995D01*
X126302Y242017D01*
X126235Y242115D01*
X126173Y242216D01*
X126156Y242231D01*
X126143Y242250D01*
X126051Y242325D01*
X125963Y242405D01*
X125943Y242415D01*
X125925Y242429D01*
X125816Y242476D01*
X125710Y242528D01*
X125688Y242531D01*
X125666Y242541D01*
X125481Y242563D01*
X125405Y242575D01*
X124268Y242575D01*
X123375Y243468D01*
X123375Y250732D01*
X124037Y251393D01*
X124054Y251416D01*
X124072Y251431D01*
X124090Y251459D01*
X124122Y251490D01*
X124160Y251557D01*
X124206Y251619D01*
X124222Y251660D01*
X124226Y251667D01*
X124231Y251683D01*
X124261Y251735D01*
X124279Y251810D01*
X124306Y251883D01*
X124311Y251947D01*
X124326Y252010D01*
X124322Y252087D01*
X124328Y252164D01*
X124315Y252227D01*
X124311Y252291D01*
X124286Y252364D01*
X124270Y252440D01*
X124240Y252497D01*
X124219Y252558D01*
X124177Y252614D01*
X124138Y252689D01*
X124079Y252750D01*
X124037Y252807D01*
X123340Y253504D01*
X123335Y253533D01*
X123309Y253592D01*
X123292Y253654D01*
X123251Y253720D01*
X123219Y253790D01*
X123177Y253839D01*
X123144Y253894D01*
X123086Y253946D01*
X123036Y254004D01*
X122982Y254040D01*
X122934Y254083D01*
X122865Y254116D01*
X122800Y254159D01*
X122738Y254178D01*
X122681Y254206D01*
X122611Y254217D01*
X122530Y254241D01*
X122445Y254242D01*
X122376Y254253D01*
X121285Y254253D01*
X121244Y254247D01*
X121202Y254250D01*
X121118Y254230D01*
X121006Y254213D01*
X120952Y254189D01*
X120903Y254177D01*
X119928Y253773D01*
X117816Y253773D01*
X115866Y254581D01*
X114373Y256074D01*
X113565Y258024D01*
X113565Y260136D01*
X114373Y262086D01*
X114769Y262481D01*
X114826Y262558D01*
X114891Y262630D01*
X114911Y262671D01*
X114938Y262707D01*
X114972Y262797D01*
X115014Y262883D01*
X115020Y262925D01*
X115037Y262971D01*
X115047Y263099D01*
X115061Y263188D01*
X115061Y273446D01*
X120762Y279147D01*
X122376Y279147D01*
X122440Y279156D01*
X122504Y279155D01*
X122579Y279176D01*
X122655Y279187D01*
X122714Y279213D01*
X122776Y279230D01*
X122842Y279271D01*
X122912Y279303D01*
X122961Y279345D01*
X123016Y279378D01*
X123068Y279436D01*
X123126Y279486D01*
X123162Y279540D01*
X123205Y279588D01*
X123238Y279657D01*
X123281Y279722D01*
X123300Y279784D01*
X123328Y279841D01*
X123339Y279911D01*
X123363Y279992D01*
X123364Y280077D01*
X123375Y280146D01*
X123375Y280732D01*
X123701Y281057D01*
X123739Y281108D01*
X123785Y281153D01*
X123823Y281220D01*
X123870Y281282D01*
X123893Y281343D01*
X123924Y281398D01*
X123942Y281474D01*
X123969Y281546D01*
X123974Y281610D01*
X123989Y281673D01*
X123985Y281750D01*
X123991Y281827D01*
X123978Y281890D01*
X123975Y281955D01*
X123949Y282028D01*
X123934Y282104D01*
X123903Y282160D01*
X123882Y282221D01*
X123841Y282278D01*
X123801Y282353D01*
X123742Y282413D01*
X123701Y282470D01*
X122899Y283271D01*
X122899Y290929D01*
X124071Y292101D01*
X124889Y292101D01*
X124953Y292110D01*
X125017Y292109D01*
X125092Y292130D01*
X125168Y292141D01*
X125227Y292167D01*
X125289Y292184D01*
X125355Y292225D01*
X125425Y292257D01*
X125474Y292299D01*
X125529Y292332D01*
X125581Y292390D01*
X125639Y292440D01*
X125675Y292494D01*
X125718Y292542D01*
X125751Y292611D01*
X125794Y292676D01*
X125813Y292738D01*
X125841Y292795D01*
X125852Y292865D01*
X125876Y292946D01*
X125877Y293031D01*
X125888Y293100D01*
X125888Y293545D01*
X125879Y293609D01*
X125880Y293673D01*
X125859Y293748D01*
X125848Y293824D01*
X125822Y293883D01*
X125805Y293945D01*
X125764Y294011D01*
X125732Y294081D01*
X125690Y294130D01*
X125657Y294185D01*
X125599Y294237D01*
X125549Y294295D01*
X125495Y294331D01*
X125447Y294374D01*
X125378Y294407D01*
X125313Y294450D01*
X125251Y294469D01*
X125194Y294497D01*
X125124Y294508D01*
X125043Y294532D01*
X124958Y294533D01*
X124889Y294544D01*
X111270Y294544D01*
X111175Y294531D01*
X111079Y294526D01*
X111036Y294511D01*
X110991Y294504D01*
X110903Y294465D01*
X110812Y294433D01*
X110778Y294408D01*
X110734Y294388D01*
X110636Y294305D01*
X110563Y294252D01*
X104591Y288280D01*
X104534Y288203D01*
X104469Y288132D01*
X104449Y288091D01*
X104422Y288054D01*
X104388Y287964D01*
X104346Y287878D01*
X104340Y287836D01*
X104323Y287790D01*
X104313Y287663D01*
X104299Y287573D01*
X104299Y287533D01*
X102563Y283343D01*
X99357Y280137D01*
X95167Y278401D01*
X90633Y278401D01*
X86443Y280137D01*
X83237Y283343D01*
X81501Y287533D01*
X81501Y292067D01*
X83237Y296257D01*
X86443Y299463D01*
X90633Y301199D01*
X95167Y301199D01*
X99357Y299463D01*
X99540Y299281D01*
X99591Y299242D01*
X99636Y299196D01*
X99703Y299158D01*
X99765Y299111D01*
X99825Y299089D01*
X99881Y299057D01*
X99957Y299039D01*
X100029Y299012D01*
X100093Y299007D01*
X100156Y298992D01*
X100233Y298996D01*
X100310Y298990D01*
X100373Y299003D01*
X100437Y299006D01*
X100511Y299032D01*
X100586Y299047D01*
X100643Y299078D01*
X100704Y299099D01*
X100761Y299140D01*
X100835Y299180D01*
X100896Y299239D01*
X100953Y299280D01*
X105780Y304108D01*
X107682Y304896D01*
X127797Y304896D01*
X127834Y304901D01*
X127868Y304898D01*
X128676Y304956D01*
X128702Y304947D01*
X128708Y304946D01*
X128713Y304943D01*
X128777Y304933D01*
X128980Y304896D01*
X129000Y304899D01*
X129018Y304896D01*
X129045Y304896D01*
X129058Y304890D01*
X129068Y304888D01*
X129076Y304883D01*
X129205Y304853D01*
X129331Y304820D01*
X129341Y304821D01*
X129350Y304818D01*
X129482Y304825D01*
X129613Y304829D01*
X129623Y304832D01*
X129632Y304833D01*
X129755Y304876D01*
X129882Y304917D01*
X129889Y304922D01*
X129898Y304925D01*
X129961Y304971D01*
X130115Y305076D01*
X130130Y305094D01*
X130147Y305107D01*
X131616Y306575D01*
X133212Y308172D01*
X135114Y308960D01*
X138400Y308960D01*
X138464Y308969D01*
X138528Y308968D01*
X138603Y308989D01*
X138679Y309000D01*
X138738Y309026D01*
X138800Y309043D01*
X138866Y309084D01*
X138936Y309116D01*
X138985Y309158D01*
X139040Y309191D01*
X139092Y309249D01*
X139150Y309299D01*
X139186Y309353D01*
X139229Y309401D01*
X139262Y309470D01*
X139305Y309535D01*
X139324Y309597D01*
X139352Y309654D01*
X139363Y309724D01*
X139387Y309805D01*
X139388Y309890D01*
X139399Y309959D01*
X139399Y313829D01*
X140571Y315001D01*
X155229Y315001D01*
X156459Y313771D01*
X156502Y313739D01*
X156538Y313699D01*
X156614Y313654D01*
X156684Y313601D01*
X156734Y313583D01*
X156781Y313555D01*
X156866Y313533D01*
X156948Y313502D01*
X157002Y313498D01*
X157054Y313484D01*
X157142Y313487D01*
X157229Y313480D01*
X157282Y313491D01*
X157335Y313493D01*
X157419Y313520D01*
X157505Y313538D01*
X157553Y313563D01*
X157604Y313579D01*
X157677Y313629D01*
X157754Y313670D01*
X157793Y313708D01*
X157837Y313738D01*
X157886Y313799D01*
X157956Y313867D01*
X157992Y313930D01*
X158031Y313978D01*
X158367Y314560D01*
X158840Y315033D01*
X159419Y315368D01*
X160065Y315541D01*
X164901Y315541D01*
X164901Y306500D01*
X164910Y306436D01*
X164909Y306372D01*
X164930Y306298D01*
X164941Y306221D01*
X164967Y306162D01*
X164984Y306100D01*
X165025Y306034D01*
X165057Y305964D01*
X165099Y305915D01*
X165132Y305860D01*
X165190Y305809D01*
X165240Y305750D01*
X165294Y305714D01*
X165342Y305671D01*
X165411Y305638D01*
X165476Y305595D01*
X165538Y305576D01*
X165595Y305548D01*
X165665Y305538D01*
X165746Y305513D01*
X165831Y305512D01*
X165900Y305501D01*
X166901Y305501D01*
X166901Y305499D01*
X165900Y305499D01*
X165836Y305490D01*
X165772Y305491D01*
X165697Y305470D01*
X165621Y305459D01*
X165562Y305433D01*
X165500Y305416D01*
X165434Y305375D01*
X165364Y305343D01*
X165315Y305301D01*
X165260Y305268D01*
X165208Y305210D01*
X165150Y305160D01*
X165114Y305106D01*
X165071Y305058D01*
X165038Y304989D01*
X164995Y304924D01*
X164976Y304862D01*
X164948Y304804D01*
X164938Y304735D01*
X164913Y304654D01*
X164912Y304569D01*
X164901Y304500D01*
X164901Y295459D01*
X160065Y295459D01*
X159419Y295632D01*
X158840Y295967D01*
X158367Y296440D01*
X158031Y297022D01*
X157998Y297065D01*
X157972Y297112D01*
X157911Y297175D01*
X157857Y297244D01*
X157813Y297275D01*
X157776Y297314D01*
X157699Y297357D01*
X157627Y297409D01*
X157577Y297426D01*
X157530Y297453D01*
X157444Y297473D01*
X157362Y297502D01*
X157308Y297505D01*
X157256Y297518D01*
X157168Y297513D01*
X157080Y297518D01*
X157028Y297506D01*
X156974Y297503D01*
X156891Y297475D01*
X156805Y297455D01*
X156758Y297429D01*
X156708Y297411D01*
X156644Y297365D01*
X156559Y297317D01*
X156508Y297265D01*
X156459Y297229D01*
X155229Y295999D01*
X154511Y295999D01*
X154447Y295990D01*
X154383Y295991D01*
X154308Y295970D01*
X154232Y295959D01*
X154173Y295933D01*
X154111Y295916D01*
X154045Y295875D01*
X153975Y295843D01*
X153926Y295801D01*
X153871Y295768D01*
X153819Y295710D01*
X153761Y295660D01*
X153725Y295606D01*
X153682Y295558D01*
X153649Y295489D01*
X153606Y295424D01*
X153587Y295362D01*
X153559Y295305D01*
X153548Y295235D01*
X153524Y295154D01*
X153523Y295069D01*
X153512Y295000D01*
X153512Y235698D01*
X152724Y233796D01*
X151282Y232355D01*
X151244Y232303D01*
X151198Y232258D01*
X151159Y232191D01*
X151113Y232129D01*
X151090Y232069D01*
X151059Y232013D01*
X151041Y231938D01*
X151013Y231865D01*
X151008Y231801D01*
X150994Y231738D01*
X150998Y231661D01*
X150992Y231584D01*
X151005Y231521D01*
X151008Y231457D01*
X151033Y231384D01*
X151049Y231308D01*
X151079Y231251D01*
X151100Y231190D01*
X151142Y231134D01*
X151182Y231059D01*
X151241Y230998D01*
X151282Y230941D01*
X152724Y229500D01*
X153512Y227598D01*
X153512Y180600D01*
X153521Y180536D01*
X153520Y180472D01*
X153541Y180397D01*
X153552Y180321D01*
X153578Y180262D01*
X153595Y180200D01*
X153636Y180134D01*
X153668Y180064D01*
X153710Y180015D01*
X153743Y179960D01*
X153801Y179908D01*
X153851Y179850D01*
X153905Y179814D01*
X153953Y179771D01*
X154022Y179738D01*
X154087Y179695D01*
X154149Y179676D01*
X154206Y179648D01*
X154276Y179637D01*
X154357Y179613D01*
X154442Y179612D01*
X154511Y179601D01*
X155229Y179601D01*
X156459Y178371D01*
X156502Y178339D01*
X156538Y178299D01*
X156614Y178254D01*
X156684Y178201D01*
X156734Y178183D01*
X156781Y178155D01*
X156866Y178133D01*
X156948Y178102D01*
X157002Y178098D01*
X157054Y178084D01*
X157142Y178087D01*
X157229Y178080D01*
X157282Y178091D01*
X157335Y178093D01*
X157419Y178120D01*
X157505Y178138D01*
X157553Y178163D01*
X157604Y178179D01*
X157677Y178229D01*
X157754Y178270D01*
X157793Y178308D01*
X157837Y178338D01*
X157886Y178399D01*
X157956Y178467D01*
X157992Y178530D01*
X158031Y178578D01*
X158367Y179160D01*
X158840Y179633D01*
X159419Y179968D01*
X160065Y180141D01*
X164901Y180141D01*
X164901Y171100D01*
X164909Y171041D01*
X164909Y171024D01*
X164910Y171021D01*
X164909Y170972D01*
X164930Y170898D01*
X164941Y170821D01*
X164967Y170762D01*
X164984Y170700D01*
X165025Y170634D01*
X165057Y170564D01*
X165099Y170515D01*
X165132Y170460D01*
X165190Y170409D01*
X165240Y170350D01*
X165294Y170314D01*
X165342Y170271D01*
X165411Y170238D01*
X165476Y170195D01*
X165538Y170176D01*
X165595Y170148D01*
X165665Y170138D01*
X165746Y170113D01*
X165831Y170112D01*
X165900Y170101D01*
X166901Y170101D01*
X166901Y169100D01*
X166909Y169041D01*
X166909Y169025D01*
X166910Y169023D01*
X166909Y168972D01*
X166930Y168897D01*
X166941Y168821D01*
X166967Y168762D01*
X166984Y168700D01*
X167025Y168634D01*
X167057Y168564D01*
X167099Y168515D01*
X167132Y168460D01*
X167190Y168408D01*
X167240Y168350D01*
X167294Y168314D01*
X167342Y168271D01*
X167411Y168238D01*
X167476Y168195D01*
X167538Y168176D01*
X167596Y168148D01*
X167665Y168138D01*
X167746Y168113D01*
X167831Y168112D01*
X167900Y168101D01*
X175941Y168101D01*
X175941Y162265D01*
X175768Y161619D01*
X175433Y161040D01*
X175260Y160867D01*
X175240Y160841D01*
X175216Y160820D01*
X175156Y160728D01*
X175090Y160641D01*
X175079Y160611D01*
X175061Y160584D01*
X175030Y160480D01*
X174991Y160377D01*
X174988Y160345D01*
X174979Y160314D01*
X174978Y160205D01*
X174969Y160096D01*
X174976Y160064D01*
X174975Y160032D01*
X175004Y159927D01*
X175027Y159820D01*
X175042Y159791D01*
X175050Y159760D01*
X175108Y159667D01*
X175159Y159571D01*
X175182Y159548D01*
X175199Y159520D01*
X175280Y159447D01*
X175356Y159369D01*
X175384Y159353D01*
X175408Y159331D01*
X175506Y159284D01*
X175601Y159230D01*
X175633Y159222D01*
X175662Y159208D01*
X175751Y159194D01*
X175876Y159165D01*
X175924Y159167D01*
X175966Y159161D01*
X219574Y159161D01*
X219655Y159172D01*
X219736Y159174D01*
X219793Y159192D01*
X219853Y159201D01*
X219927Y159234D01*
X220005Y159258D01*
X220051Y159290D01*
X220110Y159317D01*
X220191Y159386D01*
X220259Y159432D01*
X230525Y169094D01*
X230594Y169181D01*
X230669Y169264D01*
X230682Y169291D01*
X230701Y169315D01*
X230743Y169417D01*
X230792Y169517D01*
X230796Y169546D01*
X230808Y169575D01*
X230826Y169734D01*
X230839Y169822D01*
X230839Y183135D01*
X230833Y183183D01*
X230835Y183230D01*
X230813Y183321D01*
X230799Y183414D01*
X230780Y183458D01*
X230769Y183504D01*
X230722Y183586D01*
X230683Y183671D01*
X230652Y183708D01*
X230628Y183749D01*
X230561Y183814D01*
X230500Y183886D01*
X230460Y183912D01*
X230426Y183945D01*
X230342Y183989D01*
X230264Y184040D01*
X230218Y184054D01*
X230176Y184076D01*
X230084Y184095D01*
X229994Y184123D01*
X229946Y184123D01*
X229900Y184133D01*
X229806Y184125D01*
X229712Y184126D01*
X229666Y184114D01*
X229619Y184110D01*
X229531Y184076D01*
X229440Y184051D01*
X229400Y184026D01*
X229355Y184009D01*
X229280Y183952D01*
X229200Y183903D01*
X229168Y183867D01*
X229130Y183839D01*
X229082Y183772D01*
X229011Y183694D01*
X228983Y183635D01*
X228950Y183589D01*
X228111Y181943D01*
X227006Y180422D01*
X225678Y179094D01*
X224157Y177989D01*
X222483Y177136D01*
X220696Y176555D01*
X219899Y176429D01*
X219899Y187200D01*
X219891Y187258D01*
X219891Y187268D01*
X219890Y187270D01*
X219891Y187328D01*
X219870Y187402D01*
X219859Y187479D01*
X219833Y187538D01*
X219816Y187600D01*
X219775Y187666D01*
X219743Y187736D01*
X219701Y187785D01*
X219668Y187840D01*
X219610Y187891D01*
X219560Y187950D01*
X219506Y187986D01*
X219458Y188029D01*
X219389Y188062D01*
X219324Y188105D01*
X219262Y188124D01*
X219205Y188152D01*
X219135Y188162D01*
X219054Y188187D01*
X218969Y188188D01*
X218900Y188199D01*
X217899Y188199D01*
X217899Y188201D01*
X218900Y188201D01*
X218964Y188210D01*
X219028Y188209D01*
X219103Y188230D01*
X219179Y188241D01*
X219238Y188267D01*
X219300Y188284D01*
X219366Y188325D01*
X219436Y188357D01*
X219485Y188399D01*
X219540Y188432D01*
X219592Y188490D01*
X219650Y188540D01*
X219686Y188594D01*
X219729Y188642D01*
X219762Y188711D01*
X219805Y188776D01*
X219824Y188838D01*
X219852Y188896D01*
X219862Y188965D01*
X219887Y189046D01*
X219888Y189131D01*
X219899Y189200D01*
X219899Y199971D01*
X220696Y199845D01*
X222483Y199264D01*
X224157Y198411D01*
X225678Y197306D01*
X227006Y195978D01*
X228111Y194457D01*
X228950Y192811D01*
X228977Y192772D01*
X228997Y192729D01*
X229058Y192657D01*
X229112Y192580D01*
X229149Y192551D01*
X229180Y192514D01*
X229259Y192463D01*
X229332Y192404D01*
X229376Y192386D01*
X229416Y192360D01*
X229506Y192332D01*
X229593Y192297D01*
X229640Y192291D01*
X229686Y192277D01*
X229780Y192276D01*
X229873Y192266D01*
X229920Y192274D01*
X229968Y192274D01*
X230058Y192299D01*
X230151Y192315D01*
X230194Y192336D01*
X230240Y192349D01*
X230320Y192398D01*
X230404Y192440D01*
X230439Y192472D01*
X230480Y192497D01*
X230543Y192567D01*
X230612Y192630D01*
X230637Y192671D01*
X230669Y192706D01*
X230710Y192791D01*
X230758Y192871D01*
X230771Y192917D01*
X230792Y192960D01*
X230804Y193041D01*
X230832Y193143D01*
X230831Y193209D01*
X230839Y193265D01*
X230839Y307178D01*
X230824Y307288D01*
X230815Y307399D01*
X230804Y307427D01*
X230799Y307457D01*
X230754Y307558D01*
X230714Y307662D01*
X230696Y307685D01*
X230683Y307714D01*
X230580Y307835D01*
X230525Y307906D01*
X220259Y317568D01*
X220193Y317614D01*
X220133Y317669D01*
X220078Y317695D01*
X220028Y317730D01*
X219952Y317756D01*
X219879Y317792D01*
X219823Y317800D01*
X219762Y317822D01*
X219656Y317826D01*
X219574Y317839D01*
X90426Y317839D01*
X90345Y317828D01*
X90264Y317826D01*
X90207Y317808D01*
X90147Y317799D01*
X90073Y317766D01*
X89995Y317742D01*
X89949Y317710D01*
X89890Y317683D01*
X89809Y317614D01*
X89741Y317568D01*
X79475Y307906D01*
X79406Y307819D01*
X79331Y307736D01*
X79318Y307709D01*
X79299Y307685D01*
X79257Y307583D01*
X79208Y307483D01*
X79204Y307454D01*
X79192Y307425D01*
X79174Y307266D01*
X79161Y307178D01*
X79161Y169822D01*
X79176Y169712D01*
X79185Y169601D01*
X79196Y169573D01*
X79201Y169543D01*
X79246Y169442D01*
X79286Y169338D01*
X79304Y169315D01*
X79317Y169286D01*
X79420Y169165D01*
X79475Y169094D01*
X89741Y159432D01*
X89807Y159386D01*
X89867Y159331D01*
X89922Y159305D01*
X89972Y159270D01*
X90048Y159244D01*
X90121Y159208D01*
X90177Y159200D01*
X90238Y159178D01*
X90344Y159174D01*
X90426Y159161D01*
X139597Y159161D01*
X139629Y159165D01*
G37*
%LPC*%
G36*
X183889Y189962D02*
X183889Y189962D01*
X183824Y190005D01*
X183762Y190024D01*
X183704Y190052D01*
X183635Y190063D01*
X183554Y190087D01*
X183469Y190088D01*
X183400Y190099D01*
X175359Y190099D01*
X175359Y191935D01*
X175532Y192581D01*
X175867Y193160D01*
X176319Y193612D01*
X176357Y193663D01*
X176403Y193708D01*
X176442Y193776D01*
X176488Y193837D01*
X176511Y193898D01*
X176542Y193954D01*
X176560Y194029D01*
X176588Y194101D01*
X176592Y194165D01*
X176607Y194228D01*
X176603Y194305D01*
X176609Y194382D01*
X176596Y194445D01*
X176593Y194510D01*
X176568Y194583D01*
X176552Y194659D01*
X176521Y194715D01*
X176500Y194776D01*
X176459Y194833D01*
X176419Y194908D01*
X176375Y194953D01*
X176375Y195414D01*
X176362Y195509D01*
X176357Y195606D01*
X176342Y195649D01*
X176335Y195694D01*
X176296Y195781D01*
X176264Y195872D01*
X176239Y195906D01*
X176219Y195951D01*
X176136Y196048D01*
X176083Y196121D01*
X175393Y196811D01*
X175316Y196868D01*
X175245Y196933D01*
X175204Y196953D01*
X175167Y196980D01*
X175077Y197014D01*
X174991Y197056D01*
X174949Y197062D01*
X174904Y197079D01*
X174776Y197089D01*
X174686Y197103D01*
X174084Y197103D01*
X166623Y204564D01*
X166623Y209528D01*
X166617Y209569D01*
X166620Y209611D01*
X166599Y209695D01*
X166583Y209807D01*
X166559Y209861D01*
X166547Y209911D01*
X166397Y210272D01*
X166397Y212384D01*
X167205Y214334D01*
X168698Y215827D01*
X170648Y216635D01*
X170848Y216635D01*
X170943Y216648D01*
X171040Y216653D01*
X171083Y216668D01*
X171128Y216675D01*
X171215Y216714D01*
X171306Y216746D01*
X171340Y216771D01*
X171385Y216791D01*
X171482Y216874D01*
X171555Y216927D01*
X176083Y221455D01*
X176140Y221532D01*
X176205Y221603D01*
X176225Y221644D01*
X176252Y221681D01*
X176286Y221771D01*
X176328Y221857D01*
X176334Y221899D01*
X176351Y221944D01*
X176361Y222072D01*
X176375Y222162D01*
X176375Y222232D01*
X177037Y222893D01*
X177076Y222945D01*
X177122Y222990D01*
X177160Y223057D01*
X177206Y223119D01*
X177229Y223179D01*
X177261Y223235D01*
X177279Y223310D01*
X177306Y223383D01*
X177311Y223447D01*
X177326Y223509D01*
X177322Y223587D01*
X177328Y223664D01*
X177315Y223727D01*
X177311Y223791D01*
X177286Y223864D01*
X177270Y223940D01*
X177240Y223997D01*
X177219Y224058D01*
X177178Y224114D01*
X177138Y224189D01*
X177078Y224250D01*
X177037Y224307D01*
X176361Y224982D01*
X176357Y225070D01*
X176342Y225113D01*
X176335Y225158D01*
X176296Y225245D01*
X176264Y225336D01*
X176239Y225370D01*
X176219Y225415D01*
X176136Y225512D01*
X176083Y225585D01*
X157479Y244188D01*
X157479Y274530D01*
X157466Y274625D01*
X157461Y274721D01*
X157446Y274764D01*
X157439Y274809D01*
X157400Y274897D01*
X157368Y274988D01*
X157343Y275022D01*
X157323Y275066D01*
X157240Y275163D01*
X157187Y275237D01*
X157045Y275378D01*
X156237Y277328D01*
X156237Y279440D01*
X157045Y281390D01*
X158538Y282883D01*
X160488Y283691D01*
X162600Y283691D01*
X164226Y283017D01*
X164340Y282988D01*
X164454Y282953D01*
X164477Y282953D01*
X164499Y282947D01*
X164617Y282951D01*
X164736Y282949D01*
X164758Y282955D01*
X164781Y282956D01*
X164893Y282993D01*
X165008Y283025D01*
X165027Y283037D01*
X165049Y283044D01*
X165147Y283110D01*
X165248Y283173D01*
X165263Y283190D01*
X165282Y283202D01*
X165357Y283294D01*
X165437Y283382D01*
X165447Y283402D01*
X165461Y283420D01*
X165508Y283529D01*
X165560Y283636D01*
X165563Y283657D01*
X165573Y283679D01*
X165595Y283864D01*
X165607Y283940D01*
X165607Y285148D01*
X172052Y291593D01*
X176823Y291593D01*
X176918Y291606D01*
X177014Y291611D01*
X177053Y291625D01*
X190532Y291625D01*
X191425Y290732D01*
X191425Y283468D01*
X190763Y282807D01*
X190724Y282755D01*
X190678Y282710D01*
X190640Y282643D01*
X190594Y282581D01*
X190571Y282521D01*
X190539Y282465D01*
X190521Y282390D01*
X190494Y282317D01*
X190489Y282253D01*
X190474Y282190D01*
X190478Y282113D01*
X190472Y282036D01*
X190485Y281973D01*
X190489Y281909D01*
X190514Y281836D01*
X190530Y281760D01*
X190560Y281703D01*
X190581Y281642D01*
X190623Y281586D01*
X190662Y281511D01*
X190718Y281454D01*
X190733Y281429D01*
X190744Y281419D01*
X190763Y281393D01*
X191545Y280612D01*
X191561Y280590D01*
X191581Y280545D01*
X191639Y280477D01*
X191669Y280430D01*
X191695Y280406D01*
X191717Y280375D01*
X201169Y270924D01*
X201169Y264226D01*
X201182Y264131D01*
X201187Y264034D01*
X201202Y263991D01*
X201209Y263946D01*
X201248Y263859D01*
X201280Y263768D01*
X201305Y263734D01*
X201325Y263689D01*
X201408Y263592D01*
X201461Y263519D01*
X204217Y260764D01*
X204217Y232730D01*
X204230Y232635D01*
X204235Y232538D01*
X204250Y232495D01*
X204257Y232450D01*
X204296Y232363D01*
X204328Y232272D01*
X204353Y232238D01*
X204373Y232193D01*
X204456Y232096D01*
X204509Y232023D01*
X212626Y223906D01*
X212634Y223900D01*
X212640Y223893D01*
X212747Y223816D01*
X212852Y223737D01*
X212861Y223733D01*
X212869Y223728D01*
X212992Y223684D01*
X213116Y223637D01*
X213125Y223636D01*
X213134Y223633D01*
X213266Y223626D01*
X213397Y223615D01*
X213406Y223617D01*
X213416Y223617D01*
X213491Y223635D01*
X213673Y223673D01*
X213694Y223684D01*
X213715Y223689D01*
X215727Y224523D01*
X220073Y224523D01*
X224087Y222860D01*
X227160Y219787D01*
X228823Y215773D01*
X228823Y211427D01*
X227160Y207413D01*
X224087Y204340D01*
X220073Y202677D01*
X215727Y202677D01*
X211713Y204340D01*
X208640Y207413D01*
X206977Y211427D01*
X206977Y215773D01*
X207391Y216772D01*
X207394Y216781D01*
X207398Y216789D01*
X207429Y216918D01*
X207461Y217045D01*
X207461Y217055D01*
X207463Y217064D01*
X207456Y217197D01*
X207452Y217327D01*
X207449Y217336D01*
X207449Y217346D01*
X207406Y217469D01*
X207365Y217595D01*
X207359Y217603D01*
X207356Y217612D01*
X207311Y217674D01*
X207206Y217828D01*
X207187Y217843D01*
X207175Y217861D01*
X202875Y222161D01*
X202849Y222180D01*
X202828Y222205D01*
X202736Y222265D01*
X202649Y222330D01*
X202619Y222342D01*
X202592Y222359D01*
X202487Y222391D01*
X202385Y222430D01*
X202353Y222432D01*
X202322Y222442D01*
X202213Y222443D01*
X202104Y222452D01*
X202072Y222445D01*
X202040Y222446D01*
X201935Y222416D01*
X201828Y222394D01*
X201799Y222379D01*
X201768Y222370D01*
X201675Y222313D01*
X201579Y222262D01*
X201556Y222239D01*
X201528Y222222D01*
X201455Y222141D01*
X201377Y222065D01*
X201361Y222037D01*
X201339Y222013D01*
X201292Y221915D01*
X201238Y221819D01*
X201230Y221788D01*
X201216Y221759D01*
X201202Y221670D01*
X201173Y221545D01*
X201175Y221497D01*
X201169Y221454D01*
X201169Y214724D01*
X191717Y205273D01*
X191682Y205225D01*
X190763Y204307D01*
X190724Y204255D01*
X190678Y204210D01*
X190640Y204143D01*
X190594Y204081D01*
X190571Y204021D01*
X190539Y203965D01*
X190521Y203890D01*
X190494Y203817D01*
X190489Y203753D01*
X190474Y203690D01*
X190478Y203613D01*
X190472Y203536D01*
X190485Y203473D01*
X190489Y203409D01*
X190514Y203336D01*
X190530Y203260D01*
X190560Y203203D01*
X190581Y203142D01*
X190623Y203086D01*
X190662Y203011D01*
X190722Y202950D01*
X190763Y202893D01*
X191425Y202232D01*
X191425Y194956D01*
X191397Y194929D01*
X191359Y194861D01*
X191312Y194799D01*
X191289Y194739D01*
X191258Y194683D01*
X191240Y194608D01*
X191212Y194536D01*
X191208Y194472D01*
X191193Y194409D01*
X191197Y194332D01*
X191191Y194254D01*
X191204Y194191D01*
X191207Y194127D01*
X191232Y194054D01*
X191248Y193978D01*
X191278Y193922D01*
X191300Y193861D01*
X191341Y193804D01*
X191381Y193729D01*
X191440Y193669D01*
X191481Y193612D01*
X191933Y193160D01*
X192268Y192581D01*
X192441Y191935D01*
X192441Y190099D01*
X184400Y190099D01*
X184337Y190090D01*
X184272Y190091D01*
X184198Y190070D01*
X184121Y190059D01*
X184063Y190033D01*
X184001Y190016D01*
X183935Y189975D01*
X183897Y189958D01*
X183889Y189962D01*
G37*
%LPD*%
G36*
X195184Y228659D02*
X195184Y228659D01*
X195216Y228658D01*
X195321Y228688D01*
X195428Y228710D01*
X195457Y228725D01*
X195488Y228734D01*
X195581Y228791D01*
X195677Y228842D01*
X195700Y228865D01*
X195728Y228882D01*
X195801Y228963D01*
X195879Y229039D01*
X195895Y229067D01*
X195917Y229091D01*
X195964Y229189D01*
X196018Y229285D01*
X196026Y229316D01*
X196040Y229345D01*
X196054Y229434D01*
X196083Y229559D01*
X196081Y229607D01*
X196087Y229650D01*
X196087Y255998D01*
X196083Y256030D01*
X196085Y256063D01*
X196063Y256169D01*
X196047Y256278D01*
X196034Y256307D01*
X196028Y256339D01*
X195976Y256435D01*
X195931Y256535D01*
X195910Y256559D01*
X195895Y256588D01*
X195819Y256666D01*
X195748Y256749D01*
X195721Y256767D01*
X195698Y256790D01*
X195603Y256843D01*
X195512Y256903D01*
X195481Y256913D01*
X195453Y256929D01*
X195347Y256954D01*
X195242Y256986D01*
X195210Y256986D01*
X195179Y256994D01*
X195069Y256988D01*
X194960Y256990D01*
X194929Y256981D01*
X194897Y256979D01*
X194794Y256944D01*
X194688Y256914D01*
X194661Y256897D01*
X194630Y256887D01*
X194557Y256833D01*
X194448Y256766D01*
X194416Y256730D01*
X194381Y256705D01*
X191717Y254041D01*
X191660Y253964D01*
X191595Y253893D01*
X191575Y253852D01*
X191548Y253815D01*
X191514Y253725D01*
X191472Y253639D01*
X191466Y253597D01*
X191449Y253552D01*
X191443Y253473D01*
X191397Y253429D01*
X191359Y253361D01*
X191312Y253299D01*
X191289Y253239D01*
X191258Y253183D01*
X191240Y253108D01*
X191212Y253036D01*
X191208Y252972D01*
X191193Y252909D01*
X191197Y252832D01*
X191191Y252754D01*
X191204Y252691D01*
X191207Y252627D01*
X191232Y252554D01*
X191248Y252478D01*
X191278Y252422D01*
X191300Y252361D01*
X191341Y252304D01*
X191381Y252229D01*
X191440Y252169D01*
X191481Y252112D01*
X191933Y251660D01*
X192268Y251081D01*
X192441Y250435D01*
X192441Y248599D01*
X184400Y248599D01*
X184337Y248590D01*
X184272Y248591D01*
X184198Y248570D01*
X184121Y248559D01*
X184063Y248533D01*
X184001Y248516D01*
X183935Y248475D01*
X183897Y248458D01*
X183889Y248462D01*
X183824Y248505D01*
X183762Y248524D01*
X183704Y248552D01*
X183635Y248563D01*
X183554Y248587D01*
X183469Y248588D01*
X183400Y248599D01*
X175359Y248599D01*
X175359Y250435D01*
X175532Y251081D01*
X175867Y251660D01*
X176319Y252112D01*
X176357Y252163D01*
X176403Y252208D01*
X176442Y252276D01*
X176488Y252337D01*
X176511Y252398D01*
X176542Y252454D01*
X176560Y252529D01*
X176588Y252601D01*
X176592Y252665D01*
X176607Y252728D01*
X176603Y252805D01*
X176609Y252882D01*
X176596Y252945D01*
X176593Y253010D01*
X176568Y253083D01*
X176552Y253159D01*
X176521Y253215D01*
X176500Y253276D01*
X176459Y253333D01*
X176419Y253408D01*
X176375Y253453D01*
X176375Y260946D01*
X176371Y260978D01*
X176373Y261010D01*
X176351Y261117D01*
X176335Y261225D01*
X176322Y261255D01*
X176316Y261286D01*
X176264Y261383D01*
X176219Y261482D01*
X176198Y261507D01*
X176183Y261535D01*
X176107Y261614D01*
X176036Y261696D01*
X176009Y261714D01*
X175986Y261737D01*
X175891Y261791D01*
X175800Y261851D01*
X175769Y261860D01*
X175741Y261876D01*
X175634Y261901D01*
X175530Y261933D01*
X175498Y261934D01*
X175466Y261941D01*
X175357Y261936D01*
X175248Y261937D01*
X175217Y261928D01*
X175185Y261927D01*
X175082Y261891D01*
X174976Y261862D01*
X174949Y261845D01*
X174918Y261834D01*
X174845Y261781D01*
X174736Y261714D01*
X174722Y261698D01*
X172760Y260885D01*
X170648Y260885D01*
X168698Y261693D01*
X167315Y263077D01*
X167289Y263096D01*
X167268Y263120D01*
X167176Y263181D01*
X167089Y263246D01*
X167059Y263257D01*
X167032Y263275D01*
X166927Y263307D01*
X166825Y263345D01*
X166793Y263348D01*
X166762Y263357D01*
X166653Y263359D01*
X166544Y263367D01*
X166512Y263361D01*
X166480Y263361D01*
X166375Y263332D01*
X166268Y263310D01*
X166239Y263294D01*
X166208Y263286D01*
X166115Y263229D01*
X166019Y263177D01*
X165996Y263155D01*
X165968Y263138D01*
X165895Y263057D01*
X165817Y262980D01*
X165801Y262952D01*
X165779Y262928D01*
X165732Y262830D01*
X165678Y262735D01*
X165670Y262704D01*
X165656Y262675D01*
X165642Y262585D01*
X165613Y262461D01*
X165615Y262412D01*
X165609Y262370D01*
X165609Y247970D01*
X165622Y247875D01*
X165627Y247778D01*
X165642Y247735D01*
X165649Y247690D01*
X165688Y247603D01*
X165720Y247512D01*
X165745Y247478D01*
X165765Y247433D01*
X165848Y247336D01*
X165901Y247263D01*
X179747Y233417D01*
X179824Y233360D01*
X179895Y233295D01*
X179936Y233275D01*
X179973Y233248D01*
X180063Y233214D01*
X180149Y233172D01*
X180191Y233166D01*
X180236Y233149D01*
X180364Y233139D01*
X180454Y233125D01*
X190532Y233125D01*
X191438Y232218D01*
X191443Y232122D01*
X191458Y232079D01*
X191465Y232034D01*
X191504Y231947D01*
X191536Y231856D01*
X191561Y231822D01*
X191581Y231777D01*
X191664Y231680D01*
X191717Y231607D01*
X193333Y229991D01*
X194381Y228943D01*
X194407Y228924D01*
X194428Y228899D01*
X194520Y228839D01*
X194607Y228774D01*
X194637Y228762D01*
X194664Y228745D01*
X194769Y228713D01*
X194871Y228674D01*
X194903Y228672D01*
X194934Y228662D01*
X195043Y228661D01*
X195152Y228652D01*
X195184Y228659D01*
G37*
%LPC*%
G36*
X215727Y278877D02*
X215727Y278877D01*
X211713Y280540D01*
X208640Y283613D01*
X206977Y287627D01*
X206977Y291973D01*
X208640Y295987D01*
X211713Y299060D01*
X215727Y300723D01*
X220073Y300723D01*
X224087Y299060D01*
X227160Y295987D01*
X228823Y291973D01*
X228823Y287627D01*
X227160Y283613D01*
X224087Y280540D01*
X220073Y278877D01*
X215727Y278877D01*
G37*
%LPD*%
%LPC*%
G36*
X215727Y253477D02*
X215727Y253477D01*
X211713Y255140D01*
X208640Y258213D01*
X206977Y262227D01*
X206977Y266573D01*
X208640Y270587D01*
X211713Y273660D01*
X215727Y275323D01*
X220073Y275323D01*
X224087Y273660D01*
X227160Y270587D01*
X228823Y266573D01*
X228823Y262227D01*
X227160Y258213D01*
X224087Y255140D01*
X220073Y253477D01*
X215727Y253477D01*
G37*
%LPD*%
%LPC*%
G36*
X215727Y228077D02*
X215727Y228077D01*
X211713Y229740D01*
X208640Y232813D01*
X206977Y236827D01*
X206977Y241173D01*
X208640Y245187D01*
X211713Y248260D01*
X215727Y249923D01*
X220073Y249923D01*
X224087Y248260D01*
X227160Y245187D01*
X228823Y241173D01*
X228823Y236827D01*
X227160Y232813D01*
X224087Y229740D01*
X220073Y228077D01*
X215727Y228077D01*
G37*
%LPD*%
%LPC*%
G36*
X90727Y202677D02*
X90727Y202677D01*
X86713Y204340D01*
X83640Y207413D01*
X81977Y211427D01*
X81977Y215773D01*
X83640Y219787D01*
X86713Y222860D01*
X90727Y224523D01*
X95073Y224523D01*
X99087Y222860D01*
X102160Y219787D01*
X103823Y215773D01*
X103823Y211427D01*
X102160Y207413D01*
X99087Y204340D01*
X95073Y202677D01*
X90727Y202677D01*
G37*
%LPD*%
%LPC*%
G36*
X90727Y177277D02*
X90727Y177277D01*
X86713Y178940D01*
X83640Y182013D01*
X81977Y186027D01*
X81977Y190373D01*
X83640Y194387D01*
X86713Y197460D01*
X90727Y199123D01*
X95073Y199123D01*
X99087Y197460D01*
X102160Y194387D01*
X103823Y190373D01*
X103823Y186027D01*
X102160Y182013D01*
X99087Y178940D01*
X95073Y177277D01*
X90727Y177277D01*
G37*
%LPD*%
%LPC*%
G36*
X206129Y190199D02*
X206129Y190199D01*
X206255Y190996D01*
X206836Y192783D01*
X207689Y194457D01*
X208794Y195978D01*
X210122Y197306D01*
X211643Y198411D01*
X213317Y199264D01*
X215104Y199845D01*
X215901Y199971D01*
X215901Y190199D01*
X206129Y190199D01*
G37*
%LPD*%
%LPC*%
G36*
X215104Y176555D02*
X215104Y176555D01*
X213317Y177136D01*
X211643Y177989D01*
X210122Y179094D01*
X208794Y180422D01*
X207689Y181943D01*
X206836Y183617D01*
X206255Y185404D01*
X206129Y186201D01*
X215901Y186201D01*
X215901Y176429D01*
X215104Y176555D01*
G37*
%LPD*%
%LPC*%
G36*
X168899Y307499D02*
X168899Y307499D01*
X168899Y315541D01*
X173735Y315541D01*
X174381Y315368D01*
X174960Y315033D01*
X175433Y314560D01*
X175768Y313981D01*
X175941Y313335D01*
X175941Y307499D01*
X168899Y307499D01*
G37*
%LPD*%
%LPC*%
G36*
X168899Y172099D02*
X168899Y172099D01*
X168899Y180141D01*
X173735Y180141D01*
X174381Y179968D01*
X174960Y179633D01*
X175433Y179160D01*
X175768Y178581D01*
X175941Y177935D01*
X175941Y172099D01*
X168899Y172099D01*
G37*
%LPD*%
%LPC*%
G36*
X168899Y295459D02*
X168899Y295459D01*
X168899Y303501D01*
X175941Y303501D01*
X175941Y297665D01*
X175768Y297019D01*
X175433Y296440D01*
X174960Y295967D01*
X174381Y295632D01*
X173735Y295459D01*
X168899Y295459D01*
G37*
%LPD*%
%LPC*%
G36*
X185399Y241559D02*
X185399Y241559D01*
X185399Y245601D01*
X192441Y245601D01*
X192441Y243765D01*
X192268Y243119D01*
X191933Y242540D01*
X191460Y242067D01*
X190881Y241732D01*
X190235Y241559D01*
X185399Y241559D01*
G37*
%LPD*%
%LPC*%
G36*
X185399Y183059D02*
X185399Y183059D01*
X185399Y187101D01*
X192441Y187101D01*
X192441Y185265D01*
X192268Y184619D01*
X191933Y184040D01*
X191460Y183567D01*
X190881Y183232D01*
X190235Y183059D01*
X185399Y183059D01*
G37*
%LPD*%
%LPC*%
G36*
X177565Y241559D02*
X177565Y241559D01*
X176919Y241732D01*
X176340Y242067D01*
X175867Y242540D01*
X175532Y243119D01*
X175359Y243765D01*
X175359Y245601D01*
X182401Y245601D01*
X182401Y241559D01*
X177565Y241559D01*
G37*
%LPD*%
%LPC*%
G36*
X177565Y183059D02*
X177565Y183059D01*
X176919Y183232D01*
X176340Y183567D01*
X175867Y184040D01*
X175532Y184619D01*
X175359Y185265D01*
X175359Y187101D01*
X182401Y187101D01*
X182401Y183059D01*
X177565Y183059D01*
G37*
%LPD*%
D10*
X147900Y305500D03*
X166900Y305500D03*
X147900Y170100D03*
X166900Y170100D03*
D11*
X92900Y188200D03*
X92900Y213600D03*
X92900Y239000D03*
X92900Y264400D03*
X92900Y289800D03*
X217900Y188200D03*
X217900Y213600D03*
X217900Y239000D03*
X217900Y264400D03*
X217900Y289800D03*
D12*
X130900Y287100D03*
X130900Y277100D03*
X130900Y267100D03*
X130900Y257100D03*
X130900Y247100D03*
X183900Y247100D03*
X183900Y257100D03*
X183900Y267100D03*
X183900Y277100D03*
X183900Y287100D03*
X130900Y228600D03*
X130900Y218600D03*
X130900Y208600D03*
X130900Y198600D03*
X130900Y188600D03*
X183900Y188600D03*
X183900Y198600D03*
X183900Y208600D03*
X183900Y218600D03*
X183900Y228600D03*
D13*
X130048Y199136D02*
X119888Y199136D01*
X117856Y201168D01*
X117856Y214376D01*
X119380Y215900D02*
X121920Y218440D01*
X119380Y215900D02*
X117856Y214376D01*
X121920Y218440D02*
X130048Y218440D01*
X130048Y199136D02*
X130900Y198600D01*
X130048Y218440D02*
X130900Y218600D01*
X119380Y215900D02*
X109728Y225552D01*
X109728Y244856D01*
X93472Y261112D01*
X93472Y264160D01*
X92900Y264400D01*
X131064Y188976D02*
X135128Y188976D01*
X140208Y194056D01*
X140208Y196088D01*
X141224Y197104D01*
X141224Y202184D01*
X135128Y208280D01*
X131064Y208280D01*
X131064Y188976D02*
X130900Y188600D01*
X131064Y208280D02*
X130900Y208600D01*
X130048Y188976D02*
X119888Y188976D01*
X109728Y199136D01*
X109728Y219456D01*
X93472Y235712D01*
X93472Y238760D01*
X130048Y188976D02*
X130900Y188600D01*
X93472Y238760D02*
X92900Y239000D01*
D14*
X184912Y208280D02*
X188976Y208280D01*
X197104Y216408D01*
X197104Y220472D01*
X188976Y228600D01*
X183900Y228600D01*
X183900Y208600D02*
X184912Y208280D01*
X183900Y228600D02*
X178816Y228600D01*
X161544Y245872D01*
X161544Y278384D01*
D15*
X161544Y278384D03*
D14*
X178816Y199136D02*
X183896Y199136D01*
X178816Y199136D02*
X176784Y201168D01*
X175768Y201168D01*
X170688Y206248D01*
X170688Y210312D01*
X171704Y211328D02*
X179832Y219456D01*
X183896Y219456D01*
X183896Y199136D02*
X183900Y198600D01*
X183900Y218600D02*
X183896Y219456D01*
X171704Y211328D02*
X170688Y210312D01*
D15*
X171704Y211328D03*
D16*
X132080Y227584D02*
X131064Y228600D01*
X132080Y227584D02*
X134112Y227584D01*
X137160Y230632D01*
X144272Y230632D01*
X148336Y226568D01*
X148336Y170688D01*
X131064Y228600D02*
X130900Y228600D01*
X148336Y170688D02*
X147900Y170100D01*
X131064Y287528D02*
X131064Y298704D01*
X136144Y303784D01*
X146304Y303784D01*
X147320Y304800D01*
X131064Y287528D02*
X130900Y287100D01*
X147320Y304800D02*
X147900Y305500D01*
X128016Y299720D02*
X108712Y299720D01*
X99568Y290576D01*
X93472Y290576D01*
X128016Y299720D02*
X131064Y298704D01*
X93472Y290576D02*
X92900Y289800D01*
X148336Y236728D02*
X145288Y233680D01*
X148336Y236728D02*
X148336Y300736D01*
X149352Y301752D01*
X149352Y302768D01*
X145288Y233680D02*
X144272Y230632D01*
X149352Y302768D02*
X147900Y305500D01*
D13*
X130048Y257048D02*
X120904Y257048D01*
X118872Y259080D02*
X117856Y260096D01*
X118872Y259080D02*
X120904Y257048D01*
X117856Y260096D02*
X117856Y272288D01*
X121920Y276352D01*
X130048Y276352D01*
X130900Y257100D02*
X130048Y257048D01*
X130048Y276352D02*
X130900Y277100D01*
D15*
X118872Y259080D03*
D13*
X131064Y247904D02*
X135128Y247904D01*
X141224Y254000D01*
X141224Y261112D01*
X136144Y266192D01*
X131064Y266192D01*
X131064Y247904D02*
X130900Y247100D01*
X131064Y266192D02*
X130900Y267100D01*
X131064Y245872D02*
X131064Y238760D01*
X131064Y245872D02*
X130900Y247100D01*
D15*
X131064Y238760D03*
D14*
X173736Y267208D02*
X183896Y267208D01*
X173736Y267208D02*
X172720Y268224D01*
X170688Y268224D01*
X169672Y269240D01*
X169672Y283464D01*
X173736Y287528D01*
X183896Y287528D01*
X183896Y267208D02*
X183900Y267100D01*
X183900Y287100D02*
X183896Y287528D01*
X173736Y267208D02*
X171704Y266192D01*
D15*
X171704Y266192D03*
D14*
X184912Y257048D02*
X188976Y257048D01*
X195580Y263652D02*
X197104Y265176D01*
X195580Y263652D02*
X188976Y257048D01*
X197104Y265176D02*
X197104Y269240D01*
X187960Y278384D01*
X185928Y278384D01*
X184912Y277368D01*
X183900Y257100D02*
X184912Y257048D01*
X183900Y277100D02*
X184912Y277368D01*
X195580Y263652D02*
X200152Y259080D01*
X200152Y230632D01*
X217424Y213360D01*
X217900Y213600D01*
M02*
