M48
;GenerationSoftware,Autodesk,EAGLE,9.6.2*%
;CreationDate,2021-03-30T03:44:14Z*%
FMAT,2
ICI,OFF
METRIC,TZ,000.000
T11C0.350
T10C0.800
T9C0.813
T8C0.900
T7C1.000
T6C1.016
T5C1.118
T4C1.500
T3C1.880
T2C3.000
T1C3.302
%
G90
M71
T1
X91100Y72726
T2
X43850Y60040
X73538Y67850
X43820Y83090
X73568Y44800
T3
X91510Y31470
X93669Y44170
X86430Y31470
X84271Y44170
X88970Y44170
T4
X39248Y66834
X78872Y84106
X78872Y66834
X39278Y43784
X39278Y61056
X78902Y61056
X78902Y43784
X39248Y84106
T5
X91100Y57740
X88560Y57740
X93640Y57740
T6
X90480Y92970
X90480Y95510
X77780Y95510
X54920Y95510
X42220Y92970
X42220Y95510
X44760Y92970
X44760Y95510
X47300Y92970
X47300Y95510
X49840Y92970
X49840Y95510
X52380Y92970
X52380Y95510
X54920Y92970
X57460Y92970
X57460Y95510
X60000Y92970
X60000Y95510
X62540Y92970
X62540Y95510
X65080Y92970
X65080Y95510
X67620Y92970
X67620Y95510
X70160Y92970
X70160Y95510
X72700Y92970
X72700Y95510
X75240Y92970
X75240Y95510
X77780Y92970
X80320Y92970
X80320Y95510
X82860Y92970
X82860Y95510
X85400Y92970
X85400Y95510
X87940Y92970
X87940Y95510
T7
X30360Y52090
X25280Y45790
X27820Y45790
X30360Y45790
X25280Y52090
X27820Y52090
T8
X26830Y63800
X26830Y61800
X24830Y59800
X26830Y59800
X24770Y87440
X26770Y87440
X24770Y85440
X26770Y85440
X24830Y63800
X24770Y83440
X26770Y83440
X24770Y81440
X26770Y81440
X24770Y79440
X26770Y79440
X24830Y61800
X24770Y75440
X26770Y75440
X26770Y77440
X24830Y71800
X26830Y71800
X24830Y69800
X26830Y69800
X24830Y67800
X26830Y67800
X24830Y65800
X26830Y65800
X24770Y77440
T9
X35410Y36820
X55370Y34230
X64640Y34250
X67180Y34250
X71790Y31750
X71790Y36830
X35410Y31740
X47290Y31810
X47290Y36890
X59690Y31790
X59690Y36870
X43070Y34230
X40530Y34230
X52830Y34230
X76480Y34230
X79020Y34230
T10
X103490Y71450
X103430Y58230
X103430Y60230
X103490Y73450
T11
X25447Y95456
X75551Y84373
X23638Y80640
X63675Y86748
X54967Y90141
X42865Y90932
X75551Y77700
X74194Y76343
X75890Y74646
X69896Y67634
X29406Y68086
X29406Y80188
M30