M48
;GenerationSoftware,Autodesk,EAGLE,9.6.2*%
;CreationDate,2021-03-31T05:54:03Z*%
FMAT,2
ICI,OFF
METRIC,TZ,000.000
T11C0.350
T10C0.800
T9C0.813
T8C0.914
T7C1.000
T6C1.016
T5C1.118
T4C1.500
T3C1.880
T2C3.000
T1C3.302
%
G90
M71
T1
X91100Y72726
T2
X73538Y67850
X43820Y83090
X73568Y44800
X43850Y60040
T3
X91510Y31470
X86430Y31470
X88970Y44170
X84271Y44170
X93669Y44170
T4
X78902Y61056
X78902Y43784
X78872Y84106
X39248Y84106
X39248Y66834
X39278Y43784
X39278Y61056
X78872Y66834
T5
X93640Y57740
X91100Y57740
X88560Y57740
T6
X60000Y95510
X62540Y92970
X62540Y95510
X65080Y92970
X65080Y95510
X67620Y92970
X67620Y95510
X70160Y92970
X70160Y95510
X72700Y92970
X23400Y92560
X23400Y95100
X72700Y95510
X90480Y92970
X52380Y95510
X90480Y95510
X87940Y95510
X87940Y92970
X85400Y95510
X85400Y92970
X82860Y95510
X82860Y92970
X80320Y95510
X80320Y92970
X77780Y95510
X77780Y92970
X54920Y92970
X54920Y95510
X57460Y92970
X57460Y95510
X60000Y92970
X75240Y95510
X75240Y92970
X42220Y92970
X42220Y95510
X44760Y92970
X44760Y95510
X47300Y92970
X47300Y95510
X49840Y92970
X49840Y95510
X52380Y92970
T7
X30610Y44980
X26210Y50060
X26210Y44980
X26210Y47520
X30610Y50060
X30610Y47520
T8
X24230Y69420
X26770Y69420
X24130Y73380
X26670Y73380
X24130Y75920
X26670Y75920
X24130Y78460
X26670Y78460
X24130Y81000
X26670Y81000
X24130Y83540
X26670Y83540
X24130Y86080
X26670Y86080
X24130Y88620
X26670Y88620
X24230Y61800
X24230Y54180
X26770Y54180
X24230Y56720
X26770Y56720
X24230Y59260
X26770Y59260
X26770Y61800
X24230Y64340
X26770Y64340
X24230Y66880
X26770Y66880
T9
X59690Y36870
X47290Y31810
X47290Y36890
X59690Y31790
X43070Y34230
X76480Y34230
X79020Y34230
X40530Y34230
X52830Y34230
X55370Y34230
X64640Y34250
X67180Y34250
X71790Y31750
X71790Y36830
X35410Y36820
X35410Y31740
T10
X103430Y60230
X103490Y71450
X103490Y73450
X103430Y58230
T11
X63125Y63125
X22625Y73375
X61250Y86750
X44000Y74500
X38500Y74500
X32875Y74500
X63875Y87500
X48875Y78375
X42375Y78375
X32250Y77500
X51875Y79625
X48875Y79625
X42875Y79625
X29625Y82000
X31625Y89375
X56500Y89000
X56000Y64875
X39000Y88625
X29500Y88625
X29875Y67375
X37250Y70125
X36375Y66875
X44875Y88500
X34875Y69750
X34375Y67375
X43875Y88625
X71250Y80125
X39875Y97500
X70625Y80875
X49625Y70750
X57125Y89750
X47500Y80375
X29625Y83875
X62375Y89000
X80250Y89125
X38125Y87750
X30875Y87750
X74500Y89875
X35000Y84625
X29375Y87375
X91625Y97750
X31750Y67375
X36250Y70000
X63500Y91250
X53000Y87000
X59250Y57000
X70500Y72750
X31625Y90375
X61250Y97750
X61000Y64125
X65250Y64125
X61000Y63125
X46750Y87750
M30