M48
;GenerationSoftware,Autodesk,EAGLE,9.6.2*%
;CreationDate,2021-03-30T05:13:55Z*%
FMAT,2
ICI,OFF
METRIC,TZ,000.000
T5C0.350
T4C0.813
T3C0.900
T2C1.000
T1C1.100
%
G90
M71
T1
X22800Y68730
X25340Y68730
X27880Y68730
X30420Y68730
X32960Y68730
X35500Y68730
X36770Y63650
X34230Y63650
X31690Y63650
X29150Y63650
X26610Y63650
X24070Y63650
X21530Y63650
X18990Y63650
X20260Y68730
T2
X46990Y61190
X46990Y58650
X8890Y61190
X46990Y56110
X46990Y53570
X46990Y51030
X46990Y48490
X8890Y48490
X8890Y51030
X8890Y53570
X8890Y56110
X8890Y58650
T3
X25940Y40370
X25940Y38370
X23940Y40370
X23940Y38370
X21940Y40370
X21940Y38370
X29940Y38370
X33940Y40370
X33940Y38370
X31940Y40370
X31940Y38370
X29940Y40370
X27940Y40370
X27940Y38370
T4
X17780Y54610
X30480Y54610
X38100Y58420
X30480Y58420
X17780Y46990
X25400Y50800
X17780Y50800
X38100Y46990
X30480Y46990
X38100Y50800
X30480Y50800
X25400Y46990
X25400Y54610
X25400Y58420
X17780Y58420
X38100Y54610
T5
X23063Y66345
X32614Y47752
X24282Y60960
X21539Y57709
X17272Y61976
X13716Y49479
X44501Y59233
X28550Y57404
X21641Y58623
X24079Y59741
M30