G04 EAGLE Gerber RS-274X export*
G75*
%MOMM*%
%FSLAX34Y34*%
%LPD*%
%INTop Copper*%
%IPPOS*%
%AMOC8*
5,1,8,0,0,1.08239X$1,22.5*%
G01*
%ADD10C,1.422400*%
%ADD11C,1.879600*%
%ADD12P,1.814519X8X112.500000*%
%ADD13P,1.429621X8X112.500000*%
%ADD14R,2.500000X2.500000*%
%ADD15C,2.819400*%
%ADD16C,1.508000*%
%ADD17C,1.676400*%
%ADD18R,1.108000X1.108000*%
%ADD19C,0.756400*%
%ADD20C,0.700000*%
%ADD21C,0.300000*%

G36*
X657113Y349168D02*
X657113Y349168D01*
X657132Y349166D01*
X657233Y349188D01*
X657336Y349205D01*
X657353Y349214D01*
X657372Y349218D01*
X657461Y349271D01*
X657553Y349320D01*
X657567Y349334D01*
X657584Y349344D01*
X657651Y349423D01*
X657723Y349498D01*
X657731Y349516D01*
X657744Y349531D01*
X657783Y349627D01*
X657827Y349721D01*
X657829Y349741D01*
X657836Y349759D01*
X657855Y349925D01*
X658824Y1032082D01*
X658821Y1032102D01*
X658823Y1032122D01*
X658801Y1032223D01*
X658784Y1032324D01*
X658775Y1032342D01*
X658771Y1032362D01*
X658718Y1032451D01*
X658670Y1032542D01*
X658655Y1032556D01*
X658645Y1032573D01*
X658566Y1032640D01*
X658491Y1032711D01*
X658473Y1032720D01*
X658458Y1032733D01*
X658362Y1032772D01*
X658269Y1032815D01*
X658248Y1032818D01*
X658230Y1032825D01*
X658063Y1032844D01*
X-275093Y1033235D01*
X-275113Y1033232D01*
X-275132Y1033234D01*
X-275233Y1033212D01*
X-275336Y1033195D01*
X-275353Y1033186D01*
X-275372Y1033182D01*
X-275461Y1033129D01*
X-275553Y1033080D01*
X-275567Y1033066D01*
X-275584Y1033056D01*
X-275651Y1032977D01*
X-275723Y1032902D01*
X-275731Y1032884D01*
X-275744Y1032869D01*
X-275783Y1032773D01*
X-275827Y1032679D01*
X-275829Y1032659D01*
X-275836Y1032641D01*
X-275855Y1032475D01*
X-276824Y350318D01*
X-276821Y350298D01*
X-276823Y350278D01*
X-276801Y350177D01*
X-276784Y350076D01*
X-276775Y350058D01*
X-276771Y350038D01*
X-276718Y349949D01*
X-276670Y349858D01*
X-276655Y349844D01*
X-276645Y349827D01*
X-276566Y349760D01*
X-276491Y349689D01*
X-276473Y349680D01*
X-276458Y349667D01*
X-276362Y349628D01*
X-276269Y349585D01*
X-276248Y349582D01*
X-276230Y349575D01*
X-276063Y349556D01*
X657093Y349165D01*
X657113Y349168D01*
G37*
%LPC*%
G36*
X-137173Y361077D02*
X-137173Y361077D01*
X-141187Y362740D01*
X-144260Y365813D01*
X-145923Y369827D01*
X-145923Y374173D01*
X-144260Y378187D01*
X-141187Y381260D01*
X-137173Y382923D01*
X-132827Y382923D01*
X-132313Y382710D01*
X-132248Y382695D01*
X-132209Y382679D01*
X-132161Y382673D01*
X-132086Y382655D01*
X-132080Y382655D01*
X-132074Y382654D01*
X-131957Y382665D01*
X-131841Y382674D01*
X-131835Y382676D01*
X-131829Y382677D01*
X-131780Y382699D01*
X-131771Y382700D01*
X-131740Y382716D01*
X-131722Y382724D01*
X-131615Y382770D01*
X-131609Y382775D01*
X-131604Y382777D01*
X-131591Y382789D01*
X-131568Y382807D01*
X-131554Y382815D01*
X-131538Y382831D01*
X-131484Y382875D01*
X-36401Y477958D01*
X-36389Y477974D01*
X-36374Y477986D01*
X-36318Y478073D01*
X-36257Y478157D01*
X-36252Y478176D01*
X-36241Y478193D01*
X-36216Y478294D01*
X-36185Y478392D01*
X-36186Y478412D01*
X-36181Y478432D01*
X-36189Y478535D01*
X-36191Y478638D01*
X-36198Y478657D01*
X-36200Y478677D01*
X-36240Y478772D01*
X-36276Y478869D01*
X-36288Y478885D01*
X-36296Y478903D01*
X-36401Y479034D01*
X-36975Y479608D01*
X-36975Y484004D01*
X-33866Y487113D01*
X-29470Y487113D01*
X-28075Y485718D01*
X-28017Y485676D01*
X-27965Y485627D01*
X-27918Y485605D01*
X-27876Y485575D01*
X-27807Y485553D01*
X-27742Y485523D01*
X-27690Y485518D01*
X-27640Y485502D01*
X-27569Y485504D01*
X-27498Y485496D01*
X-27447Y485507D01*
X-27395Y485509D01*
X-27327Y485533D01*
X-27257Y485548D01*
X-27212Y485575D01*
X-27164Y485593D01*
X-27108Y485638D01*
X-27046Y485675D01*
X-27012Y485714D01*
X-26972Y485747D01*
X-26933Y485807D01*
X-26886Y485862D01*
X-26867Y485910D01*
X-26839Y485954D01*
X-26821Y486023D01*
X-26794Y486090D01*
X-26786Y486161D01*
X-26778Y486192D01*
X-26780Y486215D01*
X-26776Y486256D01*
X-26776Y941852D01*
X-26790Y941942D01*
X-26798Y942033D01*
X-26810Y942062D01*
X-26815Y942094D01*
X-26858Y942175D01*
X-26894Y942259D01*
X-26920Y942291D01*
X-26931Y942312D01*
X-26954Y942334D01*
X-26999Y942390D01*
X-29058Y944449D01*
X-29058Y948845D01*
X-28532Y949371D01*
X-28490Y949429D01*
X-28441Y949481D01*
X-28419Y949528D01*
X-28389Y949570D01*
X-28367Y949639D01*
X-28337Y949704D01*
X-28332Y949756D01*
X-28316Y949806D01*
X-28318Y949877D01*
X-28310Y949948D01*
X-28321Y949999D01*
X-28323Y950051D01*
X-28347Y950119D01*
X-28362Y950189D01*
X-28389Y950234D01*
X-28407Y950282D01*
X-28452Y950338D01*
X-28489Y950400D01*
X-28528Y950434D01*
X-28561Y950474D01*
X-28621Y950513D01*
X-28676Y950560D01*
X-28724Y950579D01*
X-28768Y950607D01*
X-28837Y950625D01*
X-28904Y950652D01*
X-28975Y950660D01*
X-29006Y950668D01*
X-29029Y950666D01*
X-29070Y950670D01*
X-47321Y950670D01*
X-50488Y953837D01*
X-51522Y954871D01*
X-51554Y954894D01*
X-51579Y954923D01*
X-51720Y955014D01*
X-52742Y955525D01*
X-52968Y956203D01*
X-53011Y956285D01*
X-53047Y956370D01*
X-53072Y956401D01*
X-53082Y956421D01*
X-53106Y956443D01*
X-53152Y956501D01*
X-53881Y957230D01*
X-53923Y957260D01*
X-53991Y957325D01*
X-54009Y957333D01*
X-54024Y957346D01*
X-54066Y957363D01*
X-54080Y957373D01*
X-54126Y957387D01*
X-54214Y957428D01*
X-54234Y957430D01*
X-54252Y957438D01*
X-54312Y957444D01*
X-54316Y957446D01*
X-54321Y957445D01*
X-54419Y957456D01*
X-103917Y957456D01*
X-104007Y957442D01*
X-104098Y957434D01*
X-104128Y957422D01*
X-104160Y957417D01*
X-104241Y957374D01*
X-104325Y957338D01*
X-104357Y957312D01*
X-104377Y957301D01*
X-104400Y957278D01*
X-104456Y957233D01*
X-215071Y846618D01*
X-235113Y846618D01*
X-235203Y846604D01*
X-235294Y846596D01*
X-235324Y846584D01*
X-235356Y846579D01*
X-235437Y846536D01*
X-235521Y846500D01*
X-235553Y846474D01*
X-235573Y846463D01*
X-235596Y846440D01*
X-235652Y846395D01*
X-240040Y842007D01*
X-240093Y841933D01*
X-240153Y841863D01*
X-240165Y841833D01*
X-240184Y841807D01*
X-240211Y841720D01*
X-240245Y841635D01*
X-240249Y841594D01*
X-240256Y841572D01*
X-240255Y841540D01*
X-240263Y841468D01*
X-240263Y840782D01*
X-241578Y837608D01*
X-244008Y835178D01*
X-247182Y833863D01*
X-250618Y833863D01*
X-253792Y835178D01*
X-256222Y837608D01*
X-257537Y840782D01*
X-257537Y844218D01*
X-256222Y847392D01*
X-253792Y849822D01*
X-250618Y851137D01*
X-247182Y851137D01*
X-246196Y850728D01*
X-246082Y850701D01*
X-245968Y850673D01*
X-245962Y850673D01*
X-245956Y850672D01*
X-245840Y850683D01*
X-245723Y850692D01*
X-245717Y850694D01*
X-245711Y850695D01*
X-245604Y850743D01*
X-245497Y850788D01*
X-245491Y850793D01*
X-245486Y850795D01*
X-245473Y850808D01*
X-245366Y850893D01*
X-242758Y853501D01*
X-239591Y856668D01*
X-219549Y856668D01*
X-219459Y856682D01*
X-219368Y856690D01*
X-219338Y856702D01*
X-219306Y856707D01*
X-219225Y856750D01*
X-219141Y856786D01*
X-219109Y856812D01*
X-219089Y856823D01*
X-219066Y856846D01*
X-219010Y856891D01*
X-108395Y967506D01*
X-52161Y967506D01*
X-52071Y967520D01*
X-51980Y967528D01*
X-51950Y967540D01*
X-51918Y967545D01*
X-51837Y967588D01*
X-51753Y967624D01*
X-51721Y967650D01*
X-51701Y967661D01*
X-51678Y967684D01*
X-51622Y967729D01*
X-48526Y970825D01*
X-48458Y970920D01*
X-48388Y971014D01*
X-48386Y971019D01*
X-48383Y971025D01*
X-48348Y971136D01*
X-48312Y971247D01*
X-48312Y971254D01*
X-48310Y971260D01*
X-48313Y971376D01*
X-48314Y971493D01*
X-48317Y971501D01*
X-48317Y971506D01*
X-48323Y971523D01*
X-48361Y971654D01*
X-48723Y972527D01*
X-48723Y976873D01*
X-47060Y980887D01*
X-43987Y983960D01*
X-39973Y985623D01*
X-35627Y985623D01*
X-31613Y983960D01*
X-28540Y980887D01*
X-26877Y976873D01*
X-26877Y972527D01*
X-28540Y968513D01*
X-31613Y965440D01*
X-35627Y963777D01*
X-39973Y963777D01*
X-40485Y963989D01*
X-40598Y964016D01*
X-40712Y964045D01*
X-40718Y964044D01*
X-40724Y964046D01*
X-40841Y964035D01*
X-40957Y964026D01*
X-40963Y964023D01*
X-40969Y964023D01*
X-41077Y963975D01*
X-41184Y963929D01*
X-41189Y963925D01*
X-41194Y963923D01*
X-41208Y963910D01*
X-41315Y963824D01*
X-43120Y962019D01*
X-43162Y961961D01*
X-43211Y961909D01*
X-43233Y961862D01*
X-43263Y961820D01*
X-43284Y961751D01*
X-43315Y961686D01*
X-43320Y961634D01*
X-43336Y961584D01*
X-43334Y961513D01*
X-43342Y961442D01*
X-43331Y961391D01*
X-43329Y961339D01*
X-43305Y961271D01*
X-43289Y961201D01*
X-43263Y961157D01*
X-43245Y961108D01*
X-43200Y961052D01*
X-43163Y960990D01*
X-43124Y960956D01*
X-43091Y960916D01*
X-43031Y960877D01*
X-42976Y960830D01*
X-42928Y960811D01*
X-42884Y960783D01*
X-42815Y960765D01*
X-42748Y960738D01*
X-42677Y960730D01*
X-42646Y960722D01*
X-42622Y960724D01*
X-42581Y960720D01*
X159340Y960720D01*
X159360Y960723D01*
X159379Y960721D01*
X159481Y960743D01*
X159583Y960759D01*
X159600Y960769D01*
X159620Y960773D01*
X159709Y960826D01*
X159800Y960875D01*
X159814Y960889D01*
X159831Y960899D01*
X159898Y960978D01*
X159970Y961053D01*
X159978Y961071D01*
X159991Y961086D01*
X160030Y961182D01*
X160073Y961276D01*
X160075Y961296D01*
X160083Y961314D01*
X160101Y961481D01*
X160101Y964563D01*
X160082Y964678D01*
X160065Y964794D01*
X160063Y964800D01*
X160062Y964806D01*
X160007Y964909D01*
X159954Y965014D01*
X159949Y965018D01*
X159946Y965024D01*
X159862Y965104D01*
X159778Y965186D01*
X159772Y965190D01*
X159768Y965193D01*
X159751Y965201D01*
X159631Y965267D01*
X159213Y965440D01*
X156140Y968513D01*
X154477Y972527D01*
X154477Y976873D01*
X156140Y980887D01*
X159213Y983960D01*
X163227Y985623D01*
X167573Y985623D01*
X171587Y983960D01*
X174660Y980887D01*
X176323Y976873D01*
X176323Y972527D01*
X174660Y968513D01*
X171587Y965440D01*
X171003Y965198D01*
X170964Y965174D01*
X170921Y965158D01*
X170861Y965110D01*
X170794Y965069D01*
X170765Y965033D01*
X170729Y965005D01*
X170687Y964939D01*
X170637Y964879D01*
X170621Y964836D01*
X170596Y964798D01*
X170577Y964722D01*
X170549Y964650D01*
X170547Y964604D01*
X170536Y964559D01*
X170542Y964482D01*
X170539Y964404D01*
X170552Y964360D01*
X170555Y964314D01*
X170586Y964242D01*
X170607Y964168D01*
X170634Y964130D01*
X170652Y964088D01*
X170737Y963981D01*
X170748Y963966D01*
X170752Y963963D01*
X170756Y963957D01*
X173544Y961169D01*
X173544Y939525D01*
X173555Y939455D01*
X173557Y939383D01*
X173575Y939334D01*
X173583Y939283D01*
X173617Y939219D01*
X173642Y939152D01*
X173674Y939111D01*
X173699Y939065D01*
X173751Y939016D01*
X173795Y938960D01*
X173839Y938932D01*
X173877Y938896D01*
X173942Y938866D01*
X174002Y938827D01*
X174053Y938814D01*
X174100Y938792D01*
X174171Y938784D01*
X174241Y938767D01*
X174293Y938771D01*
X174344Y938765D01*
X174415Y938780D01*
X174486Y938786D01*
X174534Y938806D01*
X174585Y938817D01*
X174646Y938854D01*
X174712Y938882D01*
X174768Y938927D01*
X174796Y938944D01*
X174811Y938961D01*
X174843Y938987D01*
X175369Y939513D01*
X179765Y939513D01*
X182874Y936404D01*
X182874Y932008D01*
X180815Y929949D01*
X180762Y929875D01*
X180702Y929805D01*
X180690Y929775D01*
X180671Y929749D01*
X180644Y929662D01*
X180610Y929577D01*
X180606Y929536D01*
X180599Y929514D01*
X180600Y929482D01*
X180592Y929411D01*
X180592Y928477D01*
X180603Y928407D01*
X180605Y928335D01*
X180623Y928286D01*
X180631Y928235D01*
X180665Y928171D01*
X180690Y928104D01*
X180722Y928063D01*
X180747Y928017D01*
X180799Y927968D01*
X180843Y927912D01*
X180887Y927884D01*
X180925Y927848D01*
X180990Y927818D01*
X181050Y927779D01*
X181101Y927766D01*
X181148Y927744D01*
X181219Y927736D01*
X181289Y927719D01*
X181341Y927723D01*
X181392Y927717D01*
X181463Y927732D01*
X181534Y927738D01*
X181582Y927758D01*
X181633Y927769D01*
X181694Y927806D01*
X181760Y927834D01*
X181816Y927879D01*
X181844Y927896D01*
X181859Y927913D01*
X181891Y927939D01*
X183286Y929334D01*
X187682Y929334D01*
X190791Y926225D01*
X190791Y923313D01*
X190805Y923223D01*
X190813Y923132D01*
X190825Y923102D01*
X190830Y923070D01*
X190873Y922990D01*
X190909Y922906D01*
X190935Y922874D01*
X190946Y922853D01*
X190969Y922831D01*
X191014Y922775D01*
X208284Y905505D01*
X208342Y905463D01*
X208394Y905414D01*
X208441Y905392D01*
X208483Y905361D01*
X208552Y905340D01*
X208617Y905310D01*
X208669Y905304D01*
X208719Y905289D01*
X208790Y905291D01*
X208861Y905283D01*
X208912Y905294D01*
X208964Y905295D01*
X209032Y905320D01*
X209102Y905335D01*
X209147Y905362D01*
X209195Y905380D01*
X209251Y905425D01*
X209313Y905461D01*
X209347Y905501D01*
X209387Y905533D01*
X209426Y905594D01*
X209473Y905648D01*
X209492Y905697D01*
X209520Y905740D01*
X209538Y905810D01*
X209565Y905876D01*
X209573Y905948D01*
X209581Y905979D01*
X209579Y906002D01*
X209583Y906043D01*
X209583Y906998D01*
X212692Y910107D01*
X217088Y910107D01*
X219441Y907754D01*
X219457Y907742D01*
X219470Y907726D01*
X219557Y907670D01*
X219641Y907610D01*
X219660Y907604D01*
X219677Y907593D01*
X219777Y907568D01*
X219876Y907538D01*
X219896Y907538D01*
X219915Y907533D01*
X220018Y907541D01*
X220122Y907544D01*
X220141Y907551D01*
X220160Y907553D01*
X220255Y907593D01*
X220353Y907629D01*
X220369Y907641D01*
X220387Y907649D01*
X220518Y907754D01*
X221821Y909057D01*
X221874Y909131D01*
X221934Y909201D01*
X221946Y909231D01*
X221965Y909257D01*
X221992Y909344D01*
X222026Y909429D01*
X222030Y909470D01*
X222037Y909492D01*
X222036Y909524D01*
X222044Y909595D01*
X222044Y936590D01*
X249094Y963639D01*
X249105Y963655D01*
X249121Y963668D01*
X249177Y963755D01*
X249237Y963839D01*
X249243Y963858D01*
X249254Y963875D01*
X249279Y963975D01*
X249310Y964074D01*
X249309Y964094D01*
X249314Y964113D01*
X249306Y964216D01*
X249303Y964320D01*
X249296Y964339D01*
X249295Y964358D01*
X249254Y964453D01*
X249219Y964551D01*
X249206Y964567D01*
X249198Y964585D01*
X249188Y964597D01*
X249188Y965003D01*
X249177Y965074D01*
X249175Y965146D01*
X249157Y965195D01*
X249149Y965246D01*
X249115Y965309D01*
X249090Y965377D01*
X249058Y965418D01*
X249033Y965464D01*
X248982Y965513D01*
X248937Y965569D01*
X248893Y965597D01*
X248855Y965633D01*
X248790Y965663D01*
X248730Y965702D01*
X248679Y965715D01*
X248632Y965737D01*
X248561Y965744D01*
X248491Y965762D01*
X248439Y965758D01*
X248388Y965764D01*
X248317Y965748D01*
X248246Y965743D01*
X248198Y965722D01*
X248147Y965711D01*
X248086Y965675D01*
X248020Y965646D01*
X247964Y965602D01*
X247936Y965585D01*
X247921Y965567D01*
X247889Y965542D01*
X247787Y965440D01*
X243773Y963777D01*
X239427Y963777D01*
X235413Y965440D01*
X232340Y968513D01*
X230677Y972527D01*
X230677Y976873D01*
X232340Y980887D01*
X235413Y983960D01*
X239427Y985623D01*
X243773Y985623D01*
X247787Y983960D01*
X247889Y983858D01*
X247947Y983816D01*
X247999Y983767D01*
X248046Y983745D01*
X248088Y983715D01*
X248157Y983694D01*
X248222Y983663D01*
X248274Y983658D01*
X248323Y983642D01*
X248395Y983644D01*
X248466Y983636D01*
X248517Y983647D01*
X248569Y983649D01*
X248637Y983673D01*
X248707Y983689D01*
X248752Y983715D01*
X248800Y983733D01*
X248856Y983778D01*
X248918Y983815D01*
X248952Y983854D01*
X248992Y983887D01*
X249031Y983947D01*
X249078Y984002D01*
X249097Y984050D01*
X249125Y984094D01*
X249143Y984163D01*
X249170Y984230D01*
X249178Y984301D01*
X249186Y984332D01*
X249184Y984356D01*
X249188Y984397D01*
X249188Y984664D01*
X249174Y984754D01*
X249166Y984845D01*
X249154Y984875D01*
X249149Y984907D01*
X249106Y984987D01*
X249070Y985071D01*
X249044Y985103D01*
X249033Y985124D01*
X249010Y985146D01*
X248965Y985202D01*
X244993Y989174D01*
X244899Y989242D01*
X244897Y989243D01*
X244870Y989266D01*
X244862Y989270D01*
X244804Y989312D01*
X244799Y989314D01*
X244793Y989318D01*
X244682Y989352D01*
X244571Y989388D01*
X244564Y989388D01*
X244558Y989390D01*
X244442Y989387D01*
X244325Y989386D01*
X244317Y989384D01*
X244313Y989384D01*
X244295Y989377D01*
X244164Y989339D01*
X243773Y989177D01*
X239427Y989177D01*
X235413Y990840D01*
X232340Y993913D01*
X230677Y997927D01*
X230677Y1002273D01*
X232340Y1006287D01*
X235413Y1009360D01*
X239427Y1011023D01*
X243773Y1011023D01*
X247787Y1009360D01*
X250860Y1006287D01*
X252523Y1002273D01*
X252523Y997927D01*
X250860Y993913D01*
X250373Y993426D01*
X250361Y993410D01*
X250346Y993397D01*
X250290Y993310D01*
X250230Y993226D01*
X250224Y993207D01*
X250213Y993191D01*
X250188Y993090D01*
X250157Y992991D01*
X250158Y992971D01*
X250153Y992952D01*
X250161Y992849D01*
X250164Y992745D01*
X250170Y992727D01*
X250172Y992707D01*
X250212Y992612D01*
X250248Y992514D01*
X250261Y992499D01*
X250268Y992480D01*
X250373Y992349D01*
X256369Y986354D01*
X256369Y983848D01*
X255898Y983377D01*
X255886Y983361D01*
X255871Y983349D01*
X255815Y983261D01*
X255754Y983178D01*
X255749Y983159D01*
X255738Y983142D01*
X255712Y983041D01*
X255682Y982942D01*
X255683Y982923D01*
X255678Y982903D01*
X255686Y982800D01*
X255688Y982697D01*
X255695Y982678D01*
X255697Y982658D01*
X255737Y982563D01*
X255773Y982466D01*
X255785Y982450D01*
X255793Y982432D01*
X255898Y982301D01*
X256349Y981849D01*
X256414Y981803D01*
X256473Y981749D01*
X256513Y981732D01*
X256549Y981706D01*
X256625Y981683D01*
X256698Y981651D01*
X256742Y981647D01*
X256784Y981634D01*
X256863Y981636D01*
X256943Y981628D01*
X256986Y981639D01*
X257030Y981640D01*
X257105Y981667D01*
X257182Y981686D01*
X257219Y981709D01*
X257261Y981724D01*
X257323Y981774D01*
X257390Y981816D01*
X257430Y981860D01*
X257453Y981878D01*
X257468Y981901D01*
X257503Y981940D01*
X257894Y982478D01*
X259222Y983806D01*
X260743Y984911D01*
X262417Y985764D01*
X264204Y986345D01*
X265477Y986546D01*
X265477Y975462D01*
X265480Y975442D01*
X265478Y975423D01*
X265500Y975321D01*
X265517Y975219D01*
X265526Y975202D01*
X265530Y975182D01*
X265583Y975093D01*
X265632Y975002D01*
X265646Y974988D01*
X265656Y974971D01*
X265735Y974904D01*
X265810Y974833D01*
X265828Y974824D01*
X265843Y974811D01*
X265939Y974773D01*
X266033Y974729D01*
X266053Y974727D01*
X266071Y974719D01*
X266238Y974701D01*
X267001Y974701D01*
X267001Y974699D01*
X266238Y974699D01*
X266218Y974696D01*
X266199Y974698D01*
X266097Y974676D01*
X265995Y974659D01*
X265978Y974650D01*
X265958Y974646D01*
X265869Y974593D01*
X265778Y974544D01*
X265764Y974530D01*
X265747Y974520D01*
X265680Y974441D01*
X265609Y974366D01*
X265600Y974348D01*
X265587Y974333D01*
X265548Y974237D01*
X265505Y974143D01*
X265503Y974123D01*
X265495Y974105D01*
X265477Y973938D01*
X265477Y962854D01*
X264204Y963055D01*
X262417Y963636D01*
X260743Y964489D01*
X259222Y965594D01*
X257894Y966922D01*
X257792Y967062D01*
X257736Y967118D01*
X257686Y967180D01*
X257649Y967204D01*
X257618Y967235D01*
X257546Y967270D01*
X257479Y967313D01*
X257436Y967324D01*
X257397Y967343D01*
X257318Y967353D01*
X257241Y967373D01*
X257197Y967369D01*
X257153Y967375D01*
X257075Y967360D01*
X256995Y967354D01*
X256955Y967336D01*
X256911Y967328D01*
X256842Y967289D01*
X256769Y967257D01*
X256723Y967221D01*
X256698Y967206D01*
X256679Y967186D01*
X256638Y967153D01*
X256463Y966978D01*
X256452Y966962D01*
X256436Y966949D01*
X256380Y966862D01*
X256320Y966778D01*
X256314Y966759D01*
X256303Y966742D01*
X256278Y966642D01*
X256247Y966543D01*
X256248Y966523D01*
X256243Y966504D01*
X256251Y966400D01*
X256254Y966297D01*
X256261Y966278D01*
X256262Y966258D01*
X256303Y966163D01*
X256338Y966066D01*
X256351Y966050D01*
X256359Y966032D01*
X256369Y966019D01*
X256369Y962359D01*
X228317Y934307D01*
X228269Y934241D01*
X228262Y934233D01*
X228260Y934229D01*
X228204Y934164D01*
X228192Y934134D01*
X228173Y934107D01*
X228146Y934020D01*
X228112Y933936D01*
X228108Y933895D01*
X228101Y933872D01*
X228102Y933840D01*
X228094Y933769D01*
X228094Y909595D01*
X228108Y909505D01*
X228116Y909414D01*
X228128Y909385D01*
X228133Y909353D01*
X228176Y909272D01*
X228212Y909188D01*
X228238Y909156D01*
X228249Y909135D01*
X228272Y909113D01*
X228317Y909057D01*
X230376Y906998D01*
X230376Y902602D01*
X228981Y901207D01*
X228939Y901149D01*
X228890Y901097D01*
X228868Y901050D01*
X228838Y901008D01*
X228816Y900939D01*
X228786Y900874D01*
X228781Y900822D01*
X228765Y900772D01*
X228767Y900701D01*
X228759Y900630D01*
X228770Y900579D01*
X228772Y900527D01*
X228796Y900459D01*
X228811Y900389D01*
X228838Y900344D01*
X228856Y900296D01*
X228901Y900240D01*
X228938Y900178D01*
X228977Y900144D01*
X229010Y900104D01*
X229070Y900065D01*
X229125Y900018D01*
X229173Y899999D01*
X229217Y899971D01*
X229286Y899953D01*
X229353Y899926D01*
X229424Y899918D01*
X229455Y899910D01*
X229478Y899912D01*
X229519Y899908D01*
X232549Y899908D01*
X232639Y899922D01*
X232730Y899930D01*
X232760Y899942D01*
X232792Y899947D01*
X232872Y899990D01*
X232956Y900026D01*
X232988Y900052D01*
X233009Y900063D01*
X233031Y900086D01*
X233087Y900131D01*
X295069Y962113D01*
X298147Y962113D01*
X298237Y962127D01*
X298328Y962135D01*
X298358Y962147D01*
X298390Y962152D01*
X298470Y962195D01*
X298554Y962231D01*
X298586Y962257D01*
X298607Y962268D01*
X298629Y962291D01*
X298685Y962336D01*
X302816Y966467D01*
X302828Y966483D01*
X302843Y966495D01*
X302899Y966583D01*
X302960Y966666D01*
X302965Y966685D01*
X302976Y966702D01*
X303002Y966803D01*
X303032Y966902D01*
X303031Y966921D01*
X303036Y966941D01*
X303028Y967044D01*
X303026Y967147D01*
X303019Y967166D01*
X303017Y967186D01*
X302977Y967281D01*
X302941Y967378D01*
X302929Y967394D01*
X302921Y967412D01*
X302816Y967543D01*
X302292Y968068D01*
X302275Y968080D01*
X302263Y968095D01*
X302176Y968151D01*
X302092Y968211D01*
X302073Y968217D01*
X302056Y968228D01*
X301955Y968253D01*
X301857Y968284D01*
X301837Y968283D01*
X301817Y968288D01*
X301714Y968280D01*
X301611Y968277D01*
X301592Y968271D01*
X301572Y968269D01*
X301477Y968229D01*
X301380Y968193D01*
X301364Y968180D01*
X301346Y968173D01*
X301215Y968068D01*
X298587Y965440D01*
X294573Y963777D01*
X290227Y963777D01*
X286213Y965440D01*
X283140Y968513D01*
X281477Y972527D01*
X281477Y976873D01*
X283140Y980887D01*
X285768Y983515D01*
X285780Y983531D01*
X285795Y983544D01*
X285824Y983588D01*
X285854Y983620D01*
X285873Y983661D01*
X285911Y983715D01*
X285917Y983734D01*
X285928Y983750D01*
X285944Y983815D01*
X285957Y983843D01*
X285961Y983875D01*
X285984Y983950D01*
X285983Y983970D01*
X285988Y983989D01*
X285982Y984067D01*
X285984Y984087D01*
X285980Y984109D01*
X285977Y984196D01*
X285971Y984214D01*
X285969Y984234D01*
X285935Y984314D01*
X285932Y984328D01*
X285925Y984340D01*
X285893Y984427D01*
X285880Y984442D01*
X285873Y984461D01*
X285768Y984592D01*
X285550Y984809D01*
X285534Y984821D01*
X285522Y984836D01*
X285434Y984892D01*
X285351Y984953D01*
X285332Y984958D01*
X285315Y984969D01*
X285214Y984995D01*
X285115Y985025D01*
X285096Y985024D01*
X285076Y985029D01*
X284973Y985021D01*
X284870Y985019D01*
X284851Y985012D01*
X284831Y985010D01*
X284736Y984970D01*
X284639Y984934D01*
X284623Y984922D01*
X284605Y984914D01*
X284474Y984809D01*
X284003Y984338D01*
X281497Y984338D01*
X274630Y991206D01*
X274613Y991218D01*
X274601Y991233D01*
X274514Y991289D01*
X274430Y991349D01*
X274411Y991355D01*
X274394Y991366D01*
X274294Y991391D01*
X274195Y991422D01*
X274175Y991421D01*
X274155Y991426D01*
X274052Y991418D01*
X273949Y991415D01*
X273930Y991409D01*
X273910Y991407D01*
X273815Y991367D01*
X273718Y991331D01*
X273702Y991318D01*
X273684Y991311D01*
X273553Y991206D01*
X273187Y990840D01*
X269173Y989177D01*
X264827Y989177D01*
X260813Y990840D01*
X257740Y993913D01*
X256077Y997927D01*
X256077Y1002273D01*
X257740Y1006287D01*
X260813Y1009360D01*
X264827Y1011023D01*
X269173Y1011023D01*
X273187Y1009360D01*
X276260Y1006287D01*
X277923Y1002273D01*
X277923Y997927D01*
X277690Y997365D01*
X277663Y997252D01*
X277635Y997138D01*
X277635Y997132D01*
X277634Y997126D01*
X277645Y997009D01*
X277654Y996893D01*
X277656Y996887D01*
X277657Y996881D01*
X277705Y996773D01*
X277750Y996667D01*
X277755Y996661D01*
X277757Y996656D01*
X277770Y996642D01*
X277855Y996536D01*
X282649Y991742D01*
X282723Y991689D01*
X282792Y991629D01*
X282822Y991617D01*
X282849Y991598D01*
X282936Y991571D01*
X283020Y991537D01*
X283061Y991533D01*
X283084Y991526D01*
X283116Y991527D01*
X283187Y991519D01*
X283696Y991519D01*
X283767Y991530D01*
X283839Y991532D01*
X283888Y991550D01*
X283939Y991558D01*
X284002Y991592D01*
X284070Y991617D01*
X284110Y991649D01*
X284157Y991674D01*
X284206Y991726D01*
X284262Y991770D01*
X284290Y991814D01*
X284326Y991852D01*
X284356Y991917D01*
X284395Y991977D01*
X284408Y992028D01*
X284430Y992075D01*
X284437Y992146D01*
X284455Y992216D01*
X284451Y992268D01*
X284457Y992319D01*
X284441Y992390D01*
X284436Y992461D01*
X284415Y992509D01*
X284404Y992560D01*
X284368Y992621D01*
X284339Y992687D01*
X284295Y992743D01*
X284278Y992771D01*
X284260Y992786D01*
X284235Y992818D01*
X283140Y993913D01*
X281477Y997927D01*
X281477Y1002273D01*
X283140Y1006287D01*
X286213Y1009360D01*
X290227Y1011023D01*
X294573Y1011023D01*
X298587Y1009360D01*
X301660Y1006287D01*
X303323Y1002273D01*
X303323Y997927D01*
X301660Y993913D01*
X298959Y991212D01*
X298947Y991195D01*
X298931Y991183D01*
X298875Y991096D01*
X298815Y991012D01*
X298809Y990993D01*
X298798Y990976D01*
X298773Y990876D01*
X298743Y990777D01*
X298743Y990757D01*
X298738Y990737D01*
X298746Y990635D01*
X298749Y990531D01*
X298756Y990512D01*
X298757Y990492D01*
X298798Y990397D01*
X298834Y990300D01*
X298846Y990284D01*
X298854Y990266D01*
X298959Y990135D01*
X300701Y988393D01*
X307835Y981259D01*
X307851Y981247D01*
X307864Y981231D01*
X307951Y981175D01*
X308035Y981115D01*
X308054Y981109D01*
X308071Y981098D01*
X308171Y981073D01*
X308270Y981043D01*
X308290Y981043D01*
X308309Y981038D01*
X308412Y981046D01*
X308516Y981049D01*
X308534Y981056D01*
X308554Y981057D01*
X308649Y981098D01*
X308747Y981134D01*
X308762Y981146D01*
X308781Y981154D01*
X308912Y981259D01*
X311613Y983960D01*
X315627Y985623D01*
X319973Y985623D01*
X323987Y983960D01*
X327060Y980887D01*
X328723Y976873D01*
X328723Y972527D01*
X327060Y968513D01*
X323987Y965440D01*
X319973Y963777D01*
X315627Y963777D01*
X311613Y965440D01*
X310825Y966228D01*
X310767Y966270D01*
X310715Y966319D01*
X310668Y966341D01*
X310626Y966371D01*
X310557Y966392D01*
X310492Y966423D01*
X310440Y966428D01*
X310390Y966444D01*
X310319Y966442D01*
X310248Y966450D01*
X310197Y966439D01*
X310145Y966437D01*
X310077Y966413D01*
X310007Y966397D01*
X309962Y966371D01*
X309914Y966353D01*
X309858Y966308D01*
X309796Y966271D01*
X309762Y966232D01*
X309722Y966199D01*
X309683Y966139D01*
X309636Y966084D01*
X309617Y966036D01*
X309589Y965992D01*
X309571Y965923D01*
X309544Y965856D01*
X309536Y965785D01*
X309528Y965754D01*
X309530Y965730D01*
X309526Y965689D01*
X309526Y964621D01*
X300968Y956063D01*
X297890Y956063D01*
X297800Y956049D01*
X297709Y956041D01*
X297679Y956029D01*
X297647Y956024D01*
X297567Y955981D01*
X297483Y955945D01*
X297451Y955919D01*
X297430Y955908D01*
X297408Y955885D01*
X297352Y955840D01*
X280042Y938530D01*
X280000Y938472D01*
X279951Y938420D01*
X279929Y938373D01*
X279898Y938331D01*
X279877Y938262D01*
X279847Y938197D01*
X279841Y938145D01*
X279826Y938095D01*
X279828Y938024D01*
X279820Y937953D01*
X279831Y937902D01*
X279832Y937850D01*
X279857Y937782D01*
X279872Y937712D01*
X279899Y937667D01*
X279917Y937619D01*
X279962Y937563D01*
X279998Y937501D01*
X280038Y937467D01*
X280070Y937427D01*
X280131Y937388D01*
X280185Y937341D01*
X280234Y937322D01*
X280277Y937294D01*
X280347Y937276D01*
X280413Y937249D01*
X280485Y937241D01*
X280516Y937233D01*
X280539Y937235D01*
X280580Y937231D01*
X371828Y937231D01*
X371918Y937245D01*
X372009Y937253D01*
X372038Y937265D01*
X372070Y937270D01*
X372151Y937313D01*
X372235Y937349D01*
X372267Y937375D01*
X372288Y937386D01*
X372310Y937409D01*
X372366Y937454D01*
X374425Y939513D01*
X375380Y939513D01*
X375451Y939524D01*
X375522Y939526D01*
X375571Y939544D01*
X375623Y939552D01*
X375686Y939586D01*
X375753Y939611D01*
X375794Y939643D01*
X375840Y939668D01*
X375889Y939719D01*
X375945Y939764D01*
X375974Y939808D01*
X376009Y939846D01*
X376040Y939911D01*
X376078Y939971D01*
X376091Y940022D01*
X376113Y940069D01*
X376121Y940140D01*
X376138Y940210D01*
X376134Y940262D01*
X376140Y940313D01*
X376125Y940384D01*
X376119Y940455D01*
X376099Y940503D01*
X376088Y940554D01*
X376051Y940615D01*
X376023Y940681D01*
X375978Y940737D01*
X375962Y940765D01*
X375944Y940780D01*
X375918Y940812D01*
X350877Y965853D01*
X350861Y965865D01*
X350848Y965881D01*
X350761Y965937D01*
X350677Y965997D01*
X350658Y966003D01*
X350641Y966014D01*
X350541Y966039D01*
X350442Y966069D01*
X350422Y966069D01*
X350403Y966074D01*
X350300Y966066D01*
X350196Y966063D01*
X350178Y966056D01*
X350158Y966055D01*
X350063Y966014D01*
X349965Y965978D01*
X349950Y965966D01*
X349931Y965958D01*
X349800Y965853D01*
X349387Y965440D01*
X345373Y963777D01*
X341027Y963777D01*
X337013Y965440D01*
X333940Y968513D01*
X332277Y972527D01*
X332277Y976873D01*
X333940Y980887D01*
X337013Y983960D01*
X341027Y985623D01*
X345373Y985623D01*
X349387Y983960D01*
X352460Y980887D01*
X354123Y976873D01*
X354123Y972527D01*
X353918Y972032D01*
X353891Y971919D01*
X353863Y971805D01*
X353863Y971799D01*
X353862Y971793D01*
X353873Y971676D01*
X353882Y971560D01*
X353884Y971554D01*
X353885Y971548D01*
X353933Y971441D01*
X353978Y971334D01*
X353983Y971328D01*
X353985Y971323D01*
X353997Y971310D01*
X354083Y971203D01*
X387832Y937454D01*
X387906Y937401D01*
X387975Y937341D01*
X388005Y937329D01*
X388032Y937310D01*
X388119Y937283D01*
X388203Y937249D01*
X388244Y937245D01*
X388267Y937238D01*
X388299Y937239D01*
X388370Y937231D01*
X498500Y937231D01*
X498590Y937245D01*
X498681Y937253D01*
X498710Y937265D01*
X498742Y937270D01*
X498823Y937313D01*
X498907Y937349D01*
X498939Y937375D01*
X498960Y937386D01*
X498982Y937409D01*
X499038Y937454D01*
X501097Y939513D01*
X505493Y939513D01*
X508602Y936404D01*
X508602Y932008D01*
X505493Y928899D01*
X501097Y928899D01*
X499038Y930958D01*
X498964Y931011D01*
X498894Y931071D01*
X498864Y931083D01*
X498838Y931102D01*
X498751Y931129D01*
X498666Y931163D01*
X498625Y931167D01*
X498603Y931174D01*
X498571Y931173D01*
X498500Y931181D01*
X385549Y931181D01*
X383229Y933501D01*
X383171Y933543D01*
X383119Y933592D01*
X383072Y933614D01*
X383030Y933645D01*
X382961Y933666D01*
X382896Y933696D01*
X382844Y933702D01*
X382794Y933717D01*
X382723Y933715D01*
X382652Y933723D01*
X382601Y933712D01*
X382549Y933711D01*
X382481Y933686D01*
X382411Y933671D01*
X382366Y933644D01*
X382318Y933626D01*
X382262Y933581D01*
X382200Y933545D01*
X382166Y933505D01*
X382126Y933473D01*
X382087Y933412D01*
X382040Y933358D01*
X382021Y933309D01*
X381993Y933266D01*
X381975Y933196D01*
X381948Y933130D01*
X381940Y933058D01*
X381932Y933027D01*
X381934Y933004D01*
X381930Y932963D01*
X381930Y932008D01*
X378821Y928899D01*
X374425Y928899D01*
X372366Y930958D01*
X372292Y931011D01*
X372222Y931071D01*
X372192Y931083D01*
X372166Y931102D01*
X372079Y931129D01*
X371994Y931163D01*
X371953Y931167D01*
X371931Y931174D01*
X371899Y931173D01*
X371828Y931181D01*
X279794Y931181D01*
X279704Y931167D01*
X279613Y931159D01*
X279583Y931147D01*
X279551Y931142D01*
X279471Y931099D01*
X279387Y931063D01*
X279355Y931037D01*
X279334Y931026D01*
X279312Y931003D01*
X279256Y930958D01*
X253199Y904901D01*
X253146Y904827D01*
X253086Y904758D01*
X253074Y904728D01*
X253055Y904701D01*
X253028Y904614D01*
X252994Y904530D01*
X252990Y904489D01*
X252983Y904466D01*
X252984Y904434D01*
X252976Y904363D01*
X252976Y892630D01*
X252990Y892541D01*
X252998Y892449D01*
X253010Y892420D01*
X253015Y892388D01*
X253058Y892307D01*
X253094Y892223D01*
X253120Y892191D01*
X253131Y892170D01*
X253154Y892148D01*
X253199Y892092D01*
X254336Y890955D01*
X254394Y890913D01*
X254446Y890864D01*
X254493Y890842D01*
X254535Y890812D01*
X254604Y890790D01*
X254669Y890760D01*
X254721Y890755D01*
X254771Y890739D01*
X254842Y890741D01*
X254913Y890733D01*
X254964Y890744D01*
X255016Y890746D01*
X255084Y890770D01*
X255154Y890785D01*
X255199Y890812D01*
X255247Y890830D01*
X255303Y890875D01*
X255365Y890912D01*
X255399Y890951D01*
X255439Y890984D01*
X255478Y891044D01*
X255525Y891099D01*
X255544Y891147D01*
X255572Y891191D01*
X255590Y891260D01*
X255617Y891327D01*
X255625Y891398D01*
X255633Y891429D01*
X255631Y891452D01*
X255635Y891493D01*
X255635Y904852D01*
X256528Y905745D01*
X282792Y905745D01*
X283685Y904852D01*
X283685Y898145D01*
X283688Y898125D01*
X283686Y898106D01*
X283708Y898004D01*
X283724Y897902D01*
X283734Y897885D01*
X283738Y897865D01*
X283791Y897776D01*
X283840Y897685D01*
X283854Y897671D01*
X283864Y897654D01*
X283943Y897587D01*
X284018Y897515D01*
X284036Y897507D01*
X284051Y897494D01*
X284147Y897455D01*
X284241Y897412D01*
X284261Y897410D01*
X284279Y897402D01*
X284446Y897384D01*
X319938Y897384D01*
X320028Y897398D01*
X320119Y897406D01*
X320149Y897418D01*
X320181Y897423D01*
X320262Y897466D01*
X320346Y897502D01*
X320378Y897528D01*
X320398Y897539D01*
X320421Y897562D01*
X320477Y897607D01*
X336088Y913218D01*
X494112Y913218D01*
X494202Y913232D01*
X494293Y913240D01*
X494323Y913252D01*
X494355Y913257D01*
X494436Y913300D01*
X494520Y913336D01*
X494552Y913362D01*
X494572Y913373D01*
X494595Y913396D01*
X494651Y913441D01*
X495559Y914349D01*
X497917Y914349D01*
X497937Y914352D01*
X497956Y914350D01*
X498058Y914372D01*
X498160Y914388D01*
X498177Y914398D01*
X498197Y914402D01*
X498286Y914455D01*
X498377Y914504D01*
X498391Y914518D01*
X498408Y914528D01*
X498475Y914607D01*
X498547Y914682D01*
X498555Y914700D01*
X498568Y914715D01*
X498607Y914811D01*
X498650Y914905D01*
X498652Y914925D01*
X498660Y914943D01*
X498678Y915110D01*
X498678Y915797D01*
X501057Y921539D01*
X505451Y925933D01*
X511193Y928312D01*
X517407Y928312D01*
X523149Y925933D01*
X527543Y921539D01*
X529922Y915797D01*
X529922Y909583D01*
X527543Y903841D01*
X527342Y903639D01*
X527330Y903623D01*
X527314Y903610D01*
X527258Y903523D01*
X527198Y903439D01*
X527192Y903420D01*
X527181Y903404D01*
X527156Y903303D01*
X527126Y903204D01*
X527126Y903184D01*
X527121Y903165D01*
X527129Y903062D01*
X527132Y902958D01*
X527139Y902940D01*
X527140Y902920D01*
X527181Y902825D01*
X527216Y902727D01*
X527229Y902712D01*
X527237Y902693D01*
X527342Y902563D01*
X545643Y884261D01*
X545643Y777178D01*
X545619Y777154D01*
X545607Y777137D01*
X545591Y777125D01*
X545536Y777038D01*
X545475Y776954D01*
X545469Y776935D01*
X545458Y776918D01*
X545433Y776818D01*
X545403Y776719D01*
X545403Y776699D01*
X545398Y776680D01*
X545406Y776577D01*
X545409Y776473D01*
X545416Y776454D01*
X545418Y776434D01*
X545458Y776339D01*
X545494Y776242D01*
X545506Y776226D01*
X545514Y776208D01*
X545619Y776077D01*
X546029Y775667D01*
X546029Y768933D01*
X541267Y764171D01*
X534533Y764171D01*
X529771Y768933D01*
X529771Y775667D01*
X534560Y780456D01*
X534577Y780463D01*
X534609Y780468D01*
X534690Y780511D01*
X534774Y780547D01*
X534806Y780573D01*
X534826Y780584D01*
X534849Y780607D01*
X534905Y780652D01*
X535370Y781117D01*
X535423Y781191D01*
X535483Y781261D01*
X535495Y781291D01*
X535514Y781317D01*
X535541Y781404D01*
X535575Y781489D01*
X535579Y781530D01*
X535586Y781552D01*
X535585Y781584D01*
X535593Y781656D01*
X535593Y879783D01*
X535592Y879792D01*
X535592Y879796D01*
X535588Y879815D01*
X535579Y879873D01*
X535571Y879964D01*
X535559Y879994D01*
X535554Y880026D01*
X535511Y880107D01*
X535475Y880191D01*
X535449Y880223D01*
X535438Y880243D01*
X535415Y880266D01*
X535370Y880322D01*
X518627Y897065D01*
X518533Y897133D01*
X518528Y897136D01*
X518506Y897155D01*
X518499Y897158D01*
X518438Y897203D01*
X518432Y897205D01*
X518427Y897208D01*
X518316Y897243D01*
X518205Y897279D01*
X518198Y897279D01*
X518192Y897281D01*
X518076Y897278D01*
X517959Y897277D01*
X517951Y897275D01*
X517946Y897274D01*
X517929Y897268D01*
X517797Y897230D01*
X517407Y897068D01*
X511193Y897068D01*
X505451Y899447D01*
X501050Y903847D01*
X501000Y903929D01*
X500940Y904029D01*
X500935Y904033D01*
X500932Y904038D01*
X500842Y904113D01*
X500753Y904189D01*
X500747Y904191D01*
X500742Y904195D01*
X500634Y904237D01*
X500525Y904281D01*
X500517Y904282D01*
X500513Y904283D01*
X500494Y904284D01*
X500358Y904299D01*
X500037Y904299D01*
X499947Y904285D01*
X499856Y904277D01*
X499826Y904265D01*
X499794Y904260D01*
X499713Y904217D01*
X499629Y904181D01*
X499597Y904155D01*
X499576Y904144D01*
X499554Y904121D01*
X499498Y904076D01*
X498590Y903168D01*
X496173Y903168D01*
X496103Y903157D01*
X496031Y903155D01*
X495982Y903137D01*
X495931Y903129D01*
X495867Y903095D01*
X495800Y903070D01*
X495759Y903038D01*
X495713Y903013D01*
X495664Y902961D01*
X495608Y902917D01*
X495580Y902873D01*
X495544Y902835D01*
X495514Y902770D01*
X495475Y902710D01*
X495462Y902659D01*
X495440Y902612D01*
X495432Y902541D01*
X495415Y902471D01*
X495419Y902419D01*
X495413Y902368D01*
X495428Y902297D01*
X495434Y902226D01*
X495454Y902178D01*
X495465Y902127D01*
X495502Y902066D01*
X495530Y902000D01*
X495575Y901944D01*
X495592Y901916D01*
X495609Y901901D01*
X495635Y901869D01*
X496161Y901343D01*
X496161Y899558D01*
X496164Y899538D01*
X496162Y899519D01*
X496184Y899417D01*
X496200Y899315D01*
X496210Y899298D01*
X496214Y899278D01*
X496267Y899189D01*
X496316Y899098D01*
X496330Y899084D01*
X496340Y899067D01*
X496419Y899000D01*
X496494Y898928D01*
X496512Y898920D01*
X496527Y898907D01*
X496623Y898868D01*
X496717Y898825D01*
X496737Y898823D01*
X496755Y898815D01*
X496922Y898797D01*
X500969Y898797D01*
X504078Y895688D01*
X504078Y891292D01*
X500969Y888183D01*
X498057Y888183D01*
X497967Y888169D01*
X497876Y888161D01*
X497846Y888149D01*
X497814Y888144D01*
X497734Y888101D01*
X497650Y888065D01*
X497618Y888039D01*
X497597Y888028D01*
X497575Y888005D01*
X497519Y887960D01*
X440945Y831386D01*
X440892Y831312D01*
X440832Y831243D01*
X440820Y831213D01*
X440801Y831186D01*
X440774Y831099D01*
X440740Y831015D01*
X440736Y830974D01*
X440729Y830951D01*
X440730Y830919D01*
X440722Y830848D01*
X440722Y759910D01*
X403622Y722810D01*
X403569Y722736D01*
X403509Y722667D01*
X403497Y722637D01*
X403478Y722610D01*
X403451Y722523D01*
X403417Y722439D01*
X403413Y722398D01*
X403406Y722375D01*
X403407Y722343D01*
X403399Y722272D01*
X403399Y713826D01*
X403402Y713806D01*
X403400Y713787D01*
X403422Y713685D01*
X403438Y713583D01*
X403448Y713566D01*
X403452Y713546D01*
X403505Y713457D01*
X403554Y713366D01*
X403568Y713352D01*
X403578Y713335D01*
X403657Y713268D01*
X403732Y713196D01*
X403750Y713188D01*
X403765Y713175D01*
X403861Y713136D01*
X403955Y713093D01*
X403975Y713091D01*
X403993Y713083D01*
X404160Y713065D01*
X405972Y713065D01*
X406865Y712172D01*
X406865Y699828D01*
X405972Y698935D01*
X393628Y698935D01*
X392735Y699828D01*
X392735Y712172D01*
X393628Y713065D01*
X396588Y713065D01*
X396608Y713068D01*
X396627Y713066D01*
X396729Y713088D01*
X396831Y713104D01*
X396848Y713114D01*
X396868Y713118D01*
X396957Y713171D01*
X397048Y713220D01*
X397062Y713234D01*
X397079Y713244D01*
X397146Y713323D01*
X397218Y713398D01*
X397226Y713416D01*
X397239Y713431D01*
X397278Y713527D01*
X397321Y713621D01*
X397323Y713641D01*
X397331Y713659D01*
X397349Y713826D01*
X397349Y725093D01*
X434449Y762193D01*
X434502Y762267D01*
X434562Y762336D01*
X434574Y762366D01*
X434593Y762393D01*
X434620Y762480D01*
X434654Y762564D01*
X434658Y762605D01*
X434665Y762628D01*
X434664Y762660D01*
X434672Y762731D01*
X434672Y833669D01*
X493241Y892238D01*
X493294Y892312D01*
X493354Y892381D01*
X493366Y892411D01*
X493385Y892438D01*
X493412Y892525D01*
X493446Y892609D01*
X493450Y892650D01*
X493457Y892673D01*
X493456Y892705D01*
X493464Y892776D01*
X493464Y893077D01*
X493461Y893097D01*
X493463Y893116D01*
X493441Y893218D01*
X493425Y893320D01*
X493415Y893337D01*
X493411Y893357D01*
X493358Y893446D01*
X493309Y893537D01*
X493295Y893551D01*
X493285Y893568D01*
X493206Y893635D01*
X493131Y893707D01*
X493113Y893715D01*
X493098Y893728D01*
X493002Y893767D01*
X492908Y893810D01*
X492888Y893812D01*
X492870Y893820D01*
X492703Y893838D01*
X490140Y893838D01*
X490050Y893824D01*
X489959Y893816D01*
X489929Y893804D01*
X489897Y893799D01*
X489817Y893756D01*
X489733Y893720D01*
X489701Y893694D01*
X489680Y893683D01*
X489658Y893660D01*
X489602Y893615D01*
X474011Y878024D01*
X439837Y878024D01*
X434672Y883189D01*
X434672Y885136D01*
X434658Y885226D01*
X434650Y885317D01*
X434638Y885347D01*
X434633Y885379D01*
X434590Y885459D01*
X434554Y885543D01*
X434528Y885575D01*
X434517Y885596D01*
X434494Y885618D01*
X434449Y885674D01*
X432564Y887559D01*
X432506Y887601D01*
X432454Y887650D01*
X432407Y887672D01*
X432365Y887703D01*
X432296Y887724D01*
X432231Y887754D01*
X432179Y887760D01*
X432129Y887775D01*
X432058Y887773D01*
X431987Y887781D01*
X431936Y887770D01*
X431884Y887769D01*
X431816Y887744D01*
X431746Y887729D01*
X431702Y887702D01*
X431653Y887684D01*
X431597Y887639D01*
X431535Y887603D01*
X431501Y887563D01*
X431461Y887531D01*
X431422Y887470D01*
X431375Y887416D01*
X431356Y887367D01*
X431328Y887324D01*
X431310Y887254D01*
X431283Y887188D01*
X431275Y887116D01*
X431267Y887085D01*
X431269Y887062D01*
X431265Y887021D01*
X431265Y886828D01*
X430372Y885935D01*
X418028Y885935D01*
X417135Y886828D01*
X417135Y899172D01*
X418028Y900065D01*
X430372Y900065D01*
X431265Y899172D01*
X431265Y896145D01*
X431268Y896125D01*
X431266Y896106D01*
X431288Y896004D01*
X431304Y895902D01*
X431314Y895885D01*
X431318Y895865D01*
X431371Y895776D01*
X431420Y895685D01*
X431434Y895671D01*
X431444Y895654D01*
X431523Y895587D01*
X431598Y895515D01*
X431616Y895507D01*
X431631Y895494D01*
X431727Y895455D01*
X431821Y895412D01*
X431841Y895410D01*
X431859Y895402D01*
X432026Y895384D01*
X433295Y895384D01*
X440722Y887957D01*
X440722Y886010D01*
X440736Y885920D01*
X440744Y885829D01*
X440756Y885799D01*
X440761Y885767D01*
X440804Y885687D01*
X440840Y885603D01*
X440866Y885571D01*
X440877Y885550D01*
X440900Y885528D01*
X440945Y885472D01*
X442120Y884297D01*
X442194Y884244D01*
X442263Y884184D01*
X442293Y884172D01*
X442320Y884153D01*
X442407Y884126D01*
X442491Y884092D01*
X442532Y884088D01*
X442555Y884081D01*
X442587Y884082D01*
X442658Y884074D01*
X471190Y884074D01*
X471280Y884088D01*
X471371Y884096D01*
X471401Y884108D01*
X471433Y884113D01*
X471513Y884156D01*
X471597Y884192D01*
X471629Y884218D01*
X471650Y884229D01*
X471672Y884252D01*
X471728Y884297D01*
X485324Y897893D01*
X485377Y897967D01*
X485437Y898036D01*
X485449Y898066D01*
X485468Y898093D01*
X485495Y898180D01*
X485529Y898264D01*
X485533Y898305D01*
X485540Y898328D01*
X485539Y898360D01*
X485547Y898431D01*
X485547Y901343D01*
X486073Y901869D01*
X486115Y901927D01*
X486164Y901979D01*
X486186Y902026D01*
X486216Y902068D01*
X486238Y902137D01*
X486268Y902202D01*
X486273Y902254D01*
X486289Y902304D01*
X486287Y902375D01*
X486295Y902446D01*
X486284Y902497D01*
X486282Y902549D01*
X486258Y902617D01*
X486243Y902687D01*
X486216Y902732D01*
X486198Y902780D01*
X486153Y902836D01*
X486116Y902898D01*
X486077Y902932D01*
X486044Y902972D01*
X485984Y903011D01*
X485929Y903058D01*
X485881Y903077D01*
X485837Y903105D01*
X485768Y903123D01*
X485701Y903150D01*
X485630Y903158D01*
X485599Y903166D01*
X485576Y903164D01*
X485535Y903168D01*
X340566Y903168D01*
X340476Y903154D01*
X340385Y903146D01*
X340355Y903134D01*
X340323Y903129D01*
X340242Y903086D01*
X340158Y903050D01*
X340126Y903024D01*
X340106Y903013D01*
X340083Y902990D01*
X340027Y902945D01*
X334896Y897814D01*
X334854Y897756D01*
X334805Y897704D01*
X334783Y897657D01*
X334753Y897615D01*
X334732Y897546D01*
X334701Y897481D01*
X334696Y897429D01*
X334680Y897379D01*
X334682Y897308D01*
X334674Y897237D01*
X334685Y897186D01*
X334687Y897134D01*
X334711Y897066D01*
X334727Y896996D01*
X334753Y896951D01*
X334771Y896903D01*
X334816Y896847D01*
X334853Y896785D01*
X334892Y896751D01*
X334925Y896711D01*
X334985Y896672D01*
X335040Y896625D01*
X335088Y896606D01*
X335132Y896578D01*
X335201Y896560D01*
X335268Y896533D01*
X335339Y896525D01*
X335370Y896517D01*
X335394Y896519D01*
X335435Y896515D01*
X340174Y896515D01*
X340194Y896518D01*
X340213Y896516D01*
X340315Y896538D01*
X340417Y896554D01*
X340434Y896564D01*
X340454Y896568D01*
X340543Y896621D01*
X340634Y896670D01*
X340648Y896684D01*
X340665Y896694D01*
X340732Y896773D01*
X340804Y896848D01*
X340812Y896866D01*
X340825Y896881D01*
X340864Y896977D01*
X340907Y897071D01*
X340909Y897091D01*
X340917Y897109D01*
X340935Y897276D01*
X340935Y899172D01*
X341828Y900065D01*
X354172Y900065D01*
X355065Y899172D01*
X355065Y886828D01*
X354172Y885935D01*
X341828Y885935D01*
X340935Y886828D01*
X340935Y889704D01*
X340932Y889724D01*
X340934Y889743D01*
X340912Y889845D01*
X340896Y889947D01*
X340886Y889964D01*
X340882Y889984D01*
X340829Y890073D01*
X340780Y890164D01*
X340766Y890178D01*
X340756Y890195D01*
X340677Y890262D01*
X340602Y890334D01*
X340584Y890342D01*
X340569Y890355D01*
X340473Y890394D01*
X340379Y890437D01*
X340359Y890439D01*
X340341Y890447D01*
X340174Y890465D01*
X335213Y890465D01*
X335123Y890451D01*
X335032Y890443D01*
X335002Y890431D01*
X334970Y890426D01*
X334890Y890383D01*
X334806Y890347D01*
X334774Y890321D01*
X334753Y890310D01*
X334731Y890287D01*
X334675Y890242D01*
X324719Y880286D01*
X306772Y880286D01*
X306682Y880272D01*
X306591Y880264D01*
X306562Y880252D01*
X306530Y880247D01*
X306449Y880204D01*
X306365Y880168D01*
X306333Y880142D01*
X306312Y880131D01*
X306290Y880108D01*
X306234Y880063D01*
X304175Y878004D01*
X299779Y878004D01*
X296670Y881113D01*
X296670Y885509D01*
X297196Y886035D01*
X297238Y886093D01*
X297287Y886145D01*
X297309Y886192D01*
X297339Y886234D01*
X297361Y886303D01*
X297391Y886368D01*
X297396Y886420D01*
X297412Y886470D01*
X297410Y886541D01*
X297418Y886612D01*
X297407Y886663D01*
X297405Y886715D01*
X297381Y886783D01*
X297366Y886853D01*
X297339Y886898D01*
X297321Y886946D01*
X297276Y887002D01*
X297239Y887064D01*
X297200Y887098D01*
X297167Y887138D01*
X297107Y887177D01*
X297052Y887224D01*
X297004Y887243D01*
X296960Y887271D01*
X296891Y887289D01*
X296824Y887316D01*
X296753Y887324D01*
X296722Y887332D01*
X296699Y887330D01*
X296658Y887334D01*
X284446Y887334D01*
X284426Y887331D01*
X284407Y887333D01*
X284305Y887311D01*
X284203Y887295D01*
X284186Y887285D01*
X284166Y887281D01*
X284077Y887228D01*
X283986Y887179D01*
X283972Y887165D01*
X283955Y887155D01*
X283888Y887076D01*
X283816Y887001D01*
X283808Y886983D01*
X283795Y886968D01*
X283756Y886872D01*
X283713Y886778D01*
X283711Y886758D01*
X283703Y886740D01*
X283685Y886573D01*
X283685Y878588D01*
X282792Y877695D01*
X256528Y877695D01*
X255635Y878588D01*
X255635Y884177D01*
X255624Y884247D01*
X255622Y884319D01*
X255604Y884368D01*
X255596Y884419D01*
X255562Y884483D01*
X255537Y884550D01*
X255505Y884591D01*
X255480Y884637D01*
X255428Y884686D01*
X255384Y884742D01*
X255340Y884770D01*
X255302Y884806D01*
X255237Y884836D01*
X255177Y884875D01*
X255126Y884888D01*
X255079Y884910D01*
X255008Y884918D01*
X254938Y884935D01*
X254886Y884931D01*
X254835Y884937D01*
X254764Y884922D01*
X254693Y884916D01*
X254645Y884896D01*
X254594Y884885D01*
X254533Y884848D01*
X254467Y884820D01*
X254411Y884775D01*
X254383Y884758D01*
X254368Y884741D01*
X254336Y884715D01*
X252149Y882528D01*
X247753Y882528D01*
X244644Y885637D01*
X244644Y890033D01*
X246703Y892092D01*
X246756Y892166D01*
X246816Y892236D01*
X246828Y892266D01*
X246847Y892292D01*
X246874Y892379D01*
X246908Y892464D01*
X246912Y892505D01*
X246919Y892527D01*
X246918Y892559D01*
X246926Y892630D01*
X246926Y903577D01*
X246915Y903648D01*
X246913Y903719D01*
X246895Y903768D01*
X246887Y903820D01*
X246853Y903883D01*
X246828Y903950D01*
X246796Y903991D01*
X246771Y904037D01*
X246719Y904086D01*
X246675Y904142D01*
X246631Y904171D01*
X246593Y904206D01*
X246528Y904237D01*
X246468Y904275D01*
X246417Y904288D01*
X246370Y904310D01*
X246299Y904318D01*
X246229Y904335D01*
X246177Y904331D01*
X246126Y904337D01*
X246055Y904322D01*
X245984Y904316D01*
X245936Y904296D01*
X245885Y904285D01*
X245824Y904248D01*
X245758Y904220D01*
X245702Y904175D01*
X245674Y904159D01*
X245659Y904141D01*
X245627Y904115D01*
X235370Y893858D01*
X221768Y893858D01*
X221697Y893847D01*
X221626Y893845D01*
X221577Y893827D01*
X221525Y893819D01*
X221462Y893785D01*
X221395Y893760D01*
X221354Y893728D01*
X221308Y893703D01*
X221259Y893651D01*
X221203Y893607D01*
X221174Y893563D01*
X221139Y893525D01*
X221108Y893460D01*
X221070Y893400D01*
X221057Y893349D01*
X221035Y893302D01*
X221027Y893231D01*
X221010Y893161D01*
X221014Y893109D01*
X221008Y893058D01*
X221023Y892987D01*
X221029Y892916D01*
X221049Y892868D01*
X221060Y892817D01*
X221097Y892756D01*
X221125Y892690D01*
X221170Y892634D01*
X221186Y892606D01*
X221204Y892591D01*
X221230Y892559D01*
X237409Y876380D01*
X237483Y876327D01*
X237552Y876267D01*
X237582Y876255D01*
X237609Y876236D01*
X237696Y876209D01*
X237780Y876175D01*
X237821Y876171D01*
X237844Y876164D01*
X237876Y876165D01*
X237947Y876157D01*
X346780Y876157D01*
X346870Y876171D01*
X346961Y876179D01*
X346991Y876191D01*
X347023Y876196D01*
X347103Y876239D01*
X347187Y876275D01*
X347219Y876301D01*
X347240Y876312D01*
X347262Y876335D01*
X347318Y876380D01*
X356410Y885472D01*
X356463Y885546D01*
X356523Y885615D01*
X356535Y885645D01*
X356554Y885672D01*
X356581Y885759D01*
X356615Y885843D01*
X356619Y885884D01*
X356626Y885907D01*
X356625Y885939D01*
X356633Y886010D01*
X356633Y887957D01*
X364060Y895384D01*
X365574Y895384D01*
X365594Y895387D01*
X365613Y895385D01*
X365715Y895407D01*
X365817Y895423D01*
X365834Y895433D01*
X365854Y895437D01*
X365943Y895490D01*
X366034Y895539D01*
X366048Y895553D01*
X366065Y895563D01*
X366132Y895642D01*
X366204Y895717D01*
X366212Y895735D01*
X366225Y895750D01*
X366264Y895846D01*
X366307Y895940D01*
X366309Y895960D01*
X366317Y895978D01*
X366335Y896145D01*
X366335Y899172D01*
X367228Y900065D01*
X379572Y900065D01*
X380465Y899172D01*
X380465Y886828D01*
X379572Y885935D01*
X367228Y885935D01*
X366335Y886828D01*
X366335Y887266D01*
X366324Y887337D01*
X366322Y887408D01*
X366304Y887457D01*
X366296Y887509D01*
X366262Y887572D01*
X366237Y887639D01*
X366205Y887680D01*
X366180Y887726D01*
X366128Y887775D01*
X366084Y887831D01*
X366040Y887860D01*
X366002Y887895D01*
X365937Y887926D01*
X365877Y887964D01*
X365826Y887977D01*
X365779Y887999D01*
X365708Y888007D01*
X365638Y888024D01*
X365586Y888020D01*
X365535Y888026D01*
X365464Y888011D01*
X365393Y888005D01*
X365345Y887985D01*
X365294Y887974D01*
X365233Y887937D01*
X365167Y887909D01*
X365111Y887864D01*
X365083Y887848D01*
X365068Y887830D01*
X365036Y887804D01*
X362906Y885674D01*
X362853Y885600D01*
X362793Y885531D01*
X362781Y885501D01*
X362762Y885474D01*
X362735Y885387D01*
X362701Y885303D01*
X362697Y885262D01*
X362690Y885239D01*
X362691Y885207D01*
X362683Y885136D01*
X362683Y883189D01*
X349601Y870107D01*
X277187Y870107D01*
X277116Y870096D01*
X277045Y870094D01*
X276996Y870076D01*
X276944Y870068D01*
X276881Y870034D01*
X276814Y870009D01*
X276773Y869977D01*
X276727Y869952D01*
X276678Y869900D01*
X276622Y869856D01*
X276593Y869812D01*
X276558Y869774D01*
X276527Y869709D01*
X276489Y869649D01*
X276476Y869598D01*
X276454Y869551D01*
X276446Y869480D01*
X276429Y869410D01*
X276433Y869358D01*
X276427Y869307D01*
X276442Y869236D01*
X276448Y869165D01*
X276468Y869117D01*
X276479Y869066D01*
X276516Y869005D01*
X276544Y868939D01*
X276589Y868883D01*
X276605Y868855D01*
X276623Y868840D01*
X276649Y868808D01*
X292561Y852896D01*
X292561Y805709D01*
X292575Y805619D01*
X292583Y805528D01*
X292595Y805498D01*
X292600Y805466D01*
X292643Y805386D01*
X292679Y805302D01*
X292705Y805270D01*
X292716Y805249D01*
X292739Y805227D01*
X292784Y805171D01*
X377386Y720569D01*
X377386Y713826D01*
X377389Y713806D01*
X377387Y713787D01*
X377409Y713685D01*
X377425Y713583D01*
X377435Y713566D01*
X377439Y713546D01*
X377492Y713457D01*
X377541Y713366D01*
X377555Y713352D01*
X377565Y713335D01*
X377644Y713268D01*
X377719Y713196D01*
X377737Y713188D01*
X377752Y713175D01*
X377848Y713136D01*
X377942Y713093D01*
X377962Y713091D01*
X377980Y713083D01*
X378147Y713065D01*
X380572Y713065D01*
X381465Y712172D01*
X381465Y699828D01*
X380572Y698935D01*
X368228Y698935D01*
X367335Y699828D01*
X367335Y712172D01*
X368228Y713065D01*
X370575Y713065D01*
X370595Y713068D01*
X370614Y713066D01*
X370716Y713088D01*
X370818Y713104D01*
X370835Y713114D01*
X370855Y713118D01*
X370944Y713171D01*
X371035Y713220D01*
X371049Y713234D01*
X371066Y713244D01*
X371133Y713323D01*
X371205Y713398D01*
X371213Y713416D01*
X371226Y713431D01*
X371265Y713527D01*
X371308Y713621D01*
X371310Y713641D01*
X371318Y713659D01*
X371336Y713826D01*
X371336Y717748D01*
X371322Y717838D01*
X371314Y717929D01*
X371302Y717959D01*
X371297Y717991D01*
X371254Y718071D01*
X371218Y718155D01*
X371192Y718187D01*
X371181Y718208D01*
X371158Y718230D01*
X371113Y718286D01*
X286511Y802888D01*
X286511Y850075D01*
X286509Y850092D01*
X286510Y850107D01*
X286496Y850173D01*
X286489Y850256D01*
X286477Y850286D01*
X286472Y850318D01*
X286460Y850340D01*
X286458Y850348D01*
X286437Y850382D01*
X286429Y850398D01*
X286393Y850482D01*
X286367Y850514D01*
X286356Y850535D01*
X286333Y850557D01*
X286288Y850613D01*
X271541Y865360D01*
X271467Y865413D01*
X271398Y865473D01*
X271368Y865485D01*
X271341Y865504D01*
X271254Y865531D01*
X271170Y865565D01*
X271129Y865569D01*
X271106Y865576D01*
X271074Y865575D01*
X271003Y865583D01*
X229471Y865583D01*
X176537Y918517D01*
X174843Y920211D01*
X174785Y920253D01*
X174733Y920302D01*
X174686Y920324D01*
X174644Y920355D01*
X174575Y920376D01*
X174510Y920406D01*
X174458Y920412D01*
X174408Y920427D01*
X174337Y920425D01*
X174266Y920433D01*
X174215Y920422D01*
X174163Y920421D01*
X174095Y920396D01*
X174025Y920381D01*
X173980Y920354D01*
X173932Y920336D01*
X173876Y920291D01*
X173814Y920255D01*
X173780Y920215D01*
X173740Y920183D01*
X173701Y920122D01*
X173654Y920068D01*
X173635Y920019D01*
X173607Y919976D01*
X173589Y919906D01*
X173562Y919840D01*
X173554Y919768D01*
X173546Y919737D01*
X173548Y919714D01*
X173544Y919673D01*
X173544Y885708D01*
X173558Y885618D01*
X173566Y885527D01*
X173578Y885497D01*
X173583Y885465D01*
X173626Y885384D01*
X173662Y885300D01*
X173688Y885268D01*
X173699Y885248D01*
X173722Y885225D01*
X173767Y885169D01*
X295692Y763244D01*
X295692Y709932D01*
X295703Y709862D01*
X295705Y709790D01*
X295723Y709741D01*
X295731Y709690D01*
X295765Y709626D01*
X295790Y709559D01*
X295822Y709518D01*
X295847Y709472D01*
X295899Y709423D01*
X295943Y709367D01*
X295987Y709339D01*
X296025Y709303D01*
X296090Y709273D01*
X296150Y709234D01*
X296201Y709221D01*
X296248Y709199D01*
X296319Y709191D01*
X296389Y709174D01*
X296441Y709178D01*
X296492Y709172D01*
X296563Y709187D01*
X296634Y709193D01*
X296682Y709213D01*
X296733Y709224D01*
X296794Y709261D01*
X296860Y709289D01*
X296916Y709334D01*
X296944Y709351D01*
X296959Y709368D01*
X296991Y709394D01*
X297517Y709920D01*
X301913Y709920D01*
X305022Y706811D01*
X305022Y703899D01*
X305024Y703883D01*
X305023Y703868D01*
X305037Y703803D01*
X305044Y703718D01*
X305056Y703688D01*
X305061Y703656D01*
X305074Y703633D01*
X305075Y703628D01*
X305088Y703605D01*
X305104Y703576D01*
X305140Y703492D01*
X305166Y703460D01*
X305177Y703439D01*
X305200Y703417D01*
X305245Y703361D01*
X314598Y694008D01*
X314656Y693966D01*
X314708Y693917D01*
X314755Y693895D01*
X314797Y693864D01*
X314866Y693843D01*
X314931Y693813D01*
X314983Y693807D01*
X315033Y693792D01*
X315104Y693794D01*
X315175Y693786D01*
X315226Y693797D01*
X315278Y693798D01*
X315346Y693823D01*
X315416Y693838D01*
X315461Y693865D01*
X315509Y693883D01*
X315565Y693928D01*
X315627Y693964D01*
X315661Y694004D01*
X315701Y694036D01*
X315740Y694097D01*
X315787Y694151D01*
X315806Y694200D01*
X315834Y694243D01*
X315852Y694313D01*
X315879Y694379D01*
X315887Y694451D01*
X315895Y694482D01*
X315893Y694505D01*
X315897Y694546D01*
X315897Y695501D01*
X319006Y698610D01*
X323402Y698610D01*
X325461Y696551D01*
X325535Y696498D01*
X325605Y696438D01*
X325635Y696426D01*
X325661Y696407D01*
X325748Y696380D01*
X325833Y696346D01*
X325874Y696342D01*
X325896Y696335D01*
X325928Y696336D01*
X325999Y696328D01*
X405592Y696328D01*
X405682Y696342D01*
X405773Y696350D01*
X405803Y696362D01*
X405835Y696367D01*
X405915Y696410D01*
X405999Y696446D01*
X406031Y696472D01*
X406052Y696483D01*
X406074Y696506D01*
X406130Y696551D01*
X408436Y698857D01*
X408489Y698931D01*
X408549Y699000D01*
X408561Y699030D01*
X408580Y699057D01*
X408607Y699144D01*
X408641Y699228D01*
X408645Y699269D01*
X408652Y699292D01*
X408651Y699324D01*
X408659Y699395D01*
X408659Y713783D01*
X446890Y752014D01*
X446943Y752088D01*
X447003Y752157D01*
X447015Y752187D01*
X447034Y752214D01*
X447061Y752301D01*
X447095Y752385D01*
X447099Y752426D01*
X447106Y752449D01*
X447105Y752481D01*
X447113Y752552D01*
X447113Y760174D01*
X447110Y760194D01*
X447112Y760213D01*
X447090Y760315D01*
X447074Y760417D01*
X447064Y760434D01*
X447060Y760454D01*
X447007Y760543D01*
X446958Y760634D01*
X446944Y760648D01*
X446934Y760665D01*
X446855Y760732D01*
X446780Y760804D01*
X446762Y760812D01*
X446747Y760825D01*
X446651Y760864D01*
X446557Y760907D01*
X446537Y760909D01*
X446519Y760917D01*
X446352Y760935D01*
X443428Y760935D01*
X442535Y761828D01*
X442535Y774172D01*
X443428Y775065D01*
X455772Y775065D01*
X456665Y774172D01*
X456665Y761828D01*
X455772Y760935D01*
X453924Y760935D01*
X453904Y760932D01*
X453885Y760934D01*
X453783Y760912D01*
X453681Y760896D01*
X453664Y760886D01*
X453644Y760882D01*
X453555Y760829D01*
X453464Y760780D01*
X453450Y760766D01*
X453433Y760756D01*
X453366Y760677D01*
X453294Y760602D01*
X453286Y760584D01*
X453273Y760569D01*
X453234Y760473D01*
X453191Y760379D01*
X453189Y760359D01*
X453181Y760341D01*
X453163Y760174D01*
X453163Y749731D01*
X414932Y711500D01*
X414879Y711426D01*
X414819Y711357D01*
X414807Y711327D01*
X414788Y711300D01*
X414761Y711213D01*
X414727Y711129D01*
X414723Y711088D01*
X414716Y711065D01*
X414717Y711033D01*
X414709Y710962D01*
X414709Y696574D01*
X408413Y690278D01*
X325999Y690278D01*
X325909Y690264D01*
X325818Y690256D01*
X325789Y690244D01*
X325757Y690239D01*
X325676Y690196D01*
X325592Y690160D01*
X325560Y690134D01*
X325539Y690123D01*
X325517Y690100D01*
X325461Y690055D01*
X323402Y687996D01*
X322447Y687996D01*
X322376Y687985D01*
X322305Y687983D01*
X322256Y687965D01*
X322204Y687957D01*
X322141Y687923D01*
X322074Y687898D01*
X322033Y687866D01*
X321987Y687841D01*
X321938Y687789D01*
X321882Y687745D01*
X321853Y687701D01*
X321818Y687663D01*
X321787Y687598D01*
X321749Y687538D01*
X321736Y687487D01*
X321714Y687440D01*
X321706Y687369D01*
X321689Y687299D01*
X321693Y687247D01*
X321687Y687196D01*
X321702Y687125D01*
X321708Y687054D01*
X321728Y687006D01*
X321739Y686955D01*
X321776Y686894D01*
X321804Y686828D01*
X321849Y686772D01*
X321865Y686744D01*
X321883Y686729D01*
X321909Y686697D01*
X414709Y593897D01*
X414709Y482243D01*
X414723Y482153D01*
X414731Y482062D01*
X414743Y482032D01*
X414748Y482000D01*
X414791Y481920D01*
X414827Y481836D01*
X414853Y481804D01*
X414864Y481783D01*
X414887Y481761D01*
X414932Y481705D01*
X513973Y382663D01*
X514068Y382595D01*
X514162Y382525D01*
X514168Y382523D01*
X514173Y382520D01*
X514284Y382486D01*
X514396Y382449D01*
X514402Y382449D01*
X514408Y382447D01*
X514525Y382451D01*
X514642Y382452D01*
X514649Y382454D01*
X514654Y382454D01*
X514671Y382460D01*
X514803Y382498D01*
X515827Y382923D01*
X520173Y382923D01*
X524187Y381260D01*
X527260Y378187D01*
X528923Y374173D01*
X528923Y369827D01*
X527260Y365813D01*
X524187Y362740D01*
X520173Y361077D01*
X515827Y361077D01*
X511813Y362740D01*
X508740Y365813D01*
X507077Y369827D01*
X507077Y374173D01*
X508740Y378187D01*
X508779Y378226D01*
X508790Y378242D01*
X508806Y378255D01*
X508862Y378342D01*
X508922Y378426D01*
X508928Y378445D01*
X508939Y378461D01*
X508964Y378562D01*
X508995Y378661D01*
X508994Y378681D01*
X508999Y378700D01*
X508991Y378803D01*
X508988Y378907D01*
X508982Y378925D01*
X508980Y378945D01*
X508940Y379040D01*
X508904Y379138D01*
X508891Y379153D01*
X508884Y379172D01*
X508779Y379303D01*
X410654Y477427D01*
X408659Y479422D01*
X408659Y591076D01*
X408645Y591166D01*
X408637Y591257D01*
X408625Y591287D01*
X408620Y591319D01*
X408577Y591399D01*
X408541Y591483D01*
X408515Y591515D01*
X408504Y591536D01*
X408481Y591558D01*
X408436Y591614D01*
X300967Y699083D01*
X300893Y699136D01*
X300824Y699196D01*
X300794Y699208D01*
X300767Y699227D01*
X300680Y699254D01*
X300596Y699288D01*
X300555Y699292D01*
X300532Y699299D01*
X300500Y699298D01*
X300429Y699306D01*
X297517Y699306D01*
X296991Y699832D01*
X296933Y699874D01*
X296881Y699923D01*
X296834Y699945D01*
X296792Y699975D01*
X296723Y699997D01*
X296658Y700027D01*
X296606Y700032D01*
X296556Y700048D01*
X296485Y700046D01*
X296414Y700054D01*
X296363Y700043D01*
X296311Y700041D01*
X296243Y700017D01*
X296173Y700002D01*
X296128Y699975D01*
X296080Y699957D01*
X296024Y699912D01*
X295962Y699875D01*
X295928Y699836D01*
X295888Y699803D01*
X295849Y699743D01*
X295802Y699688D01*
X295783Y699640D01*
X295755Y699596D01*
X295737Y699527D01*
X295710Y699460D01*
X295702Y699389D01*
X295694Y699358D01*
X295696Y699335D01*
X295692Y699294D01*
X295692Y495513D01*
X295706Y495423D01*
X295714Y495332D01*
X295726Y495302D01*
X295731Y495270D01*
X295774Y495189D01*
X295810Y495105D01*
X295836Y495073D01*
X295847Y495053D01*
X295870Y495030D01*
X295915Y494974D01*
X311935Y478954D01*
X312029Y478887D01*
X312123Y478816D01*
X312129Y478814D01*
X312134Y478811D01*
X312245Y478777D01*
X312357Y478740D01*
X312363Y478740D01*
X312369Y478739D01*
X312486Y478742D01*
X312603Y478743D01*
X312610Y478745D01*
X312615Y478745D01*
X312633Y478751D01*
X312764Y478789D01*
X313047Y478907D01*
X333753Y478907D01*
X337394Y477399D01*
X340181Y474612D01*
X340446Y473971D01*
X340497Y473888D01*
X340543Y473803D01*
X340561Y473785D01*
X340575Y473762D01*
X340651Y473700D01*
X340721Y473633D01*
X340745Y473622D01*
X340765Y473606D01*
X340856Y473571D01*
X340944Y473530D01*
X340970Y473527D01*
X340994Y473517D01*
X341092Y473513D01*
X341188Y473503D01*
X341214Y473508D01*
X341240Y473507D01*
X341334Y473534D01*
X341429Y473555D01*
X341451Y473568D01*
X341476Y473576D01*
X341556Y473631D01*
X341640Y473681D01*
X341657Y473701D01*
X341678Y473716D01*
X341737Y473794D01*
X341800Y473868D01*
X341810Y473892D01*
X341825Y473913D01*
X341855Y474006D01*
X341892Y474096D01*
X341895Y474129D01*
X341901Y474147D01*
X341901Y474180D01*
X341910Y474263D01*
X341910Y474956D01*
X345019Y478065D01*
X349415Y478065D01*
X352524Y474956D01*
X352524Y470560D01*
X350465Y468501D01*
X350412Y468427D01*
X350352Y468357D01*
X350340Y468327D01*
X350321Y468301D01*
X350294Y468214D01*
X350260Y468129D01*
X350256Y468088D01*
X350249Y468066D01*
X350250Y468034D01*
X350242Y467963D01*
X350242Y436444D01*
X313142Y399344D01*
X311448Y397650D01*
X311406Y397592D01*
X311357Y397540D01*
X311335Y397493D01*
X311304Y397451D01*
X311283Y397382D01*
X311253Y397317D01*
X311247Y397265D01*
X311232Y397215D01*
X311234Y397144D01*
X311226Y397073D01*
X311237Y397022D01*
X311238Y396970D01*
X311263Y396902D01*
X311278Y396832D01*
X311305Y396787D01*
X311323Y396739D01*
X311368Y396683D01*
X311404Y396621D01*
X311444Y396587D01*
X311476Y396547D01*
X311537Y396508D01*
X311591Y396461D01*
X311640Y396442D01*
X311683Y396414D01*
X311753Y396396D01*
X311819Y396369D01*
X311891Y396361D01*
X311922Y396353D01*
X311945Y396355D01*
X311986Y396351D01*
X395055Y396351D01*
X395125Y396362D01*
X395197Y396364D01*
X395246Y396382D01*
X395297Y396390D01*
X395361Y396424D01*
X395428Y396449D01*
X395469Y396481D01*
X395515Y396506D01*
X395564Y396558D01*
X395620Y396602D01*
X395648Y396646D01*
X395684Y396684D01*
X395714Y396749D01*
X395753Y396809D01*
X395766Y396860D01*
X395788Y396907D01*
X395796Y396978D01*
X395813Y397048D01*
X395809Y397100D01*
X395815Y397151D01*
X395800Y397222D01*
X395794Y397293D01*
X395774Y397341D01*
X395763Y397392D01*
X395726Y397453D01*
X395698Y397519D01*
X395653Y397575D01*
X395636Y397603D01*
X395626Y397611D01*
X395624Y397615D01*
X395614Y397624D01*
X395593Y397650D01*
X395067Y398176D01*
X395067Y402572D01*
X397126Y404631D01*
X397179Y404705D01*
X397239Y404775D01*
X397251Y404805D01*
X397270Y404831D01*
X397296Y404918D01*
X397331Y405003D01*
X397335Y405044D01*
X397342Y405066D01*
X397341Y405098D01*
X397349Y405169D01*
X397349Y414020D01*
X397338Y414090D01*
X397336Y414162D01*
X397318Y414211D01*
X397310Y414262D01*
X397276Y414326D01*
X397251Y414393D01*
X397219Y414434D01*
X397194Y414480D01*
X397142Y414529D01*
X397098Y414585D01*
X397054Y414613D01*
X397016Y414649D01*
X396951Y414679D01*
X396891Y414718D01*
X396840Y414731D01*
X396793Y414753D01*
X396722Y414761D01*
X396652Y414778D01*
X396600Y414774D01*
X396549Y414780D01*
X396478Y414765D01*
X396407Y414759D01*
X396359Y414739D01*
X396308Y414728D01*
X396247Y414691D01*
X396181Y414663D01*
X396125Y414618D01*
X396097Y414601D01*
X396082Y414584D01*
X396050Y414558D01*
X394655Y413163D01*
X390259Y413163D01*
X387150Y416272D01*
X387150Y419184D01*
X387136Y419274D01*
X387128Y419365D01*
X387116Y419395D01*
X387111Y419427D01*
X387068Y419507D01*
X387032Y419591D01*
X387006Y419623D01*
X386995Y419644D01*
X386972Y419666D01*
X386961Y419680D01*
X386954Y419691D01*
X386947Y419698D01*
X386927Y419722D01*
X371336Y435313D01*
X371336Y573174D01*
X371333Y573194D01*
X371335Y573213D01*
X371313Y573315D01*
X371297Y573417D01*
X371287Y573434D01*
X371283Y573454D01*
X371230Y573543D01*
X371181Y573634D01*
X371167Y573648D01*
X371157Y573665D01*
X371078Y573732D01*
X371003Y573804D01*
X370985Y573812D01*
X370970Y573825D01*
X370874Y573864D01*
X370780Y573907D01*
X370760Y573909D01*
X370742Y573917D01*
X370575Y573935D01*
X368228Y573935D01*
X367335Y574828D01*
X367335Y587172D01*
X368228Y588065D01*
X380572Y588065D01*
X381465Y587172D01*
X381465Y574828D01*
X380572Y573935D01*
X378147Y573935D01*
X378127Y573932D01*
X378108Y573934D01*
X378006Y573912D01*
X377904Y573896D01*
X377887Y573886D01*
X377867Y573882D01*
X377778Y573829D01*
X377687Y573780D01*
X377673Y573766D01*
X377656Y573756D01*
X377589Y573677D01*
X377517Y573602D01*
X377509Y573584D01*
X377496Y573569D01*
X377457Y573473D01*
X377414Y573379D01*
X377412Y573359D01*
X377404Y573341D01*
X377386Y573174D01*
X377386Y438134D01*
X377400Y438044D01*
X377408Y437953D01*
X377420Y437923D01*
X377425Y437891D01*
X377468Y437811D01*
X377504Y437727D01*
X377530Y437695D01*
X377541Y437674D01*
X377564Y437652D01*
X377609Y437596D01*
X391205Y424000D01*
X391279Y423947D01*
X391348Y423887D01*
X391378Y423875D01*
X391405Y423856D01*
X391492Y423829D01*
X391576Y423795D01*
X391617Y423791D01*
X391640Y423784D01*
X391672Y423785D01*
X391743Y423777D01*
X394655Y423777D01*
X396050Y422382D01*
X396108Y422340D01*
X396160Y422291D01*
X396207Y422269D01*
X396249Y422239D01*
X396318Y422217D01*
X396383Y422187D01*
X396435Y422182D01*
X396485Y422166D01*
X396556Y422168D01*
X396627Y422160D01*
X396678Y422171D01*
X396730Y422173D01*
X396798Y422197D01*
X396868Y422212D01*
X396913Y422239D01*
X396961Y422257D01*
X397017Y422302D01*
X397079Y422339D01*
X397113Y422378D01*
X397153Y422411D01*
X397192Y422471D01*
X397239Y422526D01*
X397258Y422574D01*
X397286Y422618D01*
X397304Y422687D01*
X397331Y422754D01*
X397339Y422825D01*
X397347Y422856D01*
X397345Y422879D01*
X397349Y422920D01*
X397349Y573174D01*
X397346Y573194D01*
X397348Y573213D01*
X397326Y573315D01*
X397310Y573417D01*
X397300Y573434D01*
X397296Y573454D01*
X397243Y573543D01*
X397194Y573634D01*
X397180Y573648D01*
X397170Y573665D01*
X397091Y573732D01*
X397016Y573804D01*
X396998Y573812D01*
X396983Y573825D01*
X396887Y573864D01*
X396793Y573907D01*
X396773Y573909D01*
X396755Y573917D01*
X396588Y573935D01*
X393628Y573935D01*
X392735Y574828D01*
X392735Y587172D01*
X393628Y588065D01*
X405972Y588065D01*
X406865Y587172D01*
X406865Y574828D01*
X405972Y573935D01*
X404160Y573935D01*
X404140Y573932D01*
X404121Y573934D01*
X404019Y573912D01*
X403917Y573896D01*
X403900Y573886D01*
X403880Y573882D01*
X403791Y573829D01*
X403700Y573780D01*
X403686Y573766D01*
X403669Y573756D01*
X403602Y573677D01*
X403530Y573602D01*
X403522Y573584D01*
X403509Y573569D01*
X403470Y573473D01*
X403427Y573379D01*
X403425Y573359D01*
X403417Y573341D01*
X403399Y573174D01*
X403399Y405169D01*
X403413Y405079D01*
X403421Y404988D01*
X403433Y404959D01*
X403438Y404927D01*
X403481Y404846D01*
X403517Y404762D01*
X403543Y404730D01*
X403554Y404709D01*
X403577Y404687D01*
X403622Y404631D01*
X405681Y402572D01*
X405681Y398176D01*
X405155Y397650D01*
X405113Y397592D01*
X405064Y397540D01*
X405042Y397493D01*
X405012Y397451D01*
X404990Y397382D01*
X404960Y397317D01*
X404955Y397265D01*
X404939Y397215D01*
X404941Y397144D01*
X404933Y397073D01*
X404944Y397022D01*
X404946Y396970D01*
X404970Y396902D01*
X404985Y396832D01*
X405012Y396787D01*
X405030Y396739D01*
X405075Y396683D01*
X405112Y396621D01*
X405151Y396587D01*
X405184Y396547D01*
X405244Y396508D01*
X405299Y396461D01*
X405347Y396442D01*
X405391Y396414D01*
X405460Y396396D01*
X405527Y396369D01*
X405598Y396361D01*
X405629Y396353D01*
X405652Y396355D01*
X405693Y396351D01*
X451088Y396351D01*
X464306Y383133D01*
X464400Y383065D01*
X464495Y382995D01*
X464501Y382993D01*
X464506Y382989D01*
X464617Y382955D01*
X464729Y382919D01*
X464735Y382919D01*
X464741Y382917D01*
X464858Y382920D01*
X464975Y382921D01*
X464981Y382923D01*
X469373Y382923D01*
X473387Y381260D01*
X476460Y378187D01*
X478123Y374173D01*
X478123Y369827D01*
X476460Y365813D01*
X473387Y362740D01*
X469373Y361077D01*
X465027Y361077D01*
X461013Y362740D01*
X457940Y365813D01*
X456277Y369827D01*
X456277Y374173D01*
X456896Y375666D01*
X456923Y375780D01*
X456951Y375893D01*
X456951Y375900D01*
X456952Y375906D01*
X456941Y376022D01*
X456932Y376139D01*
X456930Y376144D01*
X456929Y376151D01*
X456881Y376258D01*
X456836Y376365D01*
X456831Y376371D01*
X456829Y376375D01*
X456816Y376389D01*
X456731Y376496D01*
X447149Y386078D01*
X447075Y386131D01*
X447005Y386191D01*
X446975Y386203D01*
X446949Y386222D01*
X446862Y386249D01*
X446777Y386283D01*
X446736Y386287D01*
X446714Y386294D01*
X446682Y386293D01*
X446610Y386301D01*
X287409Y386301D01*
X287319Y386287D01*
X287228Y386279D01*
X287198Y386267D01*
X287166Y386262D01*
X287085Y386219D01*
X287001Y386183D01*
X286969Y386157D01*
X286949Y386146D01*
X286926Y386123D01*
X286870Y386078D01*
X285305Y384513D01*
X285293Y384497D01*
X285278Y384484D01*
X285222Y384397D01*
X285161Y384313D01*
X285155Y384294D01*
X285145Y384277D01*
X285119Y384177D01*
X285089Y384078D01*
X285089Y384058D01*
X285085Y384039D01*
X285093Y383936D01*
X285095Y383832D01*
X285102Y383813D01*
X285104Y383793D01*
X285144Y383699D01*
X285180Y383601D01*
X285192Y383585D01*
X285200Y383567D01*
X285305Y383436D01*
X285813Y382928D01*
X285909Y382859D01*
X286001Y382790D01*
X286007Y382788D01*
X286013Y382785D01*
X286125Y382750D01*
X286235Y382714D01*
X286242Y382714D01*
X286248Y382712D01*
X286364Y382715D01*
X286481Y382717D01*
X286488Y382719D01*
X286493Y382719D01*
X286511Y382725D01*
X286642Y382763D01*
X287027Y382923D01*
X291373Y382923D01*
X295387Y381260D01*
X298460Y378187D01*
X300123Y374173D01*
X300123Y369827D01*
X298460Y365813D01*
X295387Y362740D01*
X291373Y361077D01*
X287027Y361077D01*
X283013Y362740D01*
X279940Y365813D01*
X278277Y369827D01*
X278277Y374173D01*
X278692Y375173D01*
X278718Y375286D01*
X278747Y375400D01*
X278746Y375406D01*
X278748Y375412D01*
X278737Y375529D01*
X278728Y375645D01*
X278725Y375651D01*
X278725Y375657D01*
X278677Y375765D01*
X278631Y375871D01*
X278627Y375877D01*
X278625Y375882D01*
X278612Y375896D01*
X278527Y376002D01*
X277499Y377030D01*
X274844Y379685D01*
X274792Y379722D01*
X274747Y379767D01*
X274693Y379794D01*
X274644Y379829D01*
X274583Y379847D01*
X274526Y379876D01*
X274466Y379883D01*
X274409Y379901D01*
X274345Y379899D01*
X274282Y379908D01*
X274281Y379908D01*
X274310Y379976D01*
X274311Y379984D01*
X274314Y379991D01*
X274332Y380158D01*
X274332Y381012D01*
X274318Y381102D01*
X274310Y381193D01*
X274298Y381223D01*
X274293Y381255D01*
X274250Y381336D01*
X274214Y381420D01*
X274188Y381452D01*
X274177Y381472D01*
X274154Y381495D01*
X274109Y381551D01*
X269582Y386078D01*
X269508Y386131D01*
X269438Y386191D01*
X269408Y386203D01*
X269382Y386222D01*
X269295Y386249D01*
X269210Y386283D01*
X269169Y386287D01*
X269147Y386294D01*
X269115Y386293D01*
X269043Y386301D01*
X113497Y386301D01*
X113426Y386290D01*
X113354Y386288D01*
X113305Y386270D01*
X113254Y386262D01*
X113191Y386228D01*
X113123Y386203D01*
X113082Y386171D01*
X113036Y386146D01*
X112987Y386095D01*
X112931Y386050D01*
X112903Y386006D01*
X112867Y385968D01*
X112837Y385903D01*
X112798Y385843D01*
X112785Y385792D01*
X112763Y385745D01*
X112756Y385674D01*
X112738Y385604D01*
X112742Y385552D01*
X112736Y385501D01*
X112752Y385430D01*
X112757Y385359D01*
X112778Y385311D01*
X112789Y385260D01*
X112825Y385199D01*
X112853Y385133D01*
X112898Y385077D01*
X112915Y385049D01*
X112933Y385034D01*
X112958Y385002D01*
X114814Y383146D01*
X114888Y383093D01*
X114958Y383033D01*
X114988Y383021D01*
X115014Y383002D01*
X115101Y382975D01*
X115186Y382941D01*
X115227Y382937D01*
X115249Y382930D01*
X115281Y382931D01*
X115353Y382923D01*
X116373Y382923D01*
X120387Y381260D01*
X123460Y378187D01*
X125123Y374173D01*
X125123Y369827D01*
X123460Y365813D01*
X120387Y362740D01*
X116373Y361077D01*
X112027Y361077D01*
X108013Y362740D01*
X104940Y365813D01*
X103277Y369827D01*
X103277Y374173D01*
X104927Y378156D01*
X104954Y378270D01*
X104982Y378383D01*
X104982Y378389D01*
X104983Y378396D01*
X104972Y378512D01*
X104963Y378628D01*
X104961Y378634D01*
X104960Y378640D01*
X104913Y378747D01*
X104867Y378855D01*
X104862Y378861D01*
X104860Y378865D01*
X104848Y378879D01*
X104762Y378986D01*
X103325Y380423D01*
X99935Y383813D01*
X28248Y455500D01*
X28232Y455512D01*
X28219Y455527D01*
X28132Y455584D01*
X28048Y455644D01*
X28029Y455650D01*
X28012Y455660D01*
X27912Y455686D01*
X27813Y455716D01*
X27793Y455716D01*
X27774Y455720D01*
X27671Y455712D01*
X27567Y455710D01*
X27548Y455703D01*
X27529Y455701D01*
X27434Y455661D01*
X27336Y455625D01*
X27320Y455613D01*
X27302Y455605D01*
X27171Y455500D01*
X-49357Y378972D01*
X-49424Y378878D01*
X-49495Y378784D01*
X-49497Y378778D01*
X-49500Y378773D01*
X-49535Y378661D01*
X-49571Y378550D01*
X-49571Y378543D01*
X-49573Y378537D01*
X-49570Y378421D01*
X-49568Y378304D01*
X-49566Y378297D01*
X-49566Y378292D01*
X-49560Y378274D01*
X-49522Y378143D01*
X-47877Y374173D01*
X-47877Y369827D01*
X-49540Y365813D01*
X-52613Y362740D01*
X-56627Y361077D01*
X-60973Y361077D01*
X-64987Y362740D01*
X-68060Y365813D01*
X-69723Y369827D01*
X-69723Y374173D01*
X-68060Y378187D01*
X-64987Y381260D01*
X-60973Y382923D01*
X-59934Y382923D01*
X-59844Y382937D01*
X-59753Y382945D01*
X-59723Y382957D01*
X-59691Y382962D01*
X-59610Y383005D01*
X-59526Y383041D01*
X-59494Y383067D01*
X-59474Y383078D01*
X-59451Y383101D01*
X-59395Y383146D01*
X24158Y466699D01*
X24211Y466773D01*
X24271Y466843D01*
X24283Y466873D01*
X24302Y466899D01*
X24329Y466986D01*
X24363Y467071D01*
X24367Y467112D01*
X24374Y467134D01*
X24373Y467166D01*
X24381Y467238D01*
X24381Y481994D01*
X24378Y482014D01*
X24380Y482033D01*
X24358Y482135D01*
X24342Y482237D01*
X24332Y482254D01*
X24328Y482274D01*
X24275Y482363D01*
X24226Y482454D01*
X24212Y482468D01*
X24202Y482485D01*
X24123Y482552D01*
X24048Y482624D01*
X24030Y482632D01*
X24015Y482645D01*
X23919Y482684D01*
X23825Y482727D01*
X23805Y482729D01*
X23787Y482737D01*
X23620Y482755D01*
X23028Y482755D01*
X22135Y483648D01*
X22135Y509912D01*
X23028Y510805D01*
X49292Y510805D01*
X50185Y509912D01*
X50185Y483648D01*
X49292Y482755D01*
X35192Y482755D01*
X35172Y482752D01*
X35153Y482754D01*
X35051Y482732D01*
X34949Y482716D01*
X34932Y482706D01*
X34912Y482702D01*
X34823Y482649D01*
X34732Y482600D01*
X34718Y482586D01*
X34701Y482576D01*
X34634Y482497D01*
X34562Y482422D01*
X34554Y482404D01*
X34541Y482389D01*
X34502Y482293D01*
X34459Y482199D01*
X34457Y482179D01*
X34449Y482161D01*
X34431Y481994D01*
X34431Y463845D01*
X34445Y463755D01*
X34453Y463664D01*
X34465Y463634D01*
X34470Y463602D01*
X34513Y463521D01*
X34549Y463437D01*
X34575Y463405D01*
X34586Y463384D01*
X34609Y463362D01*
X34654Y463306D01*
X87267Y410693D01*
X87325Y410651D01*
X87377Y410602D01*
X87424Y410580D01*
X87466Y410550D01*
X87535Y410529D01*
X87600Y410498D01*
X87652Y410493D01*
X87702Y410477D01*
X87773Y410479D01*
X87844Y410471D01*
X87895Y410482D01*
X87947Y410484D01*
X88015Y410508D01*
X88085Y410524D01*
X88129Y410550D01*
X88178Y410568D01*
X88234Y410613D01*
X88296Y410650D01*
X88330Y410689D01*
X88370Y410722D01*
X88409Y410782D01*
X88456Y410837D01*
X88475Y410885D01*
X88503Y410929D01*
X88521Y410998D01*
X88548Y411065D01*
X88556Y411136D01*
X88564Y411167D01*
X88562Y411191D01*
X88566Y411232D01*
X88566Y413882D01*
X91675Y416991D01*
X94587Y416991D01*
X94677Y417005D01*
X94768Y417013D01*
X94798Y417025D01*
X94830Y417030D01*
X94910Y417073D01*
X94994Y417109D01*
X95026Y417135D01*
X95047Y417146D01*
X95069Y417169D01*
X95125Y417214D01*
X158465Y480554D01*
X158518Y480628D01*
X158578Y480697D01*
X158590Y480727D01*
X158609Y480754D01*
X158636Y480841D01*
X158670Y480925D01*
X158674Y480966D01*
X158681Y480989D01*
X158680Y481021D01*
X158688Y481092D01*
X158688Y484004D01*
X160083Y485399D01*
X160125Y485457D01*
X160174Y485509D01*
X160196Y485556D01*
X160226Y485598D01*
X160248Y485667D01*
X160278Y485732D01*
X160283Y485784D01*
X160299Y485834D01*
X160297Y485905D01*
X160305Y485976D01*
X160294Y486027D01*
X160292Y486079D01*
X160268Y486147D01*
X160253Y486217D01*
X160226Y486262D01*
X160208Y486310D01*
X160163Y486366D01*
X160126Y486428D01*
X160087Y486462D01*
X160054Y486502D01*
X159994Y486541D01*
X159939Y486588D01*
X159891Y486607D01*
X159847Y486635D01*
X159778Y486653D01*
X159711Y486680D01*
X159640Y486688D01*
X159609Y486696D01*
X159586Y486694D01*
X159545Y486698D01*
X128240Y486698D01*
X128150Y486684D01*
X128059Y486676D01*
X128029Y486664D01*
X127997Y486659D01*
X127917Y486616D01*
X127833Y486580D01*
X127801Y486554D01*
X127780Y486543D01*
X127758Y486520D01*
X127702Y486475D01*
X113222Y471995D01*
X80179Y471995D01*
X52394Y499780D01*
X52394Y509644D01*
X52380Y509734D01*
X52372Y509825D01*
X52360Y509855D01*
X52355Y509887D01*
X52312Y509967D01*
X52276Y510051D01*
X52250Y510083D01*
X52239Y510104D01*
X52216Y510126D01*
X52171Y510182D01*
X49865Y512488D01*
X49791Y512541D01*
X49722Y512601D01*
X49692Y512613D01*
X49665Y512632D01*
X49578Y512659D01*
X49494Y512693D01*
X49453Y512697D01*
X49430Y512704D01*
X49398Y512703D01*
X49327Y512711D01*
X23057Y512711D01*
X22967Y512697D01*
X22876Y512689D01*
X22846Y512677D01*
X22814Y512672D01*
X22734Y512629D01*
X22650Y512593D01*
X22618Y512567D01*
X22597Y512556D01*
X22575Y512533D01*
X22519Y512488D01*
X-2407Y487562D01*
X-2460Y487488D01*
X-2520Y487419D01*
X-2532Y487389D01*
X-2551Y487362D01*
X-2578Y487275D01*
X-2612Y487191D01*
X-2616Y487150D01*
X-2623Y487127D01*
X-2622Y487095D01*
X-2630Y487024D01*
X-2630Y460195D01*
X-76786Y386039D01*
X-93436Y386039D01*
X-93526Y386025D01*
X-93617Y386017D01*
X-93647Y386005D01*
X-93679Y386000D01*
X-93759Y385957D01*
X-93843Y385921D01*
X-93875Y385895D01*
X-93896Y385884D01*
X-93918Y385861D01*
X-93974Y385816D01*
X-100433Y379357D01*
X-100445Y379341D01*
X-100461Y379328D01*
X-100517Y379241D01*
X-100577Y379157D01*
X-100583Y379138D01*
X-100594Y379121D01*
X-100619Y379021D01*
X-100649Y378922D01*
X-100649Y378902D01*
X-100654Y378883D01*
X-100646Y378780D01*
X-100643Y378676D01*
X-100636Y378658D01*
X-100635Y378638D01*
X-100594Y378543D01*
X-100558Y378445D01*
X-100546Y378430D01*
X-100538Y378411D01*
X-100433Y378280D01*
X-100340Y378187D01*
X-98677Y374173D01*
X-98677Y369827D01*
X-100340Y365813D01*
X-103413Y362740D01*
X-107427Y361077D01*
X-111773Y361077D01*
X-115787Y362740D01*
X-118860Y365813D01*
X-120523Y369827D01*
X-120523Y374173D01*
X-118860Y378187D01*
X-115787Y381260D01*
X-111773Y382923D01*
X-107427Y382923D01*
X-106480Y382530D01*
X-106366Y382504D01*
X-106253Y382475D01*
X-106247Y382476D01*
X-106240Y382474D01*
X-106124Y382485D01*
X-106008Y382494D01*
X-106002Y382497D01*
X-105996Y382497D01*
X-105888Y382545D01*
X-105781Y382590D01*
X-105776Y382595D01*
X-105771Y382597D01*
X-105757Y382610D01*
X-105650Y382695D01*
X-96257Y392089D01*
X-79607Y392089D01*
X-79517Y392103D01*
X-79426Y392111D01*
X-79396Y392123D01*
X-79364Y392128D01*
X-79284Y392171D01*
X-79200Y392207D01*
X-79168Y392233D01*
X-79147Y392244D01*
X-79125Y392267D01*
X-79069Y392312D01*
X-14277Y457104D01*
X-14235Y457162D01*
X-14186Y457214D01*
X-14164Y457261D01*
X-14133Y457303D01*
X-14112Y457372D01*
X-14082Y457437D01*
X-14076Y457489D01*
X-14061Y457539D01*
X-14063Y457610D01*
X-14055Y457681D01*
X-14066Y457732D01*
X-14067Y457784D01*
X-14092Y457852D01*
X-14107Y457922D01*
X-14134Y457967D01*
X-14152Y458015D01*
X-14197Y458071D01*
X-14233Y458133D01*
X-14273Y458167D01*
X-14305Y458207D01*
X-14366Y458246D01*
X-14420Y458293D01*
X-14469Y458312D01*
X-14512Y458340D01*
X-14582Y458358D01*
X-14648Y458385D01*
X-14720Y458393D01*
X-14751Y458401D01*
X-14774Y458399D01*
X-14815Y458403D01*
X-15770Y458403D01*
X-18879Y461512D01*
X-18879Y465908D01*
X-16820Y467967D01*
X-16767Y468041D01*
X-16707Y468111D01*
X-16695Y468141D01*
X-16676Y468167D01*
X-16649Y468254D01*
X-16615Y468339D01*
X-16611Y468380D01*
X-16604Y468402D01*
X-16605Y468434D01*
X-16597Y468505D01*
X-16597Y944114D01*
X-16611Y944204D01*
X-16617Y944271D01*
X-16617Y948845D01*
X-16091Y949371D01*
X-16049Y949429D01*
X-16000Y949481D01*
X-15978Y949528D01*
X-15948Y949570D01*
X-15926Y949639D01*
X-15896Y949704D01*
X-15891Y949756D01*
X-15875Y949806D01*
X-15877Y949877D01*
X-15869Y949948D01*
X-15880Y949999D01*
X-15882Y950051D01*
X-15906Y950119D01*
X-15921Y950189D01*
X-15948Y950234D01*
X-15966Y950282D01*
X-16011Y950338D01*
X-16048Y950400D01*
X-16087Y950434D01*
X-16120Y950474D01*
X-16180Y950513D01*
X-16235Y950560D01*
X-16283Y950579D01*
X-16327Y950607D01*
X-16396Y950625D01*
X-16463Y950652D01*
X-16534Y950660D01*
X-16565Y950668D01*
X-16588Y950666D01*
X-16629Y950670D01*
X-18432Y950670D01*
X-18502Y950659D01*
X-18574Y950657D01*
X-18623Y950639D01*
X-18674Y950631D01*
X-18738Y950597D01*
X-18805Y950572D01*
X-18846Y950540D01*
X-18892Y950515D01*
X-18941Y950463D01*
X-18997Y950419D01*
X-19025Y950375D01*
X-19061Y950337D01*
X-19091Y950272D01*
X-19130Y950212D01*
X-19143Y950161D01*
X-19165Y950114D01*
X-19173Y950043D01*
X-19190Y949973D01*
X-19186Y949921D01*
X-19192Y949870D01*
X-19177Y949799D01*
X-19171Y949728D01*
X-19151Y949680D01*
X-19140Y949629D01*
X-19103Y949568D01*
X-19075Y949502D01*
X-19030Y949446D01*
X-19013Y949418D01*
X-18996Y949403D01*
X-18970Y949371D01*
X-18444Y948845D01*
X-18444Y944449D01*
X-20503Y942390D01*
X-20556Y942316D01*
X-20616Y942246D01*
X-20628Y942216D01*
X-20647Y942190D01*
X-20674Y942103D01*
X-20708Y942018D01*
X-20712Y941977D01*
X-20719Y941955D01*
X-20718Y941923D01*
X-20726Y941852D01*
X-20726Y462457D01*
X-23221Y459962D01*
X-23274Y459888D01*
X-23334Y459819D01*
X-23346Y459789D01*
X-23365Y459762D01*
X-23392Y459675D01*
X-23426Y459591D01*
X-23430Y459550D01*
X-23437Y459527D01*
X-23436Y459495D01*
X-23444Y459424D01*
X-23444Y456512D01*
X-26553Y453403D01*
X-30949Y453403D01*
X-34058Y456512D01*
X-34058Y460908D01*
X-30949Y464017D01*
X-28037Y464017D01*
X-27947Y464031D01*
X-27856Y464039D01*
X-27826Y464051D01*
X-27794Y464056D01*
X-27714Y464099D01*
X-27630Y464135D01*
X-27598Y464161D01*
X-27577Y464172D01*
X-27555Y464195D01*
X-27499Y464240D01*
X-26999Y464740D01*
X-26946Y464814D01*
X-26886Y464883D01*
X-26874Y464913D01*
X-26855Y464940D01*
X-26828Y465027D01*
X-26794Y465111D01*
X-26790Y465152D01*
X-26783Y465175D01*
X-26784Y465207D01*
X-26776Y465278D01*
X-26776Y477356D01*
X-26787Y477426D01*
X-26789Y477498D01*
X-26807Y477547D01*
X-26815Y477598D01*
X-26849Y477662D01*
X-26874Y477729D01*
X-26906Y477770D01*
X-26931Y477816D01*
X-26982Y477865D01*
X-27027Y477921D01*
X-27071Y477949D01*
X-27109Y477985D01*
X-27174Y478015D01*
X-27234Y478054D01*
X-27285Y478067D01*
X-27332Y478089D01*
X-27403Y478097D01*
X-27473Y478114D01*
X-27525Y478110D01*
X-27576Y478116D01*
X-27647Y478101D01*
X-27718Y478095D01*
X-27766Y478075D01*
X-27817Y478064D01*
X-27878Y478027D01*
X-27944Y477999D01*
X-28000Y477954D01*
X-28028Y477937D01*
X-28043Y477920D01*
X-28075Y477894D01*
X-28420Y477549D01*
X-28473Y477475D01*
X-28533Y477405D01*
X-28545Y477375D01*
X-28564Y477349D01*
X-28591Y477262D01*
X-28624Y477179D01*
X-126140Y379664D01*
X-126152Y379647D01*
X-126167Y379635D01*
X-126223Y379548D01*
X-126283Y379464D01*
X-126289Y379445D01*
X-126300Y379428D01*
X-126325Y379328D01*
X-126356Y379229D01*
X-126355Y379209D01*
X-126360Y379189D01*
X-126352Y379086D01*
X-126349Y378983D01*
X-126343Y378964D01*
X-126341Y378944D01*
X-126301Y378849D01*
X-126265Y378752D01*
X-126252Y378736D01*
X-126245Y378718D01*
X-126140Y378587D01*
X-125740Y378187D01*
X-124077Y374173D01*
X-124077Y369827D01*
X-125740Y365813D01*
X-128813Y362740D01*
X-132827Y361077D01*
X-137173Y361077D01*
G37*
%LPD*%
G36*
X-9351Y467411D02*
X-9351Y467411D01*
X-9299Y467413D01*
X-9231Y467437D01*
X-9161Y467452D01*
X-9116Y467479D01*
X-9068Y467497D01*
X-9012Y467542D01*
X-8950Y467579D01*
X-8916Y467618D01*
X-8876Y467651D01*
X-8837Y467711D01*
X-8790Y467766D01*
X-8771Y467814D01*
X-8743Y467858D01*
X-8725Y467927D01*
X-8698Y467994D01*
X-8690Y468065D01*
X-8682Y468096D01*
X-8684Y468119D01*
X-8680Y468160D01*
X-8680Y489845D01*
X-6685Y491840D01*
X20236Y518761D01*
X52148Y518761D01*
X58444Y512465D01*
X58444Y502601D01*
X58458Y502511D01*
X58466Y502420D01*
X58478Y502390D01*
X58483Y502358D01*
X58526Y502278D01*
X58562Y502194D01*
X58588Y502162D01*
X58599Y502141D01*
X58622Y502119D01*
X58667Y502063D01*
X82462Y478268D01*
X82536Y478215D01*
X82605Y478155D01*
X82635Y478143D01*
X82662Y478124D01*
X82749Y478097D01*
X82833Y478063D01*
X82874Y478059D01*
X82897Y478052D01*
X82929Y478053D01*
X83000Y478045D01*
X110401Y478045D01*
X110491Y478059D01*
X110582Y478067D01*
X110612Y478079D01*
X110644Y478084D01*
X110724Y478127D01*
X110808Y478163D01*
X110840Y478189D01*
X110861Y478200D01*
X110883Y478223D01*
X110939Y478268D01*
X125419Y492748D01*
X184082Y492748D01*
X184172Y492762D01*
X184263Y492770D01*
X184292Y492782D01*
X184324Y492787D01*
X184405Y492830D01*
X184489Y492866D01*
X184521Y492892D01*
X184542Y492903D01*
X184564Y492926D01*
X184620Y492971D01*
X186679Y495030D01*
X191075Y495030D01*
X192470Y493635D01*
X192528Y493593D01*
X192580Y493544D01*
X192627Y493522D01*
X192669Y493492D01*
X192738Y493470D01*
X192803Y493440D01*
X192855Y493435D01*
X192905Y493419D01*
X192976Y493421D01*
X193047Y493413D01*
X193098Y493424D01*
X193150Y493426D01*
X193218Y493450D01*
X193288Y493465D01*
X193333Y493492D01*
X193381Y493510D01*
X193437Y493555D01*
X193499Y493592D01*
X193533Y493631D01*
X193573Y493664D01*
X193612Y493724D01*
X193659Y493779D01*
X193678Y493827D01*
X193706Y493871D01*
X193724Y493940D01*
X193751Y494007D01*
X193759Y494078D01*
X193767Y494109D01*
X193765Y494132D01*
X193769Y494173D01*
X193769Y795787D01*
X193755Y795877D01*
X193747Y795968D01*
X193735Y795998D01*
X193730Y796030D01*
X193687Y796110D01*
X193651Y796194D01*
X193625Y796226D01*
X193614Y796247D01*
X193591Y796269D01*
X193546Y796325D01*
X174521Y815350D01*
X174520Y815361D01*
X174508Y815390D01*
X174503Y815422D01*
X174460Y815503D01*
X174424Y815587D01*
X174398Y815619D01*
X174387Y815640D01*
X174364Y815662D01*
X174319Y815718D01*
X172260Y817777D01*
X172260Y822173D01*
X175369Y825282D01*
X176324Y825282D01*
X176395Y825293D01*
X176466Y825295D01*
X176515Y825313D01*
X176567Y825321D01*
X176630Y825355D01*
X176697Y825380D01*
X176738Y825412D01*
X176784Y825437D01*
X176833Y825489D01*
X176889Y825533D01*
X176918Y825577D01*
X176953Y825615D01*
X176984Y825680D01*
X177022Y825740D01*
X177035Y825791D01*
X177057Y825838D01*
X177065Y825909D01*
X177082Y825979D01*
X177078Y826031D01*
X177084Y826082D01*
X177069Y826153D01*
X177063Y826224D01*
X177043Y826272D01*
X177032Y826323D01*
X176995Y826384D01*
X176967Y826450D01*
X176922Y826506D01*
X176906Y826534D01*
X176888Y826549D01*
X176862Y826581D01*
X116594Y886849D01*
X114599Y888844D01*
X114599Y905494D01*
X114585Y905584D01*
X114577Y905675D01*
X114565Y905705D01*
X114560Y905737D01*
X114517Y905817D01*
X114481Y905901D01*
X114455Y905933D01*
X114444Y905954D01*
X114421Y905976D01*
X114376Y906032D01*
X101027Y919381D01*
X101027Y930935D01*
X117769Y947677D01*
X119463Y949371D01*
X119505Y949429D01*
X119554Y949481D01*
X119576Y949528D01*
X119607Y949570D01*
X119628Y949639D01*
X119658Y949704D01*
X119664Y949756D01*
X119679Y949806D01*
X119677Y949877D01*
X119685Y949948D01*
X119674Y949999D01*
X119673Y950051D01*
X119648Y950119D01*
X119633Y950189D01*
X119606Y950234D01*
X119588Y950282D01*
X119543Y950338D01*
X119507Y950400D01*
X119467Y950434D01*
X119435Y950474D01*
X119374Y950513D01*
X119320Y950560D01*
X119271Y950579D01*
X119228Y950607D01*
X119158Y950625D01*
X119092Y950652D01*
X119020Y950660D01*
X118989Y950668D01*
X118966Y950666D01*
X118925Y950670D01*
X-5991Y950670D01*
X-6061Y950659D01*
X-6133Y950657D01*
X-6182Y950639D01*
X-6233Y950631D01*
X-6297Y950597D01*
X-6364Y950572D01*
X-6405Y950540D01*
X-6451Y950515D01*
X-6500Y950463D01*
X-6556Y950419D01*
X-6584Y950375D01*
X-6620Y950337D01*
X-6650Y950272D01*
X-6689Y950212D01*
X-6702Y950161D01*
X-6724Y950114D01*
X-6732Y950043D01*
X-6749Y949973D01*
X-6745Y949921D01*
X-6751Y949870D01*
X-6736Y949799D01*
X-6730Y949728D01*
X-6710Y949680D01*
X-6699Y949629D01*
X-6662Y949568D01*
X-6634Y949502D01*
X-6589Y949446D01*
X-6572Y949418D01*
X-6555Y949403D01*
X-6529Y949371D01*
X-6003Y948845D01*
X-6003Y944449D01*
X-9112Y941340D01*
X-9786Y941340D01*
X-9806Y941337D01*
X-9825Y941339D01*
X-9927Y941317D01*
X-10029Y941301D01*
X-10046Y941291D01*
X-10066Y941287D01*
X-10155Y941234D01*
X-10246Y941185D01*
X-10260Y941171D01*
X-10277Y941161D01*
X-10344Y941082D01*
X-10416Y941007D01*
X-10424Y940989D01*
X-10437Y940974D01*
X-10476Y940878D01*
X-10519Y940784D01*
X-10521Y940764D01*
X-10529Y940746D01*
X-10547Y940579D01*
X-10547Y468505D01*
X-10533Y468416D01*
X-10525Y468324D01*
X-10513Y468295D01*
X-10508Y468263D01*
X-10465Y468182D01*
X-10429Y468098D01*
X-10403Y468066D01*
X-10392Y468045D01*
X-10369Y468023D01*
X-10324Y467967D01*
X-9979Y467622D01*
X-9921Y467580D01*
X-9869Y467531D01*
X-9822Y467509D01*
X-9780Y467479D01*
X-9711Y467457D01*
X-9646Y467427D01*
X-9594Y467422D01*
X-9544Y467406D01*
X-9473Y467408D01*
X-9402Y467400D01*
X-9351Y467411D01*
G37*
G36*
X105222Y393103D02*
X105222Y393103D01*
X105325Y393106D01*
X105344Y393113D01*
X105364Y393114D01*
X105459Y393155D01*
X105556Y393190D01*
X105572Y393203D01*
X105590Y393211D01*
X105721Y393315D01*
X108757Y396351D01*
X233322Y396351D01*
X233392Y396362D01*
X233464Y396364D01*
X233513Y396382D01*
X233564Y396390D01*
X233628Y396424D01*
X233695Y396449D01*
X233736Y396481D01*
X233782Y396506D01*
X233831Y396558D01*
X233887Y396602D01*
X233915Y396646D01*
X233951Y396684D01*
X233981Y396749D01*
X234020Y396809D01*
X234033Y396860D01*
X234055Y396907D01*
X234063Y396978D01*
X234080Y397048D01*
X234076Y397100D01*
X234082Y397151D01*
X234067Y397222D01*
X234061Y397293D01*
X234041Y397341D01*
X234030Y397392D01*
X233993Y397453D01*
X233965Y397519D01*
X233920Y397575D01*
X233903Y397603D01*
X233893Y397611D01*
X233891Y397615D01*
X233881Y397624D01*
X233860Y397650D01*
X233334Y398176D01*
X233334Y402572D01*
X236443Y405681D01*
X240839Y405681D01*
X242898Y403622D01*
X242972Y403569D01*
X243042Y403509D01*
X243072Y403497D01*
X243098Y403478D01*
X243185Y403451D01*
X243270Y403417D01*
X243311Y403413D01*
X243333Y403406D01*
X243365Y403407D01*
X243436Y403399D01*
X308326Y403399D01*
X308416Y403413D01*
X308507Y403421D01*
X308537Y403433D01*
X308569Y403438D01*
X308649Y403481D01*
X308733Y403517D01*
X308765Y403543D01*
X308786Y403554D01*
X308808Y403577D01*
X308864Y403622D01*
X343969Y438727D01*
X344022Y438801D01*
X344082Y438870D01*
X344094Y438900D01*
X344113Y438927D01*
X344140Y439014D01*
X344174Y439098D01*
X344178Y439139D01*
X344185Y439162D01*
X344184Y439194D01*
X344192Y439265D01*
X344192Y467963D01*
X344178Y468052D01*
X344170Y468144D01*
X344158Y468173D01*
X344153Y468205D01*
X344110Y468286D01*
X344074Y468370D01*
X344048Y468402D01*
X344037Y468423D01*
X344014Y468445D01*
X343969Y468501D01*
X342988Y469482D01*
X342930Y469524D01*
X342878Y469573D01*
X342831Y469595D01*
X342789Y469625D01*
X342720Y469647D01*
X342655Y469677D01*
X342603Y469682D01*
X342553Y469698D01*
X342482Y469696D01*
X342411Y469704D01*
X342360Y469693D01*
X342308Y469691D01*
X342240Y469667D01*
X342170Y469652D01*
X342125Y469625D01*
X342077Y469607D01*
X342021Y469562D01*
X341959Y469525D01*
X341925Y469486D01*
X341885Y469453D01*
X341846Y469393D01*
X341799Y469338D01*
X341780Y469290D01*
X341752Y469246D01*
X341734Y469177D01*
X341707Y469110D01*
X341699Y469039D01*
X341691Y469008D01*
X341693Y468985D01*
X341689Y468944D01*
X341689Y467029D01*
X340181Y463388D01*
X337394Y460601D01*
X333753Y459093D01*
X313047Y459093D01*
X309406Y460601D01*
X306619Y463388D01*
X305111Y467029D01*
X305111Y471008D01*
X305117Y471034D01*
X305146Y471149D01*
X305146Y471155D01*
X305147Y471161D01*
X305136Y471277D01*
X305127Y471394D01*
X305125Y471399D01*
X305124Y471406D01*
X305076Y471513D01*
X305031Y471620D01*
X305026Y471626D01*
X305024Y471630D01*
X305011Y471644D01*
X304926Y471751D01*
X285642Y491035D01*
X285642Y758766D01*
X285628Y758856D01*
X285620Y758947D01*
X285608Y758977D01*
X285603Y759009D01*
X285560Y759090D01*
X285524Y759174D01*
X285498Y759206D01*
X285487Y759226D01*
X285464Y759249D01*
X285419Y759305D01*
X237330Y807394D01*
X237272Y807436D01*
X237220Y807485D01*
X237173Y807507D01*
X237131Y807537D01*
X237062Y807558D01*
X236997Y807589D01*
X236945Y807594D01*
X236895Y807610D01*
X236824Y807608D01*
X236753Y807616D01*
X236702Y807605D01*
X236650Y807603D01*
X236582Y807579D01*
X236512Y807563D01*
X236467Y807537D01*
X236419Y807519D01*
X236363Y807474D01*
X236301Y807437D01*
X236267Y807398D01*
X236227Y807365D01*
X236188Y807305D01*
X236141Y807250D01*
X236122Y807202D01*
X236094Y807158D01*
X236076Y807089D01*
X236049Y807022D01*
X236041Y806951D01*
X236033Y806920D01*
X236035Y806896D01*
X236031Y806855D01*
X236031Y805336D01*
X232922Y802227D01*
X228526Y802227D01*
X225417Y805336D01*
X225417Y809732D01*
X225991Y810306D01*
X226003Y810322D01*
X226018Y810334D01*
X226074Y810422D01*
X226135Y810506D01*
X226140Y810525D01*
X226151Y810541D01*
X226176Y810642D01*
X226207Y810741D01*
X226206Y810761D01*
X226211Y810780D01*
X226203Y810883D01*
X226201Y810987D01*
X226194Y811005D01*
X226192Y811025D01*
X226152Y811120D01*
X226116Y811218D01*
X226104Y811233D01*
X226096Y811251D01*
X225991Y811382D01*
X216972Y820401D01*
X216914Y820443D01*
X216862Y820492D01*
X216815Y820514D01*
X216773Y820545D01*
X216704Y820566D01*
X216639Y820596D01*
X216587Y820602D01*
X216537Y820617D01*
X216466Y820615D01*
X216395Y820623D01*
X216344Y820612D01*
X216292Y820611D01*
X216224Y820586D01*
X216154Y820571D01*
X216110Y820544D01*
X216061Y820526D01*
X216005Y820481D01*
X215943Y820445D01*
X215909Y820405D01*
X215869Y820373D01*
X215830Y820312D01*
X215783Y820258D01*
X215764Y820209D01*
X215736Y820166D01*
X215718Y820096D01*
X215691Y820030D01*
X215683Y819958D01*
X215675Y819927D01*
X215677Y819904D01*
X215673Y819863D01*
X215673Y818908D01*
X212564Y815799D01*
X211609Y815799D01*
X211538Y815788D01*
X211467Y815786D01*
X211418Y815768D01*
X211366Y815760D01*
X211303Y815726D01*
X211236Y815701D01*
X211195Y815669D01*
X211149Y815644D01*
X211100Y815592D01*
X211044Y815548D01*
X211015Y815504D01*
X210980Y815466D01*
X210949Y815401D01*
X210911Y815341D01*
X210898Y815290D01*
X210876Y815243D01*
X210868Y815172D01*
X210851Y815102D01*
X210855Y815050D01*
X210849Y814999D01*
X210864Y814928D01*
X210870Y814857D01*
X210890Y814809D01*
X210901Y814758D01*
X210938Y814697D01*
X210966Y814631D01*
X211011Y814575D01*
X211027Y814547D01*
X211045Y814532D01*
X211071Y814500D01*
X212260Y813311D01*
X212260Y522959D01*
X212274Y522869D01*
X212282Y522778D01*
X212294Y522748D01*
X212299Y522716D01*
X212342Y522636D01*
X212378Y522552D01*
X212404Y522520D01*
X212415Y522499D01*
X212438Y522477D01*
X212483Y522421D01*
X295070Y439834D01*
X295144Y439781D01*
X295213Y439721D01*
X295243Y439709D01*
X295270Y439690D01*
X295357Y439663D01*
X295441Y439629D01*
X295482Y439625D01*
X295505Y439618D01*
X295537Y439619D01*
X295608Y439611D01*
X298520Y439611D01*
X301629Y436502D01*
X301629Y432106D01*
X298520Y428997D01*
X294124Y428997D01*
X291015Y432106D01*
X291015Y435018D01*
X291001Y435108D01*
X290993Y435199D01*
X290981Y435229D01*
X290976Y435261D01*
X290933Y435341D01*
X290897Y435425D01*
X290871Y435457D01*
X290860Y435478D01*
X290837Y435500D01*
X290792Y435556D01*
X209035Y517313D01*
X208977Y517355D01*
X208925Y517404D01*
X208878Y517426D01*
X208836Y517457D01*
X208767Y517478D01*
X208702Y517508D01*
X208650Y517514D01*
X208600Y517529D01*
X208529Y517527D01*
X208458Y517535D01*
X208407Y517524D01*
X208355Y517523D01*
X208287Y517498D01*
X208217Y517483D01*
X208173Y517456D01*
X208124Y517438D01*
X208068Y517393D01*
X208006Y517357D01*
X207972Y517317D01*
X207932Y517285D01*
X207893Y517224D01*
X207846Y517170D01*
X207827Y517121D01*
X207799Y517078D01*
X207781Y517008D01*
X207754Y516942D01*
X207746Y516870D01*
X207738Y516839D01*
X207740Y516816D01*
X207736Y516775D01*
X207736Y487339D01*
X189863Y469466D01*
X189810Y469392D01*
X189750Y469323D01*
X189738Y469293D01*
X189719Y469266D01*
X189692Y469179D01*
X189658Y469095D01*
X189654Y469054D01*
X189647Y469031D01*
X189648Y468999D01*
X189640Y468928D01*
X189640Y468505D01*
X189654Y468415D01*
X189662Y468324D01*
X189674Y468295D01*
X189679Y468263D01*
X189722Y468182D01*
X189758Y468098D01*
X189784Y468066D01*
X189795Y468045D01*
X189818Y468023D01*
X189863Y467967D01*
X191922Y465908D01*
X191922Y461512D01*
X188813Y458403D01*
X184417Y458403D01*
X183022Y459798D01*
X182964Y459840D01*
X182912Y459889D01*
X182865Y459911D01*
X182823Y459941D01*
X182754Y459963D01*
X182689Y459993D01*
X182637Y459998D01*
X182587Y460014D01*
X182516Y460012D01*
X182445Y460020D01*
X182394Y460009D01*
X182342Y460007D01*
X182274Y459983D01*
X182204Y459968D01*
X182159Y459941D01*
X182111Y459923D01*
X182055Y459878D01*
X181993Y459841D01*
X181959Y459802D01*
X181919Y459769D01*
X181880Y459709D01*
X181833Y459654D01*
X181814Y459606D01*
X181786Y459562D01*
X181768Y459493D01*
X181741Y459426D01*
X181733Y459355D01*
X181725Y459324D01*
X181727Y459301D01*
X181723Y459260D01*
X181723Y408562D01*
X181737Y408472D01*
X181745Y408381D01*
X181757Y408352D01*
X181762Y408320D01*
X181805Y408239D01*
X181841Y408155D01*
X181867Y408123D01*
X181878Y408102D01*
X181901Y408080D01*
X181917Y408060D01*
X181922Y408052D01*
X181927Y408047D01*
X181946Y408024D01*
X184005Y405965D01*
X184005Y401569D01*
X180896Y398460D01*
X176500Y398460D01*
X173391Y401569D01*
X173391Y405965D01*
X175450Y408024D01*
X175495Y408087D01*
X175522Y408115D01*
X175527Y408126D01*
X175563Y408168D01*
X175575Y408198D01*
X175594Y408224D01*
X175621Y408311D01*
X175655Y408396D01*
X175659Y408437D01*
X175666Y408459D01*
X175665Y408491D01*
X175673Y408562D01*
X175673Y470618D01*
X188172Y483117D01*
X188214Y483175D01*
X188263Y483227D01*
X188285Y483274D01*
X188316Y483316D01*
X188337Y483385D01*
X188367Y483450D01*
X188373Y483502D01*
X188388Y483552D01*
X188386Y483623D01*
X188394Y483694D01*
X188383Y483745D01*
X188382Y483797D01*
X188357Y483865D01*
X188342Y483935D01*
X188315Y483980D01*
X188297Y484028D01*
X188252Y484084D01*
X188216Y484146D01*
X188176Y484180D01*
X188144Y484220D01*
X188083Y484259D01*
X188029Y484306D01*
X187980Y484325D01*
X187937Y484353D01*
X187867Y484371D01*
X187801Y484398D01*
X187729Y484406D01*
X187698Y484414D01*
X187675Y484412D01*
X187634Y484416D01*
X186679Y484416D01*
X184620Y486475D01*
X184546Y486528D01*
X184476Y486588D01*
X184446Y486600D01*
X184420Y486619D01*
X184333Y486646D01*
X184248Y486680D01*
X184207Y486684D01*
X184185Y486691D01*
X184153Y486690D01*
X184082Y486698D01*
X178624Y486698D01*
X178554Y486687D01*
X178482Y486685D01*
X178433Y486667D01*
X178382Y486659D01*
X178318Y486625D01*
X178251Y486600D01*
X178210Y486568D01*
X178164Y486543D01*
X178115Y486491D01*
X178059Y486447D01*
X178031Y486403D01*
X177995Y486365D01*
X177965Y486300D01*
X177926Y486240D01*
X177913Y486189D01*
X177891Y486142D01*
X177883Y486071D01*
X177866Y486001D01*
X177870Y485949D01*
X177864Y485898D01*
X177879Y485827D01*
X177885Y485756D01*
X177905Y485708D01*
X177916Y485657D01*
X177953Y485596D01*
X177981Y485530D01*
X178026Y485474D01*
X178043Y485446D01*
X178060Y485431D01*
X178086Y485399D01*
X179481Y484004D01*
X179481Y479608D01*
X176372Y476499D01*
X173460Y476499D01*
X173370Y476485D01*
X173279Y476477D01*
X173249Y476465D01*
X173217Y476460D01*
X173137Y476417D01*
X173053Y476381D01*
X173021Y476355D01*
X173000Y476344D01*
X172978Y476321D01*
X172922Y476276D01*
X117499Y420853D01*
X117446Y420779D01*
X117386Y420710D01*
X117374Y420680D01*
X117355Y420653D01*
X117328Y420566D01*
X117294Y420482D01*
X117290Y420441D01*
X117283Y420418D01*
X117284Y420386D01*
X117276Y420315D01*
X117276Y417403D01*
X114167Y414294D01*
X109771Y414294D01*
X106662Y417403D01*
X106662Y418358D01*
X106651Y418429D01*
X106649Y418500D01*
X106631Y418549D01*
X106623Y418601D01*
X106589Y418664D01*
X106564Y418731D01*
X106532Y418772D01*
X106507Y418818D01*
X106455Y418867D01*
X106411Y418923D01*
X106367Y418952D01*
X106329Y418987D01*
X106264Y419018D01*
X106204Y419056D01*
X106153Y419069D01*
X106106Y419091D01*
X106035Y419099D01*
X105965Y419116D01*
X105913Y419112D01*
X105862Y419118D01*
X105791Y419103D01*
X105720Y419097D01*
X105672Y419077D01*
X105621Y419066D01*
X105560Y419029D01*
X105494Y419001D01*
X105438Y418956D01*
X105410Y418940D01*
X105395Y418922D01*
X105363Y418896D01*
X99403Y412936D01*
X99350Y412862D01*
X99290Y412793D01*
X99278Y412763D01*
X99259Y412736D01*
X99232Y412649D01*
X99198Y412565D01*
X99194Y412524D01*
X99187Y412501D01*
X99188Y412469D01*
X99180Y412398D01*
X99180Y409486D01*
X96071Y406377D01*
X93421Y406377D01*
X93350Y406366D01*
X93278Y406364D01*
X93229Y406346D01*
X93178Y406338D01*
X93115Y406304D01*
X93047Y406279D01*
X93006Y406247D01*
X92960Y406222D01*
X92911Y406171D01*
X92855Y406126D01*
X92827Y406082D01*
X92791Y406044D01*
X92761Y405979D01*
X92722Y405919D01*
X92709Y405868D01*
X92687Y405821D01*
X92680Y405750D01*
X92662Y405680D01*
X92666Y405628D01*
X92660Y405577D01*
X92676Y405506D01*
X92681Y405435D01*
X92702Y405387D01*
X92713Y405336D01*
X92749Y405275D01*
X92777Y405209D01*
X92822Y405153D01*
X92839Y405125D01*
X92857Y405110D01*
X92882Y405078D01*
X104645Y393315D01*
X104661Y393304D01*
X104673Y393288D01*
X104761Y393232D01*
X104844Y393172D01*
X104863Y393166D01*
X104880Y393155D01*
X104981Y393130D01*
X105080Y393099D01*
X105099Y393100D01*
X105119Y393095D01*
X105222Y393103D01*
G37*
%LPC*%
G36*
X456988Y552276D02*
X456988Y552276D01*
X453879Y555385D01*
X453879Y559781D01*
X455938Y561840D01*
X455991Y561914D01*
X456051Y561984D01*
X456063Y562014D01*
X456082Y562040D01*
X456109Y562127D01*
X456143Y562212D01*
X456147Y562253D01*
X456154Y562275D01*
X456153Y562307D01*
X456161Y562378D01*
X456161Y569015D01*
X607225Y720079D01*
X623875Y720079D01*
X623965Y720093D01*
X624056Y720101D01*
X624086Y720113D01*
X624118Y720118D01*
X624198Y720161D01*
X624282Y720197D01*
X624314Y720223D01*
X624335Y720234D01*
X624357Y720257D01*
X624413Y720302D01*
X632374Y728263D01*
X632427Y728337D01*
X632487Y728406D01*
X632499Y728436D01*
X632518Y728463D01*
X632545Y728550D01*
X632579Y728634D01*
X632583Y728675D01*
X632590Y728698D01*
X632589Y728730D01*
X632597Y728801D01*
X632597Y815014D01*
X632583Y815104D01*
X632575Y815195D01*
X632563Y815225D01*
X632558Y815257D01*
X632515Y815337D01*
X632479Y815421D01*
X632453Y815453D01*
X632442Y815474D01*
X632419Y815496D01*
X632374Y815552D01*
X559645Y888281D01*
X559587Y888323D01*
X559535Y888372D01*
X559488Y888394D01*
X559446Y888425D01*
X559377Y888446D01*
X559312Y888476D01*
X559260Y888482D01*
X559210Y888497D01*
X559139Y888495D01*
X559068Y888503D01*
X559017Y888492D01*
X558965Y888491D01*
X558897Y888466D01*
X558827Y888451D01*
X558782Y888424D01*
X558734Y888406D01*
X558678Y888361D01*
X558616Y888325D01*
X558582Y888285D01*
X558542Y888253D01*
X558503Y888192D01*
X558456Y888138D01*
X558437Y888089D01*
X558409Y888046D01*
X558391Y887976D01*
X558364Y887910D01*
X558356Y887838D01*
X558348Y887807D01*
X558350Y887784D01*
X558346Y887743D01*
X558346Y763303D01*
X528032Y732989D01*
X527979Y732915D01*
X527919Y732846D01*
X527907Y732816D01*
X527888Y732789D01*
X527861Y732702D01*
X527827Y732618D01*
X527823Y732577D01*
X527816Y732554D01*
X527817Y732522D01*
X527809Y732451D01*
X527809Y693740D01*
X527823Y693650D01*
X527831Y693559D01*
X527843Y693529D01*
X527848Y693497D01*
X527891Y693417D01*
X527927Y693333D01*
X527953Y693301D01*
X527964Y693280D01*
X527987Y693258D01*
X528032Y693202D01*
X534182Y687052D01*
X534256Y686999D01*
X534325Y686939D01*
X534355Y686927D01*
X534382Y686908D01*
X534469Y686881D01*
X534553Y686847D01*
X534594Y686843D01*
X534617Y686836D01*
X534649Y686837D01*
X534720Y686829D01*
X541267Y686829D01*
X546029Y682067D01*
X546029Y675333D01*
X541267Y670571D01*
X534533Y670571D01*
X529771Y675333D01*
X529771Y682113D01*
X529797Y682148D01*
X529802Y682168D01*
X529813Y682184D01*
X529839Y682285D01*
X529869Y682384D01*
X529868Y682403D01*
X529873Y682423D01*
X529865Y682526D01*
X529863Y682629D01*
X529856Y682648D01*
X529854Y682668D01*
X529814Y682763D01*
X529778Y682860D01*
X529766Y682876D01*
X529758Y682894D01*
X529653Y683025D01*
X523754Y688924D01*
X521759Y690919D01*
X521759Y735272D01*
X541064Y754577D01*
X541106Y754635D01*
X541155Y754687D01*
X541177Y754734D01*
X541208Y754776D01*
X541229Y754845D01*
X541259Y754910D01*
X541265Y754962D01*
X541280Y755012D01*
X541278Y755083D01*
X541286Y755154D01*
X541275Y755205D01*
X541274Y755257D01*
X541249Y755325D01*
X541234Y755395D01*
X541207Y755440D01*
X541189Y755488D01*
X541144Y755544D01*
X541108Y755606D01*
X541068Y755640D01*
X541036Y755680D01*
X540975Y755719D01*
X540921Y755766D01*
X540872Y755785D01*
X540829Y755813D01*
X540759Y755831D01*
X540693Y755858D01*
X540621Y755866D01*
X540590Y755874D01*
X540567Y755872D01*
X540526Y755876D01*
X484505Y755876D01*
X484415Y755862D01*
X484324Y755854D01*
X484294Y755842D01*
X484262Y755837D01*
X484182Y755794D01*
X484098Y755758D01*
X484066Y755732D01*
X484045Y755721D01*
X484023Y755698D01*
X483967Y755653D01*
X442076Y713762D01*
X442023Y713688D01*
X441963Y713619D01*
X441951Y713589D01*
X441932Y713562D01*
X441905Y713475D01*
X441871Y713391D01*
X441867Y713350D01*
X441860Y713327D01*
X441861Y713295D01*
X441853Y713224D01*
X441853Y711277D01*
X434426Y703850D01*
X433026Y703850D01*
X433006Y703847D01*
X432987Y703849D01*
X432885Y703827D01*
X432783Y703811D01*
X432766Y703801D01*
X432746Y703797D01*
X432657Y703744D01*
X432566Y703695D01*
X432552Y703681D01*
X432535Y703671D01*
X432468Y703592D01*
X432396Y703517D01*
X432388Y703499D01*
X432375Y703484D01*
X432336Y703388D01*
X432293Y703294D01*
X432291Y703274D01*
X432283Y703256D01*
X432265Y703089D01*
X432265Y699828D01*
X431372Y698935D01*
X419028Y698935D01*
X418135Y699828D01*
X418135Y712172D01*
X419028Y713065D01*
X431372Y713065D01*
X432265Y712172D01*
X432265Y712082D01*
X432276Y712011D01*
X432278Y711940D01*
X432296Y711891D01*
X432304Y711839D01*
X432338Y711776D01*
X432363Y711709D01*
X432395Y711668D01*
X432420Y711622D01*
X432472Y711573D01*
X432516Y711517D01*
X432560Y711488D01*
X432598Y711453D01*
X432663Y711422D01*
X432723Y711384D01*
X432774Y711371D01*
X432821Y711349D01*
X432892Y711341D01*
X432962Y711324D01*
X433014Y711328D01*
X433065Y711322D01*
X433136Y711337D01*
X433207Y711343D01*
X433255Y711363D01*
X433306Y711374D01*
X433367Y711411D01*
X433433Y711439D01*
X433489Y711484D01*
X433517Y711500D01*
X433532Y711518D01*
X433564Y711544D01*
X435580Y713560D01*
X435633Y713634D01*
X435693Y713703D01*
X435705Y713733D01*
X435724Y713760D01*
X435751Y713847D01*
X435785Y713931D01*
X435789Y713972D01*
X435796Y713995D01*
X435795Y714027D01*
X435803Y714098D01*
X435803Y716045D01*
X481684Y761926D01*
X541312Y761926D01*
X541402Y761940D01*
X541493Y761948D01*
X541523Y761960D01*
X541555Y761965D01*
X541635Y762008D01*
X541719Y762044D01*
X541751Y762070D01*
X541772Y762081D01*
X541794Y762104D01*
X541850Y762149D01*
X547549Y767848D01*
X547602Y767922D01*
X547662Y767991D01*
X547674Y768021D01*
X547693Y768048D01*
X547720Y768135D01*
X547754Y768219D01*
X547758Y768260D01*
X547765Y768283D01*
X547764Y768315D01*
X547772Y768386D01*
X547772Y886267D01*
X547758Y886357D01*
X547750Y886448D01*
X547738Y886478D01*
X547733Y886510D01*
X547690Y886590D01*
X547654Y886674D01*
X547628Y886706D01*
X547617Y886727D01*
X547594Y886749D01*
X547549Y886805D01*
X531938Y902416D01*
X531938Y930376D01*
X531924Y930466D01*
X531916Y930557D01*
X531904Y930587D01*
X531899Y930619D01*
X531856Y930699D01*
X531820Y930783D01*
X531794Y930815D01*
X531783Y930836D01*
X531760Y930858D01*
X531715Y930914D01*
X449108Y1013521D01*
X449034Y1013574D01*
X448965Y1013634D01*
X448935Y1013646D01*
X448908Y1013665D01*
X448821Y1013692D01*
X448737Y1013726D01*
X448696Y1013730D01*
X448673Y1013737D01*
X448641Y1013736D01*
X448570Y1013744D01*
X440396Y1013744D01*
X440306Y1013730D01*
X440215Y1013722D01*
X440185Y1013710D01*
X440153Y1013705D01*
X440073Y1013662D01*
X439989Y1013626D01*
X439957Y1013600D01*
X439936Y1013589D01*
X439929Y1013582D01*
X439928Y1013582D01*
X439912Y1013565D01*
X439858Y1013521D01*
X430181Y1003844D01*
X430112Y1003749D01*
X430043Y1003655D01*
X430041Y1003649D01*
X430037Y1003644D01*
X430003Y1003533D01*
X429966Y1003421D01*
X429966Y1003415D01*
X429965Y1003409D01*
X429968Y1003292D01*
X429969Y1003175D01*
X429971Y1003168D01*
X429971Y1003163D01*
X429977Y1003146D01*
X430016Y1003014D01*
X430323Y1002273D01*
X430323Y997927D01*
X428660Y993913D01*
X425587Y990840D01*
X421573Y989177D01*
X417227Y989177D01*
X413213Y990840D01*
X410140Y993913D01*
X408477Y997927D01*
X408477Y1002273D01*
X410140Y1006287D01*
X413213Y1009360D01*
X417227Y1011023D01*
X421573Y1011023D01*
X425587Y1009360D01*
X425826Y1009121D01*
X425842Y1009110D01*
X425855Y1009094D01*
X425942Y1009038D01*
X426026Y1008978D01*
X426045Y1008972D01*
X426061Y1008961D01*
X426162Y1008936D01*
X426261Y1008905D01*
X426281Y1008906D01*
X426300Y1008901D01*
X426403Y1008909D01*
X426507Y1008912D01*
X426525Y1008918D01*
X426545Y1008920D01*
X426640Y1008960D01*
X426738Y1008996D01*
X426753Y1009009D01*
X426772Y1009016D01*
X426903Y1009121D01*
X434750Y1016969D01*
X434792Y1017027D01*
X434841Y1017079D01*
X434863Y1017126D01*
X434894Y1017168D01*
X434915Y1017237D01*
X434945Y1017302D01*
X434951Y1017354D01*
X434966Y1017404D01*
X434964Y1017475D01*
X434972Y1017546D01*
X434961Y1017597D01*
X434960Y1017649D01*
X434935Y1017717D01*
X434920Y1017787D01*
X434893Y1017832D01*
X434875Y1017880D01*
X434830Y1017936D01*
X434794Y1017998D01*
X434754Y1018032D01*
X434722Y1018072D01*
X434661Y1018111D01*
X434607Y1018158D01*
X434558Y1018177D01*
X434515Y1018205D01*
X434445Y1018223D01*
X434379Y1018250D01*
X434307Y1018258D01*
X434276Y1018266D01*
X434253Y1018264D01*
X434212Y1018268D01*
X363488Y1018268D01*
X363398Y1018254D01*
X363307Y1018246D01*
X363277Y1018234D01*
X363245Y1018229D01*
X363165Y1018186D01*
X363081Y1018150D01*
X363049Y1018124D01*
X363028Y1018113D01*
X363006Y1018090D01*
X362950Y1018045D01*
X352364Y1007460D01*
X352352Y1007443D01*
X352337Y1007431D01*
X352281Y1007344D01*
X352221Y1007260D01*
X352215Y1007241D01*
X352204Y1007224D01*
X352179Y1007123D01*
X352148Y1007025D01*
X352149Y1007005D01*
X352144Y1006985D01*
X352152Y1006882D01*
X352155Y1006779D01*
X352161Y1006760D01*
X352163Y1006740D01*
X352203Y1006645D01*
X352239Y1006548D01*
X352252Y1006532D01*
X352259Y1006514D01*
X352364Y1006383D01*
X352460Y1006287D01*
X354123Y1002273D01*
X354123Y997927D01*
X352460Y993913D01*
X349387Y990840D01*
X345373Y989177D01*
X341027Y989177D01*
X337013Y990840D01*
X333940Y993913D01*
X332277Y997927D01*
X332277Y1002273D01*
X333940Y1006287D01*
X337013Y1009360D01*
X341027Y1011023D01*
X345373Y1011023D01*
X346317Y1010632D01*
X346431Y1010605D01*
X346544Y1010577D01*
X346550Y1010577D01*
X346556Y1010576D01*
X346672Y1010587D01*
X346789Y1010596D01*
X346795Y1010598D01*
X346801Y1010599D01*
X346908Y1010646D01*
X347015Y1010692D01*
X347021Y1010697D01*
X347026Y1010699D01*
X347039Y1010711D01*
X347146Y1010797D01*
X357842Y1021493D01*
X357884Y1021551D01*
X357933Y1021603D01*
X357955Y1021650D01*
X357986Y1021692D01*
X358007Y1021761D01*
X358037Y1021826D01*
X358043Y1021878D01*
X358058Y1021928D01*
X358056Y1021999D01*
X358064Y1022070D01*
X358053Y1022121D01*
X358052Y1022173D01*
X358027Y1022241D01*
X358012Y1022311D01*
X357985Y1022355D01*
X357967Y1022404D01*
X357922Y1022460D01*
X357886Y1022522D01*
X357846Y1022556D01*
X357814Y1022596D01*
X357753Y1022635D01*
X357699Y1022682D01*
X357650Y1022701D01*
X357607Y1022729D01*
X357537Y1022747D01*
X357471Y1022774D01*
X357399Y1022782D01*
X357368Y1022790D01*
X357345Y1022788D01*
X357304Y1022792D01*
X190445Y1022792D01*
X190355Y1022778D01*
X190264Y1022770D01*
X190234Y1022758D01*
X190202Y1022753D01*
X190122Y1022710D01*
X190038Y1022674D01*
X190006Y1022648D01*
X189985Y1022637D01*
X189963Y1022614D01*
X189907Y1022569D01*
X174681Y1007343D01*
X174669Y1007327D01*
X174653Y1007314D01*
X174597Y1007227D01*
X174537Y1007143D01*
X174531Y1007124D01*
X174520Y1007107D01*
X174495Y1007007D01*
X174465Y1006908D01*
X174465Y1006888D01*
X174460Y1006869D01*
X174468Y1006766D01*
X174471Y1006662D01*
X174478Y1006644D01*
X174480Y1006624D01*
X174520Y1006529D01*
X174556Y1006431D01*
X174568Y1006416D01*
X174576Y1006397D01*
X174655Y1006298D01*
X176323Y1002273D01*
X176323Y997927D01*
X174660Y993913D01*
X171587Y990840D01*
X167573Y989177D01*
X163227Y989177D01*
X159213Y990840D01*
X156140Y993913D01*
X154477Y997927D01*
X154477Y1002273D01*
X156140Y1006287D01*
X159213Y1009360D01*
X163227Y1011023D01*
X167573Y1011023D01*
X168681Y1010564D01*
X168795Y1010537D01*
X168908Y1010508D01*
X168915Y1010509D01*
X168921Y1010507D01*
X169037Y1010518D01*
X169154Y1010527D01*
X169159Y1010530D01*
X169166Y1010530D01*
X169273Y1010578D01*
X169380Y1010624D01*
X169386Y1010628D01*
X169390Y1010630D01*
X169404Y1010643D01*
X169511Y1010729D01*
X187624Y1028842D01*
X455915Y1028842D01*
X547036Y937721D01*
X547036Y909761D01*
X547050Y909671D01*
X547058Y909580D01*
X547070Y909550D01*
X547075Y909518D01*
X547118Y909438D01*
X547154Y909354D01*
X547180Y909322D01*
X547191Y909301D01*
X547214Y909279D01*
X547259Y909223D01*
X638647Y817835D01*
X638647Y725980D01*
X626696Y714029D01*
X610046Y714029D01*
X609956Y714015D01*
X609865Y714007D01*
X609835Y713995D01*
X609803Y713990D01*
X609723Y713947D01*
X609639Y713911D01*
X609607Y713885D01*
X609586Y713874D01*
X609564Y713851D01*
X609508Y713806D01*
X462434Y566732D01*
X462381Y566658D01*
X462321Y566589D01*
X462309Y566559D01*
X462290Y566532D01*
X462263Y566445D01*
X462229Y566361D01*
X462225Y566320D01*
X462218Y566297D01*
X462219Y566265D01*
X462211Y566194D01*
X462211Y562378D01*
X462225Y562288D01*
X462233Y562197D01*
X462245Y562168D01*
X462250Y562136D01*
X462293Y562055D01*
X462329Y561971D01*
X462355Y561939D01*
X462366Y561918D01*
X462389Y561896D01*
X462434Y561840D01*
X464493Y559781D01*
X464493Y555385D01*
X461384Y552276D01*
X456988Y552276D01*
G37*
%LPD*%
%LPC*%
G36*
X-197573Y434077D02*
X-197573Y434077D01*
X-201587Y435740D01*
X-204660Y438813D01*
X-206323Y442827D01*
X-206323Y447173D01*
X-206264Y447314D01*
X-206238Y447427D01*
X-206209Y447541D01*
X-206210Y447547D01*
X-206208Y447553D01*
X-206219Y447669D01*
X-206228Y447786D01*
X-206231Y447792D01*
X-206231Y447798D01*
X-206279Y447905D01*
X-206325Y448012D01*
X-206329Y448018D01*
X-206331Y448023D01*
X-206344Y448037D01*
X-206429Y448143D01*
X-213129Y454843D01*
X-213129Y617391D01*
X-213143Y617481D01*
X-213151Y617572D01*
X-213163Y617602D01*
X-213168Y617634D01*
X-213211Y617715D01*
X-213247Y617799D01*
X-213273Y617831D01*
X-213284Y617851D01*
X-213307Y617874D01*
X-213352Y617930D01*
X-222783Y627361D01*
X-222878Y627429D01*
X-222972Y627499D01*
X-222978Y627501D01*
X-222983Y627505D01*
X-223094Y627539D01*
X-223206Y627575D01*
X-223212Y627575D01*
X-223218Y627577D01*
X-223335Y627574D01*
X-223452Y627573D01*
X-223459Y627571D01*
X-223464Y627571D01*
X-223482Y627564D01*
X-223613Y627526D01*
X-224557Y627135D01*
X-243243Y627135D01*
X-246575Y628515D01*
X-249125Y631065D01*
X-250505Y634397D01*
X-250505Y638003D01*
X-250003Y639214D01*
X-249977Y639328D01*
X-249948Y639441D01*
X-249949Y639447D01*
X-249947Y639453D01*
X-249958Y639570D01*
X-249967Y639686D01*
X-249970Y639692D01*
X-249970Y639698D01*
X-250018Y639806D01*
X-250063Y639912D01*
X-250068Y639918D01*
X-250070Y639923D01*
X-250083Y639937D01*
X-250168Y640043D01*
X-260857Y650732D01*
X-264024Y653899D01*
X-264024Y714611D01*
X-250728Y727907D01*
X-250675Y727981D01*
X-250615Y728051D01*
X-250603Y728081D01*
X-250584Y728107D01*
X-250557Y728194D01*
X-250523Y728279D01*
X-250519Y728320D01*
X-250512Y728342D01*
X-250513Y728374D01*
X-250505Y728446D01*
X-250505Y731003D01*
X-249125Y734335D01*
X-246575Y736885D01*
X-243243Y738265D01*
X-224557Y738265D01*
X-221225Y736885D01*
X-218675Y734335D01*
X-217295Y731003D01*
X-217295Y727397D01*
X-218675Y724065D01*
X-221225Y721515D01*
X-224557Y720135D01*
X-243243Y720135D01*
X-243512Y720247D01*
X-243626Y720273D01*
X-243739Y720302D01*
X-243745Y720301D01*
X-243751Y720303D01*
X-243868Y720292D01*
X-243984Y720283D01*
X-243990Y720280D01*
X-243996Y720280D01*
X-244104Y720232D01*
X-244210Y720186D01*
X-244216Y720182D01*
X-244221Y720180D01*
X-244235Y720167D01*
X-244341Y720082D01*
X-253751Y710672D01*
X-253804Y710598D01*
X-253864Y710528D01*
X-253876Y710498D01*
X-253895Y710472D01*
X-253922Y710385D01*
X-253956Y710300D01*
X-253960Y710259D01*
X-253967Y710237D01*
X-253966Y710205D01*
X-253974Y710133D01*
X-253974Y658377D01*
X-253960Y658287D01*
X-253952Y658196D01*
X-253940Y658166D01*
X-253935Y658134D01*
X-253892Y658053D01*
X-253856Y657969D01*
X-253830Y657937D01*
X-253819Y657917D01*
X-253796Y657894D01*
X-253751Y657838D01*
X-241401Y645488D01*
X-241327Y645435D01*
X-241257Y645375D01*
X-241227Y645363D01*
X-241201Y645344D01*
X-241114Y645317D01*
X-241029Y645283D01*
X-240988Y645279D01*
X-240966Y645272D01*
X-240934Y645273D01*
X-240862Y645265D01*
X-224557Y645265D01*
X-221225Y643885D01*
X-218675Y641335D01*
X-217295Y638003D01*
X-217295Y636401D01*
X-217281Y636311D01*
X-217273Y636220D01*
X-217261Y636190D01*
X-217256Y636158D01*
X-217213Y636077D01*
X-217177Y635993D01*
X-217151Y635961D01*
X-217140Y635941D01*
X-217117Y635918D01*
X-217072Y635862D01*
X-203079Y621869D01*
X-203079Y459321D01*
X-203065Y459231D01*
X-203057Y459140D01*
X-203045Y459110D01*
X-203040Y459078D01*
X-202997Y458997D01*
X-202961Y458913D01*
X-202935Y458881D01*
X-202924Y458861D01*
X-202901Y458838D01*
X-202856Y458782D01*
X-199646Y455572D01*
X-199552Y455505D01*
X-199458Y455434D01*
X-199452Y455433D01*
X-199447Y455429D01*
X-199336Y455395D01*
X-199224Y455358D01*
X-199218Y455358D01*
X-199212Y455357D01*
X-199095Y455360D01*
X-198978Y455361D01*
X-198971Y455363D01*
X-198966Y455363D01*
X-198948Y455369D01*
X-198817Y455407D01*
X-197573Y455923D01*
X-193227Y455923D01*
X-189213Y454260D01*
X-186140Y451187D01*
X-184477Y447173D01*
X-184477Y442827D01*
X-186140Y438813D01*
X-189213Y435740D01*
X-193227Y434077D01*
X-197573Y434077D01*
G37*
%LPD*%
%LPC*%
G36*
X469749Y442329D02*
X469749Y442329D01*
X462965Y444147D01*
X456884Y447658D01*
X451918Y452624D01*
X448407Y458705D01*
X446589Y465489D01*
X446589Y472511D01*
X448407Y479295D01*
X451918Y485376D01*
X456884Y490342D01*
X462965Y493853D01*
X469749Y495671D01*
X476771Y495671D01*
X483555Y493853D01*
X489636Y490342D01*
X494602Y485376D01*
X498113Y479295D01*
X499931Y472511D01*
X499931Y465489D01*
X498113Y458705D01*
X494602Y452624D01*
X489636Y447658D01*
X483555Y444147D01*
X476771Y442329D01*
X469749Y442329D01*
G37*
%LPD*%
%LPC*%
G36*
X-204091Y957080D02*
X-204091Y957080D01*
X-212614Y961324D01*
X-219029Y968360D01*
X-222468Y977239D01*
X-222468Y986761D01*
X-219029Y995640D01*
X-212614Y1002676D01*
X-204091Y1006920D01*
X-194609Y1007799D01*
X-185451Y1005193D01*
X-177853Y999455D01*
X-172840Y991360D01*
X-171090Y982000D01*
X-172840Y972640D01*
X-177853Y964545D01*
X-185451Y958807D01*
X-194609Y956201D01*
X-204091Y957080D01*
G37*
%LPD*%
%LPC*%
G36*
X601909Y958080D02*
X601909Y958080D01*
X593386Y962324D01*
X586971Y969360D01*
X583532Y978239D01*
X583532Y987761D01*
X586971Y996640D01*
X593386Y1003676D01*
X601909Y1007920D01*
X611391Y1008799D01*
X620549Y1006193D01*
X628147Y1000455D01*
X633160Y992360D01*
X634910Y983000D01*
X633160Y973640D01*
X628147Y965545D01*
X620549Y959807D01*
X611391Y957201D01*
X601909Y958080D01*
G37*
%LPD*%
%LPC*%
G36*
X-205091Y367080D02*
X-205091Y367080D01*
X-213614Y371324D01*
X-220029Y378360D01*
X-223468Y387239D01*
X-223468Y396761D01*
X-220029Y405640D01*
X-213614Y412676D01*
X-205091Y416920D01*
X-195609Y417799D01*
X-186451Y415193D01*
X-178853Y409455D01*
X-173840Y401360D01*
X-172090Y392000D01*
X-173840Y382640D01*
X-178853Y374545D01*
X-186451Y368807D01*
X-195609Y366201D01*
X-205091Y367080D01*
G37*
%LPD*%
%LPC*%
G36*
X600909Y368080D02*
X600909Y368080D01*
X592386Y372324D01*
X585971Y379360D01*
X582532Y388239D01*
X582532Y397761D01*
X585971Y406640D01*
X592386Y413676D01*
X600909Y417920D01*
X610391Y418799D01*
X619549Y416193D01*
X627147Y410455D01*
X632160Y402360D01*
X633910Y393000D01*
X632160Y383640D01*
X627147Y375545D01*
X619549Y369807D01*
X610391Y367201D01*
X600909Y368080D01*
G37*
%LPD*%
%LPC*%
G36*
X256188Y813219D02*
X256188Y813219D01*
X249788Y814934D01*
X244051Y818246D01*
X239366Y822931D01*
X236054Y828668D01*
X234339Y835068D01*
X234339Y841692D01*
X236054Y848092D01*
X239366Y853829D01*
X244051Y858514D01*
X249788Y861826D01*
X256188Y863541D01*
X262812Y863541D01*
X269212Y861826D01*
X274949Y858514D01*
X279634Y853829D01*
X282946Y848092D01*
X284661Y841692D01*
X284661Y835068D01*
X282946Y828668D01*
X279634Y822931D01*
X274949Y818246D01*
X269212Y814934D01*
X262812Y813219D01*
X256188Y813219D01*
G37*
%LPD*%
%LPC*%
G36*
X103788Y516039D02*
X103788Y516039D01*
X97388Y517754D01*
X91651Y521066D01*
X86966Y525751D01*
X83654Y531488D01*
X81939Y537888D01*
X81939Y544512D01*
X83654Y550912D01*
X86966Y556649D01*
X91651Y561334D01*
X97388Y564646D01*
X103788Y566361D01*
X110412Y566361D01*
X116812Y564646D01*
X122549Y561334D01*
X127234Y556649D01*
X130546Y550912D01*
X132261Y544512D01*
X132261Y537888D01*
X130546Y531488D01*
X127234Y525751D01*
X122549Y521066D01*
X116812Y517754D01*
X110412Y516039D01*
X103788Y516039D01*
G37*
%LPD*%
%LPC*%
G36*
X-129712Y517339D02*
X-129712Y517339D01*
X-136112Y519054D01*
X-141849Y522366D01*
X-146534Y527051D01*
X-149846Y532788D01*
X-151561Y539188D01*
X-151561Y545812D01*
X-149846Y552212D01*
X-146534Y557949D01*
X-141849Y562634D01*
X-136112Y565946D01*
X-129712Y567661D01*
X-123088Y567661D01*
X-116688Y565946D01*
X-110951Y562634D01*
X-106266Y557949D01*
X-102954Y552212D01*
X-101239Y545812D01*
X-101239Y539188D01*
X-102954Y532788D01*
X-106266Y527051D01*
X-110951Y522366D01*
X-116688Y519054D01*
X-123088Y517339D01*
X-129712Y517339D01*
G37*
%LPD*%
%LPC*%
G36*
X22688Y814519D02*
X22688Y814519D01*
X16288Y816234D01*
X10551Y819546D01*
X5866Y824231D01*
X2554Y829968D01*
X839Y836368D01*
X839Y842992D01*
X2554Y849392D01*
X5866Y855129D01*
X10551Y859814D01*
X16288Y863126D01*
X22688Y864841D01*
X29312Y864841D01*
X35712Y863126D01*
X41449Y859814D01*
X46134Y855129D01*
X49446Y849392D01*
X51161Y842992D01*
X51161Y836368D01*
X49446Y829968D01*
X46134Y824231D01*
X41449Y819546D01*
X35712Y816234D01*
X29312Y814519D01*
X22688Y814519D01*
G37*
%LPD*%
G36*
X162823Y883523D02*
X162823Y883523D01*
X162875Y883524D01*
X162943Y883549D01*
X163013Y883564D01*
X163058Y883591D01*
X163106Y883609D01*
X163162Y883654D01*
X163224Y883690D01*
X163258Y883730D01*
X163298Y883762D01*
X163337Y883823D01*
X163384Y883877D01*
X163403Y883926D01*
X163431Y883969D01*
X163449Y884039D01*
X163476Y884105D01*
X163484Y884177D01*
X163492Y884208D01*
X163490Y884231D01*
X163494Y884272D01*
X163494Y949909D01*
X163491Y949929D01*
X163493Y949948D01*
X163471Y950050D01*
X163455Y950152D01*
X163445Y950169D01*
X163441Y950189D01*
X163388Y950278D01*
X163339Y950369D01*
X163325Y950383D01*
X163315Y950400D01*
X163236Y950467D01*
X163161Y950539D01*
X163143Y950547D01*
X163128Y950560D01*
X163032Y950599D01*
X162938Y950642D01*
X162918Y950644D01*
X162900Y950652D01*
X162733Y950670D01*
X135384Y950670D01*
X135314Y950659D01*
X135242Y950657D01*
X135193Y950639D01*
X135142Y950631D01*
X135078Y950597D01*
X135011Y950572D01*
X134970Y950540D01*
X134924Y950515D01*
X134875Y950463D01*
X134819Y950419D01*
X134791Y950375D01*
X134755Y950337D01*
X134725Y950272D01*
X134686Y950212D01*
X134673Y950161D01*
X134651Y950114D01*
X134643Y950043D01*
X134626Y949973D01*
X134630Y949921D01*
X134624Y949870D01*
X134639Y949799D01*
X134645Y949728D01*
X134665Y949680D01*
X134676Y949629D01*
X134713Y949568D01*
X134741Y949502D01*
X134786Y949446D01*
X134803Y949418D01*
X134820Y949403D01*
X134846Y949371D01*
X135372Y948845D01*
X135372Y944449D01*
X132263Y941340D01*
X127867Y941340D01*
X125808Y943399D01*
X125734Y943452D01*
X125664Y943512D01*
X125634Y943524D01*
X125608Y943543D01*
X125521Y943570D01*
X125436Y943604D01*
X125395Y943608D01*
X125373Y943615D01*
X125341Y943614D01*
X125270Y943622D01*
X122585Y943622D01*
X122495Y943608D01*
X122404Y943600D01*
X122374Y943588D01*
X122342Y943583D01*
X122262Y943540D01*
X122178Y943504D01*
X122146Y943478D01*
X122125Y943467D01*
X122103Y943444D01*
X122047Y943399D01*
X120591Y941943D01*
X120549Y941885D01*
X120500Y941833D01*
X120478Y941786D01*
X120447Y941744D01*
X120426Y941675D01*
X120396Y941610D01*
X120390Y941558D01*
X120375Y941508D01*
X120377Y941437D01*
X120369Y941366D01*
X120380Y941315D01*
X120381Y941263D01*
X120406Y941195D01*
X120421Y941125D01*
X120448Y941080D01*
X120466Y941032D01*
X120511Y940976D01*
X120547Y940914D01*
X120587Y940880D01*
X120619Y940840D01*
X120680Y940801D01*
X120734Y940754D01*
X120783Y940735D01*
X120826Y940707D01*
X120896Y940689D01*
X120962Y940662D01*
X121034Y940654D01*
X121065Y940646D01*
X121088Y940648D01*
X121129Y940644D01*
X122084Y940644D01*
X125193Y937535D01*
X125193Y933139D01*
X123134Y931080D01*
X123081Y931006D01*
X123021Y930936D01*
X123009Y930906D01*
X122990Y930880D01*
X122963Y930793D01*
X122929Y930708D01*
X122925Y930667D01*
X122918Y930645D01*
X122919Y930613D01*
X122911Y930542D01*
X122911Y923333D01*
X122925Y923243D01*
X122933Y923152D01*
X122945Y923122D01*
X122950Y923090D01*
X122993Y923010D01*
X123029Y922926D01*
X123055Y922894D01*
X123066Y922873D01*
X123089Y922851D01*
X123134Y922795D01*
X162195Y883734D01*
X162253Y883692D01*
X162305Y883643D01*
X162352Y883621D01*
X162394Y883590D01*
X162463Y883569D01*
X162528Y883539D01*
X162580Y883533D01*
X162630Y883518D01*
X162701Y883520D01*
X162772Y883512D01*
X162823Y883523D01*
G37*
G36*
X181788Y830628D02*
X181788Y830628D01*
X181840Y830629D01*
X181908Y830654D01*
X181978Y830669D01*
X182023Y830696D01*
X182071Y830714D01*
X182127Y830759D01*
X182189Y830795D01*
X182223Y830835D01*
X182263Y830867D01*
X182302Y830928D01*
X182349Y830982D01*
X182368Y831031D01*
X182396Y831074D01*
X182414Y831144D01*
X182441Y831210D01*
X182449Y831282D01*
X182457Y831313D01*
X182455Y831336D01*
X182459Y831377D01*
X182459Y834407D01*
X182445Y834497D01*
X182437Y834588D01*
X182425Y834617D01*
X182420Y834649D01*
X182377Y834730D01*
X182341Y834814D01*
X182315Y834846D01*
X182304Y834867D01*
X182281Y834889D01*
X182236Y834945D01*
X180177Y837004D01*
X180177Y841400D01*
X183286Y844509D01*
X184241Y844509D01*
X184312Y844520D01*
X184383Y844522D01*
X184432Y844540D01*
X184484Y844548D01*
X184547Y844582D01*
X184614Y844607D01*
X184655Y844639D01*
X184701Y844664D01*
X184750Y844715D01*
X184806Y844760D01*
X184835Y844804D01*
X184870Y844842D01*
X184901Y844907D01*
X184939Y844967D01*
X184952Y845018D01*
X184974Y845065D01*
X184982Y845136D01*
X184999Y845206D01*
X184995Y845258D01*
X185001Y845309D01*
X184986Y845380D01*
X184980Y845451D01*
X184960Y845499D01*
X184949Y845550D01*
X184912Y845611D01*
X184884Y845677D01*
X184839Y845733D01*
X184823Y845761D01*
X184805Y845776D01*
X184779Y845808D01*
X121948Y908639D01*
X121890Y908681D01*
X121838Y908730D01*
X121791Y908752D01*
X121749Y908783D01*
X121680Y908804D01*
X121615Y908834D01*
X121563Y908840D01*
X121513Y908855D01*
X121442Y908853D01*
X121371Y908861D01*
X121320Y908850D01*
X121268Y908849D01*
X121200Y908824D01*
X121130Y908809D01*
X121086Y908782D01*
X121037Y908764D01*
X120981Y908719D01*
X120919Y908683D01*
X120885Y908643D01*
X120845Y908611D01*
X120806Y908550D01*
X120759Y908496D01*
X120740Y908447D01*
X120712Y908404D01*
X120694Y908334D01*
X120667Y908268D01*
X120659Y908196D01*
X120651Y908165D01*
X120653Y908142D01*
X120649Y908101D01*
X120649Y891665D01*
X120663Y891575D01*
X120671Y891484D01*
X120683Y891454D01*
X120688Y891422D01*
X120731Y891342D01*
X120767Y891258D01*
X120793Y891226D01*
X120804Y891205D01*
X120827Y891183D01*
X120872Y891127D01*
X181160Y830839D01*
X181218Y830797D01*
X181270Y830748D01*
X181317Y830726D01*
X181359Y830695D01*
X181428Y830674D01*
X181493Y830644D01*
X181545Y830638D01*
X181595Y830623D01*
X181666Y830625D01*
X181737Y830617D01*
X181788Y830628D01*
G37*
%LPC*%
G36*
X534533Y713371D02*
X534533Y713371D01*
X529771Y718133D01*
X529771Y724867D01*
X534533Y729629D01*
X541309Y729629D01*
X541359Y729592D01*
X541378Y729587D01*
X541395Y729576D01*
X541496Y729551D01*
X541595Y729520D01*
X541615Y729521D01*
X541634Y729516D01*
X541737Y729524D01*
X541840Y729526D01*
X541859Y729533D01*
X541879Y729535D01*
X541974Y729575D01*
X542071Y729611D01*
X542087Y729623D01*
X542105Y729631D01*
X542236Y729736D01*
X545287Y732787D01*
X547282Y734782D01*
X609032Y734782D01*
X609052Y734785D01*
X609071Y734783D01*
X609173Y734805D01*
X609275Y734821D01*
X609292Y734831D01*
X609312Y734835D01*
X609401Y734888D01*
X609492Y734937D01*
X609506Y734951D01*
X609523Y734961D01*
X609590Y735040D01*
X609662Y735115D01*
X609670Y735133D01*
X609683Y735148D01*
X609722Y735244D01*
X609765Y735338D01*
X609767Y735358D01*
X609775Y735376D01*
X609793Y735543D01*
X609793Y735904D01*
X615596Y741707D01*
X623804Y741707D01*
X629607Y735904D01*
X629607Y727696D01*
X623804Y721893D01*
X615596Y721893D01*
X609793Y727696D01*
X609793Y727971D01*
X609790Y727991D01*
X609792Y728010D01*
X609770Y728112D01*
X609754Y728214D01*
X609744Y728231D01*
X609740Y728251D01*
X609687Y728340D01*
X609638Y728431D01*
X609624Y728445D01*
X609614Y728462D01*
X609535Y728529D01*
X609460Y728601D01*
X609442Y728609D01*
X609427Y728622D01*
X609331Y728661D01*
X609237Y728704D01*
X609217Y728706D01*
X609199Y728714D01*
X609032Y728732D01*
X550103Y728732D01*
X550013Y728718D01*
X549922Y728710D01*
X549892Y728698D01*
X549860Y728693D01*
X549780Y728650D01*
X549696Y728614D01*
X549664Y728588D01*
X549643Y728577D01*
X549621Y728554D01*
X549565Y728509D01*
X546252Y725196D01*
X546199Y725122D01*
X546139Y725053D01*
X546127Y725023D01*
X546108Y724996D01*
X546081Y724909D01*
X546047Y724825D01*
X546043Y724784D01*
X546036Y724761D01*
X546037Y724729D01*
X546029Y724658D01*
X546029Y718133D01*
X541267Y713371D01*
X534533Y713371D01*
G37*
%LPD*%
%LPC*%
G36*
X614596Y462393D02*
X614596Y462393D01*
X608793Y468196D01*
X608793Y468972D01*
X608790Y468992D01*
X608792Y469011D01*
X608770Y469113D01*
X608754Y469215D01*
X608744Y469232D01*
X608740Y469252D01*
X608687Y469341D01*
X608638Y469432D01*
X608624Y469446D01*
X608614Y469463D01*
X608535Y469530D01*
X608460Y469602D01*
X608442Y469610D01*
X608427Y469623D01*
X608331Y469662D01*
X608237Y469705D01*
X608217Y469707D01*
X608199Y469715D01*
X608032Y469733D01*
X604963Y469733D01*
X598400Y476296D01*
X598326Y476349D01*
X598257Y476409D01*
X598227Y476421D01*
X598200Y476440D01*
X598113Y476467D01*
X598029Y476501D01*
X597988Y476505D01*
X597965Y476512D01*
X597933Y476511D01*
X597862Y476519D01*
X546430Y476519D01*
X546340Y476505D01*
X546249Y476497D01*
X546220Y476485D01*
X546188Y476480D01*
X546107Y476437D01*
X546023Y476401D01*
X545991Y476375D01*
X545970Y476364D01*
X545948Y476341D01*
X545892Y476296D01*
X541267Y471671D01*
X534533Y471671D01*
X529771Y476433D01*
X529771Y483167D01*
X534533Y487929D01*
X541267Y487929D01*
X546061Y483135D01*
X546068Y483087D01*
X546078Y483070D01*
X546082Y483050D01*
X546135Y482961D01*
X546184Y482870D01*
X546198Y482856D01*
X546208Y482839D01*
X546287Y482772D01*
X546362Y482700D01*
X546380Y482692D01*
X546395Y482679D01*
X546491Y482640D01*
X546585Y482597D01*
X546605Y482595D01*
X546623Y482587D01*
X546790Y482569D01*
X600683Y482569D01*
X607246Y476006D01*
X607320Y475953D01*
X607389Y475893D01*
X607419Y475881D01*
X607446Y475862D01*
X607533Y475835D01*
X607617Y475801D01*
X607658Y475797D01*
X607681Y475790D01*
X607713Y475791D01*
X607784Y475783D01*
X608032Y475783D01*
X608052Y475786D01*
X608071Y475784D01*
X608173Y475806D01*
X608275Y475822D01*
X608292Y475832D01*
X608312Y475836D01*
X608401Y475889D01*
X608492Y475938D01*
X608506Y475952D01*
X608523Y475962D01*
X608590Y476041D01*
X608662Y476116D01*
X608670Y476134D01*
X608683Y476149D01*
X608722Y476245D01*
X608765Y476339D01*
X608767Y476359D01*
X608775Y476377D01*
X608776Y476386D01*
X614596Y482207D01*
X622804Y482207D01*
X628607Y476404D01*
X628607Y468196D01*
X622804Y462393D01*
X614596Y462393D01*
G37*
%LPD*%
%LPC*%
G36*
X534533Y619771D02*
X534533Y619771D01*
X529771Y624533D01*
X529771Y631267D01*
X534533Y636029D01*
X541267Y636029D01*
X546081Y631214D01*
X546082Y631211D01*
X546135Y631122D01*
X546184Y631031D01*
X546198Y631017D01*
X546208Y631000D01*
X546287Y630933D01*
X546362Y630861D01*
X546380Y630853D01*
X546395Y630840D01*
X546491Y630801D01*
X546585Y630758D01*
X546605Y630756D01*
X546623Y630748D01*
X546790Y630730D01*
X601255Y630730D01*
X601345Y630744D01*
X601436Y630752D01*
X601466Y630764D01*
X601498Y630769D01*
X601578Y630812D01*
X601662Y630848D01*
X601694Y630874D01*
X601715Y630885D01*
X601737Y630908D01*
X601793Y630953D01*
X606094Y635254D01*
X608832Y635254D01*
X608852Y635257D01*
X608871Y635255D01*
X608973Y635277D01*
X609075Y635293D01*
X609092Y635303D01*
X609112Y635307D01*
X609201Y635360D01*
X609292Y635409D01*
X609306Y635423D01*
X609323Y635433D01*
X609390Y635512D01*
X609462Y635587D01*
X609470Y635605D01*
X609483Y635620D01*
X609522Y635716D01*
X609565Y635810D01*
X609567Y635830D01*
X609575Y635848D01*
X609593Y636015D01*
X609593Y636504D01*
X615396Y642307D01*
X623604Y642307D01*
X629407Y636504D01*
X629407Y628296D01*
X623604Y622493D01*
X615396Y622493D01*
X609593Y628296D01*
X609593Y628360D01*
X609582Y628431D01*
X609580Y628502D01*
X609562Y628551D01*
X609554Y628603D01*
X609520Y628666D01*
X609495Y628733D01*
X609463Y628774D01*
X609438Y628820D01*
X609386Y628869D01*
X609342Y628925D01*
X609298Y628954D01*
X609260Y628989D01*
X609195Y629020D01*
X609135Y629058D01*
X609084Y629071D01*
X609037Y629093D01*
X608966Y629101D01*
X608896Y629118D01*
X608844Y629114D01*
X608793Y629120D01*
X608722Y629105D01*
X608651Y629099D01*
X608603Y629079D01*
X608552Y629068D01*
X608491Y629031D01*
X608425Y629003D01*
X608369Y628958D01*
X608341Y628942D01*
X608326Y628924D01*
X608294Y628898D01*
X604076Y624680D01*
X546491Y624680D01*
X546401Y624666D01*
X546310Y624658D01*
X546281Y624646D01*
X546249Y624641D01*
X546168Y624598D01*
X546084Y624562D01*
X546052Y624536D01*
X546031Y624525D01*
X546009Y624502D01*
X545953Y624457D01*
X541267Y619771D01*
X534533Y619771D01*
G37*
%LPD*%
%LPC*%
G36*
X534533Y545971D02*
X534533Y545971D01*
X529771Y550733D01*
X529771Y557467D01*
X534533Y562229D01*
X541267Y562229D01*
X546029Y557467D01*
X546029Y556845D01*
X546032Y556825D01*
X546030Y556806D01*
X546052Y556704D01*
X546068Y556602D01*
X546078Y556585D01*
X546082Y556565D01*
X546135Y556476D01*
X546184Y556385D01*
X546198Y556371D01*
X546208Y556354D01*
X546287Y556287D01*
X546362Y556215D01*
X546380Y556207D01*
X546395Y556194D01*
X546491Y556155D01*
X546585Y556112D01*
X546605Y556110D01*
X546623Y556102D01*
X546790Y556084D01*
X602386Y556084D01*
X602476Y556098D01*
X602567Y556106D01*
X602597Y556118D01*
X602629Y556123D01*
X602709Y556166D01*
X602793Y556202D01*
X602825Y556228D01*
X602846Y556239D01*
X602868Y556262D01*
X602924Y556307D01*
X604099Y557482D01*
X606094Y559477D01*
X609032Y559477D01*
X609052Y559480D01*
X609071Y559478D01*
X609173Y559500D01*
X609275Y559516D01*
X609292Y559526D01*
X609312Y559530D01*
X609401Y559583D01*
X609492Y559632D01*
X609506Y559646D01*
X609523Y559656D01*
X609590Y559735D01*
X609662Y559810D01*
X609670Y559828D01*
X609683Y559843D01*
X609722Y559939D01*
X609765Y560033D01*
X609767Y560053D01*
X609775Y560071D01*
X609793Y560238D01*
X609793Y560404D01*
X615596Y566207D01*
X623804Y566207D01*
X629607Y560404D01*
X629607Y552196D01*
X623804Y546393D01*
X615596Y546393D01*
X609793Y552196D01*
X609793Y552666D01*
X609790Y552686D01*
X609792Y552705D01*
X609770Y552807D01*
X609754Y552909D01*
X609744Y552926D01*
X609740Y552946D01*
X609687Y553035D01*
X609638Y553126D01*
X609624Y553140D01*
X609614Y553157D01*
X609535Y553224D01*
X609460Y553296D01*
X609442Y553304D01*
X609427Y553317D01*
X609331Y553356D01*
X609237Y553399D01*
X609217Y553401D01*
X609199Y553409D01*
X609032Y553427D01*
X608915Y553427D01*
X608825Y553413D01*
X608734Y553405D01*
X608704Y553393D01*
X608672Y553388D01*
X608592Y553345D01*
X608508Y553309D01*
X608476Y553283D01*
X608455Y553272D01*
X608433Y553249D01*
X608377Y553204D01*
X605207Y550034D01*
X545645Y550034D01*
X545555Y550020D01*
X545464Y550012D01*
X545435Y550000D01*
X545403Y549995D01*
X545322Y549952D01*
X545238Y549916D01*
X545206Y549890D01*
X545185Y549879D01*
X545163Y549856D01*
X545107Y549811D01*
X541267Y545971D01*
X534533Y545971D01*
G37*
%LPD*%
%LPC*%
G36*
X496573Y942471D02*
X496573Y942471D01*
X493464Y945580D01*
X493464Y948492D01*
X493450Y948582D01*
X493442Y948673D01*
X493430Y948703D01*
X493425Y948735D01*
X493382Y948815D01*
X493346Y948899D01*
X493320Y948931D01*
X493309Y948952D01*
X493286Y948974D01*
X493241Y949030D01*
X451661Y990611D01*
X451567Y990678D01*
X451472Y990748D01*
X451466Y990750D01*
X451461Y990754D01*
X451350Y990788D01*
X451238Y990825D01*
X451232Y990825D01*
X451226Y990826D01*
X451109Y990823D01*
X450992Y990822D01*
X450985Y990820D01*
X450980Y990820D01*
X450963Y990814D01*
X450831Y990776D01*
X446973Y989177D01*
X442627Y989177D01*
X438613Y990840D01*
X435540Y993913D01*
X433877Y997927D01*
X433877Y1002273D01*
X435540Y1006287D01*
X438613Y1009360D01*
X442627Y1011023D01*
X446973Y1011023D01*
X450987Y1009360D01*
X454060Y1006287D01*
X455723Y1002273D01*
X455723Y997927D01*
X455090Y996401D01*
X455064Y996287D01*
X455035Y996174D01*
X455036Y996167D01*
X455034Y996161D01*
X455045Y996045D01*
X455054Y995928D01*
X455057Y995923D01*
X455057Y995916D01*
X455105Y995809D01*
X455151Y995702D01*
X455155Y995696D01*
X455157Y995692D01*
X455170Y995678D01*
X455255Y995571D01*
X497519Y953308D01*
X497593Y953255D01*
X497662Y953195D01*
X497692Y953183D01*
X497719Y953164D01*
X497806Y953137D01*
X497890Y953103D01*
X497931Y953099D01*
X497954Y953092D01*
X497986Y953093D01*
X498057Y953085D01*
X500969Y953085D01*
X504078Y949976D01*
X504078Y945580D01*
X500969Y942471D01*
X496573Y942471D01*
G37*
%LPD*%
%LPC*%
G36*
X-39973Y989177D02*
X-39973Y989177D01*
X-43987Y990840D01*
X-47060Y993913D01*
X-48723Y997927D01*
X-48723Y1002273D01*
X-47060Y1006287D01*
X-43987Y1009360D01*
X-39973Y1011023D01*
X-35627Y1011023D01*
X-31613Y1009360D01*
X-31236Y1008983D01*
X-31220Y1008971D01*
X-31207Y1008956D01*
X-31120Y1008900D01*
X-31036Y1008840D01*
X-31017Y1008834D01*
X-31001Y1008823D01*
X-30900Y1008798D01*
X-30801Y1008767D01*
X-30781Y1008768D01*
X-30762Y1008763D01*
X-30659Y1008771D01*
X-30555Y1008774D01*
X-30537Y1008780D01*
X-30517Y1008782D01*
X-30422Y1008822D01*
X-30324Y1008858D01*
X-30309Y1008870D01*
X-30290Y1008878D01*
X-30159Y1008983D01*
X-28130Y1011013D01*
X-26135Y1013008D01*
X-23629Y1013008D01*
X-19823Y1009201D01*
X-19806Y1009189D01*
X-19794Y1009174D01*
X-19707Y1009118D01*
X-19623Y1009058D01*
X-19604Y1009052D01*
X-19587Y1009041D01*
X-19487Y1009016D01*
X-19388Y1008985D01*
X-19368Y1008986D01*
X-19348Y1008981D01*
X-19245Y1008989D01*
X-19142Y1008992D01*
X-19123Y1008998D01*
X-19103Y1009000D01*
X-19008Y1009040D01*
X-18911Y1009076D01*
X-18895Y1009088D01*
X-18877Y1009096D01*
X-18746Y1009201D01*
X-18587Y1009360D01*
X-14573Y1011023D01*
X-10227Y1011023D01*
X-6213Y1009360D01*
X-3140Y1006287D01*
X-1477Y1002273D01*
X-1477Y997927D01*
X-3140Y993913D01*
X-6213Y990840D01*
X-10227Y989177D01*
X-14573Y989177D01*
X-18587Y990840D01*
X-21660Y993913D01*
X-23323Y997927D01*
X-23323Y1002273D01*
X-22969Y1003127D01*
X-22942Y1003241D01*
X-22913Y1003355D01*
X-22914Y1003361D01*
X-22912Y1003367D01*
X-22923Y1003483D01*
X-22933Y1003600D01*
X-22935Y1003606D01*
X-22936Y1003612D01*
X-22983Y1003719D01*
X-23029Y1003826D01*
X-23034Y1003832D01*
X-23036Y1003837D01*
X-23048Y1003850D01*
X-23134Y1003957D01*
X-24344Y1005167D01*
X-24360Y1005179D01*
X-24372Y1005194D01*
X-24451Y1005245D01*
X-24460Y1005252D01*
X-24466Y1005255D01*
X-24543Y1005311D01*
X-24563Y1005317D01*
X-24579Y1005327D01*
X-24680Y1005353D01*
X-24779Y1005383D01*
X-24798Y1005382D01*
X-24818Y1005387D01*
X-24921Y1005379D01*
X-25024Y1005377D01*
X-25043Y1005370D01*
X-25063Y1005368D01*
X-25158Y1005328D01*
X-25255Y1005292D01*
X-25271Y1005280D01*
X-25289Y1005272D01*
X-25369Y1005208D01*
X-25370Y1005207D01*
X-25420Y1005167D01*
X-26939Y1003649D01*
X-27007Y1003554D01*
X-27077Y1003460D01*
X-27078Y1003454D01*
X-27082Y1003449D01*
X-27117Y1003337D01*
X-27153Y1003226D01*
X-27153Y1003220D01*
X-27155Y1003214D01*
X-27151Y1003097D01*
X-27150Y1002980D01*
X-27148Y1002973D01*
X-27148Y1002968D01*
X-27142Y1002951D01*
X-27104Y1002819D01*
X-26877Y1002273D01*
X-26877Y997927D01*
X-28540Y993913D01*
X-31613Y990840D01*
X-35627Y989177D01*
X-39973Y989177D01*
G37*
%LPD*%
%LPC*%
G36*
X23028Y878995D02*
X23028Y878995D01*
X22135Y879888D01*
X22135Y906152D01*
X23028Y907045D01*
X49292Y907045D01*
X50185Y906152D01*
X50185Y879888D01*
X49292Y878995D01*
X23028Y878995D01*
G37*
%LPD*%
%LPC*%
G36*
X256528Y481455D02*
X256528Y481455D01*
X255635Y482348D01*
X255635Y508612D01*
X256528Y509505D01*
X282792Y509505D01*
X283685Y508612D01*
X283685Y482348D01*
X282792Y481455D01*
X256528Y481455D01*
G37*
%LPD*%
%LPC*%
G36*
X638193Y824678D02*
X638193Y824678D01*
X632451Y827057D01*
X628057Y831451D01*
X625678Y837193D01*
X625678Y843407D01*
X628057Y849149D01*
X632451Y853543D01*
X638193Y855922D01*
X644407Y855922D01*
X650149Y853543D01*
X654543Y849149D01*
X656922Y843407D01*
X656922Y837193D01*
X654543Y831451D01*
X650149Y827057D01*
X644407Y824678D01*
X638193Y824678D01*
G37*
%LPD*%
%LPC*%
G36*
X511193Y803088D02*
X511193Y803088D01*
X505451Y805467D01*
X501057Y809861D01*
X498678Y815603D01*
X498678Y821817D01*
X501057Y827559D01*
X505451Y831953D01*
X511193Y834332D01*
X517407Y834332D01*
X523149Y831953D01*
X527543Y827559D01*
X529922Y821817D01*
X529922Y815603D01*
X527543Y809861D01*
X523149Y805467D01*
X517407Y803088D01*
X511193Y803088D01*
G37*
%LPD*%
%LPC*%
G36*
X638193Y875478D02*
X638193Y875478D01*
X632451Y877857D01*
X628057Y882251D01*
X625678Y887993D01*
X625678Y894207D01*
X628057Y899949D01*
X632451Y904343D01*
X638193Y906722D01*
X644407Y906722D01*
X650149Y904343D01*
X654543Y899949D01*
X656922Y894207D01*
X656922Y887993D01*
X654543Y882251D01*
X650149Y877857D01*
X644407Y875478D01*
X638193Y875478D01*
G37*
%LPD*%
%LPC*%
G36*
X511193Y850078D02*
X511193Y850078D01*
X505451Y852457D01*
X501057Y856851D01*
X498678Y862593D01*
X498678Y868807D01*
X501057Y874549D01*
X505451Y878943D01*
X511193Y881322D01*
X517407Y881322D01*
X523149Y878943D01*
X527543Y874549D01*
X529922Y868807D01*
X529922Y862593D01*
X527543Y856851D01*
X523149Y852457D01*
X517407Y850078D01*
X511193Y850078D01*
G37*
%LPD*%
%LPC*%
G36*
X313047Y433693D02*
X313047Y433693D01*
X309406Y435201D01*
X306619Y437988D01*
X305111Y441629D01*
X305111Y445571D01*
X306619Y449212D01*
X309406Y451999D01*
X313047Y453507D01*
X333753Y453507D01*
X337394Y451999D01*
X340181Y449212D01*
X341689Y445571D01*
X341689Y441629D01*
X340181Y437988D01*
X337394Y435201D01*
X333753Y433693D01*
X313047Y433693D01*
G37*
%LPD*%
%LPC*%
G36*
X-243243Y745535D02*
X-243243Y745535D01*
X-246575Y746915D01*
X-249125Y749465D01*
X-250505Y752797D01*
X-250505Y756403D01*
X-249125Y759735D01*
X-246575Y762285D01*
X-243243Y763665D01*
X-224557Y763665D01*
X-221225Y762285D01*
X-218675Y759735D01*
X-217295Y756403D01*
X-217295Y752797D01*
X-218675Y749465D01*
X-221225Y746915D01*
X-224557Y745535D01*
X-243243Y745535D01*
G37*
%LPD*%
%LPC*%
G36*
X-243243Y652535D02*
X-243243Y652535D01*
X-246575Y653915D01*
X-249125Y656465D01*
X-250505Y659797D01*
X-250505Y663403D01*
X-249125Y666735D01*
X-246575Y669285D01*
X-243243Y670665D01*
X-224557Y670665D01*
X-221225Y669285D01*
X-218675Y666735D01*
X-217295Y663403D01*
X-217295Y659797D01*
X-218675Y656465D01*
X-221225Y653915D01*
X-224557Y652535D01*
X-243243Y652535D01*
G37*
%LPD*%
%LPC*%
G36*
X337827Y361077D02*
X337827Y361077D01*
X333813Y362740D01*
X330740Y365813D01*
X329077Y369827D01*
X329077Y374173D01*
X330740Y378187D01*
X333813Y381260D01*
X337827Y382923D01*
X342173Y382923D01*
X346187Y381260D01*
X349260Y378187D01*
X350923Y374173D01*
X350923Y369827D01*
X349260Y365813D01*
X346187Y362740D01*
X342173Y361077D01*
X337827Y361077D01*
G37*
%LPD*%
%LPC*%
G36*
X312427Y361077D02*
X312427Y361077D01*
X308413Y362740D01*
X305340Y365813D01*
X303677Y369827D01*
X303677Y374173D01*
X305340Y378187D01*
X308413Y381260D01*
X312427Y382923D01*
X316773Y382923D01*
X320787Y381260D01*
X323860Y378187D01*
X325523Y374173D01*
X325523Y369827D01*
X323860Y365813D01*
X320787Y362740D01*
X316773Y361077D01*
X312427Y361077D01*
G37*
%LPD*%
%LPC*%
G36*
X-35573Y361077D02*
X-35573Y361077D01*
X-39587Y362740D01*
X-42660Y365813D01*
X-44323Y369827D01*
X-44323Y374173D01*
X-42660Y378187D01*
X-39587Y381260D01*
X-35573Y382923D01*
X-31227Y382923D01*
X-27213Y381260D01*
X-24140Y378187D01*
X-22477Y374173D01*
X-22477Y369827D01*
X-24140Y365813D01*
X-27213Y362740D01*
X-31227Y361077D01*
X-35573Y361077D01*
G37*
%LPD*%
%LPC*%
G36*
X-14573Y963777D02*
X-14573Y963777D01*
X-18587Y965440D01*
X-21660Y968513D01*
X-23323Y972527D01*
X-23323Y976873D01*
X-21660Y980887D01*
X-18587Y983960D01*
X-14573Y985623D01*
X-10227Y985623D01*
X-6213Y983960D01*
X-3140Y980887D01*
X-1477Y976873D01*
X-1477Y972527D01*
X-3140Y968513D01*
X-6213Y965440D01*
X-10227Y963777D01*
X-14573Y963777D01*
G37*
%LPD*%
%LPC*%
G36*
X-172173Y434077D02*
X-172173Y434077D01*
X-176187Y435740D01*
X-179260Y438813D01*
X-180923Y442827D01*
X-180923Y447173D01*
X-179260Y451187D01*
X-176187Y454260D01*
X-172173Y455923D01*
X-167827Y455923D01*
X-163813Y454260D01*
X-160740Y451187D01*
X-159077Y447173D01*
X-159077Y442827D01*
X-160740Y438813D01*
X-163813Y435740D01*
X-167827Y434077D01*
X-172173Y434077D01*
G37*
%LPD*%
%LPC*%
G36*
X137827Y963777D02*
X137827Y963777D01*
X133813Y965440D01*
X130740Y968513D01*
X129077Y972527D01*
X129077Y976873D01*
X130740Y980887D01*
X133813Y983960D01*
X137827Y985623D01*
X142173Y985623D01*
X146187Y983960D01*
X149260Y980887D01*
X150923Y976873D01*
X150923Y972527D01*
X149260Y968513D01*
X146187Y965440D01*
X142173Y963777D01*
X137827Y963777D01*
G37*
%LPD*%
%LPC*%
G36*
X366427Y963777D02*
X366427Y963777D01*
X362413Y965440D01*
X359340Y968513D01*
X357677Y972527D01*
X357677Y976873D01*
X359340Y980887D01*
X362413Y983960D01*
X366427Y985623D01*
X370773Y985623D01*
X374787Y983960D01*
X377860Y980887D01*
X379523Y976873D01*
X379523Y972527D01*
X377860Y968513D01*
X374787Y965440D01*
X370773Y963777D01*
X366427Y963777D01*
G37*
%LPD*%
%LPC*%
G36*
X214027Y963777D02*
X214027Y963777D01*
X210013Y965440D01*
X206940Y968513D01*
X205277Y972527D01*
X205277Y976873D01*
X206940Y980887D01*
X210013Y983960D01*
X214027Y985623D01*
X218373Y985623D01*
X222387Y983960D01*
X225460Y980887D01*
X227123Y976873D01*
X227123Y972527D01*
X225460Y968513D01*
X222387Y965440D01*
X218373Y963777D01*
X214027Y963777D01*
G37*
%LPD*%
%LPC*%
G36*
X112427Y963777D02*
X112427Y963777D01*
X108413Y965440D01*
X105340Y968513D01*
X103677Y972527D01*
X103677Y976873D01*
X105340Y980887D01*
X108413Y983960D01*
X112427Y985623D01*
X116773Y985623D01*
X120787Y983960D01*
X123860Y980887D01*
X125523Y976873D01*
X125523Y972527D01*
X123860Y968513D01*
X120787Y965440D01*
X116773Y963777D01*
X112427Y963777D01*
G37*
%LPD*%
%LPC*%
G36*
X417227Y963777D02*
X417227Y963777D01*
X413213Y965440D01*
X410140Y968513D01*
X408477Y972527D01*
X408477Y976873D01*
X410140Y980887D01*
X413213Y983960D01*
X417227Y985623D01*
X421573Y985623D01*
X425587Y983960D01*
X428660Y980887D01*
X430323Y976873D01*
X430323Y972527D01*
X428660Y968513D01*
X425587Y965440D01*
X421573Y963777D01*
X417227Y963777D01*
G37*
%LPD*%
%LPC*%
G36*
X36227Y989177D02*
X36227Y989177D01*
X32213Y990840D01*
X29140Y993913D01*
X27477Y997927D01*
X27477Y1002273D01*
X29140Y1006287D01*
X32213Y1009360D01*
X36227Y1011023D01*
X40573Y1011023D01*
X44587Y1009360D01*
X47660Y1006287D01*
X49323Y1002273D01*
X49323Y997927D01*
X47660Y993913D01*
X44587Y990840D01*
X40573Y989177D01*
X36227Y989177D01*
G37*
%LPD*%
%LPC*%
G36*
X61627Y989177D02*
X61627Y989177D01*
X57613Y990840D01*
X54540Y993913D01*
X52877Y997927D01*
X52877Y1002273D01*
X54540Y1006287D01*
X57613Y1009360D01*
X61627Y1011023D01*
X65973Y1011023D01*
X69987Y1009360D01*
X73060Y1006287D01*
X74723Y1002273D01*
X74723Y997927D01*
X73060Y993913D01*
X69987Y990840D01*
X65973Y989177D01*
X61627Y989177D01*
G37*
%LPD*%
%LPC*%
G36*
X214027Y989177D02*
X214027Y989177D01*
X210013Y990840D01*
X206940Y993913D01*
X205277Y997927D01*
X205277Y1002273D01*
X206940Y1006287D01*
X210013Y1009360D01*
X214027Y1011023D01*
X218373Y1011023D01*
X222387Y1009360D01*
X225460Y1006287D01*
X227123Y1002273D01*
X227123Y997927D01*
X225460Y993913D01*
X222387Y990840D01*
X218373Y989177D01*
X214027Y989177D01*
G37*
%LPD*%
%LPC*%
G36*
X391827Y989177D02*
X391827Y989177D01*
X387813Y990840D01*
X384740Y993913D01*
X383077Y997927D01*
X383077Y1002273D01*
X384740Y1006287D01*
X387813Y1009360D01*
X391827Y1011023D01*
X396173Y1011023D01*
X400187Y1009360D01*
X403260Y1006287D01*
X404923Y1002273D01*
X404923Y997927D01*
X403260Y993913D01*
X400187Y990840D01*
X396173Y989177D01*
X391827Y989177D01*
G37*
%LPD*%
%LPC*%
G36*
X87027Y989177D02*
X87027Y989177D01*
X83013Y990840D01*
X79940Y993913D01*
X78277Y997927D01*
X78277Y1002273D01*
X79940Y1006287D01*
X83013Y1009360D01*
X87027Y1011023D01*
X91373Y1011023D01*
X95387Y1009360D01*
X98460Y1006287D01*
X100123Y1002273D01*
X100123Y997927D01*
X98460Y993913D01*
X95387Y990840D01*
X91373Y989177D01*
X87027Y989177D01*
G37*
%LPD*%
%LPC*%
G36*
X137827Y989177D02*
X137827Y989177D01*
X133813Y990840D01*
X130740Y993913D01*
X129077Y997927D01*
X129077Y1002273D01*
X130740Y1006287D01*
X133813Y1009360D01*
X137827Y1011023D01*
X142173Y1011023D01*
X146187Y1009360D01*
X149260Y1006287D01*
X150923Y1002273D01*
X150923Y997927D01*
X149260Y993913D01*
X146187Y990840D01*
X142173Y989177D01*
X137827Y989177D01*
G37*
%LPD*%
%LPC*%
G36*
X87027Y963777D02*
X87027Y963777D01*
X83013Y965440D01*
X79940Y968513D01*
X78277Y972527D01*
X78277Y976873D01*
X79940Y980887D01*
X83013Y983960D01*
X87027Y985623D01*
X91373Y985623D01*
X95387Y983960D01*
X98460Y980887D01*
X100123Y976873D01*
X100123Y972527D01*
X98460Y968513D01*
X95387Y965440D01*
X91373Y963777D01*
X87027Y963777D01*
G37*
%LPD*%
%LPC*%
G36*
X10827Y963777D02*
X10827Y963777D01*
X6813Y965440D01*
X3740Y968513D01*
X2077Y972527D01*
X2077Y976873D01*
X3740Y980887D01*
X6813Y983960D01*
X10827Y985623D01*
X15173Y985623D01*
X19187Y983960D01*
X22260Y980887D01*
X23923Y976873D01*
X23923Y972527D01*
X22260Y968513D01*
X19187Y965440D01*
X15173Y963777D01*
X10827Y963777D01*
G37*
%LPD*%
%LPC*%
G36*
X236227Y361077D02*
X236227Y361077D01*
X232213Y362740D01*
X229140Y365813D01*
X227477Y369827D01*
X227477Y374173D01*
X229140Y378187D01*
X232213Y381260D01*
X236227Y382923D01*
X240573Y382923D01*
X244587Y381260D01*
X247660Y378187D01*
X249323Y374173D01*
X249323Y369827D01*
X247660Y365813D01*
X244587Y362740D01*
X240573Y361077D01*
X236227Y361077D01*
G37*
%LPD*%
%LPC*%
G36*
X188627Y963777D02*
X188627Y963777D01*
X184613Y965440D01*
X181540Y968513D01*
X179877Y972527D01*
X179877Y976873D01*
X181540Y980887D01*
X184613Y983960D01*
X188627Y985623D01*
X192973Y985623D01*
X196987Y983960D01*
X200060Y980887D01*
X201723Y976873D01*
X201723Y972527D01*
X200060Y968513D01*
X196987Y965440D01*
X192973Y963777D01*
X188627Y963777D01*
G37*
%LPD*%
%LPC*%
G36*
X36227Y963777D02*
X36227Y963777D01*
X32213Y965440D01*
X29140Y968513D01*
X27477Y972527D01*
X27477Y976873D01*
X29140Y980887D01*
X32213Y983960D01*
X36227Y985623D01*
X40573Y985623D01*
X44587Y983960D01*
X47660Y980887D01*
X49323Y976873D01*
X49323Y972527D01*
X47660Y968513D01*
X44587Y965440D01*
X40573Y963777D01*
X36227Y963777D01*
G37*
%LPD*%
%LPC*%
G36*
X391827Y963777D02*
X391827Y963777D01*
X387813Y965440D01*
X384740Y968513D01*
X383077Y972527D01*
X383077Y976873D01*
X384740Y980887D01*
X387813Y983960D01*
X391827Y985623D01*
X396173Y985623D01*
X400187Y983960D01*
X403260Y980887D01*
X404923Y976873D01*
X404923Y972527D01*
X403260Y968513D01*
X400187Y965440D01*
X396173Y963777D01*
X391827Y963777D01*
G37*
%LPD*%
%LPC*%
G36*
X35827Y361077D02*
X35827Y361077D01*
X31813Y362740D01*
X28740Y365813D01*
X27077Y369827D01*
X27077Y374173D01*
X28740Y378187D01*
X31813Y381260D01*
X35827Y382923D01*
X40173Y382923D01*
X44187Y381260D01*
X47260Y378187D01*
X48923Y374173D01*
X48923Y369827D01*
X47260Y365813D01*
X44187Y362740D01*
X40173Y361077D01*
X35827Y361077D01*
G37*
%LPD*%
%LPC*%
G36*
X61227Y361077D02*
X61227Y361077D01*
X57213Y362740D01*
X54140Y365813D01*
X52477Y369827D01*
X52477Y374173D01*
X54140Y378187D01*
X57213Y381260D01*
X61227Y382923D01*
X65573Y382923D01*
X69587Y381260D01*
X72660Y378187D01*
X74323Y374173D01*
X74323Y369827D01*
X72660Y365813D01*
X69587Y362740D01*
X65573Y361077D01*
X61227Y361077D01*
G37*
%LPD*%
%LPC*%
G36*
X137427Y361077D02*
X137427Y361077D01*
X133413Y362740D01*
X130340Y365813D01*
X128677Y369827D01*
X128677Y374173D01*
X130340Y378187D01*
X133413Y381260D01*
X137427Y382923D01*
X141773Y382923D01*
X145787Y381260D01*
X148860Y378187D01*
X150523Y374173D01*
X150523Y369827D01*
X148860Y365813D01*
X145787Y362740D01*
X141773Y361077D01*
X137427Y361077D01*
G37*
%LPD*%
%LPC*%
G36*
X162827Y361077D02*
X162827Y361077D01*
X158813Y362740D01*
X155740Y365813D01*
X154077Y369827D01*
X154077Y374173D01*
X155740Y378187D01*
X158813Y381260D01*
X162827Y382923D01*
X167173Y382923D01*
X171187Y381260D01*
X174260Y378187D01*
X175923Y374173D01*
X175923Y369827D01*
X174260Y365813D01*
X171187Y362740D01*
X167173Y361077D01*
X162827Y361077D01*
G37*
%LPD*%
%LPC*%
G36*
X210827Y361077D02*
X210827Y361077D01*
X206813Y362740D01*
X203740Y365813D01*
X202077Y369827D01*
X202077Y374173D01*
X203740Y378187D01*
X206813Y381260D01*
X210827Y382923D01*
X215173Y382923D01*
X219187Y381260D01*
X222260Y378187D01*
X223923Y374173D01*
X223923Y369827D01*
X222260Y365813D01*
X219187Y362740D01*
X215173Y361077D01*
X210827Y361077D01*
G37*
%LPD*%
%LPC*%
G36*
X490427Y361077D02*
X490427Y361077D01*
X486413Y362740D01*
X483340Y365813D01*
X481677Y369827D01*
X481677Y374173D01*
X483340Y378187D01*
X486413Y381260D01*
X490427Y382923D01*
X494773Y382923D01*
X498787Y381260D01*
X501860Y378187D01*
X503523Y374173D01*
X503523Y369827D01*
X501860Y365813D01*
X498787Y362740D01*
X494773Y361077D01*
X490427Y361077D01*
G37*
%LPD*%
%LPC*%
G36*
X414227Y361077D02*
X414227Y361077D01*
X410213Y362740D01*
X407140Y365813D01*
X405477Y369827D01*
X405477Y374173D01*
X407140Y378187D01*
X410213Y381260D01*
X414227Y382923D01*
X418573Y382923D01*
X422587Y381260D01*
X425660Y378187D01*
X427323Y374173D01*
X427323Y369827D01*
X425660Y365813D01*
X422587Y362740D01*
X418573Y361077D01*
X414227Y361077D01*
G37*
%LPD*%
%LPC*%
G36*
X388827Y361077D02*
X388827Y361077D01*
X384813Y362740D01*
X381740Y365813D01*
X380077Y369827D01*
X380077Y374173D01*
X381740Y378187D01*
X384813Y381260D01*
X388827Y382923D01*
X393173Y382923D01*
X397187Y381260D01*
X400260Y378187D01*
X401923Y374173D01*
X401923Y369827D01*
X400260Y365813D01*
X397187Y362740D01*
X393173Y361077D01*
X388827Y361077D01*
G37*
%LPD*%
%LPC*%
G36*
X-10173Y361077D02*
X-10173Y361077D01*
X-14187Y362740D01*
X-17260Y365813D01*
X-18923Y369827D01*
X-18923Y374173D01*
X-17260Y378187D01*
X-14187Y381260D01*
X-10173Y382923D01*
X-5827Y382923D01*
X-1813Y381260D01*
X1260Y378187D01*
X2923Y374173D01*
X2923Y369827D01*
X1260Y365813D01*
X-1813Y362740D01*
X-5827Y361077D01*
X-10173Y361077D01*
G37*
%LPD*%
%LPC*%
G36*
X-250018Y532063D02*
X-250018Y532063D01*
X-253192Y533378D01*
X-255622Y535808D01*
X-256937Y538982D01*
X-256937Y542418D01*
X-255622Y545592D01*
X-253192Y548022D01*
X-250018Y549337D01*
X-246582Y549337D01*
X-243408Y548022D01*
X-240978Y545592D01*
X-239663Y542418D01*
X-239663Y538982D01*
X-240978Y535808D01*
X-243408Y533378D01*
X-246582Y532063D01*
X-250018Y532063D01*
G37*
%LPD*%
%LPC*%
G36*
X534533Y522471D02*
X534533Y522471D01*
X529771Y527233D01*
X529771Y533967D01*
X534533Y538729D01*
X541267Y538729D01*
X546029Y533967D01*
X546029Y527233D01*
X541267Y522471D01*
X534533Y522471D01*
G37*
%LPD*%
%LPC*%
G36*
X534533Y596771D02*
X534533Y596771D01*
X529771Y601533D01*
X529771Y608267D01*
X534533Y613029D01*
X541267Y613029D01*
X546029Y608267D01*
X546029Y601533D01*
X541267Y596771D01*
X534533Y596771D01*
G37*
%LPD*%
%LPC*%
G36*
X342828Y698935D02*
X342828Y698935D01*
X341935Y699828D01*
X341935Y712172D01*
X342828Y713065D01*
X355172Y713065D01*
X356065Y712172D01*
X356065Y699828D01*
X355172Y698935D01*
X342828Y698935D01*
G37*
%LPD*%
%LPC*%
G36*
X444428Y698935D02*
X444428Y698935D01*
X443535Y699828D01*
X443535Y712172D01*
X444428Y713065D01*
X456772Y713065D01*
X457665Y712172D01*
X457665Y699828D01*
X456772Y698935D01*
X444428Y698935D01*
G37*
%LPD*%
%LPC*%
G36*
X444428Y573935D02*
X444428Y573935D01*
X443535Y574828D01*
X443535Y587172D01*
X444428Y588065D01*
X456772Y588065D01*
X457665Y587172D01*
X457665Y574828D01*
X456772Y573935D01*
X444428Y573935D01*
G37*
%LPD*%
%LPC*%
G36*
X419028Y573935D02*
X419028Y573935D01*
X418135Y574828D01*
X418135Y587172D01*
X419028Y588065D01*
X431372Y588065D01*
X432265Y587172D01*
X432265Y574828D01*
X431372Y573935D01*
X419028Y573935D01*
G37*
%LPD*%
%LPC*%
G36*
X367228Y760935D02*
X367228Y760935D01*
X366335Y761828D01*
X366335Y774172D01*
X367228Y775065D01*
X379572Y775065D01*
X380465Y774172D01*
X380465Y761828D01*
X379572Y760935D01*
X367228Y760935D01*
G37*
%LPD*%
%LPC*%
G36*
X418028Y760935D02*
X418028Y760935D01*
X417135Y761828D01*
X417135Y774172D01*
X418028Y775065D01*
X430372Y775065D01*
X431265Y774172D01*
X431265Y761828D01*
X430372Y760935D01*
X418028Y760935D01*
G37*
%LPD*%
%LPC*%
G36*
X392628Y760935D02*
X392628Y760935D01*
X391735Y761828D01*
X391735Y774172D01*
X392628Y775065D01*
X404972Y775065D01*
X405865Y774172D01*
X405865Y761828D01*
X404972Y760935D01*
X392628Y760935D01*
G37*
%LPD*%
%LPC*%
G36*
X443428Y885935D02*
X443428Y885935D01*
X442535Y886828D01*
X442535Y899172D01*
X443428Y900065D01*
X455772Y900065D01*
X456665Y899172D01*
X456665Y886828D01*
X455772Y885935D01*
X443428Y885935D01*
G37*
%LPD*%
%LPC*%
G36*
X392628Y885935D02*
X392628Y885935D01*
X391735Y886828D01*
X391735Y899172D01*
X392628Y900065D01*
X404972Y900065D01*
X405865Y899172D01*
X405865Y886828D01*
X404972Y885935D01*
X392628Y885935D01*
G37*
%LPD*%
%LPC*%
G36*
X98463Y893243D02*
X98463Y893243D01*
X98463Y906761D01*
X109774Y906761D01*
X110421Y906588D01*
X111000Y906253D01*
X111473Y905780D01*
X111808Y905201D01*
X111981Y904554D01*
X111981Y893243D01*
X98463Y893243D01*
G37*
%LPD*%
%LPC*%
G36*
X-151601Y498303D02*
X-151601Y498303D01*
X-151601Y509614D01*
X-151428Y510261D01*
X-151093Y510840D01*
X-150620Y511313D01*
X-150041Y511648D01*
X-149394Y511821D01*
X-138083Y511821D01*
X-138083Y498303D01*
X-151601Y498303D01*
G37*
%LPD*%
%LPC*%
G36*
X-151601Y894543D02*
X-151601Y894543D01*
X-151601Y905854D01*
X-151428Y906501D01*
X-151093Y907080D01*
X-150620Y907553D01*
X-150041Y907888D01*
X-149394Y908061D01*
X-138083Y908061D01*
X-138083Y894543D01*
X-151601Y894543D01*
G37*
%LPD*%
%LPC*%
G36*
X98463Y497003D02*
X98463Y497003D01*
X98463Y510521D01*
X109774Y510521D01*
X110421Y510348D01*
X111000Y510013D01*
X111473Y509540D01*
X111808Y508961D01*
X111981Y508314D01*
X111981Y497003D01*
X98463Y497003D01*
G37*
%LPD*%
%LPC*%
G36*
X81899Y497003D02*
X81899Y497003D01*
X81899Y508314D01*
X82072Y508961D01*
X82407Y509540D01*
X82880Y510013D01*
X83459Y510348D01*
X84106Y510521D01*
X95417Y510521D01*
X95417Y497003D01*
X81899Y497003D01*
G37*
%LPD*%
%LPC*%
G36*
X81899Y893243D02*
X81899Y893243D01*
X81899Y904554D01*
X82072Y905201D01*
X82407Y905780D01*
X82880Y906253D01*
X83459Y906588D01*
X84106Y906761D01*
X95417Y906761D01*
X95417Y893243D01*
X81899Y893243D01*
G37*
%LPD*%
%LPC*%
G36*
X-149394Y877979D02*
X-149394Y877979D01*
X-150041Y878152D01*
X-150620Y878487D01*
X-151093Y878960D01*
X-151428Y879539D01*
X-151601Y880186D01*
X-151601Y891497D01*
X-138083Y891497D01*
X-138083Y877979D01*
X-149394Y877979D01*
G37*
%LPD*%
%LPC*%
G36*
X98463Y480439D02*
X98463Y480439D01*
X98463Y493957D01*
X111981Y493957D01*
X111981Y482646D01*
X111808Y481999D01*
X111473Y481420D01*
X111000Y480947D01*
X110421Y480612D01*
X109774Y480439D01*
X98463Y480439D01*
G37*
%LPD*%
%LPC*%
G36*
X-149394Y481739D02*
X-149394Y481739D01*
X-150041Y481912D01*
X-150620Y482247D01*
X-151093Y482720D01*
X-151428Y483299D01*
X-151601Y483946D01*
X-151601Y495257D01*
X-138083Y495257D01*
X-138083Y481739D01*
X-149394Y481739D01*
G37*
%LPD*%
%LPC*%
G36*
X-135037Y894543D02*
X-135037Y894543D01*
X-135037Y908061D01*
X-123726Y908061D01*
X-123079Y907888D01*
X-122500Y907553D01*
X-122027Y907080D01*
X-121692Y906501D01*
X-121519Y905854D01*
X-121519Y894543D01*
X-135037Y894543D01*
G37*
%LPD*%
%LPC*%
G36*
X98463Y876679D02*
X98463Y876679D01*
X98463Y890197D01*
X111981Y890197D01*
X111981Y878886D01*
X111808Y878239D01*
X111473Y877660D01*
X111000Y877187D01*
X110421Y876852D01*
X109774Y876679D01*
X98463Y876679D01*
G37*
%LPD*%
%LPC*%
G36*
X-135037Y498303D02*
X-135037Y498303D01*
X-135037Y511821D01*
X-123726Y511821D01*
X-123079Y511648D01*
X-122500Y511313D01*
X-122027Y510840D01*
X-121692Y510261D01*
X-121519Y509614D01*
X-121519Y498303D01*
X-135037Y498303D01*
G37*
%LPD*%
%LPC*%
G36*
X-135037Y877979D02*
X-135037Y877979D01*
X-135037Y891497D01*
X-121519Y891497D01*
X-121519Y880186D01*
X-121692Y879539D01*
X-122027Y878960D01*
X-122500Y878487D01*
X-123079Y878152D01*
X-123726Y877979D01*
X-135037Y877979D01*
G37*
%LPD*%
%LPC*%
G36*
X-135037Y481739D02*
X-135037Y481739D01*
X-135037Y495257D01*
X-121519Y495257D01*
X-121519Y483946D01*
X-121692Y483299D01*
X-122027Y482720D01*
X-122500Y482247D01*
X-123079Y481912D01*
X-123726Y481739D01*
X-135037Y481739D01*
G37*
%LPD*%
%LPC*%
G36*
X84106Y876679D02*
X84106Y876679D01*
X83459Y876852D01*
X82880Y877187D01*
X82407Y877660D01*
X82072Y878239D01*
X81899Y878886D01*
X81899Y890197D01*
X95417Y890197D01*
X95417Y876679D01*
X84106Y876679D01*
G37*
%LPD*%
%LPC*%
G36*
X84106Y480439D02*
X84106Y480439D01*
X83459Y480612D01*
X82880Y480947D01*
X82407Y481420D01*
X82072Y481999D01*
X81899Y482646D01*
X81899Y493957D01*
X95417Y493957D01*
X95417Y480439D01*
X84106Y480439D01*
G37*
%LPD*%
%LPC*%
G36*
X324923Y495923D02*
X324923Y495923D01*
X324923Y505323D01*
X332642Y505323D01*
X334340Y505054D01*
X335975Y504522D01*
X337507Y503742D01*
X338898Y502731D01*
X340113Y501516D01*
X341124Y500125D01*
X341904Y498593D01*
X342436Y496958D01*
X342600Y495923D01*
X324923Y495923D01*
G37*
%LPD*%
%LPC*%
G36*
X304200Y495923D02*
X304200Y495923D01*
X304364Y496958D01*
X304896Y498593D01*
X305676Y500125D01*
X306687Y501516D01*
X307902Y502731D01*
X309293Y503742D01*
X310825Y504522D01*
X312460Y505054D01*
X314158Y505323D01*
X321877Y505323D01*
X321877Y495923D01*
X304200Y495923D01*
G37*
%LPD*%
%LPC*%
G36*
X324923Y483477D02*
X324923Y483477D01*
X324923Y492877D01*
X342600Y492877D01*
X342436Y491842D01*
X341904Y490207D01*
X341124Y488675D01*
X340113Y487284D01*
X338898Y486069D01*
X337507Y485058D01*
X335975Y484278D01*
X334340Y483746D01*
X332642Y483477D01*
X324923Y483477D01*
G37*
%LPD*%
%LPC*%
G36*
X314158Y483477D02*
X314158Y483477D01*
X312460Y483746D01*
X310825Y484278D01*
X309293Y485058D01*
X307902Y486069D01*
X306687Y487284D01*
X305676Y488675D01*
X304896Y490207D01*
X304364Y491842D01*
X304200Y492877D01*
X321877Y492877D01*
X321877Y483477D01*
X314158Y483477D01*
G37*
%LPD*%
%LPC*%
G36*
X-251405Y612323D02*
X-251405Y612323D01*
X-251273Y613161D01*
X-250782Y614670D01*
X-250062Y616083D01*
X-249129Y617367D01*
X-248007Y618489D01*
X-246723Y619422D01*
X-245310Y620142D01*
X-243801Y620633D01*
X-242233Y620881D01*
X-235423Y620881D01*
X-235423Y612323D01*
X-251405Y612323D01*
G37*
%LPD*%
%LPC*%
G36*
X-251405Y705323D02*
X-251405Y705323D01*
X-251273Y706161D01*
X-250782Y707670D01*
X-250062Y709083D01*
X-249129Y710367D01*
X-248007Y711489D01*
X-246723Y712422D01*
X-245310Y713142D01*
X-243801Y713633D01*
X-242233Y713881D01*
X-235423Y713881D01*
X-235423Y705323D01*
X-251405Y705323D01*
G37*
%LPD*%
%LPC*%
G36*
X-232377Y705323D02*
X-232377Y705323D01*
X-232377Y713881D01*
X-225567Y713881D01*
X-223999Y713633D01*
X-222490Y713142D01*
X-221077Y712422D01*
X-219793Y711489D01*
X-218671Y710367D01*
X-217738Y709083D01*
X-217018Y707670D01*
X-216527Y706161D01*
X-216395Y705323D01*
X-232377Y705323D01*
G37*
%LPD*%
%LPC*%
G36*
X-232377Y612323D02*
X-232377Y612323D01*
X-232377Y620881D01*
X-225567Y620881D01*
X-223999Y620633D01*
X-222490Y620142D01*
X-221077Y619422D01*
X-219793Y618489D01*
X-218671Y617367D01*
X-217738Y616083D01*
X-217018Y614670D01*
X-216527Y613161D01*
X-216395Y612323D01*
X-232377Y612323D01*
G37*
%LPD*%
%LPC*%
G36*
X-242233Y600719D02*
X-242233Y600719D01*
X-243801Y600967D01*
X-245310Y601458D01*
X-246723Y602178D01*
X-248007Y603111D01*
X-249129Y604233D01*
X-250062Y605517D01*
X-250782Y606930D01*
X-251273Y608439D01*
X-251405Y609277D01*
X-235423Y609277D01*
X-235423Y600719D01*
X-242233Y600719D01*
G37*
%LPD*%
%LPC*%
G36*
X-242233Y693719D02*
X-242233Y693719D01*
X-243801Y693967D01*
X-245310Y694458D01*
X-246723Y695178D01*
X-248007Y696111D01*
X-249129Y697233D01*
X-250062Y698517D01*
X-250782Y699930D01*
X-251273Y701439D01*
X-251405Y702277D01*
X-235423Y702277D01*
X-235423Y693719D01*
X-242233Y693719D01*
G37*
%LPD*%
%LPC*%
G36*
X-232377Y693719D02*
X-232377Y693719D01*
X-232377Y702277D01*
X-216395Y702277D01*
X-216527Y701439D01*
X-217018Y699930D01*
X-217738Y698517D01*
X-218671Y697233D01*
X-219793Y696111D01*
X-221077Y695178D01*
X-222490Y694458D01*
X-223999Y693967D01*
X-225567Y693719D01*
X-232377Y693719D01*
G37*
%LPD*%
%LPC*%
G36*
X-232377Y600719D02*
X-232377Y600719D01*
X-232377Y609277D01*
X-216395Y609277D01*
X-216527Y608439D01*
X-217018Y606930D01*
X-217738Y605517D01*
X-218671Y604233D01*
X-219793Y603111D01*
X-221077Y602178D01*
X-222490Y601458D01*
X-223999Y600967D01*
X-225567Y600719D01*
X-232377Y600719D01*
G37*
%LPD*%
%LPC*%
G36*
X137802Y414693D02*
X137802Y414693D01*
X134693Y417802D01*
X134693Y422198D01*
X137802Y425307D01*
X142198Y425307D01*
X145307Y422198D01*
X145307Y417802D01*
X142198Y414693D01*
X137802Y414693D01*
G37*
%LPD*%
%LPC*%
G36*
X265323Y373523D02*
X265323Y373523D01*
X265323Y383846D01*
X266596Y383645D01*
X268383Y383064D01*
X270057Y382211D01*
X271578Y381106D01*
X272906Y379778D01*
X272955Y379710D01*
X272961Y379705D01*
X272965Y379698D01*
X273048Y379619D01*
X273130Y379537D01*
X273137Y379534D01*
X273143Y379528D01*
X273247Y379480D01*
X273351Y379429D01*
X273359Y379428D01*
X273366Y379425D01*
X273480Y379412D01*
X273594Y379397D01*
X273591Y379388D01*
X273566Y379329D01*
X273562Y379269D01*
X273547Y379211D01*
X273552Y379147D01*
X273547Y379084D01*
X273561Y379026D01*
X273566Y378966D01*
X273591Y378907D01*
X273607Y378845D01*
X273650Y378770D01*
X273662Y378740D01*
X273678Y378721D01*
X273690Y378699D01*
X274011Y378257D01*
X274864Y376583D01*
X275445Y374796D01*
X275646Y373523D01*
X265323Y373523D01*
G37*
%LPD*%
%LPC*%
G36*
X192323Y1001623D02*
X192323Y1001623D01*
X192323Y1011946D01*
X193596Y1011745D01*
X195383Y1011164D01*
X197057Y1010311D01*
X198578Y1009206D01*
X199906Y1007878D01*
X201011Y1006357D01*
X201864Y1004683D01*
X202445Y1002896D01*
X202646Y1001623D01*
X192323Y1001623D01*
G37*
%LPD*%
%LPC*%
G36*
X14523Y1001623D02*
X14523Y1001623D01*
X14523Y1011946D01*
X15796Y1011745D01*
X17583Y1011164D01*
X19257Y1010311D01*
X20778Y1009206D01*
X22106Y1007878D01*
X23211Y1006357D01*
X24064Y1004683D01*
X24645Y1002896D01*
X24846Y1001623D01*
X14523Y1001623D01*
G37*
%LPD*%
%LPC*%
G36*
X116123Y1001623D02*
X116123Y1001623D01*
X116123Y1011946D01*
X117396Y1011745D01*
X119183Y1011164D01*
X120857Y1010311D01*
X122378Y1009206D01*
X123706Y1007878D01*
X124811Y1006357D01*
X125664Y1004683D01*
X126245Y1002896D01*
X126446Y1001623D01*
X116123Y1001623D01*
G37*
%LPD*%
%LPC*%
G36*
X90323Y373523D02*
X90323Y373523D01*
X90323Y383846D01*
X91596Y383645D01*
X93383Y383064D01*
X95057Y382211D01*
X96578Y381106D01*
X97906Y379778D01*
X99011Y378257D01*
X99864Y376583D01*
X100445Y374796D01*
X100646Y373523D01*
X90323Y373523D01*
G37*
%LPD*%
%LPC*%
G36*
X370123Y1001623D02*
X370123Y1001623D01*
X370123Y1011946D01*
X371396Y1011745D01*
X373183Y1011164D01*
X374857Y1010311D01*
X376378Y1009206D01*
X377706Y1007878D01*
X378811Y1006357D01*
X379664Y1004683D01*
X380245Y1002896D01*
X380446Y1001623D01*
X370123Y1001623D01*
G37*
%LPD*%
%LPC*%
G36*
X443323Y373523D02*
X443323Y373523D01*
X443323Y383846D01*
X444596Y383645D01*
X446383Y383064D01*
X448057Y382211D01*
X449578Y381106D01*
X450906Y379778D01*
X452011Y378257D01*
X452864Y376583D01*
X453445Y374796D01*
X453646Y373523D01*
X443323Y373523D01*
G37*
%LPD*%
%LPC*%
G36*
X-96046Y373523D02*
X-96046Y373523D01*
X-95845Y374796D01*
X-95264Y376583D01*
X-94411Y378257D01*
X-93306Y379778D01*
X-91978Y381106D01*
X-90457Y382211D01*
X-88783Y383064D01*
X-86996Y383645D01*
X-85723Y383846D01*
X-85723Y373523D01*
X-96046Y373523D01*
G37*
%LPD*%
%LPC*%
G36*
X268523Y976223D02*
X268523Y976223D01*
X268523Y986546D01*
X269796Y986345D01*
X271583Y985764D01*
X273257Y984911D01*
X274778Y983806D01*
X276106Y982478D01*
X277211Y980957D01*
X278064Y979283D01*
X278645Y977496D01*
X278846Y976223D01*
X268523Y976223D01*
G37*
%LPD*%
%LPC*%
G36*
X446323Y976223D02*
X446323Y976223D01*
X446323Y986546D01*
X447596Y986345D01*
X449383Y985764D01*
X451057Y984911D01*
X452578Y983806D01*
X453906Y982478D01*
X455011Y980957D01*
X455864Y979283D01*
X456445Y977496D01*
X456646Y976223D01*
X446323Y976223D01*
G37*
%LPD*%
%LPC*%
G36*
X65323Y976223D02*
X65323Y976223D01*
X65323Y986546D01*
X66596Y986345D01*
X68383Y985764D01*
X70057Y984911D01*
X71578Y983806D01*
X72906Y982478D01*
X74011Y980957D01*
X74864Y979283D01*
X75445Y977496D01*
X75646Y976223D01*
X65323Y976223D01*
G37*
%LPD*%
%LPC*%
G36*
X319323Y1001623D02*
X319323Y1001623D01*
X319323Y1011946D01*
X320596Y1011745D01*
X322383Y1011164D01*
X324057Y1010311D01*
X325578Y1009206D01*
X326906Y1007878D01*
X328011Y1006357D01*
X328864Y1004683D01*
X329445Y1002896D01*
X329646Y1001623D01*
X319323Y1001623D01*
G37*
%LPD*%
%LPC*%
G36*
X178954Y1001623D02*
X178954Y1001623D01*
X179155Y1002896D01*
X179736Y1004683D01*
X180589Y1006357D01*
X181694Y1007878D01*
X183022Y1009206D01*
X184543Y1010311D01*
X186217Y1011164D01*
X188004Y1011745D01*
X189277Y1011946D01*
X189277Y1001623D01*
X178954Y1001623D01*
G37*
%LPD*%
%LPC*%
G36*
X1154Y1001623D02*
X1154Y1001623D01*
X1355Y1002896D01*
X1936Y1004683D01*
X2789Y1006357D01*
X3894Y1007878D01*
X5222Y1009206D01*
X6743Y1010311D01*
X8417Y1011164D01*
X10204Y1011745D01*
X11477Y1011946D01*
X11477Y1001623D01*
X1154Y1001623D01*
G37*
%LPD*%
%LPC*%
G36*
X-86996Y360355D02*
X-86996Y360355D01*
X-88783Y360936D01*
X-90457Y361789D01*
X-91978Y362894D01*
X-93306Y364222D01*
X-94411Y365743D01*
X-95264Y367417D01*
X-95845Y369204D01*
X-96046Y370477D01*
X-85723Y370477D01*
X-85723Y360154D01*
X-86996Y360355D01*
G37*
%LPD*%
%LPC*%
G36*
X429954Y373523D02*
X429954Y373523D01*
X430155Y374796D01*
X430736Y376583D01*
X431589Y378257D01*
X432694Y379778D01*
X434022Y381106D01*
X435543Y382211D01*
X437217Y383064D01*
X439004Y383645D01*
X440277Y383846D01*
X440277Y373523D01*
X429954Y373523D01*
G37*
%LPD*%
%LPC*%
G36*
X305954Y1001623D02*
X305954Y1001623D01*
X306155Y1002896D01*
X306736Y1004683D01*
X307589Y1006357D01*
X308694Y1007878D01*
X310022Y1009206D01*
X311543Y1010311D01*
X313217Y1011164D01*
X315004Y1011745D01*
X316277Y1011946D01*
X316277Y1001623D01*
X305954Y1001623D01*
G37*
%LPD*%
%LPC*%
G36*
X65323Y973177D02*
X65323Y973177D01*
X75646Y973177D01*
X75445Y971904D01*
X74864Y970117D01*
X74011Y968443D01*
X72906Y966922D01*
X71578Y965594D01*
X70057Y964489D01*
X68383Y963636D01*
X66596Y963055D01*
X65323Y962854D01*
X65323Y973177D01*
G37*
%LPD*%
%LPC*%
G36*
X251954Y373523D02*
X251954Y373523D01*
X252155Y374796D01*
X252736Y376583D01*
X253589Y378257D01*
X254694Y379778D01*
X256022Y381106D01*
X257543Y382211D01*
X259217Y383064D01*
X261004Y383645D01*
X262277Y383846D01*
X262277Y373523D01*
X251954Y373523D01*
G37*
%LPD*%
%LPC*%
G36*
X51954Y976223D02*
X51954Y976223D01*
X52155Y977496D01*
X52736Y979283D01*
X53589Y980957D01*
X54694Y982478D01*
X56022Y983806D01*
X57543Y984911D01*
X59217Y985764D01*
X61004Y986345D01*
X62277Y986546D01*
X62277Y976223D01*
X51954Y976223D01*
G37*
%LPD*%
%LPC*%
G36*
X432954Y976223D02*
X432954Y976223D01*
X433155Y977496D01*
X433736Y979283D01*
X434589Y980957D01*
X435694Y982478D01*
X437022Y983806D01*
X438543Y984911D01*
X440217Y985764D01*
X442004Y986345D01*
X443277Y986546D01*
X443277Y976223D01*
X432954Y976223D01*
G37*
%LPD*%
%LPC*%
G36*
X102754Y1001623D02*
X102754Y1001623D01*
X102955Y1002896D01*
X103536Y1004683D01*
X104389Y1006357D01*
X105494Y1007878D01*
X106822Y1009206D01*
X108343Y1010311D01*
X110017Y1011164D01*
X111804Y1011745D01*
X113077Y1011946D01*
X113077Y1001623D01*
X102754Y1001623D01*
G37*
%LPD*%
%LPC*%
G36*
X268523Y973177D02*
X268523Y973177D01*
X278846Y973177D01*
X278645Y971904D01*
X278064Y970117D01*
X277211Y968443D01*
X276106Y966922D01*
X274778Y965594D01*
X273257Y964489D01*
X271583Y963636D01*
X269796Y963055D01*
X268523Y962854D01*
X268523Y973177D01*
G37*
%LPD*%
%LPC*%
G36*
X446323Y973177D02*
X446323Y973177D01*
X456646Y973177D01*
X456445Y971904D01*
X455864Y970117D01*
X455011Y968443D01*
X453906Y966922D01*
X452578Y965594D01*
X451057Y964489D01*
X449383Y963636D01*
X447596Y963055D01*
X446323Y962854D01*
X446323Y973177D01*
G37*
%LPD*%
%LPC*%
G36*
X76954Y373523D02*
X76954Y373523D01*
X77155Y374796D01*
X77736Y376583D01*
X78589Y378257D01*
X79694Y379778D01*
X81022Y381106D01*
X82543Y382211D01*
X84217Y383064D01*
X86004Y383645D01*
X87277Y383846D01*
X87277Y373523D01*
X76954Y373523D01*
G37*
%LPD*%
%LPC*%
G36*
X-82677Y373523D02*
X-82677Y373523D01*
X-82677Y383846D01*
X-81404Y383645D01*
X-79617Y383064D01*
X-77943Y382211D01*
X-76422Y381106D01*
X-75094Y379778D01*
X-73989Y378257D01*
X-73136Y376583D01*
X-72555Y374796D01*
X-72354Y373523D01*
X-82677Y373523D01*
G37*
%LPD*%
%LPC*%
G36*
X356754Y1001623D02*
X356754Y1001623D01*
X356955Y1002896D01*
X357536Y1004683D01*
X358389Y1006357D01*
X359494Y1007878D01*
X360822Y1009206D01*
X362343Y1010311D01*
X364017Y1011164D01*
X365804Y1011745D01*
X367077Y1011946D01*
X367077Y1001623D01*
X356754Y1001623D01*
G37*
%LPD*%
%LPC*%
G36*
X443323Y370477D02*
X443323Y370477D01*
X453646Y370477D01*
X453445Y369204D01*
X452864Y367417D01*
X452011Y365743D01*
X450906Y364222D01*
X449578Y362894D01*
X448057Y361789D01*
X446383Y360936D01*
X444596Y360355D01*
X443323Y360154D01*
X443323Y370477D01*
G37*
%LPD*%
%LPC*%
G36*
X265323Y370477D02*
X265323Y370477D01*
X275646Y370477D01*
X275445Y369204D01*
X274864Y367417D01*
X274011Y365743D01*
X272906Y364222D01*
X271578Y362894D01*
X270057Y361789D01*
X268383Y360936D01*
X266596Y360355D01*
X265323Y360154D01*
X265323Y370477D01*
G37*
%LPD*%
%LPC*%
G36*
X90323Y370477D02*
X90323Y370477D01*
X100646Y370477D01*
X100445Y369204D01*
X99864Y367417D01*
X99011Y365743D01*
X97906Y364222D01*
X96578Y362894D01*
X95057Y361789D01*
X93383Y360936D01*
X91596Y360355D01*
X90323Y360154D01*
X90323Y370477D01*
G37*
%LPD*%
%LPC*%
G36*
X319323Y998577D02*
X319323Y998577D01*
X329646Y998577D01*
X329445Y997304D01*
X328864Y995517D01*
X328011Y993843D01*
X326906Y992322D01*
X325578Y990994D01*
X324057Y989889D01*
X322383Y989036D01*
X320596Y988455D01*
X319323Y988254D01*
X319323Y998577D01*
G37*
%LPD*%
%LPC*%
G36*
X116123Y998577D02*
X116123Y998577D01*
X126446Y998577D01*
X126245Y997304D01*
X125664Y995517D01*
X124811Y993843D01*
X123706Y992322D01*
X122378Y990994D01*
X120857Y989889D01*
X119183Y989036D01*
X117396Y988455D01*
X116123Y988254D01*
X116123Y998577D01*
G37*
%LPD*%
%LPC*%
G36*
X192323Y998577D02*
X192323Y998577D01*
X202646Y998577D01*
X202445Y997304D01*
X201864Y995517D01*
X201011Y993843D01*
X199906Y992322D01*
X198578Y990994D01*
X197057Y989889D01*
X195383Y989036D01*
X193596Y988455D01*
X192323Y988254D01*
X192323Y998577D01*
G37*
%LPD*%
%LPC*%
G36*
X370123Y998577D02*
X370123Y998577D01*
X380446Y998577D01*
X380245Y997304D01*
X379664Y995517D01*
X378811Y993843D01*
X377706Y992322D01*
X376378Y990994D01*
X374857Y989889D01*
X373183Y989036D01*
X371396Y988455D01*
X370123Y988254D01*
X370123Y998577D01*
G37*
%LPD*%
%LPC*%
G36*
X14523Y998577D02*
X14523Y998577D01*
X24846Y998577D01*
X24645Y997304D01*
X24064Y995517D01*
X23211Y993843D01*
X22106Y992322D01*
X20778Y990994D01*
X19257Y989889D01*
X17583Y989036D01*
X15796Y988455D01*
X14523Y988254D01*
X14523Y998577D01*
G37*
%LPD*%
%LPC*%
G36*
X439004Y360355D02*
X439004Y360355D01*
X437217Y360936D01*
X435543Y361789D01*
X434022Y362894D01*
X432694Y364222D01*
X431589Y365743D01*
X430736Y367417D01*
X430155Y369204D01*
X429954Y370477D01*
X440277Y370477D01*
X440277Y360154D01*
X439004Y360355D01*
G37*
%LPD*%
%LPC*%
G36*
X61004Y963055D02*
X61004Y963055D01*
X59217Y963636D01*
X57543Y964489D01*
X56022Y965594D01*
X54694Y966922D01*
X53589Y968443D01*
X52736Y970117D01*
X52155Y971904D01*
X51954Y973177D01*
X62277Y973177D01*
X62277Y962854D01*
X61004Y963055D01*
G37*
%LPD*%
%LPC*%
G36*
X261004Y360355D02*
X261004Y360355D01*
X259217Y360936D01*
X257543Y361789D01*
X256022Y362894D01*
X254694Y364222D01*
X253589Y365743D01*
X252736Y367417D01*
X252155Y369204D01*
X251954Y370477D01*
X262277Y370477D01*
X262277Y360154D01*
X261004Y360355D01*
G37*
%LPD*%
%LPC*%
G36*
X442004Y963055D02*
X442004Y963055D01*
X440217Y963636D01*
X438543Y964489D01*
X437022Y965594D01*
X435694Y966922D01*
X434589Y968443D01*
X433736Y970117D01*
X433155Y971904D01*
X432954Y973177D01*
X443277Y973177D01*
X443277Y962854D01*
X442004Y963055D01*
G37*
%LPD*%
%LPC*%
G36*
X86004Y360355D02*
X86004Y360355D01*
X84217Y360936D01*
X82543Y361789D01*
X81022Y362894D01*
X79694Y364222D01*
X78589Y365743D01*
X77736Y367417D01*
X77155Y369204D01*
X76954Y370477D01*
X87277Y370477D01*
X87277Y360154D01*
X86004Y360355D01*
G37*
%LPD*%
%LPC*%
G36*
X-82677Y370477D02*
X-82677Y370477D01*
X-72354Y370477D01*
X-72555Y369204D01*
X-73136Y367417D01*
X-73989Y365743D01*
X-75094Y364222D01*
X-76422Y362894D01*
X-77943Y361789D01*
X-79617Y360936D01*
X-81404Y360355D01*
X-82677Y360154D01*
X-82677Y370477D01*
G37*
%LPD*%
%LPC*%
G36*
X111804Y988455D02*
X111804Y988455D01*
X110017Y989036D01*
X108343Y989889D01*
X106822Y990994D01*
X105494Y992322D01*
X104389Y993843D01*
X103536Y995517D01*
X102955Y997304D01*
X102754Y998577D01*
X113077Y998577D01*
X113077Y988254D01*
X111804Y988455D01*
G37*
%LPD*%
%LPC*%
G36*
X315004Y988455D02*
X315004Y988455D01*
X313217Y989036D01*
X311543Y989889D01*
X310022Y990994D01*
X308694Y992322D01*
X307589Y993843D01*
X306736Y995517D01*
X306155Y997304D01*
X305954Y998577D01*
X316277Y998577D01*
X316277Y988254D01*
X315004Y988455D01*
G37*
%LPD*%
%LPC*%
G36*
X365804Y988455D02*
X365804Y988455D01*
X364017Y989036D01*
X362343Y989889D01*
X360822Y990994D01*
X359494Y992322D01*
X358389Y993843D01*
X357536Y995517D01*
X356955Y997304D01*
X356754Y998577D01*
X367077Y998577D01*
X367077Y988254D01*
X365804Y988455D01*
G37*
%LPD*%
%LPC*%
G36*
X10204Y988455D02*
X10204Y988455D01*
X8417Y989036D01*
X6743Y989889D01*
X5222Y990994D01*
X3894Y992322D01*
X2789Y993843D01*
X1936Y995517D01*
X1355Y997304D01*
X1154Y998577D01*
X11477Y998577D01*
X11477Y988254D01*
X10204Y988455D01*
G37*
%LPD*%
%LPC*%
G36*
X188004Y988455D02*
X188004Y988455D01*
X186217Y989036D01*
X184543Y989889D01*
X183022Y990994D01*
X181694Y992322D01*
X180589Y993843D01*
X179736Y995517D01*
X179155Y997304D01*
X178954Y998577D01*
X189277Y998577D01*
X189277Y988254D01*
X188004Y988455D01*
G37*
%LPD*%
%LPC*%
G36*
X621223Y758723D02*
X621223Y758723D01*
X621223Y768123D01*
X624224Y768123D01*
X630623Y761724D01*
X630623Y758723D01*
X621223Y758723D01*
G37*
%LPD*%
%LPC*%
G36*
X620223Y499223D02*
X620223Y499223D01*
X620223Y508623D01*
X623224Y508623D01*
X629623Y502224D01*
X629623Y499223D01*
X620223Y499223D01*
G37*
%LPD*%
%LPC*%
G36*
X621223Y583223D02*
X621223Y583223D01*
X621223Y592623D01*
X624224Y592623D01*
X630623Y586224D01*
X630623Y583223D01*
X621223Y583223D01*
G37*
%LPD*%
%LPC*%
G36*
X621023Y659323D02*
X621023Y659323D01*
X621023Y668723D01*
X624024Y668723D01*
X630423Y662324D01*
X630423Y659323D01*
X621023Y659323D01*
G37*
%LPD*%
%LPC*%
G36*
X621223Y570777D02*
X621223Y570777D01*
X621223Y580177D01*
X630623Y580177D01*
X630623Y577176D01*
X624224Y570777D01*
X621223Y570777D01*
G37*
%LPD*%
%LPC*%
G36*
X607777Y499223D02*
X607777Y499223D01*
X607777Y502224D01*
X614176Y508623D01*
X617177Y508623D01*
X617177Y499223D01*
X607777Y499223D01*
G37*
%LPD*%
%LPC*%
G36*
X608777Y583223D02*
X608777Y583223D01*
X608777Y586224D01*
X615176Y592623D01*
X618177Y592623D01*
X618177Y583223D01*
X608777Y583223D01*
G37*
%LPD*%
%LPC*%
G36*
X620223Y486777D02*
X620223Y486777D01*
X620223Y496177D01*
X629623Y496177D01*
X629623Y493176D01*
X623224Y486777D01*
X620223Y486777D01*
G37*
%LPD*%
%LPC*%
G36*
X608777Y758723D02*
X608777Y758723D01*
X608777Y761724D01*
X615176Y768123D01*
X618177Y768123D01*
X618177Y758723D01*
X608777Y758723D01*
G37*
%LPD*%
%LPC*%
G36*
X621223Y746277D02*
X621223Y746277D01*
X621223Y755677D01*
X630623Y755677D01*
X630623Y752676D01*
X624224Y746277D01*
X621223Y746277D01*
G37*
%LPD*%
%LPC*%
G36*
X608577Y659323D02*
X608577Y659323D01*
X608577Y662324D01*
X614976Y668723D01*
X617977Y668723D01*
X617977Y659323D01*
X608577Y659323D01*
G37*
%LPD*%
%LPC*%
G36*
X621023Y646877D02*
X621023Y646877D01*
X621023Y656277D01*
X630423Y656277D01*
X630423Y653276D01*
X624024Y646877D01*
X621023Y646877D01*
G37*
%LPD*%
%LPC*%
G36*
X614176Y486777D02*
X614176Y486777D01*
X607777Y493176D01*
X607777Y496177D01*
X617177Y496177D01*
X617177Y486777D01*
X614176Y486777D01*
G37*
%LPD*%
%LPC*%
G36*
X615176Y746277D02*
X615176Y746277D01*
X608777Y752676D01*
X608777Y755677D01*
X618177Y755677D01*
X618177Y746277D01*
X615176Y746277D01*
G37*
%LPD*%
%LPC*%
G36*
X614976Y646877D02*
X614976Y646877D01*
X608577Y653276D01*
X608577Y656277D01*
X617977Y656277D01*
X617977Y646877D01*
X614976Y646877D01*
G37*
%LPD*%
%LPC*%
G36*
X615176Y570777D02*
X615176Y570777D01*
X608777Y577176D01*
X608777Y580177D01*
X618177Y580177D01*
X618177Y570777D01*
X615176Y570777D01*
G37*
%LPD*%
%LPC*%
G36*
X-258432Y824023D02*
X-258432Y824023D01*
X-258315Y824760D01*
X-257846Y826205D01*
X-257156Y827559D01*
X-256263Y828788D01*
X-255188Y829863D01*
X-253959Y830756D01*
X-252605Y831446D01*
X-251160Y831915D01*
X-250423Y832032D01*
X-250423Y824023D01*
X-258432Y824023D01*
G37*
%LPD*%
%LPC*%
G36*
X-257832Y522223D02*
X-257832Y522223D01*
X-257715Y522960D01*
X-257246Y524405D01*
X-256556Y525759D01*
X-255663Y526988D01*
X-254588Y528063D01*
X-253359Y528956D01*
X-252005Y529646D01*
X-250560Y530115D01*
X-249823Y530232D01*
X-249823Y522223D01*
X-257832Y522223D01*
G37*
%LPD*%
%LPC*%
G36*
X-247377Y824023D02*
X-247377Y824023D01*
X-247377Y832032D01*
X-246640Y831915D01*
X-245195Y831446D01*
X-243841Y830756D01*
X-242612Y829863D01*
X-241537Y828788D01*
X-240644Y827559D01*
X-239954Y826205D01*
X-239485Y824760D01*
X-239368Y824023D01*
X-247377Y824023D01*
G37*
%LPD*%
%LPC*%
G36*
X-251160Y813085D02*
X-251160Y813085D01*
X-252605Y813554D01*
X-253959Y814244D01*
X-255188Y815137D01*
X-256263Y816212D01*
X-257156Y817441D01*
X-257846Y818795D01*
X-258315Y820240D01*
X-258432Y820977D01*
X-250423Y820977D01*
X-250423Y812968D01*
X-251160Y813085D01*
G37*
%LPD*%
%LPC*%
G36*
X-246777Y522223D02*
X-246777Y522223D01*
X-246777Y530232D01*
X-246040Y530115D01*
X-244595Y529646D01*
X-243241Y528956D01*
X-242012Y528063D01*
X-240937Y526988D01*
X-240044Y525759D01*
X-239354Y524405D01*
X-238885Y522960D01*
X-238768Y522223D01*
X-246777Y522223D01*
G37*
%LPD*%
%LPC*%
G36*
X-250560Y511285D02*
X-250560Y511285D01*
X-252005Y511754D01*
X-253359Y512444D01*
X-254588Y513337D01*
X-255663Y514412D01*
X-256556Y515641D01*
X-257246Y516995D01*
X-257715Y518440D01*
X-257832Y519177D01*
X-249823Y519177D01*
X-249823Y511168D01*
X-250560Y511285D01*
G37*
%LPD*%
%LPC*%
G36*
X-247377Y820977D02*
X-247377Y820977D01*
X-239368Y820977D01*
X-239485Y820240D01*
X-239954Y818795D01*
X-240644Y817441D01*
X-241537Y816212D01*
X-242612Y815137D01*
X-243841Y814244D01*
X-245195Y813554D01*
X-246640Y813085D01*
X-247377Y812968D01*
X-247377Y820977D01*
G37*
%LPD*%
%LPC*%
G36*
X-246777Y519177D02*
X-246777Y519177D01*
X-238768Y519177D01*
X-238885Y518440D01*
X-239354Y516995D01*
X-240044Y515641D01*
X-240937Y514412D01*
X-242012Y513337D01*
X-243241Y512444D01*
X-244595Y511754D01*
X-246040Y511285D01*
X-246777Y511168D01*
X-246777Y519177D01*
G37*
%LPD*%
%LPC*%
G36*
X350499Y582499D02*
X350499Y582499D01*
X350499Y589081D01*
X354874Y589081D01*
X355521Y588908D01*
X356100Y588573D01*
X356573Y588100D01*
X356908Y587521D01*
X357081Y586874D01*
X357081Y582499D01*
X350499Y582499D01*
G37*
%LPD*%
%LPC*%
G36*
X349499Y769499D02*
X349499Y769499D01*
X349499Y776081D01*
X353875Y776081D01*
X354521Y775908D01*
X355100Y775573D01*
X355573Y775100D01*
X355908Y774521D01*
X356081Y773874D01*
X356081Y769499D01*
X349499Y769499D01*
G37*
%LPD*%
%LPC*%
G36*
X349499Y759919D02*
X349499Y759919D01*
X349499Y766501D01*
X356081Y766501D01*
X356081Y762126D01*
X355908Y761479D01*
X355573Y760900D01*
X355100Y760427D01*
X354521Y760092D01*
X353874Y759919D01*
X349499Y759919D01*
G37*
%LPD*%
%LPC*%
G36*
X339919Y769499D02*
X339919Y769499D01*
X339919Y773874D01*
X340092Y774521D01*
X340427Y775100D01*
X340900Y775573D01*
X341479Y775908D01*
X342126Y776081D01*
X346501Y776081D01*
X346501Y769499D01*
X339919Y769499D01*
G37*
%LPD*%
%LPC*%
G36*
X350499Y572919D02*
X350499Y572919D01*
X350499Y579501D01*
X357081Y579501D01*
X357081Y575126D01*
X356908Y574479D01*
X356573Y573900D01*
X356100Y573427D01*
X355521Y573092D01*
X354874Y572919D01*
X350499Y572919D01*
G37*
%LPD*%
%LPC*%
G36*
X340919Y582499D02*
X340919Y582499D01*
X340919Y586874D01*
X341092Y587521D01*
X341427Y588100D01*
X341900Y588573D01*
X342479Y588908D01*
X343126Y589081D01*
X347501Y589081D01*
X347501Y582499D01*
X340919Y582499D01*
G37*
%LPD*%
%LPC*%
G36*
X343126Y572919D02*
X343126Y572919D01*
X342479Y573092D01*
X341900Y573427D01*
X341427Y573900D01*
X341092Y574479D01*
X340919Y575126D01*
X340919Y579501D01*
X347501Y579501D01*
X347501Y572919D01*
X343126Y572919D01*
G37*
%LPD*%
%LPC*%
G36*
X342126Y759919D02*
X342126Y759919D01*
X341479Y760092D01*
X340900Y760427D01*
X340427Y760900D01*
X340092Y761479D01*
X339919Y762126D01*
X339919Y766501D01*
X346501Y766501D01*
X346501Y759919D01*
X342126Y759919D01*
G37*
%LPD*%
%LPC*%
G36*
X190799Y1000099D02*
X190799Y1000099D01*
X190799Y1000101D01*
X190801Y1000101D01*
X190801Y1000099D01*
X190799Y1000099D01*
G37*
%LPD*%
%LPC*%
G36*
X619699Y757199D02*
X619699Y757199D01*
X619699Y757201D01*
X619701Y757201D01*
X619701Y757199D01*
X619699Y757199D01*
G37*
%LPD*%
%LPC*%
G36*
X-233901Y610799D02*
X-233901Y610799D01*
X-233901Y610801D01*
X-233899Y610801D01*
X-233899Y610799D01*
X-233901Y610799D01*
G37*
%LPD*%
%LPC*%
G36*
X-233901Y703799D02*
X-233901Y703799D01*
X-233901Y703801D01*
X-233899Y703801D01*
X-233899Y703799D01*
X-233901Y703799D01*
G37*
%LPD*%
%LPC*%
G36*
X323399Y494399D02*
X323399Y494399D01*
X323399Y494401D01*
X323401Y494401D01*
X323401Y494399D01*
X323399Y494399D01*
G37*
%LPD*%
%LPC*%
G36*
X-248901Y822499D02*
X-248901Y822499D01*
X-248901Y822501D01*
X-248899Y822501D01*
X-248899Y822499D01*
X-248901Y822499D01*
G37*
%LPD*%
%LPC*%
G36*
X-136561Y893019D02*
X-136561Y893019D01*
X-136561Y893021D01*
X-136559Y893021D01*
X-136559Y893019D01*
X-136561Y893019D01*
G37*
%LPD*%
%LPC*%
G36*
X444799Y974699D02*
X444799Y974699D01*
X444799Y974701D01*
X444801Y974701D01*
X444801Y974699D01*
X444799Y974699D01*
G37*
%LPD*%
%LPC*%
G36*
X63799Y974699D02*
X63799Y974699D01*
X63799Y974701D01*
X63801Y974701D01*
X63801Y974699D01*
X63799Y974699D01*
G37*
%LPD*%
%LPC*%
G36*
X368599Y1000099D02*
X368599Y1000099D01*
X368599Y1000101D01*
X368601Y1000101D01*
X368601Y1000099D01*
X368599Y1000099D01*
G37*
%LPD*%
%LPC*%
G36*
X96939Y891719D02*
X96939Y891719D01*
X96939Y891721D01*
X96941Y891721D01*
X96941Y891719D01*
X96939Y891719D01*
G37*
%LPD*%
%LPC*%
G36*
X619699Y581699D02*
X619699Y581699D01*
X619699Y581701D01*
X619701Y581701D01*
X619701Y581699D01*
X619699Y581699D01*
G37*
%LPD*%
%LPC*%
G36*
X441799Y371999D02*
X441799Y371999D01*
X441799Y372001D01*
X441801Y372001D01*
X441801Y371999D01*
X441799Y371999D01*
G37*
%LPD*%
%LPC*%
G36*
X263799Y371999D02*
X263799Y371999D01*
X263799Y372001D01*
X263801Y372001D01*
X263801Y371999D01*
X263799Y371999D01*
G37*
%LPD*%
%LPC*%
G36*
X88799Y371999D02*
X88799Y371999D01*
X88799Y372001D01*
X88801Y372001D01*
X88801Y371999D01*
X88799Y371999D01*
G37*
%LPD*%
%LPC*%
G36*
X-84201Y371999D02*
X-84201Y371999D01*
X-84201Y372001D01*
X-84199Y372001D01*
X-84199Y371999D01*
X-84201Y371999D01*
G37*
%LPD*%
%LPC*%
G36*
X619499Y657799D02*
X619499Y657799D01*
X619499Y657801D01*
X619501Y657801D01*
X619501Y657799D01*
X619499Y657799D01*
G37*
%LPD*%
%LPC*%
G36*
X618699Y497699D02*
X618699Y497699D01*
X618699Y497701D01*
X618701Y497701D01*
X618701Y497699D01*
X618699Y497699D01*
G37*
%LPD*%
%LPC*%
G36*
X96939Y495479D02*
X96939Y495479D01*
X96939Y495481D01*
X96941Y495481D01*
X96941Y495479D01*
X96939Y495479D01*
G37*
%LPD*%
%LPC*%
G36*
X12999Y1000099D02*
X12999Y1000099D01*
X12999Y1000101D01*
X13001Y1000101D01*
X13001Y1000099D01*
X12999Y1000099D01*
G37*
%LPD*%
%LPC*%
G36*
X-248301Y520699D02*
X-248301Y520699D01*
X-248301Y520701D01*
X-248299Y520701D01*
X-248299Y520699D01*
X-248301Y520699D01*
G37*
%LPD*%
%LPC*%
G36*
X114599Y1000099D02*
X114599Y1000099D01*
X114599Y1000101D01*
X114601Y1000101D01*
X114601Y1000099D01*
X114599Y1000099D01*
G37*
%LPD*%
%LPC*%
G36*
X317799Y1000099D02*
X317799Y1000099D01*
X317799Y1000101D01*
X317801Y1000101D01*
X317801Y1000099D01*
X317799Y1000099D01*
G37*
%LPD*%
%LPC*%
G36*
X-136561Y496779D02*
X-136561Y496779D01*
X-136561Y496781D01*
X-136559Y496781D01*
X-136559Y496779D01*
X-136561Y496779D01*
G37*
%LPD*%
D10*
X-248300Y540700D03*
X-248300Y520700D03*
D11*
X-37800Y974700D03*
X-37800Y1000100D03*
X-12400Y974700D03*
X-12400Y1000100D03*
X13000Y974700D03*
X13000Y1000100D03*
X38400Y974700D03*
X38400Y1000100D03*
X63800Y974700D03*
X63800Y1000100D03*
X89200Y974700D03*
X89200Y1000100D03*
X114600Y974700D03*
X114600Y1000100D03*
X140000Y974700D03*
X140000Y1000100D03*
X165400Y974700D03*
X165400Y1000100D03*
X190800Y974700D03*
X190800Y1000100D03*
X216200Y974700D03*
X216200Y1000100D03*
X241600Y974700D03*
X241600Y1000100D03*
X267000Y974700D03*
X267000Y1000100D03*
X292400Y974700D03*
X292400Y1000100D03*
X317800Y974700D03*
X317800Y1000100D03*
X343200Y974700D03*
X343200Y1000100D03*
X368600Y974700D03*
X368600Y1000100D03*
X394000Y974700D03*
X394000Y1000100D03*
X419400Y974700D03*
X419400Y1000100D03*
X444800Y974700D03*
X444800Y1000100D03*
D12*
X619700Y731800D03*
X619700Y757200D03*
X618700Y472300D03*
X618700Y497700D03*
X619700Y556300D03*
X619700Y581700D03*
X619500Y632400D03*
X619500Y657800D03*
D13*
X537900Y721500D03*
X537900Y772300D03*
X537900Y479800D03*
X537900Y530600D03*
X537900Y554100D03*
X537900Y604900D03*
X537900Y627900D03*
X537900Y678700D03*
D14*
X269660Y891720D03*
X96940Y891720D03*
X96940Y495480D03*
X269660Y495480D03*
D15*
X514300Y865700D03*
X514300Y912690D03*
X514300Y818710D03*
X641300Y840300D03*
X641300Y891100D03*
D10*
X-248900Y842500D03*
X-248900Y822500D03*
D14*
X36160Y893020D03*
X-136560Y893020D03*
X-136560Y496780D03*
X36160Y496780D03*
D16*
X-226360Y661600D02*
X-241440Y661600D01*
X-241440Y636200D02*
X-226360Y636200D01*
X-226360Y610800D02*
X-241440Y610800D01*
X-241440Y754600D02*
X-226360Y754600D01*
X-226360Y729200D02*
X-241440Y729200D01*
X-241440Y703800D02*
X-226360Y703800D01*
D17*
X315018Y494400D02*
X331782Y494400D01*
X331782Y469000D02*
X315018Y469000D01*
X315018Y443600D02*
X331782Y443600D01*
D18*
X348000Y893000D03*
X373400Y893000D03*
X398800Y893000D03*
X424200Y893000D03*
X449600Y893000D03*
X348000Y768000D03*
X373400Y768000D03*
X398800Y768000D03*
X424200Y768000D03*
X449600Y768000D03*
X349000Y706000D03*
X374400Y706000D03*
X399800Y706000D03*
X425200Y706000D03*
X450600Y706000D03*
X349000Y581000D03*
X374400Y581000D03*
X399800Y581000D03*
X425200Y581000D03*
X450600Y581000D03*
D11*
X-135000Y372000D03*
X-109600Y372000D03*
X-84200Y372000D03*
X-58800Y372000D03*
X-33400Y372000D03*
X-8000Y372000D03*
X38000Y372000D03*
X63400Y372000D03*
X88800Y372000D03*
X114200Y372000D03*
X139600Y372000D03*
X165000Y372000D03*
X213000Y372000D03*
X238400Y372000D03*
X263800Y372000D03*
X289200Y372000D03*
X314600Y372000D03*
X340000Y372000D03*
X391000Y372000D03*
X416400Y372000D03*
X441800Y372000D03*
X467200Y372000D03*
X492600Y372000D03*
X518000Y372000D03*
X-170000Y445000D03*
X-195400Y445000D03*
D19*
X245000Y625000D03*
X140000Y880000D03*
X150000Y935000D03*
D20*
X-234117Y636753D02*
X-239772Y636753D01*
X-258999Y655980D01*
X-258999Y712530D01*
X-243165Y728364D01*
X-234117Y728364D01*
X-234117Y636753D02*
X-233900Y636200D01*
X-234117Y728364D02*
X-233900Y729200D01*
X-57681Y377754D02*
X-57681Y372099D01*
X27710Y463145D02*
X29406Y464841D01*
X27710Y463145D02*
X-57681Y377754D01*
X29406Y464841D02*
X29406Y490854D01*
X35061Y496509D01*
X-57681Y372099D02*
X-58800Y372000D01*
X35061Y496509D02*
X36160Y496780D01*
X113100Y377754D02*
X113100Y372099D01*
X105183Y385671D02*
X27710Y463145D01*
X105183Y385671D02*
X113100Y377754D01*
X113100Y372099D02*
X114200Y372000D01*
X285012Y375492D02*
X288405Y372099D01*
X285012Y375492D02*
X285012Y376623D01*
X279357Y382278D01*
X279357Y383409D01*
X271440Y391326D01*
X110838Y391326D01*
X105183Y385671D01*
X288405Y372099D02*
X289200Y372000D01*
X463710Y375492D02*
X467103Y372099D01*
X463710Y375492D02*
X463710Y376623D01*
X449007Y391326D01*
X285012Y391326D01*
X280488Y386802D01*
X467103Y372099D02*
X467200Y372000D01*
X280488Y386802D02*
X279357Y383409D01*
X-223938Y635622D02*
X-230724Y635622D01*
X-223938Y635622D02*
X-208104Y619788D01*
X-208104Y456924D01*
X-195663Y444483D01*
X-230724Y635622D02*
X-233900Y636200D01*
X-195400Y445000D02*
X-195663Y444483D01*
D21*
X538356Y721578D02*
X548535Y731757D01*
X618657Y731757D01*
X538356Y721578D02*
X537900Y721500D01*
X618657Y731757D02*
X619700Y731800D01*
X599430Y479544D02*
X538356Y479544D01*
X599430Y479544D02*
X606216Y472758D01*
X618657Y472758D01*
X538356Y479544D02*
X537900Y479800D01*
X618657Y472758D02*
X618700Y472300D01*
X603954Y553059D02*
X538356Y553059D01*
X603954Y553059D02*
X607347Y556452D01*
X618657Y556452D01*
X538356Y553059D02*
X537900Y554100D01*
X618657Y556452D02*
X619700Y556300D01*
X602823Y627705D02*
X538356Y627705D01*
X602823Y627705D02*
X607347Y632229D01*
X618657Y632229D01*
X538356Y627705D02*
X537900Y627900D01*
X618657Y632229D02*
X619500Y632400D01*
X503295Y934206D02*
X386802Y934206D01*
X347217Y973791D01*
X343824Y973791D01*
X343200Y974700D01*
D19*
X503295Y934206D03*
D21*
X524784Y692172D02*
X537225Y679731D01*
X524784Y692172D02*
X524784Y734019D01*
X555321Y764556D01*
X555321Y890097D01*
X539487Y905931D01*
X539487Y934206D01*
X452400Y1021293D01*
X361920Y1021293D01*
X343824Y1003197D01*
X343824Y1000935D01*
X537225Y679731D02*
X537900Y678700D01*
X343200Y1000100D02*
X343824Y1000935D01*
D20*
X538356Y776997D02*
X538356Y772473D01*
X538356Y776997D02*
X540618Y779259D01*
X540618Y882180D01*
X514605Y908193D01*
X514605Y911586D01*
X538356Y772473D02*
X537900Y772300D01*
X514605Y911586D02*
X514300Y912690D01*
X322335Y892359D02*
X270309Y892359D01*
X322335Y892359D02*
X338169Y908193D01*
X496509Y908193D01*
X497640Y909324D01*
X501033Y909324D01*
X503295Y911586D01*
X511212Y911586D01*
X270309Y892359D02*
X269660Y891720D01*
X511212Y911586D02*
X514300Y912690D01*
X-246558Y842595D02*
X-248820Y842595D01*
X-246558Y842595D02*
X-237510Y851643D01*
X-217152Y851643D01*
X-106314Y962481D01*
X-49764Y962481D01*
X-38454Y973791D01*
X-248820Y842595D02*
X-248900Y842500D01*
X-38454Y973791D02*
X-37800Y974700D01*
X314418Y469365D02*
X322335Y469365D01*
X314418Y469365D02*
X290667Y493116D01*
X290667Y761163D01*
X168519Y883311D01*
X168519Y955695D02*
X168519Y959088D01*
X168519Y955695D02*
X168519Y883311D01*
X168519Y959088D02*
X165126Y962481D01*
X165126Y967005D01*
X163995Y968136D01*
X163995Y972660D01*
X165126Y973791D01*
X322335Y469365D02*
X323400Y469000D01*
X165126Y973791D02*
X165400Y974700D01*
X-45240Y955695D02*
X-48633Y959088D01*
X-45240Y955695D02*
X168519Y955695D01*
X-48633Y959088D02*
X-49764Y962481D01*
D21*
X-37323Y1000935D02*
X-33930Y1000935D01*
X-24882Y1009983D01*
X-15834Y1000935D01*
X-12441Y1000935D01*
X-37323Y1000935D02*
X-37800Y1000100D01*
X-12441Y1000935D02*
X-12400Y1000100D01*
X425256Y892359D02*
X432042Y892359D01*
X437697Y886704D01*
X437697Y884442D01*
X441090Y881049D01*
X472758Y881049D01*
X490854Y899145D01*
X425256Y892359D02*
X424200Y893000D01*
D19*
X490854Y899145D03*
D21*
X230724Y810927D02*
X230724Y807534D01*
X230724Y810927D02*
X119886Y921765D01*
X119886Y935337D01*
D19*
X230724Y807534D03*
X119886Y935337D03*
D21*
X365313Y892359D02*
X373230Y892359D01*
X365313Y892359D02*
X359658Y886704D01*
X359658Y884442D01*
X348348Y873132D01*
X236379Y873132D01*
X185484Y924027D01*
X373230Y892359D02*
X373400Y893000D01*
D19*
X185484Y924027D03*
D21*
X333645Y893490D02*
X347217Y893490D01*
X333645Y893490D02*
X323466Y883311D01*
X301977Y883311D01*
X347217Y893490D02*
X348000Y893000D01*
D19*
X301977Y883311D03*
D21*
X450138Y767949D02*
X450138Y750984D01*
X411684Y712530D01*
X411684Y697827D01*
X407160Y693303D01*
X321204Y693303D01*
X-31668Y481806D02*
X-31668Y478413D01*
X-134589Y375492D01*
X-134589Y372099D01*
X449600Y768000D02*
X450138Y767949D01*
X-134589Y372099D02*
X-135000Y372000D01*
D19*
X321204Y693303D03*
X-31668Y481806D03*
D21*
X126672Y489723D02*
X188877Y489723D01*
X126672Y489723D02*
X111969Y475020D01*
X81432Y475020D01*
X55419Y501033D01*
X55419Y511212D01*
X50895Y515736D01*
X21489Y515736D01*
X-5655Y488592D01*
X-5655Y461448D01*
X-78039Y389064D01*
X-95004Y389064D01*
X-108576Y375492D01*
X-108576Y372099D01*
X-109600Y372000D01*
D19*
X188877Y489723D03*
D21*
X174174Y481806D02*
X111969Y419601D01*
D19*
X174174Y481806D03*
X111969Y419601D03*
D21*
X93873Y411684D02*
X163995Y481806D01*
D19*
X163995Y481806D03*
X93873Y411684D03*
D21*
X425256Y706875D02*
X433173Y706875D01*
X438828Y712530D01*
X438828Y714792D01*
X482937Y758901D01*
X542880Y758901D01*
X550797Y766818D01*
X550797Y887835D01*
X534963Y903669D01*
X534963Y931944D01*
X450138Y1016769D01*
X438828Y1016769D01*
X422994Y1000935D01*
X419601Y1000935D01*
X425256Y706875D02*
X425200Y706000D01*
X419400Y1000100D02*
X419601Y1000935D01*
X400374Y723840D02*
X400374Y706875D01*
X400374Y723840D02*
X437697Y761163D01*
X437697Y832416D01*
X498771Y893490D01*
X498771Y947778D02*
X445614Y1000935D01*
X400374Y706875D02*
X399800Y706000D01*
X444800Y1000100D02*
X445614Y1000935D01*
D19*
X498771Y893490D03*
X498771Y947778D03*
D21*
X374361Y719316D02*
X374361Y706875D01*
X374361Y719316D02*
X289536Y804141D01*
X289536Y851643D01*
X272571Y868608D01*
X230724Y868608D01*
X177567Y921765D01*
X177567Y934206D01*
X374361Y706875D02*
X374400Y706000D01*
D19*
X177567Y934206D03*
D21*
X210366Y824499D02*
X210366Y821106D01*
X210366Y824499D02*
X111969Y922896D01*
D19*
X210366Y821106D03*
X111969Y922896D03*
D21*
X347217Y472758D02*
X347217Y437697D01*
X309894Y400374D01*
X238641Y400374D01*
D19*
X347217Y472758D03*
X238641Y400374D03*
D21*
X400374Y400374D02*
X400374Y580203D01*
X399800Y581000D01*
D19*
X400374Y400374D03*
D21*
X374361Y436566D02*
X374361Y580203D01*
X374361Y436566D02*
X392457Y418470D01*
X374361Y580203D02*
X374400Y581000D01*
D19*
X392457Y418470D03*
D21*
X296322Y434304D02*
X209235Y521391D01*
X209235Y812058D01*
X193401Y827892D01*
X193401Y831285D01*
X249951Y887835D02*
X249951Y905931D01*
X278226Y934206D01*
X376623Y934206D01*
D19*
X296322Y434304D03*
X193401Y831285D03*
X249951Y887835D03*
X376623Y934206D03*
D21*
X459186Y567762D02*
X459186Y557583D01*
X459186Y567762D02*
X608478Y717054D01*
X625443Y717054D01*
X635622Y727233D01*
X635622Y816582D01*
X544011Y908193D01*
X544011Y936468D01*
X454662Y1025817D01*
X188877Y1025817D01*
X166257Y1003197D01*
X166257Y1000935D01*
X165400Y1000100D01*
D19*
X459186Y557583D03*
D21*
X517998Y374361D02*
X517998Y372099D01*
X517998Y374361D02*
X411684Y480675D01*
X411684Y592644D01*
X299715Y704613D01*
X196794Y807534D02*
X196794Y810927D01*
X117624Y890097D01*
X117624Y907062D01*
X104052Y920634D01*
X104052Y929682D01*
X121017Y946647D01*
X130065Y946647D01*
X517998Y372099D02*
X518000Y372000D01*
D19*
X299715Y704613D03*
X196794Y807534D03*
X130065Y946647D03*
D21*
X186615Y470496D02*
X186615Y463710D01*
X186615Y470496D02*
X204711Y488592D01*
X204711Y809796D01*
X185484Y829023D01*
X185484Y839202D01*
X225069Y904800D02*
X225069Y935337D01*
X253344Y963612D01*
X253344Y964743D01*
X252213Y965874D01*
X252213Y967005D01*
X254475Y969267D01*
X254475Y979446D01*
X252213Y981708D01*
X252213Y983970D01*
X253344Y985101D01*
X242034Y996411D01*
X242034Y999804D01*
X241600Y1000100D01*
D19*
X186615Y463710D03*
X185484Y839202D03*
X225069Y904800D03*
D21*
X178698Y469365D02*
X178698Y403767D01*
X178698Y469365D02*
X196794Y487461D01*
X196794Y797355D01*
X177567Y816582D01*
X177567Y819975D01*
X222807Y896883D02*
X214890Y904800D01*
X222807Y896883D02*
X234117Y896883D01*
X296322Y959088D01*
X299715Y959088D01*
X306501Y965874D01*
X306501Y968136D01*
X305370Y969267D01*
X305370Y979446D01*
X297453Y987363D01*
X287274Y987363D01*
X286143Y988494D01*
X283881Y988494D01*
X282750Y987363D01*
X270309Y999804D01*
X268047Y999804D01*
X267000Y1000100D01*
D19*
X178698Y403767D03*
X177567Y819975D03*
X214890Y904800D03*
D21*
X-23751Y946647D02*
X-23751Y463710D01*
X-28751Y458710D01*
D19*
X-28751Y458710D03*
X-23751Y946647D03*
D21*
X-13572Y944385D02*
X-13572Y463710D01*
X-13572Y944385D02*
X-11310Y946647D01*
D19*
X-13572Y463710D03*
X-11310Y946647D03*
X140000Y420000D03*
M02*
