G04 EAGLE Gerber RS-274X export*
G75*
%MOMM*%
%FSLAX34Y34*%
%LPD*%
%INBottom Copper*%
%IPPOS*%
%AMOC8*
5,1,8,0,0,1.08239X$1,22.5*%
G01*
%ADD10C,1.422400*%
%ADD11C,1.879600*%
%ADD12P,1.814519X8X112.500000*%
%ADD13P,1.429621X8X112.500000*%
%ADD14R,2.500000X2.500000*%
%ADD15C,2.819400*%
%ADD16C,1.508000*%
%ADD17C,1.676400*%
%ADD18R,1.108000X1.108000*%
%ADD19C,0.756400*%
%ADD20C,0.700000*%
%ADD21C,0.300000*%

G36*
X657113Y349168D02*
X657113Y349168D01*
X657132Y349166D01*
X657233Y349188D01*
X657336Y349205D01*
X657353Y349214D01*
X657372Y349218D01*
X657461Y349271D01*
X657553Y349320D01*
X657567Y349334D01*
X657584Y349344D01*
X657651Y349423D01*
X657723Y349498D01*
X657731Y349516D01*
X657744Y349531D01*
X657783Y349627D01*
X657827Y349721D01*
X657829Y349741D01*
X657836Y349759D01*
X657855Y349925D01*
X658824Y1032082D01*
X658821Y1032102D01*
X658823Y1032122D01*
X658801Y1032223D01*
X658784Y1032324D01*
X658775Y1032342D01*
X658771Y1032362D01*
X658718Y1032451D01*
X658670Y1032542D01*
X658655Y1032556D01*
X658645Y1032573D01*
X658566Y1032640D01*
X658491Y1032711D01*
X658473Y1032720D01*
X658458Y1032733D01*
X658362Y1032772D01*
X658269Y1032815D01*
X658248Y1032818D01*
X658230Y1032825D01*
X658063Y1032844D01*
X-275093Y1033235D01*
X-275113Y1033232D01*
X-275132Y1033234D01*
X-275233Y1033212D01*
X-275336Y1033195D01*
X-275353Y1033186D01*
X-275372Y1033182D01*
X-275461Y1033129D01*
X-275553Y1033080D01*
X-275567Y1033066D01*
X-275584Y1033056D01*
X-275651Y1032977D01*
X-275723Y1032902D01*
X-275731Y1032884D01*
X-275744Y1032869D01*
X-275783Y1032773D01*
X-275827Y1032679D01*
X-275829Y1032659D01*
X-275836Y1032641D01*
X-275855Y1032475D01*
X-276824Y350318D01*
X-276821Y350298D01*
X-276823Y350278D01*
X-276801Y350177D01*
X-276784Y350076D01*
X-276775Y350058D01*
X-276771Y350038D01*
X-276718Y349949D01*
X-276670Y349858D01*
X-276655Y349844D01*
X-276645Y349827D01*
X-276566Y349760D01*
X-276491Y349689D01*
X-276473Y349680D01*
X-276458Y349667D01*
X-276362Y349628D01*
X-276269Y349585D01*
X-276248Y349582D01*
X-276230Y349575D01*
X-276063Y349556D01*
X657093Y349165D01*
X657113Y349168D01*
G37*
%LPC*%
G36*
X490427Y361077D02*
X490427Y361077D01*
X486413Y362740D01*
X483340Y365813D01*
X481677Y369827D01*
X481677Y374173D01*
X483340Y378187D01*
X486413Y381260D01*
X490427Y382923D01*
X494773Y382923D01*
X495361Y382679D01*
X495474Y382652D01*
X495588Y382624D01*
X495594Y382624D01*
X495600Y382623D01*
X495717Y382634D01*
X495833Y382643D01*
X495839Y382645D01*
X495845Y382646D01*
X495953Y382694D01*
X496060Y382739D01*
X496065Y382744D01*
X496070Y382746D01*
X496084Y382759D01*
X496190Y382844D01*
X556597Y443251D01*
X556650Y443325D01*
X556710Y443394D01*
X556722Y443424D01*
X556741Y443451D01*
X556768Y443538D01*
X556802Y443622D01*
X556806Y443663D01*
X556813Y443686D01*
X556812Y443718D01*
X556820Y443789D01*
X556820Y542788D01*
X556809Y542859D01*
X556807Y542930D01*
X556789Y542979D01*
X556781Y543031D01*
X556747Y543094D01*
X556722Y543161D01*
X556690Y543202D01*
X556665Y543248D01*
X556614Y543297D01*
X556569Y543353D01*
X556525Y543382D01*
X556487Y543417D01*
X556422Y543448D01*
X556362Y543486D01*
X556311Y543499D01*
X556264Y543521D01*
X556193Y543529D01*
X556123Y543546D01*
X556071Y543542D01*
X556020Y543548D01*
X555949Y543533D01*
X555878Y543527D01*
X555830Y543507D01*
X555779Y543496D01*
X555718Y543459D01*
X555652Y543431D01*
X555596Y543386D01*
X555568Y543370D01*
X555553Y543352D01*
X555521Y543326D01*
X546252Y534057D01*
X546199Y533983D01*
X546139Y533914D01*
X546127Y533884D01*
X546108Y533857D01*
X546081Y533770D01*
X546047Y533686D01*
X546043Y533645D01*
X546036Y533622D01*
X546037Y533590D01*
X546029Y533519D01*
X546029Y527233D01*
X541267Y522471D01*
X534533Y522471D01*
X529771Y527233D01*
X529771Y533967D01*
X534533Y538729D01*
X541267Y538729D01*
X541279Y538716D01*
X541295Y538705D01*
X541308Y538689D01*
X541395Y538633D01*
X541479Y538573D01*
X541498Y538567D01*
X541515Y538556D01*
X541615Y538531D01*
X541714Y538501D01*
X541734Y538501D01*
X541753Y538496D01*
X541856Y538504D01*
X541960Y538507D01*
X541979Y538514D01*
X541999Y538515D01*
X542094Y538556D01*
X542191Y538591D01*
X542207Y538604D01*
X542225Y538612D01*
X542356Y538716D01*
X552073Y548434D01*
X552126Y548508D01*
X552186Y548577D01*
X552198Y548607D01*
X552217Y548634D01*
X552244Y548721D01*
X552278Y548805D01*
X552282Y548846D01*
X552289Y548869D01*
X552288Y548901D01*
X552296Y548972D01*
X552296Y612910D01*
X552285Y612981D01*
X552283Y613052D01*
X552265Y613101D01*
X552257Y613153D01*
X552223Y613216D01*
X552198Y613283D01*
X552166Y613324D01*
X552141Y613370D01*
X552089Y613419D01*
X552045Y613475D01*
X552001Y613504D01*
X551963Y613539D01*
X551898Y613570D01*
X551838Y613608D01*
X551787Y613621D01*
X551740Y613643D01*
X551669Y613651D01*
X551599Y613668D01*
X551547Y613664D01*
X551496Y613670D01*
X551425Y613655D01*
X551354Y613649D01*
X551306Y613629D01*
X551255Y613618D01*
X551194Y613581D01*
X551128Y613553D01*
X551072Y613508D01*
X551044Y613492D01*
X551029Y613474D01*
X550997Y613448D01*
X546252Y608703D01*
X546199Y608629D01*
X546139Y608560D01*
X546127Y608530D01*
X546108Y608503D01*
X546081Y608416D01*
X546047Y608332D01*
X546043Y608291D01*
X546036Y608268D01*
X546037Y608236D01*
X546029Y608165D01*
X546029Y601533D01*
X541267Y596771D01*
X534533Y596771D01*
X529771Y601533D01*
X529771Y608267D01*
X534533Y613029D01*
X541344Y613029D01*
X541442Y613004D01*
X541541Y612974D01*
X541561Y612974D01*
X541580Y612969D01*
X541683Y612977D01*
X541787Y612980D01*
X541806Y612987D01*
X541826Y612988D01*
X541920Y613029D01*
X542018Y613064D01*
X542034Y613077D01*
X542052Y613085D01*
X542183Y613189D01*
X547549Y618556D01*
X547602Y618630D01*
X547662Y618699D01*
X547674Y618729D01*
X547693Y618756D01*
X547720Y618843D01*
X547754Y618927D01*
X547758Y618968D01*
X547765Y618991D01*
X547764Y619023D01*
X547772Y619094D01*
X547772Y904363D01*
X547758Y904453D01*
X547750Y904544D01*
X547738Y904574D01*
X547733Y904606D01*
X547690Y904686D01*
X547654Y904770D01*
X547628Y904802D01*
X547617Y904823D01*
X547594Y904845D01*
X547549Y904901D01*
X521492Y930958D01*
X521418Y931011D01*
X521349Y931071D01*
X521319Y931083D01*
X521292Y931102D01*
X521205Y931129D01*
X521121Y931163D01*
X521080Y931167D01*
X521057Y931174D01*
X521025Y931173D01*
X520954Y931181D01*
X508090Y931181D01*
X508000Y931167D01*
X507909Y931159D01*
X507880Y931147D01*
X507848Y931142D01*
X507767Y931099D01*
X507683Y931063D01*
X507651Y931037D01*
X507630Y931026D01*
X507608Y931003D01*
X507552Y930958D01*
X505493Y928899D01*
X501097Y928899D01*
X499702Y930294D01*
X499644Y930336D01*
X499592Y930385D01*
X499545Y930407D01*
X499503Y930437D01*
X499434Y930459D01*
X499369Y930489D01*
X499317Y930494D01*
X499267Y930510D01*
X499196Y930508D01*
X499125Y930516D01*
X499074Y930505D01*
X499022Y930503D01*
X498954Y930479D01*
X498884Y930464D01*
X498839Y930437D01*
X498791Y930419D01*
X498735Y930374D01*
X498673Y930337D01*
X498639Y930298D01*
X498599Y930265D01*
X498560Y930205D01*
X498513Y930150D01*
X498494Y930102D01*
X498466Y930058D01*
X498448Y929989D01*
X498421Y929922D01*
X498413Y929851D01*
X498405Y929820D01*
X498407Y929797D01*
X498403Y929756D01*
X498403Y918959D01*
X498418Y918863D01*
X498428Y918766D01*
X498438Y918742D01*
X498442Y918716D01*
X498488Y918630D01*
X498528Y918541D01*
X498545Y918522D01*
X498558Y918499D01*
X498628Y918432D01*
X498694Y918360D01*
X498717Y918348D01*
X498736Y918330D01*
X498824Y918289D01*
X498910Y918242D01*
X498935Y918237D01*
X498959Y918226D01*
X499056Y918215D01*
X499152Y918198D01*
X499178Y918202D01*
X499203Y918199D01*
X499299Y918220D01*
X499395Y918234D01*
X499418Y918246D01*
X499444Y918251D01*
X499527Y918301D01*
X499614Y918345D01*
X499633Y918364D01*
X499655Y918377D01*
X499718Y918451D01*
X499786Y918521D01*
X499802Y918550D01*
X499815Y918564D01*
X499827Y918595D01*
X499867Y918668D01*
X501057Y921539D01*
X505451Y925933D01*
X511193Y928312D01*
X517407Y928312D01*
X523149Y925933D01*
X527543Y921539D01*
X529922Y915797D01*
X529922Y909583D01*
X527543Y903841D01*
X523149Y899447D01*
X517407Y897068D01*
X511193Y897068D01*
X505451Y899447D01*
X503095Y901802D01*
X503037Y901844D01*
X502985Y901893D01*
X502938Y901915D01*
X502896Y901946D01*
X502827Y901967D01*
X502762Y901997D01*
X502710Y902003D01*
X502660Y902018D01*
X502589Y902016D01*
X502518Y902024D01*
X502467Y902013D01*
X502415Y902012D01*
X502347Y901987D01*
X502277Y901972D01*
X502232Y901945D01*
X502184Y901927D01*
X502128Y901882D01*
X502066Y901846D01*
X502032Y901806D01*
X501992Y901774D01*
X501953Y901713D01*
X501906Y901659D01*
X501887Y901611D01*
X501859Y901567D01*
X501841Y901497D01*
X501814Y901431D01*
X501806Y901359D01*
X501798Y901328D01*
X501800Y901305D01*
X501796Y901264D01*
X501796Y898285D01*
X501810Y898195D01*
X501818Y898104D01*
X501830Y898075D01*
X501835Y898043D01*
X501878Y897962D01*
X501914Y897878D01*
X501940Y897846D01*
X501951Y897825D01*
X501974Y897803D01*
X502019Y897747D01*
X504078Y895688D01*
X504078Y891292D01*
X500969Y888183D01*
X497188Y888183D01*
X497117Y888172D01*
X497045Y888170D01*
X496996Y888152D01*
X496945Y888144D01*
X496882Y888110D01*
X496814Y888085D01*
X496773Y888053D01*
X496727Y888028D01*
X496678Y887977D01*
X496622Y887932D01*
X496594Y887888D01*
X496558Y887850D01*
X496528Y887785D01*
X496489Y887725D01*
X496476Y887674D01*
X496454Y887627D01*
X496447Y887556D01*
X496429Y887486D01*
X496433Y887434D01*
X496427Y887383D01*
X496443Y887312D01*
X496448Y887241D01*
X496469Y887193D01*
X496480Y887142D01*
X496516Y887081D01*
X496544Y887015D01*
X496589Y886959D01*
X496606Y886931D01*
X496624Y886916D01*
X496649Y886884D01*
X504482Y879051D01*
X504576Y878983D01*
X504671Y878913D01*
X504677Y878911D01*
X504682Y878907D01*
X504793Y878873D01*
X504905Y878837D01*
X504911Y878837D01*
X504917Y878835D01*
X505034Y878838D01*
X505151Y878839D01*
X505158Y878841D01*
X505163Y878841D01*
X505180Y878848D01*
X505312Y878886D01*
X511193Y881322D01*
X517407Y881322D01*
X523149Y878943D01*
X527543Y874549D01*
X529922Y868807D01*
X529922Y862593D01*
X527543Y856851D01*
X523149Y852457D01*
X517407Y850078D01*
X511193Y850078D01*
X505451Y852457D01*
X501057Y856851D01*
X498678Y862593D01*
X498678Y868807D01*
X499021Y869635D01*
X499048Y869749D01*
X499076Y869862D01*
X499076Y869869D01*
X499077Y869875D01*
X499066Y869991D01*
X499057Y870108D01*
X499055Y870113D01*
X499054Y870120D01*
X499006Y870227D01*
X498961Y870334D01*
X498956Y870340D01*
X498954Y870344D01*
X498942Y870358D01*
X498856Y870465D01*
X467507Y901814D01*
X467433Y901867D01*
X467363Y901927D01*
X467333Y901939D01*
X467307Y901958D01*
X467220Y901985D01*
X467135Y902019D01*
X467094Y902023D01*
X467072Y902030D01*
X467040Y902029D01*
X466968Y902037D01*
X341697Y902037D01*
X341607Y902023D01*
X341516Y902015D01*
X341486Y902003D01*
X341454Y901998D01*
X341373Y901955D01*
X341289Y901919D01*
X341257Y901893D01*
X341237Y901882D01*
X341214Y901859D01*
X341158Y901814D01*
X305189Y865845D01*
X248955Y865845D01*
X248865Y865831D01*
X248774Y865823D01*
X248744Y865811D01*
X248712Y865806D01*
X248631Y865763D01*
X248547Y865727D01*
X248515Y865701D01*
X248495Y865690D01*
X248472Y865667D01*
X248416Y865622D01*
X210506Y827712D01*
X210464Y827654D01*
X210415Y827602D01*
X210393Y827555D01*
X210363Y827513D01*
X210342Y827444D01*
X210311Y827379D01*
X210306Y827327D01*
X210290Y827277D01*
X210292Y827206D01*
X210284Y827135D01*
X210295Y827084D01*
X210297Y827032D01*
X210321Y826964D01*
X210337Y826894D01*
X210363Y826849D01*
X210381Y826801D01*
X210426Y826745D01*
X210463Y826683D01*
X210502Y826649D01*
X210535Y826609D01*
X210595Y826570D01*
X210650Y826523D01*
X210698Y826504D01*
X210742Y826476D01*
X210811Y826458D01*
X210878Y826431D01*
X210949Y826423D01*
X210980Y826415D01*
X211004Y826417D01*
X211045Y826413D01*
X212564Y826413D01*
X215673Y823304D01*
X215673Y818908D01*
X215099Y818334D01*
X215087Y818318D01*
X215072Y818306D01*
X215016Y818218D01*
X214955Y818134D01*
X214950Y818115D01*
X214939Y818099D01*
X214914Y817998D01*
X214883Y817899D01*
X214884Y817879D01*
X214879Y817860D01*
X214887Y817757D01*
X214889Y817653D01*
X214896Y817635D01*
X214898Y817615D01*
X214938Y817520D01*
X214974Y817422D01*
X214986Y817407D01*
X214994Y817389D01*
X215099Y817258D01*
X224118Y808239D01*
X224176Y808197D01*
X224228Y808148D01*
X224275Y808126D01*
X224317Y808095D01*
X224386Y808074D01*
X224451Y808044D01*
X224503Y808038D01*
X224553Y808023D01*
X224624Y808025D01*
X224695Y808017D01*
X224746Y808028D01*
X224798Y808029D01*
X224866Y808054D01*
X224936Y808069D01*
X224980Y808096D01*
X225029Y808114D01*
X225085Y808159D01*
X225147Y808195D01*
X225181Y808235D01*
X225221Y808267D01*
X225260Y808328D01*
X225307Y808382D01*
X225326Y808431D01*
X225354Y808474D01*
X225372Y808544D01*
X225399Y808610D01*
X225407Y808682D01*
X225415Y808713D01*
X225413Y808736D01*
X225417Y808777D01*
X225417Y809732D01*
X228526Y812841D01*
X232922Y812841D01*
X234981Y810782D01*
X235055Y810729D01*
X235125Y810669D01*
X235155Y810657D01*
X235181Y810638D01*
X235268Y810611D01*
X235353Y810577D01*
X235394Y810573D01*
X235416Y810566D01*
X235448Y810567D01*
X235519Y810559D01*
X306064Y810559D01*
X306154Y810573D01*
X306245Y810581D01*
X306275Y810593D01*
X306307Y810598D01*
X306387Y810641D01*
X306471Y810677D01*
X306503Y810703D01*
X306524Y810714D01*
X306546Y810737D01*
X306602Y810782D01*
X382423Y886603D01*
X382476Y886677D01*
X382536Y886746D01*
X382548Y886776D01*
X382567Y886803D01*
X382594Y886890D01*
X382628Y886974D01*
X382632Y887015D01*
X382639Y887038D01*
X382638Y887070D01*
X382646Y887141D01*
X382646Y887957D01*
X390073Y895384D01*
X390974Y895384D01*
X390994Y895387D01*
X391013Y895385D01*
X391115Y895407D01*
X391217Y895423D01*
X391234Y895433D01*
X391254Y895437D01*
X391343Y895490D01*
X391434Y895539D01*
X391448Y895553D01*
X391465Y895563D01*
X391532Y895642D01*
X391604Y895717D01*
X391612Y895735D01*
X391625Y895750D01*
X391664Y895846D01*
X391707Y895940D01*
X391709Y895960D01*
X391717Y895978D01*
X391735Y896145D01*
X391735Y899172D01*
X392628Y900065D01*
X404972Y900065D01*
X405865Y899172D01*
X405865Y886828D01*
X404972Y885935D01*
X392628Y885935D01*
X391701Y886863D01*
X391696Y886896D01*
X391662Y886959D01*
X391637Y887026D01*
X391605Y887067D01*
X391580Y887113D01*
X391528Y887162D01*
X391484Y887218D01*
X391440Y887247D01*
X391402Y887282D01*
X391337Y887313D01*
X391277Y887351D01*
X391226Y887364D01*
X391179Y887386D01*
X391108Y887394D01*
X391038Y887411D01*
X390986Y887407D01*
X390935Y887413D01*
X390864Y887398D01*
X390793Y887392D01*
X390745Y887372D01*
X390694Y887361D01*
X390633Y887324D01*
X390567Y887296D01*
X390511Y887251D01*
X390483Y887235D01*
X390468Y887217D01*
X390436Y887191D01*
X388919Y885674D01*
X388866Y885600D01*
X388806Y885531D01*
X388794Y885501D01*
X388775Y885474D01*
X388748Y885387D01*
X388714Y885303D01*
X388710Y885262D01*
X388703Y885239D01*
X388704Y885207D01*
X388696Y885136D01*
X388696Y884320D01*
X308885Y804509D01*
X235519Y804509D01*
X235429Y804495D01*
X235338Y804487D01*
X235309Y804475D01*
X235277Y804470D01*
X235196Y804427D01*
X235112Y804391D01*
X235080Y804365D01*
X235059Y804354D01*
X235037Y804331D01*
X234981Y804286D01*
X232922Y802227D01*
X231967Y802227D01*
X231896Y802216D01*
X231825Y802214D01*
X231776Y802196D01*
X231724Y802188D01*
X231661Y802154D01*
X231594Y802129D01*
X231553Y802097D01*
X231507Y802072D01*
X231458Y802021D01*
X231402Y801976D01*
X231373Y801932D01*
X231338Y801894D01*
X231307Y801829D01*
X231269Y801769D01*
X231256Y801718D01*
X231234Y801671D01*
X231226Y801600D01*
X231209Y801530D01*
X231213Y801478D01*
X231207Y801427D01*
X231222Y801356D01*
X231228Y801285D01*
X231248Y801237D01*
X231259Y801186D01*
X231296Y801125D01*
X231324Y801059D01*
X231369Y801003D01*
X231385Y800975D01*
X231403Y800960D01*
X231429Y800928D01*
X323365Y708992D01*
X323439Y708939D01*
X323508Y708879D01*
X323538Y708867D01*
X323565Y708848D01*
X323652Y708821D01*
X323736Y708787D01*
X323777Y708783D01*
X323800Y708776D01*
X323832Y708777D01*
X323903Y708769D01*
X341174Y708769D01*
X341194Y708772D01*
X341213Y708770D01*
X341315Y708792D01*
X341417Y708808D01*
X341434Y708818D01*
X341454Y708822D01*
X341543Y708875D01*
X341634Y708924D01*
X341648Y708938D01*
X341665Y708948D01*
X341732Y709027D01*
X341804Y709102D01*
X341812Y709120D01*
X341825Y709135D01*
X341864Y709231D01*
X341907Y709325D01*
X341909Y709345D01*
X341917Y709363D01*
X341935Y709530D01*
X341935Y712172D01*
X342828Y713065D01*
X355172Y713065D01*
X356065Y712172D01*
X356065Y699828D01*
X355172Y698935D01*
X342828Y698935D01*
X341935Y699828D01*
X341935Y701958D01*
X341932Y701978D01*
X341934Y701997D01*
X341912Y702099D01*
X341896Y702201D01*
X341886Y702218D01*
X341882Y702238D01*
X341829Y702327D01*
X341780Y702418D01*
X341766Y702432D01*
X341756Y702449D01*
X341677Y702516D01*
X341602Y702588D01*
X341584Y702596D01*
X341569Y702609D01*
X341473Y702648D01*
X341379Y702691D01*
X341359Y702693D01*
X341341Y702701D01*
X341174Y702719D01*
X321082Y702719D01*
X319087Y704714D01*
X209336Y814465D01*
X207320Y816481D01*
X207319Y816492D01*
X207307Y816521D01*
X207302Y816553D01*
X207259Y816634D01*
X207223Y816718D01*
X207197Y816750D01*
X207186Y816771D01*
X207163Y816793D01*
X207118Y816849D01*
X205059Y818908D01*
X205059Y820427D01*
X205048Y820498D01*
X205046Y820570D01*
X205028Y820619D01*
X205020Y820670D01*
X204986Y820733D01*
X204961Y820801D01*
X204929Y820842D01*
X204904Y820888D01*
X204853Y820937D01*
X204808Y820993D01*
X204764Y821021D01*
X204726Y821057D01*
X204661Y821087D01*
X204601Y821126D01*
X204550Y821139D01*
X204503Y821161D01*
X204432Y821168D01*
X204362Y821186D01*
X204310Y821182D01*
X204259Y821188D01*
X204188Y821172D01*
X204117Y821167D01*
X204069Y821146D01*
X204018Y821135D01*
X203957Y821099D01*
X203891Y821071D01*
X203835Y821026D01*
X203807Y821009D01*
X203792Y820991D01*
X203760Y820966D01*
X196934Y814140D01*
X196892Y814082D01*
X196843Y814030D01*
X196821Y813983D01*
X196791Y813941D01*
X196770Y813872D01*
X196739Y813807D01*
X196734Y813755D01*
X196718Y813705D01*
X196720Y813634D01*
X196712Y813563D01*
X196723Y813512D01*
X196725Y813460D01*
X196749Y813392D01*
X196765Y813322D01*
X196791Y813278D01*
X196809Y813229D01*
X196854Y813173D01*
X196891Y813111D01*
X196930Y813077D01*
X196963Y813037D01*
X197023Y812998D01*
X197078Y812951D01*
X197126Y812932D01*
X197170Y812904D01*
X197239Y812886D01*
X197306Y812859D01*
X197377Y812851D01*
X197408Y812843D01*
X197432Y812845D01*
X197473Y812841D01*
X198992Y812841D01*
X202101Y809732D01*
X202101Y806820D01*
X202115Y806730D01*
X202123Y806639D01*
X202135Y806609D01*
X202140Y806577D01*
X202183Y806497D01*
X202219Y806413D01*
X202245Y806381D01*
X202256Y806360D01*
X202279Y806338D01*
X202324Y806282D01*
X298463Y710143D01*
X298537Y710090D01*
X298606Y710030D01*
X298636Y710018D01*
X298663Y709999D01*
X298750Y709972D01*
X298834Y709938D01*
X298875Y709934D01*
X298898Y709927D01*
X298930Y709928D01*
X299001Y709920D01*
X301913Y709920D01*
X305022Y706811D01*
X305022Y702415D01*
X301913Y699306D01*
X297517Y699306D01*
X294408Y702415D01*
X294408Y705327D01*
X294394Y705417D01*
X294386Y705508D01*
X294374Y705538D01*
X294369Y705570D01*
X294326Y705650D01*
X294290Y705734D01*
X294264Y705766D01*
X294253Y705787D01*
X294230Y705809D01*
X294185Y705865D01*
X198046Y802004D01*
X197972Y802057D01*
X197903Y802117D01*
X197873Y802129D01*
X197846Y802148D01*
X197759Y802175D01*
X197675Y802209D01*
X197634Y802213D01*
X197611Y802220D01*
X197579Y802219D01*
X197508Y802227D01*
X194596Y802227D01*
X191487Y805336D01*
X191487Y806855D01*
X191476Y806926D01*
X191474Y806998D01*
X191456Y807047D01*
X191448Y807098D01*
X191414Y807162D01*
X191389Y807229D01*
X191357Y807270D01*
X191332Y807316D01*
X191280Y807365D01*
X191236Y807421D01*
X191192Y807449D01*
X191154Y807485D01*
X191089Y807515D01*
X191029Y807554D01*
X190978Y807567D01*
X190931Y807589D01*
X190860Y807596D01*
X190790Y807614D01*
X190738Y807610D01*
X190687Y807616D01*
X190616Y807600D01*
X190545Y807595D01*
X190497Y807574D01*
X190446Y807563D01*
X190385Y807527D01*
X190319Y807499D01*
X190263Y807454D01*
X190235Y807437D01*
X190220Y807419D01*
X190188Y807394D01*
X185303Y802509D01*
X21624Y802509D01*
X21534Y802495D01*
X21443Y802487D01*
X21413Y802475D01*
X21381Y802470D01*
X21300Y802427D01*
X21216Y802391D01*
X21184Y802365D01*
X21164Y802354D01*
X21141Y802331D01*
X21085Y802286D01*
X-239440Y541761D01*
X-239493Y541687D01*
X-239553Y541617D01*
X-239565Y541587D01*
X-239584Y541561D01*
X-239611Y541474D01*
X-239645Y541389D01*
X-239649Y541348D01*
X-239656Y541326D01*
X-239655Y541294D01*
X-239663Y541222D01*
X-239663Y538982D01*
X-240978Y535808D01*
X-243408Y533378D01*
X-246582Y532063D01*
X-250018Y532063D01*
X-253192Y533378D01*
X-255622Y535808D01*
X-256937Y538982D01*
X-256937Y542418D01*
X-255622Y545592D01*
X-253192Y548022D01*
X-250018Y549337D01*
X-246502Y549337D01*
X-246467Y549328D01*
X-246461Y549328D01*
X-246455Y549327D01*
X-246338Y549338D01*
X-246222Y549347D01*
X-246217Y549349D01*
X-246210Y549350D01*
X-246102Y549398D01*
X-245996Y549443D01*
X-245990Y549448D01*
X-245986Y549450D01*
X-245972Y549462D01*
X-245865Y549548D01*
X13979Y809392D01*
X17146Y812559D01*
X180825Y812559D01*
X180915Y812573D01*
X181006Y812581D01*
X181036Y812593D01*
X181068Y812598D01*
X181149Y812641D01*
X181233Y812677D01*
X181265Y812703D01*
X181285Y812714D01*
X181308Y812737D01*
X181364Y812782D01*
X193261Y824679D01*
X193303Y824737D01*
X193352Y824789D01*
X193374Y824836D01*
X193404Y824878D01*
X193425Y824947D01*
X193456Y825012D01*
X193461Y825064D01*
X193477Y825114D01*
X193475Y825185D01*
X193483Y825256D01*
X193472Y825307D01*
X193470Y825359D01*
X193446Y825427D01*
X193430Y825497D01*
X193404Y825542D01*
X193386Y825590D01*
X193341Y825646D01*
X193304Y825708D01*
X193265Y825742D01*
X193232Y825782D01*
X193172Y825821D01*
X193117Y825868D01*
X193069Y825887D01*
X193025Y825915D01*
X192956Y825933D01*
X192889Y825960D01*
X192818Y825968D01*
X192787Y825976D01*
X192763Y825974D01*
X192722Y825978D01*
X191203Y825978D01*
X188094Y829087D01*
X188094Y833134D01*
X188091Y833154D01*
X188093Y833173D01*
X188071Y833275D01*
X188055Y833377D01*
X188045Y833394D01*
X188041Y833414D01*
X187988Y833503D01*
X187939Y833594D01*
X187925Y833608D01*
X187915Y833625D01*
X187836Y833692D01*
X187761Y833764D01*
X187743Y833772D01*
X187728Y833785D01*
X187632Y833824D01*
X187538Y833867D01*
X187518Y833869D01*
X187500Y833877D01*
X187333Y833895D01*
X183286Y833895D01*
X181891Y835290D01*
X181833Y835332D01*
X181781Y835381D01*
X181734Y835403D01*
X181692Y835433D01*
X181623Y835455D01*
X181558Y835485D01*
X181506Y835490D01*
X181456Y835506D01*
X181385Y835504D01*
X181314Y835512D01*
X181263Y835501D01*
X181211Y835499D01*
X181143Y835475D01*
X181073Y835460D01*
X181028Y835433D01*
X180980Y835415D01*
X180924Y835370D01*
X180862Y835333D01*
X180828Y835294D01*
X180788Y835261D01*
X180749Y835201D01*
X180702Y835146D01*
X180683Y835098D01*
X180655Y835054D01*
X180637Y834985D01*
X180610Y834918D01*
X180602Y834847D01*
X180594Y834816D01*
X180596Y834793D01*
X180592Y834752D01*
X180592Y824770D01*
X180606Y824680D01*
X180614Y824589D01*
X180626Y824560D01*
X180631Y824528D01*
X180674Y824447D01*
X180710Y824363D01*
X180736Y824331D01*
X180747Y824310D01*
X180770Y824288D01*
X180815Y824232D01*
X182874Y822173D01*
X182874Y817777D01*
X179765Y814668D01*
X175369Y814668D01*
X172260Y817777D01*
X172260Y822173D01*
X174319Y824232D01*
X174372Y824306D01*
X174432Y824376D01*
X174444Y824406D01*
X174463Y824432D01*
X174490Y824519D01*
X174524Y824604D01*
X174528Y824645D01*
X174535Y824667D01*
X174534Y824699D01*
X174542Y824770D01*
X174542Y868730D01*
X209360Y903548D01*
X209413Y903622D01*
X209473Y903691D01*
X209485Y903721D01*
X209504Y903748D01*
X209531Y903835D01*
X209565Y903919D01*
X209569Y903960D01*
X209576Y903983D01*
X209575Y904015D01*
X209583Y904086D01*
X209583Y906998D01*
X210109Y907524D01*
X210151Y907582D01*
X210200Y907634D01*
X210222Y907681D01*
X210252Y907723D01*
X210274Y907792D01*
X210304Y907857D01*
X210309Y907909D01*
X210325Y907959D01*
X210323Y908030D01*
X210331Y908101D01*
X210320Y908152D01*
X210318Y908204D01*
X210294Y908272D01*
X210279Y908342D01*
X210252Y908387D01*
X210234Y908435D01*
X210189Y908491D01*
X210152Y908553D01*
X210113Y908587D01*
X210080Y908627D01*
X210020Y908666D01*
X209965Y908713D01*
X209917Y908732D01*
X209873Y908760D01*
X209804Y908778D01*
X209737Y908805D01*
X209666Y908813D01*
X209635Y908821D01*
X209612Y908819D01*
X209571Y908823D01*
X82698Y908823D01*
X82608Y908809D01*
X82517Y908801D01*
X82487Y908789D01*
X82455Y908784D01*
X82374Y908741D01*
X82290Y908705D01*
X82258Y908679D01*
X82238Y908668D01*
X82215Y908645D01*
X82159Y908600D01*
X62024Y888465D01*
X50946Y888465D01*
X50926Y888462D01*
X50907Y888464D01*
X50805Y888442D01*
X50703Y888426D01*
X50686Y888416D01*
X50666Y888412D01*
X50577Y888359D01*
X50486Y888310D01*
X50472Y888296D01*
X50455Y888286D01*
X50388Y888207D01*
X50316Y888132D01*
X50308Y888114D01*
X50295Y888099D01*
X50256Y888003D01*
X50213Y887909D01*
X50211Y887889D01*
X50203Y887871D01*
X50185Y887704D01*
X50185Y879888D01*
X49292Y878995D01*
X23028Y878995D01*
X22135Y879888D01*
X22135Y906152D01*
X23028Y907045D01*
X49292Y907045D01*
X50185Y906152D01*
X50185Y899276D01*
X50188Y899256D01*
X50186Y899237D01*
X50208Y899135D01*
X50224Y899033D01*
X50234Y899016D01*
X50238Y898996D01*
X50291Y898907D01*
X50340Y898816D01*
X50354Y898802D01*
X50364Y898785D01*
X50443Y898718D01*
X50518Y898646D01*
X50536Y898638D01*
X50551Y898625D01*
X50647Y898586D01*
X50741Y898543D01*
X50761Y898541D01*
X50779Y898533D01*
X50946Y898515D01*
X57546Y898515D01*
X57636Y898529D01*
X57727Y898537D01*
X57757Y898549D01*
X57789Y898554D01*
X57870Y898597D01*
X57954Y898633D01*
X57986Y898659D01*
X58006Y898670D01*
X58029Y898693D01*
X58085Y898738D01*
X78220Y918873D01*
X89519Y918873D01*
X89590Y918884D01*
X89661Y918886D01*
X89710Y918904D01*
X89762Y918912D01*
X89825Y918946D01*
X89892Y918971D01*
X89933Y919003D01*
X89979Y919028D01*
X90028Y919080D01*
X90084Y919124D01*
X90113Y919168D01*
X90148Y919206D01*
X90179Y919271D01*
X90217Y919331D01*
X90230Y919382D01*
X90252Y919429D01*
X90260Y919500D01*
X90277Y919570D01*
X90273Y919622D01*
X90279Y919673D01*
X90264Y919744D01*
X90258Y919815D01*
X90238Y919863D01*
X90227Y919914D01*
X90190Y919975D01*
X90162Y920041D01*
X90117Y920097D01*
X90101Y920125D01*
X90083Y920140D01*
X90057Y920172D01*
X48734Y961495D01*
X46739Y963490D01*
X46739Y964306D01*
X46725Y964396D01*
X46717Y964487D01*
X46705Y964517D01*
X46700Y964549D01*
X46657Y964629D01*
X46621Y964713D01*
X46595Y964745D01*
X46584Y964766D01*
X46561Y964788D01*
X46516Y964844D01*
X45792Y965568D01*
X45776Y965580D01*
X45763Y965596D01*
X45694Y965640D01*
X45662Y965667D01*
X45644Y965675D01*
X45592Y965712D01*
X45573Y965718D01*
X45556Y965729D01*
X45456Y965754D01*
X45357Y965784D01*
X45337Y965784D01*
X45318Y965789D01*
X45215Y965781D01*
X45111Y965778D01*
X45093Y965771D01*
X45073Y965770D01*
X45000Y965738D01*
X44997Y965738D01*
X44992Y965735D01*
X44977Y965729D01*
X44880Y965693D01*
X44865Y965681D01*
X44846Y965673D01*
X44791Y965629D01*
X44780Y965623D01*
X44769Y965611D01*
X44715Y965568D01*
X44587Y965440D01*
X40573Y963777D01*
X36227Y963777D01*
X35015Y964279D01*
X34902Y964306D01*
X34788Y964334D01*
X34782Y964334D01*
X34776Y964335D01*
X34659Y964324D01*
X34543Y964315D01*
X34537Y964313D01*
X34531Y964312D01*
X34424Y964264D01*
X34317Y964219D01*
X34311Y964214D01*
X34306Y964212D01*
X34293Y964200D01*
X34186Y964114D01*
X31523Y961451D01*
X31470Y961377D01*
X31410Y961308D01*
X31398Y961278D01*
X31379Y961251D01*
X31352Y961164D01*
X31318Y961080D01*
X31314Y961039D01*
X31307Y961016D01*
X31308Y960984D01*
X31300Y960913D01*
X31300Y935215D01*
X29305Y933220D01*
X-229738Y674177D01*
X-229791Y674103D01*
X-229851Y674034D01*
X-229863Y674004D01*
X-229882Y673977D01*
X-229909Y673890D01*
X-229943Y673806D01*
X-229947Y673765D01*
X-229954Y673742D01*
X-229953Y673710D01*
X-229961Y673639D01*
X-229961Y671426D01*
X-229958Y671406D01*
X-229960Y671387D01*
X-229938Y671285D01*
X-229922Y671183D01*
X-229912Y671166D01*
X-229908Y671146D01*
X-229855Y671057D01*
X-229806Y670966D01*
X-229792Y670952D01*
X-229782Y670935D01*
X-229703Y670868D01*
X-229628Y670796D01*
X-229610Y670788D01*
X-229595Y670775D01*
X-229499Y670736D01*
X-229405Y670693D01*
X-229385Y670691D01*
X-229367Y670683D01*
X-229200Y670665D01*
X-224557Y670665D01*
X-221225Y669285D01*
X-218675Y666735D01*
X-217295Y663403D01*
X-217295Y659797D01*
X-218675Y656465D01*
X-221225Y653915D01*
X-224557Y652535D01*
X-243243Y652535D01*
X-246575Y653915D01*
X-249125Y656465D01*
X-250505Y659797D01*
X-250505Y663403D01*
X-249125Y666735D01*
X-246575Y669285D01*
X-243243Y670665D01*
X-236772Y670665D01*
X-236752Y670668D01*
X-236733Y670666D01*
X-236631Y670688D01*
X-236529Y670704D01*
X-236512Y670714D01*
X-236492Y670718D01*
X-236403Y670771D01*
X-236312Y670820D01*
X-236298Y670834D01*
X-236281Y670844D01*
X-236214Y670923D01*
X-236142Y670998D01*
X-236134Y671016D01*
X-236121Y671031D01*
X-236082Y671127D01*
X-236039Y671221D01*
X-236037Y671241D01*
X-236029Y671259D01*
X-236011Y671426D01*
X-236011Y676460D01*
X25027Y937498D01*
X25080Y937572D01*
X25140Y937641D01*
X25152Y937671D01*
X25171Y937698D01*
X25198Y937785D01*
X25232Y937869D01*
X25236Y937910D01*
X25243Y937933D01*
X25242Y937965D01*
X25250Y938036D01*
X25250Y963734D01*
X29046Y967530D01*
X29058Y967547D01*
X29074Y967559D01*
X29103Y967604D01*
X29131Y967633D01*
X29149Y967673D01*
X29190Y967730D01*
X29196Y967749D01*
X29207Y967766D01*
X29224Y967833D01*
X29235Y967857D01*
X29238Y967885D01*
X29262Y967965D01*
X29262Y967985D01*
X29267Y968005D01*
X29260Y968088D01*
X29262Y968101D01*
X29258Y968116D01*
X29256Y968211D01*
X29249Y968230D01*
X29247Y968250D01*
X29210Y968337D01*
X29209Y968341D01*
X29206Y968347D01*
X29204Y968353D01*
X29198Y968373D01*
X29186Y968403D01*
X29171Y968442D01*
X29168Y968447D01*
X27477Y972527D01*
X27477Y976873D01*
X29140Y980887D01*
X32213Y983960D01*
X36227Y985623D01*
X40573Y985623D01*
X44673Y983924D01*
X44692Y983910D01*
X44712Y983904D01*
X44729Y983893D01*
X44829Y983868D01*
X44927Y983838D01*
X44948Y983838D01*
X44968Y983833D01*
X45070Y983841D01*
X45173Y983844D01*
X45192Y983851D01*
X45213Y983852D01*
X45307Y983893D01*
X45404Y983928D01*
X45420Y983941D01*
X45439Y983949D01*
X45570Y984054D01*
X47647Y986131D01*
X47700Y986205D01*
X47760Y986274D01*
X47772Y986304D01*
X47791Y986331D01*
X47818Y986418D01*
X47852Y986502D01*
X47856Y986543D01*
X47863Y986566D01*
X47862Y986598D01*
X47870Y986669D01*
X47870Y990878D01*
X48907Y991914D01*
X48918Y991930D01*
X48934Y991943D01*
X48965Y991992D01*
X48967Y991993D01*
X48968Y991997D01*
X48990Y992030D01*
X49050Y992114D01*
X49056Y992133D01*
X49067Y992150D01*
X49092Y992250D01*
X49123Y992349D01*
X49122Y992369D01*
X49127Y992388D01*
X49119Y992491D01*
X49116Y992595D01*
X49109Y992614D01*
X49108Y992633D01*
X49067Y992729D01*
X49032Y992826D01*
X49019Y992841D01*
X49011Y992860D01*
X48907Y992991D01*
X48361Y993537D01*
X48344Y993549D01*
X48332Y993564D01*
X48245Y993620D01*
X48161Y993680D01*
X48142Y993686D01*
X48125Y993697D01*
X48025Y993722D01*
X47926Y993753D01*
X47906Y993752D01*
X47886Y993757D01*
X47783Y993749D01*
X47680Y993746D01*
X47661Y993740D01*
X47641Y993738D01*
X47546Y993698D01*
X47449Y993662D01*
X47433Y993650D01*
X47415Y993642D01*
X47284Y993537D01*
X44587Y990840D01*
X40573Y989177D01*
X36227Y989177D01*
X32213Y990840D01*
X29140Y993913D01*
X27477Y997927D01*
X27477Y1002273D01*
X29140Y1006287D01*
X32213Y1009360D01*
X36227Y1011023D01*
X40573Y1011023D01*
X44587Y1009360D01*
X45440Y1008507D01*
X45498Y1008465D01*
X45550Y1008416D01*
X45597Y1008394D01*
X45639Y1008364D01*
X45708Y1008343D01*
X45773Y1008312D01*
X45825Y1008307D01*
X45875Y1008291D01*
X45946Y1008293D01*
X46017Y1008285D01*
X46068Y1008296D01*
X46120Y1008298D01*
X46188Y1008322D01*
X46258Y1008338D01*
X46303Y1008364D01*
X46351Y1008382D01*
X46407Y1008427D01*
X46469Y1008464D01*
X46503Y1008503D01*
X46543Y1008536D01*
X46582Y1008596D01*
X46629Y1008651D01*
X46648Y1008699D01*
X46676Y1008743D01*
X46694Y1008812D01*
X46721Y1008879D01*
X46729Y1008950D01*
X46737Y1008981D01*
X46735Y1009005D01*
X46739Y1009046D01*
X46739Y1010105D01*
X53603Y1016969D01*
X53645Y1017027D01*
X53694Y1017079D01*
X53716Y1017126D01*
X53747Y1017168D01*
X53768Y1017237D01*
X53798Y1017302D01*
X53804Y1017354D01*
X53819Y1017404D01*
X53817Y1017475D01*
X53825Y1017546D01*
X53814Y1017597D01*
X53813Y1017649D01*
X53788Y1017717D01*
X53773Y1017787D01*
X53746Y1017832D01*
X53728Y1017880D01*
X53683Y1017936D01*
X53647Y1017998D01*
X53607Y1018032D01*
X53575Y1018072D01*
X53514Y1018111D01*
X53460Y1018158D01*
X53411Y1018177D01*
X53368Y1018205D01*
X53298Y1018223D01*
X53232Y1018250D01*
X53160Y1018258D01*
X53129Y1018266D01*
X53106Y1018264D01*
X53065Y1018268D01*
X-38017Y1018268D01*
X-38107Y1018254D01*
X-38198Y1018246D01*
X-38228Y1018234D01*
X-38260Y1018229D01*
X-38340Y1018186D01*
X-38424Y1018150D01*
X-38456Y1018124D01*
X-38477Y1018113D01*
X-38499Y1018090D01*
X-38555Y1018045D01*
X-51040Y1005560D01*
X-51093Y1005486D01*
X-51153Y1005417D01*
X-51165Y1005387D01*
X-51184Y1005360D01*
X-51211Y1005273D01*
X-51245Y1005189D01*
X-51249Y1005148D01*
X-51256Y1005125D01*
X-51255Y1005093D01*
X-51263Y1005022D01*
X-51263Y938608D01*
X-119764Y870107D01*
X-120580Y870107D01*
X-120670Y870093D01*
X-120761Y870085D01*
X-120791Y870073D01*
X-120823Y870068D01*
X-120903Y870025D01*
X-120987Y869989D01*
X-121019Y869963D01*
X-121040Y869952D01*
X-121062Y869929D01*
X-121118Y869884D01*
X-226038Y764964D01*
X-226080Y764906D01*
X-226129Y764854D01*
X-226151Y764807D01*
X-226182Y764765D01*
X-226203Y764696D01*
X-226233Y764631D01*
X-226239Y764579D01*
X-226254Y764529D01*
X-226252Y764458D01*
X-226260Y764387D01*
X-226249Y764336D01*
X-226248Y764284D01*
X-226223Y764216D01*
X-226208Y764146D01*
X-226181Y764102D01*
X-226163Y764053D01*
X-226118Y763997D01*
X-226082Y763935D01*
X-226042Y763901D01*
X-226010Y763861D01*
X-225949Y763822D01*
X-225895Y763775D01*
X-225846Y763756D01*
X-225803Y763728D01*
X-225733Y763710D01*
X-225667Y763683D01*
X-225595Y763675D01*
X-225564Y763667D01*
X-225541Y763669D01*
X-225500Y763665D01*
X-224557Y763665D01*
X-221225Y762285D01*
X-218675Y759735D01*
X-217295Y756403D01*
X-217295Y752797D01*
X-218675Y749465D01*
X-221225Y746915D01*
X-224557Y745535D01*
X-243243Y745535D01*
X-246575Y746915D01*
X-249125Y749465D01*
X-250505Y752797D01*
X-250505Y756403D01*
X-249125Y759735D01*
X-246575Y762285D01*
X-243243Y763665D01*
X-236208Y763665D01*
X-236118Y763679D01*
X-236027Y763687D01*
X-235997Y763699D01*
X-235965Y763704D01*
X-235885Y763747D01*
X-235801Y763783D01*
X-235769Y763809D01*
X-235748Y763820D01*
X-235726Y763843D01*
X-235670Y763888D01*
X-125396Y874162D01*
X-123401Y876157D01*
X-122585Y876157D01*
X-122495Y876171D01*
X-122404Y876179D01*
X-122374Y876191D01*
X-122342Y876196D01*
X-122262Y876239D01*
X-122178Y876275D01*
X-122146Y876301D01*
X-122125Y876312D01*
X-122103Y876335D01*
X-122047Y876380D01*
X-57536Y940891D01*
X-57492Y940952D01*
X-57456Y940990D01*
X-57449Y941004D01*
X-57423Y941034D01*
X-57411Y941064D01*
X-57392Y941091D01*
X-57365Y941178D01*
X-57331Y941262D01*
X-57327Y941303D01*
X-57320Y941326D01*
X-57321Y941358D01*
X-57313Y941429D01*
X-57313Y1007843D01*
X-40838Y1024318D01*
X142628Y1024318D01*
X156841Y1010105D01*
X156841Y1008826D01*
X156852Y1008755D01*
X156854Y1008683D01*
X156872Y1008634D01*
X156880Y1008583D01*
X156914Y1008520D01*
X156939Y1008452D01*
X156971Y1008412D01*
X156996Y1008365D01*
X157048Y1008316D01*
X157092Y1008260D01*
X157136Y1008232D01*
X157174Y1008196D01*
X157239Y1008166D01*
X157299Y1008127D01*
X157350Y1008114D01*
X157397Y1008092D01*
X157468Y1008085D01*
X157538Y1008067D01*
X157590Y1008071D01*
X157641Y1008065D01*
X157712Y1008081D01*
X157783Y1008086D01*
X157831Y1008107D01*
X157882Y1008118D01*
X157943Y1008154D01*
X158009Y1008183D01*
X158065Y1008227D01*
X158093Y1008244D01*
X158108Y1008262D01*
X158140Y1008287D01*
X159213Y1009360D01*
X163227Y1011023D01*
X167573Y1011023D01*
X171587Y1009360D01*
X174660Y1006287D01*
X176323Y1002273D01*
X176323Y997927D01*
X174660Y993913D01*
X171587Y990840D01*
X167573Y989177D01*
X163227Y989177D01*
X159213Y990840D01*
X156972Y993081D01*
X156955Y993093D01*
X156943Y993109D01*
X156856Y993165D01*
X156772Y993225D01*
X156753Y993231D01*
X156736Y993242D01*
X156636Y993267D01*
X156537Y993297D01*
X156517Y993297D01*
X156497Y993302D01*
X156395Y993294D01*
X156291Y993291D01*
X156272Y993284D01*
X156252Y993283D01*
X156157Y993242D01*
X156060Y993206D01*
X156044Y993194D01*
X156026Y993186D01*
X155895Y993081D01*
X154802Y991988D01*
X154749Y991914D01*
X154689Y991845D01*
X154677Y991815D01*
X154658Y991788D01*
X154631Y991701D01*
X154597Y991617D01*
X154593Y991576D01*
X154586Y991553D01*
X154587Y991521D01*
X154579Y991450D01*
X154579Y983276D01*
X154581Y983261D01*
X154580Y983247D01*
X154594Y983183D01*
X154601Y983095D01*
X154613Y983065D01*
X154618Y983033D01*
X154632Y983009D01*
X154632Y983007D01*
X154637Y982998D01*
X154661Y982953D01*
X154697Y982869D01*
X154723Y982837D01*
X154734Y982816D01*
X154757Y982794D01*
X154802Y982738D01*
X155858Y981682D01*
X155874Y981670D01*
X155887Y981654D01*
X155974Y981598D01*
X156058Y981538D01*
X156077Y981532D01*
X156094Y981521D01*
X156194Y981496D01*
X156293Y981466D01*
X156313Y981466D01*
X156332Y981461D01*
X156435Y981469D01*
X156539Y981472D01*
X156557Y981479D01*
X156577Y981480D01*
X156672Y981521D01*
X156770Y981557D01*
X156785Y981569D01*
X156804Y981577D01*
X156935Y981682D01*
X159213Y983960D01*
X163227Y985623D01*
X167573Y985623D01*
X171587Y983960D01*
X174660Y980887D01*
X176323Y976873D01*
X176323Y972527D01*
X174660Y968513D01*
X171587Y965440D01*
X167573Y963777D01*
X163227Y963777D01*
X159648Y965260D01*
X159553Y965282D01*
X159460Y965311D01*
X159434Y965310D01*
X159408Y965316D01*
X159312Y965307D01*
X159214Y965304D01*
X159190Y965295D01*
X159163Y965293D01*
X159074Y965253D01*
X158983Y965220D01*
X158963Y965204D01*
X158939Y965193D01*
X158867Y965127D01*
X158791Y965066D01*
X158777Y965044D01*
X158758Y965027D01*
X158711Y964941D01*
X158658Y964859D01*
X158652Y964834D01*
X158639Y964811D01*
X158622Y964715D01*
X158598Y964621D01*
X158600Y964595D01*
X158595Y964569D01*
X158610Y964473D01*
X158617Y964376D01*
X158627Y964352D01*
X158631Y964326D01*
X158675Y964239D01*
X158713Y964149D01*
X158734Y964124D01*
X158743Y964106D01*
X158766Y964083D01*
X158818Y964018D01*
X161632Y961205D01*
X161706Y961152D01*
X161775Y961092D01*
X161805Y961080D01*
X161832Y961061D01*
X161919Y961034D01*
X162003Y961000D01*
X162044Y960996D01*
X162067Y960989D01*
X162099Y960990D01*
X162170Y960982D01*
X347911Y960982D01*
X348001Y960996D01*
X348092Y961004D01*
X348122Y961016D01*
X348154Y961021D01*
X348234Y961064D01*
X348318Y961100D01*
X348350Y961126D01*
X348371Y961137D01*
X348393Y961160D01*
X348449Y961205D01*
X357931Y970687D01*
X357999Y970781D01*
X358069Y970875D01*
X358071Y970881D01*
X358075Y970886D01*
X358108Y970996D01*
X358145Y971109D01*
X358145Y971115D01*
X358147Y971121D01*
X358144Y971238D01*
X358143Y971355D01*
X358141Y971362D01*
X358141Y971367D01*
X358134Y971385D01*
X358096Y971516D01*
X357677Y972527D01*
X357677Y976873D01*
X359340Y980887D01*
X362413Y983960D01*
X366427Y985623D01*
X370773Y985623D01*
X374787Y983960D01*
X377860Y980887D01*
X379523Y976873D01*
X379523Y972527D01*
X377860Y968513D01*
X374787Y965440D01*
X370773Y963777D01*
X366427Y963777D01*
X362413Y965440D01*
X362365Y965488D01*
X362348Y965500D01*
X362336Y965516D01*
X362249Y965572D01*
X362165Y965632D01*
X362146Y965638D01*
X362129Y965649D01*
X362029Y965674D01*
X361930Y965704D01*
X361910Y965704D01*
X361890Y965709D01*
X361787Y965701D01*
X361684Y965698D01*
X361665Y965691D01*
X361645Y965690D01*
X361550Y965649D01*
X361453Y965614D01*
X361437Y965601D01*
X361419Y965593D01*
X361288Y965488D01*
X350732Y954932D01*
X162956Y954932D01*
X162885Y954921D01*
X162814Y954919D01*
X162765Y954901D01*
X162713Y954893D01*
X162650Y954859D01*
X162583Y954834D01*
X162542Y954802D01*
X162496Y954777D01*
X162447Y954725D01*
X162391Y954681D01*
X162362Y954637D01*
X162327Y954599D01*
X162296Y954534D01*
X162258Y954474D01*
X162245Y954423D01*
X162223Y954376D01*
X162215Y954305D01*
X162198Y954235D01*
X162202Y954183D01*
X162196Y954132D01*
X162211Y954061D01*
X162217Y953990D01*
X162237Y953942D01*
X162248Y953891D01*
X162285Y953830D01*
X162313Y953764D01*
X162358Y953708D01*
X162374Y953680D01*
X162392Y953665D01*
X162418Y953633D01*
X176315Y939736D01*
X176389Y939683D01*
X176458Y939623D01*
X176488Y939611D01*
X176515Y939592D01*
X176602Y939565D01*
X176686Y939531D01*
X176727Y939527D01*
X176750Y939520D01*
X176782Y939521D01*
X176853Y939513D01*
X179765Y939513D01*
X182874Y936404D01*
X182874Y932008D01*
X179765Y928899D01*
X175369Y928899D01*
X172260Y932008D01*
X172260Y934920D01*
X172246Y935010D01*
X172238Y935101D01*
X172226Y935131D01*
X172221Y935163D01*
X172178Y935243D01*
X172142Y935327D01*
X172116Y935359D01*
X172105Y935380D01*
X172082Y935402D01*
X172037Y935458D01*
X143625Y963870D01*
X143531Y963938D01*
X143436Y964008D01*
X143430Y964010D01*
X143425Y964014D01*
X143314Y964048D01*
X143203Y964084D01*
X143196Y964084D01*
X143190Y964086D01*
X143074Y964083D01*
X142957Y964082D01*
X142949Y964080D01*
X142944Y964080D01*
X142927Y964073D01*
X142796Y964035D01*
X142173Y963777D01*
X137827Y963777D01*
X133813Y965440D01*
X130740Y968513D01*
X129077Y972527D01*
X129077Y976873D01*
X130740Y980887D01*
X133813Y983960D01*
X137827Y985623D01*
X142173Y985623D01*
X146187Y983960D01*
X147230Y982917D01*
X147288Y982875D01*
X147340Y982826D01*
X147387Y982804D01*
X147429Y982774D01*
X147498Y982753D01*
X147563Y982722D01*
X147615Y982717D01*
X147665Y982701D01*
X147736Y982703D01*
X147807Y982695D01*
X147858Y982706D01*
X147910Y982708D01*
X147978Y982732D01*
X148048Y982748D01*
X148093Y982774D01*
X148141Y982792D01*
X148197Y982837D01*
X148259Y982874D01*
X148293Y982913D01*
X148333Y982946D01*
X148372Y983006D01*
X148419Y983061D01*
X148438Y983109D01*
X148466Y983153D01*
X148484Y983222D01*
X148511Y983289D01*
X148519Y983360D01*
X148527Y983391D01*
X148525Y983415D01*
X148529Y983456D01*
X148529Y991344D01*
X148518Y991415D01*
X148516Y991487D01*
X148498Y991536D01*
X148490Y991587D01*
X148456Y991650D01*
X148431Y991718D01*
X148399Y991758D01*
X148374Y991805D01*
X148322Y991854D01*
X148278Y991910D01*
X148234Y991938D01*
X148196Y991974D01*
X148131Y992004D01*
X148071Y992043D01*
X148020Y992056D01*
X147973Y992078D01*
X147902Y992085D01*
X147832Y992103D01*
X147780Y992099D01*
X147729Y992105D01*
X147658Y992089D01*
X147587Y992084D01*
X147539Y992063D01*
X147488Y992052D01*
X147427Y992016D01*
X147361Y991987D01*
X147305Y991943D01*
X147277Y991926D01*
X147262Y991908D01*
X147230Y991883D01*
X146187Y990840D01*
X142173Y989177D01*
X137827Y989177D01*
X133813Y990840D01*
X130740Y993913D01*
X129077Y997927D01*
X129077Y1002273D01*
X130747Y1006305D01*
X130788Y1006367D01*
X130848Y1006451D01*
X130854Y1006470D01*
X130865Y1006487D01*
X130890Y1006587D01*
X130920Y1006686D01*
X130920Y1006706D01*
X130925Y1006726D01*
X130917Y1006828D01*
X130914Y1006932D01*
X130907Y1006951D01*
X130906Y1006971D01*
X130865Y1007066D01*
X130830Y1007163D01*
X130817Y1007179D01*
X130809Y1007197D01*
X130704Y1007328D01*
X124511Y1013521D01*
X124437Y1013574D01*
X124368Y1013634D01*
X124338Y1013646D01*
X124311Y1013665D01*
X124224Y1013692D01*
X124140Y1013726D01*
X124099Y1013730D01*
X124076Y1013737D01*
X124044Y1013736D01*
X123973Y1013744D01*
X59249Y1013744D01*
X59159Y1013730D01*
X59068Y1013722D01*
X59038Y1013710D01*
X59006Y1013705D01*
X58926Y1013662D01*
X58842Y1013626D01*
X58810Y1013600D01*
X58789Y1013589D01*
X58782Y1013582D01*
X58781Y1013582D01*
X58765Y1013565D01*
X58711Y1013521D01*
X53449Y1008259D01*
X53437Y1008243D01*
X53422Y1008231D01*
X53366Y1008143D01*
X53305Y1008060D01*
X53300Y1008041D01*
X53289Y1008024D01*
X53263Y1007923D01*
X53233Y1007824D01*
X53234Y1007805D01*
X53229Y1007785D01*
X53237Y1007682D01*
X53239Y1007579D01*
X53246Y1007560D01*
X53248Y1007540D01*
X53288Y1007445D01*
X53324Y1007348D01*
X53336Y1007332D01*
X53344Y1007314D01*
X53449Y1007183D01*
X53904Y1006728D01*
X53920Y1006716D01*
X53933Y1006700D01*
X54020Y1006644D01*
X54104Y1006584D01*
X54123Y1006578D01*
X54140Y1006567D01*
X54240Y1006542D01*
X54339Y1006512D01*
X54359Y1006512D01*
X54378Y1006507D01*
X54481Y1006515D01*
X54585Y1006518D01*
X54603Y1006525D01*
X54623Y1006526D01*
X54718Y1006567D01*
X54816Y1006603D01*
X54831Y1006615D01*
X54850Y1006623D01*
X54981Y1006728D01*
X57613Y1009360D01*
X61627Y1011023D01*
X65973Y1011023D01*
X69987Y1009360D01*
X73060Y1006287D01*
X74723Y1002273D01*
X74723Y997927D01*
X73060Y993913D01*
X69987Y990840D01*
X65973Y989177D01*
X61627Y989177D01*
X57613Y990840D01*
X57481Y990972D01*
X57423Y991014D01*
X57371Y991063D01*
X57324Y991085D01*
X57282Y991115D01*
X57213Y991136D01*
X57148Y991167D01*
X57096Y991172D01*
X57046Y991188D01*
X56975Y991186D01*
X56904Y991194D01*
X56853Y991183D01*
X56801Y991181D01*
X56733Y991157D01*
X56663Y991141D01*
X56618Y991115D01*
X56570Y991097D01*
X56514Y991052D01*
X56452Y991015D01*
X56418Y990976D01*
X56378Y990943D01*
X56339Y990883D01*
X56292Y990828D01*
X56273Y990780D01*
X56245Y990736D01*
X56231Y990684D01*
X54143Y988595D01*
X54090Y988521D01*
X54030Y988452D01*
X54018Y988422D01*
X53999Y988395D01*
X53972Y988308D01*
X53938Y988224D01*
X53934Y988183D01*
X53927Y988160D01*
X53928Y988128D01*
X53920Y988057D01*
X53920Y983541D01*
X53931Y983471D01*
X53933Y983399D01*
X53951Y983350D01*
X53959Y983299D01*
X53993Y983235D01*
X54018Y983168D01*
X54050Y983127D01*
X54075Y983081D01*
X54127Y983032D01*
X54171Y982976D01*
X54215Y982948D01*
X54253Y982912D01*
X54318Y982882D01*
X54378Y982843D01*
X54429Y982830D01*
X54476Y982808D01*
X54547Y982800D01*
X54617Y982783D01*
X54669Y982787D01*
X54720Y982781D01*
X54791Y982796D01*
X54862Y982802D01*
X54910Y982822D01*
X54961Y982833D01*
X55022Y982870D01*
X55088Y982898D01*
X55144Y982943D01*
X55172Y982960D01*
X55187Y982977D01*
X55219Y983003D01*
X56022Y983806D01*
X57543Y984911D01*
X59217Y985764D01*
X61004Y986345D01*
X62277Y986546D01*
X62277Y975462D01*
X62280Y975442D01*
X62278Y975423D01*
X62300Y975321D01*
X62317Y975219D01*
X62326Y975202D01*
X62330Y975182D01*
X62383Y975093D01*
X62432Y975002D01*
X62446Y974988D01*
X62456Y974971D01*
X62535Y974904D01*
X62610Y974833D01*
X62628Y974824D01*
X62643Y974811D01*
X62739Y974773D01*
X62833Y974729D01*
X62853Y974727D01*
X62871Y974719D01*
X63038Y974701D01*
X63801Y974701D01*
X63801Y974699D01*
X63038Y974699D01*
X63018Y974696D01*
X62999Y974698D01*
X62897Y974676D01*
X62795Y974659D01*
X62778Y974650D01*
X62758Y974646D01*
X62669Y974593D01*
X62578Y974544D01*
X62564Y974530D01*
X62547Y974520D01*
X62480Y974441D01*
X62409Y974366D01*
X62400Y974348D01*
X62387Y974333D01*
X62348Y974237D01*
X62305Y974143D01*
X62303Y974123D01*
X62295Y974105D01*
X62277Y973938D01*
X62277Y962854D01*
X61004Y963055D01*
X59217Y963636D01*
X57543Y964489D01*
X56022Y965594D01*
X54694Y966922D01*
X54432Y967282D01*
X54376Y967338D01*
X54326Y967400D01*
X54289Y967424D01*
X54258Y967455D01*
X54186Y967490D01*
X54119Y967533D01*
X54077Y967544D01*
X54037Y967563D01*
X53958Y967574D01*
X53881Y967593D01*
X53837Y967590D01*
X53793Y967595D01*
X53715Y967580D01*
X53636Y967574D01*
X53595Y967557D01*
X53552Y967548D01*
X53482Y967509D01*
X53409Y967478D01*
X53363Y967441D01*
X53338Y967426D01*
X53319Y967406D01*
X53278Y967373D01*
X53012Y967106D01*
X52959Y967032D01*
X52899Y966963D01*
X52887Y966933D01*
X52868Y966906D01*
X52841Y966819D01*
X52807Y966735D01*
X52803Y966694D01*
X52796Y966671D01*
X52797Y966639D01*
X52789Y966568D01*
X52789Y966311D01*
X52803Y966221D01*
X52811Y966130D01*
X52823Y966100D01*
X52828Y966068D01*
X52871Y965988D01*
X52907Y965904D01*
X52933Y965872D01*
X52944Y965851D01*
X52967Y965829D01*
X53012Y965773D01*
X92641Y926144D01*
X92715Y926091D01*
X92784Y926031D01*
X92814Y926019D01*
X92841Y926000D01*
X92928Y925973D01*
X93012Y925939D01*
X93053Y925935D01*
X93076Y925928D01*
X93108Y925929D01*
X93179Y925921D01*
X107174Y925921D01*
X107264Y925935D01*
X107355Y925943D01*
X107384Y925955D01*
X107416Y925960D01*
X107497Y926003D01*
X107581Y926039D01*
X107613Y926065D01*
X107634Y926076D01*
X107656Y926099D01*
X107712Y926144D01*
X109771Y928203D01*
X114167Y928203D01*
X117276Y925094D01*
X117276Y920698D01*
X116750Y920172D01*
X116708Y920114D01*
X116659Y920062D01*
X116637Y920015D01*
X116607Y919973D01*
X116585Y919904D01*
X116555Y919839D01*
X116550Y919787D01*
X116534Y919737D01*
X116536Y919666D01*
X116528Y919595D01*
X116539Y919544D01*
X116541Y919492D01*
X116565Y919424D01*
X116580Y919354D01*
X116607Y919309D01*
X116625Y919261D01*
X116670Y919205D01*
X116707Y919143D01*
X116746Y919109D01*
X116779Y919069D01*
X116839Y919030D01*
X116894Y918983D01*
X116942Y918964D01*
X116986Y918936D01*
X117055Y918918D01*
X117122Y918891D01*
X117193Y918883D01*
X117224Y918875D01*
X117247Y918877D01*
X117288Y918873D01*
X181296Y918873D01*
X181366Y918884D01*
X181438Y918886D01*
X181487Y918904D01*
X181538Y918912D01*
X181602Y918946D01*
X181669Y918971D01*
X181710Y919003D01*
X181756Y919028D01*
X181805Y919079D01*
X181861Y919124D01*
X181889Y919168D01*
X181925Y919206D01*
X181955Y919271D01*
X181994Y919331D01*
X182007Y919382D01*
X182029Y919429D01*
X182037Y919500D01*
X182054Y919570D01*
X182050Y919622D01*
X182056Y919673D01*
X182041Y919744D01*
X182035Y919815D01*
X182015Y919863D01*
X182004Y919914D01*
X181967Y919975D01*
X181939Y920041D01*
X181894Y920097D01*
X181877Y920125D01*
X181860Y920140D01*
X181834Y920172D01*
X181227Y920779D01*
X181153Y920833D01*
X181083Y920892D01*
X181053Y920904D01*
X181027Y920923D01*
X180940Y920950D01*
X180855Y920984D01*
X180814Y920988D01*
X180792Y920995D01*
X180760Y920994D01*
X180689Y921002D01*
X141253Y921002D01*
X126492Y935763D01*
X126434Y935805D01*
X126382Y935854D01*
X126335Y935876D01*
X126293Y935907D01*
X126224Y935928D01*
X126159Y935958D01*
X126107Y935964D01*
X126057Y935979D01*
X125986Y935977D01*
X125915Y935985D01*
X125864Y935974D01*
X125812Y935973D01*
X125744Y935948D01*
X125674Y935933D01*
X125629Y935906D01*
X125581Y935888D01*
X125525Y935843D01*
X125463Y935807D01*
X125429Y935767D01*
X125389Y935735D01*
X125350Y935674D01*
X125303Y935620D01*
X125284Y935571D01*
X125256Y935528D01*
X125238Y935458D01*
X125211Y935392D01*
X125203Y935320D01*
X125195Y935289D01*
X125197Y935266D01*
X125193Y935225D01*
X125193Y933139D01*
X122084Y930030D01*
X117688Y930030D01*
X114579Y933139D01*
X114579Y936051D01*
X114565Y936141D01*
X114557Y936232D01*
X114545Y936262D01*
X114540Y936294D01*
X114497Y936374D01*
X114461Y936458D01*
X114435Y936490D01*
X114424Y936511D01*
X114401Y936533D01*
X114356Y936589D01*
X90581Y960364D01*
X88586Y962359D01*
X88586Y963016D01*
X88583Y963036D01*
X88585Y963055D01*
X88563Y963157D01*
X88547Y963259D01*
X88537Y963276D01*
X88533Y963296D01*
X88480Y963385D01*
X88431Y963476D01*
X88417Y963490D01*
X88407Y963507D01*
X88328Y963574D01*
X88253Y963646D01*
X88235Y963654D01*
X88220Y963667D01*
X88124Y963706D01*
X88030Y963749D01*
X88010Y963751D01*
X87992Y963759D01*
X87825Y963777D01*
X87027Y963777D01*
X83013Y965440D01*
X79940Y968513D01*
X78277Y972527D01*
X78277Y976873D01*
X79940Y980887D01*
X83013Y983960D01*
X87027Y985623D01*
X91373Y985623D01*
X95387Y983960D01*
X96335Y983012D01*
X96393Y982970D01*
X96445Y982921D01*
X96492Y982899D01*
X96534Y982869D01*
X96603Y982848D01*
X96668Y982817D01*
X96720Y982812D01*
X96770Y982796D01*
X96841Y982798D01*
X96912Y982790D01*
X96963Y982801D01*
X97015Y982803D01*
X97083Y982827D01*
X97153Y982843D01*
X97198Y982869D01*
X97246Y982887D01*
X97302Y982932D01*
X97364Y982969D01*
X97398Y983008D01*
X97438Y983041D01*
X97477Y983101D01*
X97524Y983156D01*
X97543Y983204D01*
X97571Y983248D01*
X97589Y983317D01*
X97616Y983384D01*
X97624Y983455D01*
X97632Y983486D01*
X97630Y983510D01*
X97634Y983551D01*
X97634Y984664D01*
X97620Y984754D01*
X97612Y984845D01*
X97600Y984875D01*
X97595Y984907D01*
X97552Y984987D01*
X97516Y985071D01*
X97490Y985103D01*
X97479Y985124D01*
X97456Y985146D01*
X97411Y985202D01*
X93191Y989422D01*
X93096Y989490D01*
X93003Y989560D01*
X92997Y989562D01*
X92992Y989566D01*
X92880Y989600D01*
X92769Y989636D01*
X92763Y989636D01*
X92757Y989638D01*
X92640Y989635D01*
X92523Y989634D01*
X92516Y989632D01*
X92511Y989632D01*
X92493Y989625D01*
X92362Y989587D01*
X91373Y989177D01*
X87027Y989177D01*
X83013Y990840D01*
X79940Y993913D01*
X78277Y997927D01*
X78277Y1002273D01*
X79940Y1006287D01*
X83013Y1009360D01*
X87027Y1011023D01*
X91373Y1011023D01*
X95387Y1009360D01*
X98460Y1006287D01*
X100123Y1002273D01*
X100123Y997927D01*
X98460Y993913D01*
X98396Y993849D01*
X98384Y993833D01*
X98369Y993820D01*
X98313Y993733D01*
X98253Y993649D01*
X98247Y993630D01*
X98236Y993614D01*
X98211Y993513D01*
X98180Y993414D01*
X98181Y993394D01*
X98176Y993375D01*
X98184Y993272D01*
X98187Y993168D01*
X98193Y993150D01*
X98195Y993130D01*
X98235Y993035D01*
X98271Y992937D01*
X98284Y992922D01*
X98291Y992903D01*
X98396Y992772D01*
X104815Y986354D01*
X104815Y983848D01*
X104344Y983377D01*
X104332Y983361D01*
X104317Y983349D01*
X104261Y983261D01*
X104200Y983178D01*
X104195Y983159D01*
X104184Y983142D01*
X104158Y983041D01*
X104128Y982942D01*
X104129Y982923D01*
X104124Y982903D01*
X104132Y982800D01*
X104134Y982697D01*
X104141Y982678D01*
X104143Y982658D01*
X104183Y982563D01*
X104219Y982466D01*
X104231Y982450D01*
X104239Y982432D01*
X104344Y982301D01*
X105010Y981634D01*
X105027Y981622D01*
X105039Y981607D01*
X105126Y981551D01*
X105210Y981491D01*
X105229Y981485D01*
X105246Y981474D01*
X105347Y981449D01*
X105445Y981418D01*
X105465Y981419D01*
X105485Y981414D01*
X105588Y981422D01*
X105691Y981425D01*
X105710Y981431D01*
X105730Y981433D01*
X105825Y981473D01*
X105922Y981509D01*
X105938Y981522D01*
X105956Y981529D01*
X106087Y981634D01*
X108413Y983960D01*
X112427Y985623D01*
X116773Y985623D01*
X120787Y983960D01*
X123860Y980887D01*
X125523Y976873D01*
X125523Y972527D01*
X123860Y968513D01*
X123796Y968449D01*
X123784Y968433D01*
X123769Y968420D01*
X123713Y968333D01*
X123653Y968249D01*
X123647Y968230D01*
X123636Y968214D01*
X123611Y968113D01*
X123580Y968014D01*
X123581Y967994D01*
X123576Y967975D01*
X123584Y967872D01*
X123587Y967768D01*
X123593Y967750D01*
X123595Y967730D01*
X123635Y967635D01*
X123671Y967537D01*
X123684Y967522D01*
X123691Y967503D01*
X123796Y967372D01*
X133090Y958079D01*
X133090Y951442D01*
X133104Y951352D01*
X133112Y951261D01*
X133124Y951232D01*
X133129Y951200D01*
X133172Y951119D01*
X133208Y951035D01*
X133234Y951003D01*
X133245Y950982D01*
X133268Y950960D01*
X133313Y950904D01*
X135372Y948845D01*
X135372Y944449D01*
X132263Y941340D01*
X131308Y941340D01*
X131237Y941329D01*
X131166Y941327D01*
X131117Y941309D01*
X131065Y941301D01*
X131002Y941267D01*
X130935Y941242D01*
X130894Y941210D01*
X130848Y941185D01*
X130799Y941133D01*
X130743Y941089D01*
X130714Y941045D01*
X130679Y941007D01*
X130648Y940942D01*
X130610Y940882D01*
X130597Y940831D01*
X130575Y940784D01*
X130567Y940713D01*
X130550Y940643D01*
X130554Y940591D01*
X130548Y940540D01*
X130563Y940469D01*
X130569Y940398D01*
X130589Y940350D01*
X130600Y940299D01*
X130637Y940238D01*
X130665Y940172D01*
X130710Y940116D01*
X130726Y940088D01*
X130744Y940073D01*
X130770Y940041D01*
X143536Y927275D01*
X143610Y927222D01*
X143679Y927162D01*
X143709Y927150D01*
X143736Y927131D01*
X143823Y927104D01*
X143907Y927070D01*
X143948Y927066D01*
X143971Y927059D01*
X144003Y927060D01*
X144074Y927052D01*
X180689Y927052D01*
X180779Y927066D01*
X180870Y927074D01*
X180899Y927086D01*
X180931Y927091D01*
X181012Y927134D01*
X181096Y927170D01*
X181128Y927196D01*
X181149Y927207D01*
X181171Y927230D01*
X181227Y927275D01*
X183286Y929334D01*
X187682Y929334D01*
X190791Y926225D01*
X190791Y921829D01*
X189134Y920172D01*
X189092Y920114D01*
X189043Y920062D01*
X189021Y920015D01*
X188991Y919973D01*
X188969Y919904D01*
X188939Y919839D01*
X188934Y919787D01*
X188918Y919737D01*
X188920Y919666D01*
X188912Y919595D01*
X188923Y919544D01*
X188925Y919492D01*
X188949Y919424D01*
X188964Y919354D01*
X188991Y919309D01*
X189009Y919261D01*
X189054Y919205D01*
X189091Y919143D01*
X189130Y919109D01*
X189163Y919069D01*
X189223Y919030D01*
X189278Y918983D01*
X189326Y918964D01*
X189370Y918936D01*
X189439Y918918D01*
X189506Y918891D01*
X189577Y918883D01*
X189608Y918875D01*
X189631Y918877D01*
X189672Y918873D01*
X239591Y918873D01*
X254336Y904128D01*
X254394Y904086D01*
X254446Y904037D01*
X254493Y904015D01*
X254535Y903985D01*
X254604Y903964D01*
X254669Y903933D01*
X254721Y903928D01*
X254771Y903912D01*
X254842Y903914D01*
X254913Y903906D01*
X254964Y903917D01*
X255016Y903919D01*
X255084Y903943D01*
X255154Y903959D01*
X255199Y903985D01*
X255247Y904003D01*
X255303Y904048D01*
X255365Y904085D01*
X255399Y904124D01*
X255439Y904157D01*
X255478Y904217D01*
X255525Y904272D01*
X255544Y904320D01*
X255572Y904364D01*
X255590Y904433D01*
X255617Y904500D01*
X255625Y904571D01*
X255633Y904602D01*
X255631Y904626D01*
X255635Y904667D01*
X255635Y904852D01*
X256528Y905745D01*
X282792Y905745D01*
X283685Y904852D01*
X283685Y878588D01*
X282792Y877695D01*
X256528Y877695D01*
X255635Y878588D01*
X255635Y884177D01*
X255624Y884247D01*
X255622Y884319D01*
X255604Y884368D01*
X255596Y884419D01*
X255562Y884483D01*
X255537Y884550D01*
X255505Y884591D01*
X255480Y884637D01*
X255428Y884686D01*
X255384Y884742D01*
X255340Y884770D01*
X255302Y884806D01*
X255237Y884836D01*
X255177Y884875D01*
X255126Y884888D01*
X255079Y884910D01*
X255008Y884918D01*
X254938Y884935D01*
X254886Y884931D01*
X254835Y884937D01*
X254764Y884922D01*
X254693Y884916D01*
X254645Y884896D01*
X254594Y884885D01*
X254533Y884848D01*
X254467Y884820D01*
X254411Y884775D01*
X254383Y884758D01*
X254368Y884741D01*
X254336Y884715D01*
X252149Y882528D01*
X249237Y882528D01*
X249147Y882514D01*
X249056Y882506D01*
X249026Y882494D01*
X248994Y882489D01*
X248914Y882446D01*
X248830Y882410D01*
X248798Y882384D01*
X248777Y882373D01*
X248755Y882350D01*
X248699Y882305D01*
X198931Y832537D01*
X198878Y832463D01*
X198818Y832394D01*
X198806Y832364D01*
X198787Y832337D01*
X198760Y832250D01*
X198726Y832166D01*
X198722Y832125D01*
X198715Y832102D01*
X198716Y832070D01*
X198715Y832067D01*
X198715Y832063D01*
X198708Y831999D01*
X198708Y831964D01*
X198719Y831893D01*
X198721Y831821D01*
X198739Y831772D01*
X198747Y831721D01*
X198781Y831657D01*
X198806Y831590D01*
X198838Y831549D01*
X198863Y831503D01*
X198915Y831454D01*
X198959Y831398D01*
X199003Y831370D01*
X199041Y831334D01*
X199106Y831304D01*
X199166Y831265D01*
X199217Y831252D01*
X199264Y831230D01*
X199335Y831223D01*
X199405Y831205D01*
X199457Y831209D01*
X199508Y831203D01*
X199579Y831219D01*
X199650Y831224D01*
X199698Y831245D01*
X199749Y831256D01*
X199810Y831292D01*
X199876Y831320D01*
X199932Y831365D01*
X199960Y831382D01*
X199975Y831400D01*
X200007Y831425D01*
X241310Y872728D01*
X244477Y875895D01*
X300711Y875895D01*
X300801Y875909D01*
X300892Y875917D01*
X300922Y875929D01*
X300954Y875934D01*
X301035Y875977D01*
X301119Y876013D01*
X301151Y876039D01*
X301171Y876050D01*
X301194Y876073D01*
X301250Y876118D01*
X301837Y876705D01*
X301879Y876763D01*
X301928Y876815D01*
X301950Y876862D01*
X301980Y876904D01*
X302001Y876973D01*
X302032Y877038D01*
X302037Y877090D01*
X302053Y877140D01*
X302051Y877211D01*
X302059Y877282D01*
X302048Y877333D01*
X302046Y877385D01*
X302022Y877453D01*
X302006Y877523D01*
X301980Y877568D01*
X301962Y877616D01*
X301917Y877672D01*
X301880Y877734D01*
X301841Y877768D01*
X301808Y877808D01*
X301748Y877847D01*
X301693Y877894D01*
X301645Y877913D01*
X301601Y877941D01*
X301532Y877959D01*
X301465Y877986D01*
X301394Y877994D01*
X301363Y878002D01*
X301339Y878000D01*
X301298Y878004D01*
X299779Y878004D01*
X296670Y881113D01*
X296670Y885509D01*
X299779Y888618D01*
X300429Y888618D01*
X300519Y888632D01*
X300610Y888640D01*
X300640Y888652D01*
X300672Y888657D01*
X300752Y888700D01*
X300836Y888736D01*
X300868Y888762D01*
X300889Y888773D01*
X300911Y888796D01*
X300967Y888841D01*
X383179Y971053D01*
X383246Y971146D01*
X383317Y971242D01*
X383319Y971248D01*
X383323Y971253D01*
X383357Y971363D01*
X383393Y971475D01*
X383393Y971482D01*
X383395Y971488D01*
X383392Y971605D01*
X383391Y971721D01*
X383389Y971729D01*
X383389Y971734D01*
X383382Y971751D01*
X383344Y971883D01*
X383077Y972527D01*
X383077Y976873D01*
X384740Y980887D01*
X387813Y983960D01*
X391827Y985623D01*
X396173Y985623D01*
X400187Y983960D01*
X403260Y980887D01*
X404923Y976873D01*
X404923Y972527D01*
X403260Y968513D01*
X400187Y965440D01*
X396173Y963777D01*
X391827Y963777D01*
X387813Y965440D01*
X387506Y965747D01*
X387489Y965759D01*
X387477Y965775D01*
X387390Y965831D01*
X387306Y965891D01*
X387287Y965897D01*
X387270Y965908D01*
X387170Y965933D01*
X387071Y965963D01*
X387051Y965963D01*
X387031Y965968D01*
X386928Y965960D01*
X386825Y965957D01*
X386806Y965950D01*
X386786Y965949D01*
X386691Y965908D01*
X386594Y965872D01*
X386578Y965860D01*
X386560Y965852D01*
X386429Y965747D01*
X307276Y886594D01*
X307264Y886578D01*
X307248Y886565D01*
X307192Y886478D01*
X307132Y886394D01*
X307126Y886375D01*
X307115Y886358D01*
X307090Y886258D01*
X307060Y886159D01*
X307060Y886139D01*
X307055Y886120D01*
X307063Y886017D01*
X307066Y885913D01*
X307073Y885894D01*
X307074Y885875D01*
X307115Y885780D01*
X307150Y885682D01*
X307163Y885667D01*
X307171Y885648D01*
X307276Y885517D01*
X307284Y885509D01*
X307284Y883990D01*
X307295Y883919D01*
X307297Y883847D01*
X307315Y883798D01*
X307323Y883747D01*
X307357Y883683D01*
X307382Y883616D01*
X307414Y883575D01*
X307439Y883529D01*
X307491Y883480D01*
X307535Y883424D01*
X307579Y883396D01*
X307617Y883360D01*
X307682Y883330D01*
X307742Y883291D01*
X307793Y883278D01*
X307840Y883256D01*
X307911Y883249D01*
X307981Y883231D01*
X308033Y883235D01*
X308084Y883229D01*
X308155Y883245D01*
X308226Y883250D01*
X308274Y883271D01*
X308325Y883282D01*
X308386Y883318D01*
X308452Y883346D01*
X308508Y883391D01*
X308536Y883408D01*
X308551Y883426D01*
X308583Y883451D01*
X334052Y908920D01*
X337219Y912087D01*
X471446Y912087D01*
X484248Y899285D01*
X484306Y899243D01*
X484358Y899194D01*
X484405Y899172D01*
X484447Y899142D01*
X484516Y899121D01*
X484581Y899090D01*
X484633Y899085D01*
X484683Y899069D01*
X484754Y899071D01*
X484825Y899063D01*
X484876Y899074D01*
X484928Y899076D01*
X484996Y899100D01*
X485066Y899116D01*
X485111Y899142D01*
X485159Y899160D01*
X485215Y899205D01*
X485277Y899242D01*
X485311Y899281D01*
X485351Y899314D01*
X485390Y899374D01*
X485437Y899429D01*
X485456Y899477D01*
X485484Y899521D01*
X485502Y899590D01*
X485529Y899657D01*
X485537Y899728D01*
X485545Y899759D01*
X485543Y899783D01*
X485547Y899824D01*
X485547Y901343D01*
X487606Y903402D01*
X487659Y903476D01*
X487719Y903546D01*
X487731Y903576D01*
X487750Y903602D01*
X487777Y903689D01*
X487811Y903774D01*
X487815Y903815D01*
X487822Y903837D01*
X487821Y903869D01*
X487829Y903940D01*
X487829Y974485D01*
X487815Y974575D01*
X487807Y974666D01*
X487795Y974696D01*
X487790Y974728D01*
X487747Y974808D01*
X487711Y974892D01*
X487685Y974924D01*
X487674Y974945D01*
X487651Y974967D01*
X487606Y975023D01*
X449108Y1013521D01*
X449034Y1013574D01*
X448965Y1013634D01*
X448935Y1013646D01*
X448908Y1013665D01*
X448821Y1013692D01*
X448737Y1013726D01*
X448696Y1013730D01*
X448673Y1013737D01*
X448641Y1013736D01*
X448570Y1013744D01*
X415514Y1013744D01*
X415424Y1013730D01*
X415333Y1013722D01*
X415303Y1013710D01*
X415271Y1013705D01*
X415191Y1013662D01*
X415107Y1013626D01*
X415075Y1013600D01*
X415054Y1013589D01*
X415047Y1013582D01*
X415046Y1013582D01*
X415030Y1013565D01*
X414976Y1013521D01*
X404932Y1003478D01*
X404864Y1003383D01*
X404794Y1003289D01*
X404792Y1003283D01*
X404789Y1003278D01*
X404754Y1003166D01*
X404718Y1003055D01*
X404718Y1003049D01*
X404716Y1003043D01*
X404719Y1002926D01*
X404721Y1002809D01*
X404723Y1002802D01*
X404723Y1002797D01*
X404729Y1002779D01*
X404767Y1002648D01*
X404923Y1002273D01*
X404923Y997927D01*
X403260Y993913D01*
X400187Y990840D01*
X396173Y989177D01*
X391827Y989177D01*
X387813Y990840D01*
X384740Y993913D01*
X383077Y997927D01*
X383077Y1002273D01*
X384740Y1006287D01*
X387813Y1009360D01*
X391827Y1011023D01*
X396173Y1011023D01*
X400187Y1009360D01*
X400685Y1008862D01*
X400701Y1008850D01*
X400714Y1008835D01*
X400801Y1008779D01*
X400885Y1008719D01*
X400904Y1008713D01*
X400920Y1008702D01*
X401021Y1008677D01*
X401120Y1008646D01*
X401140Y1008647D01*
X401159Y1008642D01*
X401262Y1008650D01*
X401366Y1008653D01*
X401384Y1008659D01*
X401404Y1008661D01*
X401499Y1008701D01*
X401597Y1008737D01*
X401612Y1008750D01*
X401631Y1008757D01*
X401762Y1008862D01*
X409868Y1016969D01*
X409910Y1017027D01*
X409959Y1017079D01*
X409981Y1017126D01*
X410012Y1017168D01*
X410033Y1017237D01*
X410063Y1017302D01*
X410069Y1017354D01*
X410084Y1017404D01*
X410082Y1017475D01*
X410090Y1017546D01*
X410079Y1017597D01*
X410078Y1017649D01*
X410053Y1017717D01*
X410038Y1017787D01*
X410011Y1017831D01*
X409993Y1017880D01*
X409948Y1017936D01*
X409912Y1017998D01*
X409872Y1018032D01*
X409840Y1018072D01*
X409779Y1018111D01*
X409725Y1018158D01*
X409676Y1018177D01*
X409633Y1018205D01*
X409563Y1018223D01*
X409497Y1018250D01*
X409425Y1018258D01*
X409394Y1018266D01*
X409371Y1018264D01*
X409330Y1018268D01*
X343130Y1018268D01*
X343040Y1018254D01*
X342949Y1018246D01*
X342919Y1018234D01*
X342887Y1018229D01*
X342807Y1018186D01*
X342723Y1018150D01*
X342691Y1018124D01*
X342670Y1018113D01*
X342648Y1018090D01*
X342592Y1018045D01*
X335633Y1011087D01*
X335622Y1011071D01*
X335606Y1011058D01*
X335550Y1010971D01*
X335490Y1010887D01*
X335484Y1010868D01*
X335473Y1010851D01*
X335448Y1010751D01*
X335417Y1010652D01*
X335418Y1010632D01*
X335413Y1010613D01*
X335421Y1010510D01*
X335424Y1010406D01*
X335431Y1010387D01*
X335432Y1010368D01*
X335473Y1010273D01*
X335508Y1010175D01*
X335521Y1010159D01*
X335529Y1010141D01*
X335539Y1010129D01*
X335539Y1009724D01*
X335550Y1009653D01*
X335552Y1009581D01*
X335570Y1009532D01*
X335578Y1009481D01*
X335612Y1009418D01*
X335637Y1009350D01*
X335669Y1009309D01*
X335694Y1009263D01*
X335745Y1009214D01*
X335790Y1009158D01*
X335834Y1009130D01*
X335872Y1009094D01*
X335937Y1009064D01*
X335997Y1009025D01*
X336048Y1009012D01*
X336095Y1008990D01*
X336166Y1008983D01*
X336236Y1008965D01*
X336288Y1008969D01*
X336339Y1008963D01*
X336410Y1008979D01*
X336481Y1008984D01*
X336529Y1009005D01*
X336580Y1009016D01*
X336641Y1009052D01*
X336707Y1009081D01*
X336763Y1009125D01*
X336791Y1009142D01*
X336806Y1009160D01*
X336838Y1009185D01*
X337013Y1009360D01*
X341027Y1011023D01*
X345373Y1011023D01*
X349387Y1009360D01*
X352460Y1006287D01*
X354123Y1002273D01*
X354123Y997927D01*
X352460Y993913D01*
X349387Y990840D01*
X345373Y989177D01*
X341027Y989177D01*
X337013Y990840D01*
X336838Y991015D01*
X336780Y991057D01*
X336728Y991106D01*
X336681Y991128D01*
X336639Y991158D01*
X336570Y991179D01*
X336505Y991210D01*
X336453Y991215D01*
X336403Y991231D01*
X336332Y991229D01*
X336261Y991237D01*
X336210Y991226D01*
X336158Y991224D01*
X336090Y991200D01*
X336020Y991184D01*
X335975Y991158D01*
X335927Y991140D01*
X335871Y991095D01*
X335809Y991058D01*
X335775Y991019D01*
X335735Y990986D01*
X335696Y990926D01*
X335649Y990871D01*
X335630Y990823D01*
X335602Y990779D01*
X335584Y990710D01*
X335557Y990643D01*
X335549Y990572D01*
X335541Y990541D01*
X335543Y990517D01*
X335539Y990476D01*
X335539Y989503D01*
X327379Y981344D01*
X327312Y981250D01*
X327241Y981155D01*
X327239Y981149D01*
X327236Y981144D01*
X327202Y981033D01*
X327165Y980921D01*
X327165Y980915D01*
X327163Y980909D01*
X327167Y980792D01*
X327168Y980675D01*
X327170Y980668D01*
X327170Y980663D01*
X327176Y980646D01*
X327214Y980514D01*
X328723Y976873D01*
X328723Y972527D01*
X327060Y968513D01*
X323987Y965440D01*
X319973Y963777D01*
X315627Y963777D01*
X311613Y965440D01*
X308540Y968513D01*
X306877Y972527D01*
X306877Y976873D01*
X308540Y980887D01*
X311613Y983960D01*
X315627Y985623D01*
X319973Y985623D01*
X321716Y984900D01*
X321830Y984874D01*
X321943Y984845D01*
X321950Y984846D01*
X321956Y984844D01*
X322072Y984855D01*
X322189Y984864D01*
X322194Y984867D01*
X322201Y984867D01*
X322308Y984915D01*
X322415Y984961D01*
X322421Y984965D01*
X322425Y984967D01*
X322439Y984980D01*
X322546Y985066D01*
X328829Y991349D01*
X328841Y991365D01*
X328856Y991377D01*
X328912Y991465D01*
X328973Y991548D01*
X328978Y991567D01*
X328989Y991584D01*
X329015Y991685D01*
X329045Y991784D01*
X329044Y991804D01*
X329049Y991823D01*
X329041Y991926D01*
X329039Y992029D01*
X329032Y992048D01*
X329030Y992068D01*
X328990Y992163D01*
X328954Y992260D01*
X328942Y992276D01*
X328934Y992294D01*
X328829Y992425D01*
X328389Y992865D01*
X328324Y992912D01*
X328266Y992965D01*
X328225Y992983D01*
X328189Y993009D01*
X328113Y993032D01*
X328040Y993064D01*
X327996Y993068D01*
X327954Y993081D01*
X327875Y993079D01*
X327795Y993086D01*
X327752Y993076D01*
X327708Y993075D01*
X327634Y993048D01*
X327556Y993029D01*
X327519Y993006D01*
X327477Y992990D01*
X327415Y992941D01*
X327348Y992899D01*
X327308Y992855D01*
X327285Y992837D01*
X327270Y992813D01*
X327235Y992775D01*
X326906Y992322D01*
X325578Y990994D01*
X324057Y989889D01*
X322383Y989036D01*
X320596Y988455D01*
X319323Y988254D01*
X319323Y999338D01*
X319320Y999358D01*
X319322Y999377D01*
X319300Y999479D01*
X319283Y999581D01*
X319274Y999598D01*
X319270Y999618D01*
X319217Y999707D01*
X319168Y999798D01*
X319154Y999812D01*
X319144Y999829D01*
X319065Y999896D01*
X318990Y999967D01*
X318972Y999976D01*
X318957Y999989D01*
X318861Y1000027D01*
X318767Y1000071D01*
X318747Y1000073D01*
X318729Y1000081D01*
X318562Y1000099D01*
X317799Y1000099D01*
X317799Y1000101D01*
X318562Y1000101D01*
X318582Y1000104D01*
X318601Y1000102D01*
X318703Y1000124D01*
X318805Y1000141D01*
X318822Y1000150D01*
X318842Y1000154D01*
X318931Y1000207D01*
X319022Y1000256D01*
X319036Y1000270D01*
X319053Y1000280D01*
X319120Y1000359D01*
X319191Y1000434D01*
X319200Y1000452D01*
X319213Y1000467D01*
X319251Y1000563D01*
X319295Y1000657D01*
X319297Y1000677D01*
X319305Y1000695D01*
X319323Y1000862D01*
X319323Y1011946D01*
X320596Y1011745D01*
X322383Y1011164D01*
X324057Y1010311D01*
X325578Y1009206D01*
X326906Y1007878D01*
X327008Y1007738D01*
X327065Y1007682D01*
X327114Y1007620D01*
X327151Y1007596D01*
X327183Y1007565D01*
X327254Y1007530D01*
X327321Y1007487D01*
X327364Y1007476D01*
X327404Y1007456D01*
X327483Y1007446D01*
X327560Y1007427D01*
X327604Y1007430D01*
X327648Y1007424D01*
X327726Y1007439D01*
X327805Y1007446D01*
X327845Y1007463D01*
X327889Y1007471D01*
X327958Y1007511D01*
X328031Y1007542D01*
X328077Y1007579D01*
X328103Y1007593D01*
X328121Y1007614D01*
X328162Y1007647D01*
X328264Y1007748D01*
X328275Y1007764D01*
X328291Y1007777D01*
X328347Y1007864D01*
X328407Y1007948D01*
X328413Y1007967D01*
X328424Y1007984D01*
X328449Y1008084D01*
X328480Y1008183D01*
X328479Y1008203D01*
X328484Y1008222D01*
X328476Y1008325D01*
X328473Y1008429D01*
X328466Y1008448D01*
X328465Y1008468D01*
X328424Y1008563D01*
X328389Y1008660D01*
X328376Y1008676D01*
X328368Y1008694D01*
X328358Y1008707D01*
X328358Y1012367D01*
X330353Y1014362D01*
X337484Y1021493D01*
X337526Y1021551D01*
X337575Y1021603D01*
X337597Y1021650D01*
X337628Y1021692D01*
X337649Y1021761D01*
X337679Y1021826D01*
X337685Y1021878D01*
X337700Y1021928D01*
X337698Y1021999D01*
X337706Y1022070D01*
X337695Y1022121D01*
X337694Y1022173D01*
X337669Y1022241D01*
X337654Y1022311D01*
X337627Y1022356D01*
X337609Y1022404D01*
X337564Y1022460D01*
X337528Y1022522D01*
X337488Y1022556D01*
X337456Y1022596D01*
X337395Y1022635D01*
X337341Y1022682D01*
X337292Y1022701D01*
X337249Y1022729D01*
X337179Y1022747D01*
X337113Y1022774D01*
X337041Y1022782D01*
X337010Y1022790D01*
X336987Y1022788D01*
X336946Y1022792D01*
X245864Y1022792D01*
X245774Y1022778D01*
X245683Y1022770D01*
X245653Y1022758D01*
X245621Y1022753D01*
X245541Y1022710D01*
X245457Y1022674D01*
X245425Y1022648D01*
X245404Y1022637D01*
X245382Y1022614D01*
X245326Y1022569D01*
X226869Y1004113D01*
X226801Y1004018D01*
X226731Y1003924D01*
X226729Y1003918D01*
X226726Y1003913D01*
X226691Y1003801D01*
X226655Y1003690D01*
X226655Y1003684D01*
X226653Y1003678D01*
X226656Y1003560D01*
X226657Y1003444D01*
X226660Y1003437D01*
X226660Y1003432D01*
X226666Y1003415D01*
X226704Y1003283D01*
X227123Y1002273D01*
X227123Y997927D01*
X225460Y993913D01*
X222387Y990840D01*
X218373Y989177D01*
X214027Y989177D01*
X210013Y990840D01*
X206940Y993913D01*
X205277Y997927D01*
X205277Y1002273D01*
X206940Y1006287D01*
X210013Y1009360D01*
X214027Y1011023D01*
X218373Y1011023D01*
X222387Y1009360D01*
X222436Y1009311D01*
X222452Y1009300D01*
X222465Y1009284D01*
X222552Y1009228D01*
X222636Y1009168D01*
X222655Y1009162D01*
X222671Y1009151D01*
X222772Y1009126D01*
X222871Y1009095D01*
X222891Y1009096D01*
X222910Y1009091D01*
X223013Y1009099D01*
X223117Y1009102D01*
X223135Y1009108D01*
X223155Y1009110D01*
X223250Y1009150D01*
X223348Y1009186D01*
X223363Y1009199D01*
X223382Y1009206D01*
X223513Y1009311D01*
X243043Y1028842D01*
X455915Y1028842D01*
X562870Y921887D01*
X562870Y440968D01*
X560875Y438973D01*
X501513Y379611D01*
X501501Y379595D01*
X501485Y379582D01*
X501429Y379495D01*
X501369Y379411D01*
X501363Y379392D01*
X501352Y379375D01*
X501327Y379275D01*
X501297Y379176D01*
X501297Y379156D01*
X501292Y379137D01*
X501300Y379034D01*
X501303Y378930D01*
X501310Y378912D01*
X501311Y378892D01*
X501352Y378797D01*
X501388Y378699D01*
X501400Y378684D01*
X501408Y378665D01*
X501513Y378534D01*
X501860Y378187D01*
X503523Y374173D01*
X503523Y369827D01*
X501860Y365813D01*
X498787Y362740D01*
X494773Y361077D01*
X490427Y361077D01*
G37*
%LPD*%
%LPC*%
G36*
X-10173Y361077D02*
X-10173Y361077D01*
X-14187Y362740D01*
X-17260Y365813D01*
X-18923Y369827D01*
X-18923Y374173D01*
X-17260Y378187D01*
X-14187Y381260D01*
X-13911Y381374D01*
X-13872Y381399D01*
X-13828Y381414D01*
X-13768Y381463D01*
X-13702Y381504D01*
X-13672Y381539D01*
X-13636Y381568D01*
X-13594Y381634D01*
X-13545Y381694D01*
X-13528Y381736D01*
X-13503Y381775D01*
X-13484Y381850D01*
X-13457Y381923D01*
X-13455Y381969D01*
X-13443Y382014D01*
X-13449Y382091D01*
X-13446Y382169D01*
X-13459Y382213D01*
X-13462Y382259D01*
X-13493Y382330D01*
X-13515Y382405D01*
X-13541Y382443D01*
X-13559Y382485D01*
X-13644Y382592D01*
X-13655Y382607D01*
X-13659Y382610D01*
X-13664Y382616D01*
X-14602Y383554D01*
X-16597Y385549D01*
X-16597Y458915D01*
X-16611Y459005D01*
X-16619Y459096D01*
X-16631Y459125D01*
X-16636Y459157D01*
X-16679Y459238D01*
X-16715Y459322D01*
X-16741Y459354D01*
X-16752Y459375D01*
X-16775Y459397D01*
X-16820Y459453D01*
X-18879Y461512D01*
X-18879Y465908D01*
X-18353Y466434D01*
X-18311Y466492D01*
X-18262Y466544D01*
X-18240Y466591D01*
X-18210Y466633D01*
X-18188Y466702D01*
X-18158Y466767D01*
X-18153Y466819D01*
X-18137Y466869D01*
X-18139Y466940D01*
X-18131Y467011D01*
X-18142Y467062D01*
X-18144Y467114D01*
X-18168Y467182D01*
X-18183Y467252D01*
X-18210Y467296D01*
X-18228Y467345D01*
X-18273Y467401D01*
X-18310Y467463D01*
X-18349Y467497D01*
X-18382Y467537D01*
X-18442Y467576D01*
X-18497Y467623D01*
X-18545Y467642D01*
X-18589Y467670D01*
X-18658Y467688D01*
X-18725Y467715D01*
X-18796Y467723D01*
X-18827Y467731D01*
X-18850Y467729D01*
X-18891Y467733D01*
X-134454Y467733D01*
X-134544Y467719D01*
X-134635Y467711D01*
X-134665Y467699D01*
X-134697Y467694D01*
X-134778Y467651D01*
X-134862Y467615D01*
X-134894Y467589D01*
X-134914Y467578D01*
X-134937Y467555D01*
X-134993Y467510D01*
X-158854Y443649D01*
X-158907Y443575D01*
X-158967Y443505D01*
X-158979Y443475D01*
X-158998Y443449D01*
X-159025Y443362D01*
X-159059Y443277D01*
X-159063Y443236D01*
X-159070Y443214D01*
X-159069Y443182D01*
X-159077Y443110D01*
X-159077Y442827D01*
X-160740Y438813D01*
X-163813Y435740D01*
X-167827Y434077D01*
X-172173Y434077D01*
X-176187Y435740D01*
X-179260Y438813D01*
X-180923Y442827D01*
X-180923Y447173D01*
X-179260Y451187D01*
X-176187Y454260D01*
X-172173Y455923D01*
X-167827Y455923D01*
X-163813Y454260D01*
X-163672Y454119D01*
X-163656Y454108D01*
X-163644Y454092D01*
X-163557Y454036D01*
X-163473Y453976D01*
X-163454Y453970D01*
X-163437Y453959D01*
X-163336Y453934D01*
X-163237Y453903D01*
X-163218Y453904D01*
X-163198Y453899D01*
X-163095Y453907D01*
X-162992Y453910D01*
X-162973Y453917D01*
X-162953Y453918D01*
X-162858Y453959D01*
X-162761Y453994D01*
X-162745Y454007D01*
X-162727Y454015D01*
X-162596Y454119D01*
X-142099Y474616D01*
X-138932Y477783D01*
X-36987Y477783D01*
X-36917Y477794D01*
X-36845Y477796D01*
X-36796Y477814D01*
X-36745Y477822D01*
X-36681Y477856D01*
X-36614Y477881D01*
X-36573Y477913D01*
X-36527Y477938D01*
X-36478Y477990D01*
X-36422Y478034D01*
X-36394Y478078D01*
X-36358Y478116D01*
X-36328Y478181D01*
X-36289Y478241D01*
X-36276Y478292D01*
X-36254Y478339D01*
X-36246Y478410D01*
X-36229Y478480D01*
X-36233Y478532D01*
X-36227Y478583D01*
X-36242Y478654D01*
X-36248Y478725D01*
X-36268Y478773D01*
X-36279Y478824D01*
X-36316Y478885D01*
X-36344Y478951D01*
X-36389Y479007D01*
X-36406Y479035D01*
X-36423Y479050D01*
X-36449Y479082D01*
X-36975Y479608D01*
X-36975Y484004D01*
X-33866Y487113D01*
X-30954Y487113D01*
X-30864Y487127D01*
X-30773Y487135D01*
X-30743Y487147D01*
X-30711Y487152D01*
X-30631Y487195D01*
X-30547Y487231D01*
X-30515Y487257D01*
X-30494Y487268D01*
X-30472Y487291D01*
X-30416Y487336D01*
X178576Y696328D01*
X316409Y696328D01*
X316499Y696342D01*
X316590Y696350D01*
X316619Y696362D01*
X316651Y696367D01*
X316732Y696410D01*
X316816Y696446D01*
X316848Y696472D01*
X316869Y696483D01*
X316891Y696506D01*
X316947Y696551D01*
X319006Y698610D01*
X323402Y698610D01*
X326511Y695501D01*
X326511Y691105D01*
X323402Y687996D01*
X319006Y687996D01*
X316947Y690055D01*
X316873Y690108D01*
X316803Y690168D01*
X316773Y690180D01*
X316747Y690199D01*
X316660Y690226D01*
X316575Y690260D01*
X316534Y690264D01*
X316512Y690271D01*
X316480Y690270D01*
X316409Y690278D01*
X181397Y690278D01*
X181307Y690264D01*
X181216Y690256D01*
X181186Y690244D01*
X181154Y690239D01*
X181074Y690196D01*
X180990Y690160D01*
X180958Y690134D01*
X180937Y690123D01*
X180915Y690100D01*
X180859Y690055D01*
X-26138Y483058D01*
X-26191Y482984D01*
X-26251Y482915D01*
X-26263Y482885D01*
X-26282Y482858D01*
X-26309Y482771D01*
X-26343Y482687D01*
X-26347Y482646D01*
X-26354Y482623D01*
X-26353Y482591D01*
X-26361Y482520D01*
X-26361Y479608D01*
X-26887Y479082D01*
X-26929Y479024D01*
X-26978Y478972D01*
X-27000Y478925D01*
X-27030Y478883D01*
X-27052Y478814D01*
X-27082Y478749D01*
X-27087Y478697D01*
X-27103Y478647D01*
X-27101Y478576D01*
X-27109Y478505D01*
X-27098Y478454D01*
X-27096Y478402D01*
X-27072Y478334D01*
X-27057Y478264D01*
X-27030Y478219D01*
X-27012Y478171D01*
X-26967Y478115D01*
X-26930Y478053D01*
X-26891Y478019D01*
X-26858Y477979D01*
X-26798Y477940D01*
X-26743Y477893D01*
X-26695Y477874D01*
X-26651Y477846D01*
X-26582Y477828D01*
X-26515Y477801D01*
X-26444Y477793D01*
X-26413Y477785D01*
X-26390Y477787D01*
X-26349Y477783D01*
X158676Y477783D01*
X158746Y477794D01*
X158818Y477796D01*
X158867Y477814D01*
X158918Y477822D01*
X158982Y477856D01*
X159049Y477881D01*
X159090Y477913D01*
X159136Y477938D01*
X159185Y477990D01*
X159241Y478034D01*
X159269Y478078D01*
X159305Y478116D01*
X159335Y478181D01*
X159374Y478241D01*
X159387Y478292D01*
X159409Y478339D01*
X159417Y478410D01*
X159434Y478480D01*
X159430Y478532D01*
X159436Y478583D01*
X159421Y478654D01*
X159415Y478725D01*
X159395Y478773D01*
X159384Y478824D01*
X159347Y478885D01*
X159319Y478951D01*
X159274Y479007D01*
X159257Y479035D01*
X159240Y479050D01*
X159214Y479082D01*
X158688Y479608D01*
X158688Y484004D01*
X161797Y487113D01*
X164709Y487113D01*
X164799Y487127D01*
X164890Y487135D01*
X164920Y487147D01*
X164952Y487152D01*
X165032Y487195D01*
X165116Y487231D01*
X165148Y487257D01*
X165169Y487268D01*
X165191Y487291D01*
X165247Y487336D01*
X357541Y679630D01*
X357594Y679704D01*
X357654Y679773D01*
X357666Y679803D01*
X357685Y679830D01*
X357712Y679917D01*
X357746Y680001D01*
X357750Y680042D01*
X357757Y680065D01*
X357756Y680097D01*
X357764Y680168D01*
X357764Y713783D01*
X371113Y727132D01*
X371166Y727206D01*
X371226Y727275D01*
X371238Y727305D01*
X371257Y727332D01*
X371284Y727419D01*
X371318Y727503D01*
X371322Y727544D01*
X371329Y727567D01*
X371328Y727599D01*
X371336Y727670D01*
X371336Y760174D01*
X371333Y760194D01*
X371335Y760213D01*
X371313Y760315D01*
X371297Y760417D01*
X371287Y760434D01*
X371283Y760454D01*
X371230Y760543D01*
X371181Y760634D01*
X371167Y760648D01*
X371157Y760665D01*
X371078Y760732D01*
X371003Y760804D01*
X370985Y760812D01*
X370970Y760825D01*
X370874Y760864D01*
X370780Y760907D01*
X370760Y760909D01*
X370742Y760917D01*
X370575Y760935D01*
X367228Y760935D01*
X366335Y761828D01*
X366335Y774172D01*
X367228Y775065D01*
X379572Y775065D01*
X380465Y774172D01*
X380465Y761828D01*
X379572Y760935D01*
X378147Y760935D01*
X378127Y760932D01*
X378108Y760934D01*
X378006Y760912D01*
X377904Y760896D01*
X377887Y760886D01*
X377867Y760882D01*
X377778Y760829D01*
X377687Y760780D01*
X377673Y760766D01*
X377656Y760756D01*
X377589Y760677D01*
X377517Y760602D01*
X377509Y760584D01*
X377496Y760569D01*
X377457Y760473D01*
X377414Y760379D01*
X377412Y760359D01*
X377404Y760341D01*
X377386Y760174D01*
X377386Y724849D01*
X364037Y711500D01*
X363984Y711426D01*
X363924Y711357D01*
X363912Y711327D01*
X363893Y711300D01*
X363866Y711213D01*
X363832Y711129D01*
X363828Y711088D01*
X363821Y711065D01*
X363822Y711033D01*
X363814Y710962D01*
X363814Y680954D01*
X363825Y680883D01*
X363827Y680812D01*
X363845Y680763D01*
X363853Y680711D01*
X363887Y680648D01*
X363912Y680581D01*
X363944Y680540D01*
X363969Y680494D01*
X364021Y680445D01*
X364065Y680389D01*
X364109Y680360D01*
X364147Y680325D01*
X364212Y680294D01*
X364272Y680256D01*
X364323Y680243D01*
X364370Y680221D01*
X364441Y680213D01*
X364511Y680196D01*
X364563Y680200D01*
X364614Y680194D01*
X364685Y680209D01*
X364756Y680215D01*
X364804Y680235D01*
X364855Y680246D01*
X364916Y680283D01*
X364982Y680311D01*
X365038Y680356D01*
X365066Y680372D01*
X365081Y680390D01*
X365113Y680416D01*
X383554Y698857D01*
X383607Y698931D01*
X383667Y699000D01*
X383679Y699030D01*
X383698Y699057D01*
X383725Y699144D01*
X383759Y699228D01*
X383763Y699269D01*
X383770Y699292D01*
X383769Y699324D01*
X383777Y699395D01*
X383777Y714914D01*
X395995Y727132D01*
X396048Y727206D01*
X396108Y727275D01*
X396120Y727305D01*
X396139Y727332D01*
X396166Y727419D01*
X396200Y727503D01*
X396204Y727544D01*
X396211Y727567D01*
X396210Y727599D01*
X396218Y727670D01*
X396218Y760174D01*
X396215Y760194D01*
X396217Y760213D01*
X396195Y760315D01*
X396179Y760417D01*
X396169Y760434D01*
X396165Y760454D01*
X396112Y760543D01*
X396063Y760634D01*
X396049Y760648D01*
X396039Y760665D01*
X395960Y760732D01*
X395885Y760804D01*
X395867Y760812D01*
X395852Y760825D01*
X395756Y760864D01*
X395662Y760907D01*
X395642Y760909D01*
X395624Y760917D01*
X395457Y760935D01*
X392628Y760935D01*
X391735Y761828D01*
X391735Y774172D01*
X392628Y775065D01*
X404972Y775065D01*
X405865Y774172D01*
X405865Y761828D01*
X404972Y760935D01*
X403029Y760935D01*
X403009Y760932D01*
X402990Y760934D01*
X402888Y760912D01*
X402786Y760896D01*
X402769Y760886D01*
X402749Y760882D01*
X402660Y760829D01*
X402569Y760780D01*
X402555Y760766D01*
X402538Y760756D01*
X402471Y760677D01*
X402399Y760602D01*
X402391Y760584D01*
X402378Y760569D01*
X402339Y760473D01*
X402296Y760379D01*
X402294Y760359D01*
X402286Y760341D01*
X402268Y760174D01*
X402268Y724849D01*
X390050Y712631D01*
X389997Y712557D01*
X389937Y712488D01*
X389925Y712458D01*
X389906Y712431D01*
X389879Y712344D01*
X389845Y712260D01*
X389841Y712219D01*
X389834Y712196D01*
X389835Y712164D01*
X389827Y712093D01*
X389827Y696574D01*
X189582Y496329D01*
X189540Y496271D01*
X189491Y496219D01*
X189469Y496172D01*
X189438Y496130D01*
X189417Y496061D01*
X189387Y495996D01*
X189381Y495944D01*
X189366Y495894D01*
X189368Y495823D01*
X189360Y495752D01*
X189371Y495701D01*
X189372Y495649D01*
X189397Y495581D01*
X189412Y495511D01*
X189439Y495467D01*
X189457Y495418D01*
X189502Y495362D01*
X189538Y495300D01*
X189578Y495266D01*
X189610Y495226D01*
X189671Y495187D01*
X189725Y495140D01*
X189774Y495121D01*
X189817Y495093D01*
X189887Y495075D01*
X189953Y495048D01*
X190025Y495040D01*
X190056Y495032D01*
X190079Y495034D01*
X190120Y495030D01*
X191075Y495030D01*
X193134Y492971D01*
X193208Y492918D01*
X193278Y492858D01*
X193308Y492846D01*
X193334Y492827D01*
X193421Y492800D01*
X193506Y492766D01*
X193547Y492762D01*
X193569Y492755D01*
X193601Y492756D01*
X193672Y492748D01*
X202012Y492748D01*
X202102Y492762D01*
X202193Y492770D01*
X202223Y492782D01*
X202255Y492787D01*
X202335Y492830D01*
X202419Y492866D01*
X202451Y492892D01*
X202472Y492903D01*
X202494Y492926D01*
X202550Y492971D01*
X408436Y698857D01*
X408489Y698931D01*
X408549Y699000D01*
X408561Y699030D01*
X408580Y699057D01*
X408607Y699144D01*
X408641Y699228D01*
X408645Y699269D01*
X408652Y699292D01*
X408651Y699324D01*
X408659Y699395D01*
X408659Y713783D01*
X420877Y726001D01*
X420930Y726075D01*
X420990Y726144D01*
X421002Y726174D01*
X421021Y726201D01*
X421048Y726288D01*
X421082Y726372D01*
X421086Y726413D01*
X421093Y726436D01*
X421092Y726468D01*
X421100Y726539D01*
X421100Y760174D01*
X421097Y760194D01*
X421099Y760213D01*
X421077Y760315D01*
X421061Y760417D01*
X421051Y760434D01*
X421047Y760454D01*
X420994Y760543D01*
X420945Y760634D01*
X420931Y760648D01*
X420921Y760665D01*
X420842Y760732D01*
X420767Y760804D01*
X420749Y760812D01*
X420734Y760825D01*
X420638Y760864D01*
X420544Y760907D01*
X420524Y760909D01*
X420506Y760917D01*
X420339Y760935D01*
X418028Y760935D01*
X417135Y761828D01*
X417135Y774172D01*
X418028Y775065D01*
X430372Y775065D01*
X431265Y774172D01*
X431265Y761828D01*
X430372Y760935D01*
X427911Y760935D01*
X427891Y760932D01*
X427872Y760934D01*
X427770Y760912D01*
X427668Y760896D01*
X427651Y760886D01*
X427631Y760882D01*
X427542Y760829D01*
X427451Y760780D01*
X427437Y760766D01*
X427420Y760756D01*
X427353Y760677D01*
X427281Y760602D01*
X427273Y760584D01*
X427260Y760569D01*
X427221Y760473D01*
X427178Y760379D01*
X427176Y760359D01*
X427168Y760341D01*
X427150Y760174D01*
X427150Y723718D01*
X414932Y711500D01*
X414879Y711426D01*
X414819Y711357D01*
X414807Y711327D01*
X414788Y711300D01*
X414761Y711213D01*
X414727Y711129D01*
X414723Y711088D01*
X414716Y711065D01*
X414717Y711033D01*
X414709Y710962D01*
X414709Y696574D01*
X204833Y486698D01*
X193672Y486698D01*
X193582Y486684D01*
X193491Y486676D01*
X193462Y486664D01*
X193430Y486659D01*
X193349Y486616D01*
X193265Y486580D01*
X193233Y486554D01*
X193212Y486543D01*
X193190Y486520D01*
X193134Y486475D01*
X191075Y484416D01*
X186679Y484416D01*
X183570Y487525D01*
X183570Y488480D01*
X183567Y488497D01*
X183569Y488514D01*
X183558Y488564D01*
X183557Y488622D01*
X183539Y488671D01*
X183531Y488723D01*
X183519Y488744D01*
X183517Y488754D01*
X183496Y488789D01*
X183472Y488853D01*
X183440Y488894D01*
X183415Y488940D01*
X183393Y488961D01*
X183391Y488965D01*
X183374Y488979D01*
X183364Y488989D01*
X183319Y489045D01*
X183275Y489074D01*
X183237Y489109D01*
X183204Y489125D01*
X183202Y489126D01*
X183172Y489140D01*
X183112Y489178D01*
X183061Y489191D01*
X183014Y489213D01*
X182943Y489221D01*
X182873Y489238D01*
X182821Y489234D01*
X182770Y489240D01*
X182699Y489225D01*
X182628Y489219D01*
X182580Y489199D01*
X182578Y489198D01*
X182560Y489196D01*
X182557Y489194D01*
X182529Y489188D01*
X182468Y489151D01*
X182402Y489123D01*
X182359Y489089D01*
X182343Y489080D01*
X182335Y489071D01*
X182318Y489062D01*
X182303Y489044D01*
X182271Y489018D01*
X178907Y485654D01*
X178895Y485638D01*
X178880Y485626D01*
X178824Y485538D01*
X178763Y485455D01*
X178758Y485436D01*
X178747Y485419D01*
X178722Y485318D01*
X178691Y485220D01*
X178692Y485200D01*
X178687Y485180D01*
X178695Y485077D01*
X178697Y484974D01*
X178704Y484955D01*
X178706Y484935D01*
X178746Y484840D01*
X178782Y484743D01*
X178794Y484727D01*
X178802Y484709D01*
X178907Y484578D01*
X179481Y484004D01*
X179481Y479608D01*
X178955Y479082D01*
X178913Y479024D01*
X178864Y478972D01*
X178842Y478925D01*
X178812Y478883D01*
X178790Y478814D01*
X178760Y478749D01*
X178755Y478697D01*
X178739Y478647D01*
X178741Y478576D01*
X178733Y478505D01*
X178744Y478454D01*
X178746Y478402D01*
X178770Y478334D01*
X178785Y478264D01*
X178812Y478219D01*
X178830Y478171D01*
X178875Y478115D01*
X178912Y478053D01*
X178951Y478019D01*
X178984Y477979D01*
X179044Y477940D01*
X179099Y477893D01*
X179147Y477874D01*
X179191Y477846D01*
X179260Y477828D01*
X179327Y477801D01*
X179398Y477793D01*
X179429Y477785D01*
X179452Y477787D01*
X179493Y477783D01*
X233982Y477783D01*
X234072Y477797D01*
X234163Y477805D01*
X234193Y477817D01*
X234225Y477822D01*
X234306Y477865D01*
X234390Y477901D01*
X234422Y477927D01*
X234442Y477938D01*
X234465Y477961D01*
X234521Y478006D01*
X254882Y498367D01*
X255412Y498897D01*
X255466Y498971D01*
X255525Y499041D01*
X255537Y499071D01*
X255556Y499097D01*
X255583Y499184D01*
X255617Y499269D01*
X255621Y499310D01*
X255628Y499332D01*
X255627Y499364D01*
X255635Y499436D01*
X255635Y508612D01*
X256528Y509505D01*
X271309Y509505D01*
X271329Y509508D01*
X271348Y509506D01*
X271450Y509528D01*
X271552Y509544D01*
X271569Y509554D01*
X271589Y509558D01*
X271678Y509611D01*
X271769Y509660D01*
X271783Y509674D01*
X271800Y509684D01*
X271867Y509763D01*
X271939Y509838D01*
X271947Y509856D01*
X271960Y509871D01*
X271999Y509967D01*
X272042Y510061D01*
X272044Y510081D01*
X272052Y510099D01*
X272070Y510266D01*
X272070Y535913D01*
X338350Y602193D01*
X349344Y602193D01*
X349434Y602207D01*
X349525Y602215D01*
X349555Y602227D01*
X349587Y602232D01*
X349668Y602275D01*
X349752Y602311D01*
X349784Y602337D01*
X349804Y602348D01*
X349827Y602371D01*
X349883Y602416D01*
X444890Y697423D01*
X444943Y697497D01*
X445003Y697567D01*
X445015Y697597D01*
X445034Y697623D01*
X445061Y697710D01*
X445095Y697795D01*
X445099Y697836D01*
X445106Y697858D01*
X445105Y697890D01*
X445113Y697962D01*
X445113Y698174D01*
X445110Y698194D01*
X445112Y698213D01*
X445090Y698315D01*
X445074Y698417D01*
X445064Y698434D01*
X445060Y698454D01*
X445007Y698543D01*
X444958Y698634D01*
X444944Y698648D01*
X444934Y698665D01*
X444855Y698732D01*
X444780Y698804D01*
X444762Y698812D01*
X444747Y698825D01*
X444651Y698864D01*
X444557Y698907D01*
X444537Y698909D01*
X444519Y698917D01*
X444438Y698926D01*
X443535Y699828D01*
X443535Y712172D01*
X444428Y713065D01*
X445483Y713065D01*
X445503Y713068D01*
X445522Y713066D01*
X445624Y713088D01*
X445726Y713104D01*
X445743Y713114D01*
X445763Y713118D01*
X445852Y713171D01*
X445943Y713220D01*
X445957Y713234D01*
X445974Y713244D01*
X446041Y713323D01*
X446113Y713398D01*
X446121Y713416D01*
X446134Y713431D01*
X446173Y713527D01*
X446216Y713621D01*
X446218Y713641D01*
X446226Y713659D01*
X446244Y713826D01*
X446244Y748541D01*
X458462Y760759D01*
X458515Y760833D01*
X458575Y760903D01*
X458587Y760933D01*
X458606Y760959D01*
X458633Y761046D01*
X458667Y761131D01*
X458671Y761172D01*
X458678Y761194D01*
X458677Y761226D01*
X458685Y761298D01*
X458685Y866211D01*
X458671Y866301D01*
X458663Y866392D01*
X458651Y866422D01*
X458646Y866454D01*
X458603Y866535D01*
X458567Y866619D01*
X458541Y866651D01*
X458530Y866671D01*
X458507Y866694D01*
X458462Y866750D01*
X445113Y880099D01*
X445113Y885174D01*
X445110Y885194D01*
X445112Y885213D01*
X445090Y885315D01*
X445074Y885417D01*
X445064Y885434D01*
X445060Y885454D01*
X445007Y885543D01*
X444958Y885634D01*
X444944Y885648D01*
X444934Y885665D01*
X444855Y885732D01*
X444780Y885804D01*
X444762Y885812D01*
X444747Y885825D01*
X444651Y885864D01*
X444557Y885907D01*
X444537Y885909D01*
X444519Y885917D01*
X444352Y885935D01*
X443428Y885935D01*
X442535Y886828D01*
X442535Y899172D01*
X443428Y900065D01*
X455772Y900065D01*
X456665Y899172D01*
X456665Y886828D01*
X455742Y885905D01*
X455681Y885896D01*
X455664Y885886D01*
X455644Y885882D01*
X455555Y885829D01*
X455464Y885780D01*
X455450Y885766D01*
X455433Y885756D01*
X455366Y885677D01*
X455294Y885602D01*
X455286Y885584D01*
X455273Y885569D01*
X455234Y885473D01*
X455191Y885379D01*
X455189Y885359D01*
X455181Y885341D01*
X455163Y885174D01*
X455163Y884577D01*
X455177Y884487D01*
X455185Y884396D01*
X455197Y884366D01*
X455202Y884334D01*
X455245Y884253D01*
X455281Y884169D01*
X455307Y884137D01*
X455318Y884117D01*
X455341Y884094D01*
X455386Y884038D01*
X468735Y870689D01*
X468735Y756820D01*
X456517Y744602D01*
X456464Y744528D01*
X456404Y744458D01*
X456392Y744428D01*
X456373Y744402D01*
X456346Y744315D01*
X456312Y744230D01*
X456308Y744189D01*
X456301Y744167D01*
X456302Y744135D01*
X456294Y744063D01*
X456294Y713826D01*
X456297Y713806D01*
X456295Y713787D01*
X456317Y713685D01*
X456333Y713583D01*
X456343Y713566D01*
X456347Y713546D01*
X456400Y713457D01*
X456449Y713366D01*
X456463Y713352D01*
X456473Y713335D01*
X456552Y713268D01*
X456627Y713196D01*
X456645Y713188D01*
X456660Y713175D01*
X456662Y713174D01*
X457665Y712172D01*
X457665Y699828D01*
X456772Y698935D01*
X455924Y698935D01*
X455904Y698932D01*
X455885Y698934D01*
X455783Y698912D01*
X455681Y698896D01*
X455664Y698886D01*
X455644Y698882D01*
X455555Y698829D01*
X455464Y698780D01*
X455450Y698766D01*
X455433Y698756D01*
X455366Y698677D01*
X455294Y698602D01*
X455286Y698584D01*
X455273Y698569D01*
X455234Y698473D01*
X455191Y698379D01*
X455189Y698359D01*
X455181Y698341D01*
X455163Y698174D01*
X455163Y693484D01*
X353822Y592143D01*
X342828Y592143D01*
X342738Y592129D01*
X342647Y592121D01*
X342617Y592109D01*
X342585Y592104D01*
X342504Y592061D01*
X342420Y592025D01*
X342388Y591999D01*
X342368Y591988D01*
X342345Y591965D01*
X342289Y591920D01*
X282343Y531974D01*
X282290Y531900D01*
X282230Y531830D01*
X282218Y531800D01*
X282199Y531774D01*
X282172Y531687D01*
X282138Y531602D01*
X282134Y531561D01*
X282127Y531539D01*
X282128Y531507D01*
X282120Y531435D01*
X282120Y510266D01*
X282123Y510246D01*
X282121Y510227D01*
X282143Y510125D01*
X282159Y510023D01*
X282169Y510006D01*
X282173Y509986D01*
X282226Y509897D01*
X282275Y509806D01*
X282289Y509792D01*
X282299Y509775D01*
X282378Y509708D01*
X282453Y509636D01*
X282471Y509628D01*
X282486Y509615D01*
X282582Y509576D01*
X282676Y509533D01*
X282696Y509531D01*
X282714Y509523D01*
X282780Y509516D01*
X283685Y508612D01*
X283685Y482348D01*
X282792Y481455D01*
X256528Y481455D01*
X255635Y482348D01*
X255635Y483070D01*
X255624Y483141D01*
X255622Y483213D01*
X255604Y483262D01*
X255596Y483313D01*
X255562Y483377D01*
X255537Y483444D01*
X255505Y483485D01*
X255480Y483531D01*
X255428Y483580D01*
X255384Y483636D01*
X255340Y483664D01*
X255302Y483700D01*
X255237Y483730D01*
X255177Y483769D01*
X255126Y483782D01*
X255079Y483804D01*
X255008Y483811D01*
X254938Y483829D01*
X254886Y483825D01*
X254835Y483831D01*
X254764Y483815D01*
X254693Y483810D01*
X254645Y483789D01*
X254594Y483778D01*
X254533Y483742D01*
X254467Y483714D01*
X254411Y483669D01*
X254383Y483652D01*
X254368Y483634D01*
X254336Y483609D01*
X238460Y467733D01*
X191934Y467733D01*
X191864Y467722D01*
X191792Y467720D01*
X191743Y467702D01*
X191692Y467694D01*
X191628Y467660D01*
X191561Y467635D01*
X191520Y467603D01*
X191474Y467578D01*
X191425Y467526D01*
X191369Y467482D01*
X191341Y467438D01*
X191305Y467400D01*
X191275Y467335D01*
X191236Y467275D01*
X191223Y467224D01*
X191201Y467177D01*
X191193Y467106D01*
X191176Y467036D01*
X191180Y466984D01*
X191174Y466933D01*
X191189Y466862D01*
X191195Y466791D01*
X191215Y466743D01*
X191226Y466692D01*
X191263Y466631D01*
X191291Y466565D01*
X191336Y466509D01*
X191353Y466481D01*
X191370Y466466D01*
X191396Y466434D01*
X191922Y465908D01*
X191922Y461512D01*
X189863Y459453D01*
X189810Y459379D01*
X189750Y459309D01*
X189738Y459279D01*
X189719Y459253D01*
X189692Y459166D01*
X189658Y459081D01*
X189654Y459040D01*
X189647Y459018D01*
X189648Y458986D01*
X189640Y458915D01*
X189640Y420610D01*
X187645Y418615D01*
X179403Y410373D01*
X179361Y410315D01*
X179312Y410263D01*
X179290Y410216D01*
X179259Y410174D01*
X179238Y410105D01*
X179208Y410040D01*
X179202Y409988D01*
X179187Y409938D01*
X179189Y409867D01*
X179181Y409796D01*
X179192Y409745D01*
X179193Y409693D01*
X179218Y409625D01*
X179233Y409555D01*
X179260Y409510D01*
X179278Y409462D01*
X179323Y409406D01*
X179359Y409344D01*
X179399Y409310D01*
X179431Y409270D01*
X179492Y409231D01*
X179546Y409184D01*
X179595Y409165D01*
X179638Y409137D01*
X179708Y409119D01*
X179774Y409092D01*
X179846Y409084D01*
X179877Y409076D01*
X179900Y409078D01*
X179941Y409074D01*
X180896Y409074D01*
X184005Y405965D01*
X184005Y401569D01*
X181946Y399510D01*
X181893Y399436D01*
X181833Y399366D01*
X181821Y399336D01*
X181802Y399310D01*
X181775Y399223D01*
X181741Y399138D01*
X181737Y399097D01*
X181730Y399075D01*
X181731Y399043D01*
X181723Y398972D01*
X181723Y386680D01*
X174283Y379241D01*
X174271Y379224D01*
X174256Y379212D01*
X174200Y379124D01*
X174140Y379041D01*
X174134Y379022D01*
X174123Y379005D01*
X174098Y378904D01*
X174067Y378806D01*
X174068Y378786D01*
X174063Y378766D01*
X174071Y378663D01*
X174074Y378560D01*
X174080Y378541D01*
X174082Y378521D01*
X174122Y378426D01*
X174158Y378329D01*
X174171Y378313D01*
X174178Y378295D01*
X174255Y378199D01*
X175923Y374173D01*
X175923Y369827D01*
X174260Y365813D01*
X171187Y362740D01*
X167173Y361077D01*
X162827Y361077D01*
X158813Y362740D01*
X155740Y365813D01*
X154077Y369827D01*
X154077Y374173D01*
X155740Y378187D01*
X158813Y381260D01*
X162827Y382923D01*
X167173Y382923D01*
X168285Y382462D01*
X168398Y382436D01*
X168512Y382407D01*
X168518Y382407D01*
X168524Y382406D01*
X168641Y382417D01*
X168757Y382426D01*
X168763Y382428D01*
X168769Y382429D01*
X168877Y382477D01*
X168983Y382522D01*
X168989Y382527D01*
X168994Y382529D01*
X169008Y382542D01*
X169114Y382627D01*
X175450Y388963D01*
X175503Y389037D01*
X175563Y389106D01*
X175575Y389136D01*
X175594Y389163D01*
X175621Y389250D01*
X175633Y389281D01*
X175645Y389307D01*
X175646Y389312D01*
X175655Y389334D01*
X175659Y389375D01*
X175666Y389398D01*
X175665Y389430D01*
X175673Y389501D01*
X175673Y398972D01*
X175659Y399062D01*
X175651Y399153D01*
X175639Y399182D01*
X175634Y399214D01*
X175591Y399295D01*
X175555Y399379D01*
X175529Y399411D01*
X175518Y399432D01*
X175495Y399454D01*
X175450Y399510D01*
X173391Y401569D01*
X173391Y402524D01*
X173380Y402595D01*
X173378Y402666D01*
X173360Y402715D01*
X173352Y402767D01*
X173318Y402830D01*
X173293Y402897D01*
X173261Y402938D01*
X173236Y402984D01*
X173185Y403033D01*
X173140Y403089D01*
X173096Y403118D01*
X173058Y403153D01*
X172993Y403184D01*
X172933Y403222D01*
X172882Y403235D01*
X172835Y403257D01*
X172764Y403265D01*
X172694Y403282D01*
X172642Y403278D01*
X172591Y403284D01*
X172520Y403269D01*
X172449Y403263D01*
X172401Y403243D01*
X172350Y403232D01*
X172289Y403195D01*
X172223Y403167D01*
X172167Y403122D01*
X172139Y403106D01*
X172124Y403088D01*
X172092Y403062D01*
X148577Y379547D01*
X148565Y379531D01*
X148549Y379518D01*
X148493Y379431D01*
X148433Y379347D01*
X148427Y379328D01*
X148416Y379311D01*
X148391Y379211D01*
X148361Y379112D01*
X148361Y379092D01*
X148356Y379073D01*
X148364Y378970D01*
X148367Y378866D01*
X148374Y378848D01*
X148375Y378828D01*
X148416Y378733D01*
X148452Y378635D01*
X148464Y378620D01*
X148472Y378601D01*
X148577Y378470D01*
X148860Y378187D01*
X150523Y374173D01*
X150523Y369827D01*
X148860Y365813D01*
X145787Y362740D01*
X141773Y361077D01*
X137427Y361077D01*
X133413Y362740D01*
X130340Y365813D01*
X128677Y369827D01*
X128677Y374173D01*
X130340Y378187D01*
X133413Y381260D01*
X137427Y382923D01*
X141773Y382923D01*
X142451Y382642D01*
X142565Y382615D01*
X142678Y382586D01*
X142685Y382587D01*
X142691Y382585D01*
X142807Y382596D01*
X142924Y382605D01*
X142929Y382608D01*
X142936Y382609D01*
X143044Y382657D01*
X143150Y382702D01*
X143156Y382706D01*
X143160Y382708D01*
X143174Y382721D01*
X143281Y382807D01*
X183367Y422893D01*
X183420Y422967D01*
X183480Y423036D01*
X183492Y423066D01*
X183511Y423093D01*
X183538Y423180D01*
X183572Y423264D01*
X183576Y423305D01*
X183583Y423328D01*
X183582Y423360D01*
X183590Y423431D01*
X183590Y458915D01*
X183576Y459005D01*
X183568Y459096D01*
X183556Y459125D01*
X183551Y459157D01*
X183508Y459238D01*
X183472Y459322D01*
X183446Y459354D01*
X183435Y459375D01*
X183412Y459397D01*
X183367Y459453D01*
X181308Y461512D01*
X181308Y465908D01*
X181834Y466434D01*
X181876Y466492D01*
X181925Y466544D01*
X181947Y466591D01*
X181977Y466633D01*
X181999Y466702D01*
X182029Y466767D01*
X182034Y466819D01*
X182050Y466869D01*
X182048Y466940D01*
X182056Y467011D01*
X182045Y467062D01*
X182043Y467114D01*
X182019Y467182D01*
X182004Y467252D01*
X181977Y467296D01*
X181959Y467345D01*
X181914Y467401D01*
X181877Y467463D01*
X181838Y467497D01*
X181805Y467537D01*
X181745Y467576D01*
X181690Y467623D01*
X181642Y467642D01*
X181598Y467670D01*
X181529Y467688D01*
X181462Y467715D01*
X181391Y467723D01*
X181360Y467731D01*
X181337Y467729D01*
X181296Y467733D01*
X-8253Y467733D01*
X-8323Y467722D01*
X-8395Y467720D01*
X-8444Y467702D01*
X-8495Y467694D01*
X-8559Y467660D01*
X-8626Y467635D01*
X-8667Y467603D01*
X-8713Y467578D01*
X-8762Y467526D01*
X-8818Y467482D01*
X-8846Y467438D01*
X-8882Y467400D01*
X-8912Y467335D01*
X-8951Y467275D01*
X-8964Y467224D01*
X-8986Y467177D01*
X-8994Y467106D01*
X-9011Y467036D01*
X-9007Y466984D01*
X-9013Y466933D01*
X-8998Y466862D01*
X-8992Y466791D01*
X-8972Y466743D01*
X-8961Y466692D01*
X-8924Y466631D01*
X-8896Y466565D01*
X-8851Y466509D01*
X-8834Y466481D01*
X-8817Y466466D01*
X-8791Y466434D01*
X-8265Y465908D01*
X-8265Y461512D01*
X-10324Y459453D01*
X-10377Y459379D01*
X-10437Y459309D01*
X-10449Y459279D01*
X-10468Y459253D01*
X-10495Y459166D01*
X-10529Y459081D01*
X-10533Y459040D01*
X-10540Y459018D01*
X-10539Y458986D01*
X-10547Y458915D01*
X-10547Y388370D01*
X-10533Y388280D01*
X-10525Y388189D01*
X-10513Y388159D01*
X-10508Y388127D01*
X-10465Y388047D01*
X-10429Y387963D01*
X-10403Y387931D01*
X-10392Y387910D01*
X-10369Y387888D01*
X-10324Y387832D01*
X-7154Y384662D01*
X-7154Y383846D01*
X-7140Y383756D01*
X-7132Y383665D01*
X-7120Y383635D01*
X-7115Y383603D01*
X-7072Y383523D01*
X-7036Y383439D01*
X-7010Y383407D01*
X-6999Y383386D01*
X-6976Y383364D01*
X-6931Y383308D01*
X-6769Y383146D01*
X-6695Y383093D01*
X-6626Y383033D01*
X-6596Y383021D01*
X-6569Y383002D01*
X-6482Y382975D01*
X-6398Y382941D01*
X-6357Y382937D01*
X-6334Y382930D01*
X-6302Y382931D01*
X-6231Y382923D01*
X-5827Y382923D01*
X-1813Y381260D01*
X1260Y378187D01*
X2923Y374173D01*
X2923Y369827D01*
X1260Y365813D01*
X-1813Y362740D01*
X-5827Y361077D01*
X-10173Y361077D01*
G37*
%LPD*%
%LPC*%
G36*
X337827Y361077D02*
X337827Y361077D01*
X333813Y362740D01*
X330740Y365813D01*
X329077Y369827D01*
X329077Y374173D01*
X330740Y378187D01*
X333813Y381260D01*
X337827Y382923D01*
X342173Y382923D01*
X342701Y382704D01*
X342767Y382688D01*
X342791Y382679D01*
X342823Y382675D01*
X342928Y382649D01*
X342934Y382649D01*
X342940Y382648D01*
X343057Y382659D01*
X343173Y382668D01*
X343179Y382670D01*
X343185Y382671D01*
X343293Y382719D01*
X343399Y382764D01*
X343405Y382769D01*
X343410Y382771D01*
X343424Y382784D01*
X343456Y382810D01*
X343467Y382815D01*
X343477Y382827D01*
X343530Y382869D01*
X381292Y420631D01*
X381345Y420705D01*
X381405Y420774D01*
X381417Y420804D01*
X381436Y420831D01*
X381463Y420918D01*
X381497Y421002D01*
X381501Y421043D01*
X381508Y421066D01*
X381507Y421098D01*
X381515Y421169D01*
X381515Y484190D01*
X453656Y556331D01*
X453709Y556405D01*
X453769Y556474D01*
X453781Y556504D01*
X453800Y556531D01*
X453827Y556618D01*
X453861Y556702D01*
X453865Y556743D01*
X453872Y556766D01*
X453871Y556798D01*
X453872Y556801D01*
X453872Y556805D01*
X453879Y556869D01*
X453879Y556904D01*
X453868Y556975D01*
X453866Y557047D01*
X453848Y557096D01*
X453840Y557147D01*
X453806Y557210D01*
X453781Y557278D01*
X453749Y557319D01*
X453724Y557365D01*
X453673Y557414D01*
X453628Y557470D01*
X453584Y557498D01*
X453546Y557534D01*
X453481Y557564D01*
X453421Y557603D01*
X453370Y557616D01*
X453323Y557638D01*
X453252Y557645D01*
X453182Y557663D01*
X453130Y557659D01*
X453079Y557665D01*
X453008Y557649D01*
X452937Y557644D01*
X452889Y557623D01*
X452838Y557612D01*
X452777Y557576D01*
X452711Y557548D01*
X452655Y557503D01*
X452627Y557486D01*
X452612Y557468D01*
X452580Y557443D01*
X341761Y446624D01*
X341694Y446530D01*
X341623Y446435D01*
X341621Y446429D01*
X341618Y446424D01*
X341583Y446313D01*
X341547Y446201D01*
X341547Y446195D01*
X341545Y446189D01*
X341548Y446072D01*
X341549Y445956D01*
X341551Y445948D01*
X341552Y445943D01*
X341558Y445926D01*
X341596Y445794D01*
X341689Y445571D01*
X341689Y441629D01*
X340181Y437988D01*
X337394Y435201D01*
X333753Y433693D01*
X313047Y433693D01*
X309406Y435201D01*
X306619Y437988D01*
X305111Y441629D01*
X305111Y445571D01*
X306619Y449212D01*
X309406Y451999D01*
X313047Y453507D01*
X333753Y453507D01*
X333763Y453502D01*
X333829Y453487D01*
X333858Y453475D01*
X333896Y453471D01*
X333990Y453447D01*
X333996Y453448D01*
X334002Y453446D01*
X334119Y453457D01*
X334235Y453466D01*
X334241Y453469D01*
X334247Y453469D01*
X334307Y453496D01*
X334309Y453496D01*
X334316Y453500D01*
X334355Y453517D01*
X334461Y453563D01*
X334467Y453567D01*
X334472Y453569D01*
X334486Y453582D01*
X334514Y453605D01*
X334526Y453611D01*
X334539Y453625D01*
X334592Y453667D01*
X347077Y466152D01*
X347119Y466210D01*
X347168Y466262D01*
X347190Y466309D01*
X347220Y466351D01*
X347241Y466420D01*
X347272Y466485D01*
X347277Y466537D01*
X347293Y466587D01*
X347291Y466658D01*
X347299Y466729D01*
X347288Y466780D01*
X347286Y466832D01*
X347262Y466900D01*
X347246Y466970D01*
X347220Y467014D01*
X347202Y467063D01*
X347157Y467119D01*
X347120Y467181D01*
X347081Y467215D01*
X347048Y467255D01*
X346988Y467294D01*
X346933Y467341D01*
X346885Y467360D01*
X346841Y467388D01*
X346772Y467406D01*
X346705Y467433D01*
X346634Y467441D01*
X346603Y467449D01*
X346579Y467447D01*
X346538Y467451D01*
X345019Y467451D01*
X342988Y469482D01*
X342930Y469524D01*
X342878Y469573D01*
X342831Y469595D01*
X342789Y469625D01*
X342720Y469647D01*
X342655Y469677D01*
X342603Y469682D01*
X342553Y469698D01*
X342482Y469696D01*
X342411Y469704D01*
X342360Y469693D01*
X342308Y469691D01*
X342240Y469667D01*
X342170Y469652D01*
X342125Y469625D01*
X342077Y469607D01*
X342021Y469562D01*
X341959Y469525D01*
X341925Y469486D01*
X341885Y469453D01*
X341846Y469393D01*
X341799Y469338D01*
X341780Y469290D01*
X341752Y469246D01*
X341734Y469177D01*
X341707Y469110D01*
X341699Y469039D01*
X341691Y469008D01*
X341693Y468985D01*
X341689Y468944D01*
X341689Y467029D01*
X340181Y463388D01*
X337394Y460601D01*
X333753Y459093D01*
X313047Y459093D01*
X309406Y460601D01*
X306619Y463388D01*
X305111Y467029D01*
X305111Y470971D01*
X306619Y474612D01*
X309406Y477399D01*
X313047Y478907D01*
X333753Y478907D01*
X337394Y477399D01*
X340181Y474612D01*
X340446Y473971D01*
X340497Y473888D01*
X340543Y473803D01*
X340561Y473785D01*
X340575Y473762D01*
X340651Y473700D01*
X340721Y473633D01*
X340745Y473622D01*
X340765Y473606D01*
X340856Y473571D01*
X340944Y473530D01*
X340970Y473527D01*
X340994Y473517D01*
X341092Y473513D01*
X341188Y473503D01*
X341214Y473508D01*
X341240Y473507D01*
X341334Y473534D01*
X341429Y473555D01*
X341451Y473568D01*
X341476Y473576D01*
X341556Y473631D01*
X341640Y473681D01*
X341657Y473701D01*
X341678Y473716D01*
X341737Y473794D01*
X341800Y473868D01*
X341810Y473892D01*
X341825Y473913D01*
X341855Y474006D01*
X341892Y474096D01*
X341895Y474129D01*
X341901Y474147D01*
X341901Y474180D01*
X341910Y474263D01*
X341910Y474956D01*
X345019Y478065D01*
X349415Y478065D01*
X349423Y478057D01*
X349440Y478045D01*
X349452Y478029D01*
X349539Y477973D01*
X349623Y477913D01*
X349642Y477907D01*
X349659Y477896D01*
X349759Y477871D01*
X349858Y477841D01*
X349878Y477841D01*
X349897Y477836D01*
X350000Y477844D01*
X350104Y477847D01*
X350123Y477854D01*
X350143Y477855D01*
X350237Y477896D01*
X350335Y477931D01*
X350351Y477944D01*
X350369Y477952D01*
X350500Y478057D01*
X445079Y572636D01*
X445121Y572694D01*
X445170Y572746D01*
X445192Y572793D01*
X445223Y572835D01*
X445244Y572904D01*
X445274Y572969D01*
X445280Y573021D01*
X445295Y573071D01*
X445293Y573142D01*
X445301Y573213D01*
X445290Y573264D01*
X445289Y573316D01*
X445264Y573384D01*
X445249Y573454D01*
X445222Y573498D01*
X445204Y573547D01*
X445159Y573603D01*
X445123Y573665D01*
X445083Y573699D01*
X445051Y573739D01*
X444990Y573778D01*
X444936Y573825D01*
X444887Y573844D01*
X444844Y573872D01*
X444774Y573890D01*
X444708Y573917D01*
X444636Y573925D01*
X444605Y573933D01*
X444582Y573931D01*
X444541Y573935D01*
X444428Y573935D01*
X443535Y574828D01*
X443535Y587172D01*
X444428Y588065D01*
X456772Y588065D01*
X457665Y587172D01*
X457665Y574828D01*
X456772Y573935D01*
X453924Y573935D01*
X453904Y573932D01*
X453885Y573934D01*
X453783Y573912D01*
X453681Y573896D01*
X453664Y573886D01*
X453644Y573882D01*
X453555Y573829D01*
X453464Y573780D01*
X453450Y573766D01*
X453433Y573756D01*
X453366Y573677D01*
X453294Y573602D01*
X453286Y573584D01*
X453273Y573569D01*
X453234Y573473D01*
X453191Y573379D01*
X453189Y573359D01*
X453181Y573341D01*
X453163Y573174D01*
X453163Y572417D01*
X453166Y572397D01*
X453164Y572378D01*
X453186Y572276D01*
X453202Y572174D01*
X453212Y572157D01*
X453216Y572137D01*
X453269Y572048D01*
X453318Y571957D01*
X453332Y571943D01*
X453342Y571926D01*
X453421Y571859D01*
X453496Y571787D01*
X453514Y571779D01*
X453529Y571766D01*
X453625Y571727D01*
X453719Y571684D01*
X453739Y571682D01*
X453757Y571674D01*
X453924Y571656D01*
X456789Y571656D01*
X456879Y571670D01*
X456970Y571678D01*
X457000Y571690D01*
X457032Y571695D01*
X457113Y571738D01*
X457197Y571774D01*
X457229Y571800D01*
X457249Y571811D01*
X457272Y571834D01*
X457328Y571879D01*
X517274Y631825D01*
X517318Y631886D01*
X517352Y631922D01*
X517358Y631935D01*
X517387Y631969D01*
X517399Y631999D01*
X517418Y632025D01*
X517445Y632112D01*
X517479Y632197D01*
X517483Y632238D01*
X517490Y632260D01*
X517489Y632292D01*
X517497Y632364D01*
X517497Y755327D01*
X529899Y767729D01*
X529910Y767745D01*
X529926Y767758D01*
X529982Y767845D01*
X530042Y767929D01*
X530048Y767948D01*
X530059Y767964D01*
X530084Y768065D01*
X530115Y768164D01*
X530114Y768184D01*
X530119Y768203D01*
X530111Y768306D01*
X530108Y768410D01*
X530102Y768428D01*
X530100Y768448D01*
X530060Y768543D01*
X530024Y768641D01*
X530011Y768656D01*
X530004Y768674D01*
X529899Y768805D01*
X529771Y768933D01*
X529771Y775667D01*
X534533Y780429D01*
X541267Y780429D01*
X546029Y775667D01*
X546029Y768933D01*
X541267Y764171D01*
X540869Y764171D01*
X540779Y764157D01*
X540688Y764149D01*
X540658Y764137D01*
X540626Y764132D01*
X540545Y764089D01*
X540461Y764053D01*
X540429Y764027D01*
X540408Y764016D01*
X540386Y763993D01*
X540330Y763948D01*
X540214Y763832D01*
X527770Y751388D01*
X527717Y751314D01*
X527657Y751244D01*
X527645Y751214D01*
X527626Y751188D01*
X527599Y751101D01*
X527565Y751016D01*
X527561Y750975D01*
X527554Y750953D01*
X527555Y750921D01*
X527547Y750849D01*
X527547Y627886D01*
X462506Y562845D01*
X462494Y562829D01*
X462479Y562816D01*
X462449Y562771D01*
X462423Y562743D01*
X462406Y562706D01*
X462362Y562645D01*
X462356Y562626D01*
X462346Y562609D01*
X462327Y562536D01*
X462320Y562520D01*
X462318Y562500D01*
X462290Y562410D01*
X462290Y562390D01*
X462285Y562371D01*
X462293Y562277D01*
X462293Y562276D01*
X462293Y562275D01*
X462294Y562268D01*
X462296Y562164D01*
X462303Y562145D01*
X462305Y562125D01*
X462345Y562031D01*
X462381Y561933D01*
X462393Y561917D01*
X462401Y561899D01*
X462506Y561768D01*
X464493Y559781D01*
X464493Y555385D01*
X461384Y552276D01*
X458472Y552276D01*
X458382Y552262D01*
X458291Y552254D01*
X458261Y552242D01*
X458229Y552237D01*
X458149Y552194D01*
X458065Y552158D01*
X458033Y552132D01*
X458012Y552121D01*
X457990Y552098D01*
X457934Y552053D01*
X387788Y481907D01*
X387735Y481833D01*
X387675Y481764D01*
X387663Y481734D01*
X387644Y481707D01*
X387617Y481620D01*
X387583Y481536D01*
X387579Y481495D01*
X387572Y481472D01*
X387573Y481440D01*
X387565Y481369D01*
X387565Y422920D01*
X387576Y422850D01*
X387578Y422778D01*
X387596Y422729D01*
X387604Y422678D01*
X387638Y422614D01*
X387663Y422547D01*
X387695Y422506D01*
X387720Y422460D01*
X387772Y422411D01*
X387816Y422355D01*
X387860Y422327D01*
X387898Y422291D01*
X387963Y422261D01*
X388023Y422222D01*
X388074Y422209D01*
X388121Y422187D01*
X388192Y422179D01*
X388262Y422162D01*
X388314Y422166D01*
X388365Y422160D01*
X388436Y422175D01*
X388507Y422181D01*
X388555Y422201D01*
X388606Y422212D01*
X388667Y422249D01*
X388733Y422277D01*
X388789Y422322D01*
X388817Y422339D01*
X388832Y422356D01*
X388864Y422382D01*
X390259Y423777D01*
X394655Y423777D01*
X397764Y420668D01*
X397764Y417756D01*
X397778Y417666D01*
X397786Y417575D01*
X397798Y417545D01*
X397803Y417513D01*
X397846Y417433D01*
X397882Y417349D01*
X397908Y417317D01*
X397919Y417296D01*
X397942Y417274D01*
X397987Y417218D01*
X414709Y400496D01*
X414709Y387239D01*
X414723Y387149D01*
X414731Y387058D01*
X414743Y387028D01*
X414748Y386996D01*
X414773Y386950D01*
X414773Y386948D01*
X414780Y386937D01*
X414791Y386916D01*
X414827Y386832D01*
X414853Y386800D01*
X414864Y386779D01*
X414887Y386757D01*
X414890Y386753D01*
X414900Y386737D01*
X414910Y386728D01*
X414932Y386701D01*
X418120Y383512D01*
X418121Y383511D01*
X418138Y383396D01*
X418140Y383390D01*
X418141Y383384D01*
X418196Y383281D01*
X418249Y383176D01*
X418254Y383172D01*
X418257Y383166D01*
X418341Y383086D01*
X418425Y383004D01*
X418431Y383000D01*
X418435Y382997D01*
X418452Y382989D01*
X418572Y382923D01*
X422587Y381260D01*
X425660Y378187D01*
X427323Y374173D01*
X427323Y369827D01*
X425660Y365813D01*
X422587Y362740D01*
X418573Y361077D01*
X414227Y361077D01*
X410213Y362740D01*
X407140Y365813D01*
X405477Y369827D01*
X405477Y374173D01*
X407140Y378187D01*
X410213Y381260D01*
X410295Y381294D01*
X410334Y381318D01*
X410377Y381334D01*
X410438Y381382D01*
X410504Y381423D01*
X410533Y381459D01*
X410569Y381488D01*
X410611Y381553D01*
X410661Y381613D01*
X410677Y381656D01*
X410702Y381694D01*
X410721Y381770D01*
X410749Y381843D01*
X410751Y381888D01*
X410762Y381933D01*
X410756Y382010D01*
X410759Y382088D01*
X410747Y382132D01*
X410743Y382178D01*
X410713Y382250D01*
X410691Y382324D01*
X410665Y382362D01*
X410647Y382404D01*
X410561Y382511D01*
X410551Y382527D01*
X410547Y382530D01*
X410542Y382535D01*
X408659Y384418D01*
X408659Y397675D01*
X408645Y397765D01*
X408637Y397856D01*
X408625Y397886D01*
X408620Y397918D01*
X408577Y397998D01*
X408541Y398082D01*
X408515Y398114D01*
X408504Y398135D01*
X408481Y398157D01*
X408436Y398213D01*
X406980Y399669D01*
X406922Y399711D01*
X406870Y399760D01*
X406823Y399782D01*
X406781Y399813D01*
X406712Y399834D01*
X406647Y399864D01*
X406595Y399870D01*
X406545Y399885D01*
X406474Y399883D01*
X406403Y399891D01*
X406352Y399880D01*
X406300Y399879D01*
X406232Y399854D01*
X406162Y399839D01*
X406117Y399812D01*
X406069Y399794D01*
X406013Y399749D01*
X405951Y399713D01*
X405917Y399673D01*
X405877Y399641D01*
X405838Y399580D01*
X405791Y399526D01*
X405772Y399477D01*
X405744Y399434D01*
X405726Y399364D01*
X405699Y399298D01*
X405691Y399226D01*
X405683Y399195D01*
X405685Y399172D01*
X405681Y399131D01*
X405681Y398176D01*
X403622Y396117D01*
X403576Y396054D01*
X403553Y396030D01*
X403549Y396020D01*
X403509Y395973D01*
X403497Y395943D01*
X403478Y395917D01*
X403451Y395830D01*
X403417Y395745D01*
X403413Y395704D01*
X403406Y395682D01*
X403407Y395650D01*
X403399Y395579D01*
X403399Y383287D01*
X399818Y379706D01*
X399806Y379690D01*
X399790Y379677D01*
X399735Y379590D01*
X399674Y379506D01*
X399668Y379487D01*
X399657Y379470D01*
X399632Y379370D01*
X399602Y379271D01*
X399602Y379251D01*
X399597Y379232D01*
X399605Y379129D01*
X399608Y379025D01*
X399615Y379007D01*
X399616Y378987D01*
X399657Y378892D01*
X399693Y378794D01*
X399705Y378779D01*
X399713Y378760D01*
X399818Y378629D01*
X400260Y378187D01*
X401923Y374173D01*
X401923Y369827D01*
X400260Y365813D01*
X397187Y362740D01*
X393173Y361077D01*
X388827Y361077D01*
X384813Y362740D01*
X381740Y365813D01*
X380077Y369827D01*
X380077Y374173D01*
X381740Y378187D01*
X384813Y381260D01*
X388827Y382923D01*
X393173Y382923D01*
X393627Y382735D01*
X393740Y382708D01*
X393854Y382679D01*
X393860Y382680D01*
X393866Y382679D01*
X393982Y382690D01*
X394099Y382699D01*
X394105Y382701D01*
X394111Y382702D01*
X394218Y382749D01*
X394325Y382795D01*
X394331Y382800D01*
X394336Y382802D01*
X394349Y382814D01*
X394456Y382900D01*
X397126Y385570D01*
X397179Y385644D01*
X397239Y385713D01*
X397251Y385743D01*
X397270Y385770D01*
X397297Y385857D01*
X397331Y385941D01*
X397335Y385982D01*
X397342Y386005D01*
X397341Y386037D01*
X397349Y386108D01*
X397349Y395579D01*
X397335Y395669D01*
X397327Y395760D01*
X397315Y395789D01*
X397310Y395821D01*
X397267Y395902D01*
X397231Y395986D01*
X397205Y396018D01*
X397194Y396039D01*
X397171Y396061D01*
X397150Y396087D01*
X397147Y396092D01*
X397144Y396095D01*
X397126Y396117D01*
X395067Y398176D01*
X395067Y402572D01*
X398176Y405681D01*
X399131Y405681D01*
X399202Y405692D01*
X399273Y405694D01*
X399322Y405712D01*
X399374Y405720D01*
X399437Y405754D01*
X399504Y405779D01*
X399545Y405811D01*
X399591Y405836D01*
X399640Y405888D01*
X399696Y405932D01*
X399725Y405976D01*
X399760Y406014D01*
X399791Y406079D01*
X399829Y406139D01*
X399842Y406190D01*
X399864Y406237D01*
X399872Y406308D01*
X399889Y406378D01*
X399885Y406430D01*
X399891Y406481D01*
X399876Y406552D01*
X399870Y406623D01*
X399850Y406671D01*
X399839Y406722D01*
X399802Y406783D01*
X399774Y406849D01*
X399729Y406905D01*
X399713Y406933D01*
X399695Y406948D01*
X399669Y406980D01*
X393709Y412940D01*
X393635Y412993D01*
X393566Y413053D01*
X393536Y413065D01*
X393509Y413084D01*
X393422Y413111D01*
X393338Y413145D01*
X393297Y413149D01*
X393274Y413156D01*
X393242Y413155D01*
X393171Y413163D01*
X390259Y413163D01*
X387116Y416306D01*
X387111Y416339D01*
X387077Y416402D01*
X387052Y416469D01*
X387020Y416510D01*
X386995Y416556D01*
X386944Y416605D01*
X386899Y416661D01*
X386855Y416690D01*
X386817Y416725D01*
X386752Y416756D01*
X386692Y416794D01*
X386641Y416807D01*
X386594Y416829D01*
X386523Y416837D01*
X386453Y416854D01*
X386401Y416850D01*
X386350Y416856D01*
X386279Y416841D01*
X386208Y416835D01*
X386160Y416815D01*
X386109Y416804D01*
X386048Y416767D01*
X385982Y416739D01*
X385926Y416694D01*
X385898Y416678D01*
X385883Y416660D01*
X385851Y416634D01*
X385570Y416353D01*
X348870Y379654D01*
X348858Y379637D01*
X348843Y379625D01*
X348787Y379538D01*
X348727Y379454D01*
X348721Y379435D01*
X348710Y379418D01*
X348685Y379318D01*
X348654Y379219D01*
X348655Y379199D01*
X348650Y379179D01*
X348658Y379076D01*
X348661Y378973D01*
X348667Y378954D01*
X348669Y378934D01*
X348709Y378839D01*
X348745Y378742D01*
X348758Y378726D01*
X348765Y378708D01*
X348870Y378577D01*
X349260Y378187D01*
X350923Y374173D01*
X350923Y369827D01*
X349260Y365813D01*
X346187Y362740D01*
X342173Y361077D01*
X337827Y361077D01*
G37*
%LPD*%
%LPC*%
G36*
X236227Y361077D02*
X236227Y361077D01*
X232213Y362740D01*
X229140Y365813D01*
X227477Y369827D01*
X227477Y374173D01*
X229140Y378187D01*
X232213Y381260D01*
X236277Y382943D01*
X236377Y383005D01*
X236477Y383065D01*
X236481Y383070D01*
X236486Y383073D01*
X236561Y383163D01*
X236637Y383252D01*
X236639Y383258D01*
X236643Y383263D01*
X236685Y383371D01*
X236729Y383480D01*
X236730Y383488D01*
X236731Y383492D01*
X236732Y383510D01*
X236733Y383516D01*
X285157Y431941D01*
X285210Y432015D01*
X285270Y432084D01*
X285282Y432114D01*
X285301Y432141D01*
X285328Y432228D01*
X285362Y432312D01*
X285366Y432353D01*
X285373Y432376D01*
X285372Y432408D01*
X285380Y432479D01*
X285380Y492107D01*
X306379Y513106D01*
X347911Y513106D01*
X348001Y513120D01*
X348092Y513128D01*
X348122Y513140D01*
X348154Y513145D01*
X348234Y513188D01*
X348318Y513224D01*
X348350Y513250D01*
X348371Y513261D01*
X348393Y513284D01*
X348449Y513329D01*
X408436Y573316D01*
X408489Y573390D01*
X408549Y573459D01*
X408561Y573489D01*
X408580Y573516D01*
X408607Y573603D01*
X408641Y573687D01*
X408645Y573728D01*
X408652Y573751D01*
X408651Y573783D01*
X408659Y573854D01*
X408659Y575801D01*
X416086Y583228D01*
X417374Y583228D01*
X417394Y583231D01*
X417413Y583229D01*
X417515Y583251D01*
X417617Y583267D01*
X417634Y583277D01*
X417654Y583281D01*
X417743Y583334D01*
X417834Y583383D01*
X417848Y583397D01*
X417865Y583407D01*
X417932Y583486D01*
X418004Y583561D01*
X418012Y583579D01*
X418025Y583594D01*
X418064Y583690D01*
X418107Y583784D01*
X418109Y583804D01*
X418117Y583822D01*
X418135Y583989D01*
X418135Y587172D01*
X419028Y588065D01*
X431372Y588065D01*
X432265Y587172D01*
X432265Y574828D01*
X431372Y573935D01*
X419028Y573935D01*
X418135Y574828D01*
X418135Y574884D01*
X418124Y574955D01*
X418122Y575026D01*
X418104Y575075D01*
X418096Y575127D01*
X418062Y575190D01*
X418037Y575257D01*
X418005Y575298D01*
X417980Y575344D01*
X417928Y575393D01*
X417884Y575449D01*
X417840Y575478D01*
X417802Y575513D01*
X417737Y575544D01*
X417677Y575582D01*
X417626Y575595D01*
X417579Y575617D01*
X417508Y575625D01*
X417438Y575642D01*
X417386Y575638D01*
X417335Y575644D01*
X417264Y575629D01*
X417193Y575623D01*
X417145Y575603D01*
X417094Y575592D01*
X417033Y575555D01*
X416967Y575527D01*
X416911Y575482D01*
X416883Y575466D01*
X416868Y575448D01*
X416836Y575422D01*
X414932Y573518D01*
X414879Y573444D01*
X414851Y573412D01*
X414840Y573401D01*
X414839Y573398D01*
X414819Y573375D01*
X414807Y573345D01*
X414788Y573318D01*
X414761Y573231D01*
X414759Y573226D01*
X414737Y573178D01*
X414736Y573168D01*
X414727Y573147D01*
X414723Y573106D01*
X414716Y573083D01*
X414717Y573051D01*
X414709Y572980D01*
X414709Y571033D01*
X352727Y509051D01*
X350732Y507056D01*
X309200Y507056D01*
X309110Y507042D01*
X309019Y507034D01*
X308989Y507022D01*
X308957Y507017D01*
X308877Y506974D01*
X308793Y506938D01*
X308761Y506912D01*
X308740Y506901D01*
X308718Y506878D01*
X308662Y506833D01*
X291653Y489824D01*
X291600Y489750D01*
X291540Y489681D01*
X291528Y489651D01*
X291509Y489624D01*
X291482Y489537D01*
X291448Y489453D01*
X291444Y489412D01*
X291437Y489389D01*
X291438Y489357D01*
X291430Y489286D01*
X291430Y438754D01*
X291441Y438684D01*
X291443Y438612D01*
X291461Y438563D01*
X291469Y438512D01*
X291503Y438448D01*
X291528Y438381D01*
X291560Y438340D01*
X291585Y438294D01*
X291637Y438245D01*
X291681Y438189D01*
X291725Y438161D01*
X291763Y438125D01*
X291828Y438095D01*
X291888Y438056D01*
X291939Y438043D01*
X291986Y438021D01*
X292057Y438013D01*
X292127Y437996D01*
X292179Y438000D01*
X292230Y437994D01*
X292301Y438009D01*
X292372Y438015D01*
X292420Y438035D01*
X292471Y438046D01*
X292532Y438083D01*
X292598Y438111D01*
X292654Y438156D01*
X292682Y438173D01*
X292697Y438190D01*
X292729Y438216D01*
X294124Y439611D01*
X298520Y439611D01*
X301629Y436502D01*
X301629Y432106D01*
X299570Y430047D01*
X299517Y429973D01*
X299457Y429903D01*
X299445Y429873D01*
X299426Y429847D01*
X299399Y429760D01*
X299365Y429675D01*
X299361Y429634D01*
X299354Y429612D01*
X299355Y429580D01*
X299347Y429509D01*
X299347Y401942D01*
X299361Y401852D01*
X299369Y401761D01*
X299381Y401731D01*
X299386Y401699D01*
X299429Y401619D01*
X299465Y401535D01*
X299491Y401503D01*
X299502Y401482D01*
X299525Y401460D01*
X299570Y401404D01*
X315181Y385793D01*
X315181Y383846D01*
X315195Y383756D01*
X315203Y383665D01*
X315215Y383635D01*
X315220Y383603D01*
X315263Y383523D01*
X315299Y383439D01*
X315325Y383407D01*
X315336Y383386D01*
X315359Y383364D01*
X315404Y383308D01*
X315566Y383146D01*
X315640Y383093D01*
X315709Y383033D01*
X315739Y383021D01*
X315766Y383002D01*
X315853Y382975D01*
X315937Y382941D01*
X315978Y382937D01*
X316001Y382930D01*
X316033Y382931D01*
X316104Y382923D01*
X316773Y382923D01*
X320787Y381260D01*
X323860Y378187D01*
X325523Y374173D01*
X325523Y369827D01*
X323860Y365813D01*
X320787Y362740D01*
X316773Y361077D01*
X312427Y361077D01*
X308413Y362740D01*
X305340Y365813D01*
X303677Y369827D01*
X303677Y374173D01*
X305340Y378187D01*
X308413Y381260D01*
X308661Y381363D01*
X308761Y381424D01*
X308861Y381484D01*
X308865Y381489D01*
X308870Y381492D01*
X308945Y381582D01*
X309021Y381671D01*
X309023Y381677D01*
X309027Y381682D01*
X309069Y381790D01*
X309113Y381899D01*
X309114Y381907D01*
X309115Y381912D01*
X309116Y381930D01*
X309131Y382066D01*
X309131Y382972D01*
X309117Y383062D01*
X309109Y383153D01*
X309097Y383183D01*
X309092Y383215D01*
X309049Y383295D01*
X309013Y383379D01*
X308987Y383411D01*
X308976Y383432D01*
X308953Y383454D01*
X308908Y383510D01*
X293297Y399121D01*
X293297Y429509D01*
X293283Y429598D01*
X293275Y429690D01*
X293263Y429719D01*
X293258Y429751D01*
X293215Y429832D01*
X293179Y429916D01*
X293153Y429948D01*
X293142Y429969D01*
X293119Y429991D01*
X293074Y430047D01*
X292729Y430392D01*
X292671Y430434D01*
X292619Y430483D01*
X292572Y430505D01*
X292530Y430535D01*
X292461Y430557D01*
X292396Y430587D01*
X292344Y430592D01*
X292294Y430608D01*
X292223Y430606D01*
X292152Y430614D01*
X292101Y430603D01*
X292049Y430601D01*
X291981Y430577D01*
X291911Y430562D01*
X291866Y430535D01*
X291818Y430517D01*
X291762Y430472D01*
X291700Y430435D01*
X291666Y430396D01*
X291626Y430363D01*
X291587Y430303D01*
X291540Y430248D01*
X291521Y430200D01*
X291493Y430156D01*
X291475Y430087D01*
X291448Y430020D01*
X291440Y429949D01*
X291432Y429918D01*
X291434Y429895D01*
X291430Y429854D01*
X291430Y429658D01*
X244293Y382521D01*
X244266Y382484D01*
X244232Y382453D01*
X244194Y382384D01*
X244149Y382321D01*
X244136Y382278D01*
X244113Y382237D01*
X244100Y382160D01*
X244077Y382086D01*
X244078Y382040D01*
X244070Y381995D01*
X244081Y381918D01*
X244083Y381840D01*
X244099Y381797D01*
X244106Y381752D01*
X244141Y381683D01*
X244168Y381609D01*
X244196Y381573D01*
X244217Y381533D01*
X244273Y381478D01*
X244321Y381417D01*
X244360Y381392D01*
X244393Y381360D01*
X244512Y381295D01*
X244528Y381284D01*
X244533Y381283D01*
X244540Y381279D01*
X244587Y381260D01*
X247660Y378187D01*
X249323Y374173D01*
X249323Y369827D01*
X247660Y365813D01*
X244587Y362740D01*
X240573Y361077D01*
X236227Y361077D01*
G37*
%LPD*%
%LPC*%
G36*
X469749Y442329D02*
X469749Y442329D01*
X462965Y444147D01*
X456884Y447658D01*
X451918Y452624D01*
X448407Y458705D01*
X446589Y465489D01*
X446589Y472511D01*
X448407Y479295D01*
X451918Y485376D01*
X456884Y490342D01*
X462965Y493853D01*
X469749Y495671D01*
X476771Y495671D01*
X483555Y493853D01*
X489636Y490342D01*
X494602Y485376D01*
X498113Y479295D01*
X499931Y472511D01*
X499931Y465489D01*
X498113Y458705D01*
X494602Y452624D01*
X489636Y447658D01*
X483555Y444147D01*
X476771Y442329D01*
X469749Y442329D01*
G37*
%LPD*%
%LPC*%
G36*
X-60973Y361077D02*
X-60973Y361077D01*
X-64987Y362740D01*
X-68060Y365813D01*
X-69723Y369827D01*
X-69723Y374173D01*
X-69079Y375726D01*
X-69052Y375840D01*
X-69024Y375954D01*
X-69024Y375960D01*
X-69023Y375966D01*
X-69034Y376083D01*
X-69043Y376199D01*
X-69045Y376205D01*
X-69046Y376211D01*
X-69094Y376318D01*
X-69139Y376425D01*
X-69144Y376431D01*
X-69146Y376436D01*
X-69159Y376449D01*
X-69244Y376556D01*
X-78766Y386078D01*
X-78840Y386131D01*
X-78910Y386191D01*
X-78940Y386203D01*
X-78966Y386222D01*
X-79053Y386249D01*
X-79138Y386283D01*
X-79179Y386287D01*
X-79201Y386294D01*
X-79233Y386293D01*
X-79305Y386301D01*
X-146849Y386301D01*
X-194402Y433854D01*
X-194476Y433907D01*
X-194546Y433967D01*
X-194576Y433979D01*
X-194602Y433998D01*
X-194689Y434025D01*
X-194774Y434059D01*
X-194815Y434063D01*
X-194837Y434070D01*
X-194869Y434069D01*
X-194941Y434077D01*
X-197573Y434077D01*
X-201587Y435740D01*
X-204660Y438813D01*
X-206323Y442827D01*
X-206323Y447173D01*
X-204660Y451187D01*
X-201587Y454260D01*
X-197573Y455923D01*
X-193227Y455923D01*
X-189213Y454260D01*
X-186140Y451187D01*
X-184477Y447173D01*
X-184477Y442827D01*
X-185655Y439984D01*
X-185682Y439870D01*
X-185710Y439757D01*
X-185710Y439750D01*
X-185711Y439744D01*
X-185700Y439628D01*
X-185691Y439511D01*
X-185689Y439506D01*
X-185688Y439499D01*
X-185640Y439392D01*
X-185595Y439285D01*
X-185590Y439279D01*
X-185588Y439275D01*
X-185576Y439261D01*
X-185490Y439154D01*
X-142910Y396574D01*
X-142836Y396521D01*
X-142766Y396461D01*
X-142736Y396449D01*
X-142710Y396430D01*
X-142623Y396403D01*
X-142538Y396369D01*
X-142497Y396365D01*
X-142475Y396358D01*
X-142443Y396359D01*
X-142371Y396351D01*
X-74827Y396351D01*
X-61622Y383146D01*
X-61548Y383093D01*
X-61478Y383033D01*
X-61448Y383021D01*
X-61422Y383002D01*
X-61335Y382975D01*
X-61250Y382941D01*
X-61209Y382937D01*
X-61187Y382930D01*
X-61155Y382931D01*
X-61083Y382923D01*
X-56627Y382923D01*
X-52613Y381260D01*
X-49540Y378187D01*
X-47877Y374173D01*
X-47877Y369827D01*
X-49540Y365813D01*
X-52613Y362740D01*
X-56627Y361077D01*
X-60973Y361077D01*
G37*
%LPD*%
%LPC*%
G36*
X-204091Y957080D02*
X-204091Y957080D01*
X-212614Y961324D01*
X-219029Y968360D01*
X-222468Y977239D01*
X-222468Y986761D01*
X-219029Y995640D01*
X-212614Y1002676D01*
X-204091Y1006920D01*
X-194609Y1007799D01*
X-185451Y1005193D01*
X-177853Y999455D01*
X-172840Y991360D01*
X-171090Y982000D01*
X-172840Y972640D01*
X-177853Y964545D01*
X-185451Y958807D01*
X-194609Y956201D01*
X-204091Y957080D01*
G37*
%LPD*%
%LPC*%
G36*
X601909Y958080D02*
X601909Y958080D01*
X593386Y962324D01*
X586971Y969360D01*
X583532Y978239D01*
X583532Y987761D01*
X586971Y996640D01*
X593386Y1003676D01*
X601909Y1007920D01*
X611391Y1008799D01*
X620549Y1006193D01*
X628147Y1000455D01*
X633160Y992360D01*
X634910Y983000D01*
X633160Y973640D01*
X628147Y965545D01*
X620549Y959807D01*
X611391Y957201D01*
X601909Y958080D01*
G37*
%LPD*%
%LPC*%
G36*
X-205091Y367080D02*
X-205091Y367080D01*
X-213614Y371324D01*
X-220029Y378360D01*
X-223468Y387239D01*
X-223468Y396761D01*
X-220029Y405640D01*
X-213614Y412676D01*
X-205091Y416920D01*
X-195609Y417799D01*
X-186451Y415193D01*
X-178853Y409455D01*
X-173840Y401360D01*
X-172090Y392000D01*
X-173840Y382640D01*
X-178853Y374545D01*
X-186451Y368807D01*
X-195609Y366201D01*
X-205091Y367080D01*
G37*
%LPD*%
%LPC*%
G36*
X600909Y368080D02*
X600909Y368080D01*
X592386Y372324D01*
X585971Y379360D01*
X582532Y388239D01*
X582532Y397761D01*
X585971Y406640D01*
X592386Y413676D01*
X600909Y417920D01*
X610391Y418799D01*
X619549Y416193D01*
X627147Y410455D01*
X632160Y402360D01*
X633910Y393000D01*
X632160Y383640D01*
X627147Y375545D01*
X619549Y369807D01*
X610391Y367201D01*
X600909Y368080D01*
G37*
%LPD*%
%LPC*%
G36*
X256188Y813219D02*
X256188Y813219D01*
X249788Y814934D01*
X244051Y818246D01*
X239366Y822931D01*
X236054Y828668D01*
X234339Y835068D01*
X234339Y841692D01*
X236054Y848092D01*
X239366Y853829D01*
X244051Y858514D01*
X249788Y861826D01*
X256188Y863541D01*
X262812Y863541D01*
X269212Y861826D01*
X274949Y858514D01*
X279634Y853829D01*
X282946Y848092D01*
X284661Y841692D01*
X284661Y835068D01*
X282946Y828668D01*
X279634Y822931D01*
X274949Y818246D01*
X269212Y814934D01*
X262812Y813219D01*
X256188Y813219D01*
G37*
%LPD*%
%LPC*%
G36*
X22688Y814519D02*
X22688Y814519D01*
X16288Y816234D01*
X10551Y819546D01*
X5866Y824231D01*
X2554Y829968D01*
X839Y836368D01*
X839Y842992D01*
X2554Y849392D01*
X5866Y855129D01*
X10551Y859814D01*
X16288Y863126D01*
X22688Y864841D01*
X29312Y864841D01*
X35712Y863126D01*
X41449Y859814D01*
X46134Y855129D01*
X49446Y849392D01*
X51161Y842992D01*
X51161Y836368D01*
X49446Y829968D01*
X46134Y824231D01*
X41449Y819546D01*
X35712Y816234D01*
X29312Y814519D01*
X22688Y814519D01*
G37*
%LPD*%
%LPC*%
G36*
X-129712Y517339D02*
X-129712Y517339D01*
X-136112Y519054D01*
X-141849Y522366D01*
X-146534Y527051D01*
X-149846Y532788D01*
X-151561Y539188D01*
X-151561Y545812D01*
X-149846Y552212D01*
X-146534Y557949D01*
X-141849Y562634D01*
X-136112Y565946D01*
X-129712Y567661D01*
X-123088Y567661D01*
X-116688Y565946D01*
X-110951Y562634D01*
X-106266Y557949D01*
X-102954Y552212D01*
X-101239Y545812D01*
X-101239Y539188D01*
X-102954Y532788D01*
X-106266Y527051D01*
X-110951Y522366D01*
X-116688Y519054D01*
X-123088Y517339D01*
X-129712Y517339D01*
G37*
%LPD*%
%LPC*%
G36*
X103788Y516039D02*
X103788Y516039D01*
X97388Y517754D01*
X91651Y521066D01*
X86966Y525751D01*
X83654Y531488D01*
X81939Y537888D01*
X81939Y544512D01*
X83654Y550912D01*
X86966Y556649D01*
X91651Y561334D01*
X97388Y564646D01*
X103788Y566361D01*
X110412Y566361D01*
X116812Y564646D01*
X122549Y561334D01*
X127234Y556649D01*
X130546Y550912D01*
X132261Y544512D01*
X132261Y537888D01*
X130546Y531488D01*
X127234Y525751D01*
X122549Y521066D01*
X116812Y517754D01*
X110412Y516039D01*
X103788Y516039D01*
G37*
%LPD*%
%LPC*%
G36*
X35827Y361077D02*
X35827Y361077D01*
X31813Y362740D01*
X28740Y365813D01*
X27077Y369827D01*
X27077Y374173D01*
X28740Y378187D01*
X31813Y381260D01*
X35827Y382923D01*
X40173Y382923D01*
X44187Y381260D01*
X44355Y381092D01*
X44371Y381081D01*
X44384Y381065D01*
X44471Y381009D01*
X44555Y380949D01*
X44574Y380943D01*
X44590Y380932D01*
X44691Y380907D01*
X44790Y380876D01*
X44810Y380877D01*
X44829Y380872D01*
X44932Y380880D01*
X45036Y380883D01*
X45054Y380889D01*
X45074Y380891D01*
X45169Y380931D01*
X45267Y380967D01*
X45282Y380980D01*
X45301Y380987D01*
X45432Y381092D01*
X86965Y422626D01*
X107174Y422626D01*
X107264Y422640D01*
X107355Y422648D01*
X107384Y422660D01*
X107416Y422665D01*
X107497Y422708D01*
X107581Y422744D01*
X107613Y422770D01*
X107634Y422781D01*
X107656Y422804D01*
X107712Y422849D01*
X109771Y424908D01*
X114167Y424908D01*
X117276Y421799D01*
X117276Y417403D01*
X114167Y414294D01*
X109771Y414294D01*
X107712Y416353D01*
X107638Y416406D01*
X107568Y416466D01*
X107538Y416478D01*
X107512Y416497D01*
X107425Y416524D01*
X107340Y416558D01*
X107299Y416562D01*
X107277Y416569D01*
X107245Y416568D01*
X107174Y416576D01*
X98323Y416576D01*
X98253Y416565D01*
X98181Y416563D01*
X98132Y416545D01*
X98081Y416537D01*
X98017Y416503D01*
X97950Y416478D01*
X97909Y416446D01*
X97863Y416421D01*
X97814Y416369D01*
X97758Y416325D01*
X97730Y416281D01*
X97694Y416243D01*
X97664Y416178D01*
X97625Y416118D01*
X97612Y416067D01*
X97590Y416020D01*
X97582Y415949D01*
X97565Y415879D01*
X97569Y415827D01*
X97563Y415776D01*
X97578Y415705D01*
X97584Y415634D01*
X97604Y415586D01*
X97615Y415535D01*
X97652Y415474D01*
X97680Y415408D01*
X97725Y415352D01*
X97742Y415324D01*
X97759Y415309D01*
X97785Y415277D01*
X99180Y413882D01*
X99180Y409486D01*
X96071Y406377D01*
X93159Y406377D01*
X93069Y406363D01*
X92978Y406355D01*
X92948Y406343D01*
X92916Y406338D01*
X92836Y406295D01*
X92752Y406259D01*
X92720Y406233D01*
X92699Y406222D01*
X92677Y406199D01*
X92621Y406154D01*
X69077Y382610D01*
X69050Y382573D01*
X69016Y382542D01*
X68979Y382474D01*
X68934Y382411D01*
X68920Y382367D01*
X68898Y382327D01*
X68884Y382250D01*
X68861Y382176D01*
X68862Y382130D01*
X68854Y382085D01*
X68865Y382008D01*
X68868Y381930D01*
X68883Y381887D01*
X68890Y381841D01*
X68925Y381772D01*
X68952Y381699D01*
X68981Y381663D01*
X69001Y381622D01*
X69057Y381568D01*
X69106Y381507D01*
X69144Y381482D01*
X69177Y381450D01*
X69297Y381384D01*
X69313Y381374D01*
X69317Y381372D01*
X69324Y381369D01*
X69587Y381260D01*
X72660Y378187D01*
X74323Y374173D01*
X74323Y369827D01*
X72660Y365813D01*
X69587Y362740D01*
X65573Y361077D01*
X61227Y361077D01*
X57213Y362740D01*
X54140Y365813D01*
X52477Y369827D01*
X52477Y374173D01*
X54140Y378187D01*
X57213Y381260D01*
X61227Y382923D01*
X61812Y382923D01*
X61832Y382926D01*
X61851Y382924D01*
X61953Y382946D01*
X62055Y382962D01*
X62072Y382972D01*
X62092Y382976D01*
X62181Y383029D01*
X62272Y383078D01*
X62286Y383092D01*
X62303Y383102D01*
X62370Y383181D01*
X62442Y383256D01*
X62450Y383274D01*
X62463Y383289D01*
X62502Y383385D01*
X62545Y383479D01*
X62547Y383499D01*
X62555Y383517D01*
X62573Y383684D01*
X62573Y384662D01*
X88343Y410432D01*
X88396Y410506D01*
X88456Y410575D01*
X88468Y410605D01*
X88487Y410632D01*
X88514Y410719D01*
X88548Y410803D01*
X88552Y410844D01*
X88559Y410867D01*
X88558Y410899D01*
X88566Y410970D01*
X88566Y413834D01*
X88555Y413905D01*
X88553Y413976D01*
X88535Y414025D01*
X88527Y414077D01*
X88493Y414140D01*
X88468Y414207D01*
X88436Y414248D01*
X88411Y414294D01*
X88360Y414343D01*
X88315Y414399D01*
X88271Y414428D01*
X88233Y414463D01*
X88168Y414494D01*
X88108Y414532D01*
X88057Y414545D01*
X88010Y414567D01*
X87939Y414575D01*
X87869Y414592D01*
X87817Y414588D01*
X87766Y414594D01*
X87695Y414579D01*
X87624Y414573D01*
X87576Y414553D01*
X87525Y414542D01*
X87464Y414505D01*
X87398Y414477D01*
X87342Y414432D01*
X87314Y414416D01*
X87299Y414398D01*
X87267Y414372D01*
X48739Y375844D01*
X48671Y375750D01*
X48601Y375656D01*
X48599Y375650D01*
X48595Y375645D01*
X48561Y375534D01*
X48525Y375422D01*
X48525Y375416D01*
X48523Y375410D01*
X48526Y375293D01*
X48527Y375176D01*
X48529Y375169D01*
X48529Y375164D01*
X48536Y375146D01*
X48574Y375015D01*
X48923Y374173D01*
X48923Y369827D01*
X47260Y365813D01*
X44187Y362740D01*
X40173Y361077D01*
X35827Y361077D01*
G37*
%LPD*%
%LPC*%
G36*
X-35573Y361077D02*
X-35573Y361077D01*
X-39587Y362740D01*
X-42660Y365813D01*
X-44323Y369827D01*
X-44323Y374173D01*
X-42660Y378187D01*
X-39587Y381260D01*
X-35573Y382923D01*
X-32537Y382923D01*
X-32517Y382926D01*
X-32498Y382924D01*
X-32396Y382946D01*
X-32294Y382962D01*
X-32277Y382972D01*
X-32257Y382976D01*
X-32168Y383029D01*
X-32077Y383078D01*
X-32063Y383092D01*
X-32046Y383102D01*
X-31979Y383181D01*
X-31907Y383256D01*
X-31899Y383274D01*
X-31886Y383289D01*
X-31847Y383385D01*
X-31804Y383479D01*
X-31802Y383499D01*
X-31794Y383517D01*
X-31776Y383684D01*
X-31776Y453915D01*
X-31790Y454005D01*
X-31798Y454096D01*
X-31810Y454125D01*
X-31815Y454157D01*
X-31858Y454238D01*
X-31894Y454322D01*
X-31920Y454354D01*
X-31931Y454375D01*
X-31954Y454397D01*
X-31999Y454453D01*
X-34058Y456512D01*
X-34058Y460908D01*
X-30949Y464017D01*
X-26553Y464017D01*
X-23444Y460908D01*
X-23444Y456512D01*
X-25503Y454453D01*
X-25556Y454379D01*
X-25616Y454309D01*
X-25628Y454279D01*
X-25647Y454253D01*
X-25674Y454166D01*
X-25708Y454081D01*
X-25712Y454040D01*
X-25719Y454018D01*
X-25718Y453986D01*
X-25726Y453915D01*
X-25726Y380089D01*
X-25712Y379999D01*
X-25704Y379908D01*
X-25692Y379878D01*
X-25687Y379846D01*
X-25644Y379765D01*
X-25608Y379681D01*
X-25582Y379649D01*
X-25571Y379629D01*
X-25548Y379606D01*
X-25503Y379550D01*
X-24140Y378187D01*
X-22477Y374173D01*
X-22477Y369827D01*
X-24140Y365813D01*
X-27213Y362740D01*
X-31227Y361077D01*
X-35573Y361077D01*
G37*
%LPD*%
%LPC*%
G36*
X23028Y482755D02*
X23028Y482755D01*
X22135Y483648D01*
X22135Y509912D01*
X23028Y510805D01*
X49292Y510805D01*
X50185Y509912D01*
X50185Y483648D01*
X49292Y482755D01*
X23028Y482755D01*
G37*
%LPD*%
%LPC*%
G36*
X511193Y803088D02*
X511193Y803088D01*
X505451Y805467D01*
X501057Y809861D01*
X498678Y815603D01*
X498678Y821817D01*
X501057Y827559D01*
X505451Y831953D01*
X511193Y834332D01*
X517407Y834332D01*
X523149Y831953D01*
X527543Y827559D01*
X529922Y821817D01*
X529922Y815603D01*
X527543Y809861D01*
X523149Y805467D01*
X517407Y803088D01*
X511193Y803088D01*
G37*
%LPD*%
%LPC*%
G36*
X638193Y824678D02*
X638193Y824678D01*
X632451Y827057D01*
X628057Y831451D01*
X625678Y837193D01*
X625678Y843407D01*
X628057Y849149D01*
X632451Y853543D01*
X638193Y855922D01*
X644407Y855922D01*
X650149Y853543D01*
X654543Y849149D01*
X656922Y843407D01*
X656922Y837193D01*
X654543Y831451D01*
X650149Y827057D01*
X644407Y824678D01*
X638193Y824678D01*
G37*
%LPD*%
%LPC*%
G36*
X638193Y875478D02*
X638193Y875478D01*
X632451Y877857D01*
X628057Y882251D01*
X625678Y887993D01*
X625678Y894207D01*
X628057Y899949D01*
X632451Y904343D01*
X638193Y906722D01*
X644407Y906722D01*
X650149Y904343D01*
X654543Y899949D01*
X656922Y894207D01*
X656922Y887993D01*
X654543Y882251D01*
X650149Y877857D01*
X644407Y875478D01*
X638193Y875478D01*
G37*
%LPD*%
%LPC*%
G36*
X374425Y928899D02*
X374425Y928899D01*
X371316Y932008D01*
X371316Y936404D01*
X374425Y939513D01*
X377337Y939513D01*
X377427Y939527D01*
X377518Y939535D01*
X377548Y939547D01*
X377580Y939552D01*
X377660Y939595D01*
X377744Y939631D01*
X377776Y939657D01*
X377797Y939668D01*
X377819Y939691D01*
X377875Y939736D01*
X408759Y970619D01*
X408826Y970713D01*
X408897Y970808D01*
X408899Y970814D01*
X408902Y970819D01*
X408937Y970930D01*
X408973Y971042D01*
X408973Y971048D01*
X408975Y971054D01*
X408972Y971171D01*
X408971Y971288D01*
X408969Y971295D01*
X408968Y971300D01*
X408962Y971318D01*
X408924Y971449D01*
X408477Y972527D01*
X408477Y976873D01*
X410140Y980887D01*
X413213Y983960D01*
X417227Y985623D01*
X421573Y985623D01*
X425587Y983960D01*
X428660Y980887D01*
X430323Y976873D01*
X430323Y972527D01*
X428660Y968513D01*
X425587Y965440D01*
X421573Y963777D01*
X417227Y963777D01*
X413213Y965440D01*
X413212Y965441D01*
X413196Y965453D01*
X413183Y965468D01*
X413097Y965524D01*
X413012Y965584D01*
X412993Y965590D01*
X412977Y965601D01*
X412876Y965626D01*
X412777Y965657D01*
X412757Y965656D01*
X412738Y965661D01*
X412635Y965653D01*
X412531Y965650D01*
X412513Y965644D01*
X412493Y965642D01*
X412398Y965602D01*
X412300Y965566D01*
X412285Y965554D01*
X412266Y965546D01*
X412135Y965441D01*
X382153Y935458D01*
X382100Y935384D01*
X382040Y935315D01*
X382028Y935285D01*
X382009Y935258D01*
X381982Y935171D01*
X381948Y935087D01*
X381944Y935046D01*
X381937Y935023D01*
X381938Y934991D01*
X381930Y934920D01*
X381930Y932008D01*
X378821Y928899D01*
X374425Y928899D01*
G37*
%LPD*%
%LPC*%
G36*
X210827Y361077D02*
X210827Y361077D01*
X206813Y362740D01*
X203740Y365813D01*
X202077Y369827D01*
X202077Y374173D01*
X203740Y378187D01*
X206813Y381260D01*
X210827Y382923D01*
X215173Y382923D01*
X215933Y382608D01*
X216046Y382581D01*
X216160Y382553D01*
X216166Y382553D01*
X216172Y382552D01*
X216289Y382563D01*
X216405Y382572D01*
X216411Y382574D01*
X216417Y382575D01*
X216525Y382623D01*
X216631Y382668D01*
X216637Y382673D01*
X216642Y382675D01*
X216656Y382688D01*
X216762Y382773D01*
X233111Y399122D01*
X233164Y399196D01*
X233224Y399265D01*
X233236Y399295D01*
X233255Y399322D01*
X233282Y399409D01*
X233316Y399493D01*
X233320Y399534D01*
X233327Y399557D01*
X233326Y399589D01*
X233334Y399660D01*
X233334Y402572D01*
X236443Y405681D01*
X240839Y405681D01*
X243948Y402572D01*
X243948Y398176D01*
X240839Y395067D01*
X237927Y395067D01*
X237837Y395053D01*
X237746Y395045D01*
X237716Y395033D01*
X237684Y395028D01*
X237604Y394985D01*
X237520Y394949D01*
X237488Y394923D01*
X237467Y394912D01*
X237445Y394889D01*
X237389Y394844D01*
X222034Y379490D01*
X222022Y379473D01*
X222007Y379461D01*
X221951Y379374D01*
X221891Y379290D01*
X221885Y379271D01*
X221874Y379254D01*
X221849Y379154D01*
X221818Y379055D01*
X221819Y379035D01*
X221814Y379015D01*
X221822Y378912D01*
X221825Y378809D01*
X221831Y378790D01*
X221833Y378770D01*
X221873Y378675D01*
X221909Y378578D01*
X221922Y378562D01*
X221929Y378544D01*
X222034Y378413D01*
X222260Y378187D01*
X223923Y374173D01*
X223923Y369827D01*
X222260Y365813D01*
X219187Y362740D01*
X215173Y361077D01*
X210827Y361077D01*
G37*
%LPD*%
%LPC*%
G36*
X-13508Y941340D02*
X-13508Y941340D01*
X-16617Y944449D01*
X-16617Y948845D01*
X-13508Y951954D01*
X-10596Y951954D01*
X-10506Y951968D01*
X-10415Y951976D01*
X-10385Y951988D01*
X-10353Y951993D01*
X-10273Y952036D01*
X-10189Y952072D01*
X-10157Y952098D01*
X-10136Y952109D01*
X-10114Y952132D01*
X-10058Y952177D01*
X4471Y966705D01*
X4483Y966722D01*
X4498Y966734D01*
X4554Y966821D01*
X4614Y966905D01*
X4620Y966924D01*
X4631Y966941D01*
X4656Y967041D01*
X4687Y967140D01*
X4686Y967160D01*
X4691Y967180D01*
X4683Y967283D01*
X4680Y967386D01*
X4674Y967405D01*
X4672Y967425D01*
X4632Y967520D01*
X4596Y967617D01*
X4583Y967633D01*
X4576Y967651D01*
X4471Y967782D01*
X3740Y968513D01*
X2077Y972527D01*
X2077Y976873D01*
X3740Y980887D01*
X6813Y983960D01*
X10827Y985623D01*
X15173Y985623D01*
X19187Y983960D01*
X22260Y980887D01*
X23923Y976873D01*
X23923Y972527D01*
X22260Y968513D01*
X19187Y965440D01*
X15173Y963777D01*
X10827Y963777D01*
X10782Y963796D01*
X10669Y963823D01*
X10554Y963852D01*
X10548Y963851D01*
X10542Y963852D01*
X10425Y963841D01*
X10309Y963832D01*
X10303Y963830D01*
X10297Y963829D01*
X10189Y963781D01*
X10083Y963736D01*
X10077Y963731D01*
X10072Y963729D01*
X10059Y963717D01*
X9952Y963631D01*
X-5780Y947899D01*
X-5833Y947825D01*
X-5893Y947756D01*
X-5905Y947726D01*
X-5924Y947699D01*
X-5951Y947612D01*
X-5985Y947528D01*
X-5989Y947487D01*
X-5996Y947464D01*
X-5995Y947432D01*
X-6003Y947361D01*
X-6003Y944449D01*
X-9112Y941340D01*
X-13508Y941340D01*
G37*
%LPD*%
%LPC*%
G36*
X-25949Y941340D02*
X-25949Y941340D01*
X-29058Y944449D01*
X-29058Y948845D01*
X-26999Y950904D01*
X-26946Y950978D01*
X-26886Y951048D01*
X-26874Y951078D01*
X-26855Y951104D01*
X-26828Y951191D01*
X-26794Y951276D01*
X-26790Y951317D01*
X-26783Y951339D01*
X-26784Y951371D01*
X-26776Y951442D01*
X-26776Y962603D01*
X-21787Y967592D01*
X-21719Y967686D01*
X-21649Y967780D01*
X-21647Y967786D01*
X-21643Y967791D01*
X-21609Y967902D01*
X-21573Y968014D01*
X-21573Y968020D01*
X-21571Y968026D01*
X-21574Y968143D01*
X-21575Y968260D01*
X-21577Y968267D01*
X-21577Y968272D01*
X-21584Y968290D01*
X-21622Y968421D01*
X-23323Y972527D01*
X-23323Y976873D01*
X-21660Y980887D01*
X-18587Y983960D01*
X-14573Y985623D01*
X-10227Y985623D01*
X-6213Y983960D01*
X-3140Y980887D01*
X-1477Y976873D01*
X-1477Y972527D01*
X-3140Y968513D01*
X-6213Y965440D01*
X-10227Y963777D01*
X-14573Y963777D01*
X-15852Y964307D01*
X-15965Y964334D01*
X-16079Y964362D01*
X-16085Y964362D01*
X-16091Y964363D01*
X-16208Y964352D01*
X-16324Y964343D01*
X-16330Y964341D01*
X-16336Y964340D01*
X-16444Y964292D01*
X-16550Y964247D01*
X-16556Y964242D01*
X-16561Y964240D01*
X-16575Y964227D01*
X-16681Y964142D01*
X-20503Y960320D01*
X-20556Y960246D01*
X-20616Y960177D01*
X-20628Y960147D01*
X-20647Y960120D01*
X-20674Y960033D01*
X-20708Y959949D01*
X-20712Y959908D01*
X-20719Y959885D01*
X-20718Y959853D01*
X-20726Y959782D01*
X-20726Y951442D01*
X-20712Y951352D01*
X-20704Y951261D01*
X-20692Y951232D01*
X-20687Y951200D01*
X-20644Y951119D01*
X-20608Y951035D01*
X-20582Y951003D01*
X-20571Y950982D01*
X-20548Y950960D01*
X-20503Y950904D01*
X-18444Y948845D01*
X-18444Y944449D01*
X-21553Y941340D01*
X-25949Y941340D01*
G37*
%LPD*%
%LPC*%
G36*
X-243243Y720135D02*
X-243243Y720135D01*
X-246575Y721515D01*
X-249125Y724065D01*
X-250505Y727397D01*
X-250505Y731003D01*
X-249125Y734335D01*
X-246575Y736885D01*
X-243243Y738265D01*
X-224557Y738265D01*
X-221225Y736885D01*
X-218675Y734335D01*
X-217295Y731003D01*
X-217295Y727397D01*
X-218675Y724065D01*
X-221225Y721515D01*
X-224557Y720135D01*
X-243243Y720135D01*
G37*
%LPD*%
%LPC*%
G36*
X-243243Y627135D02*
X-243243Y627135D01*
X-246575Y628515D01*
X-249125Y631065D01*
X-250505Y634397D01*
X-250505Y638003D01*
X-249125Y641335D01*
X-246575Y643885D01*
X-243243Y645265D01*
X-224557Y645265D01*
X-221225Y643885D01*
X-218675Y641335D01*
X-217295Y638003D01*
X-217295Y634397D01*
X-218675Y631065D01*
X-221225Y628515D01*
X-224557Y627135D01*
X-243243Y627135D01*
G37*
%LPD*%
%LPC*%
G36*
X188627Y963777D02*
X188627Y963777D01*
X184613Y965440D01*
X181540Y968513D01*
X179877Y972527D01*
X179877Y976873D01*
X181540Y980887D01*
X184613Y983960D01*
X188627Y985623D01*
X192973Y985623D01*
X196987Y983960D01*
X200060Y980887D01*
X201723Y976873D01*
X201723Y972527D01*
X200060Y968513D01*
X196987Y965440D01*
X192973Y963777D01*
X188627Y963777D01*
G37*
%LPD*%
%LPC*%
G36*
X-111773Y361077D02*
X-111773Y361077D01*
X-115787Y362740D01*
X-118860Y365813D01*
X-120523Y369827D01*
X-120523Y374173D01*
X-118860Y378187D01*
X-115787Y381260D01*
X-111773Y382923D01*
X-107427Y382923D01*
X-103413Y381260D01*
X-100340Y378187D01*
X-98677Y374173D01*
X-98677Y369827D01*
X-100340Y365813D01*
X-103413Y362740D01*
X-107427Y361077D01*
X-111773Y361077D01*
G37*
%LPD*%
%LPC*%
G36*
X112027Y361077D02*
X112027Y361077D01*
X108013Y362740D01*
X104940Y365813D01*
X103277Y369827D01*
X103277Y374173D01*
X104940Y378187D01*
X108013Y381260D01*
X112027Y382923D01*
X116373Y382923D01*
X120387Y381260D01*
X123460Y378187D01*
X125123Y374173D01*
X125123Y369827D01*
X123460Y365813D01*
X120387Y362740D01*
X116373Y361077D01*
X112027Y361077D01*
G37*
%LPD*%
%LPC*%
G36*
X-137173Y361077D02*
X-137173Y361077D01*
X-141187Y362740D01*
X-144260Y365813D01*
X-145923Y369827D01*
X-145923Y374173D01*
X-144260Y378187D01*
X-141187Y381260D01*
X-137173Y382923D01*
X-132827Y382923D01*
X-128813Y381260D01*
X-125740Y378187D01*
X-124077Y374173D01*
X-124077Y369827D01*
X-125740Y365813D01*
X-128813Y362740D01*
X-132827Y361077D01*
X-137173Y361077D01*
G37*
%LPD*%
%LPC*%
G36*
X442627Y989177D02*
X442627Y989177D01*
X438613Y990840D01*
X435540Y993913D01*
X433877Y997927D01*
X433877Y1002273D01*
X435540Y1006287D01*
X438613Y1009360D01*
X442627Y1011023D01*
X446973Y1011023D01*
X450987Y1009360D01*
X454060Y1006287D01*
X455723Y1002273D01*
X455723Y997927D01*
X454060Y993913D01*
X450987Y990840D01*
X446973Y989177D01*
X442627Y989177D01*
G37*
%LPD*%
%LPC*%
G36*
X264827Y989177D02*
X264827Y989177D01*
X260813Y990840D01*
X257740Y993913D01*
X256077Y997927D01*
X256077Y1002273D01*
X257740Y1006287D01*
X260813Y1009360D01*
X264827Y1011023D01*
X269173Y1011023D01*
X273187Y1009360D01*
X276260Y1006287D01*
X277923Y1002273D01*
X277923Y997927D01*
X276260Y993913D01*
X273187Y990840D01*
X269173Y989177D01*
X264827Y989177D01*
G37*
%LPD*%
%LPC*%
G36*
X-39973Y989177D02*
X-39973Y989177D01*
X-43987Y990840D01*
X-47060Y993913D01*
X-48723Y997927D01*
X-48723Y1002273D01*
X-47060Y1006287D01*
X-43987Y1009360D01*
X-39973Y1011023D01*
X-35627Y1011023D01*
X-31613Y1009360D01*
X-28540Y1006287D01*
X-26877Y1002273D01*
X-26877Y997927D01*
X-28540Y993913D01*
X-31613Y990840D01*
X-35627Y989177D01*
X-39973Y989177D01*
G37*
%LPD*%
%LPC*%
G36*
X239427Y989177D02*
X239427Y989177D01*
X235413Y990840D01*
X232340Y993913D01*
X230677Y997927D01*
X230677Y1002273D01*
X232340Y1006287D01*
X235413Y1009360D01*
X239427Y1011023D01*
X243773Y1011023D01*
X247787Y1009360D01*
X250860Y1006287D01*
X252523Y1002273D01*
X252523Y997927D01*
X250860Y993913D01*
X247787Y990840D01*
X243773Y989177D01*
X239427Y989177D01*
G37*
%LPD*%
%LPC*%
G36*
X417227Y989177D02*
X417227Y989177D01*
X413213Y990840D01*
X410140Y993913D01*
X408477Y997927D01*
X408477Y1002273D01*
X410140Y1006287D01*
X413213Y1009360D01*
X417227Y1011023D01*
X421573Y1011023D01*
X425587Y1009360D01*
X428660Y1006287D01*
X430323Y1002273D01*
X430323Y997927D01*
X428660Y993913D01*
X425587Y990840D01*
X421573Y989177D01*
X417227Y989177D01*
G37*
%LPD*%
%LPC*%
G36*
X290227Y989177D02*
X290227Y989177D01*
X286213Y990840D01*
X283140Y993913D01*
X281477Y997927D01*
X281477Y1002273D01*
X283140Y1006287D01*
X286213Y1009360D01*
X290227Y1011023D01*
X294573Y1011023D01*
X298587Y1009360D01*
X301660Y1006287D01*
X303323Y1002273D01*
X303323Y997927D01*
X301660Y993913D01*
X298587Y990840D01*
X294573Y989177D01*
X290227Y989177D01*
G37*
%LPD*%
%LPC*%
G36*
X515827Y361077D02*
X515827Y361077D01*
X511813Y362740D01*
X508740Y365813D01*
X507077Y369827D01*
X507077Y374173D01*
X508740Y378187D01*
X511813Y381260D01*
X515827Y382923D01*
X520173Y382923D01*
X524187Y381260D01*
X527260Y378187D01*
X528923Y374173D01*
X528923Y369827D01*
X527260Y365813D01*
X524187Y362740D01*
X520173Y361077D01*
X515827Y361077D01*
G37*
%LPD*%
%LPC*%
G36*
X-14573Y989177D02*
X-14573Y989177D01*
X-18587Y990840D01*
X-21660Y993913D01*
X-23323Y997927D01*
X-23323Y1002273D01*
X-21660Y1006287D01*
X-18587Y1009360D01*
X-14573Y1011023D01*
X-10227Y1011023D01*
X-6213Y1009360D01*
X-3140Y1006287D01*
X-1477Y1002273D01*
X-1477Y997927D01*
X-3140Y993913D01*
X-6213Y990840D01*
X-10227Y989177D01*
X-14573Y989177D01*
G37*
%LPD*%
%LPC*%
G36*
X465027Y361077D02*
X465027Y361077D01*
X461013Y362740D01*
X457940Y365813D01*
X456277Y369827D01*
X456277Y374173D01*
X457940Y378187D01*
X461013Y381260D01*
X465027Y382923D01*
X469373Y382923D01*
X473387Y381260D01*
X476460Y378187D01*
X478123Y374173D01*
X478123Y369827D01*
X476460Y365813D01*
X473387Y362740D01*
X469373Y361077D01*
X465027Y361077D01*
G37*
%LPD*%
%LPC*%
G36*
X287027Y361077D02*
X287027Y361077D01*
X283013Y362740D01*
X279940Y365813D01*
X278277Y369827D01*
X278277Y374173D01*
X279940Y378187D01*
X283013Y381260D01*
X287027Y382923D01*
X291373Y382923D01*
X295387Y381260D01*
X298460Y378187D01*
X300123Y374173D01*
X300123Y369827D01*
X298460Y365813D01*
X295387Y362740D01*
X291373Y361077D01*
X287027Y361077D01*
G37*
%LPD*%
%LPC*%
G36*
X290227Y963777D02*
X290227Y963777D01*
X286213Y965440D01*
X283140Y968513D01*
X281477Y972527D01*
X281477Y976873D01*
X283140Y980887D01*
X286213Y983960D01*
X290227Y985623D01*
X294573Y985623D01*
X298587Y983960D01*
X301660Y980887D01*
X303323Y976873D01*
X303323Y972527D01*
X301660Y968513D01*
X298587Y965440D01*
X294573Y963777D01*
X290227Y963777D01*
G37*
%LPD*%
%LPC*%
G36*
X-39973Y963777D02*
X-39973Y963777D01*
X-43987Y965440D01*
X-47060Y968513D01*
X-48723Y972527D01*
X-48723Y976873D01*
X-47060Y980887D01*
X-43987Y983960D01*
X-39973Y985623D01*
X-35627Y985623D01*
X-31613Y983960D01*
X-28540Y980887D01*
X-26877Y976873D01*
X-26877Y972527D01*
X-28540Y968513D01*
X-31613Y965440D01*
X-35627Y963777D01*
X-39973Y963777D01*
G37*
%LPD*%
%LPC*%
G36*
X341027Y963777D02*
X341027Y963777D01*
X337013Y965440D01*
X333940Y968513D01*
X332277Y972527D01*
X332277Y976873D01*
X333940Y980887D01*
X337013Y983960D01*
X341027Y985623D01*
X345373Y985623D01*
X349387Y983960D01*
X352460Y980887D01*
X354123Y976873D01*
X354123Y972527D01*
X352460Y968513D01*
X349387Y965440D01*
X345373Y963777D01*
X341027Y963777D01*
G37*
%LPD*%
%LPC*%
G36*
X239427Y963777D02*
X239427Y963777D01*
X235413Y965440D01*
X232340Y968513D01*
X230677Y972527D01*
X230677Y976873D01*
X232340Y980887D01*
X235413Y983960D01*
X239427Y985623D01*
X243773Y985623D01*
X247787Y983960D01*
X250860Y980887D01*
X252523Y976873D01*
X252523Y972527D01*
X250860Y968513D01*
X247787Y965440D01*
X243773Y963777D01*
X239427Y963777D01*
G37*
%LPD*%
%LPC*%
G36*
X214027Y963777D02*
X214027Y963777D01*
X210013Y965440D01*
X206940Y968513D01*
X205277Y972527D01*
X205277Y976873D01*
X206940Y980887D01*
X210013Y983960D01*
X214027Y985623D01*
X218373Y985623D01*
X222387Y983960D01*
X225460Y980887D01*
X227123Y976873D01*
X227123Y972527D01*
X225460Y968513D01*
X222387Y965440D01*
X218373Y963777D01*
X214027Y963777D01*
G37*
%LPD*%
%LPC*%
G36*
X615596Y721893D02*
X615596Y721893D01*
X609793Y727696D01*
X609793Y735904D01*
X615596Y741707D01*
X623804Y741707D01*
X629607Y735904D01*
X629607Y727696D01*
X623804Y721893D01*
X615596Y721893D01*
G37*
%LPD*%
%LPC*%
G36*
X614596Y462393D02*
X614596Y462393D01*
X608793Y468196D01*
X608793Y476404D01*
X614596Y482207D01*
X622804Y482207D01*
X628607Y476404D01*
X628607Y468196D01*
X622804Y462393D01*
X614596Y462393D01*
G37*
%LPD*%
%LPC*%
G36*
X615596Y546393D02*
X615596Y546393D01*
X609793Y552196D01*
X609793Y560404D01*
X615596Y566207D01*
X623804Y566207D01*
X629607Y560404D01*
X629607Y552196D01*
X623804Y546393D01*
X615596Y546393D01*
G37*
%LPD*%
%LPC*%
G36*
X615396Y622493D02*
X615396Y622493D01*
X609593Y628296D01*
X609593Y636504D01*
X615396Y642307D01*
X623604Y642307D01*
X629407Y636504D01*
X629407Y628296D01*
X623604Y622493D01*
X615396Y622493D01*
G37*
%LPD*%
%LPC*%
G36*
X-250618Y833863D02*
X-250618Y833863D01*
X-253792Y835178D01*
X-256222Y837608D01*
X-257537Y840782D01*
X-257537Y844218D01*
X-256222Y847392D01*
X-253792Y849822D01*
X-250618Y851137D01*
X-247182Y851137D01*
X-244008Y849822D01*
X-241578Y847392D01*
X-240263Y844218D01*
X-240263Y840782D01*
X-241578Y837608D01*
X-244008Y835178D01*
X-247182Y833863D01*
X-250618Y833863D01*
G37*
%LPD*%
%LPC*%
G36*
X534533Y545971D02*
X534533Y545971D01*
X529771Y550733D01*
X529771Y557467D01*
X534533Y562229D01*
X541267Y562229D01*
X546029Y557467D01*
X546029Y550733D01*
X541267Y545971D01*
X534533Y545971D01*
G37*
%LPD*%
%LPC*%
G36*
X534533Y713371D02*
X534533Y713371D01*
X529771Y718133D01*
X529771Y724867D01*
X534533Y729629D01*
X541267Y729629D01*
X546029Y724867D01*
X546029Y718133D01*
X541267Y713371D01*
X534533Y713371D01*
G37*
%LPD*%
%LPC*%
G36*
X534533Y619771D02*
X534533Y619771D01*
X529771Y624533D01*
X529771Y631267D01*
X534533Y636029D01*
X541267Y636029D01*
X546029Y631267D01*
X546029Y624533D01*
X541267Y619771D01*
X534533Y619771D01*
G37*
%LPD*%
%LPC*%
G36*
X534533Y471671D02*
X534533Y471671D01*
X529771Y476433D01*
X529771Y483167D01*
X534533Y487929D01*
X541267Y487929D01*
X546029Y483167D01*
X546029Y476433D01*
X541267Y471671D01*
X534533Y471671D01*
G37*
%LPD*%
%LPC*%
G36*
X534533Y670571D02*
X534533Y670571D01*
X529771Y675333D01*
X529771Y682067D01*
X534533Y686829D01*
X541267Y686829D01*
X546029Y682067D01*
X546029Y675333D01*
X541267Y670571D01*
X534533Y670571D01*
G37*
%LPD*%
%LPC*%
G36*
X443428Y760935D02*
X443428Y760935D01*
X442535Y761828D01*
X442535Y774172D01*
X443428Y775065D01*
X455772Y775065D01*
X456665Y774172D01*
X456665Y761828D01*
X455772Y760935D01*
X443428Y760935D01*
G37*
%LPD*%
%LPC*%
G36*
X368228Y698935D02*
X368228Y698935D01*
X367335Y699828D01*
X367335Y712172D01*
X368228Y713065D01*
X380572Y713065D01*
X381465Y712172D01*
X381465Y699828D01*
X380572Y698935D01*
X368228Y698935D01*
G37*
%LPD*%
%LPC*%
G36*
X393628Y698935D02*
X393628Y698935D01*
X392735Y699828D01*
X392735Y712172D01*
X393628Y713065D01*
X405972Y713065D01*
X406865Y712172D01*
X406865Y699828D01*
X405972Y698935D01*
X393628Y698935D01*
G37*
%LPD*%
%LPC*%
G36*
X367228Y885935D02*
X367228Y885935D01*
X366335Y886828D01*
X366335Y899172D01*
X367228Y900065D01*
X379572Y900065D01*
X380465Y899172D01*
X380465Y886828D01*
X379572Y885935D01*
X367228Y885935D01*
G37*
%LPD*%
%LPC*%
G36*
X341828Y885935D02*
X341828Y885935D01*
X340935Y886828D01*
X340935Y899172D01*
X341828Y900065D01*
X354172Y900065D01*
X355065Y899172D01*
X355065Y886828D01*
X354172Y885935D01*
X341828Y885935D01*
G37*
%LPD*%
%LPC*%
G36*
X418028Y885935D02*
X418028Y885935D01*
X417135Y886828D01*
X417135Y899172D01*
X418028Y900065D01*
X430372Y900065D01*
X431265Y899172D01*
X431265Y886828D01*
X430372Y885935D01*
X418028Y885935D01*
G37*
%LPD*%
%LPC*%
G36*
X368228Y573935D02*
X368228Y573935D01*
X367335Y574828D01*
X367335Y587172D01*
X368228Y588065D01*
X380572Y588065D01*
X381465Y587172D01*
X381465Y574828D01*
X380572Y573935D01*
X368228Y573935D01*
G37*
%LPD*%
%LPC*%
G36*
X393628Y573935D02*
X393628Y573935D01*
X392735Y574828D01*
X392735Y587172D01*
X393628Y588065D01*
X405972Y588065D01*
X406865Y587172D01*
X406865Y574828D01*
X405972Y573935D01*
X393628Y573935D01*
G37*
%LPD*%
%LPC*%
G36*
X419028Y698935D02*
X419028Y698935D01*
X418135Y699828D01*
X418135Y712172D01*
X419028Y713065D01*
X431372Y713065D01*
X432265Y712172D01*
X432265Y699828D01*
X431372Y698935D01*
X419028Y698935D01*
G37*
%LPD*%
%LPC*%
G36*
X-151601Y894543D02*
X-151601Y894543D01*
X-151601Y905854D01*
X-151428Y906501D01*
X-151093Y907080D01*
X-150620Y907553D01*
X-150041Y907888D01*
X-149394Y908061D01*
X-138083Y908061D01*
X-138083Y894543D01*
X-151601Y894543D01*
G37*
%LPD*%
%LPC*%
G36*
X98463Y893243D02*
X98463Y893243D01*
X98463Y906761D01*
X109774Y906761D01*
X110421Y906588D01*
X111000Y906253D01*
X111473Y905780D01*
X111808Y905201D01*
X111981Y904554D01*
X111981Y893243D01*
X98463Y893243D01*
G37*
%LPD*%
%LPC*%
G36*
X-151601Y498303D02*
X-151601Y498303D01*
X-151601Y509614D01*
X-151428Y510261D01*
X-151093Y510840D01*
X-150620Y511313D01*
X-150041Y511648D01*
X-149394Y511821D01*
X-138083Y511821D01*
X-138083Y498303D01*
X-151601Y498303D01*
G37*
%LPD*%
%LPC*%
G36*
X98463Y497003D02*
X98463Y497003D01*
X98463Y510521D01*
X109774Y510521D01*
X110421Y510348D01*
X111000Y510013D01*
X111473Y509540D01*
X111808Y508961D01*
X111981Y508314D01*
X111981Y497003D01*
X98463Y497003D01*
G37*
%LPD*%
%LPC*%
G36*
X81899Y893243D02*
X81899Y893243D01*
X81899Y904554D01*
X82072Y905201D01*
X82407Y905780D01*
X82880Y906253D01*
X83459Y906588D01*
X84106Y906761D01*
X95417Y906761D01*
X95417Y893243D01*
X81899Y893243D01*
G37*
%LPD*%
%LPC*%
G36*
X81899Y497003D02*
X81899Y497003D01*
X81899Y508314D01*
X82072Y508961D01*
X82407Y509540D01*
X82880Y510013D01*
X83459Y510348D01*
X84106Y510521D01*
X95417Y510521D01*
X95417Y497003D01*
X81899Y497003D01*
G37*
%LPD*%
%LPC*%
G36*
X-135037Y894543D02*
X-135037Y894543D01*
X-135037Y908061D01*
X-123726Y908061D01*
X-123079Y907888D01*
X-122500Y907553D01*
X-122027Y907080D01*
X-121692Y906501D01*
X-121519Y905854D01*
X-121519Y894543D01*
X-135037Y894543D01*
G37*
%LPD*%
%LPC*%
G36*
X-149394Y481739D02*
X-149394Y481739D01*
X-150041Y481912D01*
X-150620Y482247D01*
X-151093Y482720D01*
X-151428Y483299D01*
X-151601Y483946D01*
X-151601Y495257D01*
X-138083Y495257D01*
X-138083Y481739D01*
X-149394Y481739D01*
G37*
%LPD*%
%LPC*%
G36*
X-149394Y877979D02*
X-149394Y877979D01*
X-150041Y878152D01*
X-150620Y878487D01*
X-151093Y878960D01*
X-151428Y879539D01*
X-151601Y880186D01*
X-151601Y891497D01*
X-138083Y891497D01*
X-138083Y877979D01*
X-149394Y877979D01*
G37*
%LPD*%
%LPC*%
G36*
X98463Y876679D02*
X98463Y876679D01*
X98463Y890197D01*
X111981Y890197D01*
X111981Y878886D01*
X111808Y878239D01*
X111473Y877660D01*
X111000Y877187D01*
X110421Y876852D01*
X109774Y876679D01*
X98463Y876679D01*
G37*
%LPD*%
%LPC*%
G36*
X98463Y480439D02*
X98463Y480439D01*
X98463Y493957D01*
X111981Y493957D01*
X111981Y482646D01*
X111808Y481999D01*
X111473Y481420D01*
X111000Y480947D01*
X110421Y480612D01*
X109774Y480439D01*
X98463Y480439D01*
G37*
%LPD*%
%LPC*%
G36*
X-135037Y498303D02*
X-135037Y498303D01*
X-135037Y511821D01*
X-123726Y511821D01*
X-123079Y511648D01*
X-122500Y511313D01*
X-122027Y510840D01*
X-121692Y510261D01*
X-121519Y509614D01*
X-121519Y498303D01*
X-135037Y498303D01*
G37*
%LPD*%
%LPC*%
G36*
X-135037Y877979D02*
X-135037Y877979D01*
X-135037Y891497D01*
X-121519Y891497D01*
X-121519Y880186D01*
X-121692Y879539D01*
X-122027Y878960D01*
X-122500Y878487D01*
X-123079Y878152D01*
X-123726Y877979D01*
X-135037Y877979D01*
G37*
%LPD*%
%LPC*%
G36*
X-135037Y481739D02*
X-135037Y481739D01*
X-135037Y495257D01*
X-121519Y495257D01*
X-121519Y483946D01*
X-121692Y483299D01*
X-122027Y482720D01*
X-122500Y482247D01*
X-123079Y481912D01*
X-123726Y481739D01*
X-135037Y481739D01*
G37*
%LPD*%
%LPC*%
G36*
X84106Y480439D02*
X84106Y480439D01*
X83459Y480612D01*
X82880Y480947D01*
X82407Y481420D01*
X82072Y481999D01*
X81899Y482646D01*
X81899Y493957D01*
X95417Y493957D01*
X95417Y480439D01*
X84106Y480439D01*
G37*
%LPD*%
%LPC*%
G36*
X84106Y876679D02*
X84106Y876679D01*
X83459Y876852D01*
X82880Y877187D01*
X82407Y877660D01*
X82072Y878239D01*
X81899Y878886D01*
X81899Y890197D01*
X95417Y890197D01*
X95417Y876679D01*
X84106Y876679D01*
G37*
%LPD*%
%LPC*%
G36*
X324923Y495923D02*
X324923Y495923D01*
X324923Y505323D01*
X332642Y505323D01*
X334340Y505054D01*
X335975Y504522D01*
X337507Y503742D01*
X338898Y502731D01*
X340113Y501516D01*
X341124Y500125D01*
X341904Y498593D01*
X342436Y496958D01*
X342600Y495923D01*
X324923Y495923D01*
G37*
%LPD*%
%LPC*%
G36*
X304200Y495923D02*
X304200Y495923D01*
X304364Y496958D01*
X304896Y498593D01*
X305676Y500125D01*
X306687Y501516D01*
X307902Y502731D01*
X309293Y503742D01*
X310825Y504522D01*
X312460Y505054D01*
X314158Y505323D01*
X321877Y505323D01*
X321877Y495923D01*
X304200Y495923D01*
G37*
%LPD*%
%LPC*%
G36*
X324923Y483477D02*
X324923Y483477D01*
X324923Y492877D01*
X342600Y492877D01*
X342436Y491842D01*
X341904Y490207D01*
X341124Y488675D01*
X340113Y487284D01*
X338898Y486069D01*
X337507Y485058D01*
X335975Y484278D01*
X334340Y483746D01*
X332642Y483477D01*
X324923Y483477D01*
G37*
%LPD*%
%LPC*%
G36*
X314158Y483477D02*
X314158Y483477D01*
X312460Y483746D01*
X310825Y484278D01*
X309293Y485058D01*
X307902Y486069D01*
X306687Y487284D01*
X305676Y488675D01*
X304896Y490207D01*
X304364Y491842D01*
X304200Y492877D01*
X321877Y492877D01*
X321877Y483477D01*
X314158Y483477D01*
G37*
%LPD*%
%LPC*%
G36*
X-251405Y705323D02*
X-251405Y705323D01*
X-251273Y706161D01*
X-250782Y707670D01*
X-250062Y709083D01*
X-249129Y710367D01*
X-248007Y711489D01*
X-246723Y712422D01*
X-245310Y713142D01*
X-243801Y713633D01*
X-242233Y713881D01*
X-235423Y713881D01*
X-235423Y705323D01*
X-251405Y705323D01*
G37*
%LPD*%
%LPC*%
G36*
X-251405Y612323D02*
X-251405Y612323D01*
X-251273Y613161D01*
X-250782Y614670D01*
X-250062Y616083D01*
X-249129Y617367D01*
X-248007Y618489D01*
X-246723Y619422D01*
X-245310Y620142D01*
X-243801Y620633D01*
X-242233Y620881D01*
X-235423Y620881D01*
X-235423Y612323D01*
X-251405Y612323D01*
G37*
%LPD*%
%LPC*%
G36*
X-232377Y612323D02*
X-232377Y612323D01*
X-232377Y620881D01*
X-225567Y620881D01*
X-223999Y620633D01*
X-222490Y620142D01*
X-221077Y619422D01*
X-219793Y618489D01*
X-218671Y617367D01*
X-217738Y616083D01*
X-217018Y614670D01*
X-216527Y613161D01*
X-216395Y612323D01*
X-232377Y612323D01*
G37*
%LPD*%
%LPC*%
G36*
X-232377Y705323D02*
X-232377Y705323D01*
X-232377Y713881D01*
X-225567Y713881D01*
X-223999Y713633D01*
X-222490Y713142D01*
X-221077Y712422D01*
X-219793Y711489D01*
X-218671Y710367D01*
X-217738Y709083D01*
X-217018Y707670D01*
X-216527Y706161D01*
X-216395Y705323D01*
X-232377Y705323D01*
G37*
%LPD*%
%LPC*%
G36*
X-242233Y600719D02*
X-242233Y600719D01*
X-243801Y600967D01*
X-245310Y601458D01*
X-246723Y602178D01*
X-248007Y603111D01*
X-249129Y604233D01*
X-250062Y605517D01*
X-250782Y606930D01*
X-251273Y608439D01*
X-251405Y609277D01*
X-235423Y609277D01*
X-235423Y600719D01*
X-242233Y600719D01*
G37*
%LPD*%
%LPC*%
G36*
X-242233Y693719D02*
X-242233Y693719D01*
X-243801Y693967D01*
X-245310Y694458D01*
X-246723Y695178D01*
X-248007Y696111D01*
X-249129Y697233D01*
X-250062Y698517D01*
X-250782Y699930D01*
X-251273Y701439D01*
X-251405Y702277D01*
X-235423Y702277D01*
X-235423Y693719D01*
X-242233Y693719D01*
G37*
%LPD*%
%LPC*%
G36*
X-232377Y693719D02*
X-232377Y693719D01*
X-232377Y702277D01*
X-216395Y702277D01*
X-216527Y701439D01*
X-217018Y699930D01*
X-217738Y698517D01*
X-218671Y697233D01*
X-219793Y696111D01*
X-221077Y695178D01*
X-222490Y694458D01*
X-223999Y693967D01*
X-225567Y693719D01*
X-232377Y693719D01*
G37*
%LPD*%
%LPC*%
G36*
X-232377Y600719D02*
X-232377Y600719D01*
X-232377Y609277D01*
X-216395Y609277D01*
X-216527Y608439D01*
X-217018Y606930D01*
X-217738Y605517D01*
X-218671Y604233D01*
X-219793Y603111D01*
X-221077Y602178D01*
X-222490Y601458D01*
X-223999Y600967D01*
X-225567Y600719D01*
X-232377Y600719D01*
G37*
%LPD*%
%LPC*%
G36*
X137802Y414693D02*
X137802Y414693D01*
X134693Y417802D01*
X134693Y422198D01*
X137802Y425307D01*
X142198Y425307D01*
X145307Y422198D01*
X145307Y417802D01*
X142198Y414693D01*
X137802Y414693D01*
G37*
%LPD*%
%LPC*%
G36*
X65323Y976223D02*
X65323Y976223D01*
X65323Y986546D01*
X66596Y986345D01*
X68383Y985764D01*
X70057Y984911D01*
X71578Y983806D01*
X72906Y982478D01*
X74011Y980957D01*
X74864Y979283D01*
X75445Y977496D01*
X75646Y976223D01*
X65323Y976223D01*
G37*
%LPD*%
%LPC*%
G36*
X446323Y976223D02*
X446323Y976223D01*
X446323Y986546D01*
X447596Y986345D01*
X449383Y985764D01*
X451057Y984911D01*
X452578Y983806D01*
X453906Y982478D01*
X455011Y980957D01*
X455864Y979283D01*
X456445Y977496D01*
X456646Y976223D01*
X446323Y976223D01*
G37*
%LPD*%
%LPC*%
G36*
X443323Y373523D02*
X443323Y373523D01*
X443323Y383846D01*
X444596Y383645D01*
X446383Y383064D01*
X448057Y382211D01*
X449578Y381106D01*
X450906Y379778D01*
X452011Y378257D01*
X452864Y376583D01*
X453445Y374796D01*
X453646Y373523D01*
X443323Y373523D01*
G37*
%LPD*%
%LPC*%
G36*
X265323Y373523D02*
X265323Y373523D01*
X265323Y383846D01*
X266596Y383645D01*
X268383Y383064D01*
X270057Y382211D01*
X271578Y381106D01*
X272906Y379778D01*
X274011Y378257D01*
X274864Y376583D01*
X275445Y374796D01*
X275646Y373523D01*
X265323Y373523D01*
G37*
%LPD*%
%LPC*%
G36*
X-96046Y373523D02*
X-96046Y373523D01*
X-95845Y374796D01*
X-95264Y376583D01*
X-94411Y378257D01*
X-93306Y379778D01*
X-91978Y381106D01*
X-90457Y382211D01*
X-88783Y383064D01*
X-86996Y383645D01*
X-85723Y383846D01*
X-85723Y373523D01*
X-96046Y373523D01*
G37*
%LPD*%
%LPC*%
G36*
X90323Y373523D02*
X90323Y373523D01*
X90323Y383846D01*
X91596Y383645D01*
X93383Y383064D01*
X95057Y382211D01*
X96578Y381106D01*
X97906Y379778D01*
X99011Y378257D01*
X99864Y376583D01*
X100445Y374796D01*
X100646Y373523D01*
X90323Y373523D01*
G37*
%LPD*%
%LPC*%
G36*
X192323Y1001623D02*
X192323Y1001623D01*
X192323Y1011946D01*
X193596Y1011745D01*
X195383Y1011164D01*
X197057Y1010311D01*
X198578Y1009206D01*
X199906Y1007878D01*
X201011Y1006357D01*
X201864Y1004683D01*
X202445Y1002896D01*
X202646Y1001623D01*
X192323Y1001623D01*
G37*
%LPD*%
%LPC*%
G36*
X14523Y1001623D02*
X14523Y1001623D01*
X14523Y1011946D01*
X15796Y1011745D01*
X17583Y1011164D01*
X19257Y1010311D01*
X20778Y1009206D01*
X22106Y1007878D01*
X23211Y1006357D01*
X24064Y1004683D01*
X24645Y1002896D01*
X24846Y1001623D01*
X14523Y1001623D01*
G37*
%LPD*%
%LPC*%
G36*
X116123Y1001623D02*
X116123Y1001623D01*
X116123Y1011946D01*
X117396Y1011745D01*
X119183Y1011164D01*
X120857Y1010311D01*
X122378Y1009206D01*
X123706Y1007878D01*
X124811Y1006357D01*
X125664Y1004683D01*
X126245Y1002896D01*
X126446Y1001623D01*
X116123Y1001623D01*
G37*
%LPD*%
%LPC*%
G36*
X370123Y1001623D02*
X370123Y1001623D01*
X370123Y1011946D01*
X371396Y1011745D01*
X373183Y1011164D01*
X374857Y1010311D01*
X376378Y1009206D01*
X377706Y1007878D01*
X378811Y1006357D01*
X379664Y1004683D01*
X380245Y1002896D01*
X380446Y1001623D01*
X370123Y1001623D01*
G37*
%LPD*%
%LPC*%
G36*
X268523Y976223D02*
X268523Y976223D01*
X268523Y986546D01*
X269796Y986345D01*
X271583Y985764D01*
X273257Y984911D01*
X274778Y983806D01*
X276106Y982478D01*
X277211Y980957D01*
X278064Y979283D01*
X278645Y977496D01*
X278846Y976223D01*
X268523Y976223D01*
G37*
%LPD*%
%LPC*%
G36*
X370123Y998577D02*
X370123Y998577D01*
X380446Y998577D01*
X380245Y997304D01*
X379664Y995517D01*
X378811Y993843D01*
X377706Y992322D01*
X376378Y990994D01*
X374857Y989889D01*
X373183Y989036D01*
X371396Y988455D01*
X370123Y988254D01*
X370123Y998577D01*
G37*
%LPD*%
%LPC*%
G36*
X255154Y976223D02*
X255154Y976223D01*
X255355Y977496D01*
X255936Y979283D01*
X256789Y980957D01*
X257894Y982478D01*
X259222Y983806D01*
X260743Y984911D01*
X262417Y985764D01*
X264204Y986345D01*
X265477Y986546D01*
X265477Y976223D01*
X255154Y976223D01*
G37*
%LPD*%
%LPC*%
G36*
X432954Y976223D02*
X432954Y976223D01*
X433155Y977496D01*
X433736Y979283D01*
X434589Y980957D01*
X435694Y982478D01*
X437022Y983806D01*
X438543Y984911D01*
X440217Y985764D01*
X442004Y986345D01*
X443277Y986546D01*
X443277Y976223D01*
X432954Y976223D01*
G37*
%LPD*%
%LPC*%
G36*
X356754Y1001623D02*
X356754Y1001623D01*
X356955Y1002896D01*
X357536Y1004683D01*
X358389Y1006357D01*
X359494Y1007878D01*
X360822Y1009206D01*
X362343Y1010311D01*
X364017Y1011164D01*
X365804Y1011745D01*
X367077Y1011946D01*
X367077Y1001623D01*
X356754Y1001623D01*
G37*
%LPD*%
%LPC*%
G36*
X65323Y973177D02*
X65323Y973177D01*
X75646Y973177D01*
X75445Y971904D01*
X74864Y970117D01*
X74011Y968443D01*
X72906Y966922D01*
X71578Y965594D01*
X70057Y964489D01*
X68383Y963636D01*
X66596Y963055D01*
X65323Y962854D01*
X65323Y973177D01*
G37*
%LPD*%
%LPC*%
G36*
X102754Y1001623D02*
X102754Y1001623D01*
X102955Y1002896D01*
X103536Y1004683D01*
X104389Y1006357D01*
X105494Y1007878D01*
X106822Y1009206D01*
X108343Y1010311D01*
X110017Y1011164D01*
X111804Y1011745D01*
X113077Y1011946D01*
X113077Y1001623D01*
X102754Y1001623D01*
G37*
%LPD*%
%LPC*%
G36*
X305954Y1001623D02*
X305954Y1001623D01*
X306155Y1002896D01*
X306736Y1004683D01*
X307589Y1006357D01*
X308694Y1007878D01*
X310022Y1009206D01*
X311543Y1010311D01*
X313217Y1011164D01*
X315004Y1011745D01*
X316277Y1011946D01*
X316277Y1001623D01*
X305954Y1001623D01*
G37*
%LPD*%
%LPC*%
G36*
X90323Y370477D02*
X90323Y370477D01*
X100646Y370477D01*
X100445Y369204D01*
X99864Y367417D01*
X99011Y365743D01*
X97906Y364222D01*
X96578Y362894D01*
X95057Y361789D01*
X93383Y360936D01*
X91596Y360355D01*
X90323Y360154D01*
X90323Y370477D01*
G37*
%LPD*%
%LPC*%
G36*
X1154Y1001623D02*
X1154Y1001623D01*
X1355Y1002896D01*
X1936Y1004683D01*
X2789Y1006357D01*
X3894Y1007878D01*
X5222Y1009206D01*
X6743Y1010311D01*
X8417Y1011164D01*
X10204Y1011745D01*
X11477Y1011946D01*
X11477Y1001623D01*
X1154Y1001623D01*
G37*
%LPD*%
%LPC*%
G36*
X265323Y370477D02*
X265323Y370477D01*
X275646Y370477D01*
X275445Y369204D01*
X274864Y367417D01*
X274011Y365743D01*
X272906Y364222D01*
X271578Y362894D01*
X270057Y361789D01*
X268383Y360936D01*
X266596Y360355D01*
X265323Y360154D01*
X265323Y370477D01*
G37*
%LPD*%
%LPC*%
G36*
X268523Y973177D02*
X268523Y973177D01*
X278846Y973177D01*
X278645Y971904D01*
X278064Y970117D01*
X277211Y968443D01*
X276106Y966922D01*
X274778Y965594D01*
X273257Y964489D01*
X271583Y963636D01*
X269796Y963055D01*
X268523Y962854D01*
X268523Y973177D01*
G37*
%LPD*%
%LPC*%
G36*
X446323Y973177D02*
X446323Y973177D01*
X456646Y973177D01*
X456445Y971904D01*
X455864Y970117D01*
X455011Y968443D01*
X453906Y966922D01*
X452578Y965594D01*
X451057Y964489D01*
X449383Y963636D01*
X447596Y963055D01*
X446323Y962854D01*
X446323Y973177D01*
G37*
%LPD*%
%LPC*%
G36*
X116123Y998577D02*
X116123Y998577D01*
X126446Y998577D01*
X126245Y997304D01*
X125664Y995517D01*
X124811Y993843D01*
X123706Y992322D01*
X122378Y990994D01*
X120857Y989889D01*
X119183Y989036D01*
X117396Y988455D01*
X116123Y988254D01*
X116123Y998577D01*
G37*
%LPD*%
%LPC*%
G36*
X443323Y370477D02*
X443323Y370477D01*
X453646Y370477D01*
X453445Y369204D01*
X452864Y367417D01*
X452011Y365743D01*
X450906Y364222D01*
X449578Y362894D01*
X448057Y361789D01*
X446383Y360936D01*
X444596Y360355D01*
X443323Y360154D01*
X443323Y370477D01*
G37*
%LPD*%
%LPC*%
G36*
X192323Y998577D02*
X192323Y998577D01*
X202646Y998577D01*
X202445Y997304D01*
X201864Y995517D01*
X201011Y993843D01*
X199906Y992322D01*
X198578Y990994D01*
X197057Y989889D01*
X195383Y989036D01*
X193596Y988455D01*
X192323Y988254D01*
X192323Y998577D01*
G37*
%LPD*%
%LPC*%
G36*
X178954Y1001623D02*
X178954Y1001623D01*
X179155Y1002896D01*
X179736Y1004683D01*
X180589Y1006357D01*
X181694Y1007878D01*
X183022Y1009206D01*
X184543Y1010311D01*
X186217Y1011164D01*
X188004Y1011745D01*
X189277Y1011946D01*
X189277Y1001623D01*
X178954Y1001623D01*
G37*
%LPD*%
%LPC*%
G36*
X76954Y373523D02*
X76954Y373523D01*
X77155Y374796D01*
X77736Y376583D01*
X78589Y378257D01*
X79694Y379778D01*
X81022Y381106D01*
X82543Y382211D01*
X84217Y383064D01*
X86004Y383645D01*
X87277Y383846D01*
X87277Y373523D01*
X76954Y373523D01*
G37*
%LPD*%
%LPC*%
G36*
X-82677Y373523D02*
X-82677Y373523D01*
X-82677Y383846D01*
X-81404Y383645D01*
X-79617Y383064D01*
X-77943Y382211D01*
X-76422Y381106D01*
X-75094Y379778D01*
X-73989Y378257D01*
X-73136Y376583D01*
X-72555Y374796D01*
X-72354Y373523D01*
X-82677Y373523D01*
G37*
%LPD*%
%LPC*%
G36*
X14523Y998577D02*
X14523Y998577D01*
X24846Y998577D01*
X24645Y997304D01*
X24064Y995517D01*
X23211Y993843D01*
X22106Y992322D01*
X20778Y990994D01*
X19257Y989889D01*
X17583Y989036D01*
X15796Y988455D01*
X14523Y988254D01*
X14523Y998577D01*
G37*
%LPD*%
%LPC*%
G36*
X251954Y373523D02*
X251954Y373523D01*
X252155Y374796D01*
X252736Y376583D01*
X253589Y378257D01*
X254694Y379778D01*
X256022Y381106D01*
X257543Y382211D01*
X259217Y383064D01*
X261004Y383645D01*
X262277Y383846D01*
X262277Y373523D01*
X251954Y373523D01*
G37*
%LPD*%
%LPC*%
G36*
X-86996Y360355D02*
X-86996Y360355D01*
X-88783Y360936D01*
X-90457Y361789D01*
X-91978Y362894D01*
X-93306Y364222D01*
X-94411Y365743D01*
X-95264Y367417D01*
X-95845Y369204D01*
X-96046Y370477D01*
X-85723Y370477D01*
X-85723Y360154D01*
X-86996Y360355D01*
G37*
%LPD*%
%LPC*%
G36*
X429954Y373523D02*
X429954Y373523D01*
X430155Y374796D01*
X430736Y376583D01*
X431589Y378257D01*
X432694Y379778D01*
X434022Y381106D01*
X435543Y382211D01*
X437217Y383064D01*
X439004Y383645D01*
X440277Y383846D01*
X440277Y373523D01*
X429954Y373523D01*
G37*
%LPD*%
%LPC*%
G36*
X10204Y988455D02*
X10204Y988455D01*
X8417Y989036D01*
X6743Y989889D01*
X5222Y990994D01*
X3894Y992322D01*
X2789Y993843D01*
X1936Y995517D01*
X1355Y997304D01*
X1154Y998577D01*
X11477Y998577D01*
X11477Y988254D01*
X10204Y988455D01*
G37*
%LPD*%
%LPC*%
G36*
X-82677Y370477D02*
X-82677Y370477D01*
X-72354Y370477D01*
X-72555Y369204D01*
X-73136Y367417D01*
X-73989Y365743D01*
X-75094Y364222D01*
X-76422Y362894D01*
X-77943Y361789D01*
X-79617Y360936D01*
X-81404Y360355D01*
X-82677Y360154D01*
X-82677Y370477D01*
G37*
%LPD*%
%LPC*%
G36*
X86004Y360355D02*
X86004Y360355D01*
X84217Y360936D01*
X82543Y361789D01*
X81022Y362894D01*
X79694Y364222D01*
X78589Y365743D01*
X77736Y367417D01*
X77155Y369204D01*
X76954Y370477D01*
X87277Y370477D01*
X87277Y360154D01*
X86004Y360355D01*
G37*
%LPD*%
%LPC*%
G36*
X261004Y360355D02*
X261004Y360355D01*
X259217Y360936D01*
X257543Y361789D01*
X256022Y362894D01*
X254694Y364222D01*
X253589Y365743D01*
X252736Y367417D01*
X252155Y369204D01*
X251954Y370477D01*
X262277Y370477D01*
X262277Y360154D01*
X261004Y360355D01*
G37*
%LPD*%
%LPC*%
G36*
X365804Y988455D02*
X365804Y988455D01*
X364017Y989036D01*
X362343Y989889D01*
X360822Y990994D01*
X359494Y992322D01*
X358389Y993843D01*
X357536Y995517D01*
X356955Y997304D01*
X356754Y998577D01*
X367077Y998577D01*
X367077Y988254D01*
X365804Y988455D01*
G37*
%LPD*%
%LPC*%
G36*
X439004Y360355D02*
X439004Y360355D01*
X437217Y360936D01*
X435543Y361789D01*
X434022Y362894D01*
X432694Y364222D01*
X431589Y365743D01*
X430736Y367417D01*
X430155Y369204D01*
X429954Y370477D01*
X440277Y370477D01*
X440277Y360154D01*
X439004Y360355D01*
G37*
%LPD*%
%LPC*%
G36*
X442004Y963055D02*
X442004Y963055D01*
X440217Y963636D01*
X438543Y964489D01*
X437022Y965594D01*
X435694Y966922D01*
X434589Y968443D01*
X433736Y970117D01*
X433155Y971904D01*
X432954Y973177D01*
X443277Y973177D01*
X443277Y962854D01*
X442004Y963055D01*
G37*
%LPD*%
%LPC*%
G36*
X264204Y963055D02*
X264204Y963055D01*
X262417Y963636D01*
X260743Y964489D01*
X259222Y965594D01*
X257894Y966922D01*
X256789Y968443D01*
X255936Y970117D01*
X255355Y971904D01*
X255154Y973177D01*
X265477Y973177D01*
X265477Y962854D01*
X264204Y963055D01*
G37*
%LPD*%
%LPC*%
G36*
X315004Y988455D02*
X315004Y988455D01*
X313217Y989036D01*
X311543Y989889D01*
X310022Y990994D01*
X308694Y992322D01*
X307589Y993843D01*
X306736Y995517D01*
X306155Y997304D01*
X305954Y998577D01*
X316277Y998577D01*
X316277Y988254D01*
X315004Y988455D01*
G37*
%LPD*%
%LPC*%
G36*
X188004Y988455D02*
X188004Y988455D01*
X186217Y989036D01*
X184543Y989889D01*
X183022Y990994D01*
X181694Y992322D01*
X180589Y993843D01*
X179736Y995517D01*
X179155Y997304D01*
X178954Y998577D01*
X189277Y998577D01*
X189277Y988254D01*
X188004Y988455D01*
G37*
%LPD*%
%LPC*%
G36*
X111804Y988455D02*
X111804Y988455D01*
X110017Y989036D01*
X108343Y989889D01*
X106822Y990994D01*
X105494Y992322D01*
X104389Y993843D01*
X103536Y995517D01*
X102955Y997304D01*
X102754Y998577D01*
X113077Y998577D01*
X113077Y988254D01*
X111804Y988455D01*
G37*
%LPD*%
%LPC*%
G36*
X621223Y758723D02*
X621223Y758723D01*
X621223Y768123D01*
X624224Y768123D01*
X630623Y761724D01*
X630623Y758723D01*
X621223Y758723D01*
G37*
%LPD*%
%LPC*%
G36*
X621223Y583223D02*
X621223Y583223D01*
X621223Y592623D01*
X624224Y592623D01*
X630623Y586224D01*
X630623Y583223D01*
X621223Y583223D01*
G37*
%LPD*%
%LPC*%
G36*
X621023Y659323D02*
X621023Y659323D01*
X621023Y668723D01*
X624024Y668723D01*
X630423Y662324D01*
X630423Y659323D01*
X621023Y659323D01*
G37*
%LPD*%
%LPC*%
G36*
X620223Y499223D02*
X620223Y499223D01*
X620223Y508623D01*
X623224Y508623D01*
X629623Y502224D01*
X629623Y499223D01*
X620223Y499223D01*
G37*
%LPD*%
%LPC*%
G36*
X621023Y646877D02*
X621023Y646877D01*
X621023Y656277D01*
X630423Y656277D01*
X630423Y653276D01*
X624024Y646877D01*
X621023Y646877D01*
G37*
%LPD*%
%LPC*%
G36*
X621223Y746277D02*
X621223Y746277D01*
X621223Y755677D01*
X630623Y755677D01*
X630623Y752676D01*
X624224Y746277D01*
X621223Y746277D01*
G37*
%LPD*%
%LPC*%
G36*
X608577Y659323D02*
X608577Y659323D01*
X608577Y662324D01*
X614976Y668723D01*
X617977Y668723D01*
X617977Y659323D01*
X608577Y659323D01*
G37*
%LPD*%
%LPC*%
G36*
X608777Y758723D02*
X608777Y758723D01*
X608777Y761724D01*
X615176Y768123D01*
X618177Y768123D01*
X618177Y758723D01*
X608777Y758723D01*
G37*
%LPD*%
%LPC*%
G36*
X621223Y570777D02*
X621223Y570777D01*
X621223Y580177D01*
X630623Y580177D01*
X630623Y577176D01*
X624224Y570777D01*
X621223Y570777D01*
G37*
%LPD*%
%LPC*%
G36*
X607777Y499223D02*
X607777Y499223D01*
X607777Y502224D01*
X614176Y508623D01*
X617177Y508623D01*
X617177Y499223D01*
X607777Y499223D01*
G37*
%LPD*%
%LPC*%
G36*
X620223Y486777D02*
X620223Y486777D01*
X620223Y496177D01*
X629623Y496177D01*
X629623Y493176D01*
X623224Y486777D01*
X620223Y486777D01*
G37*
%LPD*%
%LPC*%
G36*
X608777Y583223D02*
X608777Y583223D01*
X608777Y586224D01*
X615176Y592623D01*
X618177Y592623D01*
X618177Y583223D01*
X608777Y583223D01*
G37*
%LPD*%
%LPC*%
G36*
X614976Y646877D02*
X614976Y646877D01*
X608577Y653276D01*
X608577Y656277D01*
X617977Y656277D01*
X617977Y646877D01*
X614976Y646877D01*
G37*
%LPD*%
%LPC*%
G36*
X615176Y570777D02*
X615176Y570777D01*
X608777Y577176D01*
X608777Y580177D01*
X618177Y580177D01*
X618177Y570777D01*
X615176Y570777D01*
G37*
%LPD*%
%LPC*%
G36*
X615176Y746277D02*
X615176Y746277D01*
X608777Y752676D01*
X608777Y755677D01*
X618177Y755677D01*
X618177Y746277D01*
X615176Y746277D01*
G37*
%LPD*%
%LPC*%
G36*
X614176Y486777D02*
X614176Y486777D01*
X607777Y493176D01*
X607777Y496177D01*
X617177Y496177D01*
X617177Y486777D01*
X614176Y486777D01*
G37*
%LPD*%
%LPC*%
G36*
X-257832Y522223D02*
X-257832Y522223D01*
X-257715Y522960D01*
X-257246Y524405D01*
X-256556Y525759D01*
X-255663Y526988D01*
X-254588Y528063D01*
X-253359Y528956D01*
X-252005Y529646D01*
X-250560Y530115D01*
X-249823Y530232D01*
X-249823Y522223D01*
X-257832Y522223D01*
G37*
%LPD*%
%LPC*%
G36*
X-258432Y824023D02*
X-258432Y824023D01*
X-258315Y824760D01*
X-257846Y826205D01*
X-257156Y827559D01*
X-256263Y828788D01*
X-255188Y829863D01*
X-253959Y830756D01*
X-252605Y831446D01*
X-251160Y831915D01*
X-250423Y832032D01*
X-250423Y824023D01*
X-258432Y824023D01*
G37*
%LPD*%
%LPC*%
G36*
X-246777Y522223D02*
X-246777Y522223D01*
X-246777Y530232D01*
X-246040Y530115D01*
X-244595Y529646D01*
X-243241Y528956D01*
X-242012Y528063D01*
X-240937Y526988D01*
X-240044Y525759D01*
X-239354Y524405D01*
X-238885Y522960D01*
X-238768Y522223D01*
X-246777Y522223D01*
G37*
%LPD*%
%LPC*%
G36*
X-250560Y511285D02*
X-250560Y511285D01*
X-252005Y511754D01*
X-253359Y512444D01*
X-254588Y513337D01*
X-255663Y514412D01*
X-256556Y515641D01*
X-257246Y516995D01*
X-257715Y518440D01*
X-257832Y519177D01*
X-249823Y519177D01*
X-249823Y511168D01*
X-250560Y511285D01*
G37*
%LPD*%
%LPC*%
G36*
X-247377Y824023D02*
X-247377Y824023D01*
X-247377Y832032D01*
X-246640Y831915D01*
X-245195Y831446D01*
X-243841Y830756D01*
X-242612Y829863D01*
X-241537Y828788D01*
X-240644Y827559D01*
X-239954Y826205D01*
X-239485Y824760D01*
X-239368Y824023D01*
X-247377Y824023D01*
G37*
%LPD*%
%LPC*%
G36*
X-251160Y813085D02*
X-251160Y813085D01*
X-252605Y813554D01*
X-253959Y814244D01*
X-255188Y815137D01*
X-256263Y816212D01*
X-257156Y817441D01*
X-257846Y818795D01*
X-258315Y820240D01*
X-258432Y820977D01*
X-250423Y820977D01*
X-250423Y812968D01*
X-251160Y813085D01*
G37*
%LPD*%
%LPC*%
G36*
X-246777Y519177D02*
X-246777Y519177D01*
X-238768Y519177D01*
X-238885Y518440D01*
X-239354Y516995D01*
X-240044Y515641D01*
X-240937Y514412D01*
X-242012Y513337D01*
X-243241Y512444D01*
X-244595Y511754D01*
X-246040Y511285D01*
X-246777Y511168D01*
X-246777Y519177D01*
G37*
%LPD*%
%LPC*%
G36*
X-247377Y820977D02*
X-247377Y820977D01*
X-239368Y820977D01*
X-239485Y820240D01*
X-239954Y818795D01*
X-240644Y817441D01*
X-241537Y816212D01*
X-242612Y815137D01*
X-243841Y814244D01*
X-245195Y813554D01*
X-246640Y813085D01*
X-247377Y812968D01*
X-247377Y820977D01*
G37*
%LPD*%
%LPC*%
G36*
X350499Y582499D02*
X350499Y582499D01*
X350499Y589081D01*
X354874Y589081D01*
X355521Y588908D01*
X356100Y588573D01*
X356573Y588100D01*
X356908Y587521D01*
X357081Y586874D01*
X357081Y582499D01*
X350499Y582499D01*
G37*
%LPD*%
%LPC*%
G36*
X349499Y769499D02*
X349499Y769499D01*
X349499Y776081D01*
X353875Y776081D01*
X354521Y775908D01*
X355100Y775573D01*
X355573Y775100D01*
X355908Y774521D01*
X356081Y773874D01*
X356081Y769499D01*
X349499Y769499D01*
G37*
%LPD*%
%LPC*%
G36*
X350499Y572919D02*
X350499Y572919D01*
X350499Y579501D01*
X357081Y579501D01*
X357081Y575126D01*
X356908Y574479D01*
X356573Y573900D01*
X356100Y573427D01*
X355521Y573092D01*
X354874Y572919D01*
X350499Y572919D01*
G37*
%LPD*%
%LPC*%
G36*
X349499Y759919D02*
X349499Y759919D01*
X349499Y766501D01*
X356081Y766501D01*
X356081Y762126D01*
X355908Y761479D01*
X355573Y760900D01*
X355100Y760427D01*
X354521Y760092D01*
X353874Y759919D01*
X349499Y759919D01*
G37*
%LPD*%
%LPC*%
G36*
X340919Y582499D02*
X340919Y582499D01*
X340919Y586874D01*
X341092Y587521D01*
X341427Y588100D01*
X341900Y588573D01*
X342479Y588908D01*
X343126Y589081D01*
X347501Y589081D01*
X347501Y582499D01*
X340919Y582499D01*
G37*
%LPD*%
%LPC*%
G36*
X339919Y769499D02*
X339919Y769499D01*
X339919Y773874D01*
X340092Y774521D01*
X340427Y775100D01*
X340900Y775573D01*
X341479Y775908D01*
X342126Y776081D01*
X346501Y776081D01*
X346501Y769499D01*
X339919Y769499D01*
G37*
%LPD*%
%LPC*%
G36*
X342126Y759919D02*
X342126Y759919D01*
X341479Y760092D01*
X340900Y760427D01*
X340427Y760900D01*
X340092Y761479D01*
X339919Y762126D01*
X339919Y766501D01*
X346501Y766501D01*
X346501Y759919D01*
X342126Y759919D01*
G37*
%LPD*%
%LPC*%
G36*
X343126Y572919D02*
X343126Y572919D01*
X342479Y573092D01*
X341900Y573427D01*
X341427Y573900D01*
X341092Y574479D01*
X340919Y575126D01*
X340919Y579501D01*
X347501Y579501D01*
X347501Y572919D01*
X343126Y572919D01*
G37*
%LPD*%
%LPC*%
G36*
X96939Y891719D02*
X96939Y891719D01*
X96939Y891721D01*
X96941Y891721D01*
X96941Y891719D01*
X96939Y891719D01*
G37*
%LPD*%
%LPC*%
G36*
X-136561Y893019D02*
X-136561Y893019D01*
X-136561Y893021D01*
X-136559Y893021D01*
X-136559Y893019D01*
X-136561Y893019D01*
G37*
%LPD*%
%LPC*%
G36*
X619699Y581699D02*
X619699Y581699D01*
X619699Y581701D01*
X619701Y581701D01*
X619701Y581699D01*
X619699Y581699D01*
G37*
%LPD*%
%LPC*%
G36*
X-136561Y496779D02*
X-136561Y496779D01*
X-136561Y496781D01*
X-136559Y496781D01*
X-136559Y496779D01*
X-136561Y496779D01*
G37*
%LPD*%
%LPC*%
G36*
X323399Y494399D02*
X323399Y494399D01*
X323399Y494401D01*
X323401Y494401D01*
X323401Y494399D01*
X323399Y494399D01*
G37*
%LPD*%
%LPC*%
G36*
X618699Y497699D02*
X618699Y497699D01*
X618699Y497701D01*
X618701Y497701D01*
X618701Y497699D01*
X618699Y497699D01*
G37*
%LPD*%
%LPC*%
G36*
X619699Y757199D02*
X619699Y757199D01*
X619699Y757201D01*
X619701Y757201D01*
X619701Y757199D01*
X619699Y757199D01*
G37*
%LPD*%
%LPC*%
G36*
X444799Y974699D02*
X444799Y974699D01*
X444799Y974701D01*
X444801Y974701D01*
X444801Y974699D01*
X444799Y974699D01*
G37*
%LPD*%
%LPC*%
G36*
X-248901Y822499D02*
X-248901Y822499D01*
X-248901Y822501D01*
X-248899Y822501D01*
X-248899Y822499D01*
X-248901Y822499D01*
G37*
%LPD*%
%LPC*%
G36*
X266999Y974699D02*
X266999Y974699D01*
X266999Y974701D01*
X267001Y974701D01*
X267001Y974699D01*
X266999Y974699D01*
G37*
%LPD*%
%LPC*%
G36*
X619499Y657799D02*
X619499Y657799D01*
X619499Y657801D01*
X619501Y657801D01*
X619501Y657799D01*
X619499Y657799D01*
G37*
%LPD*%
%LPC*%
G36*
X-233901Y703799D02*
X-233901Y703799D01*
X-233901Y703801D01*
X-233899Y703801D01*
X-233899Y703799D01*
X-233901Y703799D01*
G37*
%LPD*%
%LPC*%
G36*
X368599Y1000099D02*
X368599Y1000099D01*
X368599Y1000101D01*
X368601Y1000101D01*
X368601Y1000099D01*
X368599Y1000099D01*
G37*
%LPD*%
%LPC*%
G36*
X88799Y371999D02*
X88799Y371999D01*
X88799Y372001D01*
X88801Y372001D01*
X88801Y371999D01*
X88799Y371999D01*
G37*
%LPD*%
%LPC*%
G36*
X-84201Y371999D02*
X-84201Y371999D01*
X-84201Y372001D01*
X-84199Y372001D01*
X-84199Y371999D01*
X-84201Y371999D01*
G37*
%LPD*%
%LPC*%
G36*
X190799Y1000099D02*
X190799Y1000099D01*
X190799Y1000101D01*
X190801Y1000101D01*
X190801Y1000099D01*
X190799Y1000099D01*
G37*
%LPD*%
%LPC*%
G36*
X114599Y1000099D02*
X114599Y1000099D01*
X114599Y1000101D01*
X114601Y1000101D01*
X114601Y1000099D01*
X114599Y1000099D01*
G37*
%LPD*%
%LPC*%
G36*
X263799Y371999D02*
X263799Y371999D01*
X263799Y372001D01*
X263801Y372001D01*
X263801Y371999D01*
X263799Y371999D01*
G37*
%LPD*%
%LPC*%
G36*
X12999Y1000099D02*
X12999Y1000099D01*
X12999Y1000101D01*
X13001Y1000101D01*
X13001Y1000099D01*
X12999Y1000099D01*
G37*
%LPD*%
%LPC*%
G36*
X-233901Y610799D02*
X-233901Y610799D01*
X-233901Y610801D01*
X-233899Y610801D01*
X-233899Y610799D01*
X-233901Y610799D01*
G37*
%LPD*%
%LPC*%
G36*
X-248301Y520699D02*
X-248301Y520699D01*
X-248301Y520701D01*
X-248299Y520701D01*
X-248299Y520699D01*
X-248301Y520699D01*
G37*
%LPD*%
%LPC*%
G36*
X96939Y495479D02*
X96939Y495479D01*
X96939Y495481D01*
X96941Y495481D01*
X96941Y495479D01*
X96939Y495479D01*
G37*
%LPD*%
%LPC*%
G36*
X441799Y371999D02*
X441799Y371999D01*
X441799Y372001D01*
X441801Y372001D01*
X441801Y371999D01*
X441799Y371999D01*
G37*
%LPD*%
D10*
X-248300Y540700D03*
X-248300Y520700D03*
D11*
X-37800Y974700D03*
X-37800Y1000100D03*
X-12400Y974700D03*
X-12400Y1000100D03*
X13000Y974700D03*
X13000Y1000100D03*
X38400Y974700D03*
X38400Y1000100D03*
X63800Y974700D03*
X63800Y1000100D03*
X89200Y974700D03*
X89200Y1000100D03*
X114600Y974700D03*
X114600Y1000100D03*
X140000Y974700D03*
X140000Y1000100D03*
X165400Y974700D03*
X165400Y1000100D03*
X190800Y974700D03*
X190800Y1000100D03*
X216200Y974700D03*
X216200Y1000100D03*
X241600Y974700D03*
X241600Y1000100D03*
X267000Y974700D03*
X267000Y1000100D03*
X292400Y974700D03*
X292400Y1000100D03*
X317800Y974700D03*
X317800Y1000100D03*
X343200Y974700D03*
X343200Y1000100D03*
X368600Y974700D03*
X368600Y1000100D03*
X394000Y974700D03*
X394000Y1000100D03*
X419400Y974700D03*
X419400Y1000100D03*
X444800Y974700D03*
X444800Y1000100D03*
D12*
X619700Y731800D03*
X619700Y757200D03*
X618700Y472300D03*
X618700Y497700D03*
X619700Y556300D03*
X619700Y581700D03*
X619500Y632400D03*
X619500Y657800D03*
D13*
X537900Y721500D03*
X537900Y772300D03*
X537900Y479800D03*
X537900Y530600D03*
X537900Y554100D03*
X537900Y604900D03*
X537900Y627900D03*
X537900Y678700D03*
D14*
X269660Y891720D03*
X96940Y891720D03*
X96940Y495480D03*
X269660Y495480D03*
D15*
X514300Y865700D03*
X514300Y912690D03*
X514300Y818710D03*
X641300Y840300D03*
X641300Y891100D03*
D10*
X-248900Y842500D03*
X-248900Y822500D03*
D14*
X36160Y893020D03*
X-136560Y893020D03*
X-136560Y496780D03*
X36160Y496780D03*
D16*
X-226360Y661600D02*
X-241440Y661600D01*
X-241440Y636200D02*
X-226360Y636200D01*
X-226360Y610800D02*
X-241440Y610800D01*
X-241440Y754600D02*
X-226360Y754600D01*
X-226360Y729200D02*
X-241440Y729200D01*
X-241440Y703800D02*
X-226360Y703800D01*
D17*
X315018Y494400D02*
X331782Y494400D01*
X331782Y469000D02*
X315018Y469000D01*
X315018Y443600D02*
X331782Y443600D01*
D18*
X348000Y893000D03*
X373400Y893000D03*
X398800Y893000D03*
X424200Y893000D03*
X449600Y893000D03*
X348000Y768000D03*
X373400Y768000D03*
X398800Y768000D03*
X424200Y768000D03*
X449600Y768000D03*
X349000Y706000D03*
X374400Y706000D03*
X399800Y706000D03*
X425200Y706000D03*
X450600Y706000D03*
X349000Y581000D03*
X374400Y581000D03*
X399800Y581000D03*
X425200Y581000D03*
X450600Y581000D03*
D11*
X-135000Y372000D03*
X-109600Y372000D03*
X-84200Y372000D03*
X-58800Y372000D03*
X-33400Y372000D03*
X-8000Y372000D03*
X38000Y372000D03*
X63400Y372000D03*
X88800Y372000D03*
X114200Y372000D03*
X139600Y372000D03*
X165000Y372000D03*
X213000Y372000D03*
X238400Y372000D03*
X263800Y372000D03*
X289200Y372000D03*
X314600Y372000D03*
X340000Y372000D03*
X391000Y372000D03*
X416400Y372000D03*
X441800Y372000D03*
X467200Y372000D03*
X492600Y372000D03*
X518000Y372000D03*
X-170000Y445000D03*
X-195400Y445000D03*
D19*
X245000Y625000D03*
X140000Y880000D03*
X150000Y935000D03*
D20*
X-194532Y444483D02*
X-194532Y441090D01*
X-144768Y391326D01*
X-76908Y391326D01*
X-57681Y372099D01*
X-194532Y444483D02*
X-195400Y445000D01*
X-58800Y372000D02*
X-57681Y372099D01*
X451269Y706875D02*
X451269Y746460D01*
X463710Y758901D01*
X463710Y868608D01*
X450138Y882180D01*
X450138Y892359D01*
X451269Y706875D02*
X450600Y706000D01*
X450138Y892359D02*
X449600Y893000D01*
X-163995Y445614D02*
X-169650Y445614D01*
X-163995Y445614D02*
X-136851Y472758D01*
X236379Y472758D01*
X260130Y496509D01*
X269178Y496509D01*
X-169650Y445614D02*
X-170000Y445000D01*
X269178Y496509D02*
X269660Y495480D01*
X450138Y695565D02*
X450138Y703482D01*
X450138Y695565D02*
X351741Y597168D01*
X340431Y597168D01*
X277095Y533832D01*
X277095Y504426D01*
X271440Y498771D01*
X450138Y703482D02*
X450600Y706000D01*
X271440Y498771D02*
X269660Y495480D01*
D21*
X538356Y531570D02*
X540618Y533832D01*
X541749Y533832D01*
X555321Y547404D01*
X555321Y918372D01*
X452400Y1021293D01*
X341562Y1021293D01*
X331383Y1011114D01*
X331383Y1009983D01*
X332514Y1008852D01*
X332514Y1007721D01*
X330252Y1005459D01*
X330252Y995280D01*
X332514Y993018D01*
X332514Y990756D01*
X316680Y974922D01*
X538356Y531570D02*
X537900Y530600D01*
X317800Y974700D02*
X316680Y974922D01*
X550797Y617526D02*
X538356Y605085D01*
X550797Y617526D02*
X550797Y905931D01*
X522522Y934206D01*
X503295Y934206D01*
X538356Y605085D02*
X537900Y604900D01*
D19*
X503295Y934206D03*
D20*
X59943Y893490D02*
X36192Y893490D01*
X59943Y893490D02*
X80301Y913848D01*
X237510Y913848D01*
X260130Y891228D01*
X269178Y891228D01*
X36192Y893490D02*
X36160Y893020D01*
X269178Y891228D02*
X269660Y891720D01*
X323466Y444483D02*
X332514Y444483D01*
X454662Y566631D01*
X459186Y566631D01*
X522522Y629967D01*
X522522Y753246D01*
X538356Y769080D01*
X538356Y771342D01*
X323466Y444483D02*
X323400Y443600D01*
X538356Y771342D02*
X537900Y772300D01*
X-246558Y541749D02*
X-247689Y541749D01*
X-246558Y541749D02*
X19227Y807534D01*
X183222Y807534D01*
X246558Y870870D01*
X303108Y870870D01*
X339300Y907062D01*
X469365Y907062D01*
X510081Y866346D01*
X513474Y866346D01*
X-247689Y541749D02*
X-248300Y540700D01*
X513474Y866346D02*
X514300Y865700D01*
D21*
X-232986Y675207D02*
X-232986Y661635D01*
X-232986Y675207D02*
X28275Y936468D01*
X28275Y962481D01*
X37323Y971529D01*
X37323Y973791D01*
X-232986Y661635D02*
X-233900Y661600D01*
X37323Y973791D02*
X38400Y974700D01*
X-232986Y762294D02*
X-232986Y755508D01*
X-232986Y762294D02*
X-122148Y873132D01*
X-121017Y873132D01*
X-54288Y939861D01*
X-54288Y1006590D01*
X-39585Y1021293D01*
X141375Y1021293D01*
X153816Y1008852D01*
X153816Y1006590D01*
X152685Y1005459D01*
X152685Y994149D01*
X151554Y993018D01*
X151554Y981708D01*
X152685Y980577D01*
X152685Y969267D01*
X153816Y968136D01*
X153816Y964743D01*
X160602Y957957D01*
X349479Y957957D01*
X365313Y973791D01*
X367575Y973791D01*
X-232986Y755508D02*
X-233900Y754600D01*
X367575Y973791D02*
X368600Y974700D01*
X490854Y976053D02*
X490854Y899145D01*
X490854Y976053D02*
X450138Y1016769D01*
X413946Y1016769D01*
X398112Y1000935D01*
X394719Y1000935D01*
X394000Y1000100D01*
D19*
X490854Y899145D03*
D21*
X398112Y892359D02*
X391326Y892359D01*
X385671Y886704D01*
X385671Y885573D01*
X307632Y807534D01*
X230724Y807534D01*
X119886Y935337D02*
X91611Y963612D01*
X91611Y965874D01*
X89349Y968136D01*
X89349Y973791D01*
X398112Y892359D02*
X398800Y893000D01*
X89349Y973791D02*
X89200Y974700D01*
D19*
X230724Y807534D03*
X119886Y935337D03*
D21*
X142506Y924027D02*
X185484Y924027D01*
X142506Y924027D02*
X100659Y965874D01*
X100659Y968136D01*
X101790Y969267D01*
X101790Y980577D01*
X100659Y981708D01*
X100659Y983970D01*
X101790Y985101D01*
X89349Y997542D01*
X89349Y999804D01*
X89200Y1000100D01*
D19*
X185484Y924027D03*
D21*
X301977Y885573D02*
X301977Y883311D01*
X301977Y885573D02*
X390195Y973791D01*
X393588Y973791D01*
X394000Y974700D01*
D19*
X301977Y883311D03*
D21*
X321204Y693303D02*
X179829Y693303D01*
X-31668Y481806D01*
D19*
X321204Y693303D03*
X-31668Y481806D03*
D21*
X424125Y724971D02*
X424125Y767949D01*
X424125Y724971D02*
X411684Y712530D01*
X411684Y697827D01*
X203580Y489723D01*
X188877Y489723D01*
X424125Y767949D02*
X424200Y768000D01*
D19*
X188877Y489723D03*
D21*
X399243Y726102D02*
X399243Y767949D01*
X399243Y726102D02*
X386802Y713661D01*
X386802Y697827D01*
X174174Y485199D01*
X174174Y481806D01*
X111969Y419601D02*
X88218Y419601D01*
X40716Y372099D01*
X38454Y372099D01*
X398800Y768000D02*
X399243Y767949D01*
X38454Y372099D02*
X38000Y372000D01*
D19*
X174174Y481806D03*
X111969Y419601D03*
D21*
X374361Y726102D02*
X374361Y767949D01*
X374361Y726102D02*
X360789Y712530D01*
X360789Y678600D01*
X163995Y481806D01*
X93873Y411684D02*
X65598Y383409D01*
X65598Y381147D01*
X64467Y380016D01*
X64467Y372099D01*
X373400Y768000D02*
X374361Y767949D01*
X64467Y372099D02*
X63400Y372000D01*
D19*
X163995Y481806D03*
X93873Y411684D03*
D21*
X498771Y893490D02*
X498771Y901407D01*
X495378Y904800D01*
X495378Y944385D01*
X498771Y947778D01*
D19*
X498771Y893490D03*
X498771Y947778D03*
D21*
X177567Y934206D02*
X140244Y971529D01*
X140244Y973791D01*
X140000Y974700D01*
D19*
X177567Y934206D03*
D21*
X322335Y705744D02*
X348348Y705744D01*
X322335Y705744D02*
X210366Y817713D01*
X210366Y821106D01*
X111969Y922896D02*
X91611Y922896D01*
X49764Y964743D01*
X49764Y965874D01*
X48633Y967005D01*
X50895Y969267D01*
X50895Y980577D01*
X48633Y982839D01*
X50895Y985101D01*
X50895Y989625D01*
X53157Y991887D01*
X53157Y993018D01*
X50895Y995280D01*
X50895Y1005459D01*
X49764Y1006590D01*
X49764Y1008852D01*
X57681Y1016769D01*
X125541Y1016769D01*
X139113Y1003197D01*
X139113Y1000935D01*
X348348Y705744D02*
X349000Y706000D01*
X140000Y1000100D02*
X139113Y1000935D01*
D19*
X210366Y821106D03*
X111969Y922896D03*
D21*
X450138Y580203D02*
X450138Y573417D01*
X349479Y472758D01*
X347217Y472758D01*
X238641Y400374D02*
X213759Y375492D01*
X213759Y372099D01*
X450138Y580203D02*
X450600Y581000D01*
X213759Y372099D02*
X213000Y372000D01*
D19*
X347217Y472758D03*
X238641Y400374D03*
D21*
X417339Y580203D02*
X424125Y580203D01*
X417339Y580203D02*
X411684Y574548D01*
X411684Y572286D01*
X349479Y510081D01*
X307632Y510081D01*
X288405Y490854D01*
X288405Y430911D01*
X239772Y382278D01*
X239772Y381147D01*
X238641Y380016D01*
X238641Y372099D01*
X424125Y580203D02*
X425200Y581000D01*
X238641Y372099D02*
X238400Y372000D01*
X400374Y384540D02*
X400374Y400374D01*
X400374Y384540D02*
X391326Y375492D01*
X391326Y372099D01*
X391000Y372000D01*
D19*
X400374Y400374D03*
D21*
X411684Y399243D02*
X392457Y418470D01*
X411684Y399243D02*
X411684Y385671D01*
X415077Y382278D01*
X415077Y381147D01*
X416208Y380016D01*
X416208Y372099D01*
X416400Y372000D01*
D19*
X392457Y418470D03*
D21*
X314418Y380016D02*
X314418Y372099D01*
X314418Y380016D02*
X312156Y382278D01*
X312156Y384540D01*
X296322Y400374D01*
X296322Y434304D01*
X193401Y831285D02*
X249951Y887835D01*
X376623Y934206D02*
X416208Y973791D01*
X418470Y973791D01*
X314418Y372099D02*
X314600Y372000D01*
X418470Y973791D02*
X419400Y974700D01*
D19*
X296322Y434304D03*
X193401Y831285D03*
X249951Y887835D03*
X376623Y934206D03*
D21*
X340431Y375492D02*
X340431Y372099D01*
X340431Y375492D02*
X384540Y419601D01*
X384540Y482937D01*
X459186Y557583D01*
X340431Y372099D02*
X340000Y372000D01*
D19*
X459186Y557583D03*
D21*
X493116Y375492D02*
X493116Y372099D01*
X493116Y375492D02*
X559845Y442221D01*
X559845Y920634D01*
X454662Y1025817D01*
X244296Y1025817D01*
X219414Y1000935D01*
X217152Y1000935D01*
X492600Y372000D02*
X493116Y372099D01*
X216200Y1000100D02*
X217152Y1000935D01*
X196794Y807534D02*
X299715Y704613D01*
X130065Y946647D02*
X130065Y956826D01*
X115362Y971529D01*
X115362Y973791D01*
X114600Y974700D01*
D19*
X299715Y704613D03*
X196794Y807534D03*
X130065Y946647D03*
D21*
X140244Y375492D02*
X140244Y372099D01*
X140244Y375492D02*
X186615Y421863D01*
X186615Y463710D01*
X185484Y839202D02*
X185484Y865215D01*
X225069Y904800D01*
X140244Y372099D02*
X139600Y372000D01*
D19*
X186615Y463710D03*
X185484Y839202D03*
X225069Y904800D03*
D21*
X165126Y374361D02*
X165126Y372099D01*
X165126Y374361D02*
X178698Y387933D01*
X178698Y403767D01*
X177567Y819975D02*
X177567Y867477D01*
X214890Y904800D01*
X165126Y372099D02*
X165000Y372000D01*
D19*
X178698Y403767D03*
X177567Y819975D03*
X214890Y904800D03*
D21*
X-32799Y375492D02*
X-32799Y372099D01*
X-32799Y375492D02*
X-28751Y379540D01*
X-28751Y458710D01*
X-23751Y946647D02*
X-23751Y961350D01*
X-11310Y973791D01*
X-32799Y372099D02*
X-33400Y372000D01*
X-11310Y973791D02*
X-12400Y974700D01*
D19*
X-28751Y458710D03*
X-23751Y946647D03*
D21*
X-9048Y381147D02*
X-9048Y372099D01*
X-9048Y381147D02*
X-10179Y382278D01*
X-10179Y383409D01*
X-13572Y386802D01*
X-13572Y463710D01*
X-11310Y946647D02*
X12441Y970398D01*
X12441Y973791D01*
X-9048Y372099D02*
X-8000Y372000D01*
X12441Y973791D02*
X13000Y974700D01*
D19*
X-13572Y463710D03*
X-11310Y946647D03*
X140000Y420000D03*
M02*
