G04 EAGLE Gerber RS-274X export*
G75*
%MOMM*%
%FSLAX34Y34*%
%LPD*%
%IN*%
%IPPOS*%
%AMOC8*
5,1,8,0,0,1.08239X$1,22.5*%
G01*
%ADD10C,0.254000*%


D10*
X-287000Y339400D02*
X668000Y339000D01*
X669000Y1043000D01*
X-286000Y1043400D01*
X-287000Y339400D01*
X-182000Y981464D02*
X-182000Y982536D01*
X-182076Y983604D01*
X-182229Y984665D01*
X-182457Y985712D01*
X-182759Y986740D01*
X-183133Y987744D01*
X-183578Y988719D01*
X-184092Y989659D01*
X-184671Y990560D01*
X-185313Y991418D01*
X-186015Y992228D01*
X-186772Y992985D01*
X-187582Y993687D01*
X-188440Y994329D01*
X-189341Y994908D01*
X-190281Y995422D01*
X-191256Y995867D01*
X-192260Y996241D01*
X-193288Y996543D01*
X-194335Y996771D01*
X-195396Y996924D01*
X-196464Y997000D01*
X-197536Y997000D01*
X-198604Y996924D01*
X-199665Y996771D01*
X-200712Y996543D01*
X-201740Y996241D01*
X-202744Y995867D01*
X-203719Y995422D01*
X-204659Y994908D01*
X-205560Y994329D01*
X-206418Y993687D01*
X-207228Y992985D01*
X-207985Y992228D01*
X-208687Y991418D01*
X-209329Y990560D01*
X-209908Y989659D01*
X-210422Y988719D01*
X-210867Y987744D01*
X-211241Y986740D01*
X-211543Y985712D01*
X-211771Y984665D01*
X-211924Y983604D01*
X-212000Y982536D01*
X-212000Y981464D01*
X-211924Y980396D01*
X-211771Y979335D01*
X-211543Y978288D01*
X-211241Y977260D01*
X-210867Y976256D01*
X-210422Y975281D01*
X-209908Y974341D01*
X-209329Y973440D01*
X-208687Y972582D01*
X-207985Y971772D01*
X-207228Y971015D01*
X-206418Y970313D01*
X-205560Y969671D01*
X-204659Y969092D01*
X-203719Y968578D01*
X-202744Y968133D01*
X-201740Y967759D01*
X-200712Y967457D01*
X-199665Y967229D01*
X-198604Y967076D01*
X-197536Y967000D01*
X-196464Y967000D01*
X-195396Y967076D01*
X-194335Y967229D01*
X-193288Y967457D01*
X-192260Y967759D01*
X-191256Y968133D01*
X-190281Y968578D01*
X-189341Y969092D01*
X-188440Y969671D01*
X-187582Y970313D01*
X-186772Y971015D01*
X-186015Y971772D01*
X-185313Y972582D01*
X-184671Y973440D01*
X-184092Y974341D01*
X-183578Y975281D01*
X-183133Y976256D01*
X-182759Y977260D01*
X-182457Y978288D01*
X-182229Y979335D01*
X-182076Y980396D01*
X-182000Y981464D01*
X623000Y392464D02*
X623000Y393536D01*
X622924Y394604D01*
X622771Y395665D01*
X622543Y396712D01*
X622241Y397740D01*
X621867Y398744D01*
X621422Y399719D01*
X620908Y400659D01*
X620329Y401560D01*
X619687Y402418D01*
X618985Y403228D01*
X618228Y403985D01*
X617418Y404687D01*
X616560Y405329D01*
X615659Y405908D01*
X614719Y406422D01*
X613744Y406867D01*
X612740Y407241D01*
X611712Y407543D01*
X610665Y407771D01*
X609604Y407924D01*
X608536Y408000D01*
X607464Y408000D01*
X606396Y407924D01*
X605335Y407771D01*
X604288Y407543D01*
X603260Y407241D01*
X602256Y406867D01*
X601281Y406422D01*
X600341Y405908D01*
X599440Y405329D01*
X598582Y404687D01*
X597772Y403985D01*
X597015Y403228D01*
X596313Y402418D01*
X595671Y401560D01*
X595092Y400659D01*
X594578Y399719D01*
X594133Y398744D01*
X593759Y397740D01*
X593457Y396712D01*
X593229Y395665D01*
X593076Y394604D01*
X593000Y393536D01*
X593000Y392464D01*
X593076Y391396D01*
X593229Y390335D01*
X593457Y389288D01*
X593759Y388260D01*
X594133Y387256D01*
X594578Y386281D01*
X595092Y385341D01*
X595671Y384440D01*
X596313Y383582D01*
X597015Y382772D01*
X597772Y382015D01*
X598582Y381313D01*
X599440Y380671D01*
X600341Y380092D01*
X601281Y379578D01*
X602256Y379133D01*
X603260Y378759D01*
X604288Y378457D01*
X605335Y378229D01*
X606396Y378076D01*
X607464Y378000D01*
X608536Y378000D01*
X609604Y378076D01*
X610665Y378229D01*
X611712Y378457D01*
X612740Y378759D01*
X613744Y379133D01*
X614719Y379578D01*
X615659Y380092D01*
X616560Y380671D01*
X617418Y381313D01*
X618228Y382015D01*
X618985Y382772D01*
X619687Y383582D01*
X620329Y384440D01*
X620908Y385341D01*
X621422Y386281D01*
X621867Y387256D01*
X622241Y388260D01*
X622543Y389288D01*
X622771Y390335D01*
X622924Y391396D01*
X623000Y392464D01*
X-183000Y391464D02*
X-183000Y392536D01*
X-183076Y393604D01*
X-183229Y394665D01*
X-183457Y395712D01*
X-183759Y396740D01*
X-184133Y397744D01*
X-184578Y398719D01*
X-185092Y399659D01*
X-185671Y400560D01*
X-186313Y401418D01*
X-187015Y402228D01*
X-187772Y402985D01*
X-188582Y403687D01*
X-189440Y404329D01*
X-190341Y404908D01*
X-191281Y405422D01*
X-192256Y405867D01*
X-193260Y406241D01*
X-194288Y406543D01*
X-195335Y406771D01*
X-196396Y406924D01*
X-197464Y407000D01*
X-198536Y407000D01*
X-199604Y406924D01*
X-200665Y406771D01*
X-201712Y406543D01*
X-202740Y406241D01*
X-203744Y405867D01*
X-204719Y405422D01*
X-205659Y404908D01*
X-206560Y404329D01*
X-207418Y403687D01*
X-208228Y402985D01*
X-208985Y402228D01*
X-209687Y401418D01*
X-210329Y400560D01*
X-210908Y399659D01*
X-211422Y398719D01*
X-211867Y397744D01*
X-212241Y396740D01*
X-212543Y395712D01*
X-212771Y394665D01*
X-212924Y393604D01*
X-213000Y392536D01*
X-213000Y391464D01*
X-212924Y390396D01*
X-212771Y389335D01*
X-212543Y388288D01*
X-212241Y387260D01*
X-211867Y386256D01*
X-211422Y385281D01*
X-210908Y384341D01*
X-210329Y383440D01*
X-209687Y382582D01*
X-208985Y381772D01*
X-208228Y381015D01*
X-207418Y380313D01*
X-206560Y379671D01*
X-205659Y379092D01*
X-204719Y378578D01*
X-203744Y378133D01*
X-202740Y377759D01*
X-201712Y377457D01*
X-200665Y377229D01*
X-199604Y377076D01*
X-198536Y377000D01*
X-197464Y377000D01*
X-196396Y377076D01*
X-195335Y377229D01*
X-194288Y377457D01*
X-193260Y377759D01*
X-192256Y378133D01*
X-191281Y378578D01*
X-190341Y379092D01*
X-189440Y379671D01*
X-188582Y380313D01*
X-187772Y381015D01*
X-187015Y381772D01*
X-186313Y382582D01*
X-185671Y383440D01*
X-185092Y384341D01*
X-184578Y385281D01*
X-184133Y386256D01*
X-183759Y387260D01*
X-183457Y388288D01*
X-183229Y389335D01*
X-183076Y390396D01*
X-183000Y391464D01*
X624000Y982464D02*
X624000Y983536D01*
X623924Y984604D01*
X623771Y985665D01*
X623543Y986712D01*
X623241Y987740D01*
X622867Y988744D01*
X622422Y989719D01*
X621908Y990659D01*
X621329Y991560D01*
X620687Y992418D01*
X619985Y993228D01*
X619228Y993985D01*
X618418Y994687D01*
X617560Y995329D01*
X616659Y995908D01*
X615719Y996422D01*
X614744Y996867D01*
X613740Y997241D01*
X612712Y997543D01*
X611665Y997771D01*
X610604Y997924D01*
X609536Y998000D01*
X608464Y998000D01*
X607396Y997924D01*
X606335Y997771D01*
X605288Y997543D01*
X604260Y997241D01*
X603256Y996867D01*
X602281Y996422D01*
X601341Y995908D01*
X600440Y995329D01*
X599582Y994687D01*
X598772Y993985D01*
X598015Y993228D01*
X597313Y992418D01*
X596671Y991560D01*
X596092Y990659D01*
X595578Y989719D01*
X595133Y988744D01*
X594759Y987740D01*
X594457Y986712D01*
X594229Y985665D01*
X594076Y984604D01*
X594000Y983536D01*
X594000Y982464D01*
X594076Y981396D01*
X594229Y980335D01*
X594457Y979288D01*
X594759Y978260D01*
X595133Y977256D01*
X595578Y976281D01*
X596092Y975341D01*
X596671Y974440D01*
X597313Y973582D01*
X598015Y972772D01*
X598772Y972015D01*
X599582Y971313D01*
X600440Y970671D01*
X601341Y970092D01*
X602281Y969578D01*
X603256Y969133D01*
X604260Y968759D01*
X605288Y968457D01*
X606335Y968229D01*
X607396Y968076D01*
X608464Y968000D01*
X609536Y968000D01*
X610604Y968076D01*
X611665Y968229D01*
X612712Y968457D01*
X613740Y968759D01*
X614744Y969133D01*
X615719Y969578D01*
X616659Y970092D01*
X617560Y970671D01*
X618418Y971313D01*
X619228Y972015D01*
X619985Y972772D01*
X620687Y973582D01*
X621329Y974440D01*
X621908Y975341D01*
X622422Y976281D01*
X622867Y977256D01*
X623241Y978260D01*
X623543Y979288D01*
X623771Y980335D01*
X623924Y981396D01*
X624000Y982464D01*
X258964Y823380D02*
X257896Y823456D01*
X256835Y823609D01*
X255788Y823837D01*
X254760Y824139D01*
X253756Y824513D01*
X252781Y824958D01*
X251841Y825472D01*
X250940Y826051D01*
X250082Y826693D01*
X249272Y827395D01*
X248515Y828152D01*
X247813Y828962D01*
X247171Y829820D01*
X246592Y830721D01*
X246078Y831661D01*
X245633Y832636D01*
X245259Y833640D01*
X244957Y834668D01*
X244729Y835715D01*
X244576Y836776D01*
X244500Y837844D01*
X244500Y838916D01*
X244576Y839984D01*
X244729Y841045D01*
X244957Y842092D01*
X245259Y843120D01*
X245633Y844124D01*
X246078Y845099D01*
X246592Y846039D01*
X247171Y846940D01*
X247813Y847798D01*
X248515Y848608D01*
X249272Y849365D01*
X250082Y850067D01*
X250940Y850709D01*
X251841Y851288D01*
X252781Y851802D01*
X253756Y852247D01*
X254760Y852621D01*
X255788Y852923D01*
X256835Y853151D01*
X257896Y853304D01*
X258964Y853380D01*
X260036Y853380D01*
X261104Y853304D01*
X262165Y853151D01*
X263212Y852923D01*
X264240Y852621D01*
X265244Y852247D01*
X266219Y851802D01*
X267159Y851288D01*
X268060Y850709D01*
X268918Y850067D01*
X269728Y849365D01*
X270485Y848608D01*
X271187Y847798D01*
X271829Y846940D01*
X272408Y846039D01*
X272922Y845099D01*
X273367Y844124D01*
X273741Y843120D01*
X274043Y842092D01*
X274271Y841045D01*
X274424Y839984D01*
X274500Y838916D01*
X274500Y837844D01*
X274424Y836776D01*
X274271Y835715D01*
X274043Y834668D01*
X273741Y833640D01*
X273367Y832636D01*
X272922Y831661D01*
X272408Y830721D01*
X271829Y829820D01*
X271187Y828962D01*
X270485Y828152D01*
X269728Y827395D01*
X268918Y826693D01*
X268060Y826051D01*
X267159Y825472D01*
X266219Y824958D01*
X265244Y824513D01*
X264240Y824139D01*
X263212Y823837D01*
X262165Y823609D01*
X261104Y823456D01*
X260036Y823380D01*
X258964Y823380D01*
X106564Y526200D02*
X105496Y526276D01*
X104435Y526429D01*
X103388Y526657D01*
X102360Y526959D01*
X101356Y527333D01*
X100381Y527778D01*
X99441Y528292D01*
X98540Y528871D01*
X97682Y529513D01*
X96872Y530215D01*
X96115Y530972D01*
X95413Y531782D01*
X94771Y532640D01*
X94192Y533541D01*
X93678Y534481D01*
X93233Y535456D01*
X92859Y536460D01*
X92557Y537488D01*
X92329Y538535D01*
X92176Y539596D01*
X92100Y540664D01*
X92100Y541736D01*
X92176Y542804D01*
X92329Y543865D01*
X92557Y544912D01*
X92859Y545940D01*
X93233Y546944D01*
X93678Y547919D01*
X94192Y548859D01*
X94771Y549760D01*
X95413Y550618D01*
X96115Y551428D01*
X96872Y552185D01*
X97682Y552887D01*
X98540Y553529D01*
X99441Y554108D01*
X100381Y554622D01*
X101356Y555067D01*
X102360Y555441D01*
X103388Y555743D01*
X104435Y555971D01*
X105496Y556124D01*
X106564Y556200D01*
X107636Y556200D01*
X108704Y556124D01*
X109765Y555971D01*
X110812Y555743D01*
X111840Y555441D01*
X112844Y555067D01*
X113819Y554622D01*
X114759Y554108D01*
X115660Y553529D01*
X116518Y552887D01*
X117328Y552185D01*
X118085Y551428D01*
X118787Y550618D01*
X119429Y549760D01*
X120008Y548859D01*
X120522Y547919D01*
X120967Y546944D01*
X121341Y545940D01*
X121643Y544912D01*
X121871Y543865D01*
X122024Y542804D01*
X122100Y541736D01*
X122100Y540664D01*
X122024Y539596D01*
X121871Y538535D01*
X121643Y537488D01*
X121341Y536460D01*
X120967Y535456D01*
X120522Y534481D01*
X120008Y533541D01*
X119429Y532640D01*
X118787Y531782D01*
X118085Y530972D01*
X117328Y530215D01*
X116518Y529513D01*
X115660Y528871D01*
X114759Y528292D01*
X113819Y527778D01*
X112844Y527333D01*
X111840Y526959D01*
X110812Y526657D01*
X109765Y526429D01*
X108704Y526276D01*
X107636Y526200D01*
X106564Y526200D01*
X25464Y824680D02*
X24396Y824756D01*
X23335Y824909D01*
X22288Y825137D01*
X21260Y825439D01*
X20256Y825813D01*
X19281Y826258D01*
X18341Y826772D01*
X17440Y827351D01*
X16582Y827993D01*
X15772Y828695D01*
X15015Y829452D01*
X14313Y830262D01*
X13671Y831120D01*
X13092Y832021D01*
X12578Y832961D01*
X12133Y833936D01*
X11759Y834940D01*
X11457Y835968D01*
X11229Y837015D01*
X11076Y838076D01*
X11000Y839144D01*
X11000Y840216D01*
X11076Y841284D01*
X11229Y842345D01*
X11457Y843392D01*
X11759Y844420D01*
X12133Y845424D01*
X12578Y846399D01*
X13092Y847339D01*
X13671Y848240D01*
X14313Y849098D01*
X15015Y849908D01*
X15772Y850665D01*
X16582Y851367D01*
X17440Y852009D01*
X18341Y852588D01*
X19281Y853102D01*
X20256Y853547D01*
X21260Y853921D01*
X22288Y854223D01*
X23335Y854451D01*
X24396Y854604D01*
X25464Y854680D01*
X26536Y854680D01*
X27604Y854604D01*
X28665Y854451D01*
X29712Y854223D01*
X30740Y853921D01*
X31744Y853547D01*
X32719Y853102D01*
X33659Y852588D01*
X34560Y852009D01*
X35418Y851367D01*
X36228Y850665D01*
X36985Y849908D01*
X37687Y849098D01*
X38329Y848240D01*
X38908Y847339D01*
X39422Y846399D01*
X39867Y845424D01*
X40241Y844420D01*
X40543Y843392D01*
X40771Y842345D01*
X40924Y841284D01*
X41000Y840216D01*
X41000Y839144D01*
X40924Y838076D01*
X40771Y837015D01*
X40543Y835968D01*
X40241Y834940D01*
X39867Y833936D01*
X39422Y832961D01*
X38908Y832021D01*
X38329Y831120D01*
X37687Y830262D01*
X36985Y829452D01*
X36228Y828695D01*
X35418Y827993D01*
X34560Y827351D01*
X33659Y826772D01*
X32719Y826258D01*
X31744Y825813D01*
X30740Y825439D01*
X29712Y825137D01*
X28665Y824909D01*
X27604Y824756D01*
X26536Y824680D01*
X25464Y824680D01*
X-126936Y527500D02*
X-128004Y527576D01*
X-129065Y527729D01*
X-130112Y527957D01*
X-131140Y528259D01*
X-132144Y528633D01*
X-133119Y529078D01*
X-134059Y529592D01*
X-134960Y530171D01*
X-135818Y530813D01*
X-136628Y531515D01*
X-137385Y532272D01*
X-138087Y533082D01*
X-138729Y533940D01*
X-139308Y534841D01*
X-139822Y535781D01*
X-140267Y536756D01*
X-140641Y537760D01*
X-140943Y538788D01*
X-141171Y539835D01*
X-141324Y540896D01*
X-141400Y541964D01*
X-141400Y543036D01*
X-141324Y544104D01*
X-141171Y545165D01*
X-140943Y546212D01*
X-140641Y547240D01*
X-140267Y548244D01*
X-139822Y549219D01*
X-139308Y550159D01*
X-138729Y551060D01*
X-138087Y551918D01*
X-137385Y552728D01*
X-136628Y553485D01*
X-135818Y554187D01*
X-134960Y554829D01*
X-134059Y555408D01*
X-133119Y555922D01*
X-132144Y556367D01*
X-131140Y556741D01*
X-130112Y557043D01*
X-129065Y557271D01*
X-128004Y557424D01*
X-126936Y557500D01*
X-125864Y557500D01*
X-124796Y557424D01*
X-123735Y557271D01*
X-122688Y557043D01*
X-121660Y556741D01*
X-120656Y556367D01*
X-119681Y555922D01*
X-118741Y555408D01*
X-117840Y554829D01*
X-116982Y554187D01*
X-116172Y553485D01*
X-115415Y552728D01*
X-114713Y551918D01*
X-114071Y551060D01*
X-113492Y550159D01*
X-112978Y549219D01*
X-112533Y548244D01*
X-112159Y547240D01*
X-111857Y546212D01*
X-111629Y545165D01*
X-111476Y544104D01*
X-111400Y543036D01*
X-111400Y541964D01*
X-111476Y540896D01*
X-111629Y539835D01*
X-111857Y538788D01*
X-112159Y537760D01*
X-112533Y536756D01*
X-112978Y535781D01*
X-113492Y534841D01*
X-114071Y533940D01*
X-114713Y533082D01*
X-115415Y532272D01*
X-116172Y531515D01*
X-116982Y530813D01*
X-117840Y530171D01*
X-118741Y529592D01*
X-119681Y529078D01*
X-120656Y528633D01*
X-121660Y528259D01*
X-122688Y527957D01*
X-123735Y527729D01*
X-124796Y527576D01*
X-125864Y527500D01*
X-126936Y527500D01*
X472720Y452490D02*
X471641Y452561D01*
X470569Y452702D01*
X469509Y452913D01*
X468465Y453192D01*
X467441Y453540D01*
X466443Y453954D01*
X465473Y454432D01*
X464537Y454972D01*
X463638Y455573D01*
X462781Y456231D01*
X461968Y456944D01*
X461204Y457708D01*
X460491Y458521D01*
X459833Y459378D01*
X459232Y460277D01*
X458692Y461213D01*
X458214Y462183D01*
X457800Y463181D01*
X457452Y464205D01*
X457173Y465249D01*
X456962Y466309D01*
X456821Y467381D01*
X456750Y468460D01*
X456750Y469540D01*
X456821Y470619D01*
X456962Y471691D01*
X457173Y472751D01*
X457452Y473795D01*
X457800Y474819D01*
X458214Y475817D01*
X458692Y476787D01*
X459232Y477723D01*
X459833Y478622D01*
X460491Y479479D01*
X461204Y480292D01*
X461968Y481057D01*
X462781Y481769D01*
X463638Y482427D01*
X464537Y483028D01*
X465473Y483568D01*
X466443Y484046D01*
X467441Y484460D01*
X468465Y484808D01*
X469509Y485087D01*
X470569Y485298D01*
X471641Y485439D01*
X472720Y485510D01*
X473800Y485510D01*
X474879Y485439D01*
X475951Y485298D01*
X477011Y485087D01*
X478055Y484808D01*
X479079Y484460D01*
X480077Y484046D01*
X481047Y483568D01*
X481983Y483028D01*
X482882Y482427D01*
X483739Y481769D01*
X484552Y481057D01*
X485317Y480292D01*
X486029Y479479D01*
X486687Y478622D01*
X487288Y477723D01*
X487828Y476787D01*
X488306Y475817D01*
X488720Y474819D01*
X489068Y473795D01*
X489347Y472751D01*
X489558Y471691D01*
X489699Y470619D01*
X489770Y469540D01*
X489770Y468460D01*
X489699Y467381D01*
X489558Y466309D01*
X489347Y465249D01*
X489068Y464205D01*
X488720Y463181D01*
X488306Y462183D01*
X487828Y461213D01*
X487288Y460277D01*
X486687Y459378D01*
X486029Y458521D01*
X485317Y457708D01*
X484552Y456944D01*
X483739Y456231D01*
X482882Y455573D01*
X481983Y454972D01*
X481047Y454432D01*
X480077Y453954D01*
X479079Y453540D01*
X478055Y453192D01*
X477011Y452913D01*
X475951Y452702D01*
X474879Y452561D01*
X473800Y452490D01*
X472720Y452490D01*
M02*
