G04 EAGLE Gerber RS-274X export*
G75*
%MOMM*%
%FSLAX34Y34*%
%LPD*%
%INSoldermask Top*%
%IPPOS*%
%AMOC8*
5,1,8,0,0,1.08239X$1,22.5*%
G01*
%ADD10C,1.625600*%
%ADD11C,2.082800*%
%ADD12P,2.034460X8X112.500000*%
%ADD13P,1.649562X8X112.500000*%
%ADD14R,2.703200X2.703200*%
%ADD15C,3.203200*%
%ADD16C,3.022600*%
%ADD17C,1.711200*%
%ADD18C,1.879600*%
%ADD19C,3.505200*%
%ADD20R,1.311200X1.311200*%
%ADD21C,0.959600*%


D10*
X-248300Y540700D03*
X-248300Y520700D03*
D11*
X-37800Y974700D03*
X-37800Y1000100D03*
X-12400Y974700D03*
X-12400Y1000100D03*
X13000Y974700D03*
X13000Y1000100D03*
X38400Y974700D03*
X38400Y1000100D03*
X63800Y974700D03*
X63800Y1000100D03*
X89200Y974700D03*
X89200Y1000100D03*
X114600Y974700D03*
X114600Y1000100D03*
X140000Y974700D03*
X140000Y1000100D03*
X165400Y974700D03*
X165400Y1000100D03*
X190800Y974700D03*
X190800Y1000100D03*
X216200Y974700D03*
X216200Y1000100D03*
X241600Y974700D03*
X241600Y1000100D03*
X267000Y974700D03*
X267000Y1000100D03*
X292400Y974700D03*
X292400Y1000100D03*
X317800Y974700D03*
X317800Y1000100D03*
X343200Y974700D03*
X343200Y1000100D03*
X368600Y974700D03*
X368600Y1000100D03*
X394000Y974700D03*
X394000Y1000100D03*
X419400Y974700D03*
X419400Y1000100D03*
X444800Y974700D03*
X444800Y1000100D03*
D12*
X619700Y731800D03*
X619700Y757200D03*
X618700Y472300D03*
X618700Y497700D03*
X619700Y556300D03*
X619700Y581700D03*
X619500Y632400D03*
X619500Y657800D03*
D13*
X537900Y721500D03*
X537900Y772300D03*
X537900Y479800D03*
X537900Y530600D03*
X537900Y554100D03*
X537900Y604900D03*
X537900Y627900D03*
X537900Y678700D03*
D14*
X269660Y891720D03*
X96940Y891720D03*
X96940Y495480D03*
X269660Y495480D03*
D15*
X259500Y838380D03*
X107100Y541200D03*
D16*
X514300Y865700D03*
X514300Y912690D03*
X514300Y818710D03*
X641300Y840300D03*
X641300Y891100D03*
D10*
X-248900Y842500D03*
X-248900Y822500D03*
D14*
X36160Y893020D03*
X-136560Y893020D03*
X-136560Y496780D03*
X36160Y496780D03*
D15*
X26000Y839680D03*
X-126400Y542500D03*
D17*
X-226360Y661600D02*
X-241440Y661600D01*
X-241440Y636200D02*
X-226360Y636200D01*
X-226360Y610800D02*
X-241440Y610800D01*
X-241440Y754600D02*
X-226360Y754600D01*
X-226360Y729200D02*
X-241440Y729200D01*
X-241440Y703800D02*
X-226360Y703800D01*
D18*
X315018Y494400D02*
X331782Y494400D01*
X331782Y469000D02*
X315018Y469000D01*
X315018Y443600D02*
X331782Y443600D01*
D19*
X473260Y469000D03*
D20*
X348000Y893000D03*
X373400Y893000D03*
X398800Y893000D03*
X424200Y893000D03*
X449600Y893000D03*
X348000Y768000D03*
X373400Y768000D03*
X398800Y768000D03*
X424200Y768000D03*
X449600Y768000D03*
X349000Y706000D03*
X374400Y706000D03*
X399800Y706000D03*
X425200Y706000D03*
X450600Y706000D03*
X349000Y581000D03*
X374400Y581000D03*
X399800Y581000D03*
X425200Y581000D03*
X450600Y581000D03*
D11*
X-135000Y372000D03*
X-109600Y372000D03*
X-84200Y372000D03*
X-58800Y372000D03*
X-33400Y372000D03*
X-8000Y372000D03*
X38000Y372000D03*
X63400Y372000D03*
X88800Y372000D03*
X114200Y372000D03*
X139600Y372000D03*
X165000Y372000D03*
X213000Y372000D03*
X238400Y372000D03*
X263800Y372000D03*
X289200Y372000D03*
X314600Y372000D03*
X340000Y372000D03*
X391000Y372000D03*
X416400Y372000D03*
X441800Y372000D03*
X467200Y372000D03*
X492600Y372000D03*
X518000Y372000D03*
X-170000Y445000D03*
X-195400Y445000D03*
D21*
X245000Y625000D03*
X140000Y880000D03*
X150000Y935000D03*
X503295Y934206D03*
X490854Y899145D03*
X230724Y807534D03*
X119886Y935337D03*
X185484Y924027D03*
X301977Y883311D03*
X321204Y693303D03*
X-31668Y481806D03*
X188877Y489723D03*
X174174Y481806D03*
X111969Y419601D03*
X163995Y481806D03*
X93873Y411684D03*
X498771Y893490D03*
X498771Y947778D03*
X177567Y934206D03*
X210366Y821106D03*
X111969Y922896D03*
X347217Y472758D03*
X238641Y400374D03*
X400374Y400374D03*
X392457Y418470D03*
X296322Y434304D03*
X193401Y831285D03*
X249951Y887835D03*
X376623Y934206D03*
X459186Y557583D03*
X299715Y704613D03*
X196794Y807534D03*
X130065Y946647D03*
X186615Y463710D03*
X185484Y839202D03*
X225069Y904800D03*
X178698Y403767D03*
X177567Y819975D03*
X214890Y904800D03*
X-28751Y458710D03*
X-23751Y946647D03*
X-13572Y463710D03*
X-11310Y946647D03*
X140000Y420000D03*
M02*
