G04 EAGLE Gerber RS-274X export*
G75*
%MOMM*%
%FSLAX34Y34*%
%LPD*%
%INTop Copper*%
%IPPOS*%
%AMOC8*
5,1,8,0,0,1.08239X$1,22.5*%
G01*
%ADD10C,1.208000*%
%ADD11C,1.270000*%
%ADD12C,2.540000*%
%ADD13C,1.778000*%
%ADD14C,1.778000*%
%ADD15C,0.150000*%
%ADD16R,1.778000X1.778000*%
%ADD17R,1.875000X1.875000*%
%ADD18C,1.875000*%
%ADD19C,1.422400*%
%ADD20C,0.756400*%
%ADD21C,0.400000*%
%ADD22C,0.706400*%
%ADD23C,0.200000*%

G36*
X310250Y435937D02*
X310250Y435937D01*
X310341Y435945D01*
X310371Y435957D01*
X310403Y435962D01*
X310484Y436005D01*
X310568Y436041D01*
X310600Y436067D01*
X310620Y436078D01*
X310643Y436101D01*
X310699Y436146D01*
X460633Y586080D01*
X463813Y589260D01*
X467827Y590923D01*
X488706Y590923D01*
X488802Y590938D01*
X488899Y590948D01*
X488923Y590958D01*
X488949Y590962D01*
X489035Y591008D01*
X489124Y591048D01*
X489143Y591065D01*
X489166Y591078D01*
X489233Y591148D01*
X489305Y591214D01*
X489318Y591237D01*
X489336Y591256D01*
X489377Y591344D01*
X489424Y591430D01*
X489428Y591455D01*
X489439Y591479D01*
X489450Y591576D01*
X489467Y591672D01*
X489463Y591698D01*
X489466Y591723D01*
X489446Y591819D01*
X489431Y591915D01*
X489420Y591938D01*
X489414Y591964D01*
X489364Y592047D01*
X489320Y592134D01*
X489301Y592153D01*
X489288Y592175D01*
X489214Y592238D01*
X489144Y592306D01*
X489116Y592322D01*
X489101Y592335D01*
X489070Y592347D01*
X488997Y592387D01*
X487338Y593075D01*
X484775Y595638D01*
X483387Y598987D01*
X483387Y602613D01*
X484775Y605962D01*
X487338Y608525D01*
X490687Y609913D01*
X494313Y609913D01*
X497662Y608525D01*
X500225Y605962D01*
X501593Y602659D01*
X501614Y602627D01*
X501626Y602591D01*
X501678Y602523D01*
X501723Y602450D01*
X501752Y602426D01*
X501776Y602396D01*
X501847Y602348D01*
X501913Y602293D01*
X501948Y602280D01*
X501980Y602258D01*
X502062Y602236D01*
X502142Y602205D01*
X502180Y602203D01*
X502217Y602193D01*
X502302Y602198D01*
X502388Y602195D01*
X502425Y602205D01*
X502462Y602207D01*
X502542Y602239D01*
X502624Y602263D01*
X502655Y602285D01*
X502691Y602299D01*
X502756Y602355D01*
X502826Y602403D01*
X502849Y602434D01*
X502878Y602459D01*
X502922Y602532D01*
X502973Y602601D01*
X502985Y602637D01*
X503004Y602670D01*
X503049Y602831D01*
X503085Y603060D01*
X503554Y604505D01*
X504244Y605859D01*
X505137Y607088D01*
X506212Y608163D01*
X507441Y609056D01*
X508795Y609746D01*
X510240Y610215D01*
X510977Y610332D01*
X510977Y601562D01*
X510980Y601542D01*
X510978Y601523D01*
X511000Y601421D01*
X511017Y601319D01*
X511026Y601302D01*
X511030Y601282D01*
X511083Y601193D01*
X511132Y601102D01*
X511146Y601088D01*
X511156Y601071D01*
X511235Y601004D01*
X511310Y600933D01*
X511328Y600924D01*
X511343Y600911D01*
X511439Y600873D01*
X511533Y600829D01*
X511553Y600827D01*
X511571Y600819D01*
X511738Y600801D01*
X512501Y600801D01*
X512501Y600038D01*
X512504Y600018D01*
X512502Y599999D01*
X512524Y599897D01*
X512541Y599795D01*
X512550Y599778D01*
X512554Y599758D01*
X512607Y599669D01*
X512656Y599578D01*
X512670Y599564D01*
X512680Y599547D01*
X512759Y599480D01*
X512834Y599409D01*
X512852Y599400D01*
X512867Y599387D01*
X512963Y599348D01*
X513057Y599305D01*
X513077Y599303D01*
X513095Y599295D01*
X513262Y599277D01*
X522032Y599277D01*
X521915Y598540D01*
X521446Y597095D01*
X520756Y595741D01*
X519863Y594512D01*
X518788Y593437D01*
X517559Y592544D01*
X517202Y592362D01*
X517147Y592322D01*
X517087Y592290D01*
X517049Y592250D01*
X517004Y592217D01*
X516965Y592161D01*
X516918Y592112D01*
X516894Y592061D01*
X516862Y592015D01*
X516843Y591950D01*
X516814Y591889D01*
X516808Y591833D01*
X516792Y591780D01*
X516795Y591712D01*
X516787Y591645D01*
X516799Y591590D01*
X516801Y591534D01*
X516825Y591470D01*
X516840Y591404D01*
X516868Y591356D01*
X516888Y591304D01*
X516931Y591251D01*
X516966Y591193D01*
X517008Y591157D01*
X517044Y591113D01*
X517101Y591077D01*
X517153Y591033D01*
X517205Y591012D01*
X517252Y590982D01*
X517318Y590967D01*
X517381Y590941D01*
X517459Y590933D01*
X517491Y590925D01*
X517512Y590927D01*
X517547Y590923D01*
X966171Y590923D01*
X966264Y590938D01*
X966358Y590946D01*
X966385Y590958D01*
X966413Y590962D01*
X966497Y591007D01*
X966583Y591044D01*
X966605Y591064D01*
X966631Y591078D01*
X966696Y591146D01*
X966766Y591209D01*
X966780Y591235D01*
X966800Y591256D01*
X966840Y591342D01*
X966886Y591424D01*
X966892Y591452D01*
X966904Y591479D01*
X966909Y591526D01*
X966911Y591527D01*
X966952Y591548D01*
X966996Y591561D01*
X967060Y591605D01*
X967129Y591642D01*
X967160Y591675D01*
X967198Y591701D01*
X967244Y591763D01*
X967298Y591820D01*
X967317Y591862D01*
X967345Y591898D01*
X967369Y591972D01*
X967402Y592043D01*
X967407Y592089D01*
X967421Y592132D01*
X967420Y592210D01*
X967429Y592287D01*
X967419Y592332D01*
X967419Y592378D01*
X967380Y592510D01*
X967376Y592528D01*
X967374Y592532D01*
X967372Y592539D01*
X967199Y592957D01*
X967007Y593920D01*
X966983Y593985D01*
X966969Y594052D01*
X966940Y594099D01*
X966921Y594151D01*
X966907Y594167D01*
X966908Y594197D01*
X966921Y594261D01*
X966913Y594344D01*
X966915Y594377D01*
X966909Y594396D01*
X966909Y594400D01*
X966919Y594422D01*
X966957Y594480D01*
X966980Y594553D01*
X966994Y594583D01*
X966996Y594604D01*
X967007Y594640D01*
X967159Y595402D01*
X967161Y595467D01*
X967173Y595531D01*
X967166Y595614D01*
X967167Y595647D01*
X967162Y595666D01*
X967159Y595699D01*
X967007Y596460D01*
X966983Y596525D01*
X966969Y596592D01*
X966940Y596639D01*
X966921Y596691D01*
X966907Y596707D01*
X966908Y596737D01*
X966921Y596801D01*
X966913Y596884D01*
X966915Y596917D01*
X966909Y596936D01*
X966909Y596940D01*
X966919Y596962D01*
X966957Y597020D01*
X966980Y597093D01*
X966994Y597123D01*
X966996Y597144D01*
X967007Y597180D01*
X967199Y598143D01*
X967372Y598561D01*
X967381Y598600D01*
X967393Y598625D01*
X967393Y598628D01*
X967402Y598647D01*
X967410Y598724D01*
X967428Y598800D01*
X967424Y598846D01*
X967429Y598891D01*
X967412Y598968D01*
X967405Y599045D01*
X967386Y599087D01*
X967376Y599132D01*
X967337Y599199D01*
X967305Y599270D01*
X967274Y599303D01*
X967250Y599343D01*
X967191Y599394D01*
X967138Y599451D01*
X967098Y599473D01*
X967063Y599503D01*
X966991Y599532D01*
X966972Y599542D01*
X967199Y600683D01*
X967869Y602301D01*
X968842Y603758D01*
X970080Y604996D01*
X971537Y605969D01*
X973155Y606639D01*
X974225Y606852D01*
X974225Y598852D01*
X974228Y598832D01*
X974226Y598813D01*
X974248Y598711D01*
X974265Y598609D01*
X974274Y598592D01*
X974278Y598572D01*
X974331Y598483D01*
X974380Y598392D01*
X974394Y598378D01*
X974404Y598361D01*
X974483Y598294D01*
X974558Y598223D01*
X974576Y598214D01*
X974591Y598201D01*
X974687Y598163D01*
X974781Y598119D01*
X974801Y598117D01*
X974819Y598109D01*
X974986Y598091D01*
X976510Y598091D01*
X976530Y598094D01*
X976549Y598092D01*
X976651Y598114D01*
X976753Y598131D01*
X976770Y598140D01*
X976790Y598144D01*
X976879Y598197D01*
X976970Y598246D01*
X976984Y598260D01*
X977001Y598270D01*
X977068Y598349D01*
X977139Y598424D01*
X977148Y598442D01*
X977161Y598457D01*
X977200Y598553D01*
X977243Y598647D01*
X977245Y598667D01*
X977253Y598685D01*
X977271Y598852D01*
X977271Y606852D01*
X978341Y606639D01*
X979959Y605969D01*
X981416Y604996D01*
X982654Y603758D01*
X983627Y602301D01*
X984297Y600683D01*
X984523Y599546D01*
X984500Y599539D01*
X984436Y599495D01*
X984367Y599458D01*
X984336Y599425D01*
X984298Y599399D01*
X984252Y599336D01*
X984198Y599280D01*
X984179Y599238D01*
X984151Y599202D01*
X984127Y599128D01*
X984094Y599057D01*
X984089Y599011D01*
X984075Y598968D01*
X984076Y598890D01*
X984067Y598812D01*
X984077Y598768D01*
X984077Y598722D01*
X984116Y598591D01*
X984120Y598572D01*
X984122Y598568D01*
X984124Y598561D01*
X984297Y598143D01*
X984489Y597180D01*
X984513Y597115D01*
X984527Y597048D01*
X984556Y597001D01*
X984575Y596949D01*
X984589Y596933D01*
X984588Y596903D01*
X984575Y596839D01*
X984583Y596756D01*
X984581Y596723D01*
X984587Y596704D01*
X984587Y596700D01*
X984577Y596678D01*
X984539Y596620D01*
X984516Y596546D01*
X984502Y596517D01*
X984500Y596496D01*
X984489Y596460D01*
X984337Y595699D01*
X984335Y595633D01*
X984323Y595569D01*
X984330Y595486D01*
X984329Y595453D01*
X984334Y595434D01*
X984337Y595401D01*
X984489Y594639D01*
X984513Y594575D01*
X984527Y594508D01*
X984556Y594461D01*
X984575Y594409D01*
X984589Y594393D01*
X984588Y594363D01*
X984575Y594299D01*
X984581Y594234D01*
X984580Y594223D01*
X984582Y594211D01*
X984581Y594183D01*
X984587Y594164D01*
X984587Y594160D01*
X984577Y594138D01*
X984539Y594080D01*
X984516Y594007D01*
X984502Y593977D01*
X984500Y593956D01*
X984489Y593920D01*
X984297Y592957D01*
X984124Y592539D01*
X984114Y592495D01*
X984094Y592453D01*
X984086Y592376D01*
X984068Y592300D01*
X984072Y592254D01*
X984067Y592209D01*
X984084Y592132D01*
X984091Y592055D01*
X984110Y592013D01*
X984120Y591968D01*
X984160Y591901D01*
X984191Y591830D01*
X984222Y591796D01*
X984246Y591757D01*
X984305Y591707D01*
X984358Y591649D01*
X984398Y591627D01*
X984433Y591597D01*
X984505Y591568D01*
X984573Y591531D01*
X984588Y591528D01*
X984597Y591496D01*
X984617Y591404D01*
X984632Y591379D01*
X984641Y591351D01*
X984695Y591274D01*
X984744Y591193D01*
X984766Y591174D01*
X984783Y591150D01*
X984859Y591095D01*
X984930Y591033D01*
X984958Y591022D01*
X984981Y591005D01*
X985071Y590977D01*
X985159Y590941D01*
X985195Y590937D01*
X985216Y590931D01*
X985248Y590931D01*
X985325Y590923D01*
X1036275Y590923D01*
X1036368Y590938D01*
X1036462Y590946D01*
X1036489Y590958D01*
X1036517Y590962D01*
X1036601Y591007D01*
X1036687Y591044D01*
X1036709Y591064D01*
X1036735Y591078D01*
X1036800Y591146D01*
X1036870Y591209D01*
X1036884Y591235D01*
X1036904Y591256D01*
X1036944Y591342D01*
X1036990Y591424D01*
X1036996Y591452D01*
X1037008Y591479D01*
X1037018Y591573D01*
X1037019Y591578D01*
X1037059Y591605D01*
X1037127Y591642D01*
X1037159Y591675D01*
X1037197Y591701D01*
X1037243Y591764D01*
X1037297Y591820D01*
X1037316Y591862D01*
X1037344Y591898D01*
X1037368Y591972D01*
X1037400Y592043D01*
X1037405Y592089D01*
X1037420Y592132D01*
X1037419Y592210D01*
X1037428Y592287D01*
X1037418Y592332D01*
X1037417Y592378D01*
X1037379Y592510D01*
X1037375Y592528D01*
X1037373Y592532D01*
X1037371Y592539D01*
X1037303Y592703D01*
X1037061Y593920D01*
X1037037Y593985D01*
X1037022Y594052D01*
X1036994Y594099D01*
X1036993Y594101D01*
X1036999Y594134D01*
X1036994Y594200D01*
X1037010Y594226D01*
X1037033Y594299D01*
X1037047Y594329D01*
X1037050Y594350D01*
X1037061Y594385D01*
X1037263Y595401D01*
X1037265Y595467D01*
X1037277Y595531D01*
X1037270Y595614D01*
X1037271Y595647D01*
X1037266Y595666D01*
X1037263Y595699D01*
X1037162Y596206D01*
X1037138Y596271D01*
X1037123Y596338D01*
X1037095Y596385D01*
X1037075Y596437D01*
X1037032Y596490D01*
X1037026Y596499D01*
X1037035Y596544D01*
X1037038Y596610D01*
X1037050Y596674D01*
X1037043Y596757D01*
X1037044Y596790D01*
X1037038Y596809D01*
X1037035Y596841D01*
X1037027Y596882D01*
X1037045Y596900D01*
X1037074Y596962D01*
X1037111Y597020D01*
X1037134Y597093D01*
X1037148Y597123D01*
X1037151Y597144D01*
X1037162Y597180D01*
X1037303Y597889D01*
X1037581Y598561D01*
X1037590Y598600D01*
X1037602Y598625D01*
X1037602Y598628D01*
X1037611Y598647D01*
X1037619Y598724D01*
X1037637Y598800D01*
X1037633Y598846D01*
X1037638Y598891D01*
X1037621Y598968D01*
X1037614Y599045D01*
X1037595Y599087D01*
X1037586Y599132D01*
X1037546Y599199D01*
X1037514Y599270D01*
X1037483Y599303D01*
X1037459Y599343D01*
X1037400Y599394D01*
X1037348Y599451D01*
X1037308Y599473D01*
X1037273Y599503D01*
X1037200Y599532D01*
X1037132Y599569D01*
X1037087Y599578D01*
X1037083Y599579D01*
X1037303Y600683D01*
X1037973Y602301D01*
X1038946Y603758D01*
X1040184Y604996D01*
X1041641Y605969D01*
X1043259Y606639D01*
X1044329Y606852D01*
X1044329Y598852D01*
X1044332Y598832D01*
X1044330Y598813D01*
X1044352Y598711D01*
X1044369Y598609D01*
X1044378Y598592D01*
X1044382Y598572D01*
X1044435Y598483D01*
X1044484Y598392D01*
X1044498Y598378D01*
X1044508Y598361D01*
X1044587Y598294D01*
X1044662Y598223D01*
X1044680Y598214D01*
X1044695Y598201D01*
X1044791Y598163D01*
X1044885Y598119D01*
X1044905Y598117D01*
X1044923Y598109D01*
X1045090Y598091D01*
X1046614Y598091D01*
X1046634Y598094D01*
X1046653Y598092D01*
X1046755Y598114D01*
X1046857Y598131D01*
X1046874Y598140D01*
X1046894Y598144D01*
X1046983Y598197D01*
X1047074Y598246D01*
X1047088Y598260D01*
X1047105Y598270D01*
X1047172Y598349D01*
X1047243Y598424D01*
X1047252Y598442D01*
X1047265Y598457D01*
X1047304Y598553D01*
X1047347Y598647D01*
X1047349Y598667D01*
X1047357Y598685D01*
X1047375Y598852D01*
X1047375Y606852D01*
X1048445Y606639D01*
X1050063Y605969D01*
X1051520Y604996D01*
X1052758Y603758D01*
X1053731Y602301D01*
X1054401Y600683D01*
X1054621Y599580D01*
X1054584Y599573D01*
X1054543Y599552D01*
X1054499Y599539D01*
X1054435Y599495D01*
X1054366Y599458D01*
X1054335Y599425D01*
X1054297Y599399D01*
X1054250Y599336D01*
X1054197Y599280D01*
X1054177Y599238D01*
X1054150Y599202D01*
X1054126Y599128D01*
X1054093Y599057D01*
X1054088Y599011D01*
X1054074Y598968D01*
X1054075Y598890D01*
X1054066Y598812D01*
X1054076Y598768D01*
X1054076Y598722D01*
X1054114Y598591D01*
X1054118Y598572D01*
X1054121Y598568D01*
X1054123Y598561D01*
X1054401Y597889D01*
X1054542Y597180D01*
X1054566Y597115D01*
X1054581Y597048D01*
X1054609Y597001D01*
X1054629Y596949D01*
X1054672Y596896D01*
X1054678Y596887D01*
X1054669Y596841D01*
X1054666Y596776D01*
X1054654Y596712D01*
X1054661Y596629D01*
X1054660Y596596D01*
X1054666Y596577D01*
X1054669Y596544D01*
X1054677Y596504D01*
X1054659Y596486D01*
X1054630Y596424D01*
X1054593Y596366D01*
X1054570Y596293D01*
X1054556Y596263D01*
X1054553Y596242D01*
X1054542Y596206D01*
X1054441Y595698D01*
X1054439Y595633D01*
X1054427Y595569D01*
X1054434Y595486D01*
X1054433Y595453D01*
X1054438Y595434D01*
X1054441Y595401D01*
X1054643Y594386D01*
X1054667Y594321D01*
X1054682Y594254D01*
X1054710Y594207D01*
X1054711Y594205D01*
X1054705Y594172D01*
X1054710Y594105D01*
X1054694Y594080D01*
X1054671Y594007D01*
X1054657Y593977D01*
X1054654Y593956D01*
X1054643Y593920D01*
X1054401Y592703D01*
X1054333Y592539D01*
X1054323Y592495D01*
X1054304Y592453D01*
X1054295Y592376D01*
X1054277Y592300D01*
X1054282Y592254D01*
X1054276Y592209D01*
X1054293Y592133D01*
X1054300Y592055D01*
X1054319Y592013D01*
X1054329Y591968D01*
X1054369Y591901D01*
X1054400Y591830D01*
X1054431Y591796D01*
X1054455Y591757D01*
X1054514Y591707D01*
X1054567Y591649D01*
X1054607Y591627D01*
X1054642Y591597D01*
X1054675Y591584D01*
X1054701Y591496D01*
X1054721Y591404D01*
X1054736Y591379D01*
X1054745Y591351D01*
X1054799Y591274D01*
X1054848Y591193D01*
X1054870Y591174D01*
X1054887Y591150D01*
X1054963Y591095D01*
X1055034Y591033D01*
X1055062Y591022D01*
X1055085Y591005D01*
X1055175Y590977D01*
X1055263Y590941D01*
X1055299Y590937D01*
X1055320Y590931D01*
X1055352Y590931D01*
X1055429Y590923D01*
X1132173Y590923D01*
X1136187Y589260D01*
X1139367Y586080D01*
X1289301Y436146D01*
X1289375Y436093D01*
X1289445Y436033D01*
X1289475Y436021D01*
X1289501Y436002D01*
X1289588Y435975D01*
X1289673Y435941D01*
X1289714Y435937D01*
X1289736Y435930D01*
X1289768Y435931D01*
X1289840Y435923D01*
X1520160Y435923D01*
X1520250Y435937D01*
X1520341Y435945D01*
X1520371Y435957D01*
X1520403Y435962D01*
X1520484Y436005D01*
X1520568Y436041D01*
X1520600Y436067D01*
X1520620Y436078D01*
X1520643Y436101D01*
X1520699Y436146D01*
X1603854Y519301D01*
X1603907Y519375D01*
X1603967Y519445D01*
X1603979Y519475D01*
X1603998Y519501D01*
X1604025Y519588D01*
X1604059Y519673D01*
X1604063Y519714D01*
X1604070Y519736D01*
X1604069Y519768D01*
X1604077Y519840D01*
X1604077Y930160D01*
X1604063Y930250D01*
X1604055Y930341D01*
X1604043Y930371D01*
X1604038Y930403D01*
X1603995Y930484D01*
X1603959Y930568D01*
X1603933Y930600D01*
X1603922Y930620D01*
X1603899Y930643D01*
X1603854Y930699D01*
X1530699Y1003854D01*
X1530625Y1003907D01*
X1530555Y1003967D01*
X1530525Y1003979D01*
X1530499Y1003998D01*
X1530412Y1004025D01*
X1530327Y1004059D01*
X1530286Y1004063D01*
X1530264Y1004070D01*
X1530232Y1004069D01*
X1530160Y1004077D01*
X69840Y1004077D01*
X69750Y1004063D01*
X69659Y1004055D01*
X69629Y1004043D01*
X69597Y1004038D01*
X69516Y1003995D01*
X69432Y1003959D01*
X69400Y1003933D01*
X69380Y1003922D01*
X69357Y1003899D01*
X69301Y1003854D01*
X-3854Y930699D01*
X-3907Y930625D01*
X-3967Y930555D01*
X-3979Y930525D01*
X-3998Y930499D01*
X-4025Y930412D01*
X-4059Y930327D01*
X-4063Y930286D01*
X-4070Y930264D01*
X-4069Y930232D01*
X-4077Y930160D01*
X-4077Y519840D01*
X-4063Y519750D01*
X-4055Y519659D01*
X-4043Y519629D01*
X-4038Y519597D01*
X-3995Y519516D01*
X-3959Y519432D01*
X-3933Y519400D01*
X-3922Y519380D01*
X-3899Y519357D01*
X-3854Y519301D01*
X79301Y436146D01*
X79375Y436093D01*
X79445Y436033D01*
X79475Y436021D01*
X79501Y436002D01*
X79588Y435975D01*
X79673Y435941D01*
X79714Y435937D01*
X79736Y435930D01*
X79768Y435931D01*
X79840Y435923D01*
X310160Y435923D01*
X310250Y435937D01*
G37*
%LPC*%
G36*
X1008757Y776999D02*
X1008757Y776999D01*
X1001999Y783757D01*
X1001999Y791243D01*
X1005526Y794770D01*
X1005579Y794844D01*
X1005639Y794913D01*
X1005651Y794944D01*
X1005670Y794970D01*
X1005697Y795057D01*
X1005731Y795142D01*
X1005735Y795182D01*
X1005742Y795205D01*
X1005741Y795237D01*
X1005749Y795308D01*
X1005749Y800288D01*
X1005746Y800308D01*
X1005748Y800327D01*
X1005726Y800429D01*
X1005710Y800531D01*
X1005700Y800548D01*
X1005696Y800568D01*
X1005643Y800657D01*
X1005594Y800748D01*
X1005580Y800762D01*
X1005570Y800779D01*
X1005491Y800846D01*
X1005416Y800918D01*
X1005398Y800926D01*
X1005383Y800939D01*
X1005287Y800978D01*
X1005193Y801021D01*
X1005173Y801023D01*
X1005155Y801031D01*
X1004988Y801049D01*
X999361Y801049D01*
X999332Y801078D01*
X999274Y801119D01*
X999222Y801169D01*
X999175Y801191D01*
X999133Y801221D01*
X999064Y801242D01*
X998999Y801272D01*
X998947Y801278D01*
X998897Y801294D01*
X998826Y801292D01*
X998755Y801300D01*
X998704Y801288D01*
X998652Y801287D01*
X998584Y801263D01*
X998514Y801247D01*
X998469Y801221D01*
X998421Y801203D01*
X998365Y801158D01*
X998303Y801121D01*
X998269Y801082D01*
X998229Y801049D01*
X998190Y800989D01*
X998143Y800934D01*
X998124Y800886D01*
X998096Y800842D01*
X998078Y800773D01*
X998051Y800706D01*
X998043Y800635D01*
X998035Y800604D01*
X998037Y800580D01*
X998033Y800539D01*
X998033Y800149D01*
X997190Y798116D01*
X995634Y796560D01*
X993601Y795717D01*
X991399Y795717D01*
X989366Y796560D01*
X987810Y798116D01*
X986967Y800149D01*
X986967Y802351D01*
X987810Y804384D01*
X989276Y805851D01*
X989329Y805925D01*
X989389Y805994D01*
X989401Y806024D01*
X989420Y806051D01*
X989447Y806137D01*
X989481Y806222D01*
X989485Y806263D01*
X989492Y806286D01*
X989491Y806318D01*
X989499Y806389D01*
X989499Y816111D01*
X989485Y816201D01*
X989477Y816292D01*
X989465Y816322D01*
X989460Y816354D01*
X989417Y816434D01*
X989381Y816518D01*
X989355Y816550D01*
X989344Y816571D01*
X989321Y816593D01*
X989276Y816649D01*
X987810Y818116D01*
X986967Y820149D01*
X986967Y822351D01*
X987810Y824384D01*
X989366Y825940D01*
X991283Y826735D01*
X991322Y826759D01*
X991365Y826775D01*
X991426Y826823D01*
X991492Y826864D01*
X991522Y826900D01*
X991557Y826928D01*
X991599Y826994D01*
X991649Y827054D01*
X991666Y827097D01*
X991690Y827135D01*
X991709Y827211D01*
X991737Y827283D01*
X991739Y827329D01*
X991750Y827374D01*
X991744Y827451D01*
X991748Y827529D01*
X991735Y827573D01*
X991731Y827619D01*
X991701Y827690D01*
X991679Y827765D01*
X991653Y827803D01*
X991635Y827845D01*
X991550Y827952D01*
X991539Y827967D01*
X991535Y827970D01*
X991530Y827976D01*
X979012Y840494D01*
X978938Y840547D01*
X978869Y840607D01*
X978838Y840619D01*
X978812Y840638D01*
X978725Y840665D01*
X978640Y840699D01*
X978600Y840703D01*
X978577Y840710D01*
X978545Y840709D01*
X978474Y840717D01*
X976399Y840717D01*
X974366Y841560D01*
X972950Y842975D01*
X972892Y843017D01*
X972840Y843066D01*
X972819Y843076D01*
X972814Y843081D01*
X972790Y843091D01*
X972751Y843119D01*
X972682Y843140D01*
X972617Y843170D01*
X972565Y843176D01*
X972515Y843191D01*
X972444Y843189D01*
X972373Y843197D01*
X972322Y843186D01*
X972270Y843185D01*
X972202Y843160D01*
X972132Y843145D01*
X972087Y843118D01*
X972039Y843100D01*
X971983Y843055D01*
X971921Y843019D01*
X971887Y842979D01*
X971847Y842947D01*
X971808Y842886D01*
X971795Y842872D01*
X971782Y842858D01*
X971781Y842855D01*
X971761Y842832D01*
X971742Y842784D01*
X971714Y842740D01*
X971697Y842674D01*
X971679Y842635D01*
X971678Y842625D01*
X971669Y842604D01*
X971661Y842532D01*
X971653Y842501D01*
X971655Y842478D01*
X971651Y842437D01*
X971651Y840761D01*
X970039Y839149D01*
X950261Y839149D01*
X948649Y840761D01*
X948649Y843042D01*
X948635Y843132D01*
X948627Y843223D01*
X948615Y843253D01*
X948610Y843285D01*
X948567Y843365D01*
X948531Y843449D01*
X948505Y843481D01*
X948494Y843502D01*
X948471Y843524D01*
X948426Y843580D01*
X946512Y845494D01*
X946438Y845547D01*
X946369Y845607D01*
X946339Y845619D01*
X946312Y845638D01*
X946225Y845665D01*
X946140Y845699D01*
X946100Y845703D01*
X946077Y845710D01*
X946045Y845709D01*
X945974Y845717D01*
X943899Y845717D01*
X941866Y846560D01*
X940310Y848116D01*
X939467Y850149D01*
X939467Y852351D01*
X940310Y854384D01*
X941866Y855940D01*
X942424Y856172D01*
X942485Y856209D01*
X942551Y856239D01*
X942589Y856274D01*
X942633Y856301D01*
X942679Y856357D01*
X942732Y856405D01*
X942757Y856451D01*
X942790Y856491D01*
X942816Y856558D01*
X942850Y856621D01*
X942860Y856672D01*
X942878Y856720D01*
X942881Y856792D01*
X942894Y856863D01*
X942887Y856914D01*
X942889Y856966D01*
X942869Y857035D01*
X942858Y857106D01*
X942835Y857152D01*
X942820Y857202D01*
X942779Y857261D01*
X942747Y857325D01*
X942710Y857362D01*
X942680Y857404D01*
X942623Y857447D01*
X942571Y857497D01*
X942508Y857532D01*
X942483Y857551D01*
X942460Y857558D01*
X942424Y857578D01*
X941866Y857810D01*
X940310Y859366D01*
X939467Y861399D01*
X939467Y862456D01*
X939464Y862476D01*
X939466Y862495D01*
X939444Y862597D01*
X939428Y862699D01*
X939418Y862716D01*
X939414Y862736D01*
X939361Y862825D01*
X939312Y862916D01*
X939298Y862930D01*
X939288Y862947D01*
X939209Y863014D01*
X939134Y863086D01*
X939116Y863094D01*
X939101Y863107D01*
X939005Y863146D01*
X938911Y863189D01*
X938891Y863191D01*
X938873Y863199D01*
X938706Y863217D01*
X936399Y863217D01*
X934366Y864060D01*
X932810Y865616D01*
X931967Y867649D01*
X931967Y869851D01*
X932810Y871884D01*
X934366Y873440D01*
X936399Y874283D01*
X938601Y874283D01*
X940634Y873440D01*
X940851Y873224D01*
X940925Y873171D01*
X940994Y873111D01*
X941024Y873099D01*
X941051Y873080D01*
X941137Y873053D01*
X941222Y873019D01*
X941263Y873015D01*
X941286Y873008D01*
X941318Y873009D01*
X941389Y873001D01*
X948395Y873001D01*
X948485Y873015D01*
X948576Y873023D01*
X948606Y873035D01*
X948638Y873040D01*
X948719Y873083D01*
X948803Y873119D01*
X948835Y873145D01*
X948855Y873156D01*
X948878Y873179D01*
X948934Y873224D01*
X950261Y874551D01*
X970039Y874551D01*
X971651Y872939D01*
X971651Y866161D01*
X970039Y864549D01*
X951279Y864549D01*
X951234Y864542D01*
X951188Y864544D01*
X951113Y864522D01*
X951036Y864510D01*
X950996Y864488D01*
X950952Y864475D01*
X950888Y864431D01*
X950819Y864394D01*
X950787Y864361D01*
X950750Y864335D01*
X950703Y864272D01*
X950650Y864216D01*
X950630Y864174D01*
X950603Y864138D01*
X950579Y864064D01*
X950546Y863993D01*
X950541Y863947D01*
X950527Y863904D01*
X950527Y863826D01*
X950519Y863749D01*
X950529Y863704D01*
X950529Y863658D01*
X950533Y863645D01*
X950533Y862612D01*
X950536Y862592D01*
X950534Y862573D01*
X950556Y862471D01*
X950572Y862369D01*
X950582Y862352D01*
X950586Y862332D01*
X950639Y862243D01*
X950688Y862152D01*
X950702Y862138D01*
X950712Y862121D01*
X950791Y862054D01*
X950866Y861982D01*
X950884Y861974D01*
X950899Y861961D01*
X950995Y861922D01*
X951089Y861879D01*
X951109Y861877D01*
X951127Y861869D01*
X951294Y861851D01*
X970039Y861851D01*
X971549Y860341D01*
X971586Y860314D01*
X971617Y860281D01*
X971686Y860243D01*
X971749Y860198D01*
X971792Y860184D01*
X971833Y860162D01*
X971909Y860148D01*
X971984Y860125D01*
X972030Y860126D01*
X972075Y860118D01*
X972152Y860130D01*
X972230Y860132D01*
X972273Y860147D01*
X972318Y860154D01*
X972388Y860189D01*
X972461Y860216D01*
X972497Y860245D01*
X972537Y860266D01*
X972592Y860321D01*
X972653Y860370D01*
X972678Y860408D01*
X972710Y860441D01*
X972776Y860561D01*
X972786Y860577D01*
X972787Y860582D01*
X972791Y860588D01*
X972810Y860634D01*
X974366Y862190D01*
X976399Y863033D01*
X978601Y863033D01*
X980634Y862190D01*
X982101Y860724D01*
X982175Y860671D01*
X982244Y860611D01*
X982274Y860599D01*
X982301Y860580D01*
X982387Y860553D01*
X982472Y860519D01*
X982513Y860515D01*
X982536Y860508D01*
X982568Y860509D01*
X982639Y860501D01*
X997695Y860501D01*
X997785Y860515D01*
X997876Y860523D01*
X997906Y860535D01*
X997938Y860540D01*
X998019Y860583D01*
X998103Y860619D01*
X998135Y860645D01*
X998155Y860656D01*
X998178Y860679D01*
X998234Y860724D01*
X999361Y861851D01*
X1019139Y861851D01*
X1020751Y860239D01*
X1020751Y855368D01*
X1020754Y855350D01*
X1020752Y855332D01*
X1020757Y855306D01*
X1020756Y855277D01*
X1020778Y855202D01*
X1020790Y855125D01*
X1020801Y855105D01*
X1020804Y855092D01*
X1020815Y855073D01*
X1020825Y855040D01*
X1020869Y854976D01*
X1020906Y854908D01*
X1020925Y854889D01*
X1020930Y854881D01*
X1020944Y854869D01*
X1020965Y854838D01*
X1021028Y854792D01*
X1021084Y854738D01*
X1021111Y854726D01*
X1021117Y854721D01*
X1021131Y854715D01*
X1021162Y854692D01*
X1021236Y854667D01*
X1021307Y854635D01*
X1021339Y854631D01*
X1021345Y854629D01*
X1021361Y854627D01*
X1021396Y854615D01*
X1021460Y854616D01*
X1021512Y854610D01*
X1021521Y854610D01*
X1021524Y854611D01*
X1021551Y854608D01*
X1021596Y854617D01*
X1021642Y854618D01*
X1021740Y854646D01*
X1021764Y854650D01*
X1021776Y854656D01*
X1021792Y854660D01*
X1021796Y854662D01*
X1021803Y854664D01*
X1023899Y855533D01*
X1026101Y855533D01*
X1028134Y854690D01*
X1029690Y853134D01*
X1030533Y851101D01*
X1030533Y848794D01*
X1030536Y848774D01*
X1030534Y848755D01*
X1030556Y848653D01*
X1030572Y848551D01*
X1030582Y848534D01*
X1030586Y848514D01*
X1030639Y848425D01*
X1030688Y848334D01*
X1030702Y848320D01*
X1030712Y848303D01*
X1030791Y848236D01*
X1030866Y848164D01*
X1030884Y848156D01*
X1030899Y848143D01*
X1030995Y848104D01*
X1031089Y848061D01*
X1031109Y848059D01*
X1031127Y848051D01*
X1031294Y848033D01*
X1032351Y848033D01*
X1034384Y847190D01*
X1035940Y845634D01*
X1036783Y843601D01*
X1036783Y841399D01*
X1035940Y839366D01*
X1034384Y837810D01*
X1032351Y836967D01*
X1030149Y836967D01*
X1029602Y837194D01*
X1029489Y837221D01*
X1029375Y837249D01*
X1029369Y837249D01*
X1029363Y837250D01*
X1029246Y837239D01*
X1029130Y837230D01*
X1029124Y837228D01*
X1029118Y837227D01*
X1029010Y837179D01*
X1028904Y837134D01*
X1028898Y837129D01*
X1028893Y837127D01*
X1028879Y837114D01*
X1028773Y837029D01*
X1021129Y829385D01*
X1021052Y829344D01*
X1021038Y829330D01*
X1021021Y829320D01*
X1020954Y829241D01*
X1020882Y829166D01*
X1020874Y829148D01*
X1020861Y829133D01*
X1020822Y829037D01*
X1020779Y828943D01*
X1020777Y828923D01*
X1020769Y828905D01*
X1020751Y828738D01*
X1020751Y828061D01*
X1019139Y826449D01*
X1003382Y826449D01*
X1003311Y826438D01*
X1003240Y826436D01*
X1003191Y826418D01*
X1003139Y826410D01*
X1003076Y826376D01*
X1003009Y826351D01*
X1002968Y826319D01*
X1002922Y826294D01*
X1002873Y826242D01*
X1002817Y826198D01*
X1002789Y826154D01*
X1002753Y826116D01*
X1002722Y826051D01*
X1002684Y825991D01*
X1002671Y825940D01*
X1002649Y825893D01*
X1002641Y825822D01*
X1002624Y825752D01*
X1002628Y825700D01*
X1002622Y825649D01*
X1002637Y825578D01*
X1002643Y825507D01*
X1002663Y825459D01*
X1002674Y825408D01*
X1002711Y825347D01*
X1002739Y825281D01*
X1002784Y825225D01*
X1002800Y825197D01*
X1002805Y825193D01*
X1002806Y825192D01*
X1002820Y825180D01*
X1002844Y825150D01*
X1004020Y823974D01*
X1004094Y823921D01*
X1004163Y823861D01*
X1004193Y823849D01*
X1004220Y823830D01*
X1004307Y823803D01*
X1004392Y823769D01*
X1004433Y823765D01*
X1004455Y823758D01*
X1004487Y823759D01*
X1004558Y823751D01*
X1019231Y823751D01*
X1019260Y823735D01*
X1019336Y823721D01*
X1019410Y823699D01*
X1019456Y823700D01*
X1019502Y823692D01*
X1019579Y823703D01*
X1019656Y823705D01*
X1019699Y823721D01*
X1019745Y823727D01*
X1019814Y823763D01*
X1019887Y823789D01*
X1019923Y823818D01*
X1019964Y823839D01*
X1020019Y823894D01*
X1020079Y823943D01*
X1020104Y823982D01*
X1020136Y824014D01*
X1020202Y824134D01*
X1020212Y824150D01*
X1020214Y824155D01*
X1020217Y824161D01*
X1020310Y824384D01*
X1021866Y825940D01*
X1023899Y826783D01*
X1026101Y826783D01*
X1028134Y825940D01*
X1029462Y824613D01*
X1029478Y824601D01*
X1029490Y824586D01*
X1029578Y824530D01*
X1029661Y824469D01*
X1029680Y824463D01*
X1029697Y824453D01*
X1029798Y824427D01*
X1029897Y824397D01*
X1029916Y824397D01*
X1029936Y824393D01*
X1030039Y824401D01*
X1030142Y824403D01*
X1030161Y824410D01*
X1030181Y824412D01*
X1030276Y824452D01*
X1030373Y824488D01*
X1030389Y824500D01*
X1030407Y824508D01*
X1030538Y824613D01*
X1031866Y825940D01*
X1033899Y826783D01*
X1036101Y826783D01*
X1038134Y825940D01*
X1039462Y824613D01*
X1039478Y824601D01*
X1039490Y824586D01*
X1039578Y824529D01*
X1039661Y824469D01*
X1039680Y824463D01*
X1039697Y824453D01*
X1039798Y824427D01*
X1039897Y824397D01*
X1039916Y824397D01*
X1039936Y824393D01*
X1040039Y824401D01*
X1040142Y824403D01*
X1040161Y824410D01*
X1040181Y824412D01*
X1040276Y824452D01*
X1040373Y824488D01*
X1040389Y824500D01*
X1040407Y824508D01*
X1040538Y824613D01*
X1041866Y825940D01*
X1043899Y826783D01*
X1046101Y826783D01*
X1048134Y825940D01*
X1049690Y824384D01*
X1050533Y822351D01*
X1050533Y820149D01*
X1049690Y818116D01*
X1048224Y816649D01*
X1048171Y816575D01*
X1048111Y816506D01*
X1048099Y816476D01*
X1048080Y816449D01*
X1048053Y816363D01*
X1048019Y816278D01*
X1048015Y816237D01*
X1048008Y816214D01*
X1048009Y816182D01*
X1048001Y816111D01*
X1048001Y792639D01*
X1048015Y792549D01*
X1048023Y792458D01*
X1048035Y792428D01*
X1048040Y792396D01*
X1048083Y792316D01*
X1048119Y792232D01*
X1048145Y792200D01*
X1048156Y792179D01*
X1048179Y792157D01*
X1048224Y792101D01*
X1049690Y790634D01*
X1050485Y788717D01*
X1050509Y788678D01*
X1050525Y788635D01*
X1050573Y788574D01*
X1050614Y788508D01*
X1050650Y788478D01*
X1050678Y788443D01*
X1050744Y788401D01*
X1050804Y788351D01*
X1050846Y788334D01*
X1050885Y788310D01*
X1050961Y788291D01*
X1051033Y788263D01*
X1051079Y788261D01*
X1051124Y788250D01*
X1051201Y788256D01*
X1051279Y788252D01*
X1051323Y788265D01*
X1051369Y788269D01*
X1051440Y788299D01*
X1051515Y788321D01*
X1051553Y788347D01*
X1051595Y788365D01*
X1051702Y788450D01*
X1051717Y788461D01*
X1051720Y788465D01*
X1051726Y788470D01*
X1086776Y823520D01*
X1086829Y823594D01*
X1086889Y823663D01*
X1086901Y823694D01*
X1086920Y823720D01*
X1086947Y823807D01*
X1086981Y823892D01*
X1086985Y823932D01*
X1086992Y823955D01*
X1086991Y823987D01*
X1086999Y824058D01*
X1086999Y881243D01*
X1110494Y904738D01*
X1110547Y904812D01*
X1110607Y904881D01*
X1110619Y904912D01*
X1110638Y904938D01*
X1110665Y905025D01*
X1110699Y905110D01*
X1110703Y905150D01*
X1110710Y905173D01*
X1110709Y905205D01*
X1110717Y905276D01*
X1110717Y907351D01*
X1111560Y909384D01*
X1113116Y910940D01*
X1115149Y911783D01*
X1117351Y911783D01*
X1119384Y910940D01*
X1120940Y909384D01*
X1121783Y907351D01*
X1121783Y905149D01*
X1120940Y903116D01*
X1119384Y901560D01*
X1117351Y900717D01*
X1115276Y900717D01*
X1115186Y900703D01*
X1115095Y900695D01*
X1115065Y900683D01*
X1115034Y900678D01*
X1114953Y900635D01*
X1114869Y900599D01*
X1114837Y900573D01*
X1114816Y900562D01*
X1114794Y900539D01*
X1114738Y900494D01*
X1093224Y878980D01*
X1093171Y878906D01*
X1093111Y878837D01*
X1093099Y878806D01*
X1093080Y878780D01*
X1093053Y878693D01*
X1093019Y878608D01*
X1093015Y878568D01*
X1093008Y878545D01*
X1093009Y878513D01*
X1093001Y878442D01*
X1093001Y821257D01*
X1048743Y776999D01*
X1008757Y776999D01*
G37*
%LPD*%
%LPC*%
G36*
X777649Y655717D02*
X777649Y655717D01*
X775616Y656560D01*
X774060Y658116D01*
X773217Y660149D01*
X773217Y662351D01*
X774060Y664384D01*
X775616Y665940D01*
X777649Y666783D01*
X779724Y666783D01*
X779814Y666797D01*
X779905Y666805D01*
X779935Y666817D01*
X779966Y666822D01*
X780047Y666865D01*
X780131Y666901D01*
X780163Y666927D01*
X780184Y666938D01*
X780206Y666961D01*
X780262Y667006D01*
X837780Y724524D01*
X837807Y724561D01*
X837841Y724592D01*
X837878Y724661D01*
X837924Y724724D01*
X837937Y724767D01*
X837959Y724808D01*
X837973Y724884D01*
X837996Y724959D01*
X837995Y725005D01*
X838003Y725050D01*
X837992Y725127D01*
X837990Y725205D01*
X837974Y725248D01*
X837967Y725293D01*
X837932Y725362D01*
X837905Y725436D01*
X837877Y725471D01*
X837856Y725512D01*
X837800Y725567D01*
X837752Y725628D01*
X837713Y725652D01*
X837680Y725685D01*
X837560Y725751D01*
X837545Y725761D01*
X837540Y725762D01*
X837533Y725765D01*
X835616Y726560D01*
X834060Y728116D01*
X833217Y730149D01*
X833217Y732351D01*
X834060Y734384D01*
X835616Y735940D01*
X837649Y736783D01*
X839724Y736783D01*
X839814Y736797D01*
X839905Y736805D01*
X839935Y736817D01*
X839967Y736822D01*
X840047Y736865D01*
X840131Y736901D01*
X840163Y736927D01*
X840184Y736938D01*
X840206Y736961D01*
X840262Y737006D01*
X858026Y754770D01*
X858146Y754890D01*
X858173Y754927D01*
X858207Y754958D01*
X858244Y755026D01*
X858290Y755090D01*
X858303Y755133D01*
X858325Y755174D01*
X858339Y755250D01*
X858362Y755325D01*
X858361Y755371D01*
X858369Y755416D01*
X858358Y755493D01*
X858356Y755571D01*
X858340Y755614D01*
X858333Y755659D01*
X858298Y755729D01*
X858271Y755802D01*
X858243Y755837D01*
X858222Y755878D01*
X858166Y755933D01*
X858118Y755994D01*
X858079Y756018D01*
X858046Y756051D01*
X857926Y756117D01*
X857911Y756127D01*
X857906Y756128D01*
X857899Y756132D01*
X856866Y756560D01*
X855310Y758116D01*
X854467Y760149D01*
X854467Y762224D01*
X854453Y762314D01*
X854445Y762405D01*
X854433Y762435D01*
X854428Y762466D01*
X854385Y762547D01*
X854349Y762631D01*
X854323Y762663D01*
X854312Y762684D01*
X854289Y762706D01*
X854244Y762762D01*
X841512Y775494D01*
X841438Y775547D01*
X841369Y775607D01*
X841338Y775619D01*
X841312Y775638D01*
X841225Y775665D01*
X841140Y775699D01*
X841100Y775703D01*
X841077Y775710D01*
X841045Y775709D01*
X840974Y775717D01*
X838899Y775717D01*
X836866Y776560D01*
X835310Y778116D01*
X834467Y780149D01*
X834467Y782351D01*
X835310Y784384D01*
X836866Y785940D01*
X838899Y786783D01*
X841101Y786783D01*
X843134Y785940D01*
X844690Y784384D01*
X845533Y782351D01*
X845533Y780276D01*
X845547Y780186D01*
X845555Y780095D01*
X845567Y780065D01*
X845572Y780034D01*
X845615Y779953D01*
X845651Y779869D01*
X845677Y779837D01*
X845688Y779816D01*
X845711Y779794D01*
X845756Y779738D01*
X858488Y767006D01*
X858562Y766953D01*
X858631Y766893D01*
X858662Y766881D01*
X858688Y766862D01*
X858775Y766835D01*
X858860Y766801D01*
X858900Y766797D01*
X858923Y766790D01*
X858955Y766791D01*
X859026Y766783D01*
X861101Y766783D01*
X863134Y765940D01*
X863200Y765875D01*
X863258Y765833D01*
X863310Y765784D01*
X863357Y765762D01*
X863399Y765731D01*
X863468Y765710D01*
X863533Y765680D01*
X863585Y765674D01*
X863634Y765659D01*
X863706Y765661D01*
X863777Y765653D01*
X863828Y765664D01*
X863880Y765665D01*
X863948Y765690D01*
X864018Y765705D01*
X864063Y765732D01*
X864111Y765750D01*
X864167Y765794D01*
X864229Y765831D01*
X864263Y765871D01*
X864303Y765903D01*
X864342Y765964D01*
X864389Y766018D01*
X864408Y766066D01*
X864436Y766110D01*
X864454Y766180D01*
X864481Y766246D01*
X864489Y766318D01*
X864497Y766349D01*
X864495Y766372D01*
X864499Y766413D01*
X864499Y779692D01*
X864485Y779782D01*
X864477Y779873D01*
X864465Y779903D01*
X864460Y779934D01*
X864417Y780015D01*
X864381Y780099D01*
X864355Y780131D01*
X864344Y780152D01*
X864321Y780174D01*
X864276Y780230D01*
X861512Y782994D01*
X861438Y783047D01*
X861369Y783107D01*
X861339Y783119D01*
X861312Y783138D01*
X861225Y783165D01*
X861140Y783199D01*
X861100Y783203D01*
X861077Y783210D01*
X861045Y783209D01*
X860974Y783217D01*
X858899Y783217D01*
X856866Y784060D01*
X855310Y785616D01*
X854467Y787649D01*
X854467Y789851D01*
X855310Y791884D01*
X856866Y793440D01*
X858899Y794283D01*
X861101Y794283D01*
X863134Y793440D01*
X864690Y791884D01*
X865533Y789851D01*
X865533Y787776D01*
X865547Y787686D01*
X865555Y787595D01*
X865567Y787565D01*
X865572Y787533D01*
X865615Y787453D01*
X865651Y787369D01*
X865677Y787337D01*
X865688Y787316D01*
X865711Y787294D01*
X865756Y787238D01*
X870501Y782493D01*
X870501Y759082D01*
X870512Y759011D01*
X870514Y758940D01*
X870532Y758891D01*
X870540Y758839D01*
X870574Y758776D01*
X870599Y758709D01*
X870631Y758668D01*
X870656Y758622D01*
X870708Y758573D01*
X870752Y758517D01*
X870796Y758489D01*
X870834Y758453D01*
X870899Y758423D01*
X870959Y758384D01*
X871010Y758371D01*
X871057Y758349D01*
X871128Y758341D01*
X871198Y758324D01*
X871250Y758328D01*
X871301Y758322D01*
X871372Y758337D01*
X871443Y758343D01*
X871491Y758363D01*
X871542Y758374D01*
X871603Y758411D01*
X871669Y758439D01*
X871725Y758484D01*
X871753Y758500D01*
X871768Y758518D01*
X871800Y758544D01*
X883026Y769770D01*
X883079Y769844D01*
X883139Y769913D01*
X883151Y769944D01*
X883170Y769970D01*
X883197Y770057D01*
X883231Y770142D01*
X883235Y770182D01*
X883242Y770205D01*
X883241Y770237D01*
X883249Y770308D01*
X883249Y773583D01*
X883242Y773629D01*
X883244Y773674D01*
X883222Y773749D01*
X883210Y773826D01*
X883188Y773867D01*
X883175Y773911D01*
X883131Y773975D01*
X883094Y774043D01*
X883061Y774075D01*
X883035Y774113D01*
X882972Y774159D01*
X882916Y774213D01*
X882874Y774232D01*
X882838Y774260D01*
X882764Y774284D01*
X882693Y774316D01*
X882647Y774321D01*
X882604Y774336D01*
X882526Y774335D01*
X882449Y774344D01*
X882404Y774334D01*
X882358Y774333D01*
X882227Y774295D01*
X882208Y774291D01*
X882204Y774289D01*
X882197Y774287D01*
X881312Y773920D01*
X880342Y773727D01*
X880342Y779887D01*
X880339Y779906D01*
X880341Y779926D01*
X880328Y779986D01*
X880342Y780113D01*
X880342Y786273D01*
X881312Y786080D01*
X882197Y785713D01*
X882241Y785703D01*
X882283Y785684D01*
X882360Y785675D01*
X882436Y785657D01*
X882482Y785662D01*
X882527Y785656D01*
X882604Y785673D01*
X882681Y785680D01*
X882723Y785699D01*
X882768Y785709D01*
X882835Y785749D01*
X882906Y785780D01*
X882940Y785811D01*
X882979Y785835D01*
X883030Y785894D01*
X883087Y785947D01*
X883109Y785987D01*
X883139Y786022D01*
X883168Y786094D01*
X883205Y786162D01*
X883214Y786207D01*
X883231Y786250D01*
X883246Y786386D01*
X883249Y786404D01*
X883248Y786409D01*
X883249Y786417D01*
X883249Y793743D01*
X885230Y795724D01*
X885494Y795988D01*
X885547Y796062D01*
X885607Y796131D01*
X885619Y796161D01*
X885638Y796188D01*
X885665Y796275D01*
X885699Y796360D01*
X885703Y796400D01*
X885710Y796423D01*
X885709Y796455D01*
X885717Y796526D01*
X885717Y798601D01*
X886560Y800634D01*
X888116Y802190D01*
X890149Y803033D01*
X892351Y803033D01*
X894384Y802190D01*
X895940Y800634D01*
X896783Y798601D01*
X896783Y796399D01*
X895940Y794366D01*
X894384Y792810D01*
X892351Y791967D01*
X890276Y791967D01*
X890186Y791953D01*
X890095Y791945D01*
X890065Y791933D01*
X890033Y791928D01*
X889953Y791885D01*
X889869Y791849D01*
X889837Y791823D01*
X889816Y791812D01*
X889794Y791789D01*
X889738Y791744D01*
X889474Y791480D01*
X889421Y791406D01*
X889361Y791337D01*
X889349Y791306D01*
X889330Y791280D01*
X889303Y791193D01*
X889269Y791108D01*
X889265Y791067D01*
X889258Y791045D01*
X889259Y791013D01*
X889251Y790942D01*
X889251Y767507D01*
X784506Y662762D01*
X784453Y662688D01*
X784393Y662619D01*
X784381Y662588D01*
X784362Y662562D01*
X784335Y662475D01*
X784301Y662390D01*
X784297Y662350D01*
X784290Y662327D01*
X784291Y662295D01*
X784283Y662224D01*
X784283Y660149D01*
X783440Y658116D01*
X781884Y656560D01*
X779851Y655717D01*
X777649Y655717D01*
G37*
%LPD*%
%LPC*%
G36*
X612909Y655080D02*
X612909Y655080D01*
X604386Y659324D01*
X597971Y666360D01*
X594532Y675239D01*
X594532Y684761D01*
X597971Y693640D01*
X604386Y700676D01*
X612909Y704920D01*
X622391Y705799D01*
X631549Y703193D01*
X639147Y697455D01*
X644160Y689360D01*
X645910Y680000D01*
X644160Y670640D01*
X639147Y662545D01*
X631549Y656807D01*
X622391Y654201D01*
X612909Y655080D01*
G37*
%LPD*%
%LPC*%
G36*
X1247909Y915080D02*
X1247909Y915080D01*
X1239386Y919324D01*
X1232971Y926360D01*
X1229532Y935239D01*
X1229532Y944761D01*
X1232971Y953640D01*
X1239386Y960676D01*
X1247909Y964920D01*
X1257391Y965799D01*
X1266549Y963193D01*
X1274147Y957455D01*
X1279160Y949360D01*
X1280910Y940000D01*
X1279160Y930640D01*
X1274147Y922545D01*
X1266549Y916807D01*
X1257391Y914201D01*
X1247909Y915080D01*
G37*
%LPD*%
%LPC*%
G36*
X142909Y615080D02*
X142909Y615080D01*
X134386Y619324D01*
X127971Y626360D01*
X124532Y635239D01*
X124532Y644761D01*
X127971Y653640D01*
X134386Y660676D01*
X142909Y664920D01*
X152391Y665799D01*
X161549Y663193D01*
X169147Y657455D01*
X174160Y649360D01*
X175910Y640000D01*
X174160Y630640D01*
X169147Y622545D01*
X161549Y616807D01*
X152391Y614201D01*
X142909Y615080D01*
G37*
%LPD*%
%LPC*%
G36*
X1277909Y490080D02*
X1277909Y490080D01*
X1269386Y494324D01*
X1262971Y501360D01*
X1259532Y510239D01*
X1259532Y519761D01*
X1262971Y528640D01*
X1269386Y535676D01*
X1277909Y539920D01*
X1287391Y540799D01*
X1296549Y538193D01*
X1304147Y532455D01*
X1309160Y524360D01*
X1310910Y515000D01*
X1309160Y505640D01*
X1304147Y497545D01*
X1296549Y491807D01*
X1287391Y489201D01*
X1277909Y490080D01*
G37*
%LPD*%
%LPC*%
G36*
X972909Y655080D02*
X972909Y655080D01*
X964386Y659324D01*
X957971Y666360D01*
X954532Y675239D01*
X954532Y684761D01*
X957971Y693640D01*
X964386Y700676D01*
X972910Y704920D01*
X982391Y705799D01*
X991549Y703193D01*
X999147Y697455D01*
X1004160Y689360D01*
X1005910Y680000D01*
X1004160Y670640D01*
X999147Y662545D01*
X991549Y656807D01*
X982391Y654201D01*
X972909Y655080D01*
G37*
%LPD*%
%LPC*%
G36*
X337909Y915080D02*
X337909Y915080D01*
X329386Y919324D01*
X322971Y926360D01*
X319532Y935239D01*
X319532Y944761D01*
X322971Y953640D01*
X329386Y960676D01*
X337909Y964920D01*
X347391Y965799D01*
X356549Y963193D01*
X364147Y957455D01*
X369160Y949360D01*
X370910Y940000D01*
X369160Y930640D01*
X364147Y922545D01*
X356549Y916807D01*
X347391Y914201D01*
X337909Y915080D01*
G37*
%LPD*%
%LPC*%
G36*
X307909Y490080D02*
X307909Y490080D01*
X299386Y494324D01*
X292971Y501360D01*
X289532Y510239D01*
X289532Y519761D01*
X292971Y528640D01*
X299386Y535676D01*
X307909Y539920D01*
X317391Y540799D01*
X326549Y538193D01*
X334147Y532455D01*
X339160Y524360D01*
X340910Y515000D01*
X339160Y505640D01*
X334147Y497545D01*
X326549Y491807D01*
X317391Y489201D01*
X307909Y490080D01*
G37*
%LPD*%
%LPC*%
G36*
X1442909Y615080D02*
X1442909Y615080D01*
X1434386Y619324D01*
X1427971Y626360D01*
X1424532Y635239D01*
X1424532Y644761D01*
X1427971Y653640D01*
X1434386Y660676D01*
X1442909Y664920D01*
X1452391Y665799D01*
X1461549Y663193D01*
X1469147Y657455D01*
X1474160Y649360D01*
X1475910Y640000D01*
X1474160Y630640D01*
X1469147Y622545D01*
X1461549Y616807D01*
X1452391Y614201D01*
X1442909Y615080D01*
G37*
%LPD*%
%LPC*%
G36*
X813084Y592739D02*
X813084Y592739D01*
X807695Y594971D01*
X803571Y599095D01*
X801339Y604484D01*
X801339Y610316D01*
X803571Y615705D01*
X807695Y619829D01*
X813084Y622061D01*
X818916Y622061D01*
X824305Y619829D01*
X828429Y615705D01*
X830297Y611195D01*
X830335Y611134D01*
X830364Y611069D01*
X830399Y611030D01*
X830426Y610986D01*
X830482Y610940D01*
X830530Y610888D01*
X830576Y610862D01*
X830616Y610829D01*
X830683Y610804D01*
X830746Y610769D01*
X830797Y610760D01*
X830845Y610741D01*
X830917Y610738D01*
X830988Y610725D01*
X831039Y610733D01*
X831091Y610731D01*
X831160Y610751D01*
X831231Y610761D01*
X831277Y610785D01*
X831327Y610799D01*
X831386Y610840D01*
X831450Y610873D01*
X831487Y610910D01*
X831529Y610939D01*
X831572Y610997D01*
X831622Y611048D01*
X831657Y611111D01*
X831676Y611137D01*
X831683Y611159D01*
X831703Y611195D01*
X833571Y615705D01*
X837695Y619829D01*
X843084Y622061D01*
X848916Y622061D01*
X854305Y619829D01*
X858429Y615705D01*
X860661Y610316D01*
X860661Y604484D01*
X858429Y599095D01*
X854305Y594971D01*
X848916Y592739D01*
X843084Y592739D01*
X837695Y594971D01*
X833571Y599095D01*
X831703Y603605D01*
X831666Y603666D01*
X831636Y603731D01*
X831601Y603770D01*
X831574Y603814D01*
X831519Y603860D01*
X831470Y603912D01*
X831424Y603938D01*
X831384Y603971D01*
X831317Y603996D01*
X831254Y604031D01*
X831203Y604040D01*
X831155Y604059D01*
X831083Y604062D01*
X831012Y604075D01*
X830961Y604067D01*
X830909Y604069D01*
X830840Y604049D01*
X830769Y604039D01*
X830723Y604015D01*
X830673Y604001D01*
X830614Y603960D01*
X830550Y603927D01*
X830513Y603890D01*
X830471Y603861D01*
X830428Y603803D01*
X830378Y603752D01*
X830343Y603689D01*
X830324Y603663D01*
X830317Y603641D01*
X830297Y603605D01*
X828429Y599095D01*
X824305Y594971D01*
X818916Y592739D01*
X813084Y592739D01*
G37*
%LPD*%
%LPC*%
G36*
X366139Y575589D02*
X366139Y575589D01*
X359005Y578544D01*
X353544Y584005D01*
X350589Y591139D01*
X350589Y598861D01*
X353544Y605995D01*
X359005Y611456D01*
X366139Y614411D01*
X373861Y614411D01*
X380995Y611456D01*
X386456Y605995D01*
X389411Y598861D01*
X389411Y591139D01*
X386456Y584005D01*
X380995Y578544D01*
X373861Y575589D01*
X366139Y575589D01*
G37*
%LPD*%
%LPC*%
G36*
X1226139Y665589D02*
X1226139Y665589D01*
X1219005Y668544D01*
X1213544Y674005D01*
X1210589Y681139D01*
X1210589Y688861D01*
X1213544Y695995D01*
X1219005Y701456D01*
X1226139Y704411D01*
X1233861Y704411D01*
X1240995Y701456D01*
X1246456Y695995D01*
X1249411Y688861D01*
X1249411Y681139D01*
X1246456Y674005D01*
X1240995Y668544D01*
X1233861Y665589D01*
X1226139Y665589D01*
G37*
%LPD*%
%LPC*%
G36*
X366139Y665589D02*
X366139Y665589D01*
X359005Y668544D01*
X353544Y674005D01*
X350589Y681139D01*
X350589Y688861D01*
X353544Y695995D01*
X359005Y701456D01*
X366139Y704411D01*
X373861Y704411D01*
X380995Y701456D01*
X386456Y695995D01*
X389411Y688861D01*
X389411Y681139D01*
X386456Y674005D01*
X380995Y668544D01*
X373861Y665589D01*
X366139Y665589D01*
G37*
%LPD*%
%LPC*%
G36*
X1446139Y445589D02*
X1446139Y445589D01*
X1439005Y448544D01*
X1433544Y454005D01*
X1430589Y461139D01*
X1430589Y468861D01*
X1433544Y475995D01*
X1439005Y481456D01*
X1446139Y484411D01*
X1453861Y484411D01*
X1460995Y481456D01*
X1466456Y475995D01*
X1469411Y468861D01*
X1469411Y461139D01*
X1466456Y454005D01*
X1460995Y448544D01*
X1453861Y445589D01*
X1446139Y445589D01*
G37*
%LPD*%
%LPC*%
G36*
X426139Y755589D02*
X426139Y755589D01*
X419005Y758544D01*
X413544Y764005D01*
X410589Y771139D01*
X410589Y778861D01*
X413544Y785995D01*
X419005Y791456D01*
X426139Y794411D01*
X433861Y794411D01*
X440995Y791456D01*
X446456Y785995D01*
X449411Y778861D01*
X449411Y771139D01*
X446456Y764005D01*
X440995Y758544D01*
X433861Y755589D01*
X426139Y755589D01*
G37*
%LPD*%
%LPC*%
G36*
X1166139Y845589D02*
X1166139Y845589D01*
X1159005Y848544D01*
X1153544Y854005D01*
X1150589Y861139D01*
X1150589Y868861D01*
X1153544Y875995D01*
X1159005Y881456D01*
X1166139Y884411D01*
X1173861Y884411D01*
X1180995Y881456D01*
X1186456Y875995D01*
X1189411Y868861D01*
X1189411Y861139D01*
X1186456Y854005D01*
X1180995Y848544D01*
X1173861Y845589D01*
X1166139Y845589D01*
G37*
%LPD*%
%LPC*%
G36*
X146139Y535589D02*
X146139Y535589D01*
X139005Y538544D01*
X133544Y544005D01*
X130589Y551139D01*
X130589Y558861D01*
X133544Y565995D01*
X139005Y571456D01*
X146139Y574411D01*
X153861Y574411D01*
X160995Y571456D01*
X166456Y565995D01*
X169411Y558861D01*
X169411Y551139D01*
X166456Y544005D01*
X160995Y538544D01*
X153861Y535589D01*
X146139Y535589D01*
G37*
%LPD*%
%LPC*%
G36*
X426139Y845589D02*
X426139Y845589D01*
X419005Y848544D01*
X413544Y854005D01*
X410589Y861139D01*
X410589Y868861D01*
X413544Y875995D01*
X419005Y881456D01*
X426139Y884411D01*
X433861Y884411D01*
X440995Y881456D01*
X446456Y875995D01*
X449411Y868861D01*
X449411Y861139D01*
X446456Y854005D01*
X440995Y848544D01*
X433861Y845589D01*
X426139Y845589D01*
G37*
%LPD*%
%LPC*%
G36*
X1226139Y575589D02*
X1226139Y575589D01*
X1219005Y578544D01*
X1213544Y584005D01*
X1210589Y591139D01*
X1210589Y598861D01*
X1213544Y605995D01*
X1219005Y611456D01*
X1226139Y614411D01*
X1233861Y614411D01*
X1240995Y611456D01*
X1246456Y605995D01*
X1249411Y598861D01*
X1249411Y591139D01*
X1246456Y584005D01*
X1240995Y578544D01*
X1233861Y575589D01*
X1226139Y575589D01*
G37*
%LPD*%
%LPC*%
G36*
X146139Y445589D02*
X146139Y445589D01*
X139005Y448544D01*
X133544Y454005D01*
X130589Y461139D01*
X130589Y468861D01*
X133544Y475995D01*
X139005Y481456D01*
X146139Y484411D01*
X153861Y484411D01*
X160995Y481456D01*
X166456Y475995D01*
X169411Y468861D01*
X169411Y461139D01*
X166456Y454005D01*
X160995Y448544D01*
X153861Y445589D01*
X146139Y445589D01*
G37*
%LPD*%
%LPC*%
G36*
X1446139Y535589D02*
X1446139Y535589D01*
X1439005Y538544D01*
X1433544Y544005D01*
X1430589Y551139D01*
X1430589Y558861D01*
X1433544Y565995D01*
X1439005Y571456D01*
X1446139Y574411D01*
X1453861Y574411D01*
X1460995Y571456D01*
X1466456Y565995D01*
X1469411Y558861D01*
X1469411Y551139D01*
X1466456Y544005D01*
X1460995Y538544D01*
X1453861Y535589D01*
X1446139Y535589D01*
G37*
%LPD*%
%LPC*%
G36*
X1166139Y755589D02*
X1166139Y755589D01*
X1159005Y758544D01*
X1153544Y764005D01*
X1150589Y771139D01*
X1150589Y778861D01*
X1153544Y785995D01*
X1159005Y791456D01*
X1166139Y794411D01*
X1173861Y794411D01*
X1180995Y791456D01*
X1186456Y785995D01*
X1189411Y778861D01*
X1189411Y771139D01*
X1186456Y764005D01*
X1180995Y758544D01*
X1173861Y755589D01*
X1166139Y755589D01*
G37*
%LPD*%
%LPC*%
G36*
X621399Y800717D02*
X621399Y800717D01*
X619366Y801560D01*
X617810Y803116D01*
X616967Y805149D01*
X616967Y807351D01*
X617810Y809384D01*
X619366Y810940D01*
X621327Y811753D01*
X621410Y811804D01*
X621496Y811850D01*
X621514Y811868D01*
X621536Y811882D01*
X621598Y811958D01*
X621665Y812028D01*
X621676Y812052D01*
X621693Y812072D01*
X621728Y812163D01*
X621769Y812251D01*
X621772Y812277D01*
X621781Y812301D01*
X621785Y812399D01*
X621796Y812495D01*
X621790Y812521D01*
X621791Y812547D01*
X621764Y812641D01*
X621744Y812736D01*
X621730Y812758D01*
X621723Y812783D01*
X621667Y812863D01*
X621617Y812947D01*
X621598Y812964D01*
X621583Y812985D01*
X621505Y813044D01*
X621431Y813107D01*
X621406Y813117D01*
X621385Y813132D01*
X621293Y813162D01*
X621202Y813199D01*
X621170Y813202D01*
X621151Y813208D01*
X621118Y813208D01*
X621036Y813217D01*
X620149Y813217D01*
X618116Y814060D01*
X616560Y815616D01*
X615717Y817649D01*
X615717Y819851D01*
X616560Y821884D01*
X618116Y823440D01*
X620149Y824283D01*
X622224Y824283D01*
X622314Y824297D01*
X622405Y824305D01*
X622435Y824317D01*
X622466Y824322D01*
X622547Y824365D01*
X622631Y824401D01*
X622663Y824427D01*
X622684Y824438D01*
X622706Y824461D01*
X622762Y824506D01*
X650494Y852238D01*
X650547Y852312D01*
X650607Y852381D01*
X650619Y852412D01*
X650638Y852438D01*
X650665Y852525D01*
X650699Y852610D01*
X650703Y852650D01*
X650710Y852673D01*
X650709Y852705D01*
X650717Y852776D01*
X650717Y854851D01*
X651560Y856884D01*
X653116Y858440D01*
X655149Y859283D01*
X657351Y859283D01*
X659384Y858440D01*
X660940Y856884D01*
X661783Y854851D01*
X661783Y853794D01*
X661786Y853774D01*
X661784Y853755D01*
X661806Y853653D01*
X661822Y853551D01*
X661832Y853534D01*
X661836Y853514D01*
X661889Y853425D01*
X661938Y853334D01*
X661952Y853320D01*
X661962Y853303D01*
X662041Y853236D01*
X662116Y853164D01*
X662134Y853156D01*
X662149Y853143D01*
X662245Y853104D01*
X662339Y853061D01*
X662359Y853059D01*
X662377Y853051D01*
X662544Y853033D01*
X664851Y853033D01*
X666884Y852190D01*
X668440Y850634D01*
X669283Y848601D01*
X669283Y846399D01*
X668440Y844366D01*
X666884Y842810D01*
X664851Y841967D01*
X662776Y841967D01*
X662686Y841953D01*
X662595Y841945D01*
X662565Y841933D01*
X662534Y841928D01*
X662453Y841885D01*
X662369Y841849D01*
X662337Y841823D01*
X662316Y841812D01*
X662294Y841789D01*
X662238Y841744D01*
X628256Y807762D01*
X628203Y807688D01*
X628143Y807619D01*
X628131Y807588D01*
X628112Y807562D01*
X628085Y807475D01*
X628051Y807390D01*
X628047Y807350D01*
X628040Y807327D01*
X628041Y807295D01*
X628033Y807224D01*
X628033Y805149D01*
X627190Y803116D01*
X625634Y801560D01*
X623601Y800717D01*
X621399Y800717D01*
G37*
%LPD*%
%LPC*%
G36*
X642252Y699967D02*
X642252Y699967D01*
X639483Y701114D01*
X637364Y703233D01*
X636217Y706002D01*
X636217Y708998D01*
X637364Y711767D01*
X637526Y711929D01*
X637579Y712003D01*
X637639Y712073D01*
X637651Y712103D01*
X637670Y712129D01*
X637697Y712216D01*
X637731Y712301D01*
X637735Y712342D01*
X637742Y712364D01*
X637741Y712396D01*
X637746Y712435D01*
X638663Y714649D01*
X647225Y723212D01*
X647237Y723228D01*
X647253Y723240D01*
X647309Y723328D01*
X647369Y723411D01*
X647375Y723430D01*
X647386Y723447D01*
X647411Y723548D01*
X647441Y723647D01*
X647441Y723666D01*
X647446Y723686D01*
X647438Y723789D01*
X647435Y723892D01*
X647428Y723911D01*
X647427Y723931D01*
X647386Y724026D01*
X647350Y724123D01*
X647338Y724139D01*
X647330Y724157D01*
X647225Y724288D01*
X621769Y749744D01*
X621695Y749797D01*
X621626Y749857D01*
X621596Y749869D01*
X621570Y749888D01*
X621483Y749915D01*
X621398Y749949D01*
X621357Y749953D01*
X621335Y749960D01*
X621302Y749959D01*
X621231Y749967D01*
X621002Y749967D01*
X618233Y751114D01*
X616114Y753233D01*
X614967Y756002D01*
X614967Y758998D01*
X616114Y761767D01*
X618233Y763886D01*
X621002Y765033D01*
X623998Y765033D01*
X626767Y763886D01*
X628886Y761767D01*
X630033Y758998D01*
X630033Y758769D01*
X630047Y758679D01*
X630055Y758588D01*
X630067Y758558D01*
X630072Y758526D01*
X630115Y758445D01*
X630151Y758362D01*
X630177Y758329D01*
X630188Y758309D01*
X630211Y758287D01*
X630256Y758231D01*
X656981Y731506D01*
X657055Y731453D01*
X657124Y731393D01*
X657154Y731381D01*
X657180Y731362D01*
X657267Y731335D01*
X657352Y731301D01*
X657393Y731297D01*
X657415Y731290D01*
X657448Y731291D01*
X657519Y731283D01*
X657748Y731283D01*
X660517Y730136D01*
X662636Y728017D01*
X663783Y725248D01*
X663783Y722252D01*
X662636Y719483D01*
X660517Y717364D01*
X657748Y716217D01*
X657519Y716217D01*
X657429Y716203D01*
X657338Y716195D01*
X657308Y716183D01*
X657276Y716178D01*
X657195Y716135D01*
X657112Y716099D01*
X657079Y716073D01*
X657059Y716062D01*
X657037Y716039D01*
X656981Y715994D01*
X651262Y710276D01*
X651194Y710181D01*
X651124Y710087D01*
X651122Y710081D01*
X651119Y710076D01*
X651084Y709964D01*
X651048Y709853D01*
X651048Y709847D01*
X651046Y709841D01*
X651049Y709724D01*
X651050Y709607D01*
X651053Y709600D01*
X651053Y709595D01*
X651059Y709578D01*
X651097Y709446D01*
X651283Y708998D01*
X651283Y706002D01*
X650136Y703233D01*
X648017Y701114D01*
X645248Y699967D01*
X642252Y699967D01*
G37*
%LPD*%
%LPC*%
G36*
X1039868Y945523D02*
X1039868Y945523D01*
X1040051Y946677D01*
X1040607Y948388D01*
X1041230Y949610D01*
X1041253Y949682D01*
X1041285Y949751D01*
X1041290Y949799D01*
X1041304Y949845D01*
X1041303Y949920D01*
X1041312Y949995D01*
X1041301Y950043D01*
X1041301Y950091D01*
X1041275Y950162D01*
X1041259Y950236D01*
X1041235Y950277D01*
X1041219Y950323D01*
X1041172Y950382D01*
X1041133Y950447D01*
X1041097Y950478D01*
X1041067Y950516D01*
X1041004Y950558D01*
X1040946Y950607D01*
X1040902Y950625D01*
X1040861Y950651D01*
X1040788Y950671D01*
X1040718Y950699D01*
X1040653Y950706D01*
X1040624Y950714D01*
X1040598Y950712D01*
X1040551Y950717D01*
X1040149Y950717D01*
X1038116Y951560D01*
X1036560Y953116D01*
X1035717Y955149D01*
X1035717Y957224D01*
X1035703Y957314D01*
X1035695Y957405D01*
X1035683Y957435D01*
X1035678Y957467D01*
X1035635Y957547D01*
X1035599Y957631D01*
X1035573Y957663D01*
X1035562Y957684D01*
X1035539Y957706D01*
X1035494Y957762D01*
X1033067Y960189D01*
X1033051Y960201D01*
X1033039Y960216D01*
X1032951Y960272D01*
X1032868Y960333D01*
X1032849Y960338D01*
X1032832Y960349D01*
X1032731Y960374D01*
X1032633Y960405D01*
X1032613Y960404D01*
X1032593Y960409D01*
X1032490Y960401D01*
X1032387Y960399D01*
X1032368Y960392D01*
X1032348Y960390D01*
X1032253Y960350D01*
X1032156Y960314D01*
X1032140Y960302D01*
X1032122Y960294D01*
X1031991Y960189D01*
X1031969Y960167D01*
X1027966Y958509D01*
X1023634Y958509D01*
X1019631Y960167D01*
X1016567Y963231D01*
X1014909Y967234D01*
X1014909Y971566D01*
X1016567Y975569D01*
X1019631Y978633D01*
X1023634Y980291D01*
X1027966Y980291D01*
X1031969Y978633D01*
X1035033Y975569D01*
X1036691Y971566D01*
X1036691Y967234D01*
X1036247Y966162D01*
X1036220Y966048D01*
X1036191Y965934D01*
X1036192Y965928D01*
X1036190Y965922D01*
X1036201Y965806D01*
X1036211Y965689D01*
X1036213Y965684D01*
X1036214Y965677D01*
X1036261Y965570D01*
X1036307Y965463D01*
X1036312Y965457D01*
X1036314Y965453D01*
X1036326Y965439D01*
X1036412Y965332D01*
X1039738Y962006D01*
X1039812Y961953D01*
X1039881Y961893D01*
X1039912Y961881D01*
X1039938Y961862D01*
X1040025Y961835D01*
X1040110Y961801D01*
X1040150Y961797D01*
X1040173Y961790D01*
X1040205Y961791D01*
X1040276Y961783D01*
X1041578Y961783D01*
X1041648Y961794D01*
X1041720Y961796D01*
X1041769Y961814D01*
X1041820Y961822D01*
X1041884Y961856D01*
X1041951Y961881D01*
X1041992Y961913D01*
X1042038Y961938D01*
X1042087Y961989D01*
X1042143Y962034D01*
X1042171Y962078D01*
X1042207Y962116D01*
X1042237Y962181D01*
X1042276Y962241D01*
X1042289Y962292D01*
X1042311Y962339D01*
X1042319Y962410D01*
X1042336Y962480D01*
X1042332Y962532D01*
X1042338Y962583D01*
X1042323Y962654D01*
X1042317Y962725D01*
X1042297Y962773D01*
X1042286Y962824D01*
X1042249Y962885D01*
X1042221Y962951D01*
X1042176Y963007D01*
X1042159Y963035D01*
X1042142Y963050D01*
X1042116Y963082D01*
X1041967Y963231D01*
X1040309Y967234D01*
X1040309Y971566D01*
X1041967Y975569D01*
X1045031Y978633D01*
X1049034Y980291D01*
X1053366Y980291D01*
X1057369Y978633D01*
X1060433Y975569D01*
X1062091Y971566D01*
X1062091Y967234D01*
X1060433Y963231D01*
X1057369Y960167D01*
X1053366Y958509D01*
X1049034Y958509D01*
X1047435Y959171D01*
X1047365Y959188D01*
X1047298Y959214D01*
X1047246Y959216D01*
X1047196Y959228D01*
X1047124Y959221D01*
X1047053Y959224D01*
X1047003Y959209D01*
X1046951Y959205D01*
X1046885Y959175D01*
X1046816Y959155D01*
X1046774Y959126D01*
X1046726Y959105D01*
X1046673Y959056D01*
X1046614Y959015D01*
X1046583Y958973D01*
X1046545Y958938D01*
X1046510Y958875D01*
X1046468Y958818D01*
X1046451Y958768D01*
X1046426Y958723D01*
X1046414Y958652D01*
X1046391Y958584D01*
X1046392Y958532D01*
X1046383Y958481D01*
X1046393Y958410D01*
X1046394Y958338D01*
X1046414Y958269D01*
X1046418Y958237D01*
X1046429Y958216D01*
X1046440Y958177D01*
X1046783Y957351D01*
X1046783Y955631D01*
X1046785Y955616D01*
X1046783Y955600D01*
X1046805Y955495D01*
X1046822Y955389D01*
X1046830Y955375D01*
X1046833Y955359D01*
X1046887Y955266D01*
X1046938Y955171D01*
X1046949Y955160D01*
X1046957Y955147D01*
X1047038Y955076D01*
X1047116Y955002D01*
X1047130Y954995D01*
X1047142Y954985D01*
X1047242Y954944D01*
X1047339Y954898D01*
X1047355Y954897D01*
X1047370Y954890D01*
X1047477Y954883D01*
X1047583Y954871D01*
X1047599Y954875D01*
X1047615Y954874D01*
X1047779Y954907D01*
X1048523Y955149D01*
X1049677Y955332D01*
X1049677Y945523D01*
X1039868Y945523D01*
G37*
%LPD*%
%LPC*%
G36*
X957252Y787467D02*
X957252Y787467D01*
X954483Y788614D01*
X952364Y790733D01*
X951217Y793502D01*
X951217Y796498D01*
X951838Y797997D01*
X951848Y798039D01*
X951863Y798073D01*
X951864Y798074D01*
X951868Y798083D01*
X951876Y798160D01*
X951894Y798236D01*
X951890Y798282D01*
X951895Y798327D01*
X951878Y798404D01*
X951871Y798481D01*
X951852Y798523D01*
X951843Y798568D01*
X951803Y798635D01*
X951771Y798706D01*
X951740Y798740D01*
X951716Y798779D01*
X951657Y798830D01*
X951605Y798887D01*
X951564Y798909D01*
X951529Y798939D01*
X951457Y798968D01*
X951389Y799005D01*
X951344Y799014D01*
X951301Y799031D01*
X951165Y799046D01*
X951147Y799049D01*
X951142Y799048D01*
X951135Y799049D01*
X949432Y799049D01*
X946649Y801832D01*
X946649Y810268D01*
X948243Y811862D01*
X948255Y811878D01*
X948270Y811890D01*
X948327Y811978D01*
X948387Y812061D01*
X948393Y812080D01*
X948403Y812097D01*
X948429Y812198D01*
X948459Y812297D01*
X948459Y812316D01*
X948463Y812336D01*
X948455Y812439D01*
X948453Y812542D01*
X948446Y812561D01*
X948444Y812581D01*
X948404Y812676D01*
X948368Y812773D01*
X948356Y812789D01*
X948348Y812807D01*
X948243Y812938D01*
X946649Y814532D01*
X946649Y822968D01*
X949276Y825594D01*
X949287Y825610D01*
X949303Y825623D01*
X949359Y825710D01*
X949419Y825794D01*
X949425Y825813D01*
X949436Y825830D01*
X949461Y825930D01*
X949491Y826029D01*
X949491Y826049D01*
X949496Y826068D01*
X949488Y826171D01*
X949485Y826275D01*
X949478Y826294D01*
X949477Y826313D01*
X949436Y826408D01*
X949401Y826506D01*
X949388Y826521D01*
X949380Y826540D01*
X949276Y826671D01*
X948767Y827179D01*
X948334Y827930D01*
X948109Y828767D01*
X948109Y829951D01*
X959412Y829951D01*
X959431Y829954D01*
X959451Y829952D01*
X959553Y829974D01*
X959655Y829990D01*
X959672Y830000D01*
X959692Y830004D01*
X959781Y830057D01*
X959872Y830106D01*
X959886Y830120D01*
X959903Y830130D01*
X959970Y830209D01*
X960041Y830284D01*
X960050Y830302D01*
X960063Y830317D01*
X960101Y830413D01*
X960145Y830507D01*
X960147Y830527D01*
X960154Y830545D01*
X960167Y830469D01*
X960176Y830452D01*
X960180Y830432D01*
X960233Y830343D01*
X960282Y830252D01*
X960296Y830238D01*
X960306Y830221D01*
X960385Y830154D01*
X960460Y830082D01*
X960478Y830074D01*
X960493Y830061D01*
X960590Y830022D01*
X960683Y829979D01*
X960703Y829977D01*
X960721Y829969D01*
X960888Y829951D01*
X972191Y829951D01*
X972191Y828767D01*
X971966Y827930D01*
X971533Y827179D01*
X971024Y826671D01*
X971013Y826654D01*
X970997Y826642D01*
X970941Y826555D01*
X970881Y826471D01*
X970875Y826452D01*
X970864Y826435D01*
X970839Y826335D01*
X970809Y826236D01*
X970809Y826216D01*
X970804Y826197D01*
X970812Y826094D01*
X970815Y825990D01*
X970822Y825971D01*
X970823Y825951D01*
X970864Y825857D01*
X970899Y825759D01*
X970912Y825743D01*
X970920Y825725D01*
X971024Y825594D01*
X973651Y822968D01*
X973651Y814532D01*
X972057Y812938D01*
X972045Y812922D01*
X972030Y812910D01*
X971974Y812822D01*
X971913Y812739D01*
X971907Y812720D01*
X971897Y812703D01*
X971871Y812602D01*
X971841Y812503D01*
X971841Y812484D01*
X971837Y812464D01*
X971845Y812361D01*
X971847Y812258D01*
X971854Y812239D01*
X971856Y812219D01*
X971896Y812124D01*
X971932Y812027D01*
X971944Y812011D01*
X971952Y811993D01*
X972057Y811862D01*
X973651Y810268D01*
X973651Y801832D01*
X970868Y799049D01*
X966365Y799049D01*
X966320Y799042D01*
X966274Y799044D01*
X966199Y799022D01*
X966123Y799010D01*
X966082Y798988D01*
X966038Y798975D01*
X965974Y798931D01*
X965905Y798894D01*
X965874Y798861D01*
X965836Y798835D01*
X965790Y798773D01*
X965736Y798716D01*
X965717Y798674D01*
X965689Y798638D01*
X965665Y798564D01*
X965632Y798493D01*
X965627Y798447D01*
X965613Y798404D01*
X965614Y798326D01*
X965605Y798249D01*
X965615Y798204D01*
X965615Y798158D01*
X965653Y798026D01*
X965657Y798008D01*
X965660Y798004D01*
X965662Y797998D01*
X965662Y797997D01*
X966283Y796498D01*
X966283Y793502D01*
X965136Y790733D01*
X963017Y788614D01*
X960248Y787467D01*
X957252Y787467D01*
G37*
%LPD*%
%LPC*%
G36*
X950149Y751967D02*
X950149Y751967D01*
X948116Y752810D01*
X946560Y754366D01*
X945717Y756399D01*
X945717Y758474D01*
X945703Y758564D01*
X945695Y758655D01*
X945683Y758685D01*
X945678Y758717D01*
X945635Y758797D01*
X945599Y758881D01*
X945573Y758913D01*
X945562Y758934D01*
X945539Y758956D01*
X945494Y759012D01*
X920550Y783956D01*
X920492Y783998D01*
X920440Y784047D01*
X920393Y784069D01*
X920351Y784100D01*
X920282Y784121D01*
X920217Y784151D01*
X920165Y784157D01*
X920115Y784172D01*
X920044Y784170D01*
X919973Y784178D01*
X919922Y784167D01*
X919870Y784166D01*
X919802Y784141D01*
X919732Y784126D01*
X919688Y784099D01*
X919639Y784081D01*
X919583Y784036D01*
X919521Y784000D01*
X919487Y783960D01*
X919447Y783927D01*
X919408Y783867D01*
X919361Y783813D01*
X919342Y783764D01*
X919314Y783721D01*
X919296Y783651D01*
X919269Y783585D01*
X919261Y783513D01*
X919253Y783482D01*
X919255Y783459D01*
X919251Y783418D01*
X919251Y777639D01*
X919265Y777549D01*
X919273Y777458D01*
X919285Y777428D01*
X919290Y777396D01*
X919333Y777316D01*
X919369Y777232D01*
X919395Y777200D01*
X919406Y777179D01*
X919429Y777157D01*
X919474Y777101D01*
X920940Y775634D01*
X921783Y773601D01*
X921783Y771399D01*
X920940Y769366D01*
X919384Y767810D01*
X917351Y766967D01*
X915149Y766967D01*
X913116Y767810D01*
X911560Y769366D01*
X910717Y771399D01*
X910717Y773601D01*
X911560Y775634D01*
X913026Y777101D01*
X913079Y777175D01*
X913139Y777244D01*
X913151Y777274D01*
X913170Y777301D01*
X913197Y777387D01*
X913231Y777472D01*
X913235Y777513D01*
X913242Y777536D01*
X913241Y777568D01*
X913249Y777639D01*
X913249Y780942D01*
X913235Y781032D01*
X913227Y781123D01*
X913215Y781153D01*
X913210Y781184D01*
X913167Y781265D01*
X913131Y781349D01*
X913105Y781381D01*
X913094Y781402D01*
X913071Y781424D01*
X913026Y781480D01*
X907762Y786744D01*
X907688Y786797D01*
X907619Y786857D01*
X907588Y786869D01*
X907562Y786888D01*
X907475Y786915D01*
X907390Y786949D01*
X907350Y786953D01*
X907327Y786960D01*
X907295Y786959D01*
X907224Y786967D01*
X905149Y786967D01*
X903116Y787810D01*
X901560Y789366D01*
X900717Y791399D01*
X900717Y793601D01*
X901560Y795634D01*
X903116Y797190D01*
X905033Y797985D01*
X905072Y798009D01*
X905115Y798024D01*
X905176Y798073D01*
X905242Y798114D01*
X905272Y798149D01*
X905307Y798178D01*
X905349Y798244D01*
X905399Y798304D01*
X905416Y798346D01*
X905440Y798385D01*
X905459Y798461D01*
X905487Y798533D01*
X905489Y798579D01*
X905500Y798624D01*
X905494Y798701D01*
X905498Y798779D01*
X905485Y798823D01*
X905481Y798869D01*
X905451Y798940D01*
X905429Y799015D01*
X905403Y799053D01*
X905385Y799095D01*
X905300Y799202D01*
X905289Y799217D01*
X905285Y799220D01*
X905280Y799226D01*
X891512Y812994D01*
X891438Y813047D01*
X891369Y813107D01*
X891338Y813119D01*
X891312Y813138D01*
X891225Y813165D01*
X891140Y813199D01*
X891100Y813203D01*
X891077Y813210D01*
X891045Y813209D01*
X890974Y813217D01*
X888899Y813217D01*
X886866Y814060D01*
X885310Y815616D01*
X884467Y817649D01*
X884467Y819851D01*
X885310Y821884D01*
X886866Y823440D01*
X888899Y824283D01*
X891101Y824283D01*
X893134Y823440D01*
X894690Y821884D01*
X895533Y819851D01*
X895533Y817776D01*
X895547Y817686D01*
X895555Y817595D01*
X895567Y817565D01*
X895572Y817533D01*
X895615Y817453D01*
X895651Y817369D01*
X895677Y817337D01*
X895688Y817316D01*
X895711Y817294D01*
X895756Y817238D01*
X949738Y763256D01*
X949812Y763203D01*
X949881Y763143D01*
X949912Y763131D01*
X949938Y763112D01*
X950025Y763085D01*
X950110Y763051D01*
X950150Y763047D01*
X950173Y763040D01*
X950205Y763041D01*
X950276Y763033D01*
X952351Y763033D01*
X954384Y762190D01*
X955940Y760634D01*
X956783Y758601D01*
X956783Y756399D01*
X955940Y754366D01*
X954384Y752810D01*
X952351Y751967D01*
X950149Y751967D01*
G37*
%LPD*%
%LPC*%
G36*
X812649Y655717D02*
X812649Y655717D01*
X810616Y656560D01*
X809060Y658116D01*
X808217Y660149D01*
X808217Y662351D01*
X809060Y664384D01*
X810616Y665940D01*
X812649Y666783D01*
X814724Y666783D01*
X814814Y666797D01*
X814905Y666805D01*
X814935Y666817D01*
X814966Y666822D01*
X815047Y666865D01*
X815131Y666901D01*
X815163Y666927D01*
X815184Y666938D01*
X815206Y666961D01*
X815262Y667006D01*
X838757Y690501D01*
X859692Y690501D01*
X859782Y690515D01*
X859873Y690523D01*
X859903Y690535D01*
X859934Y690540D01*
X860015Y690583D01*
X860099Y690619D01*
X860131Y690645D01*
X860152Y690656D01*
X860174Y690679D01*
X860230Y690724D01*
X876744Y707238D01*
X876797Y707312D01*
X876857Y707381D01*
X876869Y707412D01*
X876888Y707438D01*
X876915Y707525D01*
X876949Y707610D01*
X876953Y707650D01*
X876960Y707673D01*
X876959Y707705D01*
X876967Y707776D01*
X876967Y709851D01*
X877810Y711884D01*
X879366Y713440D01*
X881399Y714283D01*
X883601Y714283D01*
X885634Y713440D01*
X887190Y711884D01*
X888033Y709851D01*
X888033Y707649D01*
X887190Y705616D01*
X885634Y704060D01*
X883601Y703217D01*
X881526Y703217D01*
X881436Y703203D01*
X881345Y703195D01*
X881315Y703183D01*
X881284Y703178D01*
X881203Y703135D01*
X881119Y703099D01*
X881087Y703073D01*
X881066Y703062D01*
X881044Y703039D01*
X880988Y702994D01*
X864474Y686480D01*
X864354Y686360D01*
X864327Y686323D01*
X864293Y686292D01*
X864256Y686224D01*
X864210Y686160D01*
X864197Y686117D01*
X864175Y686076D01*
X864161Y686000D01*
X864138Y685925D01*
X864139Y685879D01*
X864131Y685834D01*
X864142Y685757D01*
X864144Y685679D01*
X864160Y685636D01*
X864167Y685591D01*
X864202Y685521D01*
X864229Y685448D01*
X864257Y685413D01*
X864278Y685372D01*
X864334Y685317D01*
X864382Y685256D01*
X864421Y685232D01*
X864454Y685199D01*
X864574Y685133D01*
X864589Y685123D01*
X864594Y685122D01*
X864601Y685118D01*
X865634Y684690D01*
X867101Y683224D01*
X867175Y683171D01*
X867244Y683111D01*
X867274Y683099D01*
X867301Y683080D01*
X867387Y683053D01*
X867472Y683019D01*
X867513Y683015D01*
X867536Y683008D01*
X867568Y683009D01*
X867639Y683001D01*
X877361Y683001D01*
X877451Y683015D01*
X877542Y683023D01*
X877572Y683035D01*
X877604Y683040D01*
X877684Y683083D01*
X877768Y683119D01*
X877800Y683145D01*
X877821Y683156D01*
X877843Y683179D01*
X877899Y683224D01*
X879366Y684690D01*
X881399Y685533D01*
X883601Y685533D01*
X885634Y684690D01*
X887190Y683134D01*
X888033Y681101D01*
X888033Y678899D01*
X887190Y676866D01*
X885634Y675310D01*
X883601Y674467D01*
X881399Y674467D01*
X879366Y675310D01*
X877899Y676776D01*
X877825Y676829D01*
X877756Y676889D01*
X877726Y676901D01*
X877699Y676920D01*
X877613Y676947D01*
X877528Y676981D01*
X877487Y676985D01*
X877464Y676992D01*
X877432Y676991D01*
X877361Y676999D01*
X867639Y676999D01*
X867549Y676985D01*
X867458Y676977D01*
X867428Y676965D01*
X867396Y676960D01*
X867316Y676917D01*
X867232Y676881D01*
X867200Y676855D01*
X867179Y676844D01*
X867157Y676821D01*
X867101Y676776D01*
X865634Y675310D01*
X863601Y674467D01*
X861399Y674467D01*
X859366Y675310D01*
X857810Y676866D01*
X856967Y678899D01*
X856967Y681101D01*
X857810Y683134D01*
X857875Y683200D01*
X857917Y683258D01*
X857966Y683310D01*
X857988Y683357D01*
X858019Y683399D01*
X858040Y683468D01*
X858070Y683533D01*
X858076Y683585D01*
X858091Y683634D01*
X858089Y683706D01*
X858097Y683777D01*
X858086Y683828D01*
X858085Y683880D01*
X858060Y683948D01*
X858045Y684018D01*
X858018Y684063D01*
X858000Y684111D01*
X857956Y684167D01*
X857919Y684229D01*
X857879Y684263D01*
X857847Y684303D01*
X857786Y684342D01*
X857732Y684389D01*
X857684Y684408D01*
X857640Y684436D01*
X857570Y684454D01*
X857504Y684481D01*
X857432Y684489D01*
X857401Y684497D01*
X857378Y684495D01*
X857337Y684499D01*
X841558Y684499D01*
X841468Y684485D01*
X841377Y684477D01*
X841347Y684465D01*
X841316Y684460D01*
X841235Y684417D01*
X841151Y684381D01*
X841119Y684355D01*
X841098Y684344D01*
X841076Y684321D01*
X841020Y684276D01*
X819506Y662762D01*
X819453Y662688D01*
X819393Y662619D01*
X819381Y662588D01*
X819362Y662562D01*
X819335Y662475D01*
X819301Y662390D01*
X819297Y662350D01*
X819290Y662327D01*
X819291Y662295D01*
X819283Y662224D01*
X819283Y660149D01*
X818440Y658116D01*
X816884Y656560D01*
X814851Y655717D01*
X812649Y655717D01*
G37*
%LPD*%
%LPC*%
G36*
X907649Y883217D02*
X907649Y883217D01*
X905616Y884060D01*
X904060Y885616D01*
X903217Y887649D01*
X903217Y889851D01*
X904060Y891884D01*
X905616Y893440D01*
X907649Y894283D01*
X909724Y894283D01*
X909814Y894297D01*
X909905Y894305D01*
X909935Y894317D01*
X909967Y894322D01*
X910047Y894365D01*
X910131Y894401D01*
X910163Y894427D01*
X910184Y894438D01*
X910206Y894461D01*
X910262Y894506D01*
X941744Y925988D01*
X941797Y926062D01*
X941857Y926131D01*
X941869Y926162D01*
X941888Y926188D01*
X941915Y926275D01*
X941949Y926360D01*
X941953Y926400D01*
X941960Y926423D01*
X941959Y926455D01*
X941967Y926526D01*
X941967Y928601D01*
X942810Y930634D01*
X944366Y932190D01*
X945311Y932582D01*
X945372Y932620D01*
X945437Y932649D01*
X945476Y932684D01*
X945520Y932711D01*
X945566Y932767D01*
X945619Y932815D01*
X945644Y932861D01*
X945677Y932901D01*
X945703Y932968D01*
X945737Y933031D01*
X945746Y933082D01*
X945765Y933131D01*
X945768Y933202D01*
X945781Y933273D01*
X945773Y933324D01*
X945776Y933376D01*
X945756Y933445D01*
X945745Y933516D01*
X945721Y933563D01*
X945707Y933613D01*
X945666Y933671D01*
X945634Y933735D01*
X945596Y933772D01*
X945567Y933815D01*
X945509Y933857D01*
X945458Y933908D01*
X945395Y933942D01*
X945369Y933961D01*
X945347Y933969D01*
X945311Y933989D01*
X943431Y934767D01*
X940367Y937831D01*
X938709Y941834D01*
X938709Y946166D01*
X940367Y950169D01*
X943431Y953233D01*
X947434Y954891D01*
X951766Y954891D01*
X955769Y953233D01*
X958833Y950169D01*
X960491Y946166D01*
X960491Y941834D01*
X958833Y937831D01*
X955769Y934767D01*
X951766Y933109D01*
X951553Y933109D01*
X951482Y933098D01*
X951411Y933096D01*
X951362Y933078D01*
X951310Y933070D01*
X951247Y933036D01*
X951180Y933011D01*
X951139Y932979D01*
X951093Y932954D01*
X951044Y932902D01*
X950988Y932858D01*
X950959Y932814D01*
X950924Y932776D01*
X950893Y932711D01*
X950855Y932651D01*
X950842Y932600D01*
X950820Y932553D01*
X950812Y932482D01*
X950794Y932412D01*
X950799Y932360D01*
X950793Y932309D01*
X950808Y932238D01*
X950814Y932167D01*
X950834Y932119D01*
X950845Y932068D01*
X950882Y932007D01*
X950910Y931941D01*
X950955Y931885D01*
X950971Y931857D01*
X950989Y931842D01*
X951015Y931810D01*
X952190Y930634D01*
X953033Y928601D01*
X953033Y926399D01*
X952190Y924366D01*
X950634Y922810D01*
X948601Y921967D01*
X946526Y921967D01*
X946436Y921953D01*
X946345Y921945D01*
X946315Y921933D01*
X946283Y921928D01*
X946203Y921885D01*
X946119Y921849D01*
X946087Y921823D01*
X946066Y921812D01*
X946044Y921789D01*
X945988Y921744D01*
X914506Y890262D01*
X914453Y890188D01*
X914393Y890119D01*
X914381Y890088D01*
X914362Y890062D01*
X914335Y889975D01*
X914301Y889890D01*
X914297Y889850D01*
X914290Y889827D01*
X914291Y889795D01*
X914283Y889724D01*
X914283Y887649D01*
X913440Y885616D01*
X911884Y884060D01*
X909851Y883217D01*
X907649Y883217D01*
G37*
%LPD*%
%LPC*%
G36*
X1470394Y954309D02*
X1470394Y954309D01*
X1466391Y955967D01*
X1463327Y959031D01*
X1461669Y963034D01*
X1461669Y967366D01*
X1463327Y971369D01*
X1466391Y974433D01*
X1470394Y976091D01*
X1492506Y976091D01*
X1496509Y974433D01*
X1499573Y971369D01*
X1501231Y967366D01*
X1501231Y963034D01*
X1499573Y959031D01*
X1496509Y955967D01*
X1492506Y954309D01*
X1470394Y954309D01*
G37*
%LPD*%
%LPC*%
G36*
X1406894Y954309D02*
X1406894Y954309D01*
X1402891Y955967D01*
X1399827Y959031D01*
X1398169Y963034D01*
X1398169Y967366D01*
X1399827Y971369D01*
X1402891Y974433D01*
X1406894Y976091D01*
X1429006Y976091D01*
X1433009Y974433D01*
X1436073Y971369D01*
X1437731Y967366D01*
X1437731Y963034D01*
X1436073Y959031D01*
X1433009Y955967D01*
X1429006Y954309D01*
X1406894Y954309D01*
G37*
%LPD*%
%LPC*%
G36*
X171194Y954309D02*
X171194Y954309D01*
X167191Y955967D01*
X164127Y959031D01*
X162469Y963034D01*
X162469Y967366D01*
X164127Y971369D01*
X167191Y974433D01*
X171194Y976091D01*
X193306Y976091D01*
X197309Y974433D01*
X200373Y971369D01*
X202031Y967366D01*
X202031Y963034D01*
X200373Y959031D01*
X197309Y955967D01*
X193306Y954309D01*
X171194Y954309D01*
G37*
%LPD*%
%LPC*%
G36*
X107694Y954309D02*
X107694Y954309D01*
X103691Y955967D01*
X100627Y959031D01*
X98969Y963034D01*
X98969Y967366D01*
X100627Y971369D01*
X103691Y974433D01*
X107694Y976091D01*
X129806Y976091D01*
X133809Y974433D01*
X136873Y971369D01*
X138531Y967366D01*
X138531Y963034D01*
X136873Y959031D01*
X133809Y955967D01*
X129806Y954309D01*
X107694Y954309D01*
G37*
%LPD*%
%LPC*%
G36*
X1470394Y909309D02*
X1470394Y909309D01*
X1466391Y910967D01*
X1463327Y914031D01*
X1461669Y918034D01*
X1461669Y922366D01*
X1463327Y926369D01*
X1466391Y929433D01*
X1470394Y931091D01*
X1492506Y931091D01*
X1496509Y929433D01*
X1499573Y926369D01*
X1501231Y922366D01*
X1501231Y918034D01*
X1499573Y914031D01*
X1496509Y910967D01*
X1492506Y909309D01*
X1470394Y909309D01*
G37*
%LPD*%
%LPC*%
G36*
X171194Y909309D02*
X171194Y909309D01*
X167191Y910967D01*
X164127Y914031D01*
X162469Y918034D01*
X162469Y922366D01*
X164127Y926369D01*
X167191Y929433D01*
X171194Y931091D01*
X193306Y931091D01*
X197309Y929433D01*
X200373Y926369D01*
X202031Y922366D01*
X202031Y918034D01*
X200373Y914031D01*
X197309Y910967D01*
X193306Y909309D01*
X171194Y909309D01*
G37*
%LPD*%
%LPC*%
G36*
X107694Y909309D02*
X107694Y909309D01*
X103691Y910967D01*
X100627Y914031D01*
X98969Y918034D01*
X98969Y922366D01*
X100627Y926369D01*
X103691Y929433D01*
X107694Y931091D01*
X129806Y931091D01*
X133809Y929433D01*
X136873Y926369D01*
X138531Y922366D01*
X138531Y918034D01*
X136873Y914031D01*
X133809Y910967D01*
X129806Y909309D01*
X107694Y909309D01*
G37*
%LPD*%
%LPC*%
G36*
X1406894Y909309D02*
X1406894Y909309D01*
X1402891Y910967D01*
X1399827Y914031D01*
X1398169Y918034D01*
X1398169Y922366D01*
X1399827Y926369D01*
X1402891Y929433D01*
X1406894Y931091D01*
X1429006Y931091D01*
X1433009Y929433D01*
X1436073Y926369D01*
X1437731Y922366D01*
X1437731Y918034D01*
X1436073Y914031D01*
X1433009Y910967D01*
X1429006Y909309D01*
X1406894Y909309D01*
G37*
%LPD*%
%LPC*%
G36*
X223776Y895974D02*
X223776Y895974D01*
X218373Y898212D01*
X214237Y902348D01*
X211999Y907751D01*
X211999Y913599D01*
X214237Y919002D01*
X218373Y923138D01*
X223776Y925376D01*
X229624Y925376D01*
X235027Y923138D01*
X239163Y919002D01*
X241401Y913599D01*
X241401Y907751D01*
X239163Y902348D01*
X235027Y898212D01*
X229624Y895974D01*
X223776Y895974D01*
G37*
%LPD*%
%LPC*%
G36*
X71376Y895974D02*
X71376Y895974D01*
X65973Y898212D01*
X61837Y902348D01*
X59599Y907751D01*
X59599Y913599D01*
X61837Y919002D01*
X65973Y923138D01*
X71376Y925376D01*
X77224Y925376D01*
X82627Y923138D01*
X86763Y919002D01*
X89001Y913599D01*
X89001Y907751D01*
X86763Y902348D01*
X82627Y898212D01*
X77224Y895974D01*
X71376Y895974D01*
G37*
%LPD*%
%LPC*%
G36*
X1522976Y895974D02*
X1522976Y895974D01*
X1517573Y898212D01*
X1513437Y902348D01*
X1511199Y907751D01*
X1511199Y913599D01*
X1513437Y919002D01*
X1517573Y923138D01*
X1522976Y925376D01*
X1528824Y925376D01*
X1534227Y923138D01*
X1538363Y919002D01*
X1540601Y913599D01*
X1540601Y907751D01*
X1538363Y902348D01*
X1534227Y898212D01*
X1528824Y895974D01*
X1522976Y895974D01*
G37*
%LPD*%
%LPC*%
G36*
X71376Y762624D02*
X71376Y762624D01*
X65973Y764862D01*
X61837Y768998D01*
X59599Y774401D01*
X59599Y780249D01*
X61837Y785652D01*
X65973Y789788D01*
X71376Y792026D01*
X77224Y792026D01*
X82627Y789788D01*
X86763Y785652D01*
X89001Y780249D01*
X89001Y774401D01*
X86763Y768998D01*
X82627Y764862D01*
X77224Y762624D01*
X71376Y762624D01*
G37*
%LPD*%
%LPC*%
G36*
X1370576Y762624D02*
X1370576Y762624D01*
X1365173Y764862D01*
X1361037Y768998D01*
X1358799Y774401D01*
X1358799Y780249D01*
X1361037Y785652D01*
X1365173Y789788D01*
X1370576Y792026D01*
X1376424Y792026D01*
X1381827Y789788D01*
X1385963Y785652D01*
X1388201Y780249D01*
X1388201Y774401D01*
X1385963Y768998D01*
X1381827Y764862D01*
X1376424Y762624D01*
X1370576Y762624D01*
G37*
%LPD*%
%LPC*%
G36*
X223776Y762624D02*
X223776Y762624D01*
X218373Y764862D01*
X214237Y768998D01*
X211999Y774401D01*
X211999Y780249D01*
X214237Y785652D01*
X218373Y789788D01*
X223776Y792026D01*
X229624Y792026D01*
X235027Y789788D01*
X239163Y785652D01*
X241401Y780249D01*
X241401Y774401D01*
X239163Y768998D01*
X235027Y764862D01*
X229624Y762624D01*
X223776Y762624D01*
G37*
%LPD*%
%LPC*%
G36*
X1522976Y762624D02*
X1522976Y762624D01*
X1517573Y764862D01*
X1513437Y768998D01*
X1511199Y774401D01*
X1511199Y780249D01*
X1513437Y785652D01*
X1517573Y789788D01*
X1522976Y792026D01*
X1528824Y792026D01*
X1534227Y789788D01*
X1538363Y785652D01*
X1540601Y780249D01*
X1540601Y774401D01*
X1538363Y768998D01*
X1534227Y764862D01*
X1528824Y762624D01*
X1522976Y762624D01*
G37*
%LPD*%
%LPC*%
G36*
X1370576Y895974D02*
X1370576Y895974D01*
X1365173Y898212D01*
X1361037Y902348D01*
X1358799Y907751D01*
X1358799Y913599D01*
X1361037Y919002D01*
X1365173Y923138D01*
X1370576Y925376D01*
X1376424Y925376D01*
X1381827Y923138D01*
X1385963Y919002D01*
X1388201Y913599D01*
X1388201Y907751D01*
X1385963Y902348D01*
X1381827Y898212D01*
X1376424Y895974D01*
X1370576Y895974D01*
G37*
%LPD*%
%LPC*%
G36*
X558053Y931109D02*
X558053Y931109D01*
X555709Y933453D01*
X555709Y954547D01*
X558053Y956891D01*
X579147Y956891D01*
X581491Y954547D01*
X581491Y933453D01*
X579147Y931109D01*
X558053Y931109D01*
G37*
%LPD*%
%LPC*%
G36*
X490237Y783624D02*
X490237Y783624D01*
X486056Y785356D01*
X482856Y788556D01*
X481124Y792737D01*
X481124Y797263D01*
X482856Y801444D01*
X486056Y804644D01*
X489029Y805875D01*
X489129Y805937D01*
X489229Y805997D01*
X489233Y806002D01*
X489238Y806005D01*
X489313Y806095D01*
X489389Y806184D01*
X489391Y806190D01*
X489395Y806195D01*
X489437Y806303D01*
X489481Y806412D01*
X489482Y806420D01*
X489483Y806424D01*
X489484Y806442D01*
X489499Y806579D01*
X489499Y816111D01*
X489485Y816201D01*
X489477Y816292D01*
X489465Y816322D01*
X489460Y816354D01*
X489417Y816434D01*
X489381Y816518D01*
X489355Y816550D01*
X489344Y816571D01*
X489321Y816593D01*
X489276Y816649D01*
X487810Y818116D01*
X486967Y820149D01*
X486967Y822351D01*
X487810Y824384D01*
X489366Y825940D01*
X491399Y826783D01*
X493601Y826783D01*
X495634Y825940D01*
X497190Y824384D01*
X498033Y822351D01*
X498033Y820149D01*
X497190Y818116D01*
X495724Y816649D01*
X495671Y816575D01*
X495611Y816506D01*
X495599Y816476D01*
X495580Y816449D01*
X495553Y816363D01*
X495519Y816278D01*
X495515Y816237D01*
X495508Y816214D01*
X495509Y816182D01*
X495501Y816111D01*
X495501Y806579D01*
X495520Y806464D01*
X495537Y806348D01*
X495539Y806342D01*
X495540Y806336D01*
X495595Y806233D01*
X495648Y806129D01*
X495653Y806124D01*
X495656Y806119D01*
X495740Y806039D01*
X495824Y805956D01*
X495830Y805953D01*
X495834Y805949D01*
X495851Y805941D01*
X495971Y805875D01*
X498944Y804644D01*
X502144Y801444D01*
X503876Y797263D01*
X503876Y792737D01*
X502144Y788556D01*
X498944Y785356D01*
X494763Y783624D01*
X490237Y783624D01*
G37*
%LPD*%
%LPC*%
G36*
X1421736Y729509D02*
X1421736Y729509D01*
X1416998Y731472D01*
X1413372Y735098D01*
X1411409Y739836D01*
X1411409Y744964D01*
X1413372Y749702D01*
X1416998Y753328D01*
X1421736Y755291D01*
X1426864Y755291D01*
X1431602Y753328D01*
X1435228Y749702D01*
X1437191Y744964D01*
X1437191Y739836D01*
X1435228Y735098D01*
X1431602Y731472D01*
X1426864Y729509D01*
X1421736Y729509D01*
G37*
%LPD*%
%LPC*%
G36*
X122536Y729509D02*
X122536Y729509D01*
X117798Y731472D01*
X114172Y735098D01*
X112209Y739836D01*
X112209Y744964D01*
X114172Y749702D01*
X117798Y753328D01*
X122536Y755291D01*
X127664Y755291D01*
X132402Y753328D01*
X136028Y749702D01*
X137991Y744964D01*
X137991Y739836D01*
X136028Y735098D01*
X132402Y731472D01*
X127664Y729509D01*
X122536Y729509D01*
G37*
%LPD*%
%LPC*%
G36*
X46336Y856509D02*
X46336Y856509D01*
X41598Y858472D01*
X37972Y862098D01*
X36009Y866836D01*
X36009Y871964D01*
X37972Y876702D01*
X41598Y880328D01*
X46336Y882291D01*
X51464Y882291D01*
X56202Y880328D01*
X59828Y876702D01*
X61791Y871964D01*
X61791Y866836D01*
X59828Y862098D01*
X56202Y858472D01*
X51464Y856509D01*
X46336Y856509D01*
G37*
%LPD*%
%LPC*%
G36*
X1345536Y856509D02*
X1345536Y856509D01*
X1340798Y858472D01*
X1337172Y862098D01*
X1335209Y866836D01*
X1335209Y871964D01*
X1337172Y876702D01*
X1340798Y880328D01*
X1345536Y882291D01*
X1350664Y882291D01*
X1355402Y880328D01*
X1359028Y876702D01*
X1360991Y871964D01*
X1360991Y866836D01*
X1359028Y862098D01*
X1355402Y858472D01*
X1350664Y856509D01*
X1345536Y856509D01*
G37*
%LPD*%
%LPC*%
G36*
X769236Y931109D02*
X769236Y931109D01*
X764498Y933072D01*
X760872Y936698D01*
X758909Y941436D01*
X758909Y946564D01*
X760872Y951302D01*
X764498Y954928D01*
X769236Y956891D01*
X774364Y956891D01*
X779102Y954928D01*
X782728Y951302D01*
X784691Y946564D01*
X784691Y941436D01*
X782728Y936698D01*
X779102Y933072D01*
X774364Y931109D01*
X769236Y931109D01*
G37*
%LPD*%
%LPC*%
G36*
X864752Y633717D02*
X864752Y633717D01*
X861983Y634864D01*
X859864Y636983D01*
X858717Y639752D01*
X858717Y642748D01*
X859864Y645517D01*
X861983Y647636D01*
X864752Y648783D01*
X864981Y648783D01*
X865071Y648797D01*
X865162Y648805D01*
X865192Y648817D01*
X865224Y648822D01*
X865305Y648865D01*
X865388Y648901D01*
X865421Y648927D01*
X865441Y648938D01*
X865463Y648961D01*
X865519Y649006D01*
X874744Y658231D01*
X874797Y658305D01*
X874857Y658374D01*
X874869Y658404D01*
X874888Y658430D01*
X874915Y658517D01*
X874949Y658602D01*
X874953Y658643D01*
X874960Y658665D01*
X874959Y658698D01*
X874967Y658769D01*
X874967Y658998D01*
X876114Y661767D01*
X878233Y663886D01*
X881002Y665033D01*
X883998Y665033D01*
X886767Y663886D01*
X888886Y661767D01*
X890033Y658998D01*
X890033Y656002D01*
X888886Y653233D01*
X886767Y651114D01*
X883998Y649967D01*
X883769Y649967D01*
X883679Y649953D01*
X883588Y649945D01*
X883558Y649933D01*
X883526Y649928D01*
X883445Y649885D01*
X883362Y649849D01*
X883329Y649823D01*
X883309Y649812D01*
X883287Y649789D01*
X883231Y649744D01*
X874006Y640519D01*
X873953Y640445D01*
X873893Y640376D01*
X873881Y640346D01*
X873862Y640320D01*
X873835Y640233D01*
X873801Y640148D01*
X873797Y640107D01*
X873790Y640085D01*
X873791Y640052D01*
X873783Y639981D01*
X873783Y639752D01*
X872636Y636983D01*
X870517Y634864D01*
X867748Y633717D01*
X864752Y633717D01*
G37*
%LPD*%
%LPC*%
G36*
X658502Y746217D02*
X658502Y746217D01*
X655733Y747364D01*
X653614Y749483D01*
X652467Y752252D01*
X652467Y755248D01*
X653614Y758017D01*
X653776Y758179D01*
X653822Y758243D01*
X653843Y758265D01*
X653847Y758274D01*
X653889Y758323D01*
X653901Y758353D01*
X653920Y758379D01*
X653947Y758466D01*
X653981Y758551D01*
X653985Y758592D01*
X653992Y758614D01*
X653991Y758646D01*
X653999Y758717D01*
X653999Y768783D01*
X653985Y768873D01*
X653977Y768964D01*
X653965Y768993D01*
X653960Y769025D01*
X653917Y769106D01*
X653881Y769190D01*
X653855Y769222D01*
X653844Y769243D01*
X653821Y769265D01*
X653776Y769321D01*
X653614Y769483D01*
X652467Y772252D01*
X652467Y775248D01*
X653614Y778017D01*
X655733Y780136D01*
X658502Y781283D01*
X661498Y781283D01*
X664267Y780136D01*
X666386Y778017D01*
X667533Y775248D01*
X667533Y772252D01*
X666386Y769483D01*
X666224Y769321D01*
X666171Y769247D01*
X666111Y769177D01*
X666099Y769147D01*
X666080Y769121D01*
X666053Y769034D01*
X666019Y768949D01*
X666015Y768908D01*
X666008Y768886D01*
X666009Y768854D01*
X666001Y768783D01*
X666001Y758717D01*
X666015Y758627D01*
X666023Y758536D01*
X666035Y758507D01*
X666040Y758475D01*
X666083Y758394D01*
X666119Y758310D01*
X666145Y758278D01*
X666156Y758257D01*
X666179Y758235D01*
X666203Y758205D01*
X666205Y758202D01*
X666207Y758200D01*
X666224Y758179D01*
X666386Y758017D01*
X667533Y755248D01*
X667533Y752252D01*
X666386Y749483D01*
X664267Y747364D01*
X661498Y746217D01*
X658502Y746217D01*
G37*
%LPD*%
%LPC*%
G36*
X733502Y743717D02*
X733502Y743717D01*
X730733Y744864D01*
X728614Y746983D01*
X727467Y749752D01*
X727467Y752748D01*
X728614Y755517D01*
X730733Y757636D01*
X733502Y758783D01*
X733731Y758783D01*
X733821Y758797D01*
X733912Y758805D01*
X733942Y758817D01*
X733974Y758822D01*
X734055Y758865D01*
X734138Y758901D01*
X734171Y758927D01*
X734191Y758938D01*
X734213Y758961D01*
X734269Y759006D01*
X740994Y765731D01*
X741047Y765805D01*
X741107Y765874D01*
X741119Y765904D01*
X741138Y765930D01*
X741165Y766017D01*
X741199Y766102D01*
X741203Y766143D01*
X741210Y766165D01*
X741209Y766198D01*
X741217Y766269D01*
X741217Y766498D01*
X742364Y769267D01*
X744483Y771386D01*
X747252Y772533D01*
X750248Y772533D01*
X753017Y771386D01*
X755136Y769267D01*
X756283Y766498D01*
X756283Y763502D01*
X755136Y760733D01*
X753017Y758614D01*
X750248Y757467D01*
X750019Y757467D01*
X749929Y757453D01*
X749838Y757445D01*
X749808Y757433D01*
X749776Y757428D01*
X749695Y757385D01*
X749612Y757349D01*
X749579Y757323D01*
X749559Y757312D01*
X749537Y757289D01*
X749481Y757244D01*
X742756Y750519D01*
X742703Y750445D01*
X742643Y750376D01*
X742631Y750346D01*
X742612Y750320D01*
X742585Y750233D01*
X742551Y750148D01*
X742547Y750107D01*
X742540Y750085D01*
X742541Y750052D01*
X742533Y749981D01*
X742533Y749752D01*
X741386Y746983D01*
X739267Y744864D01*
X736498Y743717D01*
X733502Y743717D01*
G37*
%LPD*%
%LPC*%
G36*
X1230237Y783624D02*
X1230237Y783624D01*
X1226056Y785356D01*
X1222856Y788556D01*
X1221124Y792737D01*
X1221124Y797263D01*
X1222856Y801444D01*
X1226056Y804644D01*
X1230237Y806376D01*
X1234763Y806376D01*
X1238944Y804644D01*
X1242144Y801444D01*
X1243876Y797263D01*
X1243876Y792737D01*
X1242144Y788556D01*
X1238944Y785356D01*
X1234763Y783624D01*
X1230237Y783624D01*
G37*
%LPD*%
%LPC*%
G36*
X85237Y473624D02*
X85237Y473624D01*
X81056Y475356D01*
X77856Y478556D01*
X76124Y482737D01*
X76124Y487263D01*
X77856Y491444D01*
X81056Y494644D01*
X85237Y496376D01*
X89763Y496376D01*
X93944Y494644D01*
X97144Y491444D01*
X98876Y487263D01*
X98876Y482737D01*
X97144Y478556D01*
X93944Y475356D01*
X89763Y473624D01*
X85237Y473624D01*
G37*
%LPD*%
%LPC*%
G36*
X1165237Y603624D02*
X1165237Y603624D01*
X1161056Y605356D01*
X1157856Y608556D01*
X1156124Y612737D01*
X1156124Y617263D01*
X1157856Y621444D01*
X1161056Y624644D01*
X1165237Y626376D01*
X1169763Y626376D01*
X1173944Y624644D01*
X1177144Y621444D01*
X1178876Y617263D01*
X1178876Y612737D01*
X1177144Y608556D01*
X1173944Y605356D01*
X1169763Y603624D01*
X1165237Y603624D01*
G37*
%LPD*%
%LPC*%
G36*
X1290237Y603624D02*
X1290237Y603624D01*
X1286056Y605356D01*
X1282856Y608556D01*
X1281124Y612737D01*
X1281124Y617263D01*
X1282856Y621444D01*
X1286056Y624644D01*
X1290237Y626376D01*
X1294763Y626376D01*
X1298944Y624644D01*
X1302144Y621444D01*
X1303876Y617263D01*
X1303876Y612737D01*
X1302144Y608556D01*
X1298944Y605356D01*
X1294763Y603624D01*
X1290237Y603624D01*
G37*
%LPD*%
%LPC*%
G36*
X305237Y603624D02*
X305237Y603624D01*
X301056Y605356D01*
X297856Y608556D01*
X296124Y612737D01*
X296124Y617263D01*
X297856Y621444D01*
X301056Y624644D01*
X305237Y626376D01*
X309763Y626376D01*
X313944Y624644D01*
X317144Y621444D01*
X318876Y617263D01*
X318876Y612737D01*
X317144Y608556D01*
X313944Y605356D01*
X309763Y603624D01*
X305237Y603624D01*
G37*
%LPD*%
%LPC*%
G36*
X1385237Y473624D02*
X1385237Y473624D01*
X1381056Y475356D01*
X1377856Y478556D01*
X1376124Y482737D01*
X1376124Y487263D01*
X1377856Y491444D01*
X1381056Y494644D01*
X1385237Y496376D01*
X1389763Y496376D01*
X1393944Y494644D01*
X1397144Y491444D01*
X1398876Y487263D01*
X1398876Y482737D01*
X1397144Y478556D01*
X1393944Y475356D01*
X1389763Y473624D01*
X1385237Y473624D01*
G37*
%LPD*%
%LPC*%
G36*
X365237Y783624D02*
X365237Y783624D01*
X361056Y785356D01*
X357856Y788556D01*
X356124Y792737D01*
X356124Y797263D01*
X357856Y801444D01*
X361056Y804644D01*
X365237Y806376D01*
X369763Y806376D01*
X373944Y804644D01*
X377144Y801444D01*
X378876Y797263D01*
X378876Y792737D01*
X377144Y788556D01*
X373944Y785356D01*
X369763Y783624D01*
X365237Y783624D01*
G37*
%LPD*%
%LPC*%
G36*
X1105237Y783624D02*
X1105237Y783624D01*
X1101056Y785356D01*
X1097856Y788556D01*
X1096124Y792737D01*
X1096124Y797263D01*
X1097856Y801444D01*
X1101056Y804644D01*
X1105237Y806376D01*
X1109763Y806376D01*
X1113944Y804644D01*
X1117144Y801444D01*
X1118876Y797263D01*
X1118876Y792737D01*
X1117144Y788556D01*
X1113944Y785356D01*
X1109763Y783624D01*
X1105237Y783624D01*
G37*
%LPD*%
%LPC*%
G36*
X430237Y603624D02*
X430237Y603624D01*
X426056Y605356D01*
X422856Y608556D01*
X421124Y612737D01*
X421124Y617263D01*
X422856Y621444D01*
X426056Y624644D01*
X430237Y626376D01*
X434763Y626376D01*
X438944Y624644D01*
X442144Y621444D01*
X443876Y617263D01*
X443876Y612737D01*
X442144Y608556D01*
X438944Y605356D01*
X434763Y603624D01*
X430237Y603624D01*
G37*
%LPD*%
%LPC*%
G36*
X1510237Y473624D02*
X1510237Y473624D01*
X1506056Y475356D01*
X1502856Y478556D01*
X1501124Y482737D01*
X1501124Y487263D01*
X1502856Y491444D01*
X1506056Y494644D01*
X1510237Y496376D01*
X1514763Y496376D01*
X1518944Y494644D01*
X1522144Y491444D01*
X1523876Y487263D01*
X1523876Y482737D01*
X1522144Y478556D01*
X1518944Y475356D01*
X1514763Y473624D01*
X1510237Y473624D01*
G37*
%LPD*%
%LPC*%
G36*
X210237Y473624D02*
X210237Y473624D01*
X206056Y475356D01*
X202856Y478556D01*
X201124Y482737D01*
X201124Y487263D01*
X202856Y491444D01*
X206056Y494644D01*
X210237Y496376D01*
X214763Y496376D01*
X218944Y494644D01*
X222144Y491444D01*
X223876Y487263D01*
X223876Y482737D01*
X222144Y478556D01*
X218944Y475356D01*
X214763Y473624D01*
X210237Y473624D01*
G37*
%LPD*%
%LPC*%
G36*
X148334Y731509D02*
X148334Y731509D01*
X144331Y733167D01*
X141267Y736231D01*
X139609Y740234D01*
X139609Y744566D01*
X141267Y748569D01*
X144331Y751633D01*
X148334Y753291D01*
X152666Y753291D01*
X156669Y751633D01*
X159733Y748569D01*
X161391Y744566D01*
X161391Y740234D01*
X159733Y736231D01*
X156669Y733167D01*
X152666Y731509D01*
X148334Y731509D01*
G37*
%LPD*%
%LPC*%
G36*
X1345934Y833109D02*
X1345934Y833109D01*
X1341931Y834767D01*
X1338867Y837831D01*
X1337209Y841834D01*
X1337209Y846166D01*
X1338867Y850169D01*
X1341931Y853233D01*
X1345934Y854891D01*
X1350266Y854891D01*
X1354269Y853233D01*
X1357333Y850169D01*
X1358991Y846166D01*
X1358991Y841834D01*
X1357333Y837831D01*
X1354269Y834767D01*
X1350266Y833109D01*
X1345934Y833109D01*
G37*
%LPD*%
%LPC*%
G36*
X46734Y833109D02*
X46734Y833109D01*
X42731Y834767D01*
X39667Y837831D01*
X38009Y841834D01*
X38009Y846166D01*
X39667Y850169D01*
X42731Y853233D01*
X46734Y854891D01*
X51066Y854891D01*
X55069Y853233D01*
X58133Y850169D01*
X59791Y846166D01*
X59791Y841834D01*
X58133Y837831D01*
X55069Y834767D01*
X51066Y833109D01*
X46734Y833109D01*
G37*
%LPD*%
%LPC*%
G36*
X769634Y958509D02*
X769634Y958509D01*
X765631Y960167D01*
X762567Y963231D01*
X760909Y967234D01*
X760909Y971566D01*
X762567Y975569D01*
X765631Y978633D01*
X769634Y980291D01*
X773966Y980291D01*
X777969Y978633D01*
X781033Y975569D01*
X782691Y971566D01*
X782691Y967234D01*
X781033Y963231D01*
X777969Y960167D01*
X773966Y958509D01*
X769634Y958509D01*
G37*
%LPD*%
%LPC*%
G36*
X871234Y958509D02*
X871234Y958509D01*
X867231Y960167D01*
X864167Y963231D01*
X862509Y967234D01*
X862509Y971566D01*
X864167Y975569D01*
X867231Y978633D01*
X871234Y980291D01*
X875566Y980291D01*
X879569Y978633D01*
X882633Y975569D01*
X884291Y971566D01*
X884291Y967234D01*
X882633Y963231D01*
X879569Y960167D01*
X875566Y958509D01*
X871234Y958509D01*
G37*
%LPD*%
%LPC*%
G36*
X820434Y958509D02*
X820434Y958509D01*
X816431Y960167D01*
X813367Y963231D01*
X811709Y967234D01*
X811709Y971566D01*
X813367Y975569D01*
X816431Y978633D01*
X820434Y980291D01*
X824766Y980291D01*
X828769Y978633D01*
X831833Y975569D01*
X833491Y971566D01*
X833491Y967234D01*
X831833Y963231D01*
X828769Y960167D01*
X824766Y958509D01*
X820434Y958509D01*
G37*
%LPD*%
%LPC*%
G36*
X845834Y958509D02*
X845834Y958509D01*
X841831Y960167D01*
X838767Y963231D01*
X837109Y967234D01*
X837109Y971566D01*
X838767Y975569D01*
X841831Y978633D01*
X845834Y980291D01*
X850166Y980291D01*
X854169Y978633D01*
X857233Y975569D01*
X858891Y971566D01*
X858891Y967234D01*
X857233Y963231D01*
X854169Y960167D01*
X850166Y958509D01*
X845834Y958509D01*
G37*
%LPD*%
%LPC*%
G36*
X642634Y958509D02*
X642634Y958509D01*
X638631Y960167D01*
X635567Y963231D01*
X633909Y967234D01*
X633909Y971566D01*
X635567Y975569D01*
X638631Y978633D01*
X642634Y980291D01*
X646966Y980291D01*
X650969Y978633D01*
X654033Y975569D01*
X655691Y971566D01*
X655691Y967234D01*
X654033Y963231D01*
X650969Y960167D01*
X646966Y958509D01*
X642634Y958509D01*
G37*
%LPD*%
%LPC*%
G36*
X744234Y958509D02*
X744234Y958509D01*
X740231Y960167D01*
X737167Y963231D01*
X735509Y967234D01*
X735509Y971566D01*
X737167Y975569D01*
X740231Y978633D01*
X744234Y980291D01*
X748566Y980291D01*
X752569Y978633D01*
X755633Y975569D01*
X757291Y971566D01*
X757291Y967234D01*
X755633Y963231D01*
X752569Y960167D01*
X748566Y958509D01*
X744234Y958509D01*
G37*
%LPD*%
%LPC*%
G36*
X668034Y958509D02*
X668034Y958509D01*
X664031Y960167D01*
X660967Y963231D01*
X659309Y967234D01*
X659309Y971566D01*
X660967Y975569D01*
X664031Y978633D01*
X668034Y980291D01*
X672366Y980291D01*
X676369Y978633D01*
X679433Y975569D01*
X681091Y971566D01*
X681091Y967234D01*
X679433Y963231D01*
X676369Y960167D01*
X672366Y958509D01*
X668034Y958509D01*
G37*
%LPD*%
%LPC*%
G36*
X693434Y958509D02*
X693434Y958509D01*
X689431Y960167D01*
X686367Y963231D01*
X684709Y967234D01*
X684709Y971566D01*
X686367Y975569D01*
X689431Y978633D01*
X693434Y980291D01*
X697766Y980291D01*
X701769Y978633D01*
X704833Y975569D01*
X706491Y971566D01*
X706491Y967234D01*
X704833Y963231D01*
X701769Y960167D01*
X697766Y958509D01*
X693434Y958509D01*
G37*
%LPD*%
%LPC*%
G36*
X998234Y958509D02*
X998234Y958509D01*
X994231Y960167D01*
X991167Y963231D01*
X989509Y967234D01*
X989509Y971566D01*
X991167Y975569D01*
X994231Y978633D01*
X998234Y980291D01*
X1002566Y980291D01*
X1006569Y978633D01*
X1009633Y975569D01*
X1011291Y971566D01*
X1011291Y967234D01*
X1009633Y963231D01*
X1006569Y960167D01*
X1002566Y958509D01*
X998234Y958509D01*
G37*
%LPD*%
%LPC*%
G36*
X947434Y958509D02*
X947434Y958509D01*
X943431Y960167D01*
X940367Y963231D01*
X938709Y967234D01*
X938709Y971566D01*
X940367Y975569D01*
X943431Y978633D01*
X947434Y980291D01*
X951766Y980291D01*
X955769Y978633D01*
X958833Y975569D01*
X960491Y971566D01*
X960491Y967234D01*
X958833Y963231D01*
X955769Y960167D01*
X951766Y958509D01*
X947434Y958509D01*
G37*
%LPD*%
%LPC*%
G36*
X896634Y958509D02*
X896634Y958509D01*
X892631Y960167D01*
X889567Y963231D01*
X887909Y967234D01*
X887909Y971566D01*
X889567Y975569D01*
X892631Y978633D01*
X896634Y980291D01*
X900966Y980291D01*
X904969Y978633D01*
X908033Y975569D01*
X909691Y971566D01*
X909691Y967234D01*
X908033Y963231D01*
X904969Y960167D01*
X900966Y958509D01*
X896634Y958509D01*
G37*
%LPD*%
%LPC*%
G36*
X591834Y958509D02*
X591834Y958509D01*
X587831Y960167D01*
X584767Y963231D01*
X583109Y967234D01*
X583109Y971566D01*
X584767Y975569D01*
X587831Y978633D01*
X591834Y980291D01*
X596166Y980291D01*
X600169Y978633D01*
X603233Y975569D01*
X604891Y971566D01*
X604891Y967234D01*
X603233Y963231D01*
X600169Y960167D01*
X596166Y958509D01*
X591834Y958509D01*
G37*
%LPD*%
%LPC*%
G36*
X896634Y933109D02*
X896634Y933109D01*
X892631Y934767D01*
X889567Y937831D01*
X887909Y941834D01*
X887909Y946166D01*
X889567Y950169D01*
X892631Y953233D01*
X896634Y954891D01*
X900966Y954891D01*
X904969Y953233D01*
X908033Y950169D01*
X909691Y946166D01*
X909691Y941834D01*
X908033Y937831D01*
X904969Y934767D01*
X900966Y933109D01*
X896634Y933109D01*
G37*
%LPD*%
%LPC*%
G36*
X845834Y933109D02*
X845834Y933109D01*
X841831Y934767D01*
X838767Y937831D01*
X837109Y941834D01*
X837109Y946166D01*
X838767Y950169D01*
X841831Y953233D01*
X845834Y954891D01*
X850166Y954891D01*
X854169Y953233D01*
X857233Y950169D01*
X858891Y946166D01*
X858891Y941834D01*
X857233Y937831D01*
X854169Y934767D01*
X850166Y933109D01*
X845834Y933109D01*
G37*
%LPD*%
%LPC*%
G36*
X820434Y933109D02*
X820434Y933109D01*
X816431Y934767D01*
X813367Y937831D01*
X811709Y941834D01*
X811709Y946166D01*
X813367Y950169D01*
X816431Y953233D01*
X820434Y954891D01*
X824766Y954891D01*
X828769Y953233D01*
X831833Y950169D01*
X833491Y946166D01*
X833491Y941834D01*
X831833Y937831D01*
X828769Y934767D01*
X824766Y933109D01*
X820434Y933109D01*
G37*
%LPD*%
%LPC*%
G36*
X795034Y933109D02*
X795034Y933109D01*
X791031Y934767D01*
X787967Y937831D01*
X786309Y941834D01*
X786309Y946166D01*
X787967Y950169D01*
X791031Y953233D01*
X795034Y954891D01*
X799366Y954891D01*
X803369Y953233D01*
X806433Y950169D01*
X808091Y946166D01*
X808091Y941834D01*
X806433Y937831D01*
X803369Y934767D01*
X799366Y933109D01*
X795034Y933109D01*
G37*
%LPD*%
%LPC*%
G36*
X744234Y933109D02*
X744234Y933109D01*
X740231Y934767D01*
X737167Y937831D01*
X735509Y941834D01*
X735509Y946166D01*
X737167Y950169D01*
X740231Y953233D01*
X744234Y954891D01*
X748566Y954891D01*
X752569Y953233D01*
X755633Y950169D01*
X757291Y946166D01*
X757291Y941834D01*
X755633Y937831D01*
X752569Y934767D01*
X748566Y933109D01*
X744234Y933109D01*
G37*
%LPD*%
%LPC*%
G36*
X718834Y933109D02*
X718834Y933109D01*
X714831Y934767D01*
X711767Y937831D01*
X710109Y941834D01*
X710109Y946166D01*
X711767Y950169D01*
X714831Y953233D01*
X718834Y954891D01*
X723166Y954891D01*
X727169Y953233D01*
X730233Y950169D01*
X731891Y946166D01*
X731891Y941834D01*
X730233Y937831D01*
X727169Y934767D01*
X723166Y933109D01*
X718834Y933109D01*
G37*
%LPD*%
%LPC*%
G36*
X693434Y933109D02*
X693434Y933109D01*
X689431Y934767D01*
X686367Y937831D01*
X684709Y941834D01*
X684709Y946166D01*
X686367Y950169D01*
X689431Y953233D01*
X693434Y954891D01*
X697766Y954891D01*
X701769Y953233D01*
X704833Y950169D01*
X706491Y946166D01*
X706491Y941834D01*
X704833Y937831D01*
X701769Y934767D01*
X697766Y933109D01*
X693434Y933109D01*
G37*
%LPD*%
%LPC*%
G36*
X642634Y933109D02*
X642634Y933109D01*
X638631Y934767D01*
X635567Y937831D01*
X633909Y941834D01*
X633909Y946166D01*
X635567Y950169D01*
X638631Y953233D01*
X642634Y954891D01*
X646966Y954891D01*
X650969Y953233D01*
X654033Y950169D01*
X655691Y946166D01*
X655691Y941834D01*
X654033Y937831D01*
X650969Y934767D01*
X646966Y933109D01*
X642634Y933109D01*
G37*
%LPD*%
%LPC*%
G36*
X617234Y933109D02*
X617234Y933109D01*
X613231Y934767D01*
X610167Y937831D01*
X608509Y941834D01*
X608509Y946166D01*
X610167Y950169D01*
X613231Y953233D01*
X617234Y954891D01*
X621566Y954891D01*
X625569Y953233D01*
X628633Y950169D01*
X630291Y946166D01*
X630291Y941834D01*
X628633Y937831D01*
X625569Y934767D01*
X621566Y933109D01*
X617234Y933109D01*
G37*
%LPD*%
%LPC*%
G36*
X591834Y933109D02*
X591834Y933109D01*
X587831Y934767D01*
X584767Y937831D01*
X583109Y941834D01*
X583109Y946166D01*
X584767Y950169D01*
X587831Y953233D01*
X591834Y954891D01*
X596166Y954891D01*
X600169Y953233D01*
X603233Y950169D01*
X604891Y946166D01*
X604891Y941834D01*
X603233Y937831D01*
X600169Y934767D01*
X596166Y933109D01*
X591834Y933109D01*
G37*
%LPD*%
%LPC*%
G36*
X1023634Y933109D02*
X1023634Y933109D01*
X1019631Y934767D01*
X1016567Y937831D01*
X1014909Y941834D01*
X1014909Y946166D01*
X1016567Y950169D01*
X1019631Y953233D01*
X1023634Y954891D01*
X1027966Y954891D01*
X1031969Y953233D01*
X1035033Y950169D01*
X1036691Y946166D01*
X1036691Y941834D01*
X1035033Y937831D01*
X1031969Y934767D01*
X1027966Y933109D01*
X1023634Y933109D01*
G37*
%LPD*%
%LPC*%
G36*
X998234Y933109D02*
X998234Y933109D01*
X994231Y934767D01*
X991167Y937831D01*
X989509Y941834D01*
X989509Y946166D01*
X991167Y950169D01*
X994231Y953233D01*
X998234Y954891D01*
X1002566Y954891D01*
X1006569Y953233D01*
X1009633Y950169D01*
X1011291Y946166D01*
X1011291Y941834D01*
X1009633Y937831D01*
X1006569Y934767D01*
X1002566Y933109D01*
X998234Y933109D01*
G37*
%LPD*%
%LPC*%
G36*
X972834Y933109D02*
X972834Y933109D01*
X968831Y934767D01*
X965767Y937831D01*
X964109Y941834D01*
X964109Y946166D01*
X965767Y950169D01*
X968831Y953233D01*
X972834Y954891D01*
X977166Y954891D01*
X981169Y953233D01*
X984233Y950169D01*
X985891Y946166D01*
X985891Y941834D01*
X984233Y937831D01*
X981169Y934767D01*
X977166Y933109D01*
X972834Y933109D01*
G37*
%LPD*%
%LPC*%
G36*
X922034Y933109D02*
X922034Y933109D01*
X918031Y934767D01*
X914967Y937831D01*
X913309Y941834D01*
X913309Y946166D01*
X914967Y950169D01*
X918031Y953233D01*
X922034Y954891D01*
X926366Y954891D01*
X930369Y953233D01*
X933433Y950169D01*
X935091Y946166D01*
X935091Y941834D01*
X933433Y937831D01*
X930369Y934767D01*
X926366Y933109D01*
X922034Y933109D01*
G37*
%LPD*%
%LPC*%
G36*
X566434Y958509D02*
X566434Y958509D01*
X562431Y960167D01*
X559367Y963231D01*
X557709Y967234D01*
X557709Y971566D01*
X559367Y975569D01*
X562431Y978633D01*
X566434Y980291D01*
X570766Y980291D01*
X574769Y978633D01*
X577833Y975569D01*
X579491Y971566D01*
X579491Y967234D01*
X577833Y963231D01*
X574769Y960167D01*
X570766Y958509D01*
X566434Y958509D01*
G37*
%LPD*%
%LPC*%
G36*
X1447534Y731509D02*
X1447534Y731509D01*
X1443531Y733167D01*
X1440467Y736231D01*
X1438809Y740234D01*
X1438809Y744566D01*
X1440467Y748569D01*
X1443531Y751633D01*
X1447534Y753291D01*
X1451866Y753291D01*
X1455869Y751633D01*
X1458933Y748569D01*
X1460591Y744566D01*
X1460591Y740234D01*
X1458933Y736231D01*
X1455869Y733167D01*
X1451866Y731509D01*
X1447534Y731509D01*
G37*
%LPD*%
%LPC*%
G36*
X950261Y877249D02*
X950261Y877249D01*
X948649Y878861D01*
X948649Y881792D01*
X948635Y881882D01*
X948627Y881973D01*
X948615Y882003D01*
X948610Y882034D01*
X948567Y882115D01*
X948531Y882199D01*
X948505Y882231D01*
X948494Y882252D01*
X948471Y882274D01*
X948426Y882330D01*
X947762Y882994D01*
X947688Y883047D01*
X947619Y883107D01*
X947588Y883119D01*
X947562Y883138D01*
X947475Y883165D01*
X947390Y883199D01*
X947350Y883203D01*
X947327Y883210D01*
X947295Y883209D01*
X947224Y883217D01*
X945149Y883217D01*
X943116Y884060D01*
X941560Y885616D01*
X940717Y887649D01*
X940717Y889851D01*
X941560Y891884D01*
X943116Y893440D01*
X945149Y894283D01*
X947351Y894283D01*
X949219Y893509D01*
X949283Y893494D01*
X949344Y893469D01*
X949427Y893460D01*
X949459Y893452D01*
X949478Y893454D01*
X949511Y893451D01*
X958651Y893451D01*
X958651Y889409D01*
X952544Y889409D01*
X952524Y889406D01*
X952505Y889408D01*
X952403Y889386D01*
X952301Y889370D01*
X952284Y889360D01*
X952264Y889356D01*
X952175Y889303D01*
X952084Y889254D01*
X952070Y889240D01*
X952053Y889230D01*
X951986Y889151D01*
X951914Y889076D01*
X951906Y889058D01*
X951893Y889043D01*
X951854Y888947D01*
X951811Y888853D01*
X951809Y888833D01*
X951801Y888815D01*
X951783Y888648D01*
X951783Y888012D01*
X951786Y887992D01*
X951784Y887973D01*
X951806Y887871D01*
X951822Y887769D01*
X951832Y887752D01*
X951836Y887732D01*
X951889Y887643D01*
X951938Y887552D01*
X951952Y887538D01*
X951962Y887521D01*
X952041Y887454D01*
X952116Y887382D01*
X952134Y887374D01*
X952149Y887361D01*
X952245Y887322D01*
X952339Y887279D01*
X952359Y887277D01*
X952377Y887269D01*
X952544Y887251D01*
X970039Y887251D01*
X971651Y885639D01*
X971651Y878861D01*
X970039Y877249D01*
X950261Y877249D01*
G37*
%LPD*%
%LPC*%
G36*
X861399Y703217D02*
X861399Y703217D01*
X859366Y704060D01*
X857810Y705616D01*
X856967Y707649D01*
X856967Y709851D01*
X857810Y711884D01*
X859366Y713440D01*
X861399Y714283D01*
X863474Y714283D01*
X863564Y714297D01*
X863655Y714305D01*
X863685Y714317D01*
X863716Y714322D01*
X863797Y714365D01*
X863881Y714401D01*
X863913Y714427D01*
X863934Y714438D01*
X863956Y714461D01*
X864012Y714506D01*
X879244Y729738D01*
X879297Y729812D01*
X879357Y729881D01*
X879369Y729912D01*
X879388Y729938D01*
X879415Y730025D01*
X879449Y730110D01*
X879453Y730150D01*
X879460Y730173D01*
X879459Y730205D01*
X879467Y730276D01*
X879467Y732351D01*
X880310Y734384D01*
X881866Y735940D01*
X883899Y736783D01*
X886101Y736783D01*
X888134Y735940D01*
X889690Y734384D01*
X890533Y732351D01*
X890533Y730149D01*
X889690Y728116D01*
X888134Y726560D01*
X886101Y725717D01*
X884026Y725717D01*
X883936Y725703D01*
X883845Y725695D01*
X883815Y725683D01*
X883784Y725678D01*
X883703Y725635D01*
X883619Y725599D01*
X883587Y725573D01*
X883566Y725562D01*
X883544Y725539D01*
X883488Y725494D01*
X868256Y710262D01*
X868203Y710188D01*
X868143Y710119D01*
X868131Y710088D01*
X868112Y710062D01*
X868085Y709975D01*
X868051Y709890D01*
X868047Y709850D01*
X868040Y709827D01*
X868041Y709795D01*
X868033Y709724D01*
X868033Y707649D01*
X867190Y705616D01*
X865634Y704060D01*
X863601Y703217D01*
X861399Y703217D01*
G37*
%LPD*%
%LPC*%
G36*
X516399Y795717D02*
X516399Y795717D01*
X514366Y796560D01*
X512810Y798116D01*
X511967Y800149D01*
X511967Y802351D01*
X512810Y804384D01*
X514276Y805851D01*
X514329Y805925D01*
X514389Y805994D01*
X514401Y806024D01*
X514420Y806051D01*
X514447Y806137D01*
X514481Y806222D01*
X514485Y806263D01*
X514492Y806286D01*
X514491Y806318D01*
X514499Y806389D01*
X514499Y816111D01*
X514485Y816201D01*
X514477Y816292D01*
X514465Y816322D01*
X514460Y816354D01*
X514417Y816434D01*
X514381Y816518D01*
X514355Y816550D01*
X514344Y816571D01*
X514321Y816593D01*
X514276Y816649D01*
X512810Y818116D01*
X511967Y820149D01*
X511967Y822351D01*
X512810Y824384D01*
X514366Y825940D01*
X516399Y826783D01*
X518601Y826783D01*
X520634Y825940D01*
X522190Y824384D01*
X523033Y822351D01*
X523033Y820149D01*
X522190Y818116D01*
X520724Y816649D01*
X520671Y816575D01*
X520611Y816506D01*
X520599Y816476D01*
X520580Y816449D01*
X520553Y816363D01*
X520519Y816278D01*
X520515Y816237D01*
X520508Y816214D01*
X520509Y816182D01*
X520501Y816111D01*
X520501Y806389D01*
X520515Y806299D01*
X520523Y806208D01*
X520535Y806178D01*
X520540Y806146D01*
X520583Y806066D01*
X520619Y805982D01*
X520645Y805950D01*
X520656Y805929D01*
X520679Y805907D01*
X520724Y805851D01*
X522190Y804384D01*
X523033Y802351D01*
X523033Y800149D01*
X522190Y798116D01*
X520634Y796560D01*
X518601Y795717D01*
X516399Y795717D01*
G37*
%LPD*%
%LPC*%
G36*
X887649Y609467D02*
X887649Y609467D01*
X885616Y610310D01*
X884060Y611866D01*
X883217Y613899D01*
X883217Y616101D01*
X884060Y618134D01*
X885616Y619690D01*
X887649Y620533D01*
X889724Y620533D01*
X889814Y620547D01*
X889905Y620555D01*
X889935Y620567D01*
X889966Y620572D01*
X890047Y620615D01*
X890131Y620651D01*
X890163Y620677D01*
X890184Y620688D01*
X890206Y620711D01*
X890262Y620756D01*
X896744Y627238D01*
X896789Y627300D01*
X896817Y627330D01*
X896822Y627341D01*
X896857Y627381D01*
X896869Y627412D01*
X896888Y627438D01*
X896915Y627525D01*
X896949Y627610D01*
X896953Y627650D01*
X896960Y627673D01*
X896959Y627705D01*
X896967Y627776D01*
X896967Y629851D01*
X897810Y631884D01*
X899366Y633440D01*
X901399Y634283D01*
X903601Y634283D01*
X905634Y633440D01*
X907190Y631884D01*
X908033Y629851D01*
X908033Y627649D01*
X907190Y625616D01*
X905634Y624060D01*
X903601Y623217D01*
X901526Y623217D01*
X901436Y623203D01*
X901345Y623195D01*
X901315Y623183D01*
X901284Y623178D01*
X901203Y623135D01*
X901119Y623099D01*
X901087Y623073D01*
X901066Y623062D01*
X901044Y623039D01*
X901040Y623036D01*
X901039Y623035D01*
X901038Y623035D01*
X900988Y622994D01*
X894506Y616512D01*
X894453Y616438D01*
X894393Y616369D01*
X894381Y616338D01*
X894362Y616312D01*
X894335Y616225D01*
X894301Y616140D01*
X894297Y616100D01*
X894290Y616077D01*
X894291Y616045D01*
X894283Y615974D01*
X894283Y613899D01*
X893440Y611866D01*
X891884Y610310D01*
X889851Y609467D01*
X887649Y609467D01*
G37*
%LPD*%
%LPC*%
G36*
X1002649Y904467D02*
X1002649Y904467D01*
X1000616Y905310D01*
X999060Y906866D01*
X998217Y908899D01*
X998217Y910974D01*
X998216Y910981D01*
X998216Y910982D01*
X998215Y910989D01*
X998203Y911064D01*
X998195Y911155D01*
X998183Y911185D01*
X998178Y911216D01*
X998135Y911297D01*
X998099Y911381D01*
X998073Y911413D01*
X998062Y911434D01*
X998039Y911456D01*
X997994Y911512D01*
X994012Y915494D01*
X993938Y915547D01*
X993869Y915607D01*
X993838Y915619D01*
X993812Y915638D01*
X993725Y915665D01*
X993640Y915699D01*
X993600Y915703D01*
X993577Y915710D01*
X993545Y915709D01*
X993474Y915717D01*
X991399Y915717D01*
X989366Y916560D01*
X987810Y918116D01*
X986967Y920149D01*
X986967Y922351D01*
X987810Y924384D01*
X989366Y925940D01*
X991399Y926783D01*
X993601Y926783D01*
X995634Y925940D01*
X997190Y924384D01*
X998033Y922351D01*
X998033Y920276D01*
X998047Y920186D01*
X998055Y920095D01*
X998067Y920065D01*
X998072Y920034D01*
X998115Y919953D01*
X998151Y919869D01*
X998177Y919837D01*
X998188Y919816D01*
X998211Y919794D01*
X998256Y919738D01*
X1002238Y915756D01*
X1002312Y915703D01*
X1002381Y915643D01*
X1002412Y915631D01*
X1002438Y915612D01*
X1002525Y915585D01*
X1002610Y915551D01*
X1002650Y915547D01*
X1002673Y915540D01*
X1002705Y915541D01*
X1002776Y915533D01*
X1004851Y915533D01*
X1006884Y914690D01*
X1008440Y913134D01*
X1009283Y911101D01*
X1009283Y908899D01*
X1008440Y906866D01*
X1006884Y905310D01*
X1004851Y904467D01*
X1002649Y904467D01*
G37*
%LPD*%
%LPC*%
G36*
X999361Y889949D02*
X999361Y889949D01*
X997749Y891561D01*
X997749Y898339D01*
X999361Y899951D01*
X1019139Y899951D01*
X1020751Y898339D01*
X1020751Y891561D01*
X1019139Y889949D01*
X999361Y889949D01*
G37*
%LPD*%
%LPC*%
G36*
X999361Y877249D02*
X999361Y877249D01*
X997749Y878861D01*
X997749Y885639D01*
X999361Y887251D01*
X1019139Y887251D01*
X1020751Y885639D01*
X1020751Y878861D01*
X1019139Y877249D01*
X999361Y877249D01*
G37*
%LPD*%
%LPC*%
G36*
X999361Y864549D02*
X999361Y864549D01*
X997749Y866161D01*
X997749Y872939D01*
X999361Y874551D01*
X1019139Y874551D01*
X1020751Y872939D01*
X1020751Y866161D01*
X1019139Y864549D01*
X999361Y864549D01*
G37*
%LPD*%
%LPC*%
G36*
X985317Y613893D02*
X985317Y613893D01*
X984025Y614150D01*
X983930Y614154D01*
X983837Y614164D01*
X983808Y614158D01*
X983779Y614159D01*
X983688Y614132D01*
X983596Y614112D01*
X983571Y614097D01*
X983543Y614088D01*
X983466Y614034D01*
X983385Y613985D01*
X983377Y613976D01*
X982135Y614223D01*
X980573Y614870D01*
X979168Y615809D01*
X977973Y617004D01*
X977034Y618409D01*
X976387Y619971D01*
X976192Y620951D01*
X983876Y620951D01*
X983896Y620954D01*
X983915Y620952D01*
X984017Y620974D01*
X984119Y620991D01*
X984136Y621000D01*
X984156Y621004D01*
X984245Y621057D01*
X984336Y621106D01*
X984350Y621120D01*
X984367Y621130D01*
X984434Y621209D01*
X984505Y621284D01*
X984514Y621302D01*
X984527Y621317D01*
X984565Y621413D01*
X984609Y621507D01*
X984611Y621527D01*
X984619Y621545D01*
X984637Y621712D01*
X984637Y623236D01*
X984634Y623256D01*
X984636Y623275D01*
X984614Y623377D01*
X984597Y623479D01*
X984588Y623496D01*
X984584Y623516D01*
X984531Y623605D01*
X984482Y623696D01*
X984468Y623710D01*
X984458Y623727D01*
X984379Y623794D01*
X984304Y623865D01*
X984286Y623874D01*
X984271Y623887D01*
X984175Y623926D01*
X984081Y623969D01*
X984061Y623971D01*
X984043Y623979D01*
X983876Y623997D01*
X976192Y623997D01*
X976387Y624977D01*
X977034Y626539D01*
X977973Y627944D01*
X979168Y629139D01*
X980573Y630078D01*
X982135Y630725D01*
X983380Y630973D01*
X983401Y630949D01*
X983427Y630935D01*
X983448Y630915D01*
X983533Y630875D01*
X983616Y630829D01*
X983645Y630823D01*
X983671Y630811D01*
X983765Y630801D01*
X983857Y630783D01*
X983894Y630786D01*
X983915Y630784D01*
X983947Y630791D01*
X984025Y630798D01*
X985317Y631055D01*
X985483Y631055D01*
X985760Y631000D01*
X985825Y630998D01*
X985889Y630985D01*
X985972Y630993D01*
X986005Y630991D01*
X986024Y630997D01*
X986028Y630997D01*
X986050Y630987D01*
X986108Y630949D01*
X986181Y630926D01*
X986211Y630912D01*
X986232Y630910D01*
X986268Y630899D01*
X986775Y630798D01*
X986870Y630794D01*
X986963Y630784D01*
X986992Y630790D01*
X987021Y630789D01*
X987112Y630816D01*
X987204Y630836D01*
X987229Y630851D01*
X987257Y630860D01*
X987334Y630914D01*
X987415Y630963D01*
X987423Y630972D01*
X987791Y630899D01*
X987886Y630895D01*
X987979Y630885D01*
X988008Y630891D01*
X988037Y630890D01*
X988127Y630917D01*
X988220Y630937D01*
X988245Y630952D01*
X988273Y630961D01*
X988322Y630995D01*
X989681Y630725D01*
X991243Y630078D01*
X992648Y629139D01*
X993843Y627944D01*
X994782Y626539D01*
X995429Y624977D01*
X995624Y623997D01*
X987940Y623997D01*
X987920Y623994D01*
X987901Y623996D01*
X987799Y623974D01*
X987697Y623957D01*
X987680Y623948D01*
X987660Y623944D01*
X987571Y623891D01*
X987480Y623842D01*
X987466Y623828D01*
X987449Y623818D01*
X987382Y623739D01*
X987311Y623664D01*
X987302Y623646D01*
X987289Y623631D01*
X987251Y623535D01*
X987207Y623441D01*
X987205Y623421D01*
X987197Y623403D01*
X987179Y623236D01*
X987179Y621712D01*
X987182Y621692D01*
X987180Y621673D01*
X987202Y621571D01*
X987219Y621469D01*
X987228Y621452D01*
X987232Y621432D01*
X987285Y621343D01*
X987334Y621252D01*
X987348Y621238D01*
X987358Y621221D01*
X987437Y621154D01*
X987512Y621083D01*
X987530Y621074D01*
X987545Y621061D01*
X987641Y621022D01*
X987735Y620979D01*
X987755Y620977D01*
X987773Y620969D01*
X987940Y620951D01*
X995624Y620951D01*
X995429Y619971D01*
X994782Y618409D01*
X993843Y617004D01*
X992648Y615809D01*
X991243Y614870D01*
X989681Y614223D01*
X988323Y613953D01*
X988283Y613972D01*
X988200Y614018D01*
X988171Y614023D01*
X988145Y614036D01*
X988051Y614046D01*
X987959Y614064D01*
X987922Y614061D01*
X987900Y614063D01*
X987869Y614056D01*
X987791Y614049D01*
X987420Y613975D01*
X987399Y613999D01*
X987373Y614013D01*
X987352Y614033D01*
X987266Y614073D01*
X987184Y614119D01*
X987155Y614125D01*
X987129Y614137D01*
X987035Y614147D01*
X986943Y614165D01*
X986906Y614162D01*
X986884Y614164D01*
X986853Y614157D01*
X986775Y614150D01*
X986268Y614049D01*
X986203Y614025D01*
X986136Y614011D01*
X986089Y613982D01*
X986037Y613963D01*
X986021Y613949D01*
X985991Y613950D01*
X985927Y613963D01*
X985844Y613955D01*
X985811Y613957D01*
X985792Y613951D01*
X985760Y613948D01*
X985483Y613893D01*
X985400Y613893D01*
X985317Y613893D01*
G37*
%LPD*%
%LPC*%
G36*
X1035775Y613950D02*
X1035775Y613950D01*
X1035711Y613963D01*
X1035628Y613956D01*
X1035595Y613957D01*
X1035576Y613951D01*
X1035572Y613951D01*
X1035550Y613961D01*
X1035492Y613999D01*
X1035419Y614022D01*
X1035389Y614036D01*
X1035368Y614038D01*
X1035333Y614049D01*
X1035079Y614100D01*
X1034984Y614103D01*
X1034891Y614113D01*
X1034862Y614107D01*
X1034833Y614108D01*
X1034742Y614081D01*
X1034650Y614061D01*
X1034625Y614046D01*
X1034597Y614038D01*
X1034520Y613983D01*
X1034489Y613965D01*
X1033809Y614100D01*
X1033714Y614103D01*
X1033621Y614113D01*
X1033592Y614107D01*
X1033563Y614108D01*
X1033472Y614081D01*
X1033380Y614061D01*
X1033355Y614046D01*
X1033327Y614038D01*
X1033250Y613983D01*
X1033219Y613965D01*
X1031919Y614223D01*
X1030357Y614870D01*
X1028952Y615809D01*
X1027757Y617004D01*
X1026818Y618409D01*
X1026171Y619971D01*
X1025976Y620951D01*
X1033660Y620951D01*
X1033680Y620954D01*
X1033699Y620952D01*
X1033801Y620974D01*
X1033903Y620991D01*
X1033920Y621000D01*
X1033940Y621004D01*
X1034029Y621057D01*
X1034120Y621106D01*
X1034134Y621120D01*
X1034151Y621130D01*
X1034218Y621209D01*
X1034289Y621284D01*
X1034298Y621302D01*
X1034311Y621317D01*
X1034349Y621413D01*
X1034393Y621507D01*
X1034395Y621527D01*
X1034403Y621545D01*
X1034421Y621712D01*
X1034421Y623236D01*
X1034418Y623256D01*
X1034420Y623275D01*
X1034398Y623377D01*
X1034381Y623479D01*
X1034372Y623496D01*
X1034368Y623516D01*
X1034315Y623605D01*
X1034266Y623696D01*
X1034252Y623710D01*
X1034242Y623727D01*
X1034163Y623794D01*
X1034088Y623865D01*
X1034070Y623874D01*
X1034055Y623887D01*
X1033959Y623926D01*
X1033865Y623969D01*
X1033845Y623971D01*
X1033827Y623979D01*
X1033660Y623997D01*
X1025976Y623997D01*
X1026171Y624977D01*
X1026818Y626539D01*
X1027757Y627944D01*
X1028952Y629139D01*
X1030357Y630078D01*
X1031919Y630725D01*
X1033214Y630983D01*
X1033232Y630965D01*
X1033317Y630926D01*
X1033400Y630879D01*
X1033429Y630874D01*
X1033455Y630862D01*
X1033549Y630851D01*
X1033641Y630834D01*
X1033678Y630837D01*
X1033699Y630835D01*
X1033731Y630842D01*
X1033809Y630848D01*
X1034484Y630983D01*
X1034502Y630965D01*
X1034588Y630926D01*
X1034670Y630879D01*
X1034698Y630874D01*
X1034725Y630862D01*
X1034819Y630851D01*
X1034911Y630834D01*
X1034948Y630837D01*
X1034969Y630835D01*
X1035001Y630842D01*
X1035079Y630848D01*
X1035333Y630899D01*
X1035397Y630923D01*
X1035464Y630937D01*
X1035511Y630966D01*
X1035563Y630985D01*
X1035579Y630999D01*
X1035609Y630998D01*
X1035673Y630985D01*
X1035756Y630992D01*
X1035789Y630991D01*
X1035808Y630997D01*
X1035812Y630997D01*
X1035834Y630987D01*
X1035892Y630949D01*
X1035965Y630926D01*
X1035995Y630912D01*
X1036016Y630910D01*
X1036051Y630899D01*
X1036305Y630848D01*
X1036400Y630845D01*
X1036493Y630835D01*
X1036522Y630841D01*
X1036551Y630840D01*
X1036641Y630867D01*
X1036734Y630887D01*
X1036759Y630902D01*
X1036787Y630910D01*
X1036864Y630965D01*
X1036895Y630983D01*
X1037575Y630848D01*
X1037670Y630845D01*
X1037763Y630835D01*
X1037792Y630841D01*
X1037821Y630840D01*
X1037912Y630867D01*
X1038004Y630887D01*
X1038029Y630902D01*
X1038057Y630910D01*
X1038134Y630965D01*
X1038165Y630983D01*
X1039465Y630725D01*
X1041027Y630078D01*
X1042432Y629139D01*
X1043627Y627944D01*
X1044566Y626539D01*
X1045213Y624977D01*
X1045408Y623997D01*
X1037724Y623997D01*
X1037704Y623994D01*
X1037685Y623996D01*
X1037583Y623974D01*
X1037481Y623957D01*
X1037464Y623948D01*
X1037444Y623944D01*
X1037355Y623891D01*
X1037264Y623842D01*
X1037250Y623828D01*
X1037233Y623818D01*
X1037166Y623739D01*
X1037095Y623664D01*
X1037086Y623646D01*
X1037073Y623631D01*
X1037035Y623535D01*
X1036991Y623441D01*
X1036989Y623421D01*
X1036981Y623403D01*
X1036963Y623236D01*
X1036963Y621712D01*
X1036966Y621692D01*
X1036964Y621673D01*
X1036986Y621571D01*
X1037003Y621469D01*
X1037012Y621452D01*
X1037016Y621432D01*
X1037069Y621343D01*
X1037118Y621252D01*
X1037132Y621238D01*
X1037142Y621221D01*
X1037221Y621154D01*
X1037296Y621083D01*
X1037314Y621074D01*
X1037329Y621061D01*
X1037425Y621022D01*
X1037519Y620979D01*
X1037539Y620977D01*
X1037557Y620969D01*
X1037724Y620951D01*
X1045408Y620951D01*
X1045213Y619971D01*
X1044566Y618409D01*
X1043627Y617004D01*
X1042432Y615809D01*
X1041027Y614870D01*
X1039465Y614223D01*
X1038170Y613965D01*
X1038152Y613983D01*
X1038067Y614022D01*
X1037984Y614069D01*
X1037955Y614074D01*
X1037929Y614086D01*
X1037835Y614097D01*
X1037743Y614114D01*
X1037706Y614111D01*
X1037684Y614113D01*
X1037653Y614106D01*
X1037575Y614100D01*
X1036900Y613965D01*
X1036882Y613983D01*
X1036796Y614022D01*
X1036714Y614069D01*
X1036685Y614074D01*
X1036659Y614086D01*
X1036565Y614097D01*
X1036473Y614114D01*
X1036436Y614111D01*
X1036414Y614113D01*
X1036383Y614106D01*
X1036305Y614100D01*
X1036051Y614049D01*
X1035987Y614025D01*
X1035920Y614011D01*
X1035873Y613982D01*
X1035821Y613963D01*
X1035805Y613949D01*
X1035775Y613950D01*
G37*
%LPD*%
%LPC*%
G36*
X407649Y676967D02*
X407649Y676967D01*
X405616Y677810D01*
X404060Y679366D01*
X403217Y681399D01*
X403217Y683474D01*
X403203Y683564D01*
X403195Y683655D01*
X403183Y683685D01*
X403178Y683716D01*
X403135Y683797D01*
X403099Y683881D01*
X403073Y683913D01*
X403062Y683934D01*
X403039Y683956D01*
X402994Y684012D01*
X400262Y686744D01*
X400188Y686797D01*
X400119Y686857D01*
X400088Y686869D01*
X400062Y686888D01*
X399975Y686915D01*
X399890Y686949D01*
X399850Y686953D01*
X399827Y686960D01*
X399795Y686959D01*
X399724Y686967D01*
X397649Y686967D01*
X395616Y687810D01*
X394060Y689366D01*
X393217Y691399D01*
X393217Y693601D01*
X394060Y695634D01*
X395616Y697190D01*
X397649Y698033D01*
X399851Y698033D01*
X401884Y697190D01*
X403440Y695634D01*
X404283Y693601D01*
X404283Y691526D01*
X404297Y691436D01*
X404305Y691345D01*
X404317Y691315D01*
X404322Y691284D01*
X404365Y691203D01*
X404401Y691119D01*
X404427Y691087D01*
X404438Y691066D01*
X404461Y691044D01*
X404506Y690988D01*
X407238Y688256D01*
X407312Y688203D01*
X407381Y688143D01*
X407412Y688131D01*
X407438Y688112D01*
X407525Y688085D01*
X407610Y688051D01*
X407650Y688047D01*
X407673Y688040D01*
X407705Y688041D01*
X407776Y688033D01*
X409851Y688033D01*
X411884Y687190D01*
X413440Y685634D01*
X414283Y683601D01*
X414283Y681399D01*
X413440Y679366D01*
X411884Y677810D01*
X409851Y676967D01*
X407649Y676967D01*
G37*
%LPD*%
%LPC*%
G36*
X910149Y835717D02*
X910149Y835717D01*
X908116Y836560D01*
X906560Y838116D01*
X905717Y840149D01*
X905717Y842224D01*
X905703Y842314D01*
X905695Y842405D01*
X905683Y842435D01*
X905678Y842466D01*
X905635Y842547D01*
X905599Y842631D01*
X905573Y842663D01*
X905562Y842684D01*
X905539Y842706D01*
X905494Y842762D01*
X902762Y845494D01*
X902688Y845547D01*
X902619Y845607D01*
X902588Y845619D01*
X902562Y845638D01*
X902475Y845665D01*
X902390Y845699D01*
X902350Y845703D01*
X902327Y845710D01*
X902295Y845709D01*
X902224Y845717D01*
X900149Y845717D01*
X898116Y846560D01*
X896560Y848116D01*
X895717Y850149D01*
X895717Y852351D01*
X896560Y854384D01*
X898116Y855940D01*
X900149Y856783D01*
X902351Y856783D01*
X904384Y855940D01*
X905940Y854384D01*
X906783Y852351D01*
X906783Y850276D01*
X906797Y850186D01*
X906805Y850095D01*
X906817Y850065D01*
X906822Y850034D01*
X906865Y849953D01*
X906901Y849869D01*
X906927Y849837D01*
X906938Y849816D01*
X906961Y849794D01*
X907006Y849738D01*
X909738Y847006D01*
X909812Y846953D01*
X909881Y846893D01*
X909912Y846881D01*
X909938Y846862D01*
X910025Y846835D01*
X910110Y846801D01*
X910150Y846797D01*
X910173Y846790D01*
X910205Y846791D01*
X910276Y846783D01*
X912351Y846783D01*
X914384Y845940D01*
X915940Y844384D01*
X916783Y842351D01*
X916783Y840149D01*
X915940Y838116D01*
X914384Y836560D01*
X912351Y835717D01*
X910149Y835717D01*
G37*
%LPD*%
%LPC*%
G36*
X1008899Y693217D02*
X1008899Y693217D01*
X1006866Y694060D01*
X1005310Y695616D01*
X1004467Y697649D01*
X1004467Y699851D01*
X1005310Y701884D01*
X1006866Y703440D01*
X1008899Y704283D01*
X1010974Y704283D01*
X1011064Y704297D01*
X1011155Y704305D01*
X1011185Y704317D01*
X1011217Y704322D01*
X1011297Y704365D01*
X1011381Y704401D01*
X1011413Y704427D01*
X1011434Y704438D01*
X1011456Y704461D01*
X1011512Y704506D01*
X1014244Y707238D01*
X1014297Y707312D01*
X1014357Y707381D01*
X1014369Y707412D01*
X1014388Y707438D01*
X1014415Y707525D01*
X1014449Y707610D01*
X1014453Y707650D01*
X1014460Y707673D01*
X1014459Y707705D01*
X1014467Y707776D01*
X1014467Y709851D01*
X1015310Y711884D01*
X1016866Y713440D01*
X1018899Y714283D01*
X1021101Y714283D01*
X1023134Y713440D01*
X1024690Y711884D01*
X1025533Y709851D01*
X1025533Y707649D01*
X1024690Y705616D01*
X1023134Y704060D01*
X1021101Y703217D01*
X1019026Y703217D01*
X1018936Y703203D01*
X1018845Y703195D01*
X1018815Y703183D01*
X1018783Y703178D01*
X1018703Y703135D01*
X1018619Y703099D01*
X1018587Y703073D01*
X1018566Y703062D01*
X1018544Y703039D01*
X1018488Y702994D01*
X1015756Y700262D01*
X1015703Y700188D01*
X1015643Y700119D01*
X1015631Y700088D01*
X1015612Y700062D01*
X1015585Y699975D01*
X1015551Y699890D01*
X1015547Y699850D01*
X1015540Y699827D01*
X1015541Y699795D01*
X1015533Y699724D01*
X1015533Y697649D01*
X1014690Y695616D01*
X1013134Y694060D01*
X1011101Y693217D01*
X1008899Y693217D01*
G37*
%LPD*%
%LPC*%
G36*
X89023Y536523D02*
X89023Y536523D01*
X89023Y546916D01*
X97209Y546916D01*
X97856Y546743D01*
X98435Y546408D01*
X98908Y545935D01*
X99243Y545356D01*
X99416Y544709D01*
X99416Y536523D01*
X89023Y536523D01*
G37*
%LPD*%
%LPC*%
G36*
X369023Y846523D02*
X369023Y846523D01*
X369023Y856916D01*
X377209Y856916D01*
X377856Y856743D01*
X378435Y856408D01*
X378908Y855935D01*
X379243Y855356D01*
X379416Y854709D01*
X379416Y846523D01*
X369023Y846523D01*
G37*
%LPD*%
%LPC*%
G36*
X1389023Y536523D02*
X1389023Y536523D01*
X1389023Y546916D01*
X1397209Y546916D01*
X1397856Y546743D01*
X1398435Y546408D01*
X1398908Y545935D01*
X1399243Y545356D01*
X1399416Y544709D01*
X1399416Y536523D01*
X1389023Y536523D01*
G37*
%LPD*%
%LPC*%
G36*
X1169023Y666523D02*
X1169023Y666523D01*
X1169023Y676916D01*
X1177209Y676916D01*
X1177856Y676743D01*
X1178435Y676408D01*
X1178908Y675935D01*
X1179243Y675356D01*
X1179416Y674709D01*
X1179416Y666523D01*
X1169023Y666523D01*
G37*
%LPD*%
%LPC*%
G36*
X309023Y666523D02*
X309023Y666523D01*
X309023Y676916D01*
X317209Y676916D01*
X317856Y676743D01*
X318435Y676408D01*
X318908Y675935D01*
X319243Y675356D01*
X319416Y674709D01*
X319416Y666523D01*
X309023Y666523D01*
G37*
%LPD*%
%LPC*%
G36*
X1109023Y846523D02*
X1109023Y846523D01*
X1109023Y856916D01*
X1117209Y856916D01*
X1117856Y856743D01*
X1118435Y856408D01*
X1118908Y855935D01*
X1119243Y855356D01*
X1119416Y854709D01*
X1119416Y846523D01*
X1109023Y846523D01*
G37*
%LPD*%
%LPC*%
G36*
X1169023Y653084D02*
X1169023Y653084D01*
X1169023Y663477D01*
X1179416Y663477D01*
X1179416Y655291D01*
X1179243Y654644D01*
X1178908Y654065D01*
X1178435Y653592D01*
X1177856Y653257D01*
X1177209Y653084D01*
X1169023Y653084D01*
G37*
%LPD*%
%LPC*%
G36*
X89023Y523084D02*
X89023Y523084D01*
X89023Y533477D01*
X99416Y533477D01*
X99416Y525291D01*
X99243Y524644D01*
X98908Y524065D01*
X98435Y523592D01*
X97856Y523257D01*
X97209Y523084D01*
X89023Y523084D01*
G37*
%LPD*%
%LPC*%
G36*
X1389023Y523084D02*
X1389023Y523084D01*
X1389023Y533477D01*
X1399416Y533477D01*
X1399416Y525291D01*
X1399243Y524644D01*
X1398908Y524065D01*
X1398435Y523592D01*
X1397856Y523257D01*
X1397209Y523084D01*
X1389023Y523084D01*
G37*
%LPD*%
%LPC*%
G36*
X75584Y536523D02*
X75584Y536523D01*
X75584Y544709D01*
X75757Y545356D01*
X76092Y545935D01*
X76565Y546408D01*
X77144Y546743D01*
X77791Y546916D01*
X85977Y546916D01*
X85977Y536523D01*
X75584Y536523D01*
G37*
%LPD*%
%LPC*%
G36*
X355584Y846523D02*
X355584Y846523D01*
X355584Y854709D01*
X355757Y855356D01*
X356092Y855935D01*
X356565Y856408D01*
X357144Y856743D01*
X357791Y856916D01*
X365977Y856916D01*
X365977Y846523D01*
X355584Y846523D01*
G37*
%LPD*%
%LPC*%
G36*
X1375584Y536523D02*
X1375584Y536523D01*
X1375584Y544709D01*
X1375757Y545356D01*
X1376092Y545935D01*
X1376565Y546408D01*
X1377144Y546743D01*
X1377791Y546916D01*
X1385977Y546916D01*
X1385977Y536523D01*
X1375584Y536523D01*
G37*
%LPD*%
%LPC*%
G36*
X1155584Y666523D02*
X1155584Y666523D01*
X1155584Y674709D01*
X1155757Y675356D01*
X1156092Y675935D01*
X1156565Y676408D01*
X1157144Y676743D01*
X1157791Y676916D01*
X1165977Y676916D01*
X1165977Y666523D01*
X1155584Y666523D01*
G37*
%LPD*%
%LPC*%
G36*
X295584Y666523D02*
X295584Y666523D01*
X295584Y674709D01*
X295757Y675356D01*
X296092Y675935D01*
X296565Y676408D01*
X297144Y676743D01*
X297791Y676916D01*
X305977Y676916D01*
X305977Y666523D01*
X295584Y666523D01*
G37*
%LPD*%
%LPC*%
G36*
X1095584Y846523D02*
X1095584Y846523D01*
X1095584Y854709D01*
X1095757Y855356D01*
X1096092Y855935D01*
X1096565Y856408D01*
X1097144Y856743D01*
X1097791Y856916D01*
X1105977Y856916D01*
X1105977Y846523D01*
X1095584Y846523D01*
G37*
%LPD*%
%LPC*%
G36*
X309023Y653084D02*
X309023Y653084D01*
X309023Y663477D01*
X319416Y663477D01*
X319416Y655291D01*
X319243Y654644D01*
X318908Y654065D01*
X318435Y653592D01*
X317856Y653257D01*
X317209Y653084D01*
X309023Y653084D01*
G37*
%LPD*%
%LPC*%
G36*
X1109023Y833084D02*
X1109023Y833084D01*
X1109023Y843477D01*
X1119416Y843477D01*
X1119416Y835291D01*
X1119243Y834644D01*
X1118908Y834065D01*
X1118435Y833592D01*
X1117856Y833257D01*
X1117209Y833084D01*
X1109023Y833084D01*
G37*
%LPD*%
%LPC*%
G36*
X369023Y833084D02*
X369023Y833084D01*
X369023Y843477D01*
X379416Y843477D01*
X379416Y835291D01*
X379243Y834644D01*
X378908Y834065D01*
X378435Y833592D01*
X377856Y833257D01*
X377209Y833084D01*
X369023Y833084D01*
G37*
%LPD*%
%LPC*%
G36*
X1377791Y523084D02*
X1377791Y523084D01*
X1377144Y523257D01*
X1376565Y523592D01*
X1376092Y524065D01*
X1375757Y524644D01*
X1375584Y525291D01*
X1375584Y533477D01*
X1385977Y533477D01*
X1385977Y523084D01*
X1377791Y523084D01*
G37*
%LPD*%
%LPC*%
G36*
X77791Y523084D02*
X77791Y523084D01*
X77144Y523257D01*
X76565Y523592D01*
X76092Y524065D01*
X75757Y524644D01*
X75584Y525291D01*
X75584Y533477D01*
X85977Y533477D01*
X85977Y523084D01*
X77791Y523084D01*
G37*
%LPD*%
%LPC*%
G36*
X1157791Y653084D02*
X1157791Y653084D01*
X1157144Y653257D01*
X1156565Y653592D01*
X1156092Y654065D01*
X1155757Y654644D01*
X1155584Y655291D01*
X1155584Y663477D01*
X1165977Y663477D01*
X1165977Y653084D01*
X1157791Y653084D01*
G37*
%LPD*%
%LPC*%
G36*
X297791Y653084D02*
X297791Y653084D01*
X297144Y653257D01*
X296565Y653592D01*
X296092Y654065D01*
X295757Y654644D01*
X295584Y655291D01*
X295584Y663477D01*
X305977Y663477D01*
X305977Y653084D01*
X297791Y653084D01*
G37*
%LPD*%
%LPC*%
G36*
X1097791Y833084D02*
X1097791Y833084D01*
X1097144Y833257D01*
X1096565Y833592D01*
X1096092Y834065D01*
X1095757Y834644D01*
X1095584Y835291D01*
X1095584Y843477D01*
X1105977Y843477D01*
X1105977Y833084D01*
X1097791Y833084D01*
G37*
%LPD*%
%LPC*%
G36*
X357791Y833084D02*
X357791Y833084D01*
X357144Y833257D01*
X356565Y833592D01*
X356092Y834065D01*
X355757Y834644D01*
X355584Y835291D01*
X355584Y843477D01*
X365977Y843477D01*
X365977Y833084D01*
X357791Y833084D01*
G37*
%LPD*%
%LPC*%
G36*
X434023Y666523D02*
X434023Y666523D01*
X434023Y676823D01*
X435290Y676622D01*
X437074Y676043D01*
X438745Y675191D01*
X440263Y674089D01*
X441589Y672763D01*
X442691Y671245D01*
X443543Y669574D01*
X444122Y667790D01*
X444323Y666523D01*
X434023Y666523D01*
G37*
%LPD*%
%LPC*%
G36*
X1514023Y536523D02*
X1514023Y536523D01*
X1514023Y546823D01*
X1515290Y546622D01*
X1517074Y546043D01*
X1518745Y545191D01*
X1520263Y544089D01*
X1521589Y542763D01*
X1522691Y541245D01*
X1523543Y539574D01*
X1524122Y537790D01*
X1524323Y536523D01*
X1514023Y536523D01*
G37*
%LPD*%
%LPC*%
G36*
X214023Y536523D02*
X214023Y536523D01*
X214023Y546823D01*
X215290Y546622D01*
X217074Y546043D01*
X218745Y545191D01*
X220263Y544089D01*
X221589Y542763D01*
X222691Y541245D01*
X223543Y539574D01*
X224122Y537790D01*
X224323Y536523D01*
X214023Y536523D01*
G37*
%LPD*%
%LPC*%
G36*
X494023Y846523D02*
X494023Y846523D01*
X494023Y856823D01*
X495290Y856622D01*
X497074Y856043D01*
X498745Y855191D01*
X500263Y854089D01*
X501589Y852763D01*
X502691Y851245D01*
X503543Y849574D01*
X504122Y847790D01*
X504323Y846523D01*
X494023Y846523D01*
G37*
%LPD*%
%LPC*%
G36*
X1234023Y846523D02*
X1234023Y846523D01*
X1234023Y856823D01*
X1235290Y856622D01*
X1237074Y856043D01*
X1238745Y855191D01*
X1240263Y854089D01*
X1241589Y852763D01*
X1242691Y851245D01*
X1243543Y849574D01*
X1244122Y847790D01*
X1244323Y846523D01*
X1234023Y846523D01*
G37*
%LPD*%
%LPC*%
G36*
X1294023Y666523D02*
X1294023Y666523D01*
X1294023Y676823D01*
X1295290Y676622D01*
X1297074Y676043D01*
X1298745Y675191D01*
X1300263Y674089D01*
X1301589Y672763D01*
X1302691Y671245D01*
X1303543Y669574D01*
X1304122Y667790D01*
X1304323Y666523D01*
X1294023Y666523D01*
G37*
%LPD*%
%LPC*%
G36*
X1514023Y533477D02*
X1514023Y533477D01*
X1524323Y533477D01*
X1524122Y532210D01*
X1523543Y530426D01*
X1522691Y528755D01*
X1521589Y527237D01*
X1520263Y525911D01*
X1518745Y524809D01*
X1517074Y523957D01*
X1515290Y523378D01*
X1514023Y523177D01*
X1514023Y533477D01*
G37*
%LPD*%
%LPC*%
G36*
X214023Y533477D02*
X214023Y533477D01*
X224323Y533477D01*
X224122Y532210D01*
X223543Y530426D01*
X222691Y528755D01*
X221589Y527237D01*
X220263Y525911D01*
X218745Y524809D01*
X217074Y523957D01*
X215290Y523378D01*
X214023Y523177D01*
X214023Y533477D01*
G37*
%LPD*%
%LPC*%
G36*
X1220677Y846523D02*
X1220677Y846523D01*
X1220878Y847790D01*
X1221457Y849574D01*
X1222309Y851245D01*
X1223411Y852763D01*
X1224737Y854089D01*
X1226255Y855191D01*
X1227926Y856043D01*
X1229710Y856622D01*
X1230977Y856823D01*
X1230977Y846523D01*
X1220677Y846523D01*
G37*
%LPD*%
%LPC*%
G36*
X1234023Y843477D02*
X1234023Y843477D01*
X1244323Y843477D01*
X1244122Y842210D01*
X1243543Y840426D01*
X1242691Y838755D01*
X1241589Y837237D01*
X1240263Y835911D01*
X1238745Y834809D01*
X1237074Y833957D01*
X1235290Y833378D01*
X1234023Y833177D01*
X1234023Y843477D01*
G37*
%LPD*%
%LPC*%
G36*
X494023Y843477D02*
X494023Y843477D01*
X504323Y843477D01*
X504122Y842210D01*
X503543Y840426D01*
X502691Y838755D01*
X501589Y837237D01*
X500263Y835911D01*
X498745Y834809D01*
X497074Y833957D01*
X495290Y833378D01*
X494023Y833177D01*
X494023Y843477D01*
G37*
%LPD*%
%LPC*%
G36*
X1280677Y666523D02*
X1280677Y666523D01*
X1280878Y667790D01*
X1281457Y669574D01*
X1282309Y671245D01*
X1283411Y672763D01*
X1284737Y674089D01*
X1286255Y675191D01*
X1287926Y676043D01*
X1289710Y676622D01*
X1290977Y676823D01*
X1290977Y666523D01*
X1280677Y666523D01*
G37*
%LPD*%
%LPC*%
G36*
X1294023Y663477D02*
X1294023Y663477D01*
X1304323Y663477D01*
X1304122Y662210D01*
X1303543Y660426D01*
X1302691Y658755D01*
X1301589Y657237D01*
X1300263Y655911D01*
X1298745Y654809D01*
X1297074Y653957D01*
X1295290Y653378D01*
X1294023Y653177D01*
X1294023Y663477D01*
G37*
%LPD*%
%LPC*%
G36*
X434023Y663477D02*
X434023Y663477D01*
X444323Y663477D01*
X444122Y662210D01*
X443543Y660426D01*
X442691Y658755D01*
X441589Y657237D01*
X440263Y655911D01*
X438745Y654809D01*
X437074Y653957D01*
X435290Y653378D01*
X434023Y653177D01*
X434023Y663477D01*
G37*
%LPD*%
%LPC*%
G36*
X420677Y666523D02*
X420677Y666523D01*
X420878Y667790D01*
X421457Y669574D01*
X422309Y671245D01*
X423411Y672763D01*
X424737Y674089D01*
X426255Y675191D01*
X427926Y676043D01*
X429710Y676622D01*
X430977Y676823D01*
X430977Y666523D01*
X420677Y666523D01*
G37*
%LPD*%
%LPC*%
G36*
X480677Y846523D02*
X480677Y846523D01*
X480878Y847790D01*
X481457Y849574D01*
X482309Y851245D01*
X483411Y852763D01*
X484737Y854089D01*
X486255Y855191D01*
X487926Y856043D01*
X489710Y856622D01*
X490977Y856823D01*
X490977Y846523D01*
X480677Y846523D01*
G37*
%LPD*%
%LPC*%
G36*
X200677Y536523D02*
X200677Y536523D01*
X200878Y537790D01*
X201457Y539574D01*
X202309Y541245D01*
X203411Y542763D01*
X204737Y544089D01*
X206255Y545191D01*
X207926Y546043D01*
X209710Y546622D01*
X210977Y546823D01*
X210977Y536523D01*
X200677Y536523D01*
G37*
%LPD*%
%LPC*%
G36*
X1500677Y536523D02*
X1500677Y536523D01*
X1500878Y537790D01*
X1501457Y539574D01*
X1502309Y541245D01*
X1503411Y542763D01*
X1504737Y544089D01*
X1506255Y545191D01*
X1507926Y546043D01*
X1509710Y546622D01*
X1510977Y546823D01*
X1510977Y536523D01*
X1500677Y536523D01*
G37*
%LPD*%
%LPC*%
G36*
X209710Y523378D02*
X209710Y523378D01*
X207926Y523957D01*
X206255Y524809D01*
X204737Y525911D01*
X203411Y527237D01*
X202309Y528755D01*
X201457Y530426D01*
X200878Y532210D01*
X200677Y533477D01*
X210977Y533477D01*
X210977Y523177D01*
X209710Y523378D01*
G37*
%LPD*%
%LPC*%
G36*
X489710Y833378D02*
X489710Y833378D01*
X487926Y833957D01*
X486255Y834809D01*
X484737Y835911D01*
X483411Y837237D01*
X482309Y838755D01*
X481457Y840426D01*
X480878Y842210D01*
X480677Y843477D01*
X490977Y843477D01*
X490977Y833177D01*
X489710Y833378D01*
G37*
%LPD*%
%LPC*%
G36*
X1509710Y523378D02*
X1509710Y523378D01*
X1507926Y523957D01*
X1506255Y524809D01*
X1504737Y525911D01*
X1503411Y527237D01*
X1502309Y528755D01*
X1501457Y530426D01*
X1500878Y532210D01*
X1500677Y533477D01*
X1510977Y533477D01*
X1510977Y523177D01*
X1509710Y523378D01*
G37*
%LPD*%
%LPC*%
G36*
X429710Y653378D02*
X429710Y653378D01*
X427926Y653957D01*
X426255Y654809D01*
X424737Y655911D01*
X423411Y657237D01*
X422309Y658755D01*
X421457Y660426D01*
X420878Y662210D01*
X420677Y663477D01*
X430977Y663477D01*
X430977Y653177D01*
X429710Y653378D01*
G37*
%LPD*%
%LPC*%
G36*
X1289710Y653378D02*
X1289710Y653378D01*
X1287926Y653957D01*
X1286255Y654809D01*
X1284737Y655911D01*
X1283411Y657237D01*
X1282309Y658755D01*
X1281457Y660426D01*
X1280878Y662210D01*
X1280677Y663477D01*
X1290977Y663477D01*
X1290977Y653177D01*
X1289710Y653378D01*
G37*
%LPD*%
%LPC*%
G36*
X1229710Y833378D02*
X1229710Y833378D01*
X1227926Y833957D01*
X1226255Y834809D01*
X1224737Y835911D01*
X1223411Y837237D01*
X1222309Y838755D01*
X1221457Y840426D01*
X1220878Y842210D01*
X1220677Y843477D01*
X1230977Y843477D01*
X1230977Y833177D01*
X1229710Y833378D01*
G37*
%LPD*%
%LPC*%
G36*
X976523Y970923D02*
X976523Y970923D01*
X976523Y980732D01*
X977677Y980549D01*
X979388Y979993D01*
X980991Y979176D01*
X982447Y978119D01*
X983719Y976847D01*
X984776Y975391D01*
X985593Y973788D01*
X986149Y972077D01*
X986332Y970923D01*
X976523Y970923D01*
G37*
%LPD*%
%LPC*%
G36*
X798723Y970923D02*
X798723Y970923D01*
X798723Y980732D01*
X799877Y980549D01*
X801588Y979993D01*
X803191Y979176D01*
X804647Y978119D01*
X805919Y976847D01*
X806976Y975391D01*
X807793Y973788D01*
X808349Y972077D01*
X808532Y970923D01*
X798723Y970923D01*
G37*
%LPD*%
%LPC*%
G36*
X1052723Y945523D02*
X1052723Y945523D01*
X1052723Y955332D01*
X1053877Y955149D01*
X1055588Y954593D01*
X1057191Y953776D01*
X1058647Y952719D01*
X1059919Y951447D01*
X1060976Y949991D01*
X1061793Y948388D01*
X1062349Y946677D01*
X1062532Y945523D01*
X1052723Y945523D01*
G37*
%LPD*%
%LPC*%
G36*
X620923Y970923D02*
X620923Y970923D01*
X620923Y980732D01*
X622077Y980549D01*
X623788Y979993D01*
X625391Y979176D01*
X626847Y978119D01*
X628119Y976847D01*
X629176Y975391D01*
X629993Y973788D01*
X630549Y972077D01*
X630732Y970923D01*
X620923Y970923D01*
G37*
%LPD*%
%LPC*%
G36*
X925723Y970923D02*
X925723Y970923D01*
X925723Y980732D01*
X926877Y980549D01*
X928588Y979993D01*
X930191Y979176D01*
X931647Y978119D01*
X932919Y976847D01*
X933976Y975391D01*
X934793Y973788D01*
X935349Y972077D01*
X935532Y970923D01*
X925723Y970923D01*
G37*
%LPD*%
%LPC*%
G36*
X177423Y743923D02*
X177423Y743923D01*
X177423Y753732D01*
X178577Y753549D01*
X180288Y752993D01*
X181891Y752176D01*
X183347Y751119D01*
X184619Y749847D01*
X185676Y748391D01*
X186493Y746788D01*
X187049Y745077D01*
X187232Y743923D01*
X177423Y743923D01*
G37*
%LPD*%
%LPC*%
G36*
X1476623Y743923D02*
X1476623Y743923D01*
X1476623Y753732D01*
X1477777Y753549D01*
X1479488Y752993D01*
X1481091Y752176D01*
X1482547Y751119D01*
X1483819Y749847D01*
X1484876Y748391D01*
X1485693Y746788D01*
X1486249Y745077D01*
X1486432Y743923D01*
X1476623Y743923D01*
G37*
%LPD*%
%LPC*%
G36*
X1349623Y820123D02*
X1349623Y820123D01*
X1349623Y829932D01*
X1350777Y829749D01*
X1352488Y829193D01*
X1354091Y828376D01*
X1355547Y827319D01*
X1356819Y826047D01*
X1357876Y824591D01*
X1358693Y822988D01*
X1359249Y821277D01*
X1359432Y820123D01*
X1349623Y820123D01*
G37*
%LPD*%
%LPC*%
G36*
X722523Y970923D02*
X722523Y970923D01*
X722523Y980732D01*
X723677Y980549D01*
X725388Y979993D01*
X726991Y979176D01*
X728447Y978119D01*
X729719Y976847D01*
X730776Y975391D01*
X731593Y973788D01*
X732149Y972077D01*
X732332Y970923D01*
X722523Y970923D01*
G37*
%LPD*%
%LPC*%
G36*
X671723Y945523D02*
X671723Y945523D01*
X671723Y955332D01*
X672877Y955149D01*
X674588Y954593D01*
X676191Y953776D01*
X677647Y952719D01*
X678919Y951447D01*
X679976Y949991D01*
X680793Y948388D01*
X681349Y946677D01*
X681532Y945523D01*
X671723Y945523D01*
G37*
%LPD*%
%LPC*%
G36*
X874923Y945523D02*
X874923Y945523D01*
X874923Y955332D01*
X876077Y955149D01*
X877788Y954593D01*
X879391Y953776D01*
X880847Y952719D01*
X882119Y951447D01*
X883176Y949991D01*
X883993Y948388D01*
X884549Y946677D01*
X884732Y945523D01*
X874923Y945523D01*
G37*
%LPD*%
%LPC*%
G36*
X50423Y820123D02*
X50423Y820123D01*
X50423Y829932D01*
X51577Y829749D01*
X53288Y829193D01*
X54891Y828376D01*
X56347Y827319D01*
X57619Y826047D01*
X58676Y824591D01*
X59493Y822988D01*
X60049Y821277D01*
X60232Y820123D01*
X50423Y820123D01*
G37*
%LPD*%
%LPC*%
G36*
X722523Y967877D02*
X722523Y967877D01*
X732332Y967877D01*
X732149Y966723D01*
X731593Y965012D01*
X730776Y963409D01*
X729719Y961953D01*
X728447Y960681D01*
X726991Y959624D01*
X725388Y958807D01*
X723677Y958251D01*
X722523Y958068D01*
X722523Y967877D01*
G37*
%LPD*%
%LPC*%
G36*
X1336768Y820123D02*
X1336768Y820123D01*
X1336951Y821277D01*
X1337507Y822988D01*
X1338324Y824591D01*
X1339381Y826047D01*
X1340653Y827319D01*
X1342109Y828376D01*
X1343712Y829193D01*
X1345423Y829749D01*
X1346577Y829932D01*
X1346577Y820123D01*
X1336768Y820123D01*
G37*
%LPD*%
%LPC*%
G36*
X620923Y967877D02*
X620923Y967877D01*
X630732Y967877D01*
X630549Y966723D01*
X629993Y965012D01*
X629176Y963409D01*
X628119Y961953D01*
X626847Y960681D01*
X625391Y959624D01*
X623788Y958807D01*
X622077Y958251D01*
X620923Y958068D01*
X620923Y967877D01*
G37*
%LPD*%
%LPC*%
G36*
X658868Y945523D02*
X658868Y945523D01*
X659051Y946677D01*
X659607Y948388D01*
X660424Y949991D01*
X661481Y951447D01*
X662753Y952719D01*
X664209Y953776D01*
X665812Y954593D01*
X667523Y955149D01*
X668677Y955332D01*
X668677Y945523D01*
X658868Y945523D01*
G37*
%LPD*%
%LPC*%
G36*
X925723Y967877D02*
X925723Y967877D01*
X935532Y967877D01*
X935349Y966723D01*
X934793Y965012D01*
X933976Y963409D01*
X932919Y961953D01*
X931647Y960681D01*
X930191Y959624D01*
X928588Y958807D01*
X926877Y958251D01*
X925723Y958068D01*
X925723Y967877D01*
G37*
%LPD*%
%LPC*%
G36*
X976523Y967877D02*
X976523Y967877D01*
X986332Y967877D01*
X986149Y966723D01*
X985593Y965012D01*
X984776Y963409D01*
X983719Y961953D01*
X982447Y960681D01*
X980991Y959624D01*
X979388Y958807D01*
X977677Y958251D01*
X976523Y958068D01*
X976523Y967877D01*
G37*
%LPD*%
%LPC*%
G36*
X671723Y942477D02*
X671723Y942477D01*
X681532Y942477D01*
X681349Y941323D01*
X680793Y939612D01*
X679976Y938009D01*
X678919Y936553D01*
X677647Y935281D01*
X676191Y934224D01*
X674588Y933407D01*
X672877Y932851D01*
X671723Y932668D01*
X671723Y942477D01*
G37*
%LPD*%
%LPC*%
G36*
X1349623Y817077D02*
X1349623Y817077D01*
X1359432Y817077D01*
X1359249Y815923D01*
X1358693Y814212D01*
X1357876Y812609D01*
X1356819Y811153D01*
X1355547Y809881D01*
X1354091Y808824D01*
X1352488Y808007D01*
X1350777Y807451D01*
X1349623Y807268D01*
X1349623Y817077D01*
G37*
%LPD*%
%LPC*%
G36*
X963668Y970923D02*
X963668Y970923D01*
X963851Y972077D01*
X964407Y973788D01*
X965224Y975391D01*
X966281Y976847D01*
X967553Y978119D01*
X969009Y979176D01*
X970612Y979993D01*
X972323Y980549D01*
X973477Y980732D01*
X973477Y970923D01*
X963668Y970923D01*
G37*
%LPD*%
%LPC*%
G36*
X37568Y820123D02*
X37568Y820123D01*
X37751Y821277D01*
X38307Y822988D01*
X39124Y824591D01*
X40181Y826047D01*
X41453Y827319D01*
X42909Y828376D01*
X44512Y829193D01*
X46223Y829749D01*
X47377Y829932D01*
X47377Y820123D01*
X37568Y820123D01*
G37*
%LPD*%
%LPC*%
G36*
X798723Y967877D02*
X798723Y967877D01*
X808532Y967877D01*
X808349Y966723D01*
X807793Y965012D01*
X806976Y963409D01*
X805919Y961953D01*
X804647Y960681D01*
X803191Y959624D01*
X801588Y958807D01*
X799877Y958251D01*
X798723Y958068D01*
X798723Y967877D01*
G37*
%LPD*%
%LPC*%
G36*
X164568Y743923D02*
X164568Y743923D01*
X164751Y745077D01*
X165307Y746788D01*
X166124Y748391D01*
X167181Y749847D01*
X168453Y751119D01*
X169909Y752176D01*
X171512Y752993D01*
X173223Y753549D01*
X174377Y753732D01*
X174377Y743923D01*
X164568Y743923D01*
G37*
%LPD*%
%LPC*%
G36*
X1463768Y743923D02*
X1463768Y743923D01*
X1463951Y745077D01*
X1464507Y746788D01*
X1465324Y748391D01*
X1466381Y749847D01*
X1467653Y751119D01*
X1469109Y752176D01*
X1470712Y752993D01*
X1472423Y753549D01*
X1473577Y753732D01*
X1473577Y743923D01*
X1463768Y743923D01*
G37*
%LPD*%
%LPC*%
G36*
X50423Y817077D02*
X50423Y817077D01*
X60232Y817077D01*
X60049Y815923D01*
X59493Y814212D01*
X58676Y812609D01*
X57619Y811153D01*
X56347Y809881D01*
X54891Y808824D01*
X53288Y808007D01*
X51577Y807451D01*
X50423Y807268D01*
X50423Y817077D01*
G37*
%LPD*%
%LPC*%
G36*
X862068Y945523D02*
X862068Y945523D01*
X862251Y946677D01*
X862807Y948388D01*
X863624Y949991D01*
X864681Y951447D01*
X865953Y952719D01*
X867409Y953776D01*
X869012Y954593D01*
X870723Y955149D01*
X871877Y955332D01*
X871877Y945523D01*
X862068Y945523D01*
G37*
%LPD*%
%LPC*%
G36*
X1052723Y942477D02*
X1052723Y942477D01*
X1062532Y942477D01*
X1062349Y941323D01*
X1061793Y939612D01*
X1060976Y938009D01*
X1059919Y936553D01*
X1058647Y935281D01*
X1057191Y934224D01*
X1055588Y933407D01*
X1053877Y932851D01*
X1052723Y932668D01*
X1052723Y942477D01*
G37*
%LPD*%
%LPC*%
G36*
X177423Y740877D02*
X177423Y740877D01*
X187232Y740877D01*
X187049Y739723D01*
X186493Y738012D01*
X185676Y736409D01*
X184619Y734953D01*
X183347Y733681D01*
X181891Y732624D01*
X180288Y731807D01*
X178577Y731251D01*
X177423Y731068D01*
X177423Y740877D01*
G37*
%LPD*%
%LPC*%
G36*
X912868Y970923D02*
X912868Y970923D01*
X913051Y972077D01*
X913607Y973788D01*
X914424Y975391D01*
X915481Y976847D01*
X916753Y978119D01*
X918209Y979176D01*
X919812Y979993D01*
X921523Y980549D01*
X922677Y980732D01*
X922677Y970923D01*
X912868Y970923D01*
G37*
%LPD*%
%LPC*%
G36*
X785868Y970923D02*
X785868Y970923D01*
X786051Y972077D01*
X786607Y973788D01*
X787424Y975391D01*
X788481Y976847D01*
X789753Y978119D01*
X791209Y979176D01*
X792812Y979993D01*
X794523Y980549D01*
X795677Y980732D01*
X795677Y970923D01*
X785868Y970923D01*
G37*
%LPD*%
%LPC*%
G36*
X709668Y970923D02*
X709668Y970923D01*
X709851Y972077D01*
X710407Y973788D01*
X711224Y975391D01*
X712281Y976847D01*
X713553Y978119D01*
X715009Y979176D01*
X716612Y979993D01*
X718323Y980549D01*
X719477Y980732D01*
X719477Y970923D01*
X709668Y970923D01*
G37*
%LPD*%
%LPC*%
G36*
X608068Y970923D02*
X608068Y970923D01*
X608251Y972077D01*
X608807Y973788D01*
X609624Y975391D01*
X610681Y976847D01*
X611953Y978119D01*
X613409Y979176D01*
X615012Y979993D01*
X616723Y980549D01*
X617877Y980732D01*
X617877Y970923D01*
X608068Y970923D01*
G37*
%LPD*%
%LPC*%
G36*
X1476623Y740877D02*
X1476623Y740877D01*
X1486432Y740877D01*
X1486249Y739723D01*
X1485693Y738012D01*
X1484876Y736409D01*
X1483819Y734953D01*
X1482547Y733681D01*
X1481091Y732624D01*
X1479488Y731807D01*
X1477777Y731251D01*
X1476623Y731068D01*
X1476623Y740877D01*
G37*
%LPD*%
%LPC*%
G36*
X874923Y942477D02*
X874923Y942477D01*
X884732Y942477D01*
X884549Y941323D01*
X883993Y939612D01*
X883176Y938009D01*
X882119Y936553D01*
X880847Y935281D01*
X879391Y934224D01*
X877788Y933407D01*
X876077Y932851D01*
X874923Y932668D01*
X874923Y942477D01*
G37*
%LPD*%
%LPC*%
G36*
X972323Y958251D02*
X972323Y958251D01*
X970612Y958807D01*
X969009Y959624D01*
X967553Y960681D01*
X966281Y961953D01*
X965224Y963409D01*
X964407Y965012D01*
X963851Y966723D01*
X963668Y967877D01*
X973477Y967877D01*
X973477Y958068D01*
X972323Y958251D01*
G37*
%LPD*%
%LPC*%
G36*
X794523Y958251D02*
X794523Y958251D01*
X792812Y958807D01*
X791209Y959624D01*
X789753Y960681D01*
X788481Y961953D01*
X787424Y963409D01*
X786607Y965012D01*
X786051Y966723D01*
X785868Y967877D01*
X795677Y967877D01*
X795677Y958068D01*
X794523Y958251D01*
G37*
%LPD*%
%LPC*%
G36*
X718323Y958251D02*
X718323Y958251D01*
X716612Y958807D01*
X715009Y959624D01*
X713553Y960681D01*
X712281Y961953D01*
X711224Y963409D01*
X710407Y965012D01*
X709851Y966723D01*
X709668Y967877D01*
X719477Y967877D01*
X719477Y958068D01*
X718323Y958251D01*
G37*
%LPD*%
%LPC*%
G36*
X616723Y958251D02*
X616723Y958251D01*
X615012Y958807D01*
X613409Y959624D01*
X611953Y960681D01*
X610681Y961953D01*
X609624Y963409D01*
X608807Y965012D01*
X608251Y966723D01*
X608068Y967877D01*
X617877Y967877D01*
X617877Y958068D01*
X616723Y958251D01*
G37*
%LPD*%
%LPC*%
G36*
X870723Y932851D02*
X870723Y932851D01*
X869012Y933407D01*
X867409Y934224D01*
X865953Y935281D01*
X864681Y936553D01*
X863624Y938009D01*
X862807Y939612D01*
X862251Y941323D01*
X862068Y942477D01*
X871877Y942477D01*
X871877Y932668D01*
X870723Y932851D01*
G37*
%LPD*%
%LPC*%
G36*
X1048523Y932851D02*
X1048523Y932851D01*
X1046812Y933407D01*
X1045209Y934224D01*
X1043753Y935281D01*
X1042481Y936553D01*
X1041424Y938009D01*
X1040607Y939612D01*
X1040051Y941323D01*
X1039868Y942477D01*
X1049677Y942477D01*
X1049677Y932668D01*
X1048523Y932851D01*
G37*
%LPD*%
%LPC*%
G36*
X667523Y932851D02*
X667523Y932851D01*
X665812Y933407D01*
X664209Y934224D01*
X662753Y935281D01*
X661481Y936553D01*
X660424Y938009D01*
X659607Y939612D01*
X659051Y941323D01*
X658868Y942477D01*
X668677Y942477D01*
X668677Y932668D01*
X667523Y932851D01*
G37*
%LPD*%
%LPC*%
G36*
X921523Y958251D02*
X921523Y958251D01*
X919812Y958807D01*
X918209Y959624D01*
X916753Y960681D01*
X915481Y961953D01*
X914424Y963409D01*
X913607Y965012D01*
X913051Y966723D01*
X912868Y967877D01*
X922677Y967877D01*
X922677Y958068D01*
X921523Y958251D01*
G37*
%LPD*%
%LPC*%
G36*
X1345423Y807451D02*
X1345423Y807451D01*
X1343712Y808007D01*
X1342109Y808824D01*
X1340653Y809881D01*
X1339381Y811153D01*
X1338324Y812609D01*
X1337507Y814212D01*
X1336951Y815923D01*
X1336768Y817077D01*
X1346577Y817077D01*
X1346577Y807268D01*
X1345423Y807451D01*
G37*
%LPD*%
%LPC*%
G36*
X46223Y807451D02*
X46223Y807451D01*
X44512Y808007D01*
X42909Y808824D01*
X41453Y809881D01*
X40181Y811153D01*
X39124Y812609D01*
X38307Y814212D01*
X37751Y815923D01*
X37568Y817077D01*
X47377Y817077D01*
X47377Y807268D01*
X46223Y807451D01*
G37*
%LPD*%
%LPC*%
G36*
X173223Y731251D02*
X173223Y731251D01*
X171512Y731807D01*
X169909Y732624D01*
X168453Y733681D01*
X167181Y734953D01*
X166124Y736409D01*
X165307Y738012D01*
X164751Y739723D01*
X164568Y740877D01*
X174377Y740877D01*
X174377Y731068D01*
X173223Y731251D01*
G37*
%LPD*%
%LPC*%
G36*
X1472423Y731251D02*
X1472423Y731251D01*
X1470712Y731807D01*
X1469109Y732624D01*
X1467653Y733681D01*
X1466381Y734953D01*
X1465324Y736409D01*
X1464507Y738012D01*
X1463951Y739723D01*
X1463768Y740877D01*
X1473577Y740877D01*
X1473577Y731068D01*
X1472423Y731251D01*
G37*
%LPD*%
%LPC*%
G36*
X514023Y602323D02*
X514023Y602323D01*
X514023Y610332D01*
X514760Y610215D01*
X516205Y609746D01*
X517559Y609056D01*
X518788Y608163D01*
X519863Y607088D01*
X520756Y605859D01*
X521446Y604505D01*
X521915Y603060D01*
X522032Y602323D01*
X514023Y602323D01*
G37*
%LPD*%
%LPC*%
G36*
X961649Y832949D02*
X961649Y832949D01*
X961649Y836991D01*
X969333Y836991D01*
X970170Y836766D01*
X970921Y836333D01*
X971533Y835721D01*
X971966Y834970D01*
X972191Y834133D01*
X972191Y832949D01*
X961649Y832949D01*
G37*
%LPD*%
%LPC*%
G36*
X961649Y896449D02*
X961649Y896449D01*
X961649Y900491D01*
X969333Y900491D01*
X970170Y900266D01*
X970921Y899833D01*
X971533Y899221D01*
X971966Y898470D01*
X972191Y897633D01*
X972191Y896449D01*
X961649Y896449D01*
G37*
%LPD*%
%LPC*%
G36*
X948109Y896449D02*
X948109Y896449D01*
X948109Y897633D01*
X948334Y898470D01*
X948767Y899221D01*
X949379Y899833D01*
X950130Y900266D01*
X950967Y900491D01*
X958651Y900491D01*
X958651Y896449D01*
X948109Y896449D01*
G37*
%LPD*%
%LPC*%
G36*
X948109Y832949D02*
X948109Y832949D01*
X948109Y834133D01*
X948334Y834970D01*
X948767Y835721D01*
X949379Y836333D01*
X950130Y836766D01*
X950967Y836991D01*
X958651Y836991D01*
X958651Y832949D01*
X948109Y832949D01*
G37*
%LPD*%
%LPC*%
G36*
X961649Y889409D02*
X961649Y889409D01*
X961649Y893451D01*
X972191Y893451D01*
X972191Y892267D01*
X971966Y891430D01*
X971533Y890679D01*
X970921Y890067D01*
X970170Y889634D01*
X969333Y889409D01*
X961649Y889409D01*
G37*
%LPD*%
%LPC*%
G36*
X505874Y700874D02*
X505874Y700874D01*
X505874Y706273D01*
X506844Y706080D01*
X507995Y705603D01*
X509031Y704911D01*
X509911Y704031D01*
X510603Y702995D01*
X511080Y701844D01*
X511273Y700874D01*
X505874Y700874D01*
G37*
%LPD*%
%LPC*%
G36*
X610874Y775874D02*
X610874Y775874D01*
X610874Y781273D01*
X611844Y781080D01*
X612995Y780603D01*
X614031Y779911D01*
X614911Y779031D01*
X615603Y777995D01*
X616080Y776844D01*
X616273Y775874D01*
X610874Y775874D01*
G37*
%LPD*%
%LPC*%
G36*
X925874Y825874D02*
X925874Y825874D01*
X925874Y831273D01*
X926844Y831080D01*
X927995Y830603D01*
X929031Y829911D01*
X929911Y829031D01*
X930603Y827995D01*
X931080Y826844D01*
X931273Y825874D01*
X925874Y825874D01*
G37*
%LPD*%
%LPC*%
G36*
X950874Y725874D02*
X950874Y725874D01*
X950874Y731273D01*
X951844Y731080D01*
X952995Y730603D01*
X954031Y729911D01*
X954911Y729031D01*
X955603Y727995D01*
X956080Y726844D01*
X956273Y725874D01*
X950874Y725874D01*
G37*
%LPD*%
%LPC*%
G36*
X805874Y725874D02*
X805874Y725874D01*
X805874Y731273D01*
X806844Y731080D01*
X807995Y730603D01*
X809031Y729911D01*
X809911Y729031D01*
X810603Y727995D01*
X811080Y726844D01*
X811273Y725874D01*
X805874Y725874D01*
G37*
%LPD*%
%LPC*%
G36*
X575874Y860874D02*
X575874Y860874D01*
X575874Y866273D01*
X576844Y866080D01*
X577995Y865603D01*
X579031Y864911D01*
X579911Y864031D01*
X580603Y862995D01*
X581080Y861844D01*
X581273Y860874D01*
X575874Y860874D01*
G37*
%LPD*%
%LPC*%
G36*
X615874Y725874D02*
X615874Y725874D01*
X615874Y731273D01*
X616844Y731080D01*
X617995Y730603D01*
X619031Y729911D01*
X619911Y729031D01*
X620603Y727995D01*
X621080Y726844D01*
X621273Y725874D01*
X615874Y725874D01*
G37*
%LPD*%
%LPC*%
G36*
X535874Y910874D02*
X535874Y910874D01*
X535874Y916273D01*
X536844Y916080D01*
X537995Y915603D01*
X539031Y914911D01*
X539911Y914031D01*
X540603Y912995D01*
X541080Y911844D01*
X541273Y910874D01*
X535874Y910874D01*
G37*
%LPD*%
%LPC*%
G36*
X835874Y815874D02*
X835874Y815874D01*
X835874Y821273D01*
X836844Y821080D01*
X837995Y820603D01*
X839031Y819911D01*
X839911Y819031D01*
X840603Y817995D01*
X841080Y816844D01*
X841273Y815874D01*
X835874Y815874D01*
G37*
%LPD*%
%LPC*%
G36*
X710874Y855874D02*
X710874Y855874D01*
X710874Y861273D01*
X711844Y861080D01*
X712995Y860603D01*
X714031Y859911D01*
X714911Y859031D01*
X715603Y857995D01*
X716080Y856844D01*
X716273Y855874D01*
X710874Y855874D01*
G37*
%LPD*%
%LPC*%
G36*
X645874Y800874D02*
X645874Y800874D01*
X645874Y806273D01*
X646844Y806080D01*
X647995Y805603D01*
X649031Y804911D01*
X649911Y804031D01*
X650603Y802995D01*
X651080Y801844D01*
X651273Y800874D01*
X645874Y800874D01*
G37*
%LPD*%
%LPC*%
G36*
X685874Y715874D02*
X685874Y715874D01*
X685874Y721273D01*
X686844Y721080D01*
X687995Y720603D01*
X689031Y719911D01*
X689911Y719031D01*
X690603Y717995D01*
X691080Y716844D01*
X691273Y715874D01*
X685874Y715874D01*
G37*
%LPD*%
%LPC*%
G36*
X730874Y800874D02*
X730874Y800874D01*
X730874Y806273D01*
X731844Y806080D01*
X732995Y805603D01*
X734031Y804911D01*
X734911Y804031D01*
X735603Y802995D01*
X736080Y801844D01*
X736273Y800874D01*
X730874Y800874D01*
G37*
%LPD*%
%LPC*%
G36*
X1040874Y735874D02*
X1040874Y735874D01*
X1040874Y741273D01*
X1041844Y741080D01*
X1042995Y740603D01*
X1044031Y739911D01*
X1044911Y739031D01*
X1045603Y737995D01*
X1046080Y736844D01*
X1046273Y735874D01*
X1040874Y735874D01*
G37*
%LPD*%
%LPC*%
G36*
X640874Y875874D02*
X640874Y875874D01*
X640874Y881273D01*
X641844Y881080D01*
X642995Y880603D01*
X644031Y879911D01*
X644911Y879031D01*
X645603Y877995D01*
X646080Y876844D01*
X646273Y875874D01*
X640874Y875874D01*
G37*
%LPD*%
%LPC*%
G36*
X772706Y865874D02*
X772706Y865874D01*
X772706Y871273D01*
X773676Y871080D01*
X774827Y870603D01*
X775863Y869911D01*
X776743Y869031D01*
X777435Y867995D01*
X777912Y866844D01*
X778105Y865874D01*
X772706Y865874D01*
G37*
%LPD*%
%LPC*%
G36*
X710874Y854126D02*
X710874Y854126D01*
X716273Y854126D01*
X716080Y853156D01*
X715603Y852005D01*
X714911Y850969D01*
X714031Y850089D01*
X712995Y849397D01*
X711844Y848920D01*
X710874Y848727D01*
X710874Y854126D01*
G37*
%LPD*%
%LPC*%
G36*
X1040874Y734126D02*
X1040874Y734126D01*
X1046273Y734126D01*
X1046080Y733156D01*
X1045603Y732005D01*
X1044911Y730969D01*
X1044031Y730089D01*
X1042995Y729397D01*
X1041844Y728920D01*
X1040874Y728727D01*
X1040874Y734126D01*
G37*
%LPD*%
%LPC*%
G36*
X645874Y799126D02*
X645874Y799126D01*
X651273Y799126D01*
X651080Y798156D01*
X650603Y797005D01*
X649911Y795969D01*
X649031Y795089D01*
X647995Y794397D01*
X646844Y793920D01*
X645874Y793727D01*
X645874Y799126D01*
G37*
%LPD*%
%LPC*%
G36*
X608727Y725874D02*
X608727Y725874D01*
X608920Y726844D01*
X609397Y727995D01*
X610089Y729031D01*
X610969Y729911D01*
X612005Y730603D01*
X613156Y731080D01*
X614126Y731273D01*
X614126Y725874D01*
X608727Y725874D01*
G37*
%LPD*%
%LPC*%
G36*
X798727Y725874D02*
X798727Y725874D01*
X798920Y726844D01*
X799397Y727995D01*
X800089Y729031D01*
X800969Y729911D01*
X802005Y730603D01*
X803156Y731080D01*
X804126Y731273D01*
X804126Y725874D01*
X798727Y725874D01*
G37*
%LPD*%
%LPC*%
G36*
X943727Y725874D02*
X943727Y725874D01*
X943920Y726844D01*
X944397Y727995D01*
X945089Y729031D01*
X945969Y729911D01*
X947005Y730603D01*
X948156Y731080D01*
X949126Y731273D01*
X949126Y725874D01*
X943727Y725874D01*
G37*
%LPD*%
%LPC*%
G36*
X950874Y724126D02*
X950874Y724126D01*
X956273Y724126D01*
X956080Y723156D01*
X955603Y722005D01*
X954911Y720969D01*
X954031Y720089D01*
X952995Y719397D01*
X951844Y718920D01*
X950874Y718727D01*
X950874Y724126D01*
G37*
%LPD*%
%LPC*%
G36*
X925874Y824126D02*
X925874Y824126D01*
X931273Y824126D01*
X931080Y823156D01*
X930603Y822005D01*
X929911Y820969D01*
X929031Y820089D01*
X927995Y819397D01*
X926844Y818920D01*
X925874Y818727D01*
X925874Y824126D01*
G37*
%LPD*%
%LPC*%
G36*
X805874Y724126D02*
X805874Y724126D01*
X811273Y724126D01*
X811080Y723156D01*
X810603Y722005D01*
X809911Y720969D01*
X809031Y720089D01*
X807995Y719397D01*
X806844Y718920D01*
X805874Y718727D01*
X805874Y724126D01*
G37*
%LPD*%
%LPC*%
G36*
X575874Y859126D02*
X575874Y859126D01*
X581273Y859126D01*
X581080Y858156D01*
X580603Y857005D01*
X579911Y855969D01*
X579031Y855089D01*
X577995Y854397D01*
X576844Y853920D01*
X575874Y853727D01*
X575874Y859126D01*
G37*
%LPD*%
%LPC*%
G36*
X615874Y724126D02*
X615874Y724126D01*
X621273Y724126D01*
X621080Y723156D01*
X620603Y722005D01*
X619911Y720969D01*
X619031Y720089D01*
X617995Y719397D01*
X616844Y718920D01*
X615874Y718727D01*
X615874Y724126D01*
G37*
%LPD*%
%LPC*%
G36*
X873195Y780874D02*
X873195Y780874D01*
X873388Y781844D01*
X873865Y782995D01*
X874557Y784031D01*
X875437Y784911D01*
X876473Y785603D01*
X877624Y786080D01*
X878594Y786273D01*
X878594Y780874D01*
X873195Y780874D01*
G37*
%LPD*%
%LPC*%
G36*
X678727Y715874D02*
X678727Y715874D01*
X678920Y716844D01*
X679397Y717995D01*
X680089Y719031D01*
X680969Y719911D01*
X682005Y720603D01*
X683156Y721080D01*
X684126Y721273D01*
X684126Y715874D01*
X678727Y715874D01*
G37*
%LPD*%
%LPC*%
G36*
X703727Y855874D02*
X703727Y855874D01*
X703920Y856844D01*
X704397Y857995D01*
X705089Y859031D01*
X705969Y859911D01*
X707005Y860603D01*
X708156Y861080D01*
X709126Y861273D01*
X709126Y855874D01*
X703727Y855874D01*
G37*
%LPD*%
%LPC*%
G36*
X685874Y714126D02*
X685874Y714126D01*
X691273Y714126D01*
X691080Y713156D01*
X690603Y712005D01*
X689911Y710969D01*
X689031Y710089D01*
X687995Y709397D01*
X686844Y708920D01*
X685874Y708727D01*
X685874Y714126D01*
G37*
%LPD*%
%LPC*%
G36*
X610874Y774126D02*
X610874Y774126D01*
X616273Y774126D01*
X616080Y773156D01*
X615603Y772005D01*
X614911Y770969D01*
X614031Y770089D01*
X612995Y769397D01*
X611844Y768920D01*
X610874Y768727D01*
X610874Y774126D01*
G37*
%LPD*%
%LPC*%
G36*
X498727Y700874D02*
X498727Y700874D01*
X498920Y701844D01*
X499397Y702995D01*
X500089Y704031D01*
X500969Y704911D01*
X502005Y705603D01*
X503156Y706080D01*
X504126Y706273D01*
X504126Y700874D01*
X498727Y700874D01*
G37*
%LPD*%
%LPC*%
G36*
X772706Y864126D02*
X772706Y864126D01*
X778105Y864126D01*
X777912Y863156D01*
X777435Y862005D01*
X776743Y860969D01*
X775863Y860089D01*
X774827Y859397D01*
X773676Y858920D01*
X772706Y858727D01*
X772706Y864126D01*
G37*
%LPD*%
%LPC*%
G36*
X535874Y909126D02*
X535874Y909126D01*
X541273Y909126D01*
X541080Y908156D01*
X540603Y907005D01*
X539911Y905969D01*
X539031Y905089D01*
X537995Y904397D01*
X536844Y903920D01*
X535874Y903727D01*
X535874Y909126D01*
G37*
%LPD*%
%LPC*%
G36*
X528727Y910874D02*
X528727Y910874D01*
X528920Y911844D01*
X529397Y912995D01*
X530089Y914031D01*
X530969Y914911D01*
X532005Y915603D01*
X533156Y916080D01*
X534126Y916273D01*
X534126Y910874D01*
X528727Y910874D01*
G37*
%LPD*%
%LPC*%
G36*
X568727Y860874D02*
X568727Y860874D01*
X568920Y861844D01*
X569397Y862995D01*
X570089Y864031D01*
X570969Y864911D01*
X572005Y865603D01*
X573156Y866080D01*
X574126Y866273D01*
X574126Y860874D01*
X568727Y860874D01*
G37*
%LPD*%
%LPC*%
G36*
X505874Y699126D02*
X505874Y699126D01*
X511273Y699126D01*
X511080Y698156D01*
X510603Y697005D01*
X509911Y695969D01*
X509031Y695089D01*
X507995Y694397D01*
X506844Y693920D01*
X505874Y693727D01*
X505874Y699126D01*
G37*
%LPD*%
%LPC*%
G36*
X765559Y865874D02*
X765559Y865874D01*
X765752Y866844D01*
X766229Y867995D01*
X766921Y869031D01*
X767801Y869911D01*
X768837Y870603D01*
X769988Y871080D01*
X770958Y871273D01*
X770958Y865874D01*
X765559Y865874D01*
G37*
%LPD*%
%LPC*%
G36*
X640874Y874126D02*
X640874Y874126D01*
X646273Y874126D01*
X646080Y873156D01*
X645603Y872005D01*
X644911Y870969D01*
X644031Y870089D01*
X642995Y869397D01*
X641844Y868920D01*
X640874Y868727D01*
X640874Y874126D01*
G37*
%LPD*%
%LPC*%
G36*
X1033727Y735874D02*
X1033727Y735874D01*
X1033920Y736844D01*
X1034397Y737995D01*
X1035089Y739031D01*
X1035969Y739911D01*
X1037005Y740603D01*
X1038156Y741080D01*
X1039126Y741273D01*
X1039126Y735874D01*
X1033727Y735874D01*
G37*
%LPD*%
%LPC*%
G36*
X828727Y815874D02*
X828727Y815874D01*
X828920Y816844D01*
X829397Y817995D01*
X830089Y819031D01*
X830969Y819911D01*
X832005Y820603D01*
X833156Y821080D01*
X834126Y821273D01*
X834126Y815874D01*
X828727Y815874D01*
G37*
%LPD*%
%LPC*%
G36*
X633727Y875874D02*
X633727Y875874D01*
X633920Y876844D01*
X634397Y877995D01*
X635089Y879031D01*
X635969Y879911D01*
X637005Y880603D01*
X638156Y881080D01*
X639126Y881273D01*
X639126Y875874D01*
X633727Y875874D01*
G37*
%LPD*%
%LPC*%
G36*
X918727Y825874D02*
X918727Y825874D01*
X918920Y826844D01*
X919397Y827995D01*
X920089Y829031D01*
X920969Y829911D01*
X922005Y830603D01*
X923156Y831080D01*
X924126Y831273D01*
X924126Y825874D01*
X918727Y825874D01*
G37*
%LPD*%
%LPC*%
G36*
X835874Y814126D02*
X835874Y814126D01*
X841273Y814126D01*
X841080Y813156D01*
X840603Y812005D01*
X839911Y810969D01*
X839031Y810089D01*
X837995Y809397D01*
X836844Y808920D01*
X835874Y808727D01*
X835874Y814126D01*
G37*
%LPD*%
%LPC*%
G36*
X603727Y775874D02*
X603727Y775874D01*
X603920Y776844D01*
X604397Y777995D01*
X605089Y779031D01*
X605969Y779911D01*
X607005Y780603D01*
X608156Y781080D01*
X609126Y781273D01*
X609126Y775874D01*
X603727Y775874D01*
G37*
%LPD*%
%LPC*%
G36*
X723727Y800874D02*
X723727Y800874D01*
X723920Y801844D01*
X724397Y802995D01*
X725089Y804031D01*
X725969Y804911D01*
X727005Y805603D01*
X728156Y806080D01*
X729126Y806273D01*
X729126Y800874D01*
X723727Y800874D01*
G37*
%LPD*%
%LPC*%
G36*
X638727Y800874D02*
X638727Y800874D01*
X638920Y801844D01*
X639397Y802995D01*
X640089Y804031D01*
X640969Y804911D01*
X642005Y805603D01*
X643156Y806080D01*
X644126Y806273D01*
X644126Y800874D01*
X638727Y800874D01*
G37*
%LPD*%
%LPC*%
G36*
X730874Y799126D02*
X730874Y799126D01*
X736273Y799126D01*
X736080Y798156D01*
X735603Y797005D01*
X734911Y795969D01*
X734031Y795089D01*
X732995Y794397D01*
X731844Y793920D01*
X730874Y793727D01*
X730874Y799126D01*
G37*
%LPD*%
%LPC*%
G36*
X708156Y848920D02*
X708156Y848920D01*
X707005Y849397D01*
X705969Y850089D01*
X705089Y850969D01*
X704397Y852005D01*
X703920Y853156D01*
X703727Y854126D01*
X709126Y854126D01*
X709126Y848727D01*
X708156Y848920D01*
G37*
%LPD*%
%LPC*%
G36*
X1038156Y728920D02*
X1038156Y728920D01*
X1037005Y729397D01*
X1035969Y730089D01*
X1035089Y730969D01*
X1034397Y732005D01*
X1033920Y733156D01*
X1033727Y734126D01*
X1039126Y734126D01*
X1039126Y728727D01*
X1038156Y728920D01*
G37*
%LPD*%
%LPC*%
G36*
X803156Y718920D02*
X803156Y718920D01*
X802005Y719397D01*
X800969Y720089D01*
X800089Y720969D01*
X799397Y722005D01*
X798920Y723156D01*
X798727Y724126D01*
X804126Y724126D01*
X804126Y718727D01*
X803156Y718920D01*
G37*
%LPD*%
%LPC*%
G36*
X613156Y718920D02*
X613156Y718920D01*
X612005Y719397D01*
X610969Y720089D01*
X610089Y720969D01*
X609397Y722005D01*
X608920Y723156D01*
X608727Y724126D01*
X614126Y724126D01*
X614126Y718727D01*
X613156Y718920D01*
G37*
%LPD*%
%LPC*%
G36*
X533156Y903920D02*
X533156Y903920D01*
X532005Y904397D01*
X530969Y905089D01*
X530089Y905969D01*
X529397Y907005D01*
X528920Y908156D01*
X528727Y909126D01*
X534126Y909126D01*
X534126Y903727D01*
X533156Y903920D01*
G37*
%LPD*%
%LPC*%
G36*
X683156Y708920D02*
X683156Y708920D01*
X682005Y709397D01*
X680969Y710089D01*
X680089Y710969D01*
X679397Y712005D01*
X678920Y713156D01*
X678727Y714126D01*
X684126Y714126D01*
X684126Y708727D01*
X683156Y708920D01*
G37*
%LPD*%
%LPC*%
G36*
X503156Y693920D02*
X503156Y693920D01*
X502005Y694397D01*
X500969Y695089D01*
X500089Y695969D01*
X499397Y697005D01*
X498920Y698156D01*
X498727Y699126D01*
X504126Y699126D01*
X504126Y693727D01*
X503156Y693920D01*
G37*
%LPD*%
%LPC*%
G36*
X923156Y818920D02*
X923156Y818920D01*
X922005Y819397D01*
X920969Y820089D01*
X920089Y820969D01*
X919397Y822005D01*
X918920Y823156D01*
X918727Y824126D01*
X924126Y824126D01*
X924126Y818727D01*
X923156Y818920D01*
G37*
%LPD*%
%LPC*%
G36*
X573156Y853920D02*
X573156Y853920D01*
X572005Y854397D01*
X570969Y855089D01*
X570089Y855969D01*
X569397Y857005D01*
X568920Y858156D01*
X568727Y859126D01*
X574126Y859126D01*
X574126Y853727D01*
X573156Y853920D01*
G37*
%LPD*%
%LPC*%
G36*
X728156Y793920D02*
X728156Y793920D01*
X727005Y794397D01*
X725969Y795089D01*
X725089Y795969D01*
X724397Y797005D01*
X723920Y798156D01*
X723727Y799126D01*
X729126Y799126D01*
X729126Y793727D01*
X728156Y793920D01*
G37*
%LPD*%
%LPC*%
G36*
X877624Y773920D02*
X877624Y773920D01*
X876473Y774397D01*
X875437Y775089D01*
X874557Y775969D01*
X873865Y777005D01*
X873388Y778156D01*
X873195Y779126D01*
X878594Y779126D01*
X878594Y773727D01*
X877624Y773920D01*
G37*
%LPD*%
%LPC*%
G36*
X608156Y768920D02*
X608156Y768920D01*
X607005Y769397D01*
X605969Y770089D01*
X605089Y770969D01*
X604397Y772005D01*
X603920Y773156D01*
X603727Y774126D01*
X609126Y774126D01*
X609126Y768727D01*
X608156Y768920D01*
G37*
%LPD*%
%LPC*%
G36*
X833156Y808920D02*
X833156Y808920D01*
X832005Y809397D01*
X830969Y810089D01*
X830089Y810969D01*
X829397Y812005D01*
X828920Y813156D01*
X828727Y814126D01*
X834126Y814126D01*
X834126Y808727D01*
X833156Y808920D01*
G37*
%LPD*%
%LPC*%
G36*
X769988Y858920D02*
X769988Y858920D01*
X768837Y859397D01*
X767801Y860089D01*
X766921Y860969D01*
X766229Y862005D01*
X765752Y863156D01*
X765559Y864126D01*
X770958Y864126D01*
X770958Y858727D01*
X769988Y858920D01*
G37*
%LPD*%
%LPC*%
G36*
X643156Y793920D02*
X643156Y793920D01*
X642005Y794397D01*
X640969Y795089D01*
X640089Y795969D01*
X639397Y797005D01*
X638920Y798156D01*
X638727Y799126D01*
X644126Y799126D01*
X644126Y793727D01*
X643156Y793920D01*
G37*
%LPD*%
%LPC*%
G36*
X948156Y718920D02*
X948156Y718920D01*
X947005Y719397D01*
X945969Y720089D01*
X945089Y720969D01*
X944397Y722005D01*
X943920Y723156D01*
X943727Y724126D01*
X949126Y724126D01*
X949126Y718727D01*
X948156Y718920D01*
G37*
%LPD*%
%LPC*%
G36*
X638156Y868920D02*
X638156Y868920D01*
X637005Y869397D01*
X635969Y870089D01*
X635089Y870969D01*
X634397Y872005D01*
X633920Y873156D01*
X633727Y874126D01*
X639126Y874126D01*
X639126Y868727D01*
X638156Y868920D01*
G37*
%LPD*%
G36*
X1046634Y595300D02*
X1046634Y595300D01*
X1046653Y595298D01*
X1046755Y595320D01*
X1046857Y595337D01*
X1046874Y595346D01*
X1046894Y595350D01*
X1046983Y595403D01*
X1047074Y595452D01*
X1047088Y595466D01*
X1047105Y595476D01*
X1047172Y595555D01*
X1047243Y595630D01*
X1047252Y595648D01*
X1047265Y595663D01*
X1047304Y595759D01*
X1047347Y595853D01*
X1047349Y595873D01*
X1047357Y595891D01*
X1047375Y596058D01*
X1047375Y597328D01*
X1047373Y597339D01*
X1047374Y597347D01*
X1047373Y597354D01*
X1047374Y597367D01*
X1047352Y597469D01*
X1047335Y597571D01*
X1047326Y597588D01*
X1047322Y597608D01*
X1047269Y597697D01*
X1047220Y597788D01*
X1047206Y597802D01*
X1047196Y597819D01*
X1047117Y597886D01*
X1047042Y597957D01*
X1047024Y597966D01*
X1047009Y597979D01*
X1046913Y598017D01*
X1046819Y598061D01*
X1046799Y598063D01*
X1046781Y598071D01*
X1046614Y598089D01*
X1045090Y598089D01*
X1045070Y598086D01*
X1045051Y598088D01*
X1044949Y598066D01*
X1044847Y598049D01*
X1044830Y598040D01*
X1044810Y598036D01*
X1044721Y597983D01*
X1044630Y597934D01*
X1044616Y597920D01*
X1044599Y597910D01*
X1044532Y597831D01*
X1044461Y597756D01*
X1044452Y597738D01*
X1044439Y597723D01*
X1044400Y597627D01*
X1044357Y597533D01*
X1044355Y597513D01*
X1044347Y597495D01*
X1044329Y597328D01*
X1044329Y596058D01*
X1044332Y596038D01*
X1044330Y596019D01*
X1044352Y595917D01*
X1044369Y595815D01*
X1044378Y595798D01*
X1044382Y595778D01*
X1044435Y595689D01*
X1044484Y595598D01*
X1044498Y595584D01*
X1044508Y595567D01*
X1044587Y595500D01*
X1044662Y595429D01*
X1044680Y595420D01*
X1044695Y595407D01*
X1044791Y595369D01*
X1044885Y595325D01*
X1044905Y595323D01*
X1044923Y595315D01*
X1045090Y595297D01*
X1046614Y595297D01*
X1046634Y595300D01*
G37*
G36*
X976530Y595554D02*
X976530Y595554D01*
X976549Y595552D01*
X976651Y595574D01*
X976753Y595591D01*
X976770Y595600D01*
X976790Y595604D01*
X976879Y595657D01*
X976970Y595706D01*
X976984Y595720D01*
X977001Y595730D01*
X977068Y595809D01*
X977139Y595884D01*
X977148Y595902D01*
X977161Y595917D01*
X977200Y596013D01*
X977243Y596107D01*
X977245Y596127D01*
X977253Y596145D01*
X977271Y596312D01*
X977271Y597328D01*
X977269Y597339D01*
X977270Y597347D01*
X977269Y597354D01*
X977270Y597367D01*
X977248Y597469D01*
X977231Y597571D01*
X977222Y597588D01*
X977218Y597608D01*
X977165Y597697D01*
X977116Y597788D01*
X977102Y597802D01*
X977092Y597819D01*
X977013Y597886D01*
X976938Y597957D01*
X976920Y597966D01*
X976905Y597979D01*
X976809Y598017D01*
X976715Y598061D01*
X976695Y598063D01*
X976677Y598071D01*
X976510Y598089D01*
X974986Y598089D01*
X974966Y598086D01*
X974947Y598088D01*
X974845Y598066D01*
X974743Y598049D01*
X974726Y598040D01*
X974706Y598036D01*
X974617Y597983D01*
X974526Y597934D01*
X974512Y597920D01*
X974495Y597910D01*
X974428Y597831D01*
X974357Y597756D01*
X974348Y597738D01*
X974335Y597723D01*
X974296Y597627D01*
X974253Y597533D01*
X974251Y597513D01*
X974243Y597495D01*
X974225Y597328D01*
X974225Y596312D01*
X974228Y596292D01*
X974226Y596273D01*
X974248Y596171D01*
X974265Y596069D01*
X974274Y596052D01*
X974278Y596032D01*
X974331Y595943D01*
X974380Y595852D01*
X974394Y595838D01*
X974404Y595821D01*
X974483Y595754D01*
X974558Y595683D01*
X974576Y595674D01*
X974591Y595661D01*
X974687Y595623D01*
X974781Y595579D01*
X974801Y595577D01*
X974819Y595569D01*
X974986Y595551D01*
X976510Y595551D01*
X976530Y595554D01*
G37*
G36*
X976530Y593014D02*
X976530Y593014D01*
X976549Y593012D01*
X976651Y593034D01*
X976753Y593051D01*
X976770Y593060D01*
X976790Y593064D01*
X976879Y593117D01*
X976970Y593166D01*
X976984Y593180D01*
X977001Y593190D01*
X977068Y593269D01*
X977139Y593344D01*
X977148Y593362D01*
X977161Y593377D01*
X977200Y593473D01*
X977243Y593567D01*
X977245Y593587D01*
X977253Y593605D01*
X977271Y593772D01*
X977271Y594788D01*
X977268Y594808D01*
X977270Y594827D01*
X977248Y594929D01*
X977231Y595031D01*
X977222Y595048D01*
X977218Y595068D01*
X977165Y595157D01*
X977116Y595248D01*
X977102Y595262D01*
X977092Y595279D01*
X977013Y595346D01*
X976938Y595417D01*
X976920Y595426D01*
X976905Y595439D01*
X976809Y595477D01*
X976715Y595521D01*
X976695Y595523D01*
X976677Y595531D01*
X976510Y595549D01*
X974986Y595549D01*
X974966Y595546D01*
X974947Y595548D01*
X974845Y595526D01*
X974743Y595509D01*
X974726Y595500D01*
X974706Y595496D01*
X974617Y595443D01*
X974526Y595394D01*
X974512Y595380D01*
X974495Y595370D01*
X974428Y595291D01*
X974357Y595216D01*
X974348Y595198D01*
X974335Y595183D01*
X974296Y595087D01*
X974253Y594993D01*
X974251Y594973D01*
X974243Y594955D01*
X974225Y594788D01*
X974225Y593772D01*
X974228Y593752D01*
X974226Y593733D01*
X974248Y593631D01*
X974265Y593529D01*
X974274Y593512D01*
X974278Y593492D01*
X974331Y593403D01*
X974380Y593312D01*
X974394Y593298D01*
X974404Y593281D01*
X974483Y593214D01*
X974558Y593143D01*
X974576Y593134D01*
X974591Y593121D01*
X974687Y593083D01*
X974781Y593039D01*
X974801Y593037D01*
X974819Y593029D01*
X974986Y593011D01*
X976510Y593011D01*
X976530Y593014D01*
G37*
G36*
X1046634Y593014D02*
X1046634Y593014D01*
X1046653Y593012D01*
X1046755Y593034D01*
X1046857Y593051D01*
X1046874Y593060D01*
X1046894Y593064D01*
X1046983Y593117D01*
X1047074Y593166D01*
X1047088Y593180D01*
X1047105Y593190D01*
X1047172Y593269D01*
X1047243Y593344D01*
X1047252Y593362D01*
X1047265Y593377D01*
X1047304Y593473D01*
X1047347Y593567D01*
X1047349Y593587D01*
X1047357Y593605D01*
X1047375Y593772D01*
X1047375Y594534D01*
X1047372Y594554D01*
X1047374Y594573D01*
X1047352Y594675D01*
X1047335Y594777D01*
X1047326Y594794D01*
X1047322Y594814D01*
X1047269Y594903D01*
X1047220Y594994D01*
X1047206Y595008D01*
X1047196Y595025D01*
X1047117Y595092D01*
X1047042Y595163D01*
X1047024Y595172D01*
X1047009Y595185D01*
X1046913Y595223D01*
X1046819Y595267D01*
X1046799Y595269D01*
X1046781Y595277D01*
X1046614Y595295D01*
X1045090Y595295D01*
X1045070Y595292D01*
X1045051Y595294D01*
X1044949Y595272D01*
X1044847Y595255D01*
X1044830Y595246D01*
X1044810Y595242D01*
X1044721Y595189D01*
X1044630Y595140D01*
X1044616Y595126D01*
X1044599Y595116D01*
X1044532Y595037D01*
X1044461Y594962D01*
X1044452Y594944D01*
X1044439Y594929D01*
X1044400Y594833D01*
X1044357Y594739D01*
X1044355Y594719D01*
X1044347Y594701D01*
X1044329Y594534D01*
X1044329Y593772D01*
X1044332Y593752D01*
X1044330Y593733D01*
X1044352Y593631D01*
X1044369Y593529D01*
X1044378Y593512D01*
X1044382Y593492D01*
X1044435Y593403D01*
X1044484Y593312D01*
X1044498Y593298D01*
X1044508Y593281D01*
X1044587Y593214D01*
X1044662Y593143D01*
X1044680Y593134D01*
X1044695Y593121D01*
X1044791Y593083D01*
X1044885Y593039D01*
X1044905Y593037D01*
X1044923Y593029D01*
X1045090Y593011D01*
X1046614Y593011D01*
X1046634Y593014D01*
G37*
G36*
X1046634Y590926D02*
X1046634Y590926D01*
X1046653Y590924D01*
X1046755Y590946D01*
X1046857Y590962D01*
X1046874Y590972D01*
X1046894Y590976D01*
X1046983Y591029D01*
X1047074Y591078D01*
X1047088Y591092D01*
X1047105Y591102D01*
X1047172Y591181D01*
X1047243Y591256D01*
X1047252Y591274D01*
X1047265Y591289D01*
X1047304Y591385D01*
X1047347Y591479D01*
X1047349Y591499D01*
X1047357Y591517D01*
X1047375Y591684D01*
X1047375Y592248D01*
X1047372Y592268D01*
X1047374Y592287D01*
X1047352Y592389D01*
X1047335Y592491D01*
X1047326Y592508D01*
X1047322Y592528D01*
X1047269Y592617D01*
X1047220Y592708D01*
X1047206Y592722D01*
X1047196Y592739D01*
X1047117Y592806D01*
X1047042Y592877D01*
X1047024Y592886D01*
X1047009Y592899D01*
X1046913Y592937D01*
X1046819Y592981D01*
X1046799Y592983D01*
X1046781Y592991D01*
X1046614Y593009D01*
X1045090Y593009D01*
X1045070Y593006D01*
X1045051Y593008D01*
X1044949Y592986D01*
X1044847Y592969D01*
X1044830Y592960D01*
X1044810Y592956D01*
X1044721Y592903D01*
X1044630Y592854D01*
X1044616Y592840D01*
X1044599Y592830D01*
X1044532Y592751D01*
X1044461Y592676D01*
X1044452Y592658D01*
X1044439Y592643D01*
X1044400Y592547D01*
X1044357Y592453D01*
X1044355Y592433D01*
X1044347Y592415D01*
X1044329Y592248D01*
X1044329Y591684D01*
X1044332Y591664D01*
X1044330Y591645D01*
X1044352Y591543D01*
X1044369Y591441D01*
X1044378Y591424D01*
X1044382Y591404D01*
X1044435Y591315D01*
X1044484Y591224D01*
X1044498Y591210D01*
X1044508Y591193D01*
X1044587Y591126D01*
X1044662Y591054D01*
X1044680Y591046D01*
X1044695Y591033D01*
X1044791Y590994D01*
X1044885Y590951D01*
X1044905Y590949D01*
X1044923Y590941D01*
X1045090Y590923D01*
X1046614Y590923D01*
X1046634Y590926D01*
G37*
G36*
X976530Y590926D02*
X976530Y590926D01*
X976549Y590924D01*
X976651Y590946D01*
X976753Y590962D01*
X976770Y590972D01*
X976790Y590976D01*
X976879Y591029D01*
X976970Y591078D01*
X976984Y591092D01*
X977001Y591102D01*
X977068Y591181D01*
X977139Y591256D01*
X977148Y591274D01*
X977161Y591289D01*
X977200Y591385D01*
X977243Y591479D01*
X977245Y591499D01*
X977253Y591517D01*
X977271Y591684D01*
X977271Y592248D01*
X977268Y592268D01*
X977270Y592287D01*
X977248Y592389D01*
X977231Y592491D01*
X977222Y592508D01*
X977218Y592528D01*
X977165Y592617D01*
X977116Y592708D01*
X977102Y592722D01*
X977092Y592739D01*
X977013Y592806D01*
X976938Y592877D01*
X976920Y592886D01*
X976905Y592899D01*
X976809Y592937D01*
X976715Y592981D01*
X976695Y592983D01*
X976677Y592991D01*
X976510Y593009D01*
X974986Y593009D01*
X974966Y593006D01*
X974947Y593008D01*
X974845Y592986D01*
X974743Y592969D01*
X974726Y592960D01*
X974706Y592956D01*
X974617Y592903D01*
X974526Y592854D01*
X974512Y592840D01*
X974495Y592830D01*
X974428Y592751D01*
X974357Y592676D01*
X974348Y592658D01*
X974335Y592643D01*
X974296Y592547D01*
X974253Y592453D01*
X974251Y592433D01*
X974243Y592415D01*
X974225Y592248D01*
X974225Y591684D01*
X974228Y591664D01*
X974226Y591645D01*
X974248Y591543D01*
X974265Y591441D01*
X974274Y591424D01*
X974278Y591404D01*
X974331Y591315D01*
X974380Y591224D01*
X974394Y591210D01*
X974404Y591193D01*
X974483Y591126D01*
X974558Y591054D01*
X974576Y591046D01*
X974591Y591033D01*
X974687Y590994D01*
X974781Y590951D01*
X974801Y590949D01*
X974819Y590941D01*
X974986Y590923D01*
X976510Y590923D01*
X976530Y590926D01*
G37*
%LPC*%
G36*
X367499Y844999D02*
X367499Y844999D01*
X367499Y845001D01*
X367501Y845001D01*
X367501Y844999D01*
X367499Y844999D01*
G37*
%LPD*%
%LPC*%
G36*
X1348099Y818599D02*
X1348099Y818599D01*
X1348099Y818601D01*
X1348101Y818601D01*
X1348101Y818599D01*
X1348099Y818599D01*
G37*
%LPD*%
%LPC*%
G36*
X873399Y943999D02*
X873399Y943999D01*
X873399Y944001D01*
X873401Y944001D01*
X873401Y943999D01*
X873399Y943999D01*
G37*
%LPD*%
%LPC*%
G36*
X1051199Y943999D02*
X1051199Y943999D01*
X1051199Y944001D01*
X1051201Y944001D01*
X1051201Y943999D01*
X1051199Y943999D01*
G37*
%LPD*%
%LPC*%
G36*
X670199Y943999D02*
X670199Y943999D01*
X670199Y944001D01*
X670201Y944001D01*
X670201Y943999D01*
X670199Y943999D01*
G37*
%LPD*%
%LPC*%
G36*
X48899Y818599D02*
X48899Y818599D01*
X48899Y818601D01*
X48901Y818601D01*
X48901Y818599D01*
X48899Y818599D01*
G37*
%LPD*%
%LPC*%
G36*
X212499Y534999D02*
X212499Y534999D01*
X212499Y535001D01*
X212501Y535001D01*
X212501Y534999D01*
X212499Y534999D01*
G37*
%LPD*%
%LPC*%
G36*
X1512499Y534999D02*
X1512499Y534999D01*
X1512499Y535001D01*
X1512501Y535001D01*
X1512501Y534999D01*
X1512499Y534999D01*
G37*
%LPD*%
%LPC*%
G36*
X1387499Y534999D02*
X1387499Y534999D01*
X1387499Y535001D01*
X1387501Y535001D01*
X1387501Y534999D01*
X1387499Y534999D01*
G37*
%LPD*%
%LPC*%
G36*
X87499Y534999D02*
X87499Y534999D01*
X87499Y535001D01*
X87501Y535001D01*
X87501Y534999D01*
X87499Y534999D01*
G37*
%LPD*%
%LPC*%
G36*
X974999Y969399D02*
X974999Y969399D01*
X974999Y969401D01*
X975001Y969401D01*
X975001Y969399D01*
X974999Y969399D01*
G37*
%LPD*%
%LPC*%
G36*
X720999Y969399D02*
X720999Y969399D01*
X720999Y969401D01*
X721001Y969401D01*
X721001Y969399D01*
X720999Y969399D01*
G37*
%LPD*%
%LPC*%
G36*
X1232499Y844999D02*
X1232499Y844999D01*
X1232499Y845001D01*
X1232501Y845001D01*
X1232501Y844999D01*
X1232499Y844999D01*
G37*
%LPD*%
%LPC*%
G36*
X1167499Y664999D02*
X1167499Y664999D01*
X1167499Y665001D01*
X1167501Y665001D01*
X1167501Y664999D01*
X1167499Y664999D01*
G37*
%LPD*%
%LPC*%
G36*
X797199Y969399D02*
X797199Y969399D01*
X797199Y969401D01*
X797201Y969401D01*
X797201Y969399D01*
X797199Y969399D01*
G37*
%LPD*%
%LPC*%
G36*
X1292499Y664999D02*
X1292499Y664999D01*
X1292499Y665001D01*
X1292501Y665001D01*
X1292501Y664999D01*
X1292499Y664999D01*
G37*
%LPD*%
%LPC*%
G36*
X492499Y844999D02*
X492499Y844999D01*
X492499Y845001D01*
X492501Y845001D01*
X492501Y844999D01*
X492499Y844999D01*
G37*
%LPD*%
%LPC*%
G36*
X924199Y969399D02*
X924199Y969399D01*
X924199Y969401D01*
X924201Y969401D01*
X924201Y969399D01*
X924199Y969399D01*
G37*
%LPD*%
%LPC*%
G36*
X1107499Y844999D02*
X1107499Y844999D01*
X1107499Y845001D01*
X1107501Y845001D01*
X1107501Y844999D01*
X1107499Y844999D01*
G37*
%LPD*%
%LPC*%
G36*
X1475099Y742399D02*
X1475099Y742399D01*
X1475099Y742401D01*
X1475101Y742401D01*
X1475101Y742399D01*
X1475099Y742399D01*
G37*
%LPD*%
%LPC*%
G36*
X307499Y664999D02*
X307499Y664999D01*
X307499Y665001D01*
X307501Y665001D01*
X307501Y664999D01*
X307499Y664999D01*
G37*
%LPD*%
%LPC*%
G36*
X619399Y969399D02*
X619399Y969399D01*
X619399Y969401D01*
X619401Y969401D01*
X619401Y969399D01*
X619399Y969399D01*
G37*
%LPD*%
%LPC*%
G36*
X432499Y664999D02*
X432499Y664999D01*
X432499Y665001D01*
X432501Y665001D01*
X432501Y664999D01*
X432499Y664999D01*
G37*
%LPD*%
%LPC*%
G36*
X175899Y742399D02*
X175899Y742399D01*
X175899Y742401D01*
X175901Y742401D01*
X175901Y742399D01*
X175899Y742399D01*
G37*
%LPD*%
D10*
X1036962Y622474D03*
X1034422Y622474D03*
X1035692Y622474D03*
X987178Y622474D03*
X984638Y622474D03*
X986162Y622474D03*
D11*
X1045852Y598090D03*
X975748Y598090D03*
X1045852Y593010D03*
X1045852Y595296D03*
X975748Y593010D03*
X975748Y595550D03*
D12*
X1373500Y910675D03*
X1525900Y910675D03*
X1525900Y777325D03*
X1373500Y777325D03*
D13*
X1475100Y742400D03*
X1449700Y742400D03*
X1424300Y742400D03*
X1348100Y844000D03*
X1348100Y818600D03*
X1348100Y869400D03*
D14*
X1472560Y920200D02*
X1490340Y920200D01*
X1426840Y920200D02*
X1409060Y920200D01*
X1409060Y965200D02*
X1426840Y965200D01*
X1472560Y965200D02*
X1490340Y965200D01*
D15*
X1018000Y808300D02*
X1000500Y808300D01*
X1018000Y808300D02*
X1018000Y803800D01*
X1000500Y803800D01*
X1000500Y808300D01*
X1000500Y805225D02*
X1018000Y805225D01*
X1018000Y806650D02*
X1000500Y806650D01*
X1000500Y808075D02*
X1018000Y808075D01*
X1018000Y821000D02*
X1000500Y821000D01*
X1018000Y821000D02*
X1018000Y816500D01*
X1000500Y816500D01*
X1000500Y821000D01*
X1000500Y817925D02*
X1018000Y817925D01*
X1018000Y819350D02*
X1000500Y819350D01*
X1000500Y820775D02*
X1018000Y820775D01*
X1018000Y833700D02*
X1000500Y833700D01*
X1018000Y833700D02*
X1018000Y829200D01*
X1000500Y829200D01*
X1000500Y833700D01*
X1000500Y830625D02*
X1018000Y830625D01*
X1018000Y832050D02*
X1000500Y832050D01*
X1000500Y833475D02*
X1018000Y833475D01*
X1018000Y846400D02*
X1000500Y846400D01*
X1018000Y846400D02*
X1018000Y841900D01*
X1000500Y841900D01*
X1000500Y846400D01*
X1000500Y843325D02*
X1018000Y843325D01*
X1018000Y844750D02*
X1000500Y844750D01*
X1000500Y846175D02*
X1018000Y846175D01*
X1018000Y859100D02*
X1000500Y859100D01*
X1018000Y859100D02*
X1018000Y854600D01*
X1000500Y854600D01*
X1000500Y859100D01*
X1000500Y856025D02*
X1018000Y856025D01*
X1018000Y857450D02*
X1000500Y857450D01*
X1000500Y858875D02*
X1018000Y858875D01*
X1018000Y871800D02*
X1000500Y871800D01*
X1018000Y871800D02*
X1018000Y867300D01*
X1000500Y867300D01*
X1000500Y871800D01*
X1000500Y868725D02*
X1018000Y868725D01*
X1018000Y870150D02*
X1000500Y870150D01*
X1000500Y871575D02*
X1018000Y871575D01*
X1018000Y884500D02*
X1000500Y884500D01*
X1018000Y884500D02*
X1018000Y880000D01*
X1000500Y880000D01*
X1000500Y884500D01*
X1000500Y881425D02*
X1018000Y881425D01*
X1018000Y882850D02*
X1000500Y882850D01*
X1000500Y884275D02*
X1018000Y884275D01*
X1018000Y897200D02*
X1000500Y897200D01*
X1018000Y897200D02*
X1018000Y892700D01*
X1000500Y892700D01*
X1000500Y897200D01*
X1000500Y894125D02*
X1018000Y894125D01*
X1018000Y895550D02*
X1000500Y895550D01*
X1000500Y896975D02*
X1018000Y896975D01*
X968900Y897200D02*
X951400Y897200D01*
X968900Y897200D02*
X968900Y892700D01*
X951400Y892700D01*
X951400Y897200D01*
X951400Y894125D02*
X968900Y894125D01*
X968900Y895550D02*
X951400Y895550D01*
X951400Y896975D02*
X968900Y896975D01*
X968900Y884500D02*
X951400Y884500D01*
X968900Y884500D02*
X968900Y880000D01*
X951400Y880000D01*
X951400Y884500D01*
X951400Y881425D02*
X968900Y881425D01*
X968900Y882850D02*
X951400Y882850D01*
X951400Y884275D02*
X968900Y884275D01*
X968900Y871800D02*
X951400Y871800D01*
X968900Y871800D02*
X968900Y867300D01*
X951400Y867300D01*
X951400Y871800D01*
X951400Y868725D02*
X968900Y868725D01*
X968900Y870150D02*
X951400Y870150D01*
X951400Y871575D02*
X968900Y871575D01*
X968900Y859100D02*
X951400Y859100D01*
X968900Y859100D02*
X968900Y854600D01*
X951400Y854600D01*
X951400Y859100D01*
X951400Y856025D02*
X968900Y856025D01*
X968900Y857450D02*
X951400Y857450D01*
X951400Y858875D02*
X968900Y858875D01*
X968900Y846400D02*
X951400Y846400D01*
X968900Y846400D02*
X968900Y841900D01*
X951400Y841900D01*
X951400Y846400D01*
X951400Y843325D02*
X968900Y843325D01*
X968900Y844750D02*
X951400Y844750D01*
X951400Y846175D02*
X968900Y846175D01*
X968900Y833700D02*
X951400Y833700D01*
X968900Y833700D02*
X968900Y829200D01*
X951400Y829200D01*
X951400Y833700D01*
X951400Y830625D02*
X968900Y830625D01*
X968900Y832050D02*
X951400Y832050D01*
X951400Y833475D02*
X968900Y833475D01*
X968900Y821000D02*
X951400Y821000D01*
X968900Y821000D02*
X968900Y816500D01*
X951400Y816500D01*
X951400Y821000D01*
X951400Y817925D02*
X968900Y817925D01*
X968900Y819350D02*
X951400Y819350D01*
X951400Y820775D02*
X968900Y820775D01*
X968900Y808300D02*
X951400Y808300D01*
X968900Y808300D02*
X968900Y803800D01*
X951400Y803800D01*
X951400Y808300D01*
X951400Y805225D02*
X968900Y805225D01*
X968900Y806650D02*
X951400Y806650D01*
X951400Y808075D02*
X968900Y808075D01*
D12*
X74300Y910675D03*
X226700Y910675D03*
X226700Y777325D03*
X74300Y777325D03*
D13*
X175900Y742400D03*
X150500Y742400D03*
X125100Y742400D03*
X48900Y844000D03*
X48900Y818600D03*
X48900Y869400D03*
D14*
X173360Y920200D02*
X191140Y920200D01*
X127640Y920200D02*
X109860Y920200D01*
X109860Y965200D02*
X127640Y965200D01*
X173360Y965200D02*
X191140Y965200D01*
D16*
X568600Y944000D03*
D13*
X568600Y969400D03*
X594000Y944000D03*
X594000Y969400D03*
X619400Y944000D03*
X619400Y969400D03*
X644800Y944000D03*
X644800Y969400D03*
X670200Y944000D03*
X670200Y969400D03*
X695600Y944000D03*
X695600Y969400D03*
X721000Y944000D03*
X721000Y969400D03*
X746400Y944000D03*
X746400Y969400D03*
X771800Y944000D03*
X771800Y969400D03*
X797200Y944000D03*
X797200Y969400D03*
X822600Y944000D03*
X822600Y969400D03*
X848000Y944000D03*
X848000Y969400D03*
X873400Y944000D03*
X873400Y969400D03*
X898800Y944000D03*
X898800Y969400D03*
X924200Y944000D03*
X924200Y969400D03*
X949600Y944000D03*
X949600Y969400D03*
X975000Y944000D03*
X975000Y969400D03*
X1000400Y944000D03*
X1000400Y969400D03*
X1025800Y944000D03*
X1025800Y969400D03*
X1051200Y944000D03*
X1051200Y969400D03*
D17*
X87500Y535000D03*
D18*
X87500Y485000D03*
X212500Y535000D03*
X212500Y485000D03*
D17*
X1107500Y845000D03*
D18*
X1107500Y795000D03*
X1232500Y845000D03*
X1232500Y795000D03*
D17*
X1167500Y665000D03*
D18*
X1167500Y615000D03*
X1292500Y665000D03*
X1292500Y615000D03*
D17*
X1387500Y535000D03*
D18*
X1387500Y485000D03*
X1512500Y535000D03*
X1512500Y485000D03*
D17*
X307500Y665000D03*
D18*
X307500Y615000D03*
X432500Y665000D03*
X432500Y615000D03*
D17*
X367500Y845000D03*
D18*
X367500Y795000D03*
X492500Y845000D03*
X492500Y795000D03*
D19*
X512500Y600800D03*
X492500Y600800D03*
D20*
X640000Y875000D03*
X771832Y865000D03*
X805000Y725000D03*
X879468Y780000D03*
X685000Y715000D03*
X615000Y725000D03*
X1040000Y735000D03*
X950000Y725000D03*
X730000Y800000D03*
X575000Y860000D03*
X505000Y700000D03*
X925000Y825000D03*
X835000Y815000D03*
X710000Y855000D03*
X535000Y910000D03*
X610000Y775000D03*
X645000Y800000D03*
D21*
X960000Y806250D02*
X960000Y818750D01*
X960000Y806250D02*
X960150Y806050D01*
X960000Y818750D02*
X960150Y818750D01*
X958750Y805000D02*
X958750Y795000D01*
X958750Y805000D02*
X960150Y806050D01*
D22*
X958750Y795000D03*
D23*
X977500Y857500D02*
X1008750Y857500D01*
X911250Y841250D02*
X901250Y851250D01*
X663750Y847500D02*
X622500Y806250D01*
X1008750Y857500D02*
X1009250Y856850D01*
D22*
X977500Y857500D03*
X911250Y841250D03*
X901250Y851250D03*
X663750Y847500D03*
X622500Y806250D03*
D23*
X888750Y615000D02*
X902500Y628750D01*
D22*
X902500Y628750D03*
X888750Y615000D03*
D23*
X1008750Y793750D02*
X1008750Y805000D01*
X1008750Y793750D02*
X1005000Y790000D01*
X1005000Y785000D01*
X1010000Y780000D01*
X1047500Y780000D01*
X1090000Y822500D01*
X1090000Y880000D01*
X1116250Y906250D01*
X1009250Y806050D02*
X1008750Y805000D01*
D22*
X1116250Y906250D03*
D23*
X1009250Y818750D02*
X1005000Y818750D01*
X977500Y846250D01*
X891250Y797500D02*
X886250Y792500D01*
X886250Y768750D01*
X778750Y661250D01*
X408750Y682500D02*
X398750Y692500D01*
D22*
X977500Y846250D03*
X891250Y797500D03*
X778750Y661250D03*
X408750Y682500D03*
X398750Y692500D03*
D23*
X1010000Y832500D02*
X1020000Y832500D01*
X1030000Y842500D01*
X1031250Y842500D01*
X1010000Y832500D02*
X1009250Y831450D01*
D22*
X1031250Y842500D03*
D23*
X1020000Y845000D02*
X1010000Y845000D01*
X1020000Y845000D02*
X1025000Y850000D01*
X1010000Y845000D02*
X1009250Y844150D01*
D22*
X1025000Y850000D03*
D23*
X882500Y708750D02*
X861250Y687500D01*
X840000Y687500D01*
X813750Y661250D01*
X1003750Y910000D02*
X992500Y921250D01*
X1025000Y821250D02*
X1026250Y820000D01*
X1026250Y801250D01*
X1012500Y787500D01*
D22*
X882500Y708750D03*
X813750Y661250D03*
X992500Y921250D03*
X1003750Y910000D03*
X1025000Y821250D03*
X1012500Y787500D03*
D23*
X916250Y782500D02*
X916250Y772500D01*
X916250Y782500D02*
X906250Y792500D01*
X517500Y801250D02*
X517500Y821250D01*
D22*
X916250Y772500D03*
X906250Y792500D03*
X517500Y801250D03*
X517500Y821250D03*
D23*
X1022500Y791250D02*
X1022500Y787500D01*
X1022500Y791250D02*
X1035000Y803750D01*
X1035000Y821250D01*
X492500Y821250D02*
X492500Y795000D01*
D22*
X1022500Y787500D03*
X1035000Y821250D03*
X492500Y821250D03*
D21*
X866250Y641250D02*
X882500Y657500D01*
X660000Y753750D02*
X660000Y773750D01*
D22*
X882500Y657500D03*
X866250Y641250D03*
X660000Y773750D03*
X660000Y753750D03*
D21*
X656250Y723750D02*
X622500Y757500D01*
X643750Y711250D02*
X643750Y707500D01*
X643750Y711250D02*
X656250Y723750D01*
X735000Y751250D02*
X748750Y765000D01*
D22*
X622500Y757500D03*
X656250Y723750D03*
X643750Y707500D03*
X748750Y765000D03*
X735000Y751250D03*
D23*
X1010000Y698750D02*
X1020000Y708750D01*
X951250Y757500D02*
X890000Y818750D01*
D22*
X1010000Y698750D03*
X1020000Y708750D03*
X951250Y757500D03*
X890000Y818750D03*
D23*
X840000Y781250D02*
X860000Y761250D01*
D22*
X860000Y761250D03*
X840000Y781250D03*
D23*
X656250Y853750D02*
X621250Y818750D01*
D22*
X621250Y818750D03*
X656250Y853750D03*
D23*
X951250Y845000D02*
X960000Y845000D01*
X951250Y845000D02*
X945000Y851250D01*
X960000Y845000D02*
X960150Y844150D01*
D22*
X945000Y851250D03*
D23*
X938750Y870000D02*
X960000Y870000D01*
X938750Y870000D02*
X937500Y868750D01*
X960000Y870000D02*
X960150Y869550D01*
D22*
X937500Y868750D03*
D23*
X950000Y857500D02*
X960000Y857500D01*
X950000Y857500D02*
X945000Y862500D01*
X960000Y857500D02*
X960150Y856850D01*
D22*
X945000Y862500D03*
D23*
X952500Y882500D02*
X960000Y882500D01*
X952500Y882500D02*
X946250Y888750D01*
X960000Y882500D02*
X960150Y882250D01*
D22*
X946250Y888750D03*
D23*
X885000Y731250D02*
X862500Y708750D01*
X992500Y801250D02*
X992500Y821250D01*
D22*
X862500Y708750D03*
X885000Y731250D03*
X992500Y821250D03*
X992500Y801250D03*
D23*
X882500Y680000D02*
X862500Y680000D01*
X1045000Y787500D02*
X1045000Y821250D01*
D22*
X862500Y680000D03*
X882500Y680000D03*
X1045000Y821250D03*
X1045000Y787500D03*
D23*
X861250Y753750D02*
X838750Y731250D01*
X861250Y753750D02*
X862500Y753750D01*
X867500Y758750D01*
X867500Y781250D01*
X860000Y788750D01*
X908750Y888750D02*
X947500Y927500D01*
X1028750Y968750D02*
X1041250Y956250D01*
X1028750Y968750D02*
X1026250Y968750D01*
X1025800Y969400D01*
D22*
X838750Y731250D03*
X860000Y788750D03*
X908750Y888750D03*
X947500Y927500D03*
X1041250Y956250D03*
M02*
