G04 EAGLE Gerber RS-274X export*
G75*
%MOMM*%
%FSLAX34Y34*%
%LPD*%
%INTop Copper*%
%IPPOS*%
%AMOC8*
5,1,8,0,0,1.08239X$1,22.5*%
G01*
%ADD10C,1.208000*%
%ADD11C,1.270000*%
%ADD12C,2.540000*%
%ADD13C,1.778000*%
%ADD14C,1.778000*%
%ADD15R,1.778000X1.778000*%
%ADD16R,1.875000X1.875000*%
%ADD17C,1.875000*%
%ADD18C,1.422400*%
%ADD19C,0.250000*%
%ADD20C,0.706400*%
%ADD21C,1.000000*%

G36*
X310250Y435937D02*
X310250Y435937D01*
X310341Y435945D01*
X310371Y435957D01*
X310403Y435962D01*
X310484Y436005D01*
X310568Y436041D01*
X310600Y436067D01*
X310620Y436078D01*
X310643Y436101D01*
X310699Y436146D01*
X460633Y586080D01*
X463813Y589260D01*
X467827Y590923D01*
X783706Y590923D01*
X783802Y590938D01*
X783899Y590948D01*
X783923Y590958D01*
X783949Y590962D01*
X784035Y591008D01*
X784124Y591048D01*
X784143Y591065D01*
X784166Y591078D01*
X784233Y591148D01*
X784305Y591214D01*
X784318Y591237D01*
X784336Y591256D01*
X784377Y591344D01*
X784424Y591430D01*
X784428Y591455D01*
X784439Y591479D01*
X784450Y591576D01*
X784467Y591672D01*
X784463Y591698D01*
X784466Y591723D01*
X784446Y591819D01*
X784431Y591915D01*
X784420Y591938D01*
X784414Y591964D01*
X784364Y592047D01*
X784320Y592134D01*
X784301Y592153D01*
X784288Y592175D01*
X784214Y592238D01*
X784144Y592306D01*
X784116Y592322D01*
X784101Y592335D01*
X784070Y592347D01*
X783997Y592387D01*
X782338Y593075D01*
X779775Y595638D01*
X778387Y598987D01*
X778387Y602613D01*
X779775Y605962D01*
X782338Y608525D01*
X785687Y609913D01*
X789313Y609913D01*
X792662Y608525D01*
X795225Y605962D01*
X796593Y602659D01*
X796614Y602627D01*
X796626Y602591D01*
X796678Y602523D01*
X796723Y602450D01*
X796752Y602426D01*
X796776Y602396D01*
X796847Y602348D01*
X796913Y602293D01*
X796948Y602280D01*
X796980Y602258D01*
X797062Y602236D01*
X797142Y602205D01*
X797180Y602203D01*
X797217Y602193D01*
X797302Y602198D01*
X797388Y602195D01*
X797425Y602205D01*
X797462Y602207D01*
X797542Y602239D01*
X797624Y602263D01*
X797655Y602285D01*
X797691Y602299D01*
X797756Y602355D01*
X797826Y602403D01*
X797849Y602434D01*
X797878Y602459D01*
X797922Y602532D01*
X797973Y602601D01*
X797985Y602637D01*
X798004Y602670D01*
X798049Y602831D01*
X798085Y603060D01*
X798554Y604505D01*
X799244Y605859D01*
X800137Y607088D01*
X801212Y608163D01*
X802441Y609056D01*
X803795Y609746D01*
X805240Y610215D01*
X805977Y610332D01*
X805977Y601562D01*
X805980Y601542D01*
X805978Y601523D01*
X806000Y601421D01*
X806017Y601319D01*
X806026Y601302D01*
X806030Y601282D01*
X806083Y601193D01*
X806132Y601102D01*
X806146Y601088D01*
X806156Y601071D01*
X806235Y601004D01*
X806310Y600933D01*
X806328Y600924D01*
X806343Y600911D01*
X806439Y600873D01*
X806533Y600829D01*
X806553Y600827D01*
X806571Y600819D01*
X806738Y600801D01*
X807501Y600801D01*
X807501Y600038D01*
X807504Y600018D01*
X807502Y599999D01*
X807524Y599897D01*
X807541Y599795D01*
X807550Y599778D01*
X807554Y599758D01*
X807607Y599669D01*
X807656Y599578D01*
X807670Y599564D01*
X807680Y599547D01*
X807759Y599480D01*
X807834Y599409D01*
X807852Y599400D01*
X807867Y599387D01*
X807963Y599348D01*
X808057Y599305D01*
X808077Y599303D01*
X808095Y599295D01*
X808262Y599277D01*
X817032Y599277D01*
X816915Y598540D01*
X816446Y597095D01*
X815756Y595741D01*
X814863Y594512D01*
X813788Y593437D01*
X812559Y592544D01*
X812202Y592362D01*
X812147Y592322D01*
X812087Y592290D01*
X812049Y592250D01*
X812004Y592217D01*
X811965Y592161D01*
X811918Y592112D01*
X811894Y592061D01*
X811862Y592015D01*
X811843Y591951D01*
X811814Y591889D01*
X811808Y591833D01*
X811792Y591780D01*
X811795Y591712D01*
X811787Y591645D01*
X811799Y591590D01*
X811801Y591534D01*
X811825Y591470D01*
X811840Y591404D01*
X811868Y591356D01*
X811888Y591304D01*
X811931Y591251D01*
X811966Y591193D01*
X812008Y591157D01*
X812044Y591113D01*
X812101Y591077D01*
X812153Y591033D01*
X812205Y591012D01*
X812252Y590982D01*
X812318Y590967D01*
X812381Y590941D01*
X812459Y590933D01*
X812491Y590925D01*
X812512Y590927D01*
X812548Y590923D01*
X966171Y590923D01*
X966264Y590938D01*
X966358Y590946D01*
X966385Y590958D01*
X966413Y590962D01*
X966497Y591007D01*
X966583Y591044D01*
X966605Y591064D01*
X966631Y591078D01*
X966696Y591146D01*
X966766Y591209D01*
X966780Y591235D01*
X966800Y591256D01*
X966840Y591342D01*
X966886Y591424D01*
X966892Y591452D01*
X966904Y591479D01*
X966909Y591526D01*
X966911Y591527D01*
X966952Y591548D01*
X966996Y591561D01*
X967060Y591605D01*
X967129Y591642D01*
X967160Y591675D01*
X967198Y591701D01*
X967244Y591763D01*
X967298Y591820D01*
X967317Y591862D01*
X967345Y591898D01*
X967369Y591972D01*
X967402Y592043D01*
X967407Y592089D01*
X967421Y592132D01*
X967420Y592210D01*
X967429Y592287D01*
X967419Y592332D01*
X967419Y592378D01*
X967380Y592510D01*
X967376Y592528D01*
X967374Y592532D01*
X967372Y592539D01*
X967199Y592957D01*
X967007Y593920D01*
X966983Y593985D01*
X966969Y594052D01*
X966940Y594099D01*
X966921Y594151D01*
X966907Y594167D01*
X966908Y594197D01*
X966921Y594261D01*
X966913Y594344D01*
X966915Y594377D01*
X966909Y594396D01*
X966909Y594400D01*
X966919Y594422D01*
X966957Y594480D01*
X966980Y594553D01*
X966994Y594583D01*
X966996Y594604D01*
X967007Y594640D01*
X967159Y595402D01*
X967161Y595467D01*
X967173Y595531D01*
X967166Y595614D01*
X967167Y595647D01*
X967162Y595666D01*
X967159Y595699D01*
X967007Y596460D01*
X966983Y596525D01*
X966969Y596592D01*
X966940Y596639D01*
X966921Y596691D01*
X966907Y596707D01*
X966908Y596737D01*
X966921Y596801D01*
X966913Y596884D01*
X966915Y596917D01*
X966909Y596936D01*
X966909Y596940D01*
X966919Y596962D01*
X966957Y597020D01*
X966980Y597093D01*
X966994Y597123D01*
X966996Y597144D01*
X967007Y597180D01*
X967199Y598143D01*
X967372Y598561D01*
X967381Y598600D01*
X967393Y598625D01*
X967393Y598628D01*
X967402Y598647D01*
X967410Y598724D01*
X967428Y598800D01*
X967424Y598846D01*
X967429Y598891D01*
X967412Y598968D01*
X967405Y599045D01*
X967386Y599087D01*
X967376Y599132D01*
X967337Y599199D01*
X967305Y599270D01*
X967274Y599303D01*
X967250Y599343D01*
X967191Y599394D01*
X967138Y599451D01*
X967098Y599473D01*
X967063Y599503D01*
X966991Y599532D01*
X966972Y599542D01*
X967199Y600683D01*
X967869Y602301D01*
X968842Y603758D01*
X970080Y604996D01*
X971537Y605969D01*
X973155Y606639D01*
X974225Y606852D01*
X974225Y598852D01*
X974228Y598832D01*
X974226Y598813D01*
X974248Y598711D01*
X974265Y598609D01*
X974274Y598592D01*
X974278Y598572D01*
X974331Y598483D01*
X974380Y598392D01*
X974394Y598378D01*
X974404Y598361D01*
X974483Y598294D01*
X974558Y598223D01*
X974576Y598214D01*
X974591Y598201D01*
X974687Y598163D01*
X974781Y598119D01*
X974801Y598117D01*
X974819Y598109D01*
X974986Y598091D01*
X976510Y598091D01*
X976530Y598094D01*
X976549Y598092D01*
X976651Y598114D01*
X976753Y598131D01*
X976770Y598140D01*
X976790Y598144D01*
X976879Y598197D01*
X976970Y598246D01*
X976984Y598260D01*
X977001Y598270D01*
X977068Y598349D01*
X977139Y598424D01*
X977148Y598442D01*
X977161Y598457D01*
X977200Y598553D01*
X977243Y598647D01*
X977245Y598667D01*
X977253Y598685D01*
X977271Y598852D01*
X977271Y606852D01*
X978341Y606639D01*
X979959Y605969D01*
X981416Y604996D01*
X982654Y603758D01*
X983627Y602301D01*
X984297Y600683D01*
X984523Y599546D01*
X984500Y599539D01*
X984436Y599495D01*
X984367Y599458D01*
X984336Y599425D01*
X984298Y599399D01*
X984252Y599336D01*
X984198Y599280D01*
X984179Y599238D01*
X984151Y599202D01*
X984127Y599128D01*
X984094Y599057D01*
X984089Y599011D01*
X984075Y598968D01*
X984076Y598890D01*
X984067Y598812D01*
X984077Y598768D01*
X984077Y598722D01*
X984116Y598591D01*
X984120Y598572D01*
X984122Y598568D01*
X984124Y598561D01*
X984297Y598143D01*
X984489Y597180D01*
X984513Y597115D01*
X984527Y597048D01*
X984556Y597001D01*
X984575Y596949D01*
X984589Y596933D01*
X984588Y596903D01*
X984575Y596839D01*
X984583Y596756D01*
X984581Y596723D01*
X984587Y596704D01*
X984587Y596700D01*
X984577Y596678D01*
X984539Y596620D01*
X984516Y596546D01*
X984502Y596517D01*
X984500Y596496D01*
X984489Y596460D01*
X984337Y595699D01*
X984335Y595633D01*
X984323Y595569D01*
X984330Y595486D01*
X984329Y595453D01*
X984334Y595434D01*
X984337Y595401D01*
X984489Y594639D01*
X984513Y594575D01*
X984527Y594508D01*
X984556Y594461D01*
X984575Y594409D01*
X984589Y594393D01*
X984588Y594363D01*
X984575Y594299D01*
X984581Y594234D01*
X984580Y594223D01*
X984582Y594211D01*
X984581Y594183D01*
X984587Y594164D01*
X984587Y594160D01*
X984577Y594138D01*
X984539Y594080D01*
X984516Y594007D01*
X984502Y593977D01*
X984500Y593956D01*
X984489Y593920D01*
X984297Y592957D01*
X984124Y592539D01*
X984114Y592495D01*
X984094Y592453D01*
X984086Y592376D01*
X984068Y592300D01*
X984072Y592254D01*
X984067Y592209D01*
X984084Y592132D01*
X984091Y592055D01*
X984110Y592013D01*
X984120Y591968D01*
X984160Y591901D01*
X984191Y591830D01*
X984222Y591796D01*
X984246Y591757D01*
X984305Y591707D01*
X984358Y591649D01*
X984398Y591627D01*
X984433Y591597D01*
X984505Y591568D01*
X984573Y591531D01*
X984588Y591528D01*
X984597Y591496D01*
X984617Y591404D01*
X984632Y591379D01*
X984641Y591351D01*
X984695Y591274D01*
X984744Y591193D01*
X984766Y591174D01*
X984783Y591150D01*
X984859Y591095D01*
X984930Y591033D01*
X984958Y591022D01*
X984981Y591005D01*
X985071Y590977D01*
X985159Y590941D01*
X985195Y590937D01*
X985216Y590931D01*
X985248Y590931D01*
X985325Y590923D01*
X1036275Y590923D01*
X1036368Y590938D01*
X1036462Y590946D01*
X1036489Y590958D01*
X1036517Y590962D01*
X1036601Y591007D01*
X1036687Y591044D01*
X1036709Y591064D01*
X1036735Y591078D01*
X1036800Y591146D01*
X1036870Y591209D01*
X1036884Y591235D01*
X1036904Y591256D01*
X1036944Y591342D01*
X1036990Y591424D01*
X1036996Y591452D01*
X1037008Y591479D01*
X1037018Y591573D01*
X1037019Y591578D01*
X1037059Y591605D01*
X1037127Y591642D01*
X1037159Y591675D01*
X1037197Y591701D01*
X1037243Y591764D01*
X1037297Y591820D01*
X1037316Y591862D01*
X1037344Y591898D01*
X1037368Y591972D01*
X1037400Y592043D01*
X1037405Y592089D01*
X1037420Y592132D01*
X1037419Y592210D01*
X1037428Y592287D01*
X1037418Y592332D01*
X1037417Y592378D01*
X1037379Y592510D01*
X1037375Y592528D01*
X1037373Y592532D01*
X1037371Y592539D01*
X1037303Y592703D01*
X1037061Y593920D01*
X1037037Y593985D01*
X1037022Y594052D01*
X1036994Y594099D01*
X1036993Y594101D01*
X1036999Y594134D01*
X1036994Y594200D01*
X1037010Y594226D01*
X1037033Y594299D01*
X1037047Y594329D01*
X1037050Y594350D01*
X1037061Y594385D01*
X1037263Y595401D01*
X1037265Y595467D01*
X1037277Y595531D01*
X1037270Y595614D01*
X1037271Y595647D01*
X1037266Y595666D01*
X1037263Y595699D01*
X1037162Y596206D01*
X1037138Y596271D01*
X1037123Y596338D01*
X1037095Y596385D01*
X1037075Y596437D01*
X1037032Y596490D01*
X1037026Y596499D01*
X1037035Y596544D01*
X1037038Y596610D01*
X1037050Y596674D01*
X1037043Y596757D01*
X1037044Y596790D01*
X1037038Y596809D01*
X1037035Y596841D01*
X1037027Y596882D01*
X1037045Y596900D01*
X1037074Y596962D01*
X1037111Y597020D01*
X1037134Y597093D01*
X1037148Y597123D01*
X1037151Y597144D01*
X1037162Y597180D01*
X1037303Y597889D01*
X1037581Y598561D01*
X1037590Y598600D01*
X1037602Y598625D01*
X1037602Y598628D01*
X1037611Y598647D01*
X1037619Y598724D01*
X1037637Y598800D01*
X1037633Y598846D01*
X1037638Y598891D01*
X1037621Y598968D01*
X1037614Y599045D01*
X1037595Y599087D01*
X1037586Y599132D01*
X1037546Y599199D01*
X1037514Y599270D01*
X1037483Y599303D01*
X1037459Y599343D01*
X1037400Y599394D01*
X1037348Y599451D01*
X1037308Y599473D01*
X1037273Y599503D01*
X1037200Y599532D01*
X1037132Y599569D01*
X1037087Y599578D01*
X1037083Y599579D01*
X1037303Y600683D01*
X1037973Y602301D01*
X1038946Y603758D01*
X1040184Y604996D01*
X1041641Y605969D01*
X1043259Y606639D01*
X1044329Y606852D01*
X1044329Y598852D01*
X1044332Y598832D01*
X1044330Y598813D01*
X1044352Y598711D01*
X1044369Y598609D01*
X1044378Y598592D01*
X1044382Y598572D01*
X1044435Y598483D01*
X1044484Y598392D01*
X1044498Y598378D01*
X1044508Y598361D01*
X1044587Y598294D01*
X1044662Y598223D01*
X1044680Y598214D01*
X1044695Y598201D01*
X1044791Y598163D01*
X1044885Y598119D01*
X1044905Y598117D01*
X1044923Y598109D01*
X1045090Y598091D01*
X1046614Y598091D01*
X1046634Y598094D01*
X1046653Y598092D01*
X1046755Y598114D01*
X1046857Y598131D01*
X1046874Y598140D01*
X1046894Y598144D01*
X1046983Y598197D01*
X1047074Y598246D01*
X1047088Y598260D01*
X1047105Y598270D01*
X1047172Y598349D01*
X1047243Y598424D01*
X1047252Y598442D01*
X1047265Y598457D01*
X1047304Y598553D01*
X1047347Y598647D01*
X1047349Y598667D01*
X1047357Y598685D01*
X1047375Y598852D01*
X1047375Y606852D01*
X1048445Y606639D01*
X1050063Y605969D01*
X1051520Y604996D01*
X1052758Y603758D01*
X1053731Y602301D01*
X1054401Y600683D01*
X1054621Y599580D01*
X1054584Y599573D01*
X1054543Y599552D01*
X1054499Y599539D01*
X1054435Y599495D01*
X1054366Y599458D01*
X1054335Y599425D01*
X1054297Y599399D01*
X1054250Y599336D01*
X1054197Y599280D01*
X1054177Y599238D01*
X1054150Y599202D01*
X1054126Y599128D01*
X1054093Y599057D01*
X1054088Y599011D01*
X1054074Y598968D01*
X1054075Y598890D01*
X1054066Y598812D01*
X1054076Y598768D01*
X1054076Y598722D01*
X1054114Y598591D01*
X1054118Y598572D01*
X1054121Y598568D01*
X1054123Y598561D01*
X1054401Y597889D01*
X1054542Y597180D01*
X1054566Y597115D01*
X1054581Y597048D01*
X1054609Y597001D01*
X1054629Y596949D01*
X1054672Y596896D01*
X1054678Y596887D01*
X1054669Y596841D01*
X1054666Y596776D01*
X1054654Y596712D01*
X1054661Y596629D01*
X1054660Y596596D01*
X1054666Y596577D01*
X1054669Y596544D01*
X1054677Y596504D01*
X1054659Y596486D01*
X1054630Y596424D01*
X1054593Y596366D01*
X1054570Y596293D01*
X1054556Y596263D01*
X1054553Y596242D01*
X1054542Y596206D01*
X1054441Y595698D01*
X1054439Y595633D01*
X1054427Y595569D01*
X1054434Y595486D01*
X1054433Y595453D01*
X1054438Y595434D01*
X1054441Y595401D01*
X1054643Y594386D01*
X1054667Y594321D01*
X1054682Y594254D01*
X1054710Y594207D01*
X1054711Y594205D01*
X1054705Y594172D01*
X1054710Y594105D01*
X1054694Y594080D01*
X1054671Y594007D01*
X1054657Y593977D01*
X1054654Y593956D01*
X1054643Y593920D01*
X1054401Y592703D01*
X1054333Y592539D01*
X1054323Y592495D01*
X1054304Y592453D01*
X1054295Y592376D01*
X1054277Y592300D01*
X1054282Y592254D01*
X1054276Y592209D01*
X1054293Y592133D01*
X1054300Y592055D01*
X1054319Y592013D01*
X1054329Y591968D01*
X1054369Y591901D01*
X1054400Y591830D01*
X1054431Y591796D01*
X1054455Y591757D01*
X1054514Y591707D01*
X1054567Y591649D01*
X1054607Y591627D01*
X1054642Y591597D01*
X1054675Y591584D01*
X1054701Y591496D01*
X1054721Y591404D01*
X1054736Y591379D01*
X1054745Y591351D01*
X1054799Y591274D01*
X1054848Y591193D01*
X1054870Y591174D01*
X1054887Y591150D01*
X1054963Y591095D01*
X1055034Y591033D01*
X1055062Y591022D01*
X1055085Y591005D01*
X1055175Y590977D01*
X1055263Y590941D01*
X1055299Y590937D01*
X1055320Y590931D01*
X1055352Y590931D01*
X1055429Y590923D01*
X1132173Y590923D01*
X1136187Y589260D01*
X1139367Y586080D01*
X1289301Y436146D01*
X1289375Y436093D01*
X1289445Y436033D01*
X1289475Y436021D01*
X1289501Y436002D01*
X1289588Y435975D01*
X1289673Y435941D01*
X1289714Y435937D01*
X1289736Y435930D01*
X1289768Y435931D01*
X1289840Y435923D01*
X1520160Y435923D01*
X1520250Y435937D01*
X1520341Y435945D01*
X1520371Y435957D01*
X1520403Y435962D01*
X1520484Y436005D01*
X1520568Y436041D01*
X1520600Y436067D01*
X1520620Y436078D01*
X1520643Y436101D01*
X1520699Y436146D01*
X1603854Y519301D01*
X1603907Y519375D01*
X1603967Y519445D01*
X1603979Y519475D01*
X1603998Y519501D01*
X1604025Y519588D01*
X1604059Y519673D01*
X1604063Y519714D01*
X1604070Y519736D01*
X1604069Y519768D01*
X1604077Y519840D01*
X1604077Y930160D01*
X1604063Y930250D01*
X1604055Y930341D01*
X1604043Y930371D01*
X1604038Y930403D01*
X1603995Y930484D01*
X1603959Y930568D01*
X1603933Y930600D01*
X1603922Y930620D01*
X1603899Y930643D01*
X1603854Y930699D01*
X1530699Y1003854D01*
X1530625Y1003907D01*
X1530555Y1003967D01*
X1530525Y1003979D01*
X1530499Y1003998D01*
X1530412Y1004025D01*
X1530327Y1004059D01*
X1530286Y1004063D01*
X1530264Y1004070D01*
X1530232Y1004069D01*
X1530160Y1004077D01*
X69840Y1004077D01*
X69750Y1004063D01*
X69659Y1004055D01*
X69629Y1004043D01*
X69597Y1004038D01*
X69516Y1003995D01*
X69432Y1003959D01*
X69400Y1003933D01*
X69380Y1003922D01*
X69357Y1003899D01*
X69301Y1003854D01*
X-3854Y930699D01*
X-3907Y930625D01*
X-3967Y930555D01*
X-3979Y930525D01*
X-3998Y930499D01*
X-4025Y930412D01*
X-4059Y930327D01*
X-4063Y930286D01*
X-4070Y930264D01*
X-4069Y930232D01*
X-4077Y930160D01*
X-4077Y519840D01*
X-4063Y519750D01*
X-4055Y519659D01*
X-4043Y519629D01*
X-4038Y519597D01*
X-3995Y519516D01*
X-3959Y519432D01*
X-3933Y519400D01*
X-3922Y519380D01*
X-3899Y519357D01*
X-3854Y519301D01*
X79301Y436146D01*
X79375Y436093D01*
X79445Y436033D01*
X79475Y436021D01*
X79501Y436002D01*
X79588Y435975D01*
X79673Y435941D01*
X79714Y435937D01*
X79736Y435930D01*
X79768Y435931D01*
X79840Y435923D01*
X310160Y435923D01*
X310250Y435937D01*
G37*
%LPC*%
G36*
X882649Y764467D02*
X882649Y764467D01*
X880616Y765310D01*
X879060Y766866D01*
X878217Y768899D01*
X878217Y771101D01*
X879060Y773134D01*
X880276Y774351D01*
X880329Y774425D01*
X880389Y774494D01*
X880401Y774524D01*
X880420Y774551D01*
X880447Y774637D01*
X880481Y774722D01*
X880485Y774763D01*
X880492Y774786D01*
X880491Y774818D01*
X880499Y774889D01*
X880499Y782088D01*
X880485Y782178D01*
X880477Y782269D01*
X880465Y782299D01*
X880460Y782331D01*
X880417Y782412D01*
X880381Y782495D01*
X880355Y782528D01*
X880344Y782548D01*
X880321Y782570D01*
X880276Y782626D01*
X840499Y822403D01*
X840499Y875097D01*
X845494Y880092D01*
X845547Y880165D01*
X845607Y880235D01*
X845619Y880265D01*
X845638Y880291D01*
X845665Y880378D01*
X845699Y880463D01*
X845703Y880504D01*
X845710Y880526D01*
X845709Y880558D01*
X845717Y880630D01*
X845717Y882351D01*
X846560Y884384D01*
X848116Y885940D01*
X850149Y886783D01*
X852351Y886783D01*
X854384Y885940D01*
X855940Y884384D01*
X856783Y882351D01*
X856783Y880149D01*
X855940Y878116D01*
X854613Y876788D01*
X854601Y876772D01*
X854586Y876760D01*
X854530Y876672D01*
X854469Y876589D01*
X854463Y876570D01*
X854453Y876553D01*
X854427Y876452D01*
X854397Y876353D01*
X854397Y876334D01*
X854393Y876314D01*
X854401Y876211D01*
X854403Y876108D01*
X854410Y876089D01*
X854412Y876069D01*
X854452Y875974D01*
X854488Y875877D01*
X854500Y875861D01*
X854508Y875843D01*
X854613Y875712D01*
X855940Y874384D01*
X856783Y872351D01*
X856783Y870149D01*
X855940Y868116D01*
X854724Y866899D01*
X854671Y866825D01*
X854611Y866756D01*
X854599Y866726D01*
X854580Y866699D01*
X854553Y866613D01*
X854519Y866528D01*
X854515Y866487D01*
X854508Y866464D01*
X854509Y866432D01*
X854501Y866361D01*
X854501Y825412D01*
X854515Y825322D01*
X854523Y825231D01*
X854535Y825201D01*
X854540Y825169D01*
X854583Y825089D01*
X854619Y825005D01*
X854645Y824972D01*
X854656Y824952D01*
X854679Y824930D01*
X854724Y824874D01*
X858377Y821220D01*
X858415Y821193D01*
X858446Y821159D01*
X858514Y821122D01*
X858577Y821076D01*
X858621Y821063D01*
X858661Y821041D01*
X858738Y821027D01*
X858812Y821004D01*
X858858Y821005D01*
X858903Y820997D01*
X858980Y821008D01*
X859058Y821010D01*
X859101Y821026D01*
X859147Y821033D01*
X859216Y821068D01*
X859289Y821095D01*
X859325Y821123D01*
X859366Y821144D01*
X859420Y821200D01*
X859481Y821248D01*
X859506Y821287D01*
X859538Y821320D01*
X859604Y821440D01*
X859614Y821455D01*
X859615Y821460D01*
X859619Y821467D01*
X860310Y823134D01*
X861526Y824351D01*
X861579Y824425D01*
X861639Y824494D01*
X861651Y824524D01*
X861670Y824551D01*
X861697Y824637D01*
X861731Y824722D01*
X861735Y824763D01*
X861742Y824786D01*
X861741Y824818D01*
X861749Y824889D01*
X861749Y866361D01*
X861735Y866451D01*
X861727Y866542D01*
X861715Y866572D01*
X861710Y866604D01*
X861667Y866684D01*
X861631Y866768D01*
X861605Y866800D01*
X861594Y866821D01*
X861571Y866843D01*
X861526Y866899D01*
X860310Y868116D01*
X859467Y870149D01*
X859467Y872351D01*
X860310Y874384D01*
X861866Y875940D01*
X863899Y876783D01*
X866101Y876783D01*
X868134Y875940D01*
X869690Y874384D01*
X870533Y872351D01*
X870533Y870149D01*
X869690Y868116D01*
X868474Y866899D01*
X868421Y866825D01*
X868361Y866756D01*
X868349Y866726D01*
X868330Y866699D01*
X868303Y866613D01*
X868269Y866528D01*
X868265Y866487D01*
X868258Y866464D01*
X868259Y866432D01*
X868251Y866361D01*
X868251Y824889D01*
X868252Y824882D01*
X868252Y824880D01*
X868265Y824799D01*
X868273Y824708D01*
X868285Y824678D01*
X868290Y824646D01*
X868333Y824566D01*
X868369Y824482D01*
X868395Y824450D01*
X868406Y824429D01*
X868429Y824407D01*
X868474Y824351D01*
X869690Y823134D01*
X870533Y821101D01*
X870533Y818899D01*
X869690Y816866D01*
X868134Y815310D01*
X866467Y814619D01*
X866428Y814595D01*
X866385Y814579D01*
X866324Y814530D01*
X866258Y814489D01*
X866228Y814454D01*
X866193Y814425D01*
X866151Y814360D01*
X866101Y814300D01*
X866084Y814257D01*
X866060Y814218D01*
X866041Y814143D01*
X866013Y814070D01*
X866011Y814024D01*
X866000Y813980D01*
X866006Y813902D01*
X866002Y813825D01*
X866015Y813780D01*
X866019Y813735D01*
X866049Y813663D01*
X866071Y813588D01*
X866097Y813551D01*
X866115Y813508D01*
X866200Y813402D01*
X866211Y813386D01*
X866215Y813383D01*
X866220Y813377D01*
X897001Y782597D01*
X897001Y774889D01*
X897015Y774799D01*
X897023Y774708D01*
X897035Y774678D01*
X897040Y774646D01*
X897083Y774566D01*
X897119Y774482D01*
X897145Y774450D01*
X897156Y774429D01*
X897179Y774407D01*
X897224Y774351D01*
X898440Y773134D01*
X899283Y771101D01*
X899283Y768899D01*
X898440Y766866D01*
X896884Y765310D01*
X894851Y764467D01*
X892649Y764467D01*
X890616Y765310D01*
X889288Y766637D01*
X889272Y766649D01*
X889260Y766664D01*
X889172Y766721D01*
X889089Y766781D01*
X889070Y766787D01*
X889053Y766797D01*
X888952Y766823D01*
X888853Y766853D01*
X888834Y766853D01*
X888814Y766857D01*
X888711Y766849D01*
X888608Y766847D01*
X888589Y766840D01*
X888569Y766838D01*
X888474Y766798D01*
X888377Y766762D01*
X888361Y766750D01*
X888343Y766742D01*
X888212Y766637D01*
X886884Y765310D01*
X884851Y764467D01*
X882649Y764467D01*
G37*
%LPD*%
%LPC*%
G36*
X816399Y731967D02*
X816399Y731967D01*
X814366Y732810D01*
X812810Y734366D01*
X811967Y736399D01*
X811967Y738601D01*
X812810Y740634D01*
X814366Y742190D01*
X816399Y743033D01*
X818601Y743033D01*
X820634Y742190D01*
X821851Y740974D01*
X821925Y740921D01*
X821994Y740861D01*
X822024Y740849D01*
X822051Y740830D01*
X822137Y740803D01*
X822222Y740769D01*
X822263Y740765D01*
X822286Y740758D01*
X822318Y740759D01*
X822389Y740751D01*
X839331Y740751D01*
X839446Y740770D01*
X839562Y740787D01*
X839568Y740789D01*
X839574Y740790D01*
X839677Y740845D01*
X839782Y740898D01*
X839786Y740903D01*
X839792Y740906D01*
X839871Y740990D01*
X839954Y741074D01*
X839958Y741080D01*
X839961Y741084D01*
X839969Y741101D01*
X840035Y741221D01*
X840310Y741884D01*
X841637Y743212D01*
X841649Y743228D01*
X841664Y743240D01*
X841721Y743328D01*
X841781Y743411D01*
X841787Y743430D01*
X841797Y743447D01*
X841823Y743548D01*
X841853Y743647D01*
X841853Y743666D01*
X841857Y743686D01*
X841849Y743789D01*
X841847Y743892D01*
X841840Y743911D01*
X841838Y743931D01*
X841798Y744026D01*
X841762Y744123D01*
X841750Y744139D01*
X841742Y744157D01*
X841637Y744288D01*
X840310Y745616D01*
X839467Y747649D01*
X839467Y749370D01*
X839453Y749460D01*
X839445Y749551D01*
X839433Y749581D01*
X839428Y749613D01*
X839385Y749694D01*
X839349Y749777D01*
X839323Y749810D01*
X839312Y749830D01*
X839289Y749852D01*
X839244Y749908D01*
X763658Y825494D01*
X763585Y825547D01*
X763515Y825607D01*
X763485Y825619D01*
X763459Y825638D01*
X763372Y825665D01*
X763287Y825699D01*
X763246Y825703D01*
X763224Y825710D01*
X763191Y825709D01*
X763120Y825717D01*
X761399Y825717D01*
X759366Y826560D01*
X757810Y828116D01*
X756967Y830149D01*
X756967Y832351D01*
X757810Y834384D01*
X759366Y835940D01*
X761399Y836783D01*
X763601Y836783D01*
X765634Y835940D01*
X766090Y835484D01*
X766128Y835457D01*
X766159Y835423D01*
X766227Y835386D01*
X766290Y835341D01*
X766334Y835327D01*
X766374Y835305D01*
X766451Y835291D01*
X766525Y835268D01*
X766571Y835269D01*
X766616Y835261D01*
X766693Y835273D01*
X766771Y835275D01*
X766814Y835290D01*
X766860Y835297D01*
X766929Y835332D01*
X767002Y835359D01*
X767038Y835388D01*
X767079Y835409D01*
X767133Y835464D01*
X767194Y835513D01*
X767219Y835551D01*
X767251Y835584D01*
X767317Y835704D01*
X767327Y835720D01*
X767328Y835724D01*
X767332Y835731D01*
X767810Y836884D01*
X769366Y838440D01*
X771399Y839283D01*
X773601Y839283D01*
X775634Y838440D01*
X777190Y836884D01*
X778033Y834851D01*
X778033Y833130D01*
X778047Y833040D01*
X778055Y832949D01*
X778067Y832919D01*
X778072Y832887D01*
X778115Y832806D01*
X778151Y832723D01*
X778177Y832690D01*
X778188Y832670D01*
X778211Y832648D01*
X778256Y832592D01*
X846342Y764506D01*
X846415Y764453D01*
X846485Y764393D01*
X846515Y764381D01*
X846541Y764362D01*
X846628Y764335D01*
X846713Y764301D01*
X846754Y764297D01*
X846776Y764290D01*
X846809Y764291D01*
X846880Y764283D01*
X848601Y764283D01*
X850634Y763440D01*
X852190Y761884D01*
X853033Y759851D01*
X853033Y757649D01*
X852190Y755616D01*
X850634Y754060D01*
X849481Y753582D01*
X849442Y753558D01*
X849399Y753542D01*
X849338Y753493D01*
X849272Y753452D01*
X849243Y753417D01*
X849207Y753388D01*
X849165Y753323D01*
X849115Y753263D01*
X849099Y753220D01*
X849074Y753181D01*
X849055Y753106D01*
X849027Y753033D01*
X849025Y752987D01*
X849014Y752943D01*
X849020Y752865D01*
X849017Y752788D01*
X849029Y752743D01*
X849033Y752698D01*
X849063Y752626D01*
X849085Y752551D01*
X849111Y752514D01*
X849129Y752471D01*
X849215Y752365D01*
X849225Y752349D01*
X849229Y752346D01*
X849234Y752340D01*
X849690Y751884D01*
X850533Y749851D01*
X850533Y747649D01*
X849690Y745616D01*
X848363Y744288D01*
X848351Y744272D01*
X848336Y744260D01*
X848280Y744172D01*
X848219Y744089D01*
X848213Y744070D01*
X848203Y744053D01*
X848177Y743952D01*
X848147Y743853D01*
X848147Y743834D01*
X848143Y743814D01*
X848151Y743711D01*
X848153Y743608D01*
X848160Y743589D01*
X848162Y743569D01*
X848202Y743474D01*
X848238Y743377D01*
X848250Y743361D01*
X848258Y743343D01*
X848363Y743212D01*
X849690Y741884D01*
X850533Y739851D01*
X850533Y737649D01*
X849690Y735616D01*
X848134Y734060D01*
X846101Y733217D01*
X843899Y733217D01*
X841835Y734072D01*
X841825Y734079D01*
X841756Y734139D01*
X841726Y734151D01*
X841699Y734170D01*
X841613Y734197D01*
X841528Y734231D01*
X841487Y734235D01*
X841464Y734242D01*
X841432Y734241D01*
X841361Y734249D01*
X822389Y734249D01*
X822299Y734235D01*
X822208Y734227D01*
X822178Y734215D01*
X822146Y734210D01*
X822066Y734167D01*
X821982Y734131D01*
X821950Y734105D01*
X821929Y734094D01*
X821907Y734071D01*
X821851Y734026D01*
X820634Y732810D01*
X818601Y731967D01*
X816399Y731967D01*
G37*
%LPD*%
%LPC*%
G36*
X612909Y655080D02*
X612909Y655080D01*
X604386Y659324D01*
X597971Y666360D01*
X594532Y675239D01*
X594532Y684761D01*
X597971Y693640D01*
X604386Y700676D01*
X612909Y704920D01*
X622391Y705799D01*
X631549Y703193D01*
X639147Y697455D01*
X644160Y689360D01*
X645910Y680000D01*
X644160Y670640D01*
X639147Y662545D01*
X631549Y656807D01*
X622391Y654201D01*
X612909Y655080D01*
G37*
%LPD*%
%LPC*%
G36*
X1247909Y915080D02*
X1247909Y915080D01*
X1239386Y919324D01*
X1232971Y926360D01*
X1229532Y935239D01*
X1229532Y944761D01*
X1232971Y953640D01*
X1239386Y960676D01*
X1247909Y964920D01*
X1257391Y965799D01*
X1266549Y963193D01*
X1274147Y957455D01*
X1279160Y949360D01*
X1280910Y940000D01*
X1279160Y930640D01*
X1274147Y922545D01*
X1266549Y916807D01*
X1257391Y914201D01*
X1247909Y915080D01*
G37*
%LPD*%
%LPC*%
G36*
X142909Y615080D02*
X142909Y615080D01*
X134386Y619324D01*
X127971Y626360D01*
X124532Y635239D01*
X124532Y644761D01*
X127971Y653640D01*
X134386Y660676D01*
X142909Y664920D01*
X152391Y665799D01*
X161549Y663193D01*
X169147Y657455D01*
X174160Y649360D01*
X175910Y640000D01*
X174160Y630640D01*
X169147Y622545D01*
X161549Y616807D01*
X152391Y614201D01*
X142909Y615080D01*
G37*
%LPD*%
%LPC*%
G36*
X1277909Y490080D02*
X1277909Y490080D01*
X1269386Y494324D01*
X1262971Y501360D01*
X1259532Y510239D01*
X1259532Y519761D01*
X1262971Y528640D01*
X1269386Y535676D01*
X1277909Y539920D01*
X1287391Y540799D01*
X1296549Y538193D01*
X1304147Y532455D01*
X1309160Y524360D01*
X1310910Y515000D01*
X1309160Y505640D01*
X1304147Y497545D01*
X1296549Y491807D01*
X1287391Y489201D01*
X1277909Y490080D01*
G37*
%LPD*%
%LPC*%
G36*
X972909Y655080D02*
X972909Y655080D01*
X964386Y659324D01*
X957971Y666360D01*
X954532Y675239D01*
X954532Y684761D01*
X957971Y693640D01*
X964386Y700676D01*
X972910Y704920D01*
X982391Y705799D01*
X991549Y703193D01*
X999147Y697455D01*
X1004160Y689360D01*
X1005910Y680000D01*
X1004160Y670640D01*
X999147Y662545D01*
X991549Y656807D01*
X982391Y654201D01*
X972909Y655080D01*
G37*
%LPD*%
%LPC*%
G36*
X337909Y915080D02*
X337909Y915080D01*
X329386Y919324D01*
X322971Y926360D01*
X319532Y935239D01*
X319532Y944761D01*
X322971Y953640D01*
X329386Y960676D01*
X337909Y964920D01*
X347391Y965799D01*
X356549Y963193D01*
X364147Y957455D01*
X369160Y949360D01*
X370910Y940000D01*
X369160Y930640D01*
X364147Y922545D01*
X356549Y916807D01*
X347391Y914201D01*
X337909Y915080D01*
G37*
%LPD*%
%LPC*%
G36*
X307909Y490080D02*
X307909Y490080D01*
X299386Y494324D01*
X292971Y501360D01*
X289532Y510239D01*
X289532Y519761D01*
X292971Y528640D01*
X299386Y535676D01*
X307909Y539920D01*
X317391Y540799D01*
X326549Y538193D01*
X334147Y532455D01*
X339160Y524360D01*
X340910Y515000D01*
X339160Y505640D01*
X334147Y497545D01*
X326549Y491807D01*
X317391Y489201D01*
X307909Y490080D01*
G37*
%LPD*%
%LPC*%
G36*
X1442909Y615080D02*
X1442909Y615080D01*
X1434386Y619324D01*
X1427971Y626360D01*
X1424532Y635239D01*
X1424532Y644761D01*
X1427971Y653640D01*
X1434386Y660676D01*
X1442909Y664920D01*
X1452391Y665799D01*
X1461549Y663193D01*
X1469147Y657455D01*
X1474160Y649360D01*
X1475910Y640000D01*
X1474160Y630640D01*
X1469147Y622545D01*
X1461549Y616807D01*
X1452391Y614201D01*
X1442909Y615080D01*
G37*
%LPD*%
%LPC*%
G36*
X903084Y592739D02*
X903084Y592739D01*
X897695Y594971D01*
X893571Y599095D01*
X891339Y604484D01*
X891339Y610316D01*
X893571Y615705D01*
X897695Y619829D01*
X903084Y622061D01*
X908916Y622061D01*
X914305Y619829D01*
X918429Y615705D01*
X920297Y611195D01*
X920335Y611134D01*
X920364Y611069D01*
X920399Y611030D01*
X920426Y610986D01*
X920482Y610940D01*
X920530Y610888D01*
X920576Y610862D01*
X920616Y610829D01*
X920683Y610804D01*
X920746Y610769D01*
X920797Y610760D01*
X920845Y610741D01*
X920917Y610738D01*
X920988Y610725D01*
X921039Y610733D01*
X921091Y610731D01*
X921160Y610751D01*
X921231Y610761D01*
X921277Y610785D01*
X921327Y610799D01*
X921386Y610840D01*
X921450Y610873D01*
X921487Y610910D01*
X921529Y610939D01*
X921572Y610997D01*
X921622Y611048D01*
X921657Y611111D01*
X921676Y611137D01*
X921683Y611159D01*
X921703Y611195D01*
X923571Y615705D01*
X927695Y619829D01*
X933084Y622061D01*
X938916Y622061D01*
X944305Y619829D01*
X948429Y615705D01*
X950661Y610316D01*
X950661Y604484D01*
X948429Y599095D01*
X944305Y594971D01*
X938916Y592739D01*
X933084Y592739D01*
X927695Y594971D01*
X923571Y599095D01*
X921703Y603605D01*
X921666Y603666D01*
X921636Y603731D01*
X921601Y603770D01*
X921574Y603814D01*
X921519Y603860D01*
X921470Y603912D01*
X921424Y603938D01*
X921384Y603971D01*
X921317Y603996D01*
X921254Y604031D01*
X921203Y604040D01*
X921155Y604059D01*
X921083Y604062D01*
X921012Y604075D01*
X920961Y604067D01*
X920909Y604069D01*
X920840Y604049D01*
X920769Y604039D01*
X920723Y604015D01*
X920673Y604001D01*
X920614Y603960D01*
X920550Y603927D01*
X920513Y603890D01*
X920471Y603861D01*
X920428Y603803D01*
X920378Y603752D01*
X920343Y603689D01*
X920324Y603663D01*
X920317Y603641D01*
X920297Y603605D01*
X918429Y599095D01*
X914305Y594971D01*
X908916Y592739D01*
X903084Y592739D01*
G37*
%LPD*%
%LPC*%
G36*
X972834Y893109D02*
X972834Y893109D01*
X968831Y894767D01*
X965767Y897831D01*
X964109Y901834D01*
X964109Y906166D01*
X965767Y910169D01*
X968831Y913233D01*
X972834Y914891D01*
X977166Y914891D01*
X978908Y914169D01*
X979021Y914143D01*
X979135Y914114D01*
X979141Y914115D01*
X979147Y914113D01*
X979264Y914124D01*
X979380Y914133D01*
X979386Y914136D01*
X979392Y914136D01*
X979500Y914184D01*
X979606Y914230D01*
X979612Y914234D01*
X979617Y914236D01*
X979630Y914249D01*
X979737Y914334D01*
X982994Y917592D01*
X983047Y917665D01*
X983107Y917735D01*
X983119Y917765D01*
X983138Y917791D01*
X983165Y917878D01*
X983199Y917963D01*
X983203Y918004D01*
X983210Y918026D01*
X983209Y918059D01*
X983217Y918130D01*
X983217Y919851D01*
X983425Y920352D01*
X983447Y920447D01*
X983476Y920540D01*
X983475Y920566D01*
X983481Y920591D01*
X983472Y920688D01*
X983469Y920786D01*
X983461Y920810D01*
X983458Y920836D01*
X983418Y920925D01*
X983385Y921017D01*
X983369Y921037D01*
X983358Y921061D01*
X983292Y921133D01*
X983231Y921209D01*
X983209Y921223D01*
X983192Y921242D01*
X983106Y921289D01*
X983024Y921342D01*
X982999Y921348D01*
X982976Y921361D01*
X982880Y921378D01*
X982786Y921402D01*
X982760Y921400D01*
X982734Y921404D01*
X982638Y921390D01*
X982541Y921383D01*
X982517Y921372D01*
X982491Y921369D01*
X982404Y921324D01*
X982314Y921286D01*
X982289Y921266D01*
X982271Y921257D01*
X982248Y921234D01*
X982183Y921182D01*
X981169Y920167D01*
X977166Y918509D01*
X972834Y918509D01*
X968831Y920167D01*
X965767Y923231D01*
X964109Y927234D01*
X964109Y931566D01*
X965767Y935569D01*
X968831Y938633D01*
X972834Y940291D01*
X977166Y940291D01*
X981169Y938633D01*
X984233Y935569D01*
X985891Y931566D01*
X985891Y927234D01*
X984754Y924490D01*
X984738Y924420D01*
X984712Y924353D01*
X984710Y924301D01*
X984698Y924251D01*
X984705Y924179D01*
X984702Y924108D01*
X984716Y924058D01*
X984721Y924006D01*
X984750Y923940D01*
X984770Y923871D01*
X984800Y923829D01*
X984821Y923781D01*
X984870Y923728D01*
X984911Y923669D01*
X984952Y923638D01*
X984988Y923600D01*
X985050Y923565D01*
X985108Y923523D01*
X985157Y923506D01*
X985203Y923481D01*
X985274Y923469D01*
X985342Y923446D01*
X985394Y923447D01*
X985445Y923438D01*
X985516Y923448D01*
X985588Y923449D01*
X985657Y923469D01*
X985689Y923473D01*
X985709Y923484D01*
X985749Y923495D01*
X987649Y924283D01*
X989592Y924283D01*
X989638Y924290D01*
X989683Y924288D01*
X989758Y924310D01*
X989835Y924322D01*
X989876Y924344D01*
X989920Y924357D01*
X989984Y924401D01*
X990052Y924438D01*
X990084Y924471D01*
X990122Y924497D01*
X990168Y924559D01*
X990222Y924616D01*
X990241Y924658D01*
X990269Y924694D01*
X990293Y924768D01*
X990325Y924839D01*
X990331Y924885D01*
X990345Y924928D01*
X990344Y925006D01*
X990353Y925083D01*
X990343Y925128D01*
X990342Y925174D01*
X990304Y925306D01*
X990300Y925324D01*
X990298Y925328D01*
X990296Y925335D01*
X989509Y927234D01*
X989509Y931566D01*
X991167Y935569D01*
X994231Y938633D01*
X998234Y940291D01*
X1002566Y940291D01*
X1006569Y938633D01*
X1009633Y935569D01*
X1011291Y931566D01*
X1011291Y927234D01*
X1009633Y923231D01*
X1006569Y920167D01*
X1002566Y918509D01*
X998234Y918509D01*
X995335Y919710D01*
X995291Y919720D01*
X995249Y919740D01*
X995172Y919748D01*
X995096Y919766D01*
X995050Y919762D01*
X995005Y919767D01*
X994928Y919750D01*
X994851Y919743D01*
X994809Y919724D01*
X994764Y919715D01*
X994697Y919675D01*
X994626Y919643D01*
X994592Y919612D01*
X994553Y919588D01*
X994502Y919529D01*
X994445Y919477D01*
X994423Y919436D01*
X994393Y919401D01*
X994364Y919329D01*
X994327Y919261D01*
X994318Y919216D01*
X994301Y919173D01*
X994286Y919037D01*
X994283Y919019D01*
X994284Y919014D01*
X994283Y919007D01*
X994283Y917649D01*
X993440Y915616D01*
X991884Y914060D01*
X989851Y913217D01*
X988130Y913217D01*
X988040Y913203D01*
X987949Y913195D01*
X987919Y913183D01*
X987887Y913178D01*
X987806Y913135D01*
X987722Y913099D01*
X987690Y913073D01*
X987670Y913062D01*
X987647Y913039D01*
X987592Y912994D01*
X984749Y910151D01*
X984681Y910057D01*
X984611Y909963D01*
X984609Y909957D01*
X984605Y909952D01*
X984571Y909841D01*
X984535Y909729D01*
X984535Y909723D01*
X984533Y909717D01*
X984536Y909600D01*
X984537Y909483D01*
X984539Y909476D01*
X984539Y909471D01*
X984546Y909453D01*
X984584Y909322D01*
X985891Y906166D01*
X985891Y901834D01*
X984233Y897831D01*
X981169Y894767D01*
X977166Y893109D01*
X972834Y893109D01*
G37*
%LPD*%
%LPC*%
G36*
X922034Y893109D02*
X922034Y893109D01*
X918031Y894767D01*
X914967Y897831D01*
X913309Y901834D01*
X913309Y906166D01*
X914485Y909004D01*
X914511Y909117D01*
X914540Y909231D01*
X914539Y909237D01*
X914541Y909243D01*
X914530Y909360D01*
X914521Y909476D01*
X914518Y909482D01*
X914518Y909488D01*
X914470Y909595D01*
X914424Y909702D01*
X914420Y909708D01*
X914418Y909713D01*
X914405Y909726D01*
X914320Y909833D01*
X911158Y912994D01*
X911084Y913047D01*
X911015Y913107D01*
X910985Y913119D01*
X910959Y913138D01*
X910872Y913165D01*
X910787Y913199D01*
X910746Y913203D01*
X910724Y913210D01*
X910691Y913209D01*
X910620Y913217D01*
X908899Y913217D01*
X906866Y914060D01*
X905310Y915616D01*
X904467Y917649D01*
X904467Y918820D01*
X904460Y918865D01*
X904462Y918911D01*
X904440Y918986D01*
X904428Y919063D01*
X904406Y919103D01*
X904393Y919148D01*
X904349Y919212D01*
X904312Y919280D01*
X904279Y919312D01*
X904253Y919350D01*
X904191Y919396D01*
X904134Y919450D01*
X904092Y919469D01*
X904056Y919496D01*
X903982Y919520D01*
X903911Y919553D01*
X903865Y919558D01*
X903822Y919573D01*
X903744Y919572D01*
X903667Y919580D01*
X903622Y919571D01*
X903576Y919570D01*
X903444Y919532D01*
X903426Y919528D01*
X903422Y919526D01*
X903415Y919523D01*
X900966Y918509D01*
X896634Y918509D01*
X892631Y920167D01*
X889567Y923231D01*
X887909Y927234D01*
X887909Y931566D01*
X889567Y935569D01*
X892631Y938633D01*
X896634Y940291D01*
X900966Y940291D01*
X904969Y938633D01*
X908033Y935569D01*
X909691Y931566D01*
X909691Y927234D01*
X908904Y925335D01*
X908894Y925291D01*
X908875Y925249D01*
X908866Y925172D01*
X908848Y925096D01*
X908853Y925050D01*
X908847Y925005D01*
X908864Y924928D01*
X908871Y924851D01*
X908890Y924809D01*
X908900Y924764D01*
X908940Y924697D01*
X908971Y924626D01*
X909002Y924592D01*
X909026Y924553D01*
X909085Y924502D01*
X909138Y924445D01*
X909178Y924423D01*
X909213Y924393D01*
X909285Y924364D01*
X909353Y924327D01*
X909398Y924318D01*
X909441Y924301D01*
X909577Y924286D01*
X909595Y924283D01*
X909600Y924284D01*
X909608Y924283D01*
X911101Y924283D01*
X913134Y923440D01*
X913409Y923165D01*
X913488Y923108D01*
X913563Y923046D01*
X913588Y923037D01*
X913609Y923022D01*
X913702Y922993D01*
X913793Y922958D01*
X913819Y922957D01*
X913844Y922949D01*
X913941Y922952D01*
X914039Y922948D01*
X914064Y922955D01*
X914090Y922956D01*
X914181Y922989D01*
X914275Y923016D01*
X914296Y923031D01*
X914321Y923040D01*
X914397Y923101D01*
X914477Y923156D01*
X914493Y923177D01*
X914513Y923194D01*
X914566Y923276D01*
X914624Y923354D01*
X914632Y923379D01*
X914646Y923401D01*
X914670Y923495D01*
X914700Y923588D01*
X914700Y923614D01*
X914706Y923639D01*
X914699Y923736D01*
X914698Y923834D01*
X914688Y923865D01*
X914687Y923884D01*
X914674Y923915D01*
X914651Y923995D01*
X913309Y927234D01*
X913309Y931566D01*
X914967Y935569D01*
X918031Y938633D01*
X922034Y940291D01*
X926366Y940291D01*
X930369Y938633D01*
X933433Y935569D01*
X935091Y931566D01*
X935091Y927234D01*
X933433Y923231D01*
X930369Y920167D01*
X926366Y918509D01*
X922034Y918509D01*
X918031Y920167D01*
X916248Y921950D01*
X916169Y922007D01*
X916094Y922069D01*
X916070Y922078D01*
X916049Y922093D01*
X915956Y922122D01*
X915865Y922157D01*
X915839Y922158D01*
X915814Y922166D01*
X915716Y922163D01*
X915619Y922167D01*
X915594Y922160D01*
X915568Y922159D01*
X915476Y922126D01*
X915383Y922099D01*
X915361Y922084D01*
X915337Y922075D01*
X915261Y922014D01*
X915181Y921958D01*
X915165Y921937D01*
X915145Y921921D01*
X915092Y921839D01*
X915034Y921761D01*
X915026Y921736D01*
X915012Y921714D01*
X914988Y921620D01*
X914958Y921527D01*
X914958Y921501D01*
X914952Y921476D01*
X914959Y921379D01*
X914960Y921281D01*
X914969Y921250D01*
X914971Y921230D01*
X914984Y921200D01*
X915007Y921120D01*
X915533Y919851D01*
X915533Y918130D01*
X915547Y918040D01*
X915555Y917949D01*
X915567Y917919D01*
X915572Y917887D01*
X915615Y917806D01*
X915651Y917723D01*
X915677Y917690D01*
X915688Y917670D01*
X915711Y917648D01*
X915756Y917592D01*
X919145Y914203D01*
X919227Y914143D01*
X919280Y914098D01*
X919298Y914091D01*
X919333Y914065D01*
X919339Y914063D01*
X919344Y914059D01*
X919455Y914025D01*
X919488Y914014D01*
X919508Y914006D01*
X919516Y914005D01*
X919567Y913989D01*
X919573Y913989D01*
X919579Y913987D01*
X919664Y913989D01*
X919675Y913988D01*
X919702Y913988D01*
X919716Y913990D01*
X919813Y913991D01*
X919820Y913993D01*
X919825Y913993D01*
X919843Y914000D01*
X919931Y914025D01*
X919945Y914027D01*
X919952Y914031D01*
X919974Y914038D01*
X922034Y914891D01*
X926366Y914891D01*
X930369Y913233D01*
X933433Y910169D01*
X935091Y906166D01*
X935091Y901834D01*
X933433Y897831D01*
X930369Y894767D01*
X926366Y893109D01*
X922034Y893109D01*
G37*
%LPD*%
%LPC*%
G36*
X426139Y755589D02*
X426139Y755589D01*
X419005Y758544D01*
X413544Y764005D01*
X410589Y771139D01*
X410589Y778861D01*
X413544Y785995D01*
X419005Y791456D01*
X426139Y794411D01*
X433861Y794411D01*
X440995Y791456D01*
X446456Y785995D01*
X449411Y778861D01*
X449411Y771139D01*
X446456Y764005D01*
X440995Y758544D01*
X433861Y755589D01*
X426139Y755589D01*
G37*
%LPD*%
%LPC*%
G36*
X1446139Y445589D02*
X1446139Y445589D01*
X1439005Y448544D01*
X1433544Y454005D01*
X1430589Y461139D01*
X1430589Y468861D01*
X1433544Y475995D01*
X1439005Y481456D01*
X1446139Y484411D01*
X1453861Y484411D01*
X1460995Y481456D01*
X1466456Y475995D01*
X1469411Y468861D01*
X1469411Y461139D01*
X1466456Y454005D01*
X1460995Y448544D01*
X1453861Y445589D01*
X1446139Y445589D01*
G37*
%LPD*%
%LPC*%
G36*
X426139Y845589D02*
X426139Y845589D01*
X419005Y848544D01*
X413544Y854005D01*
X410589Y861139D01*
X410589Y868861D01*
X413544Y875995D01*
X419005Y881456D01*
X426139Y884411D01*
X433861Y884411D01*
X440995Y881456D01*
X446456Y875995D01*
X449411Y868861D01*
X449411Y861139D01*
X446456Y854005D01*
X440995Y848544D01*
X433861Y845589D01*
X426139Y845589D01*
G37*
%LPD*%
%LPC*%
G36*
X146139Y535589D02*
X146139Y535589D01*
X139005Y538544D01*
X133544Y544005D01*
X130589Y551139D01*
X130589Y558861D01*
X133544Y565995D01*
X139005Y571456D01*
X146139Y574411D01*
X153861Y574411D01*
X160995Y571456D01*
X166456Y565995D01*
X169411Y558861D01*
X169411Y551139D01*
X166456Y544005D01*
X160995Y538544D01*
X153861Y535589D01*
X146139Y535589D01*
G37*
%LPD*%
%LPC*%
G36*
X1226139Y665589D02*
X1226139Y665589D01*
X1219005Y668544D01*
X1213544Y674005D01*
X1210589Y681139D01*
X1210589Y688861D01*
X1213544Y695995D01*
X1219005Y701456D01*
X1226139Y704411D01*
X1233861Y704411D01*
X1240995Y701456D01*
X1246456Y695995D01*
X1249411Y688861D01*
X1249411Y681139D01*
X1246456Y674005D01*
X1240995Y668544D01*
X1233861Y665589D01*
X1226139Y665589D01*
G37*
%LPD*%
%LPC*%
G36*
X366139Y665589D02*
X366139Y665589D01*
X359005Y668544D01*
X353544Y674005D01*
X350589Y681139D01*
X350589Y688861D01*
X353544Y695995D01*
X359005Y701456D01*
X366139Y704411D01*
X373861Y704411D01*
X380995Y701456D01*
X386456Y695995D01*
X389411Y688861D01*
X389411Y681139D01*
X386456Y674005D01*
X380995Y668544D01*
X373861Y665589D01*
X366139Y665589D01*
G37*
%LPD*%
%LPC*%
G36*
X1446139Y535589D02*
X1446139Y535589D01*
X1439005Y538544D01*
X1433544Y544005D01*
X1430589Y551139D01*
X1430589Y558861D01*
X1433544Y565995D01*
X1439005Y571456D01*
X1446139Y574411D01*
X1453861Y574411D01*
X1460995Y571456D01*
X1466456Y565995D01*
X1469411Y558861D01*
X1469411Y551139D01*
X1466456Y544005D01*
X1460995Y538544D01*
X1453861Y535589D01*
X1446139Y535589D01*
G37*
%LPD*%
%LPC*%
G36*
X366139Y575589D02*
X366139Y575589D01*
X359005Y578544D01*
X353544Y584005D01*
X350589Y591139D01*
X350589Y598861D01*
X353544Y605995D01*
X359005Y611456D01*
X366139Y614411D01*
X373861Y614411D01*
X380995Y611456D01*
X386456Y605995D01*
X389411Y598861D01*
X389411Y591139D01*
X386456Y584005D01*
X380995Y578544D01*
X373861Y575589D01*
X366139Y575589D01*
G37*
%LPD*%
%LPC*%
G36*
X1226139Y575589D02*
X1226139Y575589D01*
X1219005Y578544D01*
X1213544Y584005D01*
X1210589Y591139D01*
X1210589Y598861D01*
X1213544Y605995D01*
X1219005Y611456D01*
X1226139Y614411D01*
X1233861Y614411D01*
X1240995Y611456D01*
X1246456Y605995D01*
X1249411Y598861D01*
X1249411Y591139D01*
X1246456Y584005D01*
X1240995Y578544D01*
X1233861Y575589D01*
X1226139Y575589D01*
G37*
%LPD*%
%LPC*%
G36*
X146139Y445589D02*
X146139Y445589D01*
X139005Y448544D01*
X133544Y454005D01*
X130589Y461139D01*
X130589Y468861D01*
X133544Y475995D01*
X139005Y481456D01*
X146139Y484411D01*
X153861Y484411D01*
X160995Y481456D01*
X166456Y475995D01*
X169411Y468861D01*
X169411Y461139D01*
X166456Y454005D01*
X160995Y448544D01*
X153861Y445589D01*
X146139Y445589D01*
G37*
%LPD*%
%LPC*%
G36*
X1166139Y755589D02*
X1166139Y755589D01*
X1159005Y758544D01*
X1153544Y764005D01*
X1150589Y771139D01*
X1150589Y778861D01*
X1153544Y785995D01*
X1159005Y791456D01*
X1166139Y794411D01*
X1173861Y794411D01*
X1180995Y791456D01*
X1186456Y785995D01*
X1189411Y778861D01*
X1189411Y771139D01*
X1186456Y764005D01*
X1180995Y758544D01*
X1173861Y755589D01*
X1166139Y755589D01*
G37*
%LPD*%
%LPC*%
G36*
X1166139Y845589D02*
X1166139Y845589D01*
X1159005Y848544D01*
X1153544Y854005D01*
X1150589Y861139D01*
X1150589Y868861D01*
X1153544Y875995D01*
X1159005Y881456D01*
X1166139Y884411D01*
X1173861Y884411D01*
X1180995Y881456D01*
X1186456Y875995D01*
X1189411Y868861D01*
X1189411Y861139D01*
X1186456Y854005D01*
X1180995Y848544D01*
X1173861Y845589D01*
X1166139Y845589D01*
G37*
%LPD*%
%LPC*%
G36*
X887649Y813217D02*
X887649Y813217D01*
X885616Y814060D01*
X884060Y815616D01*
X883948Y815885D01*
X883924Y815924D01*
X883908Y815967D01*
X883860Y816028D01*
X883819Y816094D01*
X883783Y816123D01*
X883754Y816159D01*
X883689Y816201D01*
X883629Y816251D01*
X883586Y816267D01*
X883548Y816292D01*
X883472Y816311D01*
X883399Y816339D01*
X883354Y816341D01*
X883309Y816352D01*
X883231Y816346D01*
X883154Y816350D01*
X883109Y816337D01*
X883064Y816333D01*
X882992Y816303D01*
X882917Y816281D01*
X882880Y816255D01*
X882837Y816237D01*
X882731Y816151D01*
X882715Y816141D01*
X882712Y816137D01*
X882707Y816132D01*
X881884Y815310D01*
X879851Y814467D01*
X877649Y814467D01*
X875616Y815310D01*
X874060Y816866D01*
X873217Y818899D01*
X873217Y821101D01*
X874060Y823134D01*
X875276Y824351D01*
X875329Y824425D01*
X875389Y824494D01*
X875401Y824524D01*
X875420Y824551D01*
X875447Y824637D01*
X875481Y824722D01*
X875485Y824763D01*
X875492Y824786D01*
X875491Y824818D01*
X875499Y824889D01*
X875499Y871361D01*
X875496Y871379D01*
X875498Y871397D01*
X875483Y871465D01*
X875477Y871542D01*
X875465Y871572D01*
X875460Y871604D01*
X875449Y871623D01*
X875446Y871638D01*
X875414Y871691D01*
X875381Y871768D01*
X875355Y871800D01*
X875344Y871821D01*
X875326Y871839D01*
X875320Y871849D01*
X875310Y871857D01*
X875276Y871899D01*
X874060Y873116D01*
X873217Y875149D01*
X873217Y877351D01*
X874060Y879384D01*
X875616Y880940D01*
X877649Y881783D01*
X879851Y881783D01*
X881884Y880940D01*
X883212Y879613D01*
X883228Y879601D01*
X883240Y879586D01*
X883328Y879530D01*
X883411Y879469D01*
X883430Y879463D01*
X883447Y879453D01*
X883548Y879427D01*
X883647Y879397D01*
X883666Y879397D01*
X883686Y879393D01*
X883789Y879401D01*
X883892Y879403D01*
X883911Y879410D01*
X883931Y879412D01*
X884026Y879452D01*
X884123Y879488D01*
X884139Y879500D01*
X884157Y879508D01*
X884288Y879613D01*
X885616Y880940D01*
X887649Y881783D01*
X889851Y881783D01*
X891884Y880940D01*
X893440Y879384D01*
X894283Y877351D01*
X894283Y875149D01*
X893440Y873116D01*
X892224Y871899D01*
X892172Y871828D01*
X892132Y871786D01*
X892127Y871775D01*
X892111Y871756D01*
X892099Y871726D01*
X892080Y871699D01*
X892056Y871621D01*
X892029Y871563D01*
X892027Y871547D01*
X892019Y871528D01*
X892015Y871487D01*
X892008Y871464D01*
X892009Y871432D01*
X892001Y871361D01*
X892001Y823639D01*
X892015Y823549D01*
X892023Y823458D01*
X892035Y823428D01*
X892040Y823396D01*
X892083Y823316D01*
X892119Y823232D01*
X892145Y823200D01*
X892156Y823179D01*
X892179Y823157D01*
X892224Y823101D01*
X893440Y821884D01*
X894283Y819851D01*
X894283Y817649D01*
X893440Y815616D01*
X891884Y814060D01*
X889851Y813217D01*
X887649Y813217D01*
G37*
%LPD*%
%LPC*%
G36*
X947649Y826967D02*
X947649Y826967D01*
X945616Y827810D01*
X944060Y829366D01*
X943217Y831399D01*
X943217Y833601D01*
X944060Y835634D01*
X945616Y837190D01*
X946799Y837681D01*
X946860Y837718D01*
X946926Y837748D01*
X946964Y837783D01*
X947008Y837810D01*
X947054Y837866D01*
X947107Y837914D01*
X947132Y837960D01*
X947165Y838000D01*
X947191Y838067D01*
X947226Y838130D01*
X947235Y838181D01*
X947253Y838229D01*
X947256Y838301D01*
X947269Y838372D01*
X947262Y838423D01*
X947264Y838475D01*
X947244Y838544D01*
X947233Y838615D01*
X947210Y838661D01*
X947195Y838711D01*
X947154Y838770D01*
X947122Y838834D01*
X947085Y838871D01*
X947055Y838913D01*
X946997Y838956D01*
X946946Y839006D01*
X946886Y839039D01*
X945310Y840616D01*
X944467Y842649D01*
X944467Y844851D01*
X945310Y846884D01*
X946526Y848101D01*
X946579Y848175D01*
X946639Y848244D01*
X946651Y848274D01*
X946670Y848301D01*
X946697Y848387D01*
X946731Y848472D01*
X946735Y848513D01*
X946742Y848536D01*
X946741Y848568D01*
X946749Y848639D01*
X946749Y866361D01*
X946735Y866451D01*
X946727Y866542D01*
X946715Y866572D01*
X946710Y866604D01*
X946667Y866684D01*
X946631Y866768D01*
X946605Y866800D01*
X946594Y866821D01*
X946571Y866843D01*
X946526Y866899D01*
X945310Y868116D01*
X944467Y870149D01*
X944467Y872351D01*
X945310Y874384D01*
X946866Y875940D01*
X948899Y876783D01*
X951101Y876783D01*
X953134Y875940D01*
X954462Y874613D01*
X954478Y874601D01*
X954490Y874586D01*
X954559Y874541D01*
X954592Y874513D01*
X954611Y874506D01*
X954661Y874469D01*
X954680Y874463D01*
X954697Y874453D01*
X954798Y874427D01*
X954897Y874397D01*
X954916Y874397D01*
X954936Y874393D01*
X955039Y874401D01*
X955142Y874403D01*
X955161Y874410D01*
X955181Y874412D01*
X955252Y874442D01*
X955256Y874442D01*
X955265Y874447D01*
X955276Y874452D01*
X955373Y874488D01*
X955389Y874500D01*
X955407Y874508D01*
X955462Y874552D01*
X955473Y874558D01*
X955485Y874570D01*
X955538Y874613D01*
X956866Y875940D01*
X958899Y876783D01*
X961101Y876783D01*
X963134Y875940D01*
X964690Y874384D01*
X965533Y872351D01*
X965533Y870149D01*
X964690Y868116D01*
X963474Y866899D01*
X963421Y866825D01*
X963361Y866756D01*
X963349Y866726D01*
X963330Y866699D01*
X963303Y866613D01*
X963269Y866528D01*
X963265Y866487D01*
X963258Y866464D01*
X963259Y866432D01*
X963251Y866361D01*
X963251Y848639D01*
X963265Y848549D01*
X963273Y848458D01*
X963285Y848428D01*
X963290Y848396D01*
X963333Y848316D01*
X963369Y848232D01*
X963395Y848200D01*
X963406Y848179D01*
X963429Y848157D01*
X963474Y848101D01*
X964462Y847113D01*
X964478Y847101D01*
X964490Y847086D01*
X964578Y847029D01*
X964661Y846969D01*
X964680Y846963D01*
X964697Y846953D01*
X964798Y846927D01*
X964897Y846897D01*
X964916Y846897D01*
X964936Y846893D01*
X965039Y846901D01*
X965142Y846903D01*
X965161Y846910D01*
X965181Y846912D01*
X965276Y846952D01*
X965373Y846988D01*
X965389Y847000D01*
X965407Y847008D01*
X965538Y847113D01*
X966866Y848440D01*
X968899Y849283D01*
X970620Y849283D01*
X970710Y849297D01*
X970801Y849305D01*
X970831Y849317D01*
X970863Y849322D01*
X970944Y849365D01*
X971028Y849401D01*
X971060Y849427D01*
X971080Y849438D01*
X971103Y849461D01*
X971158Y849506D01*
X989244Y867592D01*
X989297Y867665D01*
X989357Y867735D01*
X989369Y867765D01*
X989388Y867791D01*
X989415Y867878D01*
X989449Y867963D01*
X989453Y868004D01*
X989460Y868026D01*
X989459Y868059D01*
X989467Y868130D01*
X989467Y869851D01*
X990310Y871884D01*
X991866Y873440D01*
X993899Y874283D01*
X996101Y874283D01*
X998134Y873440D01*
X999690Y871884D01*
X1000533Y869851D01*
X1000533Y867649D01*
X999690Y865616D01*
X998134Y864060D01*
X996101Y863217D01*
X994380Y863217D01*
X994290Y863203D01*
X994199Y863195D01*
X994169Y863183D01*
X994137Y863178D01*
X994056Y863135D01*
X993972Y863099D01*
X993940Y863073D01*
X993920Y863062D01*
X993897Y863039D01*
X993842Y862994D01*
X975756Y844908D01*
X975703Y844835D01*
X975643Y844765D01*
X975631Y844735D01*
X975612Y844709D01*
X975585Y844622D01*
X975551Y844537D01*
X975547Y844496D01*
X975540Y844474D01*
X975541Y844441D01*
X975533Y844370D01*
X975533Y842649D01*
X974690Y840616D01*
X973134Y839060D01*
X971101Y838217D01*
X968899Y838217D01*
X966866Y839060D01*
X965538Y840387D01*
X965522Y840399D01*
X965510Y840414D01*
X965422Y840470D01*
X965339Y840531D01*
X965320Y840537D01*
X965303Y840547D01*
X965202Y840573D01*
X965103Y840603D01*
X965084Y840603D01*
X965064Y840607D01*
X964961Y840599D01*
X964858Y840597D01*
X964839Y840590D01*
X964819Y840588D01*
X964724Y840548D01*
X964627Y840512D01*
X964611Y840500D01*
X964593Y840492D01*
X964462Y840387D01*
X963134Y839060D01*
X961101Y838217D01*
X959380Y838217D01*
X959290Y838203D01*
X959199Y838195D01*
X959169Y838183D01*
X959137Y838178D01*
X959056Y838135D01*
X958973Y838099D01*
X958940Y838073D01*
X958920Y838062D01*
X958898Y838039D01*
X958842Y837994D01*
X954506Y833658D01*
X954453Y833585D01*
X954393Y833515D01*
X954381Y833485D01*
X954362Y833459D01*
X954335Y833372D01*
X954301Y833287D01*
X954297Y833246D01*
X954290Y833224D01*
X954291Y833191D01*
X954283Y833120D01*
X954283Y831399D01*
X953440Y829366D01*
X951884Y827810D01*
X949851Y826967D01*
X947649Y826967D01*
G37*
%LPD*%
%LPC*%
G36*
X1406496Y952309D02*
X1406496Y952309D01*
X1401758Y954272D01*
X1398132Y957898D01*
X1396169Y962636D01*
X1396169Y967764D01*
X1398132Y972502D01*
X1401758Y976128D01*
X1406496Y978091D01*
X1429404Y978091D01*
X1434142Y976128D01*
X1437768Y972502D01*
X1439731Y967764D01*
X1439731Y962636D01*
X1437768Y957898D01*
X1434142Y954272D01*
X1429404Y952309D01*
X1406496Y952309D01*
G37*
%LPD*%
%LPC*%
G36*
X107296Y952309D02*
X107296Y952309D01*
X102558Y954272D01*
X98932Y957898D01*
X96969Y962636D01*
X96969Y967764D01*
X98932Y972502D01*
X102558Y976128D01*
X107296Y978091D01*
X130204Y978091D01*
X134942Y976128D01*
X138568Y972502D01*
X140531Y967764D01*
X140531Y962636D01*
X138568Y957898D01*
X134942Y954272D01*
X130204Y952309D01*
X107296Y952309D01*
G37*
%LPD*%
%LPC*%
G36*
X817649Y821967D02*
X817649Y821967D01*
X815616Y822810D01*
X814060Y824366D01*
X813217Y826399D01*
X813217Y828120D01*
X813203Y828210D01*
X813195Y828301D01*
X813183Y828331D01*
X813178Y828363D01*
X813135Y828444D01*
X813099Y828527D01*
X813073Y828560D01*
X813062Y828580D01*
X813039Y828602D01*
X812994Y828658D01*
X776158Y865494D01*
X776085Y865547D01*
X776015Y865607D01*
X775985Y865619D01*
X775959Y865638D01*
X775872Y865665D01*
X775787Y865699D01*
X775746Y865703D01*
X775724Y865710D01*
X775691Y865709D01*
X775620Y865717D01*
X773899Y865717D01*
X771866Y866560D01*
X770310Y868116D01*
X769467Y870149D01*
X769467Y872351D01*
X770310Y874384D01*
X771866Y875940D01*
X773899Y876783D01*
X776206Y876783D01*
X776226Y876786D01*
X776245Y876784D01*
X776347Y876806D01*
X776449Y876822D01*
X776466Y876832D01*
X776486Y876836D01*
X776575Y876889D01*
X776666Y876938D01*
X776680Y876952D01*
X776697Y876962D01*
X776764Y877041D01*
X776836Y877116D01*
X776844Y877134D01*
X776857Y877149D01*
X776896Y877245D01*
X776939Y877339D01*
X776941Y877359D01*
X776949Y877377D01*
X776967Y877544D01*
X776967Y879851D01*
X777810Y881884D01*
X779366Y883440D01*
X781399Y884283D01*
X783601Y884283D01*
X785634Y883440D01*
X787190Y881884D01*
X788033Y879851D01*
X788033Y878130D01*
X788047Y878040D01*
X788055Y877949D01*
X788067Y877919D01*
X788072Y877887D01*
X788115Y877806D01*
X788151Y877723D01*
X788177Y877690D01*
X788188Y877670D01*
X788211Y877648D01*
X788256Y877592D01*
X816342Y849506D01*
X816415Y849453D01*
X816485Y849393D01*
X816515Y849381D01*
X816541Y849362D01*
X816628Y849335D01*
X816713Y849301D01*
X816754Y849297D01*
X816776Y849290D01*
X816809Y849291D01*
X816880Y849283D01*
X818601Y849283D01*
X820634Y848440D01*
X822190Y846884D01*
X823033Y844851D01*
X823033Y842649D01*
X822190Y840616D01*
X820634Y839060D01*
X818601Y838217D01*
X816399Y838217D01*
X814366Y839060D01*
X812810Y840616D01*
X811967Y842649D01*
X811967Y844370D01*
X811953Y844460D01*
X811945Y844551D01*
X811933Y844581D01*
X811928Y844613D01*
X811885Y844694D01*
X811849Y844777D01*
X811823Y844810D01*
X811812Y844830D01*
X811789Y844852D01*
X811744Y844908D01*
X783658Y872994D01*
X783585Y873047D01*
X783515Y873107D01*
X783485Y873119D01*
X783459Y873138D01*
X783372Y873165D01*
X783287Y873199D01*
X783246Y873203D01*
X783224Y873210D01*
X783191Y873209D01*
X783120Y873217D01*
X781294Y873217D01*
X781274Y873214D01*
X781255Y873216D01*
X781153Y873194D01*
X781051Y873178D01*
X781034Y873168D01*
X781014Y873164D01*
X780925Y873111D01*
X780834Y873062D01*
X780820Y873048D01*
X780803Y873038D01*
X780736Y872959D01*
X780664Y872884D01*
X780656Y872866D01*
X780643Y872851D01*
X780604Y872755D01*
X780561Y872661D01*
X780559Y872641D01*
X780551Y872623D01*
X780533Y872456D01*
X780533Y870630D01*
X780547Y870540D01*
X780555Y870449D01*
X780567Y870419D01*
X780572Y870387D01*
X780615Y870306D01*
X780651Y870223D01*
X780677Y870190D01*
X780688Y870170D01*
X780711Y870148D01*
X780756Y870092D01*
X817592Y833256D01*
X817665Y833203D01*
X817735Y833143D01*
X817765Y833131D01*
X817791Y833112D01*
X817878Y833085D01*
X817963Y833051D01*
X818004Y833047D01*
X818026Y833040D01*
X818059Y833041D01*
X818130Y833033D01*
X819851Y833033D01*
X821884Y832190D01*
X823440Y830634D01*
X824283Y828601D01*
X824283Y826399D01*
X823440Y824366D01*
X821884Y822810D01*
X819851Y821967D01*
X817649Y821967D01*
G37*
%LPD*%
%LPC*%
G36*
X611399Y738217D02*
X611399Y738217D01*
X609366Y739060D01*
X607810Y740616D01*
X606967Y742649D01*
X606967Y744370D01*
X606953Y744460D01*
X606945Y744551D01*
X606933Y744581D01*
X606928Y744613D01*
X606885Y744694D01*
X606849Y744777D01*
X606823Y744810D01*
X606812Y744830D01*
X606789Y744852D01*
X606744Y744908D01*
X594908Y756744D01*
X594835Y756797D01*
X594765Y756857D01*
X594735Y756869D01*
X594709Y756888D01*
X594622Y756915D01*
X594537Y756949D01*
X594496Y756953D01*
X594474Y756960D01*
X594441Y756959D01*
X594370Y756967D01*
X592649Y756967D01*
X590616Y757810D01*
X589060Y759366D01*
X588217Y761399D01*
X588217Y763601D01*
X589060Y765634D01*
X590616Y767190D01*
X592649Y768033D01*
X594851Y768033D01*
X595616Y767716D01*
X595711Y767693D01*
X595804Y767665D01*
X595830Y767666D01*
X595855Y767660D01*
X595952Y767669D01*
X596050Y767671D01*
X596074Y767680D01*
X596100Y767683D01*
X596189Y767722D01*
X596281Y767756D01*
X596301Y767772D01*
X596325Y767783D01*
X596397Y767848D01*
X596473Y767909D01*
X596487Y767931D01*
X596506Y767949D01*
X596553Y768034D01*
X596606Y768116D01*
X596612Y768142D01*
X596625Y768165D01*
X596642Y768260D01*
X596666Y768355D01*
X596664Y768381D01*
X596668Y768407D01*
X596654Y768503D01*
X596647Y768600D01*
X596636Y768624D01*
X596633Y768650D01*
X596588Y768737D01*
X596550Y768826D01*
X596530Y768852D01*
X596521Y768869D01*
X596497Y768892D01*
X596445Y768957D01*
X582227Y783175D01*
X582133Y783243D01*
X582039Y783313D01*
X582033Y783315D01*
X582028Y783319D01*
X581916Y783353D01*
X581805Y783390D01*
X581799Y783389D01*
X581793Y783391D01*
X581676Y783388D01*
X581559Y783387D01*
X581552Y783385D01*
X581547Y783385D01*
X581529Y783379D01*
X581398Y783340D01*
X581101Y783217D01*
X578899Y783217D01*
X576866Y784060D01*
X575310Y785616D01*
X574467Y787649D01*
X574467Y789851D01*
X575310Y791884D01*
X576866Y793440D01*
X578899Y794283D01*
X581101Y794283D01*
X583134Y793440D01*
X584690Y791884D01*
X585533Y789851D01*
X585533Y789380D01*
X585547Y789290D01*
X585555Y789199D01*
X585567Y789169D01*
X585572Y789137D01*
X585615Y789056D01*
X585651Y788973D01*
X585677Y788940D01*
X585688Y788920D01*
X585711Y788898D01*
X585756Y788842D01*
X618842Y755756D01*
X618915Y755703D01*
X618985Y755643D01*
X619015Y755631D01*
X619041Y755612D01*
X619128Y755585D01*
X619213Y755551D01*
X619254Y755547D01*
X619276Y755540D01*
X619309Y755541D01*
X619380Y755533D01*
X621101Y755533D01*
X623134Y754690D01*
X624690Y753134D01*
X625533Y751101D01*
X625533Y748899D01*
X624690Y746866D01*
X623134Y745310D01*
X621101Y744467D01*
X618794Y744467D01*
X618774Y744464D01*
X618755Y744466D01*
X618653Y744444D01*
X618551Y744428D01*
X618534Y744418D01*
X618514Y744414D01*
X618425Y744361D01*
X618334Y744312D01*
X618320Y744298D01*
X618303Y744288D01*
X618236Y744209D01*
X618164Y744134D01*
X618156Y744116D01*
X618143Y744101D01*
X618104Y744005D01*
X618061Y743911D01*
X618059Y743891D01*
X618051Y743873D01*
X618033Y743706D01*
X618033Y742649D01*
X617190Y740616D01*
X615634Y739060D01*
X613601Y738217D01*
X611399Y738217D01*
G37*
%LPD*%
%LPC*%
G36*
X798899Y636967D02*
X798899Y636967D01*
X796866Y637810D01*
X795310Y639366D01*
X794467Y641399D01*
X794467Y643601D01*
X795310Y645634D01*
X796866Y647190D01*
X798899Y648033D01*
X800620Y648033D01*
X800710Y648047D01*
X800801Y648055D01*
X800831Y648067D01*
X800863Y648072D01*
X800944Y648115D01*
X801028Y648151D01*
X801060Y648177D01*
X801080Y648188D01*
X801103Y648211D01*
X801158Y648256D01*
X839244Y686342D01*
X839297Y686415D01*
X839357Y686485D01*
X839369Y686515D01*
X839388Y686541D01*
X839415Y686628D01*
X839449Y686713D01*
X839453Y686754D01*
X839460Y686776D01*
X839459Y686809D01*
X839467Y686880D01*
X839467Y688601D01*
X840310Y690634D01*
X841866Y692190D01*
X843899Y693033D01*
X846101Y693033D01*
X848134Y692190D01*
X849690Y690634D01*
X850533Y688601D01*
X850533Y686399D01*
X849690Y684366D01*
X848134Y682810D01*
X846101Y681967D01*
X844380Y681967D01*
X844290Y681953D01*
X844199Y681945D01*
X844169Y681933D01*
X844137Y681928D01*
X844056Y681885D01*
X843973Y681849D01*
X843940Y681823D01*
X843920Y681812D01*
X843898Y681789D01*
X843842Y681744D01*
X818720Y656623D01*
X818693Y656585D01*
X818659Y656554D01*
X818622Y656486D01*
X818576Y656423D01*
X818563Y656379D01*
X818541Y656339D01*
X818527Y656262D01*
X818504Y656188D01*
X818505Y656142D01*
X818497Y656097D01*
X818508Y656020D01*
X818510Y655942D01*
X818526Y655899D01*
X818533Y655853D01*
X818568Y655784D01*
X818595Y655711D01*
X818623Y655675D01*
X818644Y655634D01*
X818700Y655580D01*
X818748Y655519D01*
X818787Y655494D01*
X818820Y655462D01*
X818940Y655396D01*
X818955Y655386D01*
X818960Y655385D01*
X818967Y655381D01*
X820634Y654690D01*
X821851Y653474D01*
X821925Y653421D01*
X821994Y653361D01*
X822024Y653349D01*
X822051Y653330D01*
X822137Y653303D01*
X822222Y653269D01*
X822263Y653265D01*
X822286Y653258D01*
X822318Y653259D01*
X822389Y653251D01*
X838814Y653251D01*
X838929Y653270D01*
X839045Y653287D01*
X839050Y653289D01*
X839056Y653290D01*
X839159Y653345D01*
X839264Y653398D01*
X839268Y653403D01*
X839274Y653406D01*
X839354Y653490D01*
X839436Y653574D01*
X839440Y653580D01*
X839443Y653584D01*
X839451Y653601D01*
X839517Y653721D01*
X840310Y655634D01*
X841866Y657190D01*
X843899Y658033D01*
X846101Y658033D01*
X848134Y657190D01*
X849690Y655634D01*
X850533Y653601D01*
X850533Y651399D01*
X849690Y649366D01*
X848134Y647810D01*
X846101Y646967D01*
X844380Y646967D01*
X844290Y646953D01*
X844199Y646945D01*
X844169Y646933D01*
X844137Y646928D01*
X844056Y646885D01*
X843973Y646849D01*
X843940Y646823D01*
X843920Y646812D01*
X843898Y646789D01*
X843848Y646749D01*
X822389Y646749D01*
X822299Y646735D01*
X822208Y646727D01*
X822178Y646715D01*
X822146Y646710D01*
X822066Y646667D01*
X821982Y646631D01*
X821950Y646605D01*
X821929Y646594D01*
X821907Y646571D01*
X821851Y646526D01*
X820634Y645310D01*
X818601Y644467D01*
X816399Y644467D01*
X814366Y645310D01*
X812810Y646866D01*
X812119Y648533D01*
X812095Y648572D01*
X812079Y648615D01*
X812030Y648676D01*
X811989Y648742D01*
X811954Y648772D01*
X811925Y648807D01*
X811860Y648849D01*
X811800Y648899D01*
X811757Y648916D01*
X811718Y648940D01*
X811643Y648959D01*
X811570Y648987D01*
X811524Y648989D01*
X811480Y649000D01*
X811402Y648994D01*
X811325Y648998D01*
X811280Y648985D01*
X811235Y648981D01*
X811163Y648951D01*
X811088Y648929D01*
X811051Y648903D01*
X811008Y648885D01*
X810902Y648800D01*
X810886Y648789D01*
X810883Y648785D01*
X810877Y648780D01*
X805756Y643658D01*
X805703Y643585D01*
X805643Y643515D01*
X805631Y643485D01*
X805612Y643459D01*
X805585Y643372D01*
X805551Y643287D01*
X805547Y643246D01*
X805540Y643224D01*
X805541Y643191D01*
X805533Y643120D01*
X805533Y641399D01*
X804690Y639366D01*
X803134Y637810D01*
X801101Y636967D01*
X798899Y636967D01*
G37*
%LPD*%
%LPC*%
G36*
X501399Y768217D02*
X501399Y768217D01*
X499366Y769060D01*
X497810Y770616D01*
X496967Y772649D01*
X496967Y774851D01*
X497810Y776884D01*
X499366Y778440D01*
X501399Y779283D01*
X503120Y779283D01*
X503210Y779297D01*
X503301Y779305D01*
X503331Y779317D01*
X503363Y779322D01*
X503444Y779365D01*
X503528Y779401D01*
X503560Y779427D01*
X503580Y779438D01*
X503603Y779461D01*
X503658Y779506D01*
X574244Y850092D01*
X574297Y850165D01*
X574357Y850235D01*
X574369Y850265D01*
X574388Y850291D01*
X574415Y850378D01*
X574449Y850463D01*
X574453Y850504D01*
X574460Y850526D01*
X574459Y850559D01*
X574467Y850630D01*
X574467Y852351D01*
X575310Y854384D01*
X576866Y855940D01*
X578899Y856783D01*
X581101Y856783D01*
X583134Y855940D01*
X584690Y854384D01*
X585533Y852351D01*
X585533Y850149D01*
X584690Y848116D01*
X583134Y846560D01*
X581101Y845717D01*
X579380Y845717D01*
X579290Y845703D01*
X579199Y845695D01*
X579169Y845683D01*
X579137Y845678D01*
X579056Y845635D01*
X578972Y845599D01*
X578940Y845573D01*
X578920Y845562D01*
X578897Y845539D01*
X578842Y845494D01*
X508256Y774908D01*
X508203Y774835D01*
X508143Y774765D01*
X508131Y774735D01*
X508112Y774709D01*
X508085Y774622D01*
X508051Y774537D01*
X508047Y774496D01*
X508040Y774474D01*
X508041Y774441D01*
X508033Y774370D01*
X508033Y772649D01*
X507190Y770616D01*
X505634Y769060D01*
X503601Y768217D01*
X501399Y768217D01*
G37*
%LPD*%
%LPC*%
G36*
X554460Y797249D02*
X554460Y797249D01*
X551151Y798620D01*
X548620Y801151D01*
X547249Y804460D01*
X547249Y808040D01*
X548620Y811349D01*
X571151Y833880D01*
X574460Y835251D01*
X578040Y835251D01*
X581349Y833880D01*
X583880Y831349D01*
X585251Y828040D01*
X585251Y824460D01*
X583880Y821151D01*
X561349Y798620D01*
X558040Y797249D01*
X554460Y797249D01*
G37*
%LPD*%
%LPC*%
G36*
X761960Y785999D02*
X761960Y785999D01*
X758651Y787370D01*
X736120Y809901D01*
X734749Y813210D01*
X734749Y816790D01*
X736120Y820099D01*
X738651Y822630D01*
X741960Y824001D01*
X745540Y824001D01*
X748849Y822630D01*
X771380Y800099D01*
X772751Y796790D01*
X772751Y793210D01*
X771380Y789901D01*
X768849Y787370D01*
X765540Y785999D01*
X761960Y785999D01*
G37*
%LPD*%
%LPC*%
G36*
X1470394Y954309D02*
X1470394Y954309D01*
X1466391Y955967D01*
X1463327Y959031D01*
X1461669Y963034D01*
X1461669Y967366D01*
X1463327Y971369D01*
X1466391Y974433D01*
X1470394Y976091D01*
X1492506Y976091D01*
X1496509Y974433D01*
X1499573Y971369D01*
X1501231Y967366D01*
X1501231Y963034D01*
X1499573Y959031D01*
X1496509Y955967D01*
X1492506Y954309D01*
X1470394Y954309D01*
G37*
%LPD*%
%LPC*%
G36*
X171194Y954309D02*
X171194Y954309D01*
X167191Y955967D01*
X164127Y959031D01*
X162469Y963034D01*
X162469Y967366D01*
X164127Y971369D01*
X167191Y974433D01*
X171194Y976091D01*
X193306Y976091D01*
X197309Y974433D01*
X200373Y971369D01*
X202031Y967366D01*
X202031Y963034D01*
X200373Y959031D01*
X197309Y955967D01*
X193306Y954309D01*
X171194Y954309D01*
G37*
%LPD*%
%LPC*%
G36*
X171194Y909309D02*
X171194Y909309D01*
X167191Y910967D01*
X164127Y914031D01*
X162469Y918034D01*
X162469Y922366D01*
X164127Y926369D01*
X167191Y929433D01*
X171194Y931091D01*
X193306Y931091D01*
X197309Y929433D01*
X200373Y926369D01*
X202031Y922366D01*
X202031Y918034D01*
X200373Y914031D01*
X197309Y910967D01*
X193306Y909309D01*
X171194Y909309D01*
G37*
%LPD*%
%LPC*%
G36*
X107694Y909309D02*
X107694Y909309D01*
X103691Y910967D01*
X100627Y914031D01*
X98969Y918034D01*
X98969Y922366D01*
X100627Y926369D01*
X103691Y929433D01*
X107694Y931091D01*
X129806Y931091D01*
X133809Y929433D01*
X136873Y926369D01*
X138531Y922366D01*
X138531Y918034D01*
X136873Y914031D01*
X133809Y910967D01*
X129806Y909309D01*
X107694Y909309D01*
G37*
%LPD*%
%LPC*%
G36*
X1470394Y909309D02*
X1470394Y909309D01*
X1466391Y910967D01*
X1463327Y914031D01*
X1461669Y918034D01*
X1461669Y922366D01*
X1463327Y926369D01*
X1466391Y929433D01*
X1470394Y931091D01*
X1492506Y931091D01*
X1496509Y929433D01*
X1499573Y926369D01*
X1501231Y922366D01*
X1501231Y918034D01*
X1499573Y914031D01*
X1496509Y910967D01*
X1492506Y909309D01*
X1470394Y909309D01*
G37*
%LPD*%
%LPC*%
G36*
X1406894Y909309D02*
X1406894Y909309D01*
X1402891Y910967D01*
X1399827Y914031D01*
X1398169Y918034D01*
X1398169Y922366D01*
X1399827Y926369D01*
X1402891Y929433D01*
X1406894Y931091D01*
X1429006Y931091D01*
X1433009Y929433D01*
X1436073Y926369D01*
X1437731Y922366D01*
X1437731Y918034D01*
X1436073Y914031D01*
X1433009Y910967D01*
X1429006Y909309D01*
X1406894Y909309D01*
G37*
%LPD*%
%LPC*%
G36*
X933899Y738217D02*
X933899Y738217D01*
X931866Y739060D01*
X930310Y740616D01*
X929467Y742649D01*
X929467Y744851D01*
X930310Y746884D01*
X931866Y748440D01*
X933899Y749283D01*
X935620Y749283D01*
X935710Y749297D01*
X935801Y749305D01*
X935831Y749317D01*
X935863Y749322D01*
X935944Y749365D01*
X936027Y749401D01*
X936060Y749427D01*
X936080Y749438D01*
X936102Y749461D01*
X936158Y749506D01*
X962994Y776342D01*
X963047Y776415D01*
X963107Y776485D01*
X963119Y776515D01*
X963138Y776541D01*
X963165Y776628D01*
X963199Y776713D01*
X963203Y776754D01*
X963210Y776776D01*
X963209Y776809D01*
X963217Y776880D01*
X963217Y778601D01*
X964060Y780634D01*
X965616Y782190D01*
X967649Y783033D01*
X969851Y783033D01*
X971884Y782190D01*
X973440Y780634D01*
X974283Y778601D01*
X974283Y776294D01*
X974286Y776274D01*
X974284Y776255D01*
X974306Y776153D01*
X974322Y776051D01*
X974332Y776034D01*
X974336Y776014D01*
X974389Y775925D01*
X974438Y775834D01*
X974452Y775820D01*
X974462Y775803D01*
X974541Y775736D01*
X974616Y775664D01*
X974634Y775656D01*
X974649Y775643D01*
X974745Y775604D01*
X974839Y775561D01*
X974859Y775559D01*
X974877Y775551D01*
X975044Y775533D01*
X977351Y775533D01*
X979384Y774690D01*
X980940Y773134D01*
X981783Y771101D01*
X981783Y768899D01*
X980940Y766866D01*
X979384Y765310D01*
X977351Y764467D01*
X975630Y764467D01*
X975540Y764453D01*
X975449Y764445D01*
X975419Y764433D01*
X975387Y764428D01*
X975306Y764385D01*
X975223Y764349D01*
X975190Y764323D01*
X975170Y764312D01*
X975148Y764289D01*
X975092Y764244D01*
X963256Y752408D01*
X963203Y752335D01*
X963143Y752265D01*
X963131Y752235D01*
X963112Y752209D01*
X963085Y752122D01*
X963051Y752037D01*
X963047Y751996D01*
X963040Y751974D01*
X963041Y751941D01*
X963033Y751870D01*
X963033Y750149D01*
X962190Y748116D01*
X960634Y746560D01*
X958601Y745717D01*
X956399Y745717D01*
X954366Y746560D01*
X952810Y748116D01*
X951967Y750149D01*
X951967Y752351D01*
X952810Y754384D01*
X954366Y755940D01*
X956399Y756783D01*
X958120Y756783D01*
X958210Y756797D01*
X958301Y756805D01*
X958331Y756817D01*
X958363Y756822D01*
X958444Y756865D01*
X958527Y756901D01*
X958560Y756927D01*
X958580Y756938D01*
X958602Y756961D01*
X958658Y757006D01*
X970494Y768842D01*
X970541Y768906D01*
X970556Y768922D01*
X970559Y768929D01*
X970607Y768985D01*
X970619Y769015D01*
X970638Y769041D01*
X970665Y769128D01*
X970699Y769213D01*
X970703Y769254D01*
X970710Y769276D01*
X970709Y769309D01*
X970717Y769380D01*
X970717Y771206D01*
X970714Y771226D01*
X970716Y771245D01*
X970694Y771347D01*
X970678Y771449D01*
X970668Y771466D01*
X970664Y771486D01*
X970611Y771575D01*
X970562Y771666D01*
X970548Y771680D01*
X970538Y771697D01*
X970459Y771764D01*
X970384Y771836D01*
X970366Y771844D01*
X970351Y771857D01*
X970255Y771896D01*
X970161Y771939D01*
X970141Y771941D01*
X970123Y771949D01*
X969956Y771967D01*
X968130Y771967D01*
X968040Y771953D01*
X967949Y771945D01*
X967919Y771933D01*
X967887Y771928D01*
X967806Y771885D01*
X967723Y771849D01*
X967690Y771823D01*
X967670Y771812D01*
X967648Y771789D01*
X967592Y771744D01*
X940756Y744908D01*
X940703Y744835D01*
X940643Y744765D01*
X940631Y744735D01*
X940612Y744709D01*
X940585Y744622D01*
X940551Y744537D01*
X940547Y744496D01*
X940540Y744474D01*
X940541Y744441D01*
X940533Y744370D01*
X940533Y742649D01*
X939690Y740616D01*
X938134Y739060D01*
X936101Y738217D01*
X933899Y738217D01*
G37*
%LPD*%
%LPC*%
G36*
X71376Y762624D02*
X71376Y762624D01*
X65973Y764862D01*
X61837Y768998D01*
X59599Y774401D01*
X59599Y780249D01*
X61837Y785652D01*
X65973Y789788D01*
X71376Y792026D01*
X77224Y792026D01*
X82627Y789788D01*
X86763Y785652D01*
X89001Y780249D01*
X89001Y774401D01*
X86763Y768998D01*
X82627Y764862D01*
X77224Y762624D01*
X71376Y762624D01*
G37*
%LPD*%
%LPC*%
G36*
X1370576Y762624D02*
X1370576Y762624D01*
X1365173Y764862D01*
X1361037Y768998D01*
X1358799Y774401D01*
X1358799Y780249D01*
X1361037Y785652D01*
X1365173Y789788D01*
X1370576Y792026D01*
X1376424Y792026D01*
X1381827Y789788D01*
X1385963Y785652D01*
X1388201Y780249D01*
X1388201Y774401D01*
X1385963Y768998D01*
X1381827Y764862D01*
X1376424Y762624D01*
X1370576Y762624D01*
G37*
%LPD*%
%LPC*%
G36*
X223776Y762624D02*
X223776Y762624D01*
X218373Y764862D01*
X214237Y768998D01*
X211999Y774401D01*
X211999Y780249D01*
X214237Y785652D01*
X218373Y789788D01*
X223776Y792026D01*
X229624Y792026D01*
X235027Y789788D01*
X239163Y785652D01*
X241401Y780249D01*
X241401Y774401D01*
X239163Y768998D01*
X235027Y764862D01*
X229624Y762624D01*
X223776Y762624D01*
G37*
%LPD*%
%LPC*%
G36*
X1522976Y762624D02*
X1522976Y762624D01*
X1517573Y764862D01*
X1513437Y768998D01*
X1511199Y774401D01*
X1511199Y780249D01*
X1513437Y785652D01*
X1517573Y789788D01*
X1522976Y792026D01*
X1528824Y792026D01*
X1534227Y789788D01*
X1538363Y785652D01*
X1540601Y780249D01*
X1540601Y774401D01*
X1538363Y768998D01*
X1534227Y764862D01*
X1528824Y762624D01*
X1522976Y762624D01*
G37*
%LPD*%
%LPC*%
G36*
X71376Y895974D02*
X71376Y895974D01*
X65973Y898212D01*
X61837Y902348D01*
X59599Y907751D01*
X59599Y913599D01*
X61837Y919002D01*
X65973Y923138D01*
X71376Y925376D01*
X77224Y925376D01*
X82627Y923138D01*
X86763Y919002D01*
X89001Y913599D01*
X89001Y907751D01*
X86763Y902348D01*
X82627Y898212D01*
X77224Y895974D01*
X71376Y895974D01*
G37*
%LPD*%
%LPC*%
G36*
X223776Y895974D02*
X223776Y895974D01*
X218373Y898212D01*
X214237Y902348D01*
X211999Y907751D01*
X211999Y913599D01*
X214237Y919002D01*
X218373Y923138D01*
X223776Y925376D01*
X229624Y925376D01*
X235027Y923138D01*
X239163Y919002D01*
X241401Y913599D01*
X241401Y907751D01*
X239163Y902348D01*
X235027Y898212D01*
X229624Y895974D01*
X223776Y895974D01*
G37*
%LPD*%
%LPC*%
G36*
X1370576Y895974D02*
X1370576Y895974D01*
X1365173Y898212D01*
X1361037Y902348D01*
X1358799Y907751D01*
X1358799Y913599D01*
X1361037Y919002D01*
X1365173Y923138D01*
X1370576Y925376D01*
X1376424Y925376D01*
X1381827Y923138D01*
X1385963Y919002D01*
X1388201Y913599D01*
X1388201Y907751D01*
X1385963Y902348D01*
X1381827Y898212D01*
X1376424Y895974D01*
X1370576Y895974D01*
G37*
%LPD*%
%LPC*%
G36*
X1522976Y895974D02*
X1522976Y895974D01*
X1517573Y898212D01*
X1513437Y902348D01*
X1511199Y907751D01*
X1511199Y913599D01*
X1513437Y919002D01*
X1517573Y923138D01*
X1522976Y925376D01*
X1528824Y925376D01*
X1534227Y923138D01*
X1538363Y919002D01*
X1540601Y913599D01*
X1540601Y907751D01*
X1538363Y902348D01*
X1534227Y898212D01*
X1528824Y895974D01*
X1522976Y895974D01*
G37*
%LPD*%
%LPC*%
G36*
X1078899Y866967D02*
X1078899Y866967D01*
X1076866Y867810D01*
X1075310Y869366D01*
X1074467Y871399D01*
X1074467Y873120D01*
X1074453Y873210D01*
X1074445Y873301D01*
X1074433Y873331D01*
X1074428Y873363D01*
X1074385Y873444D01*
X1074349Y873528D01*
X1074323Y873560D01*
X1074312Y873580D01*
X1074289Y873603D01*
X1074244Y873658D01*
X1062408Y885494D01*
X1062335Y885547D01*
X1062265Y885607D01*
X1062235Y885619D01*
X1062209Y885638D01*
X1062122Y885665D01*
X1062037Y885699D01*
X1061996Y885703D01*
X1061974Y885710D01*
X1061941Y885709D01*
X1061870Y885717D01*
X1060149Y885717D01*
X1058116Y886560D01*
X1056560Y888116D01*
X1055717Y890149D01*
X1055717Y892351D01*
X1055880Y892744D01*
X1055897Y892814D01*
X1055922Y892881D01*
X1055925Y892933D01*
X1055936Y892983D01*
X1055930Y893055D01*
X1055933Y893126D01*
X1055918Y893177D01*
X1055913Y893228D01*
X1055884Y893294D01*
X1055864Y893363D01*
X1055835Y893405D01*
X1055813Y893453D01*
X1055765Y893506D01*
X1055724Y893565D01*
X1055682Y893596D01*
X1055647Y893634D01*
X1055584Y893669D01*
X1055527Y893712D01*
X1055477Y893728D01*
X1055431Y893753D01*
X1055361Y893765D01*
X1055293Y893788D01*
X1055241Y893787D01*
X1055189Y893796D01*
X1055118Y893786D01*
X1055047Y893785D01*
X1054978Y893765D01*
X1054946Y893761D01*
X1054925Y893750D01*
X1054886Y893739D01*
X1053366Y893109D01*
X1049034Y893109D01*
X1045031Y894767D01*
X1041967Y897831D01*
X1040309Y901834D01*
X1040309Y906166D01*
X1041967Y910169D01*
X1045031Y913233D01*
X1049034Y914891D01*
X1053366Y914891D01*
X1057369Y913233D01*
X1060433Y910169D01*
X1062091Y906166D01*
X1062091Y901834D01*
X1060435Y897835D01*
X1060424Y897791D01*
X1060405Y897749D01*
X1060396Y897672D01*
X1060378Y897596D01*
X1060383Y897550D01*
X1060378Y897505D01*
X1060394Y897428D01*
X1060401Y897351D01*
X1060420Y897309D01*
X1060430Y897264D01*
X1060470Y897197D01*
X1060501Y897126D01*
X1060533Y897092D01*
X1060556Y897053D01*
X1060615Y897002D01*
X1060668Y896945D01*
X1060708Y896923D01*
X1060743Y896893D01*
X1060815Y896864D01*
X1060883Y896827D01*
X1060929Y896818D01*
X1060971Y896801D01*
X1061107Y896786D01*
X1061125Y896783D01*
X1061130Y896784D01*
X1061138Y896783D01*
X1062351Y896783D01*
X1064384Y895940D01*
X1065940Y894384D01*
X1066783Y892351D01*
X1066783Y890630D01*
X1066797Y890540D01*
X1066805Y890449D01*
X1066817Y890419D01*
X1066822Y890387D01*
X1066865Y890306D01*
X1066901Y890222D01*
X1066927Y890190D01*
X1066938Y890170D01*
X1066961Y890147D01*
X1067006Y890092D01*
X1078842Y878256D01*
X1078915Y878203D01*
X1078985Y878143D01*
X1079015Y878131D01*
X1079041Y878112D01*
X1079128Y878085D01*
X1079213Y878051D01*
X1079254Y878047D01*
X1079276Y878040D01*
X1079309Y878041D01*
X1079380Y878033D01*
X1081101Y878033D01*
X1083134Y877190D01*
X1084690Y875634D01*
X1085533Y873601D01*
X1085533Y871399D01*
X1084690Y869366D01*
X1083134Y867810D01*
X1081101Y866967D01*
X1078899Y866967D01*
G37*
%LPD*%
%LPC*%
G36*
X1345536Y856509D02*
X1345536Y856509D01*
X1340798Y858472D01*
X1337172Y862098D01*
X1335209Y866836D01*
X1335209Y871964D01*
X1337172Y876702D01*
X1340798Y880328D01*
X1345536Y882291D01*
X1350664Y882291D01*
X1355402Y880328D01*
X1359028Y876702D01*
X1360991Y871964D01*
X1360991Y866836D01*
X1359028Y862098D01*
X1355402Y858472D01*
X1350664Y856509D01*
X1345536Y856509D01*
G37*
%LPD*%
%LPC*%
G36*
X46336Y856509D02*
X46336Y856509D01*
X41598Y858472D01*
X37972Y862098D01*
X36009Y866836D01*
X36009Y871964D01*
X37972Y876702D01*
X41598Y880328D01*
X46336Y882291D01*
X51464Y882291D01*
X56202Y880328D01*
X59828Y876702D01*
X61791Y871964D01*
X61791Y866836D01*
X59828Y862098D01*
X56202Y858472D01*
X51464Y856509D01*
X46336Y856509D01*
G37*
%LPD*%
%LPC*%
G36*
X1421736Y729509D02*
X1421736Y729509D01*
X1416998Y731472D01*
X1413372Y735098D01*
X1411409Y739836D01*
X1411409Y744964D01*
X1413372Y749702D01*
X1416998Y753328D01*
X1421736Y755291D01*
X1426864Y755291D01*
X1431602Y753328D01*
X1435228Y749702D01*
X1437191Y744964D01*
X1437191Y739836D01*
X1435228Y735098D01*
X1431602Y731472D01*
X1426864Y729509D01*
X1421736Y729509D01*
G37*
%LPD*%
%LPC*%
G36*
X122536Y729509D02*
X122536Y729509D01*
X117798Y731472D01*
X114172Y735098D01*
X112209Y739836D01*
X112209Y744964D01*
X114172Y749702D01*
X117798Y753328D01*
X122536Y755291D01*
X127664Y755291D01*
X132402Y753328D01*
X136028Y749702D01*
X137991Y744964D01*
X137991Y739836D01*
X136028Y735098D01*
X132402Y731472D01*
X127664Y729509D01*
X122536Y729509D01*
G37*
%LPD*%
%LPC*%
G36*
X558881Y893109D02*
X558881Y893109D01*
X557709Y894281D01*
X557709Y913719D01*
X558881Y914891D01*
X578319Y914891D01*
X579491Y913719D01*
X579491Y894281D01*
X578319Y893109D01*
X558881Y893109D01*
G37*
%LPD*%
%LPC*%
G36*
X365237Y783624D02*
X365237Y783624D01*
X361056Y785356D01*
X357856Y788556D01*
X356124Y792737D01*
X356124Y797263D01*
X357856Y801444D01*
X361056Y804644D01*
X365237Y806376D01*
X369763Y806376D01*
X373944Y804644D01*
X377144Y801444D01*
X378876Y797263D01*
X378876Y792737D01*
X377144Y788556D01*
X373944Y785356D01*
X369763Y783624D01*
X365237Y783624D01*
G37*
%LPD*%
%LPC*%
G36*
X1290237Y603624D02*
X1290237Y603624D01*
X1286056Y605356D01*
X1282856Y608556D01*
X1281124Y612737D01*
X1281124Y617263D01*
X1282856Y621444D01*
X1286056Y624644D01*
X1290237Y626376D01*
X1294763Y626376D01*
X1298944Y624644D01*
X1302144Y621444D01*
X1303876Y617263D01*
X1303876Y612737D01*
X1302144Y608556D01*
X1298944Y605356D01*
X1294763Y603624D01*
X1290237Y603624D01*
G37*
%LPD*%
%LPC*%
G36*
X430237Y603624D02*
X430237Y603624D01*
X426056Y605356D01*
X422856Y608556D01*
X421124Y612737D01*
X421124Y617263D01*
X422856Y621444D01*
X426056Y624644D01*
X430237Y626376D01*
X434763Y626376D01*
X438944Y624644D01*
X442144Y621444D01*
X443876Y617263D01*
X443876Y612737D01*
X442144Y608556D01*
X438944Y605356D01*
X434763Y603624D01*
X430237Y603624D01*
G37*
%LPD*%
%LPC*%
G36*
X305237Y603624D02*
X305237Y603624D01*
X301056Y605356D01*
X297856Y608556D01*
X296124Y612737D01*
X296124Y617263D01*
X297856Y621444D01*
X301056Y624644D01*
X305237Y626376D01*
X309763Y626376D01*
X313944Y624644D01*
X317144Y621444D01*
X318876Y617263D01*
X318876Y612737D01*
X317144Y608556D01*
X313944Y605356D01*
X309763Y603624D01*
X305237Y603624D01*
G37*
%LPD*%
%LPC*%
G36*
X1230237Y783624D02*
X1230237Y783624D01*
X1226056Y785356D01*
X1222856Y788556D01*
X1221124Y792737D01*
X1221124Y797263D01*
X1222856Y801444D01*
X1226056Y804644D01*
X1230237Y806376D01*
X1234763Y806376D01*
X1238944Y804644D01*
X1242144Y801444D01*
X1243876Y797263D01*
X1243876Y792737D01*
X1242144Y788556D01*
X1238944Y785356D01*
X1234763Y783624D01*
X1230237Y783624D01*
G37*
%LPD*%
%LPC*%
G36*
X490237Y783624D02*
X490237Y783624D01*
X486056Y785356D01*
X482856Y788556D01*
X481124Y792737D01*
X481124Y797263D01*
X482856Y801444D01*
X486056Y804644D01*
X490237Y806376D01*
X494763Y806376D01*
X498944Y804644D01*
X502144Y801444D01*
X503876Y797263D01*
X503876Y792737D01*
X502144Y788556D01*
X498944Y785356D01*
X494763Y783624D01*
X490237Y783624D01*
G37*
%LPD*%
%LPC*%
G36*
X1165237Y603624D02*
X1165237Y603624D01*
X1161056Y605356D01*
X1157856Y608556D01*
X1156124Y612737D01*
X1156124Y617263D01*
X1157856Y621444D01*
X1161056Y624644D01*
X1165237Y626376D01*
X1169763Y626376D01*
X1173944Y624644D01*
X1177144Y621444D01*
X1178876Y617263D01*
X1178876Y612737D01*
X1177144Y608556D01*
X1173944Y605356D01*
X1169763Y603624D01*
X1165237Y603624D01*
G37*
%LPD*%
%LPC*%
G36*
X1105237Y783624D02*
X1105237Y783624D01*
X1101056Y785356D01*
X1097856Y788556D01*
X1096124Y792737D01*
X1096124Y797263D01*
X1097856Y801444D01*
X1101056Y804644D01*
X1105237Y806376D01*
X1109763Y806376D01*
X1113944Y804644D01*
X1117144Y801444D01*
X1118876Y797263D01*
X1118876Y792737D01*
X1117144Y788556D01*
X1113944Y785356D01*
X1109763Y783624D01*
X1105237Y783624D01*
G37*
%LPD*%
%LPC*%
G36*
X1510237Y473624D02*
X1510237Y473624D01*
X1506056Y475356D01*
X1502856Y478556D01*
X1501124Y482737D01*
X1501124Y487263D01*
X1502856Y491444D01*
X1506056Y494644D01*
X1510237Y496376D01*
X1514763Y496376D01*
X1518944Y494644D01*
X1522144Y491444D01*
X1523876Y487263D01*
X1523876Y482737D01*
X1522144Y478556D01*
X1518944Y475356D01*
X1514763Y473624D01*
X1510237Y473624D01*
G37*
%LPD*%
%LPC*%
G36*
X1385237Y473624D02*
X1385237Y473624D01*
X1381056Y475356D01*
X1377856Y478556D01*
X1376124Y482737D01*
X1376124Y487263D01*
X1377856Y491444D01*
X1381056Y494644D01*
X1385237Y496376D01*
X1389763Y496376D01*
X1393944Y494644D01*
X1397144Y491444D01*
X1398876Y487263D01*
X1398876Y482737D01*
X1397144Y478556D01*
X1393944Y475356D01*
X1389763Y473624D01*
X1385237Y473624D01*
G37*
%LPD*%
%LPC*%
G36*
X210237Y473624D02*
X210237Y473624D01*
X206056Y475356D01*
X202856Y478556D01*
X201124Y482737D01*
X201124Y487263D01*
X202856Y491444D01*
X206056Y494644D01*
X210237Y496376D01*
X214763Y496376D01*
X218944Y494644D01*
X222144Y491444D01*
X223876Y487263D01*
X223876Y482737D01*
X222144Y478556D01*
X218944Y475356D01*
X214763Y473624D01*
X210237Y473624D01*
G37*
%LPD*%
%LPC*%
G36*
X85237Y473624D02*
X85237Y473624D01*
X81056Y475356D01*
X77856Y478556D01*
X76124Y482737D01*
X76124Y487263D01*
X77856Y491444D01*
X81056Y494644D01*
X85237Y496376D01*
X89763Y496376D01*
X93944Y494644D01*
X97144Y491444D01*
X98876Y487263D01*
X98876Y482737D01*
X97144Y478556D01*
X93944Y475356D01*
X89763Y473624D01*
X85237Y473624D01*
G37*
%LPD*%
%LPC*%
G36*
X809023Y602323D02*
X809023Y602323D01*
X809023Y610332D01*
X809760Y610215D01*
X811205Y609746D01*
X812559Y609056D01*
X813259Y608548D01*
X813269Y608542D01*
X813278Y608534D01*
X813379Y608487D01*
X813478Y608437D01*
X813490Y608435D01*
X813501Y608430D01*
X813612Y608418D01*
X813722Y608402D01*
X813734Y608405D01*
X813745Y608403D01*
X813854Y608427D01*
X813964Y608447D01*
X813974Y608453D01*
X813986Y608455D01*
X814082Y608513D01*
X814179Y608567D01*
X814187Y608575D01*
X814197Y608582D01*
X814269Y608666D01*
X814344Y608748D01*
X814349Y608759D01*
X814357Y608769D01*
X814399Y608872D01*
X814443Y608974D01*
X814444Y608986D01*
X814449Y608997D01*
X814467Y609163D01*
X814467Y609851D01*
X815310Y611884D01*
X816866Y613440D01*
X818899Y614283D01*
X820620Y614283D01*
X820710Y614297D01*
X820801Y614305D01*
X820831Y614317D01*
X820863Y614322D01*
X820944Y614365D01*
X821028Y614401D01*
X821060Y614427D01*
X821080Y614438D01*
X821103Y614461D01*
X821158Y614506D01*
X839244Y632592D01*
X839297Y632665D01*
X839357Y632735D01*
X839369Y632765D01*
X839388Y632791D01*
X839415Y632878D01*
X839449Y632963D01*
X839453Y633004D01*
X839460Y633026D01*
X839459Y633059D01*
X839467Y633130D01*
X839467Y634851D01*
X840310Y636884D01*
X841866Y638440D01*
X843899Y639283D01*
X846101Y639283D01*
X848134Y638440D01*
X849690Y636884D01*
X850533Y634851D01*
X850533Y632649D01*
X849690Y630616D01*
X848134Y629060D01*
X846101Y628217D01*
X844380Y628217D01*
X844290Y628203D01*
X844199Y628195D01*
X844169Y628183D01*
X844137Y628178D01*
X844056Y628135D01*
X843973Y628099D01*
X843940Y628073D01*
X843920Y628062D01*
X843898Y628039D01*
X843842Y627994D01*
X825756Y609908D01*
X825703Y609835D01*
X825643Y609765D01*
X825631Y609735D01*
X825612Y609709D01*
X825585Y609622D01*
X825551Y609537D01*
X825547Y609496D01*
X825540Y609474D01*
X825541Y609441D01*
X825533Y609370D01*
X825533Y607649D01*
X824690Y605616D01*
X823134Y604060D01*
X821101Y603217D01*
X818899Y603217D01*
X818005Y603588D01*
X817902Y603612D01*
X817801Y603641D01*
X817783Y603640D01*
X817765Y603644D01*
X817661Y603634D01*
X817556Y603629D01*
X817539Y603623D01*
X817521Y603621D01*
X817425Y603578D01*
X817327Y603540D01*
X817313Y603528D01*
X817296Y603521D01*
X817218Y603450D01*
X817138Y603382D01*
X817128Y603367D01*
X817115Y603354D01*
X817064Y603262D01*
X817009Y603173D01*
X817005Y603155D01*
X816996Y603139D01*
X816977Y603035D01*
X816954Y602933D01*
X816955Y602911D01*
X816952Y602897D01*
X816957Y602866D01*
X816962Y602765D01*
X817032Y602323D01*
X809023Y602323D01*
G37*
%LPD*%
%LPC*%
G36*
X642634Y893109D02*
X642634Y893109D01*
X638631Y894767D01*
X635567Y897831D01*
X633909Y901834D01*
X633909Y906166D01*
X635567Y910169D01*
X638631Y913233D01*
X642634Y914891D01*
X646966Y914891D01*
X650969Y913233D01*
X654033Y910169D01*
X655691Y906166D01*
X655691Y901834D01*
X654033Y897831D01*
X650969Y894767D01*
X646966Y893109D01*
X642634Y893109D01*
G37*
%LPD*%
%LPC*%
G36*
X668034Y893109D02*
X668034Y893109D01*
X664031Y894767D01*
X660967Y897831D01*
X659309Y901834D01*
X659309Y906166D01*
X660967Y910169D01*
X664031Y913233D01*
X668034Y914891D01*
X672366Y914891D01*
X676369Y913233D01*
X679433Y910169D01*
X681091Y906166D01*
X681091Y901834D01*
X679433Y897831D01*
X676369Y894767D01*
X672366Y893109D01*
X668034Y893109D01*
G37*
%LPD*%
%LPC*%
G36*
X947434Y893109D02*
X947434Y893109D01*
X943431Y894767D01*
X940367Y897831D01*
X938709Y901834D01*
X938709Y906166D01*
X940367Y910169D01*
X943431Y913233D01*
X947434Y914891D01*
X951766Y914891D01*
X955769Y913233D01*
X958833Y910169D01*
X960491Y906166D01*
X960491Y901834D01*
X958833Y897831D01*
X955769Y894767D01*
X951766Y893109D01*
X947434Y893109D01*
G37*
%LPD*%
%LPC*%
G36*
X46734Y833109D02*
X46734Y833109D01*
X42731Y834767D01*
X39667Y837831D01*
X38009Y841834D01*
X38009Y846166D01*
X39667Y850169D01*
X42731Y853233D01*
X46734Y854891D01*
X51066Y854891D01*
X55069Y853233D01*
X58133Y850169D01*
X59791Y846166D01*
X59791Y841834D01*
X58133Y837831D01*
X55069Y834767D01*
X51066Y833109D01*
X46734Y833109D01*
G37*
%LPD*%
%LPC*%
G36*
X1345934Y833109D02*
X1345934Y833109D01*
X1341931Y834767D01*
X1338867Y837831D01*
X1337209Y841834D01*
X1337209Y846166D01*
X1338867Y850169D01*
X1341931Y853233D01*
X1345934Y854891D01*
X1350266Y854891D01*
X1354269Y853233D01*
X1357333Y850169D01*
X1358991Y846166D01*
X1358991Y841834D01*
X1357333Y837831D01*
X1354269Y834767D01*
X1350266Y833109D01*
X1345934Y833109D01*
G37*
%LPD*%
%LPC*%
G36*
X795034Y918509D02*
X795034Y918509D01*
X791031Y920167D01*
X787967Y923231D01*
X786309Y927234D01*
X786309Y931566D01*
X787967Y935569D01*
X791031Y938633D01*
X795034Y940291D01*
X799366Y940291D01*
X803369Y938633D01*
X806433Y935569D01*
X808091Y931566D01*
X808091Y927234D01*
X806433Y923231D01*
X803369Y920167D01*
X799366Y918509D01*
X795034Y918509D01*
G37*
%LPD*%
%LPC*%
G36*
X693434Y893109D02*
X693434Y893109D01*
X689431Y894767D01*
X686367Y897831D01*
X684709Y901834D01*
X684709Y906166D01*
X686367Y910169D01*
X689431Y913233D01*
X693434Y914891D01*
X697766Y914891D01*
X701769Y913233D01*
X704833Y910169D01*
X706491Y906166D01*
X706491Y901834D01*
X704833Y897831D01*
X701769Y894767D01*
X697766Y893109D01*
X693434Y893109D01*
G37*
%LPD*%
%LPC*%
G36*
X845834Y893109D02*
X845834Y893109D01*
X841831Y894767D01*
X838767Y897831D01*
X837109Y901834D01*
X837109Y906166D01*
X838767Y910169D01*
X841831Y913233D01*
X845834Y914891D01*
X850166Y914891D01*
X854169Y913233D01*
X857233Y910169D01*
X858891Y906166D01*
X858891Y901834D01*
X857233Y897831D01*
X854169Y894767D01*
X850166Y893109D01*
X845834Y893109D01*
G37*
%LPD*%
%LPC*%
G36*
X591834Y893109D02*
X591834Y893109D01*
X587831Y894767D01*
X584767Y897831D01*
X583109Y901834D01*
X583109Y906166D01*
X584767Y910169D01*
X587831Y913233D01*
X591834Y914891D01*
X596166Y914891D01*
X600169Y913233D01*
X603233Y910169D01*
X604891Y906166D01*
X604891Y901834D01*
X603233Y897831D01*
X600169Y894767D01*
X596166Y893109D01*
X591834Y893109D01*
G37*
%LPD*%
%LPC*%
G36*
X896634Y893109D02*
X896634Y893109D01*
X892631Y894767D01*
X889567Y897831D01*
X887909Y901834D01*
X887909Y906166D01*
X889567Y910169D01*
X892631Y913233D01*
X896634Y914891D01*
X900966Y914891D01*
X904969Y913233D01*
X908033Y910169D01*
X909691Y906166D01*
X909691Y901834D01*
X908033Y897831D01*
X904969Y894767D01*
X900966Y893109D01*
X896634Y893109D01*
G37*
%LPD*%
%LPC*%
G36*
X148334Y731509D02*
X148334Y731509D01*
X144331Y733167D01*
X141267Y736231D01*
X139609Y740234D01*
X139609Y744566D01*
X141267Y748569D01*
X144331Y751633D01*
X148334Y753291D01*
X152666Y753291D01*
X156669Y751633D01*
X159733Y748569D01*
X161391Y744566D01*
X161391Y740234D01*
X159733Y736231D01*
X156669Y733167D01*
X152666Y731509D01*
X148334Y731509D01*
G37*
%LPD*%
%LPC*%
G36*
X1447534Y731509D02*
X1447534Y731509D01*
X1443531Y733167D01*
X1440467Y736231D01*
X1438809Y740234D01*
X1438809Y744566D01*
X1440467Y748569D01*
X1443531Y751633D01*
X1447534Y753291D01*
X1451866Y753291D01*
X1455869Y751633D01*
X1458933Y748569D01*
X1460591Y744566D01*
X1460591Y740234D01*
X1458933Y736231D01*
X1455869Y733167D01*
X1451866Y731509D01*
X1447534Y731509D01*
G37*
%LPD*%
%LPC*%
G36*
X998234Y893109D02*
X998234Y893109D01*
X994231Y894767D01*
X991167Y897831D01*
X989509Y901834D01*
X989509Y906166D01*
X991167Y910169D01*
X994231Y913233D01*
X998234Y914891D01*
X1002566Y914891D01*
X1006569Y913233D01*
X1009633Y910169D01*
X1011291Y906166D01*
X1011291Y901834D01*
X1009633Y897831D01*
X1006569Y894767D01*
X1002566Y893109D01*
X998234Y893109D01*
G37*
%LPD*%
%LPC*%
G36*
X769634Y918509D02*
X769634Y918509D01*
X765631Y920167D01*
X762567Y923231D01*
X760909Y927234D01*
X760909Y931566D01*
X762567Y935569D01*
X765631Y938633D01*
X769634Y940291D01*
X773966Y940291D01*
X777969Y938633D01*
X781033Y935569D01*
X782691Y931566D01*
X782691Y927234D01*
X781033Y923231D01*
X777969Y920167D01*
X773966Y918509D01*
X769634Y918509D01*
G37*
%LPD*%
%LPC*%
G36*
X1023634Y893109D02*
X1023634Y893109D01*
X1019631Y894767D01*
X1016567Y897831D01*
X1014909Y901834D01*
X1014909Y906166D01*
X1016567Y910169D01*
X1019631Y913233D01*
X1023634Y914891D01*
X1027966Y914891D01*
X1031969Y913233D01*
X1035033Y910169D01*
X1036691Y906166D01*
X1036691Y901834D01*
X1035033Y897831D01*
X1031969Y894767D01*
X1027966Y893109D01*
X1023634Y893109D01*
G37*
%LPD*%
%LPC*%
G36*
X591834Y918509D02*
X591834Y918509D01*
X587831Y920167D01*
X584767Y923231D01*
X583109Y927234D01*
X583109Y931566D01*
X584767Y935569D01*
X587831Y938633D01*
X591834Y940291D01*
X596166Y940291D01*
X600169Y938633D01*
X603233Y935569D01*
X604891Y931566D01*
X604891Y927234D01*
X603233Y923231D01*
X600169Y920167D01*
X596166Y918509D01*
X591834Y918509D01*
G37*
%LPD*%
%LPC*%
G36*
X617234Y893109D02*
X617234Y893109D01*
X613231Y894767D01*
X610167Y897831D01*
X608509Y901834D01*
X608509Y906166D01*
X610167Y910169D01*
X613231Y913233D01*
X617234Y914891D01*
X621566Y914891D01*
X625569Y913233D01*
X628633Y910169D01*
X630291Y906166D01*
X630291Y901834D01*
X628633Y897831D01*
X625569Y894767D01*
X621566Y893109D01*
X617234Y893109D01*
G37*
%LPD*%
%LPC*%
G36*
X1049034Y918509D02*
X1049034Y918509D01*
X1045031Y920167D01*
X1041967Y923231D01*
X1040309Y927234D01*
X1040309Y931566D01*
X1041967Y935569D01*
X1045031Y938633D01*
X1049034Y940291D01*
X1053366Y940291D01*
X1057369Y938633D01*
X1060433Y935569D01*
X1062091Y931566D01*
X1062091Y927234D01*
X1060433Y923231D01*
X1057369Y920167D01*
X1053366Y918509D01*
X1049034Y918509D01*
G37*
%LPD*%
%LPC*%
G36*
X566434Y918509D02*
X566434Y918509D01*
X562431Y920167D01*
X559367Y923231D01*
X557709Y927234D01*
X557709Y931566D01*
X559367Y935569D01*
X562431Y938633D01*
X566434Y940291D01*
X570766Y940291D01*
X574769Y938633D01*
X577833Y935569D01*
X579491Y931566D01*
X579491Y927234D01*
X577833Y923231D01*
X574769Y920167D01*
X570766Y918509D01*
X566434Y918509D01*
G37*
%LPD*%
%LPC*%
G36*
X947434Y918509D02*
X947434Y918509D01*
X943431Y920167D01*
X940367Y923231D01*
X938709Y927234D01*
X938709Y931566D01*
X940367Y935569D01*
X943431Y938633D01*
X947434Y940291D01*
X951766Y940291D01*
X955769Y938633D01*
X958833Y935569D01*
X960491Y931566D01*
X960491Y927234D01*
X958833Y923231D01*
X955769Y920167D01*
X951766Y918509D01*
X947434Y918509D01*
G37*
%LPD*%
%LPC*%
G36*
X744234Y918509D02*
X744234Y918509D01*
X740231Y920167D01*
X737167Y923231D01*
X735509Y927234D01*
X735509Y931566D01*
X737167Y935569D01*
X740231Y938633D01*
X744234Y940291D01*
X748566Y940291D01*
X752569Y938633D01*
X755633Y935569D01*
X757291Y931566D01*
X757291Y927234D01*
X755633Y923231D01*
X752569Y920167D01*
X748566Y918509D01*
X744234Y918509D01*
G37*
%LPD*%
%LPC*%
G36*
X668034Y918509D02*
X668034Y918509D01*
X664031Y920167D01*
X660967Y923231D01*
X659309Y927234D01*
X659309Y931566D01*
X660967Y935569D01*
X664031Y938633D01*
X668034Y940291D01*
X672366Y940291D01*
X676369Y938633D01*
X679433Y935569D01*
X681091Y931566D01*
X681091Y927234D01*
X679433Y923231D01*
X676369Y920167D01*
X672366Y918509D01*
X668034Y918509D01*
G37*
%LPD*%
%LPC*%
G36*
X718834Y918509D02*
X718834Y918509D01*
X714831Y920167D01*
X711767Y923231D01*
X710109Y927234D01*
X710109Y931566D01*
X711767Y935569D01*
X714831Y938633D01*
X718834Y940291D01*
X723166Y940291D01*
X727169Y938633D01*
X730233Y935569D01*
X731891Y931566D01*
X731891Y927234D01*
X730233Y923231D01*
X727169Y920167D01*
X723166Y918509D01*
X718834Y918509D01*
G37*
%LPD*%
%LPC*%
G36*
X693434Y918509D02*
X693434Y918509D01*
X689431Y920167D01*
X686367Y923231D01*
X684709Y927234D01*
X684709Y931566D01*
X686367Y935569D01*
X689431Y938633D01*
X693434Y940291D01*
X697766Y940291D01*
X701769Y938633D01*
X704833Y935569D01*
X706491Y931566D01*
X706491Y927234D01*
X704833Y923231D01*
X701769Y920167D01*
X697766Y918509D01*
X693434Y918509D01*
G37*
%LPD*%
%LPC*%
G36*
X795034Y893109D02*
X795034Y893109D01*
X791031Y894767D01*
X787967Y897831D01*
X786309Y901834D01*
X786309Y906166D01*
X787967Y910169D01*
X791031Y913233D01*
X795034Y914891D01*
X799366Y914891D01*
X803369Y913233D01*
X806433Y910169D01*
X808091Y906166D01*
X808091Y901834D01*
X806433Y897831D01*
X803369Y894767D01*
X799366Y893109D01*
X795034Y893109D01*
G37*
%LPD*%
%LPC*%
G36*
X769634Y893109D02*
X769634Y893109D01*
X765631Y894767D01*
X762567Y897831D01*
X760909Y901834D01*
X760909Y906166D01*
X762567Y910169D01*
X765631Y913233D01*
X769634Y914891D01*
X773966Y914891D01*
X777969Y913233D01*
X781033Y910169D01*
X782691Y906166D01*
X782691Y901834D01*
X781033Y897831D01*
X777969Y894767D01*
X773966Y893109D01*
X769634Y893109D01*
G37*
%LPD*%
%LPC*%
G36*
X820434Y893109D02*
X820434Y893109D01*
X816431Y894767D01*
X813367Y897831D01*
X811709Y901834D01*
X811709Y906166D01*
X813367Y910169D01*
X816431Y913233D01*
X820434Y914891D01*
X824766Y914891D01*
X828769Y913233D01*
X831833Y910169D01*
X833491Y906166D01*
X833491Y901834D01*
X831833Y897831D01*
X828769Y894767D01*
X824766Y893109D01*
X820434Y893109D01*
G37*
%LPD*%
%LPC*%
G36*
X642634Y918509D02*
X642634Y918509D01*
X638631Y920167D01*
X635567Y923231D01*
X633909Y927234D01*
X633909Y931566D01*
X635567Y935569D01*
X638631Y938633D01*
X642634Y940291D01*
X646966Y940291D01*
X650969Y938633D01*
X654033Y935569D01*
X655691Y931566D01*
X655691Y927234D01*
X654033Y923231D01*
X650969Y920167D01*
X646966Y918509D01*
X642634Y918509D01*
G37*
%LPD*%
%LPC*%
G36*
X617234Y918509D02*
X617234Y918509D01*
X613231Y920167D01*
X610167Y923231D01*
X608509Y927234D01*
X608509Y931566D01*
X610167Y935569D01*
X613231Y938633D01*
X617234Y940291D01*
X621566Y940291D01*
X625569Y938633D01*
X628633Y935569D01*
X630291Y931566D01*
X630291Y927234D01*
X628633Y923231D01*
X625569Y920167D01*
X621566Y918509D01*
X617234Y918509D01*
G37*
%LPD*%
%LPC*%
G36*
X1023634Y918509D02*
X1023634Y918509D01*
X1019631Y920167D01*
X1016567Y923231D01*
X1014909Y927234D01*
X1014909Y931566D01*
X1016567Y935569D01*
X1019631Y938633D01*
X1023634Y940291D01*
X1027966Y940291D01*
X1031969Y938633D01*
X1035033Y935569D01*
X1036691Y931566D01*
X1036691Y927234D01*
X1035033Y923231D01*
X1031969Y920167D01*
X1027966Y918509D01*
X1023634Y918509D01*
G37*
%LPD*%
%LPC*%
G36*
X871234Y918509D02*
X871234Y918509D01*
X867231Y920167D01*
X864167Y923231D01*
X862509Y927234D01*
X862509Y931566D01*
X864167Y935569D01*
X867231Y938633D01*
X871234Y940291D01*
X875566Y940291D01*
X879569Y938633D01*
X882633Y935569D01*
X884291Y931566D01*
X884291Y927234D01*
X882633Y923231D01*
X879569Y920167D01*
X875566Y918509D01*
X871234Y918509D01*
G37*
%LPD*%
%LPC*%
G36*
X845834Y918509D02*
X845834Y918509D01*
X841831Y920167D01*
X838767Y923231D01*
X837109Y927234D01*
X837109Y931566D01*
X838767Y935569D01*
X841831Y938633D01*
X845834Y940291D01*
X850166Y940291D01*
X854169Y938633D01*
X857233Y935569D01*
X858891Y931566D01*
X858891Y927234D01*
X857233Y923231D01*
X854169Y920167D01*
X850166Y918509D01*
X845834Y918509D01*
G37*
%LPD*%
%LPC*%
G36*
X820434Y918509D02*
X820434Y918509D01*
X816431Y920167D01*
X813367Y923231D01*
X811709Y927234D01*
X811709Y931566D01*
X813367Y935569D01*
X816431Y938633D01*
X820434Y940291D01*
X824766Y940291D01*
X828769Y938633D01*
X831833Y935569D01*
X833491Y931566D01*
X833491Y927234D01*
X831833Y923231D01*
X828769Y920167D01*
X824766Y918509D01*
X820434Y918509D01*
G37*
%LPD*%
%LPC*%
G36*
X744234Y893109D02*
X744234Y893109D01*
X740231Y894767D01*
X737167Y897831D01*
X735509Y901834D01*
X735509Y906166D01*
X737167Y910169D01*
X740231Y913233D01*
X744234Y914891D01*
X748566Y914891D01*
X752569Y913233D01*
X755633Y910169D01*
X757291Y906166D01*
X757291Y901834D01*
X755633Y897831D01*
X752569Y894767D01*
X748566Y893109D01*
X744234Y893109D01*
G37*
%LPD*%
%LPC*%
G36*
X718834Y893109D02*
X718834Y893109D01*
X714831Y894767D01*
X711767Y897831D01*
X710109Y901834D01*
X710109Y906166D01*
X711767Y910169D01*
X714831Y913233D01*
X718834Y914891D01*
X723166Y914891D01*
X727169Y913233D01*
X730233Y910169D01*
X731891Y906166D01*
X731891Y901834D01*
X730233Y897831D01*
X727169Y894767D01*
X723166Y893109D01*
X718834Y893109D01*
G37*
%LPD*%
%LPC*%
G36*
X871234Y893109D02*
X871234Y893109D01*
X867231Y894767D01*
X864167Y897831D01*
X862509Y901834D01*
X862509Y906166D01*
X864167Y910169D01*
X867231Y913233D01*
X871234Y914891D01*
X875566Y914891D01*
X879569Y913233D01*
X882633Y910169D01*
X884291Y906166D01*
X884291Y901834D01*
X882633Y897831D01*
X879569Y894767D01*
X875566Y893109D01*
X871234Y893109D01*
G37*
%LPD*%
%LPC*%
G36*
X541399Y840717D02*
X541399Y840717D01*
X539366Y841560D01*
X537810Y843116D01*
X536967Y845149D01*
X536967Y846870D01*
X536953Y846960D01*
X536945Y847051D01*
X536933Y847081D01*
X536928Y847113D01*
X536885Y847194D01*
X536849Y847277D01*
X536823Y847310D01*
X536812Y847330D01*
X536789Y847352D01*
X536744Y847408D01*
X519908Y864244D01*
X519835Y864297D01*
X519765Y864357D01*
X519735Y864369D01*
X519709Y864388D01*
X519622Y864415D01*
X519537Y864449D01*
X519496Y864453D01*
X519474Y864460D01*
X519441Y864459D01*
X519370Y864467D01*
X517649Y864467D01*
X515616Y865310D01*
X514060Y866866D01*
X513217Y868899D01*
X513217Y871101D01*
X514060Y873134D01*
X515616Y874690D01*
X517649Y875533D01*
X519851Y875533D01*
X521884Y874690D01*
X523440Y873134D01*
X524283Y871101D01*
X524283Y869380D01*
X524297Y869290D01*
X524305Y869199D01*
X524317Y869169D01*
X524322Y869137D01*
X524365Y869056D01*
X524401Y868973D01*
X524427Y868940D01*
X524438Y868920D01*
X524461Y868898D01*
X524506Y868842D01*
X541342Y852006D01*
X541415Y851953D01*
X541485Y851893D01*
X541515Y851881D01*
X541541Y851862D01*
X541628Y851835D01*
X541713Y851801D01*
X541754Y851797D01*
X541776Y851790D01*
X541809Y851791D01*
X541880Y851783D01*
X543601Y851783D01*
X545634Y850940D01*
X547190Y849384D01*
X548033Y847351D01*
X548033Y845149D01*
X547190Y843116D01*
X545634Y841560D01*
X543601Y840717D01*
X541399Y840717D01*
G37*
%LPD*%
%LPC*%
G36*
X910149Y949467D02*
X910149Y949467D01*
X908116Y950310D01*
X906560Y951866D01*
X905717Y953899D01*
X905717Y955620D01*
X905703Y955710D01*
X905695Y955801D01*
X905683Y955831D01*
X905678Y955863D01*
X905635Y955944D01*
X905599Y956027D01*
X905573Y956060D01*
X905562Y956080D01*
X905539Y956102D01*
X905494Y956158D01*
X889908Y971744D01*
X889835Y971797D01*
X889765Y971857D01*
X889735Y971869D01*
X889709Y971888D01*
X889622Y971915D01*
X889537Y971949D01*
X889496Y971953D01*
X889474Y971960D01*
X889441Y971959D01*
X889370Y971967D01*
X887649Y971967D01*
X885616Y972810D01*
X884060Y974366D01*
X883217Y976399D01*
X883217Y978601D01*
X884060Y980634D01*
X885616Y982190D01*
X887649Y983033D01*
X889851Y983033D01*
X891884Y982190D01*
X893440Y980634D01*
X894283Y978601D01*
X894283Y976880D01*
X894297Y976790D01*
X894305Y976699D01*
X894317Y976669D01*
X894322Y976637D01*
X894365Y976556D01*
X894401Y976473D01*
X894427Y976440D01*
X894438Y976420D01*
X894461Y976398D01*
X894506Y976342D01*
X910092Y960756D01*
X910165Y960703D01*
X910235Y960643D01*
X910265Y960631D01*
X910291Y960612D01*
X910378Y960585D01*
X910463Y960551D01*
X910504Y960547D01*
X910526Y960540D01*
X910559Y960541D01*
X910630Y960533D01*
X912351Y960533D01*
X914384Y959690D01*
X915940Y958134D01*
X916783Y956101D01*
X916783Y953899D01*
X915940Y951866D01*
X914384Y950310D01*
X912351Y949467D01*
X910149Y949467D01*
G37*
%LPD*%
%LPC*%
G36*
X1041399Y660717D02*
X1041399Y660717D01*
X1039366Y661560D01*
X1037810Y663116D01*
X1036967Y665149D01*
X1036967Y667351D01*
X1037810Y669384D01*
X1039366Y670940D01*
X1041399Y671783D01*
X1043120Y671783D01*
X1043210Y671797D01*
X1043301Y671805D01*
X1043331Y671817D01*
X1043363Y671822D01*
X1043444Y671865D01*
X1043527Y671901D01*
X1043560Y671927D01*
X1043580Y671938D01*
X1043602Y671961D01*
X1043658Y672006D01*
X1055494Y683842D01*
X1055547Y683915D01*
X1055607Y683985D01*
X1055619Y684015D01*
X1055638Y684041D01*
X1055665Y684128D01*
X1055699Y684213D01*
X1055703Y684254D01*
X1055710Y684276D01*
X1055709Y684309D01*
X1055717Y684380D01*
X1055717Y686101D01*
X1056560Y688134D01*
X1058116Y689690D01*
X1060149Y690533D01*
X1062351Y690533D01*
X1064384Y689690D01*
X1065940Y688134D01*
X1066783Y686101D01*
X1066783Y683899D01*
X1065940Y681866D01*
X1064384Y680310D01*
X1062351Y679467D01*
X1060630Y679467D01*
X1060540Y679453D01*
X1060449Y679445D01*
X1060419Y679433D01*
X1060387Y679428D01*
X1060306Y679385D01*
X1060223Y679349D01*
X1060190Y679323D01*
X1060170Y679312D01*
X1060148Y679289D01*
X1060092Y679244D01*
X1048256Y667408D01*
X1048203Y667335D01*
X1048143Y667265D01*
X1048131Y667235D01*
X1048112Y667209D01*
X1048085Y667122D01*
X1048051Y667037D01*
X1048047Y666996D01*
X1048040Y666974D01*
X1048041Y666941D01*
X1048033Y666870D01*
X1048033Y665149D01*
X1047190Y663116D01*
X1045634Y661560D01*
X1043601Y660717D01*
X1041399Y660717D01*
G37*
%LPD*%
%LPC*%
G36*
X494023Y846523D02*
X494023Y846523D01*
X494023Y856802D01*
X494013Y856867D01*
X494012Y856933D01*
X493989Y857013D01*
X493983Y857045D01*
X493974Y857062D01*
X493965Y857094D01*
X493217Y858899D01*
X493217Y860620D01*
X493203Y860710D01*
X493195Y860801D01*
X493183Y860831D01*
X493178Y860863D01*
X493135Y860944D01*
X493099Y861028D01*
X493073Y861060D01*
X493062Y861080D01*
X493039Y861103D01*
X492994Y861158D01*
X489908Y864244D01*
X489835Y864297D01*
X489765Y864357D01*
X489735Y864369D01*
X489709Y864388D01*
X489622Y864415D01*
X489537Y864449D01*
X489496Y864453D01*
X489474Y864460D01*
X489441Y864459D01*
X489370Y864467D01*
X487649Y864467D01*
X485616Y865310D01*
X484060Y866866D01*
X483217Y868899D01*
X483217Y871101D01*
X484060Y873134D01*
X485616Y874690D01*
X487649Y875533D01*
X489851Y875533D01*
X491884Y874690D01*
X493440Y873134D01*
X494283Y871101D01*
X494283Y869380D01*
X494297Y869290D01*
X494305Y869199D01*
X494317Y869169D01*
X494322Y869137D01*
X494365Y869056D01*
X494401Y868972D01*
X494427Y868940D01*
X494438Y868920D01*
X494461Y868897D01*
X494506Y868842D01*
X497592Y865756D01*
X497665Y865703D01*
X497735Y865643D01*
X497765Y865631D01*
X497791Y865612D01*
X497878Y865585D01*
X497963Y865551D01*
X498004Y865547D01*
X498026Y865540D01*
X498059Y865541D01*
X498130Y865533D01*
X499851Y865533D01*
X501884Y864690D01*
X503440Y863134D01*
X504283Y861101D01*
X504283Y858899D01*
X503440Y856866D01*
X501884Y855310D01*
X500927Y854913D01*
X500888Y854889D01*
X500845Y854873D01*
X500784Y854825D01*
X500718Y854784D01*
X500688Y854748D01*
X500653Y854719D01*
X500611Y854654D01*
X500561Y854594D01*
X500544Y854551D01*
X500520Y854513D01*
X500501Y854437D01*
X500473Y854364D01*
X500471Y854319D01*
X500460Y854274D01*
X500466Y854196D01*
X500462Y854119D01*
X500475Y854075D01*
X500479Y854029D01*
X500509Y853957D01*
X500531Y853882D01*
X500557Y853845D01*
X500575Y853802D01*
X500660Y853696D01*
X500671Y853680D01*
X500675Y853677D01*
X500680Y853672D01*
X501589Y852763D01*
X502691Y851245D01*
X503543Y849574D01*
X504122Y847790D01*
X504323Y846523D01*
X494023Y846523D01*
G37*
%LPD*%
%LPC*%
G36*
X986399Y949467D02*
X986399Y949467D01*
X984366Y950310D01*
X982810Y951866D01*
X981967Y953899D01*
X981967Y955620D01*
X981953Y955710D01*
X981945Y955801D01*
X981933Y955831D01*
X981928Y955863D01*
X981885Y955944D01*
X981849Y956028D01*
X981823Y956060D01*
X981812Y956080D01*
X981789Y956103D01*
X981744Y956158D01*
X973658Y964244D01*
X973585Y964297D01*
X973515Y964357D01*
X973485Y964369D01*
X973459Y964388D01*
X973372Y964415D01*
X973287Y964449D01*
X973246Y964453D01*
X973224Y964460D01*
X973191Y964459D01*
X973120Y964467D01*
X971399Y964467D01*
X969366Y965310D01*
X967810Y966866D01*
X966967Y968899D01*
X966967Y971101D01*
X967810Y973134D01*
X969366Y974690D01*
X971399Y975533D01*
X973601Y975533D01*
X975634Y974690D01*
X977190Y973134D01*
X978033Y971101D01*
X978033Y969380D01*
X978047Y969290D01*
X978055Y969199D01*
X978067Y969169D01*
X978072Y969137D01*
X978115Y969056D01*
X978151Y968972D01*
X978177Y968940D01*
X978188Y968920D01*
X978211Y968897D01*
X978256Y968842D01*
X986342Y960756D01*
X986415Y960703D01*
X986485Y960643D01*
X986515Y960631D01*
X986541Y960612D01*
X986628Y960585D01*
X986713Y960551D01*
X986754Y960547D01*
X986776Y960540D01*
X986809Y960541D01*
X986880Y960533D01*
X988601Y960533D01*
X990634Y959690D01*
X992190Y958134D01*
X993033Y956101D01*
X993033Y953899D01*
X992190Y951866D01*
X990634Y950310D01*
X988601Y949467D01*
X986399Y949467D01*
G37*
%LPD*%
%LPC*%
G36*
X580149Y955717D02*
X580149Y955717D01*
X578116Y956560D01*
X576560Y958116D01*
X575717Y960149D01*
X575717Y961870D01*
X575703Y961960D01*
X575695Y962051D01*
X575683Y962081D01*
X575678Y962113D01*
X575635Y962194D01*
X575599Y962277D01*
X575573Y962310D01*
X575562Y962330D01*
X575539Y962352D01*
X575494Y962408D01*
X568658Y969244D01*
X568585Y969297D01*
X568515Y969357D01*
X568485Y969369D01*
X568459Y969388D01*
X568372Y969415D01*
X568287Y969449D01*
X568246Y969453D01*
X568224Y969460D01*
X568191Y969459D01*
X568120Y969467D01*
X566399Y969467D01*
X564366Y970310D01*
X562810Y971866D01*
X561967Y973899D01*
X561967Y976101D01*
X562810Y978134D01*
X564366Y979690D01*
X566399Y980533D01*
X568601Y980533D01*
X570634Y979690D01*
X572190Y978134D01*
X573033Y976101D01*
X573033Y974380D01*
X573047Y974290D01*
X573055Y974199D01*
X573067Y974169D01*
X573072Y974137D01*
X573115Y974056D01*
X573151Y973973D01*
X573177Y973940D01*
X573188Y973920D01*
X573211Y973898D01*
X573256Y973842D01*
X580092Y967006D01*
X580165Y966953D01*
X580235Y966893D01*
X580265Y966881D01*
X580291Y966862D01*
X580378Y966835D01*
X580463Y966801D01*
X580504Y966797D01*
X580526Y966790D01*
X580559Y966791D01*
X580630Y966783D01*
X582351Y966783D01*
X584384Y965940D01*
X585940Y964384D01*
X586783Y962351D01*
X586783Y960149D01*
X585940Y958116D01*
X584384Y956560D01*
X582351Y955717D01*
X580149Y955717D01*
G37*
%LPD*%
%LPC*%
G36*
X1036399Y784467D02*
X1036399Y784467D01*
X1034366Y785310D01*
X1032810Y786866D01*
X1031967Y788899D01*
X1031967Y791101D01*
X1032810Y793134D01*
X1034366Y794690D01*
X1036399Y795533D01*
X1038120Y795533D01*
X1038210Y795547D01*
X1038301Y795555D01*
X1038331Y795567D01*
X1038363Y795572D01*
X1038443Y795615D01*
X1038527Y795651D01*
X1038560Y795677D01*
X1038580Y795688D01*
X1038602Y795711D01*
X1038658Y795756D01*
X1040751Y797848D01*
X1040762Y797864D01*
X1040778Y797877D01*
X1040834Y797964D01*
X1040894Y798048D01*
X1040900Y798067D01*
X1040911Y798084D01*
X1040936Y798184D01*
X1040967Y798283D01*
X1040966Y798303D01*
X1040971Y798322D01*
X1040963Y798425D01*
X1040960Y798529D01*
X1040954Y798548D01*
X1040952Y798567D01*
X1040912Y798662D01*
X1040876Y798760D01*
X1040863Y798775D01*
X1040856Y798794D01*
X1040751Y798925D01*
X1040310Y799366D01*
X1039467Y801399D01*
X1039467Y803601D01*
X1040310Y805634D01*
X1041866Y807190D01*
X1043899Y808033D01*
X1046101Y808033D01*
X1048134Y807190D01*
X1049690Y805634D01*
X1050533Y803601D01*
X1050533Y801399D01*
X1049690Y799366D01*
X1048474Y798149D01*
X1048421Y798075D01*
X1048361Y798006D01*
X1048349Y797976D01*
X1048330Y797949D01*
X1048303Y797863D01*
X1048269Y797778D01*
X1048265Y797737D01*
X1048258Y797714D01*
X1048259Y797682D01*
X1048251Y797611D01*
X1048251Y796153D01*
X1043256Y791158D01*
X1043203Y791085D01*
X1043143Y791015D01*
X1043131Y790985D01*
X1043112Y790959D01*
X1043085Y790872D01*
X1043051Y790787D01*
X1043047Y790746D01*
X1043040Y790724D01*
X1043041Y790691D01*
X1043033Y790620D01*
X1043033Y788899D01*
X1042190Y786866D01*
X1040634Y785310D01*
X1038601Y784467D01*
X1036399Y784467D01*
G37*
%LPD*%
%LPC*%
G36*
X985317Y613893D02*
X985317Y613893D01*
X984025Y614150D01*
X983930Y614154D01*
X983837Y614164D01*
X983808Y614158D01*
X983779Y614159D01*
X983688Y614132D01*
X983596Y614112D01*
X983571Y614097D01*
X983543Y614088D01*
X983466Y614034D01*
X983385Y613985D01*
X983377Y613976D01*
X982135Y614223D01*
X980573Y614870D01*
X979168Y615809D01*
X977973Y617004D01*
X977034Y618409D01*
X976387Y619971D01*
X976192Y620951D01*
X983876Y620951D01*
X983896Y620954D01*
X983915Y620952D01*
X984017Y620974D01*
X984119Y620991D01*
X984136Y621000D01*
X984156Y621004D01*
X984245Y621057D01*
X984336Y621106D01*
X984350Y621120D01*
X984367Y621130D01*
X984434Y621209D01*
X984505Y621284D01*
X984514Y621302D01*
X984527Y621317D01*
X984565Y621413D01*
X984609Y621507D01*
X984611Y621527D01*
X984619Y621545D01*
X984637Y621712D01*
X984637Y623236D01*
X984634Y623256D01*
X984636Y623275D01*
X984614Y623377D01*
X984597Y623479D01*
X984588Y623496D01*
X984584Y623516D01*
X984531Y623605D01*
X984482Y623696D01*
X984468Y623710D01*
X984458Y623727D01*
X984379Y623794D01*
X984304Y623865D01*
X984286Y623874D01*
X984271Y623887D01*
X984175Y623926D01*
X984081Y623969D01*
X984061Y623971D01*
X984043Y623979D01*
X983876Y623997D01*
X976192Y623997D01*
X976387Y624977D01*
X977034Y626539D01*
X977973Y627944D01*
X979168Y629139D01*
X980573Y630078D01*
X982135Y630725D01*
X983380Y630973D01*
X983401Y630949D01*
X983427Y630935D01*
X983448Y630915D01*
X983533Y630875D01*
X983616Y630829D01*
X983645Y630823D01*
X983671Y630811D01*
X983765Y630801D01*
X983857Y630783D01*
X983894Y630786D01*
X983915Y630784D01*
X983947Y630791D01*
X984025Y630798D01*
X985317Y631055D01*
X985483Y631055D01*
X985760Y631000D01*
X985825Y630998D01*
X985889Y630985D01*
X985972Y630993D01*
X986005Y630991D01*
X986024Y630997D01*
X986028Y630997D01*
X986050Y630987D01*
X986108Y630949D01*
X986181Y630926D01*
X986211Y630912D01*
X986232Y630910D01*
X986268Y630899D01*
X986775Y630798D01*
X986870Y630794D01*
X986963Y630784D01*
X986992Y630790D01*
X987021Y630789D01*
X987112Y630816D01*
X987204Y630836D01*
X987229Y630851D01*
X987257Y630860D01*
X987334Y630914D01*
X987415Y630963D01*
X987423Y630972D01*
X987791Y630899D01*
X987886Y630895D01*
X987979Y630885D01*
X988008Y630891D01*
X988037Y630890D01*
X988127Y630917D01*
X988220Y630937D01*
X988245Y630952D01*
X988273Y630961D01*
X988322Y630995D01*
X989681Y630725D01*
X991243Y630078D01*
X992648Y629139D01*
X993843Y627944D01*
X994782Y626539D01*
X995429Y624977D01*
X995624Y623997D01*
X987940Y623997D01*
X987920Y623994D01*
X987901Y623996D01*
X987799Y623974D01*
X987697Y623957D01*
X987680Y623948D01*
X987660Y623944D01*
X987571Y623891D01*
X987480Y623842D01*
X987466Y623828D01*
X987449Y623818D01*
X987382Y623739D01*
X987311Y623664D01*
X987302Y623646D01*
X987289Y623631D01*
X987251Y623535D01*
X987207Y623441D01*
X987205Y623421D01*
X987197Y623403D01*
X987179Y623236D01*
X987179Y621712D01*
X987182Y621692D01*
X987180Y621673D01*
X987202Y621571D01*
X987219Y621469D01*
X987228Y621452D01*
X987232Y621432D01*
X987285Y621343D01*
X987334Y621252D01*
X987348Y621238D01*
X987358Y621221D01*
X987437Y621154D01*
X987512Y621083D01*
X987530Y621074D01*
X987545Y621061D01*
X987641Y621022D01*
X987735Y620979D01*
X987755Y620977D01*
X987773Y620969D01*
X987940Y620951D01*
X995624Y620951D01*
X995429Y619971D01*
X994782Y618409D01*
X993843Y617004D01*
X992648Y615809D01*
X991243Y614870D01*
X989681Y614223D01*
X988323Y613953D01*
X988283Y613972D01*
X988200Y614018D01*
X988171Y614023D01*
X988145Y614036D01*
X988051Y614046D01*
X987959Y614064D01*
X987922Y614061D01*
X987900Y614063D01*
X987869Y614056D01*
X987791Y614049D01*
X987420Y613975D01*
X987399Y613999D01*
X987373Y614013D01*
X987352Y614033D01*
X987266Y614073D01*
X987184Y614119D01*
X987155Y614125D01*
X987129Y614137D01*
X987035Y614147D01*
X986943Y614165D01*
X986906Y614162D01*
X986884Y614164D01*
X986853Y614157D01*
X986775Y614150D01*
X986268Y614049D01*
X986203Y614025D01*
X986136Y614011D01*
X986089Y613982D01*
X986037Y613963D01*
X986021Y613949D01*
X985991Y613950D01*
X985927Y613963D01*
X985844Y613955D01*
X985811Y613957D01*
X985792Y613951D01*
X985760Y613948D01*
X985483Y613893D01*
X985400Y613893D01*
X985317Y613893D01*
G37*
%LPD*%
%LPC*%
G36*
X1035775Y613950D02*
X1035775Y613950D01*
X1035711Y613963D01*
X1035628Y613956D01*
X1035595Y613957D01*
X1035576Y613951D01*
X1035572Y613951D01*
X1035550Y613961D01*
X1035492Y613999D01*
X1035419Y614022D01*
X1035389Y614036D01*
X1035368Y614038D01*
X1035333Y614049D01*
X1035079Y614100D01*
X1034984Y614103D01*
X1034891Y614113D01*
X1034862Y614107D01*
X1034833Y614108D01*
X1034742Y614081D01*
X1034650Y614061D01*
X1034625Y614046D01*
X1034597Y614038D01*
X1034520Y613983D01*
X1034489Y613965D01*
X1033809Y614100D01*
X1033714Y614103D01*
X1033621Y614113D01*
X1033592Y614107D01*
X1033563Y614108D01*
X1033472Y614081D01*
X1033380Y614061D01*
X1033355Y614046D01*
X1033327Y614038D01*
X1033250Y613983D01*
X1033219Y613965D01*
X1031919Y614223D01*
X1030357Y614870D01*
X1028952Y615809D01*
X1027757Y617004D01*
X1026818Y618409D01*
X1026171Y619971D01*
X1025976Y620951D01*
X1033660Y620951D01*
X1033680Y620954D01*
X1033699Y620952D01*
X1033801Y620974D01*
X1033903Y620991D01*
X1033920Y621000D01*
X1033940Y621004D01*
X1034029Y621057D01*
X1034120Y621106D01*
X1034134Y621120D01*
X1034151Y621130D01*
X1034218Y621209D01*
X1034289Y621284D01*
X1034298Y621302D01*
X1034311Y621317D01*
X1034349Y621413D01*
X1034393Y621507D01*
X1034395Y621527D01*
X1034403Y621545D01*
X1034421Y621712D01*
X1034421Y623236D01*
X1034418Y623256D01*
X1034420Y623275D01*
X1034398Y623377D01*
X1034381Y623479D01*
X1034372Y623496D01*
X1034368Y623516D01*
X1034315Y623605D01*
X1034266Y623696D01*
X1034252Y623710D01*
X1034242Y623727D01*
X1034163Y623794D01*
X1034088Y623865D01*
X1034070Y623874D01*
X1034055Y623887D01*
X1033959Y623926D01*
X1033865Y623969D01*
X1033845Y623971D01*
X1033827Y623979D01*
X1033660Y623997D01*
X1025976Y623997D01*
X1026171Y624977D01*
X1026818Y626539D01*
X1027757Y627944D01*
X1028952Y629139D01*
X1030357Y630078D01*
X1031919Y630725D01*
X1033214Y630983D01*
X1033232Y630965D01*
X1033317Y630926D01*
X1033400Y630879D01*
X1033429Y630874D01*
X1033455Y630862D01*
X1033549Y630851D01*
X1033641Y630834D01*
X1033678Y630837D01*
X1033699Y630835D01*
X1033731Y630842D01*
X1033809Y630848D01*
X1034484Y630983D01*
X1034502Y630965D01*
X1034588Y630926D01*
X1034670Y630879D01*
X1034698Y630874D01*
X1034725Y630862D01*
X1034819Y630851D01*
X1034911Y630834D01*
X1034948Y630837D01*
X1034969Y630835D01*
X1035001Y630842D01*
X1035079Y630848D01*
X1035333Y630899D01*
X1035397Y630923D01*
X1035464Y630937D01*
X1035511Y630966D01*
X1035563Y630985D01*
X1035579Y630999D01*
X1035609Y630998D01*
X1035673Y630985D01*
X1035756Y630992D01*
X1035789Y630991D01*
X1035808Y630997D01*
X1035812Y630997D01*
X1035834Y630987D01*
X1035892Y630949D01*
X1035965Y630926D01*
X1035995Y630912D01*
X1036016Y630910D01*
X1036051Y630899D01*
X1036305Y630848D01*
X1036400Y630845D01*
X1036493Y630835D01*
X1036522Y630841D01*
X1036551Y630840D01*
X1036641Y630867D01*
X1036734Y630887D01*
X1036759Y630902D01*
X1036787Y630910D01*
X1036864Y630965D01*
X1036895Y630983D01*
X1037575Y630848D01*
X1037670Y630845D01*
X1037763Y630835D01*
X1037792Y630841D01*
X1037821Y630840D01*
X1037912Y630867D01*
X1038004Y630887D01*
X1038029Y630902D01*
X1038057Y630910D01*
X1038134Y630965D01*
X1038165Y630983D01*
X1039465Y630725D01*
X1041027Y630078D01*
X1042432Y629139D01*
X1043627Y627944D01*
X1044566Y626539D01*
X1045213Y624977D01*
X1045408Y623997D01*
X1037724Y623997D01*
X1037704Y623994D01*
X1037685Y623996D01*
X1037583Y623974D01*
X1037481Y623957D01*
X1037464Y623948D01*
X1037444Y623944D01*
X1037355Y623891D01*
X1037264Y623842D01*
X1037250Y623828D01*
X1037233Y623818D01*
X1037166Y623739D01*
X1037095Y623664D01*
X1037086Y623646D01*
X1037073Y623631D01*
X1037035Y623535D01*
X1036991Y623441D01*
X1036989Y623421D01*
X1036981Y623403D01*
X1036963Y623236D01*
X1036963Y621712D01*
X1036966Y621692D01*
X1036964Y621673D01*
X1036986Y621571D01*
X1037003Y621469D01*
X1037012Y621452D01*
X1037016Y621432D01*
X1037069Y621343D01*
X1037118Y621252D01*
X1037132Y621238D01*
X1037142Y621221D01*
X1037221Y621154D01*
X1037296Y621083D01*
X1037314Y621074D01*
X1037329Y621061D01*
X1037425Y621022D01*
X1037519Y620979D01*
X1037539Y620977D01*
X1037557Y620969D01*
X1037724Y620951D01*
X1045408Y620951D01*
X1045213Y619971D01*
X1044566Y618409D01*
X1043627Y617004D01*
X1042432Y615809D01*
X1041027Y614870D01*
X1039465Y614223D01*
X1038170Y613965D01*
X1038152Y613983D01*
X1038067Y614022D01*
X1037984Y614069D01*
X1037955Y614074D01*
X1037929Y614086D01*
X1037835Y614097D01*
X1037743Y614114D01*
X1037706Y614111D01*
X1037684Y614113D01*
X1037653Y614106D01*
X1037575Y614100D01*
X1036900Y613965D01*
X1036882Y613983D01*
X1036796Y614022D01*
X1036714Y614069D01*
X1036685Y614074D01*
X1036659Y614086D01*
X1036565Y614097D01*
X1036473Y614114D01*
X1036436Y614111D01*
X1036414Y614113D01*
X1036383Y614106D01*
X1036305Y614100D01*
X1036051Y614049D01*
X1035987Y614025D01*
X1035920Y614011D01*
X1035873Y613982D01*
X1035821Y613963D01*
X1035805Y613949D01*
X1035775Y613950D01*
G37*
%LPD*%
%LPC*%
G36*
X860149Y943217D02*
X860149Y943217D01*
X858116Y944060D01*
X856560Y945616D01*
X855717Y947649D01*
X855717Y949851D01*
X856560Y951884D01*
X858116Y953440D01*
X860149Y954283D01*
X861870Y954283D01*
X861960Y954297D01*
X862051Y954305D01*
X862081Y954317D01*
X862113Y954322D01*
X862194Y954365D01*
X862277Y954401D01*
X862310Y954427D01*
X862330Y954438D01*
X862352Y954461D01*
X862408Y954506D01*
X865494Y957592D01*
X865547Y957665D01*
X865607Y957735D01*
X865619Y957765D01*
X865638Y957791D01*
X865665Y957878D01*
X865677Y957909D01*
X865689Y957935D01*
X865690Y957941D01*
X865699Y957963D01*
X865703Y958004D01*
X865710Y958026D01*
X865709Y958059D01*
X865717Y958130D01*
X865717Y959851D01*
X866560Y961884D01*
X868116Y963440D01*
X870149Y964283D01*
X872351Y964283D01*
X874384Y963440D01*
X875940Y961884D01*
X876783Y959851D01*
X876783Y957649D01*
X875940Y955616D01*
X874384Y954060D01*
X872351Y953217D01*
X870630Y953217D01*
X870540Y953203D01*
X870449Y953195D01*
X870419Y953183D01*
X870387Y953178D01*
X870306Y953135D01*
X870223Y953099D01*
X870190Y953073D01*
X870170Y953062D01*
X870148Y953039D01*
X870092Y952994D01*
X867006Y949908D01*
X866953Y949835D01*
X866893Y949765D01*
X866881Y949735D01*
X866862Y949709D01*
X866835Y949622D01*
X866801Y949537D01*
X866797Y949496D01*
X866790Y949474D01*
X866791Y949441D01*
X866783Y949370D01*
X866783Y947649D01*
X865940Y945616D01*
X864384Y944060D01*
X862351Y943217D01*
X860149Y943217D01*
G37*
%LPD*%
%LPC*%
G36*
X89023Y536523D02*
X89023Y536523D01*
X89023Y546916D01*
X97209Y546916D01*
X97856Y546743D01*
X98435Y546408D01*
X98908Y545935D01*
X99243Y545356D01*
X99416Y544709D01*
X99416Y536523D01*
X89023Y536523D01*
G37*
%LPD*%
%LPC*%
G36*
X1169023Y666523D02*
X1169023Y666523D01*
X1169023Y676916D01*
X1177209Y676916D01*
X1177856Y676743D01*
X1178435Y676408D01*
X1178908Y675935D01*
X1179243Y675356D01*
X1179416Y674709D01*
X1179416Y666523D01*
X1169023Y666523D01*
G37*
%LPD*%
%LPC*%
G36*
X309023Y666523D02*
X309023Y666523D01*
X309023Y676916D01*
X317209Y676916D01*
X317856Y676743D01*
X318435Y676408D01*
X318908Y675935D01*
X319243Y675356D01*
X319416Y674709D01*
X319416Y666523D01*
X309023Y666523D01*
G37*
%LPD*%
%LPC*%
G36*
X369023Y846523D02*
X369023Y846523D01*
X369023Y856916D01*
X377209Y856916D01*
X377856Y856743D01*
X378435Y856408D01*
X378908Y855935D01*
X379243Y855356D01*
X379416Y854709D01*
X379416Y846523D01*
X369023Y846523D01*
G37*
%LPD*%
%LPC*%
G36*
X1389023Y536523D02*
X1389023Y536523D01*
X1389023Y546916D01*
X1397209Y546916D01*
X1397856Y546743D01*
X1398435Y546408D01*
X1398908Y545935D01*
X1399243Y545356D01*
X1399416Y544709D01*
X1399416Y536523D01*
X1389023Y536523D01*
G37*
%LPD*%
%LPC*%
G36*
X1109023Y846523D02*
X1109023Y846523D01*
X1109023Y856916D01*
X1117209Y856916D01*
X1117856Y856743D01*
X1118435Y856408D01*
X1118908Y855935D01*
X1119243Y855356D01*
X1119416Y854709D01*
X1119416Y846523D01*
X1109023Y846523D01*
G37*
%LPD*%
%LPC*%
G36*
X369023Y833084D02*
X369023Y833084D01*
X369023Y843477D01*
X379416Y843477D01*
X379416Y835290D01*
X379243Y834644D01*
X378908Y834065D01*
X378435Y833592D01*
X377856Y833257D01*
X377209Y833084D01*
X369023Y833084D01*
G37*
%LPD*%
%LPC*%
G36*
X1109023Y833084D02*
X1109023Y833084D01*
X1109023Y843477D01*
X1119416Y843477D01*
X1119416Y835290D01*
X1119243Y834644D01*
X1118908Y834065D01*
X1118435Y833592D01*
X1117856Y833257D01*
X1117209Y833084D01*
X1109023Y833084D01*
G37*
%LPD*%
%LPC*%
G36*
X89023Y523084D02*
X89023Y523084D01*
X89023Y533477D01*
X99416Y533477D01*
X99416Y525291D01*
X99243Y524644D01*
X98908Y524065D01*
X98435Y523592D01*
X97856Y523257D01*
X97209Y523084D01*
X89023Y523084D01*
G37*
%LPD*%
%LPC*%
G36*
X1375584Y536523D02*
X1375584Y536523D01*
X1375584Y544709D01*
X1375757Y545356D01*
X1376092Y545935D01*
X1376565Y546408D01*
X1377144Y546743D01*
X1377791Y546916D01*
X1385977Y546916D01*
X1385977Y536523D01*
X1375584Y536523D01*
G37*
%LPD*%
%LPC*%
G36*
X1389023Y523084D02*
X1389023Y523084D01*
X1389023Y533477D01*
X1399416Y533477D01*
X1399416Y525291D01*
X1399243Y524644D01*
X1398908Y524065D01*
X1398435Y523592D01*
X1397856Y523257D01*
X1397209Y523084D01*
X1389023Y523084D01*
G37*
%LPD*%
%LPC*%
G36*
X355584Y846523D02*
X355584Y846523D01*
X355584Y854709D01*
X355757Y855356D01*
X356092Y855935D01*
X356565Y856408D01*
X357144Y856743D01*
X357791Y856916D01*
X365977Y856916D01*
X365977Y846523D01*
X355584Y846523D01*
G37*
%LPD*%
%LPC*%
G36*
X309023Y653084D02*
X309023Y653084D01*
X309023Y663477D01*
X319416Y663477D01*
X319416Y655291D01*
X319243Y654644D01*
X318908Y654065D01*
X318435Y653592D01*
X317856Y653257D01*
X317209Y653084D01*
X309023Y653084D01*
G37*
%LPD*%
%LPC*%
G36*
X1095584Y846523D02*
X1095584Y846523D01*
X1095584Y854709D01*
X1095757Y855356D01*
X1096092Y855935D01*
X1096565Y856408D01*
X1097144Y856743D01*
X1097791Y856916D01*
X1105977Y856916D01*
X1105977Y846523D01*
X1095584Y846523D01*
G37*
%LPD*%
%LPC*%
G36*
X1169023Y653084D02*
X1169023Y653084D01*
X1169023Y663477D01*
X1179416Y663477D01*
X1179416Y655291D01*
X1179243Y654644D01*
X1178908Y654065D01*
X1178435Y653592D01*
X1177856Y653257D01*
X1177209Y653084D01*
X1169023Y653084D01*
G37*
%LPD*%
%LPC*%
G36*
X295584Y666523D02*
X295584Y666523D01*
X295584Y674709D01*
X295757Y675356D01*
X296092Y675935D01*
X296565Y676408D01*
X297144Y676743D01*
X297791Y676916D01*
X305977Y676916D01*
X305977Y666523D01*
X295584Y666523D01*
G37*
%LPD*%
%LPC*%
G36*
X1155584Y666523D02*
X1155584Y666523D01*
X1155584Y674709D01*
X1155757Y675356D01*
X1156092Y675935D01*
X1156565Y676408D01*
X1157144Y676743D01*
X1157791Y676916D01*
X1165977Y676916D01*
X1165977Y666523D01*
X1155584Y666523D01*
G37*
%LPD*%
%LPC*%
G36*
X75584Y536523D02*
X75584Y536523D01*
X75584Y544709D01*
X75757Y545356D01*
X76092Y545935D01*
X76565Y546408D01*
X77144Y546743D01*
X77791Y546916D01*
X85977Y546916D01*
X85977Y536523D01*
X75584Y536523D01*
G37*
%LPD*%
%LPC*%
G36*
X1097791Y833084D02*
X1097791Y833084D01*
X1097144Y833257D01*
X1096565Y833592D01*
X1096092Y834065D01*
X1095757Y834644D01*
X1095584Y835290D01*
X1095584Y843477D01*
X1105977Y843477D01*
X1105977Y833084D01*
X1097791Y833084D01*
G37*
%LPD*%
%LPC*%
G36*
X357791Y833084D02*
X357791Y833084D01*
X357144Y833257D01*
X356565Y833592D01*
X356092Y834065D01*
X355757Y834644D01*
X355584Y835290D01*
X355584Y843477D01*
X365977Y843477D01*
X365977Y833084D01*
X357791Y833084D01*
G37*
%LPD*%
%LPC*%
G36*
X77791Y523084D02*
X77791Y523084D01*
X77144Y523257D01*
X76565Y523592D01*
X76092Y524065D01*
X75757Y524644D01*
X75584Y525291D01*
X75584Y533477D01*
X85977Y533477D01*
X85977Y523084D01*
X77791Y523084D01*
G37*
%LPD*%
%LPC*%
G36*
X1377791Y523084D02*
X1377791Y523084D01*
X1377144Y523257D01*
X1376565Y523592D01*
X1376092Y524065D01*
X1375757Y524644D01*
X1375584Y525291D01*
X1375584Y533477D01*
X1385977Y533477D01*
X1385977Y523084D01*
X1377791Y523084D01*
G37*
%LPD*%
%LPC*%
G36*
X1157791Y653084D02*
X1157791Y653084D01*
X1157144Y653257D01*
X1156565Y653592D01*
X1156092Y654065D01*
X1155757Y654644D01*
X1155584Y655291D01*
X1155584Y663477D01*
X1165977Y663477D01*
X1165977Y653084D01*
X1157791Y653084D01*
G37*
%LPD*%
%LPC*%
G36*
X297791Y653084D02*
X297791Y653084D01*
X297144Y653257D01*
X296565Y653592D01*
X296092Y654065D01*
X295757Y654644D01*
X295584Y655291D01*
X295584Y663477D01*
X305977Y663477D01*
X305977Y653084D01*
X297791Y653084D01*
G37*
%LPD*%
%LPC*%
G36*
X1514023Y536523D02*
X1514023Y536523D01*
X1514023Y546823D01*
X1515290Y546622D01*
X1517074Y546043D01*
X1518745Y545191D01*
X1520263Y544089D01*
X1521589Y542763D01*
X1522691Y541245D01*
X1523543Y539574D01*
X1524122Y537790D01*
X1524323Y536523D01*
X1514023Y536523D01*
G37*
%LPD*%
%LPC*%
G36*
X1234023Y846523D02*
X1234023Y846523D01*
X1234023Y856823D01*
X1235290Y856622D01*
X1237074Y856043D01*
X1238745Y855191D01*
X1240263Y854089D01*
X1241589Y852763D01*
X1242691Y851245D01*
X1243543Y849574D01*
X1244122Y847790D01*
X1244323Y846523D01*
X1234023Y846523D01*
G37*
%LPD*%
%LPC*%
G36*
X1294023Y666523D02*
X1294023Y666523D01*
X1294023Y676823D01*
X1295290Y676622D01*
X1297074Y676043D01*
X1298745Y675191D01*
X1300263Y674089D01*
X1301589Y672763D01*
X1302691Y671245D01*
X1303543Y669574D01*
X1304122Y667790D01*
X1304323Y666523D01*
X1294023Y666523D01*
G37*
%LPD*%
%LPC*%
G36*
X214023Y536523D02*
X214023Y536523D01*
X214023Y546823D01*
X215290Y546622D01*
X217074Y546043D01*
X218745Y545191D01*
X220263Y544089D01*
X221589Y542763D01*
X222691Y541245D01*
X223543Y539574D01*
X224122Y537790D01*
X224323Y536523D01*
X214023Y536523D01*
G37*
%LPD*%
%LPC*%
G36*
X434023Y666523D02*
X434023Y666523D01*
X434023Y676823D01*
X435290Y676622D01*
X437074Y676043D01*
X438745Y675191D01*
X440263Y674089D01*
X441589Y672763D01*
X442691Y671245D01*
X443543Y669574D01*
X444122Y667790D01*
X444323Y666523D01*
X434023Y666523D01*
G37*
%LPD*%
%LPC*%
G36*
X200677Y536523D02*
X200677Y536523D01*
X200878Y537790D01*
X201457Y539574D01*
X202309Y541245D01*
X203411Y542763D01*
X204737Y544089D01*
X206255Y545191D01*
X207926Y546043D01*
X209710Y546622D01*
X210977Y546823D01*
X210977Y536523D01*
X200677Y536523D01*
G37*
%LPD*%
%LPC*%
G36*
X1280677Y666523D02*
X1280677Y666523D01*
X1280878Y667790D01*
X1281457Y669574D01*
X1282309Y671245D01*
X1283411Y672763D01*
X1284737Y674089D01*
X1286255Y675191D01*
X1287926Y676043D01*
X1289710Y676622D01*
X1290977Y676823D01*
X1290977Y666523D01*
X1280677Y666523D01*
G37*
%LPD*%
%LPC*%
G36*
X434023Y663477D02*
X434023Y663477D01*
X444323Y663477D01*
X444122Y662210D01*
X443543Y660426D01*
X442691Y658755D01*
X441589Y657237D01*
X440263Y655911D01*
X438745Y654809D01*
X437074Y653957D01*
X435290Y653378D01*
X434023Y653177D01*
X434023Y663477D01*
G37*
%LPD*%
%LPC*%
G36*
X420677Y666523D02*
X420677Y666523D01*
X420878Y667790D01*
X421457Y669574D01*
X422309Y671245D01*
X423411Y672763D01*
X424737Y674089D01*
X426255Y675191D01*
X427926Y676043D01*
X429710Y676622D01*
X430977Y676823D01*
X430977Y666523D01*
X420677Y666523D01*
G37*
%LPD*%
%LPC*%
G36*
X1514023Y533477D02*
X1514023Y533477D01*
X1524323Y533477D01*
X1524122Y532210D01*
X1523543Y530426D01*
X1522691Y528755D01*
X1521589Y527237D01*
X1520263Y525911D01*
X1518745Y524809D01*
X1517074Y523957D01*
X1515290Y523378D01*
X1514023Y523177D01*
X1514023Y533477D01*
G37*
%LPD*%
%LPC*%
G36*
X1220677Y846523D02*
X1220677Y846523D01*
X1220878Y847790D01*
X1221457Y849574D01*
X1222309Y851245D01*
X1223411Y852763D01*
X1224737Y854089D01*
X1226255Y855191D01*
X1227926Y856043D01*
X1229710Y856622D01*
X1230977Y856823D01*
X1230977Y846523D01*
X1220677Y846523D01*
G37*
%LPD*%
%LPC*%
G36*
X1294023Y663477D02*
X1294023Y663477D01*
X1304323Y663477D01*
X1304122Y662210D01*
X1303543Y660426D01*
X1302691Y658755D01*
X1301589Y657237D01*
X1300263Y655911D01*
X1298745Y654809D01*
X1297074Y653957D01*
X1295290Y653378D01*
X1294023Y653177D01*
X1294023Y663477D01*
G37*
%LPD*%
%LPC*%
G36*
X214023Y533477D02*
X214023Y533477D01*
X224323Y533477D01*
X224122Y532210D01*
X223543Y530426D01*
X222691Y528755D01*
X221589Y527237D01*
X220263Y525911D01*
X218745Y524809D01*
X217074Y523957D01*
X215290Y523378D01*
X214023Y523177D01*
X214023Y533477D01*
G37*
%LPD*%
%LPC*%
G36*
X1234023Y843477D02*
X1234023Y843477D01*
X1244323Y843477D01*
X1244122Y842210D01*
X1243543Y840426D01*
X1242691Y838755D01*
X1241589Y837237D01*
X1240263Y835911D01*
X1238745Y834809D01*
X1237074Y833957D01*
X1235290Y833378D01*
X1234023Y833177D01*
X1234023Y843477D01*
G37*
%LPD*%
%LPC*%
G36*
X1500677Y536523D02*
X1500677Y536523D01*
X1500878Y537790D01*
X1501457Y539574D01*
X1502309Y541245D01*
X1503411Y542763D01*
X1504737Y544089D01*
X1506255Y545191D01*
X1507926Y546043D01*
X1509710Y546622D01*
X1510977Y546823D01*
X1510977Y536523D01*
X1500677Y536523D01*
G37*
%LPD*%
%LPC*%
G36*
X494023Y843477D02*
X494023Y843477D01*
X504323Y843477D01*
X504122Y842210D01*
X503543Y840426D01*
X502691Y838755D01*
X501589Y837237D01*
X500263Y835911D01*
X498745Y834809D01*
X497074Y833957D01*
X495290Y833378D01*
X494023Y833177D01*
X494023Y843477D01*
G37*
%LPD*%
%LPC*%
G36*
X480677Y846523D02*
X480677Y846523D01*
X480878Y847790D01*
X481457Y849574D01*
X482309Y851245D01*
X483411Y852763D01*
X484737Y854089D01*
X486255Y855191D01*
X487926Y856043D01*
X489710Y856622D01*
X490977Y856823D01*
X490977Y846523D01*
X480677Y846523D01*
G37*
%LPD*%
%LPC*%
G36*
X429710Y653378D02*
X429710Y653378D01*
X427926Y653957D01*
X426255Y654809D01*
X424737Y655911D01*
X423411Y657237D01*
X422309Y658755D01*
X421457Y660426D01*
X420878Y662210D01*
X420677Y663477D01*
X430977Y663477D01*
X430977Y653177D01*
X429710Y653378D01*
G37*
%LPD*%
%LPC*%
G36*
X1289710Y653378D02*
X1289710Y653378D01*
X1287926Y653957D01*
X1286255Y654809D01*
X1284737Y655911D01*
X1283411Y657237D01*
X1282309Y658755D01*
X1281457Y660426D01*
X1280878Y662210D01*
X1280677Y663477D01*
X1290977Y663477D01*
X1290977Y653177D01*
X1289710Y653378D01*
G37*
%LPD*%
%LPC*%
G36*
X1509710Y523378D02*
X1509710Y523378D01*
X1507926Y523957D01*
X1506255Y524809D01*
X1504737Y525911D01*
X1503411Y527237D01*
X1502309Y528755D01*
X1501457Y530426D01*
X1500878Y532210D01*
X1500677Y533477D01*
X1510977Y533477D01*
X1510977Y523177D01*
X1509710Y523378D01*
G37*
%LPD*%
%LPC*%
G36*
X209710Y523378D02*
X209710Y523378D01*
X207926Y523957D01*
X206255Y524809D01*
X204737Y525911D01*
X203411Y527237D01*
X202309Y528755D01*
X201457Y530426D01*
X200878Y532210D01*
X200677Y533477D01*
X210977Y533477D01*
X210977Y523177D01*
X209710Y523378D01*
G37*
%LPD*%
%LPC*%
G36*
X489710Y833378D02*
X489710Y833378D01*
X487926Y833957D01*
X486255Y834809D01*
X484737Y835911D01*
X483411Y837237D01*
X482309Y838755D01*
X481457Y840426D01*
X480878Y842210D01*
X480677Y843477D01*
X490977Y843477D01*
X490977Y833177D01*
X489710Y833378D01*
G37*
%LPD*%
%LPC*%
G36*
X1229710Y833378D02*
X1229710Y833378D01*
X1227926Y833957D01*
X1226255Y834809D01*
X1224737Y835911D01*
X1223411Y837237D01*
X1222309Y838755D01*
X1221457Y840426D01*
X1220878Y842210D01*
X1220677Y843477D01*
X1230977Y843477D01*
X1230977Y833177D01*
X1229710Y833378D01*
G37*
%LPD*%
%LPC*%
G36*
X177423Y743923D02*
X177423Y743923D01*
X177423Y753732D01*
X178577Y753549D01*
X180288Y752993D01*
X181891Y752176D01*
X183347Y751119D01*
X184619Y749847D01*
X185676Y748391D01*
X186493Y746788D01*
X187049Y745077D01*
X187232Y743923D01*
X177423Y743923D01*
G37*
%LPD*%
%LPC*%
G36*
X1476623Y743923D02*
X1476623Y743923D01*
X1476623Y753732D01*
X1477777Y753549D01*
X1479488Y752993D01*
X1481091Y752176D01*
X1482547Y751119D01*
X1483819Y749847D01*
X1484876Y748391D01*
X1485693Y746788D01*
X1486249Y745077D01*
X1486432Y743923D01*
X1476623Y743923D01*
G37*
%LPD*%
%LPC*%
G36*
X50423Y820123D02*
X50423Y820123D01*
X50423Y829932D01*
X51577Y829749D01*
X53288Y829193D01*
X54891Y828376D01*
X56347Y827319D01*
X57619Y826047D01*
X58676Y824591D01*
X59493Y822988D01*
X60049Y821277D01*
X60232Y820123D01*
X50423Y820123D01*
G37*
%LPD*%
%LPC*%
G36*
X1349623Y820123D02*
X1349623Y820123D01*
X1349623Y829932D01*
X1350777Y829749D01*
X1352488Y829193D01*
X1354091Y828376D01*
X1355547Y827319D01*
X1356819Y826047D01*
X1357876Y824591D01*
X1358693Y822988D01*
X1359249Y821277D01*
X1359432Y820123D01*
X1349623Y820123D01*
G37*
%LPD*%
%LPC*%
G36*
X1463768Y743923D02*
X1463768Y743923D01*
X1463951Y745077D01*
X1464507Y746788D01*
X1465324Y748391D01*
X1466381Y749847D01*
X1467653Y751119D01*
X1469109Y752176D01*
X1470712Y752993D01*
X1472423Y753549D01*
X1473577Y753732D01*
X1473577Y743923D01*
X1463768Y743923D01*
G37*
%LPD*%
%LPC*%
G36*
X37568Y820123D02*
X37568Y820123D01*
X37751Y821277D01*
X38307Y822988D01*
X39124Y824591D01*
X40181Y826047D01*
X41453Y827319D01*
X42909Y828376D01*
X44512Y829193D01*
X46223Y829749D01*
X47377Y829932D01*
X47377Y820123D01*
X37568Y820123D01*
G37*
%LPD*%
%LPC*%
G36*
X1349623Y817077D02*
X1349623Y817077D01*
X1359432Y817077D01*
X1359249Y815923D01*
X1358693Y814212D01*
X1357876Y812609D01*
X1356819Y811153D01*
X1355547Y809881D01*
X1354091Y808824D01*
X1352488Y808007D01*
X1350777Y807451D01*
X1349623Y807268D01*
X1349623Y817077D01*
G37*
%LPD*%
%LPC*%
G36*
X50423Y817077D02*
X50423Y817077D01*
X60232Y817077D01*
X60049Y815923D01*
X59493Y814212D01*
X58676Y812609D01*
X57619Y811153D01*
X56347Y809881D01*
X54891Y808824D01*
X53288Y808007D01*
X51577Y807451D01*
X50423Y807268D01*
X50423Y817077D01*
G37*
%LPD*%
%LPC*%
G36*
X1336768Y820123D02*
X1336768Y820123D01*
X1336951Y821277D01*
X1337507Y822988D01*
X1338324Y824591D01*
X1339381Y826047D01*
X1340653Y827319D01*
X1342109Y828376D01*
X1343712Y829193D01*
X1345423Y829749D01*
X1346577Y829932D01*
X1346577Y820123D01*
X1336768Y820123D01*
G37*
%LPD*%
%LPC*%
G36*
X164568Y743923D02*
X164568Y743923D01*
X164751Y745077D01*
X165307Y746788D01*
X166124Y748391D01*
X167181Y749847D01*
X168453Y751119D01*
X169909Y752176D01*
X171512Y752993D01*
X173223Y753549D01*
X174377Y753732D01*
X174377Y743923D01*
X164568Y743923D01*
G37*
%LPD*%
%LPC*%
G36*
X1476623Y740877D02*
X1476623Y740877D01*
X1486432Y740877D01*
X1486249Y739723D01*
X1485693Y738012D01*
X1484876Y736409D01*
X1483819Y734953D01*
X1482547Y733681D01*
X1481091Y732624D01*
X1479488Y731807D01*
X1477777Y731251D01*
X1476623Y731068D01*
X1476623Y740877D01*
G37*
%LPD*%
%LPC*%
G36*
X177423Y740877D02*
X177423Y740877D01*
X187232Y740877D01*
X187049Y739723D01*
X186493Y738012D01*
X185676Y736409D01*
X184619Y734953D01*
X183347Y733681D01*
X181891Y732624D01*
X180288Y731807D01*
X178577Y731251D01*
X177423Y731068D01*
X177423Y740877D01*
G37*
%LPD*%
%LPC*%
G36*
X1345423Y807451D02*
X1345423Y807451D01*
X1343712Y808007D01*
X1342109Y808824D01*
X1340653Y809881D01*
X1339381Y811153D01*
X1338324Y812609D01*
X1337507Y814212D01*
X1336951Y815923D01*
X1336768Y817077D01*
X1346577Y817077D01*
X1346577Y807268D01*
X1345423Y807451D01*
G37*
%LPD*%
%LPC*%
G36*
X46223Y807451D02*
X46223Y807451D01*
X44512Y808007D01*
X42909Y808824D01*
X41453Y809881D01*
X40181Y811153D01*
X39124Y812609D01*
X38307Y814212D01*
X37751Y815923D01*
X37568Y817077D01*
X47377Y817077D01*
X47377Y807268D01*
X46223Y807451D01*
G37*
%LPD*%
%LPC*%
G36*
X173223Y731251D02*
X173223Y731251D01*
X171512Y731807D01*
X169909Y732624D01*
X168453Y733681D01*
X167181Y734953D01*
X166124Y736409D01*
X165307Y738012D01*
X164751Y739723D01*
X164568Y740877D01*
X174377Y740877D01*
X174377Y731068D01*
X173223Y731251D01*
G37*
%LPD*%
%LPC*%
G36*
X1472423Y731251D02*
X1472423Y731251D01*
X1470712Y731807D01*
X1469109Y732624D01*
X1467653Y733681D01*
X1466381Y734953D01*
X1465324Y736409D01*
X1464507Y738012D01*
X1463951Y739723D01*
X1463768Y740877D01*
X1473577Y740877D01*
X1473577Y731068D01*
X1472423Y731251D01*
G37*
%LPD*%
G36*
X1046634Y595300D02*
X1046634Y595300D01*
X1046653Y595298D01*
X1046755Y595320D01*
X1046857Y595337D01*
X1046874Y595346D01*
X1046894Y595350D01*
X1046983Y595403D01*
X1047074Y595452D01*
X1047088Y595466D01*
X1047105Y595476D01*
X1047172Y595555D01*
X1047243Y595630D01*
X1047252Y595648D01*
X1047265Y595663D01*
X1047304Y595759D01*
X1047347Y595853D01*
X1047349Y595873D01*
X1047357Y595891D01*
X1047375Y596058D01*
X1047375Y597328D01*
X1047373Y597339D01*
X1047374Y597347D01*
X1047373Y597354D01*
X1047374Y597367D01*
X1047352Y597469D01*
X1047335Y597571D01*
X1047326Y597588D01*
X1047322Y597608D01*
X1047269Y597697D01*
X1047220Y597788D01*
X1047206Y597802D01*
X1047196Y597819D01*
X1047117Y597886D01*
X1047042Y597957D01*
X1047024Y597966D01*
X1047009Y597979D01*
X1046913Y598017D01*
X1046819Y598061D01*
X1046799Y598063D01*
X1046781Y598071D01*
X1046614Y598089D01*
X1045090Y598089D01*
X1045070Y598086D01*
X1045051Y598088D01*
X1044949Y598066D01*
X1044847Y598049D01*
X1044830Y598040D01*
X1044810Y598036D01*
X1044721Y597983D01*
X1044630Y597934D01*
X1044616Y597920D01*
X1044599Y597910D01*
X1044532Y597831D01*
X1044461Y597756D01*
X1044452Y597738D01*
X1044439Y597723D01*
X1044400Y597627D01*
X1044357Y597533D01*
X1044355Y597513D01*
X1044347Y597495D01*
X1044329Y597328D01*
X1044329Y596058D01*
X1044332Y596038D01*
X1044330Y596019D01*
X1044352Y595917D01*
X1044369Y595815D01*
X1044378Y595798D01*
X1044382Y595778D01*
X1044435Y595689D01*
X1044484Y595598D01*
X1044498Y595584D01*
X1044508Y595567D01*
X1044587Y595500D01*
X1044662Y595429D01*
X1044680Y595420D01*
X1044695Y595407D01*
X1044791Y595369D01*
X1044885Y595325D01*
X1044905Y595323D01*
X1044923Y595315D01*
X1045090Y595297D01*
X1046614Y595297D01*
X1046634Y595300D01*
G37*
G36*
X976530Y595554D02*
X976530Y595554D01*
X976549Y595552D01*
X976651Y595574D01*
X976753Y595591D01*
X976770Y595600D01*
X976790Y595604D01*
X976879Y595657D01*
X976970Y595706D01*
X976984Y595720D01*
X977001Y595730D01*
X977068Y595809D01*
X977139Y595884D01*
X977148Y595902D01*
X977161Y595917D01*
X977200Y596013D01*
X977243Y596107D01*
X977245Y596127D01*
X977253Y596145D01*
X977271Y596312D01*
X977271Y597328D01*
X977269Y597339D01*
X977270Y597347D01*
X977269Y597354D01*
X977270Y597367D01*
X977248Y597469D01*
X977231Y597571D01*
X977222Y597588D01*
X977218Y597608D01*
X977165Y597697D01*
X977116Y597788D01*
X977102Y597802D01*
X977092Y597819D01*
X977013Y597886D01*
X976938Y597957D01*
X976920Y597966D01*
X976905Y597979D01*
X976809Y598017D01*
X976715Y598061D01*
X976695Y598063D01*
X976677Y598071D01*
X976510Y598089D01*
X974986Y598089D01*
X974966Y598086D01*
X974947Y598088D01*
X974845Y598066D01*
X974743Y598049D01*
X974726Y598040D01*
X974706Y598036D01*
X974617Y597983D01*
X974526Y597934D01*
X974512Y597920D01*
X974495Y597910D01*
X974428Y597831D01*
X974357Y597756D01*
X974348Y597738D01*
X974335Y597723D01*
X974296Y597627D01*
X974253Y597533D01*
X974251Y597513D01*
X974243Y597495D01*
X974225Y597328D01*
X974225Y596312D01*
X974228Y596292D01*
X974226Y596273D01*
X974248Y596171D01*
X974265Y596069D01*
X974274Y596052D01*
X974278Y596032D01*
X974331Y595943D01*
X974380Y595852D01*
X974394Y595838D01*
X974404Y595821D01*
X974483Y595754D01*
X974558Y595683D01*
X974576Y595674D01*
X974591Y595661D01*
X974687Y595623D01*
X974781Y595579D01*
X974801Y595577D01*
X974819Y595569D01*
X974986Y595551D01*
X976510Y595551D01*
X976530Y595554D01*
G37*
G36*
X976530Y593014D02*
X976530Y593014D01*
X976549Y593012D01*
X976651Y593034D01*
X976753Y593051D01*
X976770Y593060D01*
X976790Y593064D01*
X976879Y593117D01*
X976970Y593166D01*
X976984Y593180D01*
X977001Y593190D01*
X977068Y593269D01*
X977139Y593344D01*
X977148Y593362D01*
X977161Y593377D01*
X977200Y593473D01*
X977243Y593567D01*
X977245Y593587D01*
X977253Y593605D01*
X977271Y593772D01*
X977271Y594788D01*
X977268Y594808D01*
X977270Y594827D01*
X977248Y594929D01*
X977231Y595031D01*
X977222Y595048D01*
X977218Y595068D01*
X977165Y595157D01*
X977116Y595248D01*
X977102Y595262D01*
X977092Y595279D01*
X977013Y595346D01*
X976938Y595417D01*
X976920Y595426D01*
X976905Y595439D01*
X976809Y595477D01*
X976715Y595521D01*
X976695Y595523D01*
X976677Y595531D01*
X976510Y595549D01*
X974986Y595549D01*
X974966Y595546D01*
X974947Y595548D01*
X974845Y595526D01*
X974743Y595509D01*
X974726Y595500D01*
X974706Y595496D01*
X974617Y595443D01*
X974526Y595394D01*
X974512Y595380D01*
X974495Y595370D01*
X974428Y595291D01*
X974357Y595216D01*
X974348Y595198D01*
X974335Y595183D01*
X974296Y595087D01*
X974253Y594993D01*
X974251Y594973D01*
X974243Y594955D01*
X974225Y594788D01*
X974225Y593772D01*
X974228Y593752D01*
X974226Y593733D01*
X974248Y593631D01*
X974265Y593529D01*
X974274Y593512D01*
X974278Y593492D01*
X974331Y593403D01*
X974380Y593312D01*
X974394Y593298D01*
X974404Y593281D01*
X974483Y593214D01*
X974558Y593143D01*
X974576Y593134D01*
X974591Y593121D01*
X974687Y593083D01*
X974781Y593039D01*
X974801Y593037D01*
X974819Y593029D01*
X974986Y593011D01*
X976510Y593011D01*
X976530Y593014D01*
G37*
G36*
X1046634Y593014D02*
X1046634Y593014D01*
X1046653Y593012D01*
X1046755Y593034D01*
X1046857Y593051D01*
X1046874Y593060D01*
X1046894Y593064D01*
X1046983Y593117D01*
X1047074Y593166D01*
X1047088Y593180D01*
X1047105Y593190D01*
X1047172Y593269D01*
X1047243Y593344D01*
X1047252Y593362D01*
X1047265Y593377D01*
X1047304Y593473D01*
X1047347Y593567D01*
X1047349Y593587D01*
X1047357Y593605D01*
X1047375Y593772D01*
X1047375Y594534D01*
X1047372Y594554D01*
X1047374Y594573D01*
X1047352Y594675D01*
X1047335Y594777D01*
X1047326Y594794D01*
X1047322Y594814D01*
X1047269Y594903D01*
X1047220Y594994D01*
X1047206Y595008D01*
X1047196Y595025D01*
X1047117Y595092D01*
X1047042Y595163D01*
X1047024Y595172D01*
X1047009Y595185D01*
X1046913Y595223D01*
X1046819Y595267D01*
X1046799Y595269D01*
X1046781Y595277D01*
X1046614Y595295D01*
X1045090Y595295D01*
X1045070Y595292D01*
X1045051Y595294D01*
X1044949Y595272D01*
X1044847Y595255D01*
X1044830Y595246D01*
X1044810Y595242D01*
X1044721Y595189D01*
X1044630Y595140D01*
X1044616Y595126D01*
X1044599Y595116D01*
X1044532Y595037D01*
X1044461Y594962D01*
X1044452Y594944D01*
X1044439Y594929D01*
X1044400Y594833D01*
X1044357Y594739D01*
X1044355Y594719D01*
X1044347Y594701D01*
X1044329Y594534D01*
X1044329Y593772D01*
X1044332Y593752D01*
X1044330Y593733D01*
X1044352Y593631D01*
X1044369Y593529D01*
X1044378Y593512D01*
X1044382Y593492D01*
X1044435Y593403D01*
X1044484Y593312D01*
X1044498Y593298D01*
X1044508Y593281D01*
X1044587Y593214D01*
X1044662Y593143D01*
X1044680Y593134D01*
X1044695Y593121D01*
X1044791Y593083D01*
X1044885Y593039D01*
X1044905Y593037D01*
X1044923Y593029D01*
X1045090Y593011D01*
X1046614Y593011D01*
X1046634Y593014D01*
G37*
G36*
X976530Y590926D02*
X976530Y590926D01*
X976549Y590924D01*
X976651Y590946D01*
X976753Y590962D01*
X976770Y590972D01*
X976790Y590976D01*
X976879Y591029D01*
X976970Y591078D01*
X976984Y591092D01*
X977001Y591102D01*
X977068Y591181D01*
X977139Y591256D01*
X977148Y591274D01*
X977161Y591289D01*
X977200Y591385D01*
X977243Y591479D01*
X977245Y591499D01*
X977253Y591517D01*
X977271Y591684D01*
X977271Y592248D01*
X977268Y592268D01*
X977270Y592287D01*
X977248Y592389D01*
X977231Y592491D01*
X977222Y592508D01*
X977218Y592528D01*
X977165Y592617D01*
X977116Y592708D01*
X977102Y592722D01*
X977092Y592739D01*
X977013Y592806D01*
X976938Y592877D01*
X976920Y592886D01*
X976905Y592899D01*
X976809Y592937D01*
X976715Y592981D01*
X976695Y592983D01*
X976677Y592991D01*
X976510Y593009D01*
X974986Y593009D01*
X974966Y593006D01*
X974947Y593008D01*
X974845Y592986D01*
X974743Y592969D01*
X974726Y592960D01*
X974706Y592956D01*
X974617Y592903D01*
X974526Y592854D01*
X974512Y592840D01*
X974495Y592830D01*
X974428Y592751D01*
X974357Y592676D01*
X974348Y592658D01*
X974335Y592643D01*
X974296Y592547D01*
X974253Y592453D01*
X974251Y592433D01*
X974243Y592415D01*
X974225Y592248D01*
X974225Y591684D01*
X974228Y591664D01*
X974226Y591645D01*
X974248Y591543D01*
X974265Y591441D01*
X974274Y591424D01*
X974278Y591404D01*
X974331Y591315D01*
X974380Y591224D01*
X974394Y591210D01*
X974404Y591193D01*
X974483Y591126D01*
X974558Y591054D01*
X974576Y591046D01*
X974591Y591033D01*
X974687Y590994D01*
X974781Y590951D01*
X974801Y590949D01*
X974819Y590941D01*
X974986Y590923D01*
X976510Y590923D01*
X976530Y590926D01*
G37*
G36*
X1046634Y590926D02*
X1046634Y590926D01*
X1046653Y590924D01*
X1046755Y590946D01*
X1046857Y590962D01*
X1046874Y590972D01*
X1046894Y590976D01*
X1046983Y591029D01*
X1047074Y591078D01*
X1047088Y591092D01*
X1047105Y591102D01*
X1047172Y591181D01*
X1047243Y591256D01*
X1047252Y591274D01*
X1047265Y591289D01*
X1047304Y591385D01*
X1047347Y591479D01*
X1047349Y591499D01*
X1047357Y591517D01*
X1047375Y591684D01*
X1047375Y592248D01*
X1047372Y592268D01*
X1047374Y592287D01*
X1047352Y592389D01*
X1047335Y592491D01*
X1047326Y592508D01*
X1047322Y592528D01*
X1047269Y592617D01*
X1047220Y592708D01*
X1047206Y592722D01*
X1047196Y592739D01*
X1047117Y592806D01*
X1047042Y592877D01*
X1047024Y592886D01*
X1047009Y592899D01*
X1046913Y592937D01*
X1046819Y592981D01*
X1046799Y592983D01*
X1046781Y592991D01*
X1046614Y593009D01*
X1045090Y593009D01*
X1045070Y593006D01*
X1045051Y593008D01*
X1044949Y592986D01*
X1044847Y592969D01*
X1044830Y592960D01*
X1044810Y592956D01*
X1044721Y592903D01*
X1044630Y592854D01*
X1044616Y592840D01*
X1044599Y592830D01*
X1044532Y592751D01*
X1044461Y592676D01*
X1044452Y592658D01*
X1044439Y592643D01*
X1044400Y592547D01*
X1044357Y592453D01*
X1044355Y592433D01*
X1044347Y592415D01*
X1044329Y592248D01*
X1044329Y591684D01*
X1044332Y591664D01*
X1044330Y591645D01*
X1044352Y591543D01*
X1044369Y591441D01*
X1044378Y591424D01*
X1044382Y591404D01*
X1044435Y591315D01*
X1044484Y591224D01*
X1044498Y591210D01*
X1044508Y591193D01*
X1044587Y591126D01*
X1044662Y591054D01*
X1044680Y591046D01*
X1044695Y591033D01*
X1044791Y590994D01*
X1044885Y590951D01*
X1044905Y590949D01*
X1044923Y590941D01*
X1045090Y590923D01*
X1046614Y590923D01*
X1046634Y590926D01*
G37*
%LPC*%
G36*
X212499Y534999D02*
X212499Y534999D01*
X212499Y535001D01*
X212501Y535001D01*
X212501Y534999D01*
X212499Y534999D01*
G37*
%LPD*%
%LPC*%
G36*
X87499Y534999D02*
X87499Y534999D01*
X87499Y535001D01*
X87501Y535001D01*
X87501Y534999D01*
X87499Y534999D01*
G37*
%LPD*%
%LPC*%
G36*
X1512499Y534999D02*
X1512499Y534999D01*
X1512499Y535001D01*
X1512501Y535001D01*
X1512501Y534999D01*
X1512499Y534999D01*
G37*
%LPD*%
%LPC*%
G36*
X492499Y844999D02*
X492499Y844999D01*
X492499Y845001D01*
X492501Y845001D01*
X492501Y844999D01*
X492499Y844999D01*
G37*
%LPD*%
%LPC*%
G36*
X367499Y844999D02*
X367499Y844999D01*
X367499Y845001D01*
X367501Y845001D01*
X367501Y844999D01*
X367499Y844999D01*
G37*
%LPD*%
%LPC*%
G36*
X1107499Y844999D02*
X1107499Y844999D01*
X1107499Y845001D01*
X1107501Y845001D01*
X1107501Y844999D01*
X1107499Y844999D01*
G37*
%LPD*%
%LPC*%
G36*
X175899Y742399D02*
X175899Y742399D01*
X175899Y742401D01*
X175901Y742401D01*
X175901Y742399D01*
X175899Y742399D01*
G37*
%LPD*%
%LPC*%
G36*
X1232499Y844999D02*
X1232499Y844999D01*
X1232499Y845001D01*
X1232501Y845001D01*
X1232501Y844999D01*
X1232499Y844999D01*
G37*
%LPD*%
%LPC*%
G36*
X1292499Y664999D02*
X1292499Y664999D01*
X1292499Y665001D01*
X1292501Y665001D01*
X1292501Y664999D01*
X1292499Y664999D01*
G37*
%LPD*%
%LPC*%
G36*
X1167499Y664999D02*
X1167499Y664999D01*
X1167499Y665001D01*
X1167501Y665001D01*
X1167501Y664999D01*
X1167499Y664999D01*
G37*
%LPD*%
%LPC*%
G36*
X432499Y664999D02*
X432499Y664999D01*
X432499Y665001D01*
X432501Y665001D01*
X432501Y664999D01*
X432499Y664999D01*
G37*
%LPD*%
%LPC*%
G36*
X307499Y664999D02*
X307499Y664999D01*
X307499Y665001D01*
X307501Y665001D01*
X307501Y664999D01*
X307499Y664999D01*
G37*
%LPD*%
%LPC*%
G36*
X48899Y818599D02*
X48899Y818599D01*
X48899Y818601D01*
X48901Y818601D01*
X48901Y818599D01*
X48899Y818599D01*
G37*
%LPD*%
%LPC*%
G36*
X1348099Y818599D02*
X1348099Y818599D01*
X1348099Y818601D01*
X1348101Y818601D01*
X1348101Y818599D01*
X1348099Y818599D01*
G37*
%LPD*%
%LPC*%
G36*
X1475099Y742399D02*
X1475099Y742399D01*
X1475099Y742401D01*
X1475101Y742401D01*
X1475101Y742399D01*
X1475099Y742399D01*
G37*
%LPD*%
%LPC*%
G36*
X1387499Y534999D02*
X1387499Y534999D01*
X1387499Y535001D01*
X1387501Y535001D01*
X1387501Y534999D01*
X1387499Y534999D01*
G37*
%LPD*%
D10*
X1036962Y622474D03*
X1034422Y622474D03*
X1035692Y622474D03*
X987178Y622474D03*
X984638Y622474D03*
X986162Y622474D03*
D11*
X1045852Y598090D03*
X975748Y598090D03*
X1045852Y593010D03*
X1045852Y595296D03*
X975748Y593010D03*
X975748Y595550D03*
D12*
X1373500Y910675D03*
X1525900Y910675D03*
X1525900Y777325D03*
X1373500Y777325D03*
D13*
X1475100Y742400D03*
X1449700Y742400D03*
X1424300Y742400D03*
X1348100Y844000D03*
X1348100Y818600D03*
X1348100Y869400D03*
D14*
X1472560Y920200D02*
X1490340Y920200D01*
X1426840Y920200D02*
X1409060Y920200D01*
X1409060Y965200D02*
X1426840Y965200D01*
X1472560Y965200D02*
X1490340Y965200D01*
D12*
X74300Y910675D03*
X226700Y910675D03*
X226700Y777325D03*
X74300Y777325D03*
D13*
X175900Y742400D03*
X150500Y742400D03*
X125100Y742400D03*
X48900Y844000D03*
X48900Y818600D03*
X48900Y869400D03*
D14*
X173360Y920200D02*
X191140Y920200D01*
X127640Y920200D02*
X109860Y920200D01*
X109860Y965200D02*
X127640Y965200D01*
X173360Y965200D02*
X191140Y965200D01*
D15*
X568600Y904000D03*
D13*
X568600Y929400D03*
X594000Y904000D03*
X594000Y929400D03*
X619400Y904000D03*
X619400Y929400D03*
X644800Y904000D03*
X644800Y929400D03*
X670200Y904000D03*
X670200Y929400D03*
X695600Y904000D03*
X695600Y929400D03*
X721000Y904000D03*
X721000Y929400D03*
X746400Y904000D03*
X746400Y929400D03*
X771800Y904000D03*
X771800Y929400D03*
X797200Y904000D03*
X797200Y929400D03*
X822600Y904000D03*
X822600Y929400D03*
X848000Y904000D03*
X848000Y929400D03*
X873400Y904000D03*
X873400Y929400D03*
X898800Y904000D03*
X898800Y929400D03*
X924200Y904000D03*
X924200Y929400D03*
X949600Y904000D03*
X949600Y929400D03*
X975000Y904000D03*
X975000Y929400D03*
X1000400Y904000D03*
X1000400Y929400D03*
X1025800Y904000D03*
X1025800Y929400D03*
X1051200Y904000D03*
X1051200Y929400D03*
D16*
X87500Y535000D03*
D17*
X87500Y485000D03*
X212500Y535000D03*
X212500Y485000D03*
D16*
X1107500Y845000D03*
D17*
X1107500Y795000D03*
X1232500Y845000D03*
X1232500Y795000D03*
D16*
X1167500Y665000D03*
D17*
X1167500Y615000D03*
X1292500Y665000D03*
X1292500Y615000D03*
D16*
X1387500Y535000D03*
D17*
X1387500Y485000D03*
X1512500Y535000D03*
X1512500Y485000D03*
D16*
X307500Y665000D03*
D17*
X307500Y615000D03*
X432500Y665000D03*
X432500Y615000D03*
D16*
X367500Y845000D03*
D17*
X367500Y795000D03*
X492500Y845000D03*
X492500Y795000D03*
D18*
X807500Y600800D03*
X787500Y600800D03*
D19*
X542500Y846250D02*
X518750Y870000D01*
X888750Y876250D02*
X888750Y818750D01*
D20*
X542500Y846250D03*
X518750Y870000D03*
X888750Y876250D03*
X888750Y818750D03*
D19*
X817500Y843750D02*
X782500Y878750D01*
X581250Y961250D02*
X567500Y975000D01*
D20*
X817500Y843750D03*
X782500Y878750D03*
X581250Y961250D03*
X567500Y975000D03*
D19*
X775000Y871250D02*
X818750Y827500D01*
X498750Y860000D02*
X488750Y870000D01*
D20*
X818750Y827500D03*
X775000Y871250D03*
X498750Y860000D03*
X488750Y870000D03*
D19*
X865000Y871250D02*
X865000Y820000D01*
X1061250Y891250D02*
X1080000Y872500D01*
D20*
X865000Y820000D03*
X865000Y871250D03*
X1061250Y891250D03*
X1080000Y872500D03*
D19*
X878750Y876250D02*
X878750Y820000D01*
X861250Y948750D02*
X871250Y958750D01*
D20*
X878750Y820000D03*
X878750Y876250D03*
X861250Y948750D03*
X871250Y958750D03*
D19*
X960000Y871250D02*
X960000Y843750D01*
X948750Y832500D01*
X968750Y777500D02*
X935000Y743750D01*
X845000Y687500D02*
X800000Y642500D01*
D20*
X960000Y843750D03*
X960000Y871250D03*
X948750Y832500D03*
X968750Y777500D03*
X935000Y743750D03*
X845000Y687500D03*
X800000Y642500D03*
D19*
X950000Y843750D02*
X950000Y871250D01*
X923750Y905000D02*
X910000Y918750D01*
X911250Y955000D02*
X888750Y977500D01*
X923750Y905000D02*
X924200Y904000D01*
D20*
X950000Y843750D03*
X950000Y871250D03*
X910000Y918750D03*
X911250Y955000D03*
X888750Y977500D03*
D19*
X995000Y868750D02*
X970000Y843750D01*
X975000Y905000D02*
X988750Y918750D01*
X987500Y955000D02*
X972500Y970000D01*
X975000Y905000D02*
X975000Y904000D01*
D20*
X970000Y843750D03*
X995000Y868750D03*
X988750Y918750D03*
X987500Y955000D03*
X972500Y970000D03*
D21*
X763750Y795000D02*
X743750Y815000D01*
X576250Y826250D02*
X556250Y806250D01*
D20*
X743750Y815000D03*
X763750Y795000D03*
X556250Y806250D03*
X576250Y826250D03*
D19*
X1042500Y666250D02*
X1061250Y685000D01*
X845000Y652500D02*
X842500Y650000D01*
X817500Y650000D01*
X612500Y743750D02*
X593750Y762500D01*
D20*
X1061250Y685000D03*
X1042500Y666250D03*
X845000Y652500D03*
X817500Y650000D03*
X612500Y743750D03*
X593750Y762500D03*
D19*
X957500Y751250D02*
X976250Y770000D01*
X845000Y738750D02*
X843750Y737500D01*
X817500Y737500D01*
X620000Y750000D02*
X581250Y788750D01*
X580000Y788750D01*
D20*
X976250Y770000D03*
X957500Y751250D03*
X845000Y738750D03*
X817500Y737500D03*
X620000Y750000D03*
X580000Y788750D03*
D19*
X580000Y851250D02*
X502500Y773750D01*
D20*
X502500Y773750D03*
X580000Y851250D03*
D19*
X820000Y608750D02*
X845000Y633750D01*
D20*
X845000Y633750D03*
X820000Y608750D03*
D19*
X883750Y770000D02*
X883750Y783750D01*
X843750Y823750D01*
X843750Y873750D01*
X851250Y881250D01*
D20*
X883750Y770000D03*
X851250Y881250D03*
D19*
X772500Y833750D02*
X847500Y758750D01*
D20*
X847500Y758750D03*
X772500Y833750D03*
D19*
X893750Y781250D02*
X893750Y770000D01*
X893750Y781250D02*
X851250Y823750D01*
X851250Y871250D01*
D20*
X893750Y770000D03*
X851250Y871250D03*
D19*
X762500Y831250D02*
X845000Y748750D01*
D20*
X845000Y748750D03*
X762500Y831250D03*
D19*
X1045000Y802500D02*
X1045000Y797500D01*
X1037500Y790000D01*
D20*
X1045000Y802500D03*
X1037500Y790000D03*
M02*
