G04 EAGLE Gerber RS-274X export*
G75*
%MOMM*%
%FSLAX34Y34*%
%LPD*%
%IN*%
%IPPOS*%
%AMOC8*
5,1,8,0,0,1.08239X$1,22.5*%
G01*
%ADD10C,0.254000*%


D10*
X-15000Y515000D02*
X75000Y425000D01*
X315000Y425000D01*
X470000Y580000D01*
X1130000Y580000D01*
X1285000Y425000D01*
X1525000Y425000D01*
X1615000Y515000D01*
X1615000Y935000D01*
X1535000Y1015000D01*
X65000Y1015000D01*
X-15000Y935000D01*
X-15000Y515000D01*
X1300000Y514464D02*
X1300000Y515536D01*
X1299924Y516604D01*
X1299771Y517665D01*
X1299543Y518712D01*
X1299241Y519740D01*
X1298867Y520744D01*
X1298422Y521719D01*
X1297908Y522659D01*
X1297329Y523560D01*
X1296687Y524418D01*
X1295985Y525228D01*
X1295228Y525985D01*
X1294418Y526687D01*
X1293560Y527329D01*
X1292659Y527908D01*
X1291719Y528422D01*
X1290744Y528867D01*
X1289740Y529241D01*
X1288712Y529543D01*
X1287665Y529771D01*
X1286604Y529924D01*
X1285536Y530000D01*
X1284464Y530000D01*
X1283396Y529924D01*
X1282335Y529771D01*
X1281288Y529543D01*
X1280260Y529241D01*
X1279256Y528867D01*
X1278281Y528422D01*
X1277341Y527908D01*
X1276440Y527329D01*
X1275582Y526687D01*
X1274772Y525985D01*
X1274015Y525228D01*
X1273313Y524418D01*
X1272671Y523560D01*
X1272092Y522659D01*
X1271578Y521719D01*
X1271133Y520744D01*
X1270759Y519740D01*
X1270457Y518712D01*
X1270229Y517665D01*
X1270076Y516604D01*
X1270000Y515536D01*
X1270000Y514464D01*
X1270076Y513396D01*
X1270229Y512335D01*
X1270457Y511288D01*
X1270759Y510260D01*
X1271133Y509256D01*
X1271578Y508281D01*
X1272092Y507341D01*
X1272671Y506440D01*
X1273313Y505582D01*
X1274015Y504772D01*
X1274772Y504015D01*
X1275582Y503313D01*
X1276440Y502671D01*
X1277341Y502092D01*
X1278281Y501578D01*
X1279256Y501133D01*
X1280260Y500759D01*
X1281288Y500457D01*
X1282335Y500229D01*
X1283396Y500076D01*
X1284464Y500000D01*
X1285536Y500000D01*
X1286604Y500076D01*
X1287665Y500229D01*
X1288712Y500457D01*
X1289740Y500759D01*
X1290744Y501133D01*
X1291719Y501578D01*
X1292659Y502092D01*
X1293560Y502671D01*
X1294418Y503313D01*
X1295228Y504015D01*
X1295985Y504772D01*
X1296687Y505582D01*
X1297329Y506440D01*
X1297908Y507341D01*
X1298422Y508281D01*
X1298867Y509256D01*
X1299241Y510260D01*
X1299543Y511288D01*
X1299771Y512335D01*
X1299924Y513396D01*
X1300000Y514464D01*
X330000Y514464D02*
X330000Y515536D01*
X329924Y516604D01*
X329771Y517665D01*
X329543Y518712D01*
X329241Y519740D01*
X328867Y520744D01*
X328422Y521719D01*
X327908Y522659D01*
X327329Y523560D01*
X326687Y524418D01*
X325985Y525228D01*
X325228Y525985D01*
X324418Y526687D01*
X323560Y527329D01*
X322659Y527908D01*
X321719Y528422D01*
X320744Y528867D01*
X319740Y529241D01*
X318712Y529543D01*
X317665Y529771D01*
X316604Y529924D01*
X315536Y530000D01*
X314464Y530000D01*
X313396Y529924D01*
X312335Y529771D01*
X311288Y529543D01*
X310260Y529241D01*
X309256Y528867D01*
X308281Y528422D01*
X307341Y527908D01*
X306440Y527329D01*
X305582Y526687D01*
X304772Y525985D01*
X304015Y525228D01*
X303313Y524418D01*
X302671Y523560D01*
X302092Y522659D01*
X301578Y521719D01*
X301133Y520744D01*
X300759Y519740D01*
X300457Y518712D01*
X300229Y517665D01*
X300076Y516604D01*
X300000Y515536D01*
X300000Y514464D01*
X300076Y513396D01*
X300229Y512335D01*
X300457Y511288D01*
X300759Y510260D01*
X301133Y509256D01*
X301578Y508281D01*
X302092Y507341D01*
X302671Y506440D01*
X303313Y505582D01*
X304015Y504772D01*
X304772Y504015D01*
X305582Y503313D01*
X306440Y502671D01*
X307341Y502092D01*
X308281Y501578D01*
X309256Y501133D01*
X310260Y500759D01*
X311288Y500457D01*
X312335Y500229D01*
X313396Y500076D01*
X314464Y500000D01*
X315536Y500000D01*
X316604Y500076D01*
X317665Y500229D01*
X318712Y500457D01*
X319740Y500759D01*
X320744Y501133D01*
X321719Y501578D01*
X322659Y502092D01*
X323560Y502671D01*
X324418Y503313D01*
X325228Y504015D01*
X325985Y504772D01*
X326687Y505582D01*
X327329Y506440D01*
X327908Y507341D01*
X328422Y508281D01*
X328867Y509256D01*
X329241Y510260D01*
X329543Y511288D01*
X329771Y512335D01*
X329924Y513396D01*
X330000Y514464D01*
X165000Y639464D02*
X165000Y640536D01*
X164924Y641604D01*
X164771Y642665D01*
X164543Y643712D01*
X164241Y644740D01*
X163867Y645744D01*
X163422Y646719D01*
X162908Y647659D01*
X162329Y648560D01*
X161687Y649418D01*
X160985Y650228D01*
X160228Y650985D01*
X159418Y651687D01*
X158560Y652329D01*
X157659Y652908D01*
X156719Y653422D01*
X155744Y653867D01*
X154740Y654241D01*
X153712Y654543D01*
X152665Y654771D01*
X151604Y654924D01*
X150536Y655000D01*
X149464Y655000D01*
X148396Y654924D01*
X147335Y654771D01*
X146288Y654543D01*
X145260Y654241D01*
X144256Y653867D01*
X143281Y653422D01*
X142341Y652908D01*
X141440Y652329D01*
X140582Y651687D01*
X139772Y650985D01*
X139015Y650228D01*
X138313Y649418D01*
X137671Y648560D01*
X137092Y647659D01*
X136578Y646719D01*
X136133Y645744D01*
X135759Y644740D01*
X135457Y643712D01*
X135229Y642665D01*
X135076Y641604D01*
X135000Y640536D01*
X135000Y639464D01*
X135076Y638396D01*
X135229Y637335D01*
X135457Y636288D01*
X135759Y635260D01*
X136133Y634256D01*
X136578Y633281D01*
X137092Y632341D01*
X137671Y631440D01*
X138313Y630582D01*
X139015Y629772D01*
X139772Y629015D01*
X140582Y628313D01*
X141440Y627671D01*
X142341Y627092D01*
X143281Y626578D01*
X144256Y626133D01*
X145260Y625759D01*
X146288Y625457D01*
X147335Y625229D01*
X148396Y625076D01*
X149464Y625000D01*
X150536Y625000D01*
X151604Y625076D01*
X152665Y625229D01*
X153712Y625457D01*
X154740Y625759D01*
X155744Y626133D01*
X156719Y626578D01*
X157659Y627092D01*
X158560Y627671D01*
X159418Y628313D01*
X160228Y629015D01*
X160985Y629772D01*
X161687Y630582D01*
X162329Y631440D01*
X162908Y632341D01*
X163422Y633281D01*
X163867Y634256D01*
X164241Y635260D01*
X164543Y636288D01*
X164771Y637335D01*
X164924Y638396D01*
X165000Y639464D01*
X1465000Y639464D02*
X1465000Y640536D01*
X1464924Y641604D01*
X1464771Y642665D01*
X1464543Y643712D01*
X1464241Y644740D01*
X1463867Y645744D01*
X1463422Y646719D01*
X1462908Y647659D01*
X1462329Y648560D01*
X1461687Y649418D01*
X1460985Y650228D01*
X1460228Y650985D01*
X1459418Y651687D01*
X1458560Y652329D01*
X1457659Y652908D01*
X1456719Y653422D01*
X1455744Y653867D01*
X1454740Y654241D01*
X1453712Y654543D01*
X1452665Y654771D01*
X1451604Y654924D01*
X1450536Y655000D01*
X1449464Y655000D01*
X1448396Y654924D01*
X1447335Y654771D01*
X1446288Y654543D01*
X1445260Y654241D01*
X1444256Y653867D01*
X1443281Y653422D01*
X1442341Y652908D01*
X1441440Y652329D01*
X1440582Y651687D01*
X1439772Y650985D01*
X1439015Y650228D01*
X1438313Y649418D01*
X1437671Y648560D01*
X1437092Y647659D01*
X1436578Y646719D01*
X1436133Y645744D01*
X1435759Y644740D01*
X1435457Y643712D01*
X1435229Y642665D01*
X1435076Y641604D01*
X1435000Y640536D01*
X1435000Y639464D01*
X1435076Y638396D01*
X1435229Y637335D01*
X1435457Y636288D01*
X1435759Y635260D01*
X1436133Y634256D01*
X1436578Y633281D01*
X1437092Y632341D01*
X1437671Y631440D01*
X1438313Y630582D01*
X1439015Y629772D01*
X1439772Y629015D01*
X1440582Y628313D01*
X1441440Y627671D01*
X1442341Y627092D01*
X1443281Y626578D01*
X1444256Y626133D01*
X1445260Y625759D01*
X1446288Y625457D01*
X1447335Y625229D01*
X1448396Y625076D01*
X1449464Y625000D01*
X1450536Y625000D01*
X1451604Y625076D01*
X1452665Y625229D01*
X1453712Y625457D01*
X1454740Y625759D01*
X1455744Y626133D01*
X1456719Y626578D01*
X1457659Y627092D01*
X1458560Y627671D01*
X1459418Y628313D01*
X1460228Y629015D01*
X1460985Y629772D01*
X1461687Y630582D01*
X1462329Y631440D01*
X1462908Y632341D01*
X1463422Y633281D01*
X1463867Y634256D01*
X1464241Y635260D01*
X1464543Y636288D01*
X1464771Y637335D01*
X1464924Y638396D01*
X1465000Y639464D01*
X635000Y679464D02*
X635000Y680536D01*
X634924Y681604D01*
X634771Y682665D01*
X634543Y683712D01*
X634241Y684740D01*
X633867Y685744D01*
X633422Y686719D01*
X632908Y687659D01*
X632329Y688560D01*
X631687Y689418D01*
X630985Y690228D01*
X630228Y690985D01*
X629418Y691687D01*
X628560Y692329D01*
X627659Y692908D01*
X626719Y693422D01*
X625744Y693867D01*
X624740Y694241D01*
X623712Y694543D01*
X622665Y694771D01*
X621604Y694924D01*
X620536Y695000D01*
X619464Y695000D01*
X618396Y694924D01*
X617335Y694771D01*
X616288Y694543D01*
X615260Y694241D01*
X614256Y693867D01*
X613281Y693422D01*
X612341Y692908D01*
X611440Y692329D01*
X610582Y691687D01*
X609772Y690985D01*
X609015Y690228D01*
X608313Y689418D01*
X607671Y688560D01*
X607092Y687659D01*
X606578Y686719D01*
X606133Y685744D01*
X605759Y684740D01*
X605457Y683712D01*
X605229Y682665D01*
X605076Y681604D01*
X605000Y680536D01*
X605000Y679464D01*
X605076Y678396D01*
X605229Y677335D01*
X605457Y676288D01*
X605759Y675260D01*
X606133Y674256D01*
X606578Y673281D01*
X607092Y672341D01*
X607671Y671440D01*
X608313Y670582D01*
X609015Y669772D01*
X609772Y669015D01*
X610582Y668313D01*
X611440Y667671D01*
X612341Y667092D01*
X613281Y666578D01*
X614256Y666133D01*
X615260Y665759D01*
X616288Y665457D01*
X617335Y665229D01*
X618396Y665076D01*
X619464Y665000D01*
X620536Y665000D01*
X621604Y665076D01*
X622665Y665229D01*
X623712Y665457D01*
X624740Y665759D01*
X625744Y666133D01*
X626719Y666578D01*
X627659Y667092D01*
X628560Y667671D01*
X629418Y668313D01*
X630228Y669015D01*
X630985Y669772D01*
X631687Y670582D01*
X632329Y671440D01*
X632908Y672341D01*
X633422Y673281D01*
X633867Y674256D01*
X634241Y675260D01*
X634543Y676288D01*
X634771Y677335D01*
X634924Y678396D01*
X635000Y679464D01*
X995000Y679464D02*
X995000Y680536D01*
X994924Y681604D01*
X994771Y682665D01*
X994543Y683712D01*
X994241Y684740D01*
X993867Y685744D01*
X993422Y686719D01*
X992908Y687659D01*
X992329Y688560D01*
X991687Y689418D01*
X990985Y690228D01*
X990228Y690985D01*
X989418Y691687D01*
X988560Y692329D01*
X987659Y692908D01*
X986719Y693422D01*
X985744Y693867D01*
X984740Y694241D01*
X983712Y694543D01*
X982665Y694771D01*
X981604Y694924D01*
X980536Y695000D01*
X979464Y695000D01*
X978396Y694924D01*
X977335Y694771D01*
X976288Y694543D01*
X975260Y694241D01*
X974256Y693867D01*
X973281Y693422D01*
X972341Y692908D01*
X971440Y692329D01*
X970582Y691687D01*
X969772Y690985D01*
X969015Y690228D01*
X968313Y689418D01*
X967671Y688560D01*
X967092Y687659D01*
X966578Y686719D01*
X966133Y685744D01*
X965759Y684740D01*
X965457Y683712D01*
X965229Y682665D01*
X965076Y681604D01*
X965000Y680536D01*
X965000Y679464D01*
X965076Y678396D01*
X965229Y677335D01*
X965457Y676288D01*
X965759Y675260D01*
X966133Y674256D01*
X966578Y673281D01*
X967092Y672341D01*
X967671Y671440D01*
X968313Y670582D01*
X969015Y669772D01*
X969772Y669015D01*
X970582Y668313D01*
X971440Y667671D01*
X972341Y667092D01*
X973281Y666578D01*
X974256Y666133D01*
X975260Y665759D01*
X976288Y665457D01*
X977335Y665229D01*
X978396Y665076D01*
X979464Y665000D01*
X980536Y665000D01*
X981604Y665076D01*
X982665Y665229D01*
X983712Y665457D01*
X984740Y665759D01*
X985744Y666133D01*
X986719Y666578D01*
X987659Y667092D01*
X988560Y667671D01*
X989418Y668313D01*
X990228Y669015D01*
X990985Y669772D01*
X991687Y670582D01*
X992329Y671440D01*
X992908Y672341D01*
X993422Y673281D01*
X993867Y674256D01*
X994241Y675260D01*
X994543Y676288D01*
X994771Y677335D01*
X994924Y678396D01*
X995000Y679464D01*
X1270000Y939464D02*
X1270000Y940536D01*
X1269924Y941604D01*
X1269771Y942665D01*
X1269543Y943712D01*
X1269241Y944740D01*
X1268867Y945744D01*
X1268422Y946719D01*
X1267908Y947659D01*
X1267329Y948560D01*
X1266687Y949418D01*
X1265985Y950228D01*
X1265228Y950985D01*
X1264418Y951687D01*
X1263560Y952329D01*
X1262659Y952908D01*
X1261719Y953422D01*
X1260744Y953867D01*
X1259740Y954241D01*
X1258712Y954543D01*
X1257665Y954771D01*
X1256604Y954924D01*
X1255536Y955000D01*
X1254464Y955000D01*
X1253396Y954924D01*
X1252335Y954771D01*
X1251288Y954543D01*
X1250260Y954241D01*
X1249256Y953867D01*
X1248281Y953422D01*
X1247341Y952908D01*
X1246440Y952329D01*
X1245582Y951687D01*
X1244772Y950985D01*
X1244015Y950228D01*
X1243313Y949418D01*
X1242671Y948560D01*
X1242092Y947659D01*
X1241578Y946719D01*
X1241133Y945744D01*
X1240759Y944740D01*
X1240457Y943712D01*
X1240229Y942665D01*
X1240076Y941604D01*
X1240000Y940536D01*
X1240000Y939464D01*
X1240076Y938396D01*
X1240229Y937335D01*
X1240457Y936288D01*
X1240759Y935260D01*
X1241133Y934256D01*
X1241578Y933281D01*
X1242092Y932341D01*
X1242671Y931440D01*
X1243313Y930582D01*
X1244015Y929772D01*
X1244772Y929015D01*
X1245582Y928313D01*
X1246440Y927671D01*
X1247341Y927092D01*
X1248281Y926578D01*
X1249256Y926133D01*
X1250260Y925759D01*
X1251288Y925457D01*
X1252335Y925229D01*
X1253396Y925076D01*
X1254464Y925000D01*
X1255536Y925000D01*
X1256604Y925076D01*
X1257665Y925229D01*
X1258712Y925457D01*
X1259740Y925759D01*
X1260744Y926133D01*
X1261719Y926578D01*
X1262659Y927092D01*
X1263560Y927671D01*
X1264418Y928313D01*
X1265228Y929015D01*
X1265985Y929772D01*
X1266687Y930582D01*
X1267329Y931440D01*
X1267908Y932341D01*
X1268422Y933281D01*
X1268867Y934256D01*
X1269241Y935260D01*
X1269543Y936288D01*
X1269771Y937335D01*
X1269924Y938396D01*
X1270000Y939464D01*
X360000Y939464D02*
X360000Y940536D01*
X359924Y941604D01*
X359771Y942665D01*
X359543Y943712D01*
X359241Y944740D01*
X358867Y945744D01*
X358422Y946719D01*
X357908Y947659D01*
X357329Y948560D01*
X356687Y949418D01*
X355985Y950228D01*
X355228Y950985D01*
X354418Y951687D01*
X353560Y952329D01*
X352659Y952908D01*
X351719Y953422D01*
X350744Y953867D01*
X349740Y954241D01*
X348712Y954543D01*
X347665Y954771D01*
X346604Y954924D01*
X345536Y955000D01*
X344464Y955000D01*
X343396Y954924D01*
X342335Y954771D01*
X341288Y954543D01*
X340260Y954241D01*
X339256Y953867D01*
X338281Y953422D01*
X337341Y952908D01*
X336440Y952329D01*
X335582Y951687D01*
X334772Y950985D01*
X334015Y950228D01*
X333313Y949418D01*
X332671Y948560D01*
X332092Y947659D01*
X331578Y946719D01*
X331133Y945744D01*
X330759Y944740D01*
X330457Y943712D01*
X330229Y942665D01*
X330076Y941604D01*
X330000Y940536D01*
X330000Y939464D01*
X330076Y938396D01*
X330229Y937335D01*
X330457Y936288D01*
X330759Y935260D01*
X331133Y934256D01*
X331578Y933281D01*
X332092Y932341D01*
X332671Y931440D01*
X333313Y930582D01*
X334015Y929772D01*
X334772Y929015D01*
X335582Y928313D01*
X336440Y927671D01*
X337341Y927092D01*
X338281Y926578D01*
X339256Y926133D01*
X340260Y925759D01*
X341288Y925457D01*
X342335Y925229D01*
X343396Y925076D01*
X344464Y925000D01*
X345536Y925000D01*
X346604Y925076D01*
X347665Y925229D01*
X348712Y925457D01*
X349740Y925759D01*
X350744Y926133D01*
X351719Y926578D01*
X352659Y927092D01*
X353560Y927671D01*
X354418Y928313D01*
X355228Y929015D01*
X355985Y929772D01*
X356687Y930582D01*
X357329Y931440D01*
X357908Y932341D01*
X358422Y933281D01*
X358867Y934256D01*
X359241Y935260D01*
X359543Y936288D01*
X359771Y937335D01*
X359924Y938396D01*
X360000Y939464D01*
X931500Y607105D02*
X931577Y606520D01*
X931730Y605950D01*
X931955Y605405D01*
X932250Y604895D01*
X932609Y604427D01*
X933027Y604009D01*
X933495Y603650D01*
X934005Y603355D01*
X934550Y603130D01*
X935120Y602977D01*
X935705Y602900D01*
X936295Y602900D01*
X936880Y602977D01*
X937450Y603130D01*
X937995Y603355D01*
X938505Y603650D01*
X938973Y604009D01*
X939391Y604427D01*
X939750Y604895D01*
X940045Y605405D01*
X940270Y605950D01*
X940423Y606520D01*
X940500Y607105D01*
X940500Y607695D01*
X940423Y608280D01*
X940270Y608850D01*
X940045Y609395D01*
X939750Y609905D01*
X939391Y610373D01*
X938973Y610791D01*
X938505Y611150D01*
X937995Y611445D01*
X937450Y611670D01*
X936880Y611823D01*
X936295Y611900D01*
X935705Y611900D01*
X935120Y611823D01*
X934550Y611670D01*
X934005Y611445D01*
X933495Y611150D01*
X933027Y610791D01*
X932609Y610373D01*
X932250Y609905D01*
X931955Y609395D01*
X931730Y608850D01*
X931577Y608280D01*
X931500Y607695D01*
X931500Y607105D01*
X901500Y607105D02*
X901577Y606520D01*
X901730Y605950D01*
X901955Y605405D01*
X902250Y604895D01*
X902609Y604427D01*
X903027Y604009D01*
X903495Y603650D01*
X904005Y603355D01*
X904550Y603130D01*
X905120Y602977D01*
X905705Y602900D01*
X906295Y602900D01*
X906880Y602977D01*
X907450Y603130D01*
X907995Y603355D01*
X908505Y603650D01*
X908973Y604009D01*
X909391Y604427D01*
X909750Y604895D01*
X910045Y605405D01*
X910270Y605950D01*
X910423Y606520D01*
X910500Y607105D01*
X910500Y607695D01*
X910423Y608280D01*
X910270Y608850D01*
X910045Y609395D01*
X909750Y609905D01*
X909391Y610373D01*
X908973Y610791D01*
X908505Y611150D01*
X907995Y611445D01*
X907450Y611670D01*
X906880Y611823D01*
X906295Y611900D01*
X905705Y611900D01*
X905120Y611823D01*
X904550Y611670D01*
X904005Y611445D01*
X903495Y611150D01*
X903027Y610791D01*
X902609Y610373D01*
X902250Y609905D01*
X901955Y609395D01*
X901730Y608850D01*
X901577Y608280D01*
X901500Y607695D01*
X901500Y607105D01*
X159250Y554596D02*
X159180Y553791D01*
X159039Y552996D01*
X158830Y552216D01*
X158554Y551457D01*
X158213Y550725D01*
X157809Y550025D01*
X157346Y549364D01*
X156826Y548745D01*
X156255Y548174D01*
X155636Y547655D01*
X154975Y547191D01*
X154275Y546787D01*
X153543Y546446D01*
X152784Y546170D01*
X152004Y545961D01*
X151209Y545820D01*
X150404Y545750D01*
X149596Y545750D01*
X148791Y545820D01*
X147996Y545961D01*
X147216Y546170D01*
X146457Y546446D01*
X145725Y546787D01*
X145025Y547191D01*
X144364Y547655D01*
X143745Y548174D01*
X143174Y548745D01*
X142655Y549364D01*
X142191Y550025D01*
X141787Y550725D01*
X141446Y551457D01*
X141170Y552216D01*
X140961Y552996D01*
X140820Y553791D01*
X140750Y554596D01*
X140750Y555404D01*
X140820Y556209D01*
X140961Y557004D01*
X141170Y557784D01*
X141446Y558543D01*
X141787Y559275D01*
X142191Y559975D01*
X142655Y560636D01*
X143174Y561255D01*
X143745Y561826D01*
X144364Y562346D01*
X145025Y562809D01*
X145725Y563213D01*
X146457Y563554D01*
X147216Y563830D01*
X147996Y564039D01*
X148791Y564180D01*
X149596Y564250D01*
X150404Y564250D01*
X151209Y564180D01*
X152004Y564039D01*
X152784Y563830D01*
X153543Y563554D01*
X154275Y563213D01*
X154975Y562809D01*
X155636Y562346D01*
X156255Y561826D01*
X156826Y561255D01*
X157346Y560636D01*
X157809Y559975D01*
X158213Y559275D01*
X158554Y558543D01*
X158830Y557784D01*
X159039Y557004D01*
X159180Y556209D01*
X159250Y555404D01*
X159250Y554596D01*
X159250Y464596D02*
X159180Y463791D01*
X159039Y462996D01*
X158830Y462216D01*
X158554Y461457D01*
X158213Y460725D01*
X157809Y460025D01*
X157346Y459364D01*
X156826Y458745D01*
X156255Y458174D01*
X155636Y457655D01*
X154975Y457191D01*
X154275Y456787D01*
X153543Y456446D01*
X152784Y456170D01*
X152004Y455961D01*
X151209Y455820D01*
X150404Y455750D01*
X149596Y455750D01*
X148791Y455820D01*
X147996Y455961D01*
X147216Y456170D01*
X146457Y456446D01*
X145725Y456787D01*
X145025Y457191D01*
X144364Y457655D01*
X143745Y458174D01*
X143174Y458745D01*
X142655Y459364D01*
X142191Y460025D01*
X141787Y460725D01*
X141446Y461457D01*
X141170Y462216D01*
X140961Y462996D01*
X140820Y463791D01*
X140750Y464596D01*
X140750Y465404D01*
X140820Y466209D01*
X140961Y467004D01*
X141170Y467784D01*
X141446Y468543D01*
X141787Y469275D01*
X142191Y469975D01*
X142655Y470636D01*
X143174Y471255D01*
X143745Y471826D01*
X144364Y472346D01*
X145025Y472809D01*
X145725Y473213D01*
X146457Y473554D01*
X147216Y473830D01*
X147996Y474039D01*
X148791Y474180D01*
X149596Y474250D01*
X150404Y474250D01*
X151209Y474180D01*
X152004Y474039D01*
X152784Y473830D01*
X153543Y473554D01*
X154275Y473213D01*
X154975Y472809D01*
X155636Y472346D01*
X156255Y471826D01*
X156826Y471255D01*
X157346Y470636D01*
X157809Y469975D01*
X158213Y469275D01*
X158554Y468543D01*
X158830Y467784D01*
X159039Y467004D01*
X159180Y466209D01*
X159250Y465404D01*
X159250Y464596D01*
X1179250Y864596D02*
X1179180Y863791D01*
X1179039Y862996D01*
X1178830Y862216D01*
X1178554Y861457D01*
X1178213Y860725D01*
X1177809Y860025D01*
X1177346Y859364D01*
X1176826Y858745D01*
X1176255Y858174D01*
X1175636Y857655D01*
X1174975Y857191D01*
X1174275Y856787D01*
X1173543Y856446D01*
X1172784Y856170D01*
X1172004Y855961D01*
X1171209Y855820D01*
X1170404Y855750D01*
X1169596Y855750D01*
X1168791Y855820D01*
X1167996Y855961D01*
X1167216Y856170D01*
X1166457Y856446D01*
X1165725Y856787D01*
X1165025Y857191D01*
X1164364Y857655D01*
X1163745Y858174D01*
X1163174Y858745D01*
X1162655Y859364D01*
X1162191Y860025D01*
X1161787Y860725D01*
X1161446Y861457D01*
X1161170Y862216D01*
X1160961Y862996D01*
X1160820Y863791D01*
X1160750Y864596D01*
X1160750Y865404D01*
X1160820Y866209D01*
X1160961Y867004D01*
X1161170Y867784D01*
X1161446Y868543D01*
X1161787Y869275D01*
X1162191Y869975D01*
X1162655Y870636D01*
X1163174Y871255D01*
X1163745Y871826D01*
X1164364Y872346D01*
X1165025Y872809D01*
X1165725Y873213D01*
X1166457Y873554D01*
X1167216Y873830D01*
X1167996Y874039D01*
X1168791Y874180D01*
X1169596Y874250D01*
X1170404Y874250D01*
X1171209Y874180D01*
X1172004Y874039D01*
X1172784Y873830D01*
X1173543Y873554D01*
X1174275Y873213D01*
X1174975Y872809D01*
X1175636Y872346D01*
X1176255Y871826D01*
X1176826Y871255D01*
X1177346Y870636D01*
X1177809Y869975D01*
X1178213Y869275D01*
X1178554Y868543D01*
X1178830Y867784D01*
X1179039Y867004D01*
X1179180Y866209D01*
X1179250Y865404D01*
X1179250Y864596D01*
X1179250Y774596D02*
X1179180Y773791D01*
X1179039Y772996D01*
X1178830Y772216D01*
X1178554Y771457D01*
X1178213Y770725D01*
X1177809Y770025D01*
X1177346Y769364D01*
X1176826Y768745D01*
X1176255Y768174D01*
X1175636Y767655D01*
X1174975Y767191D01*
X1174275Y766787D01*
X1173543Y766446D01*
X1172784Y766170D01*
X1172004Y765961D01*
X1171209Y765820D01*
X1170404Y765750D01*
X1169596Y765750D01*
X1168791Y765820D01*
X1167996Y765961D01*
X1167216Y766170D01*
X1166457Y766446D01*
X1165725Y766787D01*
X1165025Y767191D01*
X1164364Y767655D01*
X1163745Y768174D01*
X1163174Y768745D01*
X1162655Y769364D01*
X1162191Y770025D01*
X1161787Y770725D01*
X1161446Y771457D01*
X1161170Y772216D01*
X1160961Y772996D01*
X1160820Y773791D01*
X1160750Y774596D01*
X1160750Y775404D01*
X1160820Y776209D01*
X1160961Y777004D01*
X1161170Y777784D01*
X1161446Y778543D01*
X1161787Y779275D01*
X1162191Y779975D01*
X1162655Y780636D01*
X1163174Y781255D01*
X1163745Y781826D01*
X1164364Y782346D01*
X1165025Y782809D01*
X1165725Y783213D01*
X1166457Y783554D01*
X1167216Y783830D01*
X1167996Y784039D01*
X1168791Y784180D01*
X1169596Y784250D01*
X1170404Y784250D01*
X1171209Y784180D01*
X1172004Y784039D01*
X1172784Y783830D01*
X1173543Y783554D01*
X1174275Y783213D01*
X1174975Y782809D01*
X1175636Y782346D01*
X1176255Y781826D01*
X1176826Y781255D01*
X1177346Y780636D01*
X1177809Y779975D01*
X1178213Y779275D01*
X1178554Y778543D01*
X1178830Y777784D01*
X1179039Y777004D01*
X1179180Y776209D01*
X1179250Y775404D01*
X1179250Y774596D01*
X1239250Y684596D02*
X1239180Y683791D01*
X1239039Y682996D01*
X1238830Y682216D01*
X1238554Y681457D01*
X1238213Y680725D01*
X1237809Y680025D01*
X1237346Y679364D01*
X1236826Y678745D01*
X1236255Y678174D01*
X1235636Y677655D01*
X1234975Y677191D01*
X1234275Y676787D01*
X1233543Y676446D01*
X1232784Y676170D01*
X1232004Y675961D01*
X1231209Y675820D01*
X1230404Y675750D01*
X1229596Y675750D01*
X1228791Y675820D01*
X1227996Y675961D01*
X1227216Y676170D01*
X1226457Y676446D01*
X1225725Y676787D01*
X1225025Y677191D01*
X1224364Y677655D01*
X1223745Y678174D01*
X1223174Y678745D01*
X1222655Y679364D01*
X1222191Y680025D01*
X1221787Y680725D01*
X1221446Y681457D01*
X1221170Y682216D01*
X1220961Y682996D01*
X1220820Y683791D01*
X1220750Y684596D01*
X1220750Y685404D01*
X1220820Y686209D01*
X1220961Y687004D01*
X1221170Y687784D01*
X1221446Y688543D01*
X1221787Y689275D01*
X1222191Y689975D01*
X1222655Y690636D01*
X1223174Y691255D01*
X1223745Y691826D01*
X1224364Y692346D01*
X1225025Y692809D01*
X1225725Y693213D01*
X1226457Y693554D01*
X1227216Y693830D01*
X1227996Y694039D01*
X1228791Y694180D01*
X1229596Y694250D01*
X1230404Y694250D01*
X1231209Y694180D01*
X1232004Y694039D01*
X1232784Y693830D01*
X1233543Y693554D01*
X1234275Y693213D01*
X1234975Y692809D01*
X1235636Y692346D01*
X1236255Y691826D01*
X1236826Y691255D01*
X1237346Y690636D01*
X1237809Y689975D01*
X1238213Y689275D01*
X1238554Y688543D01*
X1238830Y687784D01*
X1239039Y687004D01*
X1239180Y686209D01*
X1239250Y685404D01*
X1239250Y684596D01*
X1239250Y594596D02*
X1239180Y593791D01*
X1239039Y592996D01*
X1238830Y592216D01*
X1238554Y591457D01*
X1238213Y590725D01*
X1237809Y590025D01*
X1237346Y589364D01*
X1236826Y588745D01*
X1236255Y588174D01*
X1235636Y587655D01*
X1234975Y587191D01*
X1234275Y586787D01*
X1233543Y586446D01*
X1232784Y586170D01*
X1232004Y585961D01*
X1231209Y585820D01*
X1230404Y585750D01*
X1229596Y585750D01*
X1228791Y585820D01*
X1227996Y585961D01*
X1227216Y586170D01*
X1226457Y586446D01*
X1225725Y586787D01*
X1225025Y587191D01*
X1224364Y587655D01*
X1223745Y588174D01*
X1223174Y588745D01*
X1222655Y589364D01*
X1222191Y590025D01*
X1221787Y590725D01*
X1221446Y591457D01*
X1221170Y592216D01*
X1220961Y592996D01*
X1220820Y593791D01*
X1220750Y594596D01*
X1220750Y595404D01*
X1220820Y596209D01*
X1220961Y597004D01*
X1221170Y597784D01*
X1221446Y598543D01*
X1221787Y599275D01*
X1222191Y599975D01*
X1222655Y600636D01*
X1223174Y601255D01*
X1223745Y601826D01*
X1224364Y602346D01*
X1225025Y602809D01*
X1225725Y603213D01*
X1226457Y603554D01*
X1227216Y603830D01*
X1227996Y604039D01*
X1228791Y604180D01*
X1229596Y604250D01*
X1230404Y604250D01*
X1231209Y604180D01*
X1232004Y604039D01*
X1232784Y603830D01*
X1233543Y603554D01*
X1234275Y603213D01*
X1234975Y602809D01*
X1235636Y602346D01*
X1236255Y601826D01*
X1236826Y601255D01*
X1237346Y600636D01*
X1237809Y599975D01*
X1238213Y599275D01*
X1238554Y598543D01*
X1238830Y597784D01*
X1239039Y597004D01*
X1239180Y596209D01*
X1239250Y595404D01*
X1239250Y594596D01*
X1459250Y554596D02*
X1459180Y553791D01*
X1459039Y552996D01*
X1458830Y552216D01*
X1458554Y551457D01*
X1458213Y550725D01*
X1457809Y550025D01*
X1457346Y549364D01*
X1456826Y548745D01*
X1456255Y548174D01*
X1455636Y547655D01*
X1454975Y547191D01*
X1454275Y546787D01*
X1453543Y546446D01*
X1452784Y546170D01*
X1452004Y545961D01*
X1451209Y545820D01*
X1450404Y545750D01*
X1449596Y545750D01*
X1448791Y545820D01*
X1447996Y545961D01*
X1447216Y546170D01*
X1446457Y546446D01*
X1445725Y546787D01*
X1445025Y547191D01*
X1444364Y547655D01*
X1443745Y548174D01*
X1443174Y548745D01*
X1442655Y549364D01*
X1442191Y550025D01*
X1441787Y550725D01*
X1441446Y551457D01*
X1441170Y552216D01*
X1440961Y552996D01*
X1440820Y553791D01*
X1440750Y554596D01*
X1440750Y555404D01*
X1440820Y556209D01*
X1440961Y557004D01*
X1441170Y557784D01*
X1441446Y558543D01*
X1441787Y559275D01*
X1442191Y559975D01*
X1442655Y560636D01*
X1443174Y561255D01*
X1443745Y561826D01*
X1444364Y562346D01*
X1445025Y562809D01*
X1445725Y563213D01*
X1446457Y563554D01*
X1447216Y563830D01*
X1447996Y564039D01*
X1448791Y564180D01*
X1449596Y564250D01*
X1450404Y564250D01*
X1451209Y564180D01*
X1452004Y564039D01*
X1452784Y563830D01*
X1453543Y563554D01*
X1454275Y563213D01*
X1454975Y562809D01*
X1455636Y562346D01*
X1456255Y561826D01*
X1456826Y561255D01*
X1457346Y560636D01*
X1457809Y559975D01*
X1458213Y559275D01*
X1458554Y558543D01*
X1458830Y557784D01*
X1459039Y557004D01*
X1459180Y556209D01*
X1459250Y555404D01*
X1459250Y554596D01*
X1459250Y464596D02*
X1459180Y463791D01*
X1459039Y462996D01*
X1458830Y462216D01*
X1458554Y461457D01*
X1458213Y460725D01*
X1457809Y460025D01*
X1457346Y459364D01*
X1456826Y458745D01*
X1456255Y458174D01*
X1455636Y457655D01*
X1454975Y457191D01*
X1454275Y456787D01*
X1453543Y456446D01*
X1452784Y456170D01*
X1452004Y455961D01*
X1451209Y455820D01*
X1450404Y455750D01*
X1449596Y455750D01*
X1448791Y455820D01*
X1447996Y455961D01*
X1447216Y456170D01*
X1446457Y456446D01*
X1445725Y456787D01*
X1445025Y457191D01*
X1444364Y457655D01*
X1443745Y458174D01*
X1443174Y458745D01*
X1442655Y459364D01*
X1442191Y460025D01*
X1441787Y460725D01*
X1441446Y461457D01*
X1441170Y462216D01*
X1440961Y462996D01*
X1440820Y463791D01*
X1440750Y464596D01*
X1440750Y465404D01*
X1440820Y466209D01*
X1440961Y467004D01*
X1441170Y467784D01*
X1441446Y468543D01*
X1441787Y469275D01*
X1442191Y469975D01*
X1442655Y470636D01*
X1443174Y471255D01*
X1443745Y471826D01*
X1444364Y472346D01*
X1445025Y472809D01*
X1445725Y473213D01*
X1446457Y473554D01*
X1447216Y473830D01*
X1447996Y474039D01*
X1448791Y474180D01*
X1449596Y474250D01*
X1450404Y474250D01*
X1451209Y474180D01*
X1452004Y474039D01*
X1452784Y473830D01*
X1453543Y473554D01*
X1454275Y473213D01*
X1454975Y472809D01*
X1455636Y472346D01*
X1456255Y471826D01*
X1456826Y471255D01*
X1457346Y470636D01*
X1457809Y469975D01*
X1458213Y469275D01*
X1458554Y468543D01*
X1458830Y467784D01*
X1459039Y467004D01*
X1459180Y466209D01*
X1459250Y465404D01*
X1459250Y464596D01*
X379250Y684596D02*
X379180Y683791D01*
X379039Y682996D01*
X378830Y682216D01*
X378554Y681457D01*
X378213Y680725D01*
X377809Y680025D01*
X377346Y679364D01*
X376826Y678745D01*
X376255Y678174D01*
X375636Y677655D01*
X374975Y677191D01*
X374275Y676787D01*
X373543Y676446D01*
X372784Y676170D01*
X372004Y675961D01*
X371209Y675820D01*
X370404Y675750D01*
X369596Y675750D01*
X368791Y675820D01*
X367996Y675961D01*
X367216Y676170D01*
X366457Y676446D01*
X365725Y676787D01*
X365025Y677191D01*
X364364Y677655D01*
X363745Y678174D01*
X363174Y678745D01*
X362655Y679364D01*
X362191Y680025D01*
X361787Y680725D01*
X361446Y681457D01*
X361170Y682216D01*
X360961Y682996D01*
X360820Y683791D01*
X360750Y684596D01*
X360750Y685404D01*
X360820Y686209D01*
X360961Y687004D01*
X361170Y687784D01*
X361446Y688543D01*
X361787Y689275D01*
X362191Y689975D01*
X362655Y690636D01*
X363174Y691255D01*
X363745Y691826D01*
X364364Y692346D01*
X365025Y692809D01*
X365725Y693213D01*
X366457Y693554D01*
X367216Y693830D01*
X367996Y694039D01*
X368791Y694180D01*
X369596Y694250D01*
X370404Y694250D01*
X371209Y694180D01*
X372004Y694039D01*
X372784Y693830D01*
X373543Y693554D01*
X374275Y693213D01*
X374975Y692809D01*
X375636Y692346D01*
X376255Y691826D01*
X376826Y691255D01*
X377346Y690636D01*
X377809Y689975D01*
X378213Y689275D01*
X378554Y688543D01*
X378830Y687784D01*
X379039Y687004D01*
X379180Y686209D01*
X379250Y685404D01*
X379250Y684596D01*
X379250Y594596D02*
X379180Y593791D01*
X379039Y592996D01*
X378830Y592216D01*
X378554Y591457D01*
X378213Y590725D01*
X377809Y590025D01*
X377346Y589364D01*
X376826Y588745D01*
X376255Y588174D01*
X375636Y587655D01*
X374975Y587191D01*
X374275Y586787D01*
X373543Y586446D01*
X372784Y586170D01*
X372004Y585961D01*
X371209Y585820D01*
X370404Y585750D01*
X369596Y585750D01*
X368791Y585820D01*
X367996Y585961D01*
X367216Y586170D01*
X366457Y586446D01*
X365725Y586787D01*
X365025Y587191D01*
X364364Y587655D01*
X363745Y588174D01*
X363174Y588745D01*
X362655Y589364D01*
X362191Y590025D01*
X361787Y590725D01*
X361446Y591457D01*
X361170Y592216D01*
X360961Y592996D01*
X360820Y593791D01*
X360750Y594596D01*
X360750Y595404D01*
X360820Y596209D01*
X360961Y597004D01*
X361170Y597784D01*
X361446Y598543D01*
X361787Y599275D01*
X362191Y599975D01*
X362655Y600636D01*
X363174Y601255D01*
X363745Y601826D01*
X364364Y602346D01*
X365025Y602809D01*
X365725Y603213D01*
X366457Y603554D01*
X367216Y603830D01*
X367996Y604039D01*
X368791Y604180D01*
X369596Y604250D01*
X370404Y604250D01*
X371209Y604180D01*
X372004Y604039D01*
X372784Y603830D01*
X373543Y603554D01*
X374275Y603213D01*
X374975Y602809D01*
X375636Y602346D01*
X376255Y601826D01*
X376826Y601255D01*
X377346Y600636D01*
X377809Y599975D01*
X378213Y599275D01*
X378554Y598543D01*
X378830Y597784D01*
X379039Y597004D01*
X379180Y596209D01*
X379250Y595404D01*
X379250Y594596D01*
X439250Y864596D02*
X439180Y863791D01*
X439039Y862996D01*
X438830Y862216D01*
X438554Y861457D01*
X438213Y860725D01*
X437809Y860025D01*
X437346Y859364D01*
X436826Y858745D01*
X436255Y858174D01*
X435636Y857655D01*
X434975Y857191D01*
X434275Y856787D01*
X433543Y856446D01*
X432784Y856170D01*
X432004Y855961D01*
X431209Y855820D01*
X430404Y855750D01*
X429596Y855750D01*
X428791Y855820D01*
X427996Y855961D01*
X427216Y856170D01*
X426457Y856446D01*
X425725Y856787D01*
X425025Y857191D01*
X424364Y857655D01*
X423745Y858174D01*
X423174Y858745D01*
X422655Y859364D01*
X422191Y860025D01*
X421787Y860725D01*
X421446Y861457D01*
X421170Y862216D01*
X420961Y862996D01*
X420820Y863791D01*
X420750Y864596D01*
X420750Y865404D01*
X420820Y866209D01*
X420961Y867004D01*
X421170Y867784D01*
X421446Y868543D01*
X421787Y869275D01*
X422191Y869975D01*
X422655Y870636D01*
X423174Y871255D01*
X423745Y871826D01*
X424364Y872346D01*
X425025Y872809D01*
X425725Y873213D01*
X426457Y873554D01*
X427216Y873830D01*
X427996Y874039D01*
X428791Y874180D01*
X429596Y874250D01*
X430404Y874250D01*
X431209Y874180D01*
X432004Y874039D01*
X432784Y873830D01*
X433543Y873554D01*
X434275Y873213D01*
X434975Y872809D01*
X435636Y872346D01*
X436255Y871826D01*
X436826Y871255D01*
X437346Y870636D01*
X437809Y869975D01*
X438213Y869275D01*
X438554Y868543D01*
X438830Y867784D01*
X439039Y867004D01*
X439180Y866209D01*
X439250Y865404D01*
X439250Y864596D01*
X439250Y774596D02*
X439180Y773791D01*
X439039Y772996D01*
X438830Y772216D01*
X438554Y771457D01*
X438213Y770725D01*
X437809Y770025D01*
X437346Y769364D01*
X436826Y768745D01*
X436255Y768174D01*
X435636Y767655D01*
X434975Y767191D01*
X434275Y766787D01*
X433543Y766446D01*
X432784Y766170D01*
X432004Y765961D01*
X431209Y765820D01*
X430404Y765750D01*
X429596Y765750D01*
X428791Y765820D01*
X427996Y765961D01*
X427216Y766170D01*
X426457Y766446D01*
X425725Y766787D01*
X425025Y767191D01*
X424364Y767655D01*
X423745Y768174D01*
X423174Y768745D01*
X422655Y769364D01*
X422191Y770025D01*
X421787Y770725D01*
X421446Y771457D01*
X421170Y772216D01*
X420961Y772996D01*
X420820Y773791D01*
X420750Y774596D01*
X420750Y775404D01*
X420820Y776209D01*
X420961Y777004D01*
X421170Y777784D01*
X421446Y778543D01*
X421787Y779275D01*
X422191Y779975D01*
X422655Y780636D01*
X423174Y781255D01*
X423745Y781826D01*
X424364Y782346D01*
X425025Y782809D01*
X425725Y783213D01*
X426457Y783554D01*
X427216Y783830D01*
X427996Y784039D01*
X428791Y784180D01*
X429596Y784250D01*
X430404Y784250D01*
X431209Y784180D01*
X432004Y784039D01*
X432784Y783830D01*
X433543Y783554D01*
X434275Y783213D01*
X434975Y782809D01*
X435636Y782346D01*
X436255Y781826D01*
X436826Y781255D01*
X437346Y780636D01*
X437809Y779975D01*
X438213Y779275D01*
X438554Y778543D01*
X438830Y777784D01*
X439039Y777004D01*
X439180Y776209D01*
X439250Y775404D01*
X439250Y774596D01*
M02*
