G04 EAGLE Gerber RS-274X export*
G75*
%MOMM*%
%FSLAX34Y34*%
%LPD*%
%INSoldermask Bottom*%
%IPPOS*%
%AMOC8*
5,1,8,0,0,1.08239X$1,22.5*%
G01*
%ADD10R,1.703200X1.503200*%
%ADD11R,1.203200X1.303200*%
%ADD12R,1.403200X1.403200*%
%ADD13R,1.603200X1.603200*%
%ADD14C,0.243838*%
%ADD15C,0.362709*%
%ADD16C,1.411200*%
%ADD17C,1.473200*%
%ADD18R,1.303200X1.203200*%
%ADD19R,1.203200X1.003200*%
%ADD20R,0.903200X1.703200*%
%ADD21C,1.103200*%
%ADD22C,2.743200*%
%ADD23C,1.981200*%
%ADD24C,1.981200*%
%ADD25R,0.753200X1.403200*%
%ADD26R,1.981200X1.981200*%
%ADD27R,2.078200X2.078200*%
%ADD28C,2.078200*%
%ADD29C,2.053200*%
%ADD30C,1.625600*%
%ADD31C,0.959600*%
%ADD32C,0.909600*%


D10*
X783000Y748400D03*
X783000Y729400D03*
X688200Y748400D03*
X688200Y729400D03*
D11*
X632000Y745800D03*
X632000Y728800D03*
D10*
X751400Y748400D03*
X751400Y729400D03*
X719800Y748400D03*
X719800Y729400D03*
D12*
X1099500Y598300D03*
X1078500Y598300D03*
D13*
X842200Y841300D03*
X879200Y841300D03*
D14*
X1022179Y629002D02*
X1025837Y629002D01*
X1025837Y615946D01*
X1022179Y615946D01*
X1022179Y629002D01*
X1022179Y618262D02*
X1025837Y618262D01*
X1025837Y620578D02*
X1022179Y620578D01*
X1022179Y622894D02*
X1025837Y622894D01*
X1025837Y625210D02*
X1022179Y625210D01*
X1022179Y627526D02*
X1025837Y627526D01*
X1019233Y629002D02*
X1015575Y629002D01*
X1019233Y629002D02*
X1019233Y615946D01*
X1015575Y615946D01*
X1015575Y629002D01*
X1015575Y618262D02*
X1019233Y618262D01*
X1019233Y620578D02*
X1015575Y620578D01*
X1015575Y622894D02*
X1019233Y622894D01*
X1019233Y625210D02*
X1015575Y625210D01*
X1015575Y627526D02*
X1019233Y627526D01*
X1012629Y629002D02*
X1008971Y629002D01*
X1012629Y629002D02*
X1012629Y615946D01*
X1008971Y615946D01*
X1008971Y629002D01*
X1008971Y618262D02*
X1012629Y618262D01*
X1012629Y620578D02*
X1008971Y620578D01*
X1008971Y622894D02*
X1012629Y622894D01*
X1012629Y625210D02*
X1008971Y625210D01*
X1008971Y627526D02*
X1012629Y627526D01*
X1006025Y629002D02*
X1002367Y629002D01*
X1006025Y629002D02*
X1006025Y615946D01*
X1002367Y615946D01*
X1002367Y629002D01*
X1002367Y618262D02*
X1006025Y618262D01*
X1006025Y620578D02*
X1002367Y620578D01*
X1002367Y622894D02*
X1006025Y622894D01*
X1006025Y625210D02*
X1002367Y625210D01*
X1002367Y627526D02*
X1006025Y627526D01*
X999421Y629002D02*
X995763Y629002D01*
X999421Y629002D02*
X999421Y615946D01*
X995763Y615946D01*
X995763Y629002D01*
X995763Y618262D02*
X999421Y618262D01*
X999421Y620578D02*
X995763Y620578D01*
X995763Y622894D02*
X999421Y622894D01*
X999421Y625210D02*
X995763Y625210D01*
X995763Y627526D02*
X999421Y627526D01*
D15*
X1014137Y602373D02*
X1027783Y602373D01*
X1027783Y588727D01*
X1014137Y588727D01*
X1014137Y602373D01*
X1014137Y592173D02*
X1027783Y592173D01*
X1027783Y595619D02*
X1014137Y595619D01*
X1014137Y599065D02*
X1027783Y599065D01*
X1007463Y602373D02*
X993817Y602373D01*
X1007463Y602373D02*
X1007463Y588727D01*
X993817Y588727D01*
X993817Y602373D01*
X993817Y592173D02*
X1007463Y592173D01*
X1007463Y595619D02*
X993817Y595619D01*
X993817Y599065D02*
X1007463Y599065D01*
D16*
X1036962Y622474D03*
X1034422Y622474D03*
X1035692Y622474D03*
X987178Y622474D03*
X984638Y622474D03*
X986162Y622474D03*
D17*
X1045852Y598090D03*
X975748Y598090D03*
X1045852Y593010D03*
X1045852Y595296D03*
X975748Y593010D03*
X975748Y595550D03*
D12*
X894600Y601700D03*
X915600Y601700D03*
D11*
X889400Y720200D03*
X872400Y720200D03*
X889200Y694700D03*
X872200Y694700D03*
X1134200Y607400D03*
X1134200Y624400D03*
X572400Y743300D03*
X572400Y726300D03*
X916000Y642000D03*
X899000Y642000D03*
X889500Y745700D03*
X872500Y745700D03*
X599200Y726500D03*
X599200Y743500D03*
D18*
X889500Y768500D03*
X872500Y768500D03*
D11*
X546000Y726500D03*
X546000Y743500D03*
D19*
X867500Y596400D03*
X867500Y618400D03*
X794500Y618400D03*
X794500Y596400D03*
D20*
X808500Y624900D03*
X823500Y624900D03*
X853500Y624900D03*
D21*
X846000Y607400D03*
X816000Y607400D03*
D22*
X1373500Y910675D03*
X1525900Y910675D03*
X1525900Y777325D03*
X1373500Y777325D03*
D23*
X1475100Y742400D03*
X1449700Y742400D03*
X1424300Y742400D03*
X1348100Y844000D03*
X1348100Y818600D03*
X1348100Y869400D03*
D24*
X1472560Y920200D02*
X1490340Y920200D01*
X1426840Y920200D02*
X1409060Y920200D01*
X1409060Y965200D02*
X1426840Y965200D01*
X1472560Y965200D02*
X1490340Y965200D01*
D22*
X74300Y910675D03*
X226700Y910675D03*
X226700Y777325D03*
X74300Y777325D03*
D23*
X175900Y742400D03*
X150500Y742400D03*
X125100Y742400D03*
X48900Y844000D03*
X48900Y818600D03*
X48900Y869400D03*
D24*
X173360Y920200D02*
X191140Y920200D01*
X127640Y920200D02*
X109860Y920200D01*
X109860Y965200D02*
X127640Y965200D01*
X173360Y965200D02*
X191140Y965200D01*
D25*
X628200Y857401D03*
X637700Y857401D03*
X647200Y857401D03*
X647200Y831399D03*
X628200Y831399D03*
X742300Y857401D03*
X751800Y857401D03*
X761300Y857401D03*
X761300Y831399D03*
X742300Y831399D03*
D26*
X568600Y944000D03*
D23*
X568600Y969400D03*
X594000Y944000D03*
X594000Y969400D03*
X619400Y944000D03*
X619400Y969400D03*
X644800Y944000D03*
X644800Y969400D03*
X670200Y944000D03*
X670200Y969400D03*
X695600Y944000D03*
X695600Y969400D03*
X721000Y944000D03*
X721000Y969400D03*
X746400Y944000D03*
X746400Y969400D03*
X771800Y944000D03*
X771800Y969400D03*
X797200Y944000D03*
X797200Y969400D03*
X822600Y944000D03*
X822600Y969400D03*
X848000Y944000D03*
X848000Y969400D03*
X873400Y944000D03*
X873400Y969400D03*
X898800Y944000D03*
X898800Y969400D03*
X924200Y944000D03*
X924200Y969400D03*
X949600Y944000D03*
X949600Y969400D03*
X975000Y944000D03*
X975000Y969400D03*
X1000400Y944000D03*
X1000400Y969400D03*
X1025800Y944000D03*
X1025800Y969400D03*
X1051200Y944000D03*
X1051200Y969400D03*
D11*
X832000Y745600D03*
X849000Y745600D03*
X832000Y694700D03*
X849000Y694700D03*
X832000Y720100D03*
X849000Y720100D03*
D27*
X87500Y535000D03*
D28*
X87500Y485000D03*
X212500Y535000D03*
X212500Y485000D03*
D29*
X150000Y555000D03*
X150000Y465000D03*
D27*
X1107500Y845000D03*
D28*
X1107500Y795000D03*
X1232500Y845000D03*
X1232500Y795000D03*
D29*
X1170000Y865000D03*
X1170000Y775000D03*
D27*
X1167500Y665000D03*
D28*
X1167500Y615000D03*
X1292500Y665000D03*
X1292500Y615000D03*
D29*
X1230000Y685000D03*
X1230000Y595000D03*
D27*
X1387500Y535000D03*
D28*
X1387500Y485000D03*
X1512500Y535000D03*
X1512500Y485000D03*
D29*
X1450000Y555000D03*
X1450000Y465000D03*
D27*
X307500Y665000D03*
D28*
X307500Y615000D03*
X432500Y665000D03*
X432500Y615000D03*
D29*
X370000Y685000D03*
X370000Y595000D03*
D27*
X367500Y845000D03*
D28*
X367500Y795000D03*
X492500Y845000D03*
X492500Y795000D03*
D29*
X430000Y865000D03*
X430000Y775000D03*
D30*
X512500Y600800D03*
X492500Y600800D03*
D31*
X640000Y875000D03*
X771832Y865000D03*
X805000Y725000D03*
X879468Y780000D03*
X685000Y715000D03*
X615000Y725000D03*
X1040000Y735000D03*
X950000Y725000D03*
X730000Y800000D03*
X575000Y860000D03*
X505000Y700000D03*
X925000Y825000D03*
X835000Y815000D03*
X710000Y855000D03*
X535000Y910000D03*
X610000Y775000D03*
X645000Y800000D03*
D32*
X958750Y795000D03*
X977500Y857500D03*
X911250Y841250D03*
X901250Y851250D03*
X663750Y847500D03*
X622500Y806250D03*
X902500Y628750D03*
X888750Y615000D03*
X1116250Y906250D03*
X977500Y846250D03*
X891250Y797500D03*
X778750Y661250D03*
X408750Y682500D03*
X398750Y692500D03*
X1031250Y842500D03*
X1025000Y850000D03*
X882500Y708750D03*
X813750Y661250D03*
X992500Y921250D03*
X1003750Y910000D03*
X1025000Y821250D03*
X1012500Y787500D03*
X916250Y772500D03*
X906250Y792500D03*
X517500Y801250D03*
X517500Y821250D03*
X1022500Y787500D03*
X1035000Y821250D03*
X492500Y821250D03*
X882500Y657500D03*
X866250Y641250D03*
X660000Y773750D03*
X660000Y753750D03*
X622500Y757500D03*
X656250Y723750D03*
X643750Y707500D03*
X748750Y765000D03*
X735000Y751250D03*
X1010000Y698750D03*
X1020000Y708750D03*
X951250Y757500D03*
X890000Y818750D03*
X860000Y761250D03*
X840000Y781250D03*
X621250Y818750D03*
X656250Y853750D03*
X945000Y851250D03*
X937500Y868750D03*
X945000Y862500D03*
X946250Y888750D03*
X862500Y708750D03*
X885000Y731250D03*
X992500Y821250D03*
X992500Y801250D03*
X862500Y680000D03*
X882500Y680000D03*
X1045000Y821250D03*
X1045000Y787500D03*
X838750Y731250D03*
X860000Y788750D03*
X908750Y888750D03*
X947500Y927500D03*
X1041250Y956250D03*
M02*
