G04 EAGLE Gerber RS-274X export*
G75*
%MOMM*%
%FSLAX34Y34*%
%LPD*%
%INSoldermask Top*%
%IPPOS*%
%AMOC8*
5,1,8,0,0,1.08239X$1,22.5*%
G01*
%ADD10C,1.411200*%
%ADD11C,1.473200*%
%ADD12C,1.103200*%
%ADD13C,2.743200*%
%ADD14C,1.981200*%
%ADD15C,1.981200*%
%ADD16R,1.981200X1.981200*%
%ADD17R,2.078200X2.078200*%
%ADD18C,2.078200*%
%ADD19C,2.053200*%
%ADD20C,1.625600*%
%ADD21C,0.909600*%


D10*
X1036962Y622474D03*
X1034422Y622474D03*
X1035692Y622474D03*
X987178Y622474D03*
X984638Y622474D03*
X986162Y622474D03*
D11*
X1045852Y598090D03*
X975748Y598090D03*
X1045852Y593010D03*
X1045852Y595296D03*
X975748Y593010D03*
X975748Y595550D03*
D12*
X936000Y607400D03*
X906000Y607400D03*
D13*
X1373500Y910675D03*
X1525900Y910675D03*
X1525900Y777325D03*
X1373500Y777325D03*
D14*
X1475100Y742400D03*
X1449700Y742400D03*
X1424300Y742400D03*
X1348100Y844000D03*
X1348100Y818600D03*
X1348100Y869400D03*
D15*
X1472560Y920200D02*
X1490340Y920200D01*
X1426840Y920200D02*
X1409060Y920200D01*
X1409060Y965200D02*
X1426840Y965200D01*
X1472560Y965200D02*
X1490340Y965200D01*
D13*
X74300Y910675D03*
X226700Y910675D03*
X226700Y777325D03*
X74300Y777325D03*
D14*
X175900Y742400D03*
X150500Y742400D03*
X125100Y742400D03*
X48900Y844000D03*
X48900Y818600D03*
X48900Y869400D03*
D15*
X173360Y920200D02*
X191140Y920200D01*
X127640Y920200D02*
X109860Y920200D01*
X109860Y965200D02*
X127640Y965200D01*
X173360Y965200D02*
X191140Y965200D01*
D16*
X568600Y904000D03*
D14*
X568600Y929400D03*
X594000Y904000D03*
X594000Y929400D03*
X619400Y904000D03*
X619400Y929400D03*
X644800Y904000D03*
X644800Y929400D03*
X670200Y904000D03*
X670200Y929400D03*
X695600Y904000D03*
X695600Y929400D03*
X721000Y904000D03*
X721000Y929400D03*
X746400Y904000D03*
X746400Y929400D03*
X771800Y904000D03*
X771800Y929400D03*
X797200Y904000D03*
X797200Y929400D03*
X822600Y904000D03*
X822600Y929400D03*
X848000Y904000D03*
X848000Y929400D03*
X873400Y904000D03*
X873400Y929400D03*
X898800Y904000D03*
X898800Y929400D03*
X924200Y904000D03*
X924200Y929400D03*
X949600Y904000D03*
X949600Y929400D03*
X975000Y904000D03*
X975000Y929400D03*
X1000400Y904000D03*
X1000400Y929400D03*
X1025800Y904000D03*
X1025800Y929400D03*
X1051200Y904000D03*
X1051200Y929400D03*
D17*
X87500Y535000D03*
D18*
X87500Y485000D03*
X212500Y535000D03*
X212500Y485000D03*
D19*
X150000Y555000D03*
X150000Y465000D03*
D17*
X1107500Y845000D03*
D18*
X1107500Y795000D03*
X1232500Y845000D03*
X1232500Y795000D03*
D19*
X1170000Y865000D03*
X1170000Y775000D03*
D17*
X1167500Y665000D03*
D18*
X1167500Y615000D03*
X1292500Y665000D03*
X1292500Y615000D03*
D19*
X1230000Y685000D03*
X1230000Y595000D03*
D17*
X1387500Y535000D03*
D18*
X1387500Y485000D03*
X1512500Y535000D03*
X1512500Y485000D03*
D19*
X1450000Y555000D03*
X1450000Y465000D03*
D17*
X307500Y665000D03*
D18*
X307500Y615000D03*
X432500Y665000D03*
X432500Y615000D03*
D19*
X370000Y685000D03*
X370000Y595000D03*
D17*
X367500Y845000D03*
D18*
X367500Y795000D03*
X492500Y845000D03*
X492500Y795000D03*
D19*
X430000Y865000D03*
X430000Y775000D03*
D20*
X807500Y600800D03*
X787500Y600800D03*
D21*
X542500Y846250D03*
X518750Y870000D03*
X888750Y876250D03*
X888750Y818750D03*
X817500Y843750D03*
X782500Y878750D03*
X581250Y961250D03*
X567500Y975000D03*
X818750Y827500D03*
X775000Y871250D03*
X498750Y860000D03*
X488750Y870000D03*
X865000Y820000D03*
X865000Y871250D03*
X1061250Y891250D03*
X1080000Y872500D03*
X878750Y820000D03*
X878750Y876250D03*
X861250Y948750D03*
X871250Y958750D03*
X960000Y843750D03*
X960000Y871250D03*
X948750Y832500D03*
X968750Y777500D03*
X935000Y743750D03*
X845000Y687500D03*
X800000Y642500D03*
X950000Y843750D03*
X950000Y871250D03*
X910000Y918750D03*
X911250Y955000D03*
X888750Y977500D03*
X970000Y843750D03*
X995000Y868750D03*
X988750Y918750D03*
X987500Y955000D03*
X972500Y970000D03*
X743750Y815000D03*
X763750Y795000D03*
X556250Y806250D03*
X576250Y826250D03*
X1061250Y685000D03*
X1042500Y666250D03*
X845000Y652500D03*
X817500Y650000D03*
X612500Y743750D03*
X593750Y762500D03*
X976250Y770000D03*
X957500Y751250D03*
X845000Y738750D03*
X817500Y737500D03*
X620000Y750000D03*
X580000Y788750D03*
X502500Y773750D03*
X580000Y851250D03*
X845000Y633750D03*
X820000Y608750D03*
X883750Y770000D03*
X851250Y881250D03*
X847500Y758750D03*
X772500Y833750D03*
X893750Y770000D03*
X851250Y871250D03*
X845000Y748750D03*
X762500Y831250D03*
X1045000Y802500D03*
X1037500Y790000D03*
M02*
