G04 EAGLE Gerber RS-274X export*
G75*
%MOMM*%
%FSLAX34Y34*%
%LPD*%
%INSoldermask Top*%
%IPPOS*%
%AMOC8*
5,1,8,0,0,1.08239X$1,22.5*%
G01*
%ADD10C,1.411200*%
%ADD11C,1.473200*%
%ADD12C,1.103200*%
%ADD13C,2.743200*%
%ADD14C,1.981200*%
%ADD15C,1.981200*%
%ADD16C,0.353406*%
%ADD17R,1.981200X1.981200*%
%ADD18R,2.078200X2.078200*%
%ADD19C,2.078200*%
%ADD20C,2.053200*%
%ADD21C,1.625600*%
%ADD22C,0.959600*%
%ADD23C,0.909600*%


D10*
X1036962Y622474D03*
X1034422Y622474D03*
X1035692Y622474D03*
X987178Y622474D03*
X984638Y622474D03*
X986162Y622474D03*
D11*
X1045852Y598090D03*
X975748Y598090D03*
X1045852Y593010D03*
X1045852Y595296D03*
X975748Y593010D03*
X975748Y595550D03*
D12*
X846000Y607400D03*
X816000Y607400D03*
D13*
X1373500Y910675D03*
X1525900Y910675D03*
X1525900Y777325D03*
X1373500Y777325D03*
D14*
X1475100Y742400D03*
X1449700Y742400D03*
X1424300Y742400D03*
X1348100Y844000D03*
X1348100Y818600D03*
X1348100Y869400D03*
D15*
X1472560Y920200D02*
X1490340Y920200D01*
X1426840Y920200D02*
X1409060Y920200D01*
X1409060Y965200D02*
X1426840Y965200D01*
X1472560Y965200D02*
X1490340Y965200D01*
D16*
X1017999Y808299D02*
X1000501Y808299D01*
X1017999Y808299D02*
X1017999Y803801D01*
X1000501Y803801D01*
X1000501Y808299D01*
X1000501Y807158D02*
X1017999Y807158D01*
X1017999Y820999D02*
X1000501Y820999D01*
X1017999Y820999D02*
X1017999Y816501D01*
X1000501Y816501D01*
X1000501Y820999D01*
X1000501Y819858D02*
X1017999Y819858D01*
X1017999Y833699D02*
X1000501Y833699D01*
X1017999Y833699D02*
X1017999Y829201D01*
X1000501Y829201D01*
X1000501Y833699D01*
X1000501Y832558D02*
X1017999Y832558D01*
X1017999Y846399D02*
X1000501Y846399D01*
X1017999Y846399D02*
X1017999Y841901D01*
X1000501Y841901D01*
X1000501Y846399D01*
X1000501Y845258D02*
X1017999Y845258D01*
X1017999Y859099D02*
X1000501Y859099D01*
X1017999Y859099D02*
X1017999Y854601D01*
X1000501Y854601D01*
X1000501Y859099D01*
X1000501Y857958D02*
X1017999Y857958D01*
X1017999Y871799D02*
X1000501Y871799D01*
X1017999Y871799D02*
X1017999Y867301D01*
X1000501Y867301D01*
X1000501Y871799D01*
X1000501Y870658D02*
X1017999Y870658D01*
X1017999Y884499D02*
X1000501Y884499D01*
X1017999Y884499D02*
X1017999Y880001D01*
X1000501Y880001D01*
X1000501Y884499D01*
X1000501Y883358D02*
X1017999Y883358D01*
X1017999Y897199D02*
X1000501Y897199D01*
X1017999Y897199D02*
X1017999Y892701D01*
X1000501Y892701D01*
X1000501Y897199D01*
X1000501Y896058D02*
X1017999Y896058D01*
X968899Y897199D02*
X951401Y897199D01*
X968899Y897199D02*
X968899Y892701D01*
X951401Y892701D01*
X951401Y897199D01*
X951401Y896058D02*
X968899Y896058D01*
X968899Y884499D02*
X951401Y884499D01*
X968899Y884499D02*
X968899Y880001D01*
X951401Y880001D01*
X951401Y884499D01*
X951401Y883358D02*
X968899Y883358D01*
X968899Y871799D02*
X951401Y871799D01*
X968899Y871799D02*
X968899Y867301D01*
X951401Y867301D01*
X951401Y871799D01*
X951401Y870658D02*
X968899Y870658D01*
X968899Y859099D02*
X951401Y859099D01*
X968899Y859099D02*
X968899Y854601D01*
X951401Y854601D01*
X951401Y859099D01*
X951401Y857958D02*
X968899Y857958D01*
X968899Y846399D02*
X951401Y846399D01*
X968899Y846399D02*
X968899Y841901D01*
X951401Y841901D01*
X951401Y846399D01*
X951401Y845258D02*
X968899Y845258D01*
X968899Y833699D02*
X951401Y833699D01*
X968899Y833699D02*
X968899Y829201D01*
X951401Y829201D01*
X951401Y833699D01*
X951401Y832558D02*
X968899Y832558D01*
X968899Y820999D02*
X951401Y820999D01*
X968899Y820999D02*
X968899Y816501D01*
X951401Y816501D01*
X951401Y820999D01*
X951401Y819858D02*
X968899Y819858D01*
X968899Y808299D02*
X951401Y808299D01*
X968899Y808299D02*
X968899Y803801D01*
X951401Y803801D01*
X951401Y808299D01*
X951401Y807158D02*
X968899Y807158D01*
D13*
X74300Y910675D03*
X226700Y910675D03*
X226700Y777325D03*
X74300Y777325D03*
D14*
X175900Y742400D03*
X150500Y742400D03*
X125100Y742400D03*
X48900Y844000D03*
X48900Y818600D03*
X48900Y869400D03*
D15*
X173360Y920200D02*
X191140Y920200D01*
X127640Y920200D02*
X109860Y920200D01*
X109860Y965200D02*
X127640Y965200D01*
X173360Y965200D02*
X191140Y965200D01*
D17*
X568600Y944000D03*
D14*
X568600Y969400D03*
X594000Y944000D03*
X594000Y969400D03*
X619400Y944000D03*
X619400Y969400D03*
X644800Y944000D03*
X644800Y969400D03*
X670200Y944000D03*
X670200Y969400D03*
X695600Y944000D03*
X695600Y969400D03*
X721000Y944000D03*
X721000Y969400D03*
X746400Y944000D03*
X746400Y969400D03*
X771800Y944000D03*
X771800Y969400D03*
X797200Y944000D03*
X797200Y969400D03*
X822600Y944000D03*
X822600Y969400D03*
X848000Y944000D03*
X848000Y969400D03*
X873400Y944000D03*
X873400Y969400D03*
X898800Y944000D03*
X898800Y969400D03*
X924200Y944000D03*
X924200Y969400D03*
X949600Y944000D03*
X949600Y969400D03*
X975000Y944000D03*
X975000Y969400D03*
X1000400Y944000D03*
X1000400Y969400D03*
X1025800Y944000D03*
X1025800Y969400D03*
X1051200Y944000D03*
X1051200Y969400D03*
D18*
X87500Y535000D03*
D19*
X87500Y485000D03*
X212500Y535000D03*
X212500Y485000D03*
D20*
X150000Y555000D03*
X150000Y465000D03*
D18*
X1107500Y845000D03*
D19*
X1107500Y795000D03*
X1232500Y845000D03*
X1232500Y795000D03*
D20*
X1170000Y865000D03*
X1170000Y775000D03*
D18*
X1167500Y665000D03*
D19*
X1167500Y615000D03*
X1292500Y665000D03*
X1292500Y615000D03*
D20*
X1230000Y685000D03*
X1230000Y595000D03*
D18*
X1387500Y535000D03*
D19*
X1387500Y485000D03*
X1512500Y535000D03*
X1512500Y485000D03*
D20*
X1450000Y555000D03*
X1450000Y465000D03*
D18*
X307500Y665000D03*
D19*
X307500Y615000D03*
X432500Y665000D03*
X432500Y615000D03*
D20*
X370000Y685000D03*
X370000Y595000D03*
D18*
X367500Y845000D03*
D19*
X367500Y795000D03*
X492500Y845000D03*
X492500Y795000D03*
D20*
X430000Y865000D03*
X430000Y775000D03*
D21*
X512500Y600800D03*
X492500Y600800D03*
D22*
X640000Y875000D03*
X771832Y865000D03*
X805000Y725000D03*
X879468Y780000D03*
X685000Y715000D03*
X615000Y725000D03*
X1040000Y735000D03*
X950000Y725000D03*
X730000Y800000D03*
X575000Y860000D03*
X505000Y700000D03*
X925000Y825000D03*
X835000Y815000D03*
X710000Y855000D03*
X535000Y910000D03*
X610000Y775000D03*
X645000Y800000D03*
D23*
X958750Y795000D03*
X977500Y857500D03*
X911250Y841250D03*
X901250Y851250D03*
X663750Y847500D03*
X622500Y806250D03*
X902500Y628750D03*
X888750Y615000D03*
X1116250Y906250D03*
X977500Y846250D03*
X891250Y797500D03*
X778750Y661250D03*
X408750Y682500D03*
X398750Y692500D03*
X1031250Y842500D03*
X1025000Y850000D03*
X882500Y708750D03*
X813750Y661250D03*
X992500Y921250D03*
X1003750Y910000D03*
X1025000Y821250D03*
X1012500Y787500D03*
X916250Y772500D03*
X906250Y792500D03*
X517500Y801250D03*
X517500Y821250D03*
X1022500Y787500D03*
X1035000Y821250D03*
X492500Y821250D03*
X882500Y657500D03*
X866250Y641250D03*
X660000Y773750D03*
X660000Y753750D03*
X622500Y757500D03*
X656250Y723750D03*
X643750Y707500D03*
X748750Y765000D03*
X735000Y751250D03*
X1010000Y698750D03*
X1020000Y708750D03*
X951250Y757500D03*
X890000Y818750D03*
X860000Y761250D03*
X840000Y781250D03*
X621250Y818750D03*
X656250Y853750D03*
X945000Y851250D03*
X937500Y868750D03*
X945000Y862500D03*
X946250Y888750D03*
X862500Y708750D03*
X885000Y731250D03*
X992500Y821250D03*
X992500Y801250D03*
X862500Y680000D03*
X882500Y680000D03*
X1045000Y821250D03*
X1045000Y787500D03*
X838750Y731250D03*
X860000Y788750D03*
X908750Y888750D03*
X947500Y927500D03*
X1041250Y956250D03*
M02*
