G04 EAGLE Gerber RS-274X export*
G75*
%MOMM*%
%FSLAX34Y34*%
%LPD*%
%INSolderpaste Bottom*%
%IPPOS*%
%AMOC8*
5,1,8,0,0,1.08239X$1,22.5*%
G01*
%ADD10R,1.500000X1.300000*%
%ADD11R,1.000000X1.100000*%
%ADD12R,1.200000X1.200000*%
%ADD13R,1.400000X1.400000*%
%ADD14C,0.040638*%
%ADD15C,0.152400*%
%ADD16R,1.100000X1.000000*%
%ADD17R,1.000000X0.800000*%
%ADD18R,0.700000X1.500000*%
%ADD19R,0.550000X1.200000*%

G36*
X1047151Y586665D02*
X1047151Y586665D01*
X1047207Y586666D01*
X1048168Y586774D01*
X1048169Y586774D01*
X1048171Y586774D01*
X1048334Y586812D01*
X1049247Y587131D01*
X1049248Y587132D01*
X1049250Y587132D01*
X1049401Y587205D01*
X1050219Y587720D01*
X1050220Y587720D01*
X1050222Y587721D01*
X1050353Y587826D01*
X1051036Y588510D01*
X1051037Y588511D01*
X1051038Y588511D01*
X1051143Y588643D01*
X1051657Y589462D01*
X1051657Y589463D01*
X1051658Y589464D01*
X1051731Y589615D01*
X1052050Y590528D01*
X1052051Y590529D01*
X1052051Y590530D01*
X1052088Y590694D01*
X1052196Y591655D01*
X1052195Y591684D01*
X1052201Y591740D01*
X1052201Y598090D01*
X1052199Y598105D01*
X1052200Y598119D01*
X1052197Y598133D01*
X1052198Y598165D01*
X1052090Y599255D01*
X1052084Y599278D01*
X1052061Y599401D01*
X1051743Y600449D01*
X1051733Y600471D01*
X1051686Y600587D01*
X1051170Y601553D01*
X1051155Y601572D01*
X1051087Y601677D01*
X1050392Y602524D01*
X1050374Y602540D01*
X1050286Y602630D01*
X1049439Y603325D01*
X1049419Y603337D01*
X1049315Y603408D01*
X1048349Y603924D01*
X1048326Y603932D01*
X1048211Y603981D01*
X1047163Y604299D01*
X1047139Y604302D01*
X1047017Y604328D01*
X1045927Y604436D01*
X1045903Y604434D01*
X1045777Y604436D01*
X1044687Y604328D01*
X1044664Y604322D01*
X1044541Y604299D01*
X1043493Y603981D01*
X1043471Y603971D01*
X1043355Y603924D01*
X1042389Y603408D01*
X1042370Y603393D01*
X1042265Y603325D01*
X1041418Y602630D01*
X1041402Y602612D01*
X1041312Y602524D01*
X1040617Y601677D01*
X1040605Y601657D01*
X1040534Y601553D01*
X1040018Y600587D01*
X1040010Y600564D01*
X1039961Y600449D01*
X1039643Y599401D01*
X1039640Y599377D01*
X1039614Y599255D01*
X1039506Y598165D01*
X1039508Y598138D01*
X1039503Y598090D01*
X1039503Y592756D01*
X1039507Y592732D01*
X1039504Y592711D01*
X1039507Y592697D01*
X1039508Y592671D01*
X1039641Y591484D01*
X1039642Y591482D01*
X1039642Y591481D01*
X1039679Y591318D01*
X1040074Y590190D01*
X1040074Y590189D01*
X1040075Y590188D01*
X1040148Y590037D01*
X1040783Y589025D01*
X1040784Y589024D01*
X1040785Y589023D01*
X1040889Y588892D01*
X1041734Y588047D01*
X1041735Y588047D01*
X1041736Y588046D01*
X1041867Y587941D01*
X1042879Y587306D01*
X1042880Y587305D01*
X1042881Y587304D01*
X1043032Y587232D01*
X1044160Y586837D01*
X1044161Y586837D01*
X1044162Y586836D01*
X1044326Y586799D01*
X1045513Y586666D01*
X1045542Y586667D01*
X1045598Y586661D01*
X1047122Y586661D01*
X1047151Y586665D01*
G37*
G36*
X976539Y586919D02*
X976539Y586919D01*
X976595Y586920D01*
X977669Y587041D01*
X977670Y587041D01*
X977672Y587041D01*
X977835Y587078D01*
X978855Y587435D01*
X978857Y587436D01*
X978858Y587436D01*
X979009Y587509D01*
X979924Y588084D01*
X979925Y588085D01*
X979926Y588086D01*
X980057Y588191D01*
X980821Y588955D01*
X980822Y588956D01*
X980823Y588957D01*
X980928Y589088D01*
X981503Y590003D01*
X981503Y590004D01*
X981504Y590005D01*
X981577Y590157D01*
X981934Y591177D01*
X981934Y591178D01*
X981934Y591179D01*
X981971Y591343D01*
X982092Y592417D01*
X982091Y592446D01*
X982097Y592502D01*
X982097Y598852D01*
X982093Y598881D01*
X982092Y598937D01*
X981978Y599955D01*
X981977Y599956D01*
X981978Y599957D01*
X981940Y600121D01*
X981602Y601087D01*
X981601Y601088D01*
X981601Y601090D01*
X981528Y601241D01*
X980983Y602108D01*
X980982Y602109D01*
X980982Y602110D01*
X980877Y602241D01*
X980153Y602965D01*
X980152Y602966D01*
X980151Y602967D01*
X980020Y603071D01*
X979153Y603616D01*
X979151Y603616D01*
X979150Y603617D01*
X978999Y603690D01*
X978033Y604028D01*
X978031Y604028D01*
X978030Y604029D01*
X977867Y604066D01*
X976849Y604180D01*
X976820Y604179D01*
X976764Y604185D01*
X974732Y604185D01*
X974703Y604181D01*
X974647Y604180D01*
X973629Y604066D01*
X973628Y604065D01*
X973627Y604066D01*
X973463Y604028D01*
X972497Y603690D01*
X972496Y603689D01*
X972494Y603689D01*
X972343Y603616D01*
X971476Y603071D01*
X971475Y603070D01*
X971474Y603070D01*
X971343Y602965D01*
X970619Y602241D01*
X970618Y602240D01*
X970617Y602239D01*
X970513Y602108D01*
X969968Y601241D01*
X969968Y601239D01*
X969967Y601238D01*
X969894Y601087D01*
X969556Y600121D01*
X969556Y600119D01*
X969555Y600118D01*
X969544Y600071D01*
X969540Y600061D01*
X969538Y600041D01*
X969518Y599955D01*
X969404Y598937D01*
X969405Y598908D01*
X969399Y598852D01*
X969399Y591994D01*
X969403Y591965D01*
X969404Y591909D01*
X969512Y590948D01*
X969512Y590947D01*
X969512Y590945D01*
X969550Y590782D01*
X969869Y589869D01*
X969870Y589868D01*
X969870Y589867D01*
X969943Y589716D01*
X970458Y588897D01*
X970458Y588896D01*
X970459Y588894D01*
X970564Y588764D01*
X971248Y588080D01*
X971249Y588079D01*
X971249Y588078D01*
X971381Y587974D01*
X972200Y587459D01*
X972201Y587459D01*
X972202Y587458D01*
X972353Y587385D01*
X973266Y587066D01*
X973267Y587065D01*
X973268Y587065D01*
X973432Y587028D01*
X974393Y586920D01*
X974422Y586921D01*
X974478Y586915D01*
X976510Y586915D01*
X976539Y586919D01*
G37*
G36*
X987461Y616383D02*
X987461Y616383D01*
X987517Y616384D01*
X988648Y616511D01*
X988649Y616511D01*
X988650Y616511D01*
X988814Y616549D01*
X989888Y616925D01*
X989889Y616925D01*
X989890Y616925D01*
X990041Y616999D01*
X991004Y617604D01*
X991005Y617605D01*
X991007Y617605D01*
X991138Y617710D01*
X991942Y618514D01*
X991943Y618516D01*
X991944Y618516D01*
X992048Y618648D01*
X992654Y619611D01*
X992654Y619612D01*
X992655Y619613D01*
X992727Y619764D01*
X993103Y620838D01*
X993103Y620840D01*
X993104Y620841D01*
X993141Y621004D01*
X993268Y622135D01*
X993268Y622148D01*
X993270Y622295D01*
X993162Y623385D01*
X993156Y623408D01*
X993133Y623531D01*
X992815Y624579D01*
X992805Y624601D01*
X992758Y624717D01*
X992242Y625683D01*
X992227Y625702D01*
X992159Y625807D01*
X991464Y626654D01*
X991446Y626670D01*
X991358Y626760D01*
X990511Y627455D01*
X990491Y627467D01*
X990387Y627538D01*
X989421Y628054D01*
X989398Y628062D01*
X989283Y628111D01*
X988235Y628429D01*
X988211Y628432D01*
X988089Y628458D01*
X986999Y628566D01*
X986972Y628564D01*
X986924Y628569D01*
X983876Y628569D01*
X983847Y628565D01*
X983791Y628564D01*
X982773Y628450D01*
X982772Y628449D01*
X982771Y628450D01*
X982607Y628412D01*
X981641Y628074D01*
X981640Y628073D01*
X981638Y628073D01*
X981487Y628000D01*
X980620Y627455D01*
X980619Y627454D01*
X980618Y627454D01*
X980487Y627349D01*
X979763Y626625D01*
X979762Y626624D01*
X979761Y626623D01*
X979657Y626492D01*
X979112Y625625D01*
X979112Y625623D01*
X979111Y625622D01*
X979038Y625471D01*
X978700Y624505D01*
X978700Y624503D01*
X978699Y624502D01*
X978662Y624339D01*
X978548Y623321D01*
X978549Y623292D01*
X978543Y623236D01*
X978543Y622728D01*
X978547Y622702D01*
X978546Y622653D01*
X978654Y621563D01*
X978660Y621540D01*
X978683Y621417D01*
X979001Y620369D01*
X979011Y620347D01*
X979058Y620231D01*
X979574Y619265D01*
X979589Y619246D01*
X979657Y619141D01*
X980352Y618294D01*
X980370Y618278D01*
X980458Y618188D01*
X981305Y617493D01*
X981325Y617481D01*
X981429Y617410D01*
X982395Y616894D01*
X982418Y616886D01*
X982533Y616837D01*
X983581Y616519D01*
X983605Y616516D01*
X983727Y616490D01*
X984817Y616382D01*
X984844Y616384D01*
X984892Y616379D01*
X987432Y616379D01*
X987461Y616383D01*
G37*
G36*
X1037499Y616383D02*
X1037499Y616383D01*
X1037555Y616384D01*
X1038629Y616505D01*
X1038630Y616505D01*
X1038632Y616505D01*
X1038795Y616542D01*
X1039815Y616899D01*
X1039817Y616900D01*
X1039818Y616900D01*
X1039969Y616973D01*
X1040884Y617548D01*
X1040885Y617549D01*
X1040886Y617550D01*
X1041017Y617655D01*
X1041781Y618419D01*
X1041782Y618420D01*
X1041783Y618421D01*
X1041888Y618552D01*
X1042463Y619467D01*
X1042463Y619468D01*
X1042464Y619469D01*
X1042537Y619621D01*
X1042894Y620641D01*
X1042894Y620642D01*
X1042894Y620643D01*
X1042931Y620807D01*
X1043052Y621881D01*
X1043052Y621894D01*
X1043054Y622041D01*
X1042941Y623180D01*
X1042935Y623204D01*
X1042912Y623327D01*
X1042580Y624423D01*
X1042569Y624444D01*
X1042523Y624560D01*
X1041983Y625571D01*
X1041968Y625590D01*
X1041900Y625695D01*
X1041173Y626580D01*
X1041155Y626596D01*
X1041068Y626685D01*
X1040183Y627412D01*
X1040162Y627424D01*
X1040059Y627495D01*
X1039048Y628035D01*
X1039026Y628043D01*
X1038911Y628092D01*
X1037815Y628424D01*
X1037791Y628427D01*
X1037668Y628453D01*
X1036529Y628566D01*
X1036502Y628564D01*
X1036454Y628569D01*
X1033914Y628569D01*
X1033885Y628565D01*
X1033829Y628564D01*
X1032755Y628443D01*
X1032754Y628443D01*
X1032752Y628443D01*
X1032589Y628406D01*
X1031569Y628049D01*
X1031567Y628048D01*
X1031566Y628048D01*
X1031415Y627975D01*
X1030500Y627400D01*
X1030499Y627399D01*
X1030498Y627398D01*
X1030367Y627293D01*
X1029603Y626529D01*
X1029602Y626528D01*
X1029601Y626527D01*
X1029496Y626396D01*
X1028921Y625481D01*
X1028921Y625480D01*
X1028920Y625479D01*
X1028847Y625327D01*
X1028490Y624307D01*
X1028490Y624306D01*
X1028490Y624305D01*
X1028453Y624141D01*
X1028332Y623067D01*
X1028332Y623054D01*
X1028330Y622907D01*
X1028443Y621768D01*
X1028449Y621744D01*
X1028472Y621621D01*
X1028804Y620525D01*
X1028815Y620504D01*
X1028861Y620388D01*
X1029401Y619378D01*
X1029416Y619358D01*
X1029484Y619253D01*
X1030211Y618368D01*
X1030229Y618352D01*
X1030316Y618263D01*
X1031201Y617536D01*
X1031222Y617524D01*
X1031326Y617453D01*
X1032336Y616913D01*
X1032358Y616906D01*
X1032473Y616856D01*
X1033569Y616524D01*
X1033593Y616521D01*
X1033716Y616495D01*
X1034855Y616382D01*
X1034882Y616384D01*
X1034930Y616379D01*
X1037470Y616379D01*
X1037499Y616383D01*
G37*
D10*
X783000Y748400D03*
X783000Y729400D03*
X688200Y748400D03*
X688200Y729400D03*
D11*
X632000Y745800D03*
X632000Y728800D03*
D10*
X751400Y748400D03*
X751400Y729400D03*
X719800Y748400D03*
X719800Y729400D03*
D12*
X1099500Y598300D03*
X1078500Y598300D03*
D13*
X842200Y841300D03*
X879200Y841300D03*
D14*
X1022179Y629002D02*
X1025837Y629002D01*
X1025837Y615946D01*
X1022179Y615946D01*
X1022179Y629002D01*
X1022179Y616332D02*
X1025837Y616332D01*
X1025837Y616718D02*
X1022179Y616718D01*
X1022179Y617104D02*
X1025837Y617104D01*
X1025837Y617490D02*
X1022179Y617490D01*
X1022179Y617876D02*
X1025837Y617876D01*
X1025837Y618262D02*
X1022179Y618262D01*
X1022179Y618648D02*
X1025837Y618648D01*
X1025837Y619034D02*
X1022179Y619034D01*
X1022179Y619420D02*
X1025837Y619420D01*
X1025837Y619806D02*
X1022179Y619806D01*
X1022179Y620192D02*
X1025837Y620192D01*
X1025837Y620578D02*
X1022179Y620578D01*
X1022179Y620964D02*
X1025837Y620964D01*
X1025837Y621350D02*
X1022179Y621350D01*
X1022179Y621736D02*
X1025837Y621736D01*
X1025837Y622122D02*
X1022179Y622122D01*
X1022179Y622508D02*
X1025837Y622508D01*
X1025837Y622894D02*
X1022179Y622894D01*
X1022179Y623280D02*
X1025837Y623280D01*
X1025837Y623666D02*
X1022179Y623666D01*
X1022179Y624052D02*
X1025837Y624052D01*
X1025837Y624438D02*
X1022179Y624438D01*
X1022179Y624824D02*
X1025837Y624824D01*
X1025837Y625210D02*
X1022179Y625210D01*
X1022179Y625596D02*
X1025837Y625596D01*
X1025837Y625982D02*
X1022179Y625982D01*
X1022179Y626368D02*
X1025837Y626368D01*
X1025837Y626754D02*
X1022179Y626754D01*
X1022179Y627140D02*
X1025837Y627140D01*
X1025837Y627526D02*
X1022179Y627526D01*
X1022179Y627912D02*
X1025837Y627912D01*
X1025837Y628298D02*
X1022179Y628298D01*
X1022179Y628684D02*
X1025837Y628684D01*
X1019233Y629002D02*
X1015575Y629002D01*
X1019233Y629002D02*
X1019233Y615946D01*
X1015575Y615946D01*
X1015575Y629002D01*
X1015575Y616332D02*
X1019233Y616332D01*
X1019233Y616718D02*
X1015575Y616718D01*
X1015575Y617104D02*
X1019233Y617104D01*
X1019233Y617490D02*
X1015575Y617490D01*
X1015575Y617876D02*
X1019233Y617876D01*
X1019233Y618262D02*
X1015575Y618262D01*
X1015575Y618648D02*
X1019233Y618648D01*
X1019233Y619034D02*
X1015575Y619034D01*
X1015575Y619420D02*
X1019233Y619420D01*
X1019233Y619806D02*
X1015575Y619806D01*
X1015575Y620192D02*
X1019233Y620192D01*
X1019233Y620578D02*
X1015575Y620578D01*
X1015575Y620964D02*
X1019233Y620964D01*
X1019233Y621350D02*
X1015575Y621350D01*
X1015575Y621736D02*
X1019233Y621736D01*
X1019233Y622122D02*
X1015575Y622122D01*
X1015575Y622508D02*
X1019233Y622508D01*
X1019233Y622894D02*
X1015575Y622894D01*
X1015575Y623280D02*
X1019233Y623280D01*
X1019233Y623666D02*
X1015575Y623666D01*
X1015575Y624052D02*
X1019233Y624052D01*
X1019233Y624438D02*
X1015575Y624438D01*
X1015575Y624824D02*
X1019233Y624824D01*
X1019233Y625210D02*
X1015575Y625210D01*
X1015575Y625596D02*
X1019233Y625596D01*
X1019233Y625982D02*
X1015575Y625982D01*
X1015575Y626368D02*
X1019233Y626368D01*
X1019233Y626754D02*
X1015575Y626754D01*
X1015575Y627140D02*
X1019233Y627140D01*
X1019233Y627526D02*
X1015575Y627526D01*
X1015575Y627912D02*
X1019233Y627912D01*
X1019233Y628298D02*
X1015575Y628298D01*
X1015575Y628684D02*
X1019233Y628684D01*
X1012629Y629002D02*
X1008971Y629002D01*
X1012629Y629002D02*
X1012629Y615946D01*
X1008971Y615946D01*
X1008971Y629002D01*
X1008971Y616332D02*
X1012629Y616332D01*
X1012629Y616718D02*
X1008971Y616718D01*
X1008971Y617104D02*
X1012629Y617104D01*
X1012629Y617490D02*
X1008971Y617490D01*
X1008971Y617876D02*
X1012629Y617876D01*
X1012629Y618262D02*
X1008971Y618262D01*
X1008971Y618648D02*
X1012629Y618648D01*
X1012629Y619034D02*
X1008971Y619034D01*
X1008971Y619420D02*
X1012629Y619420D01*
X1012629Y619806D02*
X1008971Y619806D01*
X1008971Y620192D02*
X1012629Y620192D01*
X1012629Y620578D02*
X1008971Y620578D01*
X1008971Y620964D02*
X1012629Y620964D01*
X1012629Y621350D02*
X1008971Y621350D01*
X1008971Y621736D02*
X1012629Y621736D01*
X1012629Y622122D02*
X1008971Y622122D01*
X1008971Y622508D02*
X1012629Y622508D01*
X1012629Y622894D02*
X1008971Y622894D01*
X1008971Y623280D02*
X1012629Y623280D01*
X1012629Y623666D02*
X1008971Y623666D01*
X1008971Y624052D02*
X1012629Y624052D01*
X1012629Y624438D02*
X1008971Y624438D01*
X1008971Y624824D02*
X1012629Y624824D01*
X1012629Y625210D02*
X1008971Y625210D01*
X1008971Y625596D02*
X1012629Y625596D01*
X1012629Y625982D02*
X1008971Y625982D01*
X1008971Y626368D02*
X1012629Y626368D01*
X1012629Y626754D02*
X1008971Y626754D01*
X1008971Y627140D02*
X1012629Y627140D01*
X1012629Y627526D02*
X1008971Y627526D01*
X1008971Y627912D02*
X1012629Y627912D01*
X1012629Y628298D02*
X1008971Y628298D01*
X1008971Y628684D02*
X1012629Y628684D01*
X1006025Y629002D02*
X1002367Y629002D01*
X1006025Y629002D02*
X1006025Y615946D01*
X1002367Y615946D01*
X1002367Y629002D01*
X1002367Y616332D02*
X1006025Y616332D01*
X1006025Y616718D02*
X1002367Y616718D01*
X1002367Y617104D02*
X1006025Y617104D01*
X1006025Y617490D02*
X1002367Y617490D01*
X1002367Y617876D02*
X1006025Y617876D01*
X1006025Y618262D02*
X1002367Y618262D01*
X1002367Y618648D02*
X1006025Y618648D01*
X1006025Y619034D02*
X1002367Y619034D01*
X1002367Y619420D02*
X1006025Y619420D01*
X1006025Y619806D02*
X1002367Y619806D01*
X1002367Y620192D02*
X1006025Y620192D01*
X1006025Y620578D02*
X1002367Y620578D01*
X1002367Y620964D02*
X1006025Y620964D01*
X1006025Y621350D02*
X1002367Y621350D01*
X1002367Y621736D02*
X1006025Y621736D01*
X1006025Y622122D02*
X1002367Y622122D01*
X1002367Y622508D02*
X1006025Y622508D01*
X1006025Y622894D02*
X1002367Y622894D01*
X1002367Y623280D02*
X1006025Y623280D01*
X1006025Y623666D02*
X1002367Y623666D01*
X1002367Y624052D02*
X1006025Y624052D01*
X1006025Y624438D02*
X1002367Y624438D01*
X1002367Y624824D02*
X1006025Y624824D01*
X1006025Y625210D02*
X1002367Y625210D01*
X1002367Y625596D02*
X1006025Y625596D01*
X1006025Y625982D02*
X1002367Y625982D01*
X1002367Y626368D02*
X1006025Y626368D01*
X1006025Y626754D02*
X1002367Y626754D01*
X1002367Y627140D02*
X1006025Y627140D01*
X1006025Y627526D02*
X1002367Y627526D01*
X1002367Y627912D02*
X1006025Y627912D01*
X1006025Y628298D02*
X1002367Y628298D01*
X1002367Y628684D02*
X1006025Y628684D01*
X999421Y629002D02*
X995763Y629002D01*
X999421Y629002D02*
X999421Y615946D01*
X995763Y615946D01*
X995763Y629002D01*
X995763Y616332D02*
X999421Y616332D01*
X999421Y616718D02*
X995763Y616718D01*
X995763Y617104D02*
X999421Y617104D01*
X999421Y617490D02*
X995763Y617490D01*
X995763Y617876D02*
X999421Y617876D01*
X999421Y618262D02*
X995763Y618262D01*
X995763Y618648D02*
X999421Y618648D01*
X999421Y619034D02*
X995763Y619034D01*
X995763Y619420D02*
X999421Y619420D01*
X999421Y619806D02*
X995763Y619806D01*
X995763Y620192D02*
X999421Y620192D01*
X999421Y620578D02*
X995763Y620578D01*
X995763Y620964D02*
X999421Y620964D01*
X999421Y621350D02*
X995763Y621350D01*
X995763Y621736D02*
X999421Y621736D01*
X999421Y622122D02*
X995763Y622122D01*
X995763Y622508D02*
X999421Y622508D01*
X999421Y622894D02*
X995763Y622894D01*
X995763Y623280D02*
X999421Y623280D01*
X999421Y623666D02*
X995763Y623666D01*
X995763Y624052D02*
X999421Y624052D01*
X999421Y624438D02*
X995763Y624438D01*
X995763Y624824D02*
X999421Y624824D01*
X999421Y625210D02*
X995763Y625210D01*
X995763Y625596D02*
X999421Y625596D01*
X999421Y625982D02*
X995763Y625982D01*
X995763Y626368D02*
X999421Y626368D01*
X999421Y626754D02*
X995763Y626754D01*
X995763Y627140D02*
X999421Y627140D01*
X999421Y627526D02*
X995763Y627526D01*
X995763Y627912D02*
X999421Y627912D01*
X999421Y628298D02*
X995763Y628298D01*
X995763Y628684D02*
X999421Y628684D01*
D15*
X1014102Y602408D02*
X1027818Y602408D01*
X1027818Y588692D01*
X1014102Y588692D01*
X1014102Y602408D01*
X1014102Y590140D02*
X1027818Y590140D01*
X1027818Y591588D02*
X1014102Y591588D01*
X1014102Y593036D02*
X1027818Y593036D01*
X1027818Y594484D02*
X1014102Y594484D01*
X1014102Y595932D02*
X1027818Y595932D01*
X1027818Y597380D02*
X1014102Y597380D01*
X1014102Y598828D02*
X1027818Y598828D01*
X1027818Y600276D02*
X1014102Y600276D01*
X1014102Y601724D02*
X1027818Y601724D01*
X1007498Y602408D02*
X993782Y602408D01*
X1007498Y602408D02*
X1007498Y588692D01*
X993782Y588692D01*
X993782Y602408D01*
X993782Y590140D02*
X1007498Y590140D01*
X1007498Y591588D02*
X993782Y591588D01*
X993782Y593036D02*
X1007498Y593036D01*
X1007498Y594484D02*
X993782Y594484D01*
X993782Y595932D02*
X1007498Y595932D01*
X1007498Y597380D02*
X993782Y597380D01*
X993782Y598828D02*
X1007498Y598828D01*
X1007498Y600276D02*
X993782Y600276D01*
X993782Y601724D02*
X1007498Y601724D01*
D12*
X894600Y601700D03*
X915600Y601700D03*
D11*
X889400Y720200D03*
X872400Y720200D03*
X889200Y694700D03*
X872200Y694700D03*
X1134200Y607400D03*
X1134200Y624400D03*
X572400Y743300D03*
X572400Y726300D03*
X916000Y642000D03*
X899000Y642000D03*
X889500Y745700D03*
X872500Y745700D03*
X599200Y726500D03*
X599200Y743500D03*
D16*
X889500Y768500D03*
X872500Y768500D03*
D11*
X546000Y726500D03*
X546000Y743500D03*
D17*
X867500Y596400D03*
X867500Y618400D03*
X794500Y618400D03*
X794500Y596400D03*
D18*
X808500Y624900D03*
X823500Y624900D03*
X853500Y624900D03*
D19*
X628200Y857401D03*
X637700Y857401D03*
X647200Y857401D03*
X647200Y831399D03*
X628200Y831399D03*
X742300Y857401D03*
X751800Y857401D03*
X761300Y857401D03*
X761300Y831399D03*
X742300Y831399D03*
D11*
X832000Y745600D03*
X849000Y745600D03*
X832000Y694700D03*
X849000Y694700D03*
X832000Y720100D03*
X849000Y720100D03*
M02*
