M48
;GenerationSoftware,Autodesk,EAGLE,9.6.2*%
;CreationDate,2021-03-30T11:22:37Z*%
FMAT,2
ICI,OFF
METRIC,TZ,000.000
T11C0.350
T10C0.600
T9C0.800
T8C0.813
T7C1.000
T6C1.016
T5C1.118
T4C1.500
T3C1.880
T2C3.000
T1C3.302
%
G90
M71
T1
X47326Y46900
T2
X25950Y83838
X10710Y54120
X2600Y83968
X-12640Y54250
T3
X51430Y86570
X64130Y89110
X64130Y84030
X51430Y81871
X51430Y91269
T4
X26966Y49548
X9694Y89172
X26966Y89172
X9694Y49548
X3616Y49678
X-13656Y49678
X-13656Y89302
X3616Y89302
T5
X32340Y44360
X32340Y46900
X32340Y49440
T6
X41940Y97470
X51800Y37200
X44480Y97470
X44480Y100010
X41940Y100010
X-8420Y37200
X-13500Y37200
X-10960Y37200
X-5880Y37200
X-3340Y37200
X-800Y37200
X3800Y37200
X6340Y37200
X8880Y37200
X11420Y37200
X13960Y37200
X16500Y37200
X21300Y37200
X23840Y37200
X26380Y37200
X16540Y97470
X28920Y37200
X31460Y37200
X34000Y37200
X39100Y37200
X41640Y37200
X44180Y37200
X46720Y37200
X49260Y37200
X-3780Y97470
X-3780Y100010
X-1240Y97470
X-1240Y100010
X1300Y97470
X1300Y100010
X3840Y97470
X3840Y100010
X6380Y97470
X6380Y100010
X8920Y97470
X8920Y100010
X11460Y97470
X11460Y100010
X14000Y97470
X14000Y100010
X16540Y100010
X19080Y97470
X19080Y100010
X21620Y97470
X21620Y100010
X24160Y97470
X24160Y100010
X26700Y97470
X26700Y100010
X29240Y97470
X29240Y100010
X31780Y97470
X31780Y100010
X34320Y97470
X34320Y100010
X36860Y97470
X36860Y100010
X39400Y97470
X39400Y100010
T7
X-23390Y66160
X-23390Y63620
X-23390Y61080
X-23390Y75460
X-23390Y72920
X-23390Y70380
T8
X53790Y77230
X53790Y72150
X61950Y65780
X61950Y63240
X61970Y58170
X61970Y75720
X61970Y55630
X53790Y60490
X61870Y49770
X61870Y47230
X61970Y73180
X53790Y67870
X53790Y62790
X53790Y55410
X53790Y53060
X53790Y47980
T9
X-24890Y84250
X-24890Y82250
X-24830Y54070
X-24830Y52070
T10
X42420Y89300
X44960Y89300
X34800Y76800
X37340Y76800
X39880Y76800
X42420Y76800
X44960Y76800
X34900Y70600
X39980Y70600
X42520Y70600
X45060Y70600
X34900Y58100
X37440Y58100
X39980Y58100
X42520Y58100
X45060Y58100
X37340Y89300
X34800Y89300
X37440Y70600
X39880Y89300
T11
X36644Y88105
X31442Y90593
X16852Y92290
X1244Y94665
X49085Y89914
X13685Y90480
X9500Y94665
X18662Y93194
X32460Y90593
X19001Y72950
X8709Y62657
X21602Y40037
X11197Y41960
X9387Y41168
X49877Y89349
X49312Y92629
X22394Y88444
X113Y71592
X10858Y92290
X12215Y93647
X22000Y85500
X13233Y94665
X6334Y64354
X-2375Y75098
X-2375Y90819
X26239Y80301
X43091Y46145
X25447Y91385
X29406Y78944
X38793Y42865
X-3167Y50782
X47050Y93421
X39472Y62997
X34722Y47276
X18662Y94212
X22394Y90480
X23864Y40037
X339Y90141
X-679Y89123
X-679Y76795
X-2375Y94665
X12667Y90480
M30