M48
;GenerationSoftware,Autodesk,EAGLE,9.6.2*%
;CreationDate,2021-03-30T01:07:46Z*%
FMAT,2
ICI,OFF
METRIC,TZ,000.000
T10C0.300
T9C0.700
T8C0.800
T7C0.889
T6C0.900
T5C1.000
T4C1.100
T3C1.250
T2C1.397
T1C1.850
%
G90
M71
T1
X145000Y46500
X43000Y77500
X43000Y86500
X37000Y59500
X15000Y55500
X15000Y46500
X37000Y68500
X117000Y86500
X117000Y77500
X123000Y68500
X123000Y59500
X145000Y55500
T2
X137350Y91067
X7430Y77733
X22670Y77733
X22670Y91067
X7430Y91067
X137350Y77733
X152590Y77733
X152590Y91067
T3
X110750Y79500
X110750Y84500
X21250Y48500
X8750Y48500
X8750Y53500
X21250Y53500
X123250Y79500
X138750Y48500
X138750Y53500
X129250Y61500
X129250Y66500
X116750Y61500
X116750Y66500
X123250Y84500
X49250Y79500
X49250Y84500
X36750Y79500
X36750Y84500
X43250Y61500
X43250Y66500
X30750Y61500
X30750Y66500
X151250Y48500
X151250Y53500
T4
X141795Y96520
X141795Y92020
X148145Y92020
X11875Y92020
X11875Y96520
X18225Y96520
X18225Y92020
X148145Y96520
T5
X105120Y92940
X79720Y92940
X56860Y90400
X56860Y92940
X59400Y90400
X59400Y92940
X61940Y90400
X61940Y92940
X64480Y90400
X64480Y92940
X67020Y90400
X67020Y92940
X69560Y90400
X69560Y92940
X72100Y90400
X72100Y92940
X74640Y90400
X74640Y92940
X77180Y90400
X77180Y92940
X79720Y90400
X82260Y90400
X82260Y92940
X84800Y90400
X84800Y92940
X87340Y90400
X87340Y92940
X89880Y90400
X89880Y92940
X92420Y90400
X92420Y92940
X94960Y90400
X94960Y92940
X97500Y90400
X97500Y92940
X100040Y90400
X100040Y92940
X102580Y90400
X102580Y92940
X105120Y90400
T6
X90600Y60740
X93600Y60740
T7
X17590Y74240
X15050Y74240
X12510Y74240
X4890Y84400
X4890Y81860
X4890Y86940
X147510Y74240
X144970Y74240
X142430Y74240
X134810Y84400
X134810Y81860
X134810Y86940
T8
X78750Y60080
X80750Y60080
T9
X98718Y62247
X103569Y62247
X103442Y62247
X97575Y59301
X98616Y62247
X98464Y62247
X103696Y62247
X97575Y59555
X104585Y59530
X104585Y59301
X97575Y59809
X104585Y59809
T10
X96000Y87125
X94875Y83250
X93500Y74375
X84500Y68750
X80000Y64250
X95000Y84375
X95000Y87125
X91000Y91875
X91125Y95500
X88875Y97750
X97000Y84375
X99500Y86875
X98875Y91875
X98750Y95500
X97250Y97000
X76375Y79500
X55625Y80625
X57625Y82625
X106125Y68500
X48875Y87000
X104500Y80250
X54250Y84625
X51875Y87000
X88875Y87625
X88875Y81875
X81750Y84375
X78250Y87875
X58125Y96125
X103750Y79000
X56750Y97500
X74375Y81500
X81875Y82750
X77500Y87125
X49875Y86000
X86500Y82000
X86500Y87125
X106125Y89125
X108000Y87250
X87875Y82000
X87875Y87625
X86125Y94875
X76250Y83125
X84500Y74875
X96875Y77750
X87125Y95875
X89375Y77000
X77250Y83375
X84750Y75875
X85125Y88125
X88375Y77000
X82000Y60875
X84500Y63375
X58000Y85125
X50250Y77375
X58000Y78875
X85125Y87125
X81750Y73750
X84500Y73875
X95750Y75125
X97625Y77000
X59375Y76250
X61250Y74375
X81750Y65000
X84500Y65250
X104250Y66625
X96000Y84375
X62000Y75000
M30