M48
;GenerationSoftware,Autodesk,EAGLE,9.6.2*%
;CreationDate,2021-03-30T06:25:25Z*%
FMAT,2
ICI,OFF
METRIC,TZ,000.000
T11C0.300
T10C0.350
T9C0.700
T8C0.800
T7C0.889
T6C0.900
T5C1.000
T4C1.100
T3C1.250
T2C1.397
T1C1.850
%
G90
M71
T1
X117000Y86500
X117000Y77500
X15000Y46500
X15000Y55500
X145000Y55500
X123000Y59500
X123000Y68500
X145000Y46500
X37000Y68500
X37000Y59500
X43000Y86500
X43000Y77500
T2
X152590Y91067
X7430Y77733
X22670Y77733
X22670Y91067
X7430Y91067
X137350Y91067
X137350Y77733
X152590Y77733
T3
X123250Y84500
X110750Y84500
X21250Y48500
X21250Y53500
X8750Y48500
X8750Y53500
X110750Y79500
X138750Y53500
X129250Y61500
X129250Y66500
X116750Y61500
X116750Y66500
X123250Y79500
X138750Y48500
X151250Y53500
X151250Y48500
X30750Y66500
X30750Y61500
X43250Y66500
X43250Y61500
X36750Y84500
X36750Y79500
X49250Y84500
X49250Y79500
T4
X148145Y92020
X141795Y96520
X148145Y96520
X18225Y92020
X18225Y96520
X11875Y92020
X141795Y92020
X11875Y96520
T5
X56860Y96940
X56860Y94400
X102580Y96940
X105120Y96940
X105120Y94400
X102580Y94400
X100040Y96940
X100040Y94400
X97500Y96940
X97500Y94400
X69560Y94400
X94960Y96940
X94960Y94400
X92420Y96940
X92420Y94400
X89880Y96940
X89880Y94400
X74640Y96940
X87340Y96940
X87340Y94400
X84800Y96940
X84800Y94400
X82260Y96940
X82260Y94400
X79720Y96940
X79720Y94400
X77180Y96940
X77180Y94400
X74640Y94400
X72100Y96940
X72100Y94400
X69560Y96940
X67020Y96940
X67020Y94400
X64480Y96940
X64480Y94400
X61940Y96940
X61940Y94400
X59400Y96940
X59400Y94400
T6
X84600Y60740
X81600Y60740
T7
X4890Y81860
X4890Y84400
X134810Y86940
X134810Y81860
X134810Y84400
X142430Y74240
X144970Y74240
X147510Y74240
X15050Y74240
X12510Y74240
X17590Y74240
X4890Y86940
T8
X51250Y60080
X49250Y60080
T9
X103569Y62247
X98718Y62247
X98464Y62247
X98616Y62247
X104585Y59809
X97575Y59809
X104585Y59301
X104585Y59530
X97575Y59301
X97575Y59555
X103696Y62247
X103442Y62247
T10
X53500Y91000
X64500Y80000
X61000Y77500
X71000Y85500
X83500Y81500
X92500Y82500
X50500Y70000
X57500Y86000
X73000Y80000
X95000Y72500
X104000Y73500
X61500Y72500
X68500Y71500
X87947Y78000
X80500Y72500
X77183Y86500
X64000Y87500
T11
X66000Y75375
X66000Y77375
X86625Y64125
X88250Y65750
X49250Y82125
X103500Y82125
X102250Y78750
X51750Y82125
X51750Y80125
X90625Y79250
X91625Y77250
X101250Y78750
X102500Y82125
X100375Y91000
X81375Y66125
X88250Y70875
X102500Y85000
X103125Y84250
X39875Y69250
X40875Y68250
X77875Y66125
X89125Y79750
X97750Y84625
X99250Y92125
X90250Y62875
X62250Y80625
X66375Y84750
X90125Y85125
X91125Y84125
X97750Y85750
X95875Y79500
X93750Y86875
X94500Y85125
X88875Y61500
X65625Y85375
X62125Y81875
X84000Y78125
X111625Y90625
X83875Y73125
X86000Y76125
X89000Y81875
X95125Y75750
X102000Y70875
X101000Y69875
X73500Y75125
X74875Y76500
X64375Y70750
X65625Y72375
X62250Y75750
X104125Y95625
X94750Y92750
X90875Y88875
X86000Y78875
X104500Y78750
X104500Y82125
X88250Y68000
X86250Y68000
X99250Y80125
X99250Y82125
X88500Y73125
X86250Y70875
X94625Y88875
X94500Y86250
M30