G04 EAGLE Gerber RS-274X export*
G75*
%MOMM*%
%FSLAX34Y34*%
%LPD*%
%INBottom Copper*%
%IPPOS*%
%AMOC8*
5,1,8,0,0,1.08239X$1,22.5*%
G01*
%ADD10C,1.422400*%
%ADD11C,1.879600*%
%ADD12P,1.814519X8X22.500000*%
%ADD13P,1.429621X8X112.500000*%
%ADD14P,1.429621X8X292.500000*%
%ADD15R,2.500000X2.500000*%
%ADD16C,2.819400*%
%ADD17C,1.508000*%
%ADD18C,1.676400*%
%ADD19P,1.539592X8X112.500000*%
%ADD20C,1.000000*%
%ADD21C,0.400000*%
%ADD22C,0.756400*%

G36*
X857524Y299013D02*
X857524Y299013D01*
X857620Y299029D01*
X857716Y299038D01*
X857740Y299049D01*
X857766Y299053D01*
X857852Y299098D01*
X857941Y299138D01*
X857960Y299156D01*
X857984Y299168D01*
X858051Y299239D01*
X858122Y299304D01*
X858135Y299327D01*
X858153Y299347D01*
X858194Y299435D01*
X858241Y299520D01*
X858245Y299546D01*
X858256Y299570D01*
X858267Y299666D01*
X858284Y299762D01*
X858281Y299788D01*
X858283Y299814D01*
X858263Y299909D01*
X858249Y300005D01*
X858237Y300029D01*
X858231Y300055D01*
X858181Y300138D01*
X858137Y300224D01*
X858118Y300243D01*
X858105Y300266D01*
X858031Y300328D01*
X857961Y300397D01*
X857932Y300413D01*
X857918Y300425D01*
X857887Y300438D01*
X857815Y300478D01*
X855451Y301457D01*
X851057Y305851D01*
X848678Y311593D01*
X848678Y317807D01*
X851057Y323549D01*
X855451Y327943D01*
X861193Y330322D01*
X867407Y330322D01*
X873149Y327943D01*
X877543Y323549D01*
X879922Y317807D01*
X879922Y311593D01*
X877543Y305851D01*
X873149Y301457D01*
X870808Y300487D01*
X870725Y300435D01*
X870639Y300390D01*
X870621Y300371D01*
X870599Y300357D01*
X870537Y300282D01*
X870470Y300211D01*
X870459Y300188D01*
X870442Y300168D01*
X870407Y300077D01*
X870366Y299988D01*
X870363Y299962D01*
X870354Y299938D01*
X870350Y299841D01*
X870339Y299744D01*
X870345Y299718D01*
X870344Y299692D01*
X870371Y299598D01*
X870392Y299503D01*
X870405Y299481D01*
X870412Y299456D01*
X870468Y299376D01*
X870518Y299292D01*
X870538Y299275D01*
X870552Y299254D01*
X870631Y299196D01*
X870705Y299132D01*
X870729Y299123D01*
X870750Y299107D01*
X870843Y299077D01*
X870933Y299041D01*
X870965Y299037D01*
X870984Y299031D01*
X871017Y299031D01*
X871100Y299022D01*
X908239Y299048D01*
X908335Y299064D01*
X908432Y299073D01*
X908456Y299084D01*
X908482Y299088D01*
X908568Y299133D01*
X908657Y299173D01*
X908676Y299191D01*
X908699Y299203D01*
X908766Y299274D01*
X908838Y299339D01*
X908850Y299362D01*
X908869Y299382D01*
X908909Y299470D01*
X908956Y299555D01*
X908961Y299581D01*
X908972Y299605D01*
X908983Y299701D01*
X909000Y299797D01*
X908996Y299823D01*
X908999Y299849D01*
X908978Y299944D01*
X908964Y300040D01*
X908952Y300064D01*
X908947Y300089D01*
X908897Y300173D01*
X908853Y300259D01*
X908834Y300278D01*
X908820Y300301D01*
X908747Y300363D01*
X908677Y300432D01*
X908648Y300448D01*
X908633Y300460D01*
X908603Y300473D01*
X908530Y300512D01*
X906251Y301457D01*
X901857Y305851D01*
X899478Y311593D01*
X899478Y317807D01*
X901857Y323549D01*
X906251Y327943D01*
X911993Y330322D01*
X918207Y330322D01*
X923949Y327943D01*
X928343Y323549D01*
X930722Y317807D01*
X930722Y311593D01*
X928343Y305851D01*
X923949Y301457D01*
X921693Y300522D01*
X921610Y300470D01*
X921523Y300425D01*
X921506Y300406D01*
X921484Y300392D01*
X921421Y300317D01*
X921354Y300246D01*
X921343Y300223D01*
X921327Y300203D01*
X921292Y300112D01*
X921251Y300023D01*
X921248Y299997D01*
X921239Y299973D01*
X921234Y299876D01*
X921224Y299779D01*
X921229Y299753D01*
X921228Y299727D01*
X921255Y299634D01*
X921276Y299538D01*
X921290Y299516D01*
X921297Y299491D01*
X921352Y299411D01*
X921403Y299327D01*
X921422Y299311D01*
X921437Y299289D01*
X921516Y299231D01*
X921590Y299168D01*
X921614Y299158D01*
X921634Y299142D01*
X921727Y299112D01*
X921818Y299076D01*
X921850Y299072D01*
X921868Y299066D01*
X921901Y299067D01*
X921985Y299057D01*
X1061079Y299153D01*
X1061098Y299156D01*
X1061117Y299154D01*
X1061219Y299176D01*
X1061321Y299193D01*
X1061339Y299202D01*
X1061358Y299206D01*
X1061447Y299260D01*
X1061539Y299308D01*
X1061552Y299323D01*
X1061569Y299333D01*
X1061636Y299412D01*
X1061708Y299487D01*
X1061716Y299505D01*
X1061729Y299520D01*
X1061768Y299616D01*
X1061811Y299710D01*
X1061813Y299729D01*
X1061821Y299748D01*
X1061839Y299914D01*
X1061839Y988071D01*
X1061836Y988090D01*
X1061838Y988111D01*
X1061816Y988212D01*
X1061800Y988313D01*
X1061790Y988331D01*
X1061786Y988351D01*
X1061733Y988440D01*
X1061684Y988531D01*
X1061670Y988545D01*
X1061659Y988562D01*
X1061581Y988629D01*
X1061506Y988700D01*
X1061488Y988709D01*
X1061472Y988722D01*
X1061377Y988760D01*
X1061283Y988804D01*
X1061263Y988806D01*
X1061244Y988813D01*
X1061077Y988832D01*
X923085Y988737D01*
X923015Y988725D01*
X922943Y988723D01*
X922894Y988705D01*
X922843Y988697D01*
X922780Y988663D01*
X922712Y988639D01*
X922672Y988606D01*
X922625Y988582D01*
X922576Y988530D01*
X922520Y988485D01*
X922492Y988441D01*
X922456Y988403D01*
X922426Y988338D01*
X922387Y988278D01*
X922375Y988227D01*
X922353Y988180D01*
X922345Y988109D01*
X922327Y988040D01*
X922331Y987987D01*
X922326Y987935D01*
X922341Y987866D01*
X922346Y987794D01*
X922367Y987746D01*
X922378Y987695D01*
X922415Y987634D01*
X922443Y987568D01*
X922488Y987512D01*
X922504Y987484D01*
X922522Y987469D01*
X922548Y987437D01*
X938525Y971460D01*
X938525Y913540D01*
X882498Y857513D01*
X882445Y857439D01*
X882385Y857370D01*
X882373Y857339D01*
X882354Y857313D01*
X882327Y857226D01*
X882293Y857141D01*
X882289Y857100D01*
X882282Y857078D01*
X882283Y857046D01*
X882275Y856975D01*
X882275Y648540D01*
X605252Y371517D01*
X605199Y371443D01*
X605139Y371374D01*
X605127Y371343D01*
X605108Y371317D01*
X605081Y371230D01*
X605047Y371145D01*
X605043Y371104D01*
X605036Y371082D01*
X605037Y371050D01*
X605029Y370979D01*
X605029Y365333D01*
X600267Y360571D01*
X593533Y360571D01*
X588771Y365333D01*
X588771Y372067D01*
X593533Y376829D01*
X600279Y376829D01*
X600369Y376843D01*
X600460Y376851D01*
X600489Y376863D01*
X600521Y376868D01*
X600602Y376911D01*
X600686Y376947D01*
X600718Y376973D01*
X600739Y376984D01*
X600761Y377007D01*
X600817Y377052D01*
X875002Y651237D01*
X875055Y651311D01*
X875115Y651380D01*
X875127Y651411D01*
X875146Y651437D01*
X875173Y651524D01*
X875193Y651574D01*
X875197Y651583D01*
X875197Y651585D01*
X875207Y651609D01*
X875211Y651650D01*
X875218Y651672D01*
X875217Y651704D01*
X875225Y651775D01*
X875225Y857153D01*
X875214Y857223D01*
X875212Y857295D01*
X875194Y857344D01*
X875186Y857395D01*
X875152Y857459D01*
X875127Y857526D01*
X875095Y857567D01*
X875070Y857613D01*
X875018Y857662D01*
X874974Y857718D01*
X874930Y857746D01*
X874892Y857782D01*
X874827Y857812D01*
X874767Y857851D01*
X874716Y857864D01*
X874669Y857886D01*
X874598Y857894D01*
X874528Y857911D01*
X874476Y857907D01*
X874425Y857913D01*
X874354Y857898D01*
X874283Y857892D01*
X874235Y857872D01*
X874184Y857861D01*
X874123Y857824D01*
X874057Y857796D01*
X874001Y857751D01*
X873973Y857735D01*
X873958Y857717D01*
X873926Y857691D01*
X658030Y641795D01*
X657977Y641721D01*
X657917Y641652D01*
X657905Y641621D01*
X657886Y641595D01*
X657859Y641508D01*
X657825Y641423D01*
X657821Y641382D01*
X657814Y641360D01*
X657815Y641328D01*
X657807Y641257D01*
X657807Y639052D01*
X654698Y635943D01*
X650302Y635943D01*
X647193Y639052D01*
X647193Y640371D01*
X647190Y640390D01*
X647192Y640409D01*
X647181Y640460D01*
X647180Y640513D01*
X647162Y640562D01*
X647154Y640613D01*
X647144Y640632D01*
X647140Y640649D01*
X647114Y640692D01*
X647095Y640744D01*
X647063Y640785D01*
X647038Y640831D01*
X647022Y640846D01*
X647014Y640860D01*
X646977Y640892D01*
X646942Y640936D01*
X646898Y640964D01*
X646860Y641000D01*
X646839Y641010D01*
X646827Y641020D01*
X646784Y641038D01*
X646735Y641069D01*
X646684Y641082D01*
X646637Y641104D01*
X646613Y641107D01*
X646599Y641112D01*
X646536Y641119D01*
X646496Y641129D01*
X646466Y641127D01*
X646432Y641131D01*
X646431Y641131D01*
X646416Y641128D01*
X646393Y641131D01*
X646322Y641116D01*
X646251Y641110D01*
X646217Y641096D01*
X646188Y641091D01*
X646174Y641083D01*
X646152Y641079D01*
X646091Y641042D01*
X646025Y641014D01*
X645990Y640986D01*
X645971Y640976D01*
X645958Y640963D01*
X645941Y640953D01*
X645926Y640935D01*
X645894Y640909D01*
X636780Y631795D01*
X636727Y631721D01*
X636667Y631652D01*
X636655Y631621D01*
X636636Y631595D01*
X636609Y631508D01*
X636575Y631423D01*
X636571Y631382D01*
X636564Y631360D01*
X636565Y631328D01*
X636557Y631257D01*
X636557Y629052D01*
X633448Y625943D01*
X629052Y625943D01*
X628574Y626421D01*
X628516Y626463D01*
X628464Y626512D01*
X628417Y626534D01*
X628375Y626564D01*
X628306Y626586D01*
X628241Y626616D01*
X628189Y626621D01*
X628139Y626637D01*
X628068Y626635D01*
X627997Y626643D01*
X627946Y626632D01*
X627894Y626630D01*
X627826Y626606D01*
X627756Y626591D01*
X627711Y626564D01*
X627663Y626546D01*
X627607Y626501D01*
X627545Y626464D01*
X627511Y626425D01*
X627471Y626392D01*
X627432Y626332D01*
X627385Y626277D01*
X627366Y626229D01*
X627338Y626185D01*
X627320Y626116D01*
X627293Y626049D01*
X627285Y625978D01*
X627277Y625947D01*
X627279Y625924D01*
X627275Y625883D01*
X627275Y518540D01*
X624987Y516252D01*
X481252Y372517D01*
X481199Y372443D01*
X481139Y372374D01*
X481127Y372343D01*
X481108Y372317D01*
X481081Y372230D01*
X481047Y372145D01*
X481043Y372104D01*
X481036Y372082D01*
X481037Y372050D01*
X481029Y371979D01*
X481029Y365533D01*
X476267Y360771D01*
X469533Y360771D01*
X464771Y365533D01*
X464771Y372267D01*
X469533Y377029D01*
X475479Y377029D01*
X475569Y377043D01*
X475660Y377051D01*
X475689Y377063D01*
X475721Y377068D01*
X475802Y377111D01*
X475886Y377147D01*
X475918Y377173D01*
X475939Y377184D01*
X475961Y377207D01*
X476017Y377252D01*
X620002Y521237D01*
X620055Y521311D01*
X620115Y521380D01*
X620127Y521411D01*
X620146Y521437D01*
X620173Y521524D01*
X620207Y521609D01*
X620211Y521650D01*
X620218Y521672D01*
X620217Y521704D01*
X620225Y521775D01*
X620225Y575903D01*
X620214Y575974D01*
X620212Y576045D01*
X620194Y576094D01*
X620186Y576145D01*
X620152Y576209D01*
X620127Y576276D01*
X620095Y576317D01*
X620070Y576363D01*
X620018Y576412D01*
X619974Y576468D01*
X619930Y576496D01*
X619892Y576532D01*
X619827Y576562D01*
X619767Y576601D01*
X619716Y576614D01*
X619669Y576636D01*
X619598Y576644D01*
X619528Y576661D01*
X619476Y576657D01*
X619425Y576663D01*
X619354Y576648D01*
X619283Y576642D01*
X619235Y576622D01*
X619184Y576611D01*
X619123Y576574D01*
X619057Y576546D01*
X619001Y576501D01*
X618973Y576485D01*
X618958Y576467D01*
X618926Y576441D01*
X618737Y576252D01*
X362452Y319967D01*
X362399Y319893D01*
X362339Y319824D01*
X362327Y319793D01*
X362308Y319767D01*
X362281Y319680D01*
X362247Y319595D01*
X362243Y319554D01*
X362236Y319532D01*
X362237Y319500D01*
X362229Y319429D01*
X362229Y314033D01*
X357467Y309271D01*
X350733Y309271D01*
X345971Y314033D01*
X345971Y320767D01*
X350733Y325529D01*
X357729Y325529D01*
X357819Y325543D01*
X357910Y325551D01*
X357939Y325563D01*
X357971Y325568D01*
X358052Y325611D01*
X358136Y325647D01*
X358168Y325673D01*
X358189Y325684D01*
X358211Y325707D01*
X358267Y325752D01*
X613752Y581237D01*
X613797Y581300D01*
X613821Y581325D01*
X613826Y581335D01*
X613865Y581380D01*
X613877Y581411D01*
X613896Y581437D01*
X613923Y581524D01*
X613957Y581609D01*
X613961Y581650D01*
X613968Y581672D01*
X613967Y581704D01*
X613975Y581775D01*
X613975Y625883D01*
X613964Y625953D01*
X613962Y626025D01*
X613944Y626074D01*
X613936Y626125D01*
X613902Y626189D01*
X613877Y626256D01*
X613845Y626297D01*
X613820Y626343D01*
X613768Y626392D01*
X613724Y626448D01*
X613680Y626476D01*
X613642Y626512D01*
X613577Y626542D01*
X613517Y626581D01*
X613466Y626594D01*
X613419Y626616D01*
X613348Y626624D01*
X613278Y626641D01*
X613226Y626637D01*
X613175Y626643D01*
X613104Y626628D01*
X613033Y626622D01*
X612985Y626602D01*
X612934Y626591D01*
X612873Y626554D01*
X612807Y626526D01*
X612751Y626481D01*
X612723Y626464D01*
X612708Y626447D01*
X612676Y626421D01*
X612198Y625943D01*
X607802Y625943D01*
X606243Y627502D01*
X606169Y627555D01*
X606099Y627615D01*
X606069Y627627D01*
X606043Y627646D01*
X605956Y627673D01*
X605871Y627707D01*
X605830Y627711D01*
X605808Y627718D01*
X605776Y627717D01*
X605705Y627725D01*
X379275Y627725D01*
X379185Y627711D01*
X379094Y627703D01*
X379065Y627691D01*
X379033Y627686D01*
X378952Y627643D01*
X378868Y627607D01*
X378836Y627581D01*
X378815Y627570D01*
X378793Y627547D01*
X378737Y627502D01*
X373960Y622725D01*
X278025Y622725D01*
X277935Y622711D01*
X277844Y622703D01*
X277815Y622691D01*
X277783Y622686D01*
X277702Y622643D01*
X277618Y622607D01*
X277586Y622581D01*
X277565Y622570D01*
X277543Y622547D01*
X277487Y622502D01*
X276560Y621575D01*
X276507Y621501D01*
X276447Y621432D01*
X276435Y621401D01*
X276416Y621375D01*
X276389Y621288D01*
X276355Y621203D01*
X276351Y621162D01*
X276344Y621140D01*
X276345Y621108D01*
X276337Y621037D01*
X276337Y614423D01*
X271277Y609363D01*
X264123Y609363D01*
X259063Y614423D01*
X259063Y621577D01*
X264123Y626637D01*
X271337Y626637D01*
X271427Y626651D01*
X271518Y626659D01*
X271547Y626671D01*
X271579Y626676D01*
X271660Y626719D01*
X271744Y626755D01*
X271776Y626781D01*
X271797Y626792D01*
X271819Y626815D01*
X271875Y626860D01*
X272502Y627487D01*
X272691Y627676D01*
X272733Y627734D01*
X272782Y627786D01*
X272804Y627833D01*
X272835Y627875D01*
X272856Y627944D01*
X272886Y628009D01*
X272892Y628061D01*
X272907Y628110D01*
X272905Y628182D01*
X272913Y628253D01*
X272902Y628304D01*
X272901Y628356D01*
X272876Y628424D01*
X272861Y628494D01*
X272834Y628539D01*
X272816Y628587D01*
X272771Y628643D01*
X272735Y628705D01*
X272695Y628739D01*
X272662Y628779D01*
X272602Y628818D01*
X272548Y628865D01*
X272499Y628884D01*
X272456Y628912D01*
X272386Y628930D01*
X272319Y628957D01*
X272248Y628965D01*
X272217Y628973D01*
X272194Y628971D01*
X272153Y628975D01*
X258025Y628975D01*
X257935Y628961D01*
X257844Y628953D01*
X257815Y628941D01*
X257783Y628936D01*
X257702Y628893D01*
X257618Y628857D01*
X257586Y628831D01*
X257565Y628820D01*
X257543Y628797D01*
X257541Y628796D01*
X257538Y628793D01*
X257487Y628752D01*
X251160Y622425D01*
X251107Y622351D01*
X251047Y622282D01*
X251035Y622251D01*
X251016Y622225D01*
X250989Y622138D01*
X250955Y622053D01*
X250951Y622012D01*
X250944Y621990D01*
X250945Y621958D01*
X250937Y621887D01*
X250937Y614423D01*
X245877Y609363D01*
X238723Y609363D01*
X233663Y614423D01*
X233663Y621577D01*
X238723Y626637D01*
X245087Y626637D01*
X245177Y626651D01*
X245268Y626659D01*
X245297Y626671D01*
X245329Y626676D01*
X245410Y626719D01*
X245494Y626755D01*
X245526Y626781D01*
X245547Y626792D01*
X245569Y626815D01*
X245625Y626860D01*
X254790Y636025D01*
X261023Y636025D01*
X261094Y636036D01*
X261166Y636038D01*
X261215Y636056D01*
X261266Y636064D01*
X261329Y636098D01*
X261397Y636123D01*
X261437Y636155D01*
X261483Y636180D01*
X261533Y636232D01*
X261589Y636276D01*
X261617Y636320D01*
X261653Y636358D01*
X261683Y636423D01*
X261722Y636483D01*
X261734Y636534D01*
X261756Y636581D01*
X261764Y636652D01*
X261782Y636722D01*
X261778Y636774D01*
X261784Y636825D01*
X261768Y636896D01*
X261763Y636967D01*
X261742Y637015D01*
X261731Y637066D01*
X261694Y637127D01*
X261666Y637193D01*
X261622Y637249D01*
X261605Y637277D01*
X261587Y637292D01*
X261562Y637324D01*
X259063Y639823D01*
X259063Y646977D01*
X262262Y650176D01*
X262303Y650234D01*
X262353Y650286D01*
X262375Y650333D01*
X262405Y650375D01*
X262426Y650444D01*
X262456Y650509D01*
X262462Y650561D01*
X262477Y650611D01*
X262476Y650682D01*
X262484Y650753D01*
X262472Y650804D01*
X262471Y650856D01*
X262446Y650924D01*
X262431Y650994D01*
X262405Y651039D01*
X262387Y651087D01*
X262342Y651143D01*
X262305Y651205D01*
X262266Y651239D01*
X262233Y651279D01*
X262173Y651318D01*
X262118Y651365D01*
X262070Y651384D01*
X262026Y651412D01*
X261957Y651430D01*
X261890Y651457D01*
X261819Y651465D01*
X261788Y651473D01*
X261764Y651471D01*
X261723Y651475D01*
X254790Y651475D01*
X246325Y659940D01*
X246251Y659993D01*
X246182Y660053D01*
X246151Y660065D01*
X246125Y660084D01*
X246038Y660111D01*
X245953Y660145D01*
X245912Y660149D01*
X245890Y660156D01*
X245858Y660155D01*
X245787Y660163D01*
X238723Y660163D01*
X233663Y665223D01*
X233663Y672377D01*
X238723Y677437D01*
X245877Y677437D01*
X250937Y672377D01*
X250937Y665613D01*
X250951Y665523D01*
X250959Y665432D01*
X250971Y665403D01*
X250976Y665371D01*
X251019Y665290D01*
X251055Y665206D01*
X251081Y665174D01*
X251092Y665153D01*
X251115Y665131D01*
X251160Y665075D01*
X257487Y658748D01*
X257561Y658695D01*
X257630Y658635D01*
X257661Y658623D01*
X257687Y658604D01*
X257774Y658577D01*
X257859Y658543D01*
X257900Y658539D01*
X257922Y658532D01*
X257954Y658533D01*
X258025Y658525D01*
X373960Y658525D01*
X376025Y656460D01*
X376025Y655525D01*
X376039Y655435D01*
X376047Y655344D01*
X376059Y655315D01*
X376064Y655283D01*
X376107Y655202D01*
X376143Y655118D01*
X376169Y655086D01*
X376180Y655065D01*
X376203Y655043D01*
X376248Y654987D01*
X378737Y652498D01*
X378811Y652445D01*
X378880Y652385D01*
X378911Y652373D01*
X378937Y652354D01*
X379024Y652327D01*
X379109Y652293D01*
X379150Y652289D01*
X379172Y652282D01*
X379204Y652283D01*
X379275Y652275D01*
X555705Y652275D01*
X555795Y652289D01*
X555886Y652297D01*
X555915Y652309D01*
X555947Y652314D01*
X556028Y652357D01*
X556112Y652393D01*
X556144Y652419D01*
X556165Y652430D01*
X556187Y652453D01*
X556243Y652498D01*
X557802Y654057D01*
X562198Y654057D01*
X565307Y650948D01*
X565307Y646552D01*
X564829Y646074D01*
X564787Y646016D01*
X564738Y645964D01*
X564716Y645917D01*
X564686Y645875D01*
X564664Y645806D01*
X564634Y645741D01*
X564629Y645689D01*
X564613Y645639D01*
X564615Y645568D01*
X564607Y645497D01*
X564618Y645446D01*
X564620Y645394D01*
X564644Y645326D01*
X564659Y645256D01*
X564686Y645211D01*
X564704Y645163D01*
X564749Y645107D01*
X564786Y645045D01*
X564825Y645011D01*
X564858Y644971D01*
X564918Y644932D01*
X564973Y644885D01*
X565021Y644866D01*
X565065Y644838D01*
X565134Y644820D01*
X565201Y644793D01*
X565272Y644785D01*
X565303Y644777D01*
X565326Y644779D01*
X565367Y644775D01*
X605705Y644775D01*
X605795Y644789D01*
X605886Y644797D01*
X605915Y644809D01*
X605947Y644814D01*
X606028Y644857D01*
X606112Y644893D01*
X606144Y644919D01*
X606165Y644930D01*
X606187Y644953D01*
X606243Y644998D01*
X607802Y646557D01*
X612198Y646557D01*
X612676Y646079D01*
X612734Y646037D01*
X612786Y645988D01*
X612833Y645966D01*
X612875Y645936D01*
X612944Y645914D01*
X613009Y645884D01*
X613061Y645879D01*
X613111Y645863D01*
X613182Y645865D01*
X613253Y645857D01*
X613304Y645868D01*
X613356Y645870D01*
X613424Y645894D01*
X613494Y645909D01*
X613539Y645936D01*
X613587Y645954D01*
X613643Y645999D01*
X613705Y646036D01*
X613739Y646075D01*
X613779Y646108D01*
X613818Y646168D01*
X613865Y646223D01*
X613884Y646271D01*
X613912Y646315D01*
X613930Y646384D01*
X613957Y646451D01*
X613965Y646522D01*
X613973Y646553D01*
X613971Y646576D01*
X613975Y646617D01*
X613975Y695903D01*
X613964Y695974D01*
X613962Y696045D01*
X613944Y696094D01*
X613936Y696145D01*
X613902Y696209D01*
X613877Y696276D01*
X613845Y696317D01*
X613820Y696363D01*
X613768Y696412D01*
X613724Y696468D01*
X613680Y696496D01*
X613642Y696532D01*
X613577Y696562D01*
X613517Y696601D01*
X613466Y696614D01*
X613419Y696636D01*
X613348Y696644D01*
X613278Y696661D01*
X613226Y696657D01*
X613175Y696663D01*
X613104Y696648D01*
X613033Y696642D01*
X612985Y696622D01*
X612934Y696611D01*
X612873Y696574D01*
X612807Y696546D01*
X612751Y696501D01*
X612723Y696485D01*
X612715Y696475D01*
X491040Y696475D01*
X485225Y702290D01*
X485225Y705725D01*
X485211Y705815D01*
X485203Y705906D01*
X485191Y705935D01*
X485186Y705967D01*
X485143Y706048D01*
X485107Y706132D01*
X485081Y706164D01*
X485070Y706185D01*
X485047Y706207D01*
X485002Y706263D01*
X446606Y744659D01*
X446548Y744701D01*
X446496Y744750D01*
X446449Y744772D01*
X446407Y744803D01*
X446338Y744824D01*
X446273Y744854D01*
X446221Y744860D01*
X446171Y744875D01*
X446100Y744873D01*
X446029Y744881D01*
X445978Y744870D01*
X445926Y744869D01*
X445858Y744844D01*
X445788Y744829D01*
X445743Y744802D01*
X445695Y744784D01*
X445639Y744739D01*
X445577Y744703D01*
X445543Y744663D01*
X445503Y744630D01*
X445464Y744570D01*
X445417Y744516D01*
X445398Y744467D01*
X445370Y744423D01*
X445352Y744354D01*
X445325Y744287D01*
X445317Y744216D01*
X445309Y744185D01*
X445311Y744162D01*
X445307Y744121D01*
X445307Y742802D01*
X442198Y739693D01*
X437802Y739693D01*
X436243Y741252D01*
X436169Y741305D01*
X436099Y741365D01*
X436069Y741377D01*
X436043Y741396D01*
X435956Y741423D01*
X435871Y741457D01*
X435830Y741461D01*
X435808Y741468D01*
X435776Y741467D01*
X435705Y741475D01*
X389295Y741475D01*
X389205Y741461D01*
X389114Y741453D01*
X389085Y741441D01*
X389053Y741436D01*
X388972Y741393D01*
X388888Y741357D01*
X388856Y741331D01*
X388835Y741320D01*
X388813Y741297D01*
X388757Y741252D01*
X387198Y739693D01*
X382802Y739693D01*
X379693Y742802D01*
X379693Y747198D01*
X382802Y750307D01*
X387198Y750307D01*
X388757Y748748D01*
X388831Y748695D01*
X388901Y748635D01*
X388931Y748623D01*
X388957Y748604D01*
X389044Y748577D01*
X389129Y748543D01*
X389170Y748539D01*
X389192Y748532D01*
X389224Y748533D01*
X389295Y748525D01*
X435705Y748525D01*
X435795Y748539D01*
X435886Y748547D01*
X435915Y748559D01*
X435947Y748564D01*
X436028Y748607D01*
X436112Y748643D01*
X436144Y748669D01*
X436165Y748680D01*
X436187Y748703D01*
X436243Y748748D01*
X437802Y750307D01*
X439121Y750307D01*
X439191Y750318D01*
X439263Y750320D01*
X439312Y750338D01*
X439363Y750346D01*
X439427Y750380D01*
X439494Y750405D01*
X439535Y750437D01*
X439581Y750462D01*
X439630Y750514D01*
X439686Y750558D01*
X439714Y750602D01*
X439750Y750640D01*
X439780Y750705D01*
X439819Y750765D01*
X439832Y750816D01*
X439854Y750863D01*
X439862Y750934D01*
X439879Y751004D01*
X439875Y751056D01*
X439881Y751107D01*
X439866Y751178D01*
X439860Y751249D01*
X439840Y751297D01*
X439829Y751348D01*
X439792Y751409D01*
X439764Y751475D01*
X439719Y751531D01*
X439703Y751559D01*
X439685Y751574D01*
X439659Y751606D01*
X350545Y840720D01*
X350471Y840773D01*
X350402Y840833D01*
X350371Y840845D01*
X350345Y840864D01*
X350258Y840891D01*
X350173Y840925D01*
X350132Y840929D01*
X350110Y840936D01*
X350078Y840935D01*
X350007Y840943D01*
X347802Y840943D01*
X347324Y841421D01*
X347266Y841463D01*
X347214Y841512D01*
X347167Y841534D01*
X347125Y841564D01*
X347056Y841586D01*
X346991Y841616D01*
X346939Y841621D01*
X346889Y841637D01*
X346818Y841635D01*
X346747Y841643D01*
X346696Y841632D01*
X346644Y841630D01*
X346576Y841606D01*
X346506Y841591D01*
X346461Y841564D01*
X346413Y841546D01*
X346357Y841501D01*
X346295Y841464D01*
X346261Y841425D01*
X346221Y841392D01*
X346182Y841332D01*
X346135Y841277D01*
X346116Y841229D01*
X346088Y841185D01*
X346070Y841116D01*
X346043Y841049D01*
X346035Y840978D01*
X346027Y840947D01*
X346029Y840924D01*
X346025Y840883D01*
X346025Y716040D01*
X304280Y674295D01*
X304227Y674221D01*
X304167Y674152D01*
X304155Y674121D01*
X304136Y674095D01*
X304109Y674008D01*
X304075Y673923D01*
X304071Y673882D01*
X304064Y673860D01*
X304065Y673828D01*
X304057Y673757D01*
X304057Y671552D01*
X300948Y668443D01*
X296552Y668443D01*
X293443Y671552D01*
X293443Y675948D01*
X296552Y679057D01*
X298757Y679057D01*
X298847Y679071D01*
X298938Y679079D01*
X298967Y679091D01*
X298999Y679096D01*
X299080Y679139D01*
X299164Y679175D01*
X299196Y679201D01*
X299217Y679212D01*
X299239Y679235D01*
X299295Y679280D01*
X338752Y718737D01*
X338805Y718811D01*
X338865Y718880D01*
X338877Y718911D01*
X338896Y718937D01*
X338923Y719024D01*
X338957Y719109D01*
X338961Y719150D01*
X338968Y719172D01*
X338967Y719204D01*
X338975Y719275D01*
X338975Y733403D01*
X338964Y733474D01*
X338962Y733545D01*
X338944Y733594D01*
X338936Y733645D01*
X338902Y733709D01*
X338877Y733776D01*
X338845Y733817D01*
X338820Y733863D01*
X338768Y733912D01*
X338724Y733968D01*
X338680Y733996D01*
X338642Y734032D01*
X338577Y734062D01*
X338517Y734101D01*
X338466Y734114D01*
X338419Y734136D01*
X338348Y734144D01*
X338278Y734161D01*
X338226Y734157D01*
X338175Y734163D01*
X338104Y734148D01*
X338033Y734142D01*
X337985Y734122D01*
X337934Y734111D01*
X337873Y734074D01*
X337807Y734046D01*
X337751Y734001D01*
X337723Y733985D01*
X337708Y733967D01*
X337676Y733941D01*
X337487Y733752D01*
X276560Y672825D01*
X276507Y672751D01*
X276447Y672682D01*
X276435Y672651D01*
X276416Y672625D01*
X276389Y672538D01*
X276355Y672453D01*
X276351Y672412D01*
X276344Y672390D01*
X276345Y672358D01*
X276337Y672287D01*
X276337Y665223D01*
X271277Y660163D01*
X264123Y660163D01*
X259063Y665223D01*
X259063Y672377D01*
X264123Y677437D01*
X270887Y677437D01*
X270977Y677451D01*
X271068Y677459D01*
X271097Y677471D01*
X271129Y677476D01*
X271210Y677519D01*
X271294Y677555D01*
X271326Y677581D01*
X271347Y677592D01*
X271369Y677615D01*
X271425Y677660D01*
X332502Y738737D01*
X332555Y738811D01*
X332615Y738880D01*
X332627Y738911D01*
X332646Y738937D01*
X332673Y739024D01*
X332707Y739109D01*
X332711Y739150D01*
X332718Y739172D01*
X332717Y739204D01*
X332725Y739275D01*
X332725Y739633D01*
X332714Y739703D01*
X332712Y739775D01*
X332694Y739824D01*
X332686Y739875D01*
X332652Y739939D01*
X332627Y740006D01*
X332595Y740047D01*
X332570Y740093D01*
X332518Y740142D01*
X332474Y740198D01*
X332430Y740226D01*
X332392Y740262D01*
X332327Y740292D01*
X332267Y740331D01*
X332216Y740344D01*
X332169Y740366D01*
X332098Y740374D01*
X332028Y740391D01*
X331976Y740387D01*
X331925Y740393D01*
X331854Y740378D01*
X331783Y740372D01*
X331735Y740352D01*
X331684Y740341D01*
X331623Y740304D01*
X331557Y740276D01*
X331501Y740231D01*
X331473Y740214D01*
X331458Y740197D01*
X331426Y740171D01*
X330948Y739693D01*
X326552Y739693D01*
X324993Y741252D01*
X324919Y741305D01*
X324849Y741365D01*
X324819Y741377D01*
X324793Y741396D01*
X324706Y741423D01*
X324621Y741457D01*
X324580Y741461D01*
X324558Y741468D01*
X324526Y741467D01*
X324455Y741475D01*
X274514Y741475D01*
X274443Y741464D01*
X274371Y741462D01*
X274322Y741444D01*
X274271Y741436D01*
X274207Y741402D01*
X274140Y741377D01*
X274099Y741345D01*
X274053Y741320D01*
X274004Y741268D01*
X273948Y741224D01*
X273920Y741180D01*
X273884Y741142D01*
X273854Y741077D01*
X273815Y741017D01*
X273802Y740966D01*
X273780Y740919D01*
X273773Y740848D01*
X273755Y740778D01*
X273759Y740726D01*
X273753Y740675D01*
X273769Y740604D01*
X273774Y740533D01*
X273794Y740485D01*
X273806Y740434D01*
X273842Y740373D01*
X273870Y740307D01*
X273915Y740251D01*
X273932Y740223D01*
X273950Y740208D01*
X273975Y740176D01*
X276353Y737798D01*
X276353Y735323D01*
X267462Y735323D01*
X267442Y735320D01*
X267423Y735322D01*
X267321Y735300D01*
X267219Y735283D01*
X267202Y735274D01*
X267182Y735270D01*
X267093Y735217D01*
X267002Y735168D01*
X266988Y735154D01*
X266971Y735144D01*
X266904Y735065D01*
X266833Y734990D01*
X266824Y734972D01*
X266811Y734957D01*
X266773Y734861D01*
X266729Y734767D01*
X266727Y734747D01*
X266719Y734729D01*
X266701Y734562D01*
X266701Y733799D01*
X266699Y733799D01*
X266699Y734562D01*
X266696Y734582D01*
X266698Y734601D01*
X266676Y734703D01*
X266659Y734805D01*
X266650Y734822D01*
X266646Y734842D01*
X266593Y734931D01*
X266544Y735022D01*
X266530Y735036D01*
X266520Y735053D01*
X266441Y735120D01*
X266366Y735191D01*
X266348Y735200D01*
X266333Y735213D01*
X266237Y735252D01*
X266143Y735295D01*
X266123Y735297D01*
X266105Y735305D01*
X265938Y735323D01*
X257047Y735323D01*
X257047Y737798D01*
X259425Y740176D01*
X259467Y740234D01*
X259516Y740286D01*
X259538Y740333D01*
X259568Y740375D01*
X259589Y740444D01*
X259620Y740509D01*
X259625Y740561D01*
X259641Y740611D01*
X259639Y740682D01*
X259647Y740753D01*
X259636Y740804D01*
X259634Y740856D01*
X259610Y740924D01*
X259594Y740994D01*
X259568Y741039D01*
X259550Y741087D01*
X259505Y741143D01*
X259468Y741205D01*
X259429Y741239D01*
X259396Y741279D01*
X259336Y741318D01*
X259281Y741365D01*
X259233Y741384D01*
X259189Y741412D01*
X259120Y741430D01*
X259053Y741457D01*
X258982Y741465D01*
X258951Y741473D01*
X258927Y741471D01*
X258886Y741475D01*
X254790Y741475D01*
X252502Y743763D01*
X245828Y750437D01*
X245812Y750449D01*
X245799Y750464D01*
X245712Y750521D01*
X245628Y750581D01*
X245609Y750587D01*
X245592Y750597D01*
X245492Y750623D01*
X245393Y750653D01*
X245373Y750653D01*
X245354Y750658D01*
X245251Y750649D01*
X245147Y750647D01*
X245129Y750640D01*
X245109Y750638D01*
X245014Y750598D01*
X244919Y750563D01*
X237723Y750563D01*
X232663Y755623D01*
X232663Y762777D01*
X237723Y767837D01*
X244877Y767837D01*
X249937Y762777D01*
X249937Y756613D01*
X249951Y756523D01*
X249959Y756432D01*
X249971Y756403D01*
X249976Y756371D01*
X250019Y756290D01*
X250055Y756206D01*
X250081Y756174D01*
X250092Y756153D01*
X250115Y756131D01*
X250160Y756075D01*
X257487Y748748D01*
X257561Y748695D01*
X257630Y748635D01*
X257661Y748623D01*
X257687Y748604D01*
X257774Y748577D01*
X257859Y748543D01*
X257900Y748539D01*
X257922Y748532D01*
X257954Y748533D01*
X258025Y748525D01*
X324455Y748525D01*
X324545Y748539D01*
X324636Y748547D01*
X324665Y748559D01*
X324697Y748564D01*
X324778Y748607D01*
X324862Y748643D01*
X324894Y748669D01*
X324915Y748680D01*
X324937Y748703D01*
X324993Y748748D01*
X326552Y750307D01*
X330948Y750307D01*
X331426Y749829D01*
X331484Y749787D01*
X331536Y749738D01*
X331583Y749716D01*
X331625Y749686D01*
X331694Y749664D01*
X331759Y749634D01*
X331811Y749629D01*
X331861Y749613D01*
X331932Y749615D01*
X332003Y749607D01*
X332054Y749618D01*
X332106Y749620D01*
X332174Y749644D01*
X332244Y749659D01*
X332289Y749686D01*
X332337Y749704D01*
X332393Y749749D01*
X332455Y749786D01*
X332489Y749825D01*
X332529Y749858D01*
X332568Y749918D01*
X332615Y749973D01*
X332634Y750021D01*
X332662Y750065D01*
X332680Y750134D01*
X332707Y750201D01*
X332715Y750272D01*
X332723Y750303D01*
X332721Y750326D01*
X332725Y750367D01*
X332725Y763403D01*
X332714Y763474D01*
X332712Y763545D01*
X332694Y763594D01*
X332686Y763645D01*
X332652Y763709D01*
X332627Y763776D01*
X332595Y763817D01*
X332570Y763863D01*
X332518Y763912D01*
X332474Y763968D01*
X332430Y763996D01*
X332392Y764032D01*
X332327Y764062D01*
X332267Y764101D01*
X332216Y764114D01*
X332169Y764136D01*
X332098Y764144D01*
X332028Y764161D01*
X331976Y764157D01*
X331925Y764163D01*
X331854Y764148D01*
X331783Y764142D01*
X331735Y764122D01*
X331684Y764111D01*
X331623Y764074D01*
X331557Y764046D01*
X331501Y764001D01*
X331473Y763985D01*
X331465Y763975D01*
X276775Y763975D01*
X276685Y763961D01*
X276594Y763953D01*
X276564Y763941D01*
X276533Y763936D01*
X276452Y763893D01*
X276368Y763857D01*
X276336Y763831D01*
X276315Y763820D01*
X276293Y763797D01*
X276237Y763752D01*
X275560Y763075D01*
X275506Y763001D01*
X275447Y762932D01*
X275435Y762901D01*
X275416Y762875D01*
X275389Y762788D01*
X275355Y762703D01*
X275351Y762662D01*
X275344Y762640D01*
X275345Y762608D01*
X275337Y762537D01*
X275337Y755623D01*
X270277Y750563D01*
X263123Y750563D01*
X258063Y755623D01*
X258063Y762777D01*
X263123Y767837D01*
X270037Y767837D01*
X270127Y767851D01*
X270218Y767859D01*
X270247Y767871D01*
X270279Y767876D01*
X270360Y767919D01*
X270444Y767955D01*
X270476Y767981D01*
X270497Y767992D01*
X270519Y768015D01*
X270575Y768060D01*
X271252Y768737D01*
X271441Y768926D01*
X271483Y768984D01*
X271532Y769036D01*
X271554Y769083D01*
X271585Y769125D01*
X271606Y769194D01*
X271636Y769259D01*
X271642Y769311D01*
X271657Y769360D01*
X271655Y769432D01*
X271663Y769503D01*
X271652Y769554D01*
X271651Y769606D01*
X271626Y769674D01*
X271611Y769744D01*
X271584Y769789D01*
X271566Y769837D01*
X271521Y769893D01*
X271485Y769955D01*
X271445Y769989D01*
X271412Y770029D01*
X271352Y770068D01*
X271298Y770115D01*
X271249Y770134D01*
X271206Y770162D01*
X271136Y770180D01*
X271069Y770207D01*
X270998Y770215D01*
X270967Y770223D01*
X270944Y770221D01*
X270903Y770225D01*
X251040Y770225D01*
X248752Y772513D01*
X245525Y775740D01*
X245451Y775793D01*
X245382Y775853D01*
X245351Y775865D01*
X245325Y775884D01*
X245238Y775911D01*
X245153Y775945D01*
X245112Y775949D01*
X245090Y775956D01*
X245058Y775955D01*
X244987Y775963D01*
X237723Y775963D01*
X232663Y781023D01*
X232663Y788177D01*
X237723Y793237D01*
X244877Y793237D01*
X249937Y788177D01*
X249937Y781613D01*
X249951Y781523D01*
X249959Y781432D01*
X249971Y781403D01*
X249976Y781371D01*
X250019Y781290D01*
X250055Y781206D01*
X250081Y781174D01*
X250092Y781153D01*
X250115Y781131D01*
X250160Y781075D01*
X253737Y777498D01*
X253811Y777445D01*
X253880Y777385D01*
X253911Y777373D01*
X253937Y777354D01*
X254024Y777327D01*
X254109Y777293D01*
X254150Y777289D01*
X254172Y777282D01*
X254204Y777283D01*
X254275Y777275D01*
X259973Y777275D01*
X260044Y777286D01*
X260116Y777288D01*
X260165Y777306D01*
X260216Y777314D01*
X260279Y777348D01*
X260347Y777373D01*
X260387Y777405D01*
X260433Y777430D01*
X260483Y777482D01*
X260539Y777526D01*
X260567Y777570D01*
X260603Y777608D01*
X260633Y777673D01*
X260672Y777733D01*
X260684Y777784D01*
X260706Y777831D01*
X260714Y777902D01*
X260732Y777972D01*
X260728Y778024D01*
X260734Y778075D01*
X260718Y778146D01*
X260713Y778217D01*
X260692Y778265D01*
X260681Y778316D01*
X260644Y778377D01*
X260616Y778443D01*
X260572Y778499D01*
X260555Y778527D01*
X260537Y778542D01*
X260512Y778574D01*
X258063Y781023D01*
X258063Y788177D01*
X261312Y791426D01*
X261353Y791484D01*
X261403Y791536D01*
X261425Y791583D01*
X261455Y791625D01*
X261476Y791694D01*
X261506Y791759D01*
X261512Y791811D01*
X261527Y791861D01*
X261526Y791932D01*
X261534Y792003D01*
X261522Y792054D01*
X261521Y792106D01*
X261496Y792174D01*
X261481Y792244D01*
X261455Y792289D01*
X261437Y792337D01*
X261392Y792393D01*
X261355Y792455D01*
X261316Y792489D01*
X261283Y792529D01*
X261223Y792568D01*
X261168Y792615D01*
X261120Y792634D01*
X261076Y792662D01*
X261007Y792680D01*
X260940Y792707D01*
X260869Y792715D01*
X260838Y792723D01*
X260814Y792721D01*
X260773Y792725D01*
X254790Y792725D01*
X246053Y801462D01*
X246037Y801474D01*
X246024Y801489D01*
X245937Y801546D01*
X245853Y801606D01*
X245834Y801612D01*
X245817Y801622D01*
X245717Y801648D01*
X245618Y801678D01*
X245598Y801678D01*
X245579Y801683D01*
X245476Y801674D01*
X245372Y801672D01*
X245353Y801665D01*
X245334Y801663D01*
X245239Y801623D01*
X245141Y801587D01*
X245126Y801575D01*
X245107Y801567D01*
X244976Y801462D01*
X244877Y801363D01*
X237723Y801363D01*
X232663Y806423D01*
X232663Y813577D01*
X237723Y818637D01*
X244877Y818637D01*
X249937Y813577D01*
X249937Y807863D01*
X249951Y807773D01*
X249959Y807682D01*
X249971Y807653D01*
X249976Y807621D01*
X250019Y807540D01*
X250055Y807456D01*
X250081Y807424D01*
X250092Y807403D01*
X250115Y807381D01*
X250130Y807363D01*
X250135Y807354D01*
X250141Y807349D01*
X250160Y807325D01*
X257487Y799998D01*
X257561Y799945D01*
X257630Y799885D01*
X257661Y799873D01*
X257687Y799854D01*
X257774Y799827D01*
X257859Y799793D01*
X257900Y799789D01*
X257922Y799782D01*
X257954Y799783D01*
X258025Y799775D01*
X276964Y799775D01*
X276984Y799778D01*
X277003Y799776D01*
X277105Y799798D01*
X277207Y799814D01*
X277224Y799824D01*
X277244Y799828D01*
X277333Y799881D01*
X277424Y799930D01*
X277438Y799944D01*
X277455Y799954D01*
X277522Y800033D01*
X277594Y800108D01*
X277602Y800126D01*
X277615Y800141D01*
X277654Y800237D01*
X277697Y800331D01*
X277699Y800351D01*
X277707Y800369D01*
X277725Y800536D01*
X277725Y806460D01*
X290720Y819455D01*
X290773Y819529D01*
X290833Y819598D01*
X290845Y819629D01*
X290864Y819655D01*
X290891Y819742D01*
X290925Y819827D01*
X290929Y819868D01*
X290936Y819890D01*
X290935Y819922D01*
X290943Y819993D01*
X290943Y822198D01*
X294052Y825307D01*
X298448Y825307D01*
X301557Y822198D01*
X301557Y820879D01*
X301568Y820809D01*
X301570Y820737D01*
X301588Y820688D01*
X301596Y820637D01*
X301630Y820573D01*
X301655Y820506D01*
X301687Y820465D01*
X301712Y820419D01*
X301764Y820370D01*
X301808Y820314D01*
X301852Y820286D01*
X301890Y820250D01*
X301955Y820220D01*
X302015Y820181D01*
X302066Y820168D01*
X302113Y820146D01*
X302184Y820138D01*
X302254Y820121D01*
X302306Y820125D01*
X302357Y820119D01*
X302428Y820134D01*
X302499Y820140D01*
X302547Y820160D01*
X302598Y820171D01*
X302659Y820208D01*
X302725Y820236D01*
X302781Y820281D01*
X302809Y820297D01*
X302824Y820315D01*
X302856Y820341D01*
X320002Y837487D01*
X320055Y837561D01*
X320115Y837630D01*
X320127Y837661D01*
X320146Y837687D01*
X320173Y837774D01*
X320207Y837859D01*
X320211Y837900D01*
X320218Y837922D01*
X320217Y837954D01*
X320225Y838025D01*
X320225Y870903D01*
X320214Y870973D01*
X320212Y871045D01*
X320194Y871094D01*
X320186Y871145D01*
X320152Y871209D01*
X320127Y871276D01*
X320095Y871317D01*
X320070Y871363D01*
X320018Y871412D01*
X319974Y871468D01*
X319930Y871496D01*
X319892Y871532D01*
X319827Y871562D01*
X319767Y871601D01*
X319716Y871614D01*
X319669Y871636D01*
X319598Y871644D01*
X319528Y871661D01*
X319476Y871657D01*
X319425Y871663D01*
X319354Y871648D01*
X319283Y871642D01*
X319235Y871622D01*
X319184Y871611D01*
X319123Y871574D01*
X319057Y871546D01*
X319001Y871501D01*
X318973Y871485D01*
X318958Y871467D01*
X318926Y871441D01*
X317487Y870002D01*
X292498Y845013D01*
X292445Y844939D01*
X292385Y844870D01*
X292373Y844839D01*
X292354Y844813D01*
X292327Y844726D01*
X292293Y844641D01*
X292289Y844600D01*
X292282Y844578D01*
X292283Y844546D01*
X292275Y844475D01*
X292275Y844117D01*
X292286Y844047D01*
X292288Y843975D01*
X292306Y843926D01*
X292314Y843875D01*
X292348Y843811D01*
X292373Y843744D01*
X292405Y843703D01*
X292430Y843657D01*
X292482Y843608D01*
X292526Y843552D01*
X292570Y843524D01*
X292608Y843488D01*
X292673Y843458D01*
X292733Y843419D01*
X292784Y843406D01*
X292831Y843384D01*
X292902Y843376D01*
X292972Y843359D01*
X293024Y843363D01*
X293075Y843357D01*
X293146Y843372D01*
X293217Y843378D01*
X293265Y843398D01*
X293316Y843409D01*
X293377Y843446D01*
X293443Y843474D01*
X293499Y843519D01*
X293527Y843536D01*
X293542Y843553D01*
X293574Y843579D01*
X294052Y844057D01*
X298448Y844057D01*
X301557Y840948D01*
X301557Y836552D01*
X298448Y833443D01*
X296243Y833443D01*
X296153Y833429D01*
X296062Y833421D01*
X296033Y833409D01*
X296001Y833404D01*
X295920Y833361D01*
X295836Y833325D01*
X295804Y833299D01*
X295783Y833288D01*
X295761Y833265D01*
X295705Y833220D01*
X275560Y813075D01*
X275507Y813001D01*
X275447Y812932D01*
X275435Y812901D01*
X275416Y812875D01*
X275389Y812788D01*
X275355Y812703D01*
X275351Y812662D01*
X275344Y812640D01*
X275345Y812608D01*
X275337Y812537D01*
X275337Y806423D01*
X270277Y801363D01*
X263123Y801363D01*
X258063Y806423D01*
X258063Y813577D01*
X263123Y818637D01*
X270317Y818637D01*
X270376Y818594D01*
X270395Y818588D01*
X270412Y818578D01*
X270513Y818552D01*
X270611Y818522D01*
X270631Y818522D01*
X270651Y818517D01*
X270753Y818526D01*
X270857Y818528D01*
X270876Y818535D01*
X270896Y818537D01*
X270990Y818577D01*
X271088Y818613D01*
X271104Y818625D01*
X271122Y818633D01*
X271253Y818738D01*
X271441Y818926D01*
X271483Y818984D01*
X271532Y819036D01*
X271554Y819083D01*
X271585Y819125D01*
X271606Y819194D01*
X271636Y819259D01*
X271642Y819311D01*
X271657Y819361D01*
X271655Y819432D01*
X271663Y819503D01*
X271652Y819554D01*
X271651Y819606D01*
X271626Y819674D01*
X271611Y819744D01*
X271584Y819788D01*
X271566Y819837D01*
X271521Y819893D01*
X271485Y819955D01*
X271445Y819989D01*
X271412Y820029D01*
X271352Y820068D01*
X271298Y820115D01*
X271249Y820134D01*
X271205Y820162D01*
X271136Y820180D01*
X271069Y820207D01*
X270998Y820215D01*
X270967Y820223D01*
X270944Y820221D01*
X270903Y820225D01*
X252290Y820225D01*
X250002Y822513D01*
X245853Y826662D01*
X245837Y826674D01*
X245824Y826689D01*
X245758Y826732D01*
X245719Y826765D01*
X245698Y826774D01*
X245653Y826806D01*
X245634Y826812D01*
X245617Y826822D01*
X245517Y826848D01*
X245506Y826851D01*
X245491Y826857D01*
X245483Y826858D01*
X245418Y826878D01*
X245398Y826878D01*
X245379Y826883D01*
X245276Y826874D01*
X245172Y826872D01*
X245154Y826865D01*
X245134Y826863D01*
X245074Y826838D01*
X245062Y826836D01*
X245036Y826822D01*
X244941Y826787D01*
X244926Y826775D01*
X244907Y826767D01*
X244903Y826763D01*
X237723Y826763D01*
X232663Y831823D01*
X232663Y838977D01*
X237723Y844037D01*
X244877Y844037D01*
X249937Y838977D01*
X249937Y832863D01*
X249951Y832773D01*
X249959Y832682D01*
X249971Y832653D01*
X249976Y832621D01*
X250019Y832540D01*
X250055Y832456D01*
X250081Y832424D01*
X250092Y832403D01*
X250115Y832381D01*
X250160Y832325D01*
X254987Y827498D01*
X255061Y827445D01*
X255130Y827385D01*
X255161Y827373D01*
X255187Y827354D01*
X255274Y827327D01*
X255359Y827293D01*
X255400Y827289D01*
X255422Y827282D01*
X255454Y827283D01*
X255525Y827275D01*
X260773Y827275D01*
X260844Y827286D01*
X260916Y827288D01*
X260965Y827306D01*
X261016Y827314D01*
X261079Y827348D01*
X261147Y827373D01*
X261187Y827405D01*
X261233Y827430D01*
X261283Y827482D01*
X261339Y827526D01*
X261367Y827570D01*
X261403Y827608D01*
X261433Y827673D01*
X261472Y827733D01*
X261484Y827784D01*
X261506Y827831D01*
X261514Y827902D01*
X261532Y827972D01*
X261528Y828024D01*
X261534Y828075D01*
X261518Y828146D01*
X261513Y828217D01*
X261492Y828265D01*
X261481Y828316D01*
X261444Y828377D01*
X261416Y828443D01*
X261372Y828499D01*
X261355Y828527D01*
X261337Y828542D01*
X261312Y828574D01*
X258063Y831823D01*
X258063Y838977D01*
X263123Y844037D01*
X269987Y844037D01*
X270077Y844051D01*
X270168Y844059D01*
X270197Y844071D01*
X270229Y844076D01*
X270310Y844119D01*
X270394Y844155D01*
X270426Y844181D01*
X270447Y844192D01*
X270469Y844215D01*
X270525Y844260D01*
X282691Y856426D01*
X282733Y856484D01*
X282782Y856536D01*
X282804Y856583D01*
X282835Y856625D01*
X282856Y856694D01*
X282886Y856759D01*
X282892Y856811D01*
X282907Y856861D01*
X282905Y856932D01*
X282913Y857003D01*
X282902Y857054D01*
X282901Y857106D01*
X282876Y857174D01*
X282861Y857244D01*
X282834Y857288D01*
X282816Y857337D01*
X282771Y857393D01*
X282735Y857455D01*
X282695Y857489D01*
X282662Y857529D01*
X282602Y857568D01*
X282548Y857615D01*
X282499Y857634D01*
X282455Y857662D01*
X282386Y857680D01*
X282319Y857707D01*
X282248Y857715D01*
X282217Y857723D01*
X282194Y857721D01*
X282153Y857725D01*
X276098Y857725D01*
X276078Y857722D01*
X276059Y857724D01*
X275957Y857702D01*
X275855Y857686D01*
X275838Y857676D01*
X275818Y857672D01*
X275729Y857619D01*
X275638Y857570D01*
X275624Y857556D01*
X275607Y857546D01*
X275540Y857467D01*
X275468Y857392D01*
X275460Y857374D01*
X275447Y857359D01*
X275430Y857315D01*
X270277Y852163D01*
X263123Y852163D01*
X258063Y857223D01*
X258063Y864377D01*
X261362Y867676D01*
X261403Y867734D01*
X261453Y867786D01*
X261475Y867833D01*
X261505Y867875D01*
X261526Y867944D01*
X261556Y868009D01*
X261562Y868061D01*
X261577Y868111D01*
X261576Y868182D01*
X261584Y868253D01*
X261572Y868304D01*
X261571Y868356D01*
X261546Y868424D01*
X261531Y868494D01*
X261505Y868539D01*
X261487Y868587D01*
X261442Y868643D01*
X261405Y868705D01*
X261366Y868739D01*
X261333Y868779D01*
X261273Y868818D01*
X261218Y868865D01*
X261170Y868884D01*
X261126Y868912D01*
X261057Y868930D01*
X260990Y868957D01*
X260919Y868965D01*
X260888Y868973D01*
X260864Y868971D01*
X260823Y868975D01*
X255525Y868975D01*
X255435Y868961D01*
X255344Y868953D01*
X255315Y868941D01*
X255283Y868936D01*
X255202Y868893D01*
X255118Y868857D01*
X255086Y868831D01*
X255065Y868820D01*
X255043Y868797D01*
X254987Y868752D01*
X250160Y863925D01*
X250113Y863860D01*
X250098Y863844D01*
X250094Y863836D01*
X250047Y863782D01*
X250035Y863751D01*
X250016Y863725D01*
X249989Y863638D01*
X249955Y863553D01*
X249951Y863512D01*
X249944Y863490D01*
X249945Y863458D01*
X249937Y863387D01*
X249937Y857223D01*
X244877Y852163D01*
X237723Y852163D01*
X232663Y857223D01*
X232663Y864377D01*
X237723Y869437D01*
X244927Y869437D01*
X244951Y869419D01*
X244970Y869413D01*
X244987Y869403D01*
X245088Y869377D01*
X245186Y869347D01*
X245206Y869347D01*
X245226Y869342D01*
X245328Y869351D01*
X245432Y869353D01*
X245451Y869360D01*
X245471Y869362D01*
X245565Y869402D01*
X245663Y869438D01*
X245679Y869450D01*
X245697Y869458D01*
X245828Y869563D01*
X250002Y873737D01*
X252290Y876025D01*
X279475Y876025D01*
X279565Y876039D01*
X279656Y876047D01*
X279685Y876059D01*
X279717Y876064D01*
X279798Y876107D01*
X279882Y876143D01*
X279914Y876169D01*
X279935Y876180D01*
X279957Y876203D01*
X280013Y876248D01*
X289470Y885705D01*
X289523Y885779D01*
X289583Y885848D01*
X289595Y885879D01*
X289614Y885905D01*
X289641Y885992D01*
X289652Y886020D01*
X289665Y886048D01*
X289666Y886054D01*
X289675Y886077D01*
X289679Y886118D01*
X289686Y886140D01*
X289685Y886172D01*
X289693Y886243D01*
X289693Y888448D01*
X292802Y891557D01*
X297198Y891557D01*
X300307Y888448D01*
X300307Y884052D01*
X297198Y880943D01*
X294993Y880943D01*
X294903Y880929D01*
X294812Y880921D01*
X294783Y880909D01*
X294751Y880904D01*
X294670Y880861D01*
X294586Y880825D01*
X294554Y880799D01*
X294533Y880788D01*
X294516Y880771D01*
X294514Y880770D01*
X294507Y880762D01*
X294455Y880720D01*
X294091Y880356D01*
X294049Y880298D01*
X294000Y880246D01*
X293978Y880199D01*
X293947Y880157D01*
X293926Y880088D01*
X293896Y880023D01*
X293890Y879971D01*
X293875Y879921D01*
X293877Y879850D01*
X293869Y879779D01*
X293880Y879728D01*
X293881Y879676D01*
X293906Y879608D01*
X293921Y879538D01*
X293948Y879494D01*
X293966Y879445D01*
X294011Y879389D01*
X294047Y879327D01*
X294087Y879293D01*
X294120Y879253D01*
X294180Y879214D01*
X294234Y879167D01*
X294283Y879148D01*
X294327Y879120D01*
X294396Y879102D01*
X294463Y879075D01*
X294534Y879067D01*
X294565Y879059D01*
X294588Y879061D01*
X294629Y879057D01*
X295948Y879057D01*
X299057Y875948D01*
X299057Y874629D01*
X299068Y874559D01*
X299070Y874487D01*
X299088Y874438D01*
X299096Y874387D01*
X299130Y874323D01*
X299155Y874256D01*
X299187Y874215D01*
X299212Y874169D01*
X299263Y874120D01*
X299308Y874064D01*
X299352Y874036D01*
X299390Y874000D01*
X299455Y873970D01*
X299515Y873931D01*
X299566Y873918D01*
X299613Y873896D01*
X299684Y873888D01*
X299754Y873871D01*
X299806Y873875D01*
X299857Y873869D01*
X299928Y873884D01*
X299999Y873890D01*
X300047Y873910D01*
X300098Y873921D01*
X300159Y873958D01*
X300225Y873986D01*
X300281Y874031D01*
X300309Y874047D01*
X300324Y874065D01*
X300356Y874091D01*
X303220Y876955D01*
X303273Y877029D01*
X303333Y877098D01*
X303345Y877129D01*
X303364Y877155D01*
X303391Y877242D01*
X303425Y877327D01*
X303429Y877368D01*
X303436Y877390D01*
X303435Y877422D01*
X303443Y877493D01*
X303443Y879698D01*
X306552Y882807D01*
X310948Y882807D01*
X311426Y882329D01*
X311484Y882287D01*
X311536Y882238D01*
X311583Y882216D01*
X311625Y882186D01*
X311694Y882164D01*
X311759Y882134D01*
X311811Y882129D01*
X311861Y882113D01*
X311932Y882115D01*
X312003Y882107D01*
X312054Y882118D01*
X312106Y882120D01*
X312174Y882144D01*
X312244Y882159D01*
X312289Y882186D01*
X312337Y882204D01*
X312393Y882249D01*
X312455Y882286D01*
X312489Y882325D01*
X312529Y882358D01*
X312568Y882418D01*
X312615Y882473D01*
X312634Y882521D01*
X312662Y882565D01*
X312680Y882634D01*
X312707Y882701D01*
X312715Y882772D01*
X312723Y882803D01*
X312721Y882826D01*
X312725Y882867D01*
X312725Y889455D01*
X312711Y889545D01*
X312703Y889636D01*
X312691Y889665D01*
X312686Y889697D01*
X312643Y889778D01*
X312607Y889862D01*
X312581Y889894D01*
X312570Y889915D01*
X312547Y889937D01*
X312502Y889993D01*
X310943Y891552D01*
X310943Y895948D01*
X313207Y898212D01*
X313218Y898228D01*
X313234Y898240D01*
X313290Y898328D01*
X313350Y898411D01*
X313356Y898430D01*
X313367Y898447D01*
X313392Y898548D01*
X313423Y898647D01*
X313422Y898666D01*
X313427Y898686D01*
X313419Y898789D01*
X313416Y898892D01*
X313410Y898911D01*
X313408Y898931D01*
X313368Y899026D01*
X313332Y899123D01*
X313319Y899139D01*
X313312Y899157D01*
X313207Y899288D01*
X312493Y900002D01*
X312419Y900055D01*
X312349Y900115D01*
X312319Y900127D01*
X312293Y900146D01*
X312206Y900173D01*
X312121Y900207D01*
X312080Y900211D01*
X312058Y900218D01*
X312026Y900217D01*
X311955Y900225D01*
X239275Y900225D01*
X239185Y900211D01*
X239094Y900203D01*
X239065Y900191D01*
X239033Y900186D01*
X238952Y900143D01*
X238868Y900107D01*
X238836Y900081D01*
X238815Y900070D01*
X238793Y900047D01*
X238737Y900002D01*
X229998Y891263D01*
X229945Y891189D01*
X229885Y891120D01*
X229873Y891089D01*
X229854Y891063D01*
X229827Y890976D01*
X229793Y890891D01*
X229789Y890850D01*
X229782Y890828D01*
X229783Y890796D01*
X229775Y890725D01*
X229775Y738045D01*
X229789Y737955D01*
X229797Y737864D01*
X229809Y737835D01*
X229814Y737803D01*
X229857Y737722D01*
X229893Y737638D01*
X229919Y737606D01*
X229930Y737585D01*
X229953Y737563D01*
X229998Y737507D01*
X231660Y735845D01*
X231697Y735819D01*
X231728Y735785D01*
X231796Y735747D01*
X231859Y735702D01*
X231903Y735688D01*
X231943Y735666D01*
X232020Y735652D01*
X232094Y735629D01*
X232140Y735631D01*
X232185Y735622D01*
X232262Y735634D01*
X232340Y735636D01*
X232383Y735652D01*
X232429Y735658D01*
X232498Y735693D01*
X232571Y735720D01*
X232607Y735749D01*
X232648Y735770D01*
X232703Y735825D01*
X232763Y735874D01*
X232788Y735913D01*
X232820Y735945D01*
X232886Y736065D01*
X232896Y736081D01*
X232898Y736086D01*
X232901Y736092D01*
X233978Y738692D01*
X236408Y741122D01*
X239582Y742437D01*
X243018Y742437D01*
X246192Y741122D01*
X248622Y738692D01*
X249937Y735518D01*
X249937Y732082D01*
X248622Y728908D01*
X246192Y726478D01*
X243018Y725163D01*
X242206Y725163D01*
X242116Y725149D01*
X242025Y725141D01*
X241995Y725129D01*
X241963Y725124D01*
X241882Y725081D01*
X241799Y725045D01*
X241766Y725019D01*
X241746Y725008D01*
X241724Y724985D01*
X241668Y724940D01*
X230498Y713770D01*
X230445Y713696D01*
X230385Y713627D01*
X230373Y713597D01*
X230354Y713571D01*
X230327Y713484D01*
X230293Y713399D01*
X230289Y713358D01*
X230282Y713336D01*
X230283Y713303D01*
X230275Y713232D01*
X230275Y541340D01*
X230286Y541269D01*
X230288Y541197D01*
X230306Y541148D01*
X230314Y541097D01*
X230348Y541034D01*
X230373Y540966D01*
X230405Y540926D01*
X230430Y540880D01*
X230482Y540830D01*
X230526Y540774D01*
X230570Y540746D01*
X230608Y540710D01*
X230673Y540680D01*
X230733Y540641D01*
X230784Y540629D01*
X230831Y540607D01*
X230902Y540599D01*
X230972Y540581D01*
X231024Y540585D01*
X231075Y540580D01*
X231146Y540595D01*
X231217Y540600D01*
X231265Y540621D01*
X231316Y540632D01*
X231377Y540669D01*
X231443Y540697D01*
X231499Y540742D01*
X231527Y540758D01*
X231542Y540776D01*
X231574Y540802D01*
X232661Y541888D01*
X233440Y542668D01*
X233493Y542742D01*
X233553Y542811D01*
X233565Y542841D01*
X233584Y542867D01*
X233611Y542954D01*
X233645Y543039D01*
X233649Y543080D01*
X233656Y543102D01*
X233655Y543134D01*
X233663Y543206D01*
X233663Y543518D01*
X234978Y546692D01*
X237408Y549122D01*
X240582Y550437D01*
X244018Y550437D01*
X247192Y549122D01*
X249622Y546692D01*
X250937Y543518D01*
X250937Y540082D01*
X249622Y536908D01*
X247192Y534478D01*
X244018Y533163D01*
X243536Y533163D01*
X243516Y533160D01*
X243497Y533162D01*
X243395Y533140D01*
X243293Y533124D01*
X243276Y533114D01*
X243256Y533110D01*
X243167Y533057D01*
X243076Y533008D01*
X243062Y532994D01*
X243045Y532984D01*
X242978Y532905D01*
X242906Y532830D01*
X242898Y532812D01*
X242885Y532797D01*
X242846Y532701D01*
X242803Y532607D01*
X242801Y532587D01*
X242793Y532569D01*
X242775Y532402D01*
X242775Y496768D01*
X242789Y496678D01*
X242797Y496587D01*
X242809Y496557D01*
X242814Y496525D01*
X242857Y496445D01*
X242893Y496361D01*
X242919Y496329D01*
X242930Y496308D01*
X242953Y496286D01*
X242998Y496230D01*
X254740Y484488D01*
X254814Y484435D01*
X254883Y484375D01*
X254913Y484363D01*
X254939Y484344D01*
X255026Y484317D01*
X255111Y484283D01*
X255152Y484279D01*
X255174Y484272D01*
X255207Y484273D01*
X255278Y484265D01*
X271443Y484265D01*
X274775Y482885D01*
X277325Y480335D01*
X278705Y477003D01*
X278705Y473397D01*
X277325Y470065D01*
X274775Y467515D01*
X271443Y466135D01*
X252757Y466135D01*
X249425Y467515D01*
X246875Y470065D01*
X245495Y473397D01*
X245495Y474962D01*
X245481Y475052D01*
X245473Y475143D01*
X245461Y475173D01*
X245456Y475205D01*
X245413Y475285D01*
X245377Y475369D01*
X245351Y475401D01*
X245340Y475422D01*
X245317Y475444D01*
X245272Y475500D01*
X230719Y490054D01*
X229725Y492452D01*
X229725Y521078D01*
X229706Y521193D01*
X229689Y521309D01*
X229687Y521315D01*
X229686Y521321D01*
X229631Y521424D01*
X229578Y521529D01*
X229573Y521533D01*
X229570Y521538D01*
X229486Y521618D01*
X229402Y521701D01*
X229396Y521704D01*
X229392Y521708D01*
X229375Y521716D01*
X229255Y521782D01*
X228804Y521969D01*
X218219Y532554D01*
X217225Y534952D01*
X217225Y717548D01*
X218219Y719946D01*
X220161Y721888D01*
X225416Y727144D01*
X225458Y727202D01*
X225508Y727254D01*
X225530Y727301D01*
X225560Y727343D01*
X225581Y727412D01*
X225611Y727477D01*
X225617Y727529D01*
X225632Y727579D01*
X225630Y727650D01*
X225638Y727721D01*
X225627Y727772D01*
X225626Y727824D01*
X225601Y727892D01*
X225586Y727962D01*
X225559Y728007D01*
X225541Y728055D01*
X225497Y728111D01*
X225460Y728173D01*
X225420Y728207D01*
X225388Y728247D01*
X225327Y728286D01*
X225273Y728333D01*
X225225Y728352D01*
X225181Y728380D01*
X225111Y728398D01*
X225045Y728425D01*
X224973Y728433D01*
X224942Y728441D01*
X224919Y728439D01*
X224878Y728443D01*
X224052Y728443D01*
X220943Y731552D01*
X220943Y735948D01*
X222502Y737507D01*
X222555Y737581D01*
X222615Y737651D01*
X222627Y737681D01*
X222646Y737707D01*
X222673Y737794D01*
X222707Y737879D01*
X222711Y737920D01*
X222718Y737942D01*
X222717Y737974D01*
X222725Y738045D01*
X222725Y893960D01*
X236040Y907275D01*
X311955Y907275D01*
X312045Y907289D01*
X312136Y907297D01*
X312165Y907309D01*
X312197Y907314D01*
X312278Y907357D01*
X312362Y907393D01*
X312394Y907419D01*
X312415Y907430D01*
X312437Y907453D01*
X312493Y907498D01*
X314052Y909057D01*
X318448Y909057D01*
X318926Y908579D01*
X318984Y908537D01*
X319036Y908488D01*
X319083Y908466D01*
X319125Y908436D01*
X319194Y908414D01*
X319259Y908384D01*
X319311Y908379D01*
X319361Y908363D01*
X319432Y908365D01*
X319503Y908357D01*
X319554Y908368D01*
X319606Y908370D01*
X319674Y908394D01*
X319744Y908409D01*
X319789Y908436D01*
X319837Y908454D01*
X319893Y908499D01*
X319955Y908536D01*
X319989Y908575D01*
X320029Y908608D01*
X320068Y908668D01*
X320115Y908723D01*
X320134Y908771D01*
X320162Y908815D01*
X320180Y908884D01*
X320207Y908951D01*
X320215Y909022D01*
X320223Y909053D01*
X320221Y909076D01*
X320225Y909117D01*
X320225Y912710D01*
X393540Y986025D01*
X406975Y986025D01*
X407065Y986039D01*
X407156Y986047D01*
X407186Y986059D01*
X407217Y986064D01*
X407298Y986107D01*
X407382Y986143D01*
X407414Y986169D01*
X407435Y986180D01*
X407457Y986203D01*
X407513Y986248D01*
X408347Y987082D01*
X408389Y987141D01*
X408439Y987193D01*
X408461Y987240D01*
X408491Y987282D01*
X408512Y987351D01*
X408542Y987416D01*
X408548Y987468D01*
X408563Y987517D01*
X408562Y987589D01*
X408569Y987660D01*
X408558Y987711D01*
X408557Y987763D01*
X408532Y987830D01*
X408517Y987901D01*
X408490Y987945D01*
X408473Y987994D01*
X408428Y988050D01*
X408391Y988112D01*
X408351Y988145D01*
X408319Y988186D01*
X408258Y988225D01*
X408204Y988272D01*
X408156Y988291D01*
X408112Y988319D01*
X408042Y988337D01*
X407975Y988363D01*
X407905Y988371D01*
X407873Y988379D01*
X407850Y988377D01*
X407809Y988382D01*
X211921Y988247D01*
X211902Y988244D01*
X211883Y988246D01*
X211781Y988224D01*
X211679Y988207D01*
X211661Y988198D01*
X211642Y988194D01*
X211553Y988140D01*
X211461Y988092D01*
X211448Y988077D01*
X211431Y988067D01*
X211364Y987988D01*
X211292Y987913D01*
X211284Y987895D01*
X211271Y987880D01*
X211232Y987784D01*
X211189Y987690D01*
X211187Y987671D01*
X211179Y987652D01*
X211161Y987486D01*
X211161Y299329D01*
X211164Y299310D01*
X211162Y299289D01*
X211184Y299188D01*
X211200Y299087D01*
X211210Y299069D01*
X211214Y299049D01*
X211267Y298960D01*
X211316Y298869D01*
X211330Y298855D01*
X211341Y298838D01*
X211419Y298771D01*
X211494Y298700D01*
X211512Y298691D01*
X211528Y298678D01*
X211623Y298640D01*
X211717Y298596D01*
X211737Y298594D01*
X211756Y298587D01*
X211923Y298568D01*
X857524Y299013D01*
G37*
G36*
X628146Y635872D02*
X628146Y635872D01*
X628217Y635878D01*
X628265Y635898D01*
X628316Y635909D01*
X628377Y635946D01*
X628443Y635974D01*
X628499Y636019D01*
X628527Y636036D01*
X628542Y636053D01*
X628574Y636079D01*
X629052Y636557D01*
X631257Y636557D01*
X631347Y636571D01*
X631438Y636579D01*
X631467Y636591D01*
X631499Y636596D01*
X631580Y636639D01*
X631664Y636675D01*
X631696Y636701D01*
X631717Y636712D01*
X631723Y636718D01*
X631740Y636736D01*
X631795Y636780D01*
X811441Y816426D01*
X811483Y816484D01*
X811532Y816536D01*
X811554Y816583D01*
X811585Y816625D01*
X811606Y816694D01*
X811636Y816759D01*
X811642Y816811D01*
X811657Y816861D01*
X811655Y816932D01*
X811663Y817003D01*
X811652Y817054D01*
X811651Y817106D01*
X811626Y817174D01*
X811611Y817244D01*
X811584Y817288D01*
X811566Y817337D01*
X811521Y817393D01*
X811485Y817455D01*
X811445Y817489D01*
X811412Y817529D01*
X811352Y817568D01*
X811298Y817615D01*
X811249Y817634D01*
X811205Y817662D01*
X811136Y817680D01*
X811069Y817707D01*
X810998Y817715D01*
X810967Y817723D01*
X810944Y817721D01*
X810903Y817725D01*
X800525Y817725D01*
X800435Y817711D01*
X800344Y817703D01*
X800315Y817691D01*
X800283Y817686D01*
X800202Y817643D01*
X800118Y817607D01*
X800086Y817581D01*
X800065Y817570D01*
X800043Y817547D01*
X799987Y817502D01*
X710530Y728045D01*
X710477Y727971D01*
X710417Y727902D01*
X710405Y727871D01*
X710386Y727845D01*
X710359Y727758D01*
X710325Y727673D01*
X710321Y727632D01*
X710314Y727610D01*
X710315Y727578D01*
X710307Y727507D01*
X710307Y725302D01*
X707198Y722193D01*
X702802Y722193D01*
X699693Y725302D01*
X699693Y729698D01*
X702802Y732807D01*
X705007Y732807D01*
X705097Y732821D01*
X705188Y732829D01*
X705217Y732841D01*
X705249Y732846D01*
X705330Y732889D01*
X705414Y732925D01*
X705446Y732951D01*
X705467Y732962D01*
X705489Y732985D01*
X705545Y733030D01*
X795002Y822487D01*
X797235Y824720D01*
X797277Y824778D01*
X797326Y824830D01*
X797348Y824877D01*
X797379Y824919D01*
X797400Y824988D01*
X797430Y825053D01*
X797436Y825105D01*
X797451Y825155D01*
X797449Y825226D01*
X797457Y825297D01*
X797446Y825348D01*
X797445Y825400D01*
X797420Y825468D01*
X797405Y825538D01*
X797378Y825583D01*
X797360Y825631D01*
X797315Y825687D01*
X797279Y825749D01*
X797239Y825783D01*
X797206Y825823D01*
X797146Y825862D01*
X797092Y825909D01*
X797043Y825928D01*
X796999Y825956D01*
X796930Y825974D01*
X796863Y826001D01*
X796792Y826009D01*
X796761Y826017D01*
X796738Y826015D01*
X796697Y826019D01*
X790243Y826019D01*
X790243Y839537D01*
X803761Y839537D01*
X803761Y828226D01*
X803588Y827579D01*
X803253Y827000D01*
X802780Y826527D01*
X802206Y826195D01*
X802168Y826165D01*
X802126Y826142D01*
X802074Y826087D01*
X802015Y826039D01*
X801990Y825999D01*
X801957Y825964D01*
X801925Y825895D01*
X801884Y825831D01*
X801873Y825785D01*
X801853Y825741D01*
X801845Y825666D01*
X801827Y825592D01*
X801831Y825544D01*
X801826Y825497D01*
X801842Y825422D01*
X801849Y825347D01*
X801868Y825303D01*
X801878Y825256D01*
X801917Y825191D01*
X801947Y825122D01*
X801980Y825086D01*
X802004Y825045D01*
X802062Y824996D01*
X802113Y824940D01*
X802155Y824916D01*
X802191Y824885D01*
X802262Y824857D01*
X802328Y824820D01*
X802375Y824811D01*
X802419Y824793D01*
X802548Y824779D01*
X802570Y824775D01*
X802576Y824776D01*
X802586Y824775D01*
X808214Y824775D01*
X808234Y824778D01*
X808253Y824776D01*
X808355Y824798D01*
X808457Y824814D01*
X808474Y824824D01*
X808494Y824828D01*
X808583Y824881D01*
X808674Y824930D01*
X808688Y824944D01*
X808705Y824954D01*
X808772Y825033D01*
X808844Y825108D01*
X808852Y825126D01*
X808865Y825141D01*
X808904Y825237D01*
X808947Y825331D01*
X808949Y825351D01*
X808957Y825369D01*
X808975Y825536D01*
X808975Y872710D01*
X852502Y916237D01*
X852555Y916311D01*
X852615Y916380D01*
X852627Y916411D01*
X852646Y916437D01*
X852673Y916524D01*
X852707Y916609D01*
X852711Y916650D01*
X852718Y916672D01*
X852717Y916704D01*
X852725Y916775D01*
X852725Y918016D01*
X852722Y918036D01*
X852724Y918055D01*
X852702Y918157D01*
X852686Y918259D01*
X852676Y918276D01*
X852672Y918296D01*
X852619Y918385D01*
X852570Y918476D01*
X852556Y918490D01*
X852546Y918507D01*
X852467Y918574D01*
X852392Y918646D01*
X852374Y918654D01*
X852359Y918667D01*
X852263Y918706D01*
X852169Y918749D01*
X852149Y918751D01*
X852131Y918759D01*
X851964Y918777D01*
X851827Y918777D01*
X847813Y920440D01*
X844740Y923513D01*
X843077Y927527D01*
X843077Y931873D01*
X844740Y935887D01*
X847813Y938960D01*
X851827Y940623D01*
X856173Y940623D01*
X860187Y938960D01*
X863260Y935887D01*
X864923Y931873D01*
X864923Y927527D01*
X863260Y923513D01*
X860156Y920409D01*
X860146Y920403D01*
X860045Y920342D01*
X860041Y920338D01*
X860036Y920334D01*
X859962Y920245D01*
X859885Y920156D01*
X859883Y920150D01*
X859879Y920145D01*
X859837Y920037D01*
X859809Y919966D01*
X859803Y919953D01*
X859803Y919951D01*
X859793Y919927D01*
X859792Y919920D01*
X859791Y919915D01*
X859790Y919897D01*
X859775Y919761D01*
X859775Y913540D01*
X816248Y870013D01*
X816201Y869948D01*
X816188Y869934D01*
X816185Y869927D01*
X816135Y869870D01*
X816123Y869839D01*
X816104Y869813D01*
X816077Y869726D01*
X816043Y869641D01*
X816039Y869600D01*
X816032Y869578D01*
X816033Y869546D01*
X816025Y869475D01*
X816025Y822847D01*
X816036Y822777D01*
X816038Y822705D01*
X816056Y822656D01*
X816064Y822605D01*
X816098Y822541D01*
X816123Y822474D01*
X816155Y822433D01*
X816180Y822387D01*
X816232Y822338D01*
X816276Y822282D01*
X816320Y822254D01*
X816358Y822218D01*
X816423Y822188D01*
X816483Y822149D01*
X816534Y822136D01*
X816581Y822114D01*
X816652Y822106D01*
X816722Y822089D01*
X816774Y822093D01*
X816825Y822087D01*
X816896Y822102D01*
X816967Y822108D01*
X817015Y822128D01*
X817066Y822139D01*
X817127Y822176D01*
X817193Y822204D01*
X817249Y822249D01*
X817277Y822265D01*
X817292Y822283D01*
X817324Y822309D01*
X918752Y923737D01*
X918805Y923811D01*
X918865Y923880D01*
X918877Y923911D01*
X918896Y923937D01*
X918923Y924024D01*
X918957Y924109D01*
X918961Y924150D01*
X918968Y924172D01*
X918967Y924204D01*
X918975Y924275D01*
X918975Y934475D01*
X918961Y934565D01*
X918953Y934656D01*
X918941Y934685D01*
X918936Y934717D01*
X918893Y934798D01*
X918857Y934882D01*
X918831Y934914D01*
X918820Y934935D01*
X918797Y934957D01*
X918752Y935013D01*
X909182Y944584D01*
X909087Y944651D01*
X908993Y944722D01*
X908987Y944724D01*
X908982Y944727D01*
X908871Y944761D01*
X908759Y944798D01*
X908753Y944798D01*
X908747Y944800D01*
X908630Y944796D01*
X908513Y944795D01*
X908506Y944793D01*
X908501Y944793D01*
X908484Y944787D01*
X908352Y944749D01*
X906973Y944177D01*
X902627Y944177D01*
X898613Y945840D01*
X895540Y948913D01*
X893877Y952927D01*
X893877Y957273D01*
X895540Y961287D01*
X898613Y964360D01*
X902627Y966023D01*
X906973Y966023D01*
X910987Y964360D01*
X914060Y961287D01*
X915723Y957273D01*
X915723Y952927D01*
X914478Y949922D01*
X914451Y949808D01*
X914422Y949694D01*
X914423Y949688D01*
X914422Y949682D01*
X914433Y949566D01*
X914442Y949449D01*
X914444Y949444D01*
X914445Y949437D01*
X914492Y949330D01*
X914538Y949223D01*
X914543Y949217D01*
X914545Y949213D01*
X914557Y949199D01*
X914643Y949092D01*
X923926Y939809D01*
X923984Y939767D01*
X924036Y939718D01*
X924083Y939696D01*
X924125Y939665D01*
X924194Y939644D01*
X924259Y939614D01*
X924311Y939608D01*
X924361Y939593D01*
X924432Y939595D01*
X924503Y939587D01*
X924554Y939598D01*
X924606Y939599D01*
X924674Y939624D01*
X924744Y939639D01*
X924788Y939666D01*
X924837Y939684D01*
X924893Y939729D01*
X924955Y939765D01*
X924989Y939805D01*
X925029Y939838D01*
X925068Y939898D01*
X925115Y939952D01*
X925134Y940001D01*
X925162Y940045D01*
X925180Y940114D01*
X925207Y940181D01*
X925215Y940252D01*
X925223Y940283D01*
X925221Y940306D01*
X925225Y940347D01*
X925225Y951975D01*
X925211Y952065D01*
X925203Y952156D01*
X925191Y952185D01*
X925186Y952217D01*
X925143Y952298D01*
X925107Y952382D01*
X925081Y952414D01*
X925070Y952435D01*
X925047Y952457D01*
X925002Y952513D01*
X910013Y967502D01*
X909939Y967555D01*
X909870Y967615D01*
X909839Y967627D01*
X909813Y967646D01*
X909726Y967673D01*
X909641Y967707D01*
X909600Y967711D01*
X909578Y967718D01*
X909546Y967717D01*
X909475Y967725D01*
X885536Y967725D01*
X885516Y967722D01*
X885497Y967724D01*
X885395Y967702D01*
X885293Y967686D01*
X885276Y967676D01*
X885256Y967672D01*
X885167Y967619D01*
X885076Y967570D01*
X885062Y967556D01*
X885045Y967546D01*
X884978Y967467D01*
X884906Y967392D01*
X884898Y967374D01*
X884885Y967359D01*
X884846Y967263D01*
X884803Y967169D01*
X884801Y967149D01*
X884793Y967131D01*
X884775Y966964D01*
X884775Y965205D01*
X884794Y965090D01*
X884811Y964974D01*
X884813Y964968D01*
X884814Y964962D01*
X884869Y964860D01*
X884922Y964755D01*
X884927Y964750D01*
X884930Y964745D01*
X885014Y964665D01*
X885098Y964583D01*
X885104Y964579D01*
X885108Y964576D01*
X885125Y964568D01*
X885245Y964502D01*
X885587Y964360D01*
X888660Y961287D01*
X890323Y957273D01*
X890323Y952927D01*
X888660Y948913D01*
X885587Y945840D01*
X881573Y944177D01*
X877227Y944177D01*
X873213Y945840D01*
X870140Y948913D01*
X868477Y952927D01*
X868477Y957273D01*
X870140Y961287D01*
X873213Y964360D01*
X877255Y966034D01*
X877355Y966096D01*
X877455Y966156D01*
X877459Y966161D01*
X877464Y966164D01*
X877539Y966254D01*
X877615Y966343D01*
X877617Y966349D01*
X877621Y966353D01*
X877663Y966461D01*
X877707Y966571D01*
X877708Y966578D01*
X877709Y966583D01*
X877710Y966601D01*
X877725Y966738D01*
X877725Y972723D01*
X877733Y972734D01*
X877782Y972786D01*
X877804Y972833D01*
X877835Y972875D01*
X877856Y972944D01*
X877886Y973009D01*
X877892Y973061D01*
X877907Y973110D01*
X877905Y973182D01*
X877913Y973253D01*
X877902Y973304D01*
X877901Y973356D01*
X877876Y973424D01*
X877861Y973494D01*
X877834Y973539D01*
X877816Y973587D01*
X877771Y973643D01*
X877735Y973705D01*
X877695Y973739D01*
X877662Y973779D01*
X877602Y973818D01*
X877548Y973865D01*
X877499Y973884D01*
X877456Y973912D01*
X877386Y973930D01*
X877319Y973957D01*
X877248Y973965D01*
X877217Y973973D01*
X877194Y973971D01*
X877153Y973975D01*
X860536Y973975D01*
X860516Y973972D01*
X860497Y973974D01*
X860395Y973952D01*
X860293Y973936D01*
X860276Y973926D01*
X860256Y973922D01*
X860167Y973869D01*
X860076Y973820D01*
X860062Y973806D01*
X860045Y973796D01*
X859978Y973717D01*
X859906Y973642D01*
X859898Y973624D01*
X859885Y973609D01*
X859846Y973513D01*
X859803Y973419D01*
X859801Y973399D01*
X859793Y973381D01*
X859775Y973214D01*
X859775Y965039D01*
X859793Y964925D01*
X859811Y964808D01*
X859813Y964803D01*
X859814Y964797D01*
X859869Y964694D01*
X859922Y964589D01*
X859927Y964585D01*
X859930Y964579D01*
X860014Y964499D01*
X860098Y964417D01*
X860104Y964413D01*
X860108Y964410D01*
X860125Y964402D01*
X860170Y964377D01*
X863260Y961287D01*
X864923Y957273D01*
X864923Y952927D01*
X863260Y948913D01*
X860187Y945840D01*
X856173Y944177D01*
X851827Y944177D01*
X847813Y945840D01*
X844740Y948913D01*
X843077Y952927D01*
X843077Y957273D01*
X844740Y961287D01*
X847813Y964360D01*
X851827Y966023D01*
X851964Y966023D01*
X851984Y966026D01*
X852003Y966024D01*
X852105Y966046D01*
X852207Y966062D01*
X852224Y966072D01*
X852244Y966076D01*
X852333Y966129D01*
X852424Y966178D01*
X852438Y966192D01*
X852455Y966202D01*
X852522Y966281D01*
X852594Y966356D01*
X852602Y966374D01*
X852615Y966389D01*
X852654Y966485D01*
X852697Y966579D01*
X852699Y966599D01*
X852707Y966617D01*
X852725Y966784D01*
X852725Y978960D01*
X853941Y980176D01*
X853983Y980234D01*
X854032Y980286D01*
X854054Y980333D01*
X854085Y980375D01*
X854106Y980444D01*
X854136Y980509D01*
X854142Y980561D01*
X854157Y980611D01*
X854155Y980682D01*
X854163Y980753D01*
X854152Y980804D01*
X854151Y980856D01*
X854126Y980924D01*
X854111Y980994D01*
X854084Y981039D01*
X854066Y981087D01*
X854021Y981143D01*
X853985Y981205D01*
X853945Y981239D01*
X853912Y981279D01*
X853852Y981318D01*
X853798Y981365D01*
X853749Y981384D01*
X853705Y981412D01*
X853636Y981430D01*
X853569Y981457D01*
X853498Y981465D01*
X853467Y981473D01*
X853444Y981471D01*
X853403Y981475D01*
X814286Y981475D01*
X814266Y981472D01*
X814247Y981474D01*
X814145Y981452D01*
X814043Y981436D01*
X814026Y981426D01*
X814006Y981422D01*
X813917Y981369D01*
X813826Y981320D01*
X813812Y981306D01*
X813795Y981296D01*
X813728Y981217D01*
X813656Y981142D01*
X813648Y981124D01*
X813635Y981109D01*
X813596Y981013D01*
X813553Y980919D01*
X813551Y980899D01*
X813543Y980881D01*
X813525Y980714D01*
X813525Y959772D01*
X813522Y959769D01*
X813515Y959761D01*
X813512Y959754D01*
X813501Y959739D01*
X813432Y959647D01*
X813430Y959641D01*
X813426Y959636D01*
X813392Y959523D01*
X813356Y959413D01*
X813356Y959406D01*
X813354Y959400D01*
X813357Y959284D01*
X813358Y959167D01*
X813360Y959159D01*
X813360Y959155D01*
X813367Y959137D01*
X813405Y959006D01*
X814123Y957273D01*
X814123Y952927D01*
X812460Y948913D01*
X809387Y945840D01*
X805373Y944177D01*
X801027Y944177D01*
X797013Y945840D01*
X793940Y948913D01*
X792277Y952927D01*
X792277Y957273D01*
X793940Y961287D01*
X797013Y964360D01*
X801027Y966023D01*
X805373Y966023D01*
X805423Y966002D01*
X805467Y965992D01*
X805509Y965972D01*
X805586Y965964D01*
X805662Y965946D01*
X805708Y965950D01*
X805753Y965945D01*
X805829Y965962D01*
X805907Y965969D01*
X805949Y965988D01*
X805994Y965997D01*
X806061Y966037D01*
X806132Y966069D01*
X806166Y966100D01*
X806205Y966124D01*
X806255Y966183D01*
X806313Y966235D01*
X806335Y966275D01*
X806365Y966310D01*
X806394Y966383D01*
X806431Y966451D01*
X806440Y966496D01*
X806457Y966539D01*
X806472Y966674D01*
X806475Y966693D01*
X806474Y966698D01*
X806475Y966705D01*
X806475Y986460D01*
X807372Y987357D01*
X807414Y987416D01*
X807464Y987468D01*
X807486Y987515D01*
X807516Y987557D01*
X807537Y987625D01*
X807567Y987691D01*
X807573Y987742D01*
X807588Y987792D01*
X807586Y987864D01*
X807594Y987935D01*
X807583Y987986D01*
X807582Y988038D01*
X807557Y988105D01*
X807542Y988176D01*
X807515Y988220D01*
X807497Y988269D01*
X807452Y988325D01*
X807416Y988387D01*
X807376Y988420D01*
X807344Y988461D01*
X807283Y988500D01*
X807228Y988546D01*
X807181Y988566D01*
X807137Y988594D01*
X807067Y988611D01*
X807000Y988638D01*
X806930Y988646D01*
X806898Y988654D01*
X806875Y988652D01*
X806834Y988657D01*
X678254Y988568D01*
X678184Y988556D01*
X678112Y988555D01*
X678063Y988537D01*
X678011Y988528D01*
X677948Y988495D01*
X677881Y988470D01*
X677840Y988437D01*
X677794Y988413D01*
X677745Y988361D01*
X677689Y988316D01*
X677661Y988272D01*
X677625Y988234D01*
X677595Y988170D01*
X677556Y988110D01*
X677543Y988059D01*
X677521Y988011D01*
X677513Y987940D01*
X677496Y987871D01*
X677500Y987819D01*
X677494Y987767D01*
X677510Y987697D01*
X677515Y987626D01*
X677536Y987578D01*
X677547Y987526D01*
X677584Y987465D01*
X677611Y987399D01*
X677656Y987343D01*
X677673Y987315D01*
X677691Y987300D01*
X677716Y987269D01*
X678525Y986460D01*
X678525Y966468D01*
X678544Y966353D01*
X678561Y966237D01*
X678563Y966232D01*
X678564Y966226D01*
X678619Y966123D01*
X678672Y966018D01*
X678677Y966014D01*
X678680Y966008D01*
X678764Y965928D01*
X678848Y965846D01*
X678854Y965842D01*
X678858Y965839D01*
X678875Y965831D01*
X678995Y965765D01*
X682387Y964360D01*
X685460Y961287D01*
X687123Y957273D01*
X687123Y952927D01*
X685460Y948913D01*
X682387Y945840D01*
X678373Y944177D01*
X674027Y944177D01*
X670013Y945840D01*
X666940Y948913D01*
X665277Y952927D01*
X665277Y957273D01*
X666940Y961287D01*
X670013Y964360D01*
X671005Y964771D01*
X671105Y964833D01*
X671205Y964892D01*
X671209Y964897D01*
X671214Y964901D01*
X671289Y964991D01*
X671365Y965079D01*
X671367Y965085D01*
X671371Y965090D01*
X671413Y965198D01*
X671457Y965308D01*
X671458Y965315D01*
X671459Y965320D01*
X671460Y965338D01*
X671475Y965474D01*
X671475Y980714D01*
X671472Y980734D01*
X671474Y980753D01*
X671452Y980855D01*
X671436Y980957D01*
X671426Y980974D01*
X671422Y980994D01*
X671369Y981083D01*
X671320Y981174D01*
X671306Y981188D01*
X671296Y981205D01*
X671217Y981272D01*
X671142Y981344D01*
X671124Y981352D01*
X671109Y981365D01*
X671013Y981404D01*
X670919Y981447D01*
X670899Y981449D01*
X670881Y981457D01*
X670714Y981475D01*
X617867Y981475D01*
X617797Y981464D01*
X617725Y981462D01*
X617676Y981444D01*
X617625Y981436D01*
X617561Y981402D01*
X617494Y981377D01*
X617453Y981345D01*
X617407Y981320D01*
X617358Y981268D01*
X617302Y981224D01*
X617274Y981180D01*
X617238Y981142D01*
X617208Y981077D01*
X617169Y981017D01*
X617156Y980966D01*
X617134Y980919D01*
X617126Y980848D01*
X617109Y980778D01*
X617113Y980726D01*
X617107Y980675D01*
X617122Y980604D01*
X617128Y980533D01*
X617148Y980485D01*
X617159Y980434D01*
X617196Y980373D01*
X617224Y980307D01*
X617269Y980251D01*
X617286Y980223D01*
X617303Y980208D01*
X617329Y980176D01*
X617807Y979698D01*
X617807Y975302D01*
X614698Y972193D01*
X610302Y972193D01*
X608743Y973752D01*
X608669Y973805D01*
X608599Y973865D01*
X608569Y973877D01*
X608543Y973896D01*
X608456Y973923D01*
X608371Y973957D01*
X608330Y973961D01*
X608308Y973968D01*
X608276Y973967D01*
X608205Y973975D01*
X555536Y973975D01*
X555516Y973972D01*
X555497Y973974D01*
X555395Y973952D01*
X555293Y973936D01*
X555276Y973926D01*
X555256Y973922D01*
X555167Y973869D01*
X555076Y973820D01*
X555062Y973806D01*
X555045Y973796D01*
X554978Y973717D01*
X554906Y973642D01*
X554898Y973624D01*
X554885Y973609D01*
X554846Y973513D01*
X554803Y973419D01*
X554801Y973399D01*
X554793Y973381D01*
X554775Y973214D01*
X554775Y965122D01*
X554794Y965007D01*
X554811Y964891D01*
X554813Y964886D01*
X554814Y964879D01*
X554869Y964777D01*
X554922Y964672D01*
X554927Y964668D01*
X554930Y964662D01*
X555014Y964582D01*
X555098Y964500D01*
X555104Y964496D01*
X555108Y964493D01*
X555125Y964485D01*
X555245Y964419D01*
X555387Y964360D01*
X558460Y961287D01*
X560123Y957273D01*
X560123Y952927D01*
X558460Y948913D01*
X555387Y945840D01*
X551373Y944177D01*
X547027Y944177D01*
X543013Y945840D01*
X539940Y948913D01*
X538277Y952927D01*
X538277Y957273D01*
X539940Y961287D01*
X543013Y964360D01*
X547059Y966036D01*
X547105Y966046D01*
X547207Y966062D01*
X547224Y966072D01*
X547244Y966076D01*
X547333Y966129D01*
X547424Y966178D01*
X547438Y966192D01*
X547455Y966202D01*
X547522Y966281D01*
X547594Y966356D01*
X547602Y966374D01*
X547615Y966389D01*
X547654Y966485D01*
X547697Y966579D01*
X547699Y966599D01*
X547707Y966617D01*
X547725Y966784D01*
X547725Y978960D01*
X548941Y980176D01*
X548983Y980234D01*
X549032Y980286D01*
X549054Y980333D01*
X549085Y980375D01*
X549106Y980444D01*
X549136Y980509D01*
X549142Y980561D01*
X549157Y980611D01*
X549155Y980682D01*
X549163Y980753D01*
X549152Y980804D01*
X549151Y980856D01*
X549126Y980924D01*
X549111Y980994D01*
X549084Y981039D01*
X549066Y981087D01*
X549021Y981143D01*
X548985Y981205D01*
X548945Y981239D01*
X548912Y981279D01*
X548852Y981318D01*
X548798Y981365D01*
X548749Y981384D01*
X548705Y981412D01*
X548636Y981430D01*
X548569Y981457D01*
X548498Y981465D01*
X548467Y981473D01*
X548444Y981471D01*
X548403Y981475D01*
X527847Y981475D01*
X527777Y981464D01*
X527705Y981462D01*
X527656Y981444D01*
X527605Y981436D01*
X527541Y981402D01*
X527474Y981377D01*
X527433Y981345D01*
X527387Y981320D01*
X527338Y981268D01*
X527282Y981224D01*
X527254Y981180D01*
X527218Y981142D01*
X527188Y981077D01*
X527149Y981017D01*
X527136Y980966D01*
X527114Y980919D01*
X527106Y980848D01*
X527089Y980778D01*
X527093Y980726D01*
X527087Y980675D01*
X527102Y980604D01*
X527108Y980533D01*
X527128Y980485D01*
X527139Y980434D01*
X527176Y980373D01*
X527204Y980307D01*
X527249Y980251D01*
X527265Y980223D01*
X527283Y980208D01*
X527309Y980176D01*
X528525Y978960D01*
X528525Y965474D01*
X528544Y965360D01*
X528561Y965243D01*
X528563Y965238D01*
X528564Y965232D01*
X528619Y965129D01*
X528672Y965024D01*
X528677Y965020D01*
X528680Y965014D01*
X528764Y964934D01*
X528848Y964852D01*
X528854Y964848D01*
X528858Y964845D01*
X528875Y964837D01*
X528995Y964771D01*
X529987Y964360D01*
X533060Y961287D01*
X534723Y957273D01*
X534723Y952927D01*
X533060Y948913D01*
X529987Y945840D01*
X525973Y944177D01*
X521627Y944177D01*
X517613Y945840D01*
X514540Y948913D01*
X512877Y952927D01*
X512877Y957273D01*
X514540Y961287D01*
X517613Y964360D01*
X521005Y965765D01*
X521105Y965827D01*
X521205Y965887D01*
X521209Y965891D01*
X521214Y965895D01*
X521289Y965985D01*
X521365Y966074D01*
X521367Y966079D01*
X521371Y966084D01*
X521413Y966193D01*
X521457Y966302D01*
X521458Y966309D01*
X521459Y966314D01*
X521460Y966332D01*
X521475Y966468D01*
X521475Y973214D01*
X521472Y973234D01*
X521474Y973253D01*
X521452Y973355D01*
X521436Y973457D01*
X521426Y973474D01*
X521422Y973494D01*
X521369Y973583D01*
X521320Y973674D01*
X521306Y973688D01*
X521296Y973705D01*
X521217Y973772D01*
X521142Y973844D01*
X521124Y973852D01*
X521109Y973865D01*
X521013Y973904D01*
X520919Y973947D01*
X520899Y973949D01*
X520881Y973957D01*
X520714Y973975D01*
X500347Y973975D01*
X500276Y973964D01*
X500205Y973962D01*
X500156Y973944D01*
X500105Y973936D01*
X500041Y973902D01*
X499974Y973877D01*
X499933Y973845D01*
X499887Y973820D01*
X499838Y973768D01*
X499782Y973724D01*
X499754Y973680D01*
X499718Y973642D01*
X499688Y973577D01*
X499649Y973517D01*
X499636Y973466D01*
X499614Y973419D01*
X499606Y973348D01*
X499589Y973278D01*
X499593Y973226D01*
X499587Y973175D01*
X499602Y973104D01*
X499608Y973033D01*
X499628Y972985D01*
X499639Y972934D01*
X499676Y972873D01*
X499704Y972807D01*
X499749Y972751D01*
X499765Y972723D01*
X499775Y972715D01*
X499775Y966784D01*
X499778Y966764D01*
X499776Y966745D01*
X499798Y966643D01*
X499814Y966541D01*
X499824Y966524D01*
X499828Y966504D01*
X499881Y966415D01*
X499930Y966324D01*
X499944Y966310D01*
X499954Y966293D01*
X500033Y966226D01*
X500108Y966154D01*
X500126Y966146D01*
X500141Y966133D01*
X500237Y966094D01*
X500331Y966051D01*
X500351Y966049D01*
X500369Y966041D01*
X500536Y966023D01*
X500573Y966023D01*
X504587Y964360D01*
X507660Y961287D01*
X509323Y957273D01*
X509323Y952927D01*
X507660Y948913D01*
X504587Y945840D01*
X500573Y944177D01*
X496227Y944177D01*
X492213Y945840D01*
X489140Y948913D01*
X487477Y952927D01*
X487477Y957273D01*
X489140Y961287D01*
X492213Y964360D01*
X492255Y964377D01*
X492355Y964439D01*
X492455Y964499D01*
X492459Y964504D01*
X492464Y964507D01*
X492539Y964597D01*
X492615Y964686D01*
X492617Y964692D01*
X492621Y964697D01*
X492663Y964805D01*
X492707Y964914D01*
X492708Y964922D01*
X492709Y964926D01*
X492710Y964944D01*
X492725Y965081D01*
X492725Y966964D01*
X492723Y966976D01*
X492724Y966985D01*
X492723Y966991D01*
X492724Y967003D01*
X492702Y967105D01*
X492686Y967207D01*
X492676Y967224D01*
X492672Y967244D01*
X492619Y967333D01*
X492570Y967424D01*
X492556Y967438D01*
X492546Y967455D01*
X492467Y967522D01*
X492392Y967594D01*
X492374Y967602D01*
X492359Y967615D01*
X492263Y967654D01*
X492169Y967697D01*
X492149Y967699D01*
X492131Y967707D01*
X491964Y967725D01*
X477584Y967725D01*
X477580Y967725D01*
X477576Y967725D01*
X477458Y967705D01*
X477342Y967686D01*
X477338Y967684D01*
X477334Y967683D01*
X477228Y967626D01*
X477124Y967570D01*
X477121Y967568D01*
X477118Y967566D01*
X477036Y967478D01*
X476955Y967392D01*
X476953Y967388D01*
X476950Y967385D01*
X476901Y967277D01*
X476851Y967169D01*
X476851Y967165D01*
X476849Y967161D01*
X476837Y967042D01*
X476824Y966925D01*
X476825Y966921D01*
X476825Y966917D01*
X476851Y966800D01*
X476876Y966684D01*
X476878Y966681D01*
X476879Y966677D01*
X476941Y966575D01*
X477003Y966473D01*
X477006Y966470D01*
X477008Y966467D01*
X477098Y966391D01*
X477189Y966313D01*
X477193Y966312D01*
X477196Y966309D01*
X477349Y966240D01*
X477583Y966164D01*
X479257Y965311D01*
X480778Y964206D01*
X482106Y962878D01*
X483211Y961357D01*
X484064Y959683D01*
X484645Y957896D01*
X484846Y956623D01*
X473762Y956623D01*
X473742Y956620D01*
X473723Y956622D01*
X473621Y956600D01*
X473519Y956583D01*
X473502Y956574D01*
X473482Y956570D01*
X473393Y956517D01*
X473302Y956468D01*
X473288Y956454D01*
X473271Y956444D01*
X473204Y956365D01*
X473133Y956290D01*
X473124Y956272D01*
X473111Y956257D01*
X473073Y956161D01*
X473029Y956067D01*
X473027Y956047D01*
X473019Y956029D01*
X473001Y955862D01*
X473001Y955099D01*
X472999Y955099D01*
X472999Y955862D01*
X472996Y955882D01*
X472998Y955901D01*
X472976Y956003D01*
X472959Y956105D01*
X472950Y956122D01*
X472946Y956142D01*
X472893Y956231D01*
X472844Y956322D01*
X472830Y956336D01*
X472820Y956353D01*
X472741Y956420D01*
X472666Y956491D01*
X472648Y956500D01*
X472633Y956513D01*
X472537Y956552D01*
X472443Y956595D01*
X472423Y956597D01*
X472405Y956605D01*
X472238Y956623D01*
X461154Y956623D01*
X461355Y957896D01*
X461936Y959683D01*
X462789Y961357D01*
X463894Y962878D01*
X465222Y964206D01*
X466743Y965311D01*
X468417Y966164D01*
X468651Y966240D01*
X468654Y966242D01*
X468658Y966243D01*
X468763Y966298D01*
X468869Y966353D01*
X468872Y966356D01*
X468876Y966358D01*
X468958Y966444D01*
X469041Y966529D01*
X469042Y966533D01*
X469045Y966536D01*
X469096Y966645D01*
X469147Y966751D01*
X469147Y966755D01*
X469149Y966759D01*
X469162Y966876D01*
X469176Y966996D01*
X469175Y967000D01*
X469176Y967003D01*
X469151Y967120D01*
X469127Y967236D01*
X469125Y967240D01*
X469124Y967244D01*
X469062Y967346D01*
X469003Y967449D01*
X469000Y967452D01*
X468997Y967455D01*
X468907Y967533D01*
X468817Y967611D01*
X468814Y967612D01*
X468811Y967615D01*
X468700Y967659D01*
X468590Y967705D01*
X468586Y967705D01*
X468582Y967707D01*
X468416Y967725D01*
X416775Y967725D01*
X416685Y967711D01*
X416594Y967703D01*
X416565Y967691D01*
X416533Y967686D01*
X416452Y967643D01*
X416368Y967607D01*
X416336Y967581D01*
X416315Y967570D01*
X416299Y967553D01*
X416297Y967552D01*
X416289Y967544D01*
X416237Y967502D01*
X346248Y897513D01*
X346195Y897439D01*
X346135Y897370D01*
X346123Y897339D01*
X346104Y897313D01*
X346077Y897226D01*
X346043Y897141D01*
X346039Y897100D01*
X346032Y897078D01*
X346033Y897046D01*
X346025Y896975D01*
X346025Y851617D01*
X346036Y851547D01*
X346038Y851475D01*
X346056Y851426D01*
X346064Y851375D01*
X346098Y851311D01*
X346123Y851244D01*
X346155Y851203D01*
X346180Y851157D01*
X346232Y851108D01*
X346276Y851052D01*
X346320Y851024D01*
X346358Y850988D01*
X346423Y850958D01*
X346483Y850919D01*
X346534Y850906D01*
X346581Y850884D01*
X346652Y850876D01*
X346722Y850859D01*
X346774Y850863D01*
X346825Y850857D01*
X346896Y850872D01*
X346967Y850878D01*
X347015Y850898D01*
X347066Y850909D01*
X347127Y850946D01*
X347193Y850974D01*
X347249Y851019D01*
X347277Y851036D01*
X347292Y851053D01*
X347324Y851079D01*
X347802Y851557D01*
X352198Y851557D01*
X355307Y848448D01*
X355307Y846243D01*
X355321Y846153D01*
X355329Y846062D01*
X355341Y846033D01*
X355346Y846001D01*
X355389Y845920D01*
X355425Y845836D01*
X355451Y845804D01*
X355462Y845783D01*
X355485Y845761D01*
X355530Y845705D01*
X417144Y784091D01*
X417202Y784049D01*
X417254Y784000D01*
X417301Y783978D01*
X417343Y783947D01*
X417412Y783926D01*
X417477Y783896D01*
X417529Y783890D01*
X417579Y783875D01*
X417650Y783877D01*
X417721Y783869D01*
X417772Y783880D01*
X417824Y783881D01*
X417892Y783906D01*
X417962Y783921D01*
X418007Y783948D01*
X418055Y783966D01*
X418111Y784011D01*
X418173Y784047D01*
X418207Y784087D01*
X418247Y784120D01*
X418286Y784180D01*
X418333Y784234D01*
X418352Y784283D01*
X418380Y784327D01*
X418398Y784396D01*
X418425Y784463D01*
X418433Y784534D01*
X418441Y784565D01*
X418439Y784588D01*
X418443Y784629D01*
X418443Y785948D01*
X421552Y789057D01*
X425948Y789057D01*
X427507Y787498D01*
X427581Y787445D01*
X427651Y787385D01*
X427681Y787373D01*
X427707Y787354D01*
X427794Y787327D01*
X427879Y787293D01*
X427920Y787289D01*
X427942Y787282D01*
X427974Y787283D01*
X428045Y787275D01*
X484455Y787275D01*
X484545Y787289D01*
X484636Y787297D01*
X484665Y787309D01*
X484697Y787314D01*
X484778Y787357D01*
X484862Y787393D01*
X484894Y787419D01*
X484915Y787430D01*
X484929Y787445D01*
X484931Y787446D01*
X484940Y787456D01*
X484993Y787498D01*
X486552Y789057D01*
X490948Y789057D01*
X491426Y788579D01*
X491484Y788537D01*
X491536Y788488D01*
X491583Y788466D01*
X491625Y788436D01*
X491694Y788414D01*
X491759Y788384D01*
X491811Y788379D01*
X491861Y788363D01*
X491932Y788365D01*
X492003Y788357D01*
X492054Y788368D01*
X492106Y788370D01*
X492174Y788394D01*
X492244Y788409D01*
X492289Y788436D01*
X492337Y788454D01*
X492393Y788499D01*
X492455Y788536D01*
X492489Y788575D01*
X492529Y788608D01*
X492568Y788668D01*
X492615Y788723D01*
X492634Y788771D01*
X492662Y788815D01*
X492680Y788884D01*
X492707Y788951D01*
X492715Y789022D01*
X492723Y789053D01*
X492721Y789076D01*
X492725Y789117D01*
X492725Y790883D01*
X492714Y790953D01*
X492712Y791025D01*
X492694Y791074D01*
X492686Y791125D01*
X492652Y791189D01*
X492627Y791256D01*
X492595Y791297D01*
X492570Y791343D01*
X492518Y791392D01*
X492474Y791448D01*
X492430Y791476D01*
X492392Y791512D01*
X492327Y791542D01*
X492267Y791581D01*
X492216Y791594D01*
X492169Y791616D01*
X492098Y791624D01*
X492028Y791641D01*
X491976Y791637D01*
X491925Y791643D01*
X491854Y791628D01*
X491783Y791622D01*
X491735Y791602D01*
X491684Y791591D01*
X491623Y791554D01*
X491557Y791526D01*
X491501Y791481D01*
X491473Y791464D01*
X491458Y791447D01*
X491426Y791421D01*
X490948Y790943D01*
X486552Y790943D01*
X484993Y792502D01*
X484919Y792555D01*
X484849Y792615D01*
X484819Y792627D01*
X484793Y792646D01*
X484706Y792673D01*
X484621Y792707D01*
X484580Y792711D01*
X484558Y792718D01*
X484526Y792717D01*
X484455Y792725D01*
X433045Y792725D01*
X432955Y792711D01*
X432864Y792703D01*
X432835Y792691D01*
X432803Y792686D01*
X432722Y792643D01*
X432638Y792607D01*
X432606Y792581D01*
X432585Y792570D01*
X432563Y792547D01*
X432507Y792502D01*
X430948Y790943D01*
X426552Y790943D01*
X423443Y794052D01*
X423443Y798448D01*
X426552Y801557D01*
X430948Y801557D01*
X432507Y799998D01*
X432581Y799945D01*
X432651Y799885D01*
X432681Y799873D01*
X432707Y799854D01*
X432794Y799827D01*
X432879Y799793D01*
X432920Y799789D01*
X432942Y799782D01*
X432974Y799783D01*
X433045Y799775D01*
X469633Y799775D01*
X469703Y799786D01*
X469775Y799788D01*
X469824Y799806D01*
X469875Y799814D01*
X469939Y799848D01*
X470006Y799873D01*
X470047Y799905D01*
X470093Y799930D01*
X470142Y799982D01*
X470198Y800026D01*
X470226Y800070D01*
X470262Y800108D01*
X470292Y800173D01*
X470331Y800233D01*
X470344Y800284D01*
X470366Y800331D01*
X470374Y800402D01*
X470391Y800472D01*
X470387Y800524D01*
X470393Y800575D01*
X470378Y800646D01*
X470372Y800717D01*
X470352Y800765D01*
X470341Y800816D01*
X470304Y800877D01*
X470276Y800943D01*
X470231Y800999D01*
X470214Y801027D01*
X470197Y801042D01*
X470171Y801074D01*
X469693Y801552D01*
X469693Y805948D01*
X471252Y807507D01*
X471305Y807581D01*
X471365Y807651D01*
X471377Y807681D01*
X471396Y807707D01*
X471423Y807794D01*
X471457Y807879D01*
X471461Y807920D01*
X471468Y807942D01*
X471467Y807974D01*
X471475Y808045D01*
X471475Y872133D01*
X471464Y872203D01*
X471462Y872275D01*
X471444Y872324D01*
X471436Y872375D01*
X471402Y872439D01*
X471377Y872506D01*
X471345Y872547D01*
X471320Y872593D01*
X471268Y872642D01*
X471224Y872698D01*
X471180Y872726D01*
X471142Y872762D01*
X471077Y872792D01*
X471017Y872831D01*
X470966Y872844D01*
X470919Y872866D01*
X470848Y872874D01*
X470778Y872891D01*
X470726Y872887D01*
X470675Y872893D01*
X470604Y872878D01*
X470533Y872872D01*
X470485Y872852D01*
X470434Y872841D01*
X470373Y872804D01*
X470307Y872776D01*
X470251Y872731D01*
X470223Y872714D01*
X470208Y872697D01*
X470176Y872671D01*
X469698Y872193D01*
X465302Y872193D01*
X463743Y873752D01*
X463669Y873805D01*
X463599Y873865D01*
X463569Y873877D01*
X463543Y873896D01*
X463456Y873923D01*
X463371Y873957D01*
X463330Y873961D01*
X463308Y873968D01*
X463276Y873967D01*
X463205Y873975D01*
X385545Y873975D01*
X385455Y873961D01*
X385364Y873953D01*
X385335Y873941D01*
X385303Y873936D01*
X385222Y873893D01*
X385138Y873857D01*
X385106Y873831D01*
X385085Y873820D01*
X385063Y873797D01*
X385007Y873752D01*
X383448Y872193D01*
X379052Y872193D01*
X375943Y875302D01*
X375943Y879698D01*
X379052Y882807D01*
X383448Y882807D01*
X385007Y881248D01*
X385081Y881195D01*
X385151Y881135D01*
X385181Y881123D01*
X385207Y881104D01*
X385294Y881077D01*
X385379Y881043D01*
X385420Y881039D01*
X385442Y881032D01*
X385474Y881033D01*
X385545Y881025D01*
X385883Y881025D01*
X385953Y881036D01*
X386025Y881038D01*
X386074Y881056D01*
X386125Y881064D01*
X386189Y881098D01*
X386256Y881123D01*
X386297Y881155D01*
X386343Y881180D01*
X386392Y881232D01*
X386448Y881276D01*
X386476Y881320D01*
X386512Y881358D01*
X386542Y881423D01*
X386581Y881483D01*
X386594Y881534D01*
X386616Y881581D01*
X386624Y881652D01*
X386641Y881722D01*
X386637Y881774D01*
X386643Y881825D01*
X386628Y881896D01*
X386622Y881967D01*
X386602Y882015D01*
X386591Y882066D01*
X386554Y882127D01*
X386526Y882193D01*
X386481Y882249D01*
X386464Y882277D01*
X386447Y882292D01*
X386421Y882324D01*
X384693Y884052D01*
X384693Y888448D01*
X387802Y891557D01*
X392198Y891557D01*
X393757Y889998D01*
X393831Y889945D01*
X393901Y889885D01*
X393931Y889873D01*
X393957Y889854D01*
X394044Y889827D01*
X394129Y889793D01*
X394170Y889789D01*
X394192Y889782D01*
X394224Y889783D01*
X394295Y889775D01*
X434455Y889775D01*
X434545Y889789D01*
X434636Y889797D01*
X434665Y889809D01*
X434697Y889814D01*
X434778Y889857D01*
X434862Y889893D01*
X434894Y889919D01*
X434915Y889930D01*
X434937Y889953D01*
X434993Y889998D01*
X436552Y891557D01*
X440948Y891557D01*
X443837Y888668D01*
X443853Y888657D01*
X443865Y888641D01*
X443953Y888585D01*
X444036Y888525D01*
X444056Y888519D01*
X444072Y888508D01*
X444173Y888483D01*
X444272Y888452D01*
X444291Y888453D01*
X444311Y888448D01*
X444414Y888456D01*
X444517Y888459D01*
X444536Y888465D01*
X444556Y888467D01*
X444651Y888507D01*
X444748Y888543D01*
X444764Y888556D01*
X444782Y888563D01*
X444913Y888668D01*
X445002Y888757D01*
X445052Y888827D01*
X445094Y888870D01*
X445099Y888882D01*
X445115Y888901D01*
X445127Y888931D01*
X445146Y888957D01*
X445169Y889034D01*
X445197Y889093D01*
X445199Y889109D01*
X445207Y889129D01*
X445211Y889170D01*
X445218Y889192D01*
X445217Y889224D01*
X445225Y889295D01*
X445225Y918352D01*
X445207Y918466D01*
X445189Y918583D01*
X445187Y918589D01*
X445186Y918595D01*
X445131Y918698D01*
X445078Y918803D01*
X445073Y918807D01*
X445070Y918812D01*
X444986Y918892D01*
X444902Y918975D01*
X444896Y918978D01*
X444892Y918982D01*
X444875Y918990D01*
X444755Y919056D01*
X441413Y920440D01*
X438340Y923513D01*
X436677Y927527D01*
X436677Y931873D01*
X438340Y935887D01*
X441413Y938960D01*
X445427Y940623D01*
X449773Y940623D01*
X453787Y938960D01*
X456860Y935887D01*
X458523Y931873D01*
X458523Y927527D01*
X456860Y923513D01*
X453787Y920440D01*
X452745Y920008D01*
X452645Y919946D01*
X452545Y919887D01*
X452541Y919882D01*
X452536Y919879D01*
X452460Y919788D01*
X452385Y919700D01*
X452383Y919694D01*
X452379Y919689D01*
X452337Y919581D01*
X452293Y919472D01*
X452292Y919464D01*
X452291Y919460D01*
X452290Y919441D01*
X452275Y919305D01*
X452275Y889295D01*
X452278Y889277D01*
X452276Y889259D01*
X452291Y889190D01*
X452297Y889114D01*
X452309Y889085D01*
X452314Y889053D01*
X452325Y889033D01*
X452328Y889018D01*
X452361Y888964D01*
X452393Y888888D01*
X452419Y888856D01*
X452430Y888835D01*
X452448Y888818D01*
X452454Y888807D01*
X452465Y888798D01*
X452498Y888757D01*
X454057Y887198D01*
X454057Y882802D01*
X453579Y882324D01*
X453537Y882266D01*
X453488Y882214D01*
X453466Y882167D01*
X453436Y882125D01*
X453414Y882056D01*
X453384Y881991D01*
X453379Y881939D01*
X453363Y881889D01*
X453365Y881818D01*
X453357Y881747D01*
X453368Y881696D01*
X453370Y881644D01*
X453394Y881576D01*
X453409Y881506D01*
X453436Y881461D01*
X453454Y881413D01*
X453499Y881357D01*
X453536Y881295D01*
X453575Y881261D01*
X453608Y881221D01*
X453668Y881182D01*
X453723Y881135D01*
X453771Y881116D01*
X453815Y881088D01*
X453884Y881070D01*
X453951Y881043D01*
X454022Y881035D01*
X454053Y881027D01*
X454076Y881029D01*
X454117Y881025D01*
X463205Y881025D01*
X463295Y881039D01*
X463386Y881047D01*
X463415Y881059D01*
X463447Y881064D01*
X463528Y881107D01*
X463612Y881143D01*
X463644Y881169D01*
X463665Y881180D01*
X463687Y881203D01*
X463743Y881248D01*
X465302Y882807D01*
X469698Y882807D01*
X470176Y882329D01*
X470234Y882287D01*
X470286Y882238D01*
X470333Y882216D01*
X470375Y882186D01*
X470444Y882164D01*
X470509Y882134D01*
X470561Y882129D01*
X470611Y882113D01*
X470682Y882115D01*
X470753Y882107D01*
X470804Y882118D01*
X470856Y882120D01*
X470924Y882144D01*
X470994Y882159D01*
X471039Y882186D01*
X471087Y882204D01*
X471143Y882249D01*
X471205Y882286D01*
X471239Y882325D01*
X471279Y882358D01*
X471318Y882418D01*
X471365Y882473D01*
X471384Y882521D01*
X471412Y882565D01*
X471430Y882634D01*
X471457Y882701D01*
X471465Y882772D01*
X471473Y882803D01*
X471471Y882826D01*
X471475Y882867D01*
X471475Y918016D01*
X471472Y918036D01*
X471474Y918055D01*
X471452Y918157D01*
X471436Y918259D01*
X471426Y918276D01*
X471422Y918296D01*
X471369Y918385D01*
X471320Y918476D01*
X471306Y918490D01*
X471296Y918507D01*
X471217Y918574D01*
X471142Y918646D01*
X471124Y918654D01*
X471109Y918667D01*
X471013Y918706D01*
X470919Y918749D01*
X470899Y918751D01*
X470881Y918759D01*
X470869Y918760D01*
X466813Y920440D01*
X463740Y923513D01*
X462077Y927527D01*
X462077Y931873D01*
X463740Y935887D01*
X466813Y938960D01*
X470827Y940623D01*
X475173Y940623D01*
X479187Y938960D01*
X482260Y935887D01*
X483923Y931873D01*
X483923Y927527D01*
X482260Y923513D01*
X479187Y920440D01*
X478995Y920360D01*
X478896Y920299D01*
X478795Y920239D01*
X478791Y920234D01*
X478786Y920231D01*
X478711Y920141D01*
X478635Y920052D01*
X478633Y920046D01*
X478629Y920041D01*
X478587Y919933D01*
X478543Y919824D01*
X478542Y919816D01*
X478541Y919812D01*
X478540Y919793D01*
X478525Y919657D01*
X478525Y808045D01*
X478539Y807955D01*
X478547Y807864D01*
X478559Y807835D01*
X478564Y807803D01*
X478607Y807722D01*
X478643Y807638D01*
X478669Y807606D01*
X478680Y807585D01*
X478703Y807563D01*
X478748Y807507D01*
X480307Y805948D01*
X480307Y801552D01*
X479829Y801074D01*
X479787Y801016D01*
X479738Y800964D01*
X479716Y800917D01*
X479686Y800875D01*
X479664Y800806D01*
X479634Y800741D01*
X479629Y800689D01*
X479613Y800639D01*
X479615Y800568D01*
X479607Y800497D01*
X479618Y800446D01*
X479620Y800394D01*
X479644Y800326D01*
X479659Y800256D01*
X479686Y800211D01*
X479704Y800163D01*
X479749Y800107D01*
X479786Y800045D01*
X479825Y800011D01*
X479858Y799971D01*
X479918Y799932D01*
X479973Y799885D01*
X480021Y799866D01*
X480065Y799838D01*
X480134Y799820D01*
X480201Y799793D01*
X480272Y799785D01*
X480303Y799777D01*
X480326Y799779D01*
X480367Y799775D01*
X484455Y799775D01*
X484545Y799789D01*
X484636Y799797D01*
X484665Y799809D01*
X484697Y799814D01*
X484778Y799857D01*
X484862Y799893D01*
X484894Y799919D01*
X484915Y799930D01*
X484937Y799953D01*
X484993Y799998D01*
X486552Y801557D01*
X490948Y801557D01*
X491426Y801079D01*
X491484Y801037D01*
X491536Y800988D01*
X491583Y800966D01*
X491625Y800936D01*
X491694Y800914D01*
X491759Y800884D01*
X491811Y800879D01*
X491861Y800863D01*
X491932Y800865D01*
X492003Y800857D01*
X492054Y800868D01*
X492106Y800870D01*
X492174Y800894D01*
X492244Y800909D01*
X492289Y800936D01*
X492337Y800954D01*
X492393Y800999D01*
X492455Y801036D01*
X492489Y801075D01*
X492529Y801108D01*
X492568Y801168D01*
X492615Y801223D01*
X492634Y801271D01*
X492662Y801315D01*
X492680Y801384D01*
X492707Y801451D01*
X492715Y801522D01*
X492723Y801553D01*
X492721Y801576D01*
X492725Y801617D01*
X492725Y919719D01*
X492706Y919834D01*
X492689Y919950D01*
X492687Y919956D01*
X492686Y919962D01*
X492631Y920065D01*
X492578Y920169D01*
X492573Y920174D01*
X492570Y920179D01*
X492486Y920259D01*
X492402Y920342D01*
X492396Y920345D01*
X492392Y920349D01*
X492375Y920357D01*
X492255Y920423D01*
X492213Y920440D01*
X489140Y923513D01*
X487477Y927527D01*
X487477Y931873D01*
X489140Y935887D01*
X492213Y938960D01*
X496227Y940623D01*
X500573Y940623D01*
X504587Y938960D01*
X507660Y935887D01*
X509323Y931873D01*
X509323Y927527D01*
X507660Y923513D01*
X504587Y920440D01*
X500573Y918777D01*
X500536Y918777D01*
X500516Y918774D01*
X500497Y918776D01*
X500395Y918754D01*
X500293Y918738D01*
X500276Y918728D01*
X500256Y918724D01*
X500167Y918671D01*
X500076Y918622D01*
X500062Y918608D01*
X500045Y918598D01*
X499978Y918519D01*
X499906Y918444D01*
X499898Y918426D01*
X499885Y918411D01*
X499846Y918315D01*
X499803Y918221D01*
X499801Y918201D01*
X499793Y918183D01*
X499775Y918016D01*
X499775Y711795D01*
X499789Y711705D01*
X499797Y711614D01*
X499809Y711585D01*
X499814Y711553D01*
X499857Y711472D01*
X499893Y711388D01*
X499919Y711356D01*
X499930Y711335D01*
X499953Y711313D01*
X499998Y711257D01*
X501557Y709698D01*
X501557Y705302D01*
X501079Y704824D01*
X501037Y704766D01*
X500988Y704714D01*
X500966Y704667D01*
X500936Y704625D01*
X500914Y704556D01*
X500884Y704491D01*
X500879Y704439D01*
X500863Y704389D01*
X500865Y704318D01*
X500857Y704247D01*
X500868Y704196D01*
X500870Y704144D01*
X500894Y704076D01*
X500909Y704006D01*
X500936Y703961D01*
X500954Y703913D01*
X500999Y703857D01*
X501036Y703795D01*
X501075Y703761D01*
X501108Y703721D01*
X501168Y703682D01*
X501223Y703635D01*
X501271Y703616D01*
X501315Y703588D01*
X501384Y703570D01*
X501451Y703543D01*
X501522Y703535D01*
X501553Y703527D01*
X501576Y703529D01*
X501617Y703525D01*
X606964Y703525D01*
X606984Y703528D01*
X607003Y703526D01*
X607105Y703548D01*
X607207Y703564D01*
X607224Y703574D01*
X607244Y703578D01*
X607333Y703631D01*
X607424Y703680D01*
X607438Y703694D01*
X607455Y703704D01*
X607522Y703783D01*
X607594Y703858D01*
X607602Y703876D01*
X607615Y703891D01*
X607654Y703987D01*
X607697Y704081D01*
X607699Y704101D01*
X607707Y704119D01*
X607725Y704286D01*
X607725Y766460D01*
X610013Y768748D01*
X739470Y898205D01*
X739523Y898279D01*
X739583Y898348D01*
X739595Y898379D01*
X739614Y898405D01*
X739641Y898492D01*
X739675Y898577D01*
X739679Y898618D01*
X739686Y898640D01*
X739685Y898672D01*
X739693Y898743D01*
X739693Y900948D01*
X742802Y904057D01*
X747198Y904057D01*
X750307Y900948D01*
X750307Y899629D01*
X750318Y899559D01*
X750320Y899487D01*
X750338Y899438D01*
X750346Y899387D01*
X750380Y899323D01*
X750405Y899256D01*
X750437Y899215D01*
X750462Y899169D01*
X750513Y899120D01*
X750558Y899064D01*
X750602Y899036D01*
X750640Y899000D01*
X750705Y898970D01*
X750765Y898931D01*
X750816Y898918D01*
X750863Y898896D01*
X750934Y898888D01*
X751004Y898871D01*
X751056Y898875D01*
X751107Y898869D01*
X751178Y898884D01*
X751249Y898890D01*
X751297Y898910D01*
X751348Y898921D01*
X751409Y898958D01*
X751475Y898986D01*
X751531Y899031D01*
X751559Y899047D01*
X751574Y899065D01*
X751606Y899091D01*
X771757Y919241D01*
X771783Y919279D01*
X771817Y919310D01*
X771855Y919378D01*
X771900Y919441D01*
X771914Y919485D01*
X771936Y919525D01*
X771950Y919602D01*
X771972Y919676D01*
X771971Y919722D01*
X771979Y919767D01*
X771968Y919844D01*
X771966Y919922D01*
X771950Y919965D01*
X771944Y920011D01*
X771908Y920080D01*
X771882Y920153D01*
X771853Y920189D01*
X771832Y920230D01*
X771777Y920284D01*
X771728Y920345D01*
X771689Y920370D01*
X771657Y920402D01*
X771644Y920409D01*
X768540Y923513D01*
X766877Y927527D01*
X766877Y931873D01*
X768540Y935887D01*
X771613Y938960D01*
X775627Y940623D01*
X779973Y940623D01*
X783987Y938960D01*
X787060Y935887D01*
X788723Y931873D01*
X788723Y927527D01*
X787060Y923513D01*
X783987Y920440D01*
X780245Y918890D01*
X780145Y918828D01*
X780045Y918768D01*
X780041Y918764D01*
X780036Y918760D01*
X779961Y918670D01*
X779885Y918582D01*
X779883Y918576D01*
X779879Y918571D01*
X779837Y918462D01*
X779793Y918353D01*
X779792Y918346D01*
X779791Y918341D01*
X779790Y918323D01*
X779775Y918187D01*
X779775Y917290D01*
X621248Y758763D01*
X621195Y758689D01*
X621135Y758620D01*
X621123Y758589D01*
X621104Y758563D01*
X621077Y758476D01*
X621043Y758391D01*
X621039Y758350D01*
X621032Y758328D01*
X621033Y758296D01*
X621025Y758225D01*
X621025Y746597D01*
X621036Y746527D01*
X621038Y746455D01*
X621056Y746406D01*
X621064Y746355D01*
X621098Y746291D01*
X621123Y746224D01*
X621155Y746183D01*
X621180Y746137D01*
X621231Y746088D01*
X621276Y746032D01*
X621320Y746004D01*
X621358Y745968D01*
X621423Y745938D01*
X621483Y745899D01*
X621534Y745886D01*
X621581Y745864D01*
X621652Y745856D01*
X621722Y745839D01*
X621774Y745843D01*
X621825Y745837D01*
X621896Y745852D01*
X621967Y745858D01*
X622015Y745878D01*
X622066Y745889D01*
X622127Y745926D01*
X622193Y745954D01*
X622249Y745999D01*
X622277Y746015D01*
X622292Y746033D01*
X622324Y746059D01*
X796321Y920056D01*
X796332Y920072D01*
X796348Y920084D01*
X796404Y920172D01*
X796464Y920255D01*
X796470Y920274D01*
X796481Y920291D01*
X796506Y920392D01*
X796537Y920490D01*
X796536Y920510D01*
X796541Y920530D01*
X796533Y920633D01*
X796530Y920736D01*
X796523Y920755D01*
X796522Y920775D01*
X796482Y920870D01*
X796446Y920967D01*
X796433Y920983D01*
X796426Y921001D01*
X796321Y921132D01*
X793940Y923513D01*
X792277Y927527D01*
X792277Y931873D01*
X793940Y935887D01*
X797013Y938960D01*
X801027Y940623D01*
X805373Y940623D01*
X809387Y938960D01*
X812460Y935887D01*
X814123Y931873D01*
X814123Y927527D01*
X812460Y923513D01*
X809387Y920440D01*
X805373Y918777D01*
X805327Y918777D01*
X805237Y918763D01*
X805146Y918755D01*
X805117Y918743D01*
X805085Y918738D01*
X805004Y918695D01*
X804920Y918659D01*
X804888Y918633D01*
X804867Y918622D01*
X804845Y918599D01*
X804789Y918554D01*
X627498Y741263D01*
X627445Y741189D01*
X627385Y741120D01*
X627373Y741089D01*
X627354Y741063D01*
X627327Y740976D01*
X627293Y740891D01*
X627289Y740850D01*
X627282Y740828D01*
X627283Y740796D01*
X627275Y740725D01*
X627275Y636617D01*
X627286Y636547D01*
X627288Y636475D01*
X627306Y636426D01*
X627314Y636375D01*
X627348Y636311D01*
X627373Y636244D01*
X627405Y636203D01*
X627430Y636157D01*
X627482Y636108D01*
X627526Y636052D01*
X627570Y636024D01*
X627608Y635988D01*
X627673Y635958D01*
X627733Y635919D01*
X627784Y635906D01*
X627831Y635884D01*
X627902Y635876D01*
X627972Y635859D01*
X628024Y635863D01*
X628075Y635857D01*
X628146Y635872D01*
G37*
%LPC*%
G36*
X516552Y790943D02*
X516552Y790943D01*
X513443Y794052D01*
X513443Y798448D01*
X516552Y801557D01*
X518757Y801557D01*
X518847Y801571D01*
X518938Y801579D01*
X518967Y801591D01*
X518999Y801596D01*
X519080Y801639D01*
X519164Y801675D01*
X519196Y801701D01*
X519217Y801712D01*
X519239Y801735D01*
X519295Y801780D01*
X629470Y911955D01*
X629523Y912029D01*
X629583Y912098D01*
X629595Y912129D01*
X629614Y912155D01*
X629641Y912242D01*
X629675Y912327D01*
X629679Y912368D01*
X629686Y912390D01*
X629685Y912422D01*
X629693Y912493D01*
X629693Y914698D01*
X632802Y917807D01*
X637198Y917807D01*
X640307Y914698D01*
X640307Y910879D01*
X640318Y910809D01*
X640320Y910737D01*
X640338Y910688D01*
X640346Y910637D01*
X640380Y910573D01*
X640405Y910506D01*
X640437Y910465D01*
X640462Y910419D01*
X640514Y910370D01*
X640558Y910314D01*
X640602Y910286D01*
X640640Y910250D01*
X640705Y910220D01*
X640765Y910181D01*
X640816Y910168D01*
X640863Y910146D01*
X640934Y910138D01*
X641004Y910121D01*
X641056Y910125D01*
X641107Y910119D01*
X641178Y910134D01*
X641249Y910140D01*
X641297Y910160D01*
X641348Y910171D01*
X641409Y910208D01*
X641475Y910236D01*
X641531Y910281D01*
X641559Y910297D01*
X641574Y910315D01*
X641606Y910341D01*
X645002Y913737D01*
X645055Y913811D01*
X645115Y913880D01*
X645127Y913911D01*
X645146Y913937D01*
X645173Y914024D01*
X645207Y914109D01*
X645211Y914150D01*
X645218Y914172D01*
X645217Y914204D01*
X645225Y914275D01*
X645225Y919678D01*
X645206Y919793D01*
X645189Y919909D01*
X645187Y919914D01*
X645186Y919921D01*
X645131Y920023D01*
X645078Y920128D01*
X645073Y920132D01*
X645070Y920138D01*
X644986Y920218D01*
X644902Y920300D01*
X644896Y920304D01*
X644892Y920307D01*
X644875Y920315D01*
X644755Y920381D01*
X644613Y920440D01*
X641540Y923513D01*
X639877Y927527D01*
X639877Y931873D01*
X641540Y935887D01*
X644613Y938960D01*
X648627Y940623D01*
X652973Y940623D01*
X656987Y938960D01*
X660060Y935887D01*
X661723Y931873D01*
X661723Y927527D01*
X660060Y923513D01*
X656987Y920440D01*
X652941Y918764D01*
X652895Y918754D01*
X652793Y918738D01*
X652776Y918728D01*
X652756Y918724D01*
X652667Y918671D01*
X652576Y918622D01*
X652562Y918608D01*
X652545Y918598D01*
X652478Y918519D01*
X652406Y918444D01*
X652398Y918426D01*
X652385Y918411D01*
X652346Y918315D01*
X652303Y918221D01*
X652301Y918201D01*
X652293Y918183D01*
X652275Y918016D01*
X652275Y914097D01*
X652286Y914027D01*
X652288Y913955D01*
X652306Y913906D01*
X652314Y913855D01*
X652348Y913791D01*
X652373Y913724D01*
X652405Y913683D01*
X652430Y913637D01*
X652481Y913588D01*
X652526Y913532D01*
X652570Y913504D01*
X652608Y913468D01*
X652673Y913438D01*
X652733Y913399D01*
X652784Y913386D01*
X652831Y913364D01*
X652902Y913356D01*
X652972Y913339D01*
X653024Y913343D01*
X653075Y913337D01*
X653146Y913352D01*
X653217Y913358D01*
X653265Y913378D01*
X653316Y913389D01*
X653377Y913426D01*
X653443Y913454D01*
X653499Y913499D01*
X653527Y913515D01*
X653542Y913533D01*
X653574Y913559D01*
X665581Y925566D01*
X665649Y925661D01*
X665719Y925755D01*
X665721Y925761D01*
X665725Y925766D01*
X665759Y925877D01*
X665795Y925988D01*
X665795Y925995D01*
X665797Y926001D01*
X665794Y926117D01*
X665793Y926234D01*
X665791Y926242D01*
X665791Y926247D01*
X665784Y926264D01*
X665746Y926395D01*
X665277Y927527D01*
X665277Y931873D01*
X666940Y935887D01*
X670013Y938960D01*
X674027Y940623D01*
X678373Y940623D01*
X682387Y938960D01*
X685460Y935887D01*
X687123Y931873D01*
X687123Y927695D01*
X687134Y927625D01*
X687136Y927553D01*
X687154Y927504D01*
X687162Y927453D01*
X687196Y927389D01*
X687221Y927322D01*
X687253Y927281D01*
X687278Y927235D01*
X687330Y927186D01*
X687374Y927130D01*
X687418Y927102D01*
X687456Y927066D01*
X687521Y927036D01*
X687581Y926997D01*
X687632Y926984D01*
X687679Y926962D01*
X687750Y926954D01*
X687820Y926937D01*
X687872Y926941D01*
X687923Y926935D01*
X687994Y926950D01*
X688065Y926956D01*
X688113Y926976D01*
X688164Y926987D01*
X688225Y927024D01*
X688291Y927052D01*
X688347Y927097D01*
X688375Y927113D01*
X688390Y927131D01*
X688422Y927157D01*
X690454Y929189D01*
X690507Y929263D01*
X690567Y929332D01*
X690579Y929363D01*
X690598Y929389D01*
X690625Y929476D01*
X690659Y929561D01*
X690663Y929602D01*
X690670Y929624D01*
X690669Y929656D01*
X690677Y929727D01*
X690677Y931873D01*
X692340Y935887D01*
X695413Y938960D01*
X699427Y940623D01*
X703773Y940623D01*
X707787Y938960D01*
X710860Y935887D01*
X712523Y931873D01*
X712523Y927527D01*
X710860Y923513D01*
X707787Y920440D01*
X703773Y918777D01*
X699427Y918777D01*
X695413Y920440D01*
X694082Y921771D01*
X694066Y921782D01*
X694053Y921798D01*
X693966Y921854D01*
X693882Y921914D01*
X693863Y921920D01*
X693847Y921931D01*
X693746Y921956D01*
X693647Y921987D01*
X693627Y921986D01*
X693608Y921991D01*
X693505Y921983D01*
X693401Y921980D01*
X693383Y921973D01*
X693363Y921972D01*
X693268Y921932D01*
X693170Y921896D01*
X693155Y921883D01*
X693137Y921876D01*
X693006Y921771D01*
X644280Y873045D01*
X644228Y872973D01*
X640948Y869693D01*
X636552Y869693D01*
X633443Y872802D01*
X633443Y877198D01*
X636552Y880307D01*
X641257Y880307D01*
X641347Y880321D01*
X641438Y880329D01*
X641467Y880341D01*
X641499Y880346D01*
X641580Y880389D01*
X641664Y880425D01*
X641696Y880451D01*
X641717Y880462D01*
X641739Y880485D01*
X641795Y880530D01*
X678743Y917478D01*
X678785Y917536D01*
X678834Y917588D01*
X678856Y917635D01*
X678887Y917677D01*
X678908Y917746D01*
X678938Y917811D01*
X678944Y917863D01*
X678959Y917913D01*
X678957Y917984D01*
X678965Y918055D01*
X678954Y918106D01*
X678953Y918158D01*
X678928Y918226D01*
X678913Y918296D01*
X678886Y918340D01*
X678868Y918389D01*
X678823Y918445D01*
X678787Y918507D01*
X678747Y918541D01*
X678714Y918581D01*
X678654Y918620D01*
X678600Y918667D01*
X678551Y918686D01*
X678507Y918714D01*
X678438Y918732D01*
X678371Y918759D01*
X678300Y918767D01*
X678269Y918775D01*
X678246Y918773D01*
X678205Y918777D01*
X674027Y918777D01*
X670774Y920125D01*
X670661Y920151D01*
X670547Y920180D01*
X670541Y920180D01*
X670535Y920181D01*
X670418Y920170D01*
X670302Y920161D01*
X670296Y920158D01*
X670290Y920158D01*
X670182Y920110D01*
X670075Y920065D01*
X670070Y920060D01*
X670065Y920058D01*
X670051Y920045D01*
X669945Y919960D01*
X618030Y868045D01*
X617977Y867971D01*
X617917Y867902D01*
X617905Y867871D01*
X617886Y867845D01*
X617859Y867758D01*
X617825Y867673D01*
X617821Y867632D01*
X617814Y867610D01*
X617815Y867578D01*
X617807Y867507D01*
X617807Y865302D01*
X614698Y862193D01*
X610302Y862193D01*
X607193Y865302D01*
X607193Y869698D01*
X610302Y872807D01*
X612507Y872807D01*
X612597Y872821D01*
X612688Y872829D01*
X612717Y872841D01*
X612749Y872846D01*
X612830Y872889D01*
X612914Y872925D01*
X612946Y872951D01*
X612967Y872962D01*
X612989Y872985D01*
X613045Y873030D01*
X623409Y883394D01*
X623451Y883452D01*
X623500Y883504D01*
X623522Y883551D01*
X623553Y883593D01*
X623574Y883662D01*
X623604Y883727D01*
X623610Y883779D01*
X623625Y883829D01*
X623623Y883900D01*
X623631Y883971D01*
X623620Y884022D01*
X623619Y884074D01*
X623594Y884142D01*
X623579Y884212D01*
X623552Y884257D01*
X623534Y884305D01*
X623489Y884361D01*
X623453Y884423D01*
X623413Y884457D01*
X623380Y884497D01*
X623320Y884536D01*
X623266Y884583D01*
X623217Y884602D01*
X623173Y884630D01*
X623104Y884648D01*
X623037Y884675D01*
X622966Y884683D01*
X622935Y884691D01*
X622912Y884689D01*
X622871Y884693D01*
X621552Y884693D01*
X618443Y887802D01*
X618443Y889121D01*
X618432Y889191D01*
X618430Y889263D01*
X618412Y889312D01*
X618404Y889363D01*
X618370Y889427D01*
X618345Y889494D01*
X618313Y889535D01*
X618288Y889581D01*
X618236Y889630D01*
X618192Y889686D01*
X618148Y889714D01*
X618110Y889750D01*
X618045Y889780D01*
X617985Y889819D01*
X617934Y889832D01*
X617887Y889854D01*
X617816Y889862D01*
X617746Y889879D01*
X617694Y889875D01*
X617643Y889881D01*
X617572Y889866D01*
X617501Y889860D01*
X617453Y889840D01*
X617402Y889829D01*
X617341Y889792D01*
X617275Y889764D01*
X617219Y889719D01*
X617191Y889703D01*
X617176Y889685D01*
X617144Y889659D01*
X524280Y796795D01*
X524227Y796721D01*
X524167Y796652D01*
X524155Y796621D01*
X524136Y796595D01*
X524109Y796508D01*
X524075Y796423D01*
X524071Y796382D01*
X524064Y796360D01*
X524065Y796328D01*
X524057Y796257D01*
X524057Y794052D01*
X520948Y790943D01*
X516552Y790943D01*
G37*
%LPD*%
%LPC*%
G36*
X886593Y426078D02*
X886593Y426078D01*
X880851Y428457D01*
X876457Y432851D01*
X874078Y438593D01*
X874078Y444807D01*
X876457Y450549D01*
X880851Y454943D01*
X886593Y457322D01*
X892807Y457322D01*
X897844Y455236D01*
X897957Y455209D01*
X898071Y455180D01*
X898077Y455181D01*
X898083Y455179D01*
X898200Y455190D01*
X898316Y455200D01*
X898322Y455202D01*
X898328Y455203D01*
X898436Y455250D01*
X898542Y455296D01*
X898548Y455300D01*
X898553Y455303D01*
X898567Y455315D01*
X898673Y455401D01*
X1025440Y582168D01*
X1025493Y582242D01*
X1025553Y582311D01*
X1025565Y582341D01*
X1025584Y582367D01*
X1025611Y582454D01*
X1025645Y582539D01*
X1025649Y582580D01*
X1025656Y582602D01*
X1025655Y582635D01*
X1025663Y582706D01*
X1025663Y584018D01*
X1026978Y587192D01*
X1029408Y589622D01*
X1032582Y590937D01*
X1036018Y590937D01*
X1039192Y589622D01*
X1041622Y587192D01*
X1042937Y584018D01*
X1042937Y580582D01*
X1041622Y577408D01*
X1039192Y574978D01*
X1036018Y573663D01*
X1035706Y573663D01*
X1035616Y573649D01*
X1035525Y573641D01*
X1035495Y573629D01*
X1035463Y573624D01*
X1035382Y573581D01*
X1035299Y573545D01*
X1035266Y573519D01*
X1035246Y573508D01*
X1035224Y573485D01*
X1035168Y573440D01*
X905545Y443817D01*
X905492Y443743D01*
X905432Y443674D01*
X905420Y443644D01*
X905401Y443618D01*
X905374Y443531D01*
X905340Y443446D01*
X905336Y443405D01*
X905329Y443383D01*
X905330Y443350D01*
X905322Y443279D01*
X905322Y438593D01*
X902943Y432851D01*
X898549Y428457D01*
X892807Y426078D01*
X886593Y426078D01*
G37*
%LPD*%
%LPC*%
G36*
X909029Y559111D02*
X909029Y559111D01*
X905388Y560619D01*
X902601Y563406D01*
X901093Y567047D01*
X901093Y587753D01*
X902601Y591394D01*
X905388Y594181D01*
X905997Y594433D01*
X906074Y594481D01*
X906156Y594522D01*
X906178Y594545D01*
X906206Y594562D01*
X906264Y594632D01*
X906328Y594698D01*
X906348Y594734D01*
X906363Y594752D01*
X906374Y594782D01*
X906409Y594845D01*
X906969Y596196D01*
X908911Y598138D01*
X1026040Y715268D01*
X1026093Y715342D01*
X1026153Y715411D01*
X1026165Y715441D01*
X1026184Y715467D01*
X1026211Y715554D01*
X1026245Y715639D01*
X1026249Y715680D01*
X1026256Y715702D01*
X1026255Y715735D01*
X1026263Y715806D01*
X1026263Y716218D01*
X1027578Y719392D01*
X1030008Y721822D01*
X1033182Y723137D01*
X1036618Y723137D01*
X1039792Y721822D01*
X1042222Y719392D01*
X1043537Y716218D01*
X1043537Y712782D01*
X1042222Y709608D01*
X1039792Y707178D01*
X1036618Y705863D01*
X1035406Y705863D01*
X1035316Y705849D01*
X1035225Y705841D01*
X1035195Y705829D01*
X1035163Y705824D01*
X1035082Y705781D01*
X1034999Y705745D01*
X1034966Y705719D01*
X1034946Y705708D01*
X1034924Y705685D01*
X1034921Y705683D01*
X1034920Y705682D01*
X1034918Y705681D01*
X1034868Y705640D01*
X920116Y590889D01*
X920049Y590795D01*
X919978Y590700D01*
X919976Y590694D01*
X919973Y590689D01*
X919939Y590578D01*
X919902Y590466D01*
X919902Y590460D01*
X919900Y590454D01*
X919903Y590337D01*
X919905Y590220D01*
X919907Y590213D01*
X919907Y590208D01*
X919913Y590191D01*
X919951Y590059D01*
X920907Y587753D01*
X920907Y567047D01*
X919399Y563406D01*
X916612Y560619D01*
X912971Y559111D01*
X909029Y559111D01*
G37*
%LPD*%
%LPC*%
G36*
X710302Y795943D02*
X710302Y795943D01*
X707193Y799052D01*
X707193Y802682D01*
X707190Y802702D01*
X707192Y802721D01*
X707170Y802823D01*
X707154Y802925D01*
X707144Y802942D01*
X707140Y802962D01*
X707087Y803051D01*
X707038Y803142D01*
X707024Y803156D01*
X707014Y803173D01*
X706935Y803240D01*
X706860Y803312D01*
X706842Y803320D01*
X706827Y803333D01*
X706731Y803372D01*
X706637Y803415D01*
X706617Y803417D01*
X706599Y803425D01*
X706432Y803443D01*
X704052Y803443D01*
X700943Y806552D01*
X700943Y810948D01*
X704052Y814057D01*
X706257Y814057D01*
X706347Y814071D01*
X706438Y814079D01*
X706467Y814091D01*
X706499Y814096D01*
X706580Y814139D01*
X706664Y814175D01*
X706696Y814201D01*
X706717Y814212D01*
X706739Y814235D01*
X706795Y814280D01*
X818010Y925495D01*
X818078Y925590D01*
X818148Y925684D01*
X818150Y925690D01*
X818154Y925695D01*
X818188Y925806D01*
X818225Y925918D01*
X818224Y925924D01*
X818226Y925930D01*
X818223Y926047D01*
X818222Y926164D01*
X818220Y926171D01*
X818220Y926176D01*
X818214Y926193D01*
X818175Y926325D01*
X817677Y927527D01*
X817677Y931873D01*
X819340Y935887D01*
X822413Y938960D01*
X826427Y940623D01*
X830773Y940623D01*
X834787Y938960D01*
X837860Y935887D01*
X839523Y931873D01*
X839523Y927527D01*
X837860Y923513D01*
X834787Y920440D01*
X830773Y918777D01*
X826427Y918777D01*
X823245Y920096D01*
X823131Y920122D01*
X823018Y920151D01*
X823011Y920150D01*
X823005Y920152D01*
X822889Y920141D01*
X822772Y920132D01*
X822767Y920129D01*
X822760Y920129D01*
X822653Y920081D01*
X822546Y920035D01*
X822540Y920031D01*
X822536Y920029D01*
X822522Y920016D01*
X822415Y919930D01*
X800341Y897856D01*
X800299Y897798D01*
X800250Y897746D01*
X800228Y897699D01*
X800197Y897657D01*
X800176Y897588D01*
X800146Y897523D01*
X800140Y897471D01*
X800125Y897421D01*
X800127Y897350D01*
X800119Y897279D01*
X800130Y897228D01*
X800131Y897176D01*
X800156Y897108D01*
X800171Y897038D01*
X800198Y896994D01*
X800216Y896945D01*
X800261Y896889D01*
X800297Y896827D01*
X800337Y896793D01*
X800370Y896753D01*
X800430Y896714D01*
X800484Y896667D01*
X800533Y896648D01*
X800577Y896620D01*
X800646Y896602D01*
X800713Y896575D01*
X800784Y896567D01*
X800815Y896559D01*
X800838Y896561D01*
X800879Y896557D01*
X804698Y896557D01*
X807807Y893448D01*
X807807Y889052D01*
X804698Y885943D01*
X802493Y885943D01*
X802403Y885929D01*
X802312Y885921D01*
X802283Y885909D01*
X802251Y885904D01*
X802170Y885861D01*
X802086Y885825D01*
X802054Y885799D01*
X802033Y885788D01*
X802011Y885765D01*
X801955Y885720D01*
X718030Y801795D01*
X717977Y801721D01*
X717917Y801652D01*
X717905Y801621D01*
X717886Y801595D01*
X717859Y801508D01*
X717825Y801423D01*
X717821Y801382D01*
X717814Y801360D01*
X717815Y801328D01*
X717807Y801257D01*
X717807Y799052D01*
X714698Y795943D01*
X710302Y795943D01*
G37*
%LPD*%
%LPC*%
G36*
X590302Y564693D02*
X590302Y564693D01*
X588743Y566252D01*
X588669Y566305D01*
X588599Y566365D01*
X588569Y566377D01*
X588543Y566396D01*
X588456Y566423D01*
X588371Y566457D01*
X588330Y566461D01*
X588308Y566468D01*
X588276Y566467D01*
X588205Y566475D01*
X289790Y566475D01*
X272328Y583937D01*
X272312Y583949D01*
X272299Y583964D01*
X272212Y584021D01*
X272128Y584081D01*
X272109Y584087D01*
X272092Y584097D01*
X271992Y584123D01*
X271893Y584153D01*
X271873Y584153D01*
X271854Y584158D01*
X271751Y584149D01*
X271647Y584147D01*
X271629Y584140D01*
X271609Y584138D01*
X271514Y584098D01*
X271416Y584062D01*
X271401Y584050D01*
X271382Y584042D01*
X271284Y583963D01*
X264123Y583963D01*
X259063Y589023D01*
X259063Y596177D01*
X264123Y601237D01*
X271277Y601237D01*
X276337Y596177D01*
X276337Y590213D01*
X276351Y590123D01*
X276359Y590032D01*
X276371Y590003D01*
X276376Y589971D01*
X276419Y589890D01*
X276455Y589806D01*
X276481Y589774D01*
X276492Y589753D01*
X276515Y589731D01*
X276560Y589675D01*
X292487Y573748D01*
X292561Y573695D01*
X292630Y573635D01*
X292661Y573623D01*
X292687Y573604D01*
X292774Y573577D01*
X292859Y573543D01*
X292900Y573539D01*
X292922Y573532D01*
X292954Y573533D01*
X293025Y573525D01*
X588205Y573525D01*
X588295Y573539D01*
X588386Y573547D01*
X588415Y573559D01*
X588447Y573564D01*
X588528Y573607D01*
X588612Y573643D01*
X588644Y573669D01*
X588665Y573680D01*
X588687Y573703D01*
X588743Y573748D01*
X590302Y575307D01*
X594698Y575307D01*
X597807Y572198D01*
X597807Y567802D01*
X594698Y564693D01*
X590302Y564693D01*
G37*
%LPD*%
%LPC*%
G36*
X907489Y700589D02*
X907489Y700589D01*
X900705Y702407D01*
X894624Y705918D01*
X889658Y710884D01*
X886147Y716965D01*
X884329Y723749D01*
X884329Y730771D01*
X886147Y737555D01*
X889658Y743636D01*
X894624Y748602D01*
X900705Y752113D01*
X907489Y753931D01*
X914511Y753931D01*
X921295Y752113D01*
X927376Y748602D01*
X932342Y743636D01*
X935853Y737555D01*
X937671Y730771D01*
X937671Y723749D01*
X935853Y716965D01*
X932342Y710884D01*
X927376Y705918D01*
X921295Y702407D01*
X914511Y700589D01*
X907489Y700589D01*
G37*
%LPD*%
%LPC*%
G36*
X282909Y915080D02*
X282909Y915080D01*
X274386Y919324D01*
X267971Y926360D01*
X264532Y935239D01*
X264532Y944761D01*
X267971Y953640D01*
X274386Y960676D01*
X282909Y964920D01*
X292391Y965799D01*
X301549Y963193D01*
X309147Y957455D01*
X314160Y949360D01*
X315910Y940000D01*
X314160Y930640D01*
X309147Y922545D01*
X301549Y916807D01*
X292391Y914201D01*
X282909Y915080D01*
G37*
%LPD*%
%LPC*%
G36*
X1004909Y914080D02*
X1004909Y914080D01*
X996386Y918324D01*
X989971Y925360D01*
X986532Y934239D01*
X986532Y943761D01*
X989971Y952640D01*
X996386Y959676D01*
X1004909Y963920D01*
X1014391Y964799D01*
X1023549Y962193D01*
X1031147Y956455D01*
X1036160Y948360D01*
X1037910Y939000D01*
X1036160Y929640D01*
X1031147Y921545D01*
X1023549Y915807D01*
X1014391Y913201D01*
X1004909Y914080D01*
G37*
%LPD*%
%LPC*%
G36*
X282909Y325080D02*
X282909Y325080D01*
X274386Y329324D01*
X267971Y336360D01*
X264532Y345239D01*
X264532Y354761D01*
X267971Y363640D01*
X274386Y370676D01*
X282909Y374920D01*
X292391Y375799D01*
X301549Y373193D01*
X309147Y367455D01*
X314160Y359360D01*
X315910Y350000D01*
X314160Y340640D01*
X309147Y332545D01*
X301549Y326807D01*
X292391Y324201D01*
X282909Y325080D01*
G37*
%LPD*%
%LPC*%
G36*
X1004909Y324080D02*
X1004909Y324080D01*
X996386Y328324D01*
X989971Y335360D01*
X986532Y344239D01*
X986532Y353761D01*
X989971Y362640D01*
X996386Y369676D01*
X1004909Y373920D01*
X1014391Y374799D01*
X1023549Y372193D01*
X1031147Y366455D01*
X1036160Y358360D01*
X1037910Y349000D01*
X1036160Y339640D01*
X1031147Y331545D01*
X1023549Y325807D01*
X1014391Y323201D01*
X1004909Y324080D01*
G37*
%LPD*%
%LPC*%
G36*
X434888Y805739D02*
X434888Y805739D01*
X428488Y807454D01*
X422751Y810766D01*
X418066Y815451D01*
X414754Y821188D01*
X413039Y827588D01*
X413039Y834212D01*
X414754Y840612D01*
X418066Y846349D01*
X422751Y851034D01*
X428488Y854346D01*
X434888Y856061D01*
X441512Y856061D01*
X447912Y854346D01*
X453649Y851034D01*
X458334Y846349D01*
X461646Y840612D01*
X463361Y834212D01*
X463361Y827588D01*
X461646Y821188D01*
X458334Y815451D01*
X453649Y810766D01*
X447912Y807454D01*
X441512Y805739D01*
X434888Y805739D01*
G37*
%LPD*%
%LPC*%
G36*
X435188Y575239D02*
X435188Y575239D01*
X428788Y576954D01*
X423051Y580266D01*
X418366Y584951D01*
X415054Y590688D01*
X413339Y597088D01*
X413339Y603712D01*
X415054Y610112D01*
X418366Y615849D01*
X423051Y620534D01*
X428788Y623846D01*
X435188Y625561D01*
X441812Y625561D01*
X448212Y623846D01*
X453949Y620534D01*
X458634Y615849D01*
X461946Y610112D01*
X463661Y603712D01*
X463661Y597088D01*
X461946Y590688D01*
X458634Y584951D01*
X453949Y580266D01*
X448212Y576954D01*
X441812Y575239D01*
X435188Y575239D01*
G37*
%LPD*%
%LPC*%
G36*
X732368Y422839D02*
X732368Y422839D01*
X725968Y424554D01*
X720231Y427866D01*
X715546Y432551D01*
X712234Y438288D01*
X710519Y444688D01*
X710519Y451312D01*
X712234Y457712D01*
X715546Y463449D01*
X720231Y468134D01*
X725968Y471446D01*
X732368Y473161D01*
X738992Y473161D01*
X745392Y471446D01*
X751129Y468134D01*
X755814Y463449D01*
X759126Y457712D01*
X760841Y451312D01*
X760841Y444688D01*
X759126Y438288D01*
X755814Y432551D01*
X751129Y427866D01*
X745392Y424554D01*
X738992Y422839D01*
X732368Y422839D01*
G37*
%LPD*%
%LPC*%
G36*
X732068Y653339D02*
X732068Y653339D01*
X725668Y655054D01*
X719931Y658366D01*
X715246Y663051D01*
X711934Y668788D01*
X710219Y675188D01*
X710219Y681812D01*
X711934Y688212D01*
X715246Y693949D01*
X719931Y698634D01*
X725668Y701946D01*
X732068Y703661D01*
X738692Y703661D01*
X745092Y701946D01*
X750829Y698634D01*
X755514Y693949D01*
X758826Y688212D01*
X760541Y681812D01*
X760541Y675188D01*
X758826Y668788D01*
X755514Y663051D01*
X750829Y658366D01*
X745092Y655054D01*
X738692Y653339D01*
X732068Y653339D01*
G37*
%LPD*%
%LPC*%
G36*
X562802Y884693D02*
X562802Y884693D01*
X559693Y887802D01*
X559693Y892198D01*
X562802Y895307D01*
X565182Y895307D01*
X565202Y895310D01*
X565221Y895308D01*
X565323Y895330D01*
X565425Y895346D01*
X565442Y895356D01*
X565462Y895360D01*
X565551Y895413D01*
X565642Y895462D01*
X565656Y895476D01*
X565673Y895486D01*
X565740Y895565D01*
X565812Y895640D01*
X565820Y895658D01*
X565833Y895673D01*
X565872Y895769D01*
X565915Y895863D01*
X565917Y895883D01*
X565925Y895901D01*
X565943Y896068D01*
X565943Y899698D01*
X568752Y902507D01*
X568805Y902581D01*
X568865Y902651D01*
X568877Y902681D01*
X568896Y902707D01*
X568923Y902794D01*
X568957Y902879D01*
X568961Y902920D01*
X568968Y902942D01*
X568967Y902974D01*
X568975Y903045D01*
X568975Y919699D01*
X568957Y919813D01*
X568939Y919929D01*
X568937Y919935D01*
X568936Y919941D01*
X568881Y920044D01*
X568828Y920149D01*
X568823Y920153D01*
X568820Y920159D01*
X568736Y920239D01*
X568652Y920321D01*
X568646Y920325D01*
X568642Y920328D01*
X568625Y920336D01*
X568505Y920402D01*
X568413Y920440D01*
X565340Y923513D01*
X563677Y927527D01*
X563677Y931873D01*
X565340Y935887D01*
X568413Y938960D01*
X572427Y940623D01*
X576773Y940623D01*
X580787Y938960D01*
X583860Y935887D01*
X585523Y931873D01*
X585523Y927527D01*
X583860Y923513D01*
X580787Y920440D01*
X576765Y918774D01*
X576747Y918776D01*
X576645Y918754D01*
X576543Y918738D01*
X576526Y918728D01*
X576506Y918724D01*
X576417Y918671D01*
X576326Y918622D01*
X576312Y918608D01*
X576295Y918598D01*
X576228Y918519D01*
X576156Y918444D01*
X576148Y918426D01*
X576135Y918411D01*
X576096Y918315D01*
X576053Y918221D01*
X576051Y918201D01*
X576043Y918183D01*
X576025Y918016D01*
X576025Y900545D01*
X576039Y900455D01*
X576047Y900364D01*
X576059Y900335D01*
X576064Y900303D01*
X576107Y900222D01*
X576143Y900138D01*
X576169Y900106D01*
X576180Y900085D01*
X576203Y900063D01*
X576248Y900007D01*
X576557Y899698D01*
X576557Y895302D01*
X576079Y894824D01*
X576037Y894766D01*
X575988Y894714D01*
X575966Y894667D01*
X575936Y894625D01*
X575914Y894556D01*
X575884Y894491D01*
X575879Y894439D01*
X575863Y894389D01*
X575865Y894318D01*
X575857Y894247D01*
X575868Y894196D01*
X575870Y894144D01*
X575894Y894076D01*
X575909Y894006D01*
X575936Y893961D01*
X575954Y893913D01*
X575999Y893857D01*
X576036Y893795D01*
X576075Y893761D01*
X576108Y893721D01*
X576168Y893682D01*
X576223Y893635D01*
X576271Y893616D01*
X576315Y893588D01*
X576384Y893570D01*
X576451Y893543D01*
X576522Y893535D01*
X576553Y893527D01*
X576576Y893529D01*
X576617Y893525D01*
X594464Y893525D01*
X594484Y893528D01*
X594503Y893526D01*
X594605Y893548D01*
X594707Y893564D01*
X594724Y893574D01*
X594744Y893578D01*
X594833Y893631D01*
X594924Y893680D01*
X594938Y893694D01*
X594955Y893704D01*
X595022Y893783D01*
X595094Y893858D01*
X595102Y893876D01*
X595115Y893891D01*
X595154Y893987D01*
X595197Y894081D01*
X595199Y894101D01*
X595207Y894119D01*
X595225Y894286D01*
X595225Y919346D01*
X595206Y919461D01*
X595189Y919577D01*
X595187Y919583D01*
X595186Y919589D01*
X595131Y919692D01*
X595078Y919797D01*
X595073Y919801D01*
X595070Y919807D01*
X594987Y919886D01*
X594902Y919969D01*
X594896Y919972D01*
X594892Y919976D01*
X594875Y919984D01*
X594755Y920050D01*
X593813Y920440D01*
X590740Y923513D01*
X589077Y927527D01*
X589077Y931873D01*
X590740Y935887D01*
X593813Y938960D01*
X597827Y940623D01*
X602173Y940623D01*
X606187Y938960D01*
X609260Y935887D01*
X610923Y931873D01*
X610923Y927527D01*
X609260Y923513D01*
X606187Y920440D01*
X602745Y919014D01*
X602645Y918953D01*
X602545Y918893D01*
X602541Y918888D01*
X602536Y918885D01*
X602461Y918795D01*
X602385Y918706D01*
X602383Y918700D01*
X602379Y918695D01*
X602337Y918587D01*
X602293Y918478D01*
X602292Y918470D01*
X602291Y918465D01*
X602290Y918447D01*
X602275Y918311D01*
X602275Y888540D01*
X600210Y886475D01*
X569295Y886475D01*
X569205Y886461D01*
X569114Y886453D01*
X569085Y886441D01*
X569053Y886436D01*
X568972Y886393D01*
X568888Y886357D01*
X568856Y886331D01*
X568835Y886320D01*
X568813Y886297D01*
X568757Y886252D01*
X567198Y884693D01*
X562802Y884693D01*
G37*
%LPD*%
%LPC*%
G36*
X361552Y663443D02*
X361552Y663443D01*
X358443Y666552D01*
X358443Y670948D01*
X361552Y674057D01*
X363757Y674057D01*
X363847Y674071D01*
X363938Y674079D01*
X363967Y674091D01*
X363999Y674096D01*
X364080Y674139D01*
X364164Y674175D01*
X364196Y674201D01*
X364217Y674212D01*
X364239Y674235D01*
X364295Y674280D01*
X368752Y678737D01*
X368805Y678811D01*
X368865Y678880D01*
X368877Y678911D01*
X368896Y678937D01*
X368923Y679024D01*
X368957Y679109D01*
X368961Y679150D01*
X368968Y679172D01*
X368967Y679204D01*
X368975Y679275D01*
X368975Y696955D01*
X368961Y697045D01*
X368953Y697135D01*
X368941Y697165D01*
X368936Y697197D01*
X368893Y697278D01*
X368857Y697362D01*
X368831Y697394D01*
X368820Y697415D01*
X368797Y697437D01*
X368752Y697493D01*
X368663Y697582D01*
X368647Y697593D01*
X368635Y697609D01*
X368548Y697665D01*
X368464Y697725D01*
X368445Y697731D01*
X368428Y697742D01*
X368327Y697767D01*
X368229Y697798D01*
X368209Y697797D01*
X368189Y697802D01*
X368086Y697794D01*
X367983Y697791D01*
X367964Y697785D01*
X367944Y697783D01*
X367849Y697743D01*
X367752Y697707D01*
X367736Y697694D01*
X367718Y697687D01*
X367587Y697582D01*
X364698Y694693D01*
X360302Y694693D01*
X357193Y697802D01*
X357193Y700714D01*
X357190Y700734D01*
X357192Y700753D01*
X357170Y700855D01*
X357154Y700957D01*
X357144Y700974D01*
X357140Y700994D01*
X357087Y701083D01*
X357038Y701174D01*
X357024Y701188D01*
X357014Y701205D01*
X356935Y701272D01*
X356860Y701344D01*
X356842Y701352D01*
X356827Y701365D01*
X356731Y701404D01*
X356637Y701447D01*
X356617Y701449D01*
X356599Y701457D01*
X356432Y701475D01*
X354117Y701475D01*
X354047Y701464D01*
X353975Y701462D01*
X353926Y701444D01*
X353875Y701436D01*
X353811Y701402D01*
X353744Y701377D01*
X353703Y701345D01*
X353657Y701320D01*
X353608Y701268D01*
X353552Y701224D01*
X353524Y701180D01*
X353488Y701142D01*
X353458Y701077D01*
X353419Y701017D01*
X353406Y700966D01*
X353384Y700919D01*
X353376Y700848D01*
X353359Y700778D01*
X353363Y700726D01*
X353357Y700675D01*
X353372Y700604D01*
X353378Y700533D01*
X353398Y700485D01*
X353409Y700434D01*
X353446Y700373D01*
X353474Y700307D01*
X353519Y700251D01*
X353536Y700223D01*
X353553Y700208D01*
X353579Y700176D01*
X354057Y699698D01*
X354057Y695302D01*
X352498Y693743D01*
X352445Y693669D01*
X352385Y693599D01*
X352373Y693569D01*
X352354Y693543D01*
X352327Y693456D01*
X352293Y693371D01*
X352289Y693330D01*
X352282Y693308D01*
X352283Y693276D01*
X352275Y693205D01*
X352275Y677290D01*
X349280Y674295D01*
X349227Y674221D01*
X349167Y674152D01*
X349155Y674121D01*
X349136Y674095D01*
X349109Y674008D01*
X349075Y673923D01*
X349071Y673882D01*
X349064Y673860D01*
X349065Y673828D01*
X349057Y673757D01*
X349057Y671552D01*
X345948Y668443D01*
X341552Y668443D01*
X338443Y671552D01*
X338443Y675948D01*
X341552Y679057D01*
X343757Y679057D01*
X343847Y679071D01*
X343938Y679079D01*
X343967Y679091D01*
X343999Y679096D01*
X344080Y679139D01*
X344164Y679175D01*
X344196Y679201D01*
X344217Y679212D01*
X344239Y679235D01*
X344295Y679280D01*
X345002Y679987D01*
X345055Y680061D01*
X345115Y680130D01*
X345127Y680161D01*
X345146Y680187D01*
X345173Y680274D01*
X345207Y680359D01*
X345211Y680400D01*
X345218Y680422D01*
X345217Y680454D01*
X345225Y680525D01*
X345225Y693205D01*
X345211Y693294D01*
X345203Y693386D01*
X345191Y693415D01*
X345186Y693447D01*
X345143Y693528D01*
X345107Y693612D01*
X345081Y693644D01*
X345070Y693665D01*
X345047Y693687D01*
X345002Y693743D01*
X344278Y694467D01*
X344262Y694479D01*
X344250Y694494D01*
X344162Y694550D01*
X344079Y694610D01*
X344060Y694616D01*
X344043Y694627D01*
X343942Y694652D01*
X343843Y694683D01*
X343823Y694682D01*
X343804Y694687D01*
X343701Y694679D01*
X343598Y694676D01*
X343579Y694670D01*
X343559Y694668D01*
X343464Y694628D01*
X343367Y694592D01*
X343351Y694579D01*
X343333Y694572D01*
X343202Y694467D01*
X323030Y674295D01*
X322977Y674221D01*
X322917Y674152D01*
X322905Y674121D01*
X322886Y674095D01*
X322859Y674008D01*
X322825Y673923D01*
X322821Y673882D01*
X322814Y673860D01*
X322815Y673828D01*
X322807Y673757D01*
X322807Y671552D01*
X319698Y668443D01*
X315302Y668443D01*
X312193Y671552D01*
X312193Y675948D01*
X315302Y679057D01*
X317507Y679057D01*
X317597Y679071D01*
X317688Y679079D01*
X317717Y679091D01*
X317749Y679096D01*
X317830Y679139D01*
X317914Y679175D01*
X317946Y679201D01*
X317967Y679212D01*
X317989Y679235D01*
X318045Y679280D01*
X337502Y698737D01*
X337555Y698811D01*
X337615Y698880D01*
X337627Y698911D01*
X337646Y698937D01*
X337673Y699024D01*
X337707Y699109D01*
X337711Y699150D01*
X337718Y699172D01*
X337717Y699204D01*
X337725Y699275D01*
X337725Y702710D01*
X343540Y708525D01*
X363960Y708525D01*
X366025Y706460D01*
X366025Y704295D01*
X366027Y704283D01*
X366026Y704275D01*
X366035Y704232D01*
X366039Y704205D01*
X366047Y704114D01*
X366059Y704085D01*
X366064Y704053D01*
X366107Y703972D01*
X366143Y703888D01*
X366169Y703856D01*
X366180Y703835D01*
X366203Y703813D01*
X366248Y703757D01*
X366337Y703668D01*
X366353Y703657D01*
X366365Y703641D01*
X366453Y703585D01*
X366536Y703525D01*
X366555Y703519D01*
X366572Y703508D01*
X366673Y703483D01*
X366772Y703452D01*
X366791Y703453D01*
X366811Y703448D01*
X366914Y703456D01*
X367017Y703459D01*
X367036Y703465D01*
X367056Y703467D01*
X367151Y703507D01*
X367248Y703543D01*
X367264Y703556D01*
X367282Y703563D01*
X367413Y703668D01*
X370302Y706557D01*
X374698Y706557D01*
X377807Y703448D01*
X377807Y699052D01*
X376248Y697493D01*
X376195Y697419D01*
X376135Y697349D01*
X376123Y697319D01*
X376104Y697293D01*
X376077Y697206D01*
X376043Y697121D01*
X376039Y697080D01*
X376032Y697058D01*
X376033Y697026D01*
X376025Y696955D01*
X376025Y676040D01*
X369280Y669295D01*
X369227Y669221D01*
X369167Y669152D01*
X369155Y669121D01*
X369136Y669095D01*
X369109Y669008D01*
X369075Y668923D01*
X369071Y668882D01*
X369064Y668860D01*
X369065Y668828D01*
X369057Y668757D01*
X369057Y666552D01*
X365948Y663443D01*
X361552Y663443D01*
G37*
%LPD*%
%LPC*%
G36*
X593533Y309771D02*
X593533Y309771D01*
X588771Y314533D01*
X588771Y321267D01*
X593533Y326029D01*
X599479Y326029D01*
X599569Y326043D01*
X599660Y326051D01*
X599689Y326063D01*
X599721Y326068D01*
X599802Y326111D01*
X599886Y326147D01*
X599918Y326173D01*
X599939Y326184D01*
X599961Y326207D01*
X600017Y326252D01*
X617502Y343737D01*
X619790Y346025D01*
X635732Y346025D01*
X635752Y346028D01*
X635771Y346026D01*
X635873Y346048D01*
X635975Y346064D01*
X635992Y346074D01*
X636012Y346078D01*
X636101Y346131D01*
X636192Y346180D01*
X636206Y346194D01*
X636223Y346204D01*
X636290Y346283D01*
X636362Y346358D01*
X636370Y346376D01*
X636383Y346391D01*
X636422Y346487D01*
X636460Y346571D01*
X642296Y352407D01*
X650504Y352407D01*
X656307Y346604D01*
X656307Y338396D01*
X650504Y332593D01*
X642296Y332593D01*
X636458Y338432D01*
X636454Y338457D01*
X636444Y338474D01*
X636440Y338494D01*
X636387Y338583D01*
X636338Y338674D01*
X636324Y338688D01*
X636314Y338705D01*
X636235Y338772D01*
X636160Y338844D01*
X636142Y338852D01*
X636127Y338865D01*
X636031Y338904D01*
X635937Y338947D01*
X635917Y338949D01*
X635899Y338957D01*
X635732Y338975D01*
X623025Y338975D01*
X622935Y338961D01*
X622844Y338953D01*
X622815Y338941D01*
X622783Y338936D01*
X622702Y338893D01*
X622618Y338857D01*
X622586Y338831D01*
X622565Y338820D01*
X622543Y338797D01*
X622487Y338752D01*
X605252Y321517D01*
X605199Y321443D01*
X605139Y321374D01*
X605127Y321343D01*
X605108Y321317D01*
X605081Y321230D01*
X605047Y321145D01*
X605043Y321104D01*
X605036Y321082D01*
X605037Y321050D01*
X605029Y320979D01*
X605029Y314533D01*
X600267Y309771D01*
X593533Y309771D01*
G37*
%LPD*%
%LPC*%
G36*
X527802Y864693D02*
X527802Y864693D01*
X524693Y867802D01*
X524693Y872198D01*
X527802Y875307D01*
X530007Y875307D01*
X530097Y875321D01*
X530188Y875329D01*
X530217Y875341D01*
X530249Y875346D01*
X530330Y875389D01*
X530414Y875425D01*
X530446Y875451D01*
X530467Y875462D01*
X530489Y875485D01*
X530545Y875530D01*
X543752Y888737D01*
X543805Y888811D01*
X543865Y888880D01*
X543877Y888911D01*
X543896Y888937D01*
X543923Y889024D01*
X543957Y889109D01*
X543961Y889150D01*
X543968Y889172D01*
X543967Y889204D01*
X543975Y889275D01*
X543975Y919533D01*
X543957Y919647D01*
X543939Y919764D01*
X543937Y919769D01*
X543936Y919776D01*
X543881Y919878D01*
X543828Y919983D01*
X543823Y919987D01*
X543820Y919993D01*
X543736Y920073D01*
X543652Y920155D01*
X543646Y920159D01*
X543642Y920162D01*
X543625Y920170D01*
X543505Y920236D01*
X543013Y920440D01*
X539940Y923513D01*
X538277Y927527D01*
X538277Y931873D01*
X539940Y935887D01*
X543013Y938960D01*
X547027Y940623D01*
X551373Y940623D01*
X555387Y938960D01*
X558460Y935887D01*
X560123Y931873D01*
X560123Y927527D01*
X558460Y923513D01*
X555387Y920440D01*
X551495Y918828D01*
X551395Y918766D01*
X551295Y918706D01*
X551291Y918701D01*
X551286Y918698D01*
X551211Y918609D01*
X551135Y918519D01*
X551133Y918513D01*
X551129Y918509D01*
X551087Y918400D01*
X551043Y918291D01*
X551042Y918284D01*
X551041Y918279D01*
X551040Y918261D01*
X551025Y918124D01*
X551025Y886040D01*
X535530Y870545D01*
X535477Y870471D01*
X535417Y870402D01*
X535405Y870371D01*
X535386Y870345D01*
X535359Y870258D01*
X535325Y870173D01*
X535321Y870132D01*
X535314Y870110D01*
X535315Y870078D01*
X535307Y870007D01*
X535307Y867802D01*
X532198Y864693D01*
X527802Y864693D01*
G37*
%LPD*%
%LPC*%
G36*
X379348Y654315D02*
X379348Y654315D01*
X378455Y655208D01*
X378455Y681472D01*
X379348Y682365D01*
X405612Y682365D01*
X406505Y681472D01*
X406505Y655208D01*
X405612Y654315D01*
X379348Y654315D01*
G37*
%LPD*%
%LPC*%
G36*
X775588Y654315D02*
X775588Y654315D01*
X774695Y655208D01*
X774695Y681472D01*
X775588Y682365D01*
X801852Y682365D01*
X802745Y681472D01*
X802745Y655208D01*
X801852Y654315D01*
X775588Y654315D01*
G37*
%LPD*%
%LPC*%
G36*
X379648Y423815D02*
X379648Y423815D01*
X378755Y424708D01*
X378755Y450972D01*
X379648Y451865D01*
X405912Y451865D01*
X406805Y450972D01*
X406805Y424708D01*
X405912Y423815D01*
X379648Y423815D01*
G37*
%LPD*%
%LPC*%
G36*
X775888Y423815D02*
X775888Y423815D01*
X774995Y424708D01*
X774995Y450972D01*
X775888Y451865D01*
X802152Y451865D01*
X803045Y450972D01*
X803045Y424708D01*
X802152Y423815D01*
X775888Y423815D01*
G37*
%LPD*%
%LPC*%
G36*
X839603Y426078D02*
X839603Y426078D01*
X833861Y428457D01*
X829467Y432851D01*
X827088Y438593D01*
X827088Y444807D01*
X829467Y450549D01*
X833861Y454943D01*
X839603Y457322D01*
X845817Y457322D01*
X851559Y454943D01*
X855953Y450549D01*
X858332Y444807D01*
X858332Y438593D01*
X855953Y432851D01*
X851559Y428457D01*
X845817Y426078D01*
X839603Y426078D01*
G37*
%LPD*%
%LPC*%
G36*
X933583Y426078D02*
X933583Y426078D01*
X927841Y428457D01*
X923447Y432851D01*
X921068Y438593D01*
X921068Y444807D01*
X923447Y450549D01*
X927841Y454943D01*
X933583Y457322D01*
X939797Y457322D01*
X945539Y454943D01*
X949933Y450549D01*
X952312Y444807D01*
X952312Y438593D01*
X949933Y432851D01*
X945539Y428457D01*
X939797Y426078D01*
X933583Y426078D01*
G37*
%LPD*%
%LPC*%
G36*
X934429Y559111D02*
X934429Y559111D01*
X930788Y560619D01*
X928001Y563406D01*
X926493Y567047D01*
X926493Y587753D01*
X928001Y591394D01*
X930788Y594181D01*
X934429Y595689D01*
X938371Y595689D01*
X942012Y594181D01*
X944799Y591394D01*
X946307Y587753D01*
X946307Y567047D01*
X944799Y563406D01*
X942012Y560619D01*
X938371Y559111D01*
X934429Y559111D01*
G37*
%LPD*%
%LPC*%
G36*
X296757Y466135D02*
X296757Y466135D01*
X293425Y467515D01*
X290875Y470065D01*
X289495Y473397D01*
X289495Y477003D01*
X290875Y480335D01*
X293425Y482885D01*
X296757Y484265D01*
X315443Y484265D01*
X318775Y482885D01*
X321325Y480335D01*
X322705Y477003D01*
X322705Y473397D01*
X321325Y470065D01*
X318775Y467515D01*
X315443Y466135D01*
X296757Y466135D01*
G37*
%LPD*%
%LPC*%
G36*
X252757Y491535D02*
X252757Y491535D01*
X249425Y492915D01*
X246875Y495465D01*
X245495Y498797D01*
X245495Y502403D01*
X246875Y505735D01*
X249425Y508285D01*
X252757Y509665D01*
X271443Y509665D01*
X274775Y508285D01*
X277325Y505735D01*
X278705Y502403D01*
X278705Y498797D01*
X277325Y495465D01*
X274775Y492915D01*
X271443Y491535D01*
X252757Y491535D01*
G37*
%LPD*%
%LPC*%
G36*
X296757Y491535D02*
X296757Y491535D01*
X293425Y492915D01*
X290875Y495465D01*
X289495Y498797D01*
X289495Y502403D01*
X290875Y505735D01*
X293425Y508285D01*
X296757Y509665D01*
X315443Y509665D01*
X318775Y508285D01*
X321325Y505735D01*
X322705Y502403D01*
X322705Y498797D01*
X321325Y495465D01*
X318775Y492915D01*
X315443Y491535D01*
X296757Y491535D01*
G37*
%LPD*%
%LPC*%
G36*
X623227Y918777D02*
X623227Y918777D01*
X619213Y920440D01*
X616140Y923513D01*
X614477Y927527D01*
X614477Y931873D01*
X616140Y935887D01*
X619213Y938960D01*
X623227Y940623D01*
X627573Y940623D01*
X631587Y938960D01*
X634660Y935887D01*
X636323Y931873D01*
X636323Y927527D01*
X634660Y923513D01*
X631587Y920440D01*
X627573Y918777D01*
X623227Y918777D01*
G37*
%LPD*%
%LPC*%
G36*
X231827Y914677D02*
X231827Y914677D01*
X227813Y916340D01*
X224740Y919413D01*
X223077Y923427D01*
X223077Y927773D01*
X224740Y931787D01*
X227813Y934860D01*
X231827Y936523D01*
X236173Y936523D01*
X240187Y934860D01*
X243260Y931787D01*
X244923Y927773D01*
X244923Y923427D01*
X243260Y919413D01*
X240187Y916340D01*
X236173Y914677D01*
X231827Y914677D01*
G37*
%LPD*%
%LPC*%
G36*
X750227Y944177D02*
X750227Y944177D01*
X746213Y945840D01*
X743140Y948913D01*
X741477Y952927D01*
X741477Y957273D01*
X743140Y961287D01*
X746213Y964360D01*
X750227Y966023D01*
X754573Y966023D01*
X758587Y964360D01*
X761660Y961287D01*
X763323Y957273D01*
X763323Y952927D01*
X761660Y948913D01*
X758587Y945840D01*
X754573Y944177D01*
X750227Y944177D01*
G37*
%LPD*%
%LPC*%
G36*
X597827Y944177D02*
X597827Y944177D01*
X593813Y945840D01*
X590740Y948913D01*
X589077Y952927D01*
X589077Y957273D01*
X590740Y961287D01*
X593813Y964360D01*
X597827Y966023D01*
X602173Y966023D01*
X606187Y964360D01*
X609260Y961287D01*
X610923Y957273D01*
X610923Y952927D01*
X609260Y948913D01*
X606187Y945840D01*
X602173Y944177D01*
X597827Y944177D01*
G37*
%LPD*%
%LPC*%
G36*
X445427Y944177D02*
X445427Y944177D01*
X441413Y945840D01*
X438340Y948913D01*
X436677Y952927D01*
X436677Y957273D01*
X438340Y961287D01*
X441413Y964360D01*
X445427Y966023D01*
X449773Y966023D01*
X453787Y964360D01*
X456860Y961287D01*
X458523Y957273D01*
X458523Y952927D01*
X456860Y948913D01*
X453787Y945840D01*
X449773Y944177D01*
X445427Y944177D01*
G37*
%LPD*%
%LPC*%
G36*
X420027Y944177D02*
X420027Y944177D01*
X416013Y945840D01*
X412940Y948913D01*
X411277Y952927D01*
X411277Y957273D01*
X412940Y961287D01*
X416013Y964360D01*
X420027Y966023D01*
X424373Y966023D01*
X428387Y964360D01*
X431460Y961287D01*
X433123Y957273D01*
X433123Y952927D01*
X431460Y948913D01*
X428387Y945840D01*
X424373Y944177D01*
X420027Y944177D01*
G37*
%LPD*%
%LPC*%
G36*
X724827Y944177D02*
X724827Y944177D01*
X720813Y945840D01*
X717740Y948913D01*
X716077Y952927D01*
X716077Y957273D01*
X717740Y961287D01*
X720813Y964360D01*
X724827Y966023D01*
X729173Y966023D01*
X733187Y964360D01*
X736260Y961287D01*
X737923Y957273D01*
X737923Y952927D01*
X736260Y948913D01*
X733187Y945840D01*
X729173Y944177D01*
X724827Y944177D01*
G37*
%LPD*%
%LPC*%
G36*
X420027Y918777D02*
X420027Y918777D01*
X416013Y920440D01*
X412940Y923513D01*
X411277Y927527D01*
X411277Y931873D01*
X412940Y935887D01*
X416013Y938960D01*
X420027Y940623D01*
X424373Y940623D01*
X428387Y938960D01*
X431460Y935887D01*
X433123Y931873D01*
X433123Y927527D01*
X431460Y923513D01*
X428387Y920440D01*
X424373Y918777D01*
X420027Y918777D01*
G37*
%LPD*%
%LPC*%
G36*
X231827Y940077D02*
X231827Y940077D01*
X227813Y941740D01*
X224740Y944813D01*
X223077Y948827D01*
X223077Y953173D01*
X224740Y957187D01*
X227813Y960260D01*
X231827Y961923D01*
X236173Y961923D01*
X240187Y960260D01*
X243260Y957187D01*
X244923Y953173D01*
X244923Y948827D01*
X243260Y944813D01*
X240187Y941740D01*
X236173Y940077D01*
X231827Y940077D01*
G37*
%LPD*%
%LPC*%
G36*
X699427Y944177D02*
X699427Y944177D01*
X695413Y945840D01*
X692340Y948913D01*
X690677Y952927D01*
X690677Y957273D01*
X692340Y961287D01*
X695413Y964360D01*
X699427Y966023D01*
X703773Y966023D01*
X707787Y964360D01*
X710860Y961287D01*
X712523Y957273D01*
X712523Y952927D01*
X710860Y948913D01*
X707787Y945840D01*
X703773Y944177D01*
X699427Y944177D01*
G37*
%LPD*%
%LPC*%
G36*
X877227Y918777D02*
X877227Y918777D01*
X873213Y920440D01*
X870140Y923513D01*
X868477Y927527D01*
X868477Y931873D01*
X870140Y935887D01*
X873213Y938960D01*
X877227Y940623D01*
X881573Y940623D01*
X885587Y938960D01*
X888660Y935887D01*
X890323Y931873D01*
X890323Y927527D01*
X888660Y923513D01*
X885587Y920440D01*
X881573Y918777D01*
X877227Y918777D01*
G37*
%LPD*%
%LPC*%
G36*
X623227Y944177D02*
X623227Y944177D01*
X619213Y945840D01*
X616140Y948913D01*
X614477Y952927D01*
X614477Y957273D01*
X616140Y961287D01*
X619213Y964360D01*
X623227Y966023D01*
X627573Y966023D01*
X631587Y964360D01*
X634660Y961287D01*
X636323Y957273D01*
X636323Y952927D01*
X634660Y948913D01*
X631587Y945840D01*
X627573Y944177D01*
X623227Y944177D01*
G37*
%LPD*%
%LPC*%
G36*
X750227Y918777D02*
X750227Y918777D01*
X746213Y920440D01*
X743140Y923513D01*
X741477Y927527D01*
X741477Y931873D01*
X743140Y935887D01*
X746213Y938960D01*
X750227Y940623D01*
X754573Y940623D01*
X758587Y938960D01*
X761660Y935887D01*
X763323Y931873D01*
X763323Y927527D01*
X761660Y923513D01*
X758587Y920440D01*
X754573Y918777D01*
X750227Y918777D01*
G37*
%LPD*%
%LPC*%
G36*
X401196Y332393D02*
X401196Y332393D01*
X395393Y338196D01*
X395393Y346404D01*
X401196Y352207D01*
X409404Y352207D01*
X415207Y346404D01*
X415207Y338196D01*
X409404Y332393D01*
X401196Y332393D01*
G37*
%LPD*%
%LPC*%
G36*
X524196Y332393D02*
X524196Y332393D01*
X518393Y338196D01*
X518393Y346404D01*
X524196Y352207D01*
X532404Y352207D01*
X538207Y346404D01*
X538207Y338196D01*
X532404Y332393D01*
X524196Y332393D01*
G37*
%LPD*%
%LPC*%
G36*
X760696Y332393D02*
X760696Y332393D01*
X754893Y338196D01*
X754893Y346404D01*
X760696Y352207D01*
X768904Y352207D01*
X774707Y346404D01*
X774707Y338196D01*
X768904Y332393D01*
X760696Y332393D01*
G37*
%LPD*%
%LPC*%
G36*
X238723Y634763D02*
X238723Y634763D01*
X233663Y639823D01*
X233663Y646977D01*
X238723Y652037D01*
X245877Y652037D01*
X250937Y646977D01*
X250937Y639823D01*
X245877Y634763D01*
X238723Y634763D01*
G37*
%LPD*%
%LPC*%
G36*
X238723Y583963D02*
X238723Y583963D01*
X233663Y589023D01*
X233663Y596177D01*
X238723Y601237D01*
X245877Y601237D01*
X250937Y596177D01*
X250937Y589023D01*
X245877Y583963D01*
X238723Y583963D01*
G37*
%LPD*%
%LPC*%
G36*
X264123Y558563D02*
X264123Y558563D01*
X259063Y563623D01*
X259063Y570777D01*
X264123Y575837D01*
X271277Y575837D01*
X276337Y570777D01*
X276337Y563623D01*
X271277Y558563D01*
X264123Y558563D01*
G37*
%LPD*%
%LPC*%
G36*
X263123Y877563D02*
X263123Y877563D01*
X258063Y882623D01*
X258063Y889777D01*
X263123Y894837D01*
X270277Y894837D01*
X275337Y889777D01*
X275337Y882623D01*
X270277Y877563D01*
X263123Y877563D01*
G37*
%LPD*%
%LPC*%
G36*
X238723Y558563D02*
X238723Y558563D01*
X233663Y563623D01*
X233663Y570777D01*
X238723Y575837D01*
X245877Y575837D01*
X250937Y570777D01*
X250937Y563623D01*
X245877Y558563D01*
X238723Y558563D01*
G37*
%LPD*%
%LPC*%
G36*
X264123Y685563D02*
X264123Y685563D01*
X259063Y690623D01*
X259063Y697777D01*
X264123Y702837D01*
X271277Y702837D01*
X276337Y697777D01*
X276337Y690623D01*
X271277Y685563D01*
X264123Y685563D01*
G37*
%LPD*%
%LPC*%
G36*
X350733Y360071D02*
X350733Y360071D01*
X345971Y364833D01*
X345971Y371567D01*
X350733Y376329D01*
X357467Y376329D01*
X362229Y371567D01*
X362229Y364833D01*
X357467Y360071D01*
X350733Y360071D01*
G37*
%LPD*%
%LPC*%
G36*
X714533Y309371D02*
X714533Y309371D01*
X709771Y314133D01*
X709771Y320867D01*
X714533Y325629D01*
X721267Y325629D01*
X726029Y320867D01*
X726029Y314133D01*
X721267Y309371D01*
X714533Y309371D01*
G37*
%LPD*%
%LPC*%
G36*
X469533Y309971D02*
X469533Y309971D01*
X464771Y314733D01*
X464771Y321467D01*
X469533Y326229D01*
X476267Y326229D01*
X481029Y321467D01*
X481029Y314733D01*
X476267Y309971D01*
X469533Y309971D01*
G37*
%LPD*%
%LPC*%
G36*
X714533Y360171D02*
X714533Y360171D01*
X709771Y364933D01*
X709771Y371667D01*
X714533Y376429D01*
X721267Y376429D01*
X726029Y371667D01*
X726029Y364933D01*
X721267Y360171D01*
X714533Y360171D01*
G37*
%LPD*%
%LPC*%
G36*
X394003Y842583D02*
X394003Y842583D01*
X394003Y856101D01*
X405314Y856101D01*
X405961Y855928D01*
X406540Y855593D01*
X407013Y855120D01*
X407348Y854541D01*
X407521Y853894D01*
X407521Y842583D01*
X394003Y842583D01*
G37*
%LPD*%
%LPC*%
G36*
X790243Y842583D02*
X790243Y842583D01*
X790243Y856101D01*
X801554Y856101D01*
X802201Y855928D01*
X802780Y855593D01*
X803253Y855120D01*
X803588Y854541D01*
X803761Y853894D01*
X803761Y842583D01*
X790243Y842583D01*
G37*
%LPD*%
%LPC*%
G36*
X394303Y612083D02*
X394303Y612083D01*
X394303Y625601D01*
X405614Y625601D01*
X406261Y625428D01*
X406840Y625093D01*
X407313Y624620D01*
X407648Y624041D01*
X407821Y623394D01*
X407821Y612083D01*
X394303Y612083D01*
G37*
%LPD*%
%LPC*%
G36*
X790543Y612083D02*
X790543Y612083D01*
X790543Y625601D01*
X801854Y625601D01*
X802501Y625428D01*
X803080Y625093D01*
X803553Y624620D01*
X803888Y624041D01*
X804061Y623394D01*
X804061Y612083D01*
X790543Y612083D01*
G37*
%LPD*%
%LPC*%
G36*
X773679Y842583D02*
X773679Y842583D01*
X773679Y853894D01*
X773852Y854541D01*
X774187Y855120D01*
X774660Y855593D01*
X775239Y855928D01*
X775886Y856101D01*
X787197Y856101D01*
X787197Y842583D01*
X773679Y842583D01*
G37*
%LPD*%
%LPC*%
G36*
X394303Y595519D02*
X394303Y595519D01*
X394303Y609037D01*
X407821Y609037D01*
X407821Y597726D01*
X407648Y597079D01*
X407313Y596500D01*
X406840Y596027D01*
X406261Y595692D01*
X405614Y595519D01*
X394303Y595519D01*
G37*
%LPD*%
%LPC*%
G36*
X790543Y595519D02*
X790543Y595519D01*
X790543Y609037D01*
X804061Y609037D01*
X804061Y597726D01*
X803888Y597079D01*
X803553Y596500D01*
X803080Y596027D01*
X802501Y595692D01*
X801854Y595519D01*
X790543Y595519D01*
G37*
%LPD*%
%LPC*%
G36*
X394003Y826019D02*
X394003Y826019D01*
X394003Y839537D01*
X407521Y839537D01*
X407521Y828226D01*
X407348Y827579D01*
X407013Y827000D01*
X406540Y826527D01*
X405961Y826192D01*
X405314Y826019D01*
X394003Y826019D01*
G37*
%LPD*%
%LPC*%
G36*
X773979Y612083D02*
X773979Y612083D01*
X773979Y623394D01*
X774152Y624041D01*
X774487Y624620D01*
X774960Y625093D01*
X775539Y625428D01*
X776186Y625601D01*
X787497Y625601D01*
X787497Y612083D01*
X773979Y612083D01*
G37*
%LPD*%
%LPC*%
G36*
X377739Y612083D02*
X377739Y612083D01*
X377739Y623394D01*
X377912Y624041D01*
X378247Y624620D01*
X378720Y625093D01*
X379299Y625428D01*
X379946Y625601D01*
X391257Y625601D01*
X391257Y612083D01*
X377739Y612083D01*
G37*
%LPD*%
%LPC*%
G36*
X377439Y842583D02*
X377439Y842583D01*
X377439Y853894D01*
X377612Y854541D01*
X377947Y855120D01*
X378420Y855593D01*
X378999Y855928D01*
X379646Y856101D01*
X390957Y856101D01*
X390957Y842583D01*
X377439Y842583D01*
G37*
%LPD*%
%LPC*%
G36*
X379946Y595519D02*
X379946Y595519D01*
X379299Y595692D01*
X378720Y596027D01*
X378247Y596500D01*
X377912Y597079D01*
X377739Y597726D01*
X377739Y609037D01*
X391257Y609037D01*
X391257Y595519D01*
X379946Y595519D01*
G37*
%LPD*%
%LPC*%
G36*
X775886Y826019D02*
X775886Y826019D01*
X775239Y826192D01*
X774660Y826527D01*
X774187Y827000D01*
X773852Y827579D01*
X773679Y828226D01*
X773679Y839537D01*
X787197Y839537D01*
X787197Y826019D01*
X775886Y826019D01*
G37*
%LPD*%
%LPC*%
G36*
X776186Y595519D02*
X776186Y595519D01*
X775539Y595692D01*
X774960Y596027D01*
X774487Y596500D01*
X774152Y597079D01*
X773979Y597726D01*
X773979Y609037D01*
X787497Y609037D01*
X787497Y595519D01*
X776186Y595519D01*
G37*
%LPD*%
%LPC*%
G36*
X379646Y826019D02*
X379646Y826019D01*
X378999Y826192D01*
X378420Y826527D01*
X377947Y827000D01*
X377612Y827579D01*
X377439Y828226D01*
X377439Y839537D01*
X390957Y839537D01*
X390957Y826019D01*
X379646Y826019D01*
G37*
%LPD*%
%LPC*%
G36*
X887123Y578923D02*
X887123Y578923D01*
X887123Y596600D01*
X888158Y596436D01*
X889793Y595904D01*
X891325Y595124D01*
X892716Y594113D01*
X893931Y592898D01*
X894942Y591507D01*
X895722Y589975D01*
X896254Y588340D01*
X896523Y586642D01*
X896523Y578923D01*
X887123Y578923D01*
G37*
%LPD*%
%LPC*%
G36*
X887123Y575877D02*
X887123Y575877D01*
X896523Y575877D01*
X896523Y568158D01*
X896254Y566460D01*
X895722Y564825D01*
X894942Y563293D01*
X893931Y561902D01*
X892716Y560687D01*
X891325Y559676D01*
X889793Y558896D01*
X888158Y558364D01*
X887123Y558200D01*
X887123Y575877D01*
G37*
%LPD*%
%LPC*%
G36*
X874677Y578923D02*
X874677Y578923D01*
X874677Y586642D01*
X874946Y588340D01*
X875478Y589975D01*
X876258Y591507D01*
X877269Y592898D01*
X878484Y594113D01*
X879875Y595124D01*
X881407Y595904D01*
X883042Y596436D01*
X884077Y596600D01*
X884077Y578923D01*
X874677Y578923D01*
G37*
%LPD*%
%LPC*%
G36*
X883042Y558364D02*
X883042Y558364D01*
X881407Y558896D01*
X879875Y559676D01*
X878484Y560687D01*
X877269Y561902D01*
X876258Y563293D01*
X875478Y564825D01*
X874946Y566460D01*
X874677Y568158D01*
X874677Y575877D01*
X884077Y575877D01*
X884077Y558200D01*
X883042Y558364D01*
G37*
%LPD*%
%LPC*%
G36*
X263623Y451323D02*
X263623Y451323D01*
X263623Y459881D01*
X270433Y459881D01*
X272001Y459633D01*
X273510Y459142D01*
X274923Y458422D01*
X276207Y457489D01*
X277329Y456367D01*
X278262Y455083D01*
X278982Y453670D01*
X279473Y452161D01*
X279605Y451323D01*
X263623Y451323D01*
G37*
%LPD*%
%LPC*%
G36*
X307623Y451323D02*
X307623Y451323D01*
X307623Y459881D01*
X314433Y459881D01*
X316001Y459633D01*
X317510Y459142D01*
X318923Y458422D01*
X320207Y457489D01*
X321329Y456367D01*
X322262Y455083D01*
X322982Y453670D01*
X323473Y452161D01*
X323605Y451323D01*
X307623Y451323D01*
G37*
%LPD*%
%LPC*%
G36*
X288595Y451323D02*
X288595Y451323D01*
X288727Y452161D01*
X289218Y453670D01*
X289938Y455083D01*
X290871Y456367D01*
X291993Y457489D01*
X293277Y458422D01*
X294690Y459142D01*
X296199Y459633D01*
X297767Y459881D01*
X304577Y459881D01*
X304577Y451323D01*
X288595Y451323D01*
G37*
%LPD*%
%LPC*%
G36*
X244595Y451323D02*
X244595Y451323D01*
X244727Y452161D01*
X245218Y453670D01*
X245938Y455083D01*
X246871Y456367D01*
X247993Y457489D01*
X249277Y458422D01*
X250690Y459142D01*
X252199Y459633D01*
X253767Y459881D01*
X260577Y459881D01*
X260577Y451323D01*
X244595Y451323D01*
G37*
%LPD*%
%LPC*%
G36*
X263623Y439719D02*
X263623Y439719D01*
X263623Y448277D01*
X279605Y448277D01*
X279473Y447439D01*
X278982Y445930D01*
X278262Y444517D01*
X277329Y443233D01*
X276207Y442111D01*
X274923Y441178D01*
X273510Y440458D01*
X272001Y439967D01*
X270433Y439719D01*
X263623Y439719D01*
G37*
%LPD*%
%LPC*%
G36*
X307623Y439719D02*
X307623Y439719D01*
X307623Y448277D01*
X323605Y448277D01*
X323473Y447439D01*
X322982Y445930D01*
X322262Y444517D01*
X321329Y443233D01*
X320207Y442111D01*
X318923Y441178D01*
X317510Y440458D01*
X316001Y439967D01*
X314433Y439719D01*
X307623Y439719D01*
G37*
%LPD*%
%LPC*%
G36*
X253767Y439719D02*
X253767Y439719D01*
X252199Y439967D01*
X250690Y440458D01*
X249277Y441178D01*
X247993Y442111D01*
X246871Y443233D01*
X245938Y444517D01*
X245218Y445930D01*
X244727Y447439D01*
X244595Y448277D01*
X260577Y448277D01*
X260577Y439719D01*
X253767Y439719D01*
G37*
%LPD*%
%LPC*%
G36*
X297767Y439719D02*
X297767Y439719D01*
X296199Y439967D01*
X294690Y440458D01*
X293277Y441178D01*
X291993Y442111D01*
X290871Y443233D01*
X289938Y444517D01*
X289218Y445930D01*
X288727Y447439D01*
X288595Y448277D01*
X304577Y448277D01*
X304577Y439719D01*
X297767Y439719D01*
G37*
%LPD*%
%LPC*%
G36*
X779323Y956623D02*
X779323Y956623D01*
X779323Y966946D01*
X780596Y966745D01*
X782383Y966164D01*
X784057Y965311D01*
X785578Y964206D01*
X786906Y962878D01*
X788011Y961357D01*
X788864Y959683D01*
X789445Y957896D01*
X789646Y956623D01*
X779323Y956623D01*
G37*
%LPD*%
%LPC*%
G36*
X906323Y931223D02*
X906323Y931223D01*
X906323Y941546D01*
X907596Y941345D01*
X909383Y940764D01*
X911057Y939911D01*
X912578Y938806D01*
X913906Y937478D01*
X915011Y935957D01*
X915864Y934283D01*
X916445Y932496D01*
X916646Y931223D01*
X906323Y931223D01*
G37*
%LPD*%
%LPC*%
G36*
X525323Y931223D02*
X525323Y931223D01*
X525323Y941546D01*
X526596Y941345D01*
X528383Y940764D01*
X530057Y939911D01*
X531578Y938806D01*
X532906Y937478D01*
X534011Y935957D01*
X534864Y934283D01*
X535445Y932496D01*
X535646Y931223D01*
X525323Y931223D01*
G37*
%LPD*%
%LPC*%
G36*
X728523Y931223D02*
X728523Y931223D01*
X728523Y941546D01*
X729796Y941345D01*
X731583Y940764D01*
X733257Y939911D01*
X734778Y938806D01*
X736106Y937478D01*
X737211Y935957D01*
X738064Y934283D01*
X738645Y932496D01*
X738846Y931223D01*
X728523Y931223D01*
G37*
%LPD*%
%LPC*%
G36*
X576123Y956623D02*
X576123Y956623D01*
X576123Y966946D01*
X577396Y966745D01*
X579183Y966164D01*
X580857Y965311D01*
X582378Y964206D01*
X583706Y962878D01*
X584811Y961357D01*
X585664Y959683D01*
X586245Y957896D01*
X586446Y956623D01*
X576123Y956623D01*
G37*
%LPD*%
%LPC*%
G36*
X652323Y956623D02*
X652323Y956623D01*
X652323Y966946D01*
X653596Y966745D01*
X655383Y966164D01*
X657057Y965311D01*
X658578Y964206D01*
X659906Y962878D01*
X661011Y961357D01*
X661864Y959683D01*
X662445Y957896D01*
X662646Y956623D01*
X652323Y956623D01*
G37*
%LPD*%
%LPC*%
G36*
X830123Y956623D02*
X830123Y956623D01*
X830123Y966946D01*
X831396Y966745D01*
X833183Y966164D01*
X834857Y965311D01*
X836378Y964206D01*
X837706Y962878D01*
X838811Y961357D01*
X839664Y959683D01*
X840245Y957896D01*
X840446Y956623D01*
X830123Y956623D01*
G37*
%LPD*%
%LPC*%
G36*
X525323Y928177D02*
X525323Y928177D01*
X535646Y928177D01*
X535445Y926904D01*
X534864Y925117D01*
X534011Y923443D01*
X532906Y921922D01*
X531578Y920594D01*
X530057Y919489D01*
X528383Y918636D01*
X526596Y918055D01*
X525323Y917854D01*
X525323Y928177D01*
G37*
%LPD*%
%LPC*%
G36*
X728523Y928177D02*
X728523Y928177D01*
X738846Y928177D01*
X738645Y926904D01*
X738064Y925117D01*
X737211Y923443D01*
X736106Y921922D01*
X734778Y920594D01*
X733257Y919489D01*
X731583Y918636D01*
X729796Y918055D01*
X728523Y917854D01*
X728523Y928177D01*
G37*
%LPD*%
%LPC*%
G36*
X715154Y931223D02*
X715154Y931223D01*
X715355Y932496D01*
X715936Y934283D01*
X716789Y935957D01*
X717894Y937478D01*
X719222Y938806D01*
X720743Y939911D01*
X722417Y940764D01*
X724204Y941345D01*
X725477Y941546D01*
X725477Y931223D01*
X715154Y931223D01*
G37*
%LPD*%
%LPC*%
G36*
X906323Y928177D02*
X906323Y928177D01*
X916646Y928177D01*
X916445Y926904D01*
X915864Y925117D01*
X915011Y923443D01*
X913906Y921922D01*
X912578Y920594D01*
X911057Y919489D01*
X909383Y918636D01*
X907596Y918055D01*
X906323Y917854D01*
X906323Y928177D01*
G37*
%LPD*%
%LPC*%
G36*
X511954Y931223D02*
X511954Y931223D01*
X512155Y932496D01*
X512736Y934283D01*
X513589Y935957D01*
X514694Y937478D01*
X516022Y938806D01*
X517543Y939911D01*
X519217Y940764D01*
X521004Y941345D01*
X522277Y941546D01*
X522277Y931223D01*
X511954Y931223D01*
G37*
%LPD*%
%LPC*%
G36*
X892954Y931223D02*
X892954Y931223D01*
X893155Y932496D01*
X893736Y934283D01*
X894589Y935957D01*
X895694Y937478D01*
X897022Y938806D01*
X898543Y939911D01*
X900217Y940764D01*
X902004Y941345D01*
X903277Y941546D01*
X903277Y931223D01*
X892954Y931223D01*
G37*
%LPD*%
%LPC*%
G36*
X576123Y953577D02*
X576123Y953577D01*
X586446Y953577D01*
X586245Y952304D01*
X585664Y950517D01*
X584811Y948843D01*
X583706Y947322D01*
X582378Y945994D01*
X580857Y944889D01*
X579183Y944036D01*
X577396Y943455D01*
X576123Y943254D01*
X576123Y953577D01*
G37*
%LPD*%
%LPC*%
G36*
X830123Y953577D02*
X830123Y953577D01*
X840446Y953577D01*
X840245Y952304D01*
X839664Y950517D01*
X838811Y948843D01*
X837706Y947322D01*
X836378Y945994D01*
X834857Y944889D01*
X833183Y944036D01*
X831396Y943455D01*
X830123Y943254D01*
X830123Y953577D01*
G37*
%LPD*%
%LPC*%
G36*
X779323Y953577D02*
X779323Y953577D01*
X789646Y953577D01*
X789445Y952304D01*
X788864Y950517D01*
X788011Y948843D01*
X786906Y947322D01*
X785578Y945994D01*
X784057Y944889D01*
X782383Y944036D01*
X780596Y943455D01*
X779323Y943254D01*
X779323Y953577D01*
G37*
%LPD*%
%LPC*%
G36*
X652323Y953577D02*
X652323Y953577D01*
X662646Y953577D01*
X662445Y952304D01*
X661864Y950517D01*
X661011Y948843D01*
X659906Y947322D01*
X658578Y945994D01*
X657057Y944889D01*
X655383Y944036D01*
X653596Y943455D01*
X652323Y943254D01*
X652323Y953577D01*
G37*
%LPD*%
%LPC*%
G36*
X474523Y953577D02*
X474523Y953577D01*
X484846Y953577D01*
X484645Y952304D01*
X484064Y950517D01*
X483211Y948843D01*
X482106Y947322D01*
X480778Y945994D01*
X479257Y944889D01*
X477583Y944036D01*
X475796Y943455D01*
X474523Y943254D01*
X474523Y953577D01*
G37*
%LPD*%
%LPC*%
G36*
X816754Y956623D02*
X816754Y956623D01*
X816955Y957896D01*
X817536Y959683D01*
X818389Y961357D01*
X819494Y962878D01*
X820822Y964206D01*
X822343Y965311D01*
X824017Y966164D01*
X825804Y966745D01*
X827077Y966946D01*
X827077Y956623D01*
X816754Y956623D01*
G37*
%LPD*%
%LPC*%
G36*
X638954Y956623D02*
X638954Y956623D01*
X639155Y957896D01*
X639736Y959683D01*
X640589Y961357D01*
X641694Y962878D01*
X643022Y964206D01*
X644543Y965311D01*
X646217Y966164D01*
X648004Y966745D01*
X649277Y966946D01*
X649277Y956623D01*
X638954Y956623D01*
G37*
%LPD*%
%LPC*%
G36*
X562754Y956623D02*
X562754Y956623D01*
X562955Y957896D01*
X563536Y959683D01*
X564389Y961357D01*
X565494Y962878D01*
X566822Y964206D01*
X568343Y965311D01*
X570017Y966164D01*
X571804Y966745D01*
X573077Y966946D01*
X573077Y956623D01*
X562754Y956623D01*
G37*
%LPD*%
%LPC*%
G36*
X765954Y956623D02*
X765954Y956623D01*
X766155Y957896D01*
X766736Y959683D01*
X767589Y961357D01*
X768694Y962878D01*
X770022Y964206D01*
X771543Y965311D01*
X773217Y966164D01*
X775004Y966745D01*
X776277Y966946D01*
X776277Y956623D01*
X765954Y956623D01*
G37*
%LPD*%
%LPC*%
G36*
X902004Y918055D02*
X902004Y918055D01*
X900217Y918636D01*
X898543Y919489D01*
X897022Y920594D01*
X895694Y921922D01*
X894589Y923443D01*
X893736Y925117D01*
X893155Y926904D01*
X892954Y928177D01*
X903277Y928177D01*
X903277Y917854D01*
X902004Y918055D01*
G37*
%LPD*%
%LPC*%
G36*
X724204Y918055D02*
X724204Y918055D01*
X722417Y918636D01*
X720743Y919489D01*
X719222Y920594D01*
X717894Y921922D01*
X716789Y923443D01*
X715936Y925117D01*
X715355Y926904D01*
X715154Y928177D01*
X725477Y928177D01*
X725477Y917854D01*
X724204Y918055D01*
G37*
%LPD*%
%LPC*%
G36*
X521004Y918055D02*
X521004Y918055D01*
X519217Y918636D01*
X517543Y919489D01*
X516022Y920594D01*
X514694Y921922D01*
X513589Y923443D01*
X512736Y925117D01*
X512155Y926904D01*
X511954Y928177D01*
X522277Y928177D01*
X522277Y917854D01*
X521004Y918055D01*
G37*
%LPD*%
%LPC*%
G36*
X648004Y943455D02*
X648004Y943455D01*
X646217Y944036D01*
X644543Y944889D01*
X643022Y945994D01*
X641694Y947322D01*
X640589Y948843D01*
X639736Y950517D01*
X639155Y952304D01*
X638954Y953577D01*
X649277Y953577D01*
X649277Y943254D01*
X648004Y943455D01*
G37*
%LPD*%
%LPC*%
G36*
X825804Y943455D02*
X825804Y943455D01*
X824017Y944036D01*
X822343Y944889D01*
X820822Y945994D01*
X819494Y947322D01*
X818389Y948843D01*
X817536Y950517D01*
X816955Y952304D01*
X816754Y953577D01*
X827077Y953577D01*
X827077Y943254D01*
X825804Y943455D01*
G37*
%LPD*%
%LPC*%
G36*
X775004Y943455D02*
X775004Y943455D01*
X773217Y944036D01*
X771543Y944889D01*
X770022Y945994D01*
X768694Y947322D01*
X767589Y948843D01*
X766736Y950517D01*
X766155Y952304D01*
X765954Y953577D01*
X776277Y953577D01*
X776277Y943254D01*
X775004Y943455D01*
G37*
%LPD*%
%LPC*%
G36*
X470204Y943455D02*
X470204Y943455D01*
X468417Y944036D01*
X466743Y944889D01*
X465222Y945994D01*
X463894Y947322D01*
X462789Y948843D01*
X461936Y950517D01*
X461355Y952304D01*
X461154Y953577D01*
X471477Y953577D01*
X471477Y943254D01*
X470204Y943455D01*
G37*
%LPD*%
%LPC*%
G36*
X571804Y943455D02*
X571804Y943455D01*
X570017Y944036D01*
X568343Y944889D01*
X566822Y945994D01*
X565494Y947322D01*
X564389Y948843D01*
X563536Y950517D01*
X562955Y952304D01*
X562754Y953577D01*
X573077Y953577D01*
X573077Y943254D01*
X571804Y943455D01*
G37*
%LPD*%
%LPC*%
G36*
X555223Y343823D02*
X555223Y343823D01*
X555223Y353223D01*
X558224Y353223D01*
X564623Y346824D01*
X564623Y343823D01*
X555223Y343823D01*
G37*
%LPD*%
%LPC*%
G36*
X673323Y344023D02*
X673323Y344023D01*
X673323Y353423D01*
X676324Y353423D01*
X682723Y347024D01*
X682723Y344023D01*
X673323Y344023D01*
G37*
%LPD*%
%LPC*%
G36*
X791723Y343823D02*
X791723Y343823D01*
X791723Y353223D01*
X794724Y353223D01*
X801123Y346824D01*
X801123Y343823D01*
X791723Y343823D01*
G37*
%LPD*%
%LPC*%
G36*
X432223Y343823D02*
X432223Y343823D01*
X432223Y353223D01*
X435224Y353223D01*
X441623Y346824D01*
X441623Y343823D01*
X432223Y343823D01*
G37*
%LPD*%
%LPC*%
G36*
X673323Y331577D02*
X673323Y331577D01*
X673323Y340977D01*
X682723Y340977D01*
X682723Y337976D01*
X676324Y331577D01*
X673323Y331577D01*
G37*
%LPD*%
%LPC*%
G36*
X791723Y331377D02*
X791723Y331377D01*
X791723Y340777D01*
X801123Y340777D01*
X801123Y337776D01*
X794724Y331377D01*
X791723Y331377D01*
G37*
%LPD*%
%LPC*%
G36*
X419777Y343823D02*
X419777Y343823D01*
X419777Y346824D01*
X426176Y353223D01*
X429177Y353223D01*
X429177Y343823D01*
X419777Y343823D01*
G37*
%LPD*%
%LPC*%
G36*
X542777Y343823D02*
X542777Y343823D01*
X542777Y346824D01*
X549176Y353223D01*
X552177Y353223D01*
X552177Y343823D01*
X542777Y343823D01*
G37*
%LPD*%
%LPC*%
G36*
X779277Y343823D02*
X779277Y343823D01*
X779277Y346824D01*
X785676Y353223D01*
X788677Y353223D01*
X788677Y343823D01*
X779277Y343823D01*
G37*
%LPD*%
%LPC*%
G36*
X660877Y344023D02*
X660877Y344023D01*
X660877Y347024D01*
X667276Y353423D01*
X670277Y353423D01*
X670277Y344023D01*
X660877Y344023D01*
G37*
%LPD*%
%LPC*%
G36*
X555223Y331377D02*
X555223Y331377D01*
X555223Y340777D01*
X564623Y340777D01*
X564623Y337776D01*
X558224Y331377D01*
X555223Y331377D01*
G37*
%LPD*%
%LPC*%
G36*
X432223Y331377D02*
X432223Y331377D01*
X432223Y340777D01*
X441623Y340777D01*
X441623Y337776D01*
X435224Y331377D01*
X432223Y331377D01*
G37*
%LPD*%
%LPC*%
G36*
X785676Y331377D02*
X785676Y331377D01*
X779277Y337776D01*
X779277Y340777D01*
X788677Y340777D01*
X788677Y331377D01*
X785676Y331377D01*
G37*
%LPD*%
%LPC*%
G36*
X667276Y331577D02*
X667276Y331577D01*
X660877Y337976D01*
X660877Y340977D01*
X670277Y340977D01*
X670277Y331577D01*
X667276Y331577D01*
G37*
%LPD*%
%LPC*%
G36*
X549176Y331377D02*
X549176Y331377D01*
X542777Y337776D01*
X542777Y340777D01*
X552177Y340777D01*
X552177Y331377D01*
X549176Y331377D01*
G37*
%LPD*%
%LPC*%
G36*
X426176Y331377D02*
X426176Y331377D01*
X419777Y337776D01*
X419777Y340777D01*
X429177Y340777D01*
X429177Y331377D01*
X426176Y331377D01*
G37*
%LPD*%
%LPC*%
G36*
X243823Y695723D02*
X243823Y695723D01*
X243823Y703853D01*
X246298Y703853D01*
X251953Y698198D01*
X251953Y695723D01*
X243823Y695723D01*
G37*
%LPD*%
%LPC*%
G36*
X269223Y543323D02*
X269223Y543323D01*
X269223Y551453D01*
X271698Y551453D01*
X277353Y545798D01*
X277353Y543323D01*
X269223Y543323D01*
G37*
%LPD*%
%LPC*%
G36*
X242823Y887723D02*
X242823Y887723D01*
X242823Y895853D01*
X245298Y895853D01*
X250953Y890198D01*
X250953Y887723D01*
X242823Y887723D01*
G37*
%LPD*%
%LPC*%
G36*
X258047Y543323D02*
X258047Y543323D01*
X258047Y545798D01*
X263702Y551453D01*
X266177Y551453D01*
X266177Y543323D01*
X258047Y543323D01*
G37*
%LPD*%
%LPC*%
G36*
X232647Y695723D02*
X232647Y695723D01*
X232647Y698198D01*
X238302Y703853D01*
X240777Y703853D01*
X240777Y695723D01*
X232647Y695723D01*
G37*
%LPD*%
%LPC*%
G36*
X231647Y887723D02*
X231647Y887723D01*
X231647Y890198D01*
X237302Y895853D01*
X239777Y895853D01*
X239777Y887723D01*
X231647Y887723D01*
G37*
%LPD*%
%LPC*%
G36*
X243823Y684547D02*
X243823Y684547D01*
X243823Y692677D01*
X251953Y692677D01*
X251953Y690202D01*
X246298Y684547D01*
X243823Y684547D01*
G37*
%LPD*%
%LPC*%
G36*
X242823Y876547D02*
X242823Y876547D01*
X242823Y884677D01*
X250953Y884677D01*
X250953Y882202D01*
X245298Y876547D01*
X242823Y876547D01*
G37*
%LPD*%
%LPC*%
G36*
X269223Y532147D02*
X269223Y532147D01*
X269223Y540277D01*
X277353Y540277D01*
X277353Y537802D01*
X271698Y532147D01*
X269223Y532147D01*
G37*
%LPD*%
%LPC*%
G36*
X268223Y724147D02*
X268223Y724147D01*
X268223Y732277D01*
X276353Y732277D01*
X276353Y729802D01*
X270698Y724147D01*
X268223Y724147D01*
G37*
%LPD*%
%LPC*%
G36*
X263702Y532147D02*
X263702Y532147D01*
X258047Y537802D01*
X258047Y540277D01*
X266177Y540277D01*
X266177Y532147D01*
X263702Y532147D01*
G37*
%LPD*%
%LPC*%
G36*
X262702Y724147D02*
X262702Y724147D01*
X257047Y729802D01*
X257047Y732277D01*
X265177Y732277D01*
X265177Y724147D01*
X262702Y724147D01*
G37*
%LPD*%
%LPC*%
G36*
X238302Y684547D02*
X238302Y684547D01*
X232647Y690202D01*
X232647Y692677D01*
X240777Y692677D01*
X240777Y684547D01*
X238302Y684547D01*
G37*
%LPD*%
%LPC*%
G36*
X237302Y876547D02*
X237302Y876547D01*
X231647Y882202D01*
X231647Y884677D01*
X239777Y884677D01*
X239777Y876547D01*
X237302Y876547D01*
G37*
%LPD*%
%LPC*%
G36*
X1036423Y736023D02*
X1036423Y736023D01*
X1036423Y744032D01*
X1037160Y743915D01*
X1038605Y743446D01*
X1039959Y742756D01*
X1041188Y741863D01*
X1042263Y740788D01*
X1043156Y739559D01*
X1043846Y738205D01*
X1044315Y736760D01*
X1044432Y736023D01*
X1036423Y736023D01*
G37*
%LPD*%
%LPC*%
G36*
X1035823Y603823D02*
X1035823Y603823D01*
X1035823Y611832D01*
X1036560Y611715D01*
X1038005Y611246D01*
X1039359Y610556D01*
X1040588Y609663D01*
X1041663Y608588D01*
X1042556Y607359D01*
X1043246Y606005D01*
X1043715Y604560D01*
X1043832Y603823D01*
X1035823Y603823D01*
G37*
%LPD*%
%LPC*%
G36*
X1035823Y600777D02*
X1035823Y600777D01*
X1043832Y600777D01*
X1043715Y600040D01*
X1043246Y598595D01*
X1042556Y597241D01*
X1041663Y596012D01*
X1040588Y594937D01*
X1039359Y594044D01*
X1038005Y593354D01*
X1036560Y592885D01*
X1035823Y592768D01*
X1035823Y600777D01*
G37*
%LPD*%
%LPC*%
G36*
X1025368Y736023D02*
X1025368Y736023D01*
X1025485Y736760D01*
X1025954Y738205D01*
X1026644Y739559D01*
X1027537Y740788D01*
X1028612Y741863D01*
X1029841Y742756D01*
X1031195Y743446D01*
X1032640Y743915D01*
X1033377Y744032D01*
X1033377Y736023D01*
X1025368Y736023D01*
G37*
%LPD*%
%LPC*%
G36*
X1024768Y603823D02*
X1024768Y603823D01*
X1024885Y604560D01*
X1025354Y606005D01*
X1026044Y607359D01*
X1026937Y608588D01*
X1028012Y609663D01*
X1029241Y610556D01*
X1030595Y611246D01*
X1032040Y611715D01*
X1032777Y611832D01*
X1032777Y603823D01*
X1024768Y603823D01*
G37*
%LPD*%
%LPC*%
G36*
X1036423Y732977D02*
X1036423Y732977D01*
X1044432Y732977D01*
X1044315Y732240D01*
X1043846Y730795D01*
X1043156Y729441D01*
X1042263Y728212D01*
X1041188Y727137D01*
X1039959Y726244D01*
X1038605Y725554D01*
X1037160Y725085D01*
X1036423Y724968D01*
X1036423Y732977D01*
G37*
%LPD*%
%LPC*%
G36*
X1032040Y592885D02*
X1032040Y592885D01*
X1030595Y593354D01*
X1029241Y594044D01*
X1028012Y594937D01*
X1026937Y596012D01*
X1026044Y597241D01*
X1025354Y598595D01*
X1024885Y600040D01*
X1024768Y600777D01*
X1032777Y600777D01*
X1032777Y592768D01*
X1032040Y592885D01*
G37*
%LPD*%
%LPC*%
G36*
X1032640Y725085D02*
X1032640Y725085D01*
X1031195Y725554D01*
X1029841Y726244D01*
X1028612Y727137D01*
X1027537Y728212D01*
X1026644Y729441D01*
X1025954Y730795D01*
X1025485Y732240D01*
X1025368Y732977D01*
X1033377Y732977D01*
X1033377Y724968D01*
X1032640Y725085D01*
G37*
%LPD*%
%LPC*%
G36*
X306099Y449799D02*
X306099Y449799D01*
X306099Y449801D01*
X306101Y449801D01*
X306101Y449799D01*
X306099Y449799D01*
G37*
%LPD*%
%LPC*%
G36*
X574599Y955099D02*
X574599Y955099D01*
X574599Y955101D01*
X574601Y955101D01*
X574601Y955099D01*
X574599Y955099D01*
G37*
%LPD*%
%LPC*%
G36*
X392479Y841059D02*
X392479Y841059D01*
X392479Y841061D01*
X392481Y841061D01*
X392481Y841059D01*
X392479Y841059D01*
G37*
%LPD*%
%LPC*%
G36*
X885599Y577399D02*
X885599Y577399D01*
X885599Y577401D01*
X885601Y577401D01*
X885601Y577399D01*
X885599Y577399D01*
G37*
%LPD*%
%LPC*%
G36*
X242299Y694199D02*
X242299Y694199D01*
X242299Y694201D01*
X242301Y694201D01*
X242301Y694199D01*
X242299Y694199D01*
G37*
%LPD*%
%LPC*%
G36*
X777799Y955099D02*
X777799Y955099D01*
X777799Y955101D01*
X777801Y955101D01*
X777801Y955099D01*
X777799Y955099D01*
G37*
%LPD*%
%LPC*%
G36*
X828599Y955099D02*
X828599Y955099D01*
X828599Y955101D01*
X828601Y955101D01*
X828601Y955099D01*
X828599Y955099D01*
G37*
%LPD*%
%LPC*%
G36*
X789019Y610559D02*
X789019Y610559D01*
X789019Y610561D01*
X789021Y610561D01*
X789021Y610559D01*
X789019Y610559D01*
G37*
%LPD*%
%LPC*%
G36*
X392779Y610559D02*
X392779Y610559D01*
X392779Y610561D01*
X392781Y610561D01*
X392781Y610559D01*
X392779Y610559D01*
G37*
%LPD*%
%LPC*%
G36*
X671799Y342499D02*
X671799Y342499D01*
X671799Y342501D01*
X671801Y342501D01*
X671801Y342499D01*
X671799Y342499D01*
G37*
%LPD*%
%LPC*%
G36*
X790199Y342299D02*
X790199Y342299D01*
X790199Y342301D01*
X790201Y342301D01*
X790201Y342299D01*
X790199Y342299D01*
G37*
%LPD*%
%LPC*%
G36*
X553699Y342299D02*
X553699Y342299D01*
X553699Y342301D01*
X553701Y342301D01*
X553701Y342299D01*
X553699Y342299D01*
G37*
%LPD*%
%LPC*%
G36*
X430699Y342299D02*
X430699Y342299D01*
X430699Y342301D01*
X430701Y342301D01*
X430701Y342299D01*
X430699Y342299D01*
G37*
%LPD*%
%LPC*%
G36*
X1034299Y602299D02*
X1034299Y602299D01*
X1034299Y602301D01*
X1034301Y602301D01*
X1034301Y602299D01*
X1034299Y602299D01*
G37*
%LPD*%
%LPC*%
G36*
X1034899Y734499D02*
X1034899Y734499D01*
X1034899Y734501D01*
X1034901Y734501D01*
X1034901Y734499D01*
X1034899Y734499D01*
G37*
%LPD*%
%LPC*%
G36*
X523799Y929699D02*
X523799Y929699D01*
X523799Y929701D01*
X523801Y929701D01*
X523801Y929699D01*
X523799Y929699D01*
G37*
%LPD*%
%LPC*%
G36*
X267699Y541799D02*
X267699Y541799D01*
X267699Y541801D01*
X267701Y541801D01*
X267701Y541799D01*
X267699Y541799D01*
G37*
%LPD*%
%LPC*%
G36*
X788719Y841059D02*
X788719Y841059D01*
X788719Y841061D01*
X788721Y841061D01*
X788721Y841059D01*
X788719Y841059D01*
G37*
%LPD*%
%LPC*%
G36*
X726999Y929699D02*
X726999Y929699D01*
X726999Y929701D01*
X727001Y929701D01*
X727001Y929699D01*
X726999Y929699D01*
G37*
%LPD*%
%LPC*%
G36*
X904799Y929699D02*
X904799Y929699D01*
X904799Y929701D01*
X904801Y929701D01*
X904801Y929699D01*
X904799Y929699D01*
G37*
%LPD*%
%LPC*%
G36*
X241299Y886199D02*
X241299Y886199D01*
X241299Y886201D01*
X241301Y886201D01*
X241301Y886199D01*
X241299Y886199D01*
G37*
%LPD*%
%LPC*%
G36*
X650799Y955099D02*
X650799Y955099D01*
X650799Y955101D01*
X650801Y955101D01*
X650801Y955099D01*
X650799Y955099D01*
G37*
%LPD*%
%LPC*%
G36*
X262099Y449799D02*
X262099Y449799D01*
X262099Y449801D01*
X262101Y449801D01*
X262101Y449799D01*
X262099Y449799D01*
G37*
%LPD*%
D10*
X1034300Y582300D03*
X1034300Y602300D03*
D11*
X422200Y929700D03*
X422200Y955100D03*
X447600Y929700D03*
X447600Y955100D03*
X473000Y929700D03*
X473000Y955100D03*
X498400Y929700D03*
X498400Y955100D03*
X523800Y929700D03*
X523800Y955100D03*
X549200Y929700D03*
X549200Y955100D03*
X574600Y929700D03*
X574600Y955100D03*
X600000Y929700D03*
X600000Y955100D03*
X625400Y929700D03*
X625400Y955100D03*
X650800Y929700D03*
X650800Y955100D03*
X676200Y929700D03*
X676200Y955100D03*
X701600Y929700D03*
X701600Y955100D03*
X727000Y929700D03*
X727000Y955100D03*
X752400Y929700D03*
X752400Y955100D03*
X777800Y929700D03*
X777800Y955100D03*
X803200Y929700D03*
X803200Y955100D03*
X828600Y929700D03*
X828600Y955100D03*
X854000Y929700D03*
X854000Y955100D03*
X879400Y929700D03*
X879400Y955100D03*
X904800Y929700D03*
X904800Y955100D03*
D12*
X764800Y342300D03*
X790200Y342300D03*
X405300Y342300D03*
X430700Y342300D03*
X528300Y342300D03*
X553700Y342300D03*
X646400Y342500D03*
X671800Y342500D03*
D13*
X717900Y317500D03*
X717900Y368300D03*
D14*
X354100Y368200D03*
X354100Y317400D03*
D13*
X472900Y318100D03*
X472900Y368900D03*
X596900Y317900D03*
X596900Y368700D03*
D15*
X788720Y668340D03*
X788720Y841060D03*
X392480Y841060D03*
X392480Y668340D03*
D16*
X889700Y441700D03*
X936690Y441700D03*
X842710Y441700D03*
X864300Y314700D03*
X915100Y314700D03*
D10*
X1034900Y714500D03*
X1034900Y734500D03*
D15*
X789020Y437840D03*
X789020Y610560D03*
X392780Y610560D03*
X392780Y437840D03*
D17*
X269640Y500600D02*
X254560Y500600D01*
X254560Y475200D02*
X269640Y475200D01*
X269640Y449800D02*
X254560Y449800D01*
X298560Y500600D02*
X313640Y500600D01*
X313640Y475200D02*
X298560Y475200D01*
X298560Y449800D02*
X313640Y449800D01*
D18*
X885600Y569018D02*
X885600Y585782D01*
X911000Y585782D02*
X911000Y569018D01*
X936400Y569018D02*
X936400Y585782D01*
D11*
X234000Y951000D03*
X234000Y925600D03*
D10*
X242300Y541800D03*
D19*
X267700Y541800D03*
X242300Y567200D03*
X267700Y567200D03*
X242300Y592600D03*
X267700Y592600D03*
X242300Y618000D03*
X267700Y618000D03*
X242300Y643400D03*
X267700Y643400D03*
X242300Y668800D03*
X267700Y668800D03*
X242300Y694200D03*
X267700Y694200D03*
D10*
X241300Y733800D03*
D19*
X266700Y733800D03*
X241300Y759200D03*
X266700Y759200D03*
X241300Y784600D03*
X266700Y784600D03*
X241300Y810000D03*
X266700Y810000D03*
X241300Y835400D03*
X266700Y835400D03*
X241300Y860800D03*
X266700Y860800D03*
X241300Y886200D03*
X266700Y886200D03*
D20*
X241250Y541250D02*
X236250Y536250D01*
X236250Y527500D02*
X236250Y493750D01*
X236250Y527500D02*
X236250Y536250D01*
X236250Y493750D02*
X253750Y476250D01*
X261250Y476250D01*
X241250Y541250D02*
X242300Y541800D01*
X261250Y476250D02*
X262100Y475200D01*
X223750Y716250D02*
X241300Y733800D01*
X223750Y716250D02*
X223750Y536250D01*
X232500Y527500D01*
X236250Y527500D01*
D21*
X597500Y318750D02*
X621250Y342500D01*
X646400Y342500D01*
X597500Y318750D02*
X596900Y317900D01*
X355000Y317500D02*
X617500Y580000D01*
X617500Y760000D01*
X776250Y918750D01*
X776250Y927500D01*
X777500Y928750D01*
X355000Y317500D02*
X354100Y317400D01*
X777500Y928750D02*
X777800Y929700D01*
X623750Y520000D02*
X473750Y370000D01*
X623750Y520000D02*
X623750Y742500D01*
X801250Y920000D01*
X801250Y921250D01*
X802500Y922500D01*
X802500Y928750D01*
X473750Y370000D02*
X472900Y368900D01*
X802500Y928750D02*
X803200Y929700D01*
X878750Y650000D02*
X597500Y368750D01*
X878750Y650000D02*
X878750Y858750D01*
X935000Y915000D01*
X935000Y970000D01*
X920000Y985000D01*
X810000Y985000D01*
X810000Y961250D01*
X803750Y955000D01*
X597500Y368750D02*
X596900Y368700D01*
X803200Y955100D02*
X803750Y955000D01*
D20*
X1033750Y581250D02*
X895000Y442500D01*
X890000Y442500D01*
X1033750Y581250D02*
X1034300Y582300D01*
X890000Y442500D02*
X889700Y441700D01*
D21*
X256250Y655000D02*
X242500Y668750D01*
X256250Y655000D02*
X372500Y655000D01*
X372500Y653750D01*
X377500Y648750D01*
X560000Y648750D01*
X712500Y801250D02*
X802500Y891250D01*
X856250Y977500D02*
X916250Y977500D01*
X856250Y977500D02*
X856250Y957500D01*
X855000Y956250D01*
X242500Y668750D02*
X242300Y668800D01*
X854000Y955100D02*
X855000Y956250D01*
D22*
X560000Y648750D03*
X712500Y801250D03*
X802500Y891250D03*
X916250Y977500D03*
D21*
X341250Y697500D02*
X317500Y673750D01*
X341250Y697500D02*
X341250Y701250D01*
X345000Y705000D01*
X362500Y705000D01*
X362500Y700000D01*
X530000Y870000D02*
X547500Y887500D01*
X547500Y927500D01*
X548750Y928750D01*
X549200Y929700D01*
D22*
X317500Y673750D03*
X362500Y700000D03*
X530000Y870000D03*
D21*
X268750Y592500D02*
X291250Y570000D01*
X592500Y570000D01*
X705000Y727500D02*
X798750Y821250D01*
X812500Y821250D01*
X812500Y871250D01*
X856250Y915000D01*
X856250Y921250D01*
X855000Y922500D01*
X855000Y928750D01*
X268750Y592500D02*
X267700Y592600D01*
X854000Y929700D02*
X855000Y928750D01*
D22*
X592500Y570000D03*
X705000Y727500D03*
D21*
X226250Y733750D02*
X226250Y892500D01*
X237500Y903750D01*
X316250Y903750D01*
X551250Y977500D02*
X612500Y977500D01*
X551250Y977500D02*
X551250Y957500D01*
X550000Y956250D01*
X549200Y955100D01*
D22*
X226250Y733750D03*
X316250Y903750D03*
X612500Y977500D03*
D21*
X256250Y632500D02*
X242500Y618750D01*
X256250Y632500D02*
X370000Y632500D01*
X378750Y641250D01*
X610000Y641250D01*
X652500Y641250D02*
X928750Y917500D01*
X928750Y953750D01*
X911250Y971250D01*
X881250Y971250D01*
X881250Y957500D01*
X880000Y956250D01*
X242500Y618750D02*
X242300Y618000D01*
X879400Y955100D02*
X880000Y956250D01*
D22*
X610000Y641250D03*
X652500Y641250D03*
D21*
X276250Y626250D02*
X268750Y618750D01*
X276250Y626250D02*
X372500Y626250D01*
X377500Y631250D01*
X610000Y631250D01*
X631250Y631250D02*
X922500Y922500D01*
X922500Y936250D01*
X905000Y953750D01*
X905000Y955000D01*
X268750Y618750D02*
X267700Y618000D01*
X904800Y955100D02*
X905000Y955000D01*
D22*
X610000Y631250D03*
X631250Y631250D03*
D21*
X348750Y678750D02*
X343750Y673750D01*
X348750Y678750D02*
X348750Y697500D01*
X448750Y885000D02*
X448750Y928750D01*
X447600Y929700D01*
D22*
X343750Y673750D03*
X348750Y697500D03*
X448750Y885000D03*
D21*
X372500Y677500D02*
X363750Y668750D01*
X372500Y677500D02*
X372500Y701250D01*
X475000Y803750D02*
X475000Y921250D01*
X473750Y922500D01*
X473750Y928750D01*
X473000Y929700D01*
D22*
X363750Y668750D03*
X372500Y701250D03*
X475000Y803750D03*
D21*
X342500Y717500D02*
X298750Y673750D01*
X342500Y717500D02*
X342500Y898750D01*
X415000Y971250D01*
X496250Y971250D01*
X496250Y957500D01*
X497500Y956250D01*
X498400Y955100D01*
D22*
X298750Y673750D03*
D21*
X268750Y670000D02*
X336250Y737500D01*
X336250Y901250D01*
X412500Y977500D01*
X525000Y977500D01*
X525000Y956250D01*
X268750Y670000D02*
X267700Y668800D01*
X523800Y955100D02*
X525000Y956250D01*
X253750Y872500D02*
X242500Y861250D01*
X253750Y872500D02*
X283750Y872500D01*
X283750Y875000D01*
X295000Y886250D01*
X390000Y886250D02*
X438750Y886250D01*
X565000Y890000D02*
X598750Y890000D01*
X598750Y927500D01*
X600000Y928750D01*
X242500Y861250D02*
X241300Y860800D01*
X600000Y928750D02*
X600000Y929700D01*
D22*
X295000Y886250D03*
X390000Y886250D03*
X438750Y886250D03*
X565000Y890000D03*
D21*
X253750Y823750D02*
X242500Y835000D01*
X253750Y823750D02*
X272500Y823750D01*
X288750Y840000D01*
X288750Y846250D01*
X316250Y873750D01*
X316250Y893750D01*
X242500Y835000D02*
X241300Y835400D01*
D22*
X316250Y893750D03*
D21*
X242500Y810000D02*
X256250Y796250D01*
X281250Y796250D01*
X281250Y805000D01*
X296250Y820000D01*
X428750Y796250D02*
X488750Y796250D01*
X518750Y796250D02*
X635000Y912500D01*
X242500Y810000D02*
X241300Y810000D01*
D22*
X296250Y820000D03*
X428750Y796250D03*
X488750Y796250D03*
X518750Y796250D03*
X635000Y912500D03*
D21*
X252500Y773750D02*
X242500Y783750D01*
X252500Y773750D02*
X322500Y773750D01*
X322500Y775000D01*
X423750Y783750D02*
X488750Y783750D01*
X638750Y875000D02*
X641250Y875000D01*
X695000Y928750D01*
X701250Y928750D01*
X242500Y783750D02*
X241300Y784600D01*
X701250Y928750D02*
X701600Y929700D01*
D22*
X322500Y775000D03*
X423750Y783750D03*
X488750Y783750D03*
X638750Y875000D03*
D21*
X256250Y745000D02*
X242500Y758750D01*
X256250Y745000D02*
X328750Y745000D01*
X385000Y745000D02*
X440000Y745000D01*
X612500Y867500D02*
X675000Y930000D01*
X242500Y758750D02*
X241300Y759200D01*
X675000Y930000D02*
X676200Y929700D01*
D22*
X328750Y745000D03*
X385000Y745000D03*
X440000Y745000D03*
X612500Y867500D03*
D21*
X283750Y861250D02*
X267500Y861250D01*
X283750Y861250D02*
X283750Y863750D01*
X293750Y873750D01*
X350000Y846250D02*
X488750Y707500D01*
X488750Y703750D01*
X492500Y700000D01*
X611250Y700000D01*
X611250Y765000D01*
X745000Y898750D01*
X267500Y861250D02*
X266700Y860800D01*
D22*
X293750Y873750D03*
X350000Y846250D03*
X745000Y898750D03*
D21*
X308750Y877500D02*
X267500Y836250D01*
X381250Y877500D02*
X467500Y877500D01*
X623750Y890000D02*
X626250Y890000D01*
X648750Y912500D01*
X648750Y921250D01*
X650000Y922500D01*
X650000Y928750D01*
X267500Y836250D02*
X266700Y835400D01*
X650000Y928750D02*
X650800Y929700D01*
D22*
X308750Y877500D03*
X381250Y877500D03*
X467500Y877500D03*
X623750Y890000D03*
D21*
X296250Y838750D02*
X267500Y810000D01*
X571250Y897500D02*
X572500Y898750D01*
X572500Y921250D01*
X573750Y922500D01*
X573750Y928750D01*
X267500Y810000D02*
X266700Y810000D01*
X573750Y928750D02*
X574600Y929700D01*
D22*
X296250Y838750D03*
X571250Y897500D03*
D21*
X287500Y785000D02*
X267500Y785000D01*
X287500Y785000D02*
X287500Y800000D01*
X323750Y836250D01*
X323750Y911250D01*
X395000Y982500D01*
X408750Y982500D01*
X411250Y985000D01*
X675000Y985000D01*
X675000Y956250D01*
X267500Y785000D02*
X266700Y784600D01*
X675000Y956250D02*
X676200Y955100D01*
X496250Y921250D02*
X496250Y707500D01*
X496250Y921250D02*
X497500Y922500D01*
X497500Y928750D01*
X498400Y929700D01*
D22*
X496250Y707500D03*
D21*
X706250Y808750D02*
X827500Y930000D01*
X828600Y929700D01*
D22*
X706250Y808750D03*
D20*
X912500Y592500D02*
X1033750Y713750D01*
X912500Y592500D02*
X912500Y578750D01*
X911250Y577500D01*
X1033750Y713750D02*
X1034900Y714500D01*
X911250Y577500D02*
X911000Y577400D01*
D21*
X275000Y767500D02*
X266700Y759200D01*
X275000Y767500D02*
X330000Y767500D01*
X330000Y906250D01*
X398750Y975000D01*
D22*
X398750Y975000D03*
M02*
