G04 EAGLE Gerber RS-274X export*
G75*
%MOMM*%
%FSLAX34Y34*%
%LPD*%
%INBottom Copper*%
%IPPOS*%
%AMOC8*
5,1,8,0,0,1.08239X$1,22.5*%
G01*
%ADD10C,1.422400*%
%ADD11C,1.879600*%
%ADD12P,1.814519X8X22.500000*%
%ADD13P,1.429621X8X112.500000*%
%ADD14P,1.429621X8X292.500000*%
%ADD15R,2.500000X2.500000*%
%ADD16C,2.819400*%
%ADD17C,1.408000*%
%ADD18C,1.508000*%
%ADD19C,1.676400*%
%ADD20C,0.756400*%
%ADD21C,1.000000*%
%ADD22C,0.400000*%

G36*
X857524Y299013D02*
X857524Y299013D01*
X857620Y299029D01*
X857716Y299038D01*
X857740Y299049D01*
X857766Y299053D01*
X857852Y299098D01*
X857941Y299138D01*
X857960Y299156D01*
X857984Y299168D01*
X858051Y299239D01*
X858122Y299304D01*
X858135Y299327D01*
X858153Y299347D01*
X858194Y299435D01*
X858241Y299520D01*
X858245Y299546D01*
X858256Y299570D01*
X858267Y299666D01*
X858284Y299762D01*
X858281Y299788D01*
X858283Y299814D01*
X858263Y299909D01*
X858249Y300005D01*
X858237Y300029D01*
X858231Y300055D01*
X858181Y300138D01*
X858137Y300224D01*
X858118Y300243D01*
X858105Y300266D01*
X858031Y300328D01*
X857961Y300397D01*
X857932Y300413D01*
X857918Y300425D01*
X857887Y300438D01*
X857815Y300478D01*
X855451Y301457D01*
X851057Y305851D01*
X848678Y311593D01*
X848678Y317807D01*
X851057Y323549D01*
X855451Y327943D01*
X861193Y330322D01*
X867407Y330322D01*
X873149Y327943D01*
X877543Y323549D01*
X879922Y317807D01*
X879922Y311593D01*
X877543Y305851D01*
X873149Y301457D01*
X870808Y300487D01*
X870725Y300435D01*
X870639Y300390D01*
X870621Y300371D01*
X870599Y300357D01*
X870537Y300282D01*
X870470Y300211D01*
X870459Y300188D01*
X870442Y300168D01*
X870407Y300077D01*
X870366Y299988D01*
X870363Y299962D01*
X870354Y299938D01*
X870350Y299841D01*
X870339Y299744D01*
X870345Y299718D01*
X870344Y299692D01*
X870371Y299598D01*
X870392Y299503D01*
X870405Y299481D01*
X870412Y299456D01*
X870468Y299376D01*
X870518Y299292D01*
X870538Y299275D01*
X870552Y299254D01*
X870631Y299196D01*
X870705Y299132D01*
X870729Y299123D01*
X870750Y299107D01*
X870843Y299077D01*
X870933Y299041D01*
X870965Y299037D01*
X870984Y299031D01*
X871017Y299031D01*
X871100Y299022D01*
X908239Y299048D01*
X908335Y299064D01*
X908432Y299073D01*
X908456Y299084D01*
X908482Y299088D01*
X908568Y299133D01*
X908657Y299173D01*
X908676Y299191D01*
X908699Y299203D01*
X908766Y299274D01*
X908838Y299339D01*
X908850Y299362D01*
X908869Y299382D01*
X908909Y299470D01*
X908956Y299555D01*
X908961Y299581D01*
X908972Y299605D01*
X908983Y299701D01*
X909000Y299797D01*
X908996Y299823D01*
X908999Y299849D01*
X908978Y299944D01*
X908964Y300040D01*
X908952Y300064D01*
X908947Y300089D01*
X908897Y300173D01*
X908853Y300259D01*
X908834Y300278D01*
X908820Y300301D01*
X908747Y300363D01*
X908677Y300432D01*
X908648Y300448D01*
X908633Y300460D01*
X908603Y300473D01*
X908530Y300512D01*
X906251Y301457D01*
X901857Y305851D01*
X899478Y311593D01*
X899478Y317807D01*
X901857Y323549D01*
X906251Y327943D01*
X911993Y330322D01*
X918207Y330322D01*
X923949Y327943D01*
X928343Y323549D01*
X930722Y317807D01*
X930722Y311593D01*
X928343Y305851D01*
X923949Y301457D01*
X921693Y300522D01*
X921610Y300470D01*
X921523Y300425D01*
X921506Y300406D01*
X921484Y300392D01*
X921421Y300317D01*
X921354Y300246D01*
X921343Y300223D01*
X921327Y300203D01*
X921292Y300112D01*
X921251Y300023D01*
X921248Y299997D01*
X921239Y299973D01*
X921234Y299876D01*
X921224Y299779D01*
X921229Y299753D01*
X921228Y299727D01*
X921255Y299634D01*
X921276Y299538D01*
X921290Y299516D01*
X921297Y299491D01*
X921352Y299411D01*
X921403Y299327D01*
X921422Y299311D01*
X921437Y299289D01*
X921516Y299231D01*
X921590Y299168D01*
X921614Y299158D01*
X921634Y299142D01*
X921727Y299112D01*
X921818Y299076D01*
X921850Y299072D01*
X921868Y299066D01*
X921901Y299067D01*
X921985Y299057D01*
X1061079Y299153D01*
X1061098Y299156D01*
X1061117Y299154D01*
X1061219Y299176D01*
X1061321Y299193D01*
X1061339Y299202D01*
X1061358Y299206D01*
X1061447Y299260D01*
X1061539Y299308D01*
X1061552Y299323D01*
X1061569Y299333D01*
X1061636Y299412D01*
X1061708Y299487D01*
X1061716Y299505D01*
X1061729Y299520D01*
X1061768Y299616D01*
X1061811Y299710D01*
X1061813Y299729D01*
X1061821Y299748D01*
X1061839Y299914D01*
X1061839Y988071D01*
X1061836Y988090D01*
X1061838Y988111D01*
X1061816Y988212D01*
X1061800Y988313D01*
X1061790Y988331D01*
X1061786Y988351D01*
X1061733Y988440D01*
X1061684Y988531D01*
X1061670Y988545D01*
X1061659Y988562D01*
X1061581Y988629D01*
X1061506Y988700D01*
X1061488Y988709D01*
X1061472Y988722D01*
X1061377Y988760D01*
X1061283Y988804D01*
X1061263Y988806D01*
X1061244Y988813D01*
X1061077Y988832D01*
X931829Y988743D01*
X931759Y988731D01*
X931687Y988729D01*
X931638Y988711D01*
X931587Y988703D01*
X931524Y988669D01*
X931456Y988645D01*
X931415Y988612D01*
X931369Y988588D01*
X931320Y988536D01*
X931264Y988491D01*
X931236Y988447D01*
X931200Y988409D01*
X931170Y988344D01*
X931131Y988284D01*
X931119Y988233D01*
X931097Y988186D01*
X931089Y988115D01*
X931071Y988046D01*
X931075Y987994D01*
X931070Y987941D01*
X931085Y987872D01*
X931090Y987800D01*
X931111Y987752D01*
X931122Y987701D01*
X931159Y987640D01*
X931187Y987574D01*
X931232Y987518D01*
X931248Y987490D01*
X931266Y987475D01*
X931292Y987443D01*
X932487Y986248D01*
X932561Y986195D01*
X932630Y986135D01*
X932661Y986123D01*
X932687Y986104D01*
X932774Y986077D01*
X932859Y986043D01*
X932900Y986039D01*
X932922Y986032D01*
X932954Y986033D01*
X933025Y986025D01*
X945210Y986025D01*
X947275Y983960D01*
X947275Y713540D01*
X944987Y711252D01*
X605252Y371517D01*
X605199Y371443D01*
X605139Y371374D01*
X605127Y371343D01*
X605108Y371317D01*
X605081Y371230D01*
X605047Y371145D01*
X605043Y371104D01*
X605036Y371082D01*
X605037Y371050D01*
X605029Y370979D01*
X605029Y365333D01*
X600267Y360571D01*
X593533Y360571D01*
X588771Y365333D01*
X588771Y372067D01*
X593533Y376829D01*
X600279Y376829D01*
X600369Y376843D01*
X600460Y376851D01*
X600489Y376863D01*
X600521Y376868D01*
X600602Y376911D01*
X600686Y376947D01*
X600718Y376973D01*
X600739Y376984D01*
X600761Y377007D01*
X600817Y377052D01*
X940002Y716237D01*
X940055Y716311D01*
X940115Y716380D01*
X940127Y716411D01*
X940146Y716437D01*
X940173Y716524D01*
X940207Y716609D01*
X940211Y716650D01*
X940218Y716672D01*
X940217Y716704D01*
X940225Y716775D01*
X940225Y978214D01*
X940222Y978234D01*
X940224Y978253D01*
X940202Y978355D01*
X940186Y978457D01*
X940176Y978474D01*
X940172Y978494D01*
X940119Y978583D01*
X940070Y978674D01*
X940056Y978688D01*
X940046Y978705D01*
X939967Y978772D01*
X939892Y978844D01*
X939874Y978852D01*
X939859Y978865D01*
X939763Y978904D01*
X939669Y978947D01*
X939649Y978949D01*
X939631Y978957D01*
X939464Y978975D01*
X931068Y978975D01*
X931048Y978972D01*
X931029Y978974D01*
X930927Y978952D01*
X930825Y978936D01*
X930808Y978926D01*
X930788Y978922D01*
X930699Y978869D01*
X930608Y978820D01*
X930594Y978806D01*
X930577Y978796D01*
X930510Y978717D01*
X930438Y978642D01*
X930430Y978624D01*
X930417Y978609D01*
X930378Y978513D01*
X930335Y978419D01*
X930333Y978399D01*
X930325Y978381D01*
X930307Y978214D01*
X930307Y975302D01*
X929829Y974824D01*
X929787Y974766D01*
X929738Y974714D01*
X929716Y974667D01*
X929686Y974625D01*
X929664Y974556D01*
X929634Y974491D01*
X929629Y974439D01*
X929613Y974389D01*
X929615Y974318D01*
X929607Y974247D01*
X929618Y974196D01*
X929620Y974144D01*
X929644Y974076D01*
X929659Y974006D01*
X929686Y973961D01*
X929704Y973913D01*
X929749Y973857D01*
X929786Y973795D01*
X929825Y973761D01*
X929858Y973721D01*
X929918Y973682D01*
X929973Y973635D01*
X930021Y973616D01*
X930065Y973588D01*
X930134Y973570D01*
X930185Y973549D01*
X932275Y971460D01*
X932275Y901795D01*
X932289Y901705D01*
X932297Y901614D01*
X932309Y901585D01*
X932314Y901553D01*
X932357Y901472D01*
X932393Y901388D01*
X932419Y901356D01*
X932430Y901335D01*
X932453Y901313D01*
X932498Y901257D01*
X934057Y899698D01*
X934057Y895302D01*
X930948Y892193D01*
X926552Y892193D01*
X923443Y895302D01*
X923443Y899698D01*
X925002Y901257D01*
X925055Y901331D01*
X925115Y901401D01*
X925127Y901431D01*
X925146Y901457D01*
X925173Y901544D01*
X925207Y901629D01*
X925211Y901670D01*
X925218Y901692D01*
X925217Y901724D01*
X925225Y901795D01*
X925225Y918403D01*
X925214Y918474D01*
X925212Y918545D01*
X925194Y918594D01*
X925186Y918645D01*
X925152Y918709D01*
X925127Y918776D01*
X925095Y918817D01*
X925070Y918863D01*
X925018Y918912D01*
X924974Y918968D01*
X924930Y918996D01*
X924892Y919032D01*
X924827Y919062D01*
X924767Y919101D01*
X924716Y919114D01*
X924669Y919136D01*
X924598Y919144D01*
X924528Y919161D01*
X924476Y919157D01*
X924425Y919163D01*
X924354Y919148D01*
X924283Y919142D01*
X924235Y919122D01*
X924184Y919111D01*
X924123Y919074D01*
X924057Y919046D01*
X924001Y919001D01*
X923973Y918985D01*
X923958Y918967D01*
X923926Y918941D01*
X923737Y918752D01*
X913960Y908975D01*
X812847Y908975D01*
X812777Y908964D01*
X812705Y908962D01*
X812656Y908944D01*
X812605Y908936D01*
X812541Y908902D01*
X812474Y908877D01*
X812433Y908845D01*
X812387Y908820D01*
X812338Y908768D01*
X812282Y908724D01*
X812254Y908680D01*
X812218Y908642D01*
X812188Y908577D01*
X812149Y908517D01*
X812136Y908466D01*
X812114Y908419D01*
X812106Y908348D01*
X812089Y908278D01*
X812093Y908226D01*
X812087Y908175D01*
X812102Y908104D01*
X812108Y908033D01*
X812128Y907985D01*
X812139Y907934D01*
X812176Y907873D01*
X812204Y907807D01*
X812249Y907751D01*
X812265Y907723D01*
X812283Y907708D01*
X812309Y907676D01*
X813525Y906460D01*
X813525Y766040D01*
X805210Y757725D01*
X776775Y757725D01*
X776685Y757711D01*
X776594Y757703D01*
X776565Y757691D01*
X776533Y757686D01*
X776452Y757643D01*
X776368Y757607D01*
X776336Y757581D01*
X776315Y757570D01*
X776293Y757547D01*
X776237Y757502D01*
X578960Y560225D01*
X410525Y560225D01*
X410435Y560211D01*
X410344Y560203D01*
X410315Y560191D01*
X410283Y560186D01*
X410202Y560143D01*
X410118Y560107D01*
X410086Y560081D01*
X410065Y560070D01*
X410043Y560047D01*
X409987Y560002D01*
X312888Y462903D01*
X312835Y462829D01*
X312775Y462760D01*
X312763Y462729D01*
X312744Y462703D01*
X312717Y462616D01*
X312683Y462531D01*
X312679Y462490D01*
X312672Y462468D01*
X312673Y462436D01*
X312665Y462365D01*
X312665Y448557D01*
X311285Y445225D01*
X308735Y442675D01*
X305403Y441295D01*
X301797Y441295D01*
X298465Y442675D01*
X295915Y445225D01*
X294535Y448557D01*
X294535Y467243D01*
X295915Y470575D01*
X298465Y473125D01*
X301797Y474505D01*
X305403Y474505D01*
X308735Y473125D01*
X310399Y471460D01*
X310415Y471449D01*
X310428Y471433D01*
X310515Y471377D01*
X310599Y471317D01*
X310618Y471311D01*
X310635Y471300D01*
X310735Y471275D01*
X310834Y471244D01*
X310854Y471245D01*
X310873Y471240D01*
X310976Y471248D01*
X311080Y471251D01*
X311099Y471258D01*
X311118Y471259D01*
X311213Y471300D01*
X311311Y471335D01*
X311326Y471348D01*
X311345Y471356D01*
X311476Y471460D01*
X405002Y564987D01*
X405191Y565176D01*
X405233Y565234D01*
X405282Y565286D01*
X405304Y565333D01*
X405335Y565375D01*
X405356Y565444D01*
X405386Y565509D01*
X405392Y565561D01*
X405407Y565610D01*
X405405Y565682D01*
X405413Y565753D01*
X405402Y565804D01*
X405401Y565856D01*
X405376Y565924D01*
X405361Y565994D01*
X405334Y566039D01*
X405316Y566087D01*
X405271Y566143D01*
X405235Y566205D01*
X405195Y566239D01*
X405162Y566279D01*
X405102Y566318D01*
X405048Y566365D01*
X404999Y566384D01*
X404956Y566412D01*
X404886Y566430D01*
X404819Y566457D01*
X404748Y566465D01*
X404717Y566473D01*
X404694Y566471D01*
X404653Y566475D01*
X226040Y566475D01*
X223975Y568540D01*
X223975Y638960D01*
X224691Y639676D01*
X224733Y639734D01*
X224782Y639786D01*
X224804Y639833D01*
X224835Y639875D01*
X224856Y639944D01*
X224886Y640009D01*
X224892Y640061D01*
X224907Y640111D01*
X224905Y640182D01*
X224913Y640253D01*
X224902Y640304D01*
X224901Y640356D01*
X224876Y640424D01*
X224861Y640494D01*
X224834Y640539D01*
X224816Y640587D01*
X224771Y640643D01*
X224735Y640705D01*
X224695Y640739D01*
X224662Y640779D01*
X224602Y640818D01*
X224548Y640865D01*
X224499Y640884D01*
X224455Y640912D01*
X224386Y640930D01*
X224319Y640957D01*
X224248Y640965D01*
X224217Y640973D01*
X224194Y640971D01*
X224153Y640975D01*
X222452Y640975D01*
X220054Y641969D01*
X218219Y643804D01*
X217225Y646202D01*
X217225Y728798D01*
X218219Y731196D01*
X218252Y731230D01*
X218305Y731304D01*
X218365Y731373D01*
X218377Y731403D01*
X218396Y731429D01*
X218423Y731516D01*
X218457Y731601D01*
X218461Y731642D01*
X218468Y731664D01*
X218467Y731697D01*
X218475Y731768D01*
X218475Y732548D01*
X219469Y734946D01*
X221304Y736781D01*
X223702Y737775D01*
X226298Y737775D01*
X228639Y736805D01*
X228734Y736783D01*
X228827Y736754D01*
X228853Y736755D01*
X228879Y736749D01*
X228975Y736758D01*
X229073Y736760D01*
X229098Y736769D01*
X229124Y736772D01*
X229213Y736811D01*
X229304Y736845D01*
X229324Y736861D01*
X229348Y736872D01*
X229420Y736938D01*
X229496Y736999D01*
X229510Y737021D01*
X229529Y737038D01*
X229576Y737124D01*
X229629Y737205D01*
X229635Y737231D01*
X229648Y737254D01*
X229665Y737350D01*
X229689Y737444D01*
X229687Y737470D01*
X229692Y737496D01*
X229677Y737592D01*
X229670Y737689D01*
X229660Y737713D01*
X229656Y737739D01*
X229612Y737826D01*
X229574Y737916D01*
X229553Y737941D01*
X229544Y737958D01*
X229521Y737982D01*
X229469Y738046D01*
X228975Y738540D01*
X228975Y780210D01*
X231263Y782498D01*
X239457Y790692D01*
X239525Y790787D01*
X239595Y790880D01*
X239597Y790886D01*
X239601Y790891D01*
X239635Y791003D01*
X239671Y791114D01*
X239671Y791121D01*
X239673Y791127D01*
X239670Y791243D01*
X239669Y791360D01*
X239667Y791367D01*
X239667Y791372D01*
X239660Y791390D01*
X239622Y791521D01*
X239135Y792696D01*
X239135Y796104D01*
X240439Y799252D01*
X242848Y801661D01*
X245996Y802965D01*
X249404Y802965D01*
X252552Y801661D01*
X254961Y799252D01*
X256265Y796104D01*
X256265Y792696D01*
X254961Y789548D01*
X252552Y787139D01*
X249404Y785835D01*
X245996Y785835D01*
X245458Y786058D01*
X245344Y786085D01*
X245231Y786114D01*
X245224Y786113D01*
X245218Y786115D01*
X245102Y786104D01*
X244985Y786094D01*
X244980Y786092D01*
X244973Y786091D01*
X244866Y786044D01*
X244759Y785998D01*
X244753Y785994D01*
X244749Y785991D01*
X244735Y785979D01*
X244628Y785893D01*
X236248Y777513D01*
X236195Y777439D01*
X236135Y777370D01*
X236123Y777339D01*
X236104Y777313D01*
X236077Y777226D01*
X236043Y777141D01*
X236039Y777100D01*
X236032Y777078D01*
X236033Y777046D01*
X236025Y776975D01*
X236025Y744286D01*
X236028Y744266D01*
X236026Y744247D01*
X236048Y744145D01*
X236064Y744043D01*
X236074Y744026D01*
X236078Y744006D01*
X236131Y743917D01*
X236180Y743826D01*
X236194Y743812D01*
X236204Y743795D01*
X236283Y743728D01*
X236358Y743656D01*
X236376Y743648D01*
X236391Y743635D01*
X236487Y743596D01*
X236581Y743553D01*
X236601Y743551D01*
X236619Y743543D01*
X236786Y743525D01*
X265210Y743525D01*
X266237Y742498D01*
X266311Y742445D01*
X266380Y742385D01*
X266411Y742373D01*
X266437Y742354D01*
X266524Y742327D01*
X266609Y742293D01*
X266650Y742289D01*
X266672Y742282D01*
X266704Y742283D01*
X266775Y742275D01*
X311660Y742275D01*
X311731Y742286D01*
X311803Y742288D01*
X311852Y742306D01*
X311903Y742314D01*
X311966Y742348D01*
X312034Y742373D01*
X312074Y742405D01*
X312120Y742430D01*
X312170Y742481D01*
X312226Y742526D01*
X312254Y742570D01*
X312290Y742608D01*
X312320Y742673D01*
X312359Y742733D01*
X312371Y742784D01*
X312393Y742831D01*
X312401Y742902D01*
X312419Y742972D01*
X312415Y743024D01*
X312420Y743075D01*
X312405Y743146D01*
X312400Y743217D01*
X312379Y743265D01*
X312368Y743316D01*
X312331Y743377D01*
X312303Y743443D01*
X312258Y743499D01*
X312242Y743527D01*
X312224Y743542D01*
X312198Y743574D01*
X311969Y743804D01*
X310975Y746202D01*
X310975Y773798D01*
X311969Y776196D01*
X313804Y778031D01*
X315565Y778761D01*
X315648Y778812D01*
X315734Y778858D01*
X315752Y778877D01*
X315774Y778890D01*
X315836Y778965D01*
X315903Y779036D01*
X315914Y779060D01*
X315931Y779080D01*
X315966Y779171D01*
X316007Y779259D01*
X316009Y779285D01*
X316019Y779309D01*
X316023Y779407D01*
X316034Y779503D01*
X316028Y779529D01*
X316029Y779555D01*
X316002Y779649D01*
X315981Y779744D01*
X315968Y779766D01*
X315961Y779791D01*
X315905Y779871D01*
X315855Y779955D01*
X315835Y779972D01*
X315820Y779993D01*
X315742Y780052D01*
X315668Y780115D01*
X315644Y780125D01*
X315623Y780140D01*
X315531Y780170D01*
X315440Y780207D01*
X315408Y780210D01*
X315389Y780216D01*
X315356Y780216D01*
X315273Y780225D01*
X279275Y780225D01*
X279185Y780211D01*
X279094Y780203D01*
X279065Y780191D01*
X279033Y780186D01*
X278952Y780143D01*
X278868Y780107D01*
X278836Y780081D01*
X278815Y780070D01*
X278793Y780047D01*
X278737Y780002D01*
X276207Y777472D01*
X276139Y777378D01*
X276069Y777283D01*
X276067Y777277D01*
X276063Y777272D01*
X276029Y777161D01*
X275993Y777049D01*
X275993Y777043D01*
X275991Y777037D01*
X275994Y776920D01*
X275995Y776803D01*
X275997Y776796D01*
X275997Y776791D01*
X276003Y776774D01*
X276042Y776642D01*
X276265Y776104D01*
X276265Y772696D01*
X274961Y769548D01*
X272552Y767139D01*
X269404Y765835D01*
X265996Y765835D01*
X262848Y767139D01*
X260439Y769548D01*
X259135Y772696D01*
X259135Y776104D01*
X260439Y779252D01*
X262848Y781661D01*
X265996Y782965D01*
X269404Y782965D01*
X270579Y782478D01*
X270692Y782451D01*
X270806Y782423D01*
X270812Y782423D01*
X270818Y782422D01*
X270935Y782433D01*
X271051Y782442D01*
X271057Y782444D01*
X271063Y782445D01*
X271170Y782493D01*
X271277Y782538D01*
X271283Y782543D01*
X271288Y782545D01*
X271301Y782557D01*
X271408Y782643D01*
X273752Y784987D01*
X275191Y786426D01*
X275233Y786484D01*
X275282Y786536D01*
X275304Y786583D01*
X275335Y786625D01*
X275356Y786694D01*
X275386Y786759D01*
X275392Y786811D01*
X275407Y786861D01*
X275405Y786932D01*
X275413Y787003D01*
X275402Y787054D01*
X275401Y787106D01*
X275376Y787174D01*
X275361Y787244D01*
X275334Y787289D01*
X275316Y787337D01*
X275271Y787393D01*
X275235Y787455D01*
X275195Y787489D01*
X275162Y787529D01*
X275102Y787568D01*
X275048Y787615D01*
X274999Y787634D01*
X274955Y787662D01*
X274886Y787680D01*
X274819Y787707D01*
X274748Y787715D01*
X274717Y787723D01*
X274694Y787721D01*
X274653Y787725D01*
X273453Y787725D01*
X273363Y787711D01*
X273272Y787703D01*
X273242Y787691D01*
X273210Y787686D01*
X273130Y787643D01*
X273046Y787607D01*
X273014Y787581D01*
X272993Y787570D01*
X272971Y787547D01*
X272915Y787502D01*
X272552Y787139D01*
X269404Y785835D01*
X265996Y785835D01*
X262848Y787139D01*
X260439Y789548D01*
X259135Y792696D01*
X259135Y796104D01*
X260439Y799252D01*
X262848Y801661D01*
X265996Y802965D01*
X269404Y802965D01*
X272552Y801661D01*
X274961Y799252D01*
X276265Y796104D01*
X276265Y795536D01*
X276268Y795516D01*
X276266Y795497D01*
X276288Y795395D01*
X276304Y795293D01*
X276314Y795276D01*
X276318Y795256D01*
X276371Y795167D01*
X276420Y795076D01*
X276434Y795062D01*
X276444Y795045D01*
X276523Y794978D01*
X276598Y794906D01*
X276616Y794898D01*
X276631Y794885D01*
X276727Y794846D01*
X276821Y794803D01*
X276841Y794801D01*
X276859Y794793D01*
X277026Y794775D01*
X298383Y794775D01*
X298453Y794786D01*
X298525Y794788D01*
X298574Y794806D01*
X298625Y794814D01*
X298689Y794848D01*
X298756Y794873D01*
X298797Y794905D01*
X298843Y794930D01*
X298892Y794982D01*
X298948Y795026D01*
X298976Y795070D01*
X299012Y795108D01*
X299042Y795173D01*
X299081Y795233D01*
X299094Y795284D01*
X299116Y795331D01*
X299124Y795402D01*
X299141Y795472D01*
X299137Y795524D01*
X299143Y795575D01*
X299128Y795646D01*
X299122Y795717D01*
X299102Y795765D01*
X299091Y795816D01*
X299054Y795877D01*
X299026Y795943D01*
X298981Y795999D01*
X298964Y796027D01*
X298947Y796042D01*
X298921Y796074D01*
X297193Y797802D01*
X297193Y802198D01*
X300302Y805307D01*
X304698Y805307D01*
X306257Y803748D01*
X306331Y803695D01*
X306401Y803635D01*
X306431Y803623D01*
X306457Y803604D01*
X306544Y803577D01*
X306629Y803543D01*
X306670Y803539D01*
X306692Y803532D01*
X306724Y803533D01*
X306795Y803525D01*
X350883Y803525D01*
X350953Y803536D01*
X351025Y803538D01*
X351074Y803556D01*
X351125Y803564D01*
X351189Y803598D01*
X351256Y803623D01*
X351297Y803655D01*
X351343Y803680D01*
X351392Y803732D01*
X351448Y803776D01*
X351476Y803820D01*
X351512Y803858D01*
X351542Y803923D01*
X351581Y803983D01*
X351594Y804034D01*
X351616Y804081D01*
X351624Y804152D01*
X351641Y804222D01*
X351637Y804274D01*
X351643Y804325D01*
X351628Y804396D01*
X351622Y804467D01*
X351602Y804515D01*
X351591Y804566D01*
X351554Y804627D01*
X351526Y804693D01*
X351481Y804749D01*
X351464Y804777D01*
X351447Y804792D01*
X351421Y804824D01*
X350943Y805302D01*
X350943Y809698D01*
X354052Y812807D01*
X356257Y812807D01*
X356347Y812821D01*
X356438Y812829D01*
X356467Y812841D01*
X356499Y812846D01*
X356580Y812889D01*
X356664Y812925D01*
X356696Y812951D01*
X356717Y812962D01*
X356739Y812985D01*
X356795Y813030D01*
X358441Y814676D01*
X358483Y814734D01*
X358532Y814786D01*
X358554Y814833D01*
X358585Y814875D01*
X358606Y814944D01*
X358636Y815009D01*
X358642Y815061D01*
X358657Y815111D01*
X358655Y815182D01*
X358663Y815253D01*
X358652Y815304D01*
X358651Y815356D01*
X358626Y815424D01*
X358611Y815494D01*
X358584Y815538D01*
X358566Y815587D01*
X358521Y815643D01*
X358485Y815705D01*
X358445Y815739D01*
X358412Y815779D01*
X358352Y815818D01*
X358298Y815865D01*
X358249Y815884D01*
X358205Y815912D01*
X358136Y815930D01*
X358069Y815957D01*
X357998Y815965D01*
X357967Y815973D01*
X357944Y815971D01*
X357903Y815975D01*
X356202Y815975D01*
X353804Y816969D01*
X346606Y824166D01*
X346548Y824208D01*
X346496Y824258D01*
X346449Y824280D01*
X346407Y824310D01*
X346338Y824331D01*
X346273Y824361D01*
X346221Y824367D01*
X346171Y824382D01*
X346100Y824380D01*
X346029Y824388D01*
X345978Y824377D01*
X345926Y824376D01*
X345858Y824351D01*
X345788Y824336D01*
X345743Y824309D01*
X345695Y824291D01*
X345639Y824247D01*
X345577Y824210D01*
X345543Y824170D01*
X345503Y824138D01*
X345464Y824077D01*
X345417Y824023D01*
X345398Y823975D01*
X345370Y823931D01*
X345352Y823861D01*
X345325Y823795D01*
X345317Y823723D01*
X345309Y823692D01*
X345311Y823669D01*
X345307Y823628D01*
X345307Y822802D01*
X342198Y819693D01*
X337802Y819693D01*
X336243Y821252D01*
X336169Y821305D01*
X336099Y821365D01*
X336069Y821377D01*
X336043Y821396D01*
X335956Y821423D01*
X335871Y821457D01*
X335830Y821461D01*
X335808Y821468D01*
X335776Y821467D01*
X335705Y821475D01*
X280525Y821475D01*
X280435Y821461D01*
X280344Y821453D01*
X280315Y821441D01*
X280283Y821436D01*
X280202Y821393D01*
X280118Y821357D01*
X280086Y821331D01*
X280065Y821320D01*
X280043Y821297D01*
X279987Y821252D01*
X276207Y817472D01*
X276139Y817377D01*
X276069Y817283D01*
X276067Y817277D01*
X276063Y817272D01*
X276029Y817161D01*
X275993Y817049D01*
X275993Y817043D01*
X275991Y817037D01*
X275994Y816920D01*
X275995Y816803D01*
X275997Y816796D01*
X275997Y816791D01*
X276004Y816774D01*
X276042Y816642D01*
X276265Y816104D01*
X276265Y812696D01*
X274961Y809548D01*
X272552Y807139D01*
X269404Y805835D01*
X265996Y805835D01*
X262848Y807139D01*
X260439Y809548D01*
X259135Y812696D01*
X259135Y816104D01*
X260439Y819252D01*
X262848Y821661D01*
X265996Y822965D01*
X269404Y822965D01*
X270579Y822478D01*
X270692Y822451D01*
X270806Y822423D01*
X270812Y822423D01*
X270818Y822422D01*
X270935Y822433D01*
X271051Y822442D01*
X271057Y822444D01*
X271063Y822445D01*
X271170Y822493D01*
X271277Y822538D01*
X271283Y822543D01*
X271288Y822545D01*
X271301Y822557D01*
X271408Y822643D01*
X275002Y826237D01*
X277290Y828525D01*
X335705Y828525D01*
X335795Y828539D01*
X335886Y828547D01*
X335915Y828559D01*
X335947Y828564D01*
X336028Y828607D01*
X336112Y828643D01*
X336144Y828669D01*
X336165Y828680D01*
X336187Y828703D01*
X336243Y828748D01*
X337802Y830307D01*
X338628Y830307D01*
X338699Y830318D01*
X338771Y830320D01*
X338820Y830338D01*
X338871Y830346D01*
X338934Y830380D01*
X339002Y830405D01*
X339042Y830437D01*
X339088Y830462D01*
X339138Y830513D01*
X339194Y830558D01*
X339222Y830602D01*
X339258Y830640D01*
X339288Y830705D01*
X339327Y830765D01*
X339339Y830816D01*
X339361Y830863D01*
X339369Y830934D01*
X339387Y831004D01*
X339383Y831056D01*
X339388Y831107D01*
X339373Y831178D01*
X339368Y831249D01*
X339347Y831297D01*
X339336Y831348D01*
X339299Y831409D01*
X339271Y831475D01*
X339226Y831531D01*
X339210Y831559D01*
X339192Y831574D01*
X339166Y831606D01*
X319029Y851744D01*
X318950Y851801D01*
X318875Y851863D01*
X318850Y851872D01*
X318829Y851888D01*
X318736Y851916D01*
X318645Y851951D01*
X318619Y851952D01*
X318594Y851960D01*
X318496Y851957D01*
X318399Y851962D01*
X318374Y851954D01*
X318348Y851954D01*
X318256Y851920D01*
X318163Y851893D01*
X318142Y851878D01*
X318117Y851869D01*
X318041Y851808D01*
X317961Y851753D01*
X317945Y851732D01*
X317925Y851715D01*
X317872Y851633D01*
X317814Y851555D01*
X317806Y851531D01*
X317792Y851508D01*
X317768Y851414D01*
X317738Y851321D01*
X317738Y851295D01*
X317732Y851270D01*
X317739Y851173D01*
X317740Y851076D01*
X317749Y851044D01*
X317751Y851025D01*
X317764Y850994D01*
X317787Y850914D01*
X318923Y848173D01*
X318923Y843827D01*
X317260Y839813D01*
X314187Y836740D01*
X310173Y835077D01*
X305827Y835077D01*
X301813Y836740D01*
X298740Y839813D01*
X297077Y843827D01*
X297077Y848173D01*
X298740Y852187D01*
X301813Y855260D01*
X305827Y856923D01*
X310173Y856923D01*
X312914Y855787D01*
X313009Y855765D01*
X313102Y855736D01*
X313128Y855737D01*
X313154Y855731D01*
X313251Y855740D01*
X313348Y855743D01*
X313373Y855752D01*
X313399Y855754D01*
X313488Y855794D01*
X313579Y855827D01*
X313600Y855843D01*
X313623Y855854D01*
X313695Y855920D01*
X313771Y855981D01*
X313785Y856003D01*
X313805Y856020D01*
X313852Y856106D01*
X313904Y856188D01*
X313911Y856213D01*
X313923Y856236D01*
X313941Y856332D01*
X313964Y856426D01*
X313962Y856452D01*
X313967Y856478D01*
X313953Y856574D01*
X313945Y856671D01*
X313935Y856695D01*
X313931Y856721D01*
X313887Y856808D01*
X313849Y856898D01*
X313828Y856923D01*
X313820Y856941D01*
X313796Y856964D01*
X313744Y857029D01*
X310518Y860254D01*
X310444Y860307D01*
X310375Y860367D01*
X310345Y860379D01*
X310319Y860398D01*
X310231Y860425D01*
X310147Y860459D01*
X310106Y860463D01*
X310084Y860470D01*
X310051Y860469D01*
X309980Y860477D01*
X305827Y860477D01*
X301813Y862140D01*
X298740Y865213D01*
X297077Y869227D01*
X297077Y873573D01*
X298740Y877587D01*
X301813Y880660D01*
X305827Y882323D01*
X310173Y882323D01*
X314187Y880660D01*
X317260Y877587D01*
X318923Y873573D01*
X318923Y870620D01*
X318937Y870530D01*
X318945Y870439D01*
X318957Y870409D01*
X318962Y870377D01*
X319005Y870297D01*
X319041Y870213D01*
X319067Y870181D01*
X319078Y870160D01*
X319101Y870138D01*
X319146Y870082D01*
X362676Y826552D01*
X362734Y826510D01*
X362786Y826460D01*
X362833Y826438D01*
X362875Y826408D01*
X362944Y826387D01*
X363009Y826357D01*
X363061Y826351D01*
X363111Y826336D01*
X363182Y826338D01*
X363253Y826330D01*
X363304Y826341D01*
X363356Y826342D01*
X363424Y826367D01*
X363494Y826382D01*
X363539Y826409D01*
X363587Y826427D01*
X363643Y826471D01*
X363705Y826508D01*
X363739Y826548D01*
X363779Y826580D01*
X363818Y826641D01*
X363865Y826695D01*
X363884Y826743D01*
X363912Y826787D01*
X363930Y826857D01*
X363957Y826923D01*
X363965Y826995D01*
X363973Y827026D01*
X363971Y827049D01*
X363975Y827090D01*
X363975Y864475D01*
X363961Y864565D01*
X363953Y864656D01*
X363941Y864685D01*
X363936Y864717D01*
X363893Y864798D01*
X363857Y864882D01*
X363831Y864914D01*
X363820Y864935D01*
X363797Y864957D01*
X363752Y865013D01*
X336795Y891970D01*
X336721Y892023D01*
X336652Y892083D01*
X336621Y892095D01*
X336595Y892114D01*
X336508Y892141D01*
X336423Y892175D01*
X336382Y892179D01*
X336360Y892186D01*
X336328Y892185D01*
X336257Y892193D01*
X331552Y892193D01*
X328443Y895302D01*
X328443Y899464D01*
X328440Y899484D01*
X328442Y899503D01*
X328420Y899605D01*
X328404Y899707D01*
X328394Y899724D01*
X328390Y899744D01*
X328337Y899833D01*
X328288Y899924D01*
X328274Y899938D01*
X328264Y899955D01*
X328185Y900022D01*
X328110Y900094D01*
X328092Y900102D01*
X328077Y900115D01*
X327981Y900154D01*
X327887Y900197D01*
X327867Y900199D01*
X327849Y900207D01*
X327682Y900225D01*
X320545Y900225D01*
X320455Y900211D01*
X320364Y900203D01*
X320335Y900191D01*
X320303Y900186D01*
X320222Y900143D01*
X320138Y900107D01*
X320106Y900081D01*
X320085Y900070D01*
X320063Y900047D01*
X320007Y900002D01*
X318448Y898443D01*
X314052Y898443D01*
X313574Y898921D01*
X313516Y898963D01*
X313464Y899012D01*
X313417Y899034D01*
X313375Y899064D01*
X313306Y899086D01*
X313241Y899116D01*
X313189Y899121D01*
X313139Y899137D01*
X313068Y899135D01*
X312997Y899143D01*
X312946Y899132D01*
X312894Y899130D01*
X312826Y899106D01*
X312756Y899091D01*
X312711Y899064D01*
X312663Y899046D01*
X312607Y899001D01*
X312545Y898964D01*
X312511Y898925D01*
X312471Y898892D01*
X312432Y898832D01*
X312385Y898777D01*
X312366Y898729D01*
X312338Y898685D01*
X312320Y898616D01*
X312293Y898549D01*
X312285Y898478D01*
X312277Y898447D01*
X312279Y898424D01*
X312275Y898383D01*
X312275Y893540D01*
X276207Y857472D01*
X276139Y857377D01*
X276069Y857283D01*
X276067Y857277D01*
X276063Y857272D01*
X276029Y857161D01*
X275993Y857049D01*
X275993Y857043D01*
X275991Y857037D01*
X275994Y856920D01*
X275995Y856803D01*
X275997Y856796D01*
X275997Y856791D01*
X276004Y856774D01*
X276042Y856642D01*
X276265Y856104D01*
X276265Y852696D01*
X274961Y849548D01*
X272552Y847139D01*
X269404Y845835D01*
X265996Y845835D01*
X262848Y847139D01*
X260439Y849548D01*
X259135Y852696D01*
X259135Y856104D01*
X260439Y859252D01*
X262848Y861661D01*
X265996Y862965D01*
X269404Y862965D01*
X270579Y862478D01*
X270692Y862451D01*
X270806Y862423D01*
X270812Y862423D01*
X270818Y862422D01*
X270935Y862433D01*
X271051Y862442D01*
X271057Y862444D01*
X271063Y862445D01*
X271171Y862493D01*
X271277Y862538D01*
X271283Y862543D01*
X271288Y862545D01*
X271302Y862558D01*
X271408Y862643D01*
X305002Y896237D01*
X305055Y896311D01*
X305115Y896380D01*
X305127Y896411D01*
X305146Y896437D01*
X305173Y896524D01*
X305207Y896609D01*
X305211Y896650D01*
X305218Y896672D01*
X305217Y896704D01*
X305225Y896775D01*
X305225Y918054D01*
X305222Y918073D01*
X305224Y918092D01*
X305202Y918194D01*
X305186Y918297D01*
X305177Y918314D01*
X305173Y918332D01*
X305119Y918422D01*
X305070Y918514D01*
X305057Y918527D01*
X305047Y918544D01*
X304968Y918612D01*
X304892Y918684D01*
X304875Y918692D01*
X304860Y918704D01*
X304764Y918743D01*
X304669Y918787D01*
X304650Y918789D01*
X304632Y918797D01*
X304528Y918803D01*
X304425Y918814D01*
X304406Y918810D01*
X304387Y918812D01*
X304286Y918784D01*
X304184Y918762D01*
X304168Y918752D01*
X304149Y918747D01*
X304005Y918662D01*
X301549Y916807D01*
X292391Y914201D01*
X282909Y915080D01*
X274386Y919324D01*
X267971Y926360D01*
X264532Y935239D01*
X264532Y944761D01*
X267971Y953640D01*
X274386Y960676D01*
X282909Y964920D01*
X292391Y965799D01*
X301549Y963193D01*
X309147Y957455D01*
X314160Y949360D01*
X315910Y940000D01*
X314160Y930640D01*
X309147Y922545D01*
X308947Y922393D01*
X308946Y922393D01*
X308946Y922392D01*
X308860Y922302D01*
X308777Y922216D01*
X308777Y922215D01*
X308776Y922214D01*
X308725Y922104D01*
X308673Y921993D01*
X308673Y921992D01*
X308673Y921991D01*
X308659Y921872D01*
X308645Y921748D01*
X308646Y921747D01*
X308645Y921747D01*
X308672Y921625D01*
X308697Y921508D01*
X308698Y921507D01*
X308698Y921506D01*
X308762Y921398D01*
X308823Y921296D01*
X308824Y921295D01*
X308921Y921212D01*
X309009Y921136D01*
X309010Y921136D01*
X309011Y921135D01*
X309132Y921086D01*
X309237Y921044D01*
X309238Y921044D01*
X309239Y921043D01*
X309406Y921025D01*
X316975Y921025D01*
X317065Y921039D01*
X317156Y921047D01*
X317185Y921059D01*
X317217Y921064D01*
X317298Y921107D01*
X317382Y921143D01*
X317414Y921169D01*
X317435Y921180D01*
X317457Y921203D01*
X317513Y921248D01*
X377502Y981237D01*
X379790Y983525D01*
X680210Y983525D01*
X697855Y965880D01*
X697950Y965812D01*
X698043Y965742D01*
X698049Y965740D01*
X698054Y965736D01*
X698166Y965702D01*
X698277Y965666D01*
X698284Y965666D01*
X698290Y965664D01*
X698406Y965667D01*
X698523Y965668D01*
X698530Y965670D01*
X698535Y965670D01*
X698553Y965677D01*
X698684Y965715D01*
X699427Y966023D01*
X703773Y966023D01*
X707787Y964360D01*
X710860Y961287D01*
X712523Y957273D01*
X712523Y952927D01*
X710860Y948913D01*
X707787Y945840D01*
X703773Y944177D01*
X699427Y944177D01*
X695413Y945840D01*
X692340Y948913D01*
X690677Y952927D01*
X690677Y957273D01*
X692186Y960915D01*
X692212Y961027D01*
X692241Y961142D01*
X692241Y961148D01*
X692242Y961154D01*
X692231Y961271D01*
X692222Y961387D01*
X692220Y961393D01*
X692219Y961399D01*
X692171Y961506D01*
X692126Y961613D01*
X692121Y961619D01*
X692119Y961624D01*
X692106Y961638D01*
X692021Y961744D01*
X677513Y976252D01*
X677439Y976305D01*
X677370Y976365D01*
X677339Y976377D01*
X677313Y976396D01*
X677226Y976423D01*
X677141Y976457D01*
X677100Y976461D01*
X677078Y976468D01*
X677046Y976467D01*
X676975Y976475D01*
X584097Y976475D01*
X584027Y976464D01*
X583955Y976462D01*
X583906Y976444D01*
X583855Y976436D01*
X583791Y976402D01*
X583724Y976377D01*
X583683Y976345D01*
X583637Y976320D01*
X583588Y976269D01*
X583532Y976224D01*
X583504Y976180D01*
X583468Y976142D01*
X583438Y976077D01*
X583399Y976017D01*
X583386Y975966D01*
X583364Y975919D01*
X583356Y975848D01*
X583339Y975778D01*
X583343Y975726D01*
X583337Y975675D01*
X583352Y975604D01*
X583358Y975533D01*
X583378Y975485D01*
X583389Y975434D01*
X583426Y975373D01*
X583454Y975307D01*
X583499Y975251D01*
X583515Y975223D01*
X583533Y975208D01*
X583559Y975176D01*
X593851Y964884D01*
X593925Y964830D01*
X593993Y964772D01*
X594017Y964763D01*
X594039Y964746D01*
X594045Y964744D01*
X594050Y964741D01*
X594142Y964712D01*
X594221Y964680D01*
X594251Y964677D01*
X594273Y964670D01*
X594279Y964670D01*
X594285Y964668D01*
X594323Y964669D01*
X594388Y964662D01*
X594391Y964662D01*
X594450Y964672D01*
X594519Y964672D01*
X594526Y964674D01*
X594531Y964675D01*
X594549Y964681D01*
X594603Y964697D01*
X594634Y964702D01*
X594650Y964710D01*
X594680Y964719D01*
X597827Y966023D01*
X602173Y966023D01*
X606187Y964360D01*
X609260Y961287D01*
X610923Y957273D01*
X610923Y952927D01*
X609260Y948913D01*
X606187Y945840D01*
X602173Y944177D01*
X597827Y944177D01*
X593813Y945840D01*
X590740Y948913D01*
X589077Y952927D01*
X589077Y957273D01*
X589590Y958511D01*
X589616Y958623D01*
X589645Y958738D01*
X589645Y958744D01*
X589646Y958750D01*
X589635Y958867D01*
X589626Y958983D01*
X589624Y958989D01*
X589623Y958995D01*
X589575Y959102D01*
X589530Y959209D01*
X589525Y959215D01*
X589523Y959220D01*
X589510Y959233D01*
X589425Y959340D01*
X580013Y968752D01*
X579939Y968805D01*
X579870Y968865D01*
X579839Y968877D01*
X579813Y968896D01*
X579726Y968923D01*
X579641Y968957D01*
X579600Y968961D01*
X579578Y968968D01*
X579546Y968967D01*
X579475Y968975D01*
X400545Y968975D01*
X400455Y968961D01*
X400364Y968953D01*
X400335Y968941D01*
X400303Y968936D01*
X400222Y968893D01*
X400138Y968857D01*
X400106Y968831D01*
X400085Y968820D01*
X400063Y968797D01*
X400007Y968752D01*
X398448Y967193D01*
X394052Y967193D01*
X391163Y970082D01*
X391147Y970093D01*
X391135Y970109D01*
X391047Y970165D01*
X390964Y970225D01*
X390945Y970231D01*
X390928Y970242D01*
X390827Y970267D01*
X390728Y970298D01*
X390709Y970297D01*
X390689Y970302D01*
X390586Y970294D01*
X390483Y970291D01*
X390464Y970285D01*
X390444Y970283D01*
X390349Y970243D01*
X390252Y970207D01*
X390236Y970194D01*
X390218Y970187D01*
X390087Y970082D01*
X388748Y968743D01*
X388695Y968669D01*
X388635Y968599D01*
X388623Y968569D01*
X388604Y968543D01*
X388577Y968456D01*
X388543Y968371D01*
X388539Y968330D01*
X388532Y968308D01*
X388533Y968276D01*
X388525Y968205D01*
X388525Y954295D01*
X388539Y954205D01*
X388547Y954114D01*
X388559Y954085D01*
X388564Y954053D01*
X388607Y953972D01*
X388643Y953888D01*
X388669Y953856D01*
X388680Y953835D01*
X388703Y953813D01*
X388748Y953757D01*
X390307Y952198D01*
X390307Y947802D01*
X387198Y944693D01*
X382802Y944693D01*
X379693Y947802D01*
X379693Y952198D01*
X381252Y953757D01*
X381305Y953831D01*
X381365Y953901D01*
X381377Y953931D01*
X381396Y953957D01*
X381423Y954044D01*
X381457Y954129D01*
X381461Y954170D01*
X381468Y954192D01*
X381467Y954224D01*
X381475Y954295D01*
X381475Y968205D01*
X381461Y968295D01*
X381453Y968386D01*
X381441Y968415D01*
X381436Y968447D01*
X381393Y968528D01*
X381357Y968612D01*
X381331Y968644D01*
X381320Y968665D01*
X381297Y968687D01*
X381252Y968743D01*
X379693Y970302D01*
X379693Y971621D01*
X379682Y971691D01*
X379680Y971763D01*
X379662Y971812D01*
X379654Y971863D01*
X379620Y971927D01*
X379595Y971994D01*
X379563Y972035D01*
X379538Y972081D01*
X379487Y972130D01*
X379442Y972186D01*
X379398Y972214D01*
X379360Y972250D01*
X379295Y972280D01*
X379235Y972319D01*
X379184Y972332D01*
X379137Y972354D01*
X379066Y972362D01*
X378996Y972379D01*
X378944Y972375D01*
X378893Y972381D01*
X378822Y972366D01*
X378751Y972360D01*
X378703Y972340D01*
X378652Y972329D01*
X378591Y972292D01*
X378525Y972264D01*
X378469Y972219D01*
X378441Y972203D01*
X378426Y972185D01*
X378394Y972159D01*
X355341Y949106D01*
X355299Y949048D01*
X355250Y948996D01*
X355228Y948949D01*
X355197Y948907D01*
X355176Y948838D01*
X355146Y948773D01*
X355140Y948721D01*
X355125Y948671D01*
X355127Y948600D01*
X355119Y948529D01*
X355130Y948478D01*
X355131Y948426D01*
X355156Y948358D01*
X355171Y948288D01*
X355198Y948244D01*
X355216Y948195D01*
X355261Y948139D01*
X355297Y948077D01*
X355337Y948043D01*
X355370Y948003D01*
X355430Y947964D01*
X355484Y947917D01*
X355533Y947898D01*
X355577Y947870D01*
X355646Y947852D01*
X355713Y947825D01*
X355784Y947817D01*
X355815Y947809D01*
X355838Y947811D01*
X355879Y947807D01*
X357198Y947807D01*
X360307Y944698D01*
X360307Y942493D01*
X360321Y942403D01*
X360329Y942312D01*
X360341Y942283D01*
X360346Y942251D01*
X360389Y942170D01*
X360425Y942086D01*
X360451Y942054D01*
X360462Y942033D01*
X360485Y942011D01*
X360530Y941955D01*
X378205Y924280D01*
X378279Y924227D01*
X378348Y924167D01*
X378379Y924155D01*
X378405Y924136D01*
X378492Y924109D01*
X378577Y924075D01*
X378618Y924071D01*
X378640Y924064D01*
X378672Y924065D01*
X378743Y924057D01*
X380948Y924057D01*
X384057Y920948D01*
X384057Y916552D01*
X383579Y916074D01*
X383537Y916016D01*
X383488Y915964D01*
X383466Y915917D01*
X383436Y915875D01*
X383414Y915806D01*
X383384Y915741D01*
X383379Y915689D01*
X383363Y915639D01*
X383365Y915568D01*
X383357Y915497D01*
X383368Y915446D01*
X383370Y915394D01*
X383394Y915326D01*
X383409Y915256D01*
X383436Y915211D01*
X383454Y915163D01*
X383499Y915107D01*
X383536Y915045D01*
X383575Y915011D01*
X383608Y914971D01*
X383668Y914932D01*
X383723Y914885D01*
X383771Y914866D01*
X383815Y914838D01*
X383884Y914820D01*
X383951Y914793D01*
X384022Y914785D01*
X384053Y914777D01*
X384076Y914779D01*
X384117Y914775D01*
X425725Y914775D01*
X425815Y914789D01*
X425906Y914797D01*
X425935Y914809D01*
X425967Y914814D01*
X426048Y914857D01*
X426132Y914893D01*
X426164Y914919D01*
X426185Y914930D01*
X426207Y914953D01*
X426263Y914998D01*
X436937Y925672D01*
X437006Y925767D01*
X437075Y925861D01*
X437077Y925867D01*
X437081Y925872D01*
X437115Y925983D01*
X437151Y926094D01*
X437151Y926101D01*
X437153Y926107D01*
X437150Y926223D01*
X437149Y926340D01*
X437147Y926348D01*
X437147Y926353D01*
X437140Y926370D01*
X437102Y926501D01*
X436677Y927527D01*
X436677Y931873D01*
X438340Y935887D01*
X441413Y938960D01*
X445427Y940623D01*
X449773Y940623D01*
X453787Y938960D01*
X456860Y935887D01*
X458523Y931873D01*
X458523Y927527D01*
X456860Y923513D01*
X453787Y920440D01*
X449773Y918777D01*
X445427Y918777D01*
X442068Y920169D01*
X441955Y920195D01*
X441841Y920224D01*
X441835Y920223D01*
X441829Y920225D01*
X441712Y920214D01*
X441596Y920205D01*
X441590Y920202D01*
X441584Y920202D01*
X441476Y920154D01*
X441369Y920109D01*
X441364Y920104D01*
X441359Y920102D01*
X441345Y920089D01*
X441238Y920004D01*
X428960Y907725D01*
X412867Y907725D01*
X412797Y907714D01*
X412725Y907712D01*
X412676Y907694D01*
X412625Y907686D01*
X412561Y907652D01*
X412494Y907627D01*
X412453Y907595D01*
X412407Y907570D01*
X412358Y907518D01*
X412302Y907474D01*
X412274Y907430D01*
X412238Y907392D01*
X412208Y907327D01*
X412169Y907267D01*
X412156Y907216D01*
X412134Y907169D01*
X412126Y907098D01*
X412109Y907028D01*
X412113Y906976D01*
X412107Y906925D01*
X412122Y906854D01*
X412128Y906783D01*
X412148Y906735D01*
X412159Y906684D01*
X412196Y906623D01*
X412224Y906557D01*
X412269Y906501D01*
X412286Y906473D01*
X412303Y906458D01*
X412329Y906426D01*
X412807Y905948D01*
X412807Y904993D01*
X412821Y904903D01*
X412829Y904812D01*
X412841Y904783D01*
X412846Y904751D01*
X412889Y904670D01*
X412925Y904586D01*
X412951Y904554D01*
X412962Y904533D01*
X412985Y904511D01*
X413030Y904455D01*
X419455Y898030D01*
X419529Y897977D01*
X419598Y897917D01*
X419629Y897905D01*
X419655Y897886D01*
X419742Y897859D01*
X419827Y897825D01*
X419868Y897821D01*
X419890Y897814D01*
X419922Y897815D01*
X419993Y897807D01*
X422198Y897807D01*
X425307Y894698D01*
X425307Y890302D01*
X424829Y889824D01*
X424787Y889766D01*
X424738Y889714D01*
X424716Y889667D01*
X424686Y889625D01*
X424664Y889556D01*
X424634Y889491D01*
X424629Y889439D01*
X424613Y889389D01*
X424615Y889318D01*
X424607Y889247D01*
X424618Y889196D01*
X424620Y889144D01*
X424644Y889076D01*
X424659Y889006D01*
X424686Y888961D01*
X424704Y888913D01*
X424749Y888857D01*
X424786Y888795D01*
X424825Y888761D01*
X424858Y888721D01*
X424918Y888682D01*
X424973Y888635D01*
X425021Y888616D01*
X425065Y888588D01*
X425134Y888570D01*
X425201Y888543D01*
X425272Y888535D01*
X425303Y888527D01*
X425326Y888529D01*
X425367Y888525D01*
X463383Y888525D01*
X463453Y888536D01*
X463525Y888538D01*
X463574Y888556D01*
X463625Y888564D01*
X463689Y888598D01*
X463756Y888623D01*
X463797Y888655D01*
X463843Y888680D01*
X463892Y888732D01*
X463948Y888776D01*
X463976Y888820D01*
X464012Y888858D01*
X464042Y888923D01*
X464081Y888983D01*
X464094Y889034D01*
X464116Y889081D01*
X464124Y889152D01*
X464141Y889222D01*
X464137Y889274D01*
X464143Y889325D01*
X464128Y889396D01*
X464122Y889467D01*
X464102Y889515D01*
X464091Y889566D01*
X464054Y889627D01*
X464026Y889693D01*
X463981Y889749D01*
X463964Y889777D01*
X463954Y889786D01*
X463952Y889789D01*
X463942Y889798D01*
X463921Y889824D01*
X463443Y890302D01*
X463443Y894698D01*
X465002Y896257D01*
X465055Y896331D01*
X465115Y896401D01*
X465127Y896431D01*
X465146Y896457D01*
X465173Y896544D01*
X465207Y896629D01*
X465211Y896670D01*
X465218Y896692D01*
X465217Y896724D01*
X465225Y896795D01*
X465225Y921712D01*
X465211Y921802D01*
X465203Y921893D01*
X465191Y921923D01*
X465186Y921955D01*
X465143Y922036D01*
X465107Y922120D01*
X465081Y922152D01*
X465070Y922172D01*
X465047Y922195D01*
X465002Y922251D01*
X463740Y923513D01*
X462077Y927527D01*
X462077Y931873D01*
X463740Y935887D01*
X466813Y938960D01*
X470827Y940623D01*
X475173Y940623D01*
X479187Y938960D01*
X482260Y935887D01*
X483923Y931873D01*
X483923Y927527D01*
X482260Y923513D01*
X479187Y920440D01*
X475173Y918777D01*
X473036Y918777D01*
X473016Y918774D01*
X472997Y918776D01*
X472895Y918754D01*
X472793Y918738D01*
X472776Y918728D01*
X472756Y918724D01*
X472667Y918671D01*
X472576Y918622D01*
X472562Y918608D01*
X472545Y918598D01*
X472478Y918519D01*
X472406Y918444D01*
X472398Y918426D01*
X472385Y918411D01*
X472346Y918315D01*
X472303Y918221D01*
X472301Y918201D01*
X472293Y918183D01*
X472275Y918016D01*
X472275Y896795D01*
X472289Y896705D01*
X472297Y896614D01*
X472309Y896585D01*
X472314Y896553D01*
X472357Y896472D01*
X472393Y896388D01*
X472419Y896356D01*
X472430Y896335D01*
X472453Y896313D01*
X472498Y896257D01*
X473212Y895543D01*
X473228Y895532D01*
X473240Y895516D01*
X473328Y895460D01*
X473411Y895400D01*
X473430Y895394D01*
X473447Y895383D01*
X473548Y895358D01*
X473647Y895327D01*
X473666Y895328D01*
X473686Y895323D01*
X473789Y895331D01*
X473892Y895334D01*
X473911Y895340D01*
X473931Y895342D01*
X474026Y895382D01*
X474123Y895418D01*
X474139Y895431D01*
X474157Y895438D01*
X474288Y895543D01*
X476552Y897807D01*
X478757Y897807D01*
X478847Y897821D01*
X478938Y897829D01*
X478967Y897841D01*
X478999Y897846D01*
X479080Y897889D01*
X479164Y897925D01*
X479196Y897951D01*
X479217Y897962D01*
X479239Y897985D01*
X479295Y898030D01*
X492502Y911237D01*
X492555Y911311D01*
X492615Y911380D01*
X492627Y911411D01*
X492646Y911437D01*
X492673Y911524D01*
X492707Y911609D01*
X492711Y911650D01*
X492718Y911672D01*
X492717Y911704D01*
X492725Y911775D01*
X492725Y919719D01*
X492706Y919834D01*
X492689Y919950D01*
X492687Y919956D01*
X492686Y919962D01*
X492631Y920065D01*
X492578Y920169D01*
X492573Y920174D01*
X492570Y920179D01*
X492486Y920259D01*
X492402Y920342D01*
X492396Y920345D01*
X492392Y920349D01*
X492375Y920357D01*
X492255Y920423D01*
X492213Y920440D01*
X489140Y923513D01*
X487477Y927527D01*
X487477Y931873D01*
X489140Y935887D01*
X492213Y938960D01*
X496227Y940623D01*
X500573Y940623D01*
X504587Y938960D01*
X507660Y935887D01*
X509323Y931873D01*
X509323Y927527D01*
X507660Y923513D01*
X504587Y920440D01*
X500573Y918777D01*
X500536Y918777D01*
X500516Y918774D01*
X500497Y918776D01*
X500395Y918754D01*
X500293Y918738D01*
X500276Y918728D01*
X500256Y918724D01*
X500167Y918671D01*
X500076Y918622D01*
X500062Y918608D01*
X500045Y918598D01*
X499978Y918519D01*
X499906Y918444D01*
X499898Y918426D01*
X499885Y918411D01*
X499846Y918315D01*
X499803Y918221D01*
X499801Y918201D01*
X499793Y918183D01*
X499775Y918016D01*
X499775Y908540D01*
X484280Y893045D01*
X484227Y892971D01*
X484167Y892902D01*
X484155Y892871D01*
X484136Y892845D01*
X484109Y892758D01*
X484075Y892673D01*
X484071Y892632D01*
X484064Y892610D01*
X484065Y892578D01*
X484057Y892507D01*
X484057Y890302D01*
X483579Y889824D01*
X483537Y889766D01*
X483488Y889714D01*
X483466Y889667D01*
X483436Y889625D01*
X483414Y889556D01*
X483384Y889491D01*
X483379Y889439D01*
X483363Y889389D01*
X483365Y889318D01*
X483357Y889247D01*
X483368Y889196D01*
X483370Y889144D01*
X483394Y889076D01*
X483409Y889006D01*
X483436Y888961D01*
X483454Y888913D01*
X483499Y888857D01*
X483536Y888795D01*
X483575Y888761D01*
X483608Y888721D01*
X483668Y888682D01*
X483723Y888635D01*
X483771Y888616D01*
X483815Y888588D01*
X483884Y888570D01*
X483951Y888543D01*
X484022Y888535D01*
X484053Y888527D01*
X484076Y888529D01*
X484117Y888525D01*
X508383Y888525D01*
X508453Y888536D01*
X508525Y888538D01*
X508574Y888556D01*
X508625Y888564D01*
X508689Y888598D01*
X508756Y888623D01*
X508797Y888655D01*
X508843Y888680D01*
X508892Y888732D01*
X508948Y888776D01*
X508976Y888820D01*
X509012Y888858D01*
X509042Y888923D01*
X509081Y888983D01*
X509094Y889034D01*
X509116Y889081D01*
X509124Y889152D01*
X509141Y889222D01*
X509137Y889274D01*
X509143Y889325D01*
X509128Y889396D01*
X509122Y889467D01*
X509102Y889515D01*
X509091Y889566D01*
X509054Y889627D01*
X509026Y889693D01*
X508981Y889749D01*
X508964Y889777D01*
X508954Y889786D01*
X508952Y889789D01*
X508942Y889798D01*
X508921Y889824D01*
X508443Y890302D01*
X508443Y894698D01*
X511552Y897807D01*
X513757Y897807D01*
X513847Y897821D01*
X513938Y897829D01*
X513967Y897841D01*
X513999Y897846D01*
X514080Y897889D01*
X514164Y897925D01*
X514196Y897951D01*
X514217Y897962D01*
X514239Y897985D01*
X514295Y898030D01*
X539533Y923268D01*
X539601Y923362D01*
X539671Y923456D01*
X539673Y923462D01*
X539677Y923467D01*
X539711Y923578D01*
X539747Y923690D01*
X539747Y923697D01*
X539749Y923703D01*
X539746Y923819D01*
X539745Y923936D01*
X539743Y923943D01*
X539743Y923948D01*
X539736Y923966D01*
X539698Y924097D01*
X538277Y927527D01*
X538277Y931873D01*
X539940Y935887D01*
X543013Y938960D01*
X547027Y940623D01*
X551373Y940623D01*
X555387Y938960D01*
X558460Y935887D01*
X560123Y931873D01*
X560123Y927527D01*
X558460Y923513D01*
X555387Y920440D01*
X551373Y918777D01*
X547027Y918777D01*
X546072Y919173D01*
X545959Y919199D01*
X545845Y919228D01*
X545839Y919228D01*
X545833Y919229D01*
X545716Y919218D01*
X545600Y919209D01*
X545594Y919207D01*
X545588Y919206D01*
X545480Y919158D01*
X545374Y919113D01*
X545368Y919108D01*
X545363Y919106D01*
X545349Y919093D01*
X545243Y919008D01*
X519280Y893045D01*
X519227Y892971D01*
X519167Y892902D01*
X519155Y892871D01*
X519136Y892845D01*
X519109Y892758D01*
X519075Y892673D01*
X519071Y892632D01*
X519064Y892610D01*
X519065Y892578D01*
X519057Y892507D01*
X519057Y890302D01*
X518579Y889824D01*
X518537Y889766D01*
X518488Y889714D01*
X518466Y889667D01*
X518436Y889625D01*
X518414Y889556D01*
X518384Y889491D01*
X518379Y889439D01*
X518363Y889389D01*
X518365Y889318D01*
X518357Y889247D01*
X518368Y889196D01*
X518370Y889144D01*
X518394Y889076D01*
X518409Y889006D01*
X518436Y888961D01*
X518454Y888913D01*
X518499Y888857D01*
X518536Y888795D01*
X518575Y888761D01*
X518608Y888721D01*
X518668Y888682D01*
X518723Y888635D01*
X518771Y888616D01*
X518815Y888588D01*
X518884Y888570D01*
X518951Y888543D01*
X519022Y888535D01*
X519053Y888527D01*
X519076Y888529D01*
X519117Y888525D01*
X550725Y888525D01*
X550815Y888539D01*
X550906Y888547D01*
X550935Y888559D01*
X550967Y888564D01*
X551048Y888607D01*
X551132Y888643D01*
X551164Y888669D01*
X551185Y888680D01*
X551196Y888691D01*
X551197Y888692D01*
X551210Y888705D01*
X551263Y888748D01*
X589000Y926485D01*
X589069Y926580D01*
X589138Y926674D01*
X589140Y926680D01*
X589144Y926685D01*
X589178Y926796D01*
X589214Y926908D01*
X589214Y926914D01*
X589216Y926920D01*
X589213Y927037D01*
X589212Y927154D01*
X589210Y927161D01*
X589210Y927166D01*
X589203Y927183D01*
X589165Y927315D01*
X589077Y927527D01*
X589077Y931873D01*
X590740Y935887D01*
X593813Y938960D01*
X597827Y940623D01*
X602173Y940623D01*
X606187Y938960D01*
X609260Y935887D01*
X610923Y931873D01*
X610923Y927527D01*
X609260Y923513D01*
X606187Y920440D01*
X602173Y918777D01*
X597827Y918777D01*
X593726Y920476D01*
X593708Y920489D01*
X593689Y920495D01*
X593672Y920506D01*
X593572Y920531D01*
X593473Y920562D01*
X593453Y920561D01*
X593433Y920566D01*
X593330Y920558D01*
X593227Y920556D01*
X593208Y920549D01*
X593188Y920547D01*
X593093Y920507D01*
X592996Y920471D01*
X592980Y920459D01*
X592962Y920451D01*
X592831Y920346D01*
X556059Y883574D01*
X556017Y883516D01*
X555968Y883464D01*
X555946Y883417D01*
X555915Y883375D01*
X555894Y883306D01*
X555864Y883241D01*
X555858Y883189D01*
X555843Y883139D01*
X555845Y883068D01*
X555837Y882997D01*
X555848Y882946D01*
X555849Y882894D01*
X555874Y882826D01*
X555889Y882756D01*
X555916Y882712D01*
X555934Y882663D01*
X555979Y882607D01*
X556015Y882545D01*
X556055Y882511D01*
X556088Y882471D01*
X556148Y882432D01*
X556202Y882385D01*
X556251Y882366D01*
X556295Y882338D01*
X556364Y882320D01*
X556431Y882293D01*
X556502Y882285D01*
X556533Y882277D01*
X556556Y882279D01*
X556597Y882275D01*
X620725Y882275D01*
X620815Y882289D01*
X620906Y882297D01*
X620935Y882309D01*
X620967Y882314D01*
X621048Y882357D01*
X621132Y882393D01*
X621164Y882419D01*
X621185Y882430D01*
X621207Y882453D01*
X621263Y882498D01*
X665215Y926450D01*
X665283Y926545D01*
X665353Y926638D01*
X665355Y926644D01*
X665359Y926649D01*
X665393Y926760D01*
X665429Y926872D01*
X665429Y926879D01*
X665431Y926885D01*
X665428Y927001D01*
X665427Y927118D01*
X665425Y927125D01*
X665425Y927130D01*
X665418Y927148D01*
X665380Y927279D01*
X665277Y927527D01*
X665277Y931873D01*
X666940Y935887D01*
X670013Y938960D01*
X674027Y940623D01*
X678373Y940623D01*
X682387Y938960D01*
X685460Y935887D01*
X687123Y931873D01*
X687123Y927527D01*
X685460Y923513D01*
X682387Y920440D01*
X678373Y918777D01*
X674027Y918777D01*
X669890Y920491D01*
X669777Y920518D01*
X669663Y920546D01*
X669657Y920546D01*
X669651Y920547D01*
X669534Y920536D01*
X669418Y920527D01*
X669412Y920525D01*
X669406Y920524D01*
X669298Y920476D01*
X669192Y920431D01*
X669186Y920426D01*
X669181Y920424D01*
X669167Y920411D01*
X669061Y920326D01*
X623960Y875225D01*
X384790Y875225D01*
X382725Y877290D01*
X382725Y888225D01*
X382711Y888315D01*
X382703Y888406D01*
X382691Y888435D01*
X382686Y888467D01*
X382643Y888548D01*
X382607Y888632D01*
X382581Y888664D01*
X382570Y888685D01*
X382547Y888707D01*
X382502Y888763D01*
X379295Y891970D01*
X379221Y892023D01*
X379152Y892083D01*
X379121Y892095D01*
X379095Y892114D01*
X379008Y892141D01*
X378923Y892175D01*
X378882Y892179D01*
X378860Y892186D01*
X378828Y892185D01*
X378757Y892193D01*
X376552Y892193D01*
X376074Y892671D01*
X376016Y892713D01*
X375964Y892762D01*
X375917Y892784D01*
X375875Y892814D01*
X375806Y892836D01*
X375741Y892866D01*
X375689Y892871D01*
X375639Y892887D01*
X375568Y892885D01*
X375497Y892893D01*
X375446Y892882D01*
X375394Y892880D01*
X375326Y892856D01*
X375256Y892841D01*
X375211Y892814D01*
X375163Y892796D01*
X375107Y892751D01*
X375045Y892714D01*
X375011Y892675D01*
X374971Y892642D01*
X374932Y892582D01*
X374885Y892527D01*
X374866Y892479D01*
X374838Y892435D01*
X374820Y892366D01*
X374793Y892299D01*
X374785Y892228D01*
X374777Y892197D01*
X374779Y892174D01*
X374775Y892133D01*
X374775Y886795D01*
X374789Y886705D01*
X374797Y886614D01*
X374809Y886585D01*
X374814Y886553D01*
X374857Y886472D01*
X374893Y886388D01*
X374919Y886356D01*
X374930Y886335D01*
X374953Y886313D01*
X374998Y886257D01*
X376557Y884698D01*
X376557Y880302D01*
X373448Y877193D01*
X372129Y877193D01*
X372059Y877182D01*
X371987Y877180D01*
X371938Y877162D01*
X371887Y877154D01*
X371823Y877120D01*
X371756Y877095D01*
X371715Y877063D01*
X371669Y877038D01*
X371620Y876987D01*
X371564Y876942D01*
X371536Y876898D01*
X371500Y876860D01*
X371470Y876795D01*
X371431Y876735D01*
X371418Y876684D01*
X371396Y876637D01*
X371388Y876566D01*
X371371Y876496D01*
X371375Y876444D01*
X371369Y876393D01*
X371384Y876322D01*
X371390Y876251D01*
X371410Y876203D01*
X371421Y876152D01*
X371458Y876091D01*
X371486Y876025D01*
X371531Y875969D01*
X371547Y875941D01*
X371565Y875926D01*
X371591Y875894D01*
X378737Y868748D01*
X378811Y868695D01*
X378880Y868635D01*
X378911Y868623D01*
X378937Y868604D01*
X379024Y868577D01*
X379109Y868543D01*
X379150Y868539D01*
X379172Y868532D01*
X379204Y868533D01*
X379275Y868525D01*
X628383Y868525D01*
X628453Y868536D01*
X628525Y868538D01*
X628574Y868556D01*
X628625Y868564D01*
X628689Y868598D01*
X628756Y868623D01*
X628797Y868655D01*
X628843Y868680D01*
X628892Y868732D01*
X628948Y868776D01*
X628976Y868820D01*
X629012Y868858D01*
X629042Y868923D01*
X629081Y868983D01*
X629094Y869034D01*
X629116Y869081D01*
X629124Y869152D01*
X629141Y869222D01*
X629137Y869274D01*
X629143Y869325D01*
X629128Y869396D01*
X629122Y869467D01*
X629102Y869515D01*
X629091Y869566D01*
X629054Y869627D01*
X629026Y869693D01*
X628981Y869749D01*
X628964Y869777D01*
X628947Y869792D01*
X628921Y869824D01*
X627193Y871552D01*
X627193Y875948D01*
X630302Y879057D01*
X632507Y879057D01*
X632597Y879071D01*
X632688Y879079D01*
X632717Y879091D01*
X632749Y879096D01*
X632830Y879139D01*
X632914Y879175D01*
X632946Y879201D01*
X632967Y879212D01*
X632989Y879235D01*
X633045Y879280D01*
X667502Y913737D01*
X669790Y916025D01*
X680725Y916025D01*
X680815Y916039D01*
X680906Y916047D01*
X680935Y916059D01*
X680967Y916064D01*
X681048Y916107D01*
X681132Y916143D01*
X681164Y916169D01*
X681185Y916180D01*
X681207Y916203D01*
X681263Y916248D01*
X690864Y925849D01*
X690932Y925944D01*
X691002Y926037D01*
X691004Y926043D01*
X691007Y926048D01*
X691042Y926160D01*
X691078Y926271D01*
X691078Y926278D01*
X691080Y926283D01*
X691077Y926400D01*
X691076Y926517D01*
X691074Y926524D01*
X691073Y926529D01*
X691067Y926547D01*
X691029Y926678D01*
X690677Y927527D01*
X690677Y931873D01*
X692340Y935887D01*
X695413Y938960D01*
X699427Y940623D01*
X703773Y940623D01*
X707787Y938960D01*
X710860Y935887D01*
X712523Y931873D01*
X712523Y927527D01*
X710860Y923513D01*
X707787Y920440D01*
X703773Y918777D01*
X699427Y918777D01*
X695891Y920242D01*
X695778Y920269D01*
X695664Y920297D01*
X695658Y920297D01*
X695652Y920298D01*
X695535Y920287D01*
X695419Y920278D01*
X695413Y920276D01*
X695407Y920275D01*
X695299Y920227D01*
X695193Y920182D01*
X695187Y920177D01*
X695182Y920175D01*
X695168Y920162D01*
X695062Y920077D01*
X686059Y911074D01*
X686017Y911016D01*
X685968Y910964D01*
X685946Y910917D01*
X685915Y910875D01*
X685894Y910806D01*
X685864Y910741D01*
X685858Y910689D01*
X685843Y910639D01*
X685845Y910568D01*
X685837Y910497D01*
X685848Y910446D01*
X685849Y910394D01*
X685874Y910326D01*
X685889Y910256D01*
X685916Y910212D01*
X685934Y910163D01*
X685979Y910107D01*
X686015Y910045D01*
X686055Y910011D01*
X686088Y909971D01*
X686148Y909932D01*
X686202Y909885D01*
X686251Y909866D01*
X686295Y909838D01*
X686364Y909820D01*
X686431Y909793D01*
X686502Y909785D01*
X686533Y909777D01*
X686556Y909779D01*
X686597Y909775D01*
X793225Y909775D01*
X793315Y909789D01*
X793406Y909797D01*
X793435Y909809D01*
X793467Y909814D01*
X793548Y909857D01*
X793632Y909893D01*
X793664Y909919D01*
X793685Y909930D01*
X793707Y909953D01*
X793763Y909998D01*
X799790Y916025D01*
X910725Y916025D01*
X910815Y916039D01*
X910906Y916047D01*
X910935Y916059D01*
X910967Y916064D01*
X911048Y916107D01*
X911132Y916143D01*
X911164Y916169D01*
X911185Y916180D01*
X911207Y916203D01*
X911263Y916248D01*
X918752Y923737D01*
X918805Y923811D01*
X918865Y923880D01*
X918877Y923911D01*
X918896Y923937D01*
X918923Y924024D01*
X918957Y924109D01*
X918961Y924150D01*
X918968Y924172D01*
X918967Y924204D01*
X918975Y924275D01*
X918975Y948214D01*
X918972Y948234D01*
X918974Y948253D01*
X918952Y948355D01*
X918936Y948457D01*
X918926Y948474D01*
X918922Y948494D01*
X918869Y948583D01*
X918820Y948674D01*
X918806Y948688D01*
X918796Y948705D01*
X918717Y948772D01*
X918642Y948844D01*
X918624Y948852D01*
X918609Y948865D01*
X918513Y948904D01*
X918419Y948947D01*
X918399Y948949D01*
X918381Y948957D01*
X918214Y948975D01*
X914438Y948975D01*
X914348Y948961D01*
X914257Y948953D01*
X914227Y948941D01*
X914195Y948936D01*
X914114Y948893D01*
X914030Y948857D01*
X913998Y948831D01*
X913978Y948820D01*
X913955Y948797D01*
X913899Y948752D01*
X910987Y945840D01*
X906973Y944177D01*
X902627Y944177D01*
X898613Y945840D01*
X895540Y948913D01*
X893877Y952927D01*
X893877Y957273D01*
X895540Y961287D01*
X898613Y964360D01*
X902627Y966023D01*
X906973Y966023D01*
X909019Y965175D01*
X909114Y965153D01*
X909207Y965124D01*
X909233Y965125D01*
X909258Y965119D01*
X909355Y965128D01*
X909453Y965131D01*
X909477Y965140D01*
X909503Y965142D01*
X909592Y965182D01*
X909684Y965215D01*
X909704Y965231D01*
X909728Y965242D01*
X909800Y965308D01*
X909876Y965369D01*
X909890Y965391D01*
X909909Y965408D01*
X909956Y965494D01*
X910009Y965576D01*
X910015Y965601D01*
X910028Y965624D01*
X910045Y965720D01*
X910069Y965814D01*
X910067Y965840D01*
X910071Y965866D01*
X910057Y965963D01*
X910050Y966059D01*
X910039Y966083D01*
X910036Y966109D01*
X909991Y966196D01*
X909953Y966286D01*
X909933Y966311D01*
X909924Y966329D01*
X909901Y966352D01*
X909849Y966417D01*
X908763Y967502D01*
X908689Y967555D01*
X908620Y967615D01*
X908589Y967627D01*
X908563Y967646D01*
X908476Y967673D01*
X908391Y967707D01*
X908350Y967711D01*
X908328Y967718D01*
X908296Y967717D01*
X908225Y967725D01*
X899275Y967725D01*
X899185Y967711D01*
X899094Y967703D01*
X899065Y967691D01*
X899033Y967686D01*
X898952Y967643D01*
X898868Y967607D01*
X898836Y967581D01*
X898815Y967570D01*
X898799Y967553D01*
X898797Y967552D01*
X898789Y967544D01*
X898737Y967502D01*
X890151Y958916D01*
X890083Y958821D01*
X890013Y958727D01*
X890011Y958721D01*
X890007Y958716D01*
X889973Y958605D01*
X889937Y958493D01*
X889937Y958487D01*
X889935Y958481D01*
X889938Y958364D01*
X889939Y958247D01*
X889941Y958240D01*
X889941Y958235D01*
X889948Y958218D01*
X889986Y958086D01*
X890323Y957273D01*
X890323Y952927D01*
X888660Y948913D01*
X885587Y945840D01*
X881573Y944177D01*
X877227Y944177D01*
X873213Y945840D01*
X870140Y948913D01*
X868477Y952927D01*
X868477Y957273D01*
X870140Y961287D01*
X873213Y964360D01*
X877227Y966023D01*
X881573Y966023D01*
X885144Y964543D01*
X885258Y964517D01*
X885371Y964488D01*
X885377Y964489D01*
X885384Y964487D01*
X885500Y964498D01*
X885616Y964507D01*
X885622Y964510D01*
X885628Y964510D01*
X885735Y964558D01*
X885843Y964604D01*
X885849Y964608D01*
X885853Y964610D01*
X885867Y964623D01*
X885974Y964708D01*
X887691Y966426D01*
X887733Y966484D01*
X887782Y966536D01*
X887804Y966583D01*
X887835Y966625D01*
X887856Y966694D01*
X887886Y966759D01*
X887892Y966811D01*
X887907Y966861D01*
X887905Y966932D01*
X887913Y967003D01*
X887902Y967054D01*
X887901Y967106D01*
X887876Y967174D01*
X887861Y967244D01*
X887834Y967289D01*
X887816Y967337D01*
X887771Y967393D01*
X887735Y967455D01*
X887695Y967489D01*
X887662Y967529D01*
X887602Y967568D01*
X887548Y967615D01*
X887499Y967634D01*
X887455Y967662D01*
X887386Y967680D01*
X887319Y967707D01*
X887248Y967715D01*
X887217Y967723D01*
X887194Y967721D01*
X887153Y967725D01*
X874275Y967725D01*
X874185Y967711D01*
X874094Y967703D01*
X874065Y967691D01*
X874033Y967686D01*
X873952Y967643D01*
X873868Y967607D01*
X873836Y967581D01*
X873815Y967570D01*
X873799Y967553D01*
X873797Y967552D01*
X873789Y967544D01*
X873737Y967502D01*
X864868Y958633D01*
X864799Y958538D01*
X864730Y958444D01*
X864728Y958439D01*
X864724Y958433D01*
X864690Y958322D01*
X864654Y958211D01*
X864654Y958204D01*
X864652Y958198D01*
X864655Y958081D01*
X864656Y957965D01*
X864658Y957957D01*
X864658Y957952D01*
X864665Y957935D01*
X864703Y957804D01*
X864923Y957273D01*
X864923Y952927D01*
X863260Y948913D01*
X860187Y945840D01*
X856173Y944177D01*
X851827Y944177D01*
X847813Y945840D01*
X844740Y948913D01*
X843077Y952927D01*
X843077Y957273D01*
X844740Y961287D01*
X847813Y964360D01*
X851827Y966023D01*
X856173Y966023D01*
X860027Y964426D01*
X860140Y964400D01*
X860254Y964371D01*
X860260Y964372D01*
X860266Y964370D01*
X860383Y964381D01*
X860499Y964390D01*
X860505Y964393D01*
X860511Y964393D01*
X860619Y964441D01*
X860726Y964486D01*
X860731Y964491D01*
X860736Y964493D01*
X860750Y964506D01*
X860857Y964591D01*
X868941Y972676D01*
X868983Y972734D01*
X869032Y972786D01*
X869054Y972833D01*
X869085Y972875D01*
X869106Y972944D01*
X869136Y973009D01*
X869142Y973061D01*
X869157Y973111D01*
X869155Y973182D01*
X869163Y973253D01*
X869152Y973304D01*
X869151Y973356D01*
X869126Y973424D01*
X869111Y973494D01*
X869084Y973539D01*
X869066Y973587D01*
X869021Y973643D01*
X868985Y973705D01*
X868945Y973739D01*
X868912Y973779D01*
X868852Y973818D01*
X868798Y973865D01*
X868749Y973884D01*
X868705Y973912D01*
X868636Y973930D01*
X868569Y973957D01*
X868498Y973965D01*
X868467Y973973D01*
X868444Y973971D01*
X868403Y973975D01*
X825525Y973975D01*
X825435Y973961D01*
X825344Y973953D01*
X825315Y973941D01*
X825283Y973936D01*
X825202Y973893D01*
X825118Y973857D01*
X825086Y973831D01*
X825065Y973820D01*
X825043Y973797D01*
X824987Y973752D01*
X812838Y961603D01*
X812770Y961509D01*
X812700Y961414D01*
X812698Y961408D01*
X812694Y961403D01*
X812660Y961292D01*
X812624Y961180D01*
X812624Y961174D01*
X812622Y961168D01*
X812625Y961051D01*
X812626Y960934D01*
X812628Y960927D01*
X812628Y960922D01*
X812635Y960905D01*
X812673Y960773D01*
X814123Y957273D01*
X814123Y952927D01*
X812460Y948913D01*
X809387Y945840D01*
X805373Y944177D01*
X801027Y944177D01*
X797013Y945840D01*
X793940Y948913D01*
X792277Y952927D01*
X792277Y957273D01*
X793940Y961287D01*
X797013Y964360D01*
X801027Y966023D01*
X805373Y966023D01*
X806257Y965656D01*
X806371Y965630D01*
X806484Y965601D01*
X806490Y965602D01*
X806497Y965600D01*
X806613Y965611D01*
X806729Y965620D01*
X806735Y965623D01*
X806741Y965623D01*
X806849Y965671D01*
X806956Y965717D01*
X806962Y965721D01*
X806966Y965723D01*
X806980Y965736D01*
X807087Y965821D01*
X822290Y981025D01*
X884475Y981025D01*
X884565Y981039D01*
X884656Y981047D01*
X884685Y981059D01*
X884717Y981064D01*
X884798Y981107D01*
X884882Y981143D01*
X884914Y981169D01*
X884935Y981180D01*
X884957Y981203D01*
X885013Y981248D01*
X891180Y987415D01*
X891222Y987473D01*
X891272Y987525D01*
X891293Y987573D01*
X891324Y987615D01*
X891345Y987683D01*
X891375Y987749D01*
X891381Y987800D01*
X891396Y987850D01*
X891394Y987922D01*
X891402Y987993D01*
X891391Y988044D01*
X891390Y988096D01*
X891365Y988163D01*
X891350Y988233D01*
X891323Y988278D01*
X891305Y988327D01*
X891260Y988383D01*
X891223Y988444D01*
X891184Y988478D01*
X891151Y988519D01*
X891091Y988558D01*
X891036Y988604D01*
X890988Y988623D01*
X890945Y988652D01*
X890875Y988669D01*
X890808Y988696D01*
X890737Y988704D01*
X890706Y988712D01*
X890683Y988710D01*
X890641Y988714D01*
X211921Y988247D01*
X211902Y988244D01*
X211883Y988246D01*
X211781Y988224D01*
X211679Y988207D01*
X211661Y988198D01*
X211642Y988194D01*
X211553Y988140D01*
X211461Y988092D01*
X211448Y988077D01*
X211431Y988067D01*
X211364Y987988D01*
X211292Y987913D01*
X211284Y987895D01*
X211271Y987880D01*
X211232Y987784D01*
X211189Y987690D01*
X211187Y987671D01*
X211179Y987652D01*
X211161Y987486D01*
X211161Y299329D01*
X211164Y299310D01*
X211162Y299289D01*
X211184Y299188D01*
X211200Y299087D01*
X211210Y299069D01*
X211214Y299049D01*
X211267Y298960D01*
X211316Y298869D01*
X211330Y298855D01*
X211341Y298838D01*
X211419Y298771D01*
X211494Y298700D01*
X211512Y298691D01*
X211528Y298678D01*
X211623Y298640D01*
X211717Y298596D01*
X211737Y298594D01*
X211756Y298587D01*
X211923Y298568D01*
X857524Y299013D01*
G37*
G36*
X573315Y573539D02*
X573315Y573539D01*
X573406Y573547D01*
X573435Y573559D01*
X573467Y573564D01*
X573548Y573607D01*
X573632Y573643D01*
X573664Y573669D01*
X573685Y573680D01*
X573707Y573703D01*
X573763Y573748D01*
X770002Y769987D01*
X771441Y771426D01*
X771483Y771484D01*
X771532Y771536D01*
X771554Y771583D01*
X771585Y771625D01*
X771606Y771694D01*
X771636Y771759D01*
X771642Y771811D01*
X771657Y771861D01*
X771655Y771932D01*
X771663Y772003D01*
X771652Y772054D01*
X771651Y772106D01*
X771626Y772174D01*
X771611Y772244D01*
X771584Y772289D01*
X771566Y772337D01*
X771521Y772393D01*
X771485Y772455D01*
X771445Y772489D01*
X771412Y772529D01*
X771352Y772568D01*
X771298Y772615D01*
X771249Y772634D01*
X771205Y772662D01*
X771136Y772680D01*
X771069Y772707D01*
X770998Y772715D01*
X770967Y772723D01*
X770944Y772721D01*
X770903Y772725D01*
X338045Y772725D01*
X337955Y772711D01*
X337864Y772703D01*
X337835Y772691D01*
X337803Y772686D01*
X337722Y772643D01*
X337638Y772607D01*
X337606Y772581D01*
X337585Y772570D01*
X337563Y772547D01*
X337507Y772502D01*
X335948Y770943D01*
X331552Y770943D01*
X328443Y774052D01*
X328443Y778448D01*
X328921Y778926D01*
X328963Y778984D01*
X329012Y779036D01*
X329034Y779083D01*
X329064Y779125D01*
X329086Y779194D01*
X329116Y779259D01*
X329121Y779311D01*
X329137Y779361D01*
X329135Y779432D01*
X329143Y779503D01*
X329132Y779554D01*
X329130Y779606D01*
X329106Y779674D01*
X329091Y779744D01*
X329064Y779789D01*
X329046Y779837D01*
X329001Y779893D01*
X328964Y779955D01*
X328925Y779989D01*
X328892Y780029D01*
X328832Y780068D01*
X328777Y780115D01*
X328729Y780134D01*
X328685Y780162D01*
X328616Y780180D01*
X328549Y780207D01*
X328478Y780215D01*
X328447Y780223D01*
X328424Y780221D01*
X328383Y780225D01*
X319727Y780225D01*
X319630Y780210D01*
X319534Y780200D01*
X319510Y780190D01*
X319484Y780186D01*
X319398Y780140D01*
X319309Y780100D01*
X319290Y780083D01*
X319266Y780070D01*
X319199Y780000D01*
X319128Y779934D01*
X319115Y779911D01*
X319097Y779892D01*
X319056Y779804D01*
X319009Y779718D01*
X319004Y779693D01*
X318993Y779669D01*
X318983Y779572D01*
X318965Y779476D01*
X318969Y779450D01*
X318966Y779425D01*
X318987Y779329D01*
X319001Y779233D01*
X319013Y779210D01*
X319019Y779184D01*
X319069Y779101D01*
X319113Y779014D01*
X319131Y778995D01*
X319145Y778973D01*
X319219Y778910D01*
X319288Y778842D01*
X319317Y778826D01*
X319332Y778813D01*
X319362Y778801D01*
X319435Y778761D01*
X321196Y778031D01*
X323031Y776196D01*
X324025Y773798D01*
X324025Y746202D01*
X323031Y743804D01*
X321552Y742324D01*
X321510Y742266D01*
X321460Y742214D01*
X321438Y742167D01*
X321408Y742125D01*
X321387Y742056D01*
X321357Y741991D01*
X321351Y741939D01*
X321336Y741889D01*
X321338Y741818D01*
X321330Y741747D01*
X321341Y741696D01*
X321342Y741644D01*
X321367Y741576D01*
X321382Y741506D01*
X321409Y741461D01*
X321427Y741413D01*
X321471Y741357D01*
X321508Y741295D01*
X321548Y741261D01*
X321580Y741221D01*
X321641Y741182D01*
X321695Y741135D01*
X321743Y741116D01*
X321787Y741088D01*
X321857Y741070D01*
X321923Y741043D01*
X321995Y741035D01*
X322026Y741027D01*
X322049Y741029D01*
X322090Y741025D01*
X491955Y741025D01*
X492045Y741039D01*
X492136Y741047D01*
X492165Y741059D01*
X492197Y741064D01*
X492278Y741107D01*
X492362Y741143D01*
X492394Y741169D01*
X492415Y741180D01*
X492437Y741203D01*
X492493Y741248D01*
X494052Y742807D01*
X498448Y742807D01*
X501557Y739698D01*
X501557Y735302D01*
X498448Y732193D01*
X494052Y732193D01*
X492493Y733752D01*
X492419Y733805D01*
X492349Y733865D01*
X492319Y733877D01*
X492293Y733896D01*
X492206Y733923D01*
X492121Y733957D01*
X492080Y733961D01*
X492058Y733968D01*
X492026Y733967D01*
X491955Y733975D01*
X491617Y733975D01*
X491547Y733964D01*
X491475Y733962D01*
X491426Y733944D01*
X491375Y733936D01*
X491311Y733902D01*
X491244Y733877D01*
X491203Y733845D01*
X491157Y733820D01*
X491108Y733768D01*
X491052Y733724D01*
X491024Y733680D01*
X490988Y733642D01*
X490958Y733577D01*
X490919Y733517D01*
X490906Y733466D01*
X490884Y733419D01*
X490876Y733348D01*
X490859Y733278D01*
X490863Y733226D01*
X490857Y733175D01*
X490872Y733104D01*
X490878Y733033D01*
X490898Y732985D01*
X490909Y732934D01*
X490946Y732873D01*
X490974Y732807D01*
X491019Y732751D01*
X491036Y732723D01*
X491053Y732708D01*
X491079Y732676D01*
X491557Y732198D01*
X491557Y727802D01*
X488448Y724693D01*
X484052Y724693D01*
X482493Y726252D01*
X482419Y726305D01*
X482349Y726365D01*
X482319Y726377D01*
X482293Y726396D01*
X482206Y726423D01*
X482121Y726457D01*
X482080Y726461D01*
X482058Y726468D01*
X482026Y726467D01*
X481955Y726475D01*
X312867Y726475D01*
X312797Y726464D01*
X312725Y726462D01*
X312676Y726444D01*
X312625Y726436D01*
X312561Y726402D01*
X312494Y726377D01*
X312453Y726345D01*
X312407Y726320D01*
X312358Y726268D01*
X312302Y726224D01*
X312274Y726180D01*
X312238Y726142D01*
X312208Y726077D01*
X312169Y726017D01*
X312156Y725966D01*
X312134Y725919D01*
X312126Y725848D01*
X312109Y725778D01*
X312113Y725726D01*
X312107Y725675D01*
X312122Y725604D01*
X312128Y725533D01*
X312148Y725485D01*
X312159Y725434D01*
X312196Y725373D01*
X312224Y725307D01*
X312269Y725251D01*
X312286Y725223D01*
X312303Y725208D01*
X312329Y725176D01*
X312807Y724698D01*
X312807Y720302D01*
X312329Y719824D01*
X312287Y719766D01*
X312238Y719714D01*
X312216Y719667D01*
X312186Y719625D01*
X312164Y719556D01*
X312134Y719491D01*
X312129Y719439D01*
X312113Y719389D01*
X312115Y719318D01*
X312107Y719247D01*
X312118Y719196D01*
X312120Y719144D01*
X312144Y719076D01*
X312159Y719006D01*
X312186Y718961D01*
X312204Y718913D01*
X312249Y718857D01*
X312286Y718795D01*
X312325Y718761D01*
X312358Y718721D01*
X312418Y718682D01*
X312473Y718635D01*
X312521Y718616D01*
X312565Y718588D01*
X312634Y718570D01*
X312701Y718543D01*
X312772Y718535D01*
X312803Y718527D01*
X312826Y718529D01*
X312867Y718525D01*
X360705Y718525D01*
X360795Y718539D01*
X360886Y718547D01*
X360915Y718559D01*
X360947Y718564D01*
X361028Y718607D01*
X361112Y718643D01*
X361144Y718669D01*
X361165Y718680D01*
X361187Y718703D01*
X361243Y718748D01*
X362802Y720307D01*
X367198Y720307D01*
X370307Y717198D01*
X370307Y712802D01*
X369829Y712324D01*
X369787Y712266D01*
X369738Y712214D01*
X369716Y712167D01*
X369686Y712125D01*
X369664Y712056D01*
X369634Y711991D01*
X369629Y711939D01*
X369613Y711889D01*
X369615Y711818D01*
X369607Y711747D01*
X369618Y711696D01*
X369620Y711644D01*
X369644Y711576D01*
X369659Y711506D01*
X369686Y711461D01*
X369704Y711413D01*
X369749Y711357D01*
X369786Y711295D01*
X369825Y711261D01*
X369858Y711221D01*
X369918Y711182D01*
X369973Y711135D01*
X370021Y711116D01*
X370065Y711088D01*
X370134Y711070D01*
X370201Y711043D01*
X370272Y711035D01*
X370303Y711027D01*
X370326Y711029D01*
X370367Y711025D01*
X488205Y711025D01*
X488295Y711039D01*
X488386Y711047D01*
X488415Y711059D01*
X488447Y711064D01*
X488528Y711107D01*
X488612Y711143D01*
X488644Y711169D01*
X488665Y711180D01*
X488687Y711203D01*
X488743Y711248D01*
X490302Y712807D01*
X494698Y712807D01*
X497807Y709698D01*
X497807Y705302D01*
X494698Y702193D01*
X490302Y702193D01*
X488743Y703752D01*
X488669Y703805D01*
X488599Y703865D01*
X488569Y703877D01*
X488543Y703896D01*
X488456Y703923D01*
X488371Y703957D01*
X488330Y703961D01*
X488308Y703968D01*
X488276Y703967D01*
X488205Y703975D01*
X368025Y703975D01*
X367935Y703961D01*
X367844Y703953D01*
X367815Y703941D01*
X367783Y703936D01*
X367702Y703893D01*
X367618Y703857D01*
X367586Y703831D01*
X367565Y703820D01*
X367543Y703797D01*
X367487Y703752D01*
X357809Y694074D01*
X357767Y694016D01*
X357718Y693964D01*
X357696Y693917D01*
X357665Y693875D01*
X357644Y693806D01*
X357614Y693741D01*
X357608Y693689D01*
X357593Y693639D01*
X357595Y693568D01*
X357587Y693497D01*
X357598Y693446D01*
X357599Y693394D01*
X357624Y693326D01*
X357639Y693256D01*
X357666Y693211D01*
X357684Y693163D01*
X357729Y693107D01*
X357765Y693045D01*
X357805Y693011D01*
X357838Y692971D01*
X357898Y692932D01*
X357952Y692885D01*
X358001Y692866D01*
X358045Y692838D01*
X358114Y692820D01*
X358181Y692793D01*
X358252Y692785D01*
X358283Y692777D01*
X358306Y692779D01*
X358347Y692775D01*
X358798Y692775D01*
X361196Y691781D01*
X363031Y689946D01*
X364025Y687548D01*
X364025Y658702D01*
X363031Y656304D01*
X361196Y654469D01*
X358798Y653475D01*
X356202Y653475D01*
X353804Y654469D01*
X351969Y656304D01*
X350975Y658702D01*
X350975Y685403D01*
X350964Y685473D01*
X350962Y685545D01*
X350944Y685594D01*
X350936Y685645D01*
X350902Y685709D01*
X350877Y685776D01*
X350845Y685817D01*
X350820Y685863D01*
X350768Y685912D01*
X350724Y685968D01*
X350680Y685996D01*
X350642Y686032D01*
X350577Y686062D01*
X350517Y686101D01*
X350466Y686114D01*
X350419Y686136D01*
X350348Y686144D01*
X350278Y686161D01*
X350226Y686157D01*
X350175Y686163D01*
X350104Y686148D01*
X350033Y686142D01*
X349985Y686122D01*
X349934Y686111D01*
X349873Y686074D01*
X349807Y686046D01*
X349751Y686001D01*
X349723Y685985D01*
X349708Y685967D01*
X349676Y685941D01*
X338960Y675225D01*
X290525Y675225D01*
X290435Y675211D01*
X290344Y675203D01*
X290315Y675191D01*
X290283Y675186D01*
X290202Y675143D01*
X290118Y675107D01*
X290086Y675081D01*
X290065Y675070D01*
X290043Y675047D01*
X289987Y675002D01*
X276587Y661602D01*
X276519Y661507D01*
X276449Y661414D01*
X276447Y661408D01*
X276443Y661402D01*
X276409Y661291D01*
X276373Y661180D01*
X276373Y661173D01*
X276371Y661167D01*
X276374Y661051D01*
X276375Y660934D01*
X276377Y660927D01*
X276377Y660922D01*
X276384Y660904D01*
X276422Y660773D01*
X276865Y659704D01*
X276865Y656296D01*
X275561Y653148D01*
X273152Y650739D01*
X270004Y649435D01*
X266596Y649435D01*
X263448Y650739D01*
X261039Y653148D01*
X259735Y656296D01*
X259735Y659704D01*
X261039Y662852D01*
X263448Y665261D01*
X266596Y666565D01*
X270004Y666565D01*
X270648Y666298D01*
X270714Y666282D01*
X270743Y666270D01*
X270781Y666266D01*
X270875Y666242D01*
X270882Y666243D01*
X270888Y666242D01*
X271004Y666253D01*
X271121Y666262D01*
X271126Y666264D01*
X271133Y666265D01*
X271193Y666291D01*
X271195Y666292D01*
X271200Y666295D01*
X271240Y666312D01*
X271347Y666358D01*
X271353Y666363D01*
X271357Y666365D01*
X271371Y666377D01*
X271400Y666401D01*
X271412Y666407D01*
X271425Y666420D01*
X271478Y666463D01*
X285002Y679987D01*
X285092Y680077D01*
X285103Y680093D01*
X285119Y680105D01*
X285175Y680192D01*
X285235Y680276D01*
X285241Y680295D01*
X285252Y680312D01*
X285277Y680413D01*
X285308Y680511D01*
X285307Y680531D01*
X285312Y680551D01*
X285304Y680654D01*
X285301Y680757D01*
X285295Y680776D01*
X285293Y680796D01*
X285253Y680891D01*
X285217Y680988D01*
X285205Y681004D01*
X285197Y681022D01*
X285092Y681153D01*
X282193Y684052D01*
X282193Y685371D01*
X282182Y685441D01*
X282180Y685513D01*
X282162Y685562D01*
X282154Y685613D01*
X282120Y685677D01*
X282095Y685744D01*
X282063Y685785D01*
X282038Y685831D01*
X281987Y685880D01*
X281942Y685936D01*
X281898Y685964D01*
X281860Y686000D01*
X281795Y686030D01*
X281735Y686069D01*
X281684Y686082D01*
X281637Y686104D01*
X281566Y686112D01*
X281496Y686129D01*
X281444Y686125D01*
X281393Y686131D01*
X281322Y686116D01*
X281251Y686110D01*
X281203Y686090D01*
X281152Y686079D01*
X281091Y686042D01*
X281025Y686014D01*
X280969Y685969D01*
X280941Y685953D01*
X280926Y685935D01*
X280894Y685909D01*
X276587Y681602D01*
X276519Y681507D01*
X276449Y681414D01*
X276447Y681408D01*
X276443Y681402D01*
X276409Y681291D01*
X276373Y681180D01*
X276373Y681173D01*
X276371Y681167D01*
X276374Y681051D01*
X276375Y680934D01*
X276377Y680927D01*
X276377Y680922D01*
X276384Y680904D01*
X276422Y680773D01*
X276865Y679704D01*
X276865Y676296D01*
X275561Y673148D01*
X273152Y670739D01*
X270004Y669435D01*
X266596Y669435D01*
X263448Y670739D01*
X261039Y673148D01*
X259735Y676296D01*
X259735Y679704D01*
X261039Y682852D01*
X263448Y685261D01*
X266596Y686565D01*
X270004Y686565D01*
X270648Y686298D01*
X270762Y686271D01*
X270875Y686242D01*
X270882Y686243D01*
X270888Y686242D01*
X271004Y686253D01*
X271121Y686262D01*
X271126Y686264D01*
X271133Y686265D01*
X271240Y686312D01*
X271347Y686358D01*
X271353Y686363D01*
X271357Y686365D01*
X271371Y686377D01*
X271478Y686463D01*
X301252Y716237D01*
X302691Y717676D01*
X302733Y717734D01*
X302782Y717786D01*
X302804Y717833D01*
X302835Y717875D01*
X302856Y717944D01*
X302886Y718009D01*
X302892Y718061D01*
X302907Y718111D01*
X302905Y718182D01*
X302913Y718253D01*
X302902Y718304D01*
X302901Y718356D01*
X302876Y718424D01*
X302861Y718494D01*
X302834Y718539D01*
X302816Y718587D01*
X302771Y718643D01*
X302735Y718705D01*
X302695Y718739D01*
X302662Y718779D01*
X302602Y718818D01*
X302548Y718865D01*
X302499Y718884D01*
X302455Y718912D01*
X302386Y718930D01*
X302319Y718957D01*
X302248Y718965D01*
X302217Y718973D01*
X302194Y718971D01*
X302153Y718975D01*
X294275Y718975D01*
X294185Y718961D01*
X294094Y718953D01*
X294065Y718941D01*
X294033Y718936D01*
X293952Y718893D01*
X293868Y718857D01*
X293836Y718831D01*
X293815Y718820D01*
X293793Y718797D01*
X293737Y718752D01*
X276587Y701602D01*
X276519Y701507D01*
X276449Y701414D01*
X276447Y701408D01*
X276443Y701402D01*
X276409Y701291D01*
X276373Y701180D01*
X276373Y701173D01*
X276371Y701167D01*
X276374Y701051D01*
X276375Y700934D01*
X276377Y700927D01*
X276377Y700922D01*
X276384Y700904D01*
X276422Y700773D01*
X276865Y699704D01*
X276865Y696296D01*
X275561Y693148D01*
X273152Y690739D01*
X270004Y689435D01*
X266596Y689435D01*
X263448Y690739D01*
X261039Y693148D01*
X259735Y696296D01*
X259735Y699704D01*
X261039Y702852D01*
X263448Y705261D01*
X266596Y706565D01*
X270004Y706565D01*
X270648Y706298D01*
X270762Y706271D01*
X270875Y706242D01*
X270882Y706243D01*
X270888Y706242D01*
X271004Y706253D01*
X271121Y706262D01*
X271126Y706264D01*
X271133Y706265D01*
X271240Y706312D01*
X271347Y706358D01*
X271353Y706363D01*
X271357Y706365D01*
X271371Y706377D01*
X271478Y706463D01*
X288752Y723737D01*
X291040Y726025D01*
X303205Y726025D01*
X303295Y726039D01*
X303386Y726047D01*
X303415Y726059D01*
X303447Y726064D01*
X303528Y726107D01*
X303612Y726143D01*
X303644Y726169D01*
X303665Y726180D01*
X303687Y726203D01*
X303743Y726248D01*
X305171Y727676D01*
X305213Y727734D01*
X305262Y727786D01*
X305284Y727833D01*
X305314Y727875D01*
X305336Y727944D01*
X305366Y728009D01*
X305371Y728061D01*
X305387Y728111D01*
X305385Y728182D01*
X305393Y728253D01*
X305382Y728304D01*
X305380Y728356D01*
X305356Y728424D01*
X305341Y728494D01*
X305314Y728539D01*
X305296Y728587D01*
X305251Y728643D01*
X305214Y728705D01*
X305175Y728739D01*
X305142Y728779D01*
X305082Y728818D01*
X305027Y728865D01*
X304979Y728884D01*
X304935Y728912D01*
X304866Y728930D01*
X304799Y728957D01*
X304728Y728965D01*
X304697Y728973D01*
X304674Y728971D01*
X304633Y728975D01*
X261040Y728975D01*
X260013Y730002D01*
X259939Y730055D01*
X259870Y730115D01*
X259839Y730127D01*
X259813Y730146D01*
X259726Y730173D01*
X259641Y730207D01*
X259600Y730211D01*
X259578Y730218D01*
X259546Y730217D01*
X259475Y730225D01*
X244275Y730225D01*
X244185Y730211D01*
X244094Y730203D01*
X244065Y730191D01*
X244033Y730186D01*
X243952Y730143D01*
X243868Y730107D01*
X243836Y730081D01*
X243815Y730070D01*
X243793Y730047D01*
X243737Y730002D01*
X236248Y722513D01*
X236195Y722439D01*
X236135Y722370D01*
X236123Y722339D01*
X236104Y722313D01*
X236077Y722226D01*
X236043Y722141D01*
X236039Y722100D01*
X236032Y722078D01*
X236033Y722046D01*
X236025Y721975D01*
X236025Y695525D01*
X236039Y695435D01*
X236047Y695344D01*
X236059Y695315D01*
X236064Y695283D01*
X236107Y695202D01*
X236143Y695118D01*
X236169Y695086D01*
X236180Y695065D01*
X236203Y695043D01*
X236248Y694987D01*
X244875Y686360D01*
X244969Y686293D01*
X245063Y686222D01*
X245069Y686220D01*
X245074Y686217D01*
X245185Y686183D01*
X245297Y686146D01*
X245303Y686146D01*
X245309Y686144D01*
X245426Y686147D01*
X245543Y686148D01*
X245550Y686151D01*
X245555Y686151D01*
X245573Y686157D01*
X245704Y686195D01*
X246596Y686565D01*
X250004Y686565D01*
X253152Y685261D01*
X255561Y682852D01*
X256865Y679704D01*
X256865Y676296D01*
X255561Y673148D01*
X253152Y670739D01*
X250004Y669435D01*
X246596Y669435D01*
X243448Y670739D01*
X241039Y673148D01*
X239735Y676296D01*
X239735Y679704D01*
X240076Y680525D01*
X240102Y680639D01*
X240131Y680752D01*
X240130Y680759D01*
X240132Y680765D01*
X240121Y680881D01*
X240112Y680997D01*
X240109Y681003D01*
X240109Y681009D01*
X240061Y681117D01*
X240015Y681224D01*
X240011Y681230D01*
X240009Y681234D01*
X239996Y681248D01*
X239911Y681355D01*
X231574Y689691D01*
X231516Y689733D01*
X231464Y689782D01*
X231417Y689804D01*
X231375Y689835D01*
X231306Y689856D01*
X231241Y689886D01*
X231189Y689892D01*
X231139Y689907D01*
X231068Y689905D01*
X230997Y689913D01*
X230946Y689902D01*
X230894Y689901D01*
X230826Y689876D01*
X230756Y689861D01*
X230711Y689834D01*
X230663Y689816D01*
X230607Y689771D01*
X230545Y689735D01*
X230511Y689695D01*
X230471Y689662D01*
X230432Y689602D01*
X230385Y689548D01*
X230366Y689499D01*
X230338Y689455D01*
X230320Y689386D01*
X230293Y689319D01*
X230285Y689248D01*
X230277Y689217D01*
X230279Y689194D01*
X230275Y689153D01*
X230275Y651768D01*
X230277Y651756D01*
X230276Y651749D01*
X230284Y651709D01*
X230289Y651678D01*
X230297Y651587D01*
X230309Y651557D01*
X230314Y651525D01*
X230357Y651445D01*
X230393Y651361D01*
X230419Y651329D01*
X230430Y651308D01*
X230453Y651286D01*
X230498Y651230D01*
X230531Y651196D01*
X231525Y648798D01*
X231525Y648347D01*
X231536Y648277D01*
X231538Y648205D01*
X231556Y648156D01*
X231564Y648105D01*
X231598Y648041D01*
X231623Y647974D01*
X231655Y647933D01*
X231680Y647887D01*
X231732Y647838D01*
X231776Y647782D01*
X231820Y647754D01*
X231858Y647718D01*
X231923Y647688D01*
X231983Y647649D01*
X232034Y647636D01*
X232081Y647614D01*
X232152Y647606D01*
X232222Y647589D01*
X232274Y647593D01*
X232325Y647587D01*
X232396Y647602D01*
X232467Y647608D01*
X232515Y647628D01*
X232566Y647639D01*
X232627Y647676D01*
X232693Y647704D01*
X232749Y647749D01*
X232777Y647765D01*
X232792Y647783D01*
X232824Y647809D01*
X239837Y654822D01*
X239905Y654917D01*
X239975Y655011D01*
X239977Y655017D01*
X239981Y655022D01*
X240015Y655133D01*
X240051Y655245D01*
X240051Y655251D01*
X240053Y655257D01*
X240050Y655374D01*
X240049Y655491D01*
X240047Y655498D01*
X240047Y655503D01*
X240040Y655520D01*
X240002Y655652D01*
X239735Y656296D01*
X239735Y659704D01*
X241039Y662852D01*
X243448Y665261D01*
X246596Y666565D01*
X250004Y666565D01*
X253152Y665261D01*
X255561Y662852D01*
X256865Y659704D01*
X256865Y656296D01*
X255561Y653148D01*
X253152Y650739D01*
X250004Y649435D01*
X246596Y649435D01*
X245527Y649878D01*
X245414Y649905D01*
X245300Y649933D01*
X245294Y649933D01*
X245288Y649934D01*
X245171Y649923D01*
X245055Y649914D01*
X245049Y649912D01*
X245043Y649911D01*
X244935Y649863D01*
X244829Y649818D01*
X244823Y649813D01*
X244818Y649811D01*
X244805Y649798D01*
X244698Y649713D01*
X231248Y636263D01*
X231195Y636189D01*
X231135Y636120D01*
X231123Y636089D01*
X231104Y636063D01*
X231077Y635976D01*
X231043Y635891D01*
X231039Y635850D01*
X231032Y635828D01*
X231033Y635796D01*
X231025Y635725D01*
X231025Y607847D01*
X231036Y607776D01*
X231038Y607705D01*
X231056Y607656D01*
X231064Y607605D01*
X231098Y607541D01*
X231123Y607474D01*
X231155Y607433D01*
X231180Y607387D01*
X231232Y607338D01*
X231276Y607282D01*
X231320Y607254D01*
X231358Y607218D01*
X231423Y607188D01*
X231483Y607149D01*
X231534Y607136D01*
X231581Y607114D01*
X231652Y607106D01*
X231722Y607089D01*
X231774Y607093D01*
X231825Y607087D01*
X231896Y607102D01*
X231967Y607108D01*
X232015Y607128D01*
X232066Y607139D01*
X232127Y607176D01*
X232193Y607204D01*
X232249Y607249D01*
X232277Y607265D01*
X232292Y607283D01*
X232324Y607309D01*
X232513Y607498D01*
X239837Y614822D01*
X239905Y614917D01*
X239975Y615011D01*
X239977Y615017D01*
X239981Y615022D01*
X240015Y615133D01*
X240051Y615245D01*
X240051Y615251D01*
X240053Y615257D01*
X240050Y615374D01*
X240049Y615491D01*
X240047Y615498D01*
X240047Y615503D01*
X240040Y615520D01*
X240002Y615652D01*
X239735Y616296D01*
X239735Y619704D01*
X241039Y622852D01*
X243448Y625261D01*
X246596Y626565D01*
X250004Y626565D01*
X253152Y625261D01*
X255561Y622852D01*
X256865Y619704D01*
X256865Y616296D01*
X255561Y613148D01*
X253152Y610739D01*
X250004Y609435D01*
X246596Y609435D01*
X245527Y609878D01*
X245461Y609894D01*
X245443Y609901D01*
X245418Y609904D01*
X245414Y609905D01*
X245300Y609933D01*
X245294Y609933D01*
X245288Y609934D01*
X245171Y609923D01*
X245055Y609914D01*
X245049Y609912D01*
X245043Y609911D01*
X244935Y609863D01*
X244829Y609818D01*
X244823Y609813D01*
X244818Y609811D01*
X244805Y609798D01*
X244768Y609769D01*
X244759Y609765D01*
X244750Y609755D01*
X244698Y609713D01*
X237498Y602513D01*
X237445Y602439D01*
X237385Y602370D01*
X237373Y602339D01*
X237354Y602313D01*
X237327Y602226D01*
X237293Y602141D01*
X237289Y602100D01*
X237282Y602078D01*
X237283Y602046D01*
X237275Y601975D01*
X237275Y586786D01*
X237278Y586766D01*
X237276Y586747D01*
X237298Y586645D01*
X237314Y586543D01*
X237324Y586526D01*
X237328Y586506D01*
X237381Y586417D01*
X237430Y586326D01*
X237444Y586312D01*
X237454Y586295D01*
X237533Y586228D01*
X237608Y586156D01*
X237626Y586148D01*
X237641Y586135D01*
X237737Y586096D01*
X237831Y586053D01*
X237851Y586051D01*
X237869Y586043D01*
X238036Y586025D01*
X325725Y586025D01*
X325815Y586039D01*
X325906Y586047D01*
X325935Y586059D01*
X325967Y586064D01*
X326048Y586107D01*
X326132Y586143D01*
X326164Y586169D01*
X326185Y586180D01*
X326207Y586203D01*
X326263Y586248D01*
X372502Y632487D01*
X373941Y633926D01*
X373983Y633984D01*
X374032Y634036D01*
X374054Y634083D01*
X374085Y634125D01*
X374106Y634194D01*
X374136Y634259D01*
X374142Y634311D01*
X374157Y634361D01*
X374155Y634432D01*
X374163Y634503D01*
X374152Y634554D01*
X374151Y634606D01*
X374126Y634674D01*
X374111Y634744D01*
X374084Y634789D01*
X374066Y634837D01*
X374021Y634893D01*
X373985Y634955D01*
X373945Y634989D01*
X373912Y635029D01*
X373852Y635068D01*
X373798Y635115D01*
X373749Y635134D01*
X373705Y635162D01*
X373636Y635180D01*
X373569Y635207D01*
X373498Y635215D01*
X373467Y635223D01*
X373444Y635221D01*
X373403Y635225D01*
X276930Y635225D01*
X276815Y635206D01*
X276699Y635189D01*
X276693Y635187D01*
X276687Y635186D01*
X276584Y635131D01*
X276480Y635078D01*
X276475Y635073D01*
X276470Y635070D01*
X276390Y634986D01*
X276307Y634902D01*
X276304Y634896D01*
X276300Y634892D01*
X276292Y634875D01*
X276226Y634755D01*
X275561Y633148D01*
X273152Y630739D01*
X270004Y629435D01*
X266596Y629435D01*
X263448Y630739D01*
X261039Y633148D01*
X259735Y636296D01*
X259735Y639704D01*
X261039Y642852D01*
X263448Y645261D01*
X266596Y646565D01*
X270004Y646565D01*
X273152Y645261D01*
X275561Y642852D01*
X275605Y642745D01*
X275667Y642645D01*
X275727Y642545D01*
X275731Y642541D01*
X275735Y642536D01*
X275825Y642461D01*
X275914Y642385D01*
X275919Y642383D01*
X275924Y642379D01*
X276033Y642337D01*
X276142Y642293D01*
X276149Y642292D01*
X276154Y642291D01*
X276172Y642290D01*
X276308Y642275D01*
X408205Y642275D01*
X408295Y642289D01*
X408386Y642297D01*
X408415Y642309D01*
X408447Y642314D01*
X408528Y642357D01*
X408612Y642393D01*
X408644Y642419D01*
X408665Y642430D01*
X408687Y642453D01*
X408743Y642498D01*
X410302Y644057D01*
X414698Y644057D01*
X415176Y643579D01*
X415234Y643537D01*
X415286Y643488D01*
X415333Y643466D01*
X415375Y643436D01*
X415444Y643414D01*
X415509Y643384D01*
X415561Y643379D01*
X415611Y643363D01*
X415682Y643365D01*
X415753Y643357D01*
X415804Y643368D01*
X415856Y643370D01*
X415924Y643394D01*
X415994Y643409D01*
X416039Y643436D01*
X416087Y643454D01*
X416143Y643499D01*
X416205Y643536D01*
X416239Y643575D01*
X416279Y643608D01*
X416318Y643668D01*
X416365Y643723D01*
X416384Y643771D01*
X416412Y643815D01*
X416430Y643884D01*
X416457Y643951D01*
X416465Y644022D01*
X416473Y644053D01*
X416471Y644076D01*
X416475Y644117D01*
X416475Y690705D01*
X416461Y690795D01*
X416453Y690886D01*
X416441Y690915D01*
X416436Y690947D01*
X416393Y691028D01*
X416357Y691112D01*
X416331Y691144D01*
X416320Y691165D01*
X416297Y691187D01*
X416252Y691243D01*
X414693Y692802D01*
X414693Y697198D01*
X417802Y700307D01*
X422198Y700307D01*
X425307Y697198D01*
X425307Y692802D01*
X423748Y691243D01*
X423695Y691169D01*
X423635Y691099D01*
X423623Y691069D01*
X423604Y691043D01*
X423577Y690956D01*
X423543Y690871D01*
X423539Y690830D01*
X423532Y690808D01*
X423533Y690776D01*
X423525Y690705D01*
X423525Y633540D01*
X417710Y627725D01*
X378025Y627725D01*
X377935Y627711D01*
X377844Y627703D01*
X377815Y627691D01*
X377783Y627686D01*
X377702Y627643D01*
X377618Y627607D01*
X377586Y627581D01*
X377565Y627570D01*
X377543Y627547D01*
X377487Y627502D01*
X328960Y578975D01*
X232277Y578975D01*
X232266Y578983D01*
X232214Y579032D01*
X232167Y579054D01*
X232125Y579085D01*
X232056Y579106D01*
X231991Y579136D01*
X231939Y579142D01*
X231890Y579157D01*
X231818Y579155D01*
X231747Y579163D01*
X231696Y579152D01*
X231644Y579151D01*
X231576Y579126D01*
X231506Y579111D01*
X231461Y579084D01*
X231413Y579066D01*
X231357Y579021D01*
X231295Y578985D01*
X231261Y578945D01*
X231221Y578912D01*
X231182Y578852D01*
X231135Y578798D01*
X231116Y578749D01*
X231088Y578706D01*
X231070Y578636D01*
X231043Y578569D01*
X231035Y578498D01*
X231027Y578467D01*
X231029Y578444D01*
X231025Y578403D01*
X231025Y574286D01*
X231028Y574266D01*
X231026Y574247D01*
X231048Y574145D01*
X231064Y574043D01*
X231074Y574026D01*
X231078Y574006D01*
X231131Y573917D01*
X231180Y573826D01*
X231194Y573812D01*
X231204Y573795D01*
X231283Y573728D01*
X231358Y573656D01*
X231376Y573648D01*
X231391Y573635D01*
X231487Y573596D01*
X231581Y573553D01*
X231601Y573551D01*
X231619Y573543D01*
X231786Y573525D01*
X573225Y573525D01*
X573315Y573539D01*
G37*
G36*
X805804Y770868D02*
X805804Y770868D01*
X805856Y770870D01*
X805924Y770894D01*
X805994Y770909D01*
X806039Y770936D01*
X806087Y770954D01*
X806143Y770999D01*
X806205Y771036D01*
X806239Y771075D01*
X806279Y771108D01*
X806318Y771168D01*
X806365Y771223D01*
X806384Y771271D01*
X806412Y771315D01*
X806430Y771384D01*
X806457Y771451D01*
X806465Y771522D01*
X806473Y771553D01*
X806471Y771576D01*
X806475Y771617D01*
X806475Y859633D01*
X806474Y859643D01*
X806474Y859649D01*
X806468Y859680D01*
X806464Y859703D01*
X806462Y859775D01*
X806444Y859824D01*
X806436Y859875D01*
X806402Y859939D01*
X806377Y860006D01*
X806345Y860047D01*
X806320Y860093D01*
X806268Y860142D01*
X806224Y860198D01*
X806180Y860226D01*
X806142Y860262D01*
X806077Y860292D01*
X806017Y860331D01*
X805966Y860344D01*
X805919Y860366D01*
X805848Y860374D01*
X805778Y860391D01*
X805726Y860387D01*
X805675Y860393D01*
X805604Y860378D01*
X805533Y860372D01*
X805485Y860352D01*
X805434Y860341D01*
X805373Y860304D01*
X805307Y860276D01*
X805251Y860231D01*
X805223Y860214D01*
X805208Y860197D01*
X805176Y860171D01*
X804698Y859693D01*
X800302Y859693D01*
X798743Y861252D01*
X798669Y861305D01*
X798599Y861365D01*
X798569Y861377D01*
X798543Y861396D01*
X798456Y861423D01*
X798371Y861457D01*
X798330Y861461D01*
X798308Y861468D01*
X798276Y861467D01*
X798205Y861475D01*
X774117Y861475D01*
X774047Y861464D01*
X773975Y861462D01*
X773926Y861444D01*
X773875Y861436D01*
X773811Y861402D01*
X773744Y861377D01*
X773703Y861345D01*
X773657Y861320D01*
X773608Y861268D01*
X773552Y861224D01*
X773524Y861180D01*
X773488Y861142D01*
X773458Y861077D01*
X773419Y861017D01*
X773406Y860966D01*
X773384Y860919D01*
X773376Y860848D01*
X773359Y860778D01*
X773363Y860726D01*
X773357Y860675D01*
X773372Y860604D01*
X773378Y860533D01*
X773398Y860485D01*
X773409Y860434D01*
X773446Y860373D01*
X773474Y860307D01*
X773519Y860251D01*
X773536Y860223D01*
X773553Y860208D01*
X773579Y860176D01*
X774057Y859698D01*
X774057Y856563D01*
X774060Y856544D01*
X774058Y856525D01*
X774074Y856452D01*
X774081Y856374D01*
X774092Y856348D01*
X774096Y856321D01*
X774106Y856302D01*
X774110Y856285D01*
X774147Y856223D01*
X774179Y856149D01*
X774198Y856128D01*
X774212Y856103D01*
X774228Y856088D01*
X774236Y856074D01*
X774289Y856028D01*
X774345Y855967D01*
X774369Y855953D01*
X774390Y855934D01*
X774411Y855924D01*
X774423Y855914D01*
X774486Y855888D01*
X774560Y855847D01*
X774587Y855842D01*
X774613Y855830D01*
X774637Y855828D01*
X774651Y855822D01*
X774764Y855809D01*
X774801Y855802D01*
X774813Y855804D01*
X774818Y855803D01*
X774820Y855803D01*
X774835Y855806D01*
X774857Y855803D01*
X774951Y855823D01*
X775045Y855837D01*
X775057Y855842D01*
X775063Y855843D01*
X775078Y855851D01*
X775098Y855855D01*
X775126Y855872D01*
X775199Y855904D01*
X775239Y855928D01*
X775886Y856101D01*
X787197Y856101D01*
X787197Y842583D01*
X773679Y842583D01*
X773679Y853087D01*
X773668Y853157D01*
X773666Y853229D01*
X773648Y853278D01*
X773640Y853329D01*
X773606Y853393D01*
X773581Y853460D01*
X773549Y853501D01*
X773524Y853547D01*
X773472Y853596D01*
X773428Y853652D01*
X773384Y853680D01*
X773346Y853716D01*
X773281Y853746D01*
X773221Y853785D01*
X773170Y853798D01*
X773123Y853820D01*
X773052Y853828D01*
X772982Y853845D01*
X772930Y853841D01*
X772879Y853847D01*
X772808Y853832D01*
X772737Y853826D01*
X772689Y853806D01*
X772638Y853795D01*
X772577Y853758D01*
X772511Y853730D01*
X772455Y853685D01*
X772427Y853668D01*
X772412Y853651D01*
X772380Y853625D01*
X770948Y852193D01*
X766552Y852193D01*
X764993Y853752D01*
X764919Y853805D01*
X764849Y853865D01*
X764819Y853877D01*
X764793Y853896D01*
X764706Y853923D01*
X764621Y853957D01*
X764580Y853961D01*
X764558Y853968D01*
X764526Y853967D01*
X764455Y853975D01*
X755367Y853975D01*
X755297Y853964D01*
X755225Y853962D01*
X755176Y853944D01*
X755125Y853936D01*
X755061Y853902D01*
X754994Y853877D01*
X754953Y853845D01*
X754907Y853820D01*
X754858Y853768D01*
X754802Y853724D01*
X754774Y853680D01*
X754738Y853642D01*
X754708Y853577D01*
X754669Y853517D01*
X754656Y853466D01*
X754634Y853419D01*
X754626Y853348D01*
X754609Y853278D01*
X754613Y853226D01*
X754607Y853175D01*
X754622Y853104D01*
X754628Y853033D01*
X754648Y852985D01*
X754659Y852934D01*
X754696Y852873D01*
X754724Y852807D01*
X754769Y852751D01*
X754786Y852723D01*
X754803Y852708D01*
X754829Y852676D01*
X755307Y852198D01*
X755307Y847802D01*
X752198Y844693D01*
X749993Y844693D01*
X749903Y844679D01*
X749812Y844671D01*
X749783Y844659D01*
X749751Y844654D01*
X749670Y844611D01*
X749586Y844575D01*
X749554Y844549D01*
X749533Y844538D01*
X749511Y844515D01*
X749455Y844470D01*
X713030Y808045D01*
X712977Y807971D01*
X712917Y807902D01*
X712905Y807871D01*
X712886Y807845D01*
X712859Y807758D01*
X712825Y807673D01*
X712821Y807632D01*
X712814Y807610D01*
X712815Y807578D01*
X712807Y807507D01*
X712807Y805302D01*
X709698Y802193D01*
X705302Y802193D01*
X702193Y805302D01*
X702193Y809698D01*
X705302Y812807D01*
X707507Y812807D01*
X707597Y812821D01*
X707688Y812829D01*
X707717Y812841D01*
X707749Y812846D01*
X707830Y812889D01*
X707914Y812925D01*
X707946Y812951D01*
X707967Y812962D01*
X707989Y812985D01*
X708045Y813030D01*
X744470Y849455D01*
X744523Y849529D01*
X744583Y849598D01*
X744595Y849629D01*
X744614Y849655D01*
X744641Y849742D01*
X744675Y849827D01*
X744679Y849868D01*
X744686Y849890D01*
X744685Y849922D01*
X744693Y849993D01*
X744693Y852198D01*
X745171Y852676D01*
X745213Y852734D01*
X745262Y852786D01*
X745284Y852833D01*
X745314Y852875D01*
X745336Y852944D01*
X745366Y853009D01*
X745371Y853061D01*
X745387Y853111D01*
X745385Y853182D01*
X745393Y853253D01*
X745382Y853304D01*
X745380Y853356D01*
X745356Y853424D01*
X745341Y853494D01*
X745314Y853539D01*
X745296Y853587D01*
X745251Y853643D01*
X745214Y853705D01*
X745175Y853739D01*
X745142Y853779D01*
X745082Y853818D01*
X745027Y853865D01*
X744979Y853884D01*
X744935Y853912D01*
X744866Y853930D01*
X744799Y853957D01*
X744728Y853965D01*
X744697Y853973D01*
X744674Y853971D01*
X744633Y853975D01*
X731617Y853975D01*
X731547Y853964D01*
X731475Y853962D01*
X731426Y853944D01*
X731375Y853936D01*
X731311Y853902D01*
X731244Y853877D01*
X731203Y853845D01*
X731157Y853820D01*
X731108Y853768D01*
X731052Y853724D01*
X731024Y853680D01*
X730988Y853642D01*
X730958Y853577D01*
X730919Y853517D01*
X730906Y853466D01*
X730884Y853419D01*
X730876Y853348D01*
X730859Y853278D01*
X730863Y853226D01*
X730857Y853175D01*
X730872Y853104D01*
X730878Y853033D01*
X730898Y852985D01*
X730909Y852934D01*
X730946Y852873D01*
X730974Y852807D01*
X731019Y852751D01*
X731036Y852723D01*
X731053Y852708D01*
X731079Y852676D01*
X731557Y852198D01*
X731557Y847802D01*
X728448Y844693D01*
X726243Y844693D01*
X726153Y844679D01*
X726062Y844671D01*
X726033Y844659D01*
X726001Y844654D01*
X725920Y844611D01*
X725836Y844575D01*
X725804Y844549D01*
X725783Y844538D01*
X725761Y844515D01*
X725705Y844470D01*
X700530Y819295D01*
X700477Y819221D01*
X700417Y819152D01*
X700405Y819121D01*
X700386Y819095D01*
X700359Y819008D01*
X700325Y818923D01*
X700321Y818882D01*
X700314Y818860D01*
X700315Y818828D01*
X700307Y818757D01*
X700307Y816552D01*
X697198Y813443D01*
X692802Y813443D01*
X689693Y816552D01*
X689693Y820948D01*
X692802Y824057D01*
X695007Y824057D01*
X695097Y824071D01*
X695188Y824079D01*
X695217Y824091D01*
X695249Y824096D01*
X695330Y824139D01*
X695414Y824175D01*
X695446Y824201D01*
X695467Y824212D01*
X695489Y824235D01*
X695545Y824280D01*
X720720Y849455D01*
X720773Y849529D01*
X720833Y849598D01*
X720845Y849629D01*
X720864Y849655D01*
X720891Y849742D01*
X720925Y849827D01*
X720929Y849868D01*
X720936Y849890D01*
X720935Y849922D01*
X720943Y849993D01*
X720943Y852198D01*
X721421Y852676D01*
X721463Y852734D01*
X721512Y852786D01*
X721534Y852833D01*
X721564Y852875D01*
X721586Y852944D01*
X721616Y853009D01*
X721621Y853061D01*
X721637Y853111D01*
X721635Y853182D01*
X721643Y853253D01*
X721632Y853304D01*
X721630Y853356D01*
X721606Y853424D01*
X721591Y853494D01*
X721564Y853539D01*
X721546Y853587D01*
X721501Y853643D01*
X721464Y853705D01*
X721425Y853739D01*
X721392Y853779D01*
X721332Y853818D01*
X721277Y853865D01*
X721229Y853884D01*
X721185Y853912D01*
X721116Y853930D01*
X721049Y853957D01*
X720978Y853965D01*
X720947Y853973D01*
X720924Y853971D01*
X720883Y853975D01*
X635545Y853975D01*
X635455Y853961D01*
X635364Y853953D01*
X635335Y853941D01*
X635303Y853936D01*
X635222Y853893D01*
X635138Y853857D01*
X635106Y853831D01*
X635085Y853820D01*
X635063Y853797D01*
X635007Y853752D01*
X633448Y852193D01*
X629052Y852193D01*
X625943Y855302D01*
X625943Y859698D01*
X626421Y860176D01*
X626463Y860234D01*
X626512Y860286D01*
X626534Y860333D01*
X626564Y860375D01*
X626586Y860444D01*
X626616Y860509D01*
X626621Y860561D01*
X626637Y860611D01*
X626635Y860682D01*
X626643Y860753D01*
X626632Y860804D01*
X626630Y860856D01*
X626606Y860924D01*
X626591Y860994D01*
X626564Y861039D01*
X626546Y861087D01*
X626501Y861143D01*
X626464Y861205D01*
X626425Y861239D01*
X626392Y861279D01*
X626332Y861318D01*
X626277Y861365D01*
X626229Y861384D01*
X626185Y861412D01*
X626116Y861430D01*
X626049Y861457D01*
X625978Y861465D01*
X625947Y861473D01*
X625924Y861471D01*
X625883Y861475D01*
X474117Y861475D01*
X474047Y861464D01*
X473975Y861462D01*
X473926Y861444D01*
X473875Y861436D01*
X473811Y861402D01*
X473744Y861377D01*
X473703Y861345D01*
X473657Y861320D01*
X473608Y861268D01*
X473552Y861224D01*
X473524Y861180D01*
X473488Y861142D01*
X473458Y861077D01*
X473419Y861017D01*
X473406Y860966D01*
X473384Y860919D01*
X473376Y860848D01*
X473359Y860778D01*
X473363Y860726D01*
X473357Y860675D01*
X473372Y860604D01*
X473378Y860533D01*
X473398Y860485D01*
X473409Y860434D01*
X473446Y860373D01*
X473474Y860307D01*
X473519Y860251D01*
X473536Y860223D01*
X473553Y860208D01*
X473579Y860176D01*
X474057Y859698D01*
X474057Y855302D01*
X472498Y853743D01*
X472445Y853669D01*
X472385Y853599D01*
X472373Y853569D01*
X472354Y853543D01*
X472327Y853456D01*
X472293Y853371D01*
X472289Y853330D01*
X472282Y853308D01*
X472283Y853276D01*
X472275Y853205D01*
X472275Y814295D01*
X472289Y814205D01*
X472297Y814114D01*
X472309Y814085D01*
X472314Y814053D01*
X472357Y813972D01*
X472393Y813888D01*
X472419Y813856D01*
X472430Y813835D01*
X472453Y813813D01*
X472498Y813757D01*
X474057Y812198D01*
X474057Y807802D01*
X471079Y804824D01*
X471037Y804766D01*
X470988Y804714D01*
X470966Y804667D01*
X470936Y804625D01*
X470914Y804556D01*
X470884Y804491D01*
X470879Y804439D01*
X470863Y804389D01*
X470865Y804318D01*
X470857Y804247D01*
X470868Y804196D01*
X470870Y804144D01*
X470894Y804076D01*
X470909Y804006D01*
X470936Y803961D01*
X470954Y803913D01*
X470999Y803857D01*
X471036Y803795D01*
X471075Y803761D01*
X471108Y803721D01*
X471168Y803682D01*
X471223Y803635D01*
X471271Y803616D01*
X471315Y803588D01*
X471384Y803570D01*
X471451Y803543D01*
X471522Y803535D01*
X471553Y803527D01*
X471576Y803529D01*
X471617Y803525D01*
X514455Y803525D01*
X514545Y803539D01*
X514636Y803547D01*
X514665Y803559D01*
X514697Y803564D01*
X514778Y803607D01*
X514862Y803643D01*
X514894Y803669D01*
X514915Y803680D01*
X514937Y803703D01*
X514993Y803748D01*
X516552Y805307D01*
X520948Y805307D01*
X524057Y802198D01*
X524057Y797802D01*
X522329Y796074D01*
X522287Y796016D01*
X522238Y795964D01*
X522216Y795917D01*
X522186Y795875D01*
X522164Y795806D01*
X522134Y795741D01*
X522129Y795689D01*
X522113Y795639D01*
X522115Y795568D01*
X522107Y795497D01*
X522118Y795446D01*
X522120Y795394D01*
X522144Y795326D01*
X522159Y795256D01*
X522186Y795211D01*
X522204Y795163D01*
X522249Y795107D01*
X522286Y795045D01*
X522325Y795011D01*
X522358Y794971D01*
X522418Y794932D01*
X522473Y794885D01*
X522521Y794866D01*
X522565Y794838D01*
X522634Y794820D01*
X522701Y794793D01*
X522772Y794785D01*
X522803Y794777D01*
X522826Y794779D01*
X522867Y794775D01*
X786955Y794775D01*
X787045Y794789D01*
X787136Y794797D01*
X787165Y794809D01*
X787197Y794814D01*
X787278Y794857D01*
X787362Y794893D01*
X787394Y794919D01*
X787415Y794930D01*
X787437Y794953D01*
X787493Y794998D01*
X789052Y796557D01*
X793448Y796557D01*
X796557Y793448D01*
X796557Y789052D01*
X793448Y785943D01*
X789649Y785943D01*
X789579Y785932D01*
X789507Y785930D01*
X789458Y785912D01*
X789407Y785904D01*
X789343Y785870D01*
X789276Y785845D01*
X789235Y785813D01*
X789189Y785788D01*
X789140Y785736D01*
X789084Y785692D01*
X789056Y785648D01*
X789020Y785610D01*
X788990Y785545D01*
X788951Y785485D01*
X788938Y785434D01*
X788916Y785387D01*
X788908Y785316D01*
X788891Y785246D01*
X788895Y785194D01*
X788889Y785143D01*
X788904Y785072D01*
X788910Y785001D01*
X788930Y784953D01*
X788941Y784902D01*
X788978Y784841D01*
X789006Y784775D01*
X789051Y784719D01*
X789057Y784709D01*
X789057Y780302D01*
X785948Y777193D01*
X782318Y777193D01*
X782298Y777190D01*
X782279Y777192D01*
X782177Y777170D01*
X782075Y777154D01*
X782058Y777144D01*
X782038Y777140D01*
X781949Y777087D01*
X781858Y777038D01*
X781844Y777024D01*
X781827Y777014D01*
X781760Y776935D01*
X781688Y776860D01*
X781680Y776842D01*
X781667Y776827D01*
X781628Y776731D01*
X781585Y776637D01*
X781583Y776617D01*
X781575Y776599D01*
X781557Y776432D01*
X781557Y774052D01*
X781079Y773574D01*
X781037Y773516D01*
X780988Y773464D01*
X780966Y773417D01*
X780936Y773375D01*
X780914Y773306D01*
X780884Y773241D01*
X780879Y773189D01*
X780863Y773139D01*
X780865Y773068D01*
X780857Y772997D01*
X780868Y772946D01*
X780870Y772894D01*
X780894Y772826D01*
X780909Y772756D01*
X780936Y772711D01*
X780954Y772663D01*
X780999Y772607D01*
X781036Y772545D01*
X781075Y772511D01*
X781108Y772471D01*
X781168Y772432D01*
X781223Y772385D01*
X781271Y772366D01*
X781315Y772338D01*
X781384Y772320D01*
X781451Y772293D01*
X781522Y772285D01*
X781553Y772277D01*
X781576Y772279D01*
X781617Y772275D01*
X795705Y772275D01*
X795795Y772289D01*
X795886Y772297D01*
X795915Y772309D01*
X795947Y772314D01*
X796028Y772357D01*
X796112Y772393D01*
X796144Y772419D01*
X796165Y772430D01*
X796187Y772453D01*
X796243Y772498D01*
X797802Y774057D01*
X802198Y774057D01*
X805176Y771079D01*
X805234Y771037D01*
X805286Y770988D01*
X805333Y770966D01*
X805375Y770936D01*
X805444Y770914D01*
X805509Y770884D01*
X805561Y770879D01*
X805611Y770863D01*
X805682Y770865D01*
X805753Y770857D01*
X805804Y770868D01*
G37*
G36*
X465953Y803536D02*
X465953Y803536D01*
X466025Y803538D01*
X466074Y803556D01*
X466125Y803564D01*
X466189Y803598D01*
X466256Y803623D01*
X466297Y803655D01*
X466343Y803680D01*
X466392Y803732D01*
X466448Y803776D01*
X466476Y803820D01*
X466512Y803858D01*
X466542Y803923D01*
X466581Y803983D01*
X466594Y804034D01*
X466616Y804081D01*
X466624Y804152D01*
X466641Y804222D01*
X466637Y804274D01*
X466643Y804325D01*
X466628Y804396D01*
X466622Y804467D01*
X466602Y804515D01*
X466591Y804566D01*
X466554Y804627D01*
X466526Y804693D01*
X466481Y804749D01*
X466464Y804777D01*
X466447Y804792D01*
X466421Y804824D01*
X463443Y807802D01*
X463443Y812198D01*
X465002Y813757D01*
X465055Y813831D01*
X465115Y813901D01*
X465127Y813931D01*
X465146Y813957D01*
X465173Y814044D01*
X465207Y814129D01*
X465211Y814170D01*
X465218Y814192D01*
X465217Y814224D01*
X465225Y814295D01*
X465225Y853205D01*
X465211Y853295D01*
X465203Y853386D01*
X465191Y853415D01*
X465186Y853447D01*
X465143Y853528D01*
X465107Y853612D01*
X465081Y853644D01*
X465070Y853665D01*
X465047Y853687D01*
X465002Y853743D01*
X463443Y855302D01*
X463443Y859698D01*
X463921Y860176D01*
X463963Y860234D01*
X464012Y860286D01*
X464034Y860333D01*
X464064Y860375D01*
X464086Y860444D01*
X464116Y860509D01*
X464121Y860561D01*
X464137Y860611D01*
X464135Y860682D01*
X464143Y860753D01*
X464132Y860804D01*
X464130Y860856D01*
X464106Y860924D01*
X464091Y860994D01*
X464064Y861039D01*
X464046Y861087D01*
X464001Y861143D01*
X463964Y861205D01*
X463925Y861239D01*
X463892Y861279D01*
X463832Y861318D01*
X463777Y861365D01*
X463729Y861384D01*
X463685Y861412D01*
X463616Y861430D01*
X463549Y861457D01*
X463478Y861465D01*
X463447Y861473D01*
X463424Y861471D01*
X463383Y861475D01*
X376040Y861475D01*
X373752Y863763D01*
X372324Y865191D01*
X372266Y865233D01*
X372214Y865282D01*
X372167Y865304D01*
X372125Y865335D01*
X372056Y865356D01*
X371991Y865386D01*
X371939Y865392D01*
X371889Y865407D01*
X371818Y865405D01*
X371747Y865413D01*
X371696Y865402D01*
X371644Y865401D01*
X371576Y865376D01*
X371506Y865361D01*
X371462Y865334D01*
X371413Y865316D01*
X371357Y865271D01*
X371295Y865235D01*
X371261Y865195D01*
X371221Y865162D01*
X371182Y865102D01*
X371135Y865048D01*
X371116Y864999D01*
X371088Y864955D01*
X371070Y864886D01*
X371043Y864819D01*
X371035Y864748D01*
X371027Y864717D01*
X371029Y864694D01*
X371025Y864653D01*
X371025Y817290D01*
X368737Y815002D01*
X361780Y808045D01*
X361727Y807971D01*
X361667Y807902D01*
X361655Y807871D01*
X361636Y807845D01*
X361609Y807758D01*
X361575Y807673D01*
X361571Y807632D01*
X361564Y807610D01*
X361565Y807578D01*
X361557Y807507D01*
X361557Y805302D01*
X361079Y804824D01*
X361037Y804766D01*
X360988Y804714D01*
X360966Y804667D01*
X360936Y804625D01*
X360914Y804556D01*
X360884Y804491D01*
X360879Y804439D01*
X360863Y804389D01*
X360865Y804318D01*
X360857Y804247D01*
X360868Y804196D01*
X360870Y804144D01*
X360894Y804076D01*
X360909Y804006D01*
X360936Y803961D01*
X360954Y803913D01*
X360999Y803857D01*
X361036Y803795D01*
X361075Y803761D01*
X361108Y803721D01*
X361168Y803682D01*
X361223Y803635D01*
X361271Y803616D01*
X361315Y803588D01*
X361384Y803570D01*
X361451Y803543D01*
X361522Y803535D01*
X361553Y803527D01*
X361576Y803529D01*
X361617Y803525D01*
X465883Y803525D01*
X465953Y803536D01*
G37*
%LPC*%
G36*
X886593Y426078D02*
X886593Y426078D01*
X880851Y428457D01*
X876457Y432851D01*
X874078Y438593D01*
X874078Y444807D01*
X876457Y450549D01*
X880851Y454943D01*
X886593Y457322D01*
X892807Y457322D01*
X897844Y455236D01*
X897957Y455209D01*
X898071Y455180D01*
X898077Y455181D01*
X898083Y455179D01*
X898200Y455190D01*
X898316Y455200D01*
X898322Y455202D01*
X898328Y455203D01*
X898436Y455250D01*
X898542Y455296D01*
X898548Y455300D01*
X898553Y455303D01*
X898567Y455315D01*
X898673Y455401D01*
X1025440Y582168D01*
X1025493Y582242D01*
X1025553Y582311D01*
X1025565Y582341D01*
X1025584Y582367D01*
X1025611Y582454D01*
X1025645Y582539D01*
X1025649Y582580D01*
X1025656Y582602D01*
X1025655Y582635D01*
X1025663Y582706D01*
X1025663Y584018D01*
X1026978Y587192D01*
X1029408Y589622D01*
X1032582Y590937D01*
X1036018Y590937D01*
X1039192Y589622D01*
X1041622Y587192D01*
X1042937Y584018D01*
X1042937Y580582D01*
X1041622Y577408D01*
X1039192Y574978D01*
X1036018Y573663D01*
X1035706Y573663D01*
X1035616Y573649D01*
X1035525Y573641D01*
X1035495Y573629D01*
X1035463Y573624D01*
X1035382Y573581D01*
X1035299Y573545D01*
X1035266Y573519D01*
X1035246Y573508D01*
X1035224Y573485D01*
X1035168Y573440D01*
X905545Y443817D01*
X905492Y443743D01*
X905432Y443674D01*
X905420Y443644D01*
X905401Y443618D01*
X905374Y443531D01*
X905340Y443446D01*
X905336Y443405D01*
X905329Y443383D01*
X905330Y443350D01*
X905322Y443279D01*
X905322Y438593D01*
X902943Y432851D01*
X898549Y428457D01*
X892807Y426078D01*
X886593Y426078D01*
G37*
%LPD*%
%LPC*%
G36*
X907489Y700589D02*
X907489Y700589D01*
X900705Y702407D01*
X894624Y705918D01*
X889658Y710884D01*
X886147Y716965D01*
X884329Y723749D01*
X884329Y730771D01*
X886147Y737555D01*
X889658Y743636D01*
X894624Y748602D01*
X900705Y752113D01*
X907489Y753931D01*
X914511Y753931D01*
X921295Y752113D01*
X927376Y748602D01*
X932342Y743636D01*
X935853Y737555D01*
X937671Y730771D01*
X937671Y723749D01*
X935853Y716965D01*
X932342Y710884D01*
X927376Y705918D01*
X921295Y702407D01*
X914511Y700589D01*
X907489Y700589D01*
G37*
%LPD*%
%LPC*%
G36*
X1004909Y914080D02*
X1004909Y914080D01*
X996386Y918324D01*
X989971Y925360D01*
X986532Y934239D01*
X986532Y943761D01*
X989971Y952640D01*
X996386Y959676D01*
X1004909Y963920D01*
X1014391Y964799D01*
X1023549Y962193D01*
X1031147Y956455D01*
X1036160Y948360D01*
X1037910Y939000D01*
X1036160Y929640D01*
X1031147Y921545D01*
X1023549Y915807D01*
X1014391Y913201D01*
X1004909Y914080D01*
G37*
%LPD*%
%LPC*%
G36*
X282909Y325080D02*
X282909Y325080D01*
X274386Y329324D01*
X267971Y336360D01*
X264532Y345239D01*
X264532Y354761D01*
X267971Y363640D01*
X274386Y370676D01*
X282909Y374920D01*
X292391Y375799D01*
X301549Y373193D01*
X309147Y367455D01*
X314160Y359360D01*
X315910Y350000D01*
X314160Y340640D01*
X309147Y332545D01*
X301549Y326807D01*
X292391Y324201D01*
X282909Y325080D01*
G37*
%LPD*%
%LPC*%
G36*
X1004909Y324080D02*
X1004909Y324080D01*
X996386Y328324D01*
X989971Y335360D01*
X986532Y344239D01*
X986532Y353761D01*
X989971Y362640D01*
X996386Y369676D01*
X1004909Y373920D01*
X1014391Y374799D01*
X1023549Y372193D01*
X1031147Y366455D01*
X1036160Y358360D01*
X1037910Y349000D01*
X1036160Y339640D01*
X1031147Y331545D01*
X1023549Y325807D01*
X1014391Y323201D01*
X1004909Y324080D01*
G37*
%LPD*%
%LPC*%
G36*
X434888Y805739D02*
X434888Y805739D01*
X428488Y807454D01*
X422751Y810766D01*
X418066Y815451D01*
X414754Y821188D01*
X413039Y827588D01*
X413039Y834212D01*
X414754Y840612D01*
X418066Y846349D01*
X422751Y851034D01*
X428488Y854346D01*
X434888Y856061D01*
X441512Y856061D01*
X447912Y854346D01*
X453649Y851034D01*
X458334Y846349D01*
X461646Y840612D01*
X463361Y834212D01*
X463361Y827588D01*
X461646Y821188D01*
X458334Y815451D01*
X453649Y810766D01*
X447912Y807454D01*
X441512Y805739D01*
X434888Y805739D01*
G37*
%LPD*%
%LPC*%
G36*
X435188Y575239D02*
X435188Y575239D01*
X428788Y576954D01*
X423051Y580266D01*
X418366Y584951D01*
X415054Y590688D01*
X413339Y597088D01*
X413339Y603712D01*
X415054Y610112D01*
X418366Y615849D01*
X423051Y620534D01*
X428788Y623846D01*
X435188Y625561D01*
X441812Y625561D01*
X448212Y623846D01*
X453949Y620534D01*
X458634Y615849D01*
X461946Y610112D01*
X463661Y603712D01*
X463661Y597088D01*
X461946Y590688D01*
X458634Y584951D01*
X453949Y580266D01*
X448212Y576954D01*
X441812Y575239D01*
X435188Y575239D01*
G37*
%LPD*%
%LPC*%
G36*
X732068Y653339D02*
X732068Y653339D01*
X725668Y655054D01*
X719931Y658366D01*
X715246Y663051D01*
X711934Y668788D01*
X710219Y675188D01*
X710219Y681812D01*
X711934Y688212D01*
X715246Y693949D01*
X719931Y698634D01*
X725668Y701946D01*
X732068Y703661D01*
X738692Y703661D01*
X745092Y701946D01*
X750829Y698634D01*
X755514Y693949D01*
X758826Y688212D01*
X760541Y681812D01*
X760541Y675188D01*
X758826Y668788D01*
X755514Y663051D01*
X750829Y658366D01*
X745092Y655054D01*
X738692Y653339D01*
X732068Y653339D01*
G37*
%LPD*%
%LPC*%
G36*
X732368Y422839D02*
X732368Y422839D01*
X725968Y424554D01*
X720231Y427866D01*
X715546Y432551D01*
X712234Y438288D01*
X710519Y444688D01*
X710519Y451312D01*
X712234Y457712D01*
X715546Y463449D01*
X720231Y468134D01*
X725968Y471446D01*
X732368Y473161D01*
X738992Y473161D01*
X745392Y471446D01*
X751129Y468134D01*
X755814Y463449D01*
X759126Y457712D01*
X760841Y451312D01*
X760841Y444688D01*
X759126Y438288D01*
X755814Y432551D01*
X751129Y427866D01*
X745392Y424554D01*
X738992Y422839D01*
X732368Y422839D01*
G37*
%LPD*%
%LPC*%
G36*
X714533Y360171D02*
X714533Y360171D01*
X709771Y364933D01*
X709771Y371667D01*
X714533Y376429D01*
X716886Y376429D01*
X716976Y376443D01*
X717067Y376451D01*
X717097Y376463D01*
X717129Y376468D01*
X717210Y376511D01*
X717293Y376547D01*
X717326Y376573D01*
X717346Y376584D01*
X717368Y376607D01*
X717424Y376652D01*
X774772Y434000D01*
X774825Y434074D01*
X774885Y434143D01*
X774897Y434173D01*
X774916Y434199D01*
X774943Y434286D01*
X774977Y434371D01*
X774981Y434412D01*
X774988Y434434D01*
X774987Y434467D01*
X774995Y434538D01*
X774995Y450972D01*
X775888Y451865D01*
X802152Y451865D01*
X803045Y450972D01*
X803045Y424708D01*
X802152Y423815D01*
X783358Y423815D01*
X783268Y423801D01*
X783177Y423793D01*
X783147Y423781D01*
X783115Y423776D01*
X783034Y423733D01*
X782951Y423697D01*
X782918Y423671D01*
X782898Y423660D01*
X782876Y423637D01*
X782820Y423592D01*
X726252Y367024D01*
X726199Y366950D01*
X726139Y366881D01*
X726127Y366851D01*
X726108Y366825D01*
X726081Y366738D01*
X726047Y366653D01*
X726043Y366612D01*
X726036Y366590D01*
X726037Y366557D01*
X726029Y366486D01*
X726029Y364933D01*
X721267Y360171D01*
X714533Y360171D01*
G37*
%LPD*%
%LPC*%
G36*
X245996Y805835D02*
X245996Y805835D01*
X242848Y807139D01*
X240439Y809548D01*
X239135Y812696D01*
X239135Y816104D01*
X239607Y817243D01*
X239634Y817357D01*
X239663Y817470D01*
X239662Y817477D01*
X239664Y817483D01*
X239653Y817599D01*
X239643Y817716D01*
X239641Y817721D01*
X239640Y817728D01*
X239593Y817835D01*
X239547Y817942D01*
X239542Y817948D01*
X239540Y817952D01*
X239528Y817966D01*
X239442Y818073D01*
X230013Y827502D01*
X229939Y827555D01*
X229870Y827615D01*
X229839Y827627D01*
X229813Y827646D01*
X229726Y827673D01*
X229641Y827707D01*
X229600Y827711D01*
X229578Y827718D01*
X229546Y827717D01*
X229475Y827725D01*
X227290Y827725D01*
X223045Y831970D01*
X222971Y832023D01*
X222902Y832083D01*
X222871Y832095D01*
X222845Y832114D01*
X222758Y832141D01*
X222673Y832175D01*
X222632Y832179D01*
X222610Y832186D01*
X222578Y832185D01*
X222507Y832193D01*
X220302Y832193D01*
X217193Y835302D01*
X217193Y839698D01*
X220302Y842807D01*
X224698Y842807D01*
X226337Y841168D01*
X226353Y841157D01*
X226365Y841141D01*
X226453Y841085D01*
X226536Y841025D01*
X226555Y841019D01*
X226572Y841008D01*
X226673Y840983D01*
X226772Y840952D01*
X226791Y840953D01*
X226811Y840948D01*
X226914Y840956D01*
X227017Y840959D01*
X227036Y840965D01*
X227056Y840967D01*
X227151Y841007D01*
X227248Y841043D01*
X227264Y841056D01*
X227282Y841063D01*
X227413Y841168D01*
X228752Y842507D01*
X228805Y842581D01*
X228865Y842651D01*
X228877Y842681D01*
X228896Y842707D01*
X228923Y842794D01*
X228957Y842879D01*
X228961Y842920D01*
X228968Y842942D01*
X228967Y842974D01*
X228975Y843045D01*
X228975Y921955D01*
X228961Y922045D01*
X228953Y922136D01*
X228941Y922165D01*
X228936Y922197D01*
X228893Y922278D01*
X228857Y922362D01*
X228831Y922394D01*
X228820Y922415D01*
X228797Y922437D01*
X228752Y922493D01*
X227193Y924052D01*
X227193Y928448D01*
X230302Y931557D01*
X234698Y931557D01*
X237807Y928448D01*
X237807Y924052D01*
X236248Y922493D01*
X236195Y922419D01*
X236135Y922349D01*
X236123Y922319D01*
X236104Y922293D01*
X236077Y922206D01*
X236043Y922121D01*
X236039Y922080D01*
X236032Y922058D01*
X236033Y922026D01*
X236025Y921955D01*
X236025Y843045D01*
X236039Y842955D01*
X236047Y842864D01*
X236059Y842835D01*
X236064Y842803D01*
X236107Y842722D01*
X236143Y842638D01*
X236169Y842606D01*
X236180Y842585D01*
X236203Y842563D01*
X236248Y842507D01*
X237807Y840948D01*
X237807Y836723D01*
X237822Y836627D01*
X237828Y836573D01*
X234908Y833653D01*
X234896Y833637D01*
X234881Y833625D01*
X234825Y833537D01*
X234765Y833453D01*
X234759Y833435D01*
X234748Y833418D01*
X234723Y833317D01*
X234692Y833218D01*
X234693Y833198D01*
X234688Y833179D01*
X234696Y833076D01*
X234699Y832973D01*
X234705Y832954D01*
X234707Y832934D01*
X234747Y832839D01*
X234783Y832742D01*
X234796Y832726D01*
X234803Y832708D01*
X234908Y832577D01*
X234998Y832487D01*
X244593Y822892D01*
X244688Y822823D01*
X244781Y822754D01*
X244787Y822752D01*
X244792Y822748D01*
X244904Y822714D01*
X245015Y822678D01*
X245022Y822678D01*
X245028Y822676D01*
X245144Y822679D01*
X245261Y822680D01*
X245268Y822682D01*
X245273Y822682D01*
X245291Y822689D01*
X245422Y822727D01*
X245996Y822965D01*
X249404Y822965D01*
X252552Y821661D01*
X254961Y819252D01*
X256265Y816104D01*
X256265Y812696D01*
X254961Y809548D01*
X252552Y807139D01*
X249404Y805835D01*
X245996Y805835D01*
G37*
%LPD*%
%LPC*%
G36*
X469533Y309971D02*
X469533Y309971D01*
X464771Y314733D01*
X464771Y321467D01*
X469533Y326229D01*
X475929Y326229D01*
X476019Y326243D01*
X476110Y326251D01*
X476139Y326263D01*
X476171Y326268D01*
X476252Y326311D01*
X476336Y326347D01*
X476368Y326373D01*
X476389Y326384D01*
X476411Y326407D01*
X476467Y326452D01*
X493752Y343737D01*
X496040Y346025D01*
X517699Y346025D01*
X517789Y346039D01*
X517880Y346047D01*
X517910Y346059D01*
X517942Y346064D01*
X518023Y346107D01*
X518106Y346143D01*
X518139Y346169D01*
X518159Y346180D01*
X518181Y346203D01*
X518237Y346248D01*
X524196Y352207D01*
X532404Y352207D01*
X538207Y346404D01*
X538207Y338196D01*
X532404Y332393D01*
X524196Y332393D01*
X518393Y338196D01*
X518393Y338214D01*
X518390Y338234D01*
X518392Y338253D01*
X518370Y338355D01*
X518354Y338457D01*
X518344Y338474D01*
X518340Y338494D01*
X518287Y338583D01*
X518238Y338674D01*
X518224Y338688D01*
X518214Y338705D01*
X518135Y338772D01*
X518060Y338844D01*
X518042Y338852D01*
X518027Y338865D01*
X517931Y338904D01*
X517837Y338947D01*
X517817Y338949D01*
X517799Y338957D01*
X517632Y338975D01*
X499275Y338975D01*
X499185Y338961D01*
X499094Y338953D01*
X499065Y338941D01*
X499033Y338936D01*
X498952Y338893D01*
X498868Y338857D01*
X498836Y338831D01*
X498815Y338820D01*
X498793Y338797D01*
X498737Y338752D01*
X481252Y321267D01*
X481199Y321193D01*
X481139Y321124D01*
X481127Y321093D01*
X481108Y321067D01*
X481081Y320980D01*
X481047Y320895D01*
X481043Y320854D01*
X481036Y320832D01*
X481037Y320800D01*
X481029Y320729D01*
X481029Y314733D01*
X476267Y309971D01*
X469533Y309971D01*
G37*
%LPD*%
%LPC*%
G36*
X401196Y332393D02*
X401196Y332393D01*
X395393Y338196D01*
X395393Y338214D01*
X395390Y338234D01*
X395392Y338253D01*
X395370Y338355D01*
X395354Y338457D01*
X395344Y338474D01*
X395340Y338494D01*
X395287Y338583D01*
X395238Y338674D01*
X395224Y338688D01*
X395214Y338705D01*
X395135Y338772D01*
X395060Y338844D01*
X395042Y338852D01*
X395027Y338865D01*
X394931Y338904D01*
X394837Y338947D01*
X394817Y338949D01*
X394799Y338957D01*
X394632Y338975D01*
X378540Y338975D01*
X376252Y341263D01*
X357667Y359848D01*
X357593Y359901D01*
X357524Y359961D01*
X357493Y359973D01*
X357467Y359992D01*
X357380Y360019D01*
X357295Y360053D01*
X357254Y360057D01*
X357232Y360064D01*
X357200Y360063D01*
X357129Y360071D01*
X350733Y360071D01*
X345971Y364833D01*
X345971Y371567D01*
X350733Y376329D01*
X357467Y376329D01*
X362229Y371567D01*
X362229Y365571D01*
X362243Y365481D01*
X362251Y365390D01*
X362263Y365361D01*
X362268Y365329D01*
X362311Y365248D01*
X362347Y365164D01*
X362373Y365132D01*
X362384Y365111D01*
X362407Y365089D01*
X362413Y365082D01*
X362421Y365067D01*
X362431Y365059D01*
X362452Y365033D01*
X381237Y346248D01*
X381311Y346195D01*
X381380Y346135D01*
X381411Y346123D01*
X381437Y346104D01*
X381524Y346077D01*
X381609Y346043D01*
X381650Y346039D01*
X381672Y346032D01*
X381704Y346033D01*
X381775Y346025D01*
X394699Y346025D01*
X394789Y346039D01*
X394880Y346047D01*
X394910Y346059D01*
X394942Y346064D01*
X395023Y346107D01*
X395107Y346143D01*
X395139Y346169D01*
X395159Y346180D01*
X395182Y346203D01*
X395237Y346248D01*
X401196Y352207D01*
X409404Y352207D01*
X415207Y346404D01*
X415207Y338196D01*
X409404Y332393D01*
X401196Y332393D01*
G37*
%LPD*%
%LPC*%
G36*
X593533Y309771D02*
X593533Y309771D01*
X588771Y314533D01*
X588771Y321267D01*
X593533Y326029D01*
X599479Y326029D01*
X599569Y326043D01*
X599660Y326051D01*
X599689Y326063D01*
X599721Y326068D01*
X599802Y326111D01*
X599886Y326147D01*
X599918Y326173D01*
X599939Y326184D01*
X599961Y326207D01*
X600017Y326252D01*
X619790Y346025D01*
X635732Y346025D01*
X635752Y346028D01*
X635771Y346026D01*
X635873Y346048D01*
X635975Y346064D01*
X635992Y346074D01*
X636012Y346078D01*
X636101Y346131D01*
X636192Y346180D01*
X636206Y346194D01*
X636223Y346204D01*
X636290Y346283D01*
X636362Y346358D01*
X636370Y346376D01*
X636383Y346391D01*
X636422Y346487D01*
X636460Y346571D01*
X642296Y352407D01*
X650504Y352407D01*
X656307Y346604D01*
X656307Y338396D01*
X650504Y332593D01*
X642296Y332593D01*
X636458Y338432D01*
X636454Y338457D01*
X636444Y338474D01*
X636440Y338494D01*
X636387Y338583D01*
X636338Y338674D01*
X636324Y338688D01*
X636314Y338705D01*
X636235Y338772D01*
X636160Y338844D01*
X636142Y338852D01*
X636127Y338865D01*
X636031Y338904D01*
X635937Y338947D01*
X635917Y338949D01*
X635899Y338957D01*
X635732Y338975D01*
X623025Y338975D01*
X622935Y338961D01*
X622844Y338953D01*
X622815Y338941D01*
X622783Y338936D01*
X622702Y338893D01*
X622618Y338857D01*
X622586Y338831D01*
X622565Y338820D01*
X622543Y338797D01*
X622487Y338752D01*
X605252Y321517D01*
X605199Y321443D01*
X605139Y321374D01*
X605127Y321343D01*
X605108Y321317D01*
X605081Y321230D01*
X605047Y321145D01*
X605043Y321104D01*
X605036Y321082D01*
X605037Y321050D01*
X605029Y320979D01*
X605029Y314533D01*
X600267Y309771D01*
X593533Y309771D01*
G37*
%LPD*%
%LPC*%
G36*
X714533Y309371D02*
X714533Y309371D01*
X709771Y314133D01*
X709771Y320867D01*
X714533Y325629D01*
X721579Y325629D01*
X721669Y325643D01*
X721760Y325651D01*
X721789Y325663D01*
X721821Y325668D01*
X721902Y325711D01*
X721986Y325747D01*
X722018Y325773D01*
X722039Y325784D01*
X722061Y325807D01*
X722117Y325852D01*
X740002Y343737D01*
X742290Y346025D01*
X754199Y346025D01*
X754289Y346039D01*
X754380Y346047D01*
X754410Y346059D01*
X754442Y346064D01*
X754523Y346107D01*
X754607Y346143D01*
X754639Y346169D01*
X754659Y346180D01*
X754682Y346203D01*
X754737Y346248D01*
X760696Y352207D01*
X768904Y352207D01*
X774707Y346404D01*
X774707Y338196D01*
X768904Y332393D01*
X760696Y332393D01*
X754893Y338196D01*
X754893Y338214D01*
X754890Y338234D01*
X754892Y338253D01*
X754870Y338355D01*
X754854Y338457D01*
X754844Y338474D01*
X754840Y338494D01*
X754787Y338583D01*
X754738Y338674D01*
X754724Y338688D01*
X754714Y338705D01*
X754635Y338772D01*
X754560Y338844D01*
X754542Y338852D01*
X754527Y338865D01*
X754431Y338904D01*
X754337Y338947D01*
X754317Y338949D01*
X754299Y338957D01*
X754132Y338975D01*
X745525Y338975D01*
X745435Y338961D01*
X745344Y338953D01*
X745315Y338941D01*
X745283Y338936D01*
X745202Y338893D01*
X745118Y338857D01*
X745086Y338831D01*
X745065Y338820D01*
X745043Y338797D01*
X744987Y338752D01*
X726252Y320017D01*
X726199Y319943D01*
X726139Y319874D01*
X726127Y319843D01*
X726108Y319817D01*
X726081Y319730D01*
X726047Y319645D01*
X726043Y319604D01*
X726036Y319582D01*
X726037Y319550D01*
X726029Y319479D01*
X726029Y314133D01*
X721267Y309371D01*
X714533Y309371D01*
G37*
%LPD*%
%LPC*%
G36*
X420027Y944177D02*
X420027Y944177D01*
X416013Y945840D01*
X412940Y948913D01*
X411277Y952927D01*
X411277Y957273D01*
X412940Y961287D01*
X416013Y964360D01*
X420027Y966023D01*
X424373Y966023D01*
X428387Y964360D01*
X431499Y961248D01*
X431573Y961195D01*
X431643Y961135D01*
X431673Y961123D01*
X431699Y961104D01*
X431786Y961077D01*
X431871Y961043D01*
X431912Y961039D01*
X431934Y961032D01*
X431966Y961033D01*
X432038Y961025D01*
X437762Y961025D01*
X437852Y961039D01*
X437943Y961047D01*
X437973Y961059D01*
X438005Y961064D01*
X438086Y961107D01*
X438170Y961143D01*
X438202Y961169D01*
X438222Y961180D01*
X438245Y961203D01*
X438301Y961248D01*
X441413Y964360D01*
X445427Y966023D01*
X449773Y966023D01*
X453787Y964360D01*
X456860Y961287D01*
X458523Y957273D01*
X458523Y952927D01*
X456860Y948913D01*
X453787Y945840D01*
X449773Y944177D01*
X445427Y944177D01*
X441413Y945840D01*
X438340Y948913D01*
X436677Y952927D01*
X436677Y953214D01*
X436674Y953234D01*
X436676Y953253D01*
X436654Y953355D01*
X436638Y953457D01*
X436628Y953474D01*
X436624Y953494D01*
X436571Y953583D01*
X436522Y953674D01*
X436508Y953688D01*
X436498Y953705D01*
X436419Y953772D01*
X436344Y953844D01*
X436326Y953852D01*
X436311Y953865D01*
X436215Y953904D01*
X436121Y953947D01*
X436101Y953949D01*
X436083Y953957D01*
X435916Y953975D01*
X433884Y953975D01*
X433864Y953972D01*
X433845Y953974D01*
X433743Y953952D01*
X433641Y953936D01*
X433624Y953926D01*
X433604Y953922D01*
X433515Y953869D01*
X433424Y953820D01*
X433410Y953806D01*
X433393Y953796D01*
X433326Y953717D01*
X433254Y953642D01*
X433246Y953624D01*
X433233Y953609D01*
X433194Y953513D01*
X433151Y953419D01*
X433149Y953399D01*
X433141Y953381D01*
X433123Y953214D01*
X433123Y952927D01*
X431460Y948913D01*
X428387Y945840D01*
X424373Y944177D01*
X420027Y944177D01*
G37*
%LPD*%
%LPC*%
G36*
X379348Y654315D02*
X379348Y654315D01*
X378455Y655208D01*
X378455Y681472D01*
X379348Y682365D01*
X405612Y682365D01*
X406505Y681472D01*
X406505Y655208D01*
X405612Y654315D01*
X379348Y654315D01*
G37*
%LPD*%
%LPC*%
G36*
X775588Y654315D02*
X775588Y654315D01*
X774695Y655208D01*
X774695Y681472D01*
X775588Y682365D01*
X801852Y682365D01*
X802745Y681472D01*
X802745Y655208D01*
X801852Y654315D01*
X775588Y654315D01*
G37*
%LPD*%
%LPC*%
G36*
X379648Y423815D02*
X379648Y423815D01*
X378755Y424708D01*
X378755Y450972D01*
X379648Y451865D01*
X405912Y451865D01*
X406805Y450972D01*
X406805Y424708D01*
X405912Y423815D01*
X379648Y423815D01*
G37*
%LPD*%
%LPC*%
G36*
X933583Y426078D02*
X933583Y426078D01*
X927841Y428457D01*
X923447Y432851D01*
X921068Y438593D01*
X921068Y444807D01*
X923447Y450549D01*
X927841Y454943D01*
X933583Y457322D01*
X939797Y457322D01*
X945539Y454943D01*
X949933Y450549D01*
X952312Y444807D01*
X952312Y438593D01*
X949933Y432851D01*
X945539Y428457D01*
X939797Y426078D01*
X933583Y426078D01*
G37*
%LPD*%
%LPC*%
G36*
X839603Y426078D02*
X839603Y426078D01*
X833861Y428457D01*
X829467Y432851D01*
X827088Y438593D01*
X827088Y444807D01*
X829467Y450549D01*
X833861Y454943D01*
X839603Y457322D01*
X845817Y457322D01*
X851559Y454943D01*
X855953Y450549D01*
X858332Y444807D01*
X858332Y438593D01*
X855953Y432851D01*
X851559Y428457D01*
X845817Y426078D01*
X839603Y426078D01*
G37*
%LPD*%
%LPC*%
G36*
X537802Y892193D02*
X537802Y892193D01*
X534693Y895302D01*
X534693Y899698D01*
X537802Y902807D01*
X540007Y902807D01*
X540097Y902821D01*
X540188Y902829D01*
X540217Y902841D01*
X540249Y902846D01*
X540330Y902889D01*
X540414Y902925D01*
X540446Y902951D01*
X540467Y902962D01*
X540489Y902985D01*
X540545Y903030D01*
X563717Y926202D01*
X563785Y926297D01*
X563855Y926391D01*
X563857Y926397D01*
X563861Y926402D01*
X563895Y926513D01*
X563932Y926625D01*
X563932Y926631D01*
X563933Y926637D01*
X563930Y926754D01*
X563929Y926871D01*
X563927Y926878D01*
X563927Y926883D01*
X563921Y926900D01*
X563883Y927032D01*
X563677Y927527D01*
X563677Y931873D01*
X565340Y935887D01*
X568413Y938960D01*
X572427Y940623D01*
X576773Y940623D01*
X580787Y938960D01*
X583860Y935887D01*
X585523Y931873D01*
X585523Y927527D01*
X583860Y923513D01*
X580787Y920440D01*
X576773Y918777D01*
X572427Y918777D01*
X568538Y920388D01*
X568424Y920415D01*
X568311Y920444D01*
X568304Y920443D01*
X568298Y920445D01*
X568182Y920434D01*
X568065Y920425D01*
X568060Y920422D01*
X568053Y920421D01*
X567946Y920374D01*
X567839Y920328D01*
X567833Y920324D01*
X567829Y920321D01*
X567815Y920309D01*
X567708Y920223D01*
X545530Y898045D01*
X545477Y897971D01*
X545417Y897902D01*
X545405Y897871D01*
X545386Y897845D01*
X545359Y897758D01*
X545325Y897673D01*
X545321Y897632D01*
X545314Y897610D01*
X545315Y897578D01*
X545307Y897507D01*
X545307Y895302D01*
X542198Y892193D01*
X537802Y892193D01*
G37*
%LPD*%
%LPC*%
G36*
X614052Y892193D02*
X614052Y892193D01*
X610943Y895302D01*
X610943Y899698D01*
X614052Y902807D01*
X616257Y902807D01*
X616347Y902821D01*
X616438Y902829D01*
X616467Y902841D01*
X616499Y902846D01*
X616580Y902889D01*
X616664Y902925D01*
X616696Y902951D01*
X616717Y902962D01*
X616739Y902985D01*
X616795Y903030D01*
X639932Y926167D01*
X640000Y926262D01*
X640070Y926356D01*
X640072Y926362D01*
X640076Y926367D01*
X640110Y926478D01*
X640146Y926589D01*
X640146Y926596D01*
X640148Y926602D01*
X640145Y926718D01*
X640144Y926835D01*
X640142Y926843D01*
X640142Y926848D01*
X640135Y926865D01*
X640097Y926996D01*
X639877Y927527D01*
X639877Y931873D01*
X641540Y935887D01*
X644613Y938960D01*
X648627Y940623D01*
X652973Y940623D01*
X656987Y938960D01*
X660060Y935887D01*
X661723Y931873D01*
X661723Y927527D01*
X660060Y923513D01*
X656987Y920440D01*
X652973Y918777D01*
X648627Y918777D01*
X644773Y920374D01*
X644660Y920400D01*
X644546Y920429D01*
X644540Y920428D01*
X644534Y920430D01*
X644417Y920419D01*
X644301Y920410D01*
X644295Y920407D01*
X644289Y920407D01*
X644181Y920359D01*
X644074Y920314D01*
X644069Y920309D01*
X644064Y920307D01*
X644050Y920294D01*
X643943Y920209D01*
X621780Y898045D01*
X621727Y897971D01*
X621667Y897902D01*
X621655Y897871D01*
X621636Y897845D01*
X621609Y897758D01*
X621575Y897673D01*
X621571Y897632D01*
X621564Y897610D01*
X621565Y897578D01*
X621557Y897507D01*
X621557Y895302D01*
X618448Y892193D01*
X614052Y892193D01*
G37*
%LPD*%
%LPC*%
G36*
X934429Y559111D02*
X934429Y559111D01*
X930788Y560619D01*
X928001Y563406D01*
X926493Y567047D01*
X926493Y587753D01*
X928001Y591394D01*
X930788Y594181D01*
X934429Y595689D01*
X938371Y595689D01*
X942012Y594181D01*
X944799Y591394D01*
X946307Y587753D01*
X946307Y567047D01*
X944799Y563406D01*
X942012Y560619D01*
X938371Y559111D01*
X934429Y559111D01*
G37*
%LPD*%
%LPC*%
G36*
X909029Y559111D02*
X909029Y559111D01*
X905388Y560619D01*
X902601Y563406D01*
X901093Y567047D01*
X901093Y587753D01*
X902601Y591394D01*
X905388Y594181D01*
X909029Y595689D01*
X912971Y595689D01*
X916612Y594181D01*
X919399Y591394D01*
X920907Y587753D01*
X920907Y567047D01*
X919399Y563406D01*
X916612Y560619D01*
X912971Y559111D01*
X909029Y559111D01*
G37*
%LPD*%
%LPC*%
G36*
X276397Y441295D02*
X276397Y441295D01*
X273065Y442675D01*
X270515Y445225D01*
X269135Y448557D01*
X269135Y467243D01*
X270515Y470575D01*
X273065Y473125D01*
X276397Y474505D01*
X280003Y474505D01*
X283335Y473125D01*
X285885Y470575D01*
X287265Y467243D01*
X287265Y448557D01*
X285885Y445225D01*
X283335Y442675D01*
X280003Y441295D01*
X276397Y441295D01*
G37*
%LPD*%
%LPC*%
G36*
X276397Y504295D02*
X276397Y504295D01*
X273065Y505675D01*
X270515Y508225D01*
X269135Y511557D01*
X269135Y530243D01*
X270515Y533575D01*
X273065Y536125D01*
X276397Y537505D01*
X280003Y537505D01*
X283335Y536125D01*
X285885Y533575D01*
X287265Y530243D01*
X287265Y511557D01*
X285885Y508225D01*
X283335Y505675D01*
X280003Y504295D01*
X276397Y504295D01*
G37*
%LPD*%
%LPC*%
G36*
X301797Y504295D02*
X301797Y504295D01*
X298465Y505675D01*
X295915Y508225D01*
X294535Y511557D01*
X294535Y530243D01*
X295915Y533575D01*
X298465Y536125D01*
X301797Y537505D01*
X305403Y537505D01*
X308735Y536125D01*
X311285Y533575D01*
X312665Y530243D01*
X312665Y511557D01*
X311285Y508225D01*
X308735Y505675D01*
X305403Y504295D01*
X301797Y504295D01*
G37*
%LPD*%
%LPC*%
G36*
X674027Y944177D02*
X674027Y944177D01*
X670013Y945840D01*
X666940Y948913D01*
X665277Y952927D01*
X665277Y957273D01*
X666940Y961287D01*
X670013Y964360D01*
X674027Y966023D01*
X678373Y966023D01*
X682387Y964360D01*
X685460Y961287D01*
X687123Y957273D01*
X687123Y952927D01*
X685460Y948913D01*
X682387Y945840D01*
X678373Y944177D01*
X674027Y944177D01*
G37*
%LPD*%
%LPC*%
G36*
X547027Y944177D02*
X547027Y944177D01*
X543013Y945840D01*
X539940Y948913D01*
X538277Y952927D01*
X538277Y957273D01*
X539940Y961287D01*
X543013Y964360D01*
X547027Y966023D01*
X551373Y966023D01*
X555387Y964360D01*
X558460Y961287D01*
X560123Y957273D01*
X560123Y952927D01*
X558460Y948913D01*
X555387Y945840D01*
X551373Y944177D01*
X547027Y944177D01*
G37*
%LPD*%
%LPC*%
G36*
X420027Y918777D02*
X420027Y918777D01*
X416013Y920440D01*
X412940Y923513D01*
X411277Y927527D01*
X411277Y931873D01*
X412940Y935887D01*
X416013Y938960D01*
X420027Y940623D01*
X424373Y940623D01*
X428387Y938960D01*
X431460Y935887D01*
X433123Y931873D01*
X433123Y927527D01*
X431460Y923513D01*
X428387Y920440D01*
X424373Y918777D01*
X420027Y918777D01*
G37*
%LPD*%
%LPC*%
G36*
X623227Y918777D02*
X623227Y918777D01*
X619213Y920440D01*
X616140Y923513D01*
X614477Y927527D01*
X614477Y931873D01*
X616140Y935887D01*
X619213Y938960D01*
X623227Y940623D01*
X627573Y940623D01*
X631587Y938960D01*
X634660Y935887D01*
X636323Y931873D01*
X636323Y927527D01*
X634660Y923513D01*
X631587Y920440D01*
X627573Y918777D01*
X623227Y918777D01*
G37*
%LPD*%
%LPC*%
G36*
X801027Y918777D02*
X801027Y918777D01*
X797013Y920440D01*
X793940Y923513D01*
X792277Y927527D01*
X792277Y931873D01*
X793940Y935887D01*
X797013Y938960D01*
X801027Y940623D01*
X805373Y940623D01*
X809387Y938960D01*
X812460Y935887D01*
X814123Y931873D01*
X814123Y927527D01*
X812460Y923513D01*
X809387Y920440D01*
X805373Y918777D01*
X801027Y918777D01*
G37*
%LPD*%
%LPC*%
G36*
X750227Y918777D02*
X750227Y918777D01*
X746213Y920440D01*
X743140Y923513D01*
X741477Y927527D01*
X741477Y931873D01*
X743140Y935887D01*
X746213Y938960D01*
X750227Y940623D01*
X754573Y940623D01*
X758587Y938960D01*
X761660Y935887D01*
X763323Y931873D01*
X763323Y927527D01*
X761660Y923513D01*
X758587Y920440D01*
X754573Y918777D01*
X750227Y918777D01*
G37*
%LPD*%
%LPC*%
G36*
X623227Y944177D02*
X623227Y944177D01*
X619213Y945840D01*
X616140Y948913D01*
X614477Y952927D01*
X614477Y957273D01*
X616140Y961287D01*
X619213Y964360D01*
X623227Y966023D01*
X627573Y966023D01*
X631587Y964360D01*
X634660Y961287D01*
X636323Y957273D01*
X636323Y952927D01*
X634660Y948913D01*
X631587Y945840D01*
X627573Y944177D01*
X623227Y944177D01*
G37*
%LPD*%
%LPC*%
G36*
X521627Y944177D02*
X521627Y944177D01*
X517613Y945840D01*
X514540Y948913D01*
X512877Y952927D01*
X512877Y957273D01*
X514540Y961287D01*
X517613Y964360D01*
X521627Y966023D01*
X525973Y966023D01*
X529987Y964360D01*
X533060Y961287D01*
X534723Y957273D01*
X534723Y952927D01*
X533060Y948913D01*
X529987Y945840D01*
X525973Y944177D01*
X521627Y944177D01*
G37*
%LPD*%
%LPC*%
G36*
X775627Y918777D02*
X775627Y918777D01*
X771613Y920440D01*
X768540Y923513D01*
X766877Y927527D01*
X766877Y931873D01*
X768540Y935887D01*
X771613Y938960D01*
X775627Y940623D01*
X779973Y940623D01*
X783987Y938960D01*
X787060Y935887D01*
X788723Y931873D01*
X788723Y927527D01*
X787060Y923513D01*
X783987Y920440D01*
X779973Y918777D01*
X775627Y918777D01*
G37*
%LPD*%
%LPC*%
G36*
X724827Y944177D02*
X724827Y944177D01*
X720813Y945840D01*
X717740Y948913D01*
X716077Y952927D01*
X716077Y957273D01*
X717740Y961287D01*
X720813Y964360D01*
X724827Y966023D01*
X729173Y966023D01*
X733187Y964360D01*
X736260Y961287D01*
X737923Y957273D01*
X737923Y952927D01*
X736260Y948913D01*
X733187Y945840D01*
X729173Y944177D01*
X724827Y944177D01*
G37*
%LPD*%
%LPC*%
G36*
X750227Y944177D02*
X750227Y944177D01*
X746213Y945840D01*
X743140Y948913D01*
X741477Y952927D01*
X741477Y957273D01*
X743140Y961287D01*
X746213Y964360D01*
X750227Y966023D01*
X754573Y966023D01*
X758587Y964360D01*
X761660Y961287D01*
X763323Y957273D01*
X763323Y952927D01*
X761660Y948913D01*
X758587Y945840D01*
X754573Y944177D01*
X750227Y944177D01*
G37*
%LPD*%
%LPC*%
G36*
X496227Y944177D02*
X496227Y944177D01*
X492213Y945840D01*
X489140Y948913D01*
X487477Y952927D01*
X487477Y957273D01*
X489140Y961287D01*
X492213Y964360D01*
X496227Y966023D01*
X500573Y966023D01*
X504587Y964360D01*
X507660Y961287D01*
X509323Y957273D01*
X509323Y952927D01*
X507660Y948913D01*
X504587Y945840D01*
X500573Y944177D01*
X496227Y944177D01*
G37*
%LPD*%
%LPC*%
G36*
X851827Y918777D02*
X851827Y918777D01*
X847813Y920440D01*
X844740Y923513D01*
X843077Y927527D01*
X843077Y931873D01*
X844740Y935887D01*
X847813Y938960D01*
X851827Y940623D01*
X856173Y940623D01*
X860187Y938960D01*
X863260Y935887D01*
X864923Y931873D01*
X864923Y927527D01*
X863260Y923513D01*
X860187Y920440D01*
X856173Y918777D01*
X851827Y918777D01*
G37*
%LPD*%
%LPC*%
G36*
X877227Y918777D02*
X877227Y918777D01*
X873213Y920440D01*
X870140Y923513D01*
X868477Y927527D01*
X868477Y931873D01*
X870140Y935887D01*
X873213Y938960D01*
X877227Y940623D01*
X881573Y940623D01*
X885587Y938960D01*
X888660Y935887D01*
X890323Y931873D01*
X890323Y927527D01*
X888660Y923513D01*
X885587Y920440D01*
X881573Y918777D01*
X877227Y918777D01*
G37*
%LPD*%
%LPC*%
G36*
X826427Y918777D02*
X826427Y918777D01*
X822413Y920440D01*
X819340Y923513D01*
X817677Y927527D01*
X817677Y931873D01*
X819340Y935887D01*
X822413Y938960D01*
X826427Y940623D01*
X830773Y940623D01*
X834787Y938960D01*
X837860Y935887D01*
X839523Y931873D01*
X839523Y927527D01*
X837860Y923513D01*
X834787Y920440D01*
X830773Y918777D01*
X826427Y918777D01*
G37*
%LPD*%
%LPC*%
G36*
X1033182Y705863D02*
X1033182Y705863D01*
X1030008Y707178D01*
X1027578Y709608D01*
X1026263Y712782D01*
X1026263Y716218D01*
X1027578Y719392D01*
X1030008Y721822D01*
X1033182Y723137D01*
X1036618Y723137D01*
X1039792Y721822D01*
X1042222Y719392D01*
X1043537Y716218D01*
X1043537Y712782D01*
X1042222Y709608D01*
X1039792Y707178D01*
X1036618Y705863D01*
X1033182Y705863D01*
G37*
%LPD*%
%LPC*%
G36*
X245996Y825835D02*
X245996Y825835D01*
X242848Y827139D01*
X240439Y829548D01*
X239135Y832696D01*
X239135Y836043D01*
X239134Y836049D01*
X239134Y836050D01*
X239133Y836054D01*
X239124Y836113D01*
X239122Y836185D01*
X239114Y836206D01*
X239122Y836215D01*
X239190Y836285D01*
X239206Y836314D01*
X239219Y836328D01*
X239231Y836359D01*
X239271Y836432D01*
X240439Y839252D01*
X242848Y841661D01*
X245996Y842965D01*
X249404Y842965D01*
X252552Y841661D01*
X254961Y839252D01*
X256265Y836104D01*
X256265Y832696D01*
X254961Y829548D01*
X252552Y827139D01*
X249404Y825835D01*
X245996Y825835D01*
G37*
%LPD*%
%LPC*%
G36*
X246596Y689435D02*
X246596Y689435D01*
X243448Y690739D01*
X241039Y693148D01*
X239735Y696296D01*
X239735Y699704D01*
X241039Y702852D01*
X243448Y705261D01*
X246596Y706565D01*
X250004Y706565D01*
X253152Y705261D01*
X255561Y702852D01*
X256865Y699704D01*
X256865Y696296D01*
X255561Y693148D01*
X253152Y690739D01*
X250004Y689435D01*
X246596Y689435D01*
G37*
%LPD*%
%LPC*%
G36*
X266596Y709435D02*
X266596Y709435D01*
X263448Y710739D01*
X261039Y713148D01*
X259735Y716296D01*
X259735Y719704D01*
X261039Y722852D01*
X263448Y725261D01*
X266596Y726565D01*
X270004Y726565D01*
X273152Y725261D01*
X275561Y722852D01*
X276865Y719704D01*
X276865Y716296D01*
X275561Y713148D01*
X273152Y710739D01*
X270004Y709435D01*
X266596Y709435D01*
G37*
%LPD*%
%LPC*%
G36*
X245996Y745835D02*
X245996Y745835D01*
X242848Y747139D01*
X240439Y749548D01*
X239135Y752696D01*
X239135Y756104D01*
X240439Y759252D01*
X242848Y761661D01*
X245996Y762965D01*
X249404Y762965D01*
X252552Y761661D01*
X254961Y759252D01*
X256265Y756104D01*
X256265Y752696D01*
X254961Y749548D01*
X252552Y747139D01*
X249404Y745835D01*
X245996Y745835D01*
G37*
%LPD*%
%LPC*%
G36*
X246596Y589435D02*
X246596Y589435D01*
X243448Y590739D01*
X241039Y593148D01*
X239735Y596296D01*
X239735Y599704D01*
X241039Y602852D01*
X243448Y605261D01*
X246596Y606565D01*
X250004Y606565D01*
X253152Y605261D01*
X255561Y602852D01*
X256865Y599704D01*
X256865Y596296D01*
X255561Y593148D01*
X253152Y590739D01*
X250004Y589435D01*
X246596Y589435D01*
G37*
%LPD*%
%LPC*%
G36*
X245996Y765835D02*
X245996Y765835D01*
X242848Y767139D01*
X240439Y769548D01*
X239135Y772696D01*
X239135Y776104D01*
X240439Y779252D01*
X242848Y781661D01*
X245996Y782965D01*
X249404Y782965D01*
X252552Y781661D01*
X254961Y779252D01*
X256265Y776104D01*
X256265Y772696D01*
X254961Y769548D01*
X252552Y767139D01*
X249404Y765835D01*
X245996Y765835D01*
G37*
%LPD*%
%LPC*%
G36*
X265996Y865835D02*
X265996Y865835D01*
X262848Y867139D01*
X260439Y869548D01*
X259135Y872696D01*
X259135Y876104D01*
X260439Y879252D01*
X262848Y881661D01*
X265996Y882965D01*
X269404Y882965D01*
X272552Y881661D01*
X274961Y879252D01*
X276265Y876104D01*
X276265Y872696D01*
X274961Y869548D01*
X272552Y867139D01*
X269404Y865835D01*
X265996Y865835D01*
G37*
%LPD*%
%LPC*%
G36*
X245996Y845835D02*
X245996Y845835D01*
X242848Y847139D01*
X240439Y849548D01*
X239135Y852696D01*
X239135Y856104D01*
X240439Y859252D01*
X242848Y861661D01*
X245996Y862965D01*
X249404Y862965D01*
X252552Y861661D01*
X254961Y859252D01*
X256265Y856104D01*
X256265Y852696D01*
X254961Y849548D01*
X252552Y847139D01*
X249404Y845835D01*
X245996Y845835D01*
G37*
%LPD*%
%LPC*%
G36*
X265996Y825835D02*
X265996Y825835D01*
X262848Y827139D01*
X260439Y829548D01*
X259135Y832696D01*
X259135Y836104D01*
X260439Y839252D01*
X262848Y841661D01*
X265996Y842965D01*
X269404Y842965D01*
X272552Y841661D01*
X274961Y839252D01*
X276265Y836104D01*
X276265Y832696D01*
X274961Y829548D01*
X272552Y827139D01*
X269404Y825835D01*
X265996Y825835D01*
G37*
%LPD*%
%LPC*%
G36*
X266596Y609435D02*
X266596Y609435D01*
X263448Y610739D01*
X261039Y613148D01*
X259735Y616296D01*
X259735Y619704D01*
X261039Y622852D01*
X263448Y625261D01*
X266596Y626565D01*
X270004Y626565D01*
X273152Y625261D01*
X275561Y622852D01*
X276865Y619704D01*
X276865Y616296D01*
X275561Y613148D01*
X273152Y610739D01*
X270004Y609435D01*
X266596Y609435D01*
G37*
%LPD*%
%LPC*%
G36*
X246596Y629435D02*
X246596Y629435D01*
X243448Y630739D01*
X241039Y633148D01*
X239735Y636296D01*
X239735Y639704D01*
X241039Y642852D01*
X243448Y645261D01*
X246596Y646565D01*
X250004Y646565D01*
X253152Y645261D01*
X255561Y642852D01*
X256865Y639704D01*
X256865Y636296D01*
X255561Y633148D01*
X253152Y630739D01*
X250004Y629435D01*
X246596Y629435D01*
G37*
%LPD*%
%LPC*%
G36*
X469533Y360771D02*
X469533Y360771D01*
X464771Y365533D01*
X464771Y372267D01*
X469533Y377029D01*
X476267Y377029D01*
X481029Y372267D01*
X481029Y365533D01*
X476267Y360771D01*
X469533Y360771D01*
G37*
%LPD*%
%LPC*%
G36*
X350733Y309271D02*
X350733Y309271D01*
X345971Y314033D01*
X345971Y320767D01*
X350733Y325529D01*
X357467Y325529D01*
X362229Y320767D01*
X362229Y314033D01*
X357467Y309271D01*
X350733Y309271D01*
G37*
%LPD*%
%LPC*%
G36*
X394303Y612083D02*
X394303Y612083D01*
X394303Y625601D01*
X405614Y625601D01*
X406261Y625428D01*
X406840Y625093D01*
X407313Y624620D01*
X407648Y624041D01*
X407821Y623394D01*
X407821Y612083D01*
X394303Y612083D01*
G37*
%LPD*%
%LPC*%
G36*
X790543Y612083D02*
X790543Y612083D01*
X790543Y625601D01*
X801854Y625601D01*
X802501Y625428D01*
X803080Y625093D01*
X803553Y624620D01*
X803888Y624041D01*
X804061Y623394D01*
X804061Y612083D01*
X790543Y612083D01*
G37*
%LPD*%
%LPC*%
G36*
X394003Y842583D02*
X394003Y842583D01*
X394003Y856101D01*
X405314Y856101D01*
X405961Y855928D01*
X406540Y855593D01*
X407013Y855120D01*
X407348Y854541D01*
X407521Y853894D01*
X407521Y842583D01*
X394003Y842583D01*
G37*
%LPD*%
%LPC*%
G36*
X790243Y842583D02*
X790243Y842583D01*
X790243Y856101D01*
X801554Y856101D01*
X802201Y855928D01*
X802780Y855593D01*
X803253Y855120D01*
X803588Y854541D01*
X803761Y853894D01*
X803761Y842583D01*
X790243Y842583D01*
G37*
%LPD*%
%LPC*%
G36*
X377739Y612083D02*
X377739Y612083D01*
X377739Y623394D01*
X377912Y624041D01*
X378247Y624620D01*
X378720Y625093D01*
X379299Y625428D01*
X379946Y625601D01*
X391257Y625601D01*
X391257Y612083D01*
X377739Y612083D01*
G37*
%LPD*%
%LPC*%
G36*
X773979Y612083D02*
X773979Y612083D01*
X773979Y623394D01*
X774152Y624041D01*
X774487Y624620D01*
X774960Y625093D01*
X775539Y625428D01*
X776186Y625601D01*
X787497Y625601D01*
X787497Y612083D01*
X773979Y612083D01*
G37*
%LPD*%
%LPC*%
G36*
X790543Y595519D02*
X790543Y595519D01*
X790543Y609037D01*
X804061Y609037D01*
X804061Y597726D01*
X803888Y597079D01*
X803553Y596500D01*
X803080Y596027D01*
X802501Y595692D01*
X801854Y595519D01*
X790543Y595519D01*
G37*
%LPD*%
%LPC*%
G36*
X377439Y842583D02*
X377439Y842583D01*
X377439Y853894D01*
X377612Y854541D01*
X377947Y855120D01*
X378420Y855593D01*
X378999Y855928D01*
X379646Y856101D01*
X390957Y856101D01*
X390957Y842583D01*
X377439Y842583D01*
G37*
%LPD*%
%LPC*%
G36*
X790243Y826019D02*
X790243Y826019D01*
X790243Y839537D01*
X803761Y839537D01*
X803761Y828226D01*
X803588Y827579D01*
X803253Y827000D01*
X802780Y826527D01*
X802201Y826192D01*
X801554Y826019D01*
X790243Y826019D01*
G37*
%LPD*%
%LPC*%
G36*
X394303Y595519D02*
X394303Y595519D01*
X394303Y609037D01*
X407821Y609037D01*
X407821Y597726D01*
X407648Y597079D01*
X407313Y596500D01*
X406840Y596027D01*
X406261Y595692D01*
X405614Y595519D01*
X394303Y595519D01*
G37*
%LPD*%
%LPC*%
G36*
X394003Y826019D02*
X394003Y826019D01*
X394003Y839537D01*
X407521Y839537D01*
X407521Y828226D01*
X407348Y827579D01*
X407013Y827000D01*
X406540Y826527D01*
X405961Y826192D01*
X405314Y826019D01*
X394003Y826019D01*
G37*
%LPD*%
%LPC*%
G36*
X775886Y826019D02*
X775886Y826019D01*
X775239Y826192D01*
X774660Y826527D01*
X774187Y827000D01*
X773852Y827579D01*
X773679Y828226D01*
X773679Y839537D01*
X787197Y839537D01*
X787197Y826019D01*
X775886Y826019D01*
G37*
%LPD*%
%LPC*%
G36*
X379946Y595519D02*
X379946Y595519D01*
X379299Y595692D01*
X378720Y596027D01*
X378247Y596500D01*
X377912Y597079D01*
X377739Y597726D01*
X377739Y609037D01*
X391257Y609037D01*
X391257Y595519D01*
X379946Y595519D01*
G37*
%LPD*%
%LPC*%
G36*
X776186Y595519D02*
X776186Y595519D01*
X775539Y595692D01*
X774960Y596027D01*
X774487Y596500D01*
X774152Y597079D01*
X773979Y597726D01*
X773979Y609037D01*
X787497Y609037D01*
X787497Y595519D01*
X776186Y595519D01*
G37*
%LPD*%
%LPC*%
G36*
X379646Y826019D02*
X379646Y826019D01*
X378999Y826192D01*
X378420Y826527D01*
X377947Y827000D01*
X377612Y827579D01*
X377439Y828226D01*
X377439Y839537D01*
X390957Y839537D01*
X390957Y826019D01*
X379646Y826019D01*
G37*
%LPD*%
%LPC*%
G36*
X887123Y578923D02*
X887123Y578923D01*
X887123Y596600D01*
X888158Y596436D01*
X889793Y595904D01*
X891325Y595124D01*
X892716Y594113D01*
X893931Y592898D01*
X894942Y591507D01*
X895722Y589975D01*
X896254Y588340D01*
X896523Y586642D01*
X896523Y578923D01*
X887123Y578923D01*
G37*
%LPD*%
%LPC*%
G36*
X887123Y575877D02*
X887123Y575877D01*
X896523Y575877D01*
X896523Y568158D01*
X896254Y566460D01*
X895722Y564825D01*
X894942Y563293D01*
X893931Y561902D01*
X892716Y560687D01*
X891325Y559676D01*
X889793Y558896D01*
X888158Y558364D01*
X887123Y558200D01*
X887123Y575877D01*
G37*
%LPD*%
%LPC*%
G36*
X874677Y578923D02*
X874677Y578923D01*
X874677Y586642D01*
X874946Y588340D01*
X875478Y589975D01*
X876258Y591507D01*
X877269Y592898D01*
X878484Y594113D01*
X879875Y595124D01*
X881407Y595904D01*
X883042Y596436D01*
X884077Y596600D01*
X884077Y578923D01*
X874677Y578923D01*
G37*
%LPD*%
%LPC*%
G36*
X883042Y558364D02*
X883042Y558364D01*
X881407Y558896D01*
X879875Y559676D01*
X878484Y560687D01*
X877269Y561902D01*
X876258Y563293D01*
X875478Y564825D01*
X874946Y566460D01*
X874677Y568158D01*
X874677Y575877D01*
X884077Y575877D01*
X884077Y558200D01*
X883042Y558364D01*
G37*
%LPD*%
%LPC*%
G36*
X254323Y522423D02*
X254323Y522423D01*
X254323Y538405D01*
X255161Y538273D01*
X256670Y537782D01*
X258083Y537062D01*
X259367Y536129D01*
X260489Y535007D01*
X261422Y533723D01*
X262142Y532310D01*
X262633Y530801D01*
X262881Y529233D01*
X262881Y522423D01*
X254323Y522423D01*
G37*
%LPD*%
%LPC*%
G36*
X254323Y459423D02*
X254323Y459423D01*
X254323Y475405D01*
X255161Y475273D01*
X256670Y474782D01*
X258083Y474062D01*
X259367Y473129D01*
X260489Y472007D01*
X261422Y470723D01*
X262142Y469310D01*
X262633Y467801D01*
X262881Y466233D01*
X262881Y459423D01*
X254323Y459423D01*
G37*
%LPD*%
%LPC*%
G36*
X254323Y519377D02*
X254323Y519377D01*
X262881Y519377D01*
X262881Y512567D01*
X262633Y510999D01*
X262142Y509490D01*
X261422Y508077D01*
X260489Y506793D01*
X259367Y505671D01*
X258083Y504738D01*
X256670Y504018D01*
X255161Y503527D01*
X254323Y503395D01*
X254323Y519377D01*
G37*
%LPD*%
%LPC*%
G36*
X254323Y456377D02*
X254323Y456377D01*
X262881Y456377D01*
X262881Y449567D01*
X262633Y447999D01*
X262142Y446490D01*
X261422Y445077D01*
X260489Y443793D01*
X259367Y442671D01*
X258083Y441738D01*
X256670Y441018D01*
X255161Y440527D01*
X254323Y440395D01*
X254323Y456377D01*
G37*
%LPD*%
%LPC*%
G36*
X242719Y522423D02*
X242719Y522423D01*
X242719Y529233D01*
X242967Y530801D01*
X243458Y532310D01*
X244178Y533723D01*
X245111Y535007D01*
X246233Y536129D01*
X247517Y537062D01*
X248930Y537782D01*
X250439Y538273D01*
X251277Y538405D01*
X251277Y522423D01*
X242719Y522423D01*
G37*
%LPD*%
%LPC*%
G36*
X242719Y459423D02*
X242719Y459423D01*
X242719Y466233D01*
X242967Y467801D01*
X243458Y469310D01*
X244178Y470723D01*
X245111Y472007D01*
X246233Y473129D01*
X247517Y474062D01*
X248930Y474782D01*
X250439Y475273D01*
X251277Y475405D01*
X251277Y459423D01*
X242719Y459423D01*
G37*
%LPD*%
%LPC*%
G36*
X250439Y503527D02*
X250439Y503527D01*
X248930Y504018D01*
X247517Y504738D01*
X246233Y505671D01*
X245111Y506793D01*
X244178Y508077D01*
X243458Y509490D01*
X242967Y510999D01*
X242719Y512567D01*
X242719Y519377D01*
X251277Y519377D01*
X251277Y503395D01*
X250439Y503527D01*
G37*
%LPD*%
%LPC*%
G36*
X250439Y440527D02*
X250439Y440527D01*
X248930Y441018D01*
X247517Y441738D01*
X246233Y442671D01*
X245111Y443793D01*
X244178Y445077D01*
X243458Y446490D01*
X242967Y447999D01*
X242719Y449567D01*
X242719Y456377D01*
X251277Y456377D01*
X251277Y440395D01*
X250439Y440527D01*
G37*
%LPD*%
%LPC*%
G36*
X830123Y956623D02*
X830123Y956623D01*
X830123Y966946D01*
X831396Y966745D01*
X833183Y966164D01*
X834857Y965311D01*
X836378Y964206D01*
X837706Y962878D01*
X838811Y961357D01*
X839664Y959683D01*
X840245Y957896D01*
X840446Y956623D01*
X830123Y956623D01*
G37*
%LPD*%
%LPC*%
G36*
X652323Y956623D02*
X652323Y956623D01*
X652323Y966946D01*
X653596Y966745D01*
X655383Y966164D01*
X657057Y965311D01*
X658578Y964206D01*
X659906Y962878D01*
X661011Y961357D01*
X661864Y959683D01*
X662445Y957896D01*
X662646Y956623D01*
X652323Y956623D01*
G37*
%LPD*%
%LPC*%
G36*
X474523Y956623D02*
X474523Y956623D01*
X474523Y966946D01*
X475796Y966745D01*
X477583Y966164D01*
X479257Y965311D01*
X480778Y964206D01*
X482106Y962878D01*
X483211Y961357D01*
X484064Y959683D01*
X484645Y957896D01*
X484846Y956623D01*
X474523Y956623D01*
G37*
%LPD*%
%LPC*%
G36*
X779323Y956623D02*
X779323Y956623D01*
X779323Y966946D01*
X780596Y966745D01*
X782383Y966164D01*
X784057Y965311D01*
X785578Y964206D01*
X786906Y962878D01*
X788011Y961357D01*
X788864Y959683D01*
X789445Y957896D01*
X789646Y956623D01*
X779323Y956623D01*
G37*
%LPD*%
%LPC*%
G36*
X525323Y931223D02*
X525323Y931223D01*
X525323Y941546D01*
X526596Y941345D01*
X528383Y940764D01*
X530057Y939911D01*
X531578Y938806D01*
X532906Y937478D01*
X534011Y935957D01*
X534864Y934283D01*
X535445Y932496D01*
X535646Y931223D01*
X525323Y931223D01*
G37*
%LPD*%
%LPC*%
G36*
X906323Y931223D02*
X906323Y931223D01*
X906323Y941546D01*
X907596Y941345D01*
X909383Y940764D01*
X911057Y939911D01*
X912578Y938806D01*
X913906Y937478D01*
X915011Y935957D01*
X915864Y934283D01*
X916445Y932496D01*
X916646Y931223D01*
X906323Y931223D01*
G37*
%LPD*%
%LPC*%
G36*
X576123Y956623D02*
X576123Y956623D01*
X576123Y966946D01*
X577396Y966745D01*
X579183Y966164D01*
X580857Y965311D01*
X582378Y964206D01*
X583706Y962878D01*
X584811Y961357D01*
X585664Y959683D01*
X586245Y957896D01*
X586446Y956623D01*
X576123Y956623D01*
G37*
%LPD*%
%LPC*%
G36*
X728523Y931223D02*
X728523Y931223D01*
X728523Y941546D01*
X729796Y941345D01*
X731583Y940764D01*
X733257Y939911D01*
X734778Y938806D01*
X736106Y937478D01*
X737211Y935957D01*
X738064Y934283D01*
X738645Y932496D01*
X738846Y931223D01*
X728523Y931223D01*
G37*
%LPD*%
%LPC*%
G36*
X765954Y956623D02*
X765954Y956623D01*
X766155Y957896D01*
X766736Y959683D01*
X767589Y961357D01*
X768694Y962878D01*
X770022Y964206D01*
X771543Y965311D01*
X773217Y966164D01*
X775004Y966745D01*
X776277Y966946D01*
X776277Y956623D01*
X765954Y956623D01*
G37*
%LPD*%
%LPC*%
G36*
X525323Y928177D02*
X525323Y928177D01*
X535646Y928177D01*
X535445Y926904D01*
X534864Y925117D01*
X534011Y923443D01*
X532906Y921922D01*
X531578Y920594D01*
X530057Y919489D01*
X528383Y918636D01*
X526596Y918055D01*
X525323Y917854D01*
X525323Y928177D01*
G37*
%LPD*%
%LPC*%
G36*
X728523Y928177D02*
X728523Y928177D01*
X738846Y928177D01*
X738645Y926904D01*
X738064Y925117D01*
X737211Y923443D01*
X736106Y921922D01*
X734778Y920594D01*
X733257Y919489D01*
X731583Y918636D01*
X729796Y918055D01*
X728523Y917854D01*
X728523Y928177D01*
G37*
%LPD*%
%LPC*%
G36*
X511954Y931223D02*
X511954Y931223D01*
X512155Y932496D01*
X512736Y934283D01*
X513589Y935957D01*
X514694Y937478D01*
X516022Y938806D01*
X517543Y939911D01*
X519217Y940764D01*
X521004Y941345D01*
X522277Y941546D01*
X522277Y931223D01*
X511954Y931223D01*
G37*
%LPD*%
%LPC*%
G36*
X461154Y956623D02*
X461154Y956623D01*
X461355Y957896D01*
X461936Y959683D01*
X462789Y961357D01*
X463894Y962878D01*
X465222Y964206D01*
X466743Y965311D01*
X468417Y966164D01*
X470204Y966745D01*
X471477Y966946D01*
X471477Y956623D01*
X461154Y956623D01*
G37*
%LPD*%
%LPC*%
G36*
X715154Y931223D02*
X715154Y931223D01*
X715355Y932496D01*
X715936Y934283D01*
X716789Y935957D01*
X717894Y937478D01*
X719222Y938806D01*
X720743Y939911D01*
X722417Y940764D01*
X724204Y941345D01*
X725477Y941546D01*
X725477Y931223D01*
X715154Y931223D01*
G37*
%LPD*%
%LPC*%
G36*
X474523Y953577D02*
X474523Y953577D01*
X484846Y953577D01*
X484645Y952304D01*
X484064Y950517D01*
X483211Y948843D01*
X482106Y947322D01*
X480778Y945994D01*
X479257Y944889D01*
X477583Y944036D01*
X475796Y943455D01*
X474523Y943254D01*
X474523Y953577D01*
G37*
%LPD*%
%LPC*%
G36*
X830123Y953577D02*
X830123Y953577D01*
X840446Y953577D01*
X840245Y952304D01*
X839664Y950517D01*
X838811Y948843D01*
X837706Y947322D01*
X836378Y945994D01*
X834857Y944889D01*
X833183Y944036D01*
X831396Y943455D01*
X830123Y943254D01*
X830123Y953577D01*
G37*
%LPD*%
%LPC*%
G36*
X779323Y953577D02*
X779323Y953577D01*
X789646Y953577D01*
X789445Y952304D01*
X788864Y950517D01*
X788011Y948843D01*
X786906Y947322D01*
X785578Y945994D01*
X784057Y944889D01*
X782383Y944036D01*
X780596Y943455D01*
X779323Y943254D01*
X779323Y953577D01*
G37*
%LPD*%
%LPC*%
G36*
X652323Y953577D02*
X652323Y953577D01*
X662646Y953577D01*
X662445Y952304D01*
X661864Y950517D01*
X661011Y948843D01*
X659906Y947322D01*
X658578Y945994D01*
X657057Y944889D01*
X655383Y944036D01*
X653596Y943455D01*
X652323Y943254D01*
X652323Y953577D01*
G37*
%LPD*%
%LPC*%
G36*
X638954Y956623D02*
X638954Y956623D01*
X639155Y957896D01*
X639736Y959683D01*
X640589Y961357D01*
X641694Y962878D01*
X643022Y964206D01*
X644543Y965311D01*
X646217Y966164D01*
X648004Y966745D01*
X649277Y966946D01*
X649277Y956623D01*
X638954Y956623D01*
G37*
%LPD*%
%LPC*%
G36*
X576123Y953577D02*
X576123Y953577D01*
X586446Y953577D01*
X586245Y952304D01*
X585664Y950517D01*
X584811Y948843D01*
X583706Y947322D01*
X582378Y945994D01*
X580857Y944889D01*
X579183Y944036D01*
X577396Y943455D01*
X576123Y943254D01*
X576123Y953577D01*
G37*
%LPD*%
%LPC*%
G36*
X562754Y956623D02*
X562754Y956623D01*
X562955Y957896D01*
X563536Y959683D01*
X564389Y961357D01*
X565494Y962878D01*
X566822Y964206D01*
X568343Y965311D01*
X570017Y966164D01*
X571804Y966745D01*
X573077Y966946D01*
X573077Y956623D01*
X562754Y956623D01*
G37*
%LPD*%
%LPC*%
G36*
X892954Y931223D02*
X892954Y931223D01*
X893155Y932496D01*
X893736Y934283D01*
X894589Y935957D01*
X895694Y937478D01*
X897022Y938806D01*
X898543Y939911D01*
X900217Y940764D01*
X902004Y941345D01*
X903277Y941546D01*
X903277Y931223D01*
X892954Y931223D01*
G37*
%LPD*%
%LPC*%
G36*
X816754Y956623D02*
X816754Y956623D01*
X816955Y957896D01*
X817536Y959683D01*
X818389Y961357D01*
X819494Y962878D01*
X820822Y964206D01*
X822343Y965311D01*
X824017Y966164D01*
X825804Y966745D01*
X827077Y966946D01*
X827077Y956623D01*
X816754Y956623D01*
G37*
%LPD*%
%LPC*%
G36*
X906323Y928177D02*
X906323Y928177D01*
X916646Y928177D01*
X916445Y926904D01*
X915864Y925117D01*
X915011Y923443D01*
X913906Y921922D01*
X912578Y920594D01*
X911057Y919489D01*
X909383Y918636D01*
X907596Y918055D01*
X906323Y917854D01*
X906323Y928177D01*
G37*
%LPD*%
%LPC*%
G36*
X571804Y943455D02*
X571804Y943455D01*
X570017Y944036D01*
X568343Y944889D01*
X566822Y945994D01*
X565494Y947322D01*
X564389Y948843D01*
X563536Y950517D01*
X562955Y952304D01*
X562754Y953577D01*
X573077Y953577D01*
X573077Y943254D01*
X571804Y943455D01*
G37*
%LPD*%
%LPC*%
G36*
X648004Y943455D02*
X648004Y943455D01*
X646217Y944036D01*
X644543Y944889D01*
X643022Y945994D01*
X641694Y947322D01*
X640589Y948843D01*
X639736Y950517D01*
X639155Y952304D01*
X638954Y953577D01*
X649277Y953577D01*
X649277Y943254D01*
X648004Y943455D01*
G37*
%LPD*%
%LPC*%
G36*
X825804Y943455D02*
X825804Y943455D01*
X824017Y944036D01*
X822343Y944889D01*
X820822Y945994D01*
X819494Y947322D01*
X818389Y948843D01*
X817536Y950517D01*
X816955Y952304D01*
X816754Y953577D01*
X827077Y953577D01*
X827077Y943254D01*
X825804Y943455D01*
G37*
%LPD*%
%LPC*%
G36*
X521004Y918055D02*
X521004Y918055D01*
X519217Y918636D01*
X517543Y919489D01*
X516022Y920594D01*
X514694Y921922D01*
X513589Y923443D01*
X512736Y925117D01*
X512155Y926904D01*
X511954Y928177D01*
X522277Y928177D01*
X522277Y917854D01*
X521004Y918055D01*
G37*
%LPD*%
%LPC*%
G36*
X775004Y943455D02*
X775004Y943455D01*
X773217Y944036D01*
X771543Y944889D01*
X770022Y945994D01*
X768694Y947322D01*
X767589Y948843D01*
X766736Y950517D01*
X766155Y952304D01*
X765954Y953577D01*
X776277Y953577D01*
X776277Y943254D01*
X775004Y943455D01*
G37*
%LPD*%
%LPC*%
G36*
X470204Y943455D02*
X470204Y943455D01*
X468417Y944036D01*
X466743Y944889D01*
X465222Y945994D01*
X463894Y947322D01*
X462789Y948843D01*
X461936Y950517D01*
X461355Y952304D01*
X461154Y953577D01*
X471477Y953577D01*
X471477Y943254D01*
X470204Y943455D01*
G37*
%LPD*%
%LPC*%
G36*
X902004Y918055D02*
X902004Y918055D01*
X900217Y918636D01*
X898543Y919489D01*
X897022Y920594D01*
X895694Y921922D01*
X894589Y923443D01*
X893736Y925117D01*
X893155Y926904D01*
X892954Y928177D01*
X903277Y928177D01*
X903277Y917854D01*
X902004Y918055D01*
G37*
%LPD*%
%LPC*%
G36*
X724204Y918055D02*
X724204Y918055D01*
X722417Y918636D01*
X720743Y919489D01*
X719222Y920594D01*
X717894Y921922D01*
X716789Y923443D01*
X715936Y925117D01*
X715355Y926904D01*
X715154Y928177D01*
X725477Y928177D01*
X725477Y917854D01*
X724204Y918055D01*
G37*
%LPD*%
%LPC*%
G36*
X673323Y344023D02*
X673323Y344023D01*
X673323Y353423D01*
X676324Y353423D01*
X682723Y347024D01*
X682723Y344023D01*
X673323Y344023D01*
G37*
%LPD*%
%LPC*%
G36*
X791723Y343823D02*
X791723Y343823D01*
X791723Y353223D01*
X794724Y353223D01*
X801123Y346824D01*
X801123Y343823D01*
X791723Y343823D01*
G37*
%LPD*%
%LPC*%
G36*
X555223Y343823D02*
X555223Y343823D01*
X555223Y353223D01*
X558224Y353223D01*
X564623Y346824D01*
X564623Y343823D01*
X555223Y343823D01*
G37*
%LPD*%
%LPC*%
G36*
X432223Y343823D02*
X432223Y343823D01*
X432223Y353223D01*
X435224Y353223D01*
X441623Y346824D01*
X441623Y343823D01*
X432223Y343823D01*
G37*
%LPD*%
%LPC*%
G36*
X673323Y331577D02*
X673323Y331577D01*
X673323Y340977D01*
X682723Y340977D01*
X682723Y337976D01*
X676324Y331577D01*
X673323Y331577D01*
G37*
%LPD*%
%LPC*%
G36*
X542777Y343823D02*
X542777Y343823D01*
X542777Y346824D01*
X549176Y353223D01*
X552177Y353223D01*
X552177Y343823D01*
X542777Y343823D01*
G37*
%LPD*%
%LPC*%
G36*
X779277Y343823D02*
X779277Y343823D01*
X779277Y346824D01*
X785676Y353223D01*
X788677Y353223D01*
X788677Y343823D01*
X779277Y343823D01*
G37*
%LPD*%
%LPC*%
G36*
X419777Y343823D02*
X419777Y343823D01*
X419777Y346824D01*
X426176Y353223D01*
X429177Y353223D01*
X429177Y343823D01*
X419777Y343823D01*
G37*
%LPD*%
%LPC*%
G36*
X660877Y344023D02*
X660877Y344023D01*
X660877Y347024D01*
X667276Y353423D01*
X670277Y353423D01*
X670277Y344023D01*
X660877Y344023D01*
G37*
%LPD*%
%LPC*%
G36*
X432223Y331377D02*
X432223Y331377D01*
X432223Y340777D01*
X441623Y340777D01*
X441623Y337776D01*
X435224Y331377D01*
X432223Y331377D01*
G37*
%LPD*%
%LPC*%
G36*
X555223Y331377D02*
X555223Y331377D01*
X555223Y340777D01*
X564623Y340777D01*
X564623Y337776D01*
X558224Y331377D01*
X555223Y331377D01*
G37*
%LPD*%
%LPC*%
G36*
X791723Y331377D02*
X791723Y331377D01*
X791723Y340777D01*
X801123Y340777D01*
X801123Y337776D01*
X794724Y331377D01*
X791723Y331377D01*
G37*
%LPD*%
%LPC*%
G36*
X426176Y331377D02*
X426176Y331377D01*
X419777Y337776D01*
X419777Y340777D01*
X429177Y340777D01*
X429177Y331377D01*
X426176Y331377D01*
G37*
%LPD*%
%LPC*%
G36*
X667276Y331577D02*
X667276Y331577D01*
X660877Y337976D01*
X660877Y340977D01*
X670277Y340977D01*
X670277Y331577D01*
X667276Y331577D01*
G37*
%LPD*%
%LPC*%
G36*
X549176Y331377D02*
X549176Y331377D01*
X542777Y337776D01*
X542777Y340777D01*
X552177Y340777D01*
X552177Y331377D01*
X549176Y331377D01*
G37*
%LPD*%
%LPC*%
G36*
X785676Y331377D02*
X785676Y331377D01*
X779277Y337776D01*
X779277Y340777D01*
X788677Y340777D01*
X788677Y331377D01*
X785676Y331377D01*
G37*
%LPD*%
%LPC*%
G36*
X1036423Y736023D02*
X1036423Y736023D01*
X1036423Y744032D01*
X1037160Y743915D01*
X1038605Y743446D01*
X1039959Y742756D01*
X1041188Y741863D01*
X1042263Y740788D01*
X1043156Y739559D01*
X1043846Y738205D01*
X1044315Y736760D01*
X1044432Y736023D01*
X1036423Y736023D01*
G37*
%LPD*%
%LPC*%
G36*
X1035823Y603823D02*
X1035823Y603823D01*
X1035823Y611832D01*
X1036560Y611715D01*
X1038005Y611246D01*
X1039359Y610556D01*
X1040588Y609663D01*
X1041663Y608588D01*
X1042556Y607359D01*
X1043246Y606005D01*
X1043715Y604560D01*
X1043832Y603823D01*
X1035823Y603823D01*
G37*
%LPD*%
%LPC*%
G36*
X1036423Y732977D02*
X1036423Y732977D01*
X1044432Y732977D01*
X1044315Y732240D01*
X1043846Y730795D01*
X1043156Y729441D01*
X1042263Y728212D01*
X1041188Y727137D01*
X1039959Y726244D01*
X1038605Y725554D01*
X1037160Y725085D01*
X1036423Y724968D01*
X1036423Y732977D01*
G37*
%LPD*%
%LPC*%
G36*
X1035823Y600777D02*
X1035823Y600777D01*
X1043832Y600777D01*
X1043715Y600040D01*
X1043246Y598595D01*
X1042556Y597241D01*
X1041663Y596012D01*
X1040588Y594937D01*
X1039359Y594044D01*
X1038005Y593354D01*
X1036560Y592885D01*
X1035823Y592768D01*
X1035823Y600777D01*
G37*
%LPD*%
%LPC*%
G36*
X1024768Y603823D02*
X1024768Y603823D01*
X1024885Y604560D01*
X1025354Y606005D01*
X1026044Y607359D01*
X1026937Y608588D01*
X1028012Y609663D01*
X1029241Y610556D01*
X1030595Y611246D01*
X1032040Y611715D01*
X1032777Y611832D01*
X1032777Y603823D01*
X1024768Y603823D01*
G37*
%LPD*%
%LPC*%
G36*
X1025368Y736023D02*
X1025368Y736023D01*
X1025485Y736760D01*
X1025954Y738205D01*
X1026644Y739559D01*
X1027537Y740788D01*
X1028612Y741863D01*
X1029841Y742756D01*
X1031195Y743446D01*
X1032640Y743915D01*
X1033377Y744032D01*
X1033377Y736023D01*
X1025368Y736023D01*
G37*
%LPD*%
%LPC*%
G36*
X1032640Y725085D02*
X1032640Y725085D01*
X1031195Y725554D01*
X1029841Y726244D01*
X1028612Y727137D01*
X1027537Y728212D01*
X1026644Y729441D01*
X1025954Y730795D01*
X1025485Y732240D01*
X1025368Y732977D01*
X1033377Y732977D01*
X1033377Y724968D01*
X1032640Y725085D01*
G37*
%LPD*%
%LPC*%
G36*
X1032040Y592885D02*
X1032040Y592885D01*
X1030595Y593354D01*
X1029241Y594044D01*
X1028012Y594937D01*
X1026937Y596012D01*
X1026044Y597241D01*
X1025354Y598595D01*
X1024885Y600040D01*
X1024768Y600777D01*
X1032777Y600777D01*
X1032777Y592768D01*
X1032040Y592885D01*
G37*
%LPD*%
%LPC*%
G36*
X249823Y719523D02*
X249823Y719523D01*
X249823Y727459D01*
X250543Y727345D01*
X251978Y726879D01*
X253321Y726194D01*
X254542Y725308D01*
X255608Y724242D01*
X256494Y723021D01*
X257179Y721678D01*
X257645Y720243D01*
X257759Y719523D01*
X249823Y719523D01*
G37*
%LPD*%
%LPC*%
G36*
X249223Y875923D02*
X249223Y875923D01*
X249223Y883859D01*
X249943Y883745D01*
X251378Y883279D01*
X252721Y882594D01*
X253942Y881708D01*
X255008Y880642D01*
X255894Y879421D01*
X256579Y878078D01*
X257045Y876643D01*
X257159Y875923D01*
X249223Y875923D01*
G37*
%LPD*%
%LPC*%
G36*
X269223Y755923D02*
X269223Y755923D01*
X269223Y763859D01*
X269943Y763745D01*
X271378Y763279D01*
X272721Y762594D01*
X273942Y761708D01*
X275008Y760642D01*
X275894Y759421D01*
X276579Y758078D01*
X277045Y756643D01*
X277159Y755923D01*
X269223Y755923D01*
G37*
%LPD*%
%LPC*%
G36*
X269823Y599523D02*
X269823Y599523D01*
X269823Y607459D01*
X270543Y607345D01*
X271978Y606879D01*
X273321Y606194D01*
X274542Y605308D01*
X275608Y604242D01*
X276494Y603021D01*
X277179Y601678D01*
X277645Y600243D01*
X277759Y599523D01*
X269823Y599523D01*
G37*
%LPD*%
%LPC*%
G36*
X258841Y599523D02*
X258841Y599523D01*
X258955Y600243D01*
X259421Y601678D01*
X260106Y603021D01*
X260992Y604242D01*
X262058Y605308D01*
X263279Y606194D01*
X264622Y606879D01*
X266057Y607345D01*
X266777Y607459D01*
X266777Y599523D01*
X258841Y599523D01*
G37*
%LPD*%
%LPC*%
G36*
X269823Y596477D02*
X269823Y596477D01*
X277759Y596477D01*
X277645Y595757D01*
X277179Y594322D01*
X276494Y592979D01*
X275608Y591758D01*
X274542Y590692D01*
X273321Y589806D01*
X271978Y589121D01*
X270543Y588655D01*
X269823Y588541D01*
X269823Y596477D01*
G37*
%LPD*%
%LPC*%
G36*
X238841Y719523D02*
X238841Y719523D01*
X238955Y720243D01*
X239421Y721678D01*
X240106Y723021D01*
X240992Y724242D01*
X242058Y725308D01*
X243279Y726194D01*
X244622Y726879D01*
X246057Y727345D01*
X246777Y727459D01*
X246777Y719523D01*
X238841Y719523D01*
G37*
%LPD*%
%LPC*%
G36*
X249223Y872877D02*
X249223Y872877D01*
X257159Y872877D01*
X257045Y872157D01*
X256579Y870722D01*
X255894Y869379D01*
X255008Y868158D01*
X253942Y867092D01*
X252721Y866206D01*
X251378Y865521D01*
X249943Y865055D01*
X249223Y864941D01*
X249223Y872877D01*
G37*
%LPD*%
%LPC*%
G36*
X258241Y755923D02*
X258241Y755923D01*
X258355Y756643D01*
X258821Y758078D01*
X259506Y759421D01*
X260392Y760642D01*
X261458Y761708D01*
X262679Y762594D01*
X264022Y763279D01*
X265457Y763745D01*
X266177Y763859D01*
X266177Y755923D01*
X258241Y755923D01*
G37*
%LPD*%
%LPC*%
G36*
X269223Y752877D02*
X269223Y752877D01*
X277159Y752877D01*
X277045Y752157D01*
X276579Y750722D01*
X275894Y749379D01*
X275008Y748158D01*
X273942Y747092D01*
X272721Y746206D01*
X271378Y745521D01*
X269943Y745055D01*
X269223Y744941D01*
X269223Y752877D01*
G37*
%LPD*%
%LPC*%
G36*
X238241Y875923D02*
X238241Y875923D01*
X238355Y876643D01*
X238821Y878078D01*
X239506Y879421D01*
X240392Y880642D01*
X241458Y881708D01*
X242679Y882594D01*
X244022Y883279D01*
X245457Y883745D01*
X246177Y883859D01*
X246177Y875923D01*
X238241Y875923D01*
G37*
%LPD*%
%LPC*%
G36*
X249823Y716477D02*
X249823Y716477D01*
X257759Y716477D01*
X257645Y715757D01*
X257179Y714322D01*
X256494Y712979D01*
X255608Y711758D01*
X254542Y710692D01*
X253321Y709806D01*
X251978Y709121D01*
X250543Y708655D01*
X249823Y708541D01*
X249823Y716477D01*
G37*
%LPD*%
%LPC*%
G36*
X265659Y745023D02*
X265659Y745023D01*
X265651Y745023D01*
X265644Y745025D01*
X265623Y745025D01*
X265614Y745029D01*
X265589Y745031D01*
X265566Y745038D01*
X265456Y745055D01*
X264022Y745521D01*
X262679Y746206D01*
X261458Y747092D01*
X260392Y748158D01*
X259506Y749379D01*
X258821Y750722D01*
X258355Y752157D01*
X258241Y752877D01*
X266177Y752877D01*
X266177Y744941D01*
X265659Y745023D01*
G37*
%LPD*%
%LPC*%
G36*
X245457Y865055D02*
X245457Y865055D01*
X244022Y865521D01*
X242679Y866206D01*
X241458Y867092D01*
X240392Y868158D01*
X239506Y869379D01*
X238821Y870722D01*
X238355Y872157D01*
X238241Y872877D01*
X246177Y872877D01*
X246177Y864941D01*
X245457Y865055D01*
G37*
%LPD*%
%LPC*%
G36*
X266057Y588655D02*
X266057Y588655D01*
X264622Y589121D01*
X263279Y589806D01*
X262058Y590692D01*
X260992Y591758D01*
X260106Y592979D01*
X259421Y594322D01*
X258955Y595757D01*
X258841Y596477D01*
X266777Y596477D01*
X266777Y588541D01*
X266057Y588655D01*
G37*
%LPD*%
%LPC*%
G36*
X246057Y708655D02*
X246057Y708655D01*
X244622Y709121D01*
X243279Y709806D01*
X242058Y710692D01*
X240992Y711758D01*
X240106Y712979D01*
X239421Y714322D01*
X238955Y715757D01*
X238841Y716477D01*
X246777Y716477D01*
X246777Y708541D01*
X246057Y708655D01*
G37*
%LPD*%
%LPC*%
G36*
X248299Y717999D02*
X248299Y717999D01*
X248299Y718001D01*
X248301Y718001D01*
X248301Y717999D01*
X248299Y717999D01*
G37*
%LPD*%
%LPC*%
G36*
X247699Y874399D02*
X247699Y874399D01*
X247699Y874401D01*
X247701Y874401D01*
X247701Y874399D01*
X247699Y874399D01*
G37*
%LPD*%
%LPC*%
G36*
X885599Y577399D02*
X885599Y577399D01*
X885599Y577401D01*
X885601Y577401D01*
X885601Y577399D01*
X885599Y577399D01*
G37*
%LPD*%
%LPC*%
G36*
X726999Y929699D02*
X726999Y929699D01*
X726999Y929701D01*
X727001Y929701D01*
X727001Y929699D01*
X726999Y929699D01*
G37*
%LPD*%
%LPC*%
G36*
X904799Y929699D02*
X904799Y929699D01*
X904799Y929701D01*
X904801Y929701D01*
X904801Y929699D01*
X904799Y929699D01*
G37*
%LPD*%
%LPC*%
G36*
X268299Y597999D02*
X268299Y597999D01*
X268299Y598001D01*
X268301Y598001D01*
X268301Y597999D01*
X268299Y597999D01*
G37*
%LPD*%
%LPC*%
G36*
X523799Y929699D02*
X523799Y929699D01*
X523799Y929701D01*
X523801Y929701D01*
X523801Y929699D01*
X523799Y929699D01*
G37*
%LPD*%
%LPC*%
G36*
X1034299Y602299D02*
X1034299Y602299D01*
X1034299Y602301D01*
X1034301Y602301D01*
X1034301Y602299D01*
X1034299Y602299D01*
G37*
%LPD*%
%LPC*%
G36*
X650799Y955099D02*
X650799Y955099D01*
X650799Y955101D01*
X650801Y955101D01*
X650801Y955099D01*
X650799Y955099D01*
G37*
%LPD*%
%LPC*%
G36*
X267699Y754399D02*
X267699Y754399D01*
X267699Y754401D01*
X267701Y754401D01*
X267701Y754399D01*
X267699Y754399D01*
G37*
%LPD*%
%LPC*%
G36*
X252799Y520899D02*
X252799Y520899D01*
X252799Y520901D01*
X252801Y520901D01*
X252801Y520899D01*
X252799Y520899D01*
G37*
%LPD*%
%LPC*%
G36*
X789019Y610559D02*
X789019Y610559D01*
X789019Y610561D01*
X789021Y610561D01*
X789021Y610559D01*
X789019Y610559D01*
G37*
%LPD*%
%LPC*%
G36*
X671799Y342499D02*
X671799Y342499D01*
X671799Y342501D01*
X671801Y342501D01*
X671801Y342499D01*
X671799Y342499D01*
G37*
%LPD*%
%LPC*%
G36*
X430699Y342299D02*
X430699Y342299D01*
X430699Y342301D01*
X430701Y342301D01*
X430701Y342299D01*
X430699Y342299D01*
G37*
%LPD*%
%LPC*%
G36*
X790199Y342299D02*
X790199Y342299D01*
X790199Y342301D01*
X790201Y342301D01*
X790201Y342299D01*
X790199Y342299D01*
G37*
%LPD*%
%LPC*%
G36*
X553699Y342299D02*
X553699Y342299D01*
X553699Y342301D01*
X553701Y342301D01*
X553701Y342299D01*
X553699Y342299D01*
G37*
%LPD*%
%LPC*%
G36*
X252799Y457899D02*
X252799Y457899D01*
X252799Y457901D01*
X252801Y457901D01*
X252801Y457899D01*
X252799Y457899D01*
G37*
%LPD*%
%LPC*%
G36*
X392779Y610559D02*
X392779Y610559D01*
X392779Y610561D01*
X392781Y610561D01*
X392781Y610559D01*
X392779Y610559D01*
G37*
%LPD*%
%LPC*%
G36*
X472999Y955099D02*
X472999Y955099D01*
X472999Y955101D01*
X473001Y955101D01*
X473001Y955099D01*
X472999Y955099D01*
G37*
%LPD*%
%LPC*%
G36*
X828599Y955099D02*
X828599Y955099D01*
X828599Y955101D01*
X828601Y955101D01*
X828601Y955099D01*
X828599Y955099D01*
G37*
%LPD*%
%LPC*%
G36*
X777799Y955099D02*
X777799Y955099D01*
X777799Y955101D01*
X777801Y955101D01*
X777801Y955099D01*
X777799Y955099D01*
G37*
%LPD*%
%LPC*%
G36*
X788719Y841059D02*
X788719Y841059D01*
X788719Y841061D01*
X788721Y841061D01*
X788721Y841059D01*
X788719Y841059D01*
G37*
%LPD*%
%LPC*%
G36*
X392479Y841059D02*
X392479Y841059D01*
X392479Y841061D01*
X392481Y841061D01*
X392481Y841059D01*
X392479Y841059D01*
G37*
%LPD*%
%LPC*%
G36*
X1034899Y734499D02*
X1034899Y734499D01*
X1034899Y734501D01*
X1034901Y734501D01*
X1034901Y734499D01*
X1034899Y734499D01*
G37*
%LPD*%
%LPC*%
G36*
X574599Y955099D02*
X574599Y955099D01*
X574599Y955101D01*
X574601Y955101D01*
X574601Y955099D01*
X574599Y955099D01*
G37*
%LPD*%
D10*
X1034300Y582300D03*
X1034300Y602300D03*
D11*
X422200Y929700D03*
X422200Y955100D03*
X447600Y929700D03*
X447600Y955100D03*
X473000Y929700D03*
X473000Y955100D03*
X498400Y929700D03*
X498400Y955100D03*
X523800Y929700D03*
X523800Y955100D03*
X549200Y929700D03*
X549200Y955100D03*
X574600Y929700D03*
X574600Y955100D03*
X600000Y929700D03*
X600000Y955100D03*
X625400Y929700D03*
X625400Y955100D03*
X650800Y929700D03*
X650800Y955100D03*
X676200Y929700D03*
X676200Y955100D03*
X701600Y929700D03*
X701600Y955100D03*
X727000Y929700D03*
X727000Y955100D03*
X752400Y929700D03*
X752400Y955100D03*
X777800Y929700D03*
X777800Y955100D03*
X803200Y929700D03*
X803200Y955100D03*
X828600Y929700D03*
X828600Y955100D03*
X854000Y929700D03*
X854000Y955100D03*
X879400Y929700D03*
X879400Y955100D03*
X904800Y929700D03*
X904800Y955100D03*
D12*
X764800Y342300D03*
X790200Y342300D03*
X405300Y342300D03*
X430700Y342300D03*
X528300Y342300D03*
X553700Y342300D03*
X646400Y342500D03*
X671800Y342500D03*
D13*
X717900Y317500D03*
X717900Y368300D03*
D14*
X354100Y368200D03*
X354100Y317400D03*
D13*
X472900Y318100D03*
X472900Y368900D03*
X596900Y317900D03*
X596900Y368700D03*
D15*
X788720Y668340D03*
X788720Y841060D03*
X392480Y841060D03*
X392480Y668340D03*
D16*
X889700Y441700D03*
X936690Y441700D03*
X842710Y441700D03*
X864300Y314700D03*
X915100Y314700D03*
D10*
X1034900Y714500D03*
X1034900Y734500D03*
D17*
X248300Y718000D03*
X268300Y718000D03*
X248300Y698000D03*
X268300Y698000D03*
X248300Y678000D03*
X268300Y678000D03*
X248300Y658000D03*
X268300Y658000D03*
X248300Y638000D03*
X268300Y638000D03*
X248300Y618000D03*
X268300Y618000D03*
X248300Y598000D03*
X268300Y598000D03*
X247700Y874400D03*
X267700Y874400D03*
X247700Y854400D03*
X267700Y854400D03*
X247700Y834400D03*
X267700Y834400D03*
X247700Y814400D03*
X267700Y814400D03*
X247700Y794400D03*
X267700Y794400D03*
X247700Y774400D03*
X267700Y774400D03*
X247700Y754400D03*
X267700Y754400D03*
D15*
X789020Y437840D03*
X789020Y610560D03*
X392780Y610560D03*
X392780Y437840D03*
D18*
X303600Y513360D02*
X303600Y528440D01*
X278200Y528440D02*
X278200Y513360D01*
X252800Y513360D02*
X252800Y528440D01*
X303600Y465440D02*
X303600Y450360D01*
X278200Y450360D02*
X278200Y465440D01*
X252800Y465440D02*
X252800Y450360D01*
D19*
X885600Y569018D02*
X885600Y585782D01*
X911000Y585782D02*
X911000Y569018D01*
X936400Y569018D02*
X936400Y585782D01*
D11*
X308000Y846000D03*
X308000Y871400D03*
D20*
X384000Y760000D03*
X606000Y718000D03*
X507000Y831000D03*
X217000Y982000D03*
X354000Y746000D03*
D21*
X225000Y731250D02*
X225000Y728750D01*
X223750Y727500D01*
X223750Y647500D01*
X225000Y647500D01*
X357500Y822500D02*
X308750Y871250D01*
X357500Y686250D02*
X357500Y660000D01*
X308750Y871250D02*
X308000Y871400D01*
D20*
X225000Y731250D03*
X225000Y647500D03*
X357500Y822500D03*
X357500Y686250D03*
X357500Y660000D03*
D22*
X718750Y317500D02*
X743750Y342500D01*
X763750Y342500D01*
X718750Y317500D02*
X717900Y317500D01*
X763750Y342500D02*
X764800Y342300D01*
X380000Y342500D02*
X355000Y367500D01*
X380000Y342500D02*
X405000Y342500D01*
X355000Y367500D02*
X354100Y368200D01*
X405000Y342500D02*
X405300Y342300D01*
X473750Y318750D02*
X497500Y342500D01*
X527500Y342500D01*
X473750Y318750D02*
X472900Y318100D01*
X527500Y342500D02*
X528300Y342300D01*
X597500Y318750D02*
X621250Y342500D01*
X646400Y342500D01*
X597500Y318750D02*
X596900Y317900D01*
D21*
X317500Y747500D02*
X317500Y772500D01*
D20*
X317500Y772500D03*
X317500Y747500D03*
D22*
X695000Y818750D02*
X726250Y850000D01*
D20*
X695000Y818750D03*
X726250Y850000D03*
D22*
X750000Y850000D02*
X707500Y807500D01*
D20*
X707500Y807500D03*
X750000Y850000D03*
D22*
X943750Y715000D02*
X597500Y368750D01*
X943750Y715000D02*
X943750Y982500D01*
X931250Y982500D01*
X928750Y985000D01*
X893750Y985000D01*
X886250Y977500D01*
X823750Y977500D01*
X802500Y956250D01*
X597500Y368750D02*
X596900Y368700D01*
X803200Y955100D02*
X802500Y956250D01*
D21*
X787500Y437500D02*
X718750Y368750D01*
X787500Y437500D02*
X788750Y437500D01*
X718750Y368750D02*
X717900Y368300D01*
X788750Y437500D02*
X789020Y437840D01*
X895000Y442500D02*
X1033750Y581250D01*
X895000Y442500D02*
X890000Y442500D01*
X1033750Y581250D02*
X1034300Y582300D01*
X890000Y442500D02*
X889700Y441700D01*
D22*
X776250Y776250D02*
X333750Y776250D01*
X895000Y977500D02*
X925000Y977500D01*
X895000Y977500D02*
X888750Y971250D01*
X872500Y971250D01*
X857500Y956250D01*
X855000Y956250D01*
X854000Y955100D01*
D20*
X333750Y776250D03*
X776250Y776250D03*
X925000Y977500D03*
D22*
X247500Y678750D02*
X232500Y693750D01*
X232500Y723750D01*
X242500Y733750D01*
X261250Y733750D01*
X262500Y732500D01*
X308750Y732500D01*
X311250Y730000D01*
X486250Y730000D01*
X513750Y892500D02*
X550000Y928750D01*
X248300Y678000D02*
X247500Y678750D01*
X549200Y929700D02*
X550000Y928750D01*
D20*
X486250Y730000D03*
X513750Y892500D03*
D22*
X412500Y638750D02*
X268750Y638750D01*
X631250Y857500D02*
X768750Y857500D01*
X268750Y638750D02*
X268300Y638000D01*
D20*
X412500Y638750D03*
X631250Y857500D03*
X768750Y857500D03*
D22*
X308750Y707500D02*
X287500Y686250D01*
X356250Y807500D02*
X367500Y818750D01*
X367500Y866250D01*
X336250Y897500D01*
X333750Y897500D01*
X385000Y950000D02*
X385000Y972500D01*
D20*
X287500Y686250D03*
X308750Y707500D03*
X356250Y807500D03*
X333750Y897500D03*
X385000Y950000D03*
X385000Y972500D03*
D22*
X247500Y657500D02*
X227500Y637500D01*
X227500Y570000D01*
X575000Y570000D01*
X773750Y768750D01*
X800000Y768750D01*
X928750Y897500D02*
X928750Y970000D01*
X911250Y970000D01*
X910000Y971250D01*
X897500Y971250D01*
X882500Y956250D01*
X880000Y956250D01*
X248300Y658000D02*
X247500Y657500D01*
X879400Y955100D02*
X880000Y956250D01*
D20*
X800000Y768750D03*
X928750Y897500D03*
D22*
X288750Y678750D02*
X268750Y658750D01*
X288750Y678750D02*
X337500Y678750D01*
X366250Y707500D01*
X492500Y707500D01*
X642500Y872500D02*
X676250Y906250D01*
X795000Y906250D01*
X801250Y912500D01*
X912500Y912500D01*
X922500Y922500D01*
X922500Y952500D01*
X907500Y952500D01*
X905000Y955000D01*
X268750Y658750D02*
X268300Y658000D01*
X904800Y955100D02*
X905000Y955000D01*
D20*
X492500Y707500D03*
X642500Y872500D03*
D22*
X427500Y911250D02*
X323750Y911250D01*
X427500Y911250D02*
X445000Y928750D01*
X447500Y928750D01*
X447600Y929700D01*
D20*
X323750Y911250D03*
D22*
X247500Y617500D02*
X233750Y603750D01*
X233750Y582500D01*
X327500Y582500D01*
X376250Y631250D01*
X416250Y631250D01*
X420000Y635000D01*
X420000Y695000D01*
X468750Y810000D02*
X468750Y857500D01*
X468750Y892500D02*
X468750Y928750D01*
X472500Y928750D01*
X248300Y618000D02*
X247500Y617500D01*
X472500Y928750D02*
X473000Y929700D01*
D20*
X420000Y695000D03*
X468750Y810000D03*
X468750Y857500D03*
X468750Y892500D03*
D22*
X305000Y715000D02*
X268750Y678750D01*
X305000Y715000D02*
X365000Y715000D01*
X420000Y892500D02*
X408750Y903750D01*
X407500Y903750D01*
X268750Y678750D02*
X268300Y678000D01*
D20*
X365000Y715000D03*
X420000Y892500D03*
X407500Y903750D03*
D22*
X292500Y722500D02*
X268750Y698750D01*
X292500Y722500D02*
X307500Y722500D01*
X371250Y882500D02*
X371250Y903750D01*
X268750Y698750D02*
X268300Y698000D01*
D20*
X307500Y722500D03*
X371250Y882500D03*
X371250Y903750D03*
D22*
X393750Y890000D02*
X398750Y885000D01*
X552500Y885000D01*
X596250Y928750D01*
X600000Y928750D01*
X600000Y929700D01*
D20*
X393750Y890000D03*
D22*
X396250Y972500D02*
X581250Y972500D01*
X597500Y956250D01*
X600000Y956250D01*
X600000Y955100D01*
D20*
X396250Y972500D03*
D22*
X247500Y815000D02*
X231250Y831250D01*
X228750Y831250D01*
X222500Y837500D01*
X316250Y903750D02*
X328750Y903750D01*
X330000Y905000D01*
X337500Y905000D01*
X377500Y865000D01*
X802500Y865000D01*
X247700Y814400D02*
X247500Y815000D01*
D20*
X222500Y837500D03*
X316250Y903750D03*
X802500Y865000D03*
D22*
X247500Y793750D02*
X232500Y778750D01*
X232500Y740000D01*
X263750Y740000D01*
X265000Y738750D01*
X311250Y738750D01*
X312500Y737500D01*
X496250Y737500D01*
X632500Y873750D02*
X671250Y912500D01*
X682500Y912500D01*
X698750Y928750D01*
X701250Y928750D01*
X247700Y794400D02*
X247500Y793750D01*
X701250Y928750D02*
X701600Y929700D01*
D20*
X496250Y737500D03*
X632500Y873750D03*
D22*
X232500Y838750D02*
X232500Y926250D01*
X355000Y942500D02*
X378750Y918750D01*
X378750Y897500D02*
X386250Y890000D01*
X386250Y878750D01*
X622500Y878750D01*
X672500Y928750D01*
X675000Y928750D01*
X676200Y929700D01*
D20*
X232500Y838750D03*
X232500Y926250D03*
X355000Y942500D03*
X378750Y918750D03*
X378750Y897500D03*
D22*
X308750Y895000D02*
X268750Y855000D01*
X308750Y895000D02*
X308750Y917500D01*
X318750Y917500D01*
X381250Y980000D01*
X678750Y980000D01*
X702500Y956250D01*
X268750Y855000D02*
X267700Y854400D01*
X701600Y955100D02*
X702500Y956250D01*
X518750Y800000D02*
X302500Y800000D01*
X616250Y897500D02*
X647500Y928750D01*
X650000Y928750D01*
X650800Y929700D01*
D20*
X302500Y800000D03*
X518750Y800000D03*
X616250Y897500D03*
D22*
X278750Y825000D02*
X268750Y815000D01*
X278750Y825000D02*
X340000Y825000D01*
X540000Y897500D02*
X571250Y928750D01*
X573750Y928750D01*
X268750Y815000D02*
X267700Y814400D01*
X573750Y928750D02*
X574600Y929700D01*
D20*
X340000Y825000D03*
X540000Y897500D03*
D22*
X271250Y791250D02*
X268750Y793750D01*
X271250Y791250D02*
X791250Y791250D01*
X268750Y793750D02*
X267700Y794400D01*
D20*
X791250Y791250D03*
D22*
X496250Y910000D02*
X478750Y892500D01*
X496250Y910000D02*
X496250Y928750D01*
X497500Y928750D01*
X498400Y929700D01*
D20*
X478750Y892500D03*
D22*
X408750Y563750D02*
X303750Y458750D01*
X408750Y563750D02*
X577500Y563750D01*
X775000Y761250D01*
X803750Y761250D01*
X810000Y767500D01*
X810000Y905000D01*
X805000Y905000D01*
X303750Y458750D02*
X303600Y457900D01*
D20*
X805000Y905000D03*
D22*
X277500Y783750D02*
X268750Y775000D01*
X277500Y783750D02*
X782500Y783750D01*
X783750Y782500D01*
X268750Y775000D02*
X267700Y774400D01*
D20*
X783750Y782500D03*
D22*
X423750Y957500D02*
X422500Y956250D01*
X423750Y957500D02*
X446250Y957500D01*
X447500Y956250D01*
X422500Y956250D02*
X422200Y955100D01*
X447500Y956250D02*
X447600Y955100D01*
M02*
