G04 EAGLE Gerber RS-274X export*
G75*
%MOMM*%
%FSLAX34Y34*%
%LPD*%
%INBottom Copper*%
%IPPOS*%
%AMOC8*
5,1,8,0,0,1.08239X$1,22.5*%
G01*
%ADD10C,1.422400*%
%ADD11C,1.879600*%
%ADD12P,1.814519X8X22.500000*%
%ADD13P,1.429621X8X112.500000*%
%ADD14P,1.429621X8X292.500000*%
%ADD15R,2.500000X2.500000*%
%ADD16C,2.819400*%
%ADD17C,1.408000*%
%ADD18C,1.508000*%
%ADD19C,1.676400*%
%ADD20C,0.300000*%
%ADD21C,0.756400*%
%ADD22C,0.700000*%

G36*
X857524Y299013D02*
X857524Y299013D01*
X857620Y299029D01*
X857716Y299038D01*
X857740Y299049D01*
X857766Y299053D01*
X857852Y299098D01*
X857941Y299138D01*
X857960Y299156D01*
X857984Y299168D01*
X858051Y299239D01*
X858122Y299304D01*
X858135Y299327D01*
X858153Y299347D01*
X858194Y299435D01*
X858241Y299520D01*
X858245Y299546D01*
X858256Y299570D01*
X858267Y299666D01*
X858284Y299762D01*
X858281Y299788D01*
X858283Y299814D01*
X858263Y299909D01*
X858249Y300005D01*
X858237Y300029D01*
X858231Y300055D01*
X858181Y300138D01*
X858137Y300224D01*
X858118Y300243D01*
X858105Y300266D01*
X858031Y300328D01*
X857961Y300397D01*
X857932Y300413D01*
X857918Y300425D01*
X857887Y300438D01*
X857815Y300478D01*
X855451Y301457D01*
X851057Y305851D01*
X848678Y311593D01*
X848678Y317807D01*
X851057Y323549D01*
X855451Y327943D01*
X861193Y330322D01*
X867407Y330322D01*
X873149Y327943D01*
X877543Y323549D01*
X879922Y317807D01*
X879922Y311593D01*
X877543Y305851D01*
X873149Y301457D01*
X870808Y300487D01*
X870725Y300435D01*
X870639Y300390D01*
X870621Y300371D01*
X870599Y300357D01*
X870537Y300282D01*
X870470Y300211D01*
X870459Y300188D01*
X870442Y300168D01*
X870407Y300077D01*
X870366Y299988D01*
X870363Y299962D01*
X870354Y299938D01*
X870350Y299841D01*
X870339Y299744D01*
X870345Y299718D01*
X870344Y299692D01*
X870371Y299598D01*
X870392Y299503D01*
X870405Y299481D01*
X870412Y299456D01*
X870468Y299376D01*
X870518Y299292D01*
X870538Y299275D01*
X870552Y299254D01*
X870631Y299196D01*
X870705Y299132D01*
X870729Y299123D01*
X870750Y299107D01*
X870843Y299077D01*
X870933Y299041D01*
X870965Y299037D01*
X870984Y299031D01*
X871017Y299031D01*
X871100Y299022D01*
X908239Y299048D01*
X908335Y299064D01*
X908432Y299073D01*
X908456Y299084D01*
X908482Y299088D01*
X908568Y299133D01*
X908657Y299173D01*
X908676Y299191D01*
X908699Y299203D01*
X908766Y299274D01*
X908838Y299339D01*
X908850Y299362D01*
X908869Y299382D01*
X908909Y299470D01*
X908956Y299555D01*
X908961Y299581D01*
X908972Y299605D01*
X908983Y299701D01*
X909000Y299797D01*
X908996Y299823D01*
X908999Y299849D01*
X908978Y299944D01*
X908964Y300040D01*
X908952Y300064D01*
X908947Y300089D01*
X908897Y300173D01*
X908853Y300259D01*
X908834Y300278D01*
X908820Y300301D01*
X908747Y300363D01*
X908677Y300432D01*
X908648Y300448D01*
X908633Y300460D01*
X908603Y300473D01*
X908530Y300512D01*
X906251Y301457D01*
X901857Y305851D01*
X899478Y311593D01*
X899478Y317807D01*
X901857Y323549D01*
X906251Y327943D01*
X911993Y330322D01*
X918207Y330322D01*
X923949Y327943D01*
X928343Y323549D01*
X930722Y317807D01*
X930722Y311593D01*
X928343Y305851D01*
X923949Y301457D01*
X921693Y300522D01*
X921610Y300470D01*
X921523Y300425D01*
X921506Y300406D01*
X921484Y300392D01*
X921421Y300317D01*
X921354Y300246D01*
X921343Y300223D01*
X921327Y300203D01*
X921292Y300112D01*
X921251Y300023D01*
X921248Y299997D01*
X921239Y299973D01*
X921234Y299876D01*
X921224Y299779D01*
X921229Y299753D01*
X921228Y299727D01*
X921255Y299634D01*
X921276Y299538D01*
X921290Y299516D01*
X921297Y299491D01*
X921352Y299411D01*
X921403Y299327D01*
X921422Y299311D01*
X921437Y299289D01*
X921516Y299231D01*
X921590Y299168D01*
X921614Y299158D01*
X921634Y299142D01*
X921727Y299112D01*
X921818Y299076D01*
X921850Y299072D01*
X921868Y299066D01*
X921901Y299067D01*
X921985Y299057D01*
X1061079Y299153D01*
X1061098Y299156D01*
X1061117Y299154D01*
X1061219Y299176D01*
X1061321Y299193D01*
X1061339Y299202D01*
X1061358Y299206D01*
X1061447Y299260D01*
X1061539Y299308D01*
X1061552Y299323D01*
X1061569Y299333D01*
X1061636Y299412D01*
X1061708Y299487D01*
X1061716Y299505D01*
X1061729Y299520D01*
X1061768Y299616D01*
X1061811Y299710D01*
X1061813Y299729D01*
X1061821Y299748D01*
X1061839Y299914D01*
X1061839Y988071D01*
X1061836Y988090D01*
X1061838Y988111D01*
X1061816Y988212D01*
X1061800Y988313D01*
X1061790Y988331D01*
X1061786Y988351D01*
X1061733Y988440D01*
X1061684Y988531D01*
X1061670Y988545D01*
X1061659Y988562D01*
X1061581Y988629D01*
X1061506Y988700D01*
X1061488Y988709D01*
X1061472Y988722D01*
X1061377Y988760D01*
X1061283Y988804D01*
X1061263Y988806D01*
X1061244Y988813D01*
X1061077Y988832D01*
X211921Y988247D01*
X211902Y988244D01*
X211883Y988246D01*
X211781Y988224D01*
X211679Y988207D01*
X211661Y988198D01*
X211642Y988194D01*
X211553Y988140D01*
X211461Y988092D01*
X211448Y988077D01*
X211431Y988067D01*
X211364Y987988D01*
X211292Y987913D01*
X211284Y987895D01*
X211271Y987880D01*
X211232Y987784D01*
X211189Y987690D01*
X211187Y987671D01*
X211179Y987652D01*
X211161Y987486D01*
X211161Y299329D01*
X211164Y299310D01*
X211162Y299289D01*
X211184Y299188D01*
X211200Y299087D01*
X211210Y299069D01*
X211214Y299049D01*
X211267Y298960D01*
X211316Y298869D01*
X211330Y298855D01*
X211341Y298838D01*
X211419Y298771D01*
X211494Y298700D01*
X211512Y298691D01*
X211528Y298678D01*
X211623Y298640D01*
X211717Y298596D01*
X211737Y298594D01*
X211756Y298587D01*
X211923Y298568D01*
X857524Y299013D01*
G37*
%LPC*%
G36*
X469533Y360771D02*
X469533Y360771D01*
X464771Y365533D01*
X464771Y372267D01*
X469510Y377006D01*
X469563Y377080D01*
X469623Y377149D01*
X469635Y377180D01*
X469654Y377206D01*
X469681Y377293D01*
X469715Y377378D01*
X469719Y377419D01*
X469726Y377441D01*
X469725Y377473D01*
X469733Y377544D01*
X469733Y451391D01*
X471728Y453386D01*
X472073Y453731D01*
X472115Y453789D01*
X472164Y453841D01*
X472186Y453888D01*
X472217Y453930D01*
X472238Y453999D01*
X472268Y454064D01*
X472274Y454116D01*
X472289Y454166D01*
X472287Y454237D01*
X472295Y454308D01*
X472284Y454359D01*
X472283Y454411D01*
X472258Y454479D01*
X472243Y454549D01*
X472216Y454593D01*
X472198Y454642D01*
X472153Y454698D01*
X472117Y454760D01*
X472077Y454794D01*
X472045Y454834D01*
X471984Y454873D01*
X471930Y454920D01*
X471881Y454939D01*
X471838Y454967D01*
X471768Y454985D01*
X471702Y455012D01*
X471630Y455020D01*
X471599Y455028D01*
X471576Y455026D01*
X471535Y455030D01*
X313426Y455030D01*
X313406Y455027D01*
X313387Y455029D01*
X313285Y455007D01*
X313183Y454991D01*
X313166Y454981D01*
X313146Y454977D01*
X313057Y454924D01*
X312966Y454875D01*
X312952Y454861D01*
X312935Y454851D01*
X312868Y454772D01*
X312796Y454697D01*
X312788Y454679D01*
X312775Y454664D01*
X312736Y454568D01*
X312693Y454474D01*
X312691Y454454D01*
X312683Y454436D01*
X312665Y454269D01*
X312665Y448557D01*
X311285Y445225D01*
X308735Y442675D01*
X305403Y441295D01*
X301797Y441295D01*
X298465Y442675D01*
X295915Y445225D01*
X294535Y448557D01*
X294535Y467243D01*
X295915Y470575D01*
X298465Y473125D01*
X301797Y474505D01*
X305403Y474505D01*
X308735Y473125D01*
X311285Y470575D01*
X312665Y467243D01*
X312665Y461841D01*
X312668Y461821D01*
X312666Y461802D01*
X312688Y461700D01*
X312704Y461598D01*
X312714Y461581D01*
X312718Y461561D01*
X312771Y461472D01*
X312820Y461381D01*
X312834Y461367D01*
X312844Y461350D01*
X312923Y461283D01*
X312998Y461211D01*
X313016Y461203D01*
X313031Y461190D01*
X313127Y461151D01*
X313221Y461108D01*
X313241Y461106D01*
X313259Y461098D01*
X313426Y461080D01*
X468928Y461080D01*
X469018Y461094D01*
X469109Y461102D01*
X469139Y461114D01*
X469171Y461119D01*
X469251Y461162D01*
X469335Y461198D01*
X469367Y461224D01*
X469388Y461235D01*
X469410Y461258D01*
X469466Y461303D01*
X753371Y745208D01*
X753424Y745282D01*
X753484Y745351D01*
X753496Y745381D01*
X753515Y745408D01*
X753542Y745495D01*
X753576Y745579D01*
X753580Y745620D01*
X753587Y745643D01*
X753586Y745675D01*
X753594Y745746D01*
X753594Y748658D01*
X756703Y751767D01*
X758222Y751767D01*
X758293Y751778D01*
X758365Y751780D01*
X758414Y751798D01*
X758465Y751806D01*
X758528Y751840D01*
X758596Y751865D01*
X758637Y751897D01*
X758683Y751922D01*
X758732Y751973D01*
X758788Y752018D01*
X758816Y752062D01*
X758852Y752100D01*
X758882Y752165D01*
X758921Y752225D01*
X758934Y752276D01*
X758956Y752323D01*
X758963Y752394D01*
X758981Y752464D01*
X758977Y752516D01*
X758983Y752567D01*
X758967Y752638D01*
X758962Y752709D01*
X758941Y752757D01*
X758930Y752808D01*
X758894Y752869D01*
X758866Y752935D01*
X758821Y752991D01*
X758804Y753019D01*
X758786Y753034D01*
X758761Y753066D01*
X748542Y763285D01*
X748484Y763327D01*
X748432Y763376D01*
X748385Y763398D01*
X748343Y763428D01*
X748274Y763449D01*
X748209Y763480D01*
X748157Y763485D01*
X748107Y763501D01*
X748036Y763499D01*
X747965Y763507D01*
X747914Y763496D01*
X747862Y763494D01*
X747794Y763470D01*
X747724Y763454D01*
X747680Y763428D01*
X747631Y763410D01*
X747575Y763365D01*
X747513Y763328D01*
X747479Y763289D01*
X747439Y763256D01*
X747400Y763196D01*
X747353Y763141D01*
X747334Y763093D01*
X747306Y763049D01*
X747288Y762980D01*
X747261Y762913D01*
X747253Y762842D01*
X747245Y762811D01*
X747247Y762787D01*
X747243Y762746D01*
X747243Y761227D01*
X744134Y758118D01*
X739738Y758118D01*
X737679Y760177D01*
X737605Y760230D01*
X737535Y760290D01*
X737505Y760302D01*
X737479Y760321D01*
X737392Y760348D01*
X737307Y760382D01*
X737266Y760386D01*
X737244Y760393D01*
X737212Y760392D01*
X737141Y760400D01*
X455099Y760400D01*
X455009Y760386D01*
X454918Y760378D01*
X454888Y760366D01*
X454856Y760361D01*
X454776Y760318D01*
X454692Y760282D01*
X454660Y760256D01*
X454639Y760245D01*
X454617Y760222D01*
X454561Y760177D01*
X372221Y677837D01*
X298855Y677837D01*
X298765Y677823D01*
X298674Y677815D01*
X298645Y677803D01*
X298613Y677798D01*
X298532Y677755D01*
X298448Y677719D01*
X298416Y677693D01*
X298395Y677682D01*
X298373Y677659D01*
X298317Y677614D01*
X296258Y675555D01*
X291862Y675555D01*
X288753Y678664D01*
X288753Y683060D01*
X291862Y686169D01*
X296258Y686169D01*
X298317Y684110D01*
X298391Y684057D01*
X298461Y683997D01*
X298491Y683985D01*
X298517Y683966D01*
X298604Y683939D01*
X298689Y683905D01*
X298730Y683901D01*
X298752Y683894D01*
X298784Y683895D01*
X298855Y683887D01*
X369400Y683887D01*
X369490Y683901D01*
X369581Y683909D01*
X369611Y683921D01*
X369643Y683926D01*
X369723Y683969D01*
X369807Y684005D01*
X369839Y684031D01*
X369860Y684042D01*
X369882Y684065D01*
X369938Y684110D01*
X452278Y766450D01*
X737141Y766450D01*
X737231Y766464D01*
X737322Y766472D01*
X737351Y766484D01*
X737383Y766489D01*
X737464Y766532D01*
X737548Y766568D01*
X737580Y766594D01*
X737601Y766605D01*
X737623Y766628D01*
X737679Y766673D01*
X739738Y768732D01*
X741257Y768732D01*
X741328Y768743D01*
X741400Y768745D01*
X741449Y768763D01*
X741500Y768771D01*
X741563Y768805D01*
X741631Y768830D01*
X741672Y768862D01*
X741718Y768887D01*
X741767Y768938D01*
X741823Y768983D01*
X741851Y769027D01*
X741887Y769065D01*
X741917Y769130D01*
X741956Y769190D01*
X741969Y769241D01*
X741991Y769288D01*
X741998Y769359D01*
X742016Y769429D01*
X742012Y769481D01*
X742018Y769532D01*
X742002Y769603D01*
X741997Y769674D01*
X741976Y769722D01*
X741965Y769773D01*
X741929Y769834D01*
X741901Y769900D01*
X741856Y769956D01*
X741839Y769984D01*
X741821Y769999D01*
X741796Y770031D01*
X643359Y868468D01*
X643301Y868510D01*
X643249Y868559D01*
X643202Y868581D01*
X643160Y868611D01*
X643091Y868632D01*
X643026Y868663D01*
X642974Y868668D01*
X642924Y868684D01*
X642853Y868682D01*
X642782Y868690D01*
X642731Y868679D01*
X642679Y868677D01*
X642611Y868653D01*
X642541Y868637D01*
X642497Y868611D01*
X642448Y868593D01*
X642392Y868548D01*
X642330Y868511D01*
X642296Y868472D01*
X642256Y868439D01*
X642217Y868379D01*
X642170Y868324D01*
X642151Y868276D01*
X642123Y868232D01*
X642105Y868163D01*
X642078Y868096D01*
X642070Y868025D01*
X642062Y867994D01*
X642064Y867970D01*
X642060Y867929D01*
X642060Y865279D01*
X638951Y862170D01*
X634555Y862170D01*
X632496Y864229D01*
X632422Y864282D01*
X632352Y864342D01*
X632322Y864354D01*
X632296Y864373D01*
X632209Y864400D01*
X632124Y864434D01*
X632083Y864438D01*
X632061Y864445D01*
X632029Y864444D01*
X631958Y864452D01*
X344261Y864452D01*
X344171Y864438D01*
X344080Y864430D01*
X344050Y864418D01*
X344018Y864413D01*
X343938Y864370D01*
X343854Y864334D01*
X343822Y864308D01*
X343801Y864297D01*
X343779Y864274D01*
X343723Y864229D01*
X276429Y796935D01*
X276383Y796871D01*
X276366Y796854D01*
X276359Y796839D01*
X276291Y796747D01*
X276289Y796741D01*
X276285Y796736D01*
X276251Y796624D01*
X276215Y796513D01*
X276215Y796506D01*
X276213Y796500D01*
X276216Y796383D01*
X276217Y796267D01*
X276219Y796260D01*
X276219Y796255D01*
X276226Y796237D01*
X276264Y796106D01*
X276265Y796104D01*
X276265Y792696D01*
X274961Y789548D01*
X272552Y787139D01*
X269404Y785835D01*
X265996Y785835D01*
X262848Y787139D01*
X260439Y789548D01*
X259135Y792696D01*
X259135Y796104D01*
X260439Y799252D01*
X262848Y801661D01*
X265996Y802965D01*
X269404Y802965D01*
X272115Y801842D01*
X272229Y801815D01*
X272342Y801786D01*
X272349Y801787D01*
X272355Y801785D01*
X272471Y801796D01*
X272588Y801805D01*
X272593Y801808D01*
X272600Y801808D01*
X272707Y801856D01*
X272814Y801902D01*
X272820Y801906D01*
X272824Y801908D01*
X272838Y801921D01*
X272945Y802007D01*
X339445Y868507D01*
X341440Y870502D01*
X631958Y870502D01*
X632048Y870516D01*
X632139Y870524D01*
X632168Y870536D01*
X632200Y870541D01*
X632281Y870584D01*
X632365Y870620D01*
X632397Y870646D01*
X632418Y870657D01*
X632440Y870680D01*
X632496Y870725D01*
X634555Y872784D01*
X637205Y872784D01*
X637276Y872795D01*
X637348Y872797D01*
X637397Y872815D01*
X637448Y872823D01*
X637511Y872857D01*
X637579Y872882D01*
X637620Y872914D01*
X637666Y872939D01*
X637715Y872990D01*
X637771Y873035D01*
X637799Y873079D01*
X637835Y873117D01*
X637865Y873182D01*
X637904Y873242D01*
X637917Y873293D01*
X637939Y873340D01*
X637946Y873411D01*
X637964Y873481D01*
X637960Y873533D01*
X637966Y873584D01*
X637950Y873655D01*
X637945Y873726D01*
X637924Y873774D01*
X637913Y873825D01*
X637877Y873886D01*
X637849Y873952D01*
X637804Y874008D01*
X637787Y874036D01*
X637769Y874051D01*
X637744Y874083D01*
X607022Y904805D01*
X606947Y904859D01*
X606877Y904919D01*
X606840Y904935D01*
X606822Y904949D01*
X606791Y904958D01*
X606724Y904989D01*
X605518Y905391D01*
X605480Y905397D01*
X605444Y905412D01*
X605277Y905430D01*
X554985Y905430D01*
X554915Y905419D01*
X554843Y905417D01*
X554794Y905399D01*
X554743Y905391D01*
X554679Y905357D01*
X554612Y905332D01*
X554571Y905300D01*
X554525Y905275D01*
X554476Y905223D01*
X554420Y905179D01*
X554392Y905135D01*
X554356Y905097D01*
X554326Y905032D01*
X554287Y904972D01*
X554274Y904921D01*
X554252Y904874D01*
X554244Y904803D01*
X554227Y904733D01*
X554231Y904681D01*
X554225Y904630D01*
X554240Y904559D01*
X554246Y904488D01*
X554266Y904440D01*
X554277Y904389D01*
X554314Y904328D01*
X554342Y904262D01*
X554387Y904206D01*
X554404Y904178D01*
X554421Y904163D01*
X554447Y904131D01*
X554973Y903605D01*
X554973Y899209D01*
X551864Y896100D01*
X547468Y896100D01*
X545409Y898159D01*
X545335Y898212D01*
X545265Y898272D01*
X545235Y898284D01*
X545209Y898303D01*
X545122Y898330D01*
X545037Y898364D01*
X544996Y898368D01*
X544974Y898375D01*
X544942Y898374D01*
X544871Y898382D01*
X357833Y898382D01*
X357743Y898368D01*
X357652Y898360D01*
X357622Y898348D01*
X357590Y898343D01*
X357510Y898300D01*
X357426Y898264D01*
X357394Y898238D01*
X357373Y898227D01*
X357351Y898204D01*
X357295Y898159D01*
X276324Y817188D01*
X276257Y817094D01*
X276186Y817000D01*
X276184Y816994D01*
X276181Y816989D01*
X276146Y816878D01*
X276110Y816766D01*
X276110Y816760D01*
X276108Y816754D01*
X276111Y816637D01*
X276112Y816520D01*
X276114Y816513D01*
X276115Y816508D01*
X276121Y816490D01*
X276159Y816359D01*
X276265Y816104D01*
X276265Y812696D01*
X274961Y809548D01*
X272552Y807139D01*
X269404Y805835D01*
X265996Y805835D01*
X262848Y807139D01*
X260439Y809548D01*
X259135Y812696D01*
X259135Y816104D01*
X260439Y819252D01*
X262848Y821661D01*
X265996Y822965D01*
X269404Y822965D01*
X271862Y821946D01*
X271976Y821920D01*
X272089Y821891D01*
X272096Y821892D01*
X272102Y821890D01*
X272218Y821901D01*
X272335Y821910D01*
X272340Y821913D01*
X272347Y821913D01*
X272454Y821961D01*
X272561Y822007D01*
X272567Y822011D01*
X272571Y822013D01*
X272585Y822026D01*
X272692Y822111D01*
X353017Y902437D01*
X355012Y904432D01*
X424199Y904432D01*
X424269Y904443D01*
X424341Y904445D01*
X424390Y904463D01*
X424441Y904471D01*
X424505Y904505D01*
X424572Y904530D01*
X424613Y904562D01*
X424659Y904587D01*
X424708Y904638D01*
X424764Y904683D01*
X424792Y904727D01*
X424828Y904765D01*
X424858Y904830D01*
X424897Y904890D01*
X424910Y904941D01*
X424932Y904988D01*
X424940Y905059D01*
X424957Y905129D01*
X424953Y905181D01*
X424959Y905232D01*
X424944Y905303D01*
X424938Y905374D01*
X424918Y905422D01*
X424907Y905473D01*
X424870Y905534D01*
X424842Y905600D01*
X424797Y905656D01*
X424780Y905684D01*
X424763Y905699D01*
X424737Y905731D01*
X424392Y906076D01*
X424318Y906129D01*
X424248Y906189D01*
X424218Y906201D01*
X424192Y906220D01*
X424105Y906247D01*
X424020Y906281D01*
X423979Y906285D01*
X423957Y906292D01*
X423925Y906291D01*
X423854Y906299D01*
X262829Y906299D01*
X262739Y906285D01*
X262648Y906277D01*
X262618Y906265D01*
X262586Y906260D01*
X262506Y906217D01*
X262422Y906181D01*
X262390Y906155D01*
X262369Y906144D01*
X262347Y906121D01*
X262291Y906076D01*
X236234Y880019D01*
X236181Y879945D01*
X236121Y879876D01*
X236109Y879846D01*
X236090Y879819D01*
X236063Y879732D01*
X236029Y879648D01*
X236025Y879607D01*
X236018Y879584D01*
X236019Y879552D01*
X236011Y879481D01*
X236011Y866783D01*
X236025Y866693D01*
X236033Y866602D01*
X236045Y866572D01*
X236050Y866540D01*
X236093Y866460D01*
X236129Y866376D01*
X236155Y866344D01*
X236166Y866323D01*
X236189Y866301D01*
X236234Y866245D01*
X241295Y861184D01*
X241311Y861172D01*
X241323Y861157D01*
X241410Y861101D01*
X241495Y861040D01*
X241514Y861034D01*
X241530Y861024D01*
X241631Y860998D01*
X241730Y860968D01*
X241750Y860968D01*
X241769Y860964D01*
X241872Y860972D01*
X241976Y860974D01*
X241994Y860981D01*
X242014Y860983D01*
X242109Y861023D01*
X242207Y861059D01*
X242222Y861071D01*
X242240Y861079D01*
X242371Y861184D01*
X242848Y861661D01*
X245996Y862965D01*
X249404Y862965D01*
X252552Y861661D01*
X254961Y859252D01*
X256265Y856104D01*
X256265Y852696D01*
X254961Y849548D01*
X252552Y847139D01*
X249404Y845835D01*
X245996Y845835D01*
X242848Y847139D01*
X240439Y849548D01*
X239135Y852696D01*
X239135Y854473D01*
X239121Y854563D01*
X239113Y854654D01*
X239101Y854684D01*
X239096Y854716D01*
X239053Y854796D01*
X239017Y854880D01*
X238991Y854912D01*
X238980Y854933D01*
X238957Y854955D01*
X238912Y855011D01*
X232786Y861137D01*
X232728Y861179D01*
X232676Y861228D01*
X232629Y861250D01*
X232587Y861281D01*
X232518Y861302D01*
X232453Y861332D01*
X232401Y861338D01*
X232351Y861353D01*
X232280Y861351D01*
X232209Y861359D01*
X232158Y861348D01*
X232106Y861347D01*
X232038Y861322D01*
X231968Y861307D01*
X231924Y861280D01*
X231875Y861262D01*
X231819Y861217D01*
X231757Y861181D01*
X231723Y861141D01*
X231683Y861109D01*
X231644Y861048D01*
X231597Y860994D01*
X231578Y860945D01*
X231550Y860902D01*
X231532Y860832D01*
X231505Y860766D01*
X231497Y860694D01*
X231489Y860663D01*
X231491Y860640D01*
X231487Y860599D01*
X231487Y810853D01*
X231498Y810783D01*
X231500Y810711D01*
X231518Y810662D01*
X231526Y810611D01*
X231560Y810547D01*
X231585Y810480D01*
X231617Y810439D01*
X231642Y810393D01*
X231694Y810344D01*
X231738Y810288D01*
X231782Y810260D01*
X231820Y810224D01*
X231885Y810194D01*
X231945Y810155D01*
X231996Y810142D01*
X232043Y810120D01*
X232114Y810112D01*
X232184Y810095D01*
X232236Y810099D01*
X232287Y810093D01*
X232358Y810108D01*
X232429Y810114D01*
X232477Y810134D01*
X232528Y810145D01*
X232589Y810182D01*
X232655Y810210D01*
X232711Y810255D01*
X232739Y810272D01*
X232754Y810289D01*
X232786Y810315D01*
X234181Y811710D01*
X238405Y811710D01*
X238450Y811717D01*
X238496Y811715D01*
X238571Y811737D01*
X238647Y811749D01*
X238688Y811771D01*
X238732Y811784D01*
X238796Y811828D01*
X238865Y811865D01*
X238896Y811898D01*
X238934Y811924D01*
X238981Y811987D01*
X239034Y812043D01*
X239054Y812085D01*
X239081Y812122D01*
X239105Y812196D01*
X239138Y812266D01*
X239143Y812312D01*
X239157Y812356D01*
X239156Y812433D01*
X239165Y812510D01*
X239155Y812555D01*
X239155Y812601D01*
X239135Y812668D01*
X239135Y816104D01*
X240439Y819252D01*
X242848Y821661D01*
X245996Y822965D01*
X249404Y822965D01*
X252552Y821661D01*
X254961Y819252D01*
X256265Y816104D01*
X256265Y812696D01*
X254961Y809548D01*
X252552Y807139D01*
X249404Y805835D01*
X245996Y805835D01*
X242738Y807185D01*
X242694Y807195D01*
X242652Y807215D01*
X242575Y807223D01*
X242499Y807241D01*
X242453Y807237D01*
X242408Y807242D01*
X242331Y807225D01*
X242254Y807218D01*
X242212Y807199D01*
X242167Y807189D01*
X242100Y807149D01*
X242029Y807118D01*
X241995Y807087D01*
X241956Y807063D01*
X241905Y807004D01*
X241848Y806951D01*
X241826Y806911D01*
X241796Y806876D01*
X241767Y806804D01*
X241730Y806736D01*
X241721Y806691D01*
X241704Y806648D01*
X241689Y806512D01*
X241686Y806494D01*
X241687Y806489D01*
X241686Y806481D01*
X241686Y804205D01*
X238577Y801096D01*
X236772Y801096D01*
X236752Y801093D01*
X236733Y801095D01*
X236631Y801073D01*
X236529Y801057D01*
X236512Y801047D01*
X236492Y801043D01*
X236403Y800990D01*
X236312Y800941D01*
X236298Y800927D01*
X236281Y800917D01*
X236214Y800838D01*
X236142Y800763D01*
X236134Y800745D01*
X236121Y800730D01*
X236082Y800634D01*
X236039Y800540D01*
X236037Y800520D01*
X236029Y800502D01*
X236011Y800335D01*
X236011Y712967D01*
X236025Y712877D01*
X236033Y712786D01*
X236045Y712756D01*
X236050Y712724D01*
X236093Y712644D01*
X236129Y712560D01*
X236155Y712528D01*
X236166Y712507D01*
X236189Y712485D01*
X236234Y712429D01*
X243056Y705607D01*
X243150Y705539D01*
X243244Y705469D01*
X243250Y705467D01*
X243255Y705463D01*
X243367Y705429D01*
X243478Y705393D01*
X243485Y705393D01*
X243491Y705391D01*
X243607Y705394D01*
X243724Y705395D01*
X243731Y705397D01*
X243736Y705397D01*
X243754Y705404D01*
X243885Y705442D01*
X246596Y706565D01*
X250004Y706565D01*
X253152Y705261D01*
X255561Y702852D01*
X256865Y699704D01*
X256865Y696296D01*
X255561Y693148D01*
X253152Y690739D01*
X250004Y689435D01*
X246596Y689435D01*
X243448Y690739D01*
X241039Y693148D01*
X239735Y696296D01*
X239735Y699704D01*
X239736Y699706D01*
X239763Y699820D01*
X239792Y699934D01*
X239791Y699940D01*
X239793Y699946D01*
X239782Y700062D01*
X239773Y700179D01*
X239770Y700184D01*
X239769Y700191D01*
X239721Y700299D01*
X239676Y700405D01*
X239672Y700411D01*
X239670Y700415D01*
X239657Y700430D01*
X239571Y700536D01*
X232786Y707321D01*
X232728Y707363D01*
X232676Y707412D01*
X232629Y707434D01*
X232587Y707465D01*
X232518Y707486D01*
X232453Y707516D01*
X232401Y707522D01*
X232351Y707537D01*
X232280Y707535D01*
X232209Y707543D01*
X232158Y707532D01*
X232106Y707531D01*
X232038Y707506D01*
X231968Y707491D01*
X231924Y707464D01*
X231875Y707446D01*
X231819Y707401D01*
X231757Y707365D01*
X231723Y707325D01*
X231683Y707293D01*
X231644Y707232D01*
X231597Y707178D01*
X231578Y707129D01*
X231550Y707086D01*
X231532Y707016D01*
X231505Y706950D01*
X231497Y706878D01*
X231489Y706847D01*
X231491Y706824D01*
X231487Y706783D01*
X231487Y697133D01*
X231501Y697043D01*
X231509Y696952D01*
X231521Y696922D01*
X231526Y696890D01*
X231569Y696810D01*
X231605Y696726D01*
X231631Y696694D01*
X231642Y696673D01*
X231665Y696651D01*
X231710Y696595D01*
X242803Y685502D01*
X242881Y685445D01*
X242942Y685394D01*
X242963Y685385D01*
X242991Y685364D01*
X242997Y685362D01*
X243002Y685358D01*
X243113Y685324D01*
X243117Y685323D01*
X243170Y685302D01*
X243189Y685300D01*
X243225Y685288D01*
X243231Y685288D01*
X243237Y685286D01*
X243297Y685288D01*
X243337Y685283D01*
X243351Y685283D01*
X243389Y685289D01*
X243471Y685290D01*
X243478Y685292D01*
X243483Y685292D01*
X243501Y685299D01*
X243571Y685319D01*
X243594Y685323D01*
X243606Y685329D01*
X243632Y685337D01*
X246596Y686565D01*
X250004Y686565D01*
X253152Y685261D01*
X255561Y682852D01*
X256865Y679704D01*
X256865Y676296D01*
X255561Y673148D01*
X253152Y670739D01*
X250004Y669435D01*
X246596Y669435D01*
X243448Y670739D01*
X241039Y673148D01*
X239735Y676296D01*
X239735Y679699D01*
X239721Y679789D01*
X239713Y679880D01*
X239701Y679910D01*
X239696Y679942D01*
X239653Y680022D01*
X239617Y680106D01*
X239591Y680138D01*
X239580Y680159D01*
X239557Y680181D01*
X239512Y680237D01*
X228262Y691487D01*
X228204Y691529D01*
X228152Y691578D01*
X228105Y691600D01*
X228063Y691631D01*
X227994Y691652D01*
X227929Y691682D01*
X227877Y691688D01*
X227827Y691703D01*
X227756Y691701D01*
X227685Y691709D01*
X227634Y691698D01*
X227582Y691697D01*
X227514Y691672D01*
X227444Y691657D01*
X227400Y691630D01*
X227351Y691612D01*
X227295Y691567D01*
X227233Y691531D01*
X227199Y691491D01*
X227159Y691459D01*
X227120Y691398D01*
X227073Y691344D01*
X227054Y691295D01*
X227026Y691252D01*
X227008Y691182D01*
X226981Y691116D01*
X226973Y691044D01*
X226965Y691013D01*
X226967Y690990D01*
X226963Y690949D01*
X226963Y681299D01*
X226977Y681209D01*
X226985Y681118D01*
X226997Y681088D01*
X227002Y681056D01*
X227045Y680976D01*
X227081Y680892D01*
X227107Y680860D01*
X227118Y680839D01*
X227141Y680817D01*
X227186Y680761D01*
X242549Y665397D01*
X242643Y665330D01*
X242738Y665259D01*
X242744Y665257D01*
X242749Y665254D01*
X242860Y665219D01*
X242972Y665183D01*
X242978Y665183D01*
X242984Y665181D01*
X243101Y665184D01*
X243218Y665185D01*
X243225Y665187D01*
X243230Y665188D01*
X243248Y665194D01*
X243379Y665232D01*
X246596Y666565D01*
X250004Y666565D01*
X253152Y665261D01*
X255561Y662852D01*
X256865Y659704D01*
X256865Y656296D01*
X255561Y653148D01*
X253152Y650739D01*
X250004Y649435D01*
X246596Y649435D01*
X243448Y650739D01*
X241039Y653148D01*
X239735Y656296D01*
X239735Y659341D01*
X239721Y659431D01*
X239713Y659522D01*
X239701Y659552D01*
X239696Y659584D01*
X239653Y659664D01*
X239617Y659748D01*
X239591Y659780D01*
X239580Y659801D01*
X239557Y659823D01*
X239512Y659879D01*
X220913Y678478D01*
X220913Y935459D01*
X270187Y984733D01*
X857420Y984733D01*
X876092Y966061D01*
X876186Y965993D01*
X876280Y965923D01*
X876286Y965921D01*
X876291Y965917D01*
X876403Y965883D01*
X876514Y965847D01*
X876520Y965847D01*
X876526Y965845D01*
X876643Y965848D01*
X876760Y965849D01*
X876767Y965851D01*
X876772Y965851D01*
X876790Y965858D01*
X876921Y965896D01*
X877227Y966023D01*
X881573Y966023D01*
X885587Y964360D01*
X888660Y961287D01*
X890323Y957273D01*
X890323Y952927D01*
X888660Y948913D01*
X885587Y945840D01*
X881573Y944177D01*
X877227Y944177D01*
X873213Y945840D01*
X870140Y948913D01*
X868477Y952927D01*
X868477Y957273D01*
X870140Y961287D01*
X870687Y961834D01*
X870699Y961850D01*
X870714Y961863D01*
X870767Y961945D01*
X870772Y961950D01*
X870775Y961957D01*
X870830Y962034D01*
X870836Y962053D01*
X870847Y962069D01*
X870870Y962161D01*
X870876Y962173D01*
X870877Y962185D01*
X870903Y962269D01*
X870902Y962289D01*
X870907Y962308D01*
X870900Y962395D01*
X870903Y962418D01*
X870898Y962438D01*
X870896Y962515D01*
X870890Y962533D01*
X870888Y962553D01*
X870858Y962624D01*
X870851Y962658D01*
X870834Y962686D01*
X870812Y962746D01*
X870799Y962761D01*
X870792Y962780D01*
X870737Y962848D01*
X870724Y962869D01*
X870710Y962881D01*
X870687Y962911D01*
X855137Y978460D01*
X855063Y978513D01*
X854994Y978573D01*
X854964Y978585D01*
X854937Y978604D01*
X854850Y978631D01*
X854766Y978665D01*
X854725Y978669D01*
X854702Y978676D01*
X854670Y978675D01*
X854599Y978683D01*
X840425Y978683D01*
X840354Y978672D01*
X840283Y978670D01*
X840234Y978652D01*
X840182Y978644D01*
X840119Y978610D01*
X840052Y978585D01*
X840011Y978553D01*
X839965Y978528D01*
X839916Y978477D01*
X839860Y978432D01*
X839831Y978388D01*
X839796Y978350D01*
X839765Y978285D01*
X839727Y978225D01*
X839714Y978174D01*
X839692Y978127D01*
X839684Y978056D01*
X839667Y977986D01*
X839671Y977934D01*
X839665Y977883D01*
X839680Y977812D01*
X839686Y977741D01*
X839706Y977693D01*
X839717Y977642D01*
X839754Y977581D01*
X839782Y977515D01*
X839827Y977459D01*
X839843Y977431D01*
X839861Y977416D01*
X839887Y977384D01*
X851058Y966213D01*
X851153Y966145D01*
X851247Y966075D01*
X851253Y966073D01*
X851258Y966069D01*
X851368Y966035D01*
X851481Y965999D01*
X851487Y965999D01*
X851493Y965997D01*
X851609Y966000D01*
X851727Y966001D01*
X851734Y966003D01*
X851739Y966003D01*
X851756Y966009D01*
X851802Y966023D01*
X856173Y966023D01*
X860187Y964360D01*
X863260Y961287D01*
X864923Y957273D01*
X864923Y952927D01*
X863260Y948913D01*
X860187Y945840D01*
X856173Y944177D01*
X851827Y944177D01*
X847813Y945840D01*
X844740Y948913D01*
X843077Y952927D01*
X843077Y957273D01*
X844740Y961287D01*
X845546Y962093D01*
X845558Y962109D01*
X845573Y962122D01*
X845629Y962209D01*
X845689Y962293D01*
X845695Y962312D01*
X845706Y962328D01*
X845731Y962429D01*
X845762Y962528D01*
X845761Y962548D01*
X845766Y962567D01*
X845758Y962670D01*
X845755Y962774D01*
X845749Y962792D01*
X845747Y962812D01*
X845707Y962907D01*
X845671Y963005D01*
X845658Y963020D01*
X845651Y963039D01*
X845546Y963170D01*
X834779Y973936D01*
X834705Y973989D01*
X834636Y974049D01*
X834606Y974061D01*
X834579Y974080D01*
X834492Y974107D01*
X834408Y974141D01*
X834367Y974145D01*
X834344Y974152D01*
X834312Y974151D01*
X834241Y974159D01*
X558806Y974159D01*
X558735Y974148D01*
X558664Y974146D01*
X558615Y974128D01*
X558563Y974120D01*
X558500Y974086D01*
X558433Y974061D01*
X558392Y974029D01*
X558346Y974004D01*
X558297Y973952D01*
X558241Y973908D01*
X558212Y973864D01*
X558177Y973826D01*
X558146Y973761D01*
X558108Y973701D01*
X558095Y973650D01*
X558073Y973603D01*
X558065Y973532D01*
X558048Y973462D01*
X558052Y973410D01*
X558046Y973359D01*
X558061Y973288D01*
X558067Y973217D01*
X558087Y973169D01*
X558098Y973118D01*
X558135Y973057D01*
X558163Y972991D01*
X558208Y972935D01*
X558224Y972907D01*
X558242Y972892D01*
X558268Y972860D01*
X560875Y970253D01*
X562870Y968258D01*
X562870Y964049D01*
X562884Y963959D01*
X562892Y963868D01*
X562904Y963838D01*
X562909Y963806D01*
X562952Y963726D01*
X562988Y963642D01*
X563014Y963610D01*
X563025Y963589D01*
X563048Y963567D01*
X563093Y963511D01*
X564120Y962484D01*
X564184Y962438D01*
X564243Y962384D01*
X564284Y962366D01*
X564319Y962341D01*
X564395Y962317D01*
X564468Y962285D01*
X564512Y962281D01*
X564554Y962268D01*
X564634Y962270D01*
X564713Y962263D01*
X564756Y962273D01*
X564800Y962275D01*
X564875Y962302D01*
X564952Y962320D01*
X564990Y962344D01*
X565031Y962359D01*
X565093Y962409D01*
X565161Y962451D01*
X565200Y962494D01*
X565223Y962513D01*
X565238Y962536D01*
X565274Y962575D01*
X565494Y962878D01*
X566822Y964206D01*
X568343Y965311D01*
X570017Y966164D01*
X571804Y966745D01*
X573077Y966946D01*
X573077Y955862D01*
X573080Y955842D01*
X573078Y955823D01*
X573100Y955721D01*
X573117Y955619D01*
X573126Y955602D01*
X573130Y955582D01*
X573183Y955493D01*
X573232Y955402D01*
X573246Y955388D01*
X573256Y955371D01*
X573335Y955304D01*
X573410Y955233D01*
X573428Y955224D01*
X573443Y955211D01*
X573539Y955173D01*
X573633Y955129D01*
X573653Y955127D01*
X573671Y955119D01*
X573838Y955101D01*
X574601Y955101D01*
X574601Y955099D01*
X573838Y955099D01*
X573818Y955096D01*
X573799Y955098D01*
X573697Y955076D01*
X573595Y955059D01*
X573578Y955050D01*
X573558Y955046D01*
X573469Y954993D01*
X573378Y954944D01*
X573364Y954930D01*
X573347Y954920D01*
X573280Y954841D01*
X573209Y954766D01*
X573200Y954748D01*
X573187Y954733D01*
X573148Y954637D01*
X573105Y954543D01*
X573103Y954523D01*
X573095Y954505D01*
X573077Y954338D01*
X573077Y943254D01*
X571804Y943455D01*
X570017Y944036D01*
X568343Y944889D01*
X566822Y945994D01*
X565494Y947322D01*
X565249Y947659D01*
X565192Y947715D01*
X565143Y947777D01*
X565105Y947801D01*
X565074Y947832D01*
X565003Y947867D01*
X564936Y947910D01*
X564893Y947921D01*
X564853Y947941D01*
X564774Y947951D01*
X564697Y947970D01*
X564653Y947967D01*
X564609Y947973D01*
X564531Y947957D01*
X564452Y947951D01*
X564411Y947934D01*
X564368Y947925D01*
X564299Y947886D01*
X564226Y947855D01*
X564180Y947818D01*
X564154Y947804D01*
X564136Y947783D01*
X564095Y947750D01*
X563530Y947185D01*
X563518Y947169D01*
X563503Y947157D01*
X563447Y947069D01*
X563386Y946986D01*
X563381Y946967D01*
X563370Y946950D01*
X563344Y946849D01*
X563314Y946750D01*
X563315Y946731D01*
X563310Y946711D01*
X563318Y946608D01*
X563320Y946505D01*
X563327Y946486D01*
X563329Y946466D01*
X563369Y946371D01*
X563405Y946274D01*
X563417Y946258D01*
X563425Y946240D01*
X563530Y946109D01*
X564001Y945638D01*
X564001Y943132D01*
X562006Y941137D01*
X558146Y937278D01*
X558134Y937261D01*
X558119Y937249D01*
X558063Y937162D01*
X558003Y937078D01*
X557997Y937059D01*
X557986Y937042D01*
X557961Y936942D01*
X557930Y936843D01*
X557931Y936823D01*
X557926Y936803D01*
X557934Y936700D01*
X557937Y936597D01*
X557943Y936578D01*
X557945Y936558D01*
X557985Y936463D01*
X558021Y936366D01*
X558034Y936350D01*
X558041Y936332D01*
X558146Y936201D01*
X558460Y935887D01*
X560123Y931873D01*
X560123Y927527D01*
X558460Y923513D01*
X555387Y920440D01*
X551373Y918777D01*
X547027Y918777D01*
X543013Y920440D01*
X539940Y923513D01*
X538277Y927527D01*
X538277Y931873D01*
X539940Y935887D01*
X543013Y938960D01*
X547027Y940623D01*
X551373Y940623D01*
X552008Y940359D01*
X552072Y940344D01*
X552132Y940320D01*
X552202Y940313D01*
X552235Y940304D01*
X552242Y940305D01*
X552248Y940303D01*
X552269Y940305D01*
X552298Y940302D01*
X552300Y940302D01*
X552385Y940316D01*
X552481Y940323D01*
X552486Y940326D01*
X552493Y940326D01*
X552518Y940338D01*
X552543Y940342D01*
X552621Y940383D01*
X552707Y940420D01*
X552713Y940424D01*
X552717Y940426D01*
X552731Y940439D01*
X552740Y940446D01*
X552760Y940457D01*
X552782Y940480D01*
X552838Y940524D01*
X556597Y944284D01*
X556650Y944358D01*
X556710Y944427D01*
X556722Y944457D01*
X556741Y944484D01*
X556768Y944571D01*
X556802Y944655D01*
X556806Y944696D01*
X556813Y944719D01*
X556812Y944751D01*
X556820Y944822D01*
X556820Y945435D01*
X556809Y945506D01*
X556807Y945578D01*
X556789Y945627D01*
X556781Y945678D01*
X556747Y945741D01*
X556722Y945809D01*
X556690Y945850D01*
X556665Y945896D01*
X556614Y945945D01*
X556569Y946001D01*
X556525Y946029D01*
X556487Y946065D01*
X556422Y946095D01*
X556362Y946134D01*
X556311Y946147D01*
X556264Y946169D01*
X556193Y946176D01*
X556123Y946194D01*
X556071Y946190D01*
X556020Y946196D01*
X555949Y946180D01*
X555878Y946175D01*
X555830Y946154D01*
X555779Y946143D01*
X555718Y946107D01*
X555652Y946078D01*
X555596Y946034D01*
X555568Y946017D01*
X555553Y945999D01*
X555521Y945974D01*
X555387Y945840D01*
X551373Y944177D01*
X547027Y944177D01*
X543013Y945840D01*
X539940Y948913D01*
X538277Y952927D01*
X538277Y957273D01*
X539940Y961287D01*
X543013Y964360D01*
X547027Y966023D01*
X551373Y966023D01*
X555387Y964360D01*
X555521Y964226D01*
X555579Y964184D01*
X555631Y964135D01*
X555678Y964113D01*
X555720Y964083D01*
X555789Y964062D01*
X555854Y964031D01*
X555906Y964026D01*
X555956Y964010D01*
X556027Y964012D01*
X556098Y964004D01*
X556149Y964015D01*
X556201Y964017D01*
X556269Y964041D01*
X556339Y964057D01*
X556384Y964083D01*
X556432Y964101D01*
X556488Y964146D01*
X556550Y964183D01*
X556584Y964222D01*
X556624Y964255D01*
X556663Y964315D01*
X556710Y964370D01*
X556729Y964418D01*
X556757Y964462D01*
X556775Y964531D01*
X556802Y964598D01*
X556810Y964669D01*
X556818Y964700D01*
X556816Y964724D01*
X556820Y964765D01*
X556820Y965437D01*
X556818Y965451D01*
X556819Y965463D01*
X556806Y965523D01*
X556806Y965527D01*
X556798Y965618D01*
X556786Y965648D01*
X556781Y965680D01*
X556738Y965760D01*
X556702Y965844D01*
X556676Y965876D01*
X556665Y965897D01*
X556642Y965919D01*
X556597Y965975D01*
X553160Y969412D01*
X553086Y969465D01*
X553017Y969525D01*
X552987Y969537D01*
X552960Y969556D01*
X552873Y969583D01*
X552789Y969617D01*
X552748Y969621D01*
X552725Y969628D01*
X552693Y969627D01*
X552622Y969635D01*
X280925Y969635D01*
X280835Y969621D01*
X280744Y969613D01*
X280714Y969601D01*
X280682Y969596D01*
X280602Y969553D01*
X280518Y969517D01*
X280486Y969491D01*
X280465Y969480D01*
X280443Y969457D01*
X280387Y969412D01*
X265640Y954665D01*
X265587Y954591D01*
X265527Y954522D01*
X265515Y954492D01*
X265496Y954465D01*
X265469Y954378D01*
X265435Y954294D01*
X265431Y954253D01*
X265424Y954230D01*
X265425Y954198D01*
X265417Y954127D01*
X265417Y951118D01*
X265427Y951054D01*
X265397Y951029D01*
X263422Y949054D01*
X231710Y917342D01*
X231657Y917268D01*
X231597Y917199D01*
X231585Y917169D01*
X231566Y917142D01*
X231539Y917055D01*
X231505Y916971D01*
X231501Y916930D01*
X231494Y916907D01*
X231495Y916875D01*
X231487Y916804D01*
X231487Y885665D01*
X231498Y885594D01*
X231500Y885523D01*
X231518Y885474D01*
X231526Y885422D01*
X231560Y885359D01*
X231585Y885292D01*
X231617Y885251D01*
X231642Y885205D01*
X231694Y885156D01*
X231738Y885100D01*
X231782Y885071D01*
X231820Y885036D01*
X231885Y885005D01*
X231945Y884967D01*
X231996Y884954D01*
X232043Y884932D01*
X232114Y884924D01*
X232184Y884907D01*
X232236Y884911D01*
X232287Y884905D01*
X232358Y884920D01*
X232429Y884926D01*
X232477Y884946D01*
X232528Y884957D01*
X232589Y884994D01*
X232655Y885022D01*
X232711Y885067D01*
X232739Y885083D01*
X232754Y885101D01*
X232786Y885127D01*
X258013Y910354D01*
X260008Y912349D01*
X423854Y912349D01*
X423944Y912363D01*
X424035Y912371D01*
X424064Y912383D01*
X424096Y912388D01*
X424177Y912431D01*
X424261Y912467D01*
X424293Y912493D01*
X424314Y912504D01*
X424336Y912527D01*
X424392Y912572D01*
X426451Y914631D01*
X427970Y914631D01*
X428041Y914642D01*
X428113Y914644D01*
X428162Y914662D01*
X428213Y914670D01*
X428277Y914704D01*
X428344Y914729D01*
X428385Y914761D01*
X428431Y914786D01*
X428480Y914838D01*
X428536Y914882D01*
X428564Y914926D01*
X428600Y914964D01*
X428630Y915029D01*
X428669Y915089D01*
X428682Y915140D01*
X428704Y915187D01*
X428711Y915258D01*
X428729Y915328D01*
X428725Y915380D01*
X428731Y915431D01*
X428715Y915502D01*
X428710Y915573D01*
X428689Y915621D01*
X428678Y915672D01*
X428642Y915733D01*
X428614Y915799D01*
X428569Y915855D01*
X428552Y915883D01*
X428534Y915898D01*
X428509Y915930D01*
X425644Y918795D01*
X425548Y918864D01*
X425534Y918874D01*
X425532Y918877D01*
X425531Y918877D01*
X425455Y918933D01*
X425449Y918935D01*
X425444Y918939D01*
X425332Y918973D01*
X425221Y919009D01*
X425215Y919009D01*
X425209Y919011D01*
X425092Y919008D01*
X424975Y919007D01*
X424968Y919005D01*
X424963Y919005D01*
X424946Y918998D01*
X424814Y918960D01*
X424373Y918777D01*
X420027Y918777D01*
X416013Y920440D01*
X412940Y923513D01*
X411277Y927527D01*
X411277Y931873D01*
X412940Y935887D01*
X416013Y938960D01*
X420027Y940623D01*
X424373Y940623D01*
X428387Y938960D01*
X431460Y935887D01*
X433123Y931873D01*
X433123Y927527D01*
X432732Y926584D01*
X432705Y926470D01*
X432677Y926357D01*
X432677Y926350D01*
X432676Y926344D01*
X432687Y926228D01*
X432696Y926111D01*
X432698Y926106D01*
X432699Y926099D01*
X432747Y925991D01*
X432792Y925885D01*
X432797Y925879D01*
X432799Y925875D01*
X432812Y925861D01*
X432897Y925754D01*
X442948Y915703D01*
X443022Y915650D01*
X443092Y915590D01*
X443122Y915578D01*
X443148Y915559D01*
X443235Y915532D01*
X443320Y915498D01*
X443361Y915494D01*
X443383Y915487D01*
X443415Y915488D01*
X443487Y915480D01*
X603819Y915480D01*
X603909Y915494D01*
X604000Y915502D01*
X604030Y915514D01*
X604062Y915519D01*
X604143Y915562D01*
X604227Y915598D01*
X604259Y915624D01*
X604279Y915635D01*
X604302Y915658D01*
X604358Y915703D01*
X614617Y925962D01*
X614685Y926056D01*
X614755Y926151D01*
X614757Y926157D01*
X614761Y926162D01*
X614795Y926273D01*
X614831Y926385D01*
X614831Y926391D01*
X614833Y926397D01*
X614830Y926514D01*
X614829Y926631D01*
X614827Y926638D01*
X614827Y926643D01*
X614820Y926660D01*
X614782Y926792D01*
X614477Y927527D01*
X614477Y931873D01*
X616140Y935887D01*
X619213Y938960D01*
X623227Y940623D01*
X627573Y940623D01*
X631587Y938960D01*
X634660Y935887D01*
X636323Y931873D01*
X636323Y927527D01*
X634660Y923513D01*
X631587Y920440D01*
X627573Y918777D01*
X623227Y918777D01*
X622578Y919046D01*
X622465Y919073D01*
X622351Y919102D01*
X622345Y919101D01*
X622338Y919102D01*
X622222Y919091D01*
X622106Y919082D01*
X622100Y919080D01*
X622094Y919079D01*
X621986Y919031D01*
X621879Y918986D01*
X621874Y918981D01*
X621869Y918979D01*
X621855Y918967D01*
X621748Y918881D01*
X614991Y912124D01*
X614980Y912108D01*
X614964Y912096D01*
X614908Y912008D01*
X614848Y911925D01*
X614842Y911906D01*
X614831Y911889D01*
X614806Y911788D01*
X614775Y911689D01*
X614776Y911670D01*
X614771Y911650D01*
X614779Y911547D01*
X614782Y911444D01*
X614789Y911425D01*
X614790Y911405D01*
X614831Y911310D01*
X614866Y911213D01*
X614879Y911197D01*
X614887Y911179D01*
X614991Y911048D01*
X748902Y777137D01*
X748960Y777095D01*
X749012Y777046D01*
X749059Y777024D01*
X749101Y776994D01*
X749170Y776973D01*
X749235Y776942D01*
X749287Y776937D01*
X749337Y776921D01*
X749408Y776923D01*
X749479Y776915D01*
X749530Y776926D01*
X749582Y776928D01*
X749650Y776952D01*
X749720Y776968D01*
X749764Y776994D01*
X749813Y777012D01*
X749869Y777057D01*
X749931Y777094D01*
X749965Y777133D01*
X750005Y777166D01*
X750044Y777226D01*
X750091Y777281D01*
X750110Y777329D01*
X750138Y777373D01*
X750156Y777442D01*
X750183Y777509D01*
X750191Y777580D01*
X750199Y777611D01*
X750197Y777635D01*
X750201Y777676D01*
X750201Y779195D01*
X753310Y782304D01*
X757706Y782304D01*
X759765Y780245D01*
X759839Y780192D01*
X759909Y780132D01*
X759939Y780120D01*
X759965Y780101D01*
X760052Y780074D01*
X760137Y780040D01*
X760178Y780036D01*
X760200Y780029D01*
X760232Y780030D01*
X760303Y780022D01*
X774298Y780022D01*
X774388Y780036D01*
X774479Y780044D01*
X774509Y780056D01*
X774541Y780061D01*
X774621Y780104D01*
X774705Y780140D01*
X774737Y780166D01*
X774758Y780177D01*
X774780Y780200D01*
X774836Y780245D01*
X918517Y923926D01*
X918570Y924000D01*
X918630Y924069D01*
X918642Y924099D01*
X918661Y924126D01*
X918688Y924213D01*
X918722Y924297D01*
X918726Y924338D01*
X918733Y924361D01*
X918732Y924393D01*
X918740Y924464D01*
X918740Y934900D01*
X918726Y934990D01*
X918718Y935081D01*
X918706Y935111D01*
X918701Y935143D01*
X918658Y935223D01*
X918622Y935307D01*
X918596Y935339D01*
X918585Y935360D01*
X918562Y935382D01*
X918517Y935438D01*
X909316Y944639D01*
X909221Y944707D01*
X909127Y944777D01*
X909121Y944779D01*
X909116Y944783D01*
X909005Y944817D01*
X908894Y944853D01*
X908887Y944853D01*
X908881Y944855D01*
X908764Y944852D01*
X908648Y944851D01*
X908640Y944849D01*
X908635Y944849D01*
X908618Y944842D01*
X908486Y944804D01*
X906973Y944177D01*
X902627Y944177D01*
X898613Y945840D01*
X895540Y948913D01*
X893877Y952927D01*
X893877Y957273D01*
X895540Y961287D01*
X898613Y964360D01*
X902627Y966023D01*
X906973Y966023D01*
X910987Y964360D01*
X914060Y961287D01*
X915723Y957273D01*
X915723Y952927D01*
X914119Y949056D01*
X914093Y948942D01*
X914064Y948829D01*
X914064Y948823D01*
X914063Y948817D01*
X914074Y948700D01*
X914083Y948584D01*
X914086Y948578D01*
X914086Y948572D01*
X914134Y948464D01*
X914179Y948357D01*
X914184Y948352D01*
X914186Y948347D01*
X914199Y948333D01*
X914284Y948226D01*
X924790Y937721D01*
X924790Y921643D01*
X777119Y773972D01*
X760303Y773972D01*
X760213Y773958D01*
X760122Y773950D01*
X760093Y773938D01*
X760061Y773933D01*
X759980Y773890D01*
X759896Y773854D01*
X759864Y773828D01*
X759843Y773817D01*
X759821Y773794D01*
X759765Y773749D01*
X757706Y771690D01*
X756187Y771690D01*
X756116Y771679D01*
X756044Y771677D01*
X755995Y771659D01*
X755944Y771651D01*
X755881Y771617D01*
X755813Y771592D01*
X755772Y771560D01*
X755726Y771535D01*
X755677Y771484D01*
X755621Y771439D01*
X755593Y771395D01*
X755557Y771357D01*
X755527Y771292D01*
X755488Y771232D01*
X755475Y771181D01*
X755453Y771134D01*
X755446Y771063D01*
X755428Y770993D01*
X755432Y770941D01*
X755426Y770890D01*
X755442Y770819D01*
X755447Y770748D01*
X755468Y770700D01*
X755479Y770649D01*
X755515Y770588D01*
X755543Y770522D01*
X755588Y770466D01*
X755605Y770438D01*
X755623Y770423D01*
X755648Y770391D01*
X919530Y606509D01*
X919546Y606497D01*
X919559Y606482D01*
X919646Y606425D01*
X919730Y606365D01*
X919749Y606359D01*
X919766Y606349D01*
X919866Y606323D01*
X919965Y606293D01*
X919985Y606293D01*
X920004Y606289D01*
X920107Y606297D01*
X920211Y606299D01*
X920230Y606306D01*
X920249Y606308D01*
X920344Y606348D01*
X920442Y606384D01*
X920458Y606396D01*
X920476Y606404D01*
X920607Y606509D01*
X1026084Y711986D01*
X1026152Y712080D01*
X1026222Y712175D01*
X1026224Y712181D01*
X1026228Y712186D01*
X1026262Y712297D01*
X1026298Y712409D01*
X1026298Y712415D01*
X1026300Y712421D01*
X1026297Y712539D01*
X1026296Y712655D01*
X1026294Y712662D01*
X1026294Y712667D01*
X1026287Y712685D01*
X1026263Y712768D01*
X1026263Y716218D01*
X1027578Y719392D01*
X1030008Y721822D01*
X1033182Y723137D01*
X1036618Y723137D01*
X1039792Y721822D01*
X1042222Y719392D01*
X1043537Y716218D01*
X1043537Y712782D01*
X1042222Y709608D01*
X1039792Y707178D01*
X1036618Y705863D01*
X1034489Y705863D01*
X1034399Y705849D01*
X1034308Y705841D01*
X1034278Y705829D01*
X1034246Y705824D01*
X1034165Y705781D01*
X1034081Y705745D01*
X1034049Y705719D01*
X1034029Y705708D01*
X1034006Y705685D01*
X1034004Y705683D01*
X1034002Y705682D01*
X1034001Y705681D01*
X1033950Y705640D01*
X919848Y591538D01*
X919780Y591444D01*
X919710Y591349D01*
X919708Y591343D01*
X919704Y591338D01*
X919670Y591227D01*
X919633Y591115D01*
X919634Y591109D01*
X919632Y591103D01*
X919635Y590986D01*
X919636Y590869D01*
X919638Y590862D01*
X919638Y590857D01*
X919644Y590839D01*
X919683Y590708D01*
X920907Y587753D01*
X920907Y567047D01*
X919399Y563406D01*
X916612Y560619D01*
X912971Y559111D01*
X909029Y559111D01*
X905388Y560619D01*
X902601Y563406D01*
X901093Y567047D01*
X901093Y587753D01*
X902601Y591394D01*
X905388Y594181D01*
X909029Y595689D01*
X909471Y595689D01*
X909561Y595703D01*
X909652Y595711D01*
X909682Y595723D01*
X909714Y595728D01*
X909795Y595771D01*
X909879Y595807D01*
X909911Y595833D01*
X909931Y595844D01*
X909954Y595867D01*
X910010Y595912D01*
X912424Y598326D01*
X912436Y598342D01*
X912451Y598355D01*
X912508Y598442D01*
X912568Y598526D01*
X912574Y598545D01*
X912584Y598562D01*
X912610Y598662D01*
X912640Y598761D01*
X912640Y598781D01*
X912644Y598800D01*
X912636Y598903D01*
X912634Y599007D01*
X912627Y599026D01*
X912625Y599046D01*
X912585Y599140D01*
X912549Y599238D01*
X912537Y599254D01*
X912529Y599272D01*
X912424Y599403D01*
X765507Y746320D01*
X765449Y746362D01*
X765397Y746411D01*
X765350Y746433D01*
X765308Y746463D01*
X765239Y746484D01*
X765174Y746515D01*
X765122Y746520D01*
X765072Y746536D01*
X765001Y746534D01*
X764930Y746542D01*
X764879Y746531D01*
X764827Y746529D01*
X764759Y746505D01*
X764689Y746489D01*
X764645Y746463D01*
X764596Y746445D01*
X764540Y746400D01*
X764478Y746363D01*
X764444Y746324D01*
X764404Y746291D01*
X764365Y746231D01*
X764318Y746176D01*
X764299Y746128D01*
X764271Y746084D01*
X764253Y746015D01*
X764226Y745948D01*
X764218Y745877D01*
X764210Y745846D01*
X764212Y745822D01*
X764208Y745781D01*
X764208Y744262D01*
X761099Y741153D01*
X758187Y741153D01*
X758097Y741139D01*
X758006Y741131D01*
X757976Y741119D01*
X757944Y741114D01*
X757864Y741071D01*
X757780Y741035D01*
X757748Y741009D01*
X757727Y740998D01*
X757705Y740975D01*
X757649Y740930D01*
X699663Y682944D01*
X699621Y682886D01*
X699572Y682834D01*
X699550Y682787D01*
X699519Y682745D01*
X699498Y682676D01*
X699468Y682611D01*
X699462Y682559D01*
X699447Y682509D01*
X699449Y682438D01*
X699441Y682367D01*
X699452Y682316D01*
X699453Y682264D01*
X699478Y682196D01*
X699493Y682126D01*
X699520Y682081D01*
X699538Y682033D01*
X699583Y681977D01*
X699619Y681915D01*
X699659Y681881D01*
X699691Y681841D01*
X699752Y681802D01*
X699806Y681755D01*
X699855Y681736D01*
X699898Y681708D01*
X699968Y681690D01*
X700034Y681663D01*
X700106Y681655D01*
X700137Y681647D01*
X700160Y681649D01*
X700201Y681645D01*
X701156Y681645D01*
X704265Y678536D01*
X704265Y674140D01*
X701156Y671031D01*
X698244Y671031D01*
X698154Y671017D01*
X698063Y671009D01*
X698033Y670997D01*
X698001Y670992D01*
X697921Y670949D01*
X697837Y670913D01*
X697805Y670887D01*
X697784Y670876D01*
X697762Y670853D01*
X697706Y670808D01*
X476006Y449108D01*
X475953Y449034D01*
X475893Y448965D01*
X475881Y448935D01*
X475862Y448908D01*
X475835Y448821D01*
X475801Y448737D01*
X475797Y448696D01*
X475790Y448673D01*
X475791Y448641D01*
X475783Y448570D01*
X475783Y377790D01*
X475786Y377770D01*
X475784Y377751D01*
X475806Y377649D01*
X475822Y377547D01*
X475832Y377530D01*
X475836Y377510D01*
X475889Y377421D01*
X475938Y377330D01*
X475952Y377316D01*
X475962Y377299D01*
X476041Y377232D01*
X476116Y377160D01*
X476134Y377152D01*
X476149Y377139D01*
X476162Y377134D01*
X481029Y372267D01*
X481029Y365533D01*
X476267Y360771D01*
X469533Y360771D01*
G37*
%LPD*%
%LPC*%
G36*
X886593Y426078D02*
X886593Y426078D01*
X880851Y428457D01*
X876457Y432851D01*
X874078Y438593D01*
X874078Y444807D01*
X876457Y450549D01*
X880851Y454943D01*
X886593Y457322D01*
X892807Y457322D01*
X898549Y454943D01*
X898855Y454638D01*
X898871Y454626D01*
X898884Y454610D01*
X898971Y454554D01*
X899055Y454494D01*
X899074Y454488D01*
X899090Y454477D01*
X899191Y454452D01*
X899290Y454422D01*
X899310Y454422D01*
X899329Y454417D01*
X899432Y454425D01*
X899536Y454428D01*
X899554Y454435D01*
X899574Y454436D01*
X899669Y454477D01*
X899767Y454512D01*
X899782Y454525D01*
X899801Y454533D01*
X899932Y454638D01*
X902945Y457651D01*
X902998Y457725D01*
X903058Y457795D01*
X903070Y457825D01*
X903089Y457851D01*
X903116Y457938D01*
X903150Y458023D01*
X903154Y458064D01*
X903161Y458086D01*
X903160Y458118D01*
X903168Y458190D01*
X903168Y459005D01*
X906335Y462172D01*
X1025440Y581277D01*
X1025493Y581351D01*
X1025553Y581421D01*
X1025565Y581451D01*
X1025584Y581477D01*
X1025611Y581564D01*
X1025645Y581649D01*
X1025649Y581690D01*
X1025656Y581712D01*
X1025655Y581744D01*
X1025663Y581816D01*
X1025663Y584018D01*
X1026978Y587192D01*
X1029408Y589622D01*
X1032582Y590937D01*
X1036018Y590937D01*
X1039192Y589622D01*
X1041622Y587192D01*
X1042937Y584018D01*
X1042937Y580582D01*
X1041622Y577408D01*
X1039192Y574978D01*
X1036018Y573663D01*
X1032519Y573663D01*
X1032440Y573683D01*
X1032434Y573683D01*
X1032428Y573684D01*
X1032311Y573673D01*
X1032195Y573664D01*
X1032189Y573662D01*
X1032183Y573661D01*
X1032076Y573613D01*
X1031969Y573568D01*
X1031963Y573563D01*
X1031959Y573561D01*
X1031945Y573548D01*
X1031838Y573463D01*
X913441Y455066D01*
X913388Y454992D01*
X913328Y454922D01*
X913316Y454892D01*
X913297Y454866D01*
X913270Y454779D01*
X913236Y454694D01*
X913232Y454653D01*
X913225Y454631D01*
X913226Y454599D01*
X913218Y454527D01*
X913218Y453712D01*
X905386Y445880D01*
X905318Y445785D01*
X905248Y445691D01*
X905246Y445685D01*
X905243Y445680D01*
X905208Y445569D01*
X905172Y445457D01*
X905172Y445451D01*
X905170Y445445D01*
X905173Y445328D01*
X905174Y445212D01*
X905176Y445204D01*
X905177Y445199D01*
X905183Y445182D01*
X905221Y445050D01*
X905322Y444807D01*
X905322Y438593D01*
X902943Y432851D01*
X898549Y428457D01*
X892807Y426078D01*
X886593Y426078D01*
G37*
%LPD*%
%LPC*%
G36*
X907489Y700589D02*
X907489Y700589D01*
X900705Y702407D01*
X894624Y705918D01*
X889658Y710884D01*
X886147Y716965D01*
X884329Y723749D01*
X884329Y730771D01*
X886147Y737555D01*
X889658Y743636D01*
X894624Y748602D01*
X900705Y752113D01*
X907489Y753931D01*
X914511Y753931D01*
X921295Y752113D01*
X927376Y748602D01*
X932342Y743636D01*
X935853Y737555D01*
X937671Y730771D01*
X937671Y723749D01*
X935853Y716965D01*
X932342Y710884D01*
X927376Y705918D01*
X921295Y702407D01*
X914511Y700589D01*
X907489Y700589D01*
G37*
%LPD*%
%LPC*%
G36*
X282909Y915080D02*
X282909Y915080D01*
X274386Y919324D01*
X267971Y926360D01*
X264532Y935239D01*
X264532Y944761D01*
X266645Y950216D01*
X266663Y950303D01*
X266689Y950387D01*
X266688Y950422D01*
X266696Y950457D01*
X266685Y950545D01*
X266685Y950555D01*
X266738Y950617D01*
X266810Y950694D01*
X266820Y950713D01*
X266829Y950723D01*
X266841Y950752D01*
X266888Y950843D01*
X267971Y953640D01*
X274386Y960676D01*
X282909Y964920D01*
X292391Y965799D01*
X301549Y963193D01*
X309147Y957455D01*
X314160Y949360D01*
X315910Y940000D01*
X314160Y930640D01*
X309147Y922545D01*
X301549Y916807D01*
X292391Y914201D01*
X282909Y915080D01*
G37*
%LPD*%
%LPC*%
G36*
X1004909Y914080D02*
X1004909Y914080D01*
X996386Y918324D01*
X989971Y925360D01*
X986532Y934239D01*
X986532Y943761D01*
X989971Y952640D01*
X996386Y959676D01*
X1004909Y963920D01*
X1014391Y964799D01*
X1023549Y962193D01*
X1031147Y956455D01*
X1036160Y948360D01*
X1037910Y939000D01*
X1036160Y929640D01*
X1031147Y921545D01*
X1023549Y915807D01*
X1014391Y913201D01*
X1004909Y914080D01*
G37*
%LPD*%
%LPC*%
G36*
X282909Y325080D02*
X282909Y325080D01*
X274386Y329324D01*
X267971Y336360D01*
X264532Y345239D01*
X264532Y354761D01*
X267971Y363640D01*
X274386Y370676D01*
X282909Y374920D01*
X292391Y375799D01*
X301549Y373193D01*
X309147Y367455D01*
X314160Y359360D01*
X315910Y350000D01*
X314160Y340640D01*
X309147Y332545D01*
X301549Y326807D01*
X292391Y324201D01*
X282909Y325080D01*
G37*
%LPD*%
%LPC*%
G36*
X1004909Y324080D02*
X1004909Y324080D01*
X996386Y328324D01*
X989971Y335360D01*
X986532Y344239D01*
X986532Y353761D01*
X989971Y362640D01*
X996386Y369676D01*
X1004909Y373920D01*
X1014391Y374799D01*
X1023549Y372193D01*
X1031147Y366455D01*
X1036160Y358360D01*
X1037910Y349000D01*
X1036160Y339640D01*
X1031147Y331545D01*
X1023549Y325807D01*
X1014391Y323201D01*
X1004909Y324080D01*
G37*
%LPD*%
%LPC*%
G36*
X732068Y653339D02*
X732068Y653339D01*
X725668Y655054D01*
X719931Y658366D01*
X715246Y663051D01*
X711934Y668788D01*
X710219Y675188D01*
X710219Y681812D01*
X711934Y688212D01*
X715246Y693949D01*
X719931Y698634D01*
X725668Y701946D01*
X732068Y703661D01*
X738692Y703661D01*
X745092Y701946D01*
X750829Y698634D01*
X755514Y693949D01*
X758826Y688212D01*
X760541Y681812D01*
X760541Y675188D01*
X758826Y668788D01*
X755514Y663051D01*
X750829Y658366D01*
X745092Y655054D01*
X738692Y653339D01*
X732068Y653339D01*
G37*
%LPD*%
%LPC*%
G36*
X732368Y422839D02*
X732368Y422839D01*
X725968Y424554D01*
X720231Y427866D01*
X715546Y432551D01*
X712234Y438288D01*
X710519Y444688D01*
X710519Y451312D01*
X712234Y457712D01*
X715546Y463449D01*
X720231Y468134D01*
X725968Y471446D01*
X732368Y473161D01*
X738992Y473161D01*
X745392Y471446D01*
X751129Y468134D01*
X755814Y463449D01*
X759126Y457712D01*
X760841Y451312D01*
X760841Y444688D01*
X759126Y438288D01*
X755814Y432551D01*
X751129Y427866D01*
X745392Y424554D01*
X738992Y422839D01*
X732368Y422839D01*
G37*
%LPD*%
%LPC*%
G36*
X434888Y805739D02*
X434888Y805739D01*
X428488Y807454D01*
X422751Y810766D01*
X418066Y815451D01*
X414754Y821188D01*
X413039Y827588D01*
X413039Y834212D01*
X414754Y840612D01*
X418066Y846349D01*
X422751Y851034D01*
X428488Y854346D01*
X434888Y856061D01*
X441512Y856061D01*
X447912Y854346D01*
X453649Y851034D01*
X458334Y846349D01*
X461646Y840612D01*
X463361Y834212D01*
X463361Y827588D01*
X461646Y821188D01*
X458334Y815451D01*
X453649Y810766D01*
X447912Y807454D01*
X441512Y805739D01*
X434888Y805739D01*
G37*
%LPD*%
%LPC*%
G36*
X435188Y575239D02*
X435188Y575239D01*
X428788Y576954D01*
X423051Y580266D01*
X418366Y584951D01*
X415054Y590688D01*
X413339Y597088D01*
X413339Y603712D01*
X415054Y610112D01*
X418366Y615849D01*
X423051Y620534D01*
X428788Y623846D01*
X435188Y625561D01*
X441812Y625561D01*
X448212Y623846D01*
X453949Y620534D01*
X458634Y615849D01*
X461946Y610112D01*
X463661Y603712D01*
X463661Y597088D01*
X461946Y590688D01*
X458634Y584951D01*
X453949Y580266D01*
X448212Y576954D01*
X441812Y575239D01*
X435188Y575239D01*
G37*
%LPD*%
%LPC*%
G36*
X266596Y609435D02*
X266596Y609435D01*
X263448Y610739D01*
X261039Y613148D01*
X259735Y616296D01*
X259735Y619704D01*
X261039Y622852D01*
X263448Y625261D01*
X266596Y626565D01*
X270004Y626565D01*
X273116Y625275D01*
X273230Y625249D01*
X273343Y625220D01*
X273350Y625221D01*
X273356Y625219D01*
X273472Y625230D01*
X273589Y625239D01*
X273594Y625242D01*
X273601Y625242D01*
X273708Y625290D01*
X273815Y625336D01*
X273821Y625340D01*
X273825Y625342D01*
X273839Y625355D01*
X273946Y625440D01*
X279502Y630997D01*
X279555Y631071D01*
X279615Y631140D01*
X279627Y631170D01*
X279646Y631197D01*
X279673Y631284D01*
X279707Y631368D01*
X279711Y631409D01*
X279718Y631432D01*
X279717Y631464D01*
X279725Y631535D01*
X279725Y759595D01*
X279711Y759685D01*
X279703Y759776D01*
X279691Y759806D01*
X279686Y759838D01*
X279643Y759918D01*
X279607Y760002D01*
X279581Y760034D01*
X279570Y760055D01*
X279547Y760077D01*
X279502Y760133D01*
X272872Y766763D01*
X272778Y766831D01*
X272683Y766901D01*
X272677Y766903D01*
X272672Y766907D01*
X272561Y766941D01*
X272450Y766977D01*
X272443Y766977D01*
X272437Y766979D01*
X272321Y766976D01*
X272204Y766975D01*
X272196Y766973D01*
X272191Y766973D01*
X272174Y766966D01*
X272043Y766928D01*
X269404Y765835D01*
X265996Y765835D01*
X262848Y767139D01*
X260439Y769548D01*
X259135Y772696D01*
X259135Y776104D01*
X260439Y779252D01*
X262848Y781661D01*
X265996Y782965D01*
X269404Y782965D01*
X269969Y782730D01*
X270082Y782704D01*
X270196Y782675D01*
X270203Y782676D01*
X270209Y782674D01*
X270325Y782685D01*
X270442Y782694D01*
X270447Y782697D01*
X270454Y782697D01*
X270562Y782745D01*
X270668Y782791D01*
X270674Y782795D01*
X270678Y782797D01*
X270692Y782810D01*
X270799Y782895D01*
X288530Y800627D01*
X288583Y800701D01*
X288643Y800770D01*
X288655Y800800D01*
X288674Y800827D01*
X288701Y800914D01*
X288735Y800998D01*
X288739Y801039D01*
X288746Y801062D01*
X288745Y801094D01*
X288753Y801165D01*
X288753Y804077D01*
X291862Y807186D01*
X296258Y807186D01*
X299367Y804077D01*
X299367Y799681D01*
X296258Y796572D01*
X293346Y796572D01*
X293256Y796558D01*
X293165Y796550D01*
X293135Y796538D01*
X293103Y796533D01*
X293023Y796490D01*
X292939Y796454D01*
X292907Y796428D01*
X292886Y796417D01*
X292864Y796394D01*
X292808Y796349D01*
X275540Y779081D01*
X275472Y778987D01*
X275402Y778893D01*
X275400Y778887D01*
X275396Y778882D01*
X275362Y778771D01*
X275326Y778659D01*
X275326Y778653D01*
X275324Y778647D01*
X275327Y778530D01*
X275328Y778413D01*
X275330Y778406D01*
X275330Y778401D01*
X275337Y778383D01*
X275375Y778252D01*
X276265Y776104D01*
X276265Y772696D01*
X276234Y772621D01*
X276207Y772508D01*
X276178Y772394D01*
X276179Y772388D01*
X276178Y772382D01*
X276189Y772265D01*
X276198Y772149D01*
X276200Y772143D01*
X276201Y772137D01*
X276248Y772030D01*
X276294Y771923D01*
X276299Y771917D01*
X276301Y771912D01*
X276313Y771899D01*
X276399Y771792D01*
X285775Y762416D01*
X285775Y628714D01*
X277088Y620027D01*
X277035Y619953D01*
X276975Y619884D01*
X276963Y619854D01*
X276944Y619827D01*
X276917Y619740D01*
X276883Y619656D01*
X276879Y619615D01*
X276872Y619592D01*
X276873Y619560D01*
X276865Y619489D01*
X276865Y616296D01*
X275561Y613148D01*
X273152Y610739D01*
X270004Y609435D01*
X266596Y609435D01*
G37*
%LPD*%
%LPC*%
G36*
X753310Y838419D02*
X753310Y838419D01*
X750201Y841528D01*
X750201Y845924D01*
X753310Y849033D01*
X756222Y849033D01*
X756312Y849047D01*
X756403Y849055D01*
X756433Y849067D01*
X756465Y849072D01*
X756545Y849115D01*
X756629Y849151D01*
X756661Y849177D01*
X756682Y849188D01*
X756704Y849211D01*
X756760Y849256D01*
X822382Y914878D01*
X824377Y916873D01*
X834241Y916873D01*
X834331Y916887D01*
X834422Y916895D01*
X834452Y916907D01*
X834484Y916912D01*
X834564Y916955D01*
X834648Y916991D01*
X834680Y917017D01*
X834701Y917028D01*
X834723Y917051D01*
X834779Y917096D01*
X843342Y925659D01*
X843411Y925754D01*
X843480Y925848D01*
X843482Y925854D01*
X843486Y925859D01*
X843520Y925971D01*
X843557Y926082D01*
X843557Y926088D01*
X843558Y926094D01*
X843555Y926211D01*
X843554Y926328D01*
X843552Y926335D01*
X843552Y926340D01*
X843546Y926357D01*
X843508Y926489D01*
X843077Y927527D01*
X843077Y931873D01*
X844740Y935887D01*
X847813Y938960D01*
X851827Y940623D01*
X856173Y940623D01*
X860187Y938960D01*
X863260Y935887D01*
X864923Y931873D01*
X864923Y927527D01*
X863260Y923513D01*
X860187Y920440D01*
X856173Y918777D01*
X851827Y918777D01*
X847813Y920440D01*
X847784Y920469D01*
X847768Y920480D01*
X847755Y920496D01*
X847668Y920552D01*
X847584Y920612D01*
X847565Y920618D01*
X847549Y920629D01*
X847448Y920654D01*
X847349Y920685D01*
X847329Y920684D01*
X847310Y920689D01*
X847207Y920681D01*
X847103Y920678D01*
X847085Y920672D01*
X847065Y920670D01*
X846970Y920630D01*
X846872Y920594D01*
X846857Y920581D01*
X846838Y920574D01*
X846707Y920469D01*
X837062Y910823D01*
X827198Y910823D01*
X827108Y910809D01*
X827017Y910801D01*
X826987Y910789D01*
X826955Y910784D01*
X826875Y910741D01*
X826791Y910705D01*
X826759Y910679D01*
X826738Y910668D01*
X826716Y910645D01*
X826660Y910600D01*
X761038Y844978D01*
X760985Y844904D01*
X760925Y844835D01*
X760913Y844805D01*
X760894Y844778D01*
X760867Y844691D01*
X760833Y844607D01*
X760829Y844566D01*
X760822Y844543D01*
X760823Y844511D01*
X760815Y844440D01*
X760815Y841528D01*
X757706Y838419D01*
X753310Y838419D01*
G37*
%LPD*%
%LPC*%
G36*
X379648Y423815D02*
X379648Y423815D01*
X378755Y424708D01*
X378755Y450972D01*
X379648Y451865D01*
X405912Y451865D01*
X406805Y450972D01*
X406805Y424708D01*
X405912Y423815D01*
X379648Y423815D01*
G37*
%LPD*%
%LPC*%
G36*
X775588Y654315D02*
X775588Y654315D01*
X774695Y655208D01*
X774695Y681472D01*
X775588Y682365D01*
X801852Y682365D01*
X802745Y681472D01*
X802745Y655208D01*
X801852Y654315D01*
X775588Y654315D01*
G37*
%LPD*%
%LPC*%
G36*
X775888Y423815D02*
X775888Y423815D01*
X774995Y424708D01*
X774995Y450972D01*
X775888Y451865D01*
X802152Y451865D01*
X803045Y450972D01*
X803045Y424708D01*
X802152Y423815D01*
X775888Y423815D01*
G37*
%LPD*%
%LPC*%
G36*
X379348Y654315D02*
X379348Y654315D01*
X378455Y655208D01*
X378455Y681472D01*
X379348Y682365D01*
X405612Y682365D01*
X406505Y681472D01*
X406505Y655208D01*
X405612Y654315D01*
X379348Y654315D01*
G37*
%LPD*%
%LPC*%
G36*
X839603Y426078D02*
X839603Y426078D01*
X833861Y428457D01*
X829467Y432851D01*
X827088Y438593D01*
X827088Y444807D01*
X829467Y450549D01*
X833861Y454943D01*
X839603Y457322D01*
X845817Y457322D01*
X851559Y454943D01*
X855953Y450549D01*
X858332Y444807D01*
X858332Y438593D01*
X855953Y432851D01*
X851559Y428457D01*
X845817Y426078D01*
X839603Y426078D01*
G37*
%LPD*%
%LPC*%
G36*
X933583Y426078D02*
X933583Y426078D01*
X927841Y428457D01*
X923447Y432851D01*
X921068Y438593D01*
X921068Y444807D01*
X923447Y450549D01*
X927841Y454943D01*
X933583Y457322D01*
X939797Y457322D01*
X945539Y454943D01*
X949933Y450549D01*
X952312Y444807D01*
X952312Y438593D01*
X949933Y432851D01*
X945539Y428457D01*
X939797Y426078D01*
X933583Y426078D01*
G37*
%LPD*%
%LPC*%
G36*
X934429Y559111D02*
X934429Y559111D01*
X930788Y560619D01*
X928001Y563406D01*
X926493Y567047D01*
X926493Y587753D01*
X928001Y591394D01*
X930788Y594181D01*
X934429Y595689D01*
X938371Y595689D01*
X942012Y594181D01*
X944799Y591394D01*
X946307Y587753D01*
X946307Y567047D01*
X944799Y563406D01*
X942012Y560619D01*
X938371Y559111D01*
X934429Y559111D01*
G37*
%LPD*%
%LPC*%
G36*
X276397Y504295D02*
X276397Y504295D01*
X273065Y505675D01*
X270515Y508225D01*
X269135Y511557D01*
X269135Y530243D01*
X270515Y533575D01*
X273065Y536125D01*
X276397Y537505D01*
X280003Y537505D01*
X283335Y536125D01*
X285885Y533575D01*
X287265Y530243D01*
X287265Y511557D01*
X285885Y508225D01*
X283335Y505675D01*
X280003Y504295D01*
X276397Y504295D01*
G37*
%LPD*%
%LPC*%
G36*
X276397Y441295D02*
X276397Y441295D01*
X273065Y442675D01*
X270515Y445225D01*
X269135Y448557D01*
X269135Y467243D01*
X270515Y470575D01*
X273065Y473125D01*
X276397Y474505D01*
X280003Y474505D01*
X283335Y473125D01*
X285885Y470575D01*
X287265Y467243D01*
X287265Y448557D01*
X285885Y445225D01*
X283335Y442675D01*
X280003Y441295D01*
X276397Y441295D01*
G37*
%LPD*%
%LPC*%
G36*
X301797Y504295D02*
X301797Y504295D01*
X298465Y505675D01*
X295915Y508225D01*
X294535Y511557D01*
X294535Y530243D01*
X295915Y533575D01*
X298465Y536125D01*
X301797Y537505D01*
X305403Y537505D01*
X308735Y536125D01*
X311285Y533575D01*
X312665Y530243D01*
X312665Y511557D01*
X311285Y508225D01*
X308735Y505675D01*
X305403Y504295D01*
X301797Y504295D01*
G37*
%LPD*%
%LPC*%
G36*
X623227Y944177D02*
X623227Y944177D01*
X619213Y945840D01*
X616140Y948913D01*
X614477Y952927D01*
X614477Y957273D01*
X616140Y961287D01*
X619213Y964360D01*
X623227Y966023D01*
X627573Y966023D01*
X631587Y964360D01*
X634660Y961287D01*
X636323Y957273D01*
X636323Y952927D01*
X634660Y948913D01*
X631587Y945840D01*
X627573Y944177D01*
X623227Y944177D01*
G37*
%LPD*%
%LPC*%
G36*
X750227Y944177D02*
X750227Y944177D01*
X746213Y945840D01*
X743140Y948913D01*
X741477Y952927D01*
X741477Y957273D01*
X743140Y961287D01*
X746213Y964360D01*
X750227Y966023D01*
X754573Y966023D01*
X758587Y964360D01*
X761660Y961287D01*
X763323Y957273D01*
X763323Y952927D01*
X761660Y948913D01*
X758587Y945840D01*
X754573Y944177D01*
X750227Y944177D01*
G37*
%LPD*%
%LPC*%
G36*
X724827Y944177D02*
X724827Y944177D01*
X720813Y945840D01*
X717740Y948913D01*
X716077Y952927D01*
X716077Y957273D01*
X717740Y961287D01*
X720813Y964360D01*
X724827Y966023D01*
X729173Y966023D01*
X733187Y964360D01*
X736260Y961287D01*
X737923Y957273D01*
X737923Y952927D01*
X736260Y948913D01*
X733187Y945840D01*
X729173Y944177D01*
X724827Y944177D01*
G37*
%LPD*%
%LPC*%
G36*
X699427Y944177D02*
X699427Y944177D01*
X695413Y945840D01*
X692340Y948913D01*
X690677Y952927D01*
X690677Y957273D01*
X692340Y961287D01*
X695413Y964360D01*
X699427Y966023D01*
X703773Y966023D01*
X707787Y964360D01*
X710860Y961287D01*
X712523Y957273D01*
X712523Y952927D01*
X710860Y948913D01*
X707787Y945840D01*
X703773Y944177D01*
X699427Y944177D01*
G37*
%LPD*%
%LPC*%
G36*
X674027Y944177D02*
X674027Y944177D01*
X670013Y945840D01*
X666940Y948913D01*
X665277Y952927D01*
X665277Y957273D01*
X666940Y961287D01*
X670013Y964360D01*
X674027Y966023D01*
X678373Y966023D01*
X682387Y964360D01*
X685460Y961287D01*
X687123Y957273D01*
X687123Y952927D01*
X685460Y948913D01*
X682387Y945840D01*
X678373Y944177D01*
X674027Y944177D01*
G37*
%LPD*%
%LPC*%
G36*
X750227Y918777D02*
X750227Y918777D01*
X746213Y920440D01*
X743140Y923513D01*
X741477Y927527D01*
X741477Y931873D01*
X743140Y935887D01*
X746213Y938960D01*
X750227Y940623D01*
X754573Y940623D01*
X758587Y938960D01*
X761660Y935887D01*
X763323Y931873D01*
X763323Y927527D01*
X761660Y923513D01*
X758587Y920440D01*
X754573Y918777D01*
X750227Y918777D01*
G37*
%LPD*%
%LPC*%
G36*
X597827Y944177D02*
X597827Y944177D01*
X593813Y945840D01*
X590740Y948913D01*
X589077Y952927D01*
X589077Y957273D01*
X590740Y961287D01*
X593813Y964360D01*
X597827Y966023D01*
X602173Y966023D01*
X606187Y964360D01*
X609260Y961287D01*
X610923Y957273D01*
X610923Y952927D01*
X609260Y948913D01*
X606187Y945840D01*
X602173Y944177D01*
X597827Y944177D01*
G37*
%LPD*%
%LPC*%
G36*
X521627Y944177D02*
X521627Y944177D01*
X517613Y945840D01*
X514540Y948913D01*
X512877Y952927D01*
X512877Y957273D01*
X514540Y961287D01*
X517613Y964360D01*
X521627Y966023D01*
X525973Y966023D01*
X529987Y964360D01*
X533060Y961287D01*
X534723Y957273D01*
X534723Y952927D01*
X533060Y948913D01*
X529987Y945840D01*
X525973Y944177D01*
X521627Y944177D01*
G37*
%LPD*%
%LPC*%
G36*
X496227Y944177D02*
X496227Y944177D01*
X492213Y945840D01*
X489140Y948913D01*
X487477Y952927D01*
X487477Y957273D01*
X489140Y961287D01*
X492213Y964360D01*
X496227Y966023D01*
X500573Y966023D01*
X504587Y964360D01*
X507660Y961287D01*
X509323Y957273D01*
X509323Y952927D01*
X507660Y948913D01*
X504587Y945840D01*
X500573Y944177D01*
X496227Y944177D01*
G37*
%LPD*%
%LPC*%
G36*
X445427Y944177D02*
X445427Y944177D01*
X441413Y945840D01*
X438340Y948913D01*
X436677Y952927D01*
X436677Y957273D01*
X438340Y961287D01*
X441413Y964360D01*
X445427Y966023D01*
X449773Y966023D01*
X453787Y964360D01*
X456860Y961287D01*
X458523Y957273D01*
X458523Y952927D01*
X456860Y948913D01*
X453787Y945840D01*
X449773Y944177D01*
X445427Y944177D01*
G37*
%LPD*%
%LPC*%
G36*
X801027Y918777D02*
X801027Y918777D01*
X797013Y920440D01*
X793940Y923513D01*
X792277Y927527D01*
X792277Y931873D01*
X793940Y935887D01*
X797013Y938960D01*
X801027Y940623D01*
X805373Y940623D01*
X809387Y938960D01*
X812460Y935887D01*
X814123Y931873D01*
X814123Y927527D01*
X812460Y923513D01*
X809387Y920440D01*
X805373Y918777D01*
X801027Y918777D01*
G37*
%LPD*%
%LPC*%
G36*
X775627Y918777D02*
X775627Y918777D01*
X771613Y920440D01*
X768540Y923513D01*
X766877Y927527D01*
X766877Y931873D01*
X768540Y935887D01*
X771613Y938960D01*
X775627Y940623D01*
X779973Y940623D01*
X783987Y938960D01*
X787060Y935887D01*
X788723Y931873D01*
X788723Y927527D01*
X787060Y923513D01*
X783987Y920440D01*
X779973Y918777D01*
X775627Y918777D01*
G37*
%LPD*%
%LPC*%
G36*
X572427Y918777D02*
X572427Y918777D01*
X568413Y920440D01*
X565340Y923513D01*
X563677Y927527D01*
X563677Y931873D01*
X565340Y935887D01*
X568413Y938960D01*
X572427Y940623D01*
X576773Y940623D01*
X580787Y938960D01*
X583860Y935887D01*
X585523Y931873D01*
X585523Y927527D01*
X583860Y923513D01*
X580787Y920440D01*
X576773Y918777D01*
X572427Y918777D01*
G37*
%LPD*%
%LPC*%
G36*
X597827Y918777D02*
X597827Y918777D01*
X593813Y920440D01*
X590740Y923513D01*
X589077Y927527D01*
X589077Y931873D01*
X590740Y935887D01*
X593813Y938960D01*
X597827Y940623D01*
X602173Y940623D01*
X606187Y938960D01*
X609260Y935887D01*
X610923Y931873D01*
X610923Y927527D01*
X609260Y923513D01*
X606187Y920440D01*
X602173Y918777D01*
X597827Y918777D01*
G37*
%LPD*%
%LPC*%
G36*
X648627Y918777D02*
X648627Y918777D01*
X644613Y920440D01*
X641540Y923513D01*
X639877Y927527D01*
X639877Y931873D01*
X641540Y935887D01*
X644613Y938960D01*
X648627Y940623D01*
X652973Y940623D01*
X656987Y938960D01*
X660060Y935887D01*
X661723Y931873D01*
X661723Y927527D01*
X660060Y923513D01*
X656987Y920440D01*
X652973Y918777D01*
X648627Y918777D01*
G37*
%LPD*%
%LPC*%
G36*
X674027Y918777D02*
X674027Y918777D01*
X670013Y920440D01*
X666940Y923513D01*
X665277Y927527D01*
X665277Y931873D01*
X666940Y935887D01*
X670013Y938960D01*
X674027Y940623D01*
X678373Y940623D01*
X682387Y938960D01*
X685460Y935887D01*
X687123Y931873D01*
X687123Y927527D01*
X685460Y923513D01*
X682387Y920440D01*
X678373Y918777D01*
X674027Y918777D01*
G37*
%LPD*%
%LPC*%
G36*
X445427Y918777D02*
X445427Y918777D01*
X441413Y920440D01*
X438340Y923513D01*
X436677Y927527D01*
X436677Y931873D01*
X438340Y935887D01*
X441413Y938960D01*
X445427Y940623D01*
X449773Y940623D01*
X453787Y938960D01*
X456860Y935887D01*
X458523Y931873D01*
X458523Y927527D01*
X456860Y923513D01*
X453787Y920440D01*
X449773Y918777D01*
X445427Y918777D01*
G37*
%LPD*%
%LPC*%
G36*
X826427Y918777D02*
X826427Y918777D01*
X822413Y920440D01*
X819340Y923513D01*
X817677Y927527D01*
X817677Y931873D01*
X819340Y935887D01*
X822413Y938960D01*
X826427Y940623D01*
X830773Y940623D01*
X834787Y938960D01*
X837860Y935887D01*
X839523Y931873D01*
X839523Y927527D01*
X837860Y923513D01*
X834787Y920440D01*
X830773Y918777D01*
X826427Y918777D01*
G37*
%LPD*%
%LPC*%
G36*
X877227Y918777D02*
X877227Y918777D01*
X873213Y920440D01*
X870140Y923513D01*
X868477Y927527D01*
X868477Y931873D01*
X870140Y935887D01*
X873213Y938960D01*
X877227Y940623D01*
X881573Y940623D01*
X885587Y938960D01*
X888660Y935887D01*
X890323Y931873D01*
X890323Y927527D01*
X888660Y923513D01*
X885587Y920440D01*
X881573Y918777D01*
X877227Y918777D01*
G37*
%LPD*%
%LPC*%
G36*
X496227Y918777D02*
X496227Y918777D01*
X492213Y920440D01*
X489140Y923513D01*
X487477Y927527D01*
X487477Y931873D01*
X489140Y935887D01*
X492213Y938960D01*
X496227Y940623D01*
X500573Y940623D01*
X504587Y938960D01*
X507660Y935887D01*
X509323Y931873D01*
X509323Y927527D01*
X507660Y923513D01*
X504587Y920440D01*
X500573Y918777D01*
X496227Y918777D01*
G37*
%LPD*%
%LPC*%
G36*
X470827Y918777D02*
X470827Y918777D01*
X466813Y920440D01*
X463740Y923513D01*
X462077Y927527D01*
X462077Y931873D01*
X463740Y935887D01*
X466813Y938960D01*
X470827Y940623D01*
X475173Y940623D01*
X479187Y938960D01*
X482260Y935887D01*
X483923Y931873D01*
X483923Y927527D01*
X482260Y923513D01*
X479187Y920440D01*
X475173Y918777D01*
X470827Y918777D01*
G37*
%LPD*%
%LPC*%
G36*
X699427Y918777D02*
X699427Y918777D01*
X695413Y920440D01*
X692340Y923513D01*
X690677Y927527D01*
X690677Y931873D01*
X692340Y935887D01*
X695413Y938960D01*
X699427Y940623D01*
X703773Y940623D01*
X707787Y938960D01*
X710860Y935887D01*
X712523Y931873D01*
X712523Y927527D01*
X710860Y923513D01*
X707787Y920440D01*
X703773Y918777D01*
X699427Y918777D01*
G37*
%LPD*%
%LPC*%
G36*
X801027Y944177D02*
X801027Y944177D01*
X797013Y945840D01*
X793940Y948913D01*
X792277Y952927D01*
X792277Y957273D01*
X793940Y961287D01*
X797013Y964360D01*
X801027Y966023D01*
X805373Y966023D01*
X809387Y964360D01*
X812460Y961287D01*
X814123Y957273D01*
X814123Y952927D01*
X812460Y948913D01*
X809387Y945840D01*
X805373Y944177D01*
X801027Y944177D01*
G37*
%LPD*%
%LPC*%
G36*
X420027Y944177D02*
X420027Y944177D01*
X416013Y945840D01*
X412940Y948913D01*
X411277Y952927D01*
X411277Y957273D01*
X412940Y961287D01*
X416013Y964360D01*
X420027Y966023D01*
X424373Y966023D01*
X428387Y964360D01*
X431460Y961287D01*
X433123Y957273D01*
X433123Y952927D01*
X431460Y948913D01*
X428387Y945840D01*
X424373Y944177D01*
X420027Y944177D01*
G37*
%LPD*%
%LPC*%
G36*
X524196Y332393D02*
X524196Y332393D01*
X518393Y338196D01*
X518393Y346404D01*
X524196Y352207D01*
X532404Y352207D01*
X538207Y346404D01*
X538207Y338196D01*
X532404Y332393D01*
X524196Y332393D01*
G37*
%LPD*%
%LPC*%
G36*
X642296Y332593D02*
X642296Y332593D01*
X636493Y338396D01*
X636493Y346604D01*
X642296Y352407D01*
X650504Y352407D01*
X656307Y346604D01*
X656307Y338396D01*
X650504Y332593D01*
X642296Y332593D01*
G37*
%LPD*%
%LPC*%
G36*
X401196Y332393D02*
X401196Y332393D01*
X395393Y338196D01*
X395393Y346404D01*
X401196Y352207D01*
X409404Y352207D01*
X415207Y346404D01*
X415207Y338196D01*
X409404Y332393D01*
X401196Y332393D01*
G37*
%LPD*%
%LPC*%
G36*
X760696Y332393D02*
X760696Y332393D01*
X754893Y338196D01*
X754893Y346404D01*
X760696Y352207D01*
X768904Y352207D01*
X774707Y346404D01*
X774707Y338196D01*
X768904Y332393D01*
X760696Y332393D01*
G37*
%LPD*%
%LPC*%
G36*
X266596Y649435D02*
X266596Y649435D01*
X263448Y650739D01*
X261039Y653148D01*
X259735Y656296D01*
X259735Y659704D01*
X261039Y662852D01*
X263448Y665261D01*
X266596Y666565D01*
X270004Y666565D01*
X273152Y665261D01*
X275561Y662852D01*
X276865Y659704D01*
X276865Y656296D01*
X275561Y653148D01*
X273152Y650739D01*
X270004Y649435D01*
X266596Y649435D01*
G37*
%LPD*%
%LPC*%
G36*
X245996Y765835D02*
X245996Y765835D01*
X242848Y767139D01*
X240439Y769548D01*
X239135Y772696D01*
X239135Y776104D01*
X240439Y779252D01*
X242848Y781661D01*
X245996Y782965D01*
X249404Y782965D01*
X252552Y781661D01*
X254961Y779252D01*
X256265Y776104D01*
X256265Y772696D01*
X254961Y769548D01*
X252552Y767139D01*
X249404Y765835D01*
X245996Y765835D01*
G37*
%LPD*%
%LPC*%
G36*
X245996Y785835D02*
X245996Y785835D01*
X242848Y787139D01*
X240439Y789548D01*
X239135Y792696D01*
X239135Y796104D01*
X240439Y799252D01*
X242848Y801661D01*
X245996Y802965D01*
X249404Y802965D01*
X252552Y801661D01*
X254961Y799252D01*
X256265Y796104D01*
X256265Y792696D01*
X254961Y789548D01*
X252552Y787139D01*
X249404Y785835D01*
X245996Y785835D01*
G37*
%LPD*%
%LPC*%
G36*
X246596Y609435D02*
X246596Y609435D01*
X243448Y610739D01*
X241039Y613148D01*
X239735Y616296D01*
X239735Y619704D01*
X241039Y622852D01*
X243448Y625261D01*
X246596Y626565D01*
X250004Y626565D01*
X253152Y625261D01*
X255561Y622852D01*
X256865Y619704D01*
X256865Y616296D01*
X255561Y613148D01*
X253152Y610739D01*
X250004Y609435D01*
X246596Y609435D01*
G37*
%LPD*%
%LPC*%
G36*
X246596Y629435D02*
X246596Y629435D01*
X243448Y630739D01*
X241039Y633148D01*
X239735Y636296D01*
X239735Y639704D01*
X241039Y642852D01*
X243448Y645261D01*
X246596Y646565D01*
X250004Y646565D01*
X253152Y645261D01*
X255561Y642852D01*
X256865Y639704D01*
X256865Y636296D01*
X255561Y633148D01*
X253152Y630739D01*
X250004Y629435D01*
X246596Y629435D01*
G37*
%LPD*%
%LPC*%
G36*
X265996Y845835D02*
X265996Y845835D01*
X262848Y847139D01*
X260439Y849548D01*
X259135Y852696D01*
X259135Y856104D01*
X260439Y859252D01*
X262848Y861661D01*
X265996Y862965D01*
X269404Y862965D01*
X272552Y861661D01*
X274961Y859252D01*
X276265Y856104D01*
X276265Y852696D01*
X274961Y849548D01*
X272552Y847139D01*
X269404Y845835D01*
X265996Y845835D01*
G37*
%LPD*%
%LPC*%
G36*
X265996Y825835D02*
X265996Y825835D01*
X262848Y827139D01*
X260439Y829548D01*
X259135Y832696D01*
X259135Y836104D01*
X260439Y839252D01*
X262848Y841661D01*
X265996Y842965D01*
X269404Y842965D01*
X272552Y841661D01*
X274961Y839252D01*
X276265Y836104D01*
X276265Y832696D01*
X274961Y829548D01*
X272552Y827139D01*
X269404Y825835D01*
X265996Y825835D01*
G37*
%LPD*%
%LPC*%
G36*
X266596Y709435D02*
X266596Y709435D01*
X263448Y710739D01*
X261039Y713148D01*
X259735Y716296D01*
X259735Y719704D01*
X261039Y722852D01*
X263448Y725261D01*
X266596Y726565D01*
X270004Y726565D01*
X273152Y725261D01*
X275561Y722852D01*
X276865Y719704D01*
X276865Y716296D01*
X275561Y713148D01*
X273152Y710739D01*
X270004Y709435D01*
X266596Y709435D01*
G37*
%LPD*%
%LPC*%
G36*
X245996Y825835D02*
X245996Y825835D01*
X242848Y827139D01*
X240439Y829548D01*
X239135Y832696D01*
X239135Y836104D01*
X240439Y839252D01*
X242848Y841661D01*
X245996Y842965D01*
X249404Y842965D01*
X252552Y841661D01*
X254961Y839252D01*
X256265Y836104D01*
X256265Y832696D01*
X254961Y829548D01*
X252552Y827139D01*
X249404Y825835D01*
X245996Y825835D01*
G37*
%LPD*%
%LPC*%
G36*
X265996Y865835D02*
X265996Y865835D01*
X262848Y867139D01*
X260439Y869548D01*
X259135Y872696D01*
X259135Y876104D01*
X260439Y879252D01*
X262848Y881661D01*
X265996Y882965D01*
X269404Y882965D01*
X272552Y881661D01*
X274961Y879252D01*
X276265Y876104D01*
X276265Y872696D01*
X274961Y869548D01*
X272552Y867139D01*
X269404Y865835D01*
X265996Y865835D01*
G37*
%LPD*%
%LPC*%
G36*
X266596Y669435D02*
X266596Y669435D01*
X263448Y670739D01*
X261039Y673148D01*
X259735Y676296D01*
X259735Y679704D01*
X261039Y682852D01*
X263448Y685261D01*
X266596Y686565D01*
X270004Y686565D01*
X273152Y685261D01*
X275561Y682852D01*
X276865Y679704D01*
X276865Y676296D01*
X275561Y673148D01*
X273152Y670739D01*
X270004Y669435D01*
X266596Y669435D01*
G37*
%LPD*%
%LPC*%
G36*
X266596Y629435D02*
X266596Y629435D01*
X263448Y630739D01*
X261039Y633148D01*
X259735Y636296D01*
X259735Y639704D01*
X261039Y642852D01*
X263448Y645261D01*
X266596Y646565D01*
X270004Y646565D01*
X273152Y645261D01*
X275561Y642852D01*
X276865Y639704D01*
X276865Y636296D01*
X275561Y633148D01*
X273152Y630739D01*
X270004Y629435D01*
X266596Y629435D01*
G37*
%LPD*%
%LPC*%
G36*
X245996Y745835D02*
X245996Y745835D01*
X242848Y747139D01*
X240439Y749548D01*
X239135Y752696D01*
X239135Y756104D01*
X240439Y759252D01*
X242848Y761661D01*
X245996Y762965D01*
X249404Y762965D01*
X252552Y761661D01*
X254961Y759252D01*
X256265Y756104D01*
X256265Y752696D01*
X254961Y749548D01*
X252552Y747139D01*
X249404Y745835D01*
X245996Y745835D01*
G37*
%LPD*%
%LPC*%
G36*
X246596Y589435D02*
X246596Y589435D01*
X243448Y590739D01*
X241039Y593148D01*
X239735Y596296D01*
X239735Y599704D01*
X241039Y602852D01*
X243448Y605261D01*
X246596Y606565D01*
X250004Y606565D01*
X253152Y605261D01*
X255561Y602852D01*
X256865Y599704D01*
X256865Y596296D01*
X255561Y593148D01*
X253152Y590739D01*
X250004Y589435D01*
X246596Y589435D01*
G37*
%LPD*%
%LPC*%
G36*
X266596Y689435D02*
X266596Y689435D01*
X263448Y690739D01*
X261039Y693148D01*
X259735Y696296D01*
X259735Y699704D01*
X261039Y702852D01*
X263448Y705261D01*
X266596Y706565D01*
X270004Y706565D01*
X273152Y705261D01*
X275561Y702852D01*
X276865Y699704D01*
X276865Y696296D01*
X275561Y693148D01*
X273152Y690739D01*
X270004Y689435D01*
X266596Y689435D01*
G37*
%LPD*%
%LPC*%
G36*
X469533Y309971D02*
X469533Y309971D01*
X464771Y314733D01*
X464771Y321467D01*
X469533Y326229D01*
X476267Y326229D01*
X481029Y321467D01*
X481029Y314733D01*
X476267Y309971D01*
X469533Y309971D01*
G37*
%LPD*%
%LPC*%
G36*
X593533Y309771D02*
X593533Y309771D01*
X588771Y314533D01*
X588771Y321267D01*
X593533Y326029D01*
X600267Y326029D01*
X605029Y321267D01*
X605029Y314533D01*
X600267Y309771D01*
X593533Y309771D01*
G37*
%LPD*%
%LPC*%
G36*
X714533Y309371D02*
X714533Y309371D01*
X709771Y314133D01*
X709771Y320867D01*
X714533Y325629D01*
X721267Y325629D01*
X726029Y320867D01*
X726029Y314133D01*
X721267Y309371D01*
X714533Y309371D01*
G37*
%LPD*%
%LPC*%
G36*
X350733Y309271D02*
X350733Y309271D01*
X345971Y314033D01*
X345971Y320767D01*
X350733Y325529D01*
X357467Y325529D01*
X362229Y320767D01*
X362229Y314033D01*
X357467Y309271D01*
X350733Y309271D01*
G37*
%LPD*%
%LPC*%
G36*
X593533Y360571D02*
X593533Y360571D01*
X588771Y365333D01*
X588771Y372067D01*
X593533Y376829D01*
X600267Y376829D01*
X605029Y372067D01*
X605029Y365333D01*
X600267Y360571D01*
X593533Y360571D01*
G37*
%LPD*%
%LPC*%
G36*
X714533Y360171D02*
X714533Y360171D01*
X709771Y364933D01*
X709771Y371667D01*
X714533Y376429D01*
X721267Y376429D01*
X726029Y371667D01*
X726029Y364933D01*
X721267Y360171D01*
X714533Y360171D01*
G37*
%LPD*%
%LPC*%
G36*
X350733Y360071D02*
X350733Y360071D01*
X345971Y364833D01*
X345971Y371567D01*
X350733Y376329D01*
X357467Y376329D01*
X362229Y371567D01*
X362229Y364833D01*
X357467Y360071D01*
X350733Y360071D01*
G37*
%LPD*%
%LPC*%
G36*
X790543Y612083D02*
X790543Y612083D01*
X790543Y625601D01*
X801854Y625601D01*
X802501Y625428D01*
X803080Y625093D01*
X803553Y624620D01*
X803888Y624041D01*
X804061Y623394D01*
X804061Y612083D01*
X790543Y612083D01*
G37*
%LPD*%
%LPC*%
G36*
X790243Y842583D02*
X790243Y842583D01*
X790243Y856101D01*
X801554Y856101D01*
X802201Y855928D01*
X802780Y855593D01*
X803253Y855120D01*
X803588Y854541D01*
X803761Y853894D01*
X803761Y842583D01*
X790243Y842583D01*
G37*
%LPD*%
%LPC*%
G36*
X394303Y612083D02*
X394303Y612083D01*
X394303Y625601D01*
X405614Y625601D01*
X406261Y625428D01*
X406840Y625093D01*
X407313Y624620D01*
X407648Y624041D01*
X407821Y623394D01*
X407821Y612083D01*
X394303Y612083D01*
G37*
%LPD*%
%LPC*%
G36*
X394003Y842583D02*
X394003Y842583D01*
X394003Y856101D01*
X405314Y856101D01*
X405961Y855928D01*
X406540Y855593D01*
X407013Y855120D01*
X407348Y854541D01*
X407521Y853894D01*
X407521Y842583D01*
X394003Y842583D01*
G37*
%LPD*%
%LPC*%
G36*
X790543Y595519D02*
X790543Y595519D01*
X790543Y609037D01*
X804061Y609037D01*
X804061Y597726D01*
X803888Y597079D01*
X803553Y596500D01*
X803080Y596027D01*
X802501Y595692D01*
X801854Y595519D01*
X790543Y595519D01*
G37*
%LPD*%
%LPC*%
G36*
X394303Y595519D02*
X394303Y595519D01*
X394303Y609037D01*
X407821Y609037D01*
X407821Y597726D01*
X407648Y597079D01*
X407313Y596500D01*
X406840Y596027D01*
X406261Y595692D01*
X405614Y595519D01*
X394303Y595519D01*
G37*
%LPD*%
%LPC*%
G36*
X773679Y842583D02*
X773679Y842583D01*
X773679Y853894D01*
X773852Y854541D01*
X774187Y855120D01*
X774660Y855593D01*
X775239Y855928D01*
X775886Y856101D01*
X787197Y856101D01*
X787197Y842583D01*
X773679Y842583D01*
G37*
%LPD*%
%LPC*%
G36*
X790243Y826019D02*
X790243Y826019D01*
X790243Y839537D01*
X803761Y839537D01*
X803761Y828226D01*
X803588Y827579D01*
X803253Y827000D01*
X802780Y826527D01*
X802201Y826192D01*
X801554Y826019D01*
X790243Y826019D01*
G37*
%LPD*%
%LPC*%
G36*
X394003Y826019D02*
X394003Y826019D01*
X394003Y839537D01*
X407521Y839537D01*
X407521Y828226D01*
X407348Y827579D01*
X407013Y827000D01*
X406540Y826527D01*
X405961Y826192D01*
X405314Y826019D01*
X394003Y826019D01*
G37*
%LPD*%
%LPC*%
G36*
X377739Y612083D02*
X377739Y612083D01*
X377739Y623394D01*
X377912Y624041D01*
X378247Y624620D01*
X378720Y625093D01*
X379299Y625428D01*
X379946Y625601D01*
X391257Y625601D01*
X391257Y612083D01*
X377739Y612083D01*
G37*
%LPD*%
%LPC*%
G36*
X773979Y612083D02*
X773979Y612083D01*
X773979Y623394D01*
X774152Y624041D01*
X774487Y624620D01*
X774960Y625093D01*
X775539Y625428D01*
X776186Y625601D01*
X787497Y625601D01*
X787497Y612083D01*
X773979Y612083D01*
G37*
%LPD*%
%LPC*%
G36*
X377439Y842583D02*
X377439Y842583D01*
X377439Y853894D01*
X377612Y854541D01*
X377947Y855120D01*
X378420Y855593D01*
X378999Y855928D01*
X379646Y856101D01*
X390957Y856101D01*
X390957Y842583D01*
X377439Y842583D01*
G37*
%LPD*%
%LPC*%
G36*
X775886Y826019D02*
X775886Y826019D01*
X775239Y826192D01*
X774660Y826527D01*
X774187Y827000D01*
X773852Y827579D01*
X773679Y828226D01*
X773679Y839537D01*
X787197Y839537D01*
X787197Y826019D01*
X775886Y826019D01*
G37*
%LPD*%
%LPC*%
G36*
X776186Y595519D02*
X776186Y595519D01*
X775539Y595692D01*
X774960Y596027D01*
X774487Y596500D01*
X774152Y597079D01*
X773979Y597726D01*
X773979Y609037D01*
X787497Y609037D01*
X787497Y595519D01*
X776186Y595519D01*
G37*
%LPD*%
%LPC*%
G36*
X379946Y595519D02*
X379946Y595519D01*
X379299Y595692D01*
X378720Y596027D01*
X378247Y596500D01*
X377912Y597079D01*
X377739Y597726D01*
X377739Y609037D01*
X391257Y609037D01*
X391257Y595519D01*
X379946Y595519D01*
G37*
%LPD*%
%LPC*%
G36*
X379646Y826019D02*
X379646Y826019D01*
X378999Y826192D01*
X378420Y826527D01*
X377947Y827000D01*
X377612Y827579D01*
X377439Y828226D01*
X377439Y839537D01*
X390957Y839537D01*
X390957Y826019D01*
X379646Y826019D01*
G37*
%LPD*%
%LPC*%
G36*
X887123Y578923D02*
X887123Y578923D01*
X887123Y596600D01*
X888158Y596436D01*
X889793Y595904D01*
X891325Y595124D01*
X892716Y594113D01*
X893931Y592898D01*
X894942Y591507D01*
X895722Y589975D01*
X896254Y588340D01*
X896523Y586642D01*
X896523Y578923D01*
X887123Y578923D01*
G37*
%LPD*%
%LPC*%
G36*
X887123Y575877D02*
X887123Y575877D01*
X896523Y575877D01*
X896523Y568158D01*
X896254Y566460D01*
X895722Y564825D01*
X894942Y563293D01*
X893931Y561902D01*
X892716Y560687D01*
X891325Y559676D01*
X889793Y558896D01*
X888158Y558364D01*
X887123Y558200D01*
X887123Y575877D01*
G37*
%LPD*%
%LPC*%
G36*
X874677Y578923D02*
X874677Y578923D01*
X874677Y586642D01*
X874946Y588340D01*
X875478Y589975D01*
X876258Y591507D01*
X877269Y592898D01*
X878484Y594113D01*
X879875Y595124D01*
X881407Y595904D01*
X883042Y596436D01*
X884077Y596600D01*
X884077Y578923D01*
X874677Y578923D01*
G37*
%LPD*%
%LPC*%
G36*
X883042Y558364D02*
X883042Y558364D01*
X881407Y558896D01*
X879875Y559676D01*
X878484Y560687D01*
X877269Y561902D01*
X876258Y563293D01*
X875478Y564825D01*
X874946Y566460D01*
X874677Y568158D01*
X874677Y575877D01*
X884077Y575877D01*
X884077Y558200D01*
X883042Y558364D01*
G37*
%LPD*%
%LPC*%
G36*
X254323Y522423D02*
X254323Y522423D01*
X254323Y538405D01*
X255161Y538273D01*
X256670Y537782D01*
X258083Y537062D01*
X259367Y536129D01*
X260489Y535007D01*
X261422Y533723D01*
X262142Y532310D01*
X262633Y530801D01*
X262881Y529233D01*
X262881Y522423D01*
X254323Y522423D01*
G37*
%LPD*%
%LPC*%
G36*
X254323Y459423D02*
X254323Y459423D01*
X254323Y475405D01*
X255161Y475273D01*
X256670Y474782D01*
X258083Y474062D01*
X259367Y473129D01*
X260489Y472007D01*
X261422Y470723D01*
X262142Y469310D01*
X262633Y467801D01*
X262881Y466233D01*
X262881Y459423D01*
X254323Y459423D01*
G37*
%LPD*%
%LPC*%
G36*
X254323Y519377D02*
X254323Y519377D01*
X262881Y519377D01*
X262881Y512567D01*
X262633Y510999D01*
X262142Y509490D01*
X261422Y508077D01*
X260489Y506793D01*
X259367Y505671D01*
X258083Y504738D01*
X256670Y504018D01*
X255161Y503527D01*
X254323Y503395D01*
X254323Y519377D01*
G37*
%LPD*%
%LPC*%
G36*
X254323Y456377D02*
X254323Y456377D01*
X262881Y456377D01*
X262881Y449567D01*
X262633Y447999D01*
X262142Y446490D01*
X261422Y445077D01*
X260489Y443793D01*
X259367Y442671D01*
X258083Y441738D01*
X256670Y441018D01*
X255161Y440527D01*
X254323Y440395D01*
X254323Y456377D01*
G37*
%LPD*%
%LPC*%
G36*
X242719Y459423D02*
X242719Y459423D01*
X242719Y466233D01*
X242967Y467801D01*
X243458Y469310D01*
X244178Y470723D01*
X245111Y472007D01*
X246233Y473129D01*
X247517Y474062D01*
X248930Y474782D01*
X250439Y475273D01*
X251277Y475405D01*
X251277Y459423D01*
X242719Y459423D01*
G37*
%LPD*%
%LPC*%
G36*
X242719Y522423D02*
X242719Y522423D01*
X242719Y529233D01*
X242967Y530801D01*
X243458Y532310D01*
X244178Y533723D01*
X245111Y535007D01*
X246233Y536129D01*
X247517Y537062D01*
X248930Y537782D01*
X250439Y538273D01*
X251277Y538405D01*
X251277Y522423D01*
X242719Y522423D01*
G37*
%LPD*%
%LPC*%
G36*
X250439Y440527D02*
X250439Y440527D01*
X248930Y441018D01*
X247517Y441738D01*
X246233Y442671D01*
X245111Y443793D01*
X244178Y445077D01*
X243458Y446490D01*
X242967Y447999D01*
X242719Y449567D01*
X242719Y456377D01*
X251277Y456377D01*
X251277Y440395D01*
X250439Y440527D01*
G37*
%LPD*%
%LPC*%
G36*
X250439Y503527D02*
X250439Y503527D01*
X248930Y504018D01*
X247517Y504738D01*
X246233Y505671D01*
X245111Y506793D01*
X244178Y508077D01*
X243458Y509490D01*
X242967Y510999D01*
X242719Y512567D01*
X242719Y519377D01*
X251277Y519377D01*
X251277Y503395D01*
X250439Y503527D01*
G37*
%LPD*%
%LPC*%
G36*
X576123Y956623D02*
X576123Y956623D01*
X576123Y966946D01*
X577396Y966745D01*
X579183Y966164D01*
X580857Y965311D01*
X582378Y964206D01*
X583706Y962878D01*
X584811Y961357D01*
X585664Y959683D01*
X586245Y957896D01*
X586446Y956623D01*
X576123Y956623D01*
G37*
%LPD*%
%LPC*%
G36*
X830123Y956623D02*
X830123Y956623D01*
X830123Y966946D01*
X831396Y966745D01*
X833183Y966164D01*
X834857Y965311D01*
X836378Y964206D01*
X837706Y962878D01*
X838811Y961357D01*
X839664Y959683D01*
X840245Y957896D01*
X840446Y956623D01*
X830123Y956623D01*
G37*
%LPD*%
%LPC*%
G36*
X652323Y956623D02*
X652323Y956623D01*
X652323Y966946D01*
X653596Y966745D01*
X655383Y966164D01*
X657057Y965311D01*
X658578Y964206D01*
X659906Y962878D01*
X661011Y961357D01*
X661864Y959683D01*
X662445Y957896D01*
X662646Y956623D01*
X652323Y956623D01*
G37*
%LPD*%
%LPC*%
G36*
X906323Y931223D02*
X906323Y931223D01*
X906323Y941546D01*
X907596Y941345D01*
X909383Y940764D01*
X911057Y939911D01*
X912578Y938806D01*
X913906Y937478D01*
X915011Y935957D01*
X915864Y934283D01*
X916445Y932496D01*
X916646Y931223D01*
X906323Y931223D01*
G37*
%LPD*%
%LPC*%
G36*
X525323Y931223D02*
X525323Y931223D01*
X525323Y941546D01*
X526596Y941345D01*
X528383Y940764D01*
X530057Y939911D01*
X531578Y938806D01*
X532906Y937478D01*
X534011Y935957D01*
X534864Y934283D01*
X535445Y932496D01*
X535646Y931223D01*
X525323Y931223D01*
G37*
%LPD*%
%LPC*%
G36*
X728523Y931223D02*
X728523Y931223D01*
X728523Y941546D01*
X729796Y941345D01*
X731583Y940764D01*
X733257Y939911D01*
X734778Y938806D01*
X736106Y937478D01*
X737211Y935957D01*
X738064Y934283D01*
X738645Y932496D01*
X738846Y931223D01*
X728523Y931223D01*
G37*
%LPD*%
%LPC*%
G36*
X474523Y956623D02*
X474523Y956623D01*
X474523Y966946D01*
X475796Y966745D01*
X477583Y966164D01*
X479257Y965311D01*
X480778Y964206D01*
X482106Y962878D01*
X483211Y961357D01*
X484064Y959683D01*
X484645Y957896D01*
X484846Y956623D01*
X474523Y956623D01*
G37*
%LPD*%
%LPC*%
G36*
X779323Y956623D02*
X779323Y956623D01*
X779323Y966946D01*
X780596Y966745D01*
X782383Y966164D01*
X784057Y965311D01*
X785578Y964206D01*
X786906Y962878D01*
X788011Y961357D01*
X788864Y959683D01*
X789445Y957896D01*
X789646Y956623D01*
X779323Y956623D01*
G37*
%LPD*%
%LPC*%
G36*
X652323Y953577D02*
X652323Y953577D01*
X662646Y953577D01*
X662445Y952304D01*
X661864Y950517D01*
X661011Y948843D01*
X659906Y947322D01*
X658578Y945994D01*
X657057Y944889D01*
X655383Y944036D01*
X653596Y943455D01*
X652323Y943254D01*
X652323Y953577D01*
G37*
%LPD*%
%LPC*%
G36*
X461154Y956623D02*
X461154Y956623D01*
X461355Y957896D01*
X461936Y959683D01*
X462789Y961357D01*
X463894Y962878D01*
X465222Y964206D01*
X466743Y965311D01*
X468417Y966164D01*
X470204Y966745D01*
X471477Y966946D01*
X471477Y956623D01*
X461154Y956623D01*
G37*
%LPD*%
%LPC*%
G36*
X765954Y956623D02*
X765954Y956623D01*
X766155Y957896D01*
X766736Y959683D01*
X767589Y961357D01*
X768694Y962878D01*
X770022Y964206D01*
X771543Y965311D01*
X773217Y966164D01*
X775004Y966745D01*
X776277Y966946D01*
X776277Y956623D01*
X765954Y956623D01*
G37*
%LPD*%
%LPC*%
G36*
X816754Y956623D02*
X816754Y956623D01*
X816955Y957896D01*
X817536Y959683D01*
X818389Y961357D01*
X819494Y962878D01*
X820822Y964206D01*
X822343Y965311D01*
X824017Y966164D01*
X825804Y966745D01*
X827077Y966946D01*
X827077Y956623D01*
X816754Y956623D01*
G37*
%LPD*%
%LPC*%
G36*
X892954Y931223D02*
X892954Y931223D01*
X893155Y932496D01*
X893736Y934283D01*
X894589Y935957D01*
X895694Y937478D01*
X897022Y938806D01*
X898543Y939911D01*
X900217Y940764D01*
X902004Y941345D01*
X903277Y941546D01*
X903277Y931223D01*
X892954Y931223D01*
G37*
%LPD*%
%LPC*%
G36*
X715154Y931223D02*
X715154Y931223D01*
X715355Y932496D01*
X715936Y934283D01*
X716789Y935957D01*
X717894Y937478D01*
X719222Y938806D01*
X720743Y939911D01*
X722417Y940764D01*
X724204Y941345D01*
X725477Y941546D01*
X725477Y931223D01*
X715154Y931223D01*
G37*
%LPD*%
%LPC*%
G36*
X511954Y931223D02*
X511954Y931223D01*
X512155Y932496D01*
X512736Y934283D01*
X513589Y935957D01*
X514694Y937478D01*
X516022Y938806D01*
X517543Y939911D01*
X519217Y940764D01*
X521004Y941345D01*
X522277Y941546D01*
X522277Y931223D01*
X511954Y931223D01*
G37*
%LPD*%
%LPC*%
G36*
X779323Y953577D02*
X779323Y953577D01*
X789646Y953577D01*
X789445Y952304D01*
X788864Y950517D01*
X788011Y948843D01*
X786906Y947322D01*
X785578Y945994D01*
X784057Y944889D01*
X782383Y944036D01*
X780596Y943455D01*
X779323Y943254D01*
X779323Y953577D01*
G37*
%LPD*%
%LPC*%
G36*
X638954Y956623D02*
X638954Y956623D01*
X639155Y957896D01*
X639736Y959683D01*
X640589Y961357D01*
X641694Y962878D01*
X643022Y964206D01*
X644543Y965311D01*
X646217Y966164D01*
X648004Y966745D01*
X649277Y966946D01*
X649277Y956623D01*
X638954Y956623D01*
G37*
%LPD*%
%LPC*%
G36*
X576123Y953577D02*
X576123Y953577D01*
X586446Y953577D01*
X586245Y952304D01*
X585664Y950517D01*
X584811Y948843D01*
X583706Y947322D01*
X582378Y945994D01*
X580857Y944889D01*
X579183Y944036D01*
X577396Y943455D01*
X576123Y943254D01*
X576123Y953577D01*
G37*
%LPD*%
%LPC*%
G36*
X525323Y928177D02*
X525323Y928177D01*
X535646Y928177D01*
X535445Y926904D01*
X534864Y925117D01*
X534011Y923443D01*
X532906Y921922D01*
X531578Y920594D01*
X530057Y919489D01*
X528383Y918636D01*
X526596Y918055D01*
X525323Y917854D01*
X525323Y928177D01*
G37*
%LPD*%
%LPC*%
G36*
X906323Y928177D02*
X906323Y928177D01*
X916646Y928177D01*
X916445Y926904D01*
X915864Y925117D01*
X915011Y923443D01*
X913906Y921922D01*
X912578Y920594D01*
X911057Y919489D01*
X909383Y918636D01*
X907596Y918055D01*
X906323Y917854D01*
X906323Y928177D01*
G37*
%LPD*%
%LPC*%
G36*
X728523Y928177D02*
X728523Y928177D01*
X738846Y928177D01*
X738645Y926904D01*
X738064Y925117D01*
X737211Y923443D01*
X736106Y921922D01*
X734778Y920594D01*
X733257Y919489D01*
X731583Y918636D01*
X729796Y918055D01*
X728523Y917854D01*
X728523Y928177D01*
G37*
%LPD*%
%LPC*%
G36*
X474523Y953577D02*
X474523Y953577D01*
X484846Y953577D01*
X484645Y952304D01*
X484064Y950517D01*
X483211Y948843D01*
X482106Y947322D01*
X480778Y945994D01*
X479257Y944889D01*
X477583Y944036D01*
X475796Y943455D01*
X474523Y943254D01*
X474523Y953577D01*
G37*
%LPD*%
%LPC*%
G36*
X830123Y953577D02*
X830123Y953577D01*
X840446Y953577D01*
X840245Y952304D01*
X839664Y950517D01*
X838811Y948843D01*
X837706Y947322D01*
X836378Y945994D01*
X834857Y944889D01*
X833183Y944036D01*
X831396Y943455D01*
X830123Y943254D01*
X830123Y953577D01*
G37*
%LPD*%
%LPC*%
G36*
X902004Y918055D02*
X902004Y918055D01*
X900217Y918636D01*
X898543Y919489D01*
X897022Y920594D01*
X895694Y921922D01*
X894589Y923443D01*
X893736Y925117D01*
X893155Y926904D01*
X892954Y928177D01*
X903277Y928177D01*
X903277Y917854D01*
X902004Y918055D01*
G37*
%LPD*%
%LPC*%
G36*
X724204Y918055D02*
X724204Y918055D01*
X722417Y918636D01*
X720743Y919489D01*
X719222Y920594D01*
X717894Y921922D01*
X716789Y923443D01*
X715936Y925117D01*
X715355Y926904D01*
X715154Y928177D01*
X725477Y928177D01*
X725477Y917854D01*
X724204Y918055D01*
G37*
%LPD*%
%LPC*%
G36*
X521004Y918055D02*
X521004Y918055D01*
X519217Y918636D01*
X517543Y919489D01*
X516022Y920594D01*
X514694Y921922D01*
X513589Y923443D01*
X512736Y925117D01*
X512155Y926904D01*
X511954Y928177D01*
X522277Y928177D01*
X522277Y917854D01*
X521004Y918055D01*
G37*
%LPD*%
%LPC*%
G36*
X825804Y943455D02*
X825804Y943455D01*
X824017Y944036D01*
X822343Y944889D01*
X820822Y945994D01*
X819494Y947322D01*
X818389Y948843D01*
X817536Y950517D01*
X816955Y952304D01*
X816754Y953577D01*
X827077Y953577D01*
X827077Y943254D01*
X825804Y943455D01*
G37*
%LPD*%
%LPC*%
G36*
X648004Y943455D02*
X648004Y943455D01*
X646217Y944036D01*
X644543Y944889D01*
X643022Y945994D01*
X641694Y947322D01*
X640589Y948843D01*
X639736Y950517D01*
X639155Y952304D01*
X638954Y953577D01*
X649277Y953577D01*
X649277Y943254D01*
X648004Y943455D01*
G37*
%LPD*%
%LPC*%
G36*
X775004Y943455D02*
X775004Y943455D01*
X773217Y944036D01*
X771543Y944889D01*
X770022Y945994D01*
X768694Y947322D01*
X767589Y948843D01*
X766736Y950517D01*
X766155Y952304D01*
X765954Y953577D01*
X776277Y953577D01*
X776277Y943254D01*
X775004Y943455D01*
G37*
%LPD*%
%LPC*%
G36*
X470204Y943455D02*
X470204Y943455D01*
X468417Y944036D01*
X466743Y944889D01*
X465222Y945994D01*
X463894Y947322D01*
X462789Y948843D01*
X461936Y950517D01*
X461355Y952304D01*
X461154Y953577D01*
X471477Y953577D01*
X471477Y943254D01*
X470204Y943455D01*
G37*
%LPD*%
%LPC*%
G36*
X673323Y344023D02*
X673323Y344023D01*
X673323Y353423D01*
X676324Y353423D01*
X682723Y347024D01*
X682723Y344023D01*
X673323Y344023D01*
G37*
%LPD*%
%LPC*%
G36*
X432223Y343823D02*
X432223Y343823D01*
X432223Y353223D01*
X435224Y353223D01*
X441623Y346824D01*
X441623Y343823D01*
X432223Y343823D01*
G37*
%LPD*%
%LPC*%
G36*
X791723Y343823D02*
X791723Y343823D01*
X791723Y353223D01*
X794724Y353223D01*
X801123Y346824D01*
X801123Y343823D01*
X791723Y343823D01*
G37*
%LPD*%
%LPC*%
G36*
X555223Y343823D02*
X555223Y343823D01*
X555223Y353223D01*
X558224Y353223D01*
X564623Y346824D01*
X564623Y343823D01*
X555223Y343823D01*
G37*
%LPD*%
%LPC*%
G36*
X673323Y331577D02*
X673323Y331577D01*
X673323Y340977D01*
X682723Y340977D01*
X682723Y337976D01*
X676324Y331577D01*
X673323Y331577D01*
G37*
%LPD*%
%LPC*%
G36*
X791723Y331377D02*
X791723Y331377D01*
X791723Y340777D01*
X801123Y340777D01*
X801123Y337776D01*
X794724Y331377D01*
X791723Y331377D01*
G37*
%LPD*%
%LPC*%
G36*
X660877Y344023D02*
X660877Y344023D01*
X660877Y347024D01*
X667276Y353423D01*
X670277Y353423D01*
X670277Y344023D01*
X660877Y344023D01*
G37*
%LPD*%
%LPC*%
G36*
X432223Y331377D02*
X432223Y331377D01*
X432223Y340777D01*
X441623Y340777D01*
X441623Y337776D01*
X435224Y331377D01*
X432223Y331377D01*
G37*
%LPD*%
%LPC*%
G36*
X555223Y331377D02*
X555223Y331377D01*
X555223Y340777D01*
X564623Y340777D01*
X564623Y337776D01*
X558224Y331377D01*
X555223Y331377D01*
G37*
%LPD*%
%LPC*%
G36*
X419777Y343823D02*
X419777Y343823D01*
X419777Y346824D01*
X426176Y353223D01*
X429177Y353223D01*
X429177Y343823D01*
X419777Y343823D01*
G37*
%LPD*%
%LPC*%
G36*
X779277Y343823D02*
X779277Y343823D01*
X779277Y346824D01*
X785676Y353223D01*
X788677Y353223D01*
X788677Y343823D01*
X779277Y343823D01*
G37*
%LPD*%
%LPC*%
G36*
X542777Y343823D02*
X542777Y343823D01*
X542777Y346824D01*
X549176Y353223D01*
X552177Y353223D01*
X552177Y343823D01*
X542777Y343823D01*
G37*
%LPD*%
%LPC*%
G36*
X667276Y331577D02*
X667276Y331577D01*
X660877Y337976D01*
X660877Y340977D01*
X670277Y340977D01*
X670277Y331577D01*
X667276Y331577D01*
G37*
%LPD*%
%LPC*%
G36*
X426176Y331377D02*
X426176Y331377D01*
X419777Y337776D01*
X419777Y340777D01*
X429177Y340777D01*
X429177Y331377D01*
X426176Y331377D01*
G37*
%LPD*%
%LPC*%
G36*
X785676Y331377D02*
X785676Y331377D01*
X779277Y337776D01*
X779277Y340777D01*
X788677Y340777D01*
X788677Y331377D01*
X785676Y331377D01*
G37*
%LPD*%
%LPC*%
G36*
X549176Y331377D02*
X549176Y331377D01*
X542777Y337776D01*
X542777Y340777D01*
X552177Y340777D01*
X552177Y331377D01*
X549176Y331377D01*
G37*
%LPD*%
%LPC*%
G36*
X1036423Y736023D02*
X1036423Y736023D01*
X1036423Y744032D01*
X1037160Y743915D01*
X1038605Y743446D01*
X1039959Y742756D01*
X1041188Y741863D01*
X1042263Y740788D01*
X1043156Y739559D01*
X1043846Y738205D01*
X1044315Y736760D01*
X1044432Y736023D01*
X1036423Y736023D01*
G37*
%LPD*%
%LPC*%
G36*
X1035823Y603823D02*
X1035823Y603823D01*
X1035823Y611832D01*
X1036560Y611715D01*
X1038005Y611246D01*
X1039359Y610556D01*
X1040588Y609663D01*
X1041663Y608588D01*
X1042556Y607359D01*
X1043246Y606005D01*
X1043715Y604560D01*
X1043832Y603823D01*
X1035823Y603823D01*
G37*
%LPD*%
%LPC*%
G36*
X1024768Y603823D02*
X1024768Y603823D01*
X1024885Y604560D01*
X1025354Y606005D01*
X1026044Y607359D01*
X1026937Y608588D01*
X1028012Y609663D01*
X1029241Y610556D01*
X1030595Y611246D01*
X1032040Y611715D01*
X1032777Y611832D01*
X1032777Y603823D01*
X1024768Y603823D01*
G37*
%LPD*%
%LPC*%
G36*
X1036423Y732977D02*
X1036423Y732977D01*
X1044432Y732977D01*
X1044315Y732240D01*
X1043846Y730795D01*
X1043156Y729441D01*
X1042263Y728212D01*
X1041188Y727137D01*
X1039959Y726244D01*
X1038605Y725554D01*
X1037160Y725085D01*
X1036423Y724968D01*
X1036423Y732977D01*
G37*
%LPD*%
%LPC*%
G36*
X1035823Y600777D02*
X1035823Y600777D01*
X1043832Y600777D01*
X1043715Y600040D01*
X1043246Y598595D01*
X1042556Y597241D01*
X1041663Y596012D01*
X1040588Y594937D01*
X1039359Y594044D01*
X1038005Y593354D01*
X1036560Y592885D01*
X1035823Y592768D01*
X1035823Y600777D01*
G37*
%LPD*%
%LPC*%
G36*
X1025368Y736023D02*
X1025368Y736023D01*
X1025485Y736760D01*
X1025954Y738205D01*
X1026644Y739559D01*
X1027537Y740788D01*
X1028612Y741863D01*
X1029841Y742756D01*
X1031195Y743446D01*
X1032640Y743915D01*
X1033377Y744032D01*
X1033377Y736023D01*
X1025368Y736023D01*
G37*
%LPD*%
%LPC*%
G36*
X1032040Y592885D02*
X1032040Y592885D01*
X1030595Y593354D01*
X1029241Y594044D01*
X1028012Y594937D01*
X1026937Y596012D01*
X1026044Y597241D01*
X1025354Y598595D01*
X1024885Y600040D01*
X1024768Y600777D01*
X1032777Y600777D01*
X1032777Y592768D01*
X1032040Y592885D01*
G37*
%LPD*%
%LPC*%
G36*
X1032640Y725085D02*
X1032640Y725085D01*
X1031195Y725554D01*
X1029841Y726244D01*
X1028612Y727137D01*
X1027537Y728212D01*
X1026644Y729441D01*
X1025954Y730795D01*
X1025485Y732240D01*
X1025368Y732977D01*
X1033377Y732977D01*
X1033377Y724968D01*
X1032640Y725085D01*
G37*
%LPD*%
%LPC*%
G36*
X249823Y719523D02*
X249823Y719523D01*
X249823Y727459D01*
X250543Y727345D01*
X251978Y726879D01*
X253321Y726194D01*
X254542Y725308D01*
X255608Y724242D01*
X256494Y723021D01*
X257179Y721678D01*
X257645Y720243D01*
X257759Y719523D01*
X249823Y719523D01*
G37*
%LPD*%
%LPC*%
G36*
X269223Y755923D02*
X269223Y755923D01*
X269223Y763859D01*
X269943Y763745D01*
X271378Y763279D01*
X272721Y762594D01*
X273942Y761708D01*
X275008Y760642D01*
X275894Y759421D01*
X276579Y758078D01*
X277045Y756643D01*
X277159Y755923D01*
X269223Y755923D01*
G37*
%LPD*%
%LPC*%
G36*
X249223Y875923D02*
X249223Y875923D01*
X249223Y883859D01*
X249943Y883745D01*
X251378Y883279D01*
X252721Y882594D01*
X253942Y881708D01*
X255008Y880642D01*
X255894Y879421D01*
X256579Y878078D01*
X257045Y876643D01*
X257159Y875923D01*
X249223Y875923D01*
G37*
%LPD*%
%LPC*%
G36*
X269823Y599523D02*
X269823Y599523D01*
X269823Y607459D01*
X270543Y607345D01*
X271978Y606879D01*
X273321Y606194D01*
X274542Y605308D01*
X275608Y604242D01*
X276494Y603021D01*
X277179Y601678D01*
X277645Y600243D01*
X277759Y599523D01*
X269823Y599523D01*
G37*
%LPD*%
%LPC*%
G36*
X249823Y716477D02*
X249823Y716477D01*
X257759Y716477D01*
X257645Y715757D01*
X257179Y714322D01*
X256494Y712979D01*
X255608Y711758D01*
X254542Y710692D01*
X253321Y709806D01*
X251978Y709121D01*
X250543Y708655D01*
X249823Y708541D01*
X249823Y716477D01*
G37*
%LPD*%
%LPC*%
G36*
X258241Y755923D02*
X258241Y755923D01*
X258355Y756643D01*
X258821Y758078D01*
X259506Y759421D01*
X260392Y760642D01*
X261458Y761708D01*
X262679Y762594D01*
X264022Y763279D01*
X265457Y763745D01*
X266177Y763859D01*
X266177Y755923D01*
X258241Y755923D01*
G37*
%LPD*%
%LPC*%
G36*
X249223Y872877D02*
X249223Y872877D01*
X257159Y872877D01*
X257045Y872157D01*
X256579Y870722D01*
X255894Y869379D01*
X255008Y868158D01*
X253942Y867092D01*
X252721Y866206D01*
X251378Y865521D01*
X249943Y865055D01*
X249223Y864941D01*
X249223Y872877D01*
G37*
%LPD*%
%LPC*%
G36*
X269223Y752877D02*
X269223Y752877D01*
X277159Y752877D01*
X277045Y752157D01*
X276579Y750722D01*
X275894Y749379D01*
X275008Y748158D01*
X273942Y747092D01*
X272721Y746206D01*
X271378Y745521D01*
X269943Y745055D01*
X269223Y744941D01*
X269223Y752877D01*
G37*
%LPD*%
%LPC*%
G36*
X258841Y599523D02*
X258841Y599523D01*
X258955Y600243D01*
X259421Y601678D01*
X260106Y603021D01*
X260992Y604242D01*
X262058Y605308D01*
X263279Y606194D01*
X264622Y606879D01*
X266057Y607345D01*
X266777Y607459D01*
X266777Y599523D01*
X258841Y599523D01*
G37*
%LPD*%
%LPC*%
G36*
X238241Y875923D02*
X238241Y875923D01*
X238355Y876643D01*
X238821Y878078D01*
X239506Y879421D01*
X240392Y880642D01*
X241458Y881708D01*
X242679Y882594D01*
X244022Y883279D01*
X245457Y883745D01*
X246177Y883859D01*
X246177Y875923D01*
X238241Y875923D01*
G37*
%LPD*%
%LPC*%
G36*
X269823Y596477D02*
X269823Y596477D01*
X277759Y596477D01*
X277645Y595757D01*
X277179Y594322D01*
X276494Y592979D01*
X275608Y591758D01*
X274542Y590692D01*
X273321Y589806D01*
X271978Y589121D01*
X270543Y588655D01*
X269823Y588541D01*
X269823Y596477D01*
G37*
%LPD*%
%LPC*%
G36*
X238841Y719523D02*
X238841Y719523D01*
X238955Y720243D01*
X239421Y721678D01*
X240106Y723021D01*
X240992Y724242D01*
X242058Y725308D01*
X243279Y726194D01*
X244622Y726879D01*
X246057Y727345D01*
X246777Y727459D01*
X246777Y719523D01*
X238841Y719523D01*
G37*
%LPD*%
%LPC*%
G36*
X246057Y708655D02*
X246057Y708655D01*
X244622Y709121D01*
X243279Y709806D01*
X242058Y710692D01*
X240992Y711758D01*
X240106Y712979D01*
X239421Y714322D01*
X238955Y715757D01*
X238841Y716477D01*
X246777Y716477D01*
X246777Y708541D01*
X246057Y708655D01*
G37*
%LPD*%
%LPC*%
G36*
X266057Y588655D02*
X266057Y588655D01*
X264622Y589121D01*
X263279Y589806D01*
X262058Y590692D01*
X260992Y591758D01*
X260106Y592979D01*
X259421Y594322D01*
X258955Y595757D01*
X258841Y596477D01*
X266777Y596477D01*
X266777Y588541D01*
X266057Y588655D01*
G37*
%LPD*%
%LPC*%
G36*
X245457Y865055D02*
X245457Y865055D01*
X244022Y865521D01*
X242679Y866206D01*
X241458Y867092D01*
X240392Y868158D01*
X239506Y869379D01*
X238821Y870722D01*
X238355Y872157D01*
X238241Y872877D01*
X246177Y872877D01*
X246177Y864941D01*
X245457Y865055D01*
G37*
%LPD*%
%LPC*%
G36*
X265457Y745055D02*
X265457Y745055D01*
X264022Y745521D01*
X262679Y746206D01*
X261458Y747092D01*
X260392Y748158D01*
X259506Y749379D01*
X258821Y750722D01*
X258355Y752157D01*
X258241Y752877D01*
X266177Y752877D01*
X266177Y744941D01*
X265457Y745055D01*
G37*
%LPD*%
%LPC*%
G36*
X252799Y457899D02*
X252799Y457899D01*
X252799Y457901D01*
X252801Y457901D01*
X252801Y457899D01*
X252799Y457899D01*
G37*
%LPD*%
%LPC*%
G36*
X788719Y841059D02*
X788719Y841059D01*
X788719Y841061D01*
X788721Y841061D01*
X788721Y841059D01*
X788719Y841059D01*
G37*
%LPD*%
%LPC*%
G36*
X885599Y577399D02*
X885599Y577399D01*
X885599Y577401D01*
X885601Y577401D01*
X885601Y577399D01*
X885599Y577399D01*
G37*
%LPD*%
%LPC*%
G36*
X1034299Y602299D02*
X1034299Y602299D01*
X1034299Y602301D01*
X1034301Y602301D01*
X1034301Y602299D01*
X1034299Y602299D01*
G37*
%LPD*%
%LPC*%
G36*
X726999Y929699D02*
X726999Y929699D01*
X726999Y929701D01*
X727001Y929701D01*
X727001Y929699D01*
X726999Y929699D01*
G37*
%LPD*%
%LPC*%
G36*
X904799Y929699D02*
X904799Y929699D01*
X904799Y929701D01*
X904801Y929701D01*
X904801Y929699D01*
X904799Y929699D01*
G37*
%LPD*%
%LPC*%
G36*
X523799Y929699D02*
X523799Y929699D01*
X523799Y929701D01*
X523801Y929701D01*
X523801Y929699D01*
X523799Y929699D01*
G37*
%LPD*%
%LPC*%
G36*
X777799Y955099D02*
X777799Y955099D01*
X777799Y955101D01*
X777801Y955101D01*
X777801Y955099D01*
X777799Y955099D01*
G37*
%LPD*%
%LPC*%
G36*
X472999Y955099D02*
X472999Y955099D01*
X472999Y955101D01*
X473001Y955101D01*
X473001Y955099D01*
X472999Y955099D01*
G37*
%LPD*%
%LPC*%
G36*
X790199Y342299D02*
X790199Y342299D01*
X790199Y342301D01*
X790201Y342301D01*
X790201Y342299D01*
X790199Y342299D01*
G37*
%LPD*%
%LPC*%
G36*
X553699Y342299D02*
X553699Y342299D01*
X553699Y342301D01*
X553701Y342301D01*
X553701Y342299D01*
X553699Y342299D01*
G37*
%LPD*%
%LPC*%
G36*
X430699Y342299D02*
X430699Y342299D01*
X430699Y342301D01*
X430701Y342301D01*
X430701Y342299D01*
X430699Y342299D01*
G37*
%LPD*%
%LPC*%
G36*
X650799Y955099D02*
X650799Y955099D01*
X650799Y955101D01*
X650801Y955101D01*
X650801Y955099D01*
X650799Y955099D01*
G37*
%LPD*%
%LPC*%
G36*
X828599Y955099D02*
X828599Y955099D01*
X828599Y955101D01*
X828601Y955101D01*
X828601Y955099D01*
X828599Y955099D01*
G37*
%LPD*%
%LPC*%
G36*
X247699Y874399D02*
X247699Y874399D01*
X247699Y874401D01*
X247701Y874401D01*
X247701Y874399D01*
X247699Y874399D01*
G37*
%LPD*%
%LPC*%
G36*
X392479Y841059D02*
X392479Y841059D01*
X392479Y841061D01*
X392481Y841061D01*
X392481Y841059D01*
X392479Y841059D01*
G37*
%LPD*%
%LPC*%
G36*
X267699Y754399D02*
X267699Y754399D01*
X267699Y754401D01*
X267701Y754401D01*
X267701Y754399D01*
X267699Y754399D01*
G37*
%LPD*%
%LPC*%
G36*
X268299Y597999D02*
X268299Y597999D01*
X268299Y598001D01*
X268301Y598001D01*
X268301Y597999D01*
X268299Y597999D01*
G37*
%LPD*%
%LPC*%
G36*
X252799Y520899D02*
X252799Y520899D01*
X252799Y520901D01*
X252801Y520901D01*
X252801Y520899D01*
X252799Y520899D01*
G37*
%LPD*%
%LPC*%
G36*
X1034899Y734499D02*
X1034899Y734499D01*
X1034899Y734501D01*
X1034901Y734501D01*
X1034901Y734499D01*
X1034899Y734499D01*
G37*
%LPD*%
%LPC*%
G36*
X789019Y610559D02*
X789019Y610559D01*
X789019Y610561D01*
X789021Y610561D01*
X789021Y610559D01*
X789019Y610559D01*
G37*
%LPD*%
%LPC*%
G36*
X392779Y610559D02*
X392779Y610559D01*
X392779Y610561D01*
X392781Y610561D01*
X392781Y610559D01*
X392779Y610559D01*
G37*
%LPD*%
%LPC*%
G36*
X248299Y717999D02*
X248299Y717999D01*
X248299Y718001D01*
X248301Y718001D01*
X248301Y717999D01*
X248299Y717999D01*
G37*
%LPD*%
%LPC*%
G36*
X671799Y342499D02*
X671799Y342499D01*
X671799Y342501D01*
X671801Y342501D01*
X671801Y342499D01*
X671799Y342499D01*
G37*
%LPD*%
D10*
X1034300Y582300D03*
X1034300Y602300D03*
D11*
X422200Y929700D03*
X422200Y955100D03*
X447600Y929700D03*
X447600Y955100D03*
X473000Y929700D03*
X473000Y955100D03*
X498400Y929700D03*
X498400Y955100D03*
X523800Y929700D03*
X523800Y955100D03*
X549200Y929700D03*
X549200Y955100D03*
X574600Y929700D03*
X574600Y955100D03*
X600000Y929700D03*
X600000Y955100D03*
X625400Y929700D03*
X625400Y955100D03*
X650800Y929700D03*
X650800Y955100D03*
X676200Y929700D03*
X676200Y955100D03*
X701600Y929700D03*
X701600Y955100D03*
X727000Y929700D03*
X727000Y955100D03*
X752400Y929700D03*
X752400Y955100D03*
X777800Y929700D03*
X777800Y955100D03*
X803200Y929700D03*
X803200Y955100D03*
X828600Y929700D03*
X828600Y955100D03*
X854000Y929700D03*
X854000Y955100D03*
X879400Y929700D03*
X879400Y955100D03*
X904800Y929700D03*
X904800Y955100D03*
D12*
X764800Y342300D03*
X790200Y342300D03*
X405300Y342300D03*
X430700Y342300D03*
X528300Y342300D03*
X553700Y342300D03*
X646400Y342500D03*
X671800Y342500D03*
D13*
X717900Y317500D03*
X717900Y368300D03*
D14*
X354100Y368200D03*
X354100Y317400D03*
D13*
X472900Y318100D03*
X472900Y368900D03*
X596900Y317900D03*
X596900Y368700D03*
D15*
X788720Y668340D03*
X788720Y841060D03*
X392480Y841060D03*
X392480Y668340D03*
D16*
X889700Y441700D03*
X936690Y441700D03*
X842710Y441700D03*
X864300Y314700D03*
X915100Y314700D03*
D10*
X1034900Y714500D03*
X1034900Y734500D03*
D17*
X248300Y718000D03*
X268300Y718000D03*
X248300Y698000D03*
X268300Y698000D03*
X248300Y678000D03*
X268300Y678000D03*
X248300Y658000D03*
X268300Y658000D03*
X248300Y638000D03*
X268300Y638000D03*
X248300Y618000D03*
X268300Y618000D03*
X248300Y598000D03*
X268300Y598000D03*
X247700Y874400D03*
X267700Y874400D03*
X247700Y854400D03*
X267700Y854400D03*
X247700Y834400D03*
X267700Y834400D03*
X247700Y814400D03*
X267700Y814400D03*
X247700Y794400D03*
X267700Y794400D03*
X247700Y774400D03*
X267700Y774400D03*
X247700Y754400D03*
X267700Y754400D03*
D15*
X789020Y437840D03*
X789020Y610560D03*
X392780Y610560D03*
X392780Y437840D03*
D18*
X303600Y513360D02*
X303600Y528440D01*
X278200Y528440D02*
X278200Y513360D01*
X252800Y513360D02*
X252800Y528440D01*
X303600Y465440D02*
X303600Y450360D01*
X278200Y450360D02*
X278200Y465440D01*
X252800Y465440D02*
X252800Y450360D01*
D19*
X885600Y569018D02*
X885600Y585782D01*
X911000Y585782D02*
X911000Y569018D01*
X936400Y569018D02*
X936400Y585782D01*
D20*
X472758Y450138D02*
X472758Y369837D01*
X472758Y450138D02*
X698958Y676338D01*
X472758Y369837D02*
X472900Y368900D01*
D21*
X698958Y676338D03*
D22*
X1032603Y581334D02*
X1033734Y581334D01*
X1032603Y581334D02*
X908193Y456924D01*
X908193Y455793D01*
X894621Y442221D01*
X890097Y442221D01*
X1033734Y581334D02*
X1034300Y582300D01*
X890097Y442221D02*
X889700Y441700D01*
D20*
X247689Y698958D02*
X245427Y698958D01*
X232986Y711399D01*
X232986Y803010D01*
X236379Y806403D01*
X254475Y954564D02*
X277095Y977184D01*
X835809Y977184D01*
X853905Y959088D01*
X853905Y955695D01*
X248300Y698000D02*
X247689Y698958D01*
X854000Y955100D02*
X853905Y955695D01*
D21*
X236379Y806403D03*
X254475Y954564D03*
D20*
X247689Y678600D02*
X245427Y678600D01*
X228462Y695565D01*
X228462Y918372D01*
X262392Y952302D01*
X262392Y955695D01*
X279357Y972660D01*
X554190Y972660D01*
X559845Y967005D01*
X559845Y962481D01*
X562107Y960219D01*
X562107Y950040D01*
X559845Y947778D01*
X559845Y945516D01*
X560976Y944385D01*
X549666Y933075D01*
X549666Y930813D01*
X248300Y678000D02*
X247689Y678600D01*
X549200Y929700D02*
X549666Y930813D01*
X755508Y843726D02*
X825630Y913848D01*
X835809Y913848D01*
X851643Y929682D01*
X853905Y929682D01*
X854000Y929700D01*
D21*
X755508Y843726D03*
D20*
X271440Y618657D02*
X269178Y618657D01*
X271440Y618657D02*
X282750Y629967D01*
X282750Y761163D01*
X270309Y773604D01*
X268047Y773604D01*
X269178Y618657D02*
X268300Y618000D01*
X268047Y773604D02*
X267700Y774400D01*
X268047Y775866D02*
X294060Y801879D01*
X268047Y775866D02*
X267700Y774400D01*
D21*
X294060Y801879D03*
D20*
X247689Y658242D02*
X245427Y658242D01*
X223938Y679731D01*
X223938Y934206D01*
X271440Y981708D01*
X856167Y981708D01*
X878787Y959088D01*
X878787Y955695D01*
X248300Y658000D02*
X247689Y658242D01*
X878787Y955695D02*
X879400Y955100D01*
X370968Y680862D02*
X294060Y680862D01*
X370968Y680862D02*
X453531Y763425D01*
X741936Y763425D01*
X755508Y776997D02*
X775866Y776997D01*
X921765Y922896D01*
X921765Y936468D01*
X904800Y953433D01*
X904800Y955100D01*
D21*
X294060Y680862D03*
X741936Y763425D03*
X755508Y776997D03*
D20*
X247689Y855036D02*
X243165Y855036D01*
X232986Y865215D01*
X232986Y881049D01*
X261261Y909324D01*
X428649Y909324D01*
X247689Y855036D02*
X247700Y854400D01*
D21*
X428649Y909324D03*
D20*
X270309Y815451D02*
X268047Y815451D01*
X270309Y815451D02*
X356265Y901407D01*
X549666Y901407D01*
X268047Y815451D02*
X267700Y814400D01*
D21*
X549666Y901407D03*
D20*
X270309Y795093D02*
X268047Y795093D01*
X270309Y795093D02*
X342693Y867477D01*
X636753Y867477D01*
X268047Y795093D02*
X267700Y794400D01*
D21*
X636753Y867477D03*
D20*
X470496Y458055D02*
X304239Y458055D01*
X470496Y458055D02*
X758901Y746460D01*
X304239Y458055D02*
X303600Y457900D01*
D21*
X758901Y746460D03*
D22*
X426387Y926289D02*
X422994Y929682D01*
X426387Y926289D02*
X426387Y925158D01*
X441090Y910455D01*
X606216Y910455D01*
X625443Y929682D01*
X422994Y929682D02*
X422200Y929700D01*
X625400Y929700D02*
X625443Y929682D01*
X920069Y598865D02*
X911586Y590382D01*
X920069Y598865D02*
X1034865Y713661D01*
X911586Y590382D02*
X911586Y577941D01*
X1034865Y713661D02*
X1034900Y714500D01*
X911586Y577941D02*
X911000Y577400D01*
X920069Y598865D02*
X609609Y909324D01*
X606216Y910455D01*
M02*
