G04 EAGLE Gerber RS-274X export*
G75*
%MOMM*%
%FSLAX34Y34*%
%LPD*%
%INTop Copper*%
%IPPOS*%
%AMOC8*
5,1,8,0,0,1.08239X$1,22.5*%
G01*
%ADD10C,1.422400*%
%ADD11C,1.879600*%
%ADD12P,1.814519X8X22.500000*%
%ADD13P,1.429621X8X112.500000*%
%ADD14P,1.429621X8X292.500000*%
%ADD15R,2.500000X2.500000*%
%ADD16C,2.819400*%
%ADD17C,1.408000*%
%ADD18C,1.508000*%
%ADD19C,1.676400*%
%ADD20C,0.756400*%
%ADD21C,1.000000*%
%ADD22C,0.400000*%

G36*
X857524Y299013D02*
X857524Y299013D01*
X857620Y299029D01*
X857716Y299038D01*
X857740Y299049D01*
X857766Y299053D01*
X857852Y299098D01*
X857941Y299138D01*
X857960Y299156D01*
X857984Y299168D01*
X858051Y299239D01*
X858122Y299304D01*
X858135Y299327D01*
X858153Y299347D01*
X858194Y299435D01*
X858241Y299520D01*
X858245Y299546D01*
X858256Y299570D01*
X858267Y299666D01*
X858284Y299762D01*
X858281Y299788D01*
X858283Y299814D01*
X858263Y299909D01*
X858249Y300005D01*
X858237Y300029D01*
X858231Y300055D01*
X858181Y300138D01*
X858137Y300224D01*
X858118Y300243D01*
X858105Y300266D01*
X858031Y300328D01*
X857961Y300397D01*
X857932Y300413D01*
X857918Y300425D01*
X857887Y300438D01*
X857815Y300478D01*
X855451Y301457D01*
X851057Y305851D01*
X848678Y311593D01*
X848678Y317807D01*
X851057Y323549D01*
X855451Y327943D01*
X861193Y330322D01*
X867407Y330322D01*
X873149Y327943D01*
X877543Y323549D01*
X879922Y317807D01*
X879922Y311593D01*
X877543Y305851D01*
X873149Y301457D01*
X870808Y300487D01*
X870725Y300435D01*
X870639Y300390D01*
X870621Y300371D01*
X870599Y300357D01*
X870537Y300282D01*
X870470Y300211D01*
X870459Y300188D01*
X870442Y300168D01*
X870407Y300077D01*
X870366Y299988D01*
X870363Y299962D01*
X870354Y299938D01*
X870350Y299841D01*
X870339Y299744D01*
X870345Y299718D01*
X870344Y299692D01*
X870371Y299598D01*
X870392Y299503D01*
X870405Y299481D01*
X870412Y299456D01*
X870468Y299376D01*
X870518Y299292D01*
X870538Y299275D01*
X870552Y299254D01*
X870631Y299196D01*
X870705Y299132D01*
X870729Y299123D01*
X870750Y299107D01*
X870843Y299077D01*
X870933Y299041D01*
X870965Y299037D01*
X870984Y299031D01*
X871017Y299031D01*
X871100Y299022D01*
X908239Y299048D01*
X908335Y299064D01*
X908432Y299073D01*
X908456Y299084D01*
X908482Y299088D01*
X908568Y299133D01*
X908657Y299173D01*
X908676Y299191D01*
X908699Y299203D01*
X908766Y299274D01*
X908838Y299339D01*
X908850Y299362D01*
X908869Y299382D01*
X908909Y299470D01*
X908956Y299555D01*
X908961Y299581D01*
X908972Y299605D01*
X908983Y299701D01*
X909000Y299797D01*
X908996Y299823D01*
X908999Y299849D01*
X908978Y299944D01*
X908964Y300040D01*
X908952Y300064D01*
X908947Y300089D01*
X908897Y300173D01*
X908853Y300259D01*
X908834Y300278D01*
X908820Y300301D01*
X908747Y300363D01*
X908677Y300432D01*
X908648Y300448D01*
X908633Y300460D01*
X908603Y300473D01*
X908530Y300512D01*
X906251Y301457D01*
X901857Y305851D01*
X899478Y311593D01*
X899478Y317807D01*
X901857Y323549D01*
X906251Y327943D01*
X911993Y330322D01*
X918207Y330322D01*
X923949Y327943D01*
X928343Y323549D01*
X930722Y317807D01*
X930722Y311593D01*
X928343Y305851D01*
X923949Y301457D01*
X921693Y300522D01*
X921610Y300470D01*
X921523Y300425D01*
X921506Y300406D01*
X921484Y300392D01*
X921421Y300317D01*
X921354Y300246D01*
X921343Y300223D01*
X921327Y300203D01*
X921292Y300112D01*
X921251Y300023D01*
X921248Y299997D01*
X921239Y299973D01*
X921234Y299876D01*
X921224Y299779D01*
X921229Y299753D01*
X921228Y299727D01*
X921255Y299634D01*
X921276Y299538D01*
X921290Y299516D01*
X921297Y299491D01*
X921352Y299411D01*
X921403Y299327D01*
X921422Y299311D01*
X921437Y299289D01*
X921516Y299231D01*
X921590Y299168D01*
X921614Y299158D01*
X921634Y299142D01*
X921727Y299112D01*
X921818Y299076D01*
X921850Y299072D01*
X921868Y299066D01*
X921901Y299067D01*
X921985Y299057D01*
X1061079Y299153D01*
X1061098Y299156D01*
X1061117Y299154D01*
X1061219Y299176D01*
X1061321Y299193D01*
X1061339Y299202D01*
X1061358Y299206D01*
X1061447Y299260D01*
X1061539Y299308D01*
X1061552Y299323D01*
X1061569Y299333D01*
X1061636Y299412D01*
X1061708Y299487D01*
X1061716Y299505D01*
X1061729Y299520D01*
X1061768Y299616D01*
X1061811Y299710D01*
X1061813Y299729D01*
X1061821Y299748D01*
X1061839Y299914D01*
X1061839Y988071D01*
X1061836Y988090D01*
X1061838Y988111D01*
X1061816Y988212D01*
X1061800Y988313D01*
X1061790Y988331D01*
X1061786Y988351D01*
X1061733Y988440D01*
X1061684Y988531D01*
X1061670Y988545D01*
X1061659Y988562D01*
X1061581Y988629D01*
X1061506Y988700D01*
X1061488Y988709D01*
X1061472Y988722D01*
X1061377Y988760D01*
X1061283Y988804D01*
X1061263Y988806D01*
X1061244Y988813D01*
X1061077Y988832D01*
X524610Y988462D01*
X524539Y988451D01*
X524468Y988449D01*
X524419Y988431D01*
X524367Y988422D01*
X524304Y988389D01*
X524237Y988364D01*
X524196Y988332D01*
X524150Y988307D01*
X524101Y988255D01*
X524045Y988211D01*
X524017Y988167D01*
X523981Y988129D01*
X523951Y988064D01*
X523912Y988004D01*
X523899Y987953D01*
X523877Y987905D01*
X523869Y987834D01*
X523852Y987765D01*
X523856Y987713D01*
X523850Y987661D01*
X523865Y987591D01*
X523871Y987520D01*
X523891Y987472D01*
X523903Y987421D01*
X523939Y987359D01*
X523967Y987294D01*
X524012Y987237D01*
X524029Y987210D01*
X524047Y987195D01*
X524072Y987163D01*
X545384Y965851D01*
X545478Y965783D01*
X545573Y965713D01*
X545579Y965711D01*
X545584Y965707D01*
X545695Y965673D01*
X545807Y965637D01*
X545813Y965637D01*
X545819Y965635D01*
X545936Y965638D01*
X546053Y965639D01*
X546060Y965641D01*
X546065Y965641D01*
X546082Y965648D01*
X546214Y965686D01*
X547027Y966023D01*
X551373Y966023D01*
X555387Y964360D01*
X558460Y961287D01*
X560123Y957273D01*
X560123Y952927D01*
X558460Y948913D01*
X555387Y945840D01*
X551373Y944177D01*
X547027Y944177D01*
X543013Y945840D01*
X539940Y948913D01*
X538277Y952927D01*
X538277Y957273D01*
X539757Y960844D01*
X539783Y960958D01*
X539812Y961071D01*
X539811Y961077D01*
X539813Y961084D01*
X539802Y961200D01*
X539793Y961316D01*
X539790Y961322D01*
X539790Y961328D01*
X539742Y961436D01*
X539696Y961543D01*
X539692Y961549D01*
X539690Y961553D01*
X539677Y961567D01*
X539592Y961674D01*
X520013Y981252D01*
X519939Y981305D01*
X519870Y981365D01*
X519839Y981377D01*
X519813Y981396D01*
X519726Y981423D01*
X519641Y981457D01*
X519600Y981461D01*
X519578Y981468D01*
X519546Y981467D01*
X519475Y981475D01*
X506597Y981475D01*
X506527Y981464D01*
X506455Y981462D01*
X506406Y981444D01*
X506355Y981436D01*
X506291Y981402D01*
X506224Y981377D01*
X506183Y981345D01*
X506137Y981320D01*
X506088Y981269D01*
X506032Y981224D01*
X506004Y981180D01*
X505968Y981142D01*
X505938Y981077D01*
X505899Y981017D01*
X505886Y980966D01*
X505864Y980919D01*
X505856Y980848D01*
X505839Y980778D01*
X505843Y980726D01*
X505837Y980675D01*
X505852Y980604D01*
X505858Y980533D01*
X505878Y980485D01*
X505889Y980434D01*
X505926Y980373D01*
X505954Y980307D01*
X505999Y980251D01*
X506015Y980223D01*
X506033Y980208D01*
X506059Y980176D01*
X520267Y965968D01*
X520362Y965900D01*
X520456Y965830D01*
X520462Y965828D01*
X520467Y965824D01*
X520578Y965790D01*
X520689Y965754D01*
X520696Y965754D01*
X520702Y965752D01*
X520818Y965755D01*
X520935Y965756D01*
X520943Y965758D01*
X520948Y965758D01*
X520965Y965765D01*
X521096Y965803D01*
X521627Y966023D01*
X525973Y966023D01*
X529987Y964360D01*
X533060Y961287D01*
X534723Y957273D01*
X534723Y952927D01*
X533060Y948913D01*
X529987Y945840D01*
X525973Y944177D01*
X521627Y944177D01*
X517613Y945840D01*
X514540Y948913D01*
X512877Y952927D01*
X512877Y957273D01*
X514474Y961127D01*
X514500Y961240D01*
X514529Y961354D01*
X514528Y961360D01*
X514530Y961366D01*
X514519Y961483D01*
X514510Y961599D01*
X514507Y961605D01*
X514507Y961611D01*
X514459Y961719D01*
X514414Y961826D01*
X514409Y961831D01*
X514407Y961836D01*
X514394Y961850D01*
X514309Y961957D01*
X501263Y975002D01*
X501189Y975055D01*
X501120Y975115D01*
X501089Y975127D01*
X501063Y975146D01*
X500976Y975173D01*
X500891Y975207D01*
X500850Y975211D01*
X500828Y975218D01*
X500796Y975217D01*
X500725Y975225D01*
X484097Y975225D01*
X484027Y975214D01*
X483955Y975212D01*
X483906Y975194D01*
X483855Y975186D01*
X483791Y975152D01*
X483724Y975127D01*
X483683Y975095D01*
X483637Y975070D01*
X483588Y975018D01*
X483532Y974974D01*
X483504Y974930D01*
X483468Y974892D01*
X483438Y974827D01*
X483399Y974767D01*
X483386Y974716D01*
X483364Y974669D01*
X483356Y974598D01*
X483339Y974528D01*
X483343Y974476D01*
X483337Y974425D01*
X483352Y974354D01*
X483358Y974283D01*
X483378Y974235D01*
X483389Y974184D01*
X483426Y974123D01*
X483454Y974057D01*
X483499Y974001D01*
X483515Y973973D01*
X483533Y973958D01*
X483559Y973926D01*
X492498Y964987D01*
X492592Y964919D01*
X492687Y964849D01*
X492693Y964847D01*
X492698Y964843D01*
X492809Y964809D01*
X492921Y964773D01*
X492927Y964773D01*
X492933Y964771D01*
X493050Y964774D01*
X493167Y964775D01*
X493174Y964777D01*
X493179Y964777D01*
X493196Y964784D01*
X493328Y964822D01*
X496227Y966023D01*
X500573Y966023D01*
X504587Y964360D01*
X507660Y961287D01*
X509323Y957273D01*
X509323Y952927D01*
X507660Y948913D01*
X504587Y945840D01*
X500573Y944177D01*
X496227Y944177D01*
X492213Y945840D01*
X489140Y948913D01*
X487477Y952927D01*
X487477Y957273D01*
X488093Y958758D01*
X488119Y958872D01*
X488148Y958985D01*
X488147Y958992D01*
X488149Y958998D01*
X488138Y959114D01*
X488129Y959230D01*
X488126Y959236D01*
X488126Y959242D01*
X488078Y959350D01*
X488032Y959457D01*
X488028Y959463D01*
X488026Y959467D01*
X488013Y959481D01*
X487928Y959588D01*
X478763Y968752D01*
X478689Y968805D01*
X478620Y968865D01*
X478589Y968877D01*
X478563Y968896D01*
X478476Y968923D01*
X478391Y968957D01*
X478350Y968961D01*
X478328Y968968D01*
X478296Y968967D01*
X478225Y968975D01*
X418025Y968975D01*
X417935Y968961D01*
X417844Y968953D01*
X417815Y968941D01*
X417783Y968936D01*
X417702Y968893D01*
X417618Y968857D01*
X417586Y968831D01*
X417565Y968820D01*
X417543Y968797D01*
X417487Y968752D01*
X411248Y962513D01*
X411195Y962439D01*
X411135Y962370D01*
X411123Y962339D01*
X411104Y962313D01*
X411077Y962226D01*
X411043Y962141D01*
X411039Y962100D01*
X411032Y962078D01*
X411033Y962046D01*
X411025Y961975D01*
X411025Y960490D01*
X411040Y960394D01*
X411050Y960297D01*
X411060Y960273D01*
X411064Y960247D01*
X411110Y960161D01*
X411150Y960072D01*
X411167Y960053D01*
X411180Y960030D01*
X411250Y959963D01*
X411316Y959891D01*
X411339Y959879D01*
X411358Y959861D01*
X411446Y959820D01*
X411532Y959773D01*
X411557Y959768D01*
X411581Y959757D01*
X411678Y959746D01*
X411774Y959729D01*
X411800Y959733D01*
X411825Y959730D01*
X411921Y959750D01*
X412017Y959765D01*
X412040Y959776D01*
X412066Y959782D01*
X412149Y959832D01*
X412236Y959876D01*
X412255Y959895D01*
X412277Y959908D01*
X412340Y959982D01*
X412408Y960052D01*
X412424Y960080D01*
X412437Y960095D01*
X412449Y960126D01*
X412489Y960199D01*
X412940Y961287D01*
X416013Y964360D01*
X420027Y966023D01*
X424373Y966023D01*
X428387Y964360D01*
X431460Y961287D01*
X433123Y957273D01*
X433123Y952927D01*
X431460Y948913D01*
X428387Y945840D01*
X424373Y944177D01*
X420027Y944177D01*
X416013Y945840D01*
X412940Y948913D01*
X412489Y950001D01*
X412438Y950084D01*
X412392Y950170D01*
X412374Y950188D01*
X412360Y950210D01*
X412284Y950273D01*
X412214Y950339D01*
X412190Y950350D01*
X412170Y950367D01*
X412079Y950402D01*
X411991Y950443D01*
X411965Y950446D01*
X411941Y950455D01*
X411843Y950459D01*
X411747Y950470D01*
X411721Y950465D01*
X411695Y950466D01*
X411601Y950439D01*
X411506Y950418D01*
X411484Y950405D01*
X411459Y950397D01*
X411379Y950342D01*
X411295Y950292D01*
X411278Y950272D01*
X411257Y950257D01*
X411198Y950179D01*
X411135Y950105D01*
X411125Y950081D01*
X411110Y950060D01*
X411080Y949967D01*
X411043Y949877D01*
X411040Y949844D01*
X411034Y949826D01*
X411034Y949793D01*
X411025Y949710D01*
X411025Y935090D01*
X411040Y934994D01*
X411050Y934897D01*
X411060Y934873D01*
X411064Y934847D01*
X411110Y934761D01*
X411150Y934672D01*
X411167Y934653D01*
X411180Y934630D01*
X411250Y934563D01*
X411316Y934491D01*
X411339Y934479D01*
X411358Y934461D01*
X411446Y934420D01*
X411532Y934373D01*
X411557Y934368D01*
X411581Y934357D01*
X411678Y934346D01*
X411774Y934329D01*
X411800Y934333D01*
X411825Y934330D01*
X411921Y934350D01*
X412017Y934365D01*
X412040Y934376D01*
X412066Y934382D01*
X412149Y934432D01*
X412236Y934476D01*
X412255Y934495D01*
X412277Y934508D01*
X412340Y934582D01*
X412408Y934652D01*
X412424Y934680D01*
X412437Y934695D01*
X412449Y934726D01*
X412489Y934799D01*
X412940Y935887D01*
X416013Y938960D01*
X420027Y940623D01*
X424373Y940623D01*
X428387Y938960D01*
X431460Y935887D01*
X433123Y931873D01*
X433123Y927670D01*
X433137Y927580D01*
X433145Y927489D01*
X433157Y927459D01*
X433162Y927427D01*
X433205Y927347D01*
X433241Y927263D01*
X433267Y927230D01*
X433278Y927210D01*
X433301Y927188D01*
X433346Y927132D01*
X436607Y923871D01*
X436686Y923814D01*
X436761Y923752D01*
X436785Y923742D01*
X436806Y923727D01*
X436900Y923698D01*
X436990Y923664D01*
X437016Y923662D01*
X437042Y923655D01*
X437139Y923657D01*
X437236Y923653D01*
X437261Y923660D01*
X437287Y923661D01*
X437379Y923695D01*
X437472Y923722D01*
X437494Y923737D01*
X437518Y923746D01*
X437595Y923806D01*
X437674Y923862D01*
X437690Y923883D01*
X437710Y923899D01*
X437763Y923981D01*
X437821Y924059D01*
X437829Y924084D01*
X437843Y924106D01*
X437867Y924201D01*
X437897Y924293D01*
X437897Y924319D01*
X437904Y924345D01*
X437896Y924442D01*
X437895Y924539D01*
X437886Y924571D01*
X437884Y924590D01*
X437872Y924620D01*
X437848Y924700D01*
X436677Y927527D01*
X436677Y931873D01*
X438340Y935887D01*
X441413Y938960D01*
X445427Y940623D01*
X449773Y940623D01*
X453787Y938960D01*
X456860Y935887D01*
X458523Y931873D01*
X458523Y927527D01*
X456860Y923513D01*
X453787Y920440D01*
X449773Y918777D01*
X445427Y918777D01*
X442600Y919948D01*
X442506Y919971D01*
X442412Y919999D01*
X442386Y919998D01*
X442361Y920004D01*
X442264Y919995D01*
X442166Y919993D01*
X442142Y919984D01*
X442116Y919981D01*
X442027Y919942D01*
X441935Y919908D01*
X441915Y919892D01*
X441891Y919881D01*
X441819Y919815D01*
X441743Y919755D01*
X441729Y919733D01*
X441710Y919715D01*
X441663Y919630D01*
X441610Y919548D01*
X441604Y919522D01*
X441591Y919499D01*
X441574Y919404D01*
X441550Y919309D01*
X441552Y919283D01*
X441548Y919257D01*
X441562Y919161D01*
X441570Y919064D01*
X441580Y919040D01*
X441584Y919014D01*
X441628Y918927D01*
X441666Y918838D01*
X441686Y918812D01*
X441695Y918795D01*
X441719Y918772D01*
X441771Y918707D01*
X444980Y915498D01*
X445054Y915445D01*
X445123Y915385D01*
X445153Y915373D01*
X445179Y915354D01*
X445267Y915327D01*
X445351Y915293D01*
X445392Y915289D01*
X445414Y915282D01*
X445447Y915283D01*
X445518Y915275D01*
X604482Y915275D01*
X604572Y915289D01*
X604663Y915297D01*
X604693Y915309D01*
X604725Y915314D01*
X604805Y915357D01*
X604889Y915393D01*
X604921Y915419D01*
X604942Y915430D01*
X604964Y915453D01*
X605020Y915498D01*
X608737Y919214D01*
X610786Y921263D01*
X614871Y925348D01*
X614939Y925443D01*
X615009Y925537D01*
X615011Y925543D01*
X615015Y925548D01*
X615049Y925660D01*
X615085Y925771D01*
X615085Y925777D01*
X615087Y925783D01*
X615084Y925900D01*
X615083Y926017D01*
X615081Y926024D01*
X615081Y926029D01*
X615074Y926047D01*
X615036Y926178D01*
X614477Y927527D01*
X614477Y931873D01*
X616140Y935887D01*
X619213Y938960D01*
X623227Y940623D01*
X627573Y940623D01*
X631587Y938960D01*
X634660Y935887D01*
X636323Y931873D01*
X636323Y927527D01*
X634660Y923513D01*
X631587Y920440D01*
X627573Y918777D01*
X627070Y918777D01*
X626980Y918763D01*
X626889Y918755D01*
X626859Y918743D01*
X626827Y918738D01*
X626746Y918695D01*
X626663Y918659D01*
X626630Y918633D01*
X626610Y918622D01*
X626588Y918599D01*
X626532Y918554D01*
X624141Y916163D01*
X624129Y916147D01*
X624113Y916135D01*
X624057Y916047D01*
X623997Y915964D01*
X623991Y915945D01*
X623980Y915928D01*
X623955Y915827D01*
X623925Y915728D01*
X623925Y915709D01*
X623920Y915689D01*
X623928Y915586D01*
X623931Y915483D01*
X623938Y915464D01*
X623940Y915444D01*
X623980Y915349D01*
X624016Y915252D01*
X624028Y915236D01*
X624036Y915218D01*
X624141Y915087D01*
X924462Y614766D01*
X924478Y614754D01*
X924490Y614738D01*
X924578Y614682D01*
X924661Y614622D01*
X924680Y614616D01*
X924697Y614605D01*
X924798Y614580D01*
X924897Y614550D01*
X924916Y614550D01*
X924936Y614545D01*
X925039Y614553D01*
X925142Y614556D01*
X925161Y614563D01*
X925181Y614565D01*
X925276Y614605D01*
X925373Y614641D01*
X925389Y614653D01*
X925407Y614661D01*
X925538Y614766D01*
X1026040Y715268D01*
X1026093Y715342D01*
X1026153Y715411D01*
X1026165Y715441D01*
X1026184Y715467D01*
X1026211Y715554D01*
X1026245Y715639D01*
X1026249Y715680D01*
X1026256Y715702D01*
X1026255Y715735D01*
X1026263Y715806D01*
X1026263Y716218D01*
X1027578Y719392D01*
X1030008Y721822D01*
X1033182Y723137D01*
X1036618Y723137D01*
X1039792Y721822D01*
X1042222Y719392D01*
X1043537Y716218D01*
X1043537Y712782D01*
X1042222Y709608D01*
X1039792Y707178D01*
X1036618Y705863D01*
X1035406Y705863D01*
X1035316Y705849D01*
X1035225Y705841D01*
X1035195Y705829D01*
X1035163Y705824D01*
X1035082Y705781D01*
X1034999Y705745D01*
X1034966Y705719D01*
X1034946Y705708D01*
X1034924Y705685D01*
X1034921Y705683D01*
X1034920Y705682D01*
X1034918Y705681D01*
X1034868Y705640D01*
X930638Y601411D01*
X928589Y599362D01*
X920116Y590889D01*
X920049Y590795D01*
X919978Y590700D01*
X919976Y590694D01*
X919973Y590689D01*
X919939Y590578D01*
X919902Y590466D01*
X919902Y590460D01*
X919900Y590454D01*
X919903Y590337D01*
X919905Y590220D01*
X919907Y590213D01*
X919907Y590208D01*
X919913Y590191D01*
X919951Y590059D01*
X920907Y587753D01*
X920907Y567047D01*
X919399Y563406D01*
X916612Y560619D01*
X912971Y559111D01*
X909029Y559111D01*
X905388Y560619D01*
X902601Y563406D01*
X901093Y567047D01*
X901093Y587753D01*
X902601Y591394D01*
X904054Y592846D01*
X904092Y592899D01*
X904138Y592946D01*
X904178Y593019D01*
X904197Y593046D01*
X904203Y593064D01*
X904219Y593093D01*
X904469Y593696D01*
X906411Y595638D01*
X915234Y604462D01*
X915246Y604478D01*
X915262Y604490D01*
X915318Y604578D01*
X915378Y604661D01*
X915384Y604680D01*
X915395Y604697D01*
X915420Y604798D01*
X915450Y604897D01*
X915450Y604916D01*
X915455Y604936D01*
X915447Y605039D01*
X915444Y605142D01*
X915437Y605161D01*
X915435Y605181D01*
X915395Y605276D01*
X915359Y605373D01*
X915347Y605389D01*
X915339Y605407D01*
X915234Y605538D01*
X714106Y806666D01*
X714048Y806708D01*
X713996Y806758D01*
X713949Y806780D01*
X713907Y806810D01*
X713838Y806831D01*
X713773Y806861D01*
X713721Y806867D01*
X713671Y806882D01*
X713600Y806880D01*
X713529Y806888D01*
X713478Y806877D01*
X713426Y806876D01*
X713358Y806851D01*
X713288Y806836D01*
X713244Y806809D01*
X713195Y806791D01*
X713139Y806747D01*
X713077Y806710D01*
X713043Y806670D01*
X713003Y806638D01*
X712964Y806577D01*
X712917Y806523D01*
X712898Y806475D01*
X712870Y806431D01*
X712852Y806361D01*
X712825Y806295D01*
X712817Y806223D01*
X712809Y806192D01*
X712811Y806169D01*
X712807Y806128D01*
X712807Y805302D01*
X709698Y802193D01*
X707493Y802193D01*
X707403Y802179D01*
X707312Y802171D01*
X707283Y802159D01*
X707251Y802154D01*
X707170Y802111D01*
X707086Y802075D01*
X707054Y802049D01*
X707033Y802038D01*
X707011Y802015D01*
X706955Y801970D01*
X477498Y572513D01*
X477445Y572439D01*
X477385Y572370D01*
X477373Y572339D01*
X477354Y572313D01*
X477327Y572226D01*
X477293Y572141D01*
X477289Y572100D01*
X477282Y572078D01*
X477283Y572046D01*
X477275Y571975D01*
X477275Y376336D01*
X477289Y376246D01*
X477297Y376155D01*
X477309Y376126D01*
X477314Y376094D01*
X477357Y376013D01*
X477393Y375929D01*
X477419Y375897D01*
X477430Y375876D01*
X477453Y375854D01*
X477498Y375798D01*
X481029Y372267D01*
X481029Y365533D01*
X476267Y360771D01*
X469533Y360771D01*
X464771Y365533D01*
X464771Y372267D01*
X469542Y377038D01*
X469605Y377052D01*
X469707Y377068D01*
X469724Y377078D01*
X469744Y377082D01*
X469833Y377135D01*
X469924Y377184D01*
X469938Y377198D01*
X469955Y377208D01*
X470022Y377287D01*
X470094Y377362D01*
X470102Y377380D01*
X470115Y377395D01*
X470154Y377491D01*
X470197Y377585D01*
X470199Y377605D01*
X470207Y377623D01*
X470225Y377790D01*
X470225Y458403D01*
X470214Y458474D01*
X470212Y458545D01*
X470194Y458594D01*
X470186Y458645D01*
X470152Y458709D01*
X470127Y458776D01*
X470095Y458817D01*
X470070Y458863D01*
X470019Y458912D01*
X469974Y458968D01*
X469930Y458996D01*
X469892Y459032D01*
X469827Y459062D01*
X469767Y459101D01*
X469716Y459114D01*
X469669Y459136D01*
X469598Y459144D01*
X469528Y459161D01*
X469476Y459157D01*
X469425Y459163D01*
X469354Y459148D01*
X469283Y459142D01*
X469235Y459122D01*
X469184Y459111D01*
X469123Y459074D01*
X469057Y459046D01*
X469001Y459001D01*
X468973Y458985D01*
X468958Y458967D01*
X468926Y458941D01*
X468737Y458752D01*
X358748Y348763D01*
X358695Y348689D01*
X358635Y348620D01*
X358623Y348589D01*
X358604Y348563D01*
X358577Y348476D01*
X358543Y348391D01*
X358539Y348350D01*
X358532Y348328D01*
X358533Y348296D01*
X358525Y348225D01*
X358525Y324786D01*
X358539Y324696D01*
X358547Y324605D01*
X358559Y324576D01*
X358564Y324544D01*
X358607Y324463D01*
X358643Y324379D01*
X358669Y324347D01*
X358680Y324326D01*
X358703Y324304D01*
X358748Y324248D01*
X362229Y320767D01*
X362229Y314033D01*
X357467Y309271D01*
X350733Y309271D01*
X345971Y314033D01*
X345971Y320767D01*
X350736Y325532D01*
X350753Y325530D01*
X350855Y325552D01*
X350957Y325568D01*
X350974Y325578D01*
X350994Y325582D01*
X351083Y325635D01*
X351174Y325684D01*
X351188Y325698D01*
X351205Y325708D01*
X351272Y325787D01*
X351344Y325862D01*
X351352Y325880D01*
X351365Y325895D01*
X351404Y325991D01*
X351447Y326085D01*
X351449Y326105D01*
X351457Y326123D01*
X351475Y326290D01*
X351475Y351460D01*
X463752Y463737D01*
X463805Y463811D01*
X463865Y463880D01*
X463877Y463911D01*
X463896Y463937D01*
X463923Y464024D01*
X463957Y464109D01*
X463961Y464150D01*
X463968Y464172D01*
X463967Y464204D01*
X463975Y464275D01*
X463975Y592479D01*
X463971Y592503D01*
X463974Y592527D01*
X463952Y592624D01*
X463943Y592678D01*
X463944Y592681D01*
X463952Y592687D01*
X689470Y818205D01*
X689523Y818279D01*
X689583Y818348D01*
X689595Y818379D01*
X689614Y818405D01*
X689641Y818492D01*
X689675Y818577D01*
X689679Y818618D01*
X689686Y818640D01*
X689685Y818672D01*
X689693Y818743D01*
X689693Y820948D01*
X692802Y824057D01*
X694878Y824057D01*
X694949Y824068D01*
X695021Y824070D01*
X695070Y824088D01*
X695121Y824096D01*
X695184Y824130D01*
X695252Y824155D01*
X695292Y824187D01*
X695338Y824212D01*
X695388Y824263D01*
X695444Y824308D01*
X695472Y824352D01*
X695508Y824390D01*
X695538Y824455D01*
X695577Y824515D01*
X695589Y824566D01*
X695611Y824613D01*
X695619Y824684D01*
X695637Y824754D01*
X695633Y824806D01*
X695638Y824857D01*
X695623Y824928D01*
X695618Y824999D01*
X695597Y825047D01*
X695586Y825098D01*
X695549Y825159D01*
X695521Y825225D01*
X695476Y825281D01*
X695460Y825309D01*
X695442Y825324D01*
X695416Y825356D01*
X649106Y871666D01*
X649048Y871708D01*
X648996Y871758D01*
X648949Y871780D01*
X648907Y871810D01*
X648838Y871831D01*
X648773Y871861D01*
X648721Y871867D01*
X648671Y871882D01*
X648600Y871880D01*
X648529Y871888D01*
X648478Y871877D01*
X648426Y871876D01*
X648358Y871851D01*
X648288Y871836D01*
X648244Y871809D01*
X648195Y871791D01*
X648139Y871747D01*
X648077Y871710D01*
X648043Y871670D01*
X648003Y871638D01*
X647964Y871577D01*
X647917Y871523D01*
X647898Y871475D01*
X647870Y871431D01*
X647852Y871361D01*
X647825Y871295D01*
X647817Y871223D01*
X647809Y871192D01*
X647811Y871169D01*
X647807Y871128D01*
X647807Y870302D01*
X646248Y868743D01*
X646195Y868669D01*
X646135Y868599D01*
X646123Y868569D01*
X646104Y868543D01*
X646077Y868456D01*
X646043Y868371D01*
X646039Y868330D01*
X646032Y868308D01*
X646033Y868276D01*
X646025Y868205D01*
X646025Y856040D01*
X498030Y708045D01*
X497977Y707971D01*
X497917Y707902D01*
X497905Y707871D01*
X497886Y707845D01*
X497859Y707758D01*
X497825Y707673D01*
X497821Y707632D01*
X497814Y707610D01*
X497815Y707578D01*
X497807Y707507D01*
X497807Y705302D01*
X494698Y702193D01*
X490302Y702193D01*
X487193Y705302D01*
X487193Y706621D01*
X487192Y706631D01*
X487192Y706638D01*
X487185Y706670D01*
X487182Y706691D01*
X487180Y706763D01*
X487162Y706812D01*
X487154Y706863D01*
X487120Y706927D01*
X487095Y706994D01*
X487063Y707035D01*
X487038Y707081D01*
X486986Y707130D01*
X486942Y707186D01*
X486898Y707214D01*
X486860Y707250D01*
X486795Y707280D01*
X486735Y707319D01*
X486684Y707332D01*
X486637Y707354D01*
X486566Y707362D01*
X486496Y707379D01*
X486444Y707375D01*
X486393Y707381D01*
X486322Y707366D01*
X486251Y707360D01*
X486203Y707340D01*
X486152Y707329D01*
X486091Y707292D01*
X486025Y707264D01*
X485969Y707219D01*
X485941Y707203D01*
X485926Y707185D01*
X485894Y707159D01*
X418030Y639295D01*
X417977Y639221D01*
X417917Y639152D01*
X417905Y639121D01*
X417886Y639095D01*
X417859Y639008D01*
X417825Y638923D01*
X417821Y638882D01*
X417814Y638860D01*
X417815Y638828D01*
X417807Y638757D01*
X417807Y636552D01*
X414698Y633443D01*
X410302Y633443D01*
X407193Y636552D01*
X407193Y640948D01*
X410302Y644057D01*
X412507Y644057D01*
X412597Y644071D01*
X412688Y644079D01*
X412717Y644091D01*
X412749Y644096D01*
X412830Y644139D01*
X412914Y644175D01*
X412946Y644201D01*
X412967Y644212D01*
X412989Y644235D01*
X413045Y644280D01*
X625720Y856955D01*
X625773Y857029D01*
X625833Y857098D01*
X625845Y857129D01*
X625864Y857155D01*
X625891Y857242D01*
X625925Y857327D01*
X625929Y857368D01*
X625936Y857390D01*
X625935Y857422D01*
X625943Y857493D01*
X625943Y859698D01*
X629052Y862807D01*
X633448Y862807D01*
X636557Y859698D01*
X636557Y858379D01*
X636568Y858309D01*
X636570Y858237D01*
X636588Y858188D01*
X636596Y858137D01*
X636630Y858073D01*
X636655Y858006D01*
X636687Y857965D01*
X636712Y857919D01*
X636764Y857870D01*
X636808Y857814D01*
X636852Y857786D01*
X636890Y857750D01*
X636955Y857720D01*
X637015Y857681D01*
X637066Y857668D01*
X637113Y857646D01*
X637184Y857638D01*
X637254Y857621D01*
X637306Y857625D01*
X637357Y857619D01*
X637428Y857634D01*
X637499Y857640D01*
X637547Y857660D01*
X637598Y857671D01*
X637659Y857708D01*
X637725Y857736D01*
X637781Y857781D01*
X637809Y857797D01*
X637824Y857815D01*
X637856Y857841D01*
X638752Y858737D01*
X638805Y858811D01*
X638865Y858880D01*
X638877Y858911D01*
X638896Y858937D01*
X638923Y859024D01*
X638957Y859109D01*
X638961Y859150D01*
X638968Y859172D01*
X638967Y859204D01*
X638975Y859275D01*
X638975Y868205D01*
X638961Y868295D01*
X638953Y868386D01*
X638941Y868415D01*
X638936Y868447D01*
X638893Y868528D01*
X638857Y868612D01*
X638831Y868644D01*
X638820Y868665D01*
X638797Y868687D01*
X638752Y868743D01*
X637413Y870082D01*
X637397Y870093D01*
X637385Y870109D01*
X637297Y870165D01*
X637214Y870225D01*
X637195Y870231D01*
X637178Y870242D01*
X637077Y870267D01*
X636978Y870298D01*
X636959Y870297D01*
X636939Y870302D01*
X636836Y870294D01*
X636733Y870291D01*
X636714Y870285D01*
X636694Y870283D01*
X636599Y870243D01*
X636502Y870207D01*
X636486Y870194D01*
X636468Y870187D01*
X636337Y870082D01*
X634698Y868443D01*
X632493Y868443D01*
X632403Y868429D01*
X632312Y868421D01*
X632283Y868409D01*
X632251Y868404D01*
X632170Y868361D01*
X632086Y868325D01*
X632054Y868299D01*
X632033Y868288D01*
X632011Y868265D01*
X631955Y868220D01*
X501780Y738045D01*
X501727Y737971D01*
X501667Y737902D01*
X501655Y737871D01*
X501636Y737845D01*
X501609Y737758D01*
X501575Y737673D01*
X501571Y737632D01*
X501564Y737610D01*
X501565Y737578D01*
X501557Y737507D01*
X501557Y735302D01*
X498448Y732193D01*
X494052Y732193D01*
X491074Y735171D01*
X491016Y735213D01*
X490964Y735262D01*
X490917Y735284D01*
X490875Y735314D01*
X490806Y735336D01*
X490741Y735366D01*
X490689Y735371D01*
X490639Y735387D01*
X490568Y735385D01*
X490497Y735393D01*
X490446Y735382D01*
X490394Y735380D01*
X490326Y735356D01*
X490256Y735341D01*
X490211Y735314D01*
X490163Y735296D01*
X490107Y735251D01*
X490045Y735214D01*
X490011Y735175D01*
X489971Y735142D01*
X489932Y735082D01*
X489885Y735027D01*
X489866Y734979D01*
X489838Y734935D01*
X489820Y734866D01*
X489793Y734799D01*
X489785Y734728D01*
X489777Y734697D01*
X489779Y734674D01*
X489775Y734633D01*
X489775Y734295D01*
X489789Y734205D01*
X489797Y734114D01*
X489809Y734085D01*
X489814Y734053D01*
X489857Y733972D01*
X489893Y733888D01*
X489919Y733856D01*
X489930Y733835D01*
X489953Y733813D01*
X489998Y733757D01*
X491557Y732198D01*
X491557Y727802D01*
X488448Y724693D01*
X484052Y724693D01*
X483574Y725171D01*
X483516Y725213D01*
X483464Y725262D01*
X483417Y725284D01*
X483375Y725314D01*
X483306Y725336D01*
X483241Y725366D01*
X483189Y725371D01*
X483139Y725387D01*
X483068Y725385D01*
X482997Y725393D01*
X482946Y725382D01*
X482894Y725380D01*
X482826Y725356D01*
X482756Y725341D01*
X482711Y725314D01*
X482663Y725296D01*
X482607Y725251D01*
X482545Y725214D01*
X482511Y725175D01*
X482471Y725142D01*
X482432Y725082D01*
X482385Y725027D01*
X482366Y724979D01*
X482338Y724935D01*
X482320Y724866D01*
X482293Y724799D01*
X482285Y724728D01*
X482277Y724697D01*
X482279Y724674D01*
X482275Y724633D01*
X482275Y718540D01*
X408960Y645225D01*
X396775Y645225D01*
X396685Y645211D01*
X396594Y645203D01*
X396565Y645191D01*
X396533Y645186D01*
X396452Y645143D01*
X396368Y645107D01*
X396336Y645081D01*
X396315Y645070D01*
X396293Y645047D01*
X396237Y645002D01*
X307498Y556263D01*
X307445Y556189D01*
X307385Y556120D01*
X307373Y556089D01*
X307354Y556063D01*
X307327Y555976D01*
X307293Y555891D01*
X307289Y555850D01*
X307282Y555828D01*
X307283Y555796D01*
X307275Y555725D01*
X307275Y537238D01*
X307294Y537123D01*
X307311Y537007D01*
X307313Y537002D01*
X307314Y536995D01*
X307369Y536892D01*
X307422Y536788D01*
X307427Y536784D01*
X307430Y536778D01*
X307515Y536697D01*
X307598Y536616D01*
X307604Y536612D01*
X307608Y536609D01*
X307625Y536601D01*
X307745Y536535D01*
X308735Y536125D01*
X311285Y533575D01*
X312665Y530243D01*
X312665Y511557D01*
X311285Y508225D01*
X308735Y505675D01*
X305403Y504295D01*
X301797Y504295D01*
X298465Y505675D01*
X295915Y508225D01*
X294535Y511557D01*
X294535Y530243D01*
X295915Y533575D01*
X298465Y536125D01*
X299755Y536659D01*
X299855Y536721D01*
X299955Y536781D01*
X299959Y536785D01*
X299964Y536789D01*
X300039Y536879D01*
X300115Y536968D01*
X300117Y536973D01*
X300121Y536978D01*
X300163Y537087D01*
X300207Y537196D01*
X300208Y537203D01*
X300209Y537208D01*
X300210Y537226D01*
X300225Y537362D01*
X300225Y558960D01*
X393540Y652275D01*
X405725Y652275D01*
X405815Y652289D01*
X405906Y652297D01*
X405935Y652309D01*
X405967Y652314D01*
X406048Y652357D01*
X406132Y652393D01*
X406164Y652419D01*
X406185Y652430D01*
X406207Y652453D01*
X406263Y652498D01*
X475002Y721237D01*
X475055Y721311D01*
X475115Y721380D01*
X475127Y721411D01*
X475146Y721437D01*
X475173Y721524D01*
X475207Y721609D01*
X475211Y721650D01*
X475218Y721672D01*
X475217Y721704D01*
X475225Y721775D01*
X475225Y807133D01*
X475214Y807203D01*
X475212Y807275D01*
X475194Y807324D01*
X475186Y807375D01*
X475152Y807439D01*
X475127Y807506D01*
X475095Y807547D01*
X475070Y807593D01*
X475018Y807642D01*
X474974Y807698D01*
X474930Y807726D01*
X474892Y807762D01*
X474827Y807792D01*
X474767Y807831D01*
X474716Y807844D01*
X474669Y807866D01*
X474598Y807874D01*
X474528Y807891D01*
X474476Y807887D01*
X474425Y807893D01*
X474354Y807878D01*
X474283Y807872D01*
X474235Y807852D01*
X474184Y807841D01*
X474123Y807804D01*
X474057Y807776D01*
X474001Y807731D01*
X473973Y807714D01*
X473958Y807697D01*
X473926Y807671D01*
X470948Y804693D01*
X468743Y804693D01*
X468653Y804679D01*
X468562Y804671D01*
X468533Y804659D01*
X468501Y804654D01*
X468420Y804611D01*
X468336Y804575D01*
X468304Y804549D01*
X468283Y804538D01*
X468261Y804515D01*
X468205Y804470D01*
X423748Y760013D01*
X423695Y759939D01*
X423635Y759870D01*
X423623Y759839D01*
X423604Y759813D01*
X423577Y759726D01*
X423543Y759641D01*
X423539Y759600D01*
X423532Y759578D01*
X423533Y759546D01*
X423525Y759475D01*
X423525Y699295D01*
X423539Y699205D01*
X423547Y699114D01*
X423559Y699085D01*
X423564Y699053D01*
X423607Y698972D01*
X423643Y698888D01*
X423669Y698856D01*
X423680Y698835D01*
X423703Y698813D01*
X423748Y698757D01*
X425307Y697198D01*
X425307Y692802D01*
X422198Y689693D01*
X417802Y689693D01*
X414693Y692802D01*
X414693Y697198D01*
X416252Y698757D01*
X416305Y698831D01*
X416365Y698901D01*
X416377Y698931D01*
X416396Y698957D01*
X416423Y699044D01*
X416457Y699129D01*
X416461Y699170D01*
X416468Y699192D01*
X416467Y699224D01*
X416475Y699295D01*
X416475Y759653D01*
X416464Y759723D01*
X416462Y759795D01*
X416444Y759844D01*
X416436Y759895D01*
X416402Y759959D01*
X416377Y760026D01*
X416345Y760067D01*
X416320Y760113D01*
X416269Y760162D01*
X416224Y760218D01*
X416180Y760246D01*
X416142Y760282D01*
X416077Y760312D01*
X416017Y760351D01*
X415966Y760364D01*
X415919Y760386D01*
X415848Y760394D01*
X415778Y760411D01*
X415726Y760407D01*
X415675Y760413D01*
X415604Y760398D01*
X415533Y760392D01*
X415485Y760372D01*
X415434Y760361D01*
X415373Y760324D01*
X415307Y760296D01*
X415251Y760251D01*
X415223Y760235D01*
X415208Y760217D01*
X415176Y760191D01*
X370530Y715545D01*
X370477Y715471D01*
X370417Y715402D01*
X370405Y715371D01*
X370386Y715345D01*
X370359Y715258D01*
X370325Y715173D01*
X370321Y715132D01*
X370314Y715110D01*
X370315Y715078D01*
X370307Y715007D01*
X370307Y712802D01*
X367198Y709693D01*
X362802Y709693D01*
X361574Y710921D01*
X361516Y710963D01*
X361464Y711012D01*
X361417Y711034D01*
X361375Y711064D01*
X361306Y711086D01*
X361241Y711116D01*
X361189Y711121D01*
X361139Y711137D01*
X361068Y711135D01*
X360997Y711143D01*
X360946Y711132D01*
X360894Y711130D01*
X360826Y711106D01*
X360756Y711091D01*
X360711Y711064D01*
X360663Y711046D01*
X360607Y711001D01*
X360545Y710964D01*
X360511Y710925D01*
X360471Y710892D01*
X360432Y710832D01*
X360385Y710777D01*
X360366Y710729D01*
X360338Y710685D01*
X360320Y710616D01*
X360293Y710549D01*
X360285Y710478D01*
X360277Y710447D01*
X360279Y710424D01*
X360275Y710383D01*
X360275Y693018D01*
X360289Y692928D01*
X360297Y692837D01*
X360309Y692807D01*
X360314Y692775D01*
X360357Y692695D01*
X360393Y692611D01*
X360419Y692579D01*
X360430Y692558D01*
X360453Y692536D01*
X360498Y692480D01*
X363031Y689946D01*
X364025Y687548D01*
X364025Y684952D01*
X363031Y682554D01*
X362052Y681574D01*
X362010Y681516D01*
X361960Y681464D01*
X361938Y681417D01*
X361908Y681375D01*
X361887Y681306D01*
X361857Y681241D01*
X361851Y681189D01*
X361836Y681139D01*
X361838Y681068D01*
X361830Y680997D01*
X361841Y680946D01*
X361842Y680894D01*
X361867Y680826D01*
X361882Y680756D01*
X361909Y680711D01*
X361927Y680663D01*
X361971Y680607D01*
X362008Y680545D01*
X362048Y680511D01*
X362080Y680471D01*
X362141Y680432D01*
X362195Y680385D01*
X362243Y680366D01*
X362287Y680338D01*
X362357Y680320D01*
X362423Y680293D01*
X362494Y680285D01*
X362526Y680277D01*
X362549Y680279D01*
X362590Y680275D01*
X377694Y680275D01*
X377714Y680278D01*
X377733Y680276D01*
X377835Y680298D01*
X377937Y680314D01*
X377954Y680324D01*
X377974Y680328D01*
X378063Y680381D01*
X378154Y680430D01*
X378168Y680444D01*
X378185Y680454D01*
X378252Y680533D01*
X378324Y680608D01*
X378332Y680626D01*
X378345Y680641D01*
X378384Y680737D01*
X378427Y680831D01*
X378429Y680851D01*
X378437Y680869D01*
X378455Y681036D01*
X378455Y681472D01*
X379348Y682365D01*
X405612Y682365D01*
X406505Y681472D01*
X406505Y655208D01*
X405612Y654315D01*
X379348Y654315D01*
X378455Y655208D01*
X378455Y666464D01*
X378452Y666484D01*
X378454Y666503D01*
X378432Y666604D01*
X378416Y666707D01*
X378406Y666724D01*
X378402Y666744D01*
X378349Y666833D01*
X378300Y666924D01*
X378286Y666938D01*
X378276Y666955D01*
X378197Y667022D01*
X378122Y667094D01*
X378104Y667102D01*
X378089Y667115D01*
X377993Y667154D01*
X377899Y667197D01*
X377879Y667199D01*
X377861Y667207D01*
X377694Y667225D01*
X360934Y667225D01*
X360838Y667210D01*
X360741Y667200D01*
X360717Y667190D01*
X360691Y667186D01*
X360605Y667140D01*
X360516Y667100D01*
X360497Y667083D01*
X360473Y667070D01*
X360407Y667000D01*
X360335Y666934D01*
X360322Y666911D01*
X360304Y666892D01*
X360263Y666804D01*
X360216Y666718D01*
X360211Y666693D01*
X360200Y666669D01*
X360190Y666572D01*
X360172Y666476D01*
X360176Y666450D01*
X360173Y666425D01*
X360194Y666330D01*
X360208Y666233D01*
X360220Y666210D01*
X360226Y666184D01*
X360276Y666101D01*
X360320Y666014D01*
X360338Y665995D01*
X360352Y665973D01*
X360426Y665910D01*
X360495Y665842D01*
X360524Y665826D01*
X360539Y665813D01*
X360570Y665801D01*
X360642Y665761D01*
X361196Y665531D01*
X363031Y663696D01*
X364025Y661298D01*
X364025Y658702D01*
X363031Y656304D01*
X262891Y556163D01*
X262879Y556147D01*
X262863Y556135D01*
X262807Y556047D01*
X262747Y555964D01*
X262741Y555945D01*
X262730Y555928D01*
X262705Y555827D01*
X262675Y555728D01*
X262675Y555709D01*
X262670Y555689D01*
X262678Y555586D01*
X262681Y555483D01*
X262688Y555464D01*
X262690Y555444D01*
X262730Y555349D01*
X262766Y555252D01*
X262778Y555236D01*
X262786Y555218D01*
X262891Y555087D01*
X280698Y537280D01*
X280751Y537242D01*
X280798Y537196D01*
X280871Y537155D01*
X280897Y537136D01*
X280916Y537131D01*
X280945Y537115D01*
X283335Y536125D01*
X285885Y533575D01*
X287265Y530243D01*
X287265Y511557D01*
X285885Y508225D01*
X285498Y507838D01*
X285445Y507764D01*
X285385Y507695D01*
X285373Y507665D01*
X285354Y507638D01*
X285327Y507552D01*
X285293Y507467D01*
X285289Y507426D01*
X285282Y507403D01*
X285283Y507371D01*
X285275Y507300D01*
X285275Y491036D01*
X285278Y491016D01*
X285276Y490997D01*
X285298Y490895D01*
X285314Y490793D01*
X285324Y490776D01*
X285328Y490756D01*
X285381Y490667D01*
X285430Y490576D01*
X285444Y490562D01*
X285454Y490545D01*
X285533Y490478D01*
X285608Y490406D01*
X285626Y490398D01*
X285641Y490385D01*
X285737Y490346D01*
X285831Y490303D01*
X285851Y490301D01*
X285869Y490293D01*
X286036Y490275D01*
X311298Y490275D01*
X313696Y489281D01*
X357480Y445498D01*
X357554Y445445D01*
X357623Y445385D01*
X357653Y445373D01*
X357679Y445354D01*
X357766Y445327D01*
X357851Y445293D01*
X357892Y445289D01*
X357914Y445282D01*
X357947Y445283D01*
X358018Y445275D01*
X377994Y445275D01*
X378014Y445278D01*
X378033Y445276D01*
X378135Y445298D01*
X378237Y445314D01*
X378254Y445324D01*
X378274Y445328D01*
X378363Y445381D01*
X378454Y445430D01*
X378468Y445444D01*
X378485Y445454D01*
X378552Y445533D01*
X378624Y445608D01*
X378632Y445626D01*
X378645Y445641D01*
X378684Y445737D01*
X378727Y445831D01*
X378729Y445851D01*
X378737Y445869D01*
X378755Y446036D01*
X378755Y450972D01*
X379648Y451865D01*
X405912Y451865D01*
X406805Y450972D01*
X406805Y424708D01*
X405912Y423815D01*
X379648Y423815D01*
X378755Y424708D01*
X378755Y431464D01*
X378752Y431484D01*
X378754Y431503D01*
X378732Y431605D01*
X378716Y431707D01*
X378706Y431724D01*
X378702Y431744D01*
X378649Y431833D01*
X378600Y431924D01*
X378586Y431938D01*
X378576Y431955D01*
X378497Y432022D01*
X378422Y432094D01*
X378404Y432102D01*
X378389Y432115D01*
X378293Y432154D01*
X378199Y432197D01*
X378179Y432199D01*
X378161Y432207D01*
X377994Y432225D01*
X353702Y432225D01*
X351304Y433219D01*
X307520Y477002D01*
X307446Y477055D01*
X307377Y477115D01*
X307347Y477127D01*
X307321Y477146D01*
X307234Y477173D01*
X307149Y477207D01*
X307108Y477211D01*
X307086Y477218D01*
X307053Y477217D01*
X306982Y477225D01*
X286036Y477225D01*
X286016Y477222D01*
X285997Y477224D01*
X285895Y477202D01*
X285793Y477186D01*
X285776Y477176D01*
X285756Y477172D01*
X285667Y477119D01*
X285576Y477070D01*
X285562Y477056D01*
X285545Y477046D01*
X285478Y476967D01*
X285406Y476892D01*
X285398Y476874D01*
X285385Y476859D01*
X285346Y476763D01*
X285303Y476669D01*
X285301Y476649D01*
X285293Y476631D01*
X285275Y476464D01*
X285275Y471500D01*
X285289Y471410D01*
X285297Y471319D01*
X285309Y471289D01*
X285314Y471257D01*
X285357Y471177D01*
X285393Y471093D01*
X285419Y471061D01*
X285430Y471040D01*
X285453Y471018D01*
X285498Y470962D01*
X285885Y470575D01*
X287265Y467243D01*
X287265Y448557D01*
X285885Y445225D01*
X283335Y442675D01*
X280003Y441295D01*
X276397Y441295D01*
X273065Y442675D01*
X270515Y445225D01*
X269135Y448557D01*
X269135Y467243D01*
X270515Y470575D01*
X272002Y472062D01*
X272055Y472136D01*
X272115Y472205D01*
X272127Y472235D01*
X272146Y472262D01*
X272173Y472348D01*
X272207Y472433D01*
X272211Y472474D01*
X272218Y472497D01*
X272217Y472529D01*
X272225Y472600D01*
X272225Y506200D01*
X272211Y506290D01*
X272203Y506381D01*
X272191Y506411D01*
X272186Y506443D01*
X272143Y506523D01*
X272107Y506607D01*
X272081Y506639D01*
X272070Y506660D01*
X272047Y506682D01*
X272002Y506738D01*
X270515Y508225D01*
X269135Y511557D01*
X269135Y530072D01*
X269121Y530162D01*
X269113Y530253D01*
X269101Y530283D01*
X269096Y530315D01*
X269053Y530396D01*
X269017Y530479D01*
X268991Y530512D01*
X268980Y530532D01*
X268957Y530554D01*
X268912Y530610D01*
X249536Y549987D01*
X247487Y552036D01*
X243219Y556304D01*
X242225Y558702D01*
X242225Y571078D01*
X242207Y571192D01*
X242189Y571309D01*
X242187Y571315D01*
X242186Y571321D01*
X242131Y571424D01*
X242078Y571529D01*
X242073Y571533D01*
X242070Y571538D01*
X241986Y571618D01*
X241902Y571701D01*
X241896Y571704D01*
X241892Y571708D01*
X241875Y571716D01*
X241755Y571782D01*
X241304Y571969D01*
X219469Y593804D01*
X218475Y596202D01*
X218475Y648798D01*
X219469Y651196D01*
X221304Y653031D01*
X223702Y654025D01*
X225403Y654025D01*
X225473Y654036D01*
X225545Y654038D01*
X225594Y654056D01*
X225645Y654064D01*
X225709Y654098D01*
X225776Y654123D01*
X225817Y654155D01*
X225863Y654180D01*
X225912Y654232D01*
X225968Y654276D01*
X225996Y654320D01*
X226032Y654358D01*
X226062Y654423D01*
X226101Y654483D01*
X226114Y654534D01*
X226136Y654581D01*
X226144Y654652D01*
X226161Y654722D01*
X226157Y654774D01*
X226163Y654825D01*
X226148Y654896D01*
X226142Y654967D01*
X226122Y655015D01*
X226111Y655066D01*
X226074Y655127D01*
X226046Y655193D01*
X226001Y655249D01*
X225985Y655277D01*
X225967Y655292D01*
X225941Y655324D01*
X215013Y666252D01*
X212725Y668540D01*
X212725Y830725D01*
X212711Y830814D01*
X212704Y830905D01*
X212691Y830935D01*
X212686Y830967D01*
X212643Y831048D01*
X212607Y831132D01*
X212581Y831164D01*
X212570Y831185D01*
X212547Y831207D01*
X212503Y831263D01*
X212460Y831305D01*
X212402Y831347D01*
X212350Y831396D01*
X212303Y831418D01*
X212261Y831448D01*
X212192Y831470D01*
X212127Y831500D01*
X212075Y831506D01*
X212026Y831521D01*
X211954Y831519D01*
X211883Y831527D01*
X211832Y831516D01*
X211780Y831515D01*
X211712Y831490D01*
X211642Y831475D01*
X211598Y831448D01*
X211549Y831430D01*
X211493Y831385D01*
X211431Y831349D01*
X211397Y831309D01*
X211357Y831277D01*
X211318Y831216D01*
X211271Y831162D01*
X211252Y831113D01*
X211224Y831070D01*
X211206Y831000D01*
X211179Y830933D01*
X211171Y830862D01*
X211163Y830831D01*
X211165Y830808D01*
X211161Y830767D01*
X211161Y299329D01*
X211164Y299310D01*
X211162Y299289D01*
X211184Y299188D01*
X211200Y299087D01*
X211210Y299069D01*
X211214Y299049D01*
X211267Y298960D01*
X211316Y298869D01*
X211330Y298855D01*
X211341Y298838D01*
X211419Y298771D01*
X211494Y298700D01*
X211512Y298691D01*
X211528Y298678D01*
X211623Y298640D01*
X211717Y298596D01*
X211737Y298594D01*
X211756Y298587D01*
X211923Y298568D01*
X857524Y299013D01*
G37*
G36*
X220646Y736345D02*
X220646Y736345D01*
X220717Y736350D01*
X220765Y736371D01*
X220816Y736382D01*
X220877Y736419D01*
X220943Y736447D01*
X220999Y736492D01*
X221027Y736508D01*
X221042Y736526D01*
X221074Y736552D01*
X238912Y754390D01*
X238965Y754464D01*
X239025Y754533D01*
X239037Y754563D01*
X239056Y754589D01*
X239083Y754676D01*
X239117Y754761D01*
X239121Y754802D01*
X239128Y754824D01*
X239127Y754857D01*
X239135Y754928D01*
X239135Y756104D01*
X240439Y759252D01*
X242848Y761661D01*
X245996Y762965D01*
X249404Y762965D01*
X252552Y761661D01*
X254961Y759252D01*
X256265Y756104D01*
X256265Y752696D01*
X254961Y749548D01*
X252552Y747139D01*
X249404Y745835D01*
X249128Y745835D01*
X249038Y745821D01*
X248947Y745813D01*
X248917Y745801D01*
X248885Y745796D01*
X248804Y745753D01*
X248721Y745717D01*
X248688Y745691D01*
X248668Y745680D01*
X248646Y745657D01*
X248590Y745612D01*
X246552Y743574D01*
X246510Y743516D01*
X246460Y743464D01*
X246438Y743417D01*
X246408Y743375D01*
X246387Y743306D01*
X246357Y743241D01*
X246351Y743189D01*
X246336Y743139D01*
X246338Y743068D01*
X246330Y742997D01*
X246341Y742946D01*
X246342Y742894D01*
X246367Y742826D01*
X246382Y742756D01*
X246409Y742712D01*
X246427Y742663D01*
X246471Y742607D01*
X246508Y742545D01*
X246548Y742511D01*
X246580Y742471D01*
X246641Y742432D01*
X246695Y742385D01*
X246743Y742366D01*
X246787Y742338D01*
X246857Y742320D01*
X246923Y742293D01*
X246995Y742285D01*
X247026Y742277D01*
X247049Y742279D01*
X247090Y742275D01*
X294475Y742275D01*
X294565Y742289D01*
X294656Y742297D01*
X294685Y742309D01*
X294717Y742314D01*
X294798Y742357D01*
X294882Y742393D01*
X294914Y742419D01*
X294935Y742430D01*
X294957Y742453D01*
X295013Y742498D01*
X317191Y764676D01*
X317233Y764734D01*
X317282Y764786D01*
X317304Y764833D01*
X317335Y764875D01*
X317356Y764944D01*
X317386Y765009D01*
X317392Y765061D01*
X317407Y765111D01*
X317405Y765182D01*
X317413Y765253D01*
X317402Y765304D01*
X317401Y765356D01*
X317376Y765424D01*
X317361Y765494D01*
X317334Y765539D01*
X317316Y765587D01*
X317271Y765643D01*
X317235Y765705D01*
X317195Y765739D01*
X317162Y765779D01*
X317102Y765818D01*
X317048Y765865D01*
X316999Y765884D01*
X316955Y765912D01*
X316886Y765930D01*
X316819Y765957D01*
X316748Y765965D01*
X316717Y765973D01*
X316694Y765971D01*
X316653Y765975D01*
X316202Y765975D01*
X313804Y766969D01*
X311969Y768804D01*
X310975Y771202D01*
X310975Y829482D01*
X310961Y829572D01*
X310953Y829663D01*
X310941Y829693D01*
X310936Y829725D01*
X310893Y829805D01*
X310857Y829889D01*
X310831Y829921D01*
X310820Y829942D01*
X310797Y829964D01*
X310752Y830020D01*
X305709Y835063D01*
X305656Y835102D01*
X305609Y835148D01*
X305536Y835188D01*
X305509Y835207D01*
X305491Y835213D01*
X305462Y835229D01*
X301813Y836740D01*
X298740Y839813D01*
X297229Y843462D01*
X297194Y843518D01*
X297168Y843578D01*
X297116Y843643D01*
X297099Y843671D01*
X297084Y843684D01*
X297063Y843709D01*
X273770Y867002D01*
X273696Y867055D01*
X273627Y867115D01*
X273597Y867127D01*
X273571Y867146D01*
X273484Y867173D01*
X273399Y867207D01*
X273358Y867211D01*
X273336Y867218D01*
X273303Y867217D01*
X273232Y867225D01*
X272911Y867225D01*
X272846Y867215D01*
X272781Y867214D01*
X272701Y867191D01*
X272668Y867186D01*
X272663Y867183D01*
X272660Y867182D01*
X272647Y867175D01*
X272620Y867167D01*
X269404Y865835D01*
X265996Y865835D01*
X262848Y867139D01*
X260439Y869548D01*
X259135Y872696D01*
X259135Y876104D01*
X260439Y879252D01*
X262848Y881661D01*
X265996Y882965D01*
X269404Y882965D01*
X272552Y881661D01*
X273715Y880498D01*
X273789Y880445D01*
X273858Y880385D01*
X273888Y880373D01*
X273914Y880354D01*
X274001Y880327D01*
X274086Y880293D01*
X274127Y880289D01*
X274149Y880282D01*
X274182Y880283D01*
X274253Y880275D01*
X277548Y880275D01*
X279946Y879281D01*
X302977Y856251D01*
X303071Y856183D01*
X303165Y856113D01*
X303171Y856111D01*
X303176Y856107D01*
X303287Y856073D01*
X303399Y856037D01*
X303406Y856037D01*
X303412Y856035D01*
X303528Y856038D01*
X303645Y856039D01*
X303652Y856041D01*
X303657Y856041D01*
X303675Y856048D01*
X303806Y856086D01*
X305827Y856923D01*
X310173Y856923D01*
X314187Y855260D01*
X317260Y852187D01*
X318923Y848173D01*
X318923Y843827D01*
X318086Y841806D01*
X318059Y841693D01*
X318030Y841579D01*
X318031Y841573D01*
X318029Y841567D01*
X318040Y841450D01*
X318049Y841334D01*
X318052Y841328D01*
X318053Y841322D01*
X318100Y841215D01*
X318146Y841108D01*
X318150Y841102D01*
X318153Y841097D01*
X318165Y841084D01*
X318251Y840977D01*
X321089Y838138D01*
X323031Y836196D01*
X324025Y833798D01*
X324025Y773347D01*
X324036Y773276D01*
X324038Y773205D01*
X324056Y773156D01*
X324064Y773105D01*
X324098Y773041D01*
X324123Y772974D01*
X324155Y772933D01*
X324180Y772887D01*
X324231Y772838D01*
X324276Y772782D01*
X324320Y772754D01*
X324358Y772718D01*
X324423Y772688D01*
X324483Y772649D01*
X324534Y772636D01*
X324581Y772614D01*
X324652Y772606D01*
X324722Y772589D01*
X324774Y772593D01*
X324825Y772587D01*
X324896Y772602D01*
X324967Y772608D01*
X325015Y772628D01*
X325066Y772639D01*
X325127Y772676D01*
X325193Y772704D01*
X325249Y772749D01*
X325277Y772765D01*
X325292Y772783D01*
X325324Y772809D01*
X328220Y775705D01*
X328273Y775779D01*
X328333Y775848D01*
X328345Y775879D01*
X328364Y775905D01*
X328391Y775992D01*
X328425Y776077D01*
X328429Y776118D01*
X328436Y776140D01*
X328435Y776172D01*
X328443Y776243D01*
X328443Y778448D01*
X331552Y781557D01*
X335948Y781557D01*
X336426Y781079D01*
X336484Y781037D01*
X336536Y780988D01*
X336583Y780966D01*
X336625Y780936D01*
X336694Y780914D01*
X336759Y780884D01*
X336811Y780879D01*
X336861Y780863D01*
X336932Y780865D01*
X337003Y780857D01*
X337054Y780868D01*
X337106Y780870D01*
X337174Y780894D01*
X337244Y780909D01*
X337289Y780936D01*
X337337Y780954D01*
X337393Y780999D01*
X337455Y781036D01*
X337489Y781075D01*
X337529Y781108D01*
X337568Y781168D01*
X337615Y781223D01*
X337634Y781271D01*
X337662Y781315D01*
X337680Y781384D01*
X337707Y781451D01*
X337715Y781522D01*
X337723Y781553D01*
X337721Y781576D01*
X337725Y781617D01*
X337725Y810725D01*
X337711Y810815D01*
X337703Y810906D01*
X337691Y810935D01*
X337686Y810967D01*
X337643Y811048D01*
X337607Y811132D01*
X337581Y811164D01*
X337570Y811185D01*
X337547Y811207D01*
X337502Y811263D01*
X328975Y819790D01*
X328975Y845210D01*
X365720Y881955D01*
X365773Y882029D01*
X365833Y882098D01*
X365845Y882129D01*
X365864Y882155D01*
X365891Y882242D01*
X365925Y882327D01*
X365929Y882368D01*
X365936Y882390D01*
X365935Y882422D01*
X365943Y882493D01*
X365943Y884698D01*
X366421Y885176D01*
X366463Y885234D01*
X366512Y885286D01*
X366534Y885333D01*
X366564Y885375D01*
X366586Y885444D01*
X366616Y885509D01*
X366621Y885561D01*
X366637Y885611D01*
X366635Y885682D01*
X366643Y885753D01*
X366632Y885804D01*
X366630Y885856D01*
X366606Y885924D01*
X366591Y885994D01*
X366564Y886039D01*
X366546Y886087D01*
X366501Y886143D01*
X366464Y886205D01*
X366425Y886239D01*
X366392Y886279D01*
X366332Y886318D01*
X366277Y886365D01*
X366229Y886384D01*
X366185Y886412D01*
X366116Y886430D01*
X366049Y886457D01*
X365978Y886465D01*
X365947Y886473D01*
X365924Y886471D01*
X365883Y886475D01*
X244275Y886475D01*
X244185Y886461D01*
X244094Y886453D01*
X244065Y886441D01*
X244033Y886436D01*
X243952Y886393D01*
X243868Y886357D01*
X243836Y886331D01*
X243815Y886320D01*
X243793Y886297D01*
X243737Y886252D01*
X236248Y878763D01*
X236195Y878689D01*
X236135Y878620D01*
X236123Y878589D01*
X236104Y878563D01*
X236077Y878476D01*
X236043Y878391D01*
X236039Y878350D01*
X236032Y878328D01*
X236033Y878296D01*
X236025Y878225D01*
X236025Y869275D01*
X236039Y869185D01*
X236047Y869094D01*
X236059Y869065D01*
X236064Y869033D01*
X236107Y868952D01*
X236143Y868868D01*
X236169Y868836D01*
X236180Y868815D01*
X236203Y868793D01*
X236248Y868737D01*
X242825Y862160D01*
X242920Y862092D01*
X243014Y862022D01*
X243020Y862020D01*
X243025Y862016D01*
X243136Y861982D01*
X243247Y861946D01*
X243254Y861946D01*
X243260Y861944D01*
X243377Y861947D01*
X243493Y861948D01*
X243501Y861950D01*
X243506Y861950D01*
X243523Y861957D01*
X243655Y861995D01*
X245996Y862965D01*
X249404Y862965D01*
X252552Y861661D01*
X254961Y859252D01*
X256265Y856104D01*
X256265Y852696D01*
X254961Y849548D01*
X252552Y847139D01*
X249404Y845835D01*
X245996Y845835D01*
X242848Y847139D01*
X240439Y849548D01*
X239135Y852696D01*
X239135Y855565D01*
X239121Y855655D01*
X239113Y855746D01*
X239101Y855775D01*
X239096Y855807D01*
X239053Y855888D01*
X239017Y855972D01*
X238991Y856004D01*
X238980Y856025D01*
X238957Y856047D01*
X238912Y856103D01*
X231263Y863752D01*
X231074Y863941D01*
X231016Y863983D01*
X230964Y864032D01*
X230917Y864054D01*
X230875Y864085D01*
X230806Y864106D01*
X230741Y864136D01*
X230689Y864142D01*
X230640Y864157D01*
X230568Y864155D01*
X230497Y864163D01*
X230446Y864152D01*
X230394Y864151D01*
X230326Y864126D01*
X230256Y864111D01*
X230211Y864084D01*
X230163Y864066D01*
X230107Y864021D01*
X230045Y863985D01*
X230011Y863945D01*
X229971Y863912D01*
X229932Y863852D01*
X229885Y863798D01*
X229866Y863749D01*
X229838Y863706D01*
X229820Y863636D01*
X229793Y863569D01*
X229785Y863498D01*
X229777Y863467D01*
X229779Y863444D01*
X229775Y863403D01*
X229775Y858025D01*
X229789Y857935D01*
X229797Y857844D01*
X229809Y857815D01*
X229814Y857783D01*
X229857Y857702D01*
X229893Y857618D01*
X229919Y857586D01*
X229930Y857565D01*
X229953Y857543D01*
X229998Y857487D01*
X244593Y842892D01*
X244688Y842824D01*
X244781Y842754D01*
X244787Y842752D01*
X244792Y842748D01*
X244904Y842714D01*
X245015Y842678D01*
X245022Y842678D01*
X245028Y842676D01*
X245144Y842679D01*
X245261Y842680D01*
X245268Y842682D01*
X245273Y842682D01*
X245291Y842689D01*
X245422Y842727D01*
X245996Y842965D01*
X249404Y842965D01*
X252552Y841661D01*
X254961Y839252D01*
X256265Y836104D01*
X256265Y832696D01*
X254961Y829548D01*
X252552Y827139D01*
X249404Y825835D01*
X245996Y825835D01*
X242848Y827139D01*
X240439Y829548D01*
X239135Y832696D01*
X239135Y836043D01*
X239134Y836049D01*
X239134Y836050D01*
X239133Y836054D01*
X239124Y836113D01*
X239122Y836185D01*
X239104Y836234D01*
X239096Y836285D01*
X239062Y836349D01*
X239037Y836416D01*
X239005Y836457D01*
X238980Y836503D01*
X238929Y836552D01*
X238884Y836608D01*
X238840Y836636D01*
X238802Y836672D01*
X238737Y836702D01*
X238677Y836741D01*
X238626Y836754D01*
X238579Y836776D01*
X238508Y836784D01*
X238438Y836801D01*
X238386Y836797D01*
X238335Y836803D01*
X238264Y836788D01*
X238193Y836782D01*
X238145Y836762D01*
X238094Y836751D01*
X238033Y836714D01*
X237967Y836686D01*
X237911Y836641D01*
X237883Y836624D01*
X237868Y836607D01*
X237836Y836581D01*
X236248Y834993D01*
X236201Y834927D01*
X236190Y834916D01*
X236188Y834911D01*
X236135Y834849D01*
X236123Y834819D01*
X236104Y834793D01*
X236077Y834706D01*
X236043Y834621D01*
X236039Y834580D01*
X236032Y834558D01*
X236033Y834526D01*
X236025Y834455D01*
X236025Y791775D01*
X236039Y791685D01*
X236047Y791594D01*
X236059Y791565D01*
X236064Y791533D01*
X236107Y791452D01*
X236143Y791368D01*
X236169Y791336D01*
X236180Y791315D01*
X236203Y791293D01*
X236248Y791237D01*
X244593Y782892D01*
X244688Y782823D01*
X244781Y782754D01*
X244787Y782752D01*
X244792Y782748D01*
X244904Y782714D01*
X245015Y782678D01*
X245022Y782678D01*
X245028Y782676D01*
X245144Y782679D01*
X245261Y782680D01*
X245268Y782682D01*
X245273Y782682D01*
X245291Y782689D01*
X245422Y782727D01*
X245996Y782965D01*
X249404Y782965D01*
X252552Y781661D01*
X254961Y779252D01*
X256265Y776104D01*
X256265Y772696D01*
X254961Y769548D01*
X252552Y767139D01*
X249404Y765835D01*
X245996Y765835D01*
X242848Y767139D01*
X240439Y769548D01*
X239135Y772696D01*
X239135Y776104D01*
X239607Y777243D01*
X239634Y777357D01*
X239663Y777470D01*
X239662Y777477D01*
X239664Y777483D01*
X239653Y777599D01*
X239643Y777716D01*
X239641Y777721D01*
X239640Y777728D01*
X239593Y777835D01*
X239547Y777942D01*
X239542Y777948D01*
X239540Y777952D01*
X239528Y777966D01*
X239442Y778073D01*
X231263Y786252D01*
X228975Y788540D01*
X228975Y834455D01*
X228961Y834545D01*
X228953Y834636D01*
X228941Y834665D01*
X228936Y834697D01*
X228893Y834778D01*
X228857Y834862D01*
X228831Y834894D01*
X228820Y834915D01*
X228797Y834937D01*
X228752Y834993D01*
X228663Y835082D01*
X228647Y835093D01*
X228635Y835109D01*
X228547Y835165D01*
X228464Y835225D01*
X228445Y835231D01*
X228428Y835242D01*
X228327Y835267D01*
X228228Y835298D01*
X228209Y835297D01*
X228189Y835302D01*
X228086Y835294D01*
X227983Y835291D01*
X227964Y835285D01*
X227944Y835283D01*
X227849Y835243D01*
X227752Y835207D01*
X227736Y835194D01*
X227718Y835187D01*
X227587Y835082D01*
X224698Y832193D01*
X220536Y832193D01*
X220516Y832190D01*
X220497Y832192D01*
X220395Y832170D01*
X220293Y832154D01*
X220276Y832144D01*
X220256Y832140D01*
X220167Y832087D01*
X220076Y832038D01*
X220062Y832024D01*
X220045Y832014D01*
X219978Y831935D01*
X219906Y831860D01*
X219898Y831842D01*
X219885Y831827D01*
X219846Y831731D01*
X219803Y831637D01*
X219801Y831617D01*
X219793Y831599D01*
X219775Y831432D01*
X219775Y737090D01*
X219786Y737019D01*
X219788Y736947D01*
X219806Y736898D01*
X219814Y736847D01*
X219848Y736784D01*
X219873Y736716D01*
X219905Y736676D01*
X219930Y736630D01*
X219981Y736580D01*
X220026Y736524D01*
X220070Y736496D01*
X220108Y736460D01*
X220173Y736430D01*
X220233Y736391D01*
X220284Y736379D01*
X220331Y736357D01*
X220402Y736349D01*
X220472Y736331D01*
X220524Y736335D01*
X220575Y736330D01*
X220646Y736345D01*
G37*
%LPC*%
G36*
X797802Y763443D02*
X797802Y763443D01*
X794693Y766552D01*
X794693Y770714D01*
X794690Y770734D01*
X794692Y770753D01*
X794670Y770855D01*
X794654Y770957D01*
X794644Y770974D01*
X794640Y770994D01*
X794587Y771083D01*
X794538Y771174D01*
X794524Y771188D01*
X794514Y771205D01*
X794435Y771272D01*
X794360Y771344D01*
X794342Y771352D01*
X794327Y771365D01*
X794231Y771404D01*
X794137Y771447D01*
X794117Y771449D01*
X794099Y771457D01*
X793932Y771475D01*
X779295Y771475D01*
X779205Y771461D01*
X779114Y771453D01*
X779085Y771441D01*
X779053Y771436D01*
X778972Y771393D01*
X778888Y771357D01*
X778856Y771331D01*
X778835Y771320D01*
X778813Y771297D01*
X778757Y771252D01*
X778448Y770943D01*
X774052Y770943D01*
X770943Y774052D01*
X770943Y778448D01*
X774052Y781557D01*
X777682Y781557D01*
X777702Y781560D01*
X777721Y781558D01*
X777823Y781580D01*
X777925Y781596D01*
X777942Y781606D01*
X777962Y781610D01*
X778051Y781663D01*
X778142Y781712D01*
X778156Y781726D01*
X778173Y781736D01*
X778240Y781815D01*
X778312Y781890D01*
X778320Y781908D01*
X778333Y781923D01*
X778372Y782019D01*
X778415Y782113D01*
X778417Y782133D01*
X778425Y782151D01*
X778443Y782318D01*
X778443Y784698D01*
X781552Y787807D01*
X785351Y787807D01*
X785421Y787818D01*
X785493Y787820D01*
X785542Y787838D01*
X785593Y787846D01*
X785657Y787880D01*
X785724Y787905D01*
X785765Y787937D01*
X785811Y787962D01*
X785860Y788014D01*
X785916Y788058D01*
X785944Y788102D01*
X785980Y788140D01*
X786010Y788205D01*
X786049Y788265D01*
X786062Y788316D01*
X786084Y788363D01*
X786092Y788434D01*
X786109Y788504D01*
X786105Y788556D01*
X786111Y788607D01*
X786096Y788678D01*
X786090Y788749D01*
X786070Y788797D01*
X786059Y788848D01*
X786022Y788909D01*
X785994Y788975D01*
X785949Y789031D01*
X785943Y789041D01*
X785943Y793448D01*
X789052Y796557D01*
X791257Y796557D01*
X791347Y796571D01*
X791438Y796579D01*
X791467Y796591D01*
X791499Y796596D01*
X791580Y796639D01*
X791664Y796675D01*
X791696Y796701D01*
X791717Y796712D01*
X791739Y796735D01*
X791795Y796780D01*
X918752Y923737D01*
X918805Y923811D01*
X918865Y923880D01*
X918877Y923911D01*
X918896Y923937D01*
X918923Y924024D01*
X918957Y924109D01*
X918961Y924150D01*
X918968Y924172D01*
X918967Y924204D01*
X918975Y924275D01*
X918975Y958225D01*
X918961Y958315D01*
X918953Y958406D01*
X918941Y958435D01*
X918936Y958467D01*
X918893Y958548D01*
X918857Y958632D01*
X918831Y958664D01*
X918820Y958685D01*
X918797Y958707D01*
X918752Y958763D01*
X908763Y968752D01*
X908689Y968805D01*
X908620Y968865D01*
X908589Y968877D01*
X908563Y968896D01*
X908476Y968923D01*
X908391Y968957D01*
X908350Y968961D01*
X908328Y968968D01*
X908296Y968967D01*
X908225Y968975D01*
X693025Y968975D01*
X692935Y968961D01*
X692844Y968953D01*
X692815Y968941D01*
X692783Y968936D01*
X692702Y968893D01*
X692618Y968857D01*
X692586Y968831D01*
X692565Y968820D01*
X692543Y968797D01*
X692487Y968752D01*
X685691Y961957D01*
X685624Y961863D01*
X685553Y961768D01*
X685551Y961762D01*
X685548Y961757D01*
X685514Y961646D01*
X685477Y961534D01*
X685477Y961528D01*
X685475Y961522D01*
X685478Y961405D01*
X685480Y961288D01*
X685482Y961281D01*
X685482Y961276D01*
X685488Y961258D01*
X685526Y961127D01*
X687123Y957273D01*
X687123Y952927D01*
X685460Y948913D01*
X682387Y945840D01*
X678373Y944177D01*
X674027Y944177D01*
X670013Y945840D01*
X666940Y948913D01*
X665277Y952927D01*
X665277Y957273D01*
X666940Y961287D01*
X670013Y964360D01*
X674027Y966023D01*
X678373Y966023D01*
X678904Y965803D01*
X679017Y965776D01*
X679131Y965748D01*
X679137Y965748D01*
X679143Y965747D01*
X679260Y965758D01*
X679376Y965767D01*
X679382Y965769D01*
X679388Y965770D01*
X679495Y965818D01*
X679602Y965863D01*
X679608Y965868D01*
X679613Y965870D01*
X679626Y965882D01*
X679733Y965968D01*
X687691Y973926D01*
X687733Y973984D01*
X687782Y974036D01*
X687804Y974083D01*
X687835Y974125D01*
X687856Y974194D01*
X687886Y974259D01*
X687892Y974311D01*
X687907Y974361D01*
X687905Y974432D01*
X687913Y974503D01*
X687902Y974554D01*
X687901Y974606D01*
X687876Y974674D01*
X687861Y974744D01*
X687834Y974788D01*
X687816Y974837D01*
X687771Y974893D01*
X687735Y974955D01*
X687695Y974989D01*
X687662Y975029D01*
X687602Y975068D01*
X687548Y975115D01*
X687499Y975134D01*
X687455Y975162D01*
X687386Y975180D01*
X687319Y975207D01*
X687248Y975215D01*
X687217Y975223D01*
X687194Y975221D01*
X687153Y975225D01*
X651775Y975225D01*
X651685Y975211D01*
X651594Y975203D01*
X651565Y975191D01*
X651533Y975186D01*
X651452Y975143D01*
X651368Y975107D01*
X651336Y975081D01*
X651315Y975070D01*
X651293Y975047D01*
X651237Y975002D01*
X635858Y959623D01*
X635790Y959528D01*
X635720Y959434D01*
X635718Y959428D01*
X635714Y959423D01*
X635680Y959312D01*
X635644Y959201D01*
X635644Y959194D01*
X635642Y959188D01*
X635645Y959072D01*
X635646Y958955D01*
X635648Y958947D01*
X635648Y958942D01*
X635655Y958925D01*
X635693Y958793D01*
X636323Y957273D01*
X636323Y952927D01*
X634660Y948913D01*
X631587Y945840D01*
X627573Y944177D01*
X623227Y944177D01*
X619213Y945840D01*
X616140Y948913D01*
X614477Y952927D01*
X614477Y957273D01*
X616140Y961287D01*
X619213Y964360D01*
X623227Y966023D01*
X627573Y966023D01*
X630437Y964836D01*
X630551Y964810D01*
X630664Y964781D01*
X630670Y964782D01*
X630676Y964780D01*
X630793Y964791D01*
X630909Y964800D01*
X630915Y964803D01*
X630921Y964803D01*
X631029Y964851D01*
X631136Y964896D01*
X631141Y964901D01*
X631146Y964903D01*
X631160Y964916D01*
X631267Y965001D01*
X648540Y982275D01*
X913960Y982275D01*
X916248Y979987D01*
X918394Y977841D01*
X918452Y977799D01*
X918504Y977750D01*
X918551Y977728D01*
X918593Y977697D01*
X918662Y977676D01*
X918727Y977646D01*
X918779Y977640D01*
X918829Y977625D01*
X918900Y977627D01*
X918971Y977619D01*
X919022Y977630D01*
X919074Y977631D01*
X919142Y977656D01*
X919212Y977671D01*
X919257Y977698D01*
X919305Y977716D01*
X919361Y977761D01*
X919423Y977797D01*
X919457Y977837D01*
X919497Y977870D01*
X919536Y977930D01*
X919583Y977984D01*
X919602Y978033D01*
X919630Y978077D01*
X919648Y978146D01*
X919675Y978213D01*
X919683Y978284D01*
X919691Y978315D01*
X919689Y978338D01*
X919693Y978379D01*
X919693Y979698D01*
X922802Y982807D01*
X927198Y982807D01*
X930307Y979698D01*
X930307Y977493D01*
X930321Y977403D01*
X930329Y977312D01*
X930341Y977283D01*
X930346Y977251D01*
X930389Y977170D01*
X930425Y977086D01*
X930451Y977054D01*
X930462Y977033D01*
X930485Y977011D01*
X930530Y976955D01*
X938525Y968960D01*
X938525Y913540D01*
X936237Y911252D01*
X929091Y904106D01*
X929049Y904048D01*
X929000Y903996D01*
X928978Y903949D01*
X928947Y903907D01*
X928926Y903838D01*
X928896Y903773D01*
X928890Y903721D01*
X928875Y903671D01*
X928877Y903600D01*
X928869Y903529D01*
X928880Y903478D01*
X928881Y903426D01*
X928906Y903358D01*
X928921Y903288D01*
X928948Y903243D01*
X928966Y903195D01*
X929011Y903139D01*
X929047Y903077D01*
X929087Y903043D01*
X929120Y903003D01*
X929180Y902964D01*
X929234Y902917D01*
X929283Y902898D01*
X929327Y902870D01*
X929396Y902852D01*
X929463Y902825D01*
X929534Y902817D01*
X929565Y902809D01*
X929588Y902811D01*
X929629Y902807D01*
X930948Y902807D01*
X934057Y899698D01*
X934057Y895302D01*
X930948Y892193D01*
X928743Y892193D01*
X928653Y892179D01*
X928562Y892171D01*
X928533Y892159D01*
X928501Y892154D01*
X928420Y892111D01*
X928336Y892075D01*
X928304Y892049D01*
X928283Y892038D01*
X928261Y892015D01*
X928205Y891970D01*
X805530Y769295D01*
X805477Y769221D01*
X805417Y769152D01*
X805405Y769121D01*
X805386Y769095D01*
X805359Y769008D01*
X805325Y768923D01*
X805321Y768882D01*
X805314Y768860D01*
X805315Y768828D01*
X805307Y768757D01*
X805307Y766552D01*
X802198Y763443D01*
X797802Y763443D01*
G37*
%LPD*%
G36*
X490646Y739622D02*
X490646Y739622D01*
X490717Y739628D01*
X490765Y739648D01*
X490816Y739659D01*
X490877Y739696D01*
X490943Y739724D01*
X490999Y739769D01*
X491027Y739786D01*
X491042Y739803D01*
X491074Y739829D01*
X494052Y742807D01*
X496257Y742807D01*
X496347Y742821D01*
X496438Y742829D01*
X496467Y742841D01*
X496499Y742846D01*
X496580Y742889D01*
X496664Y742925D01*
X496696Y742951D01*
X496717Y742962D01*
X496739Y742985D01*
X496795Y743030D01*
X626970Y873205D01*
X627023Y873279D01*
X627083Y873348D01*
X627095Y873379D01*
X627114Y873405D01*
X627141Y873492D01*
X627175Y873577D01*
X627179Y873618D01*
X627186Y873640D01*
X627185Y873672D01*
X627193Y873743D01*
X627193Y875948D01*
X630302Y879057D01*
X634698Y879057D01*
X637587Y876168D01*
X637603Y876157D01*
X637615Y876141D01*
X637703Y876085D01*
X637786Y876025D01*
X637805Y876019D01*
X637822Y876008D01*
X637923Y875983D01*
X638022Y875952D01*
X638041Y875953D01*
X638061Y875948D01*
X638164Y875956D01*
X638267Y875959D01*
X638286Y875965D01*
X638306Y875967D01*
X638401Y876007D01*
X638498Y876043D01*
X638514Y876056D01*
X638532Y876063D01*
X638663Y876168D01*
X640302Y877807D01*
X641128Y877807D01*
X641199Y877818D01*
X641271Y877820D01*
X641320Y877838D01*
X641371Y877846D01*
X641434Y877880D01*
X641502Y877905D01*
X641542Y877937D01*
X641588Y877962D01*
X641638Y878013D01*
X641694Y878058D01*
X641722Y878102D01*
X641758Y878140D01*
X641788Y878205D01*
X641827Y878265D01*
X641839Y878316D01*
X641861Y878363D01*
X641869Y878434D01*
X641887Y878504D01*
X641883Y878556D01*
X641888Y878607D01*
X641873Y878678D01*
X641868Y878749D01*
X641847Y878797D01*
X641836Y878848D01*
X641799Y878909D01*
X641771Y878975D01*
X641726Y879031D01*
X641710Y879059D01*
X641692Y879074D01*
X641666Y879106D01*
X622856Y897916D01*
X622798Y897958D01*
X622746Y898008D01*
X622699Y898030D01*
X622657Y898060D01*
X622588Y898081D01*
X622523Y898111D01*
X622471Y898117D01*
X622421Y898132D01*
X622350Y898130D01*
X622279Y898138D01*
X622228Y898127D01*
X622176Y898126D01*
X622108Y898101D01*
X622038Y898086D01*
X621994Y898059D01*
X621945Y898041D01*
X621889Y897997D01*
X621827Y897960D01*
X621793Y897920D01*
X621753Y897888D01*
X621714Y897827D01*
X621667Y897773D01*
X621648Y897725D01*
X621620Y897681D01*
X621602Y897611D01*
X621575Y897545D01*
X621567Y897473D01*
X621559Y897442D01*
X621561Y897419D01*
X621557Y897378D01*
X621557Y895302D01*
X618448Y892193D01*
X616243Y892193D01*
X616153Y892179D01*
X616062Y892171D01*
X616033Y892159D01*
X616001Y892154D01*
X615920Y892111D01*
X615836Y892075D01*
X615804Y892049D01*
X615783Y892038D01*
X615761Y892015D01*
X615705Y891970D01*
X524280Y800545D01*
X524227Y800471D01*
X524167Y800402D01*
X524155Y800371D01*
X524136Y800345D01*
X524109Y800258D01*
X524075Y800173D01*
X524071Y800132D01*
X524064Y800110D01*
X524065Y800078D01*
X524057Y800007D01*
X524057Y797802D01*
X520948Y794693D01*
X516552Y794693D01*
X513443Y797802D01*
X513443Y802198D01*
X516552Y805307D01*
X518757Y805307D01*
X518847Y805321D01*
X518938Y805329D01*
X518967Y805341D01*
X518999Y805346D01*
X519080Y805389D01*
X519164Y805425D01*
X519196Y805451D01*
X519217Y805462D01*
X519239Y805485D01*
X519295Y805530D01*
X610720Y896955D01*
X610773Y897029D01*
X610833Y897098D01*
X610845Y897129D01*
X610864Y897155D01*
X610891Y897242D01*
X610925Y897327D01*
X610929Y897368D01*
X610936Y897390D01*
X610935Y897422D01*
X610943Y897493D01*
X610943Y899698D01*
X614052Y902807D01*
X616128Y902807D01*
X616199Y902818D01*
X616271Y902820D01*
X616320Y902838D01*
X616371Y902846D01*
X616434Y902880D01*
X616502Y902905D01*
X616542Y902937D01*
X616588Y902962D01*
X616638Y903014D01*
X616694Y903058D01*
X616722Y903102D01*
X616758Y903140D01*
X616788Y903205D01*
X616827Y903265D01*
X616839Y903316D01*
X616861Y903363D01*
X616869Y903434D01*
X616887Y903504D01*
X616883Y903556D01*
X616888Y903607D01*
X616873Y903678D01*
X616868Y903749D01*
X616847Y903797D01*
X616836Y903848D01*
X616799Y903909D01*
X616771Y903975D01*
X616726Y904031D01*
X616710Y904059D01*
X616692Y904074D01*
X616666Y904106D01*
X614913Y905859D01*
X614897Y905871D01*
X614885Y905887D01*
X614798Y905943D01*
X614714Y906003D01*
X614694Y906009D01*
X614678Y906020D01*
X614577Y906045D01*
X614478Y906075D01*
X614459Y906075D01*
X614439Y906080D01*
X614336Y906072D01*
X614233Y906069D01*
X614214Y906062D01*
X614194Y906060D01*
X614099Y906020D01*
X614002Y905984D01*
X613986Y905972D01*
X613968Y905964D01*
X613837Y905859D01*
X611196Y903219D01*
X608798Y902225D01*
X544617Y902225D01*
X544547Y902214D01*
X544475Y902212D01*
X544426Y902194D01*
X544375Y902186D01*
X544311Y902152D01*
X544244Y902127D01*
X544203Y902095D01*
X544157Y902070D01*
X544108Y902018D01*
X544052Y901974D01*
X544024Y901930D01*
X543988Y901892D01*
X543958Y901827D01*
X543919Y901767D01*
X543906Y901716D01*
X543884Y901669D01*
X543876Y901598D01*
X543859Y901528D01*
X543863Y901476D01*
X543857Y901425D01*
X543872Y901354D01*
X543878Y901283D01*
X543898Y901235D01*
X543909Y901184D01*
X543946Y901123D01*
X543974Y901057D01*
X544019Y901001D01*
X544036Y900973D01*
X544053Y900958D01*
X544079Y900926D01*
X545307Y899698D01*
X545307Y895302D01*
X542198Y892193D01*
X537802Y892193D01*
X534693Y895302D01*
X534693Y895714D01*
X534690Y895734D01*
X534692Y895753D01*
X534670Y895855D01*
X534654Y895957D01*
X534644Y895974D01*
X534640Y895994D01*
X534587Y896083D01*
X534538Y896174D01*
X534524Y896188D01*
X534514Y896205D01*
X534435Y896272D01*
X534360Y896344D01*
X534342Y896352D01*
X534327Y896365D01*
X534231Y896404D01*
X534137Y896447D01*
X534117Y896449D01*
X534099Y896457D01*
X533932Y896475D01*
X519117Y896475D01*
X519047Y896464D01*
X518975Y896462D01*
X518926Y896444D01*
X518875Y896436D01*
X518811Y896402D01*
X518744Y896377D01*
X518703Y896345D01*
X518657Y896320D01*
X518608Y896268D01*
X518552Y896224D01*
X518524Y896180D01*
X518488Y896142D01*
X518458Y896077D01*
X518419Y896017D01*
X518406Y895966D01*
X518384Y895919D01*
X518376Y895848D01*
X518359Y895778D01*
X518363Y895726D01*
X518357Y895675D01*
X518372Y895604D01*
X518378Y895533D01*
X518398Y895485D01*
X518409Y895434D01*
X518446Y895373D01*
X518474Y895307D01*
X518519Y895251D01*
X518536Y895223D01*
X518553Y895208D01*
X518579Y895176D01*
X519057Y894698D01*
X519057Y890302D01*
X515948Y887193D01*
X513743Y887193D01*
X513653Y887179D01*
X513562Y887171D01*
X513533Y887159D01*
X513501Y887154D01*
X513420Y887111D01*
X513336Y887075D01*
X513304Y887049D01*
X513283Y887038D01*
X513261Y887015D01*
X513205Y886970D01*
X489998Y863763D01*
X489945Y863689D01*
X489885Y863620D01*
X489873Y863589D01*
X489854Y863563D01*
X489827Y863476D01*
X489793Y863391D01*
X489789Y863350D01*
X489782Y863328D01*
X489783Y863296D01*
X489775Y863225D01*
X489775Y740367D01*
X489786Y740297D01*
X489788Y740225D01*
X489806Y740176D01*
X489814Y740125D01*
X489848Y740061D01*
X489873Y739994D01*
X489905Y739953D01*
X489930Y739907D01*
X489982Y739858D01*
X490026Y739802D01*
X490070Y739774D01*
X490108Y739738D01*
X490173Y739708D01*
X490233Y739669D01*
X490284Y739656D01*
X490331Y739634D01*
X490402Y739626D01*
X490472Y739609D01*
X490524Y739613D01*
X490575Y739607D01*
X490646Y739622D01*
G37*
G36*
X212032Y892238D02*
X212032Y892238D01*
X212103Y892244D01*
X212151Y892264D01*
X212202Y892275D01*
X212263Y892312D01*
X212329Y892340D01*
X212385Y892385D01*
X212413Y892401D01*
X212428Y892419D01*
X212460Y892445D01*
X230002Y909987D01*
X232290Y912275D01*
X308225Y912275D01*
X308315Y912289D01*
X308406Y912297D01*
X308435Y912309D01*
X308467Y912314D01*
X308548Y912357D01*
X308632Y912393D01*
X308664Y912419D01*
X308685Y912430D01*
X308707Y912453D01*
X308763Y912498D01*
X311040Y914775D01*
X319455Y914775D01*
X319545Y914789D01*
X319636Y914797D01*
X319665Y914809D01*
X319697Y914814D01*
X319778Y914857D01*
X319862Y914893D01*
X319894Y914919D01*
X319915Y914930D01*
X319937Y914953D01*
X319993Y914998D01*
X321552Y916557D01*
X325948Y916557D01*
X329057Y913448D01*
X329057Y912129D01*
X329060Y912112D01*
X329058Y912096D01*
X329069Y912046D01*
X329070Y911987D01*
X329088Y911938D01*
X329096Y911887D01*
X329108Y911864D01*
X329110Y911856D01*
X329131Y911821D01*
X329155Y911756D01*
X329187Y911715D01*
X329212Y911669D01*
X329235Y911647D01*
X329236Y911645D01*
X329246Y911636D01*
X329263Y911620D01*
X329308Y911564D01*
X329352Y911536D01*
X329390Y911500D01*
X329455Y911470D01*
X329515Y911431D01*
X329566Y911418D01*
X329613Y911396D01*
X329684Y911388D01*
X329754Y911371D01*
X329806Y911375D01*
X329857Y911369D01*
X329928Y911384D01*
X329999Y911390D01*
X330047Y911410D01*
X330060Y911413D01*
X330067Y911414D01*
X330069Y911415D01*
X330098Y911421D01*
X330159Y911458D01*
X330225Y911486D01*
X330269Y911521D01*
X330285Y911529D01*
X330293Y911538D01*
X330309Y911547D01*
X330324Y911565D01*
X330356Y911591D01*
X354659Y935894D01*
X354701Y935952D01*
X354750Y936004D01*
X354772Y936051D01*
X354803Y936093D01*
X354824Y936162D01*
X354854Y936227D01*
X354860Y936279D01*
X354875Y936329D01*
X354873Y936400D01*
X354881Y936471D01*
X354870Y936522D01*
X354869Y936574D01*
X354844Y936642D01*
X354829Y936712D01*
X354802Y936756D01*
X354784Y936805D01*
X354739Y936861D01*
X354703Y936923D01*
X354663Y936957D01*
X354630Y936997D01*
X354570Y937036D01*
X354516Y937083D01*
X354467Y937102D01*
X354423Y937130D01*
X354354Y937148D01*
X354287Y937175D01*
X354216Y937183D01*
X354185Y937191D01*
X354162Y937189D01*
X354121Y937193D01*
X352802Y937193D01*
X349693Y940302D01*
X349693Y942507D01*
X349679Y942597D01*
X349671Y942688D01*
X349659Y942717D01*
X349654Y942749D01*
X349611Y942830D01*
X349575Y942914D01*
X349549Y942946D01*
X349538Y942967D01*
X349515Y942989D01*
X349470Y943045D01*
X325013Y967502D01*
X324939Y967555D01*
X324870Y967615D01*
X324839Y967627D01*
X324813Y967646D01*
X324726Y967673D01*
X324641Y967707D01*
X324600Y967711D01*
X324578Y967718D01*
X324546Y967717D01*
X324475Y967725D01*
X279275Y967725D01*
X279185Y967711D01*
X279094Y967703D01*
X279065Y967691D01*
X279033Y967686D01*
X278952Y967643D01*
X278868Y967607D01*
X278836Y967581D01*
X278815Y967570D01*
X278799Y967553D01*
X278797Y967552D01*
X278789Y967544D01*
X278737Y967502D01*
X238030Y926795D01*
X237977Y926721D01*
X237917Y926652D01*
X237905Y926621D01*
X237886Y926595D01*
X237859Y926508D01*
X237825Y926423D01*
X237821Y926382D01*
X237814Y926360D01*
X237815Y926328D01*
X237807Y926257D01*
X237807Y924052D01*
X234698Y920943D01*
X230302Y920943D01*
X227193Y924052D01*
X227193Y928448D01*
X230302Y931557D01*
X232507Y931557D01*
X232597Y931571D01*
X232688Y931579D01*
X232717Y931591D01*
X232749Y931596D01*
X232830Y931639D01*
X232914Y931675D01*
X232946Y931701D01*
X232967Y931712D01*
X232989Y931735D01*
X233045Y931780D01*
X276040Y974775D01*
X327710Y974775D01*
X354455Y948030D01*
X354529Y947977D01*
X354598Y947917D01*
X354629Y947905D01*
X354655Y947886D01*
X354742Y947859D01*
X354827Y947825D01*
X354868Y947821D01*
X354890Y947814D01*
X354922Y947815D01*
X354993Y947807D01*
X357198Y947807D01*
X360307Y944698D01*
X360307Y943379D01*
X360318Y943309D01*
X360320Y943237D01*
X360338Y943188D01*
X360346Y943137D01*
X360380Y943073D01*
X360405Y943006D01*
X360437Y942965D01*
X360462Y942919D01*
X360513Y942870D01*
X360558Y942814D01*
X360602Y942786D01*
X360640Y942750D01*
X360705Y942720D01*
X360765Y942681D01*
X360816Y942668D01*
X360863Y942646D01*
X360934Y942638D01*
X361004Y942621D01*
X361056Y942625D01*
X361107Y942619D01*
X361178Y942634D01*
X361249Y942640D01*
X361297Y942660D01*
X361348Y942671D01*
X361409Y942708D01*
X361475Y942736D01*
X361531Y942781D01*
X361559Y942797D01*
X361574Y942815D01*
X361606Y942841D01*
X384659Y965894D01*
X384701Y965952D01*
X384750Y966004D01*
X384772Y966051D01*
X384803Y966093D01*
X384824Y966162D01*
X384854Y966227D01*
X384860Y966279D01*
X384875Y966329D01*
X384873Y966400D01*
X384881Y966471D01*
X384870Y966522D01*
X384869Y966574D01*
X384844Y966642D01*
X384829Y966712D01*
X384802Y966756D01*
X384784Y966805D01*
X384739Y966861D01*
X384703Y966923D01*
X384663Y966957D01*
X384630Y966997D01*
X384570Y967036D01*
X384516Y967083D01*
X384467Y967102D01*
X384423Y967130D01*
X384354Y967148D01*
X384287Y967175D01*
X384216Y967183D01*
X384185Y967191D01*
X384162Y967189D01*
X384121Y967193D01*
X382802Y967193D01*
X379693Y970302D01*
X379693Y974698D01*
X382802Y977807D01*
X385007Y977807D01*
X385097Y977821D01*
X385188Y977829D01*
X385217Y977841D01*
X385249Y977846D01*
X385330Y977889D01*
X385414Y977925D01*
X385446Y977951D01*
X385467Y977962D01*
X385489Y977985D01*
X385545Y978030D01*
X391252Y983737D01*
X393540Y986025D01*
X406975Y986025D01*
X407065Y986039D01*
X407156Y986047D01*
X407186Y986059D01*
X407217Y986064D01*
X407298Y986107D01*
X407382Y986143D01*
X407414Y986169D01*
X407435Y986180D01*
X407457Y986203D01*
X407513Y986248D01*
X408347Y987082D01*
X408389Y987141D01*
X408439Y987193D01*
X408461Y987240D01*
X408491Y987282D01*
X408512Y987351D01*
X408542Y987416D01*
X408548Y987468D01*
X408563Y987517D01*
X408562Y987589D01*
X408569Y987660D01*
X408558Y987711D01*
X408557Y987763D01*
X408532Y987830D01*
X408517Y987901D01*
X408490Y987945D01*
X408473Y987994D01*
X408428Y988050D01*
X408391Y988112D01*
X408351Y988145D01*
X408319Y988186D01*
X408258Y988225D01*
X408204Y988272D01*
X408156Y988291D01*
X408112Y988319D01*
X408042Y988337D01*
X407975Y988363D01*
X407905Y988371D01*
X407873Y988379D01*
X407850Y988377D01*
X407809Y988382D01*
X211921Y988247D01*
X211902Y988244D01*
X211883Y988246D01*
X211781Y988224D01*
X211679Y988207D01*
X211661Y988198D01*
X211642Y988194D01*
X211553Y988140D01*
X211461Y988092D01*
X211448Y988077D01*
X211431Y988067D01*
X211364Y987988D01*
X211292Y987913D01*
X211284Y987895D01*
X211271Y987880D01*
X211232Y987784D01*
X211189Y987690D01*
X211187Y987671D01*
X211179Y987652D01*
X211161Y987486D01*
X211161Y892983D01*
X211172Y892913D01*
X211174Y892841D01*
X211192Y892792D01*
X211200Y892741D01*
X211234Y892677D01*
X211259Y892610D01*
X211291Y892569D01*
X211316Y892523D01*
X211368Y892474D01*
X211412Y892418D01*
X211456Y892390D01*
X211494Y892354D01*
X211559Y892324D01*
X211619Y892285D01*
X211670Y892272D01*
X211717Y892250D01*
X211788Y892242D01*
X211858Y892225D01*
X211910Y892229D01*
X211961Y892223D01*
X212032Y892238D01*
G37*
G36*
X256146Y568095D02*
X256146Y568095D01*
X256217Y568100D01*
X256265Y568121D01*
X256316Y568132D01*
X256377Y568169D01*
X256443Y568197D01*
X256499Y568242D01*
X256527Y568258D01*
X256542Y568276D01*
X256574Y568302D01*
X353804Y665531D01*
X354358Y665761D01*
X354441Y665812D01*
X354527Y665858D01*
X354544Y665877D01*
X354567Y665890D01*
X354629Y665965D01*
X354696Y666036D01*
X354707Y666060D01*
X354724Y666080D01*
X354758Y666171D01*
X354800Y666259D01*
X354802Y666285D01*
X354812Y666309D01*
X354816Y666407D01*
X354827Y666503D01*
X354821Y666529D01*
X354822Y666555D01*
X354795Y666649D01*
X354774Y666744D01*
X354761Y666766D01*
X354754Y666791D01*
X354698Y666871D01*
X354648Y666955D01*
X354628Y666972D01*
X354613Y666993D01*
X354535Y667051D01*
X354461Y667115D01*
X354437Y667125D01*
X354416Y667140D01*
X354323Y667170D01*
X354233Y667207D01*
X354201Y667210D01*
X354182Y667216D01*
X354149Y667216D01*
X354066Y667225D01*
X326202Y667225D01*
X323804Y668219D01*
X321862Y670161D01*
X282036Y709987D01*
X281270Y710752D01*
X281196Y710805D01*
X281127Y710865D01*
X281097Y710877D01*
X281071Y710896D01*
X280984Y710923D01*
X280899Y710957D01*
X280858Y710961D01*
X280836Y710968D01*
X280803Y710967D01*
X280732Y710975D01*
X273703Y710975D01*
X273613Y710961D01*
X273522Y710953D01*
X273492Y710941D01*
X273460Y710936D01*
X273380Y710893D01*
X273296Y710857D01*
X273264Y710831D01*
X273243Y710820D01*
X273221Y710797D01*
X273165Y710752D01*
X273152Y710739D01*
X270004Y709435D01*
X266596Y709435D01*
X263448Y710739D01*
X261039Y713148D01*
X259735Y716296D01*
X259735Y719704D01*
X261039Y722852D01*
X263448Y725261D01*
X266596Y726565D01*
X270004Y726565D01*
X273152Y725261D01*
X274165Y724248D01*
X274239Y724195D01*
X274308Y724135D01*
X274338Y724123D01*
X274364Y724104D01*
X274451Y724077D01*
X274536Y724043D01*
X274577Y724039D01*
X274600Y724032D01*
X274632Y724033D01*
X274703Y724025D01*
X284482Y724025D01*
X284572Y724039D01*
X284663Y724047D01*
X284693Y724059D01*
X284725Y724064D01*
X284805Y724107D01*
X284889Y724143D01*
X284921Y724169D01*
X284942Y724180D01*
X284964Y724203D01*
X285020Y724248D01*
X294698Y733926D01*
X294740Y733984D01*
X294790Y734036D01*
X294812Y734083D01*
X294842Y734125D01*
X294863Y734194D01*
X294893Y734259D01*
X294899Y734311D01*
X294914Y734361D01*
X294912Y734432D01*
X294920Y734503D01*
X294909Y734554D01*
X294908Y734606D01*
X294883Y734674D01*
X294868Y734744D01*
X294841Y734789D01*
X294823Y734837D01*
X294779Y734893D01*
X294742Y734955D01*
X294702Y734989D01*
X294670Y735029D01*
X294609Y735068D01*
X294555Y735115D01*
X294507Y735134D01*
X294463Y735162D01*
X294393Y735180D01*
X294327Y735207D01*
X294255Y735215D01*
X294224Y735223D01*
X294201Y735221D01*
X294160Y735225D01*
X249275Y735225D01*
X249185Y735211D01*
X249094Y735203D01*
X249065Y735191D01*
X249033Y735186D01*
X248952Y735143D01*
X248868Y735107D01*
X248836Y735081D01*
X248815Y735070D01*
X248793Y735047D01*
X248737Y735002D01*
X236248Y722513D01*
X236195Y722439D01*
X236135Y722370D01*
X236123Y722339D01*
X236104Y722313D01*
X236077Y722226D01*
X236043Y722141D01*
X236039Y722100D01*
X236032Y722078D01*
X236033Y722046D01*
X236025Y721975D01*
X236025Y715525D01*
X236039Y715435D01*
X236047Y715344D01*
X236059Y715315D01*
X236064Y715283D01*
X236107Y715202D01*
X236143Y715118D01*
X236169Y715086D01*
X236180Y715065D01*
X236203Y715043D01*
X236248Y714987D01*
X238629Y712606D01*
X238632Y712604D01*
X238634Y712600D01*
X238733Y712531D01*
X238828Y712462D01*
X238832Y712461D01*
X238836Y712459D01*
X238951Y712425D01*
X239064Y712390D01*
X239068Y712390D01*
X239071Y712389D01*
X239190Y712393D01*
X239309Y712396D01*
X239313Y712398D01*
X239317Y712398D01*
X239427Y712439D01*
X239540Y712481D01*
X239544Y712483D01*
X239547Y712485D01*
X239639Y712559D01*
X239733Y712635D01*
X239735Y712638D01*
X239738Y712640D01*
X239800Y712740D01*
X239866Y712841D01*
X239867Y712845D01*
X239869Y712849D01*
X239896Y712964D01*
X239926Y713080D01*
X239925Y713084D01*
X239926Y713088D01*
X239916Y713207D01*
X239906Y713325D01*
X239905Y713329D01*
X239905Y713333D01*
X239845Y713490D01*
X239421Y714322D01*
X238955Y715757D01*
X238841Y716477D01*
X246777Y716477D01*
X246777Y708541D01*
X246057Y708655D01*
X244622Y709121D01*
X243790Y709545D01*
X243786Y709547D01*
X243783Y709549D01*
X243669Y709584D01*
X243556Y709620D01*
X243552Y709620D01*
X243548Y709621D01*
X243428Y709618D01*
X243310Y709616D01*
X243306Y709615D01*
X243302Y709615D01*
X243188Y709573D01*
X243078Y709534D01*
X243075Y709532D01*
X243071Y709530D01*
X242977Y709456D01*
X242884Y709383D01*
X242882Y709379D01*
X242879Y709377D01*
X242814Y709276D01*
X242749Y709177D01*
X242748Y709173D01*
X242746Y709170D01*
X242717Y709055D01*
X242686Y708939D01*
X242687Y708935D01*
X242686Y708931D01*
X242695Y708814D01*
X242703Y708694D01*
X242705Y708690D01*
X242705Y708686D01*
X242751Y708578D01*
X242797Y708466D01*
X242800Y708463D01*
X242801Y708460D01*
X242906Y708329D01*
X244875Y706360D01*
X244969Y706292D01*
X245063Y706222D01*
X245069Y706220D01*
X245074Y706217D01*
X245186Y706182D01*
X245297Y706146D01*
X245303Y706146D01*
X245309Y706144D01*
X245426Y706147D01*
X245543Y706148D01*
X245550Y706151D01*
X245555Y706151D01*
X245573Y706157D01*
X245704Y706195D01*
X246596Y706565D01*
X250004Y706565D01*
X253152Y705261D01*
X255561Y702852D01*
X256865Y699704D01*
X256865Y696296D01*
X255561Y693148D01*
X253152Y690739D01*
X250004Y689435D01*
X246596Y689435D01*
X243448Y690739D01*
X241039Y693148D01*
X239735Y696296D01*
X239735Y699704D01*
X240076Y700525D01*
X240102Y700639D01*
X240131Y700752D01*
X240130Y700759D01*
X240132Y700765D01*
X240121Y700881D01*
X240112Y700997D01*
X240109Y701003D01*
X240109Y701010D01*
X240061Y701117D01*
X240015Y701224D01*
X240011Y701230D01*
X240009Y701234D01*
X239996Y701248D01*
X239911Y701355D01*
X231263Y710002D01*
X228975Y712290D01*
X228975Y724695D01*
X228968Y724740D01*
X228970Y724786D01*
X228948Y724861D01*
X228936Y724938D01*
X228914Y724978D01*
X228901Y725022D01*
X228857Y725086D01*
X228820Y725155D01*
X228787Y725187D01*
X228761Y725224D01*
X228699Y725271D01*
X228642Y725325D01*
X228600Y725344D01*
X228564Y725371D01*
X228490Y725395D01*
X228419Y725428D01*
X228373Y725433D01*
X228330Y725447D01*
X228252Y725447D01*
X228175Y725455D01*
X228130Y725445D01*
X228084Y725445D01*
X227952Y725407D01*
X227934Y725403D01*
X227930Y725400D01*
X227923Y725398D01*
X226298Y724725D01*
X223702Y724725D01*
X221304Y725719D01*
X221074Y725948D01*
X221016Y725990D01*
X220964Y726040D01*
X220917Y726062D01*
X220875Y726092D01*
X220806Y726113D01*
X220741Y726143D01*
X220689Y726149D01*
X220639Y726164D01*
X220568Y726162D01*
X220497Y726170D01*
X220446Y726159D01*
X220394Y726158D01*
X220326Y726133D01*
X220256Y726118D01*
X220211Y726091D01*
X220163Y726073D01*
X220107Y726029D01*
X220045Y725992D01*
X220011Y725952D01*
X219971Y725920D01*
X219932Y725860D01*
X219885Y725805D01*
X219866Y725757D01*
X219838Y725713D01*
X219820Y725643D01*
X219793Y725577D01*
X219785Y725506D01*
X219777Y725474D01*
X219779Y725451D01*
X219775Y725410D01*
X219775Y671775D01*
X219789Y671685D01*
X219797Y671594D01*
X219809Y671565D01*
X219814Y671533D01*
X219857Y671452D01*
X219893Y671368D01*
X219919Y671336D01*
X219930Y671315D01*
X219953Y671293D01*
X219998Y671237D01*
X244875Y646360D01*
X244969Y646292D01*
X245063Y646222D01*
X245069Y646220D01*
X245074Y646217D01*
X245186Y646182D01*
X245297Y646146D01*
X245303Y646146D01*
X245309Y646144D01*
X245426Y646147D01*
X245543Y646148D01*
X245550Y646151D01*
X245555Y646151D01*
X245573Y646157D01*
X245704Y646195D01*
X246596Y646565D01*
X250004Y646565D01*
X253152Y645261D01*
X255561Y642852D01*
X256865Y639704D01*
X256865Y636296D01*
X255561Y633148D01*
X253152Y630739D01*
X250004Y629435D01*
X246596Y629435D01*
X243448Y630739D01*
X241039Y633148D01*
X239735Y636296D01*
X239735Y639704D01*
X240076Y640525D01*
X240102Y640639D01*
X240131Y640752D01*
X240130Y640759D01*
X240132Y640765D01*
X240121Y640881D01*
X240112Y640997D01*
X240109Y641003D01*
X240109Y641009D01*
X240061Y641117D01*
X240015Y641224D01*
X240011Y641230D01*
X240009Y641234D01*
X239996Y641248D01*
X239911Y641355D01*
X232824Y648441D01*
X232766Y648483D01*
X232714Y648532D01*
X232667Y648554D01*
X232625Y648585D01*
X232556Y648606D01*
X232491Y648636D01*
X232439Y648642D01*
X232389Y648657D01*
X232318Y648655D01*
X232247Y648663D01*
X232196Y648652D01*
X232144Y648651D01*
X232076Y648626D01*
X232006Y648611D01*
X231961Y648584D01*
X231913Y648566D01*
X231857Y648521D01*
X231795Y648485D01*
X231761Y648445D01*
X231721Y648412D01*
X231682Y648352D01*
X231635Y648298D01*
X231616Y648249D01*
X231588Y648205D01*
X231570Y648136D01*
X231543Y648069D01*
X231535Y647998D01*
X231527Y647967D01*
X231529Y647944D01*
X231525Y647903D01*
X231525Y600518D01*
X231539Y600428D01*
X231547Y600337D01*
X231559Y600307D01*
X231564Y600275D01*
X231607Y600195D01*
X231643Y600111D01*
X231669Y600079D01*
X231680Y600058D01*
X231703Y600036D01*
X231748Y599980D01*
X240926Y590802D01*
X240984Y590760D01*
X241036Y590710D01*
X241083Y590688D01*
X241125Y590658D01*
X241194Y590637D01*
X241259Y590607D01*
X241311Y590601D01*
X241361Y590586D01*
X241432Y590588D01*
X241503Y590580D01*
X241554Y590591D01*
X241606Y590592D01*
X241674Y590617D01*
X241744Y590632D01*
X241789Y590659D01*
X241837Y590677D01*
X241893Y590721D01*
X241955Y590758D01*
X241989Y590798D01*
X242029Y590830D01*
X242068Y590891D01*
X242115Y590945D01*
X242134Y590993D01*
X242162Y591037D01*
X242180Y591107D01*
X242207Y591173D01*
X242215Y591245D01*
X242223Y591276D01*
X242221Y591299D01*
X242225Y591340D01*
X242225Y591647D01*
X242220Y591677D01*
X242222Y591689D01*
X242210Y591743D01*
X242203Y591828D01*
X242191Y591858D01*
X242186Y591890D01*
X242173Y591914D01*
X242170Y591929D01*
X242138Y591983D01*
X242107Y592054D01*
X242081Y592086D01*
X242070Y592107D01*
X242054Y592123D01*
X242043Y592140D01*
X242027Y592154D01*
X242002Y592185D01*
X241039Y593148D01*
X239735Y596296D01*
X239735Y599704D01*
X241039Y602852D01*
X243448Y605261D01*
X246596Y606565D01*
X250004Y606565D01*
X253152Y605261D01*
X255561Y602852D01*
X256865Y599704D01*
X256865Y596296D01*
X255561Y593148D01*
X255498Y593085D01*
X255445Y593011D01*
X255385Y592942D01*
X255373Y592912D01*
X255354Y592886D01*
X255327Y592799D01*
X255293Y592714D01*
X255289Y592673D01*
X255282Y592650D01*
X255283Y592618D01*
X255275Y592547D01*
X255275Y568840D01*
X255286Y568769D01*
X255288Y568697D01*
X255306Y568648D01*
X255314Y568597D01*
X255348Y568534D01*
X255373Y568466D01*
X255405Y568426D01*
X255430Y568380D01*
X255482Y568330D01*
X255526Y568274D01*
X255570Y568246D01*
X255608Y568210D01*
X255673Y568180D01*
X255733Y568141D01*
X255784Y568129D01*
X255831Y568107D01*
X255902Y568099D01*
X255972Y568081D01*
X256024Y568085D01*
X256075Y568080D01*
X256146Y568095D01*
G37*
%LPC*%
G36*
X775888Y423815D02*
X775888Y423815D01*
X774995Y424708D01*
X774995Y450972D01*
X775888Y451865D01*
X782714Y451865D01*
X782734Y451868D01*
X782753Y451866D01*
X782855Y451888D01*
X782957Y451904D01*
X782974Y451914D01*
X782994Y451918D01*
X783083Y451971D01*
X783174Y452020D01*
X783188Y452034D01*
X783205Y452044D01*
X783272Y452123D01*
X783344Y452198D01*
X783352Y452216D01*
X783365Y452231D01*
X783404Y452327D01*
X783447Y452421D01*
X783449Y452441D01*
X783457Y452459D01*
X783475Y452626D01*
X783475Y460048D01*
X784469Y462446D01*
X869609Y547587D01*
X869621Y547603D01*
X869637Y547615D01*
X869693Y547703D01*
X869753Y547786D01*
X869759Y547805D01*
X869770Y547822D01*
X869795Y547923D01*
X869825Y548022D01*
X869825Y548041D01*
X869830Y548061D01*
X869822Y548164D01*
X869819Y548267D01*
X869812Y548286D01*
X869810Y548306D01*
X869770Y548401D01*
X869734Y548498D01*
X869722Y548514D01*
X869714Y548532D01*
X869609Y548663D01*
X860719Y557554D01*
X859725Y559952D01*
X859725Y570732D01*
X859711Y570822D01*
X859703Y570913D01*
X859691Y570943D01*
X859686Y570975D01*
X859643Y571056D01*
X859607Y571139D01*
X859581Y571172D01*
X859570Y571192D01*
X859547Y571214D01*
X859502Y571270D01*
X783219Y647554D01*
X782225Y649952D01*
X782225Y653554D01*
X782222Y653574D01*
X782224Y653593D01*
X782202Y653695D01*
X782186Y653797D01*
X782176Y653814D01*
X782172Y653834D01*
X782119Y653923D01*
X782070Y654014D01*
X782056Y654028D01*
X782046Y654045D01*
X781967Y654112D01*
X781892Y654184D01*
X781874Y654192D01*
X781859Y654205D01*
X781763Y654244D01*
X781669Y654287D01*
X781649Y654289D01*
X781631Y654297D01*
X781464Y654315D01*
X775588Y654315D01*
X774695Y655208D01*
X774695Y681472D01*
X775588Y682365D01*
X801852Y682365D01*
X802745Y681472D01*
X802745Y655208D01*
X801852Y654315D01*
X796750Y654315D01*
X796679Y654304D01*
X796607Y654302D01*
X796558Y654284D01*
X796507Y654276D01*
X796444Y654242D01*
X796376Y654217D01*
X796336Y654185D01*
X796290Y654160D01*
X796240Y654109D01*
X796184Y654064D01*
X796156Y654020D01*
X796120Y653982D01*
X796090Y653917D01*
X796051Y653857D01*
X796039Y653806D01*
X796017Y653759D01*
X796009Y653688D01*
X795991Y653618D01*
X795995Y653566D01*
X795990Y653515D01*
X796005Y653444D01*
X796010Y653373D01*
X796031Y653325D01*
X796042Y653274D01*
X796079Y653213D01*
X796107Y653147D01*
X796152Y653091D01*
X796168Y653063D01*
X796186Y653048D01*
X796212Y653016D01*
X869839Y579388D01*
X871781Y577446D01*
X872775Y575048D01*
X872775Y564268D01*
X872789Y564178D01*
X872797Y564087D01*
X872809Y564057D01*
X872814Y564025D01*
X872857Y563945D01*
X872893Y563861D01*
X872919Y563829D01*
X872930Y563808D01*
X872953Y563786D01*
X872975Y563758D01*
X872978Y563754D01*
X872981Y563751D01*
X872998Y563730D01*
X881230Y555498D01*
X881304Y555445D01*
X881373Y555385D01*
X881403Y555373D01*
X881429Y555354D01*
X881516Y555327D01*
X881601Y555293D01*
X881642Y555289D01*
X881664Y555282D01*
X881697Y555283D01*
X881768Y555275D01*
X930214Y555275D01*
X930234Y555278D01*
X930253Y555276D01*
X930355Y555298D01*
X930457Y555314D01*
X930474Y555324D01*
X930494Y555328D01*
X930583Y555381D01*
X930674Y555430D01*
X930688Y555444D01*
X930705Y555454D01*
X930772Y555533D01*
X930844Y555608D01*
X930852Y555626D01*
X930865Y555641D01*
X930904Y555737D01*
X930947Y555831D01*
X930949Y555851D01*
X930957Y555869D01*
X930975Y556036D01*
X930975Y560117D01*
X930961Y560207D01*
X930953Y560298D01*
X930941Y560328D01*
X930936Y560360D01*
X930893Y560441D01*
X930857Y560524D01*
X930831Y560557D01*
X930820Y560577D01*
X930797Y560599D01*
X930752Y560655D01*
X928001Y563406D01*
X926493Y567047D01*
X926493Y587753D01*
X928001Y591394D01*
X930788Y594181D01*
X934429Y595689D01*
X938371Y595689D01*
X942012Y594181D01*
X944799Y591394D01*
X946307Y587753D01*
X946307Y567047D01*
X944799Y563406D01*
X944248Y562855D01*
X944195Y562782D01*
X944135Y562712D01*
X944123Y562682D01*
X944104Y562656D01*
X944077Y562569D01*
X944043Y562484D01*
X944039Y562443D01*
X944032Y562421D01*
X944033Y562388D01*
X944025Y562317D01*
X944025Y456079D01*
X944044Y455965D01*
X944061Y455848D01*
X944063Y455843D01*
X944064Y455837D01*
X944119Y455734D01*
X944172Y455629D01*
X944177Y455625D01*
X944180Y455619D01*
X944264Y455539D01*
X944348Y455457D01*
X944354Y455453D01*
X944358Y455450D01*
X944375Y455442D01*
X944495Y455376D01*
X945539Y454943D01*
X949933Y450549D01*
X952312Y444807D01*
X952312Y438593D01*
X949933Y432851D01*
X945539Y428457D01*
X939797Y426078D01*
X933583Y426078D01*
X927841Y428457D01*
X923447Y432851D01*
X921068Y438593D01*
X921068Y444807D01*
X923447Y450549D01*
X927841Y454943D01*
X930505Y456047D01*
X930605Y456109D01*
X930705Y456169D01*
X930709Y456173D01*
X930714Y456177D01*
X930789Y456267D01*
X930865Y456355D01*
X930867Y456361D01*
X930871Y456366D01*
X930913Y456475D01*
X930957Y456584D01*
X930958Y456591D01*
X930959Y456596D01*
X930960Y456614D01*
X930975Y456750D01*
X930975Y541464D01*
X930972Y541484D01*
X930974Y541503D01*
X930952Y541605D01*
X930936Y541707D01*
X930926Y541724D01*
X930922Y541744D01*
X930869Y541833D01*
X930820Y541924D01*
X930806Y541938D01*
X930796Y541955D01*
X930717Y542022D01*
X930642Y542094D01*
X930624Y542102D01*
X930609Y542115D01*
X930513Y542154D01*
X930419Y542197D01*
X930399Y542199D01*
X930381Y542207D01*
X930214Y542225D01*
X882672Y542225D01*
X882557Y542206D01*
X882441Y542189D01*
X882435Y542187D01*
X882429Y542186D01*
X882326Y542131D01*
X882221Y542078D01*
X882217Y542073D01*
X882212Y542070D01*
X882132Y541986D01*
X882049Y541902D01*
X882046Y541896D01*
X882042Y541892D01*
X882034Y541875D01*
X881968Y541755D01*
X881781Y541304D01*
X881374Y540897D01*
X881360Y540877D01*
X881279Y540780D01*
X880959Y540301D01*
X880474Y539976D01*
X880456Y539959D01*
X880359Y539882D01*
X796748Y456270D01*
X796695Y456196D01*
X796635Y456127D01*
X796623Y456097D01*
X796604Y456071D01*
X796577Y455984D01*
X796543Y455899D01*
X796539Y455858D01*
X796532Y455836D01*
X796533Y455803D01*
X796525Y455732D01*
X796525Y452626D01*
X796528Y452606D01*
X796526Y452587D01*
X796548Y452485D01*
X796564Y452383D01*
X796574Y452366D01*
X796578Y452346D01*
X796631Y452257D01*
X796680Y452166D01*
X796694Y452152D01*
X796704Y452135D01*
X796783Y452068D01*
X796858Y451996D01*
X796876Y451988D01*
X796891Y451975D01*
X796987Y451936D01*
X797081Y451893D01*
X797101Y451891D01*
X797119Y451883D01*
X797286Y451865D01*
X802152Y451865D01*
X803045Y450972D01*
X803045Y424708D01*
X802152Y423815D01*
X775888Y423815D01*
G37*
%LPD*%
G36*
X313678Y722634D02*
X313678Y722634D01*
X313749Y722640D01*
X313797Y722660D01*
X313848Y722671D01*
X313909Y722708D01*
X313975Y722736D01*
X314031Y722781D01*
X314059Y722797D01*
X314074Y722815D01*
X314106Y722841D01*
X352502Y761237D01*
X352555Y761311D01*
X352615Y761380D01*
X352627Y761411D01*
X352646Y761437D01*
X352673Y761524D01*
X352707Y761609D01*
X352711Y761650D01*
X352718Y761672D01*
X352717Y761704D01*
X352725Y761775D01*
X352725Y803205D01*
X352711Y803295D01*
X352703Y803386D01*
X352691Y803415D01*
X352686Y803447D01*
X352643Y803528D01*
X352607Y803612D01*
X352581Y803644D01*
X352570Y803665D01*
X352547Y803687D01*
X352502Y803743D01*
X350943Y805302D01*
X350943Y809698D01*
X354052Y812807D01*
X356128Y812807D01*
X356199Y812818D01*
X356271Y812820D01*
X356320Y812838D01*
X356371Y812846D01*
X356434Y812880D01*
X356502Y812905D01*
X356542Y812937D01*
X356588Y812962D01*
X356638Y813014D01*
X356694Y813058D01*
X356722Y813102D01*
X356758Y813140D01*
X356788Y813205D01*
X356827Y813265D01*
X356839Y813316D01*
X356861Y813363D01*
X356869Y813434D01*
X356887Y813504D01*
X356883Y813556D01*
X356888Y813607D01*
X356873Y813678D01*
X356868Y813749D01*
X356847Y813797D01*
X356836Y813848D01*
X356799Y813909D01*
X356771Y813975D01*
X356726Y814031D01*
X356710Y814059D01*
X356692Y814074D01*
X356666Y814106D01*
X351969Y818804D01*
X350975Y821202D01*
X350975Y823798D01*
X351969Y826196D01*
X353804Y828031D01*
X356202Y829025D01*
X358798Y829025D01*
X361196Y828031D01*
X373031Y816196D01*
X374025Y813798D01*
X374025Y731202D01*
X373939Y730995D01*
X373917Y730900D01*
X373888Y730807D01*
X373889Y730781D01*
X373883Y730755D01*
X373892Y730658D01*
X373894Y730561D01*
X373903Y730536D01*
X373906Y730510D01*
X373945Y730422D01*
X373979Y730330D01*
X373995Y730310D01*
X374006Y730286D01*
X374071Y730214D01*
X374132Y730138D01*
X374154Y730124D01*
X374172Y730105D01*
X374257Y730058D01*
X374339Y730005D01*
X374365Y729999D01*
X374388Y729986D01*
X374483Y729969D01*
X374578Y729945D01*
X374604Y729947D01*
X374630Y729942D01*
X374726Y729956D01*
X374823Y729964D01*
X374847Y729974D01*
X374873Y729978D01*
X374960Y730022D01*
X375049Y730060D01*
X375075Y730081D01*
X375092Y730090D01*
X375115Y730113D01*
X375180Y730165D01*
X454606Y809591D01*
X454620Y809611D01*
X454639Y809626D01*
X454664Y809667D01*
X454696Y809700D01*
X454718Y809746D01*
X454750Y809791D01*
X454757Y809814D01*
X454770Y809834D01*
X454781Y809883D01*
X454800Y809923D01*
X454805Y809971D01*
X454822Y810026D01*
X454822Y810050D01*
X454827Y810073D01*
X454822Y810126D01*
X454827Y810168D01*
X454817Y810213D01*
X454816Y810272D01*
X454807Y810294D01*
X454805Y810318D01*
X454784Y810368D01*
X454775Y810408D01*
X454752Y810447D01*
X454731Y810503D01*
X454716Y810521D01*
X454707Y810544D01*
X454670Y810584D01*
X454649Y810619D01*
X454615Y810648D01*
X454578Y810695D01*
X454557Y810708D01*
X454541Y810726D01*
X454493Y810752D01*
X454462Y810779D01*
X454420Y810796D01*
X454371Y810828D01*
X454347Y810834D01*
X454326Y810845D01*
X454273Y810855D01*
X454234Y810871D01*
X454171Y810878D01*
X454132Y810888D01*
X454108Y810886D01*
X454084Y810890D01*
X454074Y810889D01*
X454067Y810889D01*
X454066Y810889D01*
X453987Y810876D01*
X453986Y810876D01*
X453887Y810869D01*
X453865Y810859D01*
X453841Y810856D01*
X453829Y810851D01*
X453823Y810850D01*
X453806Y810841D01*
X453687Y810788D01*
X447912Y807454D01*
X441512Y805739D01*
X434888Y805739D01*
X428488Y807454D01*
X422751Y810766D01*
X418066Y815451D01*
X414754Y821188D01*
X413039Y827588D01*
X413039Y834212D01*
X414754Y840612D01*
X418066Y846349D01*
X422751Y851034D01*
X428488Y854346D01*
X434888Y856061D01*
X441512Y856061D01*
X447912Y854346D01*
X453649Y851034D01*
X458334Y846349D01*
X461646Y840612D01*
X463361Y834212D01*
X463361Y827588D01*
X461628Y821122D01*
X461624Y821074D01*
X461609Y821028D01*
X461611Y820953D01*
X461604Y820877D01*
X461615Y820830D01*
X461616Y820782D01*
X461642Y820711D01*
X461659Y820637D01*
X461684Y820596D01*
X461700Y820551D01*
X461748Y820492D01*
X461787Y820428D01*
X461824Y820397D01*
X461854Y820359D01*
X461918Y820318D01*
X461976Y820270D01*
X462020Y820252D01*
X462061Y820226D01*
X462134Y820208D01*
X462205Y820180D01*
X462253Y820178D01*
X462299Y820166D01*
X462375Y820172D01*
X462451Y820169D01*
X462497Y820182D01*
X462545Y820185D01*
X462614Y820215D01*
X462687Y820236D01*
X462727Y820263D01*
X462771Y820282D01*
X462872Y820362D01*
X462890Y820375D01*
X462894Y820380D01*
X462902Y820387D01*
X465002Y822487D01*
X465055Y822561D01*
X465115Y822630D01*
X465127Y822661D01*
X465146Y822687D01*
X465173Y822774D01*
X465207Y822859D01*
X465211Y822900D01*
X465218Y822922D01*
X465217Y822954D01*
X465225Y823025D01*
X465225Y841975D01*
X465211Y842065D01*
X465203Y842156D01*
X465191Y842185D01*
X465186Y842217D01*
X465143Y842298D01*
X465107Y842382D01*
X465081Y842414D01*
X465070Y842435D01*
X465047Y842457D01*
X465002Y842513D01*
X420545Y886970D01*
X420471Y887023D01*
X420402Y887083D01*
X420371Y887095D01*
X420345Y887114D01*
X420258Y887141D01*
X420173Y887175D01*
X420132Y887179D01*
X420110Y887186D01*
X420078Y887185D01*
X420007Y887193D01*
X417802Y887193D01*
X414693Y890302D01*
X414693Y892871D01*
X414682Y892941D01*
X414680Y893013D01*
X414662Y893062D01*
X414654Y893113D01*
X414620Y893177D01*
X414595Y893244D01*
X414563Y893285D01*
X414538Y893331D01*
X414486Y893380D01*
X414442Y893436D01*
X414398Y893464D01*
X414360Y893500D01*
X414295Y893530D01*
X414235Y893569D01*
X414184Y893582D01*
X414137Y893604D01*
X414066Y893612D01*
X413996Y893629D01*
X413944Y893625D01*
X413893Y893631D01*
X413822Y893616D01*
X413751Y893610D01*
X413703Y893590D01*
X413652Y893579D01*
X413591Y893542D01*
X413525Y893514D01*
X413469Y893469D01*
X413441Y893453D01*
X413426Y893435D01*
X413394Y893409D01*
X345530Y825545D01*
X345477Y825471D01*
X345417Y825402D01*
X345405Y825371D01*
X345386Y825345D01*
X345359Y825258D01*
X345325Y825173D01*
X345321Y825132D01*
X345314Y825110D01*
X345315Y825078D01*
X345307Y825007D01*
X345307Y822802D01*
X342198Y819693D01*
X340879Y819693D01*
X340809Y819682D01*
X340737Y819680D01*
X340688Y819662D01*
X340637Y819654D01*
X340573Y819620D01*
X340506Y819595D01*
X340465Y819563D01*
X340419Y819538D01*
X340370Y819486D01*
X340314Y819442D01*
X340286Y819398D01*
X340250Y819360D01*
X340220Y819295D01*
X340181Y819235D01*
X340168Y819184D01*
X340146Y819137D01*
X340138Y819066D01*
X340121Y818996D01*
X340125Y818944D01*
X340119Y818893D01*
X340134Y818822D01*
X340140Y818751D01*
X340160Y818703D01*
X340171Y818652D01*
X340208Y818591D01*
X340236Y818525D01*
X340281Y818469D01*
X340297Y818441D01*
X340315Y818426D01*
X340341Y818394D01*
X344775Y813960D01*
X344775Y757290D01*
X342487Y755002D01*
X313030Y725545D01*
X312977Y725471D01*
X312917Y725402D01*
X312905Y725371D01*
X312886Y725345D01*
X312859Y725258D01*
X312825Y725173D01*
X312821Y725132D01*
X312814Y725110D01*
X312815Y725078D01*
X312807Y725007D01*
X312807Y723379D01*
X312818Y723309D01*
X312820Y723237D01*
X312838Y723188D01*
X312846Y723137D01*
X312880Y723073D01*
X312905Y723006D01*
X312937Y722965D01*
X312962Y722919D01*
X313014Y722870D01*
X313058Y722814D01*
X313102Y722786D01*
X313140Y722750D01*
X313205Y722720D01*
X313265Y722681D01*
X313316Y722668D01*
X313363Y722646D01*
X313434Y722638D01*
X313504Y722621D01*
X313556Y722625D01*
X313607Y722619D01*
X313678Y722634D01*
G37*
G36*
X471896Y577102D02*
X471896Y577102D01*
X471967Y577108D01*
X472015Y577128D01*
X472066Y577139D01*
X472127Y577176D01*
X472193Y577204D01*
X472249Y577249D01*
X472277Y577265D01*
X472292Y577283D01*
X472324Y577309D01*
X701970Y806955D01*
X702023Y807029D01*
X702083Y807098D01*
X702095Y807129D01*
X702114Y807155D01*
X702141Y807242D01*
X702175Y807327D01*
X702179Y807368D01*
X702186Y807390D01*
X702185Y807422D01*
X702193Y807493D01*
X702193Y809698D01*
X705302Y812807D01*
X706128Y812807D01*
X706199Y812818D01*
X706271Y812820D01*
X706320Y812838D01*
X706371Y812846D01*
X706434Y812880D01*
X706502Y812905D01*
X706542Y812937D01*
X706588Y812962D01*
X706638Y813013D01*
X706694Y813058D01*
X706722Y813102D01*
X706758Y813140D01*
X706788Y813205D01*
X706827Y813265D01*
X706839Y813316D01*
X706861Y813363D01*
X706869Y813434D01*
X706887Y813504D01*
X706883Y813556D01*
X706888Y813607D01*
X706873Y813678D01*
X706868Y813749D01*
X706847Y813797D01*
X706836Y813848D01*
X706799Y813909D01*
X706771Y813975D01*
X706726Y814031D01*
X706710Y814059D01*
X706692Y814074D01*
X706666Y814106D01*
X701606Y819166D01*
X701548Y819208D01*
X701496Y819258D01*
X701449Y819280D01*
X701407Y819310D01*
X701338Y819331D01*
X701273Y819361D01*
X701221Y819367D01*
X701171Y819382D01*
X701100Y819380D01*
X701029Y819388D01*
X700978Y819377D01*
X700926Y819376D01*
X700858Y819351D01*
X700788Y819336D01*
X700744Y819309D01*
X700695Y819291D01*
X700639Y819247D01*
X700577Y819210D01*
X700543Y819170D01*
X700503Y819138D01*
X700464Y819077D01*
X700417Y819023D01*
X700398Y818975D01*
X700370Y818931D01*
X700352Y818861D01*
X700325Y818795D01*
X700317Y818723D01*
X700309Y818692D01*
X700311Y818669D01*
X700307Y818628D01*
X700307Y816552D01*
X697198Y813443D01*
X694993Y813443D01*
X694903Y813429D01*
X694812Y813421D01*
X694783Y813409D01*
X694751Y813404D01*
X694670Y813361D01*
X694586Y813325D01*
X694554Y813299D01*
X694533Y813288D01*
X694511Y813265D01*
X694455Y813220D01*
X471248Y590013D01*
X471195Y589939D01*
X471135Y589870D01*
X471123Y589839D01*
X471104Y589813D01*
X471077Y589726D01*
X471043Y589641D01*
X471039Y589600D01*
X471032Y589578D01*
X471033Y589546D01*
X471025Y589475D01*
X471025Y577847D01*
X471036Y577777D01*
X471038Y577705D01*
X471056Y577656D01*
X471064Y577605D01*
X471098Y577541D01*
X471123Y577474D01*
X471155Y577433D01*
X471180Y577387D01*
X471232Y577338D01*
X471276Y577282D01*
X471320Y577254D01*
X471358Y577218D01*
X471423Y577188D01*
X471483Y577149D01*
X471534Y577136D01*
X471581Y577114D01*
X471652Y577106D01*
X471722Y577089D01*
X471774Y577093D01*
X471825Y577087D01*
X471896Y577102D01*
G37*
%LPC*%
G36*
X907489Y700589D02*
X907489Y700589D01*
X900705Y702407D01*
X894624Y705918D01*
X889658Y710884D01*
X886147Y716965D01*
X884329Y723749D01*
X884329Y730771D01*
X886147Y737555D01*
X889658Y743636D01*
X894624Y748602D01*
X900705Y752113D01*
X907489Y753931D01*
X914511Y753931D01*
X921295Y752113D01*
X927376Y748602D01*
X932342Y743636D01*
X935853Y737555D01*
X937671Y730771D01*
X937671Y723749D01*
X935853Y716965D01*
X932342Y710884D01*
X927376Y705918D01*
X921295Y702407D01*
X914511Y700589D01*
X907489Y700589D01*
G37*
%LPD*%
%LPC*%
G36*
X282909Y915080D02*
X282909Y915080D01*
X274386Y919324D01*
X267971Y926360D01*
X264532Y935239D01*
X264532Y944761D01*
X267971Y953640D01*
X274386Y960676D01*
X282909Y964920D01*
X292391Y965799D01*
X301549Y963193D01*
X309147Y957455D01*
X314160Y949360D01*
X315910Y940000D01*
X314160Y930640D01*
X309147Y922545D01*
X301549Y916807D01*
X292391Y914201D01*
X282909Y915080D01*
G37*
%LPD*%
%LPC*%
G36*
X1004909Y914080D02*
X1004909Y914080D01*
X996386Y918324D01*
X989971Y925360D01*
X986532Y934239D01*
X986532Y943761D01*
X989971Y952640D01*
X996386Y959676D01*
X1004909Y963920D01*
X1014391Y964799D01*
X1023549Y962193D01*
X1031147Y956455D01*
X1036160Y948360D01*
X1037910Y939000D01*
X1036160Y929640D01*
X1031147Y921545D01*
X1023549Y915807D01*
X1014391Y913201D01*
X1004909Y914080D01*
G37*
%LPD*%
%LPC*%
G36*
X282909Y325080D02*
X282909Y325080D01*
X274386Y329324D01*
X267971Y336360D01*
X264532Y345239D01*
X264532Y354761D01*
X267971Y363640D01*
X274386Y370676D01*
X282909Y374920D01*
X292391Y375799D01*
X301549Y373193D01*
X309147Y367455D01*
X314160Y359360D01*
X315910Y350000D01*
X314160Y340640D01*
X309147Y332545D01*
X301549Y326807D01*
X292391Y324201D01*
X282909Y325080D01*
G37*
%LPD*%
%LPC*%
G36*
X1004909Y324080D02*
X1004909Y324080D01*
X996386Y328324D01*
X989971Y335360D01*
X986532Y344239D01*
X986532Y353761D01*
X989971Y362640D01*
X996386Y369676D01*
X1004909Y373920D01*
X1014391Y374799D01*
X1023549Y372193D01*
X1031147Y366455D01*
X1036160Y358360D01*
X1037910Y349000D01*
X1036160Y339640D01*
X1031147Y331545D01*
X1023549Y325807D01*
X1014391Y323201D01*
X1004909Y324080D01*
G37*
%LPD*%
%LPC*%
G36*
X435188Y575239D02*
X435188Y575239D01*
X428788Y576954D01*
X423051Y580266D01*
X418366Y584951D01*
X415054Y590688D01*
X413339Y597088D01*
X413339Y603712D01*
X415054Y610112D01*
X418366Y615849D01*
X423051Y620534D01*
X428788Y623846D01*
X435188Y625561D01*
X441812Y625561D01*
X448212Y623846D01*
X453949Y620534D01*
X458634Y615849D01*
X461946Y610112D01*
X463661Y603712D01*
X463661Y597088D01*
X462679Y593422D01*
X462674Y593374D01*
X462660Y593329D01*
X462662Y593253D01*
X462654Y593177D01*
X462665Y593131D01*
X462666Y593083D01*
X462686Y593027D01*
X462628Y592950D01*
X462563Y592874D01*
X462554Y592852D01*
X462540Y592832D01*
X462479Y592676D01*
X461946Y590688D01*
X458634Y584951D01*
X453949Y580266D01*
X448212Y576954D01*
X441812Y575239D01*
X435188Y575239D01*
G37*
%LPD*%
%LPC*%
G36*
X732068Y653339D02*
X732068Y653339D01*
X725668Y655054D01*
X719931Y658366D01*
X715246Y663051D01*
X711934Y668788D01*
X710219Y675188D01*
X710219Y681812D01*
X711934Y688212D01*
X715246Y693949D01*
X719931Y698634D01*
X725668Y701946D01*
X732068Y703661D01*
X738692Y703661D01*
X745092Y701946D01*
X750829Y698634D01*
X755514Y693949D01*
X758826Y688212D01*
X760541Y681812D01*
X760541Y675188D01*
X758826Y668788D01*
X755514Y663051D01*
X750829Y658366D01*
X745092Y655054D01*
X738692Y653339D01*
X732068Y653339D01*
G37*
%LPD*%
%LPC*%
G36*
X732368Y422839D02*
X732368Y422839D01*
X725968Y424554D01*
X720231Y427866D01*
X715546Y432551D01*
X712234Y438288D01*
X710519Y444688D01*
X710519Y451312D01*
X712234Y457712D01*
X715546Y463449D01*
X720231Y468134D01*
X725968Y471446D01*
X732368Y473161D01*
X738992Y473161D01*
X745392Y471446D01*
X751129Y468134D01*
X755814Y463449D01*
X759126Y457712D01*
X760841Y451312D01*
X760841Y444688D01*
X759126Y438288D01*
X755814Y432551D01*
X751129Y427866D01*
X745392Y424554D01*
X738992Y422839D01*
X732368Y422839D01*
G37*
%LPD*%
%LPC*%
G36*
X773679Y842583D02*
X773679Y842583D01*
X773679Y853087D01*
X773668Y853157D01*
X773666Y853229D01*
X773648Y853278D01*
X773640Y853329D01*
X773606Y853393D01*
X773581Y853460D01*
X773549Y853501D01*
X773524Y853547D01*
X773472Y853596D01*
X773428Y853652D01*
X773384Y853680D01*
X773346Y853716D01*
X773281Y853746D01*
X773221Y853785D01*
X773170Y853798D01*
X773123Y853820D01*
X773052Y853828D01*
X772982Y853845D01*
X772930Y853841D01*
X772879Y853847D01*
X772808Y853832D01*
X772737Y853826D01*
X772689Y853806D01*
X772638Y853795D01*
X772577Y853758D01*
X772511Y853730D01*
X772455Y853685D01*
X772427Y853668D01*
X772412Y853651D01*
X772380Y853625D01*
X770948Y852193D01*
X766552Y852193D01*
X763443Y855302D01*
X763443Y859698D01*
X766552Y862807D01*
X768757Y862807D01*
X768847Y862821D01*
X768938Y862829D01*
X768967Y862841D01*
X768999Y862846D01*
X769080Y862889D01*
X769164Y862925D01*
X769196Y862951D01*
X769217Y862962D01*
X769239Y862985D01*
X769295Y863030D01*
X804659Y898394D01*
X804701Y898452D01*
X804750Y898504D01*
X804772Y898551D01*
X804803Y898593D01*
X804824Y898662D01*
X804854Y898727D01*
X804860Y898779D01*
X804875Y898829D01*
X804873Y898900D01*
X804881Y898971D01*
X804870Y899022D01*
X804869Y899074D01*
X804844Y899142D01*
X804829Y899212D01*
X804802Y899257D01*
X804784Y899305D01*
X804739Y899361D01*
X804703Y899423D01*
X804663Y899457D01*
X804630Y899497D01*
X804570Y899536D01*
X804516Y899583D01*
X804467Y899602D01*
X804423Y899630D01*
X804354Y899648D01*
X804287Y899675D01*
X804216Y899683D01*
X804185Y899691D01*
X804162Y899689D01*
X804121Y899693D01*
X802802Y899693D01*
X799693Y902802D01*
X799693Y907198D01*
X802802Y910307D01*
X805007Y910307D01*
X805097Y910321D01*
X805188Y910329D01*
X805217Y910341D01*
X805249Y910346D01*
X805330Y910389D01*
X805414Y910425D01*
X805446Y910451D01*
X805467Y910462D01*
X805489Y910485D01*
X805545Y910530D01*
X818743Y923727D01*
X818810Y923821D01*
X818881Y923916D01*
X818883Y923922D01*
X818886Y923927D01*
X818920Y924038D01*
X818957Y924150D01*
X818957Y924156D01*
X818959Y924162D01*
X818955Y924279D01*
X818954Y924396D01*
X818952Y924403D01*
X818952Y924408D01*
X818946Y924426D01*
X818908Y924557D01*
X817677Y927527D01*
X817677Y931873D01*
X819340Y935887D01*
X822413Y938960D01*
X826427Y940623D01*
X830773Y940623D01*
X834787Y938960D01*
X837860Y935887D01*
X839523Y931873D01*
X839523Y927527D01*
X837860Y923513D01*
X834787Y920440D01*
X830773Y918777D01*
X826427Y918777D01*
X825013Y919363D01*
X824899Y919390D01*
X824785Y919419D01*
X824779Y919418D01*
X824773Y919419D01*
X824657Y919408D01*
X824540Y919399D01*
X824535Y919397D01*
X824528Y919396D01*
X824421Y919349D01*
X824314Y919303D01*
X824308Y919298D01*
X824304Y919296D01*
X824290Y919284D01*
X824183Y919198D01*
X822309Y917324D01*
X822267Y917266D01*
X822218Y917214D01*
X822196Y917167D01*
X822165Y917125D01*
X822144Y917056D01*
X822114Y916991D01*
X822108Y916939D01*
X822093Y916889D01*
X822095Y916818D01*
X822087Y916747D01*
X822098Y916696D01*
X822099Y916644D01*
X822124Y916576D01*
X822139Y916506D01*
X822166Y916462D01*
X822184Y916413D01*
X822229Y916357D01*
X822265Y916295D01*
X822305Y916261D01*
X822338Y916221D01*
X822398Y916182D01*
X822452Y916135D01*
X822501Y916116D01*
X822545Y916088D01*
X822614Y916070D01*
X822681Y916043D01*
X822752Y916035D01*
X822783Y916027D01*
X822806Y916029D01*
X822847Y916025D01*
X836975Y916025D01*
X837065Y916039D01*
X837156Y916047D01*
X837185Y916059D01*
X837217Y916064D01*
X837298Y916107D01*
X837382Y916143D01*
X837414Y916169D01*
X837435Y916180D01*
X837457Y916203D01*
X837513Y916248D01*
X844392Y923126D01*
X844459Y923220D01*
X844530Y923315D01*
X844531Y923321D01*
X844535Y923326D01*
X844569Y923437D01*
X844606Y923549D01*
X844606Y923555D01*
X844607Y923561D01*
X844604Y923678D01*
X844603Y923795D01*
X844601Y923802D01*
X844601Y923807D01*
X844595Y923825D01*
X844557Y923956D01*
X843077Y927527D01*
X843077Y931873D01*
X844740Y935887D01*
X847813Y938960D01*
X851827Y940623D01*
X856173Y940623D01*
X860187Y938960D01*
X863260Y935887D01*
X864923Y931873D01*
X864923Y927527D01*
X863260Y923513D01*
X860187Y920440D01*
X856173Y918777D01*
X851827Y918777D01*
X851014Y919114D01*
X850900Y919141D01*
X850787Y919170D01*
X850780Y919169D01*
X850774Y919170D01*
X850658Y919159D01*
X850541Y919150D01*
X850536Y919148D01*
X850529Y919147D01*
X850422Y919100D01*
X850315Y919054D01*
X850309Y919049D01*
X850305Y919047D01*
X850291Y919035D01*
X850184Y918949D01*
X840210Y908975D01*
X825525Y908975D01*
X825435Y908961D01*
X825344Y908953D01*
X825315Y908941D01*
X825283Y908936D01*
X825202Y908893D01*
X825118Y908857D01*
X825086Y908831D01*
X825065Y908820D01*
X825043Y908797D01*
X824987Y908752D01*
X774280Y858045D01*
X774227Y857971D01*
X774167Y857902D01*
X774155Y857871D01*
X774136Y857845D01*
X774109Y857758D01*
X774075Y857673D01*
X774071Y857632D01*
X774064Y857610D01*
X774065Y857578D01*
X774057Y857507D01*
X774057Y856563D01*
X774060Y856544D01*
X774058Y856525D01*
X774074Y856452D01*
X774081Y856374D01*
X774092Y856348D01*
X774096Y856321D01*
X774106Y856302D01*
X774110Y856285D01*
X774147Y856223D01*
X774179Y856149D01*
X774198Y856128D01*
X774212Y856103D01*
X774228Y856088D01*
X774236Y856074D01*
X774289Y856028D01*
X774345Y855967D01*
X774370Y855953D01*
X774390Y855934D01*
X774411Y855924D01*
X774423Y855914D01*
X774486Y855888D01*
X774560Y855847D01*
X774587Y855842D01*
X774613Y855830D01*
X774637Y855828D01*
X774651Y855822D01*
X774764Y855809D01*
X774802Y855802D01*
X774813Y855804D01*
X774818Y855803D01*
X774820Y855803D01*
X774835Y855806D01*
X774857Y855803D01*
X774951Y855823D01*
X775045Y855837D01*
X775057Y855842D01*
X775063Y855843D01*
X775078Y855851D01*
X775098Y855855D01*
X775126Y855872D01*
X775199Y855904D01*
X775239Y855928D01*
X775886Y856101D01*
X787197Y856101D01*
X787197Y842583D01*
X773679Y842583D01*
G37*
%LPD*%
G36*
X352481Y680286D02*
X352481Y680286D01*
X352553Y680288D01*
X352602Y680306D01*
X352653Y680314D01*
X352716Y680348D01*
X352784Y680373D01*
X352824Y680405D01*
X352870Y680430D01*
X352920Y680482D01*
X352976Y680526D01*
X353004Y680570D01*
X353040Y680608D01*
X353070Y680673D01*
X353109Y680733D01*
X353121Y680784D01*
X353143Y680831D01*
X353151Y680902D01*
X353169Y680972D01*
X353165Y681024D01*
X353170Y681075D01*
X353155Y681146D01*
X353150Y681217D01*
X353129Y681265D01*
X353118Y681316D01*
X353081Y681377D01*
X353053Y681443D01*
X353008Y681499D01*
X352992Y681527D01*
X352974Y681542D01*
X352948Y681574D01*
X348219Y686304D01*
X347225Y688702D01*
X347225Y720048D01*
X348219Y722446D01*
X360752Y734980D01*
X360805Y735054D01*
X360840Y735093D01*
X360844Y735098D01*
X360844Y735099D01*
X360865Y735123D01*
X360877Y735153D01*
X360896Y735179D01*
X360923Y735266D01*
X360927Y735278D01*
X360947Y735321D01*
X360948Y735330D01*
X360957Y735351D01*
X360961Y735392D01*
X360968Y735414D01*
X360967Y735447D01*
X360975Y735518D01*
X360975Y757903D01*
X360964Y757973D01*
X360962Y758045D01*
X360944Y758094D01*
X360936Y758145D01*
X360902Y758209D01*
X360877Y758276D01*
X360845Y758317D01*
X360820Y758363D01*
X360768Y758412D01*
X360724Y758468D01*
X360680Y758496D01*
X360642Y758532D01*
X360577Y758562D01*
X360517Y758601D01*
X360466Y758614D01*
X360419Y758636D01*
X360348Y758644D01*
X360278Y758661D01*
X360226Y758657D01*
X360175Y758663D01*
X360104Y758648D01*
X360033Y758642D01*
X359985Y758622D01*
X359934Y758611D01*
X359873Y758574D01*
X359807Y758546D01*
X359751Y758501D01*
X359723Y758485D01*
X359708Y758467D01*
X359676Y758441D01*
X357487Y756252D01*
X313033Y711798D01*
X313021Y711782D01*
X313006Y711770D01*
X312950Y711682D01*
X312890Y711599D01*
X312884Y711580D01*
X312873Y711563D01*
X312848Y711462D01*
X312817Y711364D01*
X312818Y711344D01*
X312813Y711324D01*
X312821Y711221D01*
X312824Y711118D01*
X312830Y711099D01*
X312832Y711079D01*
X312872Y710984D01*
X312908Y710887D01*
X312921Y710871D01*
X312928Y710853D01*
X313033Y710722D01*
X314057Y709698D01*
X314057Y705302D01*
X310948Y702193D01*
X310122Y702193D01*
X310051Y702182D01*
X309979Y702180D01*
X309930Y702162D01*
X309879Y702154D01*
X309816Y702120D01*
X309748Y702095D01*
X309708Y702063D01*
X309662Y702038D01*
X309612Y701987D01*
X309556Y701942D01*
X309528Y701898D01*
X309492Y701860D01*
X309462Y701795D01*
X309423Y701735D01*
X309411Y701684D01*
X309389Y701637D01*
X309381Y701566D01*
X309363Y701496D01*
X309367Y701444D01*
X309362Y701393D01*
X309377Y701322D01*
X309382Y701251D01*
X309403Y701203D01*
X309414Y701152D01*
X309451Y701091D01*
X309479Y701025D01*
X309524Y700969D01*
X309540Y700941D01*
X309558Y700926D01*
X309584Y700894D01*
X329980Y680498D01*
X330054Y680445D01*
X330123Y680385D01*
X330153Y680373D01*
X330179Y680354D01*
X330266Y680327D01*
X330351Y680293D01*
X330392Y680289D01*
X330414Y680282D01*
X330447Y680283D01*
X330518Y680275D01*
X352410Y680275D01*
X352481Y680286D01*
G37*
%LPC*%
G36*
X800302Y859693D02*
X800302Y859693D01*
X797193Y862802D01*
X797193Y867198D01*
X800302Y870307D01*
X804698Y870307D01*
X806257Y868748D01*
X806331Y868695D01*
X806401Y868635D01*
X806431Y868623D01*
X806457Y868604D01*
X806544Y868577D01*
X806629Y868543D01*
X806670Y868539D01*
X806692Y868532D01*
X806724Y868533D01*
X806795Y868525D01*
X811975Y868525D01*
X812065Y868539D01*
X812156Y868547D01*
X812185Y868559D01*
X812217Y868564D01*
X812298Y868607D01*
X812382Y868643D01*
X812414Y868669D01*
X812435Y868680D01*
X812457Y868703D01*
X812513Y868748D01*
X868942Y925177D01*
X869010Y925272D01*
X869080Y925366D01*
X869082Y925372D01*
X869086Y925377D01*
X869120Y925488D01*
X869156Y925599D01*
X869156Y925606D01*
X869158Y925612D01*
X869155Y925728D01*
X869154Y925845D01*
X869152Y925853D01*
X869152Y925858D01*
X869145Y925875D01*
X869107Y926007D01*
X868477Y927527D01*
X868477Y931873D01*
X870140Y935887D01*
X873213Y938960D01*
X877227Y940623D01*
X881573Y940623D01*
X885587Y938960D01*
X888660Y935887D01*
X890323Y931873D01*
X890323Y927527D01*
X888660Y923513D01*
X885587Y920440D01*
X881573Y918777D01*
X877227Y918777D01*
X874363Y919964D01*
X874249Y919990D01*
X874136Y920019D01*
X874130Y920018D01*
X874124Y920020D01*
X874007Y920009D01*
X873891Y920000D01*
X873885Y919997D01*
X873879Y919997D01*
X873771Y919949D01*
X873664Y919904D01*
X873659Y919899D01*
X873654Y919897D01*
X873640Y919884D01*
X873533Y919799D01*
X815210Y861475D01*
X806795Y861475D01*
X806705Y861461D01*
X806614Y861453D01*
X806585Y861441D01*
X806553Y861436D01*
X806472Y861393D01*
X806388Y861357D01*
X806356Y861331D01*
X806335Y861320D01*
X806313Y861297D01*
X806257Y861252D01*
X804698Y859693D01*
X800302Y859693D01*
G37*
%LPD*%
%LPC*%
G36*
X747802Y844693D02*
X747802Y844693D01*
X744693Y847802D01*
X744693Y852198D01*
X746252Y853757D01*
X746296Y853819D01*
X746329Y853853D01*
X746335Y853865D01*
X746365Y853901D01*
X746377Y853931D01*
X746396Y853957D01*
X746423Y854044D01*
X746457Y854129D01*
X746461Y854170D01*
X746468Y854192D01*
X746467Y854224D01*
X746475Y854295D01*
X746475Y875210D01*
X793826Y922561D01*
X793893Y922655D01*
X793964Y922749D01*
X793966Y922755D01*
X793969Y922760D01*
X794004Y922871D01*
X794040Y922983D01*
X794040Y922989D01*
X794042Y922995D01*
X794039Y923112D01*
X794038Y923229D01*
X794036Y923236D01*
X794035Y923241D01*
X794029Y923259D01*
X793991Y923390D01*
X792277Y927527D01*
X792277Y931873D01*
X793940Y935887D01*
X797013Y938960D01*
X801027Y940623D01*
X805373Y940623D01*
X809387Y938960D01*
X812460Y935887D01*
X814123Y931873D01*
X814123Y927527D01*
X812460Y923513D01*
X809387Y920440D01*
X805373Y918777D01*
X801027Y918777D01*
X800779Y918880D01*
X800666Y918907D01*
X800552Y918935D01*
X800546Y918935D01*
X800540Y918936D01*
X800423Y918925D01*
X800307Y918916D01*
X800301Y918914D01*
X800295Y918913D01*
X800187Y918865D01*
X800081Y918820D01*
X800075Y918815D01*
X800070Y918813D01*
X800056Y918800D01*
X799950Y918715D01*
X753748Y872513D01*
X753695Y872439D01*
X753635Y872370D01*
X753623Y872339D01*
X753604Y872313D01*
X753577Y872226D01*
X753543Y872141D01*
X753539Y872100D01*
X753532Y872078D01*
X753533Y872046D01*
X753525Y871975D01*
X753525Y854295D01*
X753539Y854205D01*
X753547Y854114D01*
X753559Y854085D01*
X753564Y854053D01*
X753607Y853972D01*
X753643Y853888D01*
X753669Y853856D01*
X753680Y853835D01*
X753703Y853813D01*
X753711Y853803D01*
X753719Y853790D01*
X753727Y853783D01*
X753748Y853757D01*
X755307Y852198D01*
X755307Y847802D01*
X752198Y844693D01*
X747802Y844693D01*
G37*
%LPD*%
%LPC*%
G36*
X724052Y844693D02*
X724052Y844693D01*
X720943Y847802D01*
X720943Y852198D01*
X722502Y853757D01*
X722546Y853819D01*
X722579Y853853D01*
X722585Y853865D01*
X722615Y853901D01*
X722627Y853931D01*
X722646Y853957D01*
X722673Y854044D01*
X722707Y854129D01*
X722711Y854170D01*
X722718Y854192D01*
X722717Y854224D01*
X722725Y854295D01*
X722725Y877710D01*
X768177Y923162D01*
X768245Y923256D01*
X768315Y923350D01*
X768317Y923356D01*
X768320Y923361D01*
X768355Y923472D01*
X768391Y923584D01*
X768391Y923591D01*
X768393Y923596D01*
X768390Y923713D01*
X768389Y923830D01*
X768387Y923837D01*
X768386Y923842D01*
X768380Y923860D01*
X768342Y923991D01*
X766877Y927527D01*
X766877Y931873D01*
X768540Y935887D01*
X771613Y938960D01*
X775627Y940623D01*
X779973Y940623D01*
X783987Y938960D01*
X787060Y935887D01*
X788723Y931873D01*
X788723Y927527D01*
X787060Y923513D01*
X783987Y920440D01*
X779973Y918777D01*
X775627Y918777D01*
X774778Y919129D01*
X774664Y919156D01*
X774551Y919184D01*
X774545Y919184D01*
X774539Y919185D01*
X774422Y919174D01*
X774306Y919165D01*
X774300Y919163D01*
X774294Y919162D01*
X774186Y919114D01*
X774080Y919069D01*
X774074Y919064D01*
X774069Y919062D01*
X774055Y919049D01*
X773949Y918964D01*
X729998Y875013D01*
X729945Y874939D01*
X729885Y874870D01*
X729873Y874839D01*
X729854Y874813D01*
X729827Y874726D01*
X729793Y874641D01*
X729789Y874600D01*
X729782Y874578D01*
X729783Y874546D01*
X729775Y874475D01*
X729775Y854295D01*
X729789Y854205D01*
X729797Y854114D01*
X729809Y854085D01*
X729814Y854053D01*
X729857Y853972D01*
X729893Y853888D01*
X729919Y853856D01*
X729930Y853835D01*
X729953Y853813D01*
X729961Y853803D01*
X729969Y853790D01*
X729977Y853783D01*
X729998Y853757D01*
X731557Y852198D01*
X731557Y847802D01*
X728448Y844693D01*
X724052Y844693D01*
G37*
%LPD*%
%LPC*%
G36*
X839603Y426078D02*
X839603Y426078D01*
X833861Y428457D01*
X829467Y432851D01*
X827088Y438593D01*
X827088Y444807D01*
X829467Y450549D01*
X833861Y454943D01*
X839603Y457322D01*
X845817Y457322D01*
X851559Y454943D01*
X855953Y450549D01*
X858332Y444807D01*
X858332Y438593D01*
X855953Y432851D01*
X851559Y428457D01*
X845817Y426078D01*
X839603Y426078D01*
G37*
%LPD*%
%LPC*%
G36*
X886593Y426078D02*
X886593Y426078D01*
X880851Y428457D01*
X876457Y432851D01*
X874078Y438593D01*
X874078Y444807D01*
X876457Y450549D01*
X880851Y454943D01*
X886593Y457322D01*
X892807Y457322D01*
X898549Y454943D01*
X902943Y450549D01*
X905322Y444807D01*
X905322Y438593D01*
X902943Y432851D01*
X898549Y428457D01*
X892807Y426078D01*
X886593Y426078D01*
G37*
%LPD*%
%LPC*%
G36*
X266596Y609435D02*
X266596Y609435D01*
X263448Y610739D01*
X261039Y613148D01*
X259735Y616296D01*
X259735Y619704D01*
X261039Y622852D01*
X263448Y625261D01*
X266596Y626565D01*
X270004Y626565D01*
X270648Y626298D01*
X270762Y626271D01*
X270875Y626242D01*
X270882Y626243D01*
X270888Y626242D01*
X271004Y626253D01*
X271121Y626262D01*
X271126Y626264D01*
X271133Y626265D01*
X271240Y626312D01*
X271347Y626358D01*
X271353Y626363D01*
X271357Y626365D01*
X271371Y626377D01*
X271478Y626463D01*
X283752Y638737D01*
X283805Y638811D01*
X283865Y638880D01*
X283877Y638911D01*
X283896Y638937D01*
X283923Y639024D01*
X283957Y639109D01*
X283961Y639150D01*
X283968Y639172D01*
X283967Y639204D01*
X283975Y639275D01*
X283975Y681955D01*
X283961Y682045D01*
X283953Y682136D01*
X283941Y682165D01*
X283936Y682197D01*
X283893Y682278D01*
X283857Y682362D01*
X283831Y682394D01*
X283820Y682415D01*
X283797Y682437D01*
X283752Y682493D01*
X282193Y684052D01*
X282193Y688448D01*
X285302Y691557D01*
X289698Y691557D01*
X292807Y688448D01*
X292807Y684052D01*
X291248Y682493D01*
X291195Y682419D01*
X291135Y682349D01*
X291123Y682319D01*
X291104Y682293D01*
X291077Y682206D01*
X291043Y682121D01*
X291039Y682080D01*
X291032Y682058D01*
X291033Y682026D01*
X291025Y681955D01*
X291025Y636040D01*
X288737Y633752D01*
X276587Y621602D01*
X276519Y621507D01*
X276449Y621414D01*
X276447Y621408D01*
X276443Y621402D01*
X276409Y621291D01*
X276373Y621180D01*
X276373Y621173D01*
X276371Y621167D01*
X276374Y621051D01*
X276375Y620934D01*
X276377Y620927D01*
X276377Y620922D01*
X276384Y620904D01*
X276422Y620773D01*
X276865Y619704D01*
X276865Y616296D01*
X275561Y613148D01*
X273152Y610739D01*
X270004Y609435D01*
X266596Y609435D01*
G37*
%LPD*%
%LPC*%
G36*
X300302Y794693D02*
X300302Y794693D01*
X297193Y797802D01*
X297193Y800007D01*
X297179Y800097D01*
X297171Y800188D01*
X297159Y800217D01*
X297154Y800249D01*
X297111Y800330D01*
X297075Y800414D01*
X297049Y800446D01*
X297038Y800467D01*
X297015Y800489D01*
X296970Y800545D01*
X271373Y826142D01*
X271279Y826210D01*
X271184Y826280D01*
X271178Y826282D01*
X271173Y826286D01*
X271062Y826320D01*
X270950Y826356D01*
X270944Y826356D01*
X270938Y826358D01*
X270821Y826355D01*
X270704Y826354D01*
X270697Y826352D01*
X270692Y826352D01*
X270675Y826345D01*
X270543Y826307D01*
X269404Y825835D01*
X265996Y825835D01*
X262848Y827139D01*
X260439Y829548D01*
X259135Y832696D01*
X259135Y836104D01*
X260439Y839252D01*
X262848Y841661D01*
X265996Y842965D01*
X269404Y842965D01*
X272552Y841661D01*
X274961Y839252D01*
X276265Y836104D01*
X276265Y832696D01*
X276027Y832122D01*
X276000Y832009D01*
X275972Y831895D01*
X275972Y831889D01*
X275971Y831883D01*
X275982Y831766D01*
X275991Y831650D01*
X275993Y831644D01*
X275994Y831638D01*
X276042Y831530D01*
X276087Y831424D01*
X276092Y831418D01*
X276094Y831413D01*
X276107Y831399D01*
X276192Y831293D01*
X301955Y805530D01*
X302029Y805477D01*
X302098Y805417D01*
X302129Y805405D01*
X302155Y805386D01*
X302242Y805359D01*
X302327Y805325D01*
X302368Y805321D01*
X302390Y805314D01*
X302422Y805315D01*
X302493Y805307D01*
X304698Y805307D01*
X307807Y802198D01*
X307807Y797802D01*
X304698Y794693D01*
X300302Y794693D01*
G37*
%LPD*%
%LPC*%
G36*
X301797Y441295D02*
X301797Y441295D01*
X298465Y442675D01*
X295915Y445225D01*
X294535Y448557D01*
X294535Y467243D01*
X295915Y470575D01*
X298465Y473125D01*
X301797Y474505D01*
X305403Y474505D01*
X308735Y473125D01*
X311285Y470575D01*
X312665Y467243D01*
X312665Y448557D01*
X311285Y445225D01*
X308735Y442675D01*
X305403Y441295D01*
X301797Y441295D01*
G37*
%LPD*%
%LPC*%
G36*
X699427Y918777D02*
X699427Y918777D01*
X695413Y920440D01*
X692340Y923513D01*
X690677Y927527D01*
X690677Y931873D01*
X692340Y935887D01*
X695413Y938960D01*
X699427Y940623D01*
X703773Y940623D01*
X707787Y938960D01*
X710860Y935887D01*
X712523Y931873D01*
X712523Y927527D01*
X710860Y923513D01*
X707787Y920440D01*
X703773Y918777D01*
X699427Y918777D01*
G37*
%LPD*%
%LPC*%
G36*
X496227Y918777D02*
X496227Y918777D01*
X492213Y920440D01*
X489140Y923513D01*
X487477Y927527D01*
X487477Y931873D01*
X489140Y935887D01*
X492213Y938960D01*
X496227Y940623D01*
X500573Y940623D01*
X504587Y938960D01*
X507660Y935887D01*
X509323Y931873D01*
X509323Y927527D01*
X507660Y923513D01*
X504587Y920440D01*
X500573Y918777D01*
X496227Y918777D01*
G37*
%LPD*%
%LPC*%
G36*
X877227Y944177D02*
X877227Y944177D01*
X873213Y945840D01*
X870140Y948913D01*
X868477Y952927D01*
X868477Y957273D01*
X870140Y961287D01*
X873213Y964360D01*
X877227Y966023D01*
X881573Y966023D01*
X885587Y964360D01*
X888660Y961287D01*
X890323Y957273D01*
X890323Y952927D01*
X888660Y948913D01*
X885587Y945840D01*
X881573Y944177D01*
X877227Y944177D01*
G37*
%LPD*%
%LPC*%
G36*
X851827Y944177D02*
X851827Y944177D01*
X847813Y945840D01*
X844740Y948913D01*
X843077Y952927D01*
X843077Y957273D01*
X844740Y961287D01*
X847813Y964360D01*
X851827Y966023D01*
X856173Y966023D01*
X860187Y964360D01*
X863260Y961287D01*
X864923Y957273D01*
X864923Y952927D01*
X863260Y948913D01*
X860187Y945840D01*
X856173Y944177D01*
X851827Y944177D01*
G37*
%LPD*%
%LPC*%
G36*
X801027Y944177D02*
X801027Y944177D01*
X797013Y945840D01*
X793940Y948913D01*
X792277Y952927D01*
X792277Y957273D01*
X793940Y961287D01*
X797013Y964360D01*
X801027Y966023D01*
X805373Y966023D01*
X809387Y964360D01*
X812460Y961287D01*
X814123Y957273D01*
X814123Y952927D01*
X812460Y948913D01*
X809387Y945840D01*
X805373Y944177D01*
X801027Y944177D01*
G37*
%LPD*%
%LPC*%
G36*
X750227Y918777D02*
X750227Y918777D01*
X746213Y920440D01*
X743140Y923513D01*
X741477Y927527D01*
X741477Y931873D01*
X743140Y935887D01*
X746213Y938960D01*
X750227Y940623D01*
X754573Y940623D01*
X758587Y938960D01*
X761660Y935887D01*
X763323Y931873D01*
X763323Y927527D01*
X761660Y923513D01*
X758587Y920440D01*
X754573Y918777D01*
X750227Y918777D01*
G37*
%LPD*%
%LPC*%
G36*
X902627Y944177D02*
X902627Y944177D01*
X898613Y945840D01*
X895540Y948913D01*
X893877Y952927D01*
X893877Y957273D01*
X895540Y961287D01*
X898613Y964360D01*
X902627Y966023D01*
X906973Y966023D01*
X910987Y964360D01*
X914060Y961287D01*
X915723Y957273D01*
X915723Y952927D01*
X914060Y948913D01*
X910987Y945840D01*
X906973Y944177D01*
X902627Y944177D01*
G37*
%LPD*%
%LPC*%
G36*
X445427Y944177D02*
X445427Y944177D01*
X441413Y945840D01*
X438340Y948913D01*
X436677Y952927D01*
X436677Y957273D01*
X438340Y961287D01*
X441413Y964360D01*
X445427Y966023D01*
X449773Y966023D01*
X453787Y964360D01*
X456860Y961287D01*
X458523Y957273D01*
X458523Y952927D01*
X456860Y948913D01*
X453787Y945840D01*
X449773Y944177D01*
X445427Y944177D01*
G37*
%LPD*%
%LPC*%
G36*
X699427Y944177D02*
X699427Y944177D01*
X695413Y945840D01*
X692340Y948913D01*
X690677Y952927D01*
X690677Y957273D01*
X692340Y961287D01*
X695413Y964360D01*
X699427Y966023D01*
X703773Y966023D01*
X707787Y964360D01*
X710860Y961287D01*
X712523Y957273D01*
X712523Y952927D01*
X710860Y948913D01*
X707787Y945840D01*
X703773Y944177D01*
X699427Y944177D01*
G37*
%LPD*%
%LPC*%
G36*
X648627Y918777D02*
X648627Y918777D01*
X644613Y920440D01*
X641540Y923513D01*
X639877Y927527D01*
X639877Y931873D01*
X641540Y935887D01*
X644613Y938960D01*
X648627Y940623D01*
X652973Y940623D01*
X656987Y938960D01*
X660060Y935887D01*
X661723Y931873D01*
X661723Y927527D01*
X660060Y923513D01*
X656987Y920440D01*
X652973Y918777D01*
X648627Y918777D01*
G37*
%LPD*%
%LPC*%
G36*
X674027Y918777D02*
X674027Y918777D01*
X670013Y920440D01*
X666940Y923513D01*
X665277Y927527D01*
X665277Y931873D01*
X666940Y935887D01*
X670013Y938960D01*
X674027Y940623D01*
X678373Y940623D01*
X682387Y938960D01*
X685460Y935887D01*
X687123Y931873D01*
X687123Y927527D01*
X685460Y923513D01*
X682387Y920440D01*
X678373Y918777D01*
X674027Y918777D01*
G37*
%LPD*%
%LPC*%
G36*
X724827Y944177D02*
X724827Y944177D01*
X720813Y945840D01*
X717740Y948913D01*
X716077Y952927D01*
X716077Y957273D01*
X717740Y961287D01*
X720813Y964360D01*
X724827Y966023D01*
X729173Y966023D01*
X733187Y964360D01*
X736260Y961287D01*
X737923Y957273D01*
X737923Y952927D01*
X736260Y948913D01*
X733187Y945840D01*
X729173Y944177D01*
X724827Y944177D01*
G37*
%LPD*%
%LPC*%
G36*
X750227Y944177D02*
X750227Y944177D01*
X746213Y945840D01*
X743140Y948913D01*
X741477Y952927D01*
X741477Y957273D01*
X743140Y961287D01*
X746213Y964360D01*
X750227Y966023D01*
X754573Y966023D01*
X758587Y964360D01*
X761660Y961287D01*
X763323Y957273D01*
X763323Y952927D01*
X761660Y948913D01*
X758587Y945840D01*
X754573Y944177D01*
X750227Y944177D01*
G37*
%LPD*%
%LPC*%
G36*
X597827Y944177D02*
X597827Y944177D01*
X593813Y945840D01*
X590740Y948913D01*
X589077Y952927D01*
X589077Y957273D01*
X590740Y961287D01*
X593813Y964360D01*
X597827Y966023D01*
X602173Y966023D01*
X606187Y964360D01*
X609260Y961287D01*
X610923Y957273D01*
X610923Y952927D01*
X609260Y948913D01*
X606187Y945840D01*
X602173Y944177D01*
X597827Y944177D01*
G37*
%LPD*%
%LPC*%
G36*
X572427Y918777D02*
X572427Y918777D01*
X568413Y920440D01*
X565340Y923513D01*
X563677Y927527D01*
X563677Y931873D01*
X565340Y935887D01*
X568413Y938960D01*
X572427Y940623D01*
X576773Y940623D01*
X580787Y938960D01*
X583860Y935887D01*
X585523Y931873D01*
X585523Y927527D01*
X583860Y923513D01*
X580787Y920440D01*
X576773Y918777D01*
X572427Y918777D01*
G37*
%LPD*%
%LPC*%
G36*
X597827Y918777D02*
X597827Y918777D01*
X593813Y920440D01*
X590740Y923513D01*
X589077Y927527D01*
X589077Y931873D01*
X590740Y935887D01*
X593813Y938960D01*
X597827Y940623D01*
X602173Y940623D01*
X606187Y938960D01*
X609260Y935887D01*
X610923Y931873D01*
X610923Y927527D01*
X609260Y923513D01*
X606187Y920440D01*
X602173Y918777D01*
X597827Y918777D01*
G37*
%LPD*%
%LPC*%
G36*
X547027Y918777D02*
X547027Y918777D01*
X543013Y920440D01*
X539940Y923513D01*
X538277Y927527D01*
X538277Y931873D01*
X539940Y935887D01*
X543013Y938960D01*
X547027Y940623D01*
X551373Y940623D01*
X555387Y938960D01*
X558460Y935887D01*
X560123Y931873D01*
X560123Y927527D01*
X558460Y923513D01*
X555387Y920440D01*
X551373Y918777D01*
X547027Y918777D01*
G37*
%LPD*%
%LPC*%
G36*
X470827Y918777D02*
X470827Y918777D01*
X466813Y920440D01*
X463740Y923513D01*
X462077Y927527D01*
X462077Y931873D01*
X463740Y935887D01*
X466813Y938960D01*
X470827Y940623D01*
X475173Y940623D01*
X479187Y938960D01*
X482260Y935887D01*
X483923Y931873D01*
X483923Y927527D01*
X482260Y923513D01*
X479187Y920440D01*
X475173Y918777D01*
X470827Y918777D01*
G37*
%LPD*%
%LPC*%
G36*
X305827Y860477D02*
X305827Y860477D01*
X301813Y862140D01*
X298740Y865213D01*
X297077Y869227D01*
X297077Y873573D01*
X298740Y877587D01*
X301813Y880660D01*
X305827Y882323D01*
X310173Y882323D01*
X314187Y880660D01*
X317260Y877587D01*
X318923Y873573D01*
X318923Y869227D01*
X317260Y865213D01*
X314187Y862140D01*
X310173Y860477D01*
X305827Y860477D01*
G37*
%LPD*%
%LPC*%
G36*
X760696Y332393D02*
X760696Y332393D01*
X754893Y338196D01*
X754893Y346404D01*
X760696Y352207D01*
X768904Y352207D01*
X774707Y346404D01*
X774707Y338196D01*
X768904Y332393D01*
X760696Y332393D01*
G37*
%LPD*%
%LPC*%
G36*
X642296Y332593D02*
X642296Y332593D01*
X636493Y338396D01*
X636493Y346604D01*
X642296Y352407D01*
X650504Y352407D01*
X656307Y346604D01*
X656307Y338396D01*
X650504Y332593D01*
X642296Y332593D01*
G37*
%LPD*%
%LPC*%
G36*
X524196Y332393D02*
X524196Y332393D01*
X518393Y338196D01*
X518393Y346404D01*
X524196Y352207D01*
X532404Y352207D01*
X538207Y346404D01*
X538207Y338196D01*
X532404Y332393D01*
X524196Y332393D01*
G37*
%LPD*%
%LPC*%
G36*
X401196Y332393D02*
X401196Y332393D01*
X395393Y338196D01*
X395393Y346404D01*
X401196Y352207D01*
X409404Y352207D01*
X415207Y346404D01*
X415207Y338196D01*
X409404Y332393D01*
X401196Y332393D01*
G37*
%LPD*%
%LPC*%
G36*
X1032582Y573663D02*
X1032582Y573663D01*
X1029408Y574978D01*
X1026978Y577408D01*
X1025663Y580582D01*
X1025663Y584018D01*
X1026978Y587192D01*
X1029408Y589622D01*
X1032582Y590937D01*
X1036018Y590937D01*
X1039192Y589622D01*
X1041622Y587192D01*
X1042937Y584018D01*
X1042937Y580582D01*
X1041622Y577408D01*
X1039192Y574978D01*
X1036018Y573663D01*
X1032582Y573663D01*
G37*
%LPD*%
%LPC*%
G36*
X266596Y689435D02*
X266596Y689435D01*
X263448Y690739D01*
X261039Y693148D01*
X259735Y696296D01*
X259735Y699704D01*
X261039Y702852D01*
X263448Y705261D01*
X266596Y706565D01*
X270004Y706565D01*
X273152Y705261D01*
X275561Y702852D01*
X276865Y699704D01*
X276865Y696296D01*
X275561Y693148D01*
X273152Y690739D01*
X270004Y689435D01*
X266596Y689435D01*
G37*
%LPD*%
%LPC*%
G36*
X266596Y669435D02*
X266596Y669435D01*
X263448Y670739D01*
X261039Y673148D01*
X259735Y676296D01*
X259735Y679704D01*
X261039Y682852D01*
X263448Y685261D01*
X266596Y686565D01*
X270004Y686565D01*
X273152Y685261D01*
X275561Y682852D01*
X276865Y679704D01*
X276865Y676296D01*
X275561Y673148D01*
X273152Y670739D01*
X270004Y669435D01*
X266596Y669435D01*
G37*
%LPD*%
%LPC*%
G36*
X265996Y845835D02*
X265996Y845835D01*
X262848Y847139D01*
X260439Y849548D01*
X259135Y852696D01*
X259135Y856104D01*
X260439Y859252D01*
X262848Y861661D01*
X265996Y862965D01*
X269404Y862965D01*
X272552Y861661D01*
X274961Y859252D01*
X276265Y856104D01*
X276265Y852696D01*
X274961Y849548D01*
X272552Y847139D01*
X269404Y845835D01*
X265996Y845835D01*
G37*
%LPD*%
%LPC*%
G36*
X246596Y669435D02*
X246596Y669435D01*
X243448Y670739D01*
X241039Y673148D01*
X239735Y676296D01*
X239735Y679704D01*
X241039Y682852D01*
X243448Y685261D01*
X246596Y686565D01*
X250004Y686565D01*
X253152Y685261D01*
X255561Y682852D01*
X256865Y679704D01*
X256865Y676296D01*
X255561Y673148D01*
X253152Y670739D01*
X250004Y669435D01*
X246596Y669435D01*
G37*
%LPD*%
%LPC*%
G36*
X265996Y765835D02*
X265996Y765835D01*
X262848Y767139D01*
X260439Y769548D01*
X259135Y772696D01*
X259135Y776104D01*
X260439Y779252D01*
X262848Y781661D01*
X265996Y782965D01*
X269404Y782965D01*
X272552Y781661D01*
X274961Y779252D01*
X276265Y776104D01*
X276265Y772696D01*
X274961Y769548D01*
X272552Y767139D01*
X269404Y765835D01*
X265996Y765835D01*
G37*
%LPD*%
%LPC*%
G36*
X266596Y649435D02*
X266596Y649435D01*
X263448Y650739D01*
X261039Y653148D01*
X259735Y656296D01*
X259735Y659704D01*
X261039Y662852D01*
X263448Y665261D01*
X266596Y666565D01*
X270004Y666565D01*
X273152Y665261D01*
X275561Y662852D01*
X276865Y659704D01*
X276865Y656296D01*
X275561Y653148D01*
X273152Y650739D01*
X270004Y649435D01*
X266596Y649435D01*
G37*
%LPD*%
%LPC*%
G36*
X246596Y609435D02*
X246596Y609435D01*
X243448Y610739D01*
X241039Y613148D01*
X239735Y616296D01*
X239735Y619704D01*
X241039Y622852D01*
X243448Y625261D01*
X246596Y626565D01*
X250004Y626565D01*
X253152Y625261D01*
X255561Y622852D01*
X256865Y619704D01*
X256865Y616296D01*
X255561Y613148D01*
X253152Y610739D01*
X250004Y609435D01*
X246596Y609435D01*
G37*
%LPD*%
%LPC*%
G36*
X265996Y805835D02*
X265996Y805835D01*
X262848Y807139D01*
X260439Y809548D01*
X259135Y812696D01*
X259135Y816104D01*
X260439Y819252D01*
X262848Y821661D01*
X265996Y822965D01*
X269404Y822965D01*
X272552Y821661D01*
X274961Y819252D01*
X276265Y816104D01*
X276265Y812696D01*
X274961Y809548D01*
X272552Y807139D01*
X269404Y805835D01*
X265996Y805835D01*
G37*
%LPD*%
%LPC*%
G36*
X245996Y785835D02*
X245996Y785835D01*
X242848Y787139D01*
X240439Y789548D01*
X239135Y792696D01*
X239135Y796104D01*
X240439Y799252D01*
X242848Y801661D01*
X245996Y802965D01*
X249404Y802965D01*
X252552Y801661D01*
X254961Y799252D01*
X256265Y796104D01*
X256265Y792696D01*
X254961Y789548D01*
X252552Y787139D01*
X249404Y785835D01*
X245996Y785835D01*
G37*
%LPD*%
%LPC*%
G36*
X265996Y785835D02*
X265996Y785835D01*
X262848Y787139D01*
X260439Y789548D01*
X259135Y792696D01*
X259135Y796104D01*
X260439Y799252D01*
X262848Y801661D01*
X265996Y802965D01*
X269404Y802965D01*
X272552Y801661D01*
X274961Y799252D01*
X276265Y796104D01*
X276265Y792696D01*
X274961Y789548D01*
X272552Y787139D01*
X269404Y785835D01*
X265996Y785835D01*
G37*
%LPD*%
%LPC*%
G36*
X266596Y629435D02*
X266596Y629435D01*
X263448Y630739D01*
X261039Y633148D01*
X259735Y636296D01*
X259735Y639704D01*
X261039Y642852D01*
X263448Y645261D01*
X266596Y646565D01*
X270004Y646565D01*
X273152Y645261D01*
X275561Y642852D01*
X276865Y639704D01*
X276865Y636296D01*
X275561Y633148D01*
X273152Y630739D01*
X270004Y629435D01*
X266596Y629435D01*
G37*
%LPD*%
%LPC*%
G36*
X246596Y649435D02*
X246596Y649435D01*
X243448Y650739D01*
X241039Y653148D01*
X239735Y656296D01*
X239735Y659704D01*
X241039Y662852D01*
X243448Y665261D01*
X246596Y666565D01*
X250004Y666565D01*
X253152Y665261D01*
X255561Y662852D01*
X256865Y659704D01*
X256865Y656296D01*
X255561Y653148D01*
X253152Y650739D01*
X250004Y649435D01*
X246596Y649435D01*
G37*
%LPD*%
%LPC*%
G36*
X245996Y805835D02*
X245996Y805835D01*
X242848Y807139D01*
X240439Y809548D01*
X239135Y812696D01*
X239135Y816104D01*
X240439Y819252D01*
X242848Y821661D01*
X245996Y822965D01*
X249404Y822965D01*
X252552Y821661D01*
X254961Y819252D01*
X256265Y816104D01*
X256265Y812696D01*
X254961Y809548D01*
X252552Y807139D01*
X249404Y805835D01*
X245996Y805835D01*
G37*
%LPD*%
%LPC*%
G36*
X469533Y309971D02*
X469533Y309971D01*
X464771Y314733D01*
X464771Y321467D01*
X469533Y326229D01*
X476267Y326229D01*
X481029Y321467D01*
X481029Y314733D01*
X476267Y309971D01*
X469533Y309971D01*
G37*
%LPD*%
%LPC*%
G36*
X593533Y309771D02*
X593533Y309771D01*
X588771Y314533D01*
X588771Y321267D01*
X593533Y326029D01*
X600267Y326029D01*
X605029Y321267D01*
X605029Y314533D01*
X600267Y309771D01*
X593533Y309771D01*
G37*
%LPD*%
%LPC*%
G36*
X350733Y360071D02*
X350733Y360071D01*
X345971Y364833D01*
X345971Y371567D01*
X350733Y376329D01*
X357467Y376329D01*
X362229Y371567D01*
X362229Y364833D01*
X357467Y360071D01*
X350733Y360071D01*
G37*
%LPD*%
%LPC*%
G36*
X714533Y360171D02*
X714533Y360171D01*
X709771Y364933D01*
X709771Y371667D01*
X714533Y376429D01*
X721267Y376429D01*
X726029Y371667D01*
X726029Y364933D01*
X721267Y360171D01*
X714533Y360171D01*
G37*
%LPD*%
%LPC*%
G36*
X593533Y360571D02*
X593533Y360571D01*
X588771Y365333D01*
X588771Y372067D01*
X593533Y376829D01*
X600267Y376829D01*
X605029Y372067D01*
X605029Y365333D01*
X600267Y360571D01*
X593533Y360571D01*
G37*
%LPD*%
%LPC*%
G36*
X714533Y309371D02*
X714533Y309371D01*
X709771Y314133D01*
X709771Y320867D01*
X714533Y325629D01*
X721267Y325629D01*
X726029Y320867D01*
X726029Y314133D01*
X721267Y309371D01*
X714533Y309371D01*
G37*
%LPD*%
%LPC*%
G36*
X790243Y842583D02*
X790243Y842583D01*
X790243Y856101D01*
X801554Y856101D01*
X802201Y855928D01*
X802780Y855593D01*
X803253Y855120D01*
X803588Y854541D01*
X803761Y853894D01*
X803761Y842583D01*
X790243Y842583D01*
G37*
%LPD*%
%LPC*%
G36*
X394003Y842583D02*
X394003Y842583D01*
X394003Y856101D01*
X405314Y856101D01*
X405961Y855928D01*
X406540Y855593D01*
X407013Y855120D01*
X407348Y854541D01*
X407521Y853894D01*
X407521Y842583D01*
X394003Y842583D01*
G37*
%LPD*%
%LPC*%
G36*
X394303Y612083D02*
X394303Y612083D01*
X394303Y625601D01*
X405614Y625601D01*
X406261Y625428D01*
X406840Y625093D01*
X407313Y624620D01*
X407648Y624041D01*
X407821Y623394D01*
X407821Y612083D01*
X394303Y612083D01*
G37*
%LPD*%
%LPC*%
G36*
X790543Y612083D02*
X790543Y612083D01*
X790543Y625601D01*
X801854Y625601D01*
X802501Y625428D01*
X803080Y625093D01*
X803553Y624620D01*
X803888Y624041D01*
X804061Y623394D01*
X804061Y612083D01*
X790543Y612083D01*
G37*
%LPD*%
%LPC*%
G36*
X394003Y826019D02*
X394003Y826019D01*
X394003Y839537D01*
X407521Y839537D01*
X407521Y828226D01*
X407348Y827579D01*
X407013Y827000D01*
X406540Y826527D01*
X405961Y826192D01*
X405314Y826019D01*
X394003Y826019D01*
G37*
%LPD*%
%LPC*%
G36*
X773979Y612083D02*
X773979Y612083D01*
X773979Y623394D01*
X774152Y624041D01*
X774487Y624620D01*
X774960Y625093D01*
X775539Y625428D01*
X776186Y625601D01*
X787497Y625601D01*
X787497Y612083D01*
X773979Y612083D01*
G37*
%LPD*%
%LPC*%
G36*
X377739Y612083D02*
X377739Y612083D01*
X377739Y623394D01*
X377912Y624041D01*
X378247Y624620D01*
X378720Y625093D01*
X379299Y625428D01*
X379946Y625601D01*
X391257Y625601D01*
X391257Y612083D01*
X377739Y612083D01*
G37*
%LPD*%
%LPC*%
G36*
X394303Y595519D02*
X394303Y595519D01*
X394303Y609037D01*
X407821Y609037D01*
X407821Y597726D01*
X407648Y597079D01*
X407313Y596500D01*
X406840Y596027D01*
X406261Y595692D01*
X405614Y595519D01*
X394303Y595519D01*
G37*
%LPD*%
%LPC*%
G36*
X790543Y595519D02*
X790543Y595519D01*
X790543Y609037D01*
X804061Y609037D01*
X804061Y597726D01*
X803888Y597079D01*
X803553Y596500D01*
X803080Y596027D01*
X802501Y595692D01*
X801854Y595519D01*
X790543Y595519D01*
G37*
%LPD*%
%LPC*%
G36*
X377439Y842583D02*
X377439Y842583D01*
X377439Y853894D01*
X377612Y854541D01*
X377947Y855120D01*
X378420Y855593D01*
X378999Y855928D01*
X379646Y856101D01*
X390957Y856101D01*
X390957Y842583D01*
X377439Y842583D01*
G37*
%LPD*%
%LPC*%
G36*
X790243Y826019D02*
X790243Y826019D01*
X790243Y839537D01*
X803761Y839537D01*
X803761Y828226D01*
X803588Y827579D01*
X803253Y827000D01*
X802780Y826527D01*
X802201Y826192D01*
X801554Y826019D01*
X790243Y826019D01*
G37*
%LPD*%
%LPC*%
G36*
X379946Y595519D02*
X379946Y595519D01*
X379299Y595692D01*
X378720Y596027D01*
X378247Y596500D01*
X377912Y597079D01*
X377739Y597726D01*
X377739Y609037D01*
X391257Y609037D01*
X391257Y595519D01*
X379946Y595519D01*
G37*
%LPD*%
%LPC*%
G36*
X776186Y595519D02*
X776186Y595519D01*
X775539Y595692D01*
X774960Y596027D01*
X774487Y596500D01*
X774152Y597079D01*
X773979Y597726D01*
X773979Y609037D01*
X787497Y609037D01*
X787497Y595519D01*
X776186Y595519D01*
G37*
%LPD*%
%LPC*%
G36*
X379646Y826019D02*
X379646Y826019D01*
X378999Y826192D01*
X378420Y826527D01*
X377947Y827000D01*
X377612Y827579D01*
X377439Y828226D01*
X377439Y839537D01*
X390957Y839537D01*
X390957Y826019D01*
X379646Y826019D01*
G37*
%LPD*%
%LPC*%
G36*
X775886Y826019D02*
X775886Y826019D01*
X775239Y826192D01*
X774660Y826527D01*
X774187Y827000D01*
X773852Y827579D01*
X773679Y828226D01*
X773679Y839537D01*
X787197Y839537D01*
X787197Y826019D01*
X775886Y826019D01*
G37*
%LPD*%
%LPC*%
G36*
X887123Y578923D02*
X887123Y578923D01*
X887123Y596600D01*
X888158Y596436D01*
X889793Y595904D01*
X891325Y595124D01*
X892716Y594113D01*
X893931Y592898D01*
X894942Y591507D01*
X895722Y589975D01*
X896254Y588340D01*
X896523Y586642D01*
X896523Y578923D01*
X887123Y578923D01*
G37*
%LPD*%
%LPC*%
G36*
X887123Y575877D02*
X887123Y575877D01*
X896523Y575877D01*
X896523Y568158D01*
X896254Y566460D01*
X895722Y564825D01*
X894942Y563293D01*
X893931Y561902D01*
X892716Y560687D01*
X891325Y559676D01*
X889793Y558896D01*
X888158Y558364D01*
X887123Y558200D01*
X887123Y575877D01*
G37*
%LPD*%
%LPC*%
G36*
X874677Y578923D02*
X874677Y578923D01*
X874677Y586642D01*
X874946Y588340D01*
X875478Y589975D01*
X876258Y591507D01*
X877269Y592898D01*
X878484Y594113D01*
X879875Y595124D01*
X881407Y595904D01*
X883042Y596436D01*
X884077Y596600D01*
X884077Y578923D01*
X874677Y578923D01*
G37*
%LPD*%
%LPC*%
G36*
X883042Y558364D02*
X883042Y558364D01*
X881407Y558896D01*
X879875Y559676D01*
X878484Y560687D01*
X877269Y561902D01*
X876258Y563293D01*
X875478Y564825D01*
X874946Y566460D01*
X874677Y568158D01*
X874677Y575877D01*
X884077Y575877D01*
X884077Y558200D01*
X883042Y558364D01*
G37*
%LPD*%
%LPC*%
G36*
X254323Y459423D02*
X254323Y459423D01*
X254323Y475405D01*
X255161Y475273D01*
X256670Y474782D01*
X258083Y474062D01*
X259367Y473129D01*
X260489Y472007D01*
X261422Y470723D01*
X262142Y469310D01*
X262633Y467801D01*
X262881Y466233D01*
X262881Y459423D01*
X254323Y459423D01*
G37*
%LPD*%
%LPC*%
G36*
X254323Y522423D02*
X254323Y522423D01*
X254323Y538405D01*
X255161Y538273D01*
X256670Y537782D01*
X258083Y537062D01*
X259367Y536129D01*
X260489Y535007D01*
X261422Y533723D01*
X262142Y532310D01*
X262633Y530801D01*
X262881Y529233D01*
X262881Y522423D01*
X254323Y522423D01*
G37*
%LPD*%
%LPC*%
G36*
X254323Y519377D02*
X254323Y519377D01*
X262881Y519377D01*
X262881Y512567D01*
X262633Y510999D01*
X262142Y509490D01*
X261422Y508077D01*
X260489Y506793D01*
X259367Y505671D01*
X258083Y504738D01*
X256670Y504018D01*
X255161Y503527D01*
X254323Y503395D01*
X254323Y519377D01*
G37*
%LPD*%
%LPC*%
G36*
X254323Y456377D02*
X254323Y456377D01*
X262881Y456377D01*
X262881Y449567D01*
X262633Y447999D01*
X262142Y446490D01*
X261422Y445077D01*
X260489Y443793D01*
X259367Y442671D01*
X258083Y441738D01*
X256670Y441018D01*
X255161Y440527D01*
X254323Y440395D01*
X254323Y456377D01*
G37*
%LPD*%
%LPC*%
G36*
X242719Y459423D02*
X242719Y459423D01*
X242719Y466233D01*
X242967Y467801D01*
X243458Y469310D01*
X244178Y470723D01*
X245111Y472007D01*
X246233Y473129D01*
X247517Y474062D01*
X248930Y474782D01*
X250439Y475273D01*
X251277Y475405D01*
X251277Y459423D01*
X242719Y459423D01*
G37*
%LPD*%
%LPC*%
G36*
X242719Y522423D02*
X242719Y522423D01*
X242719Y529233D01*
X242967Y530801D01*
X243458Y532310D01*
X244178Y533723D01*
X245111Y535007D01*
X246233Y536129D01*
X247517Y537062D01*
X248930Y537782D01*
X250439Y538273D01*
X251277Y538405D01*
X251277Y522423D01*
X242719Y522423D01*
G37*
%LPD*%
%LPC*%
G36*
X250439Y440527D02*
X250439Y440527D01*
X248930Y441018D01*
X247517Y441738D01*
X246233Y442671D01*
X245111Y443793D01*
X244178Y445077D01*
X243458Y446490D01*
X242967Y447999D01*
X242719Y449567D01*
X242719Y456377D01*
X251277Y456377D01*
X251277Y440395D01*
X250439Y440527D01*
G37*
%LPD*%
%LPC*%
G36*
X250439Y503527D02*
X250439Y503527D01*
X248930Y504018D01*
X247517Y504738D01*
X246233Y505671D01*
X245111Y506793D01*
X244178Y508077D01*
X243458Y509490D01*
X242967Y510999D01*
X242719Y512567D01*
X242719Y519377D01*
X251277Y519377D01*
X251277Y503395D01*
X250439Y503527D01*
G37*
%LPD*%
%LPC*%
G36*
X779323Y956623D02*
X779323Y956623D01*
X779323Y966946D01*
X780596Y966745D01*
X782383Y966164D01*
X784057Y965311D01*
X785578Y964206D01*
X786906Y962878D01*
X788011Y961357D01*
X788864Y959683D01*
X789445Y957896D01*
X789646Y956623D01*
X779323Y956623D01*
G37*
%LPD*%
%LPC*%
G36*
X576123Y956623D02*
X576123Y956623D01*
X576123Y966946D01*
X577396Y966745D01*
X579183Y966164D01*
X580857Y965311D01*
X582378Y964206D01*
X583706Y962878D01*
X584811Y961357D01*
X585664Y959683D01*
X586245Y957896D01*
X586446Y956623D01*
X576123Y956623D01*
G37*
%LPD*%
%LPC*%
G36*
X474523Y956623D02*
X474523Y956623D01*
X474523Y966946D01*
X475796Y966745D01*
X477583Y966164D01*
X479257Y965311D01*
X480778Y964206D01*
X482106Y962878D01*
X483211Y961357D01*
X484064Y959683D01*
X484645Y957896D01*
X484846Y956623D01*
X474523Y956623D01*
G37*
%LPD*%
%LPC*%
G36*
X830123Y956623D02*
X830123Y956623D01*
X830123Y966946D01*
X831396Y966745D01*
X833183Y966164D01*
X834857Y965311D01*
X836378Y964206D01*
X837706Y962878D01*
X838811Y961357D01*
X839664Y959683D01*
X840245Y957896D01*
X840446Y956623D01*
X830123Y956623D01*
G37*
%LPD*%
%LPC*%
G36*
X652323Y956623D02*
X652323Y956623D01*
X652323Y966946D01*
X653596Y966745D01*
X655383Y966164D01*
X657057Y965311D01*
X658578Y964206D01*
X659906Y962878D01*
X661011Y961357D01*
X661864Y959683D01*
X662445Y957896D01*
X662646Y956623D01*
X652323Y956623D01*
G37*
%LPD*%
%LPC*%
G36*
X728523Y931223D02*
X728523Y931223D01*
X728523Y941546D01*
X729796Y941345D01*
X731583Y940764D01*
X733257Y939911D01*
X734778Y938806D01*
X736106Y937478D01*
X737211Y935957D01*
X738064Y934283D01*
X738645Y932496D01*
X738846Y931223D01*
X728523Y931223D01*
G37*
%LPD*%
%LPC*%
G36*
X906323Y931223D02*
X906323Y931223D01*
X906323Y941546D01*
X907596Y941345D01*
X909383Y940764D01*
X911057Y939911D01*
X912578Y938806D01*
X913906Y937478D01*
X915011Y935957D01*
X915864Y934283D01*
X916445Y932496D01*
X916646Y931223D01*
X906323Y931223D01*
G37*
%LPD*%
%LPC*%
G36*
X525323Y931223D02*
X525323Y931223D01*
X525323Y941546D01*
X526596Y941345D01*
X528383Y940764D01*
X530057Y939911D01*
X531578Y938806D01*
X532906Y937478D01*
X534011Y935957D01*
X534864Y934283D01*
X535445Y932496D01*
X535646Y931223D01*
X525323Y931223D01*
G37*
%LPD*%
%LPC*%
G36*
X765954Y956623D02*
X765954Y956623D01*
X766155Y957896D01*
X766736Y959683D01*
X767589Y961357D01*
X768694Y962878D01*
X770022Y964206D01*
X771543Y965311D01*
X773217Y966164D01*
X775004Y966745D01*
X776277Y966946D01*
X776277Y956623D01*
X765954Y956623D01*
G37*
%LPD*%
%LPC*%
G36*
X576123Y953577D02*
X576123Y953577D01*
X586446Y953577D01*
X586245Y952304D01*
X585664Y950517D01*
X584811Y948843D01*
X583706Y947322D01*
X582378Y945994D01*
X580857Y944889D01*
X579183Y944036D01*
X577396Y943455D01*
X576123Y943254D01*
X576123Y953577D01*
G37*
%LPD*%
%LPC*%
G36*
X728523Y928177D02*
X728523Y928177D01*
X738846Y928177D01*
X738645Y926904D01*
X738064Y925117D01*
X737211Y923443D01*
X736106Y921922D01*
X734778Y920594D01*
X733257Y919489D01*
X731583Y918636D01*
X729796Y918055D01*
X728523Y917854D01*
X728523Y928177D01*
G37*
%LPD*%
%LPC*%
G36*
X562754Y956623D02*
X562754Y956623D01*
X562955Y957896D01*
X563536Y959683D01*
X564389Y961357D01*
X565494Y962878D01*
X566822Y964206D01*
X568343Y965311D01*
X570017Y966164D01*
X571804Y966745D01*
X573077Y966946D01*
X573077Y956623D01*
X562754Y956623D01*
G37*
%LPD*%
%LPC*%
G36*
X906323Y928177D02*
X906323Y928177D01*
X916646Y928177D01*
X916445Y926904D01*
X915864Y925117D01*
X915011Y923443D01*
X913906Y921922D01*
X912578Y920594D01*
X911057Y919489D01*
X909383Y918636D01*
X907596Y918055D01*
X906323Y917854D01*
X906323Y928177D01*
G37*
%LPD*%
%LPC*%
G36*
X816754Y956623D02*
X816754Y956623D01*
X816955Y957896D01*
X817536Y959683D01*
X818389Y961357D01*
X819494Y962878D01*
X820822Y964206D01*
X822343Y965311D01*
X824017Y966164D01*
X825804Y966745D01*
X827077Y966946D01*
X827077Y956623D01*
X816754Y956623D01*
G37*
%LPD*%
%LPC*%
G36*
X474523Y953577D02*
X474523Y953577D01*
X484846Y953577D01*
X484645Y952304D01*
X484064Y950517D01*
X483211Y948843D01*
X482106Y947322D01*
X480778Y945994D01*
X479257Y944889D01*
X477583Y944036D01*
X475796Y943455D01*
X474523Y943254D01*
X474523Y953577D01*
G37*
%LPD*%
%LPC*%
G36*
X652323Y953577D02*
X652323Y953577D01*
X662646Y953577D01*
X662445Y952304D01*
X661864Y950517D01*
X661011Y948843D01*
X659906Y947322D01*
X658578Y945994D01*
X657057Y944889D01*
X655383Y944036D01*
X653596Y943455D01*
X652323Y943254D01*
X652323Y953577D01*
G37*
%LPD*%
%LPC*%
G36*
X830123Y953577D02*
X830123Y953577D01*
X840446Y953577D01*
X840245Y952304D01*
X839664Y950517D01*
X838811Y948843D01*
X837706Y947322D01*
X836378Y945994D01*
X834857Y944889D01*
X833183Y944036D01*
X831396Y943455D01*
X830123Y943254D01*
X830123Y953577D01*
G37*
%LPD*%
%LPC*%
G36*
X461154Y956623D02*
X461154Y956623D01*
X461355Y957896D01*
X461936Y959683D01*
X462789Y961357D01*
X463894Y962878D01*
X465222Y964206D01*
X466743Y965311D01*
X468417Y966164D01*
X470204Y966745D01*
X471477Y966946D01*
X471477Y956623D01*
X461154Y956623D01*
G37*
%LPD*%
%LPC*%
G36*
X779323Y953577D02*
X779323Y953577D01*
X789646Y953577D01*
X789445Y952304D01*
X788864Y950517D01*
X788011Y948843D01*
X786906Y947322D01*
X785578Y945994D01*
X784057Y944889D01*
X782383Y944036D01*
X780596Y943455D01*
X779323Y943254D01*
X779323Y953577D01*
G37*
%LPD*%
%LPC*%
G36*
X715154Y931223D02*
X715154Y931223D01*
X715355Y932496D01*
X715936Y934283D01*
X716789Y935957D01*
X717894Y937478D01*
X719222Y938806D01*
X720743Y939911D01*
X722417Y940764D01*
X724204Y941345D01*
X725477Y941546D01*
X725477Y931223D01*
X715154Y931223D01*
G37*
%LPD*%
%LPC*%
G36*
X892954Y931223D02*
X892954Y931223D01*
X893155Y932496D01*
X893736Y934283D01*
X894589Y935957D01*
X895694Y937478D01*
X897022Y938806D01*
X898543Y939911D01*
X900217Y940764D01*
X902004Y941345D01*
X903277Y941546D01*
X903277Y931223D01*
X892954Y931223D01*
G37*
%LPD*%
%LPC*%
G36*
X511954Y931223D02*
X511954Y931223D01*
X512155Y932496D01*
X512736Y934283D01*
X513589Y935957D01*
X514694Y937478D01*
X516022Y938806D01*
X517543Y939911D01*
X519217Y940764D01*
X521004Y941345D01*
X522277Y941546D01*
X522277Y931223D01*
X511954Y931223D01*
G37*
%LPD*%
%LPC*%
G36*
X525323Y928177D02*
X525323Y928177D01*
X535646Y928177D01*
X535445Y926904D01*
X534864Y925117D01*
X534011Y923443D01*
X532906Y921922D01*
X531578Y920594D01*
X530057Y919489D01*
X528383Y918636D01*
X526596Y918055D01*
X525323Y917854D01*
X525323Y928177D01*
G37*
%LPD*%
%LPC*%
G36*
X638954Y956623D02*
X638954Y956623D01*
X639155Y957896D01*
X639736Y959683D01*
X640589Y961357D01*
X641694Y962878D01*
X643022Y964206D01*
X644543Y965311D01*
X646217Y966164D01*
X648004Y966745D01*
X649277Y966946D01*
X649277Y956623D01*
X638954Y956623D01*
G37*
%LPD*%
%LPC*%
G36*
X521004Y918055D02*
X521004Y918055D01*
X519217Y918636D01*
X517543Y919489D01*
X516022Y920594D01*
X514694Y921922D01*
X513589Y923443D01*
X512736Y925117D01*
X512155Y926904D01*
X511954Y928177D01*
X522277Y928177D01*
X522277Y917854D01*
X521004Y918055D01*
G37*
%LPD*%
%LPC*%
G36*
X902004Y918055D02*
X902004Y918055D01*
X900217Y918636D01*
X898543Y919489D01*
X897022Y920594D01*
X895694Y921922D01*
X894589Y923443D01*
X893736Y925117D01*
X893155Y926904D01*
X892954Y928177D01*
X903277Y928177D01*
X903277Y917854D01*
X902004Y918055D01*
G37*
%LPD*%
%LPC*%
G36*
X825804Y943455D02*
X825804Y943455D01*
X824017Y944036D01*
X822343Y944889D01*
X820822Y945994D01*
X819494Y947322D01*
X818389Y948843D01*
X817536Y950517D01*
X816955Y952304D01*
X816754Y953577D01*
X827077Y953577D01*
X827077Y943254D01*
X825804Y943455D01*
G37*
%LPD*%
%LPC*%
G36*
X724204Y918055D02*
X724204Y918055D01*
X722417Y918636D01*
X720743Y919489D01*
X719222Y920594D01*
X717894Y921922D01*
X716789Y923443D01*
X715936Y925117D01*
X715355Y926904D01*
X715154Y928177D01*
X725477Y928177D01*
X725477Y917854D01*
X724204Y918055D01*
G37*
%LPD*%
%LPC*%
G36*
X571804Y943455D02*
X571804Y943455D01*
X570017Y944036D01*
X568343Y944889D01*
X566822Y945994D01*
X565494Y947322D01*
X564389Y948843D01*
X563536Y950517D01*
X562955Y952304D01*
X562754Y953577D01*
X573077Y953577D01*
X573077Y943254D01*
X571804Y943455D01*
G37*
%LPD*%
%LPC*%
G36*
X648004Y943455D02*
X648004Y943455D01*
X646217Y944036D01*
X644543Y944889D01*
X643022Y945994D01*
X641694Y947322D01*
X640589Y948843D01*
X639736Y950517D01*
X639155Y952304D01*
X638954Y953577D01*
X649277Y953577D01*
X649277Y943254D01*
X648004Y943455D01*
G37*
%LPD*%
%LPC*%
G36*
X775004Y943455D02*
X775004Y943455D01*
X773217Y944036D01*
X771543Y944889D01*
X770022Y945994D01*
X768694Y947322D01*
X767589Y948843D01*
X766736Y950517D01*
X766155Y952304D01*
X765954Y953577D01*
X776277Y953577D01*
X776277Y943254D01*
X775004Y943455D01*
G37*
%LPD*%
%LPC*%
G36*
X470204Y943455D02*
X470204Y943455D01*
X468417Y944036D01*
X466743Y944889D01*
X465222Y945994D01*
X463894Y947322D01*
X462789Y948843D01*
X461936Y950517D01*
X461355Y952304D01*
X461154Y953577D01*
X471477Y953577D01*
X471477Y943254D01*
X470204Y943455D01*
G37*
%LPD*%
%LPC*%
G36*
X555223Y343823D02*
X555223Y343823D01*
X555223Y353223D01*
X558224Y353223D01*
X564623Y346824D01*
X564623Y343823D01*
X555223Y343823D01*
G37*
%LPD*%
%LPC*%
G36*
X432223Y343823D02*
X432223Y343823D01*
X432223Y353223D01*
X435224Y353223D01*
X441623Y346824D01*
X441623Y343823D01*
X432223Y343823D01*
G37*
%LPD*%
%LPC*%
G36*
X791723Y343823D02*
X791723Y343823D01*
X791723Y353223D01*
X794724Y353223D01*
X801123Y346824D01*
X801123Y343823D01*
X791723Y343823D01*
G37*
%LPD*%
%LPC*%
G36*
X673323Y344023D02*
X673323Y344023D01*
X673323Y353423D01*
X676324Y353423D01*
X682723Y347024D01*
X682723Y344023D01*
X673323Y344023D01*
G37*
%LPD*%
%LPC*%
G36*
X791723Y331377D02*
X791723Y331377D01*
X791723Y340777D01*
X801123Y340777D01*
X801123Y337776D01*
X794724Y331377D01*
X791723Y331377D01*
G37*
%LPD*%
%LPC*%
G36*
X673323Y331577D02*
X673323Y331577D01*
X673323Y340977D01*
X682723Y340977D01*
X682723Y337976D01*
X676324Y331577D01*
X673323Y331577D01*
G37*
%LPD*%
%LPC*%
G36*
X555223Y331377D02*
X555223Y331377D01*
X555223Y340777D01*
X564623Y340777D01*
X564623Y337776D01*
X558224Y331377D01*
X555223Y331377D01*
G37*
%LPD*%
%LPC*%
G36*
X419777Y343823D02*
X419777Y343823D01*
X419777Y346824D01*
X426176Y353223D01*
X429177Y353223D01*
X429177Y343823D01*
X419777Y343823D01*
G37*
%LPD*%
%LPC*%
G36*
X779277Y343823D02*
X779277Y343823D01*
X779277Y346824D01*
X785676Y353223D01*
X788677Y353223D01*
X788677Y343823D01*
X779277Y343823D01*
G37*
%LPD*%
%LPC*%
G36*
X542777Y343823D02*
X542777Y343823D01*
X542777Y346824D01*
X549176Y353223D01*
X552177Y353223D01*
X552177Y343823D01*
X542777Y343823D01*
G37*
%LPD*%
%LPC*%
G36*
X660877Y344023D02*
X660877Y344023D01*
X660877Y347024D01*
X667276Y353423D01*
X670277Y353423D01*
X670277Y344023D01*
X660877Y344023D01*
G37*
%LPD*%
%LPC*%
G36*
X432223Y331377D02*
X432223Y331377D01*
X432223Y340777D01*
X441623Y340777D01*
X441623Y337776D01*
X435224Y331377D01*
X432223Y331377D01*
G37*
%LPD*%
%LPC*%
G36*
X785676Y331377D02*
X785676Y331377D01*
X779277Y337776D01*
X779277Y340777D01*
X788677Y340777D01*
X788677Y331377D01*
X785676Y331377D01*
G37*
%LPD*%
%LPC*%
G36*
X667276Y331577D02*
X667276Y331577D01*
X660877Y337976D01*
X660877Y340977D01*
X670277Y340977D01*
X670277Y331577D01*
X667276Y331577D01*
G37*
%LPD*%
%LPC*%
G36*
X426176Y331377D02*
X426176Y331377D01*
X419777Y337776D01*
X419777Y340777D01*
X429177Y340777D01*
X429177Y331377D01*
X426176Y331377D01*
G37*
%LPD*%
%LPC*%
G36*
X549176Y331377D02*
X549176Y331377D01*
X542777Y337776D01*
X542777Y340777D01*
X552177Y340777D01*
X552177Y331377D01*
X549176Y331377D01*
G37*
%LPD*%
%LPC*%
G36*
X1036423Y736023D02*
X1036423Y736023D01*
X1036423Y744032D01*
X1037160Y743915D01*
X1038605Y743446D01*
X1039959Y742756D01*
X1041188Y741863D01*
X1042263Y740788D01*
X1043156Y739559D01*
X1043846Y738205D01*
X1044315Y736760D01*
X1044432Y736023D01*
X1036423Y736023D01*
G37*
%LPD*%
%LPC*%
G36*
X1035823Y603823D02*
X1035823Y603823D01*
X1035823Y611832D01*
X1036560Y611715D01*
X1038005Y611246D01*
X1039359Y610556D01*
X1040588Y609663D01*
X1041663Y608588D01*
X1042556Y607359D01*
X1043246Y606005D01*
X1043715Y604560D01*
X1043832Y603823D01*
X1035823Y603823D01*
G37*
%LPD*%
%LPC*%
G36*
X1036423Y732977D02*
X1036423Y732977D01*
X1044432Y732977D01*
X1044315Y732240D01*
X1043846Y730795D01*
X1043156Y729441D01*
X1042263Y728212D01*
X1041188Y727137D01*
X1039959Y726244D01*
X1038605Y725554D01*
X1037160Y725085D01*
X1036423Y724968D01*
X1036423Y732977D01*
G37*
%LPD*%
%LPC*%
G36*
X1025368Y736023D02*
X1025368Y736023D01*
X1025485Y736760D01*
X1025954Y738205D01*
X1026644Y739559D01*
X1027537Y740788D01*
X1028612Y741863D01*
X1029841Y742756D01*
X1031195Y743446D01*
X1032640Y743915D01*
X1033377Y744032D01*
X1033377Y736023D01*
X1025368Y736023D01*
G37*
%LPD*%
%LPC*%
G36*
X1024768Y603823D02*
X1024768Y603823D01*
X1024885Y604560D01*
X1025354Y606005D01*
X1026044Y607359D01*
X1026937Y608588D01*
X1028012Y609663D01*
X1029241Y610556D01*
X1030595Y611246D01*
X1032040Y611715D01*
X1032777Y611832D01*
X1032777Y603823D01*
X1024768Y603823D01*
G37*
%LPD*%
%LPC*%
G36*
X1035823Y600777D02*
X1035823Y600777D01*
X1043832Y600777D01*
X1043715Y600040D01*
X1043246Y598595D01*
X1042556Y597241D01*
X1041663Y596012D01*
X1040588Y594937D01*
X1039359Y594044D01*
X1038005Y593354D01*
X1036560Y592885D01*
X1035823Y592768D01*
X1035823Y600777D01*
G37*
%LPD*%
%LPC*%
G36*
X1032640Y725085D02*
X1032640Y725085D01*
X1031195Y725554D01*
X1029841Y726244D01*
X1028612Y727137D01*
X1027537Y728212D01*
X1026644Y729441D01*
X1025954Y730795D01*
X1025485Y732240D01*
X1025368Y732977D01*
X1033377Y732977D01*
X1033377Y724968D01*
X1032640Y725085D01*
G37*
%LPD*%
%LPC*%
G36*
X1032040Y592885D02*
X1032040Y592885D01*
X1030595Y593354D01*
X1029241Y594044D01*
X1028012Y594937D01*
X1026937Y596012D01*
X1026044Y597241D01*
X1025354Y598595D01*
X1024885Y600040D01*
X1024768Y600777D01*
X1032777Y600777D01*
X1032777Y592768D01*
X1032040Y592885D01*
G37*
%LPD*%
%LPC*%
G36*
X269823Y599523D02*
X269823Y599523D01*
X269823Y607459D01*
X270543Y607345D01*
X271978Y606879D01*
X273321Y606194D01*
X274542Y605308D01*
X275608Y604242D01*
X276494Y603021D01*
X277179Y601678D01*
X277645Y600243D01*
X277759Y599523D01*
X269823Y599523D01*
G37*
%LPD*%
%LPC*%
G36*
X269223Y755923D02*
X269223Y755923D01*
X269223Y763859D01*
X269943Y763745D01*
X271378Y763279D01*
X272721Y762594D01*
X273942Y761708D01*
X275008Y760642D01*
X275894Y759421D01*
X276579Y758078D01*
X277045Y756643D01*
X277159Y755923D01*
X269223Y755923D01*
G37*
%LPD*%
%LPC*%
G36*
X249823Y719523D02*
X249823Y719523D01*
X249823Y727459D01*
X250543Y727345D01*
X251978Y726879D01*
X253321Y726194D01*
X254542Y725308D01*
X255608Y724242D01*
X256494Y723021D01*
X257179Y721678D01*
X257645Y720243D01*
X257759Y719523D01*
X249823Y719523D01*
G37*
%LPD*%
%LPC*%
G36*
X249223Y875923D02*
X249223Y875923D01*
X249223Y883859D01*
X249943Y883745D01*
X251378Y883279D01*
X252721Y882594D01*
X253942Y881708D01*
X255008Y880642D01*
X255894Y879421D01*
X256579Y878078D01*
X257045Y876643D01*
X257159Y875923D01*
X249223Y875923D01*
G37*
%LPD*%
%LPC*%
G36*
X258841Y599523D02*
X258841Y599523D01*
X258955Y600243D01*
X259421Y601678D01*
X260106Y603021D01*
X260992Y604242D01*
X262058Y605308D01*
X263279Y606194D01*
X264622Y606879D01*
X266057Y607345D01*
X266777Y607459D01*
X266777Y599523D01*
X258841Y599523D01*
G37*
%LPD*%
%LPC*%
G36*
X238241Y875923D02*
X238241Y875923D01*
X238355Y876643D01*
X238821Y878078D01*
X239506Y879421D01*
X240392Y880642D01*
X241458Y881708D01*
X242679Y882594D01*
X244022Y883279D01*
X245457Y883745D01*
X246177Y883859D01*
X246177Y875923D01*
X238241Y875923D01*
G37*
%LPD*%
%LPC*%
G36*
X258241Y755923D02*
X258241Y755923D01*
X258355Y756643D01*
X258821Y758078D01*
X259506Y759421D01*
X260392Y760642D01*
X261458Y761708D01*
X262679Y762594D01*
X264022Y763279D01*
X265457Y763745D01*
X266177Y763859D01*
X266177Y755923D01*
X258241Y755923D01*
G37*
%LPD*%
%LPC*%
G36*
X249823Y716477D02*
X249823Y716477D01*
X257759Y716477D01*
X257645Y715757D01*
X257179Y714322D01*
X256494Y712979D01*
X255608Y711758D01*
X254542Y710692D01*
X253321Y709806D01*
X251978Y709121D01*
X250543Y708655D01*
X249823Y708541D01*
X249823Y716477D01*
G37*
%LPD*%
%LPC*%
G36*
X249223Y872877D02*
X249223Y872877D01*
X257159Y872877D01*
X257045Y872157D01*
X256579Y870722D01*
X255894Y869379D01*
X255008Y868158D01*
X253942Y867092D01*
X252721Y866206D01*
X251378Y865521D01*
X249943Y865055D01*
X249223Y864941D01*
X249223Y872877D01*
G37*
%LPD*%
%LPC*%
G36*
X269823Y596477D02*
X269823Y596477D01*
X277759Y596477D01*
X277645Y595757D01*
X277179Y594322D01*
X276494Y592979D01*
X275608Y591758D01*
X274542Y590692D01*
X273321Y589806D01*
X271978Y589121D01*
X270543Y588655D01*
X269823Y588541D01*
X269823Y596477D01*
G37*
%LPD*%
%LPC*%
G36*
X269223Y752877D02*
X269223Y752877D01*
X277159Y752877D01*
X277045Y752157D01*
X276579Y750722D01*
X275894Y749379D01*
X275008Y748158D01*
X273942Y747092D01*
X272721Y746206D01*
X271378Y745521D01*
X269943Y745055D01*
X269223Y744941D01*
X269223Y752877D01*
G37*
%LPD*%
%LPC*%
G36*
X238841Y719523D02*
X238841Y719523D01*
X238955Y720243D01*
X239421Y721678D01*
X240106Y723021D01*
X240992Y724242D01*
X242058Y725308D01*
X243279Y726194D01*
X244622Y726879D01*
X246057Y727345D01*
X246777Y727459D01*
X246777Y719523D01*
X238841Y719523D01*
G37*
%LPD*%
%LPC*%
G36*
X245457Y865055D02*
X245457Y865055D01*
X244022Y865521D01*
X242679Y866206D01*
X241458Y867092D01*
X240392Y868158D01*
X239506Y869379D01*
X238821Y870722D01*
X238355Y872157D01*
X238241Y872877D01*
X246177Y872877D01*
X246177Y864941D01*
X245457Y865055D01*
G37*
%LPD*%
%LPC*%
G36*
X266057Y588655D02*
X266057Y588655D01*
X264622Y589121D01*
X263279Y589806D01*
X262058Y590692D01*
X260992Y591758D01*
X260106Y592979D01*
X259421Y594322D01*
X258955Y595757D01*
X258841Y596477D01*
X266777Y596477D01*
X266777Y588541D01*
X266057Y588655D01*
G37*
%LPD*%
%LPC*%
G36*
X265457Y745055D02*
X265457Y745055D01*
X264022Y745521D01*
X262679Y746206D01*
X261458Y747092D01*
X260392Y748158D01*
X259506Y749379D01*
X258821Y750722D01*
X258355Y752157D01*
X258241Y752877D01*
X266177Y752877D01*
X266177Y744941D01*
X265457Y745055D01*
G37*
%LPD*%
%LPC*%
G36*
X267699Y754399D02*
X267699Y754399D01*
X267699Y754401D01*
X267701Y754401D01*
X267701Y754399D01*
X267699Y754399D01*
G37*
%LPD*%
%LPC*%
G36*
X574599Y955099D02*
X574599Y955099D01*
X574599Y955101D01*
X574601Y955101D01*
X574601Y955099D01*
X574599Y955099D01*
G37*
%LPD*%
%LPC*%
G36*
X523799Y929699D02*
X523799Y929699D01*
X523799Y929701D01*
X523801Y929701D01*
X523801Y929699D01*
X523799Y929699D01*
G37*
%LPD*%
%LPC*%
G36*
X252799Y457899D02*
X252799Y457899D01*
X252799Y457901D01*
X252801Y457901D01*
X252801Y457899D01*
X252799Y457899D01*
G37*
%LPD*%
%LPC*%
G36*
X650799Y955099D02*
X650799Y955099D01*
X650799Y955101D01*
X650801Y955101D01*
X650801Y955099D01*
X650799Y955099D01*
G37*
%LPD*%
%LPC*%
G36*
X904799Y929699D02*
X904799Y929699D01*
X904799Y929701D01*
X904801Y929701D01*
X904801Y929699D01*
X904799Y929699D01*
G37*
%LPD*%
%LPC*%
G36*
X392479Y841059D02*
X392479Y841059D01*
X392479Y841061D01*
X392481Y841061D01*
X392481Y841059D01*
X392479Y841059D01*
G37*
%LPD*%
%LPC*%
G36*
X788719Y841059D02*
X788719Y841059D01*
X788719Y841061D01*
X788721Y841061D01*
X788721Y841059D01*
X788719Y841059D01*
G37*
%LPD*%
%LPC*%
G36*
X828599Y955099D02*
X828599Y955099D01*
X828599Y955101D01*
X828601Y955101D01*
X828601Y955099D01*
X828599Y955099D01*
G37*
%LPD*%
%LPC*%
G36*
X726999Y929699D02*
X726999Y929699D01*
X726999Y929701D01*
X727001Y929701D01*
X727001Y929699D01*
X726999Y929699D01*
G37*
%LPD*%
%LPC*%
G36*
X671799Y342499D02*
X671799Y342499D01*
X671799Y342501D01*
X671801Y342501D01*
X671801Y342499D01*
X671799Y342499D01*
G37*
%LPD*%
%LPC*%
G36*
X790199Y342299D02*
X790199Y342299D01*
X790199Y342301D01*
X790201Y342301D01*
X790201Y342299D01*
X790199Y342299D01*
G37*
%LPD*%
%LPC*%
G36*
X553699Y342299D02*
X553699Y342299D01*
X553699Y342301D01*
X553701Y342301D01*
X553701Y342299D01*
X553699Y342299D01*
G37*
%LPD*%
%LPC*%
G36*
X430699Y342299D02*
X430699Y342299D01*
X430699Y342301D01*
X430701Y342301D01*
X430701Y342299D01*
X430699Y342299D01*
G37*
%LPD*%
%LPC*%
G36*
X777799Y955099D02*
X777799Y955099D01*
X777799Y955101D01*
X777801Y955101D01*
X777801Y955099D01*
X777799Y955099D01*
G37*
%LPD*%
%LPC*%
G36*
X252799Y520899D02*
X252799Y520899D01*
X252799Y520901D01*
X252801Y520901D01*
X252801Y520899D01*
X252799Y520899D01*
G37*
%LPD*%
%LPC*%
G36*
X1034899Y734499D02*
X1034899Y734499D01*
X1034899Y734501D01*
X1034901Y734501D01*
X1034901Y734499D01*
X1034899Y734499D01*
G37*
%LPD*%
%LPC*%
G36*
X392779Y610559D02*
X392779Y610559D01*
X392779Y610561D01*
X392781Y610561D01*
X392781Y610559D01*
X392779Y610559D01*
G37*
%LPD*%
%LPC*%
G36*
X1034299Y602299D02*
X1034299Y602299D01*
X1034299Y602301D01*
X1034301Y602301D01*
X1034301Y602299D01*
X1034299Y602299D01*
G37*
%LPD*%
%LPC*%
G36*
X789019Y610559D02*
X789019Y610559D01*
X789019Y610561D01*
X789021Y610561D01*
X789021Y610559D01*
X789019Y610559D01*
G37*
%LPD*%
%LPC*%
G36*
X472999Y955099D02*
X472999Y955099D01*
X472999Y955101D01*
X473001Y955101D01*
X473001Y955099D01*
X472999Y955099D01*
G37*
%LPD*%
%LPC*%
G36*
X268299Y597999D02*
X268299Y597999D01*
X268299Y598001D01*
X268301Y598001D01*
X268301Y597999D01*
X268299Y597999D01*
G37*
%LPD*%
%LPC*%
G36*
X248299Y717999D02*
X248299Y717999D01*
X248299Y718001D01*
X248301Y718001D01*
X248301Y717999D01*
X248299Y717999D01*
G37*
%LPD*%
%LPC*%
G36*
X247699Y874399D02*
X247699Y874399D01*
X247699Y874401D01*
X247701Y874401D01*
X247701Y874399D01*
X247699Y874399D01*
G37*
%LPD*%
%LPC*%
G36*
X885599Y577399D02*
X885599Y577399D01*
X885599Y577401D01*
X885601Y577401D01*
X885601Y577399D01*
X885599Y577399D01*
G37*
%LPD*%
D10*
X1034300Y582300D03*
X1034300Y602300D03*
D11*
X422200Y929700D03*
X422200Y955100D03*
X447600Y929700D03*
X447600Y955100D03*
X473000Y929700D03*
X473000Y955100D03*
X498400Y929700D03*
X498400Y955100D03*
X523800Y929700D03*
X523800Y955100D03*
X549200Y929700D03*
X549200Y955100D03*
X574600Y929700D03*
X574600Y955100D03*
X600000Y929700D03*
X600000Y955100D03*
X625400Y929700D03*
X625400Y955100D03*
X650800Y929700D03*
X650800Y955100D03*
X676200Y929700D03*
X676200Y955100D03*
X701600Y929700D03*
X701600Y955100D03*
X727000Y929700D03*
X727000Y955100D03*
X752400Y929700D03*
X752400Y955100D03*
X777800Y929700D03*
X777800Y955100D03*
X803200Y929700D03*
X803200Y955100D03*
X828600Y929700D03*
X828600Y955100D03*
X854000Y929700D03*
X854000Y955100D03*
X879400Y929700D03*
X879400Y955100D03*
X904800Y929700D03*
X904800Y955100D03*
D12*
X764800Y342300D03*
X790200Y342300D03*
X405300Y342300D03*
X430700Y342300D03*
X528300Y342300D03*
X553700Y342300D03*
X646400Y342500D03*
X671800Y342500D03*
D13*
X717900Y317500D03*
X717900Y368300D03*
D14*
X354100Y368200D03*
X354100Y317400D03*
D13*
X472900Y318100D03*
X472900Y368900D03*
X596900Y317900D03*
X596900Y368700D03*
D15*
X788720Y668340D03*
X788720Y841060D03*
X392480Y841060D03*
X392480Y668340D03*
D16*
X889700Y441700D03*
X936690Y441700D03*
X842710Y441700D03*
X864300Y314700D03*
X915100Y314700D03*
D10*
X1034900Y714500D03*
X1034900Y734500D03*
D17*
X248300Y718000D03*
X268300Y718000D03*
X248300Y698000D03*
X268300Y698000D03*
X248300Y678000D03*
X268300Y678000D03*
X248300Y658000D03*
X268300Y658000D03*
X248300Y638000D03*
X268300Y638000D03*
X248300Y618000D03*
X268300Y618000D03*
X248300Y598000D03*
X268300Y598000D03*
X247700Y874400D03*
X267700Y874400D03*
X247700Y854400D03*
X267700Y854400D03*
X247700Y834400D03*
X267700Y834400D03*
X247700Y814400D03*
X267700Y814400D03*
X247700Y794400D03*
X267700Y794400D03*
X247700Y774400D03*
X267700Y774400D03*
X247700Y754400D03*
X267700Y754400D03*
D15*
X789020Y437840D03*
X789020Y610560D03*
X392780Y610560D03*
X392780Y437840D03*
D18*
X303600Y513360D02*
X303600Y528440D01*
X278200Y528440D02*
X278200Y513360D01*
X252800Y513360D02*
X252800Y528440D01*
X303600Y465440D02*
X303600Y450360D01*
X278200Y450360D02*
X278200Y465440D01*
X252800Y465440D02*
X252800Y450360D01*
D19*
X885600Y569018D02*
X885600Y585782D01*
X911000Y585782D02*
X911000Y569018D01*
X936400Y569018D02*
X936400Y585782D01*
D11*
X308000Y846000D03*
X308000Y871400D03*
D20*
X384000Y760000D03*
X606000Y718000D03*
X507000Y831000D03*
X217000Y982000D03*
X354000Y746000D03*
D21*
X248750Y577500D02*
X248750Y560000D01*
X248750Y577500D02*
X248750Y597500D01*
X253125Y555625D02*
X277500Y531250D01*
X253125Y555625D02*
X248750Y560000D01*
X277500Y531250D02*
X277500Y521250D01*
X248750Y597500D02*
X248300Y598000D01*
X277500Y521250D02*
X278200Y520900D01*
X225000Y731250D02*
X247500Y753750D01*
X225000Y647500D02*
X225000Y597500D01*
X245000Y577500D01*
X247500Y753750D02*
X247700Y754400D01*
X248750Y577500D02*
X245000Y577500D01*
X278750Y516250D02*
X278750Y483750D01*
X278750Y458750D01*
X278200Y457900D01*
X278750Y516250D02*
X278200Y520900D01*
X367500Y812500D02*
X357500Y822500D01*
X367500Y812500D02*
X367500Y732500D01*
X353750Y718750D01*
X353750Y690000D01*
X357500Y686250D01*
X357500Y660000D02*
X253125Y555625D01*
X355000Y438750D02*
X392500Y438750D01*
X355000Y438750D02*
X310000Y483750D01*
X278750Y483750D01*
X392500Y438750D02*
X392780Y437840D01*
D20*
X225000Y731250D03*
X225000Y647500D03*
X357500Y822500D03*
X357500Y686250D03*
X357500Y660000D03*
D21*
X276250Y873750D02*
X268750Y873750D01*
X276250Y873750D02*
X303750Y846250D01*
X307500Y846250D01*
X268750Y873750D02*
X267700Y874400D01*
X307500Y846250D02*
X308000Y846000D01*
X283750Y717500D02*
X268750Y717500D01*
X285625Y715625D02*
X327500Y673750D01*
X285625Y715625D02*
X283750Y717500D01*
X327500Y673750D02*
X386250Y673750D01*
X391250Y668750D01*
X268750Y717500D02*
X268300Y718000D01*
X391250Y668750D02*
X392480Y668340D01*
X317500Y832500D02*
X308750Y841250D01*
X317500Y832500D02*
X317500Y772500D01*
X317500Y747500D02*
X285625Y715625D01*
X308750Y841250D02*
X308000Y846000D01*
D20*
X317500Y772500D03*
X317500Y747500D03*
D22*
X355000Y350000D02*
X355000Y317500D01*
X355000Y350000D02*
X467500Y462500D01*
X467500Y591250D01*
X695000Y818750D01*
X726250Y850000D02*
X726250Y876250D01*
X778750Y928750D01*
X355000Y317500D02*
X354100Y317400D01*
X778750Y928750D02*
X777800Y929700D01*
D20*
X695000Y818750D03*
X726250Y850000D03*
D22*
X473750Y573750D02*
X473750Y370000D01*
X473750Y573750D02*
X707500Y807500D01*
X750000Y850000D02*
X750000Y873750D01*
X802500Y926250D01*
X802500Y928750D01*
X473750Y370000D02*
X472900Y368900D01*
X802500Y928750D02*
X803200Y929700D01*
D20*
X707500Y807500D03*
X750000Y850000D03*
D21*
X937500Y548750D02*
X937500Y442500D01*
X937500Y548750D02*
X937500Y576250D01*
X936400Y577400D01*
X937500Y442500D02*
X936690Y441700D01*
X788750Y651250D02*
X788750Y667500D01*
X788750Y651250D02*
X866250Y573750D01*
X866250Y561250D01*
X878750Y548750D01*
X937500Y548750D01*
X788750Y667500D02*
X788720Y668340D01*
X790000Y458750D02*
X790000Y438750D01*
X790000Y458750D02*
X876250Y545000D01*
X790000Y438750D02*
X789020Y437840D01*
X876250Y545000D02*
X878750Y548750D01*
D22*
X247500Y698750D02*
X232500Y713750D01*
X232500Y723750D01*
X247500Y738750D01*
X296250Y738750D01*
X333750Y776250D01*
X776250Y776250D02*
X778750Y776250D01*
X780000Y775000D01*
X795000Y775000D01*
X935000Y915000D01*
X935000Y967500D01*
X925000Y977500D01*
X248300Y698000D02*
X247500Y698750D01*
D20*
X333750Y776250D03*
X776250Y776250D03*
X925000Y977500D03*
D22*
X486250Y865000D02*
X486250Y730000D01*
X486250Y865000D02*
X513750Y892500D01*
D20*
X486250Y730000D03*
X513750Y892500D03*
D22*
X631250Y857500D02*
X412500Y638750D01*
X768750Y857500D02*
X823750Y912500D01*
X838750Y912500D01*
X855000Y928750D01*
X854000Y929700D01*
D20*
X412500Y638750D03*
X631250Y857500D03*
X768750Y857500D03*
D22*
X287500Y637500D02*
X268750Y618750D01*
X287500Y637500D02*
X287500Y686250D01*
X308750Y707500D02*
X308750Y712500D01*
X356250Y760000D01*
X356250Y807500D01*
X333750Y897500D02*
X385000Y948750D01*
X385000Y950000D01*
X385000Y972500D02*
X395000Y982500D01*
X408750Y982500D01*
X411250Y985000D01*
X521250Y985000D01*
X550000Y956250D01*
X268750Y618750D02*
X268300Y618000D01*
X549200Y955100D02*
X550000Y956250D01*
D20*
X287500Y686250D03*
X308750Y707500D03*
X356250Y807500D03*
X333750Y897500D03*
X385000Y950000D03*
X385000Y972500D03*
D22*
X800000Y768750D02*
X928750Y897500D01*
D20*
X800000Y768750D03*
X928750Y897500D03*
D22*
X642500Y857500D02*
X492500Y707500D01*
X642500Y857500D02*
X642500Y872500D01*
D20*
X492500Y707500D03*
X642500Y872500D03*
D22*
X247500Y638750D02*
X216250Y670000D01*
X216250Y832500D01*
X213750Y835000D01*
X213750Y888750D01*
X233750Y908750D01*
X310000Y908750D01*
X312500Y911250D01*
X323750Y911250D01*
X247500Y638750D02*
X248300Y638000D01*
D20*
X323750Y911250D03*
D22*
X420000Y761250D02*
X420000Y695000D01*
X420000Y761250D02*
X468750Y810000D01*
X468750Y857500D02*
X468750Y892500D01*
D20*
X420000Y695000D03*
X468750Y810000D03*
X468750Y857500D03*
X468750Y892500D03*
D22*
X461250Y811250D02*
X365000Y715000D01*
X461250Y811250D02*
X461250Y813750D01*
X468750Y821250D01*
X468750Y843750D01*
X420000Y892500D01*
X407500Y903750D02*
X407500Y963750D01*
X416250Y972500D01*
X480000Y972500D01*
X497500Y955000D01*
X498400Y955100D01*
D20*
X365000Y715000D03*
X420000Y892500D03*
X407500Y903750D03*
D22*
X307500Y725000D02*
X307500Y722500D01*
X307500Y725000D02*
X341250Y758750D01*
X341250Y812500D01*
X332500Y821250D01*
X332500Y843750D01*
X371250Y882500D01*
X371250Y903750D02*
X371250Y925000D01*
X398750Y952500D01*
X398750Y963750D01*
X413750Y978750D01*
X502500Y978750D01*
X525000Y956250D01*
X523800Y955100D01*
D20*
X307500Y722500D03*
X371250Y882500D03*
X371250Y903750D03*
D22*
X247500Y855000D02*
X245000Y855000D01*
X232500Y867500D01*
X232500Y880000D01*
X242500Y890000D01*
X393750Y890000D01*
X247700Y854400D02*
X247500Y855000D01*
D20*
X393750Y890000D03*
D22*
X247500Y835000D02*
X226250Y856250D01*
X226250Y882500D01*
X240000Y896250D01*
X320000Y896250D01*
X396250Y972500D01*
X247500Y835000D02*
X247700Y834400D01*
D20*
X396250Y972500D03*
D22*
X222500Y851250D02*
X222500Y837500D01*
X222500Y851250D02*
X220000Y853750D01*
X220000Y886250D01*
X236250Y902500D01*
X315000Y902500D01*
X316250Y903750D01*
X802500Y865000D02*
X813750Y865000D01*
X878750Y930000D01*
X879400Y929700D01*
D20*
X222500Y837500D03*
X316250Y903750D03*
X802500Y865000D03*
D22*
X632500Y873750D02*
X496250Y737500D01*
D20*
X496250Y737500D03*
X632500Y873750D03*
D22*
X247500Y775000D02*
X232500Y790000D01*
X232500Y838750D01*
X232500Y926250D02*
X277500Y971250D01*
X326250Y971250D01*
X355000Y942500D01*
X378750Y918750D02*
X378750Y897500D01*
X247500Y775000D02*
X247700Y774400D01*
D20*
X232500Y838750D03*
X232500Y926250D03*
X355000Y942500D03*
X378750Y918750D03*
X378750Y897500D03*
D22*
X302500Y800000D02*
X268750Y833750D01*
X518750Y800000D02*
X616250Y897500D01*
X268750Y833750D02*
X267700Y834400D01*
D20*
X302500Y800000D03*
X518750Y800000D03*
X616250Y897500D03*
D22*
X415000Y900000D02*
X340000Y825000D01*
X415000Y900000D02*
X537500Y900000D01*
X540000Y897500D01*
D20*
X340000Y825000D03*
X540000Y897500D03*
D22*
X791250Y791250D02*
X922500Y922500D01*
X922500Y960000D01*
X910000Y972500D01*
X691250Y972500D01*
X675000Y956250D01*
X676200Y955100D01*
D20*
X791250Y791250D03*
D22*
X303750Y557500D02*
X303750Y521250D01*
X303750Y557500D02*
X395000Y648750D01*
X407500Y648750D01*
X478750Y720000D01*
X478750Y892500D01*
X303750Y521250D02*
X303600Y520900D01*
D20*
X478750Y892500D03*
D22*
X805000Y905000D02*
X828750Y928750D01*
X828600Y929700D01*
D20*
X805000Y905000D03*
D21*
X442500Y908750D02*
X422500Y928750D01*
X442500Y908750D02*
X607500Y908750D01*
X614375Y915625D02*
X625000Y926250D01*
X614375Y915625D02*
X607500Y908750D01*
X625000Y926250D02*
X625000Y928750D01*
X422500Y928750D02*
X422200Y929700D01*
X625000Y928750D02*
X625400Y929700D01*
X925000Y605000D02*
X910000Y590000D01*
X925000Y605000D02*
X1033750Y713750D01*
X910000Y590000D02*
X910000Y577500D01*
X1033750Y713750D02*
X1034900Y714500D01*
X911000Y577400D02*
X910000Y577500D01*
X925000Y605000D02*
X614375Y915625D01*
D22*
X783750Y782500D02*
X793750Y782500D01*
X928750Y917500D01*
X928750Y962500D01*
X912500Y978750D01*
X650000Y978750D01*
X626250Y955000D01*
X625400Y955100D01*
D20*
X783750Y782500D03*
M02*
