G04 EAGLE Gerber RS-274X export*
G75*
%MOMM*%
%FSLAX34Y34*%
%LPD*%
%INTop Copper*%
%IPPOS*%
%AMOC8*
5,1,8,0,0,1.08239X$1,22.5*%
G01*
%ADD10C,1.422400*%
%ADD11C,1.879600*%
%ADD12P,1.814519X8X22.500000*%
%ADD13P,1.429621X8X112.500000*%
%ADD14P,1.429621X8X292.500000*%
%ADD15R,2.500000X2.500000*%
%ADD16C,2.819400*%
%ADD17C,1.508000*%
%ADD18C,1.676400*%
%ADD19P,1.539592X8X112.500000*%
%ADD20C,1.000000*%
%ADD21C,0.400000*%
%ADD22C,0.756400*%

G36*
X857524Y299013D02*
X857524Y299013D01*
X857620Y299029D01*
X857716Y299038D01*
X857740Y299049D01*
X857766Y299053D01*
X857852Y299098D01*
X857941Y299138D01*
X857960Y299156D01*
X857984Y299168D01*
X858051Y299239D01*
X858122Y299304D01*
X858135Y299327D01*
X858153Y299347D01*
X858194Y299435D01*
X858241Y299520D01*
X858245Y299546D01*
X858256Y299570D01*
X858267Y299666D01*
X858284Y299762D01*
X858281Y299788D01*
X858283Y299814D01*
X858263Y299909D01*
X858249Y300005D01*
X858237Y300029D01*
X858231Y300055D01*
X858181Y300138D01*
X858137Y300224D01*
X858118Y300243D01*
X858105Y300266D01*
X858031Y300328D01*
X857961Y300397D01*
X857932Y300413D01*
X857918Y300425D01*
X857887Y300438D01*
X857815Y300478D01*
X855451Y301457D01*
X851057Y305851D01*
X848678Y311593D01*
X848678Y317807D01*
X851057Y323549D01*
X855451Y327943D01*
X861193Y330322D01*
X867407Y330322D01*
X873149Y327943D01*
X877543Y323549D01*
X879922Y317807D01*
X879922Y311593D01*
X877543Y305851D01*
X873149Y301457D01*
X870808Y300487D01*
X870725Y300435D01*
X870639Y300390D01*
X870621Y300371D01*
X870599Y300357D01*
X870537Y300282D01*
X870470Y300211D01*
X870459Y300188D01*
X870442Y300168D01*
X870407Y300077D01*
X870366Y299988D01*
X870363Y299962D01*
X870354Y299938D01*
X870350Y299841D01*
X870339Y299744D01*
X870345Y299718D01*
X870344Y299692D01*
X870371Y299598D01*
X870392Y299503D01*
X870405Y299481D01*
X870412Y299456D01*
X870468Y299376D01*
X870518Y299292D01*
X870538Y299275D01*
X870552Y299254D01*
X870631Y299196D01*
X870705Y299132D01*
X870729Y299123D01*
X870750Y299107D01*
X870843Y299077D01*
X870933Y299041D01*
X870965Y299037D01*
X870984Y299031D01*
X871017Y299031D01*
X871100Y299022D01*
X908239Y299048D01*
X908335Y299064D01*
X908432Y299073D01*
X908456Y299084D01*
X908482Y299088D01*
X908568Y299133D01*
X908657Y299173D01*
X908676Y299191D01*
X908699Y299203D01*
X908766Y299274D01*
X908838Y299339D01*
X908850Y299362D01*
X908869Y299382D01*
X908909Y299470D01*
X908956Y299555D01*
X908961Y299581D01*
X908972Y299605D01*
X908983Y299701D01*
X909000Y299797D01*
X908996Y299823D01*
X908999Y299849D01*
X908978Y299944D01*
X908964Y300040D01*
X908952Y300064D01*
X908947Y300089D01*
X908897Y300173D01*
X908853Y300259D01*
X908834Y300278D01*
X908820Y300301D01*
X908747Y300363D01*
X908677Y300432D01*
X908648Y300448D01*
X908633Y300460D01*
X908603Y300473D01*
X908530Y300512D01*
X906251Y301457D01*
X901857Y305851D01*
X899478Y311593D01*
X899478Y317807D01*
X901857Y323549D01*
X906251Y327943D01*
X911993Y330322D01*
X918207Y330322D01*
X923949Y327943D01*
X928343Y323549D01*
X930722Y317807D01*
X930722Y311593D01*
X928343Y305851D01*
X923949Y301457D01*
X921693Y300522D01*
X921610Y300470D01*
X921523Y300425D01*
X921506Y300406D01*
X921484Y300392D01*
X921421Y300317D01*
X921354Y300246D01*
X921343Y300223D01*
X921327Y300203D01*
X921292Y300112D01*
X921251Y300023D01*
X921248Y299997D01*
X921239Y299973D01*
X921234Y299876D01*
X921224Y299779D01*
X921229Y299753D01*
X921228Y299727D01*
X921255Y299634D01*
X921276Y299538D01*
X921290Y299516D01*
X921297Y299491D01*
X921352Y299411D01*
X921403Y299327D01*
X921422Y299311D01*
X921437Y299289D01*
X921516Y299231D01*
X921590Y299168D01*
X921614Y299158D01*
X921634Y299142D01*
X921727Y299112D01*
X921818Y299076D01*
X921850Y299072D01*
X921868Y299066D01*
X921901Y299067D01*
X921985Y299057D01*
X1061079Y299153D01*
X1061098Y299156D01*
X1061117Y299154D01*
X1061219Y299176D01*
X1061321Y299193D01*
X1061339Y299202D01*
X1061358Y299206D01*
X1061447Y299260D01*
X1061539Y299308D01*
X1061552Y299323D01*
X1061569Y299333D01*
X1061636Y299412D01*
X1061708Y299487D01*
X1061716Y299505D01*
X1061729Y299520D01*
X1061768Y299616D01*
X1061811Y299710D01*
X1061813Y299729D01*
X1061821Y299748D01*
X1061839Y299914D01*
X1061839Y988071D01*
X1061836Y988090D01*
X1061838Y988111D01*
X1061816Y988212D01*
X1061800Y988313D01*
X1061790Y988331D01*
X1061786Y988351D01*
X1061733Y988440D01*
X1061684Y988531D01*
X1061670Y988545D01*
X1061659Y988562D01*
X1061581Y988629D01*
X1061506Y988700D01*
X1061488Y988709D01*
X1061472Y988722D01*
X1061377Y988760D01*
X1061283Y988804D01*
X1061263Y988806D01*
X1061244Y988813D01*
X1061077Y988832D01*
X608302Y988520D01*
X608232Y988508D01*
X608160Y988506D01*
X608111Y988488D01*
X608059Y988480D01*
X607996Y988447D01*
X607929Y988422D01*
X607888Y988389D01*
X607842Y988365D01*
X607793Y988313D01*
X607737Y988268D01*
X607709Y988224D01*
X607673Y988186D01*
X607643Y988122D01*
X607604Y988061D01*
X607591Y988011D01*
X607569Y987963D01*
X607562Y987892D01*
X607544Y987823D01*
X607548Y987771D01*
X607543Y987719D01*
X607558Y987649D01*
X607563Y987578D01*
X607584Y987530D01*
X607595Y987478D01*
X607632Y987417D01*
X607660Y987351D01*
X607705Y987295D01*
X607721Y987267D01*
X607739Y987252D01*
X607764Y987220D01*
X611955Y983030D01*
X612029Y982977D01*
X612098Y982917D01*
X612129Y982905D01*
X612155Y982886D01*
X612242Y982859D01*
X612327Y982825D01*
X612368Y982821D01*
X612390Y982814D01*
X612422Y982815D01*
X612493Y982807D01*
X614698Y982807D01*
X617807Y979698D01*
X617807Y975302D01*
X614698Y972193D01*
X613379Y972193D01*
X613309Y972182D01*
X613237Y972180D01*
X613188Y972162D01*
X613137Y972154D01*
X613073Y972120D01*
X613006Y972095D01*
X612965Y972063D01*
X612919Y972038D01*
X612870Y971987D01*
X612814Y971942D01*
X612786Y971898D01*
X612750Y971860D01*
X612720Y971795D01*
X612681Y971735D01*
X612668Y971684D01*
X612646Y971637D01*
X612638Y971566D01*
X612621Y971496D01*
X612625Y971444D01*
X612619Y971393D01*
X612634Y971322D01*
X612640Y971251D01*
X612660Y971203D01*
X612671Y971152D01*
X612708Y971091D01*
X612736Y971025D01*
X612781Y970969D01*
X612797Y970941D01*
X612815Y970926D01*
X612841Y970894D01*
X618968Y964767D01*
X619062Y964699D01*
X619156Y964629D01*
X619162Y964627D01*
X619167Y964623D01*
X619278Y964589D01*
X619390Y964553D01*
X619397Y964553D01*
X619403Y964551D01*
X619519Y964554D01*
X619636Y964555D01*
X619643Y964557D01*
X619648Y964557D01*
X619666Y964564D01*
X619797Y964602D01*
X623227Y966023D01*
X627573Y966023D01*
X631587Y964360D01*
X634660Y961287D01*
X636323Y957273D01*
X636323Y952927D01*
X634660Y948913D01*
X631587Y945840D01*
X627573Y944177D01*
X623227Y944177D01*
X619213Y945840D01*
X616140Y948913D01*
X614477Y952927D01*
X614477Y957273D01*
X614873Y958228D01*
X614899Y958341D01*
X614928Y958455D01*
X614928Y958461D01*
X614929Y958467D01*
X614918Y958584D01*
X614909Y958700D01*
X614907Y958706D01*
X614906Y958712D01*
X614858Y958820D01*
X614813Y958926D01*
X614808Y958932D01*
X614806Y958937D01*
X614793Y958951D01*
X614708Y959057D01*
X598763Y975002D01*
X598689Y975055D01*
X598620Y975115D01*
X598589Y975127D01*
X598563Y975146D01*
X598476Y975173D01*
X598391Y975207D01*
X598350Y975211D01*
X598328Y975218D01*
X598296Y975217D01*
X598225Y975225D01*
X587847Y975225D01*
X587777Y975214D01*
X587705Y975212D01*
X587656Y975194D01*
X587605Y975186D01*
X587541Y975152D01*
X587474Y975127D01*
X587433Y975095D01*
X587387Y975070D01*
X587338Y975019D01*
X587282Y974974D01*
X587254Y974930D01*
X587218Y974892D01*
X587188Y974827D01*
X587149Y974767D01*
X587136Y974716D01*
X587114Y974669D01*
X587106Y974598D01*
X587089Y974528D01*
X587093Y974476D01*
X587087Y974425D01*
X587102Y974354D01*
X587108Y974283D01*
X587128Y974235D01*
X587139Y974184D01*
X587176Y974123D01*
X587204Y974057D01*
X587249Y974001D01*
X587265Y973973D01*
X587283Y973958D01*
X587309Y973926D01*
X595618Y965616D01*
X595712Y965549D01*
X595726Y965538D01*
X595732Y965534D01*
X595734Y965533D01*
X595807Y965478D01*
X595813Y965476D01*
X595818Y965473D01*
X595929Y965439D01*
X596041Y965402D01*
X596047Y965402D01*
X596053Y965400D01*
X596170Y965404D01*
X596287Y965405D01*
X596294Y965407D01*
X596299Y965407D01*
X596317Y965413D01*
X596448Y965451D01*
X597827Y966023D01*
X602173Y966023D01*
X606187Y964360D01*
X609260Y961287D01*
X610923Y957273D01*
X610923Y952927D01*
X609260Y948913D01*
X606187Y945840D01*
X602173Y944177D01*
X597827Y944177D01*
X593813Y945840D01*
X590740Y948913D01*
X589077Y952927D01*
X589077Y957273D01*
X590322Y960278D01*
X590349Y960392D01*
X590378Y960506D01*
X590377Y960512D01*
X590378Y960518D01*
X590367Y960634D01*
X590358Y960751D01*
X590356Y960756D01*
X590355Y960763D01*
X590308Y960870D01*
X590262Y960977D01*
X590257Y960983D01*
X590255Y960987D01*
X590243Y961001D01*
X590157Y961108D01*
X582513Y968752D01*
X582439Y968805D01*
X582370Y968865D01*
X582339Y968877D01*
X582313Y968896D01*
X582226Y968923D01*
X582141Y968957D01*
X582100Y968961D01*
X582078Y968968D01*
X582046Y968967D01*
X581975Y968975D01*
X418025Y968975D01*
X417935Y968961D01*
X417844Y968953D01*
X417815Y968941D01*
X417783Y968936D01*
X417702Y968893D01*
X417618Y968857D01*
X417586Y968831D01*
X417565Y968820D01*
X417543Y968797D01*
X417487Y968752D01*
X339809Y891074D01*
X339767Y891016D01*
X339718Y890964D01*
X339696Y890917D01*
X339665Y890875D01*
X339644Y890806D01*
X339614Y890741D01*
X339608Y890689D01*
X339593Y890639D01*
X339595Y890568D01*
X339587Y890497D01*
X339598Y890446D01*
X339599Y890394D01*
X339624Y890326D01*
X339639Y890256D01*
X339666Y890212D01*
X339684Y890163D01*
X339729Y890107D01*
X339765Y890045D01*
X339805Y890011D01*
X339838Y889971D01*
X339898Y889932D01*
X339952Y889885D01*
X340001Y889866D01*
X340045Y889838D01*
X340114Y889820D01*
X340181Y889793D01*
X340252Y889785D01*
X340283Y889777D01*
X340306Y889779D01*
X340347Y889775D01*
X385705Y889775D01*
X385795Y889789D01*
X385886Y889797D01*
X385915Y889809D01*
X385947Y889814D01*
X386028Y889857D01*
X386112Y889893D01*
X386144Y889919D01*
X386165Y889930D01*
X386187Y889953D01*
X386243Y889998D01*
X387802Y891557D01*
X392198Y891557D01*
X395307Y888448D01*
X395307Y887129D01*
X395318Y887059D01*
X395320Y886987D01*
X395338Y886938D01*
X395346Y886887D01*
X395380Y886823D01*
X395405Y886756D01*
X395437Y886715D01*
X395462Y886669D01*
X395514Y886620D01*
X395558Y886564D01*
X395602Y886536D01*
X395640Y886500D01*
X395705Y886470D01*
X395765Y886431D01*
X395816Y886418D01*
X395863Y886396D01*
X395934Y886388D01*
X396004Y886371D01*
X396056Y886375D01*
X396107Y886369D01*
X396178Y886384D01*
X396249Y886390D01*
X396297Y886410D01*
X396348Y886421D01*
X396409Y886458D01*
X396475Y886486D01*
X396531Y886531D01*
X396559Y886547D01*
X396574Y886565D01*
X396606Y886591D01*
X410002Y899987D01*
X412290Y902275D01*
X437910Y902275D01*
X437981Y902286D01*
X438053Y902288D01*
X438102Y902306D01*
X438153Y902314D01*
X438216Y902348D01*
X438284Y902373D01*
X438324Y902405D01*
X438370Y902430D01*
X438420Y902482D01*
X438476Y902526D01*
X438504Y902570D01*
X438540Y902608D01*
X438570Y902673D01*
X438609Y902733D01*
X438621Y902784D01*
X438643Y902831D01*
X438651Y902902D01*
X438669Y902972D01*
X438665Y903024D01*
X438670Y903075D01*
X438655Y903146D01*
X438650Y903217D01*
X438629Y903265D01*
X438618Y903316D01*
X438581Y903377D01*
X438553Y903443D01*
X438508Y903499D01*
X438492Y903527D01*
X438474Y903542D01*
X438448Y903574D01*
X436862Y905161D01*
X423468Y918554D01*
X423394Y918607D01*
X423325Y918667D01*
X423295Y918679D01*
X423269Y918698D01*
X423182Y918725D01*
X423097Y918759D01*
X423056Y918763D01*
X423034Y918770D01*
X423001Y918769D01*
X422930Y918777D01*
X420027Y918777D01*
X416013Y920440D01*
X412940Y923513D01*
X411277Y927527D01*
X411277Y931873D01*
X412940Y935887D01*
X416013Y938960D01*
X420027Y940623D01*
X424373Y940623D01*
X428387Y938960D01*
X431460Y935887D01*
X433123Y931873D01*
X433123Y927670D01*
X433137Y927580D01*
X433145Y927489D01*
X433157Y927459D01*
X433162Y927427D01*
X433205Y927347D01*
X433241Y927263D01*
X433267Y927230D01*
X433278Y927210D01*
X433301Y927188D01*
X433346Y927132D01*
X436607Y923871D01*
X436686Y923814D01*
X436761Y923752D01*
X436785Y923742D01*
X436806Y923727D01*
X436900Y923698D01*
X436990Y923664D01*
X437016Y923662D01*
X437042Y923655D01*
X437139Y923657D01*
X437236Y923653D01*
X437261Y923660D01*
X437287Y923661D01*
X437379Y923695D01*
X437472Y923722D01*
X437494Y923737D01*
X437518Y923746D01*
X437595Y923806D01*
X437674Y923862D01*
X437690Y923883D01*
X437710Y923899D01*
X437763Y923981D01*
X437821Y924059D01*
X437829Y924084D01*
X437843Y924106D01*
X437867Y924201D01*
X437897Y924293D01*
X437897Y924319D01*
X437904Y924345D01*
X437896Y924442D01*
X437895Y924539D01*
X437886Y924571D01*
X437884Y924590D01*
X437872Y924620D01*
X437848Y924700D01*
X436677Y927527D01*
X436677Y931873D01*
X438340Y935887D01*
X441413Y938960D01*
X445427Y940623D01*
X449773Y940623D01*
X453787Y938960D01*
X456860Y935887D01*
X458523Y931873D01*
X458523Y927527D01*
X456860Y923513D01*
X453787Y920440D01*
X449773Y918777D01*
X445427Y918777D01*
X442600Y919948D01*
X442506Y919971D01*
X442412Y919999D01*
X442386Y919998D01*
X442361Y920004D01*
X442264Y919995D01*
X442166Y919993D01*
X442142Y919984D01*
X442116Y919981D01*
X442027Y919942D01*
X441935Y919908D01*
X441915Y919892D01*
X441891Y919881D01*
X441819Y919815D01*
X441743Y919755D01*
X441729Y919733D01*
X441710Y919715D01*
X441663Y919630D01*
X441610Y919548D01*
X441604Y919522D01*
X441591Y919499D01*
X441574Y919404D01*
X441550Y919309D01*
X441552Y919283D01*
X441548Y919257D01*
X441562Y919161D01*
X441570Y919064D01*
X441580Y919040D01*
X441584Y919014D01*
X441628Y918927D01*
X441666Y918838D01*
X441686Y918812D01*
X441695Y918795D01*
X441719Y918772D01*
X441771Y918707D01*
X444980Y915498D01*
X445054Y915445D01*
X445123Y915385D01*
X445153Y915373D01*
X445179Y915354D01*
X445267Y915327D01*
X445351Y915293D01*
X445392Y915289D01*
X445414Y915282D01*
X445447Y915283D01*
X445518Y915275D01*
X604482Y915275D01*
X604572Y915289D01*
X604663Y915297D01*
X604693Y915309D01*
X604725Y915314D01*
X604805Y915357D01*
X604889Y915393D01*
X604921Y915419D01*
X604942Y915430D01*
X604964Y915453D01*
X605020Y915498D01*
X610786Y921263D01*
X614871Y925348D01*
X614940Y925444D01*
X615009Y925537D01*
X615011Y925543D01*
X615015Y925548D01*
X615049Y925660D01*
X615085Y925771D01*
X615085Y925777D01*
X615087Y925783D01*
X615084Y925900D01*
X615083Y926017D01*
X615081Y926024D01*
X615081Y926029D01*
X615074Y926047D01*
X615036Y926178D01*
X614477Y927527D01*
X614477Y931873D01*
X616140Y935887D01*
X619213Y938960D01*
X623227Y940623D01*
X627573Y940623D01*
X631587Y938960D01*
X634660Y935887D01*
X636323Y931873D01*
X636323Y927527D01*
X634660Y923513D01*
X631587Y920440D01*
X627573Y918777D01*
X627070Y918777D01*
X626980Y918763D01*
X626889Y918755D01*
X626859Y918743D01*
X626827Y918738D01*
X626747Y918695D01*
X626663Y918659D01*
X626630Y918633D01*
X626610Y918622D01*
X626588Y918599D01*
X626532Y918554D01*
X624141Y916163D01*
X624129Y916147D01*
X624113Y916135D01*
X624057Y916047D01*
X623997Y915964D01*
X623991Y915945D01*
X623980Y915928D01*
X623955Y915827D01*
X623925Y915728D01*
X623925Y915709D01*
X623920Y915689D01*
X623928Y915586D01*
X623931Y915483D01*
X623938Y915464D01*
X623940Y915444D01*
X623980Y915349D01*
X624016Y915252D01*
X624028Y915236D01*
X624036Y915218D01*
X624141Y915087D01*
X628394Y910834D01*
X628452Y910792D01*
X628504Y910742D01*
X628523Y910734D01*
X628535Y910724D01*
X628562Y910712D01*
X628593Y910690D01*
X628662Y910669D01*
X628727Y910639D01*
X628752Y910636D01*
X628763Y910632D01*
X628795Y910628D01*
X628829Y910618D01*
X628878Y910619D01*
X628929Y910613D01*
X628932Y910613D01*
X628942Y910615D01*
X628971Y910612D01*
X629022Y910623D01*
X629074Y910624D01*
X629136Y910647D01*
X629175Y910653D01*
X629184Y910658D01*
X629212Y910664D01*
X629257Y910691D01*
X629305Y910709D01*
X629356Y910749D01*
X629392Y910768D01*
X629400Y910776D01*
X629423Y910790D01*
X629457Y910830D01*
X629497Y910862D01*
X629531Y910914D01*
X629562Y910946D01*
X629567Y910959D01*
X629583Y910977D01*
X629602Y911025D01*
X629630Y911069D01*
X629645Y911125D01*
X629665Y911169D01*
X629667Y911186D01*
X629675Y911205D01*
X629683Y911277D01*
X629691Y911308D01*
X629689Y911331D01*
X629693Y911372D01*
X629693Y914698D01*
X632802Y917807D01*
X637198Y917807D01*
X638757Y916248D01*
X638831Y916195D01*
X638901Y916135D01*
X638931Y916123D01*
X638957Y916104D01*
X639044Y916077D01*
X639129Y916043D01*
X639170Y916039D01*
X639192Y916032D01*
X639224Y916033D01*
X639295Y916025D01*
X859475Y916025D01*
X859565Y916039D01*
X859656Y916047D01*
X859685Y916059D01*
X859717Y916064D01*
X859798Y916107D01*
X859882Y916143D01*
X859914Y916169D01*
X859935Y916180D01*
X859957Y916203D01*
X860013Y916248D01*
X868942Y925177D01*
X869011Y925272D01*
X869080Y925366D01*
X869082Y925372D01*
X869086Y925377D01*
X869120Y925488D01*
X869156Y925599D01*
X869156Y925606D01*
X869158Y925612D01*
X869155Y925728D01*
X869154Y925845D01*
X869152Y925853D01*
X869152Y925858D01*
X869145Y925875D01*
X869107Y926007D01*
X868477Y927527D01*
X868477Y931873D01*
X870140Y935887D01*
X873213Y938960D01*
X877227Y940623D01*
X881573Y940623D01*
X885587Y938960D01*
X888660Y935887D01*
X890323Y931873D01*
X890323Y927527D01*
X888660Y923513D01*
X885587Y920440D01*
X881573Y918777D01*
X877227Y918777D01*
X874363Y919964D01*
X874249Y919990D01*
X874136Y920019D01*
X874130Y920018D01*
X874124Y920020D01*
X874007Y920009D01*
X873891Y920000D01*
X873885Y919997D01*
X873879Y919997D01*
X873771Y919949D01*
X873664Y919903D01*
X873659Y919899D01*
X873654Y919897D01*
X873640Y919884D01*
X873533Y919799D01*
X862710Y908975D01*
X639295Y908975D01*
X639205Y908961D01*
X639114Y908953D01*
X639085Y908941D01*
X639053Y908936D01*
X638972Y908893D01*
X638888Y908857D01*
X638856Y908831D01*
X638835Y908820D01*
X638813Y908797D01*
X638757Y908752D01*
X637198Y907193D01*
X633872Y907193D01*
X633801Y907182D01*
X633729Y907180D01*
X633680Y907162D01*
X633629Y907154D01*
X633566Y907120D01*
X633498Y907095D01*
X633458Y907063D01*
X633412Y907038D01*
X633362Y906986D01*
X633306Y906942D01*
X633278Y906898D01*
X633242Y906860D01*
X633212Y906795D01*
X633173Y906735D01*
X633161Y906684D01*
X633139Y906637D01*
X633131Y906566D01*
X633113Y906496D01*
X633117Y906444D01*
X633112Y906393D01*
X633127Y906322D01*
X633132Y906251D01*
X633153Y906203D01*
X633164Y906152D01*
X633201Y906091D01*
X633229Y906025D01*
X633274Y905969D01*
X633290Y905941D01*
X633308Y905926D01*
X633334Y905894D01*
X916089Y623138D01*
X918031Y621196D01*
X919025Y618798D01*
X919025Y592083D01*
X919039Y591993D01*
X919047Y591902D01*
X919059Y591872D01*
X919064Y591840D01*
X919107Y591760D01*
X919143Y591675D01*
X919169Y591643D01*
X919180Y591623D01*
X919203Y591601D01*
X919248Y591544D01*
X919399Y591394D01*
X920907Y587753D01*
X920907Y567047D01*
X919399Y563406D01*
X916612Y560619D01*
X912971Y559111D01*
X909029Y559111D01*
X905388Y560619D01*
X902601Y563406D01*
X901093Y567047D01*
X901093Y587753D01*
X902601Y591394D01*
X905388Y594181D01*
X905505Y594229D01*
X905604Y594290D01*
X905705Y594351D01*
X905709Y594355D01*
X905714Y594359D01*
X905789Y594448D01*
X905865Y594537D01*
X905867Y594543D01*
X905871Y594548D01*
X905913Y594657D01*
X905957Y594766D01*
X905958Y594773D01*
X905959Y594778D01*
X905960Y594796D01*
X905975Y594932D01*
X905975Y614482D01*
X905969Y614522D01*
X905969Y614526D01*
X905964Y614551D01*
X905961Y614572D01*
X905953Y614663D01*
X905941Y614693D01*
X905936Y614725D01*
X905920Y614755D01*
X905917Y614767D01*
X905890Y614812D01*
X905857Y614889D01*
X905831Y614921D01*
X905820Y614942D01*
X905801Y614960D01*
X905791Y614978D01*
X905776Y614990D01*
X905752Y615020D01*
X719106Y801666D01*
X719048Y801708D01*
X718996Y801758D01*
X718949Y801780D01*
X718907Y801810D01*
X718838Y801831D01*
X718773Y801861D01*
X718721Y801867D01*
X718671Y801882D01*
X718600Y801880D01*
X718529Y801888D01*
X718478Y801877D01*
X718426Y801876D01*
X718358Y801851D01*
X718288Y801836D01*
X718244Y801809D01*
X718195Y801791D01*
X718139Y801747D01*
X718077Y801710D01*
X718043Y801670D01*
X718003Y801638D01*
X717964Y801577D01*
X717917Y801523D01*
X717898Y801475D01*
X717870Y801431D01*
X717852Y801361D01*
X717825Y801295D01*
X717817Y801223D01*
X717809Y801192D01*
X717811Y801169D01*
X717807Y801128D01*
X717807Y799052D01*
X714698Y795943D01*
X712493Y795943D01*
X712403Y795929D01*
X712312Y795921D01*
X712283Y795909D01*
X712251Y795904D01*
X712170Y795861D01*
X712086Y795825D01*
X712054Y795799D01*
X712033Y795788D01*
X712011Y795765D01*
X711955Y795720D01*
X565530Y649295D01*
X565477Y649221D01*
X565417Y649152D01*
X565405Y649121D01*
X565386Y649095D01*
X565359Y649008D01*
X565338Y648954D01*
X565335Y648948D01*
X565335Y648947D01*
X565325Y648923D01*
X565321Y648882D01*
X565314Y648860D01*
X565315Y648828D01*
X565307Y648757D01*
X565307Y646552D01*
X562198Y643443D01*
X557802Y643443D01*
X554693Y646552D01*
X554693Y650948D01*
X557802Y654057D01*
X560007Y654057D01*
X560097Y654071D01*
X560188Y654079D01*
X560217Y654091D01*
X560249Y654096D01*
X560330Y654139D01*
X560414Y654175D01*
X560446Y654201D01*
X560467Y654212D01*
X560480Y654226D01*
X560482Y654227D01*
X560492Y654237D01*
X560545Y654280D01*
X706970Y800705D01*
X707023Y800779D01*
X707083Y800848D01*
X707095Y800879D01*
X707114Y800905D01*
X707141Y800992D01*
X707175Y801077D01*
X707179Y801118D01*
X707186Y801140D01*
X707185Y801172D01*
X707193Y801243D01*
X707193Y802682D01*
X707190Y802702D01*
X707192Y802721D01*
X707170Y802823D01*
X707154Y802925D01*
X707144Y802942D01*
X707140Y802962D01*
X707087Y803051D01*
X707038Y803142D01*
X707024Y803156D01*
X707014Y803173D01*
X706935Y803240D01*
X706860Y803312D01*
X706842Y803320D01*
X706827Y803333D01*
X706731Y803372D01*
X706637Y803415D01*
X706617Y803417D01*
X706599Y803425D01*
X706432Y803443D01*
X704052Y803443D01*
X702493Y805002D01*
X702419Y805055D01*
X702349Y805115D01*
X702319Y805127D01*
X702293Y805146D01*
X702206Y805173D01*
X702121Y805207D01*
X702080Y805211D01*
X702058Y805218D01*
X702026Y805217D01*
X701955Y805225D01*
X658025Y805225D01*
X657935Y805211D01*
X657844Y805203D01*
X657815Y805191D01*
X657783Y805186D01*
X657702Y805143D01*
X657618Y805107D01*
X657586Y805081D01*
X657565Y805070D01*
X657543Y805047D01*
X657487Y805002D01*
X503748Y651263D01*
X503695Y651189D01*
X503635Y651120D01*
X503623Y651089D01*
X503604Y651063D01*
X503577Y650976D01*
X503543Y650891D01*
X503539Y650850D01*
X503532Y650828D01*
X503533Y650796D01*
X503525Y650725D01*
X503525Y617290D01*
X383960Y497725D01*
X322769Y497725D01*
X322655Y497706D01*
X322539Y497689D01*
X322533Y497687D01*
X322527Y497686D01*
X322424Y497631D01*
X322319Y497578D01*
X322315Y497573D01*
X322309Y497570D01*
X322230Y497486D01*
X322147Y497402D01*
X322143Y497396D01*
X322140Y497392D01*
X322132Y497375D01*
X322066Y497255D01*
X321325Y495465D01*
X318775Y492915D01*
X315443Y491535D01*
X296757Y491535D01*
X293425Y492915D01*
X290875Y495465D01*
X289495Y498797D01*
X289495Y502403D01*
X290875Y505735D01*
X293425Y508285D01*
X296757Y509665D01*
X315443Y509665D01*
X318775Y508285D01*
X321325Y505735D01*
X321528Y505245D01*
X321589Y505145D01*
X321649Y505045D01*
X321654Y505041D01*
X321657Y505036D01*
X321747Y504961D01*
X321836Y504885D01*
X321842Y504883D01*
X321847Y504879D01*
X321956Y504837D01*
X322064Y504793D01*
X322072Y504792D01*
X322076Y504791D01*
X322095Y504790D01*
X322231Y504775D01*
X380725Y504775D01*
X380815Y504789D01*
X380906Y504797D01*
X380935Y504809D01*
X380967Y504814D01*
X381048Y504857D01*
X381132Y504893D01*
X381164Y504919D01*
X381185Y504930D01*
X381207Y504953D01*
X381263Y504998D01*
X496252Y619987D01*
X496305Y620061D01*
X496365Y620130D01*
X496377Y620161D01*
X496396Y620187D01*
X496423Y620274D01*
X496457Y620359D01*
X496461Y620400D01*
X496468Y620422D01*
X496467Y620454D01*
X496475Y620525D01*
X496475Y653960D01*
X654790Y812275D01*
X701955Y812275D01*
X702045Y812289D01*
X702136Y812297D01*
X702165Y812309D01*
X702197Y812314D01*
X702278Y812357D01*
X702362Y812393D01*
X702394Y812419D01*
X702415Y812430D01*
X702437Y812453D01*
X702493Y812498D01*
X704052Y814057D01*
X704878Y814057D01*
X704949Y814068D01*
X705021Y814070D01*
X705070Y814088D01*
X705121Y814096D01*
X705184Y814130D01*
X705252Y814155D01*
X705292Y814187D01*
X705338Y814212D01*
X705388Y814263D01*
X705444Y814308D01*
X705472Y814352D01*
X705508Y814390D01*
X705538Y814455D01*
X705577Y814515D01*
X705589Y814566D01*
X705611Y814613D01*
X705619Y814684D01*
X705637Y814754D01*
X705633Y814806D01*
X705638Y814857D01*
X705623Y814928D01*
X705618Y814999D01*
X705597Y815047D01*
X705586Y815098D01*
X705549Y815159D01*
X705521Y815225D01*
X705476Y815281D01*
X705460Y815309D01*
X705442Y815324D01*
X705416Y815356D01*
X645356Y875416D01*
X645298Y875458D01*
X645246Y875508D01*
X645199Y875530D01*
X645157Y875560D01*
X645088Y875581D01*
X645023Y875611D01*
X644971Y875617D01*
X644921Y875632D01*
X644850Y875630D01*
X644779Y875638D01*
X644728Y875627D01*
X644676Y875626D01*
X644608Y875601D01*
X644538Y875586D01*
X644494Y875559D01*
X644445Y875541D01*
X644389Y875497D01*
X644327Y875460D01*
X644293Y875420D01*
X644253Y875388D01*
X644214Y875327D01*
X644167Y875273D01*
X644148Y875225D01*
X644120Y875181D01*
X644102Y875111D01*
X644075Y875045D01*
X644067Y874973D01*
X644059Y874942D01*
X644061Y874919D01*
X644057Y874878D01*
X644057Y872802D01*
X640948Y869693D01*
X636552Y869693D01*
X634993Y871252D01*
X634919Y871305D01*
X634849Y871365D01*
X634819Y871377D01*
X634793Y871396D01*
X634706Y871423D01*
X634621Y871457D01*
X634580Y871461D01*
X634558Y871468D01*
X634526Y871467D01*
X634455Y871475D01*
X617867Y871475D01*
X617797Y871464D01*
X617725Y871462D01*
X617676Y871444D01*
X617625Y871436D01*
X617561Y871402D01*
X617494Y871377D01*
X617453Y871345D01*
X617407Y871320D01*
X617358Y871268D01*
X617302Y871224D01*
X617274Y871180D01*
X617238Y871142D01*
X617208Y871077D01*
X617169Y871017D01*
X617156Y870966D01*
X617134Y870919D01*
X617126Y870848D01*
X617109Y870778D01*
X617113Y870726D01*
X617107Y870675D01*
X617122Y870604D01*
X617128Y870533D01*
X617148Y870485D01*
X617159Y870434D01*
X617196Y870373D01*
X617224Y870307D01*
X617269Y870251D01*
X617286Y870223D01*
X617303Y870208D01*
X617329Y870176D01*
X617807Y869698D01*
X617807Y865302D01*
X614698Y862193D01*
X612493Y862193D01*
X612403Y862179D01*
X612312Y862171D01*
X612283Y862159D01*
X612251Y862154D01*
X612170Y862111D01*
X612086Y862075D01*
X612054Y862049D01*
X612033Y862038D01*
X612011Y862015D01*
X611955Y861970D01*
X491460Y741475D01*
X444295Y741475D01*
X444205Y741461D01*
X444114Y741453D01*
X444085Y741441D01*
X444053Y741436D01*
X443972Y741393D01*
X443888Y741357D01*
X443856Y741331D01*
X443835Y741320D01*
X443813Y741297D01*
X443757Y741252D01*
X442198Y739693D01*
X437802Y739693D01*
X434693Y742802D01*
X434693Y747198D01*
X437802Y750307D01*
X442198Y750307D01*
X443757Y748748D01*
X443831Y748695D01*
X443901Y748635D01*
X443931Y748623D01*
X443957Y748604D01*
X444044Y748577D01*
X444129Y748543D01*
X444170Y748539D01*
X444192Y748532D01*
X444224Y748533D01*
X444295Y748525D01*
X488225Y748525D01*
X488315Y748539D01*
X488406Y748547D01*
X488435Y748559D01*
X488467Y748564D01*
X488548Y748607D01*
X488632Y748643D01*
X488664Y748669D01*
X488685Y748680D01*
X488707Y748703D01*
X488763Y748748D01*
X518941Y778926D01*
X518983Y778984D01*
X519032Y779036D01*
X519054Y779083D01*
X519085Y779125D01*
X519106Y779194D01*
X519136Y779259D01*
X519142Y779311D01*
X519157Y779361D01*
X519155Y779432D01*
X519163Y779503D01*
X519152Y779554D01*
X519151Y779606D01*
X519126Y779674D01*
X519111Y779744D01*
X519084Y779789D01*
X519066Y779837D01*
X519021Y779893D01*
X518985Y779955D01*
X518945Y779989D01*
X518912Y780029D01*
X518852Y780068D01*
X518798Y780115D01*
X518749Y780134D01*
X518705Y780162D01*
X518636Y780180D01*
X518569Y780207D01*
X518498Y780215D01*
X518467Y780223D01*
X518444Y780221D01*
X518403Y780225D01*
X493045Y780225D01*
X492955Y780211D01*
X492864Y780203D01*
X492835Y780191D01*
X492803Y780186D01*
X492722Y780143D01*
X492638Y780107D01*
X492606Y780081D01*
X492585Y780070D01*
X492563Y780047D01*
X492507Y780002D01*
X490948Y778443D01*
X486552Y778443D01*
X483443Y781552D01*
X483443Y785948D01*
X486552Y789057D01*
X490948Y789057D01*
X492507Y787498D01*
X492581Y787445D01*
X492651Y787385D01*
X492681Y787373D01*
X492707Y787354D01*
X492794Y787327D01*
X492879Y787293D01*
X492920Y787289D01*
X492942Y787282D01*
X492974Y787283D01*
X493045Y787275D01*
X515725Y787275D01*
X515815Y787289D01*
X515906Y787297D01*
X515935Y787309D01*
X515967Y787314D01*
X516048Y787357D01*
X516132Y787393D01*
X516164Y787419D01*
X516185Y787430D01*
X516199Y787445D01*
X516201Y787446D01*
X516210Y787456D01*
X516263Y787498D01*
X518409Y789644D01*
X518451Y789702D01*
X518500Y789754D01*
X518522Y789801D01*
X518553Y789843D01*
X518574Y789912D01*
X518604Y789977D01*
X518610Y790029D01*
X518625Y790079D01*
X518623Y790150D01*
X518631Y790221D01*
X518620Y790272D01*
X518619Y790324D01*
X518594Y790392D01*
X518579Y790462D01*
X518552Y790507D01*
X518534Y790555D01*
X518489Y790611D01*
X518453Y790673D01*
X518413Y790707D01*
X518380Y790747D01*
X518320Y790786D01*
X518266Y790833D01*
X518217Y790852D01*
X518173Y790880D01*
X518104Y790898D01*
X518037Y790925D01*
X517966Y790933D01*
X517935Y790941D01*
X517912Y790939D01*
X517871Y790943D01*
X516552Y790943D01*
X514993Y792502D01*
X514919Y792555D01*
X514849Y792615D01*
X514819Y792627D01*
X514793Y792646D01*
X514706Y792673D01*
X514621Y792707D01*
X514580Y792711D01*
X514558Y792718D01*
X514526Y792717D01*
X514455Y792725D01*
X493045Y792725D01*
X492955Y792711D01*
X492864Y792703D01*
X492835Y792691D01*
X492803Y792686D01*
X492722Y792643D01*
X492638Y792607D01*
X492606Y792581D01*
X492585Y792570D01*
X492563Y792547D01*
X492507Y792502D01*
X490948Y790943D01*
X486552Y790943D01*
X483443Y794052D01*
X483443Y798448D01*
X486552Y801557D01*
X490948Y801557D01*
X492507Y799998D01*
X492581Y799945D01*
X492651Y799885D01*
X492681Y799873D01*
X492707Y799854D01*
X492794Y799827D01*
X492879Y799793D01*
X492920Y799789D01*
X492942Y799782D01*
X492974Y799783D01*
X493045Y799775D01*
X514455Y799775D01*
X514545Y799789D01*
X514636Y799797D01*
X514665Y799809D01*
X514697Y799814D01*
X514778Y799857D01*
X514862Y799893D01*
X514894Y799919D01*
X514915Y799930D01*
X514937Y799953D01*
X514993Y799998D01*
X516552Y801557D01*
X520948Y801557D01*
X524057Y798448D01*
X524057Y797129D01*
X524068Y797059D01*
X524070Y796987D01*
X524088Y796938D01*
X524096Y796887D01*
X524130Y796823D01*
X524155Y796756D01*
X524187Y796715D01*
X524212Y796669D01*
X524263Y796620D01*
X524308Y796564D01*
X524352Y796536D01*
X524390Y796500D01*
X524455Y796470D01*
X524515Y796431D01*
X524566Y796418D01*
X524613Y796396D01*
X524684Y796388D01*
X524754Y796371D01*
X524806Y796375D01*
X524857Y796369D01*
X524928Y796384D01*
X524999Y796390D01*
X525047Y796410D01*
X525098Y796421D01*
X525159Y796458D01*
X525225Y796486D01*
X525281Y796531D01*
X525309Y796547D01*
X525324Y796565D01*
X525356Y796591D01*
X601441Y872676D01*
X601483Y872734D01*
X601532Y872786D01*
X601554Y872833D01*
X601585Y872875D01*
X601606Y872944D01*
X601636Y873009D01*
X601642Y873061D01*
X601657Y873111D01*
X601655Y873182D01*
X601663Y873253D01*
X601652Y873304D01*
X601651Y873356D01*
X601626Y873424D01*
X601611Y873494D01*
X601584Y873538D01*
X601566Y873587D01*
X601521Y873643D01*
X601485Y873705D01*
X601445Y873739D01*
X601412Y873779D01*
X601352Y873818D01*
X601298Y873865D01*
X601249Y873884D01*
X601205Y873912D01*
X601136Y873930D01*
X601069Y873957D01*
X600998Y873965D01*
X600967Y873973D01*
X600944Y873971D01*
X600903Y873975D01*
X535367Y873975D01*
X535297Y873964D01*
X535225Y873962D01*
X535176Y873944D01*
X535125Y873936D01*
X535061Y873902D01*
X534994Y873877D01*
X534953Y873845D01*
X534907Y873820D01*
X534858Y873768D01*
X534802Y873724D01*
X534774Y873680D01*
X534738Y873642D01*
X534708Y873577D01*
X534669Y873517D01*
X534656Y873466D01*
X534634Y873419D01*
X534626Y873348D01*
X534609Y873278D01*
X534613Y873226D01*
X534607Y873175D01*
X534622Y873104D01*
X534628Y873033D01*
X534648Y872985D01*
X534659Y872934D01*
X534696Y872873D01*
X534724Y872807D01*
X534769Y872751D01*
X534786Y872723D01*
X534803Y872708D01*
X534829Y872676D01*
X535307Y872198D01*
X535307Y867802D01*
X532198Y864693D01*
X529993Y864693D01*
X529903Y864679D01*
X529812Y864671D01*
X529783Y864659D01*
X529751Y864654D01*
X529670Y864611D01*
X529586Y864575D01*
X529554Y864549D01*
X529533Y864538D01*
X529511Y864515D01*
X529455Y864470D01*
X475341Y810356D01*
X475299Y810298D01*
X475250Y810246D01*
X475228Y810199D01*
X475197Y810157D01*
X475176Y810088D01*
X475146Y810023D01*
X475140Y809971D01*
X475125Y809921D01*
X475127Y809850D01*
X475119Y809779D01*
X475130Y809728D01*
X475131Y809676D01*
X475156Y809608D01*
X475171Y809538D01*
X475198Y809494D01*
X475216Y809445D01*
X475261Y809389D01*
X475297Y809327D01*
X475337Y809293D01*
X475370Y809253D01*
X475430Y809214D01*
X475484Y809167D01*
X475533Y809148D01*
X475577Y809120D01*
X475646Y809102D01*
X475713Y809075D01*
X475784Y809067D01*
X475815Y809059D01*
X475838Y809061D01*
X475879Y809057D01*
X477198Y809057D01*
X480307Y805948D01*
X480307Y801552D01*
X477198Y798443D01*
X474993Y798443D01*
X474903Y798429D01*
X474812Y798421D01*
X474783Y798409D01*
X474751Y798404D01*
X474670Y798361D01*
X474586Y798325D01*
X474554Y798299D01*
X474533Y798288D01*
X474511Y798265D01*
X474455Y798220D01*
X378030Y701795D01*
X377986Y701734D01*
X377951Y701698D01*
X377945Y701684D01*
X377917Y701652D01*
X377905Y701621D01*
X377886Y701595D01*
X377859Y701508D01*
X377825Y701423D01*
X377821Y701382D01*
X377814Y701360D01*
X377815Y701328D01*
X377807Y701257D01*
X377807Y699052D01*
X374698Y695943D01*
X370302Y695943D01*
X368663Y697582D01*
X368647Y697593D01*
X368635Y697609D01*
X368547Y697665D01*
X368464Y697725D01*
X368445Y697731D01*
X368428Y697742D01*
X368327Y697767D01*
X368228Y697798D01*
X368209Y697797D01*
X368189Y697802D01*
X368086Y697794D01*
X367983Y697791D01*
X367964Y697785D01*
X367944Y697783D01*
X367849Y697743D01*
X367752Y697707D01*
X367736Y697694D01*
X367718Y697687D01*
X367587Y697582D01*
X364698Y694693D01*
X360302Y694693D01*
X357193Y697802D01*
X357193Y699121D01*
X357182Y699191D01*
X357180Y699263D01*
X357162Y699312D01*
X357154Y699363D01*
X357120Y699427D01*
X357095Y699494D01*
X357063Y699535D01*
X357038Y699581D01*
X356986Y699630D01*
X356942Y699686D01*
X356898Y699714D01*
X356860Y699750D01*
X356795Y699780D01*
X356735Y699819D01*
X356684Y699832D01*
X356637Y699854D01*
X356566Y699862D01*
X356496Y699879D01*
X356444Y699875D01*
X356393Y699881D01*
X356322Y699866D01*
X356251Y699860D01*
X356203Y699840D01*
X356152Y699829D01*
X356091Y699792D01*
X356025Y699764D01*
X355969Y699719D01*
X355941Y699703D01*
X355926Y699685D01*
X355894Y699659D01*
X354280Y698045D01*
X354227Y697971D01*
X354167Y697902D01*
X354155Y697871D01*
X354136Y697845D01*
X354109Y697758D01*
X354075Y697673D01*
X354071Y697632D01*
X354064Y697610D01*
X354065Y697578D01*
X354057Y697507D01*
X354057Y695302D01*
X350948Y692193D01*
X350122Y692193D01*
X350051Y692182D01*
X349979Y692180D01*
X349930Y692162D01*
X349879Y692154D01*
X349816Y692120D01*
X349748Y692095D01*
X349708Y692063D01*
X349662Y692038D01*
X349612Y691987D01*
X349556Y691942D01*
X349528Y691898D01*
X349492Y691860D01*
X349462Y691795D01*
X349423Y691735D01*
X349411Y691684D01*
X349389Y691637D01*
X349381Y691566D01*
X349363Y691496D01*
X349367Y691444D01*
X349362Y691393D01*
X349377Y691322D01*
X349382Y691251D01*
X349403Y691203D01*
X349414Y691152D01*
X349451Y691091D01*
X349479Y691025D01*
X349524Y690969D01*
X349540Y690941D01*
X349558Y690926D01*
X349584Y690894D01*
X349980Y690498D01*
X350054Y690444D01*
X350123Y690385D01*
X350153Y690373D01*
X350179Y690354D01*
X350267Y690327D01*
X350351Y690293D01*
X350392Y690289D01*
X350415Y690282D01*
X350447Y690283D01*
X350518Y690275D01*
X376298Y690275D01*
X378696Y689281D01*
X385390Y682588D01*
X385464Y682535D01*
X385533Y682475D01*
X385563Y682463D01*
X385589Y682444D01*
X385676Y682417D01*
X385761Y682383D01*
X385802Y682379D01*
X385824Y682372D01*
X385857Y682373D01*
X385928Y682365D01*
X405612Y682365D01*
X406505Y681472D01*
X406505Y655208D01*
X405612Y654315D01*
X379348Y654315D01*
X378455Y655208D01*
X378455Y670752D01*
X378441Y670842D01*
X378433Y670933D01*
X378421Y670963D01*
X378416Y670995D01*
X378373Y671075D01*
X378337Y671159D01*
X378311Y671191D01*
X378300Y671212D01*
X378277Y671234D01*
X378232Y671290D01*
X372520Y677002D01*
X372446Y677055D01*
X372377Y677115D01*
X372347Y677127D01*
X372321Y677146D01*
X372234Y677173D01*
X372149Y677207D01*
X372108Y677211D01*
X372086Y677218D01*
X372053Y677217D01*
X371982Y677225D01*
X349617Y677225D01*
X349547Y677214D01*
X349475Y677212D01*
X349426Y677194D01*
X349375Y677186D01*
X349311Y677152D01*
X349244Y677127D01*
X349203Y677095D01*
X349157Y677070D01*
X349108Y677019D01*
X349052Y676974D01*
X349024Y676930D01*
X348988Y676892D01*
X348958Y676827D01*
X348919Y676767D01*
X348906Y676716D01*
X348884Y676669D01*
X348876Y676598D01*
X348859Y676528D01*
X348863Y676476D01*
X348857Y676425D01*
X348872Y676354D01*
X348878Y676283D01*
X348898Y676235D01*
X348909Y676184D01*
X348946Y676123D01*
X348974Y676057D01*
X349019Y676001D01*
X349036Y675973D01*
X349053Y675958D01*
X349057Y675954D01*
X349057Y671552D01*
X345948Y668443D01*
X343743Y668443D01*
X343653Y668429D01*
X343562Y668421D01*
X343533Y668409D01*
X343501Y668404D01*
X343420Y668361D01*
X343336Y668325D01*
X343304Y668299D01*
X343283Y668288D01*
X343261Y668265D01*
X343205Y668220D01*
X275210Y600225D01*
X274127Y600225D01*
X274056Y600214D01*
X273984Y600212D01*
X273935Y600194D01*
X273884Y600186D01*
X273821Y600152D01*
X273753Y600127D01*
X273713Y600095D01*
X273667Y600070D01*
X273617Y600018D01*
X273561Y599974D01*
X273533Y599930D01*
X273497Y599892D01*
X273467Y599827D01*
X273428Y599767D01*
X273416Y599716D01*
X273394Y599669D01*
X273386Y599598D01*
X273368Y599528D01*
X273372Y599476D01*
X273366Y599425D01*
X273382Y599354D01*
X273387Y599283D01*
X273408Y599235D01*
X273419Y599184D01*
X273456Y599123D01*
X273484Y599057D01*
X273528Y599001D01*
X273545Y598973D01*
X273563Y598958D01*
X273588Y598926D01*
X276337Y596177D01*
X276337Y589023D01*
X273388Y586074D01*
X273347Y586016D01*
X273297Y585964D01*
X273275Y585917D01*
X273245Y585875D01*
X273224Y585806D01*
X273194Y585741D01*
X273188Y585689D01*
X273173Y585639D01*
X273174Y585568D01*
X273166Y585497D01*
X273178Y585446D01*
X273179Y585394D01*
X273204Y585326D01*
X273219Y585256D01*
X273245Y585211D01*
X273263Y585163D01*
X273308Y585107D01*
X273345Y585045D01*
X273384Y585011D01*
X273417Y584971D01*
X273477Y584932D01*
X273532Y584885D01*
X273580Y584866D01*
X273624Y584838D01*
X273693Y584820D01*
X273760Y584793D01*
X273831Y584785D01*
X273862Y584777D01*
X273886Y584779D01*
X273927Y584775D01*
X274475Y584775D01*
X274565Y584789D01*
X274656Y584797D01*
X274685Y584809D01*
X274717Y584814D01*
X274798Y584857D01*
X274882Y584893D01*
X274914Y584919D01*
X274935Y584930D01*
X274956Y584952D01*
X274958Y584953D01*
X274962Y584957D01*
X275013Y584998D01*
X358220Y668205D01*
X358273Y668279D01*
X358333Y668348D01*
X358345Y668379D01*
X358364Y668405D01*
X358391Y668492D01*
X358425Y668577D01*
X358429Y668618D01*
X358436Y668640D01*
X358435Y668672D01*
X358443Y668743D01*
X358443Y670948D01*
X361552Y674057D01*
X365948Y674057D01*
X369057Y670948D01*
X369057Y666552D01*
X365948Y663443D01*
X363743Y663443D01*
X363653Y663429D01*
X363562Y663421D01*
X363533Y663409D01*
X363501Y663404D01*
X363420Y663361D01*
X363336Y663325D01*
X363304Y663299D01*
X363283Y663288D01*
X363261Y663265D01*
X363205Y663220D01*
X277710Y577725D01*
X263025Y577725D01*
X262935Y577711D01*
X262844Y577703D01*
X262815Y577691D01*
X262783Y577686D01*
X262702Y577643D01*
X262618Y577607D01*
X262586Y577581D01*
X262565Y577570D01*
X262543Y577547D01*
X262487Y577502D01*
X251160Y566175D01*
X251107Y566101D01*
X251047Y566032D01*
X251035Y566001D01*
X251016Y565975D01*
X250989Y565888D01*
X250955Y565803D01*
X250951Y565762D01*
X250944Y565740D01*
X250945Y565708D01*
X250937Y565637D01*
X250937Y563623D01*
X247138Y559824D01*
X247097Y559766D01*
X247047Y559714D01*
X247025Y559667D01*
X246995Y559625D01*
X246974Y559556D01*
X246944Y559491D01*
X246938Y559439D01*
X246923Y559389D01*
X246924Y559318D01*
X246916Y559247D01*
X246928Y559196D01*
X246929Y559144D01*
X246954Y559076D01*
X246969Y559006D01*
X246995Y558961D01*
X247013Y558913D01*
X247058Y558857D01*
X247095Y558795D01*
X247134Y558761D01*
X247167Y558721D01*
X247227Y558682D01*
X247282Y558635D01*
X247330Y558616D01*
X247374Y558588D01*
X247443Y558570D01*
X247510Y558543D01*
X247581Y558535D01*
X247612Y558527D01*
X247636Y558529D01*
X247677Y558525D01*
X248225Y558525D01*
X248315Y558539D01*
X248406Y558547D01*
X248435Y558559D01*
X248467Y558564D01*
X248548Y558607D01*
X248632Y558643D01*
X248664Y558669D01*
X248685Y558680D01*
X248707Y558703D01*
X248763Y558748D01*
X258840Y568825D01*
X258893Y568899D01*
X258953Y568968D01*
X258965Y568999D01*
X258984Y569025D01*
X259011Y569112D01*
X259045Y569197D01*
X259049Y569238D01*
X259056Y569260D01*
X259055Y569292D01*
X259063Y569363D01*
X259063Y570777D01*
X264123Y575837D01*
X271277Y575837D01*
X276337Y570777D01*
X276337Y563623D01*
X271277Y558563D01*
X264123Y558563D01*
X261874Y560812D01*
X261857Y560824D01*
X261845Y560839D01*
X261758Y560896D01*
X261674Y560956D01*
X261655Y560962D01*
X261638Y560972D01*
X261537Y560998D01*
X261439Y561028D01*
X261419Y561028D01*
X261399Y561033D01*
X261297Y561024D01*
X261193Y561022D01*
X261174Y561015D01*
X261154Y561013D01*
X261060Y560973D01*
X260962Y560937D01*
X260946Y560925D01*
X260928Y560917D01*
X260797Y560812D01*
X253748Y553763D01*
X251460Y551475D01*
X245338Y551475D01*
X245242Y551460D01*
X245145Y551450D01*
X245121Y551440D01*
X245095Y551436D01*
X245009Y551390D01*
X244920Y551350D01*
X244901Y551333D01*
X244878Y551320D01*
X244811Y551250D01*
X244739Y551184D01*
X244726Y551161D01*
X244708Y551142D01*
X244667Y551054D01*
X244620Y550968D01*
X244616Y550943D01*
X244605Y550919D01*
X244594Y550822D01*
X244577Y550726D01*
X244580Y550700D01*
X244578Y550675D01*
X244598Y550579D01*
X244612Y550483D01*
X244624Y550460D01*
X244630Y550434D01*
X244680Y550351D01*
X244724Y550264D01*
X244743Y550245D01*
X244756Y550223D01*
X244830Y550160D01*
X244899Y550092D01*
X244928Y550076D01*
X244943Y550063D01*
X244974Y550051D01*
X245046Y550011D01*
X247192Y549122D01*
X249622Y546692D01*
X250937Y543518D01*
X250937Y540082D01*
X249622Y536908D01*
X247192Y534478D01*
X244018Y533163D01*
X240582Y533163D01*
X237408Y534478D01*
X234978Y536908D01*
X233663Y540082D01*
X233663Y543518D01*
X234978Y546692D01*
X237408Y549122D01*
X239554Y550011D01*
X239637Y550062D01*
X239722Y550108D01*
X239740Y550126D01*
X239763Y550140D01*
X239825Y550216D01*
X239892Y550286D01*
X239903Y550310D01*
X239919Y550330D01*
X239954Y550421D01*
X239995Y550509D01*
X239998Y550535D01*
X240008Y550559D01*
X240012Y550657D01*
X240022Y550753D01*
X240017Y550779D01*
X240018Y550805D01*
X239991Y550899D01*
X239970Y550994D01*
X239957Y551016D01*
X239950Y551041D01*
X239894Y551121D01*
X239844Y551205D01*
X239824Y551222D01*
X239809Y551243D01*
X239731Y551302D01*
X239657Y551365D01*
X239633Y551375D01*
X239612Y551390D01*
X239519Y551420D01*
X239429Y551457D01*
X239397Y551460D01*
X239378Y551466D01*
X239345Y551466D01*
X239262Y551475D01*
X233540Y551475D01*
X222725Y562290D01*
X222725Y729455D01*
X222723Y729467D01*
X222724Y729475D01*
X222715Y729519D01*
X222711Y729545D01*
X222703Y729636D01*
X222691Y729665D01*
X222686Y729697D01*
X222643Y729778D01*
X222607Y729862D01*
X222581Y729894D01*
X222570Y729915D01*
X222547Y729937D01*
X222502Y729993D01*
X220943Y731552D01*
X220943Y735948D01*
X224052Y739057D01*
X224878Y739057D01*
X224949Y739068D01*
X225021Y739070D01*
X225070Y739088D01*
X225121Y739096D01*
X225184Y739130D01*
X225252Y739155D01*
X225292Y739187D01*
X225338Y739212D01*
X225388Y739264D01*
X225444Y739308D01*
X225472Y739352D01*
X225508Y739390D01*
X225538Y739455D01*
X225577Y739515D01*
X225589Y739566D01*
X225611Y739613D01*
X225619Y739684D01*
X225637Y739754D01*
X225633Y739806D01*
X225638Y739857D01*
X225623Y739928D01*
X225618Y739999D01*
X225597Y740047D01*
X225586Y740098D01*
X225549Y740159D01*
X225521Y740225D01*
X225476Y740281D01*
X225460Y740309D01*
X225442Y740324D01*
X225416Y740356D01*
X216969Y748804D01*
X215975Y751202D01*
X215975Y893798D01*
X216969Y896196D01*
X227002Y906230D01*
X227055Y906304D01*
X227115Y906373D01*
X227127Y906403D01*
X227146Y906429D01*
X227173Y906516D01*
X227207Y906601D01*
X227211Y906642D01*
X227218Y906664D01*
X227217Y906697D01*
X227225Y906768D01*
X227225Y916612D01*
X227211Y916702D01*
X227203Y916793D01*
X227191Y916823D01*
X227186Y916855D01*
X227143Y916936D01*
X227107Y917020D01*
X227081Y917052D01*
X227070Y917072D01*
X227047Y917095D01*
X227002Y917151D01*
X224740Y919413D01*
X223077Y923427D01*
X223077Y927773D01*
X224740Y931787D01*
X227813Y934860D01*
X231827Y936523D01*
X236173Y936523D01*
X240187Y934860D01*
X243260Y931787D01*
X243261Y931785D01*
X243312Y931702D01*
X243358Y931616D01*
X243376Y931598D01*
X243390Y931576D01*
X243465Y931514D01*
X243536Y931447D01*
X243560Y931436D01*
X243580Y931419D01*
X243671Y931384D01*
X243759Y931343D01*
X243785Y931340D01*
X243809Y931331D01*
X243907Y931327D01*
X244003Y931316D01*
X244029Y931322D01*
X244055Y931321D01*
X244149Y931348D01*
X244244Y931368D01*
X244266Y931382D01*
X244291Y931389D01*
X244371Y931445D01*
X244455Y931495D01*
X244472Y931514D01*
X244493Y931529D01*
X244552Y931608D01*
X244615Y931682D01*
X244625Y931706D01*
X244640Y931727D01*
X244670Y931819D01*
X244707Y931910D01*
X244710Y931942D01*
X244716Y931961D01*
X244716Y931993D01*
X244725Y932076D01*
X244725Y933232D01*
X244711Y933322D01*
X244703Y933413D01*
X244691Y933443D01*
X244686Y933475D01*
X244643Y933555D01*
X244607Y933639D01*
X244581Y933671D01*
X244570Y933692D01*
X244547Y933714D01*
X244502Y933770D01*
X237963Y940310D01*
X237867Y940379D01*
X237774Y940448D01*
X237768Y940450D01*
X237763Y940454D01*
X237651Y940488D01*
X237540Y940524D01*
X237534Y940524D01*
X237528Y940526D01*
X237411Y940523D01*
X237294Y940522D01*
X237287Y940520D01*
X237282Y940520D01*
X237265Y940513D01*
X237133Y940475D01*
X236173Y940077D01*
X231827Y940077D01*
X227813Y941740D01*
X224740Y944813D01*
X223077Y948827D01*
X223077Y953173D01*
X224740Y957187D01*
X227813Y960260D01*
X231827Y961923D01*
X236173Y961923D01*
X240187Y960260D01*
X243260Y957187D01*
X244923Y953173D01*
X244923Y952120D01*
X244937Y952030D01*
X244945Y951939D01*
X244957Y951909D01*
X244962Y951877D01*
X245005Y951797D01*
X245041Y951713D01*
X245067Y951681D01*
X245078Y951660D01*
X245101Y951638D01*
X245146Y951582D01*
X256781Y939946D01*
X257775Y937548D01*
X257775Y934268D01*
X257789Y934178D01*
X257797Y934087D01*
X257809Y934057D01*
X257814Y934025D01*
X257857Y933945D01*
X257893Y933861D01*
X257919Y933829D01*
X257930Y933808D01*
X257953Y933786D01*
X257998Y933730D01*
X271536Y920192D01*
X271622Y920130D01*
X271704Y920064D01*
X271721Y920058D01*
X271736Y920048D01*
X271743Y920046D01*
X271749Y920023D01*
X272775Y917548D01*
X272775Y892655D01*
X272789Y892565D01*
X272797Y892474D01*
X272809Y892444D01*
X272814Y892412D01*
X272857Y892331D01*
X272893Y892247D01*
X272919Y892215D01*
X272930Y892195D01*
X272953Y892172D01*
X272998Y892116D01*
X275337Y889777D01*
X275337Y886706D01*
X275351Y886616D01*
X275359Y886525D01*
X275371Y886495D01*
X275376Y886463D01*
X275419Y886382D01*
X275455Y886299D01*
X275481Y886266D01*
X275492Y886246D01*
X275515Y886224D01*
X275560Y886168D01*
X287144Y874584D01*
X287202Y874542D01*
X287254Y874492D01*
X287301Y874470D01*
X287343Y874440D01*
X287412Y874419D01*
X287477Y874389D01*
X287529Y874383D01*
X287579Y874368D01*
X287650Y874370D01*
X287721Y874362D01*
X287772Y874373D01*
X287824Y874374D01*
X287892Y874399D01*
X287962Y874414D01*
X288006Y874441D01*
X288055Y874459D01*
X288111Y874503D01*
X288173Y874540D01*
X288207Y874580D01*
X288247Y874612D01*
X288286Y874673D01*
X288333Y874727D01*
X288352Y874775D01*
X288380Y874819D01*
X288398Y874889D01*
X288425Y874955D01*
X288433Y875027D01*
X288441Y875058D01*
X288439Y875081D01*
X288443Y875122D01*
X288443Y875948D01*
X291552Y879057D01*
X295948Y879057D01*
X297507Y877498D01*
X297581Y877445D01*
X297651Y877385D01*
X297681Y877373D01*
X297707Y877354D01*
X297794Y877327D01*
X297879Y877293D01*
X297920Y877289D01*
X297942Y877282D01*
X297974Y877283D01*
X298045Y877275D01*
X302682Y877275D01*
X302702Y877278D01*
X302721Y877276D01*
X302823Y877298D01*
X302925Y877314D01*
X302942Y877324D01*
X302962Y877328D01*
X303051Y877381D01*
X303142Y877430D01*
X303156Y877444D01*
X303173Y877454D01*
X303240Y877533D01*
X303312Y877608D01*
X303320Y877626D01*
X303333Y877641D01*
X303372Y877737D01*
X303415Y877831D01*
X303417Y877851D01*
X303425Y877869D01*
X303443Y878036D01*
X303443Y879698D01*
X305171Y881426D01*
X305213Y881484D01*
X305262Y881536D01*
X305284Y881583D01*
X305314Y881625D01*
X305336Y881694D01*
X305366Y881759D01*
X305371Y881811D01*
X305387Y881861D01*
X305385Y881932D01*
X305393Y882003D01*
X305382Y882054D01*
X305380Y882106D01*
X305356Y882174D01*
X305341Y882244D01*
X305314Y882289D01*
X305296Y882337D01*
X305251Y882393D01*
X305214Y882455D01*
X305175Y882489D01*
X305142Y882529D01*
X305082Y882568D01*
X305027Y882615D01*
X304979Y882634D01*
X304935Y882662D01*
X304866Y882680D01*
X304799Y882707D01*
X304728Y882715D01*
X304697Y882723D01*
X304674Y882721D01*
X304633Y882725D01*
X299295Y882725D01*
X299205Y882711D01*
X299114Y882703D01*
X299085Y882691D01*
X299053Y882686D01*
X298972Y882643D01*
X298888Y882607D01*
X298856Y882581D01*
X298835Y882570D01*
X298813Y882547D01*
X298757Y882502D01*
X297198Y880943D01*
X292802Y880943D01*
X289693Y884052D01*
X289693Y888448D01*
X292802Y891557D01*
X297198Y891557D01*
X298757Y889998D01*
X298831Y889945D01*
X298901Y889885D01*
X298931Y889873D01*
X298957Y889854D01*
X299044Y889827D01*
X299129Y889793D01*
X299170Y889789D01*
X299192Y889782D01*
X299224Y889783D01*
X299295Y889775D01*
X310883Y889775D01*
X310953Y889786D01*
X311025Y889788D01*
X311074Y889806D01*
X311125Y889814D01*
X311189Y889848D01*
X311256Y889873D01*
X311297Y889905D01*
X311343Y889930D01*
X311392Y889982D01*
X311448Y890026D01*
X311476Y890070D01*
X311512Y890108D01*
X311542Y890173D01*
X311581Y890233D01*
X311594Y890284D01*
X311616Y890331D01*
X311624Y890402D01*
X311641Y890472D01*
X311637Y890524D01*
X311643Y890575D01*
X311628Y890646D01*
X311622Y890717D01*
X311602Y890765D01*
X311591Y890816D01*
X311554Y890877D01*
X311526Y890943D01*
X311481Y890999D01*
X311464Y891027D01*
X311447Y891042D01*
X311421Y891074D01*
X310943Y891552D01*
X310943Y895948D01*
X313207Y898212D01*
X313218Y898228D01*
X313234Y898240D01*
X313290Y898328D01*
X313350Y898411D01*
X313356Y898430D01*
X313367Y898447D01*
X313392Y898548D01*
X313423Y898647D01*
X313422Y898666D01*
X313427Y898686D01*
X313419Y898789D01*
X313416Y898892D01*
X313410Y898911D01*
X313408Y898931D01*
X313368Y899026D01*
X313332Y899123D01*
X313319Y899139D01*
X313312Y899157D01*
X313207Y899288D01*
X310943Y901552D01*
X310943Y905948D01*
X314052Y909057D01*
X316257Y909057D01*
X316347Y909071D01*
X316438Y909079D01*
X316467Y909091D01*
X316499Y909096D01*
X316580Y909139D01*
X316664Y909175D01*
X316696Y909201D01*
X316717Y909212D01*
X316739Y909235D01*
X316795Y909280D01*
X391252Y983737D01*
X393540Y986025D01*
X406975Y986025D01*
X407065Y986039D01*
X407156Y986047D01*
X407186Y986059D01*
X407217Y986064D01*
X407298Y986107D01*
X407382Y986143D01*
X407414Y986169D01*
X407435Y986180D01*
X407457Y986203D01*
X407513Y986248D01*
X408347Y987082D01*
X408389Y987141D01*
X408439Y987193D01*
X408461Y987240D01*
X408491Y987282D01*
X408512Y987351D01*
X408542Y987416D01*
X408548Y987468D01*
X408563Y987517D01*
X408562Y987589D01*
X408569Y987660D01*
X408558Y987711D01*
X408557Y987763D01*
X408532Y987830D01*
X408517Y987901D01*
X408490Y987945D01*
X408473Y987994D01*
X408428Y988050D01*
X408391Y988112D01*
X408351Y988145D01*
X408319Y988186D01*
X408258Y988225D01*
X408204Y988272D01*
X408156Y988291D01*
X408112Y988319D01*
X408042Y988337D01*
X407975Y988363D01*
X407905Y988371D01*
X407873Y988379D01*
X407850Y988377D01*
X407809Y988382D01*
X211921Y988247D01*
X211902Y988244D01*
X211883Y988246D01*
X211781Y988224D01*
X211679Y988207D01*
X211661Y988198D01*
X211642Y988194D01*
X211553Y988140D01*
X211461Y988092D01*
X211448Y988077D01*
X211431Y988067D01*
X211364Y987988D01*
X211292Y987913D01*
X211284Y987895D01*
X211271Y987880D01*
X211232Y987784D01*
X211189Y987690D01*
X211187Y987671D01*
X211179Y987652D01*
X211161Y987486D01*
X211161Y299329D01*
X211164Y299310D01*
X211162Y299289D01*
X211184Y299188D01*
X211200Y299087D01*
X211210Y299069D01*
X211214Y299049D01*
X211267Y298960D01*
X211316Y298869D01*
X211330Y298855D01*
X211341Y298838D01*
X211419Y298771D01*
X211494Y298700D01*
X211512Y298691D01*
X211528Y298678D01*
X211623Y298640D01*
X211717Y298596D01*
X211737Y298594D01*
X211756Y298587D01*
X211923Y298568D01*
X857524Y299013D01*
G37*
G36*
X342772Y698123D02*
X342772Y698123D01*
X342824Y698124D01*
X342892Y698149D01*
X342962Y698164D01*
X343007Y698191D01*
X343055Y698209D01*
X343111Y698253D01*
X343173Y698290D01*
X343207Y698330D01*
X343247Y698362D01*
X343286Y698423D01*
X343333Y698477D01*
X343352Y698525D01*
X343380Y698569D01*
X343398Y698639D01*
X343425Y698705D01*
X343433Y698776D01*
X343441Y698808D01*
X343439Y698831D01*
X343443Y698872D01*
X343443Y699698D01*
X346552Y702807D01*
X348757Y702807D01*
X348847Y702821D01*
X348938Y702829D01*
X348967Y702841D01*
X348999Y702846D01*
X349080Y702889D01*
X349164Y702925D01*
X349196Y702951D01*
X349217Y702962D01*
X349239Y702985D01*
X349295Y703030D01*
X384659Y738394D01*
X384701Y738452D01*
X384750Y738504D01*
X384772Y738551D01*
X384803Y738593D01*
X384824Y738662D01*
X384854Y738727D01*
X384860Y738779D01*
X384875Y738829D01*
X384873Y738900D01*
X384881Y738971D01*
X384870Y739022D01*
X384869Y739074D01*
X384844Y739142D01*
X384829Y739212D01*
X384802Y739257D01*
X384784Y739305D01*
X384739Y739361D01*
X384703Y739423D01*
X384663Y739457D01*
X384630Y739497D01*
X384570Y739536D01*
X384516Y739583D01*
X384467Y739602D01*
X384423Y739630D01*
X384354Y739648D01*
X384287Y739675D01*
X384216Y739683D01*
X384185Y739691D01*
X384162Y739689D01*
X384121Y739693D01*
X382802Y739693D01*
X381243Y741252D01*
X381169Y741305D01*
X381099Y741365D01*
X381069Y741377D01*
X381043Y741396D01*
X380956Y741423D01*
X380871Y741457D01*
X380830Y741461D01*
X380808Y741468D01*
X380776Y741467D01*
X380705Y741475D01*
X333045Y741475D01*
X332955Y741461D01*
X332864Y741453D01*
X332835Y741441D01*
X332803Y741436D01*
X332722Y741393D01*
X332638Y741357D01*
X332606Y741331D01*
X332585Y741320D01*
X332563Y741297D01*
X332507Y741252D01*
X330948Y739693D01*
X326552Y739693D01*
X323443Y742802D01*
X323443Y747198D01*
X326552Y750307D01*
X330948Y750307D01*
X332507Y748748D01*
X332581Y748695D01*
X332651Y748635D01*
X332681Y748623D01*
X332707Y748604D01*
X332794Y748577D01*
X332879Y748543D01*
X332920Y748539D01*
X332942Y748532D01*
X332974Y748533D01*
X333045Y748525D01*
X380705Y748525D01*
X380795Y748539D01*
X380886Y748547D01*
X380915Y748559D01*
X380947Y748564D01*
X381028Y748607D01*
X381112Y748643D01*
X381144Y748669D01*
X381165Y748680D01*
X381187Y748703D01*
X381243Y748748D01*
X382802Y750307D01*
X387198Y750307D01*
X390307Y747198D01*
X390307Y745879D01*
X390318Y745809D01*
X390320Y745737D01*
X390338Y745688D01*
X390346Y745637D01*
X390380Y745573D01*
X390405Y745506D01*
X390437Y745465D01*
X390462Y745419D01*
X390513Y745370D01*
X390558Y745314D01*
X390602Y745286D01*
X390640Y745250D01*
X390705Y745220D01*
X390765Y745181D01*
X390816Y745168D01*
X390863Y745146D01*
X390934Y745138D01*
X391004Y745121D01*
X391056Y745125D01*
X391107Y745119D01*
X391178Y745134D01*
X391249Y745140D01*
X391297Y745160D01*
X391348Y745171D01*
X391409Y745208D01*
X391475Y745236D01*
X391531Y745281D01*
X391559Y745297D01*
X391574Y745315D01*
X391606Y745341D01*
X416441Y770176D01*
X416483Y770234D01*
X416532Y770286D01*
X416554Y770333D01*
X416585Y770375D01*
X416606Y770444D01*
X416636Y770509D01*
X416642Y770561D01*
X416657Y770611D01*
X416655Y770682D01*
X416663Y770753D01*
X416652Y770804D01*
X416651Y770856D01*
X416626Y770924D01*
X416611Y770994D01*
X416584Y771038D01*
X416566Y771087D01*
X416521Y771143D01*
X416485Y771205D01*
X416445Y771239D01*
X416412Y771279D01*
X416352Y771318D01*
X416298Y771365D01*
X416249Y771384D01*
X416205Y771412D01*
X416136Y771430D01*
X416069Y771457D01*
X415998Y771465D01*
X415967Y771473D01*
X415944Y771471D01*
X415903Y771475D01*
X326795Y771475D01*
X326705Y771461D01*
X326614Y771453D01*
X326585Y771441D01*
X326553Y771436D01*
X326472Y771393D01*
X326388Y771357D01*
X326356Y771331D01*
X326335Y771320D01*
X326313Y771297D01*
X326257Y771252D01*
X324698Y769693D01*
X320302Y769693D01*
X317193Y772802D01*
X317193Y777198D01*
X320302Y780307D01*
X324698Y780307D01*
X326257Y778748D01*
X326331Y778695D01*
X326401Y778635D01*
X326431Y778623D01*
X326457Y778604D01*
X326544Y778577D01*
X326629Y778543D01*
X326670Y778539D01*
X326692Y778532D01*
X326724Y778533D01*
X326795Y778525D01*
X413225Y778525D01*
X413315Y778539D01*
X413406Y778547D01*
X413435Y778559D01*
X413467Y778564D01*
X413548Y778607D01*
X413632Y778643D01*
X413664Y778669D01*
X413685Y778680D01*
X413707Y778703D01*
X413763Y778748D01*
X418220Y783205D01*
X418273Y783279D01*
X418333Y783348D01*
X418345Y783379D01*
X418364Y783405D01*
X418391Y783492D01*
X418425Y783577D01*
X418429Y783618D01*
X418436Y783640D01*
X418435Y783672D01*
X418443Y783743D01*
X418443Y785948D01*
X421552Y789057D01*
X425948Y789057D01*
X429057Y785948D01*
X429057Y784629D01*
X429068Y784559D01*
X429070Y784487D01*
X429088Y784438D01*
X429096Y784387D01*
X429130Y784323D01*
X429155Y784256D01*
X429187Y784215D01*
X429212Y784169D01*
X429264Y784120D01*
X429308Y784064D01*
X429352Y784036D01*
X429390Y784000D01*
X429455Y783970D01*
X429515Y783931D01*
X429566Y783918D01*
X429613Y783896D01*
X429684Y783888D01*
X429754Y783871D01*
X429806Y783875D01*
X429857Y783869D01*
X429928Y783884D01*
X429999Y783890D01*
X430047Y783910D01*
X430098Y783921D01*
X430159Y783958D01*
X430225Y783986D01*
X430281Y784031D01*
X430309Y784047D01*
X430324Y784065D01*
X430356Y784091D01*
X465002Y818737D01*
X465046Y818798D01*
X465081Y818835D01*
X465088Y818849D01*
X465115Y818880D01*
X465127Y818911D01*
X465146Y818937D01*
X465173Y819024D01*
X465207Y819109D01*
X465211Y819150D01*
X465218Y819172D01*
X465217Y819204D01*
X465225Y819275D01*
X465225Y863225D01*
X465211Y863315D01*
X465203Y863406D01*
X465191Y863435D01*
X465186Y863467D01*
X465143Y863548D01*
X465107Y863632D01*
X465081Y863664D01*
X465070Y863685D01*
X465047Y863707D01*
X465002Y863763D01*
X449295Y879470D01*
X449221Y879523D01*
X449152Y879583D01*
X449121Y879595D01*
X449095Y879614D01*
X449008Y879641D01*
X448923Y879675D01*
X448882Y879679D01*
X448860Y879686D01*
X448828Y879685D01*
X448757Y879693D01*
X446552Y879693D01*
X443663Y882582D01*
X443647Y882593D01*
X443635Y882609D01*
X443547Y882665D01*
X443464Y882725D01*
X443445Y882731D01*
X443428Y882742D01*
X443327Y882767D01*
X443228Y882798D01*
X443209Y882797D01*
X443189Y882802D01*
X443086Y882794D01*
X442983Y882791D01*
X442964Y882785D01*
X442944Y882783D01*
X442849Y882743D01*
X442752Y882707D01*
X442736Y882694D01*
X442718Y882687D01*
X442587Y882582D01*
X440948Y880943D01*
X436552Y880943D01*
X433443Y884052D01*
X433443Y888448D01*
X436552Y891557D01*
X438757Y891557D01*
X438847Y891571D01*
X438938Y891579D01*
X438967Y891591D01*
X438999Y891596D01*
X439080Y891639D01*
X439164Y891675D01*
X439196Y891701D01*
X439217Y891712D01*
X439239Y891735D01*
X439240Y891736D01*
X439242Y891737D01*
X439244Y891739D01*
X439295Y891780D01*
X441252Y893737D01*
X441441Y893926D01*
X441483Y893984D01*
X441532Y894036D01*
X441554Y894083D01*
X441585Y894125D01*
X441606Y894194D01*
X441636Y894259D01*
X441642Y894311D01*
X441657Y894360D01*
X441655Y894432D01*
X441663Y894503D01*
X441652Y894554D01*
X441651Y894606D01*
X441626Y894674D01*
X441611Y894744D01*
X441584Y894789D01*
X441566Y894837D01*
X441521Y894893D01*
X441485Y894955D01*
X441445Y894989D01*
X441412Y895029D01*
X441352Y895068D01*
X441298Y895115D01*
X441249Y895134D01*
X441206Y895162D01*
X441136Y895180D01*
X441069Y895207D01*
X440998Y895215D01*
X440967Y895223D01*
X440944Y895221D01*
X440903Y895225D01*
X415525Y895225D01*
X415435Y895211D01*
X415344Y895203D01*
X415315Y895191D01*
X415283Y895186D01*
X415202Y895143D01*
X415118Y895107D01*
X415086Y895081D01*
X415065Y895070D01*
X415043Y895047D01*
X414987Y895002D01*
X355210Y835225D01*
X300545Y835225D01*
X300455Y835211D01*
X300364Y835203D01*
X300335Y835191D01*
X300303Y835186D01*
X300222Y835143D01*
X300138Y835107D01*
X300106Y835081D01*
X300085Y835070D01*
X300063Y835047D01*
X300007Y835002D01*
X298448Y833443D01*
X294052Y833443D01*
X292824Y834671D01*
X292766Y834713D01*
X292714Y834762D01*
X292667Y834784D01*
X292625Y834814D01*
X292556Y834836D01*
X292491Y834866D01*
X292439Y834871D01*
X292389Y834887D01*
X292318Y834885D01*
X292247Y834893D01*
X292196Y834882D01*
X292144Y834880D01*
X292076Y834856D01*
X292006Y834841D01*
X291961Y834814D01*
X291913Y834796D01*
X291857Y834751D01*
X291795Y834714D01*
X291761Y834675D01*
X291721Y834642D01*
X291682Y834582D01*
X291635Y834527D01*
X291616Y834479D01*
X291588Y834435D01*
X291570Y834366D01*
X291543Y834299D01*
X291535Y834228D01*
X291527Y834197D01*
X291529Y834174D01*
X291525Y834133D01*
X291525Y824617D01*
X291536Y824547D01*
X291538Y824475D01*
X291556Y824426D01*
X291564Y824375D01*
X291598Y824311D01*
X291623Y824244D01*
X291655Y824203D01*
X291680Y824157D01*
X291732Y824108D01*
X291776Y824052D01*
X291820Y824024D01*
X291858Y823988D01*
X291923Y823958D01*
X291983Y823919D01*
X292034Y823906D01*
X292081Y823884D01*
X292152Y823876D01*
X292222Y823859D01*
X292274Y823863D01*
X292325Y823857D01*
X292396Y823872D01*
X292467Y823878D01*
X292515Y823898D01*
X292566Y823909D01*
X292627Y823946D01*
X292693Y823974D01*
X292749Y824019D01*
X292777Y824036D01*
X292792Y824053D01*
X292824Y824079D01*
X294052Y825307D01*
X298448Y825307D01*
X300007Y823748D01*
X300081Y823695D01*
X300151Y823635D01*
X300181Y823623D01*
X300207Y823604D01*
X300294Y823577D01*
X300379Y823543D01*
X300420Y823539D01*
X300442Y823532D01*
X300474Y823533D01*
X300545Y823525D01*
X406460Y823525D01*
X428205Y801780D01*
X428279Y801727D01*
X428348Y801667D01*
X428379Y801655D01*
X428405Y801636D01*
X428492Y801609D01*
X428577Y801575D01*
X428618Y801571D01*
X428640Y801564D01*
X428672Y801565D01*
X428743Y801557D01*
X430948Y801557D01*
X434057Y798448D01*
X434057Y794052D01*
X430948Y790943D01*
X426552Y790943D01*
X423443Y794052D01*
X423443Y796257D01*
X423429Y796347D01*
X423421Y796438D01*
X423409Y796467D01*
X423404Y796499D01*
X423361Y796580D01*
X423325Y796664D01*
X423299Y796696D01*
X423288Y796717D01*
X423265Y796739D01*
X423220Y796795D01*
X403763Y816252D01*
X403689Y816305D01*
X403620Y816365D01*
X403589Y816377D01*
X403563Y816396D01*
X403476Y816423D01*
X403391Y816457D01*
X403350Y816461D01*
X403328Y816468D01*
X403296Y816467D01*
X403225Y816475D01*
X300545Y816475D01*
X300455Y816461D01*
X300364Y816453D01*
X300335Y816441D01*
X300303Y816436D01*
X300222Y816393D01*
X300138Y816357D01*
X300106Y816331D01*
X300085Y816320D01*
X300063Y816297D01*
X300007Y816252D01*
X298448Y814693D01*
X294052Y814693D01*
X292824Y815921D01*
X292766Y815963D01*
X292714Y816012D01*
X292667Y816034D01*
X292625Y816064D01*
X292556Y816086D01*
X292491Y816116D01*
X292439Y816121D01*
X292389Y816137D01*
X292318Y816135D01*
X292247Y816143D01*
X292196Y816132D01*
X292144Y816130D01*
X292076Y816106D01*
X292006Y816091D01*
X291961Y816064D01*
X291913Y816046D01*
X291857Y816001D01*
X291795Y815964D01*
X291761Y815925D01*
X291721Y815892D01*
X291682Y815832D01*
X291635Y815777D01*
X291616Y815729D01*
X291588Y815685D01*
X291570Y815616D01*
X291543Y815549D01*
X291535Y815478D01*
X291527Y815447D01*
X291529Y815424D01*
X291525Y815383D01*
X291525Y701036D01*
X291528Y701016D01*
X291526Y700997D01*
X291548Y700895D01*
X291564Y700793D01*
X291574Y700776D01*
X291578Y700756D01*
X291631Y700667D01*
X291680Y700576D01*
X291694Y700562D01*
X291704Y700545D01*
X291783Y700478D01*
X291858Y700406D01*
X291876Y700398D01*
X291891Y700385D01*
X291987Y700346D01*
X292081Y700303D01*
X292101Y700301D01*
X292119Y700293D01*
X292286Y700275D01*
X338798Y700275D01*
X341196Y699281D01*
X342144Y698334D01*
X342202Y698292D01*
X342254Y698242D01*
X342301Y698220D01*
X342343Y698190D01*
X342412Y698169D01*
X342477Y698139D01*
X342529Y698133D01*
X342579Y698118D01*
X342650Y698120D01*
X342721Y698112D01*
X342772Y698123D01*
G37*
G36*
X236994Y558536D02*
X236994Y558536D01*
X237066Y558538D01*
X237115Y558556D01*
X237166Y558564D01*
X237229Y558598D01*
X237297Y558623D01*
X237337Y558655D01*
X237383Y558680D01*
X237433Y558732D01*
X237489Y558776D01*
X237517Y558820D01*
X237553Y558858D01*
X237583Y558923D01*
X237622Y558983D01*
X237634Y559034D01*
X237656Y559081D01*
X237664Y559152D01*
X237682Y559222D01*
X237678Y559274D01*
X237684Y559325D01*
X237668Y559396D01*
X237663Y559467D01*
X237642Y559515D01*
X237631Y559566D01*
X237594Y559627D01*
X237566Y559693D01*
X237522Y559749D01*
X237505Y559777D01*
X237487Y559792D01*
X237462Y559824D01*
X233663Y563623D01*
X233663Y570777D01*
X238723Y575837D01*
X245877Y575837D01*
X247826Y573888D01*
X247843Y573876D01*
X247855Y573861D01*
X247942Y573804D01*
X248026Y573744D01*
X248045Y573738D01*
X248062Y573728D01*
X248163Y573702D01*
X248261Y573672D01*
X248281Y573672D01*
X248301Y573667D01*
X248403Y573676D01*
X248507Y573678D01*
X248526Y573685D01*
X248546Y573687D01*
X248640Y573727D01*
X248738Y573763D01*
X248754Y573775D01*
X248772Y573783D01*
X248903Y573888D01*
X257502Y582487D01*
X259790Y584775D01*
X261473Y584775D01*
X261544Y584786D01*
X261616Y584788D01*
X261665Y584806D01*
X261716Y584814D01*
X261779Y584848D01*
X261847Y584873D01*
X261887Y584905D01*
X261933Y584930D01*
X261983Y584982D01*
X262039Y585026D01*
X262067Y585070D01*
X262103Y585108D01*
X262133Y585173D01*
X262172Y585233D01*
X262184Y585284D01*
X262206Y585331D01*
X262214Y585402D01*
X262232Y585472D01*
X262228Y585524D01*
X262234Y585575D01*
X262218Y585646D01*
X262213Y585717D01*
X262192Y585765D01*
X262181Y585816D01*
X262144Y585877D01*
X262116Y585943D01*
X262072Y585999D01*
X262055Y586027D01*
X262037Y586042D01*
X262034Y586046D01*
X262032Y586050D01*
X262029Y586053D01*
X262012Y586074D01*
X259063Y589023D01*
X259063Y592241D01*
X259052Y592311D01*
X259050Y592383D01*
X259032Y592432D01*
X259024Y592483D01*
X258990Y592547D01*
X258965Y592614D01*
X258933Y592655D01*
X258908Y592701D01*
X258856Y592750D01*
X258812Y592806D01*
X258768Y592834D01*
X258730Y592870D01*
X258665Y592900D01*
X258605Y592939D01*
X258554Y592952D01*
X258507Y592974D01*
X258436Y592982D01*
X258366Y592999D01*
X258314Y592995D01*
X258263Y593001D01*
X258192Y592986D01*
X258121Y592980D01*
X258073Y592960D01*
X258022Y592949D01*
X257961Y592912D01*
X257895Y592884D01*
X257839Y592839D01*
X257811Y592823D01*
X257796Y592805D01*
X257764Y592779D01*
X255210Y590225D01*
X251698Y590225D01*
X251678Y590222D01*
X251659Y590224D01*
X251557Y590202D01*
X251455Y590186D01*
X251438Y590176D01*
X251418Y590172D01*
X251329Y590119D01*
X251238Y590070D01*
X251224Y590056D01*
X251207Y590046D01*
X251140Y589967D01*
X251068Y589892D01*
X251060Y589874D01*
X251047Y589859D01*
X251008Y589763D01*
X250965Y589669D01*
X250963Y589649D01*
X250955Y589631D01*
X250937Y589464D01*
X250937Y589023D01*
X245877Y583963D01*
X238723Y583963D01*
X233663Y589023D01*
X233663Y596177D01*
X238723Y601237D01*
X245877Y601237D01*
X249616Y597498D01*
X249690Y597445D01*
X249760Y597385D01*
X249790Y597373D01*
X249816Y597354D01*
X249903Y597327D01*
X249988Y597293D01*
X250029Y597289D01*
X250051Y597282D01*
X250083Y597283D01*
X250155Y597275D01*
X251975Y597275D01*
X252065Y597289D01*
X252156Y597297D01*
X252185Y597309D01*
X252217Y597314D01*
X252298Y597357D01*
X252382Y597393D01*
X252414Y597419D01*
X252435Y597430D01*
X252457Y597453D01*
X252513Y597498D01*
X262290Y607275D01*
X271975Y607275D01*
X272065Y607289D01*
X272156Y607297D01*
X272185Y607309D01*
X272217Y607314D01*
X272298Y607357D01*
X272382Y607393D01*
X272414Y607419D01*
X272435Y607430D01*
X272457Y607453D01*
X272513Y607498D01*
X338220Y673205D01*
X338273Y673279D01*
X338333Y673348D01*
X338345Y673379D01*
X338364Y673405D01*
X338391Y673492D01*
X338425Y673577D01*
X338429Y673618D01*
X338436Y673640D01*
X338435Y673672D01*
X338443Y673743D01*
X338443Y675948D01*
X341721Y679225D01*
X341732Y679242D01*
X341748Y679254D01*
X341804Y679341D01*
X341864Y679425D01*
X341870Y679444D01*
X341881Y679461D01*
X341906Y679561D01*
X341937Y679660D01*
X341936Y679680D01*
X341941Y679700D01*
X341933Y679802D01*
X341930Y679906D01*
X341923Y679925D01*
X341922Y679945D01*
X341881Y680040D01*
X341846Y680137D01*
X341833Y680153D01*
X341825Y680171D01*
X341721Y680302D01*
X335020Y687002D01*
X334946Y687055D01*
X334877Y687115D01*
X334847Y687127D01*
X334821Y687146D01*
X334734Y687173D01*
X334649Y687207D01*
X334608Y687211D01*
X334586Y687218D01*
X334553Y687217D01*
X334482Y687225D01*
X273255Y687225D01*
X273165Y687211D01*
X273074Y687203D01*
X273044Y687191D01*
X273012Y687186D01*
X272931Y687143D01*
X272847Y687107D01*
X272815Y687081D01*
X272795Y687070D01*
X272772Y687047D01*
X272716Y687002D01*
X271277Y685563D01*
X264123Y685563D01*
X259063Y690623D01*
X259063Y697777D01*
X264123Y702837D01*
X271277Y702837D01*
X273616Y700498D01*
X273690Y700445D01*
X273760Y700385D01*
X273790Y700373D01*
X273816Y700354D01*
X273903Y700327D01*
X273988Y700293D01*
X274029Y700289D01*
X274051Y700282D01*
X274083Y700283D01*
X274155Y700275D01*
X277714Y700275D01*
X277734Y700278D01*
X277753Y700276D01*
X277855Y700298D01*
X277957Y700314D01*
X277974Y700324D01*
X277994Y700328D01*
X278083Y700381D01*
X278174Y700430D01*
X278188Y700444D01*
X278205Y700454D01*
X278272Y700533D01*
X278344Y700608D01*
X278352Y700626D01*
X278365Y700641D01*
X278404Y700737D01*
X278447Y700831D01*
X278449Y700851D01*
X278457Y700869D01*
X278475Y701036D01*
X278475Y864482D01*
X278461Y864572D01*
X278453Y864663D01*
X278441Y864693D01*
X278436Y864725D01*
X278393Y864805D01*
X278357Y864889D01*
X278331Y864921D01*
X278320Y864942D01*
X278297Y864964D01*
X278252Y865020D01*
X266259Y877014D01*
X266223Y877039D01*
X266194Y877072D01*
X266071Y877149D01*
X266059Y877157D01*
X266056Y877158D01*
X266052Y877161D01*
X265994Y877188D01*
X265887Y877309D01*
X265800Y877379D01*
X265714Y877453D01*
X265704Y877457D01*
X265696Y877463D01*
X265591Y877502D01*
X265486Y877545D01*
X265473Y877546D01*
X265466Y877549D01*
X265440Y877550D01*
X265319Y877563D01*
X263123Y877563D01*
X258063Y882623D01*
X258063Y889777D01*
X259502Y891216D01*
X259555Y891290D01*
X259615Y891360D01*
X259627Y891390D01*
X259646Y891416D01*
X259673Y891503D01*
X259707Y891588D01*
X259711Y891629D01*
X259718Y891651D01*
X259717Y891683D01*
X259725Y891755D01*
X259725Y913232D01*
X259711Y913322D01*
X259703Y913413D01*
X259691Y913443D01*
X259686Y913475D01*
X259643Y913555D01*
X259607Y913639D01*
X259581Y913671D01*
X259570Y913692D01*
X259547Y913714D01*
X259502Y913770D01*
X247661Y925612D01*
X246222Y927050D01*
X246164Y927092D01*
X246112Y927142D01*
X246065Y927164D01*
X246023Y927194D01*
X245954Y927215D01*
X245889Y927245D01*
X245837Y927251D01*
X245787Y927266D01*
X245716Y927264D01*
X245645Y927272D01*
X245594Y927261D01*
X245542Y927260D01*
X245474Y927235D01*
X245404Y927220D01*
X245359Y927193D01*
X245311Y927175D01*
X245255Y927131D01*
X245193Y927094D01*
X245159Y927054D01*
X245119Y927022D01*
X245080Y926961D01*
X245033Y926907D01*
X245014Y926859D01*
X244986Y926815D01*
X244968Y926745D01*
X244941Y926679D01*
X244933Y926607D01*
X244925Y926576D01*
X244927Y926553D01*
X244923Y926512D01*
X244923Y923427D01*
X243260Y919413D01*
X240498Y916651D01*
X240445Y916577D01*
X240385Y916507D01*
X240373Y916477D01*
X240354Y916451D01*
X240327Y916364D01*
X240293Y916279D01*
X240289Y916238D01*
X240282Y916216D01*
X240283Y916184D01*
X240275Y916112D01*
X240275Y902452D01*
X239281Y900054D01*
X229248Y890020D01*
X229195Y889946D01*
X229135Y889877D01*
X229123Y889847D01*
X229104Y889821D01*
X229077Y889734D01*
X229043Y889649D01*
X229039Y889608D01*
X229032Y889586D01*
X229033Y889553D01*
X229025Y889482D01*
X229025Y755518D01*
X229039Y755428D01*
X229047Y755337D01*
X229059Y755307D01*
X229064Y755275D01*
X229107Y755195D01*
X229143Y755111D01*
X229169Y755079D01*
X229180Y755058D01*
X229203Y755036D01*
X229248Y754980D01*
X241568Y742660D01*
X241642Y742607D01*
X241711Y742547D01*
X241741Y742535D01*
X241767Y742516D01*
X241854Y742489D01*
X241939Y742455D01*
X241980Y742451D01*
X242002Y742444D01*
X242035Y742445D01*
X242106Y742437D01*
X243018Y742437D01*
X246192Y741122D01*
X248622Y738692D01*
X249937Y735518D01*
X249937Y732082D01*
X248622Y728908D01*
X246192Y726478D01*
X243018Y725163D01*
X239582Y725163D01*
X236408Y726478D01*
X233978Y728908D01*
X232930Y731437D01*
X232906Y731476D01*
X232890Y731519D01*
X232842Y731580D01*
X232801Y731646D01*
X232765Y731675D01*
X232737Y731711D01*
X232671Y731753D01*
X232611Y731803D01*
X232569Y731819D01*
X232530Y731844D01*
X232454Y731863D01*
X232382Y731891D01*
X232336Y731893D01*
X232291Y731904D01*
X232214Y731898D01*
X232136Y731902D01*
X232092Y731889D01*
X232046Y731885D01*
X231975Y731855D01*
X231900Y731833D01*
X231862Y731807D01*
X231820Y731789D01*
X231713Y731703D01*
X231698Y731693D01*
X231695Y731689D01*
X231689Y731684D01*
X229998Y729993D01*
X229945Y729919D01*
X229885Y729849D01*
X229873Y729819D01*
X229854Y729793D01*
X229827Y729706D01*
X229793Y729621D01*
X229789Y729580D01*
X229782Y729558D01*
X229783Y729526D01*
X229775Y729455D01*
X229775Y565525D01*
X229789Y565435D01*
X229797Y565344D01*
X229809Y565315D01*
X229814Y565283D01*
X229857Y565202D01*
X229893Y565118D01*
X229919Y565086D01*
X229930Y565065D01*
X229953Y565043D01*
X229998Y564987D01*
X236237Y558748D01*
X236311Y558695D01*
X236380Y558635D01*
X236411Y558623D01*
X236437Y558604D01*
X236524Y558577D01*
X236609Y558543D01*
X236650Y558539D01*
X236672Y558532D01*
X236704Y558533D01*
X236775Y558525D01*
X236923Y558525D01*
X236994Y558536D01*
G37*
%LPC*%
G36*
X714533Y360171D02*
X714533Y360171D01*
X709771Y364933D01*
X709771Y371667D01*
X714533Y376429D01*
X716886Y376429D01*
X716976Y376443D01*
X717067Y376451D01*
X717097Y376463D01*
X717129Y376468D01*
X717210Y376511D01*
X717293Y376547D01*
X717326Y376573D01*
X717346Y376584D01*
X717368Y376607D01*
X717424Y376652D01*
X774772Y434000D01*
X774825Y434074D01*
X774885Y434143D01*
X774897Y434173D01*
X774916Y434199D01*
X774943Y434286D01*
X774977Y434371D01*
X774981Y434412D01*
X774988Y434434D01*
X774987Y434467D01*
X774995Y434538D01*
X774995Y450972D01*
X775888Y451865D01*
X782714Y451865D01*
X782734Y451868D01*
X782753Y451866D01*
X782855Y451888D01*
X782957Y451904D01*
X782974Y451914D01*
X782994Y451918D01*
X783083Y451971D01*
X783174Y452020D01*
X783188Y452034D01*
X783205Y452044D01*
X783272Y452123D01*
X783344Y452198D01*
X783352Y452216D01*
X783365Y452231D01*
X783404Y452327D01*
X783447Y452421D01*
X783449Y452441D01*
X783457Y452459D01*
X783475Y452626D01*
X783475Y460048D01*
X784469Y462446D01*
X869609Y547587D01*
X869621Y547603D01*
X869637Y547615D01*
X869693Y547703D01*
X869753Y547786D01*
X869759Y547805D01*
X869770Y547822D01*
X869795Y547923D01*
X869825Y548022D01*
X869825Y548041D01*
X869830Y548061D01*
X869822Y548164D01*
X869819Y548267D01*
X869812Y548286D01*
X869810Y548306D01*
X869770Y548401D01*
X869734Y548498D01*
X869722Y548514D01*
X869714Y548532D01*
X869609Y548663D01*
X860719Y557554D01*
X859725Y559952D01*
X859725Y570732D01*
X859711Y570822D01*
X859703Y570913D01*
X859691Y570943D01*
X859686Y570975D01*
X859643Y571055D01*
X859607Y571139D01*
X859581Y571171D01*
X859570Y571192D01*
X859547Y571214D01*
X859502Y571270D01*
X783219Y647554D01*
X782225Y649952D01*
X782225Y653554D01*
X782222Y653574D01*
X782224Y653593D01*
X782202Y653695D01*
X782186Y653797D01*
X782176Y653814D01*
X782172Y653834D01*
X782119Y653923D01*
X782070Y654014D01*
X782056Y654028D01*
X782046Y654045D01*
X781967Y654112D01*
X781892Y654184D01*
X781874Y654192D01*
X781859Y654205D01*
X781763Y654244D01*
X781669Y654287D01*
X781649Y654289D01*
X781631Y654297D01*
X781464Y654315D01*
X775588Y654315D01*
X774695Y655208D01*
X774695Y681472D01*
X775588Y682365D01*
X801852Y682365D01*
X802745Y681472D01*
X802745Y655208D01*
X801852Y654315D01*
X796750Y654315D01*
X796679Y654304D01*
X796607Y654302D01*
X796558Y654284D01*
X796507Y654276D01*
X796444Y654242D01*
X796376Y654217D01*
X796336Y654185D01*
X796290Y654160D01*
X796240Y654108D01*
X796184Y654064D01*
X796156Y654020D01*
X796120Y653982D01*
X796090Y653917D01*
X796051Y653857D01*
X796039Y653806D01*
X796017Y653759D01*
X796009Y653688D01*
X795991Y653618D01*
X795995Y653566D01*
X795990Y653515D01*
X796005Y653444D01*
X796010Y653373D01*
X796031Y653325D01*
X796042Y653274D01*
X796079Y653213D01*
X796107Y653147D01*
X796152Y653091D01*
X796168Y653063D01*
X796186Y653048D01*
X796212Y653016D01*
X869839Y579388D01*
X871781Y577446D01*
X872775Y575048D01*
X872775Y564268D01*
X872789Y564178D01*
X872797Y564087D01*
X872809Y564057D01*
X872814Y564025D01*
X872857Y563945D01*
X872893Y563861D01*
X872919Y563829D01*
X872930Y563808D01*
X872953Y563786D01*
X872975Y563758D01*
X872978Y563754D01*
X872981Y563751D01*
X872998Y563730D01*
X881230Y555498D01*
X881304Y555445D01*
X881373Y555385D01*
X881403Y555373D01*
X881429Y555354D01*
X881516Y555327D01*
X881601Y555293D01*
X881642Y555289D01*
X881664Y555282D01*
X881697Y555283D01*
X881768Y555275D01*
X930214Y555275D01*
X930234Y555278D01*
X930253Y555276D01*
X930355Y555298D01*
X930457Y555314D01*
X930474Y555324D01*
X930494Y555328D01*
X930583Y555381D01*
X930674Y555430D01*
X930688Y555444D01*
X930705Y555454D01*
X930772Y555533D01*
X930844Y555608D01*
X930852Y555626D01*
X930865Y555641D01*
X930904Y555737D01*
X930947Y555831D01*
X930949Y555851D01*
X930957Y555869D01*
X930975Y556036D01*
X930975Y560117D01*
X930961Y560207D01*
X930953Y560298D01*
X930941Y560328D01*
X930936Y560360D01*
X930893Y560441D01*
X930857Y560524D01*
X930831Y560557D01*
X930820Y560577D01*
X930797Y560599D01*
X930752Y560655D01*
X928001Y563406D01*
X926493Y567047D01*
X926493Y587753D01*
X928001Y591394D01*
X930788Y594181D01*
X934429Y595689D01*
X938371Y595689D01*
X942012Y594181D01*
X944799Y591394D01*
X946307Y587753D01*
X946307Y567047D01*
X944799Y563406D01*
X944248Y562855D01*
X944195Y562782D01*
X944135Y562712D01*
X944123Y562682D01*
X944104Y562656D01*
X944077Y562569D01*
X944043Y562484D01*
X944039Y562443D01*
X944032Y562421D01*
X944033Y562388D01*
X944025Y562317D01*
X944025Y456079D01*
X944044Y455965D01*
X944061Y455848D01*
X944063Y455843D01*
X944064Y455837D01*
X944119Y455734D01*
X944172Y455629D01*
X944177Y455625D01*
X944180Y455619D01*
X944264Y455539D01*
X944348Y455457D01*
X944354Y455453D01*
X944358Y455450D01*
X944375Y455442D01*
X944495Y455376D01*
X945539Y454943D01*
X949933Y450549D01*
X952312Y444807D01*
X952312Y438593D01*
X949933Y432851D01*
X945539Y428457D01*
X939797Y426078D01*
X933583Y426078D01*
X927841Y428457D01*
X923447Y432851D01*
X921068Y438593D01*
X921068Y444807D01*
X923447Y450549D01*
X927841Y454943D01*
X930505Y456047D01*
X930605Y456109D01*
X930705Y456169D01*
X930709Y456173D01*
X930714Y456177D01*
X930789Y456267D01*
X930865Y456355D01*
X930867Y456361D01*
X930871Y456366D01*
X930913Y456475D01*
X930957Y456584D01*
X930958Y456591D01*
X930959Y456596D01*
X930960Y456614D01*
X930975Y456750D01*
X930975Y541464D01*
X930972Y541484D01*
X930974Y541503D01*
X930952Y541605D01*
X930936Y541707D01*
X930926Y541724D01*
X930922Y541744D01*
X930869Y541833D01*
X930820Y541924D01*
X930806Y541938D01*
X930796Y541955D01*
X930717Y542022D01*
X930642Y542094D01*
X930624Y542102D01*
X930609Y542115D01*
X930513Y542154D01*
X930419Y542197D01*
X930399Y542199D01*
X930381Y542207D01*
X930214Y542225D01*
X882672Y542225D01*
X882557Y542206D01*
X882441Y542189D01*
X882435Y542187D01*
X882429Y542186D01*
X882326Y542131D01*
X882221Y542078D01*
X882217Y542073D01*
X882212Y542070D01*
X882132Y541986D01*
X882049Y541902D01*
X882046Y541896D01*
X882042Y541892D01*
X882034Y541875D01*
X881968Y541755D01*
X881781Y541304D01*
X881374Y540896D01*
X881360Y540878D01*
X881279Y540780D01*
X880959Y540301D01*
X880474Y539976D01*
X880456Y539959D01*
X880359Y539882D01*
X796748Y456270D01*
X796695Y456196D01*
X796635Y456127D01*
X796623Y456097D01*
X796604Y456071D01*
X796577Y455984D01*
X796543Y455899D01*
X796539Y455858D01*
X796532Y455836D01*
X796533Y455803D01*
X796525Y455732D01*
X796525Y452626D01*
X796528Y452606D01*
X796526Y452587D01*
X796548Y452485D01*
X796564Y452383D01*
X796574Y452366D01*
X796578Y452346D01*
X796631Y452257D01*
X796680Y452166D01*
X796694Y452152D01*
X796704Y452135D01*
X796783Y452068D01*
X796858Y451996D01*
X796876Y451988D01*
X796891Y451975D01*
X796987Y451936D01*
X797081Y451893D01*
X797101Y451891D01*
X797119Y451883D01*
X797286Y451865D01*
X802152Y451865D01*
X803045Y450972D01*
X803045Y424708D01*
X802152Y423815D01*
X783358Y423815D01*
X783268Y423801D01*
X783177Y423793D01*
X783147Y423781D01*
X783115Y423776D01*
X783034Y423733D01*
X782951Y423697D01*
X782918Y423671D01*
X782898Y423660D01*
X782876Y423637D01*
X782820Y423592D01*
X726252Y367024D01*
X726199Y366950D01*
X726139Y366881D01*
X726127Y366851D01*
X726108Y366825D01*
X726081Y366738D01*
X726047Y366653D01*
X726043Y366612D01*
X726036Y366590D01*
X726037Y366557D01*
X726029Y366486D01*
X726029Y364933D01*
X721267Y360171D01*
X714533Y360171D01*
G37*
%LPD*%
%LPC*%
G36*
X800302Y885943D02*
X800302Y885943D01*
X797193Y889052D01*
X797193Y893448D01*
X797671Y893926D01*
X797713Y893984D01*
X797762Y894036D01*
X797784Y894083D01*
X797814Y894125D01*
X797836Y894194D01*
X797866Y894259D01*
X797871Y894311D01*
X797887Y894361D01*
X797885Y894432D01*
X797893Y894503D01*
X797882Y894554D01*
X797880Y894606D01*
X797856Y894674D01*
X797841Y894744D01*
X797814Y894789D01*
X797796Y894837D01*
X797751Y894893D01*
X797714Y894955D01*
X797675Y894989D01*
X797642Y895029D01*
X797582Y895068D01*
X797527Y895115D01*
X797479Y895134D01*
X797435Y895162D01*
X797366Y895180D01*
X797299Y895207D01*
X797228Y895215D01*
X797197Y895223D01*
X797174Y895221D01*
X797133Y895225D01*
X749295Y895225D01*
X749205Y895211D01*
X749114Y895203D01*
X749085Y895191D01*
X749053Y895186D01*
X748972Y895143D01*
X748888Y895107D01*
X748856Y895081D01*
X748835Y895070D01*
X748813Y895047D01*
X748757Y895002D01*
X747198Y893443D01*
X742802Y893443D01*
X739693Y896552D01*
X739693Y900948D01*
X742802Y904057D01*
X747198Y904057D01*
X748757Y902498D01*
X748831Y902445D01*
X748901Y902385D01*
X748931Y902373D01*
X748957Y902354D01*
X749044Y902327D01*
X749129Y902293D01*
X749170Y902289D01*
X749192Y902282D01*
X749224Y902283D01*
X749295Y902275D01*
X896975Y902275D01*
X897065Y902289D01*
X897156Y902297D01*
X897185Y902309D01*
X897217Y902314D01*
X897298Y902357D01*
X897382Y902393D01*
X897414Y902419D01*
X897435Y902430D01*
X897457Y902453D01*
X897513Y902498D01*
X918752Y923737D01*
X918805Y923811D01*
X918865Y923880D01*
X918877Y923911D01*
X918896Y923937D01*
X918923Y924024D01*
X918957Y924109D01*
X918961Y924150D01*
X918968Y924172D01*
X918967Y924204D01*
X918975Y924275D01*
X918975Y958225D01*
X918961Y958315D01*
X918953Y958406D01*
X918941Y958435D01*
X918936Y958467D01*
X918893Y958548D01*
X918857Y958632D01*
X918831Y958664D01*
X918820Y958685D01*
X918797Y958707D01*
X918752Y958763D01*
X908763Y968752D01*
X908689Y968805D01*
X908620Y968865D01*
X908589Y968877D01*
X908563Y968896D01*
X908476Y968923D01*
X908391Y968957D01*
X908350Y968961D01*
X908328Y968968D01*
X908296Y968967D01*
X908225Y968975D01*
X721775Y968975D01*
X721685Y968961D01*
X721594Y968953D01*
X721565Y968941D01*
X721533Y968936D01*
X721452Y968893D01*
X721368Y968857D01*
X721336Y968831D01*
X721315Y968820D01*
X721293Y968797D01*
X721237Y968752D01*
X712072Y959588D01*
X712004Y959493D01*
X711935Y959399D01*
X711933Y959393D01*
X711929Y959388D01*
X711895Y959277D01*
X711858Y959165D01*
X711858Y959159D01*
X711857Y959153D01*
X711860Y959036D01*
X711861Y958919D01*
X711863Y958912D01*
X711863Y958907D01*
X711869Y958889D01*
X711907Y958758D01*
X712523Y957273D01*
X712523Y952927D01*
X710860Y948913D01*
X707787Y945840D01*
X703773Y944177D01*
X699427Y944177D01*
X695413Y945840D01*
X692340Y948913D01*
X690677Y952927D01*
X690677Y957273D01*
X692340Y961287D01*
X695413Y964360D01*
X699427Y966023D01*
X703773Y966023D01*
X706672Y964822D01*
X706786Y964795D01*
X706899Y964766D01*
X706906Y964767D01*
X706912Y964765D01*
X707028Y964776D01*
X707145Y964786D01*
X707150Y964788D01*
X707157Y964789D01*
X707264Y964836D01*
X707371Y964882D01*
X707377Y964887D01*
X707381Y964889D01*
X707395Y964901D01*
X707502Y964987D01*
X718540Y976025D01*
X910182Y976025D01*
X910202Y976028D01*
X910221Y976026D01*
X910323Y976048D01*
X910425Y976064D01*
X910442Y976074D01*
X910462Y976078D01*
X910551Y976131D01*
X910642Y976180D01*
X910656Y976194D01*
X910673Y976204D01*
X910740Y976283D01*
X910812Y976358D01*
X910820Y976376D01*
X910833Y976391D01*
X910872Y976487D01*
X910915Y976581D01*
X910917Y976601D01*
X910925Y976619D01*
X910943Y976786D01*
X910943Y979698D01*
X914052Y982807D01*
X918448Y982807D01*
X921557Y979698D01*
X921557Y977493D01*
X921571Y977403D01*
X921579Y977312D01*
X921591Y977283D01*
X921596Y977251D01*
X921639Y977170D01*
X921675Y977086D01*
X921701Y977054D01*
X921712Y977033D01*
X921735Y977011D01*
X921780Y976955D01*
X932275Y966460D01*
X932275Y918540D01*
X901460Y887725D01*
X806795Y887725D01*
X806705Y887711D01*
X806614Y887703D01*
X806585Y887691D01*
X806553Y887686D01*
X806472Y887643D01*
X806388Y887607D01*
X806356Y887581D01*
X806335Y887570D01*
X806313Y887547D01*
X806257Y887502D01*
X804698Y885943D01*
X800302Y885943D01*
G37*
%LPD*%
%LPC*%
G36*
X252757Y491535D02*
X252757Y491535D01*
X249425Y492915D01*
X246875Y495465D01*
X245495Y498797D01*
X245495Y502403D01*
X246875Y505735D01*
X249425Y508285D01*
X252757Y509665D01*
X258214Y509665D01*
X258234Y509668D01*
X258253Y509666D01*
X258355Y509688D01*
X258457Y509704D01*
X258474Y509714D01*
X258494Y509718D01*
X258583Y509771D01*
X258674Y509820D01*
X258688Y509834D01*
X258705Y509844D01*
X258772Y509923D01*
X258844Y509998D01*
X258852Y510016D01*
X258865Y510031D01*
X258904Y510127D01*
X258947Y510221D01*
X258949Y510241D01*
X258957Y510259D01*
X258975Y510426D01*
X258975Y516460D01*
X388540Y646025D01*
X429475Y646025D01*
X429565Y646039D01*
X429656Y646047D01*
X429685Y646059D01*
X429717Y646064D01*
X429798Y646107D01*
X429882Y646143D01*
X429914Y646169D01*
X429935Y646180D01*
X429957Y646203D01*
X430013Y646248D01*
X490720Y706955D01*
X490773Y707029D01*
X490833Y707098D01*
X490845Y707129D01*
X490864Y707155D01*
X490891Y707242D01*
X490925Y707327D01*
X490929Y707368D01*
X490936Y707390D01*
X490935Y707422D01*
X490943Y707493D01*
X490943Y709698D01*
X494052Y712807D01*
X498448Y712807D01*
X501557Y709698D01*
X501557Y705302D01*
X498448Y702193D01*
X496243Y702193D01*
X496153Y702179D01*
X496062Y702171D01*
X496033Y702159D01*
X496001Y702154D01*
X495920Y702111D01*
X495836Y702075D01*
X495804Y702049D01*
X495783Y702038D01*
X495761Y702015D01*
X495705Y701970D01*
X432710Y638975D01*
X391775Y638975D01*
X391685Y638961D01*
X391594Y638953D01*
X391565Y638941D01*
X391533Y638936D01*
X391452Y638893D01*
X391368Y638857D01*
X391336Y638831D01*
X391315Y638820D01*
X391293Y638797D01*
X391237Y638752D01*
X379385Y626900D01*
X379343Y626842D01*
X379294Y626790D01*
X379272Y626743D01*
X379241Y626701D01*
X379220Y626632D01*
X379190Y626567D01*
X379184Y626515D01*
X379169Y626465D01*
X379171Y626394D01*
X379163Y626323D01*
X379174Y626272D01*
X379175Y626220D01*
X379200Y626152D01*
X379215Y626082D01*
X379242Y626037D01*
X379260Y625989D01*
X379305Y625933D01*
X379341Y625871D01*
X379381Y625837D01*
X379414Y625797D01*
X379474Y625758D01*
X379528Y625711D01*
X379577Y625692D01*
X379621Y625664D01*
X379690Y625646D01*
X379757Y625619D01*
X379828Y625611D01*
X379859Y625603D01*
X379882Y625605D01*
X379923Y625601D01*
X391257Y625601D01*
X391257Y612083D01*
X377739Y612083D01*
X377739Y623417D01*
X377728Y623487D01*
X377726Y623559D01*
X377708Y623608D01*
X377700Y623659D01*
X377666Y623723D01*
X377641Y623790D01*
X377609Y623831D01*
X377584Y623877D01*
X377532Y623926D01*
X377488Y623982D01*
X377444Y624010D01*
X377406Y624046D01*
X377341Y624076D01*
X377281Y624115D01*
X377230Y624128D01*
X377183Y624150D01*
X377112Y624158D01*
X377042Y624175D01*
X376990Y624171D01*
X376939Y624177D01*
X376868Y624162D01*
X376797Y624156D01*
X376749Y624136D01*
X376698Y624125D01*
X376637Y624088D01*
X376571Y624060D01*
X376515Y624015D01*
X376487Y623999D01*
X376472Y623981D01*
X376440Y623955D01*
X266248Y513763D01*
X266203Y513701D01*
X266173Y513669D01*
X266167Y513657D01*
X266135Y513620D01*
X266123Y513589D01*
X266104Y513563D01*
X266077Y513476D01*
X266043Y513391D01*
X266039Y513350D01*
X266032Y513328D01*
X266033Y513296D01*
X266025Y513225D01*
X266025Y510426D01*
X266028Y510406D01*
X266026Y510387D01*
X266048Y510285D01*
X266064Y510183D01*
X266074Y510166D01*
X266078Y510146D01*
X266131Y510057D01*
X266180Y509966D01*
X266194Y509952D01*
X266204Y509935D01*
X266283Y509868D01*
X266358Y509796D01*
X266376Y509788D01*
X266391Y509775D01*
X266487Y509736D01*
X266581Y509693D01*
X266601Y509691D01*
X266619Y509683D01*
X266786Y509665D01*
X271443Y509665D01*
X274775Y508285D01*
X277325Y505735D01*
X278705Y502403D01*
X278705Y498797D01*
X277325Y495465D01*
X274775Y492915D01*
X271443Y491535D01*
X252757Y491535D01*
G37*
%LPD*%
%LPC*%
G36*
X379648Y423815D02*
X379648Y423815D01*
X378755Y424708D01*
X378755Y431464D01*
X378752Y431484D01*
X378754Y431503D01*
X378732Y431605D01*
X378716Y431707D01*
X378706Y431724D01*
X378702Y431744D01*
X378649Y431833D01*
X378600Y431924D01*
X378586Y431938D01*
X378576Y431955D01*
X378497Y432022D01*
X378422Y432094D01*
X378404Y432102D01*
X378389Y432115D01*
X378293Y432154D01*
X378199Y432197D01*
X378179Y432199D01*
X378161Y432207D01*
X377994Y432225D01*
X349952Y432225D01*
X347554Y433219D01*
X314860Y465912D01*
X314786Y465965D01*
X314717Y466025D01*
X314687Y466037D01*
X314661Y466056D01*
X314574Y466083D01*
X314489Y466117D01*
X314448Y466121D01*
X314426Y466128D01*
X314393Y466127D01*
X314322Y466135D01*
X296757Y466135D01*
X293425Y467515D01*
X292688Y468252D01*
X292614Y468305D01*
X292545Y468365D01*
X292515Y468377D01*
X292488Y468396D01*
X292402Y468423D01*
X292317Y468457D01*
X292276Y468461D01*
X292253Y468468D01*
X292221Y468467D01*
X292150Y468475D01*
X276050Y468475D01*
X275960Y468461D01*
X275869Y468453D01*
X275839Y468441D01*
X275807Y468436D01*
X275727Y468393D01*
X275643Y468357D01*
X275611Y468331D01*
X275590Y468320D01*
X275568Y468297D01*
X275512Y468252D01*
X274775Y467515D01*
X271443Y466135D01*
X252757Y466135D01*
X249425Y467515D01*
X246875Y470065D01*
X245495Y473397D01*
X245495Y477003D01*
X246875Y480335D01*
X249425Y482885D01*
X252757Y484265D01*
X271443Y484265D01*
X274775Y482885D01*
X275912Y481748D01*
X275986Y481695D01*
X276055Y481635D01*
X276085Y481623D01*
X276112Y481604D01*
X276198Y481577D01*
X276283Y481543D01*
X276324Y481539D01*
X276347Y481532D01*
X276379Y481533D01*
X276450Y481525D01*
X291750Y481525D01*
X291840Y481539D01*
X291931Y481547D01*
X291961Y481559D01*
X291993Y481564D01*
X292073Y481607D01*
X292157Y481643D01*
X292189Y481669D01*
X292210Y481680D01*
X292232Y481703D01*
X292288Y481748D01*
X293425Y482885D01*
X296757Y484265D01*
X315443Y484265D01*
X318775Y482885D01*
X321325Y480335D01*
X322705Y477003D01*
X322705Y476838D01*
X322719Y476748D01*
X322727Y476657D01*
X322739Y476627D01*
X322744Y476595D01*
X322787Y476515D01*
X322823Y476431D01*
X322849Y476399D01*
X322860Y476378D01*
X322883Y476356D01*
X322928Y476300D01*
X353730Y445498D01*
X353804Y445445D01*
X353873Y445385D01*
X353903Y445373D01*
X353929Y445354D01*
X354016Y445327D01*
X354101Y445293D01*
X354142Y445289D01*
X354164Y445282D01*
X354197Y445283D01*
X354268Y445275D01*
X377994Y445275D01*
X378014Y445278D01*
X378033Y445276D01*
X378135Y445298D01*
X378237Y445314D01*
X378254Y445324D01*
X378274Y445328D01*
X378363Y445381D01*
X378454Y445430D01*
X378468Y445444D01*
X378485Y445454D01*
X378552Y445533D01*
X378624Y445608D01*
X378632Y445626D01*
X378645Y445641D01*
X378684Y445737D01*
X378727Y445831D01*
X378729Y445851D01*
X378737Y445869D01*
X378755Y446036D01*
X378755Y450972D01*
X379648Y451865D01*
X405912Y451865D01*
X406805Y450972D01*
X406805Y424708D01*
X405912Y423815D01*
X379648Y423815D01*
G37*
%LPD*%
%LPC*%
G36*
X590302Y564693D02*
X590302Y564693D01*
X587193Y567802D01*
X587193Y572198D01*
X590302Y575307D01*
X592507Y575307D01*
X592597Y575321D01*
X592688Y575329D01*
X592717Y575341D01*
X592749Y575346D01*
X592830Y575389D01*
X592914Y575425D01*
X592946Y575451D01*
X592967Y575462D01*
X592989Y575485D01*
X593045Y575530D01*
X652159Y634644D01*
X652201Y634702D01*
X652250Y634754D01*
X652272Y634801D01*
X652303Y634843D01*
X652324Y634912D01*
X652354Y634977D01*
X652360Y635029D01*
X652375Y635079D01*
X652373Y635150D01*
X652381Y635221D01*
X652370Y635272D01*
X652369Y635324D01*
X652344Y635392D01*
X652329Y635462D01*
X652302Y635507D01*
X652284Y635555D01*
X652239Y635611D01*
X652203Y635673D01*
X652163Y635707D01*
X652130Y635747D01*
X652070Y635786D01*
X652016Y635833D01*
X651967Y635852D01*
X651923Y635880D01*
X651854Y635898D01*
X651787Y635925D01*
X651716Y635933D01*
X651685Y635941D01*
X651662Y635939D01*
X651621Y635943D01*
X650302Y635943D01*
X648743Y637502D01*
X648669Y637555D01*
X648599Y637615D01*
X648569Y637627D01*
X648543Y637646D01*
X648456Y637673D01*
X648371Y637707D01*
X648330Y637711D01*
X648308Y637718D01*
X648276Y637717D01*
X648205Y637725D01*
X634117Y637725D01*
X634047Y637714D01*
X633975Y637712D01*
X633926Y637694D01*
X633875Y637686D01*
X633811Y637652D01*
X633744Y637627D01*
X633703Y637595D01*
X633657Y637570D01*
X633608Y637518D01*
X633552Y637474D01*
X633524Y637430D01*
X633488Y637392D01*
X633458Y637327D01*
X633419Y637267D01*
X633406Y637216D01*
X633384Y637169D01*
X633376Y637098D01*
X633359Y637028D01*
X633363Y636976D01*
X633357Y636925D01*
X633372Y636854D01*
X633378Y636783D01*
X633398Y636735D01*
X633409Y636684D01*
X633446Y636623D01*
X633474Y636557D01*
X633519Y636501D01*
X633536Y636473D01*
X633553Y636458D01*
X633579Y636426D01*
X636557Y633448D01*
X636557Y629052D01*
X633448Y625943D01*
X629052Y625943D01*
X627493Y627502D01*
X627419Y627555D01*
X627349Y627615D01*
X627319Y627627D01*
X627293Y627646D01*
X627206Y627673D01*
X627121Y627707D01*
X627080Y627711D01*
X627058Y627718D01*
X627026Y627717D01*
X626955Y627725D01*
X614295Y627725D01*
X614205Y627711D01*
X614114Y627703D01*
X614085Y627691D01*
X614053Y627686D01*
X613972Y627643D01*
X613888Y627607D01*
X613856Y627581D01*
X613835Y627570D01*
X613813Y627547D01*
X613757Y627502D01*
X612198Y625943D01*
X607802Y625943D01*
X604693Y629052D01*
X604693Y633448D01*
X606957Y635712D01*
X606968Y635728D01*
X606984Y635740D01*
X607040Y635828D01*
X607100Y635911D01*
X607106Y635930D01*
X607117Y635947D01*
X607142Y636048D01*
X607173Y636147D01*
X607172Y636166D01*
X607177Y636186D01*
X607169Y636289D01*
X607166Y636392D01*
X607160Y636411D01*
X607158Y636431D01*
X607118Y636526D01*
X607082Y636623D01*
X607069Y636639D01*
X607062Y636657D01*
X606957Y636788D01*
X604693Y639052D01*
X604693Y643448D01*
X607802Y646557D01*
X612198Y646557D01*
X613757Y644998D01*
X613831Y644945D01*
X613901Y644885D01*
X613931Y644873D01*
X613957Y644854D01*
X614044Y644827D01*
X614129Y644793D01*
X614170Y644789D01*
X614192Y644782D01*
X614224Y644783D01*
X614295Y644775D01*
X648205Y644775D01*
X648295Y644789D01*
X648386Y644797D01*
X648415Y644809D01*
X648447Y644814D01*
X648528Y644857D01*
X648612Y644893D01*
X648644Y644919D01*
X648665Y644930D01*
X648687Y644953D01*
X648743Y644998D01*
X650302Y646557D01*
X654698Y646557D01*
X657807Y643448D01*
X657807Y642129D01*
X657818Y642059D01*
X657820Y641987D01*
X657838Y641938D01*
X657846Y641887D01*
X657880Y641823D01*
X657905Y641756D01*
X657937Y641715D01*
X657962Y641669D01*
X658014Y641620D01*
X658058Y641564D01*
X658102Y641536D01*
X658140Y641500D01*
X658205Y641470D01*
X658265Y641431D01*
X658316Y641418D01*
X658363Y641396D01*
X658434Y641388D01*
X658504Y641371D01*
X658556Y641375D01*
X658607Y641369D01*
X658678Y641384D01*
X658749Y641390D01*
X658797Y641410D01*
X658848Y641421D01*
X658909Y641458D01*
X658975Y641486D01*
X659031Y641531D01*
X659059Y641547D01*
X659074Y641565D01*
X659106Y641591D01*
X701252Y683737D01*
X701305Y683811D01*
X701365Y683880D01*
X701377Y683911D01*
X701396Y683937D01*
X701423Y684024D01*
X701457Y684109D01*
X701461Y684150D01*
X701468Y684172D01*
X701467Y684204D01*
X701475Y684275D01*
X701475Y723205D01*
X701461Y723295D01*
X701453Y723386D01*
X701441Y723415D01*
X701436Y723447D01*
X701393Y723528D01*
X701357Y723612D01*
X701331Y723644D01*
X701320Y723665D01*
X701297Y723687D01*
X701252Y723743D01*
X699693Y725302D01*
X699693Y729698D01*
X702802Y732807D01*
X707198Y732807D01*
X710307Y729698D01*
X710307Y725302D01*
X708748Y723743D01*
X708695Y723669D01*
X708635Y723599D01*
X708623Y723569D01*
X708604Y723543D01*
X708577Y723456D01*
X708543Y723371D01*
X708539Y723330D01*
X708532Y723308D01*
X708533Y723276D01*
X708525Y723205D01*
X708525Y681040D01*
X598030Y570545D01*
X597977Y570471D01*
X597917Y570402D01*
X597905Y570371D01*
X597886Y570345D01*
X597859Y570258D01*
X597825Y570173D01*
X597821Y570132D01*
X597814Y570110D01*
X597815Y570078D01*
X597807Y570007D01*
X597807Y567802D01*
X594698Y564693D01*
X590302Y564693D01*
G37*
%LPD*%
%LPC*%
G36*
X907489Y700589D02*
X907489Y700589D01*
X900705Y702407D01*
X894624Y705918D01*
X889658Y710884D01*
X886147Y716965D01*
X884329Y723749D01*
X884329Y730771D01*
X886147Y737555D01*
X889658Y743636D01*
X894624Y748602D01*
X900705Y752113D01*
X907489Y753931D01*
X914511Y753931D01*
X921295Y752113D01*
X927376Y748602D01*
X932342Y743636D01*
X935853Y737555D01*
X937671Y730771D01*
X937671Y723749D01*
X935853Y716965D01*
X932342Y710884D01*
X927376Y705918D01*
X921295Y702407D01*
X914511Y700589D01*
X907489Y700589D01*
G37*
%LPD*%
%LPC*%
G36*
X282909Y915080D02*
X282909Y915080D01*
X274386Y919324D01*
X273015Y920827D01*
X272925Y920899D01*
X272837Y920972D01*
X272829Y920975D01*
X272822Y920980D01*
X272777Y920996D01*
X272772Y921008D01*
X272735Y921107D01*
X272723Y921125D01*
X272717Y921137D01*
X272676Y921189D01*
X272637Y921243D01*
X267971Y926360D01*
X264532Y935239D01*
X264532Y944761D01*
X267971Y953640D01*
X274386Y960676D01*
X282909Y964920D01*
X292391Y965799D01*
X301549Y963193D01*
X309147Y957455D01*
X314160Y949360D01*
X315910Y940000D01*
X314160Y930640D01*
X309147Y922545D01*
X301549Y916807D01*
X292391Y914201D01*
X282909Y915080D01*
G37*
%LPD*%
%LPC*%
G36*
X1004909Y914080D02*
X1004909Y914080D01*
X996386Y918324D01*
X989971Y925360D01*
X986532Y934239D01*
X986532Y943761D01*
X989971Y952640D01*
X996386Y959676D01*
X1004909Y963920D01*
X1014391Y964799D01*
X1023549Y962193D01*
X1031147Y956455D01*
X1036160Y948360D01*
X1037910Y939000D01*
X1036160Y929640D01*
X1031147Y921545D01*
X1023549Y915807D01*
X1014391Y913201D01*
X1004909Y914080D01*
G37*
%LPD*%
%LPC*%
G36*
X282909Y325080D02*
X282909Y325080D01*
X274386Y329324D01*
X267971Y336360D01*
X264532Y345239D01*
X264532Y354761D01*
X267971Y363640D01*
X274386Y370676D01*
X282909Y374920D01*
X292391Y375799D01*
X301549Y373193D01*
X309147Y367455D01*
X314160Y359360D01*
X315910Y350000D01*
X314160Y340640D01*
X309147Y332545D01*
X301549Y326807D01*
X292391Y324201D01*
X282909Y325080D01*
G37*
%LPD*%
%LPC*%
G36*
X1004909Y324080D02*
X1004909Y324080D01*
X996386Y328324D01*
X989971Y335360D01*
X986532Y344239D01*
X986532Y353761D01*
X989971Y362640D01*
X996386Y369676D01*
X1004909Y373920D01*
X1014391Y374799D01*
X1023549Y372193D01*
X1031147Y366455D01*
X1036160Y358360D01*
X1037910Y349000D01*
X1036160Y339640D01*
X1031147Y331545D01*
X1023549Y325807D01*
X1014391Y323201D01*
X1004909Y324080D01*
G37*
%LPD*%
%LPC*%
G36*
X732368Y422839D02*
X732368Y422839D01*
X725968Y424554D01*
X720231Y427866D01*
X715546Y432551D01*
X712234Y438288D01*
X710519Y444688D01*
X710519Y451312D01*
X712234Y457712D01*
X715546Y463449D01*
X720231Y468134D01*
X725968Y471446D01*
X732368Y473161D01*
X738992Y473161D01*
X745392Y471446D01*
X751129Y468134D01*
X755814Y463449D01*
X759126Y457712D01*
X760841Y451312D01*
X760841Y444688D01*
X759126Y438288D01*
X755814Y432551D01*
X751129Y427866D01*
X745392Y424554D01*
X738992Y422839D01*
X732368Y422839D01*
G37*
%LPD*%
%LPC*%
G36*
X732068Y653339D02*
X732068Y653339D01*
X725668Y655054D01*
X719931Y658366D01*
X715246Y663051D01*
X711934Y668788D01*
X710219Y675188D01*
X710219Y681812D01*
X711934Y688212D01*
X715246Y693949D01*
X719931Y698634D01*
X725668Y701946D01*
X732068Y703661D01*
X738692Y703661D01*
X745092Y701946D01*
X750829Y698634D01*
X755514Y693949D01*
X758826Y688212D01*
X760541Y681812D01*
X760541Y675188D01*
X758826Y668788D01*
X755514Y663051D01*
X750829Y658366D01*
X745092Y655054D01*
X738692Y653339D01*
X732068Y653339D01*
G37*
%LPD*%
%LPC*%
G36*
X434888Y805739D02*
X434888Y805739D01*
X428488Y807454D01*
X422751Y810766D01*
X418066Y815451D01*
X414754Y821188D01*
X413039Y827588D01*
X413039Y834212D01*
X414754Y840612D01*
X418066Y846349D01*
X422751Y851034D01*
X428488Y854346D01*
X434888Y856061D01*
X441512Y856061D01*
X447912Y854346D01*
X453649Y851034D01*
X458334Y846349D01*
X461646Y840612D01*
X463361Y834212D01*
X463361Y827588D01*
X461646Y821188D01*
X458334Y815451D01*
X453649Y810766D01*
X447912Y807454D01*
X441512Y805739D01*
X434888Y805739D01*
G37*
%LPD*%
%LPC*%
G36*
X435188Y575239D02*
X435188Y575239D01*
X428788Y576954D01*
X423051Y580266D01*
X418366Y584951D01*
X415054Y590688D01*
X413339Y597088D01*
X413339Y603712D01*
X415054Y610112D01*
X418366Y615849D01*
X423051Y620534D01*
X428788Y623846D01*
X435188Y625561D01*
X441812Y625561D01*
X448212Y623846D01*
X453949Y620534D01*
X458634Y615849D01*
X461946Y610112D01*
X463661Y603712D01*
X463661Y597088D01*
X461946Y590688D01*
X458634Y584951D01*
X453949Y580266D01*
X448212Y576954D01*
X441812Y575239D01*
X435188Y575239D01*
G37*
%LPD*%
%LPC*%
G36*
X264123Y609363D02*
X264123Y609363D01*
X259063Y614423D01*
X259063Y621577D01*
X261412Y623926D01*
X261453Y623984D01*
X261503Y624036D01*
X261525Y624083D01*
X261555Y624125D01*
X261576Y624194D01*
X261606Y624259D01*
X261612Y624311D01*
X261627Y624361D01*
X261626Y624432D01*
X261634Y624503D01*
X261622Y624554D01*
X261621Y624606D01*
X261596Y624674D01*
X261581Y624744D01*
X261555Y624789D01*
X261537Y624837D01*
X261492Y624893D01*
X261455Y624955D01*
X261416Y624989D01*
X261383Y625029D01*
X261323Y625068D01*
X261268Y625115D01*
X261220Y625134D01*
X261176Y625162D01*
X261107Y625180D01*
X261071Y625194D01*
X249228Y637037D01*
X249212Y637049D01*
X249199Y637064D01*
X249112Y637121D01*
X249028Y637181D01*
X249009Y637187D01*
X248992Y637197D01*
X248892Y637223D01*
X248793Y637253D01*
X248773Y637253D01*
X248754Y637258D01*
X248651Y637249D01*
X248547Y637247D01*
X248528Y637240D01*
X248509Y637238D01*
X248414Y637198D01*
X248316Y637162D01*
X248301Y637150D01*
X248282Y637142D01*
X248151Y637037D01*
X245877Y634763D01*
X238723Y634763D01*
X233663Y639823D01*
X233663Y646977D01*
X238723Y652037D01*
X245877Y652037D01*
X250937Y646977D01*
X250937Y645613D01*
X250951Y645523D01*
X250959Y645432D01*
X250971Y645403D01*
X250976Y645371D01*
X251019Y645290D01*
X251055Y645206D01*
X251081Y645174D01*
X251092Y645153D01*
X251115Y645131D01*
X251160Y645075D01*
X263737Y632498D01*
X263811Y632445D01*
X263880Y632385D01*
X263911Y632373D01*
X263937Y632354D01*
X264024Y632327D01*
X264109Y632293D01*
X264150Y632289D01*
X264172Y632282D01*
X264204Y632283D01*
X264275Y632275D01*
X270725Y632275D01*
X270815Y632289D01*
X270906Y632297D01*
X270935Y632309D01*
X270967Y632314D01*
X271048Y632357D01*
X271132Y632393D01*
X271164Y632419D01*
X271185Y632430D01*
X271207Y632453D01*
X271263Y632498D01*
X311970Y673205D01*
X312023Y673279D01*
X312083Y673348D01*
X312095Y673379D01*
X312114Y673405D01*
X312141Y673492D01*
X312175Y673577D01*
X312179Y673618D01*
X312186Y673640D01*
X312185Y673672D01*
X312193Y673743D01*
X312193Y675948D01*
X315302Y679057D01*
X319698Y679057D01*
X322807Y675948D01*
X322807Y671552D01*
X319698Y668443D01*
X317493Y668443D01*
X317403Y668429D01*
X317312Y668421D01*
X317283Y668409D01*
X317251Y668404D01*
X317170Y668361D01*
X317086Y668325D01*
X317054Y668299D01*
X317033Y668288D01*
X317011Y668265D01*
X316955Y668220D01*
X273863Y625128D01*
X273851Y625112D01*
X273836Y625099D01*
X273779Y625012D01*
X273719Y624928D01*
X273713Y624909D01*
X273703Y624892D01*
X273677Y624792D01*
X273647Y624693D01*
X273647Y624673D01*
X273642Y624654D01*
X273651Y624551D01*
X273653Y624447D01*
X273660Y624428D01*
X273662Y624409D01*
X273702Y624314D01*
X273738Y624216D01*
X273750Y624201D01*
X273758Y624182D01*
X273863Y624051D01*
X276337Y621577D01*
X276337Y614423D01*
X271277Y609363D01*
X264123Y609363D01*
G37*
%LPD*%
%LPC*%
G36*
X469533Y309971D02*
X469533Y309971D01*
X464771Y314733D01*
X464771Y321467D01*
X469533Y326229D01*
X476267Y326229D01*
X479998Y322498D01*
X480072Y322445D01*
X480141Y322385D01*
X480172Y322373D01*
X480198Y322354D01*
X480285Y322327D01*
X480370Y322293D01*
X480411Y322289D01*
X480433Y322282D01*
X480465Y322283D01*
X480536Y322275D01*
X503225Y322275D01*
X503315Y322289D01*
X503406Y322297D01*
X503435Y322309D01*
X503467Y322314D01*
X503548Y322357D01*
X503632Y322393D01*
X503664Y322419D01*
X503685Y322430D01*
X503707Y322453D01*
X503763Y322498D01*
X518389Y337124D01*
X518401Y337140D01*
X518416Y337153D01*
X518472Y337240D01*
X518533Y337324D01*
X518539Y337343D01*
X518549Y337360D01*
X518575Y337460D01*
X518605Y337559D01*
X518605Y337579D01*
X518609Y337598D01*
X518601Y337701D01*
X518599Y337805D01*
X518592Y337823D01*
X518590Y337843D01*
X518550Y337938D01*
X518514Y338036D01*
X518502Y338051D01*
X518494Y338070D01*
X518393Y338196D01*
X518393Y346404D01*
X524196Y352207D01*
X532404Y352207D01*
X538207Y346404D01*
X538207Y338196D01*
X532404Y332393D01*
X523943Y332393D01*
X523853Y332379D01*
X523762Y332371D01*
X523733Y332359D01*
X523701Y332354D01*
X523620Y332311D01*
X523536Y332275D01*
X523504Y332249D01*
X523483Y332238D01*
X523461Y332215D01*
X523405Y332170D01*
X506460Y315225D01*
X481790Y315225D01*
X481770Y315222D01*
X481751Y315224D01*
X481649Y315202D01*
X481547Y315186D01*
X481530Y315176D01*
X481510Y315172D01*
X481421Y315119D01*
X481330Y315070D01*
X481316Y315056D01*
X481299Y315046D01*
X481232Y314967D01*
X481160Y314892D01*
X481152Y314874D01*
X481139Y314859D01*
X481129Y314833D01*
X476267Y309971D01*
X469533Y309971D01*
G37*
%LPD*%
%LPC*%
G36*
X401196Y332393D02*
X401196Y332393D01*
X395393Y338196D01*
X395393Y346535D01*
X395400Y346560D01*
X395430Y346659D01*
X395430Y346679D01*
X395434Y346699D01*
X395426Y346801D01*
X395424Y346905D01*
X395417Y346924D01*
X395415Y346944D01*
X395375Y347039D01*
X395339Y347136D01*
X395327Y347152D01*
X395319Y347170D01*
X395214Y347301D01*
X378763Y363752D01*
X378689Y363805D01*
X378620Y363865D01*
X378589Y363877D01*
X378563Y363896D01*
X378476Y363923D01*
X378391Y363957D01*
X378350Y363961D01*
X378328Y363968D01*
X378296Y363967D01*
X378225Y363975D01*
X361686Y363975D01*
X361596Y363961D01*
X361505Y363953D01*
X361476Y363941D01*
X361444Y363936D01*
X361363Y363893D01*
X361279Y363857D01*
X361247Y363831D01*
X361226Y363820D01*
X361204Y363797D01*
X361148Y363752D01*
X357467Y360071D01*
X350733Y360071D01*
X345971Y364833D01*
X345971Y371567D01*
X350733Y376329D01*
X357467Y376329D01*
X362280Y371516D01*
X362282Y371506D01*
X362335Y371417D01*
X362384Y371326D01*
X362398Y371312D01*
X362408Y371295D01*
X362487Y371228D01*
X362562Y371156D01*
X362580Y371148D01*
X362595Y371135D01*
X362691Y371096D01*
X362785Y371053D01*
X362805Y371051D01*
X362823Y371043D01*
X362990Y371025D01*
X381460Y371025D01*
X400199Y352286D01*
X400215Y352274D01*
X400228Y352259D01*
X400315Y352202D01*
X400399Y352142D01*
X400418Y352136D01*
X400435Y352126D01*
X400535Y352100D01*
X400634Y352070D01*
X400654Y352070D01*
X400673Y352066D01*
X400776Y352074D01*
X400880Y352076D01*
X400898Y352083D01*
X400918Y352085D01*
X401013Y352125D01*
X401111Y352161D01*
X401126Y352173D01*
X401145Y352181D01*
X401177Y352207D01*
X409404Y352207D01*
X415207Y346404D01*
X415207Y338196D01*
X409404Y332393D01*
X401196Y332393D01*
G37*
%LPD*%
%LPC*%
G36*
X714533Y309371D02*
X714533Y309371D01*
X709771Y314133D01*
X709771Y320867D01*
X714533Y325629D01*
X721267Y325629D01*
X725648Y321248D01*
X725722Y321195D01*
X725791Y321135D01*
X725822Y321123D01*
X725848Y321104D01*
X725935Y321077D01*
X726020Y321043D01*
X726061Y321039D01*
X726083Y321032D01*
X726115Y321033D01*
X726186Y321025D01*
X738225Y321025D01*
X738315Y321039D01*
X738406Y321047D01*
X738435Y321059D01*
X738467Y321064D01*
X738548Y321107D01*
X738632Y321143D01*
X738664Y321169D01*
X738685Y321180D01*
X738707Y321203D01*
X738763Y321248D01*
X754764Y337249D01*
X754776Y337265D01*
X754792Y337278D01*
X754848Y337365D01*
X754908Y337449D01*
X754914Y337468D01*
X754924Y337485D01*
X754950Y337585D01*
X754980Y337684D01*
X754980Y337704D01*
X754984Y337723D01*
X754976Y337826D01*
X754974Y337930D01*
X754967Y337949D01*
X754965Y337968D01*
X754925Y338063D01*
X754893Y338150D01*
X754893Y346404D01*
X760696Y352207D01*
X768904Y352207D01*
X774707Y346404D01*
X774707Y338196D01*
X768904Y332393D01*
X760646Y332393D01*
X760626Y332408D01*
X760607Y332414D01*
X760590Y332424D01*
X760490Y332450D01*
X760391Y332480D01*
X760371Y332480D01*
X760351Y332484D01*
X760249Y332476D01*
X760145Y332474D01*
X760126Y332467D01*
X760106Y332465D01*
X760011Y332425D01*
X759914Y332389D01*
X759898Y332377D01*
X759880Y332369D01*
X759749Y332264D01*
X741460Y313975D01*
X726186Y313975D01*
X726096Y313961D01*
X726005Y313953D01*
X725976Y313941D01*
X725944Y313936D01*
X725863Y313893D01*
X725779Y313857D01*
X725747Y313831D01*
X725726Y313820D01*
X725704Y313797D01*
X725648Y313752D01*
X721267Y309371D01*
X714533Y309371D01*
G37*
%LPD*%
%LPC*%
G36*
X420027Y944177D02*
X420027Y944177D01*
X416013Y945840D01*
X412940Y948913D01*
X411277Y952927D01*
X411277Y957273D01*
X412940Y961287D01*
X416013Y964360D01*
X420027Y966023D01*
X424373Y966023D01*
X428387Y964360D01*
X431460Y961287D01*
X431892Y960245D01*
X431954Y960145D01*
X432013Y960045D01*
X432018Y960041D01*
X432021Y960036D01*
X432112Y959961D01*
X432200Y959885D01*
X432206Y959883D01*
X432211Y959879D01*
X432319Y959837D01*
X432428Y959793D01*
X432436Y959792D01*
X432440Y959791D01*
X432459Y959790D01*
X432595Y959775D01*
X437205Y959775D01*
X437320Y959794D01*
X437436Y959811D01*
X437442Y959813D01*
X437448Y959814D01*
X437550Y959869D01*
X437655Y959922D01*
X437660Y959927D01*
X437665Y959930D01*
X437745Y960014D01*
X437827Y960098D01*
X437831Y960104D01*
X437835Y960108D01*
X437842Y960125D01*
X437908Y960245D01*
X438340Y961287D01*
X441413Y964360D01*
X445427Y966023D01*
X449773Y966023D01*
X453787Y964360D01*
X456860Y961287D01*
X458523Y957273D01*
X458523Y952927D01*
X456860Y948913D01*
X453787Y945840D01*
X449773Y944177D01*
X445427Y944177D01*
X441413Y945840D01*
X438340Y948913D01*
X436956Y952255D01*
X436894Y952355D01*
X436834Y952455D01*
X436829Y952459D01*
X436826Y952464D01*
X436736Y952539D01*
X436647Y952615D01*
X436641Y952617D01*
X436637Y952621D01*
X436528Y952663D01*
X436419Y952707D01*
X436411Y952708D01*
X436407Y952709D01*
X436389Y952710D01*
X436252Y952725D01*
X433548Y952725D01*
X433433Y952706D01*
X433317Y952689D01*
X433311Y952687D01*
X433305Y952686D01*
X433202Y952631D01*
X433097Y952578D01*
X433093Y952573D01*
X433088Y952570D01*
X433008Y952486D01*
X432925Y952402D01*
X432922Y952396D01*
X432918Y952392D01*
X432910Y952375D01*
X432844Y952255D01*
X431460Y948913D01*
X428387Y945840D01*
X424373Y944177D01*
X420027Y944177D01*
G37*
%LPD*%
%LPC*%
G36*
X886593Y426078D02*
X886593Y426078D01*
X880851Y428457D01*
X876457Y432851D01*
X874078Y438593D01*
X874078Y444807D01*
X876457Y450549D01*
X880851Y454943D01*
X886593Y457322D01*
X892807Y457322D01*
X898549Y454943D01*
X902943Y450549D01*
X905322Y444807D01*
X905322Y438593D01*
X902943Y432851D01*
X898549Y428457D01*
X892807Y426078D01*
X886593Y426078D01*
G37*
%LPD*%
%LPC*%
G36*
X839603Y426078D02*
X839603Y426078D01*
X833861Y428457D01*
X829467Y432851D01*
X827088Y438593D01*
X827088Y444807D01*
X829467Y450549D01*
X833861Y454943D01*
X839603Y457322D01*
X845817Y457322D01*
X851559Y454943D01*
X855953Y450549D01*
X858332Y444807D01*
X858332Y438593D01*
X855953Y432851D01*
X851559Y428457D01*
X845817Y426078D01*
X839603Y426078D01*
G37*
%LPD*%
%LPC*%
G36*
X264123Y634763D02*
X264123Y634763D01*
X259063Y639823D01*
X259063Y646977D01*
X264123Y652037D01*
X271348Y652037D01*
X271362Y652028D01*
X271462Y652002D01*
X271561Y651972D01*
X271581Y651972D01*
X271600Y651967D01*
X271703Y651976D01*
X271807Y651978D01*
X271826Y651985D01*
X271846Y651987D01*
X271941Y652027D01*
X272038Y652063D01*
X272054Y652075D01*
X272072Y652083D01*
X272203Y652188D01*
X293220Y673205D01*
X293273Y673279D01*
X293333Y673348D01*
X293345Y673379D01*
X293364Y673405D01*
X293391Y673492D01*
X293425Y673577D01*
X293429Y673618D01*
X293436Y673640D01*
X293435Y673672D01*
X293443Y673743D01*
X293443Y675948D01*
X296552Y679057D01*
X300948Y679057D01*
X304057Y675948D01*
X304057Y671552D01*
X300948Y668443D01*
X298743Y668443D01*
X298653Y668429D01*
X298562Y668421D01*
X298533Y668409D01*
X298501Y668404D01*
X298420Y668361D01*
X298336Y668325D01*
X298304Y668299D01*
X298283Y668288D01*
X298261Y668265D01*
X298205Y668220D01*
X276560Y646575D01*
X276507Y646501D01*
X276447Y646432D01*
X276435Y646401D01*
X276416Y646375D01*
X276389Y646288D01*
X276355Y646203D01*
X276351Y646162D01*
X276344Y646140D01*
X276345Y646108D01*
X276337Y646037D01*
X276337Y639823D01*
X271277Y634763D01*
X264123Y634763D01*
G37*
%LPD*%
%LPC*%
G36*
X521627Y944177D02*
X521627Y944177D01*
X517613Y945840D01*
X514540Y948913D01*
X512877Y952927D01*
X512877Y957273D01*
X514540Y961287D01*
X517613Y964360D01*
X521627Y966023D01*
X525973Y966023D01*
X529987Y964360D01*
X533060Y961287D01*
X534723Y957273D01*
X534723Y952927D01*
X533060Y948913D01*
X529987Y945840D01*
X525973Y944177D01*
X521627Y944177D01*
G37*
%LPD*%
%LPC*%
G36*
X496227Y944177D02*
X496227Y944177D01*
X492213Y945840D01*
X489140Y948913D01*
X487477Y952927D01*
X487477Y957273D01*
X489140Y961287D01*
X492213Y964360D01*
X496227Y966023D01*
X500573Y966023D01*
X504587Y964360D01*
X507660Y961287D01*
X509323Y957273D01*
X509323Y952927D01*
X507660Y948913D01*
X504587Y945840D01*
X500573Y944177D01*
X496227Y944177D01*
G37*
%LPD*%
%LPC*%
G36*
X851827Y944177D02*
X851827Y944177D01*
X847813Y945840D01*
X844740Y948913D01*
X843077Y952927D01*
X843077Y957273D01*
X844740Y961287D01*
X847813Y964360D01*
X851827Y966023D01*
X856173Y966023D01*
X860187Y964360D01*
X863260Y961287D01*
X864923Y957273D01*
X864923Y952927D01*
X863260Y948913D01*
X860187Y945840D01*
X856173Y944177D01*
X851827Y944177D01*
G37*
%LPD*%
%LPC*%
G36*
X801027Y944177D02*
X801027Y944177D01*
X797013Y945840D01*
X793940Y948913D01*
X792277Y952927D01*
X792277Y957273D01*
X793940Y961287D01*
X797013Y964360D01*
X801027Y966023D01*
X805373Y966023D01*
X809387Y964360D01*
X812460Y961287D01*
X814123Y957273D01*
X814123Y952927D01*
X812460Y948913D01*
X809387Y945840D01*
X805373Y944177D01*
X801027Y944177D01*
G37*
%LPD*%
%LPC*%
G36*
X724827Y944177D02*
X724827Y944177D01*
X720813Y945840D01*
X717740Y948913D01*
X716077Y952927D01*
X716077Y957273D01*
X717740Y961287D01*
X720813Y964360D01*
X724827Y966023D01*
X729173Y966023D01*
X733187Y964360D01*
X736260Y961287D01*
X737923Y957273D01*
X737923Y952927D01*
X736260Y948913D01*
X733187Y945840D01*
X729173Y944177D01*
X724827Y944177D01*
G37*
%LPD*%
%LPC*%
G36*
X902627Y944177D02*
X902627Y944177D01*
X898613Y945840D01*
X895540Y948913D01*
X893877Y952927D01*
X893877Y957273D01*
X895540Y961287D01*
X898613Y964360D01*
X902627Y966023D01*
X906973Y966023D01*
X910987Y964360D01*
X914060Y961287D01*
X915723Y957273D01*
X915723Y952927D01*
X914060Y948913D01*
X910987Y945840D01*
X906973Y944177D01*
X902627Y944177D01*
G37*
%LPD*%
%LPC*%
G36*
X547027Y944177D02*
X547027Y944177D01*
X543013Y945840D01*
X539940Y948913D01*
X538277Y952927D01*
X538277Y957273D01*
X539940Y961287D01*
X543013Y964360D01*
X547027Y966023D01*
X551373Y966023D01*
X555387Y964360D01*
X558460Y961287D01*
X560123Y957273D01*
X560123Y952927D01*
X558460Y948913D01*
X555387Y945840D01*
X551373Y944177D01*
X547027Y944177D01*
G37*
%LPD*%
%LPC*%
G36*
X750227Y944177D02*
X750227Y944177D01*
X746213Y945840D01*
X743140Y948913D01*
X741477Y952927D01*
X741477Y957273D01*
X743140Y961287D01*
X746213Y964360D01*
X750227Y966023D01*
X754573Y966023D01*
X758587Y964360D01*
X761660Y961287D01*
X763323Y957273D01*
X763323Y952927D01*
X761660Y948913D01*
X758587Y945840D01*
X754573Y944177D01*
X750227Y944177D01*
G37*
%LPD*%
%LPC*%
G36*
X674027Y944177D02*
X674027Y944177D01*
X670013Y945840D01*
X666940Y948913D01*
X665277Y952927D01*
X665277Y957273D01*
X666940Y961287D01*
X670013Y964360D01*
X674027Y966023D01*
X678373Y966023D01*
X682387Y964360D01*
X685460Y961287D01*
X687123Y957273D01*
X687123Y952927D01*
X685460Y948913D01*
X682387Y945840D01*
X678373Y944177D01*
X674027Y944177D01*
G37*
%LPD*%
%LPC*%
G36*
X877227Y944177D02*
X877227Y944177D01*
X873213Y945840D01*
X870140Y948913D01*
X868477Y952927D01*
X868477Y957273D01*
X870140Y961287D01*
X873213Y964360D01*
X877227Y966023D01*
X881573Y966023D01*
X885587Y964360D01*
X888660Y961287D01*
X890323Y957273D01*
X890323Y952927D01*
X888660Y948913D01*
X885587Y945840D01*
X881573Y944177D01*
X877227Y944177D01*
G37*
%LPD*%
%LPC*%
G36*
X470827Y918777D02*
X470827Y918777D01*
X466813Y920440D01*
X463740Y923513D01*
X462077Y927527D01*
X462077Y931873D01*
X463740Y935887D01*
X466813Y938960D01*
X470827Y940623D01*
X475173Y940623D01*
X479187Y938960D01*
X482260Y935887D01*
X483923Y931873D01*
X483923Y927527D01*
X482260Y923513D01*
X479187Y920440D01*
X475173Y918777D01*
X470827Y918777D01*
G37*
%LPD*%
%LPC*%
G36*
X547027Y918777D02*
X547027Y918777D01*
X543013Y920440D01*
X539940Y923513D01*
X538277Y927527D01*
X538277Y931873D01*
X539940Y935887D01*
X543013Y938960D01*
X547027Y940623D01*
X551373Y940623D01*
X555387Y938960D01*
X558460Y935887D01*
X560123Y931873D01*
X560123Y927527D01*
X558460Y923513D01*
X555387Y920440D01*
X551373Y918777D01*
X547027Y918777D01*
G37*
%LPD*%
%LPC*%
G36*
X801027Y918777D02*
X801027Y918777D01*
X797013Y920440D01*
X793940Y923513D01*
X792277Y927527D01*
X792277Y931873D01*
X793940Y935887D01*
X797013Y938960D01*
X801027Y940623D01*
X805373Y940623D01*
X809387Y938960D01*
X812460Y935887D01*
X814123Y931873D01*
X814123Y927527D01*
X812460Y923513D01*
X809387Y920440D01*
X805373Y918777D01*
X801027Y918777D01*
G37*
%LPD*%
%LPC*%
G36*
X826427Y918777D02*
X826427Y918777D01*
X822413Y920440D01*
X819340Y923513D01*
X817677Y927527D01*
X817677Y931873D01*
X819340Y935887D01*
X822413Y938960D01*
X826427Y940623D01*
X830773Y940623D01*
X834787Y938960D01*
X837860Y935887D01*
X839523Y931873D01*
X839523Y927527D01*
X837860Y923513D01*
X834787Y920440D01*
X830773Y918777D01*
X826427Y918777D01*
G37*
%LPD*%
%LPC*%
G36*
X851827Y918777D02*
X851827Y918777D01*
X847813Y920440D01*
X844740Y923513D01*
X843077Y927527D01*
X843077Y931873D01*
X844740Y935887D01*
X847813Y938960D01*
X851827Y940623D01*
X856173Y940623D01*
X860187Y938960D01*
X863260Y935887D01*
X864923Y931873D01*
X864923Y927527D01*
X863260Y923513D01*
X860187Y920440D01*
X856173Y918777D01*
X851827Y918777D01*
G37*
%LPD*%
%LPC*%
G36*
X674027Y918777D02*
X674027Y918777D01*
X670013Y920440D01*
X666940Y923513D01*
X665277Y927527D01*
X665277Y931873D01*
X666940Y935887D01*
X670013Y938960D01*
X674027Y940623D01*
X678373Y940623D01*
X682387Y938960D01*
X685460Y935887D01*
X687123Y931873D01*
X687123Y927527D01*
X685460Y923513D01*
X682387Y920440D01*
X678373Y918777D01*
X674027Y918777D01*
G37*
%LPD*%
%LPC*%
G36*
X597827Y918777D02*
X597827Y918777D01*
X593813Y920440D01*
X590740Y923513D01*
X589077Y927527D01*
X589077Y931873D01*
X590740Y935887D01*
X593813Y938960D01*
X597827Y940623D01*
X602173Y940623D01*
X606187Y938960D01*
X609260Y935887D01*
X610923Y931873D01*
X610923Y927527D01*
X609260Y923513D01*
X606187Y920440D01*
X602173Y918777D01*
X597827Y918777D01*
G37*
%LPD*%
%LPC*%
G36*
X496227Y918777D02*
X496227Y918777D01*
X492213Y920440D01*
X489140Y923513D01*
X487477Y927527D01*
X487477Y931873D01*
X489140Y935887D01*
X492213Y938960D01*
X496227Y940623D01*
X500573Y940623D01*
X504587Y938960D01*
X507660Y935887D01*
X509323Y931873D01*
X509323Y927527D01*
X507660Y923513D01*
X504587Y920440D01*
X500573Y918777D01*
X496227Y918777D01*
G37*
%LPD*%
%LPC*%
G36*
X699427Y918777D02*
X699427Y918777D01*
X695413Y920440D01*
X692340Y923513D01*
X690677Y927527D01*
X690677Y931873D01*
X692340Y935887D01*
X695413Y938960D01*
X699427Y940623D01*
X703773Y940623D01*
X707787Y938960D01*
X710860Y935887D01*
X712523Y931873D01*
X712523Y927527D01*
X710860Y923513D01*
X707787Y920440D01*
X703773Y918777D01*
X699427Y918777D01*
G37*
%LPD*%
%LPC*%
G36*
X775627Y918777D02*
X775627Y918777D01*
X771613Y920440D01*
X768540Y923513D01*
X766877Y927527D01*
X766877Y931873D01*
X768540Y935887D01*
X771613Y938960D01*
X775627Y940623D01*
X779973Y940623D01*
X783987Y938960D01*
X787060Y935887D01*
X788723Y931873D01*
X788723Y927527D01*
X787060Y923513D01*
X783987Y920440D01*
X779973Y918777D01*
X775627Y918777D01*
G37*
%LPD*%
%LPC*%
G36*
X572427Y918777D02*
X572427Y918777D01*
X568413Y920440D01*
X565340Y923513D01*
X563677Y927527D01*
X563677Y931873D01*
X565340Y935887D01*
X568413Y938960D01*
X572427Y940623D01*
X576773Y940623D01*
X580787Y938960D01*
X583860Y935887D01*
X585523Y931873D01*
X585523Y927527D01*
X583860Y923513D01*
X580787Y920440D01*
X576773Y918777D01*
X572427Y918777D01*
G37*
%LPD*%
%LPC*%
G36*
X648627Y918777D02*
X648627Y918777D01*
X644613Y920440D01*
X641540Y923513D01*
X639877Y927527D01*
X639877Y931873D01*
X641540Y935887D01*
X644613Y938960D01*
X648627Y940623D01*
X652973Y940623D01*
X656987Y938960D01*
X660060Y935887D01*
X661723Y931873D01*
X661723Y927527D01*
X660060Y923513D01*
X656987Y920440D01*
X652973Y918777D01*
X648627Y918777D01*
G37*
%LPD*%
%LPC*%
G36*
X750227Y918777D02*
X750227Y918777D01*
X746213Y920440D01*
X743140Y923513D01*
X741477Y927527D01*
X741477Y931873D01*
X743140Y935887D01*
X746213Y938960D01*
X750227Y940623D01*
X754573Y940623D01*
X758587Y938960D01*
X761660Y935887D01*
X763323Y931873D01*
X763323Y927527D01*
X761660Y923513D01*
X758587Y920440D01*
X754573Y918777D01*
X750227Y918777D01*
G37*
%LPD*%
%LPC*%
G36*
X642296Y332593D02*
X642296Y332593D01*
X636493Y338396D01*
X636493Y346604D01*
X642296Y352407D01*
X650504Y352407D01*
X656307Y346604D01*
X656307Y338396D01*
X650504Y332593D01*
X642296Y332593D01*
G37*
%LPD*%
%LPC*%
G36*
X263123Y826763D02*
X263123Y826763D01*
X258063Y831823D01*
X258063Y838977D01*
X263123Y844037D01*
X270277Y844037D01*
X275337Y838977D01*
X275337Y831823D01*
X270277Y826763D01*
X263123Y826763D01*
G37*
%LPD*%
%LPC*%
G36*
X237723Y826763D02*
X237723Y826763D01*
X232663Y831823D01*
X232663Y838977D01*
X237723Y844037D01*
X244877Y844037D01*
X249937Y838977D01*
X249937Y831823D01*
X244877Y826763D01*
X237723Y826763D01*
G37*
%LPD*%
%LPC*%
G36*
X237723Y801363D02*
X237723Y801363D01*
X232663Y806423D01*
X232663Y813577D01*
X237723Y818637D01*
X244877Y818637D01*
X249937Y813577D01*
X249937Y806423D01*
X244877Y801363D01*
X237723Y801363D01*
G37*
%LPD*%
%LPC*%
G36*
X263123Y801363D02*
X263123Y801363D01*
X258063Y806423D01*
X258063Y813577D01*
X263123Y818637D01*
X270277Y818637D01*
X275337Y813577D01*
X275337Y806423D01*
X270277Y801363D01*
X263123Y801363D01*
G37*
%LPD*%
%LPC*%
G36*
X263123Y775963D02*
X263123Y775963D01*
X258063Y781023D01*
X258063Y788177D01*
X263123Y793237D01*
X270277Y793237D01*
X275337Y788177D01*
X275337Y781023D01*
X270277Y775963D01*
X263123Y775963D01*
G37*
%LPD*%
%LPC*%
G36*
X237723Y775963D02*
X237723Y775963D01*
X232663Y781023D01*
X232663Y788177D01*
X237723Y793237D01*
X244877Y793237D01*
X249937Y788177D01*
X249937Y781023D01*
X244877Y775963D01*
X237723Y775963D01*
G37*
%LPD*%
%LPC*%
G36*
X237723Y750563D02*
X237723Y750563D01*
X232663Y755623D01*
X232663Y762777D01*
X237723Y767837D01*
X244877Y767837D01*
X249937Y762777D01*
X249937Y755623D01*
X244877Y750563D01*
X237723Y750563D01*
G37*
%LPD*%
%LPC*%
G36*
X263123Y750563D02*
X263123Y750563D01*
X258063Y755623D01*
X258063Y762777D01*
X263123Y767837D01*
X270277Y767837D01*
X275337Y762777D01*
X275337Y755623D01*
X270277Y750563D01*
X263123Y750563D01*
G37*
%LPD*%
%LPC*%
G36*
X238723Y660163D02*
X238723Y660163D01*
X233663Y665223D01*
X233663Y672377D01*
X238723Y677437D01*
X245877Y677437D01*
X250937Y672377D01*
X250937Y665223D01*
X245877Y660163D01*
X238723Y660163D01*
G37*
%LPD*%
%LPC*%
G36*
X264123Y660163D02*
X264123Y660163D01*
X259063Y665223D01*
X259063Y672377D01*
X264123Y677437D01*
X271277Y677437D01*
X276337Y672377D01*
X276337Y665223D01*
X271277Y660163D01*
X264123Y660163D01*
G37*
%LPD*%
%LPC*%
G36*
X238723Y609363D02*
X238723Y609363D01*
X233663Y614423D01*
X233663Y621577D01*
X238723Y626637D01*
X245877Y626637D01*
X250937Y621577D01*
X250937Y614423D01*
X245877Y609363D01*
X238723Y609363D01*
G37*
%LPD*%
%LPC*%
G36*
X237723Y852163D02*
X237723Y852163D01*
X232663Y857223D01*
X232663Y864377D01*
X237723Y869437D01*
X244877Y869437D01*
X249937Y864377D01*
X249937Y857223D01*
X244877Y852163D01*
X237723Y852163D01*
G37*
%LPD*%
%LPC*%
G36*
X263123Y852163D02*
X263123Y852163D01*
X258063Y857223D01*
X258063Y864377D01*
X263123Y869437D01*
X270277Y869437D01*
X275337Y864377D01*
X275337Y857223D01*
X270277Y852163D01*
X263123Y852163D01*
G37*
%LPD*%
%LPC*%
G36*
X1033182Y705863D02*
X1033182Y705863D01*
X1030008Y707178D01*
X1027578Y709608D01*
X1026263Y712782D01*
X1026263Y716218D01*
X1027578Y719392D01*
X1030008Y721822D01*
X1033182Y723137D01*
X1036618Y723137D01*
X1039792Y721822D01*
X1042222Y719392D01*
X1043537Y716218D01*
X1043537Y712782D01*
X1042222Y709608D01*
X1039792Y707178D01*
X1036618Y705863D01*
X1033182Y705863D01*
G37*
%LPD*%
%LPC*%
G36*
X1032582Y573663D02*
X1032582Y573663D01*
X1029408Y574978D01*
X1026978Y577408D01*
X1025663Y580582D01*
X1025663Y584018D01*
X1026978Y587192D01*
X1029408Y589622D01*
X1032582Y590937D01*
X1036018Y590937D01*
X1039192Y589622D01*
X1041622Y587192D01*
X1042937Y584018D01*
X1042937Y580582D01*
X1041622Y577408D01*
X1039192Y574978D01*
X1036018Y573663D01*
X1032582Y573663D01*
G37*
%LPD*%
%LPC*%
G36*
X593533Y360571D02*
X593533Y360571D01*
X588771Y365333D01*
X588771Y372067D01*
X593533Y376829D01*
X600267Y376829D01*
X605029Y372067D01*
X605029Y365333D01*
X600267Y360571D01*
X593533Y360571D01*
G37*
%LPD*%
%LPC*%
G36*
X350733Y309271D02*
X350733Y309271D01*
X345971Y314033D01*
X345971Y320767D01*
X350733Y325529D01*
X357467Y325529D01*
X362229Y320767D01*
X362229Y314033D01*
X357467Y309271D01*
X350733Y309271D01*
G37*
%LPD*%
%LPC*%
G36*
X593533Y309771D02*
X593533Y309771D01*
X588771Y314533D01*
X588771Y321267D01*
X593533Y326029D01*
X600267Y326029D01*
X605029Y321267D01*
X605029Y314533D01*
X600267Y309771D01*
X593533Y309771D01*
G37*
%LPD*%
%LPC*%
G36*
X469533Y360771D02*
X469533Y360771D01*
X464771Y365533D01*
X464771Y372267D01*
X469533Y377029D01*
X476267Y377029D01*
X481029Y372267D01*
X481029Y365533D01*
X476267Y360771D01*
X469533Y360771D01*
G37*
%LPD*%
%LPC*%
G36*
X790543Y612083D02*
X790543Y612083D01*
X790543Y625601D01*
X801854Y625601D01*
X802501Y625428D01*
X803080Y625093D01*
X803553Y624620D01*
X803888Y624041D01*
X804061Y623394D01*
X804061Y612083D01*
X790543Y612083D01*
G37*
%LPD*%
%LPC*%
G36*
X790243Y842583D02*
X790243Y842583D01*
X790243Y856101D01*
X801554Y856101D01*
X802201Y855928D01*
X802780Y855593D01*
X803253Y855120D01*
X803588Y854541D01*
X803761Y853894D01*
X803761Y842583D01*
X790243Y842583D01*
G37*
%LPD*%
%LPC*%
G36*
X394003Y842583D02*
X394003Y842583D01*
X394003Y856101D01*
X405314Y856101D01*
X405961Y855928D01*
X406540Y855593D01*
X407013Y855120D01*
X407348Y854541D01*
X407521Y853894D01*
X407521Y842583D01*
X394003Y842583D01*
G37*
%LPD*%
%LPC*%
G36*
X394303Y612083D02*
X394303Y612083D01*
X394303Y625601D01*
X405614Y625601D01*
X406261Y625428D01*
X406840Y625093D01*
X407313Y624620D01*
X407648Y624041D01*
X407821Y623394D01*
X407821Y612083D01*
X394303Y612083D01*
G37*
%LPD*%
%LPC*%
G36*
X790543Y595519D02*
X790543Y595519D01*
X790543Y609037D01*
X804061Y609037D01*
X804061Y597726D01*
X803888Y597079D01*
X803553Y596500D01*
X803080Y596027D01*
X802501Y595692D01*
X801854Y595519D01*
X790543Y595519D01*
G37*
%LPD*%
%LPC*%
G36*
X773979Y612083D02*
X773979Y612083D01*
X773979Y623394D01*
X774152Y624041D01*
X774487Y624620D01*
X774960Y625093D01*
X775539Y625428D01*
X776186Y625601D01*
X787497Y625601D01*
X787497Y612083D01*
X773979Y612083D01*
G37*
%LPD*%
%LPC*%
G36*
X377439Y842583D02*
X377439Y842583D01*
X377439Y853894D01*
X377612Y854541D01*
X377947Y855120D01*
X378420Y855593D01*
X378999Y855928D01*
X379646Y856101D01*
X390957Y856101D01*
X390957Y842583D01*
X377439Y842583D01*
G37*
%LPD*%
%LPC*%
G36*
X790243Y826019D02*
X790243Y826019D01*
X790243Y839537D01*
X803761Y839537D01*
X803761Y828226D01*
X803588Y827579D01*
X803253Y827000D01*
X802780Y826527D01*
X802201Y826192D01*
X801554Y826019D01*
X790243Y826019D01*
G37*
%LPD*%
%LPC*%
G36*
X773679Y842583D02*
X773679Y842583D01*
X773679Y853894D01*
X773852Y854541D01*
X774187Y855120D01*
X774660Y855593D01*
X775239Y855928D01*
X775886Y856101D01*
X787197Y856101D01*
X787197Y842583D01*
X773679Y842583D01*
G37*
%LPD*%
%LPC*%
G36*
X394003Y826019D02*
X394003Y826019D01*
X394003Y839537D01*
X407521Y839537D01*
X407521Y828226D01*
X407348Y827579D01*
X407013Y827000D01*
X406540Y826527D01*
X405961Y826192D01*
X405314Y826019D01*
X394003Y826019D01*
G37*
%LPD*%
%LPC*%
G36*
X394303Y595519D02*
X394303Y595519D01*
X394303Y609037D01*
X407821Y609037D01*
X407821Y597726D01*
X407648Y597079D01*
X407313Y596500D01*
X406840Y596027D01*
X406261Y595692D01*
X405614Y595519D01*
X394303Y595519D01*
G37*
%LPD*%
%LPC*%
G36*
X379646Y826019D02*
X379646Y826019D01*
X378999Y826192D01*
X378420Y826527D01*
X377947Y827000D01*
X377612Y827579D01*
X377439Y828226D01*
X377439Y839537D01*
X390957Y839537D01*
X390957Y826019D01*
X379646Y826019D01*
G37*
%LPD*%
%LPC*%
G36*
X776186Y595519D02*
X776186Y595519D01*
X775539Y595692D01*
X774960Y596027D01*
X774487Y596500D01*
X774152Y597079D01*
X773979Y597726D01*
X773979Y609037D01*
X787497Y609037D01*
X787497Y595519D01*
X776186Y595519D01*
G37*
%LPD*%
%LPC*%
G36*
X379946Y595519D02*
X379946Y595519D01*
X379299Y595692D01*
X378720Y596027D01*
X378247Y596500D01*
X377912Y597079D01*
X377739Y597726D01*
X377739Y609037D01*
X391257Y609037D01*
X391257Y595519D01*
X379946Y595519D01*
G37*
%LPD*%
%LPC*%
G36*
X775886Y826019D02*
X775886Y826019D01*
X775239Y826192D01*
X774660Y826527D01*
X774187Y827000D01*
X773852Y827579D01*
X773679Y828226D01*
X773679Y839537D01*
X787197Y839537D01*
X787197Y826019D01*
X775886Y826019D01*
G37*
%LPD*%
%LPC*%
G36*
X887123Y578923D02*
X887123Y578923D01*
X887123Y596600D01*
X888158Y596436D01*
X889793Y595904D01*
X891325Y595124D01*
X892716Y594113D01*
X893931Y592898D01*
X894942Y591507D01*
X895722Y589975D01*
X896254Y588340D01*
X896523Y586642D01*
X896523Y578923D01*
X887123Y578923D01*
G37*
%LPD*%
%LPC*%
G36*
X887123Y575877D02*
X887123Y575877D01*
X896523Y575877D01*
X896523Y568158D01*
X896254Y566460D01*
X895722Y564825D01*
X894942Y563293D01*
X893931Y561902D01*
X892716Y560687D01*
X891325Y559676D01*
X889793Y558896D01*
X888158Y558364D01*
X887123Y558200D01*
X887123Y575877D01*
G37*
%LPD*%
%LPC*%
G36*
X874677Y578923D02*
X874677Y578923D01*
X874677Y586642D01*
X874946Y588340D01*
X875478Y589975D01*
X876258Y591507D01*
X877269Y592898D01*
X878484Y594113D01*
X879875Y595124D01*
X881407Y595904D01*
X883042Y596436D01*
X884077Y596600D01*
X884077Y578923D01*
X874677Y578923D01*
G37*
%LPD*%
%LPC*%
G36*
X883042Y558364D02*
X883042Y558364D01*
X881407Y558896D01*
X879875Y559676D01*
X878484Y560687D01*
X877269Y561902D01*
X876258Y563293D01*
X875478Y564825D01*
X874946Y566460D01*
X874677Y568158D01*
X874677Y575877D01*
X884077Y575877D01*
X884077Y558200D01*
X883042Y558364D01*
G37*
%LPD*%
%LPC*%
G36*
X263623Y451323D02*
X263623Y451323D01*
X263623Y459881D01*
X270433Y459881D01*
X272001Y459633D01*
X273510Y459142D01*
X274923Y458422D01*
X276207Y457489D01*
X277329Y456367D01*
X278262Y455083D01*
X278982Y453670D01*
X279473Y452161D01*
X279605Y451323D01*
X263623Y451323D01*
G37*
%LPD*%
%LPC*%
G36*
X307623Y451323D02*
X307623Y451323D01*
X307623Y459881D01*
X314433Y459881D01*
X316001Y459633D01*
X317510Y459142D01*
X318923Y458422D01*
X320207Y457489D01*
X321329Y456367D01*
X322262Y455083D01*
X322982Y453670D01*
X323473Y452161D01*
X323605Y451323D01*
X307623Y451323D01*
G37*
%LPD*%
%LPC*%
G36*
X244595Y451323D02*
X244595Y451323D01*
X244727Y452161D01*
X245218Y453670D01*
X245938Y455083D01*
X246871Y456367D01*
X247993Y457489D01*
X249277Y458422D01*
X250690Y459142D01*
X252199Y459633D01*
X253767Y459881D01*
X260577Y459881D01*
X260577Y451323D01*
X244595Y451323D01*
G37*
%LPD*%
%LPC*%
G36*
X288595Y451323D02*
X288595Y451323D01*
X288727Y452161D01*
X289218Y453670D01*
X289938Y455083D01*
X290871Y456367D01*
X291993Y457489D01*
X293277Y458422D01*
X294690Y459142D01*
X296199Y459633D01*
X297767Y459881D01*
X304577Y459881D01*
X304577Y451323D01*
X288595Y451323D01*
G37*
%LPD*%
%LPC*%
G36*
X307623Y439719D02*
X307623Y439719D01*
X307623Y448277D01*
X323605Y448277D01*
X323473Y447439D01*
X322982Y445930D01*
X322262Y444517D01*
X321329Y443233D01*
X320207Y442111D01*
X318923Y441178D01*
X317510Y440458D01*
X316001Y439967D01*
X314433Y439719D01*
X307623Y439719D01*
G37*
%LPD*%
%LPC*%
G36*
X263623Y439719D02*
X263623Y439719D01*
X263623Y448277D01*
X279605Y448277D01*
X279473Y447439D01*
X278982Y445930D01*
X278262Y444517D01*
X277329Y443233D01*
X276207Y442111D01*
X274923Y441178D01*
X273510Y440458D01*
X272001Y439967D01*
X270433Y439719D01*
X263623Y439719D01*
G37*
%LPD*%
%LPC*%
G36*
X253767Y439719D02*
X253767Y439719D01*
X252199Y439967D01*
X250690Y440458D01*
X249277Y441178D01*
X247993Y442111D01*
X246871Y443233D01*
X245938Y444517D01*
X245218Y445930D01*
X244727Y447439D01*
X244595Y448277D01*
X260577Y448277D01*
X260577Y439719D01*
X253767Y439719D01*
G37*
%LPD*%
%LPC*%
G36*
X297767Y439719D02*
X297767Y439719D01*
X296199Y439967D01*
X294690Y440458D01*
X293277Y441178D01*
X291993Y442111D01*
X290871Y443233D01*
X289938Y444517D01*
X289218Y445930D01*
X288727Y447439D01*
X288595Y448277D01*
X304577Y448277D01*
X304577Y439719D01*
X297767Y439719D01*
G37*
%LPD*%
%LPC*%
G36*
X830123Y956623D02*
X830123Y956623D01*
X830123Y966946D01*
X831396Y966745D01*
X833183Y966164D01*
X834857Y965311D01*
X836378Y964206D01*
X837706Y962878D01*
X838811Y961357D01*
X839664Y959683D01*
X840245Y957896D01*
X840446Y956623D01*
X830123Y956623D01*
G37*
%LPD*%
%LPC*%
G36*
X728523Y931223D02*
X728523Y931223D01*
X728523Y941546D01*
X729796Y941345D01*
X731583Y940764D01*
X733257Y939911D01*
X734778Y938806D01*
X736106Y937478D01*
X737211Y935957D01*
X738064Y934283D01*
X738645Y932496D01*
X738846Y931223D01*
X728523Y931223D01*
G37*
%LPD*%
%LPC*%
G36*
X525323Y931223D02*
X525323Y931223D01*
X525323Y941546D01*
X526596Y941345D01*
X528383Y940764D01*
X530057Y939911D01*
X531578Y938806D01*
X532906Y937478D01*
X534011Y935957D01*
X534864Y934283D01*
X535445Y932496D01*
X535646Y931223D01*
X525323Y931223D01*
G37*
%LPD*%
%LPC*%
G36*
X779323Y956623D02*
X779323Y956623D01*
X779323Y966946D01*
X780596Y966745D01*
X782383Y966164D01*
X784057Y965311D01*
X785578Y964206D01*
X786906Y962878D01*
X788011Y961357D01*
X788864Y959683D01*
X789445Y957896D01*
X789646Y956623D01*
X779323Y956623D01*
G37*
%LPD*%
%LPC*%
G36*
X906323Y931223D02*
X906323Y931223D01*
X906323Y941546D01*
X907596Y941345D01*
X909383Y940764D01*
X911057Y939911D01*
X912578Y938806D01*
X913906Y937478D01*
X915011Y935957D01*
X915864Y934283D01*
X916445Y932496D01*
X916646Y931223D01*
X906323Y931223D01*
G37*
%LPD*%
%LPC*%
G36*
X652323Y956623D02*
X652323Y956623D01*
X652323Y966946D01*
X653596Y966745D01*
X655383Y966164D01*
X657057Y965311D01*
X658578Y964206D01*
X659906Y962878D01*
X661011Y961357D01*
X661864Y959683D01*
X662445Y957896D01*
X662646Y956623D01*
X652323Y956623D01*
G37*
%LPD*%
%LPC*%
G36*
X474523Y956623D02*
X474523Y956623D01*
X474523Y966946D01*
X475796Y966745D01*
X477583Y966164D01*
X479257Y965311D01*
X480778Y964206D01*
X482106Y962878D01*
X483211Y961357D01*
X484064Y959683D01*
X484645Y957896D01*
X484846Y956623D01*
X474523Y956623D01*
G37*
%LPD*%
%LPC*%
G36*
X576123Y956623D02*
X576123Y956623D01*
X576123Y966946D01*
X577396Y966745D01*
X579183Y966164D01*
X580857Y965311D01*
X582378Y964206D01*
X583706Y962878D01*
X584811Y961357D01*
X585664Y959683D01*
X586245Y957896D01*
X586446Y956623D01*
X576123Y956623D01*
G37*
%LPD*%
%LPC*%
G36*
X816754Y956623D02*
X816754Y956623D01*
X816955Y957896D01*
X817536Y959683D01*
X818389Y961357D01*
X819494Y962878D01*
X820822Y964206D01*
X822343Y965311D01*
X824017Y966164D01*
X825804Y966745D01*
X827077Y966946D01*
X827077Y956623D01*
X816754Y956623D01*
G37*
%LPD*%
%LPC*%
G36*
X765954Y956623D02*
X765954Y956623D01*
X766155Y957896D01*
X766736Y959683D01*
X767589Y961357D01*
X768694Y962878D01*
X770022Y964206D01*
X771543Y965311D01*
X773217Y966164D01*
X775004Y966745D01*
X776277Y966946D01*
X776277Y956623D01*
X765954Y956623D01*
G37*
%LPD*%
%LPC*%
G36*
X638954Y956623D02*
X638954Y956623D01*
X639155Y957896D01*
X639736Y959683D01*
X640589Y961357D01*
X641694Y962878D01*
X643022Y964206D01*
X644543Y965311D01*
X646217Y966164D01*
X648004Y966745D01*
X649277Y966946D01*
X649277Y956623D01*
X638954Y956623D01*
G37*
%LPD*%
%LPC*%
G36*
X461154Y956623D02*
X461154Y956623D01*
X461355Y957896D01*
X461936Y959683D01*
X462789Y961357D01*
X463894Y962878D01*
X465222Y964206D01*
X466743Y965311D01*
X468417Y966164D01*
X470204Y966745D01*
X471477Y966946D01*
X471477Y956623D01*
X461154Y956623D01*
G37*
%LPD*%
%LPC*%
G36*
X892954Y931223D02*
X892954Y931223D01*
X893155Y932496D01*
X893736Y934283D01*
X894589Y935957D01*
X895694Y937478D01*
X897022Y938806D01*
X898543Y939911D01*
X900217Y940764D01*
X902004Y941345D01*
X903277Y941546D01*
X903277Y931223D01*
X892954Y931223D01*
G37*
%LPD*%
%LPC*%
G36*
X511954Y931223D02*
X511954Y931223D01*
X512155Y932496D01*
X512736Y934283D01*
X513589Y935957D01*
X514694Y937478D01*
X516022Y938806D01*
X517543Y939911D01*
X519217Y940764D01*
X521004Y941345D01*
X522277Y941546D01*
X522277Y931223D01*
X511954Y931223D01*
G37*
%LPD*%
%LPC*%
G36*
X576123Y953577D02*
X576123Y953577D01*
X586446Y953577D01*
X586245Y952304D01*
X585664Y950517D01*
X584811Y948843D01*
X583706Y947322D01*
X582378Y945994D01*
X580857Y944889D01*
X579183Y944036D01*
X577396Y943455D01*
X576123Y943254D01*
X576123Y953577D01*
G37*
%LPD*%
%LPC*%
G36*
X474523Y953577D02*
X474523Y953577D01*
X484846Y953577D01*
X484645Y952304D01*
X484064Y950517D01*
X483211Y948843D01*
X482106Y947322D01*
X480778Y945994D01*
X479257Y944889D01*
X477583Y944036D01*
X475796Y943455D01*
X474523Y943254D01*
X474523Y953577D01*
G37*
%LPD*%
%LPC*%
G36*
X715154Y931223D02*
X715154Y931223D01*
X715355Y932496D01*
X715936Y934283D01*
X716789Y935957D01*
X717894Y937478D01*
X719222Y938806D01*
X720743Y939911D01*
X722417Y940764D01*
X724204Y941345D01*
X725477Y941546D01*
X725477Y931223D01*
X715154Y931223D01*
G37*
%LPD*%
%LPC*%
G36*
X728523Y928177D02*
X728523Y928177D01*
X738846Y928177D01*
X738645Y926904D01*
X738064Y925117D01*
X737211Y923443D01*
X736106Y921922D01*
X734778Y920594D01*
X733257Y919489D01*
X731583Y918636D01*
X729796Y918055D01*
X728523Y917854D01*
X728523Y928177D01*
G37*
%LPD*%
%LPC*%
G36*
X906323Y928177D02*
X906323Y928177D01*
X916646Y928177D01*
X916445Y926904D01*
X915864Y925117D01*
X915011Y923443D01*
X913906Y921922D01*
X912578Y920594D01*
X911057Y919489D01*
X909383Y918636D01*
X907596Y918055D01*
X906323Y917854D01*
X906323Y928177D01*
G37*
%LPD*%
%LPC*%
G36*
X830123Y953577D02*
X830123Y953577D01*
X840446Y953577D01*
X840245Y952304D01*
X839664Y950517D01*
X838811Y948843D01*
X837706Y947322D01*
X836378Y945994D01*
X834857Y944889D01*
X833183Y944036D01*
X831396Y943455D01*
X830123Y943254D01*
X830123Y953577D01*
G37*
%LPD*%
%LPC*%
G36*
X652323Y953577D02*
X652323Y953577D01*
X662646Y953577D01*
X662445Y952304D01*
X661864Y950517D01*
X661011Y948843D01*
X659906Y947322D01*
X658578Y945994D01*
X657057Y944889D01*
X655383Y944036D01*
X653596Y943455D01*
X652323Y943254D01*
X652323Y953577D01*
G37*
%LPD*%
%LPC*%
G36*
X779323Y953577D02*
X779323Y953577D01*
X789646Y953577D01*
X789445Y952304D01*
X788864Y950517D01*
X788011Y948843D01*
X786906Y947322D01*
X785578Y945994D01*
X784057Y944889D01*
X782383Y944036D01*
X780596Y943455D01*
X779323Y943254D01*
X779323Y953577D01*
G37*
%LPD*%
%LPC*%
G36*
X525323Y928177D02*
X525323Y928177D01*
X535646Y928177D01*
X535445Y926904D01*
X534864Y925117D01*
X534011Y923443D01*
X532906Y921922D01*
X531578Y920594D01*
X530057Y919489D01*
X528383Y918636D01*
X526596Y918055D01*
X525323Y917854D01*
X525323Y928177D01*
G37*
%LPD*%
%LPC*%
G36*
X562754Y956623D02*
X562754Y956623D01*
X562955Y957896D01*
X563536Y959683D01*
X564389Y961357D01*
X565494Y962878D01*
X566822Y964206D01*
X568343Y965311D01*
X570017Y966164D01*
X571804Y966745D01*
X573077Y966946D01*
X573077Y956623D01*
X562754Y956623D01*
G37*
%LPD*%
%LPC*%
G36*
X521004Y918055D02*
X521004Y918055D01*
X519217Y918636D01*
X517543Y919489D01*
X516022Y920594D01*
X514694Y921922D01*
X513589Y923443D01*
X512736Y925117D01*
X512155Y926904D01*
X511954Y928177D01*
X522277Y928177D01*
X522277Y917854D01*
X521004Y918055D01*
G37*
%LPD*%
%LPC*%
G36*
X724204Y918055D02*
X724204Y918055D01*
X722417Y918636D01*
X720743Y919489D01*
X719222Y920594D01*
X717894Y921922D01*
X716789Y923443D01*
X715936Y925117D01*
X715355Y926904D01*
X715154Y928177D01*
X725477Y928177D01*
X725477Y917854D01*
X724204Y918055D01*
G37*
%LPD*%
%LPC*%
G36*
X648004Y943455D02*
X648004Y943455D01*
X646217Y944036D01*
X644543Y944889D01*
X643022Y945994D01*
X641694Y947322D01*
X640589Y948843D01*
X639736Y950517D01*
X639155Y952304D01*
X638954Y953577D01*
X649277Y953577D01*
X649277Y943254D01*
X648004Y943455D01*
G37*
%LPD*%
%LPC*%
G36*
X775004Y943455D02*
X775004Y943455D01*
X773217Y944036D01*
X771543Y944889D01*
X770022Y945994D01*
X768694Y947322D01*
X767589Y948843D01*
X766736Y950517D01*
X766155Y952304D01*
X765954Y953577D01*
X776277Y953577D01*
X776277Y943254D01*
X775004Y943455D01*
G37*
%LPD*%
%LPC*%
G36*
X825804Y943455D02*
X825804Y943455D01*
X824017Y944036D01*
X822343Y944889D01*
X820822Y945994D01*
X819494Y947322D01*
X818389Y948843D01*
X817536Y950517D01*
X816955Y952304D01*
X816754Y953577D01*
X827077Y953577D01*
X827077Y943254D01*
X825804Y943455D01*
G37*
%LPD*%
%LPC*%
G36*
X470204Y943455D02*
X470204Y943455D01*
X468417Y944036D01*
X466743Y944889D01*
X465222Y945994D01*
X463894Y947322D01*
X462789Y948843D01*
X461936Y950517D01*
X461355Y952304D01*
X461154Y953577D01*
X471477Y953577D01*
X471477Y943254D01*
X470204Y943455D01*
G37*
%LPD*%
%LPC*%
G36*
X571804Y943455D02*
X571804Y943455D01*
X570017Y944036D01*
X568343Y944889D01*
X566822Y945994D01*
X565494Y947322D01*
X564389Y948843D01*
X563536Y950517D01*
X562955Y952304D01*
X562754Y953577D01*
X573077Y953577D01*
X573077Y943254D01*
X571804Y943455D01*
G37*
%LPD*%
%LPC*%
G36*
X902004Y918055D02*
X902004Y918055D01*
X900217Y918636D01*
X898543Y919489D01*
X897022Y920594D01*
X895694Y921922D01*
X894589Y923443D01*
X893736Y925117D01*
X893155Y926904D01*
X892954Y928177D01*
X903277Y928177D01*
X903277Y917854D01*
X902004Y918055D01*
G37*
%LPD*%
%LPC*%
G36*
X432223Y343823D02*
X432223Y343823D01*
X432223Y353223D01*
X435224Y353223D01*
X441623Y346824D01*
X441623Y343823D01*
X432223Y343823D01*
G37*
%LPD*%
%LPC*%
G36*
X791723Y343823D02*
X791723Y343823D01*
X791723Y353223D01*
X794724Y353223D01*
X801123Y346824D01*
X801123Y343823D01*
X791723Y343823D01*
G37*
%LPD*%
%LPC*%
G36*
X555223Y343823D02*
X555223Y343823D01*
X555223Y353223D01*
X558224Y353223D01*
X564623Y346824D01*
X564623Y343823D01*
X555223Y343823D01*
G37*
%LPD*%
%LPC*%
G36*
X673323Y344023D02*
X673323Y344023D01*
X673323Y353423D01*
X676324Y353423D01*
X682723Y347024D01*
X682723Y344023D01*
X673323Y344023D01*
G37*
%LPD*%
%LPC*%
G36*
X432223Y331377D02*
X432223Y331377D01*
X432223Y340777D01*
X441623Y340777D01*
X441623Y337776D01*
X435224Y331377D01*
X432223Y331377D01*
G37*
%LPD*%
%LPC*%
G36*
X555223Y331377D02*
X555223Y331377D01*
X555223Y340777D01*
X564623Y340777D01*
X564623Y337776D01*
X558224Y331377D01*
X555223Y331377D01*
G37*
%LPD*%
%LPC*%
G36*
X791723Y331377D02*
X791723Y331377D01*
X791723Y340777D01*
X801123Y340777D01*
X801123Y337776D01*
X794724Y331377D01*
X791723Y331377D01*
G37*
%LPD*%
%LPC*%
G36*
X673323Y331577D02*
X673323Y331577D01*
X673323Y340977D01*
X682723Y340977D01*
X682723Y337976D01*
X676324Y331577D01*
X673323Y331577D01*
G37*
%LPD*%
%LPC*%
G36*
X660877Y344023D02*
X660877Y344023D01*
X660877Y347024D01*
X667276Y353423D01*
X670277Y353423D01*
X670277Y344023D01*
X660877Y344023D01*
G37*
%LPD*%
%LPC*%
G36*
X542777Y343823D02*
X542777Y343823D01*
X542777Y346824D01*
X549176Y353223D01*
X552177Y353223D01*
X552177Y343823D01*
X542777Y343823D01*
G37*
%LPD*%
%LPC*%
G36*
X779277Y343823D02*
X779277Y343823D01*
X779277Y346824D01*
X785676Y353223D01*
X788677Y353223D01*
X788677Y343823D01*
X779277Y343823D01*
G37*
%LPD*%
%LPC*%
G36*
X419777Y343823D02*
X419777Y343823D01*
X419777Y346824D01*
X426176Y353223D01*
X429177Y353223D01*
X429177Y343823D01*
X419777Y343823D01*
G37*
%LPD*%
%LPC*%
G36*
X426176Y331377D02*
X426176Y331377D01*
X419777Y337776D01*
X419777Y340777D01*
X429177Y340777D01*
X429177Y331377D01*
X426176Y331377D01*
G37*
%LPD*%
%LPC*%
G36*
X549176Y331377D02*
X549176Y331377D01*
X542777Y337776D01*
X542777Y340777D01*
X552177Y340777D01*
X552177Y331377D01*
X549176Y331377D01*
G37*
%LPD*%
%LPC*%
G36*
X785676Y331377D02*
X785676Y331377D01*
X779277Y337776D01*
X779277Y340777D01*
X788677Y340777D01*
X788677Y331377D01*
X785676Y331377D01*
G37*
%LPD*%
%LPC*%
G36*
X667276Y331577D02*
X667276Y331577D01*
X660877Y337976D01*
X660877Y340977D01*
X670277Y340977D01*
X670277Y331577D01*
X667276Y331577D01*
G37*
%LPD*%
%LPC*%
G36*
X268223Y735323D02*
X268223Y735323D01*
X268223Y743453D01*
X270698Y743453D01*
X276353Y737798D01*
X276353Y735323D01*
X268223Y735323D01*
G37*
%LPD*%
%LPC*%
G36*
X269223Y543323D02*
X269223Y543323D01*
X269223Y551453D01*
X271698Y551453D01*
X277353Y545798D01*
X277353Y543323D01*
X269223Y543323D01*
G37*
%LPD*%
%LPC*%
G36*
X243823Y695723D02*
X243823Y695723D01*
X243823Y703853D01*
X246298Y703853D01*
X251953Y698198D01*
X251953Y695723D01*
X243823Y695723D01*
G37*
%LPD*%
%LPC*%
G36*
X242823Y887723D02*
X242823Y887723D01*
X242823Y895853D01*
X245298Y895853D01*
X250953Y890198D01*
X250953Y887723D01*
X242823Y887723D01*
G37*
%LPD*%
%LPC*%
G36*
X257047Y735323D02*
X257047Y735323D01*
X257047Y737798D01*
X262702Y743453D01*
X265177Y743453D01*
X265177Y735323D01*
X257047Y735323D01*
G37*
%LPD*%
%LPC*%
G36*
X231647Y887723D02*
X231647Y887723D01*
X231647Y890198D01*
X237302Y895853D01*
X239777Y895853D01*
X239777Y887723D01*
X231647Y887723D01*
G37*
%LPD*%
%LPC*%
G36*
X232647Y695723D02*
X232647Y695723D01*
X232647Y698198D01*
X238302Y703853D01*
X240777Y703853D01*
X240777Y695723D01*
X232647Y695723D01*
G37*
%LPD*%
%LPC*%
G36*
X258047Y543323D02*
X258047Y543323D01*
X258047Y545798D01*
X263702Y551453D01*
X266177Y551453D01*
X266177Y543323D01*
X258047Y543323D01*
G37*
%LPD*%
%LPC*%
G36*
X242823Y876547D02*
X242823Y876547D01*
X242823Y884677D01*
X250953Y884677D01*
X250953Y882202D01*
X245298Y876547D01*
X242823Y876547D01*
G37*
%LPD*%
%LPC*%
G36*
X243823Y684547D02*
X243823Y684547D01*
X243823Y692677D01*
X251953Y692677D01*
X251953Y690202D01*
X246298Y684547D01*
X243823Y684547D01*
G37*
%LPD*%
%LPC*%
G36*
X269223Y532147D02*
X269223Y532147D01*
X269223Y540277D01*
X277353Y540277D01*
X277353Y537802D01*
X271698Y532147D01*
X269223Y532147D01*
G37*
%LPD*%
%LPC*%
G36*
X268223Y724147D02*
X268223Y724147D01*
X268223Y732277D01*
X276353Y732277D01*
X276353Y729802D01*
X270698Y724147D01*
X268223Y724147D01*
G37*
%LPD*%
%LPC*%
G36*
X238302Y684547D02*
X238302Y684547D01*
X232647Y690202D01*
X232647Y692677D01*
X240777Y692677D01*
X240777Y684547D01*
X238302Y684547D01*
G37*
%LPD*%
%LPC*%
G36*
X237302Y876547D02*
X237302Y876547D01*
X231647Y882202D01*
X231647Y884677D01*
X239777Y884677D01*
X239777Y876547D01*
X237302Y876547D01*
G37*
%LPD*%
%LPC*%
G36*
X262702Y724147D02*
X262702Y724147D01*
X257047Y729802D01*
X257047Y732277D01*
X265177Y732277D01*
X265177Y724147D01*
X262702Y724147D01*
G37*
%LPD*%
%LPC*%
G36*
X263702Y532147D02*
X263702Y532147D01*
X258047Y537802D01*
X258047Y540277D01*
X266177Y540277D01*
X266177Y532147D01*
X263702Y532147D01*
G37*
%LPD*%
%LPC*%
G36*
X1035823Y603823D02*
X1035823Y603823D01*
X1035823Y611832D01*
X1036560Y611715D01*
X1038005Y611246D01*
X1039359Y610556D01*
X1040588Y609663D01*
X1041663Y608588D01*
X1042556Y607359D01*
X1043246Y606005D01*
X1043715Y604560D01*
X1043832Y603823D01*
X1035823Y603823D01*
G37*
%LPD*%
%LPC*%
G36*
X1036423Y736023D02*
X1036423Y736023D01*
X1036423Y744032D01*
X1037160Y743915D01*
X1038605Y743446D01*
X1039959Y742756D01*
X1041188Y741863D01*
X1042263Y740788D01*
X1043156Y739559D01*
X1043846Y738205D01*
X1044315Y736760D01*
X1044432Y736023D01*
X1036423Y736023D01*
G37*
%LPD*%
%LPC*%
G36*
X1035823Y600777D02*
X1035823Y600777D01*
X1043832Y600777D01*
X1043715Y600040D01*
X1043246Y598595D01*
X1042556Y597241D01*
X1041663Y596012D01*
X1040588Y594937D01*
X1039359Y594044D01*
X1038005Y593354D01*
X1036560Y592885D01*
X1035823Y592768D01*
X1035823Y600777D01*
G37*
%LPD*%
%LPC*%
G36*
X1025368Y736023D02*
X1025368Y736023D01*
X1025485Y736760D01*
X1025954Y738205D01*
X1026644Y739559D01*
X1027537Y740788D01*
X1028612Y741863D01*
X1029841Y742756D01*
X1031195Y743446D01*
X1032640Y743915D01*
X1033377Y744032D01*
X1033377Y736023D01*
X1025368Y736023D01*
G37*
%LPD*%
%LPC*%
G36*
X1036423Y732977D02*
X1036423Y732977D01*
X1044432Y732977D01*
X1044315Y732240D01*
X1043846Y730795D01*
X1043156Y729441D01*
X1042263Y728212D01*
X1041188Y727137D01*
X1039959Y726244D01*
X1038605Y725554D01*
X1037160Y725085D01*
X1036423Y724968D01*
X1036423Y732977D01*
G37*
%LPD*%
%LPC*%
G36*
X1024768Y603823D02*
X1024768Y603823D01*
X1024885Y604560D01*
X1025354Y606005D01*
X1026044Y607359D01*
X1026937Y608588D01*
X1028012Y609663D01*
X1029241Y610556D01*
X1030595Y611246D01*
X1032040Y611715D01*
X1032777Y611832D01*
X1032777Y603823D01*
X1024768Y603823D01*
G37*
%LPD*%
%LPC*%
G36*
X1032640Y725085D02*
X1032640Y725085D01*
X1031195Y725554D01*
X1029841Y726244D01*
X1028612Y727137D01*
X1027537Y728212D01*
X1026644Y729441D01*
X1025954Y730795D01*
X1025485Y732240D01*
X1025368Y732977D01*
X1033377Y732977D01*
X1033377Y724968D01*
X1032640Y725085D01*
G37*
%LPD*%
%LPC*%
G36*
X1032040Y592885D02*
X1032040Y592885D01*
X1030595Y593354D01*
X1029241Y594044D01*
X1028012Y594937D01*
X1026937Y596012D01*
X1026044Y597241D01*
X1025354Y598595D01*
X1024885Y600040D01*
X1024768Y600777D01*
X1032777Y600777D01*
X1032777Y592768D01*
X1032040Y592885D01*
G37*
%LPD*%
%LPC*%
G36*
X574599Y955099D02*
X574599Y955099D01*
X574599Y955101D01*
X574601Y955101D01*
X574601Y955099D01*
X574599Y955099D01*
G37*
%LPD*%
%LPC*%
G36*
X726999Y929699D02*
X726999Y929699D01*
X726999Y929701D01*
X727001Y929701D01*
X727001Y929699D01*
X726999Y929699D01*
G37*
%LPD*%
%LPC*%
G36*
X241299Y886199D02*
X241299Y886199D01*
X241299Y886201D01*
X241301Y886201D01*
X241301Y886199D01*
X241299Y886199D01*
G37*
%LPD*%
%LPC*%
G36*
X306099Y449799D02*
X306099Y449799D01*
X306099Y449801D01*
X306101Y449801D01*
X306101Y449799D01*
X306099Y449799D01*
G37*
%LPD*%
%LPC*%
G36*
X650799Y955099D02*
X650799Y955099D01*
X650799Y955101D01*
X650801Y955101D01*
X650801Y955099D01*
X650799Y955099D01*
G37*
%LPD*%
%LPC*%
G36*
X1034899Y734499D02*
X1034899Y734499D01*
X1034899Y734501D01*
X1034901Y734501D01*
X1034901Y734499D01*
X1034899Y734499D01*
G37*
%LPD*%
%LPC*%
G36*
X266699Y733799D02*
X266699Y733799D01*
X266699Y733801D01*
X266701Y733801D01*
X266701Y733799D01*
X266699Y733799D01*
G37*
%LPD*%
%LPC*%
G36*
X262099Y449799D02*
X262099Y449799D01*
X262099Y449801D01*
X262101Y449801D01*
X262101Y449799D01*
X262099Y449799D01*
G37*
%LPD*%
%LPC*%
G36*
X789019Y610559D02*
X789019Y610559D01*
X789019Y610561D01*
X789021Y610561D01*
X789021Y610559D01*
X789019Y610559D01*
G37*
%LPD*%
%LPC*%
G36*
X828599Y955099D02*
X828599Y955099D01*
X828599Y955101D01*
X828601Y955101D01*
X828601Y955099D01*
X828599Y955099D01*
G37*
%LPD*%
%LPC*%
G36*
X392779Y610559D02*
X392779Y610559D01*
X392779Y610561D01*
X392781Y610561D01*
X392781Y610559D01*
X392779Y610559D01*
G37*
%LPD*%
%LPC*%
G36*
X671799Y342499D02*
X671799Y342499D01*
X671799Y342501D01*
X671801Y342501D01*
X671801Y342499D01*
X671799Y342499D01*
G37*
%LPD*%
%LPC*%
G36*
X430699Y342299D02*
X430699Y342299D01*
X430699Y342301D01*
X430701Y342301D01*
X430701Y342299D01*
X430699Y342299D01*
G37*
%LPD*%
%LPC*%
G36*
X790199Y342299D02*
X790199Y342299D01*
X790199Y342301D01*
X790201Y342301D01*
X790201Y342299D01*
X790199Y342299D01*
G37*
%LPD*%
%LPC*%
G36*
X1034299Y602299D02*
X1034299Y602299D01*
X1034299Y602301D01*
X1034301Y602301D01*
X1034301Y602299D01*
X1034299Y602299D01*
G37*
%LPD*%
%LPC*%
G36*
X788719Y841059D02*
X788719Y841059D01*
X788719Y841061D01*
X788721Y841061D01*
X788721Y841059D01*
X788719Y841059D01*
G37*
%LPD*%
%LPC*%
G36*
X392479Y841059D02*
X392479Y841059D01*
X392479Y841061D01*
X392481Y841061D01*
X392481Y841059D01*
X392479Y841059D01*
G37*
%LPD*%
%LPC*%
G36*
X885599Y577399D02*
X885599Y577399D01*
X885599Y577401D01*
X885601Y577401D01*
X885601Y577399D01*
X885599Y577399D01*
G37*
%LPD*%
%LPC*%
G36*
X242299Y694199D02*
X242299Y694199D01*
X242299Y694201D01*
X242301Y694201D01*
X242301Y694199D01*
X242299Y694199D01*
G37*
%LPD*%
%LPC*%
G36*
X553699Y342299D02*
X553699Y342299D01*
X553699Y342301D01*
X553701Y342301D01*
X553701Y342299D01*
X553699Y342299D01*
G37*
%LPD*%
%LPC*%
G36*
X267699Y541799D02*
X267699Y541799D01*
X267699Y541801D01*
X267701Y541801D01*
X267701Y541799D01*
X267699Y541799D01*
G37*
%LPD*%
%LPC*%
G36*
X523799Y929699D02*
X523799Y929699D01*
X523799Y929701D01*
X523801Y929701D01*
X523801Y929699D01*
X523799Y929699D01*
G37*
%LPD*%
%LPC*%
G36*
X472999Y955099D02*
X472999Y955099D01*
X472999Y955101D01*
X473001Y955101D01*
X473001Y955099D01*
X472999Y955099D01*
G37*
%LPD*%
%LPC*%
G36*
X777799Y955099D02*
X777799Y955099D01*
X777799Y955101D01*
X777801Y955101D01*
X777801Y955099D01*
X777799Y955099D01*
G37*
%LPD*%
%LPC*%
G36*
X904799Y929699D02*
X904799Y929699D01*
X904799Y929701D01*
X904801Y929701D01*
X904801Y929699D01*
X904799Y929699D01*
G37*
%LPD*%
D10*
X1034300Y582300D03*
X1034300Y602300D03*
D11*
X422200Y929700D03*
X422200Y955100D03*
X447600Y929700D03*
X447600Y955100D03*
X473000Y929700D03*
X473000Y955100D03*
X498400Y929700D03*
X498400Y955100D03*
X523800Y929700D03*
X523800Y955100D03*
X549200Y929700D03*
X549200Y955100D03*
X574600Y929700D03*
X574600Y955100D03*
X600000Y929700D03*
X600000Y955100D03*
X625400Y929700D03*
X625400Y955100D03*
X650800Y929700D03*
X650800Y955100D03*
X676200Y929700D03*
X676200Y955100D03*
X701600Y929700D03*
X701600Y955100D03*
X727000Y929700D03*
X727000Y955100D03*
X752400Y929700D03*
X752400Y955100D03*
X777800Y929700D03*
X777800Y955100D03*
X803200Y929700D03*
X803200Y955100D03*
X828600Y929700D03*
X828600Y955100D03*
X854000Y929700D03*
X854000Y955100D03*
X879400Y929700D03*
X879400Y955100D03*
X904800Y929700D03*
X904800Y955100D03*
D12*
X764800Y342300D03*
X790200Y342300D03*
X405300Y342300D03*
X430700Y342300D03*
X528300Y342300D03*
X553700Y342300D03*
X646400Y342500D03*
X671800Y342500D03*
D13*
X717900Y317500D03*
X717900Y368300D03*
D14*
X354100Y368200D03*
X354100Y317400D03*
D13*
X472900Y318100D03*
X472900Y368900D03*
X596900Y317900D03*
X596900Y368700D03*
D15*
X788720Y668340D03*
X788720Y841060D03*
X392480Y841060D03*
X392480Y668340D03*
D16*
X889700Y441700D03*
X936690Y441700D03*
X842710Y441700D03*
X864300Y314700D03*
X915100Y314700D03*
D10*
X1034900Y714500D03*
X1034900Y734500D03*
D15*
X789020Y437840D03*
X789020Y610560D03*
X392780Y610560D03*
X392780Y437840D03*
D17*
X269640Y500600D02*
X254560Y500600D01*
X254560Y475200D02*
X269640Y475200D01*
X269640Y449800D02*
X254560Y449800D01*
X298560Y500600D02*
X313640Y500600D01*
X313640Y475200D02*
X298560Y475200D01*
X298560Y449800D02*
X313640Y449800D01*
D18*
X885600Y569018D02*
X885600Y585782D01*
X911000Y585782D02*
X911000Y569018D01*
X936400Y569018D02*
X936400Y585782D01*
D11*
X234000Y951000D03*
X234000Y925600D03*
D10*
X242300Y541800D03*
D19*
X267700Y541800D03*
X242300Y567200D03*
X267700Y567200D03*
X242300Y592600D03*
X267700Y592600D03*
X242300Y618000D03*
X267700Y618000D03*
X242300Y643400D03*
X267700Y643400D03*
X242300Y668800D03*
X267700Y668800D03*
X242300Y694200D03*
X267700Y694200D03*
D10*
X241300Y733800D03*
D19*
X266700Y733800D03*
X241300Y759200D03*
X266700Y759200D03*
X241300Y784600D03*
X266700Y784600D03*
X241300Y810000D03*
X266700Y810000D03*
X241300Y835400D03*
X266700Y835400D03*
X241300Y860800D03*
X266700Y860800D03*
X241300Y886200D03*
X266700Y886200D03*
D20*
X262500Y475000D02*
X305000Y475000D01*
X306100Y475200D01*
X262500Y475000D02*
X262100Y475200D01*
X233750Y903750D02*
X233750Y925000D01*
X233750Y903750D02*
X222500Y892500D01*
X222500Y752500D01*
X241250Y733750D01*
X233750Y925000D02*
X234000Y925600D01*
X241300Y733800D02*
X241250Y733750D01*
X351250Y438750D02*
X392500Y438750D01*
X351250Y438750D02*
X316250Y473750D01*
X310000Y473750D01*
X392500Y438750D02*
X392780Y437840D01*
X310000Y473750D02*
X306100Y475200D01*
D21*
X717900Y317500D02*
X740000Y317500D01*
X764800Y342300D01*
X380000Y367500D02*
X355000Y367500D01*
X380000Y367500D02*
X405000Y342500D01*
X355000Y367500D02*
X354100Y368200D01*
X405000Y342500D02*
X405300Y342300D01*
X473750Y318750D02*
X505000Y318750D01*
X527500Y341250D01*
X473750Y318750D02*
X472900Y318100D01*
X527500Y341250D02*
X528300Y342300D01*
D20*
X266250Y886250D02*
X266250Y916250D01*
X251250Y931250D01*
X251250Y936250D01*
X237500Y950000D01*
X235000Y950000D01*
X266250Y886250D02*
X266700Y886200D01*
X235000Y950000D02*
X234000Y951000D01*
X285000Y693750D02*
X337500Y693750D01*
X285000Y693750D02*
X268750Y693750D01*
X337500Y693750D02*
X347500Y683750D01*
X375000Y683750D01*
X391250Y667500D01*
X268750Y693750D02*
X267700Y694200D01*
X391250Y667500D02*
X392480Y668340D01*
X285000Y867500D02*
X270000Y882500D01*
X285000Y867500D02*
X285000Y693750D01*
X270000Y882500D02*
X266700Y886200D01*
X718750Y368750D02*
X788750Y438750D01*
X718750Y368750D02*
X717900Y368300D01*
X789020Y437840D02*
X788750Y438750D01*
X937500Y442500D02*
X937500Y548750D01*
X937500Y576250D01*
X936400Y577400D01*
X937500Y442500D02*
X936690Y441700D01*
X788750Y651250D02*
X788750Y667500D01*
X788750Y651250D02*
X866250Y573750D01*
X866250Y561250D01*
X878750Y548750D01*
X937500Y548750D01*
X788750Y667500D02*
X788720Y668340D01*
X790000Y458750D02*
X790000Y443750D01*
X790000Y458750D02*
X876250Y545000D01*
X790000Y443750D02*
X789020Y437840D01*
X876250Y545000D02*
X878750Y548750D01*
D21*
X712500Y801250D02*
X560000Y648750D01*
X802500Y891250D02*
X900000Y891250D01*
X928750Y920000D01*
X928750Y965000D01*
X916250Y977500D01*
D22*
X560000Y648750D03*
X712500Y801250D03*
X802500Y891250D03*
X916250Y977500D03*
D21*
X248750Y642500D02*
X242500Y642500D01*
X248750Y642500D02*
X262500Y628750D01*
X272500Y628750D01*
X317500Y673750D01*
X362500Y700000D02*
X362500Y702500D01*
X530000Y870000D01*
X242300Y643400D02*
X242500Y642500D01*
D22*
X317500Y673750D03*
X362500Y700000D03*
X530000Y870000D03*
D21*
X705000Y682500D02*
X592500Y570000D01*
X705000Y682500D02*
X705000Y727500D01*
D22*
X592500Y570000D03*
X705000Y727500D03*
D21*
X267500Y566250D02*
X261250Y566250D01*
X250000Y555000D01*
X235000Y555000D01*
X226250Y563750D01*
X226250Y733750D01*
X316250Y903750D02*
X395000Y982500D01*
X408750Y982500D01*
X411250Y985000D01*
X605000Y985000D01*
X612500Y977500D01*
X267700Y567200D02*
X267500Y566250D01*
D22*
X226250Y733750D03*
X316250Y903750D03*
X612500Y977500D03*
D21*
X610000Y641250D02*
X652500Y641250D01*
D22*
X610000Y641250D03*
X652500Y641250D03*
D21*
X631250Y631250D02*
X610000Y631250D01*
D22*
X610000Y631250D03*
X631250Y631250D03*
D21*
X253750Y593750D02*
X242500Y593750D01*
X253750Y593750D02*
X263750Y603750D01*
X273750Y603750D01*
X343750Y673750D01*
X348750Y697500D02*
X468750Y817500D01*
X468750Y865000D01*
X448750Y885000D01*
X242500Y593750D02*
X242300Y592600D01*
D22*
X343750Y673750D03*
X348750Y697500D03*
X448750Y885000D03*
D21*
X247500Y567500D02*
X242500Y567500D01*
X247500Y567500D02*
X261250Y581250D01*
X276250Y581250D01*
X363750Y668750D01*
X372500Y701250D02*
X475000Y803750D01*
X242500Y567500D02*
X242300Y567200D01*
D22*
X363750Y668750D03*
X372500Y701250D03*
X475000Y803750D03*
D21*
X298750Y673750D02*
X268750Y643750D01*
X267700Y643400D01*
D22*
X298750Y673750D03*
D21*
X295000Y886250D02*
X390000Y886250D01*
X438750Y886250D02*
X445000Y892500D01*
X562500Y892500D01*
X565000Y890000D01*
D22*
X295000Y886250D03*
X390000Y886250D03*
X438750Y886250D03*
X565000Y890000D03*
D21*
X337500Y893750D02*
X316250Y893750D01*
X337500Y893750D02*
X416250Y972500D01*
X583750Y972500D01*
X600000Y956250D01*
X600000Y955100D01*
D22*
X316250Y893750D03*
D21*
X296250Y820000D02*
X405000Y820000D01*
X428750Y796250D01*
X488750Y796250D02*
X518750Y796250D01*
X635000Y912500D02*
X861250Y912500D01*
X878750Y930000D01*
X879400Y929700D01*
D22*
X296250Y820000D03*
X428750Y796250D03*
X488750Y796250D03*
X518750Y796250D03*
X635000Y912500D03*
D21*
X415000Y775000D02*
X322500Y775000D01*
X415000Y775000D02*
X423750Y783750D01*
X488750Y783750D02*
X517500Y783750D01*
X608750Y875000D01*
X638750Y875000D01*
D22*
X322500Y775000D03*
X423750Y783750D03*
X488750Y783750D03*
X638750Y875000D03*
D21*
X385000Y745000D02*
X328750Y745000D01*
X440000Y745000D02*
X490000Y745000D01*
X612500Y867500D01*
D22*
X328750Y745000D03*
X385000Y745000D03*
X440000Y745000D03*
X612500Y867500D03*
D21*
X301250Y873750D02*
X293750Y873750D01*
X301250Y873750D02*
X328750Y846250D01*
X350000Y846250D01*
X745000Y898750D02*
X898750Y898750D01*
X922500Y922500D01*
X922500Y960000D01*
X910000Y972500D01*
X720000Y972500D01*
X702500Y955000D01*
X701600Y955100D01*
D22*
X293750Y873750D03*
X350000Y846250D03*
X745000Y898750D03*
D21*
X381250Y877500D02*
X308750Y877500D01*
X467500Y877500D02*
X602500Y877500D01*
X615000Y890000D01*
X623750Y890000D01*
D22*
X308750Y877500D03*
X381250Y877500D03*
X467500Y877500D03*
X623750Y890000D03*
D21*
X353750Y838750D02*
X296250Y838750D01*
X353750Y838750D02*
X413750Y898750D01*
X570000Y898750D01*
X571250Y897500D01*
D22*
X296250Y838750D03*
X571250Y897500D03*
D21*
X262500Y515000D02*
X262500Y501250D01*
X262500Y515000D02*
X390000Y642500D01*
X431250Y642500D01*
X496250Y707500D01*
X262500Y501250D02*
X262100Y500600D01*
D22*
X496250Y707500D03*
D21*
X382500Y501250D02*
X306250Y501250D01*
X382500Y501250D02*
X500000Y618750D01*
X500000Y652500D01*
X656250Y808750D01*
X706250Y808750D01*
X306250Y501250D02*
X306100Y500600D01*
D22*
X706250Y808750D03*
D20*
X442500Y908750D02*
X422500Y928750D01*
X442500Y908750D02*
X607500Y908750D01*
X614375Y915625D02*
X625000Y926250D01*
X614375Y915625D02*
X607500Y908750D01*
X625000Y926250D02*
X625000Y928750D01*
X422500Y928750D02*
X422200Y929700D01*
X625000Y928750D02*
X625400Y929700D01*
X614375Y915625D02*
X912500Y617500D01*
X912500Y578750D01*
X911250Y577500D01*
X911000Y577400D01*
D21*
X410000Y975000D02*
X398750Y975000D01*
X410000Y975000D02*
X413750Y978750D01*
X600000Y978750D01*
X622500Y956250D01*
X625000Y956250D01*
X625400Y955100D01*
D22*
X398750Y975000D03*
D21*
X422500Y956250D02*
X447500Y956250D01*
X422500Y956250D02*
X422200Y955100D01*
X447500Y956250D02*
X447600Y955100D01*
M02*
