G04 EAGLE Gerber RS-274X export*
G75*
%MOMM*%
%FSLAX34Y34*%
%LPD*%
%IN*%
%IPPOS*%
%AMOC8*
5,1,8,0,0,1.08239X$1,22.5*%
G01*
%ADD10C,0.254000*%


D10*
X201000Y288400D02*
X1072000Y289000D01*
X1072000Y999000D01*
X201000Y998400D01*
X201000Y288400D01*
X305000Y939464D02*
X305000Y940536D01*
X304924Y941604D01*
X304771Y942665D01*
X304543Y943712D01*
X304241Y944740D01*
X303867Y945744D01*
X303422Y946719D01*
X302908Y947659D01*
X302329Y948560D01*
X301687Y949418D01*
X300985Y950228D01*
X300228Y950985D01*
X299418Y951687D01*
X298560Y952329D01*
X297659Y952908D01*
X296719Y953422D01*
X295744Y953867D01*
X294740Y954241D01*
X293712Y954543D01*
X292665Y954771D01*
X291604Y954924D01*
X290536Y955000D01*
X289464Y955000D01*
X288396Y954924D01*
X287335Y954771D01*
X286288Y954543D01*
X285260Y954241D01*
X284256Y953867D01*
X283281Y953422D01*
X282341Y952908D01*
X281440Y952329D01*
X280582Y951687D01*
X279772Y950985D01*
X279015Y950228D01*
X278313Y949418D01*
X277671Y948560D01*
X277092Y947659D01*
X276578Y946719D01*
X276133Y945744D01*
X275759Y944740D01*
X275457Y943712D01*
X275229Y942665D01*
X275076Y941604D01*
X275000Y940536D01*
X275000Y939464D01*
X275076Y938396D01*
X275229Y937335D01*
X275457Y936288D01*
X275759Y935260D01*
X276133Y934256D01*
X276578Y933281D01*
X277092Y932341D01*
X277671Y931440D01*
X278313Y930582D01*
X279015Y929772D01*
X279772Y929015D01*
X280582Y928313D01*
X281440Y927671D01*
X282341Y927092D01*
X283281Y926578D01*
X284256Y926133D01*
X285260Y925759D01*
X286288Y925457D01*
X287335Y925229D01*
X288396Y925076D01*
X289464Y925000D01*
X290536Y925000D01*
X291604Y925076D01*
X292665Y925229D01*
X293712Y925457D01*
X294740Y925759D01*
X295744Y926133D01*
X296719Y926578D01*
X297659Y927092D01*
X298560Y927671D01*
X299418Y928313D01*
X300228Y929015D01*
X300985Y929772D01*
X301687Y930582D01*
X302329Y931440D01*
X302908Y932341D01*
X303422Y933281D01*
X303867Y934256D01*
X304241Y935260D01*
X304543Y936288D01*
X304771Y937335D01*
X304924Y938396D01*
X305000Y939464D01*
X1027000Y348464D02*
X1027000Y349536D01*
X1026924Y350604D01*
X1026771Y351665D01*
X1026543Y352712D01*
X1026241Y353740D01*
X1025867Y354744D01*
X1025422Y355719D01*
X1024908Y356659D01*
X1024329Y357560D01*
X1023687Y358418D01*
X1022985Y359228D01*
X1022228Y359985D01*
X1021418Y360687D01*
X1020560Y361329D01*
X1019659Y361908D01*
X1018719Y362422D01*
X1017744Y362867D01*
X1016740Y363241D01*
X1015712Y363543D01*
X1014665Y363771D01*
X1013604Y363924D01*
X1012536Y364000D01*
X1011464Y364000D01*
X1010396Y363924D01*
X1009335Y363771D01*
X1008288Y363543D01*
X1007260Y363241D01*
X1006256Y362867D01*
X1005281Y362422D01*
X1004341Y361908D01*
X1003440Y361329D01*
X1002582Y360687D01*
X1001772Y359985D01*
X1001015Y359228D01*
X1000313Y358418D01*
X999671Y357560D01*
X999092Y356659D01*
X998578Y355719D01*
X998133Y354744D01*
X997759Y353740D01*
X997457Y352712D01*
X997229Y351665D01*
X997076Y350604D01*
X997000Y349536D01*
X997000Y348464D01*
X997076Y347396D01*
X997229Y346335D01*
X997457Y345288D01*
X997759Y344260D01*
X998133Y343256D01*
X998578Y342281D01*
X999092Y341341D01*
X999671Y340440D01*
X1000313Y339582D01*
X1001015Y338772D01*
X1001772Y338015D01*
X1002582Y337313D01*
X1003440Y336671D01*
X1004341Y336092D01*
X1005281Y335578D01*
X1006256Y335133D01*
X1007260Y334759D01*
X1008288Y334457D01*
X1009335Y334229D01*
X1010396Y334076D01*
X1011464Y334000D01*
X1012536Y334000D01*
X1013604Y334076D01*
X1014665Y334229D01*
X1015712Y334457D01*
X1016740Y334759D01*
X1017744Y335133D01*
X1018719Y335578D01*
X1019659Y336092D01*
X1020560Y336671D01*
X1021418Y337313D01*
X1022228Y338015D01*
X1022985Y338772D01*
X1023687Y339582D01*
X1024329Y340440D01*
X1024908Y341341D01*
X1025422Y342281D01*
X1025867Y343256D01*
X1026241Y344260D01*
X1026543Y345288D01*
X1026771Y346335D01*
X1026924Y347396D01*
X1027000Y348464D01*
X305000Y349464D02*
X305000Y350536D01*
X304924Y351604D01*
X304771Y352665D01*
X304543Y353712D01*
X304241Y354740D01*
X303867Y355744D01*
X303422Y356719D01*
X302908Y357659D01*
X302329Y358560D01*
X301687Y359418D01*
X300985Y360228D01*
X300228Y360985D01*
X299418Y361687D01*
X298560Y362329D01*
X297659Y362908D01*
X296719Y363422D01*
X295744Y363867D01*
X294740Y364241D01*
X293712Y364543D01*
X292665Y364771D01*
X291604Y364924D01*
X290536Y365000D01*
X289464Y365000D01*
X288396Y364924D01*
X287335Y364771D01*
X286288Y364543D01*
X285260Y364241D01*
X284256Y363867D01*
X283281Y363422D01*
X282341Y362908D01*
X281440Y362329D01*
X280582Y361687D01*
X279772Y360985D01*
X279015Y360228D01*
X278313Y359418D01*
X277671Y358560D01*
X277092Y357659D01*
X276578Y356719D01*
X276133Y355744D01*
X275759Y354740D01*
X275457Y353712D01*
X275229Y352665D01*
X275076Y351604D01*
X275000Y350536D01*
X275000Y349464D01*
X275076Y348396D01*
X275229Y347335D01*
X275457Y346288D01*
X275759Y345260D01*
X276133Y344256D01*
X276578Y343281D01*
X277092Y342341D01*
X277671Y341440D01*
X278313Y340582D01*
X279015Y339772D01*
X279772Y339015D01*
X280582Y338313D01*
X281440Y337671D01*
X282341Y337092D01*
X283281Y336578D01*
X284256Y336133D01*
X285260Y335759D01*
X286288Y335457D01*
X287335Y335229D01*
X288396Y335076D01*
X289464Y335000D01*
X290536Y335000D01*
X291604Y335076D01*
X292665Y335229D01*
X293712Y335457D01*
X294740Y335759D01*
X295744Y336133D01*
X296719Y336578D01*
X297659Y337092D01*
X298560Y337671D01*
X299418Y338313D01*
X300228Y339015D01*
X300985Y339772D01*
X301687Y340582D01*
X302329Y341440D01*
X302908Y342341D01*
X303422Y343281D01*
X303867Y344256D01*
X304241Y345260D01*
X304543Y346288D01*
X304771Y347335D01*
X304924Y348396D01*
X305000Y349464D01*
X1027000Y938464D02*
X1027000Y939536D01*
X1026924Y940604D01*
X1026771Y941665D01*
X1026543Y942712D01*
X1026241Y943740D01*
X1025867Y944744D01*
X1025422Y945719D01*
X1024908Y946659D01*
X1024329Y947560D01*
X1023687Y948418D01*
X1022985Y949228D01*
X1022228Y949985D01*
X1021418Y950687D01*
X1020560Y951329D01*
X1019659Y951908D01*
X1018719Y952422D01*
X1017744Y952867D01*
X1016740Y953241D01*
X1015712Y953543D01*
X1014665Y953771D01*
X1013604Y953924D01*
X1012536Y954000D01*
X1011464Y954000D01*
X1010396Y953924D01*
X1009335Y953771D01*
X1008288Y953543D01*
X1007260Y953241D01*
X1006256Y952867D01*
X1005281Y952422D01*
X1004341Y951908D01*
X1003440Y951329D01*
X1002582Y950687D01*
X1001772Y949985D01*
X1001015Y949228D01*
X1000313Y948418D01*
X999671Y947560D01*
X999092Y946659D01*
X998578Y945719D01*
X998133Y944744D01*
X997759Y943740D01*
X997457Y942712D01*
X997229Y941665D01*
X997076Y940604D01*
X997000Y939536D01*
X997000Y938464D01*
X997076Y937396D01*
X997229Y936335D01*
X997457Y935288D01*
X997759Y934260D01*
X998133Y933256D01*
X998578Y932281D01*
X999092Y931341D01*
X999671Y930440D01*
X1000313Y929582D01*
X1001015Y928772D01*
X1001772Y928015D01*
X1002582Y927313D01*
X1003440Y926671D01*
X1004341Y926092D01*
X1005281Y925578D01*
X1006256Y925133D01*
X1007260Y924759D01*
X1008288Y924457D01*
X1009335Y924229D01*
X1010396Y924076D01*
X1011464Y924000D01*
X1012536Y924000D01*
X1013604Y924076D01*
X1014665Y924229D01*
X1015712Y924457D01*
X1016740Y924759D01*
X1017744Y925133D01*
X1018719Y925578D01*
X1019659Y926092D01*
X1020560Y926671D01*
X1021418Y927313D01*
X1022228Y928015D01*
X1022985Y928772D01*
X1023687Y929582D01*
X1024329Y930440D01*
X1024908Y931341D01*
X1025422Y932281D01*
X1025867Y933256D01*
X1026241Y934260D01*
X1026543Y935288D01*
X1026771Y936335D01*
X1026924Y937396D01*
X1027000Y938464D01*
X720380Y679036D02*
X720456Y680104D01*
X720609Y681165D01*
X720837Y682212D01*
X721139Y683240D01*
X721513Y684244D01*
X721958Y685219D01*
X722472Y686159D01*
X723051Y687060D01*
X723693Y687918D01*
X724395Y688728D01*
X725152Y689485D01*
X725962Y690187D01*
X726820Y690829D01*
X727721Y691408D01*
X728661Y691922D01*
X729636Y692367D01*
X730640Y692741D01*
X731668Y693043D01*
X732715Y693271D01*
X733776Y693424D01*
X734844Y693500D01*
X735916Y693500D01*
X736984Y693424D01*
X738045Y693271D01*
X739092Y693043D01*
X740120Y692741D01*
X741124Y692367D01*
X742099Y691922D01*
X743039Y691408D01*
X743940Y690829D01*
X744798Y690187D01*
X745608Y689485D01*
X746365Y688728D01*
X747067Y687918D01*
X747709Y687060D01*
X748288Y686159D01*
X748802Y685219D01*
X749247Y684244D01*
X749621Y683240D01*
X749923Y682212D01*
X750151Y681165D01*
X750304Y680104D01*
X750380Y679036D01*
X750380Y677964D01*
X750304Y676896D01*
X750151Y675835D01*
X749923Y674788D01*
X749621Y673760D01*
X749247Y672756D01*
X748802Y671781D01*
X748288Y670841D01*
X747709Y669940D01*
X747067Y669082D01*
X746365Y668272D01*
X745608Y667515D01*
X744798Y666813D01*
X743940Y666171D01*
X743039Y665592D01*
X742099Y665078D01*
X741124Y664633D01*
X740120Y664259D01*
X739092Y663957D01*
X738045Y663729D01*
X736984Y663576D01*
X735916Y663500D01*
X734844Y663500D01*
X733776Y663576D01*
X732715Y663729D01*
X731668Y663957D01*
X730640Y664259D01*
X729636Y664633D01*
X728661Y665078D01*
X727721Y665592D01*
X726820Y666171D01*
X725962Y666813D01*
X725152Y667515D01*
X724395Y668272D01*
X723693Y669082D01*
X723051Y669940D01*
X722472Y670841D01*
X721958Y671781D01*
X721513Y672756D01*
X721139Y673760D01*
X720837Y674788D01*
X720609Y675835D01*
X720456Y676896D01*
X720380Y677964D01*
X720380Y679036D01*
X423200Y831436D02*
X423276Y832504D01*
X423429Y833565D01*
X423657Y834612D01*
X423959Y835640D01*
X424333Y836644D01*
X424778Y837619D01*
X425292Y838559D01*
X425871Y839460D01*
X426513Y840318D01*
X427215Y841128D01*
X427972Y841885D01*
X428782Y842587D01*
X429640Y843229D01*
X430541Y843808D01*
X431481Y844322D01*
X432456Y844767D01*
X433460Y845141D01*
X434488Y845443D01*
X435535Y845671D01*
X436596Y845824D01*
X437664Y845900D01*
X438736Y845900D01*
X439804Y845824D01*
X440865Y845671D01*
X441912Y845443D01*
X442940Y845141D01*
X443944Y844767D01*
X444919Y844322D01*
X445859Y843808D01*
X446760Y843229D01*
X447618Y842587D01*
X448428Y841885D01*
X449185Y841128D01*
X449887Y840318D01*
X450529Y839460D01*
X451108Y838559D01*
X451622Y837619D01*
X452067Y836644D01*
X452441Y835640D01*
X452743Y834612D01*
X452971Y833565D01*
X453124Y832504D01*
X453200Y831436D01*
X453200Y830364D01*
X453124Y829296D01*
X452971Y828235D01*
X452743Y827188D01*
X452441Y826160D01*
X452067Y825156D01*
X451622Y824181D01*
X451108Y823241D01*
X450529Y822340D01*
X449887Y821482D01*
X449185Y820672D01*
X448428Y819915D01*
X447618Y819213D01*
X446760Y818571D01*
X445859Y817992D01*
X444919Y817478D01*
X443944Y817033D01*
X442940Y816659D01*
X441912Y816357D01*
X440865Y816129D01*
X439804Y815976D01*
X438736Y815900D01*
X437664Y815900D01*
X436596Y815976D01*
X435535Y816129D01*
X434488Y816357D01*
X433460Y816659D01*
X432456Y817033D01*
X431481Y817478D01*
X430541Y817992D01*
X429640Y818571D01*
X428782Y819213D01*
X427972Y819915D01*
X427215Y820672D01*
X426513Y821482D01*
X425871Y822340D01*
X425292Y823241D01*
X424778Y824181D01*
X424333Y825156D01*
X423959Y826160D01*
X423657Y827188D01*
X423429Y828235D01*
X423276Y829296D01*
X423200Y830364D01*
X423200Y831436D01*
X720680Y448536D02*
X720756Y449604D01*
X720909Y450665D01*
X721137Y451712D01*
X721439Y452740D01*
X721813Y453744D01*
X722258Y454719D01*
X722772Y455659D01*
X723351Y456560D01*
X723993Y457418D01*
X724695Y458228D01*
X725452Y458985D01*
X726262Y459687D01*
X727120Y460329D01*
X728021Y460908D01*
X728961Y461422D01*
X729936Y461867D01*
X730940Y462241D01*
X731968Y462543D01*
X733015Y462771D01*
X734076Y462924D01*
X735144Y463000D01*
X736216Y463000D01*
X737284Y462924D01*
X738345Y462771D01*
X739392Y462543D01*
X740420Y462241D01*
X741424Y461867D01*
X742399Y461422D01*
X743339Y460908D01*
X744240Y460329D01*
X745098Y459687D01*
X745908Y458985D01*
X746665Y458228D01*
X747367Y457418D01*
X748009Y456560D01*
X748588Y455659D01*
X749102Y454719D01*
X749547Y453744D01*
X749921Y452740D01*
X750223Y451712D01*
X750451Y450665D01*
X750604Y449604D01*
X750680Y448536D01*
X750680Y447464D01*
X750604Y446396D01*
X750451Y445335D01*
X750223Y444288D01*
X749921Y443260D01*
X749547Y442256D01*
X749102Y441281D01*
X748588Y440341D01*
X748009Y439440D01*
X747367Y438582D01*
X746665Y437772D01*
X745908Y437015D01*
X745098Y436313D01*
X744240Y435671D01*
X743339Y435092D01*
X742399Y434578D01*
X741424Y434133D01*
X740420Y433759D01*
X739392Y433457D01*
X738345Y433229D01*
X737284Y433076D01*
X736216Y433000D01*
X735144Y433000D01*
X734076Y433076D01*
X733015Y433229D01*
X731968Y433457D01*
X730940Y433759D01*
X729936Y434133D01*
X728961Y434578D01*
X728021Y435092D01*
X727120Y435671D01*
X726262Y436313D01*
X725452Y437015D01*
X724695Y437772D01*
X723993Y438582D01*
X723351Y439440D01*
X722772Y440341D01*
X722258Y441281D01*
X721813Y442256D01*
X721439Y443260D01*
X721137Y444288D01*
X720909Y445335D01*
X720756Y446396D01*
X720680Y447464D01*
X720680Y448536D01*
X423500Y600936D02*
X423576Y602004D01*
X423729Y603065D01*
X423957Y604112D01*
X424259Y605140D01*
X424633Y606144D01*
X425078Y607119D01*
X425592Y608059D01*
X426171Y608960D01*
X426813Y609818D01*
X427515Y610628D01*
X428272Y611385D01*
X429082Y612087D01*
X429940Y612729D01*
X430841Y613308D01*
X431781Y613822D01*
X432756Y614267D01*
X433760Y614641D01*
X434788Y614943D01*
X435835Y615171D01*
X436896Y615324D01*
X437964Y615400D01*
X439036Y615400D01*
X440104Y615324D01*
X441165Y615171D01*
X442212Y614943D01*
X443240Y614641D01*
X444244Y614267D01*
X445219Y613822D01*
X446159Y613308D01*
X447060Y612729D01*
X447918Y612087D01*
X448728Y611385D01*
X449485Y610628D01*
X450187Y609818D01*
X450829Y608960D01*
X451408Y608059D01*
X451922Y607119D01*
X452367Y606144D01*
X452741Y605140D01*
X453043Y604112D01*
X453271Y603065D01*
X453424Y602004D01*
X453500Y600936D01*
X453500Y599864D01*
X453424Y598796D01*
X453271Y597735D01*
X453043Y596688D01*
X452741Y595660D01*
X452367Y594656D01*
X451922Y593681D01*
X451408Y592741D01*
X450829Y591840D01*
X450187Y590982D01*
X449485Y590172D01*
X448728Y589415D01*
X447918Y588713D01*
X447060Y588071D01*
X446159Y587492D01*
X445219Y586978D01*
X444244Y586533D01*
X443240Y586159D01*
X442212Y585857D01*
X441165Y585629D01*
X440104Y585476D01*
X439036Y585400D01*
X437964Y585400D01*
X436896Y585476D01*
X435835Y585629D01*
X434788Y585857D01*
X433760Y586159D01*
X432756Y586533D01*
X431781Y586978D01*
X430841Y587492D01*
X429940Y588071D01*
X429082Y588713D01*
X428272Y589415D01*
X427515Y590172D01*
X426813Y590982D01*
X426171Y591840D01*
X425592Y592741D01*
X425078Y593681D01*
X424633Y594656D01*
X424259Y595660D01*
X423957Y596688D01*
X423729Y597735D01*
X423576Y598796D01*
X423500Y599864D01*
X423500Y600936D01*
X927510Y726720D02*
X927439Y725641D01*
X927298Y724569D01*
X927087Y723509D01*
X926808Y722465D01*
X926460Y721441D01*
X926046Y720443D01*
X925568Y719473D01*
X925028Y718537D01*
X924427Y717638D01*
X923769Y716781D01*
X923057Y715968D01*
X922292Y715204D01*
X921479Y714491D01*
X920622Y713833D01*
X919723Y713232D01*
X918787Y712692D01*
X917817Y712214D01*
X916819Y711800D01*
X915795Y711452D01*
X914751Y711173D01*
X913691Y710962D01*
X912619Y710821D01*
X911540Y710750D01*
X910460Y710750D01*
X909381Y710821D01*
X908309Y710962D01*
X907249Y711173D01*
X906205Y711452D01*
X905181Y711800D01*
X904183Y712214D01*
X903213Y712692D01*
X902277Y713232D01*
X901378Y713833D01*
X900521Y714491D01*
X899708Y715204D01*
X898944Y715968D01*
X898231Y716781D01*
X897573Y717638D01*
X896972Y718537D01*
X896432Y719473D01*
X895954Y720443D01*
X895540Y721441D01*
X895192Y722465D01*
X894913Y723509D01*
X894702Y724569D01*
X894561Y725641D01*
X894490Y726720D01*
X894490Y727800D01*
X894561Y728879D01*
X894702Y729951D01*
X894913Y731011D01*
X895192Y732055D01*
X895540Y733079D01*
X895954Y734077D01*
X896432Y735047D01*
X896972Y735983D01*
X897573Y736882D01*
X898231Y737739D01*
X898944Y738552D01*
X899708Y739317D01*
X900521Y740029D01*
X901378Y740687D01*
X902277Y741288D01*
X903213Y741828D01*
X904183Y742306D01*
X905181Y742720D01*
X906205Y743068D01*
X907249Y743347D01*
X908309Y743558D01*
X909381Y743699D01*
X910460Y743770D01*
X911540Y743770D01*
X912619Y743699D01*
X913691Y743558D01*
X914751Y743347D01*
X915795Y743068D01*
X916819Y742720D01*
X917817Y742306D01*
X918787Y741828D01*
X919723Y741288D01*
X920622Y740687D01*
X921479Y740029D01*
X922292Y739317D01*
X923057Y738552D01*
X923769Y737739D01*
X924427Y736882D01*
X925028Y735983D01*
X925568Y735047D01*
X926046Y734077D01*
X926460Y733079D01*
X926808Y732055D01*
X927087Y731011D01*
X927298Y729951D01*
X927439Y728879D01*
X927510Y727800D01*
X927510Y726720D01*
M02*
