G04 EAGLE Gerber RS-274X export*
G75*
%MOMM*%
%FSLAX34Y34*%
%LPD*%
%INSilkscreen Bottom*%
%IPPOS*%
%AMOC8*
5,1,8,0,0,1.08239X$1,22.5*%
G01*
%ADD10R,0.020000X0.080000*%
%ADD11R,0.020000X0.100000*%
%ADD12R,0.020000X0.060000*%
%ADD13R,0.020000X0.020000*%
%ADD14R,0.020000X0.120000*%
%ADD15R,0.020000X0.820000*%
%ADD16R,0.020000X1.380000*%
%ADD17R,0.020000X1.640000*%
%ADD18R,0.020000X1.920000*%
%ADD19R,0.020000X2.200000*%
%ADD20R,0.020000X2.380000*%
%ADD21R,0.020000X0.040000*%
%ADD22R,0.020000X2.620000*%
%ADD23R,0.020000X2.680000*%
%ADD24R,0.020000X2.780000*%
%ADD25R,0.020000X2.880000*%
%ADD26R,0.020000X2.860000*%
%ADD27R,0.020000X2.940000*%
%ADD28R,0.020000X2.980000*%
%ADD29R,0.020000X3.040000*%
%ADD30R,0.020000X3.060000*%
%ADD31R,0.020000X0.380000*%
%ADD32R,0.020000X0.960000*%
%ADD33R,0.020000X3.120000*%
%ADD34R,0.020000X1.440000*%
%ADD35R,0.020000X3.140000*%
%ADD36R,0.020000X3.220000*%
%ADD37R,0.020000X1.940000*%
%ADD38R,0.020000X3.240000*%
%ADD39R,0.020000X2.120000*%
%ADD40R,0.020000X3.260000*%
%ADD41R,0.020000X2.220000*%
%ADD42R,0.020000X3.300000*%
%ADD43R,0.020000X3.280000*%
%ADD44R,0.020000X2.300000*%
%ADD45R,0.020000X3.360000*%
%ADD46R,0.020000X2.400000*%
%ADD47R,0.020000X0.680000*%
%ADD48R,0.020000X1.140000*%
%ADD49R,0.020000X1.600000*%
%ADD50R,0.020000X1.120000*%
%ADD51R,0.020000X1.960000*%
%ADD52R,0.020000X0.660000*%
%ADD53R,0.020000X3.400000*%
%ADD54R,0.020000X2.420000*%
%ADD55R,0.020000X3.440000*%
%ADD56R,0.020000X2.460000*%
%ADD57R,0.020000X0.140000*%
%ADD58R,0.020000X3.460000*%
%ADD59R,0.020000X2.520000*%
%ADD60R,0.020000X0.180000*%
%ADD61R,0.020000X3.480000*%
%ADD62R,0.020000X2.580000*%
%ADD63R,0.020000X0.160000*%
%ADD64R,0.020000X3.500000*%
%ADD65R,0.020000X2.600000*%
%ADD66R,0.020000X3.540000*%
%ADD67R,0.020000X2.660000*%
%ADD68R,0.020000X0.200000*%
%ADD69R,0.020000X3.580000*%
%ADD70R,0.020000X2.700000*%
%ADD71R,0.020000X0.280000*%
%ADD72R,0.020000X2.720000*%
%ADD73R,0.020000X3.640000*%
%ADD74R,0.020000X2.820000*%
%ADD75R,0.020000X0.300000*%
%ADD76R,0.020000X3.620000*%
%ADD77R,0.020000X2.840000*%
%ADD78R,0.020000X0.320000*%
%ADD79R,0.020000X3.680000*%
%ADD80R,0.020000X3.660000*%
%ADD81R,0.020000X3.720000*%
%ADD82R,0.020000X2.900000*%
%ADD83R,0.020000X3.340000*%
%ADD84R,0.020000X3.780000*%
%ADD85R,0.020000X3.380000*%
%ADD86R,0.020000X3.760000*%
%ADD87R,0.020000X3.420000*%
%ADD88R,0.020000X3.800000*%
%ADD89R,0.020000X3.860000*%
%ADD90R,0.020000X3.520000*%
%ADD91R,0.020000X3.880000*%
%ADD92R,0.020000X3.560000*%
%ADD93R,0.020000X3.900000*%
%ADD94R,0.020000X3.940000*%
%ADD95R,0.020000X3.960000*%
%ADD96R,0.020000X3.980000*%
%ADD97R,0.020000X3.740000*%
%ADD98R,0.020000X4.000000*%
%ADD99R,0.020000X4.060000*%
%ADD100R,0.020000X3.820000*%
%ADD101R,0.020000X4.080000*%
%ADD102R,0.020000X4.120000*%
%ADD103R,0.020000X4.140000*%
%ADD104R,0.020000X4.160000*%
%ADD105R,0.020000X4.020000*%
%ADD106R,0.020000X4.180000*%
%ADD107R,0.020000X4.220000*%
%ADD108R,0.020000X4.100000*%
%ADD109R,0.020000X4.240000*%
%ADD110R,0.020000X4.260000*%
%ADD111R,0.020000X4.280000*%
%ADD112R,0.020000X4.340000*%
%ADD113R,0.020000X4.380000*%
%ADD114R,0.020000X4.320000*%
%ADD115R,0.020000X4.360000*%
%ADD116R,0.020000X4.400000*%
%ADD117R,0.020000X4.440000*%
%ADD118R,0.020000X4.460000*%
%ADD119R,0.020000X4.480000*%
%ADD120R,0.020000X0.640000*%
%ADD121R,0.020000X4.580000*%
%ADD122R,0.020000X4.540000*%
%ADD123R,0.020000X4.560000*%
%ADD124R,0.020000X4.620000*%
%ADD125R,0.020000X4.640000*%
%ADD126R,0.020000X4.700000*%
%ADD127R,0.020000X4.720000*%
%ADD128R,0.020000X4.600000*%
%ADD129R,0.020000X4.780000*%
%ADD130R,0.020000X1.900000*%
%ADD131R,0.020000X1.880000*%
%ADD132R,0.020000X4.680000*%
%ADD133R,0.020000X4.760000*%
%ADD134R,0.020000X4.800000*%
%ADD135R,0.020000X4.880000*%
%ADD136R,0.020000X4.740000*%
%ADD137R,0.020000X4.900000*%
%ADD138R,0.020000X4.960000*%
%ADD139R,0.020000X4.920000*%
%ADD140R,0.020000X4.980000*%
%ADD141R,0.020000X5.040000*%
%ADD142R,0.020000X5.060000*%
%ADD143R,0.020000X1.500000*%
%ADD144R,0.020000X1.540000*%
%ADD145R,0.020000X1.480000*%
%ADD146R,0.020000X4.820000*%
%ADD147R,0.020000X5.080000*%
%ADD148R,0.020000X5.120000*%
%ADD149R,0.020000X4.840000*%
%ADD150R,0.020000X5.140000*%
%ADD151R,0.020000X4.860000*%
%ADD152R,0.020000X5.180000*%
%ADD153R,0.020000X5.220000*%
%ADD154R,0.020000X5.280000*%
%ADD155R,0.020000X4.940000*%
%ADD156R,0.020000X5.300000*%
%ADD157R,0.020000X5.360000*%
%ADD158R,0.020000X5.380000*%
%ADD159R,0.020000X5.440000*%
%ADD160R,0.020000X5.000000*%
%ADD161R,0.020000X5.460000*%
%ADD162R,0.020000X5.520000*%
%ADD163R,0.020000X5.020000*%
%ADD164R,0.020000X5.560000*%
%ADD165R,0.020000X5.540000*%
%ADD166R,0.020000X5.600000*%
%ADD167R,0.020000X5.640000*%
%ADD168R,0.020000X5.100000*%
%ADD169R,0.020000X5.700000*%
%ADD170R,0.020000X5.740000*%
%ADD171R,0.020000X5.760000*%
%ADD172R,0.020000X5.780000*%
%ADD173R,0.020000X5.160000*%
%ADD174R,0.020000X5.820000*%
%ADD175R,0.020000X5.840000*%
%ADD176R,0.020000X5.920000*%
%ADD177R,0.020000X5.940000*%
%ADD178R,0.020000X5.980000*%
%ADD179R,0.020000X5.960000*%
%ADD180R,0.020000X5.200000*%
%ADD181R,0.020000X6.020000*%
%ADD182R,0.020000X6.040000*%
%ADD183R,0.020000X6.080000*%
%ADD184R,0.020000X6.100000*%
%ADD185R,0.020000X6.140000*%
%ADD186R,0.020000X6.180000*%
%ADD187R,0.020000X6.200000*%
%ADD188R,0.020000X5.240000*%
%ADD189R,0.020000X6.220000*%
%ADD190R,0.020000X5.260000*%
%ADD191R,0.020000X6.240000*%
%ADD192R,0.020000X6.280000*%
%ADD193R,0.020000X6.300000*%
%ADD194R,0.020000X6.340000*%
%ADD195R,0.020000X6.380000*%
%ADD196R,0.020000X6.400000*%
%ADD197R,0.020000X6.420000*%
%ADD198R,0.020000X6.440000*%
%ADD199R,0.020000X6.460000*%
%ADD200R,0.020000X6.500000*%
%ADD201R,0.020000X6.540000*%
%ADD202R,0.020000X6.560000*%
%ADD203R,0.020000X6.580000*%
%ADD204R,0.020000X5.320000*%
%ADD205R,0.020000X6.600000*%
%ADD206R,0.020000X6.620000*%
%ADD207R,0.020000X5.340000*%
%ADD208R,0.020000X6.660000*%
%ADD209R,0.020000X6.680000*%
%ADD210R,0.020000X6.720000*%
%ADD211R,0.020000X6.740000*%
%ADD212R,0.020000X6.760000*%
%ADD213R,0.020000X6.780000*%
%ADD214R,0.020000X6.800000*%
%ADD215R,0.020000X6.840000*%
%ADD216R,0.020000X1.560000*%
%ADD217R,0.020000X1.580000*%
%ADD218R,0.020000X1.840000*%
%ADD219R,0.020000X6.860000*%
%ADD220R,0.020000X6.880000*%
%ADD221R,0.020000X6.900000*%
%ADD222R,0.020000X6.940000*%
%ADD223R,0.020000X6.960000*%
%ADD224R,0.020000X6.980000*%
%ADD225R,0.020000X7.000000*%
%ADD226R,0.020000X7.020000*%
%ADD227R,0.020000X1.860000*%
%ADD228R,0.020000X7.040000*%
%ADD229R,0.020000X1.520000*%
%ADD230R,0.020000X7.060000*%
%ADD231R,0.020000X1.820000*%
%ADD232R,0.020000X7.100000*%
%ADD233R,0.020000X1.800000*%
%ADD234R,0.020000X7.120000*%
%ADD235R,0.020000X1.460000*%
%ADD236R,0.020000X1.780000*%
%ADD237R,0.020000X7.140000*%
%ADD238R,0.020000X1.760000*%
%ADD239R,0.020000X7.200000*%
%ADD240R,0.020000X1.420000*%
%ADD241R,0.020000X1.740000*%
%ADD242R,0.020000X7.220000*%
%ADD243R,0.020000X1.400000*%
%ADD244R,0.020000X1.720000*%
%ADD245R,0.020000X7.240000*%
%ADD246R,0.020000X1.700000*%
%ADD247R,0.020000X1.680000*%
%ADD248R,0.020000X1.360000*%
%ADD249R,0.020000X1.660000*%
%ADD250R,0.020000X7.280000*%
%ADD251R,0.020000X1.340000*%
%ADD252R,0.020000X7.300000*%
%ADD253R,0.020000X1.320000*%
%ADD254R,0.020000X1.620000*%
%ADD255R,0.020000X7.340000*%
%ADD256R,0.020000X1.300000*%
%ADD257R,0.020000X1.280000*%
%ADD258R,0.020000X7.320000*%
%ADD259R,0.020000X1.260000*%
%ADD260R,0.020000X1.240000*%
%ADD261R,0.020000X7.360000*%
%ADD262R,0.020000X1.220000*%
%ADD263R,0.020000X7.380000*%
%ADD264R,0.020000X1.200000*%
%ADD265R,0.020000X7.400000*%
%ADD266R,0.020000X1.180000*%
%ADD267R,0.020000X7.440000*%
%ADD268R,0.020000X1.160000*%
%ADD269R,0.020000X7.460000*%
%ADD270R,0.020000X7.480000*%
%ADD271R,0.020000X3.200000*%
%ADD272R,0.020000X7.500000*%
%ADD273R,0.020000X7.520000*%
%ADD274R,0.020000X7.540000*%
%ADD275R,0.020000X7.560000*%
%ADD276R,0.020000X3.180000*%
%ADD277R,0.020000X7.580000*%
%ADD278R,0.020000X7.600000*%
%ADD279R,0.020000X3.160000*%
%ADD280R,0.020000X7.620000*%
%ADD281R,0.020000X7.640000*%
%ADD282R,0.020000X7.660000*%
%ADD283R,0.020000X7.700000*%
%ADD284R,0.020000X7.720000*%
%ADD285R,0.020000X7.740000*%
%ADD286R,0.020000X3.100000*%
%ADD287R,0.020000X7.760000*%
%ADD288R,0.020000X3.080000*%
%ADD289R,0.020000X7.780000*%
%ADD290R,0.020000X7.800000*%
%ADD291R,0.020000X7.820000*%
%ADD292R,0.020000X7.840000*%
%ADD293R,0.020000X7.860000*%
%ADD294R,0.020000X7.880000*%
%ADD295R,0.020000X0.620000*%
%ADD296R,0.020000X7.900000*%
%ADD297R,0.020000X7.940000*%
%ADD298R,0.020000X0.220000*%
%ADD299R,0.020000X7.920000*%
%ADD300R,0.020000X0.240000*%
%ADD301R,0.020000X7.960000*%
%ADD302R,0.020000X7.980000*%
%ADD303R,0.020000X0.260000*%
%ADD304R,0.020000X8.000000*%
%ADD305R,0.020000X1.100000*%
%ADD306R,0.020000X3.020000*%
%ADD307R,0.020000X8.020000*%
%ADD308R,0.020000X1.080000*%
%ADD309R,0.020000X3.000000*%
%ADD310R,0.020000X8.080000*%
%ADD311R,0.020000X8.060000*%
%ADD312R,0.020000X1.060000*%
%ADD313R,0.020000X8.100000*%
%ADD314R,0.020000X8.120000*%
%ADD315R,0.020000X0.340000*%
%ADD316R,0.020000X1.040000*%
%ADD317R,0.020000X8.180000*%
%ADD318R,0.020000X1.020000*%
%ADD319R,0.020000X8.160000*%
%ADD320R,0.020000X0.360000*%
%ADD321R,0.020000X1.000000*%
%ADD322R,0.020000X8.200000*%
%ADD323R,0.020000X2.960000*%
%ADD324R,0.020000X8.220000*%
%ADD325R,0.020000X0.980000*%
%ADD326R,0.020000X8.260000*%
%ADD327R,0.020000X0.400000*%
%ADD328R,0.020000X8.240000*%
%ADD329R,0.020000X0.920000*%
%ADD330R,0.020000X0.420000*%
%ADD331R,0.020000X2.920000*%
%ADD332R,0.020000X8.280000*%
%ADD333R,0.020000X0.440000*%
%ADD334R,0.020000X0.940000*%
%ADD335R,0.020000X8.320000*%
%ADD336R,0.020000X8.300000*%
%ADD337R,0.020000X0.460000*%
%ADD338R,0.020000X8.340000*%
%ADD339R,0.020000X0.480000*%
%ADD340R,0.020000X8.380000*%
%ADD341R,0.020000X0.860000*%
%ADD342R,0.020000X8.360000*%
%ADD343R,0.020000X0.500000*%
%ADD344R,0.020000X8.400000*%
%ADD345R,0.020000X0.520000*%
%ADD346R,0.020000X8.460000*%
%ADD347R,0.020000X0.840000*%
%ADD348R,0.020000X8.440000*%
%ADD349R,0.020000X0.540000*%
%ADD350R,0.020000X0.780000*%
%ADD351R,0.020000X8.480000*%
%ADD352R,0.020000X0.560000*%
%ADD353R,0.020000X0.760000*%
%ADD354R,0.020000X8.500000*%
%ADD355R,0.020000X0.800000*%
%ADD356R,0.020000X8.540000*%
%ADD357R,0.020000X0.580000*%
%ADD358R,0.020000X8.520000*%
%ADD359R,0.020000X0.600000*%
%ADD360R,0.020000X8.580000*%
%ADD361R,0.020000X0.740000*%
%ADD362R,0.020000X8.560000*%
%ADD363R,0.020000X0.700000*%
%ADD364R,0.020000X2.800000*%
%ADD365R,0.020000X8.620000*%
%ADD366R,0.020000X8.600000*%
%ADD367R,0.020000X8.660000*%
%ADD368R,0.020000X8.640000*%
%ADD369R,0.020000X2.760000*%
%ADD370R,0.020000X2.740000*%
%ADD371R,0.020000X8.680000*%
%ADD372R,0.020000X0.720000*%
%ADD373R,0.020000X8.720000*%
%ADD374R,0.020000X8.760000*%
%ADD375R,0.020000X8.740000*%
%ADD376R,0.020000X8.800000*%
%ADD377R,0.020000X8.780000*%
%ADD378R,0.020000X6.480000*%
%ADD379R,0.020000X2.260000*%
%ADD380R,0.020000X8.840000*%
%ADD381R,0.020000X2.240000*%
%ADD382R,0.020000X6.640000*%
%ADD383R,0.020000X0.880000*%
%ADD384R,0.020000X2.640000*%
%ADD385R,0.020000X2.180000*%
%ADD386R,0.020000X0.900000*%
%ADD387R,0.020000X2.160000*%
%ADD388R,0.020000X2.140000*%
%ADD389R,0.020000X2.560000*%
%ADD390R,0.020000X2.100000*%
%ADD391R,0.020000X6.700000*%
%ADD392R,0.020000X2.540000*%
%ADD393R,0.020000X2.080000*%
%ADD394R,0.020000X2.040000*%
%ADD395R,0.020000X2.500000*%
%ADD396R,0.020000X2.060000*%
%ADD397R,0.020000X2.480000*%
%ADD398R,0.020000X2.020000*%
%ADD399R,0.020000X2.000000*%
%ADD400R,0.020000X2.440000*%
%ADD401R,0.020000X1.980000*%
%ADD402R,0.020000X2.360000*%
%ADD403R,0.020000X6.920000*%
%ADD404R,0.020000X2.340000*%
%ADD405R,0.020000X2.320000*%
%ADD406R,0.020000X2.280000*%
%ADD407R,0.020000X4.500000*%
%ADD408R,0.020000X4.420000*%
%ADD409R,0.020000X4.520000*%
%ADD410R,0.020000X4.660000*%
%ADD411R,0.020000X4.200000*%
%ADD412R,0.020000X4.040000*%
%ADD413R,0.020000X3.920000*%
%ADD414R,0.020000X3.840000*%
%ADD415R,0.020000X3.700000*%
%ADD416R,0.020000X3.600000*%
%ADD417C,0.000000*%
%ADD418C,0.203200*%


D10*
X544200Y800300D03*
D11*
X544200Y801800D03*
X544200Y803200D03*
D12*
X544200Y804400D03*
D13*
X544200Y805600D03*
D14*
X544400Y797700D03*
D15*
X544400Y802600D03*
D12*
X544400Y807200D03*
D13*
X544400Y808400D03*
D16*
X544600Y802600D03*
D17*
X544800Y802500D03*
D12*
X544800Y811400D03*
D18*
X545000Y802500D03*
D13*
X545000Y812800D03*
D19*
X545200Y802500D03*
D20*
X545400Y802000D03*
D21*
X545400Y814300D03*
D22*
X545600Y802200D03*
D21*
X545600Y815700D03*
D23*
X545800Y803100D03*
D24*
X546000Y803600D03*
X546200Y804000D03*
D25*
X546400Y804500D03*
D26*
X546600Y805200D03*
D27*
X546800Y805800D03*
D28*
X547000Y806000D03*
D13*
X547000Y821400D03*
D29*
X547200Y806500D03*
D13*
X547400Y529600D03*
D30*
X547400Y806800D03*
D13*
X547600Y528800D03*
D31*
X547600Y531400D03*
D29*
X547600Y807300D03*
D21*
X547600Y822900D03*
D13*
X547800Y526600D03*
D32*
X547800Y531900D03*
D33*
X547800Y807900D03*
D34*
X548000Y531900D03*
D35*
X548000Y808200D03*
D13*
X548000Y824200D03*
D17*
X548200Y532100D03*
D36*
X548200Y808600D03*
D37*
X548400Y531800D03*
D38*
X548400Y808900D03*
D39*
X548600Y531900D03*
D40*
X548600Y809000D03*
D13*
X548800Y520400D03*
D41*
X548800Y531800D03*
D13*
X548800Y543200D03*
D42*
X548800Y809400D03*
D13*
X549000Y519400D03*
D41*
X549000Y530800D03*
D12*
X549000Y542400D03*
D13*
X549000Y543200D03*
D43*
X549000Y809900D03*
D13*
X549200Y518400D03*
D44*
X549200Y530200D03*
D21*
X549200Y542100D03*
X549200Y542700D03*
D13*
X549200Y543200D03*
D45*
X549200Y810300D03*
D46*
X549400Y529700D03*
D13*
X549400Y542000D03*
D12*
X549400Y542600D03*
D13*
X549400Y543200D03*
D45*
X549400Y810500D03*
D46*
X549600Y529300D03*
D13*
X549600Y541800D03*
D11*
X549600Y542600D03*
D47*
X549600Y566100D03*
D48*
X549600Y587000D03*
D47*
X549600Y599100D03*
X549600Y611900D03*
D49*
X549600Y626100D03*
D47*
X549600Y650900D03*
D50*
X549600Y671700D03*
D51*
X549600Y690300D03*
D47*
X549600Y706700D03*
X549600Y719500D03*
X549600Y735900D03*
D49*
X549600Y756500D03*
D47*
X549600Y770500D03*
D52*
X549600Y783400D03*
D53*
X549600Y810700D03*
D54*
X549800Y528800D03*
D13*
X549800Y541600D03*
D14*
X549800Y542500D03*
D47*
X549800Y566100D03*
D48*
X549800Y587000D03*
D47*
X549800Y599100D03*
X549800Y611900D03*
D49*
X549800Y626100D03*
D47*
X549800Y650900D03*
D50*
X549800Y671700D03*
D51*
X549800Y690300D03*
D47*
X549800Y706700D03*
X549800Y719500D03*
X549800Y735900D03*
D49*
X549800Y756500D03*
D47*
X549800Y770500D03*
X549800Y783300D03*
D55*
X549800Y810900D03*
D56*
X550000Y528200D03*
D21*
X550000Y541300D03*
D57*
X550000Y542400D03*
D47*
X550000Y566100D03*
D48*
X550000Y587000D03*
D47*
X550000Y599100D03*
D52*
X550000Y611800D03*
D49*
X550000Y626100D03*
D47*
X550000Y650900D03*
D50*
X550000Y671700D03*
D51*
X550000Y690300D03*
D47*
X550000Y706700D03*
X550000Y719500D03*
X550000Y735900D03*
D49*
X550000Y756500D03*
D47*
X550000Y770500D03*
X550000Y783300D03*
D58*
X550000Y811200D03*
D59*
X550200Y527700D03*
D13*
X550200Y541000D03*
D60*
X550200Y542200D03*
D47*
X550200Y566100D03*
D48*
X550200Y587000D03*
D47*
X550200Y599100D03*
X550200Y611700D03*
D49*
X550200Y626100D03*
D47*
X550200Y650900D03*
D50*
X550200Y671700D03*
D51*
X550200Y690300D03*
D47*
X550200Y706700D03*
X550200Y719500D03*
X550200Y735900D03*
D49*
X550200Y756500D03*
D47*
X550200Y770500D03*
D52*
X550200Y783200D03*
D61*
X550200Y811500D03*
D62*
X550400Y527200D03*
D13*
X550400Y540800D03*
D63*
X550400Y541900D03*
D13*
X550400Y543000D03*
D47*
X550400Y566100D03*
D48*
X550400Y587000D03*
D47*
X550400Y599100D03*
X550400Y611700D03*
D49*
X550400Y626100D03*
D47*
X550400Y650900D03*
D50*
X550400Y671700D03*
D51*
X550400Y690300D03*
D47*
X550400Y706700D03*
X550400Y719500D03*
X550400Y735900D03*
D49*
X550400Y756500D03*
D47*
X550400Y770500D03*
X550400Y783100D03*
D64*
X550400Y811800D03*
D65*
X550600Y526900D03*
D13*
X550600Y540600D03*
D60*
X550600Y541800D03*
D13*
X550600Y543000D03*
D47*
X550600Y566100D03*
D48*
X550600Y587000D03*
D47*
X550600Y599100D03*
D52*
X550600Y611600D03*
D49*
X550600Y626100D03*
D47*
X550600Y650900D03*
D50*
X550600Y671700D03*
D51*
X550600Y690300D03*
D47*
X550600Y706700D03*
X550600Y719500D03*
X550600Y735900D03*
D49*
X550600Y756500D03*
D47*
X550600Y770500D03*
X550600Y783100D03*
D66*
X550600Y812000D03*
D21*
X550600Y830100D03*
D67*
X550800Y526400D03*
D21*
X550800Y540300D03*
D68*
X550800Y541700D03*
D13*
X550800Y543000D03*
D47*
X550800Y566100D03*
D48*
X550800Y587000D03*
D47*
X550800Y599100D03*
X550800Y611500D03*
D49*
X550800Y626100D03*
D47*
X550800Y650900D03*
D50*
X550800Y671700D03*
D51*
X550800Y690300D03*
D47*
X550800Y706700D03*
X550800Y719500D03*
X550800Y735900D03*
D49*
X550800Y756500D03*
D47*
X550800Y770500D03*
X550800Y782900D03*
D69*
X550800Y812400D03*
D70*
X551000Y526000D03*
D13*
X551000Y540000D03*
D71*
X551000Y541700D03*
D47*
X551000Y566100D03*
D48*
X551000Y587000D03*
D47*
X551000Y599100D03*
X551000Y611500D03*
D49*
X551000Y626100D03*
D47*
X551000Y650900D03*
D50*
X551000Y671700D03*
D51*
X551000Y690300D03*
D47*
X551000Y706700D03*
X551000Y719500D03*
X551000Y735900D03*
D49*
X551000Y756500D03*
D47*
X551000Y770500D03*
X551000Y782900D03*
D69*
X551000Y812400D03*
D72*
X551200Y525700D03*
D13*
X551200Y539800D03*
D71*
X551200Y541500D03*
D47*
X551200Y566100D03*
D48*
X551200Y587000D03*
D47*
X551200Y599100D03*
D52*
X551200Y611400D03*
D49*
X551200Y626100D03*
D47*
X551200Y650900D03*
D50*
X551200Y671700D03*
D51*
X551200Y690300D03*
D47*
X551200Y706700D03*
X551200Y719500D03*
X551200Y735900D03*
D49*
X551200Y756500D03*
D47*
X551200Y770500D03*
D52*
X551200Y782800D03*
D73*
X551200Y812700D03*
D74*
X551400Y525600D03*
D75*
X551400Y541400D03*
D47*
X551400Y566100D03*
D48*
X551400Y587000D03*
D47*
X551400Y599100D03*
X551400Y611300D03*
D49*
X551400Y626100D03*
D47*
X551400Y650900D03*
D50*
X551400Y671700D03*
D51*
X551400Y690300D03*
D47*
X551400Y706700D03*
X551400Y719500D03*
X551400Y735900D03*
D49*
X551400Y756500D03*
D47*
X551400Y770500D03*
X551400Y782700D03*
D76*
X551400Y812800D03*
D77*
X551600Y525300D03*
D78*
X551600Y541300D03*
D47*
X551600Y566100D03*
D48*
X551600Y587000D03*
D47*
X551600Y599100D03*
X551600Y611300D03*
D49*
X551600Y626100D03*
D47*
X551600Y650900D03*
D50*
X551600Y671700D03*
D51*
X551600Y690300D03*
D47*
X551600Y706700D03*
X551600Y719500D03*
X551600Y735900D03*
D49*
X551600Y756500D03*
D47*
X551600Y770500D03*
X551600Y782700D03*
D79*
X551600Y813300D03*
D36*
X551800Y526800D03*
D47*
X551800Y566100D03*
D48*
X551800Y587000D03*
D47*
X551800Y599100D03*
D52*
X551800Y611200D03*
D49*
X551800Y626100D03*
D47*
X551800Y650900D03*
D50*
X551800Y671700D03*
D51*
X551800Y690300D03*
D47*
X551800Y706700D03*
X551800Y719500D03*
X551800Y735900D03*
D49*
X551800Y756500D03*
D47*
X551800Y770500D03*
D52*
X551800Y782600D03*
D80*
X551800Y813400D03*
D40*
X552000Y526600D03*
D47*
X552000Y566100D03*
D48*
X552000Y587000D03*
D47*
X552000Y599100D03*
X552000Y611100D03*
D49*
X552000Y626100D03*
D47*
X552000Y650900D03*
D50*
X552000Y671700D03*
D51*
X552000Y690300D03*
D47*
X552000Y706700D03*
X552000Y719500D03*
X552000Y735900D03*
D49*
X552000Y756500D03*
D47*
X552000Y770500D03*
X552000Y782500D03*
D81*
X552000Y813700D03*
D40*
X552200Y526200D03*
D13*
X552200Y542800D03*
D47*
X552200Y566100D03*
D48*
X552200Y587000D03*
D47*
X552200Y599100D03*
D52*
X552200Y611000D03*
D49*
X552200Y626100D03*
D47*
X552200Y650900D03*
D50*
X552200Y671700D03*
D51*
X552200Y690300D03*
D47*
X552200Y706700D03*
X552200Y719500D03*
X552200Y735900D03*
D49*
X552200Y756500D03*
D47*
X552200Y770500D03*
X552200Y782500D03*
D81*
X552200Y813700D03*
D82*
X552400Y524000D03*
D31*
X552400Y540600D03*
D13*
X552400Y542800D03*
D47*
X552400Y566100D03*
D48*
X552400Y587000D03*
D47*
X552400Y599100D03*
X552400Y610900D03*
D49*
X552400Y626100D03*
D47*
X552400Y650900D03*
D50*
X552400Y671700D03*
D51*
X552400Y690300D03*
D47*
X552400Y706700D03*
X552400Y719500D03*
X552400Y735900D03*
D49*
X552400Y756500D03*
D47*
X552400Y770500D03*
D52*
X552400Y782400D03*
D81*
X552400Y813900D03*
D13*
X552400Y833000D03*
D83*
X552600Y525800D03*
D13*
X552600Y542800D03*
D47*
X552600Y566100D03*
D48*
X552600Y587000D03*
D47*
X552600Y599100D03*
X552600Y610900D03*
D49*
X552600Y626100D03*
D47*
X552600Y650900D03*
D50*
X552600Y671700D03*
D51*
X552600Y690300D03*
D47*
X552600Y706700D03*
X552600Y719500D03*
X552600Y735900D03*
D49*
X552600Y756500D03*
D47*
X552600Y770500D03*
X552600Y782300D03*
D84*
X552600Y814200D03*
D85*
X552800Y525600D03*
D13*
X552800Y542800D03*
D47*
X552800Y566100D03*
D48*
X552800Y587000D03*
D47*
X552800Y599100D03*
D52*
X552800Y610800D03*
D49*
X552800Y626100D03*
D47*
X552800Y650900D03*
D50*
X552800Y671700D03*
D51*
X552800Y690300D03*
D47*
X552800Y706700D03*
X552800Y719500D03*
X552800Y735900D03*
D49*
X552800Y756500D03*
D47*
X552800Y770500D03*
X552800Y782300D03*
D86*
X552800Y814300D03*
D13*
X553000Y508000D03*
D87*
X553000Y525400D03*
D13*
X553000Y542800D03*
D47*
X553000Y566100D03*
D48*
X553000Y587000D03*
D47*
X553000Y599100D03*
X553000Y610700D03*
D49*
X553000Y626100D03*
D47*
X553000Y650900D03*
D50*
X553000Y671700D03*
D51*
X553000Y690300D03*
D47*
X553000Y706700D03*
X553000Y719500D03*
X553000Y735900D03*
D49*
X553000Y756500D03*
D47*
X553000Y770500D03*
D52*
X553000Y782200D03*
D88*
X553000Y814500D03*
D58*
X553200Y525200D03*
D13*
X553200Y542800D03*
D47*
X553200Y566100D03*
D48*
X553200Y587000D03*
D47*
X553200Y599100D03*
X553200Y610700D03*
D49*
X553200Y626100D03*
D47*
X553200Y650900D03*
D50*
X553200Y671700D03*
D51*
X553200Y690300D03*
D47*
X553200Y706700D03*
X553200Y719500D03*
X553200Y735900D03*
D49*
X553200Y756500D03*
D47*
X553200Y770500D03*
X553200Y782100D03*
D89*
X553200Y814800D03*
D90*
X553400Y524900D03*
D13*
X553400Y542800D03*
D47*
X553400Y566100D03*
D48*
X553400Y587000D03*
D47*
X553400Y599100D03*
D52*
X553400Y610600D03*
D49*
X553400Y626100D03*
D47*
X553400Y650900D03*
D50*
X553400Y671700D03*
D51*
X553400Y690300D03*
D47*
X553400Y706700D03*
X553400Y719500D03*
X553400Y735900D03*
D49*
X553400Y756500D03*
D47*
X553400Y770500D03*
D52*
X553400Y782000D03*
D91*
X553400Y814900D03*
D92*
X553600Y524700D03*
D13*
X553600Y542800D03*
D47*
X553600Y566100D03*
D48*
X553600Y587000D03*
D47*
X553600Y599100D03*
X553600Y610500D03*
D49*
X553600Y626100D03*
D47*
X553600Y650900D03*
D50*
X553600Y671700D03*
D51*
X553600Y690300D03*
D47*
X553600Y706700D03*
X553600Y719500D03*
X553600Y735900D03*
D49*
X553600Y756500D03*
D47*
X553600Y770500D03*
D52*
X553600Y782000D03*
D91*
X553600Y815100D03*
D69*
X553800Y524600D03*
D13*
X553800Y542800D03*
D47*
X553800Y566100D03*
D48*
X553800Y587000D03*
D47*
X553800Y599100D03*
X553800Y610500D03*
D49*
X553800Y626100D03*
D47*
X553800Y650900D03*
D50*
X553800Y671700D03*
D51*
X553800Y690300D03*
D47*
X553800Y706700D03*
X553800Y719500D03*
X553800Y735900D03*
D49*
X553800Y756500D03*
D47*
X553800Y770500D03*
X553800Y781900D03*
D93*
X553800Y815200D03*
D76*
X554000Y524400D03*
D13*
X554000Y542800D03*
D47*
X554000Y566100D03*
D48*
X554000Y587000D03*
D47*
X554000Y599100D03*
D52*
X554000Y610400D03*
D49*
X554000Y626100D03*
D47*
X554000Y650900D03*
D50*
X554000Y671700D03*
D51*
X554000Y690300D03*
D47*
X554000Y706700D03*
X554000Y719500D03*
X554000Y735900D03*
D49*
X554000Y756500D03*
D47*
X554000Y770500D03*
D52*
X554000Y781800D03*
D94*
X554000Y815400D03*
D80*
X554200Y524200D03*
D13*
X554200Y542800D03*
D47*
X554200Y566100D03*
D48*
X554200Y587000D03*
D47*
X554200Y599100D03*
X554200Y610300D03*
D49*
X554200Y626100D03*
D47*
X554200Y650900D03*
D50*
X554200Y671700D03*
D51*
X554200Y690300D03*
D47*
X554200Y706700D03*
X554200Y719500D03*
X554200Y735900D03*
D49*
X554200Y756500D03*
D47*
X554200Y770500D03*
D52*
X554200Y781800D03*
D95*
X554200Y815700D03*
D79*
X554400Y524100D03*
D13*
X554400Y542800D03*
D47*
X554400Y566100D03*
D48*
X554400Y587000D03*
D47*
X554400Y599100D03*
D52*
X554400Y610200D03*
D49*
X554400Y626100D03*
D47*
X554400Y650900D03*
D50*
X554400Y671700D03*
D51*
X554400Y690300D03*
D47*
X554400Y706700D03*
X554400Y719500D03*
X554400Y735900D03*
D49*
X554400Y756500D03*
D47*
X554400Y770500D03*
X554400Y781700D03*
D96*
X554400Y815800D03*
D97*
X554600Y523800D03*
D13*
X554600Y542800D03*
D47*
X554600Y566100D03*
D48*
X554600Y587000D03*
D47*
X554600Y599100D03*
D52*
X554600Y610200D03*
D49*
X554600Y626100D03*
D47*
X554600Y650900D03*
D50*
X554600Y671700D03*
D51*
X554600Y690300D03*
D47*
X554600Y706700D03*
X554600Y719500D03*
X554600Y735900D03*
D49*
X554600Y756500D03*
D47*
X554600Y770500D03*
D52*
X554600Y781600D03*
D95*
X554600Y815900D03*
D97*
X554800Y523800D03*
D13*
X554800Y542800D03*
D47*
X554800Y566100D03*
D48*
X554800Y587000D03*
D47*
X554800Y599100D03*
X554800Y610100D03*
D49*
X554800Y626100D03*
D47*
X554800Y650900D03*
D50*
X554800Y671700D03*
D51*
X554800Y690300D03*
D47*
X554800Y706700D03*
X554800Y719500D03*
X554800Y735900D03*
D49*
X554800Y756500D03*
D47*
X554800Y770500D03*
D52*
X554800Y781600D03*
D98*
X554800Y816100D03*
D88*
X555000Y523500D03*
D13*
X555000Y542800D03*
D47*
X555000Y566100D03*
D48*
X555000Y587000D03*
D47*
X555000Y599100D03*
D52*
X555000Y610000D03*
D49*
X555000Y626100D03*
D47*
X555000Y650900D03*
D50*
X555000Y671700D03*
D51*
X555000Y690300D03*
D47*
X555000Y706700D03*
X555000Y719500D03*
X555000Y735900D03*
D49*
X555000Y756500D03*
D47*
X555000Y770500D03*
X555000Y781500D03*
D98*
X555000Y816100D03*
D88*
X555200Y523500D03*
D13*
X555200Y542800D03*
D47*
X555200Y566100D03*
D48*
X555200Y587000D03*
D47*
X555200Y599100D03*
D52*
X555200Y610000D03*
D49*
X555200Y626100D03*
D47*
X555200Y650900D03*
D50*
X555200Y671700D03*
D51*
X555200Y690300D03*
D47*
X555200Y706700D03*
X555200Y719500D03*
X555200Y735900D03*
D49*
X555200Y756500D03*
D47*
X555200Y770500D03*
D52*
X555200Y781400D03*
D99*
X555200Y816400D03*
D13*
X555400Y504000D03*
D100*
X555400Y523400D03*
D13*
X555400Y542800D03*
D47*
X555400Y566100D03*
D48*
X555400Y587000D03*
D47*
X555400Y599100D03*
X555400Y609900D03*
D49*
X555400Y626100D03*
D47*
X555400Y650900D03*
D50*
X555400Y671700D03*
D51*
X555400Y690300D03*
D47*
X555400Y706700D03*
X555400Y719500D03*
X555400Y735900D03*
D49*
X555400Y756500D03*
D47*
X555400Y770500D03*
D52*
X555400Y781400D03*
D101*
X555400Y816500D03*
D89*
X555600Y523200D03*
D13*
X555600Y542800D03*
D47*
X555600Y566100D03*
D48*
X555600Y587000D03*
D47*
X555600Y599100D03*
D52*
X555600Y609800D03*
D49*
X555600Y626100D03*
D47*
X555600Y650900D03*
D50*
X555600Y671700D03*
D51*
X555600Y690300D03*
D47*
X555600Y706700D03*
X555600Y719500D03*
X555600Y735900D03*
D49*
X555600Y756500D03*
D47*
X555600Y770500D03*
D52*
X555600Y781200D03*
D102*
X555600Y816900D03*
D91*
X555800Y523100D03*
D13*
X555800Y542800D03*
D47*
X555800Y566100D03*
D52*
X555800Y587000D03*
D47*
X555800Y599100D03*
D52*
X555800Y609800D03*
D47*
X555800Y621500D03*
X555800Y650900D03*
X555800Y671700D03*
X555800Y683900D03*
X555800Y696700D03*
X555800Y706700D03*
X555800Y719500D03*
X555800Y735900D03*
X555800Y751900D03*
X555800Y770500D03*
D52*
X555800Y781200D03*
D103*
X555800Y817000D03*
D13*
X556000Y503200D03*
D94*
X556000Y523200D03*
D47*
X556000Y566100D03*
D52*
X556000Y587000D03*
D47*
X556000Y599100D03*
X556000Y609700D03*
X556000Y621500D03*
X556000Y650900D03*
X556000Y671700D03*
X556000Y683900D03*
X556000Y696700D03*
X556000Y706700D03*
X556000Y719500D03*
X556000Y735900D03*
X556000Y751900D03*
X556000Y770500D03*
D52*
X556000Y781200D03*
D104*
X556000Y817100D03*
D98*
X556200Y522900D03*
D47*
X556200Y566100D03*
D52*
X556200Y587000D03*
D47*
X556200Y599100D03*
D52*
X556200Y609600D03*
D47*
X556200Y621500D03*
X556200Y650900D03*
X556200Y671700D03*
X556200Y683900D03*
X556200Y696700D03*
X556200Y706700D03*
X556200Y719500D03*
X556200Y735900D03*
X556200Y751900D03*
X556200Y770500D03*
D52*
X556200Y781000D03*
D104*
X556200Y817100D03*
D98*
X556400Y522900D03*
D47*
X556400Y566100D03*
D52*
X556400Y587000D03*
D47*
X556400Y599100D03*
D52*
X556400Y609600D03*
D47*
X556400Y621500D03*
X556400Y650900D03*
X556400Y671700D03*
X556400Y683900D03*
X556400Y696700D03*
X556400Y706700D03*
X556400Y719500D03*
X556400Y735900D03*
X556400Y751900D03*
D52*
X556400Y770600D03*
X556400Y781000D03*
D104*
X556400Y817100D03*
D105*
X556600Y522800D03*
D47*
X556600Y566100D03*
D52*
X556600Y587000D03*
D47*
X556600Y599100D03*
D52*
X556600Y609400D03*
D47*
X556600Y621500D03*
X556600Y650900D03*
X556600Y671700D03*
X556600Y683900D03*
X556600Y696700D03*
X556600Y706700D03*
X556600Y719500D03*
X556600Y735900D03*
X556600Y751900D03*
D52*
X556600Y770600D03*
D47*
X556600Y780900D03*
D106*
X556600Y817200D03*
D13*
X556800Y502200D03*
D105*
X556800Y522600D03*
D13*
X556800Y543000D03*
D47*
X556800Y566100D03*
D52*
X556800Y587000D03*
D47*
X556800Y599100D03*
D52*
X556800Y609400D03*
D47*
X556800Y621500D03*
X556800Y650900D03*
X556800Y671700D03*
X556800Y683900D03*
X556800Y696700D03*
X556800Y706700D03*
X556800Y719500D03*
X556800Y735900D03*
X556800Y751900D03*
D52*
X556800Y770600D03*
X556800Y780800D03*
D107*
X556800Y817400D03*
D101*
X557000Y522300D03*
D13*
X557000Y543000D03*
D47*
X557000Y566100D03*
D52*
X557000Y587000D03*
D47*
X557000Y599100D03*
D52*
X557000Y609400D03*
D47*
X557000Y621500D03*
X557000Y650900D03*
X557000Y671700D03*
X557000Y683900D03*
X557000Y696700D03*
X557000Y706700D03*
X557000Y719500D03*
X557000Y735900D03*
X557000Y751900D03*
D52*
X557000Y770600D03*
X557000Y780800D03*
D107*
X557000Y817600D03*
D108*
X557200Y522200D03*
D13*
X557200Y543000D03*
D47*
X557200Y566100D03*
D52*
X557200Y587000D03*
D47*
X557200Y599100D03*
D52*
X557200Y609200D03*
D47*
X557200Y621500D03*
X557200Y650900D03*
X557200Y671700D03*
X557200Y683900D03*
X557200Y696700D03*
X557200Y706700D03*
X557200Y719500D03*
X557200Y735900D03*
X557200Y751900D03*
D52*
X557200Y770600D03*
D47*
X557200Y780700D03*
D109*
X557200Y817700D03*
D103*
X557400Y522400D03*
D47*
X557400Y566100D03*
D52*
X557400Y587000D03*
D47*
X557400Y599100D03*
D52*
X557400Y609200D03*
D47*
X557400Y621500D03*
X557400Y650900D03*
X557400Y671700D03*
X557400Y683900D03*
X557400Y696700D03*
X557400Y706700D03*
X557400Y719500D03*
X557400Y735900D03*
X557400Y751900D03*
D52*
X557400Y770600D03*
X557400Y780600D03*
D110*
X557400Y817800D03*
D106*
X557600Y522200D03*
D47*
X557600Y566100D03*
D52*
X557600Y587000D03*
D47*
X557600Y599100D03*
D52*
X557600Y609200D03*
D47*
X557600Y621500D03*
X557600Y650900D03*
X557600Y671700D03*
X557600Y683900D03*
X557600Y696700D03*
X557600Y706700D03*
X557600Y719500D03*
X557600Y735900D03*
X557600Y751900D03*
D52*
X557600Y770600D03*
X557600Y780600D03*
D111*
X557600Y817900D03*
D106*
X557800Y522000D03*
D13*
X557800Y543200D03*
D47*
X557800Y566100D03*
D52*
X557800Y587000D03*
D47*
X557800Y599100D03*
D52*
X557800Y609000D03*
D47*
X557800Y621500D03*
X557800Y650900D03*
X557800Y671700D03*
X557800Y683900D03*
X557800Y696700D03*
X557800Y706700D03*
X557800Y719500D03*
X557800Y735900D03*
X557800Y751900D03*
D52*
X557800Y770600D03*
X557800Y780400D03*
D112*
X557800Y818200D03*
D109*
X558000Y521700D03*
D13*
X558000Y543200D03*
D47*
X558000Y566100D03*
D52*
X558000Y587000D03*
D47*
X558000Y599100D03*
D52*
X558000Y609000D03*
D47*
X558000Y621500D03*
X558000Y650900D03*
X558000Y671700D03*
X558000Y683900D03*
X558000Y696700D03*
X558000Y706700D03*
X558000Y719500D03*
X558000Y735900D03*
X558000Y751900D03*
D52*
X558000Y770600D03*
X558000Y780400D03*
D113*
X558000Y818400D03*
D110*
X558200Y521600D03*
D13*
X558200Y543200D03*
D47*
X558200Y566100D03*
D52*
X558200Y587000D03*
D47*
X558200Y599100D03*
D52*
X558200Y609000D03*
D47*
X558200Y621500D03*
X558200Y650900D03*
X558200Y671700D03*
X558200Y683900D03*
X558200Y696700D03*
X558200Y706700D03*
X558200Y719500D03*
X558200Y735900D03*
X558200Y751900D03*
D52*
X558200Y770600D03*
X558200Y780400D03*
D113*
X558200Y818400D03*
D114*
X558400Y521700D03*
D47*
X558400Y566100D03*
D52*
X558400Y587000D03*
D47*
X558400Y599100D03*
D52*
X558400Y608800D03*
D47*
X558400Y621500D03*
X558400Y650900D03*
X558400Y671700D03*
X558400Y683900D03*
X558400Y696700D03*
X558400Y706700D03*
X558400Y719500D03*
X558400Y735900D03*
X558400Y751900D03*
D52*
X558400Y770600D03*
X558400Y780200D03*
D115*
X558400Y818500D03*
D112*
X558600Y521400D03*
D47*
X558600Y566100D03*
D52*
X558600Y587000D03*
D47*
X558600Y599100D03*
D52*
X558600Y608800D03*
D47*
X558600Y621500D03*
X558600Y650900D03*
X558600Y671700D03*
X558600Y683900D03*
X558600Y696700D03*
X558600Y706700D03*
X558600Y719500D03*
X558600Y735900D03*
X558600Y751900D03*
D52*
X558600Y770600D03*
X558600Y780200D03*
D113*
X558600Y818600D03*
D112*
X558800Y521400D03*
D13*
X558800Y543400D03*
D47*
X558800Y566100D03*
D52*
X558800Y587000D03*
D47*
X558800Y599100D03*
D52*
X558800Y608600D03*
D47*
X558800Y621500D03*
X558800Y650900D03*
X558800Y671700D03*
X558800Y683900D03*
X558800Y696700D03*
X558800Y706700D03*
X558800Y719500D03*
X558800Y735900D03*
X558800Y751900D03*
D52*
X558800Y770600D03*
X558800Y780200D03*
D116*
X558800Y818700D03*
D113*
X559000Y521600D03*
D47*
X559000Y566100D03*
D52*
X559000Y587000D03*
D47*
X559000Y599100D03*
D52*
X559000Y608600D03*
D47*
X559000Y621500D03*
X559000Y650900D03*
X559000Y671700D03*
X559000Y683900D03*
X559000Y696700D03*
X559000Y706700D03*
X559000Y719500D03*
X559000Y735900D03*
X559000Y751900D03*
D52*
X559000Y770600D03*
X559000Y780000D03*
D117*
X559000Y818900D03*
D116*
X559200Y521500D03*
D47*
X559200Y566100D03*
D52*
X559200Y587000D03*
D47*
X559200Y599100D03*
D52*
X559200Y608600D03*
D47*
X559200Y621500D03*
X559200Y650900D03*
X559200Y671700D03*
X559200Y683900D03*
X559200Y696700D03*
X559200Y706700D03*
X559200Y719500D03*
X559200Y735900D03*
X559200Y751900D03*
D52*
X559200Y770600D03*
X559200Y780000D03*
D118*
X559200Y819000D03*
D116*
X559400Y521300D03*
D13*
X559400Y543600D03*
D47*
X559400Y566100D03*
D52*
X559400Y587000D03*
D47*
X559400Y599100D03*
D52*
X559400Y608400D03*
D47*
X559400Y621500D03*
X559400Y650900D03*
X559400Y671700D03*
X559400Y683900D03*
X559400Y696700D03*
X559400Y706700D03*
X559400Y719500D03*
X559400Y735900D03*
X559400Y751900D03*
D52*
X559400Y770600D03*
X559400Y780000D03*
D119*
X559400Y819100D03*
D118*
X559600Y521400D03*
D47*
X559600Y566100D03*
D52*
X559600Y587000D03*
D47*
X559600Y599100D03*
D52*
X559600Y608400D03*
D47*
X559600Y621500D03*
X559600Y650900D03*
X559600Y671700D03*
X559600Y683900D03*
X559600Y696700D03*
X559600Y706700D03*
X559600Y719500D03*
X559600Y735900D03*
X559600Y751900D03*
D52*
X559600Y770600D03*
X559600Y779800D03*
D119*
X559600Y819100D03*
X559800Y521300D03*
D47*
X559800Y566100D03*
D52*
X559800Y587000D03*
D47*
X559800Y599100D03*
D52*
X559800Y608400D03*
D47*
X559800Y621500D03*
X559800Y650900D03*
X559800Y671700D03*
X559800Y683900D03*
X559800Y696700D03*
X559800Y706700D03*
X559800Y719500D03*
X559800Y735900D03*
X559800Y751900D03*
D52*
X559800Y770600D03*
X559800Y779800D03*
D118*
X559800Y819200D03*
D119*
X560000Y521100D03*
D13*
X560000Y543800D03*
D47*
X560000Y566100D03*
D52*
X560000Y587000D03*
D47*
X560000Y599100D03*
D52*
X560000Y608200D03*
D47*
X560000Y621500D03*
X560000Y650900D03*
X560000Y671700D03*
X560000Y683900D03*
X560000Y696700D03*
X560000Y706700D03*
X560000Y719500D03*
X560000Y735900D03*
X560000Y751900D03*
D52*
X560000Y770600D03*
D120*
X560000Y779700D03*
D119*
X560000Y819300D03*
D121*
X560200Y521000D03*
D47*
X560200Y566100D03*
D52*
X560200Y587000D03*
D47*
X560200Y599100D03*
D52*
X560200Y608200D03*
D47*
X560200Y621500D03*
X560200Y650900D03*
X560200Y671700D03*
X560200Y683900D03*
X560200Y696700D03*
X560200Y706700D03*
X560200Y719500D03*
X560200Y735900D03*
X560200Y751900D03*
D52*
X560200Y770600D03*
X560200Y779600D03*
D122*
X560200Y819600D03*
D121*
X560400Y520800D03*
D13*
X560400Y544000D03*
D47*
X560400Y566100D03*
D52*
X560400Y587000D03*
D47*
X560400Y599100D03*
D52*
X560400Y608200D03*
D47*
X560400Y621500D03*
X560400Y650900D03*
X560400Y671700D03*
X560400Y683900D03*
X560400Y696700D03*
X560400Y706700D03*
X560400Y719500D03*
X560400Y735900D03*
X560400Y751900D03*
D52*
X560400Y770600D03*
X560400Y779600D03*
D123*
X560400Y819700D03*
D124*
X560600Y520600D03*
D13*
X560600Y544000D03*
D47*
X560600Y566100D03*
D52*
X560600Y587000D03*
D47*
X560600Y599100D03*
D52*
X560600Y608000D03*
D47*
X560600Y621500D03*
X560600Y650900D03*
X560600Y671700D03*
X560600Y683900D03*
X560600Y696700D03*
X560600Y706700D03*
X560600Y719500D03*
X560600Y735900D03*
X560600Y751900D03*
D52*
X560600Y770600D03*
D120*
X560600Y779500D03*
D123*
X560600Y819700D03*
D125*
X560800Y520900D03*
D47*
X560800Y566100D03*
D52*
X560800Y587000D03*
D47*
X560800Y599100D03*
D52*
X560800Y608000D03*
D47*
X560800Y621500D03*
X560800Y650900D03*
X560800Y671700D03*
X560800Y683900D03*
X560800Y696700D03*
X560800Y706700D03*
X560800Y719500D03*
X560800Y735900D03*
X560800Y751900D03*
D52*
X560800Y770600D03*
X560800Y779400D03*
D121*
X560800Y819800D03*
D125*
X561000Y520700D03*
D13*
X561000Y544200D03*
D47*
X561000Y566100D03*
D52*
X561000Y587000D03*
D47*
X561000Y599100D03*
D120*
X561000Y607900D03*
D47*
X561000Y621500D03*
X561000Y650900D03*
X561000Y671700D03*
X561000Y683900D03*
D32*
X561000Y695300D03*
D47*
X561000Y706700D03*
X561000Y719500D03*
X561000Y735900D03*
X561000Y751900D03*
D52*
X561000Y770600D03*
X561000Y779400D03*
D121*
X561000Y819800D03*
D126*
X561200Y520800D03*
D47*
X561200Y566100D03*
D52*
X561200Y587000D03*
D47*
X561200Y599100D03*
D52*
X561200Y607800D03*
D47*
X561200Y621500D03*
X561200Y650900D03*
X561200Y671700D03*
X561200Y683900D03*
D32*
X561200Y695300D03*
D47*
X561200Y706700D03*
X561200Y719500D03*
X561200Y735900D03*
X561200Y751900D03*
D52*
X561200Y770600D03*
D120*
X561200Y779300D03*
D121*
X561200Y820000D03*
D127*
X561400Y520500D03*
D13*
X561400Y544400D03*
D47*
X561400Y566100D03*
D52*
X561400Y587000D03*
D47*
X561400Y599100D03*
D52*
X561400Y607800D03*
D47*
X561400Y621500D03*
X561400Y650900D03*
X561400Y671700D03*
X561400Y683900D03*
D32*
X561400Y695300D03*
D47*
X561400Y706700D03*
X561400Y719500D03*
X561400Y735900D03*
X561400Y751900D03*
D52*
X561400Y770600D03*
X561400Y779200D03*
D128*
X561400Y820100D03*
D13*
X561400Y843400D03*
D129*
X561600Y520600D03*
D47*
X561600Y566100D03*
D52*
X561600Y587000D03*
D130*
X561600Y605200D03*
D47*
X561600Y621500D03*
X561600Y650900D03*
X561600Y671700D03*
X561600Y683900D03*
D32*
X561600Y695300D03*
D47*
X561600Y706700D03*
X561600Y719500D03*
X561600Y735900D03*
X561600Y751900D03*
D131*
X561600Y776700D03*
D132*
X561600Y820300D03*
D133*
X561800Y520500D03*
D13*
X561800Y544600D03*
D47*
X561800Y566100D03*
D52*
X561800Y587000D03*
D130*
X561800Y605200D03*
D47*
X561800Y621500D03*
X561800Y650900D03*
X561800Y671700D03*
X561800Y683900D03*
D32*
X561800Y695300D03*
D47*
X561800Y706700D03*
X561800Y719500D03*
X561800Y735900D03*
X561800Y751900D03*
D131*
X561800Y776700D03*
D132*
X561800Y820300D03*
D134*
X562000Y520700D03*
D47*
X562000Y566100D03*
D52*
X562000Y587000D03*
D130*
X562000Y605200D03*
D47*
X562000Y621500D03*
X562000Y650900D03*
X562000Y671700D03*
X562000Y683900D03*
D32*
X562000Y695300D03*
D47*
X562000Y706700D03*
X562000Y719500D03*
X562000Y735900D03*
X562000Y751900D03*
D131*
X562000Y776700D03*
D126*
X562000Y820400D03*
D134*
X562200Y520500D03*
D13*
X562200Y544800D03*
D47*
X562200Y566100D03*
D52*
X562200Y587000D03*
D130*
X562200Y605200D03*
D47*
X562200Y621500D03*
X562200Y650900D03*
X562200Y671700D03*
X562200Y683900D03*
D32*
X562200Y695300D03*
D47*
X562200Y706700D03*
X562200Y719500D03*
X562200Y735900D03*
X562200Y751900D03*
D131*
X562200Y776700D03*
D127*
X562200Y820500D03*
D135*
X562400Y520500D03*
D47*
X562400Y566100D03*
D52*
X562400Y587000D03*
D130*
X562400Y605200D03*
D47*
X562400Y621500D03*
X562400Y650900D03*
X562400Y671700D03*
X562400Y683900D03*
D32*
X562400Y695300D03*
D47*
X562400Y706700D03*
X562400Y719500D03*
X562400Y735900D03*
X562400Y751900D03*
D131*
X562400Y776700D03*
D136*
X562400Y820600D03*
D137*
X562600Y520200D03*
D13*
X562600Y545000D03*
D47*
X562600Y566100D03*
D52*
X562600Y587000D03*
D130*
X562600Y605200D03*
D47*
X562600Y621500D03*
X562600Y650900D03*
X562600Y671700D03*
X562600Y683900D03*
D32*
X562600Y695300D03*
D47*
X562600Y706700D03*
X562600Y719500D03*
X562600Y735900D03*
X562600Y751900D03*
D131*
X562600Y776700D03*
D127*
X562600Y820700D03*
D138*
X562800Y520300D03*
D47*
X562800Y566100D03*
D52*
X562800Y587000D03*
D130*
X562800Y605200D03*
D47*
X562800Y621500D03*
X562800Y650900D03*
X562800Y671700D03*
X562800Y683900D03*
D32*
X562800Y695300D03*
D51*
X562800Y713100D03*
D47*
X562800Y735900D03*
X562800Y751900D03*
D131*
X562800Y776700D03*
D127*
X562800Y820700D03*
D139*
X563000Y520300D03*
D13*
X563000Y545200D03*
D47*
X563000Y566100D03*
D52*
X563000Y587000D03*
D130*
X563000Y605200D03*
D47*
X563000Y621500D03*
X563000Y650900D03*
X563000Y671700D03*
X563000Y683900D03*
D32*
X563000Y695300D03*
D51*
X563000Y713100D03*
D47*
X563000Y735900D03*
X563000Y751900D03*
D131*
X563000Y776700D03*
D136*
X563000Y820800D03*
D140*
X563200Y520400D03*
D47*
X563200Y566100D03*
D52*
X563200Y587000D03*
D130*
X563200Y605200D03*
D47*
X563200Y621500D03*
X563200Y650900D03*
X563200Y671700D03*
X563200Y683900D03*
D32*
X563200Y695300D03*
D51*
X563200Y713100D03*
D47*
X563200Y735900D03*
X563200Y751900D03*
D131*
X563200Y776700D03*
D133*
X563200Y820900D03*
D140*
X563400Y520200D03*
D13*
X563400Y545400D03*
D47*
X563400Y566100D03*
D52*
X563400Y587000D03*
D130*
X563400Y605200D03*
D47*
X563400Y621500D03*
X563400Y650900D03*
X563400Y671700D03*
X563400Y683900D03*
D32*
X563400Y695300D03*
D51*
X563400Y713100D03*
D47*
X563400Y735900D03*
X563400Y751900D03*
D131*
X563400Y776700D03*
D134*
X563400Y821100D03*
D141*
X563600Y520100D03*
D47*
X563600Y566100D03*
D52*
X563600Y587000D03*
D130*
X563600Y605200D03*
D47*
X563600Y621500D03*
X563600Y650900D03*
X563600Y671700D03*
X563600Y683900D03*
D32*
X563600Y695300D03*
D51*
X563600Y713100D03*
D47*
X563600Y735900D03*
X563600Y751900D03*
D131*
X563600Y776700D03*
D134*
X563600Y821100D03*
D142*
X563800Y520000D03*
D13*
X563800Y545600D03*
D143*
X563800Y570200D03*
D52*
X563800Y587000D03*
D130*
X563800Y605200D03*
D144*
X563800Y625800D03*
D145*
X563800Y654900D03*
D47*
X563800Y671700D03*
X563800Y683900D03*
D32*
X563800Y695300D03*
D51*
X563800Y713100D03*
D47*
X563800Y735900D03*
D144*
X563800Y756200D03*
D131*
X563800Y776700D03*
D146*
X563800Y821200D03*
D147*
X564000Y520100D03*
D13*
X564000Y545800D03*
D143*
X564000Y570200D03*
D52*
X564000Y587000D03*
D130*
X564000Y605200D03*
D144*
X564000Y625800D03*
D145*
X564000Y654900D03*
D47*
X564000Y671700D03*
X564000Y683900D03*
D32*
X564000Y695300D03*
D51*
X564000Y713100D03*
D47*
X564000Y735900D03*
D144*
X564000Y756200D03*
D131*
X564000Y776700D03*
D146*
X564000Y821400D03*
D148*
X564200Y520300D03*
D143*
X564200Y570200D03*
D52*
X564200Y587000D03*
D130*
X564200Y605200D03*
D144*
X564200Y625800D03*
D145*
X564200Y654900D03*
D47*
X564200Y671700D03*
X564200Y683900D03*
D32*
X564200Y695300D03*
D51*
X564200Y713100D03*
D47*
X564200Y735900D03*
D144*
X564200Y756200D03*
D131*
X564200Y776700D03*
D149*
X564200Y821300D03*
D150*
X564400Y520000D03*
D13*
X564400Y546000D03*
D143*
X564400Y570200D03*
D52*
X564400Y587000D03*
D130*
X564400Y605200D03*
D144*
X564400Y625800D03*
D145*
X564400Y654900D03*
D47*
X564400Y671700D03*
X564400Y683900D03*
D32*
X564400Y695300D03*
D51*
X564400Y713100D03*
D47*
X564400Y735900D03*
D144*
X564400Y756200D03*
D131*
X564400Y776700D03*
D151*
X564400Y821400D03*
D152*
X564600Y520000D03*
D13*
X564600Y546200D03*
D143*
X564600Y570200D03*
D52*
X564600Y587000D03*
D130*
X564600Y605200D03*
D144*
X564600Y625800D03*
D145*
X564600Y654900D03*
D47*
X564600Y671700D03*
X564600Y683900D03*
D32*
X564600Y695300D03*
D51*
X564600Y713100D03*
D47*
X564600Y735900D03*
D144*
X564600Y756200D03*
D131*
X564600Y776700D03*
D135*
X564600Y821500D03*
D153*
X564800Y520200D03*
D143*
X564800Y570200D03*
D52*
X564800Y587000D03*
D130*
X564800Y605200D03*
D144*
X564800Y625800D03*
D145*
X564800Y654900D03*
D47*
X564800Y671700D03*
X564800Y683900D03*
D32*
X564800Y695300D03*
D51*
X564800Y713100D03*
D47*
X564800Y735900D03*
D144*
X564800Y756200D03*
D131*
X564800Y776700D03*
D137*
X564800Y821600D03*
D153*
X565000Y520000D03*
D13*
X565000Y546400D03*
D143*
X565000Y570200D03*
D52*
X565000Y587000D03*
D130*
X565000Y605200D03*
D144*
X565000Y625800D03*
D145*
X565000Y654900D03*
D47*
X565000Y671700D03*
X565000Y683900D03*
D32*
X565000Y695300D03*
D51*
X565000Y713100D03*
D47*
X565000Y735900D03*
D144*
X565000Y756200D03*
D131*
X565000Y776700D03*
D139*
X565000Y821700D03*
D154*
X565200Y519900D03*
D13*
X565200Y546600D03*
D143*
X565200Y570200D03*
D52*
X565200Y587000D03*
D130*
X565200Y605200D03*
D144*
X565200Y625800D03*
D145*
X565200Y654900D03*
D47*
X565200Y671700D03*
X565200Y683900D03*
D32*
X565200Y695300D03*
D51*
X565200Y713100D03*
D47*
X565200Y735900D03*
D144*
X565200Y756200D03*
D131*
X565200Y776700D03*
D155*
X565200Y821800D03*
D156*
X565400Y520200D03*
D143*
X565400Y570200D03*
D52*
X565400Y587000D03*
D130*
X565400Y605200D03*
D144*
X565400Y625800D03*
D145*
X565400Y654900D03*
D47*
X565400Y671700D03*
X565400Y683900D03*
D32*
X565400Y695300D03*
D51*
X565400Y713100D03*
D47*
X565400Y735900D03*
D144*
X565400Y756200D03*
D131*
X565400Y776700D03*
D139*
X565400Y821900D03*
D156*
X565600Y520000D03*
D13*
X565600Y546800D03*
D143*
X565600Y570200D03*
D52*
X565600Y587000D03*
D130*
X565600Y605200D03*
D144*
X565600Y625800D03*
D145*
X565600Y654900D03*
D47*
X565600Y671700D03*
X565600Y683900D03*
D32*
X565600Y695300D03*
D51*
X565600Y713100D03*
D47*
X565600Y735900D03*
D144*
X565600Y756200D03*
D131*
X565600Y776700D03*
D138*
X565600Y822100D03*
D157*
X565800Y519900D03*
D13*
X565800Y547000D03*
D143*
X565800Y570200D03*
D52*
X565800Y587000D03*
D130*
X565800Y605200D03*
D144*
X565800Y625800D03*
D145*
X565800Y654900D03*
D47*
X565800Y671700D03*
X565800Y683900D03*
D32*
X565800Y695300D03*
D51*
X565800Y713100D03*
D47*
X565800Y735900D03*
D144*
X565800Y756200D03*
D131*
X565800Y776700D03*
D138*
X565800Y822100D03*
D158*
X566000Y520000D03*
D13*
X566000Y547200D03*
D143*
X566000Y570200D03*
D52*
X566000Y587000D03*
D130*
X566000Y605200D03*
D144*
X566000Y625800D03*
D145*
X566000Y654900D03*
D47*
X566000Y671700D03*
X566000Y683900D03*
D32*
X566000Y695300D03*
D51*
X566000Y713100D03*
D47*
X566000Y735900D03*
D144*
X566000Y756200D03*
D131*
X566000Y776700D03*
D140*
X566000Y822200D03*
D159*
X566200Y520100D03*
D143*
X566200Y570200D03*
D52*
X566200Y587000D03*
D130*
X566200Y605200D03*
D144*
X566200Y625800D03*
D145*
X566200Y654900D03*
D47*
X566200Y671700D03*
X566200Y683900D03*
D32*
X566200Y695300D03*
D51*
X566200Y713100D03*
D47*
X566200Y735900D03*
D144*
X566200Y756200D03*
D131*
X566200Y776700D03*
D160*
X566200Y822300D03*
D161*
X566400Y519800D03*
D13*
X566400Y547400D03*
D143*
X566400Y570200D03*
D52*
X566400Y587000D03*
D130*
X566400Y605200D03*
D144*
X566400Y625800D03*
D145*
X566400Y654900D03*
D47*
X566400Y671700D03*
X566400Y683900D03*
D32*
X566400Y695300D03*
D51*
X566400Y713100D03*
D47*
X566400Y735900D03*
D144*
X566400Y756200D03*
D131*
X566400Y776700D03*
D160*
X566400Y822300D03*
D161*
X566600Y520000D03*
D13*
X566600Y547600D03*
D143*
X566600Y570200D03*
D52*
X566600Y587000D03*
D130*
X566600Y605200D03*
D144*
X566600Y625800D03*
D145*
X566600Y654900D03*
D47*
X566600Y671700D03*
X566600Y683900D03*
D32*
X566600Y695300D03*
D51*
X566600Y713100D03*
D47*
X566600Y735900D03*
D144*
X566600Y756200D03*
D131*
X566600Y776700D03*
D160*
X566600Y822300D03*
D162*
X566800Y519900D03*
D13*
X566800Y547800D03*
D143*
X566800Y570200D03*
D52*
X566800Y587000D03*
D130*
X566800Y605200D03*
D144*
X566800Y625800D03*
D145*
X566800Y654900D03*
D47*
X566800Y671700D03*
X566800Y683900D03*
D51*
X566800Y713100D03*
D47*
X566800Y735900D03*
D144*
X566800Y756200D03*
D131*
X566800Y776700D03*
D163*
X566800Y822400D03*
D164*
X567000Y520100D03*
D143*
X567000Y570200D03*
D52*
X567000Y587000D03*
D130*
X567000Y605200D03*
D144*
X567000Y625800D03*
D145*
X567000Y654900D03*
D47*
X567000Y671700D03*
X567000Y683900D03*
D51*
X567000Y713100D03*
D47*
X567000Y735900D03*
D144*
X567000Y756200D03*
D131*
X567000Y776700D03*
D163*
X567000Y822400D03*
D165*
X567200Y520000D03*
D13*
X567200Y548000D03*
D143*
X567200Y570200D03*
D52*
X567200Y587000D03*
D130*
X567200Y605200D03*
D144*
X567200Y625800D03*
D145*
X567200Y654900D03*
D47*
X567200Y671700D03*
X567200Y683900D03*
D51*
X567200Y713100D03*
D47*
X567200Y735900D03*
D144*
X567200Y756200D03*
D131*
X567200Y776700D03*
D141*
X567200Y822500D03*
D166*
X567400Y519900D03*
D13*
X567400Y548200D03*
D143*
X567400Y570200D03*
D52*
X567400Y587000D03*
D130*
X567400Y605200D03*
D144*
X567400Y625800D03*
D145*
X567400Y654900D03*
D47*
X567400Y671700D03*
X567400Y683900D03*
D51*
X567400Y713100D03*
D47*
X567400Y735900D03*
D144*
X567400Y756200D03*
D131*
X567400Y776700D03*
D142*
X567400Y822600D03*
D166*
X567600Y520100D03*
D13*
X567600Y548400D03*
D143*
X567600Y570200D03*
D52*
X567600Y587000D03*
D47*
X567600Y599100D03*
X567600Y611300D03*
D144*
X567600Y625800D03*
D145*
X567600Y654900D03*
D47*
X567600Y671700D03*
X567600Y683900D03*
D51*
X567600Y713100D03*
D47*
X567600Y735900D03*
D144*
X567600Y756200D03*
D52*
X567600Y770600D03*
X567600Y782800D03*
D147*
X567600Y822700D03*
D167*
X567800Y520100D03*
D13*
X567800Y548600D03*
D143*
X567800Y570200D03*
D52*
X567800Y587000D03*
D47*
X567800Y599100D03*
X567800Y611300D03*
D144*
X567800Y625800D03*
D145*
X567800Y654900D03*
D47*
X567800Y671700D03*
X567800Y683900D03*
D51*
X567800Y713100D03*
D47*
X567800Y735900D03*
D144*
X567800Y756200D03*
D52*
X567800Y770600D03*
X567800Y782800D03*
D168*
X567800Y822800D03*
D169*
X568000Y520200D03*
D143*
X568000Y570200D03*
D52*
X568000Y587000D03*
D47*
X568000Y599100D03*
X568000Y611300D03*
D144*
X568000Y625800D03*
D145*
X568000Y654900D03*
D47*
X568000Y671700D03*
X568000Y683900D03*
D51*
X568000Y713100D03*
D47*
X568000Y735900D03*
D144*
X568000Y756200D03*
D52*
X568000Y770600D03*
X568000Y782800D03*
D168*
X568000Y822800D03*
D170*
X568200Y520200D03*
D143*
X568200Y570200D03*
D52*
X568200Y587000D03*
D47*
X568200Y599100D03*
X568200Y611300D03*
D144*
X568200Y625800D03*
D145*
X568200Y654900D03*
D47*
X568200Y671700D03*
X568200Y683900D03*
D51*
X568200Y713100D03*
D47*
X568200Y735900D03*
D144*
X568200Y756200D03*
D52*
X568200Y770600D03*
X568200Y782800D03*
D147*
X568200Y822900D03*
D170*
X568400Y520000D03*
D13*
X568400Y549000D03*
D143*
X568400Y570200D03*
D52*
X568400Y587000D03*
D47*
X568400Y599100D03*
X568400Y611300D03*
D144*
X568400Y625800D03*
D145*
X568400Y654900D03*
D47*
X568400Y671700D03*
X568400Y683900D03*
D51*
X568400Y713100D03*
D47*
X568400Y735900D03*
D144*
X568400Y756200D03*
D52*
X568400Y770600D03*
X568400Y782800D03*
D148*
X568400Y822900D03*
D171*
X568600Y520100D03*
D13*
X568600Y549200D03*
D143*
X568600Y570200D03*
D52*
X568600Y587000D03*
D47*
X568600Y599100D03*
X568600Y611300D03*
D144*
X568600Y625800D03*
D145*
X568600Y654900D03*
D47*
X568600Y671700D03*
X568600Y683900D03*
D51*
X568600Y713100D03*
D47*
X568600Y735900D03*
D144*
X568600Y756200D03*
D52*
X568600Y770600D03*
X568600Y782800D03*
D148*
X568600Y822900D03*
D172*
X568800Y520200D03*
D13*
X568800Y549400D03*
D143*
X568800Y570200D03*
D52*
X568800Y587000D03*
D47*
X568800Y599100D03*
X568800Y611300D03*
D144*
X568800Y625800D03*
D145*
X568800Y654900D03*
D47*
X568800Y671700D03*
X568800Y683900D03*
D51*
X568800Y713100D03*
D47*
X568800Y735900D03*
D144*
X568800Y756200D03*
D52*
X568800Y770600D03*
X568800Y782800D03*
D173*
X568800Y823100D03*
D174*
X569000Y520200D03*
D13*
X569000Y549600D03*
D143*
X569000Y570200D03*
D52*
X569000Y587000D03*
D47*
X569000Y599100D03*
X569000Y611300D03*
D144*
X569000Y625800D03*
D145*
X569000Y654900D03*
D47*
X569000Y671700D03*
X569000Y683900D03*
X569000Y706700D03*
X569000Y719500D03*
X569000Y735900D03*
D144*
X569000Y756200D03*
D52*
X569000Y770600D03*
X569000Y782800D03*
D173*
X569000Y823100D03*
D175*
X569200Y520300D03*
D13*
X569200Y549800D03*
D143*
X569200Y570200D03*
D52*
X569200Y587000D03*
D47*
X569200Y599100D03*
X569200Y611300D03*
D144*
X569200Y625800D03*
D145*
X569200Y654900D03*
D47*
X569200Y671700D03*
X569200Y683900D03*
X569200Y706700D03*
X569200Y719500D03*
X569200Y735900D03*
D144*
X569200Y756200D03*
D52*
X569200Y770600D03*
X569200Y782800D03*
D152*
X569200Y823200D03*
D176*
X569400Y520500D03*
D143*
X569400Y570200D03*
D52*
X569400Y587000D03*
D47*
X569400Y599100D03*
X569400Y611300D03*
D144*
X569400Y625800D03*
D145*
X569400Y654900D03*
D47*
X569400Y671700D03*
X569400Y683900D03*
X569400Y706700D03*
X569400Y719500D03*
X569400Y735900D03*
D144*
X569400Y756200D03*
D52*
X569400Y770600D03*
X569400Y782800D03*
D152*
X569400Y823200D03*
D177*
X569600Y520400D03*
D143*
X569600Y570200D03*
D52*
X569600Y587000D03*
D47*
X569600Y599100D03*
X569600Y611300D03*
D144*
X569600Y625800D03*
D145*
X569600Y654900D03*
D47*
X569600Y671700D03*
X569600Y683900D03*
X569600Y706700D03*
X569600Y719500D03*
X569600Y735900D03*
D144*
X569600Y756200D03*
D52*
X569600Y770600D03*
X569600Y782800D03*
D173*
X569600Y823300D03*
D178*
X569800Y520400D03*
D47*
X569800Y566100D03*
D52*
X569800Y587000D03*
D47*
X569800Y599100D03*
X569800Y611300D03*
D52*
X569800Y621400D03*
D47*
X569800Y650900D03*
X569800Y671700D03*
X569800Y683900D03*
X569800Y706700D03*
X569800Y719500D03*
X569800Y735900D03*
D52*
X569800Y751800D03*
X569800Y770600D03*
X569800Y782800D03*
D173*
X569800Y823300D03*
D179*
X570000Y520300D03*
D13*
X570000Y550400D03*
D47*
X570000Y566100D03*
D52*
X570000Y587000D03*
D47*
X570000Y599100D03*
X570000Y611300D03*
D52*
X570000Y621400D03*
D47*
X570000Y650900D03*
X570000Y671700D03*
X570000Y683900D03*
X570000Y706700D03*
X570000Y719500D03*
X570000Y735900D03*
D52*
X570000Y751800D03*
X570000Y770600D03*
X570000Y782800D03*
D173*
X570000Y823300D03*
D178*
X570200Y520400D03*
D13*
X570200Y550600D03*
D47*
X570200Y566100D03*
D52*
X570200Y587000D03*
D47*
X570200Y599100D03*
X570200Y611300D03*
D52*
X570200Y621400D03*
D47*
X570200Y650900D03*
X570200Y671700D03*
X570200Y683900D03*
X570200Y706700D03*
X570200Y719500D03*
X570200Y735900D03*
D52*
X570200Y751800D03*
X570200Y770600D03*
X570200Y782800D03*
D180*
X570200Y823500D03*
D181*
X570400Y520400D03*
D13*
X570400Y550800D03*
D47*
X570400Y566100D03*
D52*
X570400Y587000D03*
D47*
X570400Y599100D03*
X570400Y611300D03*
D52*
X570400Y621400D03*
D47*
X570400Y650900D03*
X570400Y671700D03*
X570400Y683900D03*
X570400Y706700D03*
X570400Y719500D03*
X570400Y735900D03*
D52*
X570400Y751800D03*
X570400Y770600D03*
X570400Y782800D03*
D180*
X570400Y823500D03*
D182*
X570600Y520500D03*
D13*
X570600Y551000D03*
D47*
X570600Y566100D03*
D52*
X570600Y587000D03*
D47*
X570600Y599100D03*
X570600Y611300D03*
D52*
X570600Y621400D03*
D47*
X570600Y650900D03*
X570600Y671700D03*
X570600Y683900D03*
X570600Y706700D03*
X570600Y719500D03*
X570600Y735900D03*
D52*
X570600Y751800D03*
X570600Y770600D03*
X570600Y782800D03*
D153*
X570600Y823600D03*
D183*
X570800Y520500D03*
D13*
X570800Y551200D03*
D47*
X570800Y566100D03*
D52*
X570800Y587000D03*
D47*
X570800Y599100D03*
X570800Y611300D03*
D52*
X570800Y621400D03*
D47*
X570800Y650900D03*
X570800Y671700D03*
X570800Y683900D03*
X570800Y706700D03*
X570800Y719500D03*
X570800Y735900D03*
D52*
X570800Y751800D03*
X570800Y770600D03*
X570800Y782800D03*
D153*
X570800Y823600D03*
D184*
X571000Y520600D03*
D13*
X571000Y551400D03*
D47*
X571000Y566100D03*
D52*
X571000Y587000D03*
D47*
X571000Y599100D03*
X571000Y611300D03*
D52*
X571000Y621400D03*
D47*
X571000Y650900D03*
X571000Y671700D03*
X571000Y683900D03*
X571000Y706700D03*
X571000Y719500D03*
X571000Y735900D03*
D52*
X571000Y751800D03*
X571000Y770600D03*
X571000Y782800D03*
D153*
X571000Y823800D03*
D185*
X571200Y520600D03*
D13*
X571200Y551600D03*
D47*
X571200Y566100D03*
D52*
X571200Y587000D03*
D47*
X571200Y599100D03*
X571200Y611300D03*
D52*
X571200Y621400D03*
D47*
X571200Y650900D03*
X571200Y671700D03*
X571200Y683900D03*
X571200Y706700D03*
X571200Y719500D03*
X571200Y735900D03*
D52*
X571200Y751800D03*
X571200Y770600D03*
X571200Y782800D03*
D153*
X571200Y823800D03*
D186*
X571400Y520600D03*
D13*
X571400Y551800D03*
D47*
X571400Y566100D03*
D52*
X571400Y587000D03*
D47*
X571400Y599100D03*
X571400Y611300D03*
D52*
X571400Y621400D03*
D47*
X571400Y650900D03*
X571400Y671700D03*
X571400Y683900D03*
X571400Y706700D03*
X571400Y719500D03*
X571400Y735900D03*
D52*
X571400Y751800D03*
X571400Y770600D03*
X571400Y782800D03*
D153*
X571400Y823800D03*
D187*
X571600Y520700D03*
D13*
X571600Y552000D03*
D47*
X571600Y566100D03*
D52*
X571600Y587000D03*
D47*
X571600Y599100D03*
X571600Y611300D03*
D52*
X571600Y621400D03*
D47*
X571600Y650900D03*
X571600Y671700D03*
X571600Y683900D03*
X571600Y706700D03*
X571600Y719500D03*
X571600Y735900D03*
D52*
X571600Y751800D03*
X571600Y770600D03*
X571600Y782800D03*
D188*
X571600Y823900D03*
D189*
X571800Y520800D03*
D13*
X571800Y552200D03*
D47*
X571800Y566100D03*
D52*
X571800Y587000D03*
D47*
X571800Y599100D03*
X571800Y611300D03*
D52*
X571800Y621400D03*
D47*
X571800Y650900D03*
X571800Y671700D03*
X571800Y683900D03*
X571800Y706700D03*
X571800Y719500D03*
X571800Y735900D03*
D52*
X571800Y751800D03*
X571800Y770600D03*
X571800Y782800D03*
D190*
X571800Y824000D03*
D191*
X572000Y520900D03*
D13*
X572000Y552400D03*
D47*
X572000Y566100D03*
D52*
X572000Y587000D03*
D47*
X572000Y599100D03*
X572000Y611300D03*
D52*
X572000Y621400D03*
D47*
X572000Y650900D03*
X572000Y671700D03*
X572000Y683900D03*
X572000Y706700D03*
X572000Y719500D03*
X572000Y735900D03*
D52*
X572000Y751800D03*
X572000Y770600D03*
X572000Y782800D03*
D190*
X572000Y824000D03*
D192*
X572200Y520900D03*
D13*
X572200Y552600D03*
D47*
X572200Y566100D03*
D52*
X572200Y587000D03*
D47*
X572200Y599100D03*
X572200Y611300D03*
D52*
X572200Y621400D03*
D47*
X572200Y650900D03*
X572200Y671700D03*
X572200Y683900D03*
X572200Y706700D03*
X572200Y719500D03*
X572200Y735900D03*
D52*
X572200Y751800D03*
X572200Y770600D03*
X572200Y782800D03*
D190*
X572200Y824000D03*
D193*
X572400Y521000D03*
D13*
X572400Y552800D03*
D47*
X572400Y566100D03*
D52*
X572400Y587000D03*
D47*
X572400Y599100D03*
X572400Y611300D03*
D52*
X572400Y621400D03*
D47*
X572400Y650900D03*
X572400Y671700D03*
X572400Y683900D03*
X572400Y706700D03*
X572400Y719500D03*
X572400Y735900D03*
D52*
X572400Y751800D03*
X572400Y770600D03*
X572400Y782800D03*
D190*
X572400Y824000D03*
D194*
X572600Y521000D03*
D13*
X572600Y553000D03*
D47*
X572600Y566100D03*
D52*
X572600Y587000D03*
D47*
X572600Y599100D03*
X572600Y611300D03*
D52*
X572600Y621400D03*
D47*
X572600Y650900D03*
X572600Y671700D03*
X572600Y683900D03*
X572600Y706700D03*
X572600Y719500D03*
X572600Y735900D03*
D52*
X572600Y751800D03*
X572600Y770600D03*
X572600Y782800D03*
D154*
X572600Y824100D03*
D195*
X572800Y521000D03*
D13*
X572800Y553200D03*
D47*
X572800Y566100D03*
D52*
X572800Y587000D03*
D47*
X572800Y599100D03*
X572800Y611300D03*
D52*
X572800Y621400D03*
D47*
X572800Y650900D03*
X572800Y671700D03*
X572800Y683900D03*
X572800Y706700D03*
X572800Y719500D03*
X572800Y735900D03*
D52*
X572800Y751800D03*
X572800Y770600D03*
X572800Y782800D03*
D156*
X572800Y824200D03*
D196*
X573000Y521100D03*
D13*
X573000Y553400D03*
D47*
X573000Y566100D03*
D52*
X573000Y587000D03*
D47*
X573000Y599100D03*
X573000Y611300D03*
D52*
X573000Y621400D03*
D47*
X573000Y650900D03*
X573000Y671700D03*
X573000Y683900D03*
X573000Y706700D03*
X573000Y719500D03*
X573000Y735900D03*
D52*
X573000Y751800D03*
X573000Y770600D03*
X573000Y782800D03*
D156*
X573000Y824200D03*
D197*
X573200Y521200D03*
D13*
X573200Y553600D03*
D47*
X573200Y566100D03*
D52*
X573200Y587000D03*
D47*
X573200Y599100D03*
X573200Y611300D03*
D52*
X573200Y621400D03*
D47*
X573200Y650900D03*
X573200Y671700D03*
X573200Y683900D03*
X573200Y706700D03*
X573200Y719500D03*
X573200Y735900D03*
D52*
X573200Y751800D03*
X573200Y770600D03*
X573200Y782800D03*
D156*
X573200Y824200D03*
D198*
X573400Y521300D03*
D13*
X573400Y553800D03*
D47*
X573400Y566100D03*
D52*
X573400Y587000D03*
D47*
X573400Y599100D03*
X573400Y611300D03*
D52*
X573400Y621400D03*
D47*
X573400Y650900D03*
X573400Y671700D03*
X573400Y683900D03*
X573400Y706700D03*
X573400Y719500D03*
X573400Y735900D03*
D52*
X573400Y751800D03*
X573400Y770600D03*
X573400Y782800D03*
D154*
X573400Y824300D03*
D199*
X573600Y521400D03*
D13*
X573600Y554000D03*
D47*
X573600Y566100D03*
D52*
X573600Y587000D03*
D47*
X573600Y599100D03*
X573600Y611300D03*
D52*
X573600Y621400D03*
D47*
X573600Y650900D03*
X573600Y671700D03*
X573600Y683900D03*
X573600Y706700D03*
X573600Y719500D03*
X573600Y735900D03*
D52*
X573600Y751800D03*
X573600Y770600D03*
X573600Y782800D03*
D154*
X573600Y824300D03*
D200*
X573800Y521400D03*
D13*
X573800Y554200D03*
D47*
X573800Y566100D03*
D52*
X573800Y587000D03*
D47*
X573800Y599100D03*
X573800Y611300D03*
D52*
X573800Y621400D03*
D47*
X573800Y650900D03*
X573800Y671700D03*
X573800Y683900D03*
X573800Y706700D03*
X573800Y719500D03*
X573800Y735900D03*
D52*
X573800Y751800D03*
X573800Y770600D03*
X573800Y782800D03*
D190*
X573800Y824400D03*
D201*
X574000Y521400D03*
D13*
X574000Y554400D03*
D47*
X574000Y566100D03*
D52*
X574000Y587000D03*
D47*
X574000Y599100D03*
X574000Y611300D03*
D52*
X574000Y621400D03*
D47*
X574000Y650900D03*
X574000Y671700D03*
X574000Y683900D03*
X574000Y706700D03*
X574000Y719500D03*
X574000Y735900D03*
D52*
X574000Y751800D03*
X574000Y770600D03*
X574000Y782800D03*
D154*
X574000Y824500D03*
D202*
X574200Y521500D03*
D13*
X574200Y554600D03*
D47*
X574200Y566100D03*
D52*
X574200Y587000D03*
D47*
X574200Y599100D03*
X574200Y611300D03*
D52*
X574200Y621400D03*
D47*
X574200Y650900D03*
X574200Y671700D03*
X574200Y683900D03*
X574200Y706700D03*
X574200Y719500D03*
X574200Y735900D03*
D52*
X574200Y751800D03*
X574200Y770600D03*
X574200Y782800D03*
D156*
X574200Y824600D03*
D203*
X574400Y521600D03*
D13*
X574400Y554800D03*
D47*
X574400Y566100D03*
D52*
X574400Y587000D03*
D47*
X574400Y599100D03*
X574400Y611300D03*
D52*
X574400Y621400D03*
D47*
X574400Y650900D03*
X574400Y671700D03*
X574400Y683900D03*
X574400Y706700D03*
X574400Y719500D03*
X574400Y735900D03*
D52*
X574400Y751800D03*
X574400Y770600D03*
X574400Y782800D03*
D204*
X574400Y824500D03*
D205*
X574600Y521700D03*
D13*
X574600Y555000D03*
D47*
X574600Y566100D03*
D52*
X574600Y587000D03*
D47*
X574600Y599100D03*
X574600Y611300D03*
D52*
X574600Y621400D03*
D47*
X574600Y650900D03*
X574600Y671700D03*
X574600Y683900D03*
X574600Y706700D03*
X574600Y719500D03*
X574600Y735900D03*
D52*
X574600Y751800D03*
X574600Y770600D03*
X574600Y782800D03*
D204*
X574600Y824500D03*
D206*
X574800Y521800D03*
D13*
X574800Y555200D03*
D47*
X574800Y566100D03*
D52*
X574800Y587000D03*
D47*
X574800Y599100D03*
X574800Y611300D03*
D52*
X574800Y621400D03*
D47*
X574800Y650900D03*
X574800Y671700D03*
X574800Y683900D03*
X574800Y706700D03*
X574800Y719500D03*
X574800Y735900D03*
D52*
X574800Y751800D03*
X574800Y770600D03*
X574800Y782800D03*
D207*
X574800Y824600D03*
D208*
X575000Y521800D03*
D13*
X575000Y555400D03*
D47*
X575000Y566100D03*
D52*
X575000Y587000D03*
D47*
X575000Y599100D03*
X575000Y611300D03*
D52*
X575000Y621400D03*
D47*
X575000Y650900D03*
X575000Y671700D03*
X575000Y683900D03*
X575000Y706700D03*
X575000Y719500D03*
X575000Y735900D03*
D52*
X575000Y751800D03*
X575000Y770600D03*
X575000Y782800D03*
D207*
X575000Y824600D03*
D209*
X575200Y521900D03*
D13*
X575200Y555600D03*
D47*
X575200Y566100D03*
D52*
X575200Y587000D03*
D47*
X575200Y599100D03*
X575200Y611300D03*
D52*
X575200Y621400D03*
D47*
X575200Y650900D03*
X575200Y671700D03*
X575200Y683900D03*
X575200Y706700D03*
X575200Y719500D03*
X575200Y735900D03*
D52*
X575200Y751800D03*
X575200Y770600D03*
X575200Y782800D03*
D204*
X575200Y824700D03*
D210*
X575400Y521900D03*
D13*
X575400Y555800D03*
D47*
X575400Y566100D03*
D52*
X575400Y587000D03*
D47*
X575400Y599100D03*
X575400Y611300D03*
D52*
X575400Y621400D03*
D47*
X575400Y650900D03*
X575400Y671700D03*
X575400Y683900D03*
X575400Y706700D03*
X575400Y719500D03*
X575400Y735900D03*
D52*
X575400Y751800D03*
X575400Y770600D03*
X575400Y782800D03*
D204*
X575400Y824700D03*
D211*
X575600Y522000D03*
D13*
X575600Y556000D03*
D47*
X575600Y566100D03*
D52*
X575600Y587000D03*
D47*
X575600Y599100D03*
X575600Y611300D03*
D52*
X575600Y621400D03*
D47*
X575600Y650900D03*
X575600Y671700D03*
X575600Y683900D03*
X575600Y706700D03*
X575600Y719500D03*
X575600Y735900D03*
D52*
X575600Y751800D03*
X575600Y770600D03*
X575600Y782800D03*
D207*
X575600Y824800D03*
D212*
X575800Y522100D03*
D13*
X575800Y556200D03*
D47*
X575800Y566100D03*
D52*
X575800Y587000D03*
D47*
X575800Y599100D03*
X575800Y611300D03*
D52*
X575800Y621400D03*
D47*
X575800Y650900D03*
X575800Y671700D03*
X575800Y683900D03*
X575800Y706700D03*
X575800Y719500D03*
X575800Y735900D03*
D52*
X575800Y751800D03*
X575800Y770600D03*
X575800Y782800D03*
D207*
X575800Y824800D03*
D213*
X576000Y522200D03*
D13*
X576000Y556400D03*
D47*
X576000Y566100D03*
D52*
X576000Y587000D03*
D47*
X576000Y599100D03*
X576000Y611300D03*
D52*
X576000Y621400D03*
D47*
X576000Y650900D03*
X576000Y671700D03*
X576000Y683900D03*
X576000Y706700D03*
X576000Y719500D03*
X576000Y735900D03*
D52*
X576000Y751800D03*
X576000Y770600D03*
X576000Y782800D03*
D207*
X576000Y824800D03*
D214*
X576200Y522300D03*
D13*
X576200Y556600D03*
D47*
X576200Y566100D03*
D52*
X576200Y587000D03*
D47*
X576200Y599100D03*
X576200Y611300D03*
D52*
X576200Y621400D03*
D47*
X576200Y650900D03*
X576200Y671700D03*
X576200Y683900D03*
X576200Y706700D03*
X576200Y719500D03*
X576200Y735900D03*
D52*
X576200Y751800D03*
X576200Y770600D03*
X576200Y782800D03*
D157*
X576200Y824900D03*
D215*
X576400Y522300D03*
D13*
X576400Y556800D03*
D216*
X576400Y570500D03*
D48*
X576400Y587000D03*
D130*
X576400Y605200D03*
D217*
X576400Y626000D03*
D216*
X576400Y655300D03*
D50*
X576400Y671700D03*
D218*
X576400Y689700D03*
D47*
X576400Y706700D03*
X576400Y719500D03*
D37*
X576400Y735800D03*
D217*
X576400Y756400D03*
D131*
X576400Y776700D03*
D157*
X576400Y824900D03*
D219*
X576600Y522400D03*
D13*
X576600Y557000D03*
D216*
X576600Y570500D03*
D48*
X576600Y587000D03*
D130*
X576600Y605200D03*
D217*
X576600Y626000D03*
D216*
X576600Y655300D03*
D50*
X576600Y671700D03*
D218*
X576600Y689700D03*
D47*
X576600Y706700D03*
X576600Y719500D03*
D37*
X576600Y735800D03*
D217*
X576600Y756400D03*
D131*
X576600Y776700D03*
D207*
X576600Y825000D03*
D220*
X576800Y522500D03*
D13*
X576800Y557200D03*
D216*
X576800Y570500D03*
D48*
X576800Y587000D03*
D130*
X576800Y605200D03*
D217*
X576800Y626000D03*
D216*
X576800Y655300D03*
D50*
X576800Y671700D03*
D218*
X576800Y689700D03*
D47*
X576800Y706700D03*
X576800Y719500D03*
D37*
X576800Y735800D03*
D217*
X576800Y756400D03*
D131*
X576800Y776700D03*
D207*
X576800Y825000D03*
D221*
X577000Y522600D03*
D13*
X577000Y557400D03*
D216*
X577000Y570500D03*
D48*
X577000Y587000D03*
D130*
X577000Y605200D03*
D217*
X577000Y626000D03*
D216*
X577000Y655300D03*
D50*
X577000Y671700D03*
D218*
X577000Y689700D03*
D47*
X577000Y706700D03*
X577000Y719500D03*
D37*
X577000Y735800D03*
D217*
X577000Y756400D03*
D131*
X577000Y776700D03*
D157*
X577000Y825100D03*
D222*
X577200Y522600D03*
D13*
X577200Y557600D03*
D216*
X577200Y570500D03*
D48*
X577200Y587000D03*
D130*
X577200Y605200D03*
D217*
X577200Y626000D03*
D216*
X577200Y655300D03*
D50*
X577200Y671700D03*
D218*
X577200Y689700D03*
D47*
X577200Y706700D03*
X577200Y719500D03*
D37*
X577200Y735800D03*
D217*
X577200Y756400D03*
D131*
X577200Y776700D03*
D157*
X577200Y825100D03*
D223*
X577400Y522700D03*
D13*
X577400Y557800D03*
D216*
X577400Y570500D03*
D48*
X577400Y587000D03*
D130*
X577400Y605200D03*
D217*
X577400Y626000D03*
D216*
X577400Y655300D03*
D50*
X577400Y671700D03*
D218*
X577400Y689700D03*
D47*
X577400Y706700D03*
X577400Y719500D03*
D37*
X577400Y735800D03*
D217*
X577400Y756400D03*
D131*
X577400Y776700D03*
D157*
X577400Y825100D03*
D224*
X577600Y522800D03*
D13*
X577600Y558000D03*
D216*
X577600Y570500D03*
D48*
X577600Y587000D03*
D130*
X577600Y605200D03*
D217*
X577600Y626000D03*
D216*
X577600Y655300D03*
D50*
X577600Y671700D03*
D218*
X577600Y689700D03*
D47*
X577600Y706700D03*
X577600Y719500D03*
D37*
X577600Y735800D03*
D217*
X577600Y756400D03*
D131*
X577600Y776700D03*
D157*
X577600Y825100D03*
D225*
X577800Y522900D03*
D13*
X577800Y558200D03*
D216*
X577800Y570500D03*
D48*
X577800Y587000D03*
D131*
X577800Y605300D03*
D217*
X577800Y626000D03*
D216*
X577800Y655300D03*
D50*
X577800Y671700D03*
D218*
X577800Y689700D03*
D47*
X577800Y706700D03*
X577800Y719500D03*
D37*
X577800Y735800D03*
D217*
X577800Y756400D03*
D131*
X577800Y776700D03*
D157*
X577800Y825100D03*
D226*
X578000Y523000D03*
D13*
X578000Y558400D03*
D144*
X578000Y570600D03*
D48*
X578000Y587000D03*
D227*
X578000Y605400D03*
D217*
X578000Y626000D03*
D144*
X578000Y655400D03*
D50*
X578000Y671700D03*
D218*
X578000Y689700D03*
D47*
X578000Y706700D03*
X578000Y719500D03*
D37*
X578000Y735800D03*
D217*
X578000Y756400D03*
D227*
X578000Y776800D03*
D207*
X578000Y825200D03*
D228*
X578200Y523100D03*
D13*
X578200Y558600D03*
D229*
X578200Y570700D03*
D48*
X578200Y587000D03*
D218*
X578200Y605500D03*
D217*
X578200Y626000D03*
D229*
X578200Y655500D03*
D50*
X578200Y671700D03*
D218*
X578200Y689700D03*
D47*
X578200Y706700D03*
X578200Y719500D03*
D37*
X578200Y735800D03*
D217*
X578200Y756400D03*
D218*
X578200Y776900D03*
D207*
X578200Y825200D03*
D230*
X578400Y523200D03*
D13*
X578400Y558800D03*
D143*
X578400Y570800D03*
D48*
X578400Y587000D03*
D231*
X578400Y605600D03*
D217*
X578400Y626000D03*
D143*
X578400Y655600D03*
D50*
X578400Y671700D03*
D218*
X578400Y689700D03*
D47*
X578400Y706700D03*
X578400Y719500D03*
D37*
X578400Y735800D03*
D217*
X578400Y756400D03*
D231*
X578400Y777000D03*
D157*
X578400Y825300D03*
D232*
X578600Y523200D03*
D13*
X578600Y559000D03*
D145*
X578600Y570900D03*
D48*
X578600Y587000D03*
D233*
X578600Y605700D03*
D217*
X578600Y626000D03*
D145*
X578600Y655700D03*
D50*
X578600Y671700D03*
D218*
X578600Y689700D03*
D47*
X578600Y706700D03*
X578600Y719500D03*
D37*
X578600Y735800D03*
D217*
X578600Y756400D03*
D233*
X578600Y777100D03*
D157*
X578600Y825300D03*
D234*
X578800Y523300D03*
D13*
X578800Y559200D03*
D235*
X578800Y571000D03*
D48*
X578800Y587000D03*
D236*
X578800Y605800D03*
D217*
X578800Y626000D03*
D235*
X578800Y655800D03*
D50*
X578800Y671700D03*
D218*
X578800Y689700D03*
D47*
X578800Y706700D03*
X578800Y719500D03*
D37*
X578800Y735800D03*
D217*
X578800Y756400D03*
D236*
X578800Y777200D03*
D207*
X578800Y825400D03*
D237*
X579000Y523400D03*
D13*
X579000Y559400D03*
D34*
X579000Y571100D03*
D48*
X579000Y587000D03*
D238*
X579000Y605900D03*
D217*
X579000Y626000D03*
D34*
X579000Y655900D03*
D50*
X579000Y671700D03*
D218*
X579000Y689700D03*
D47*
X579000Y706700D03*
X579000Y719500D03*
D37*
X579000Y735800D03*
D217*
X579000Y756400D03*
D238*
X579000Y777300D03*
D207*
X579000Y825400D03*
D239*
X579200Y523700D03*
D240*
X579200Y571200D03*
D48*
X579200Y587000D03*
D241*
X579200Y606000D03*
D217*
X579200Y626000D03*
D240*
X579200Y656000D03*
D50*
X579200Y671700D03*
D218*
X579200Y689700D03*
D47*
X579200Y706700D03*
X579200Y719500D03*
D37*
X579200Y735800D03*
D217*
X579200Y756400D03*
D241*
X579200Y777400D03*
D157*
X579200Y825500D03*
D242*
X579400Y523800D03*
D243*
X579400Y571300D03*
D48*
X579400Y587000D03*
D244*
X579400Y606100D03*
D217*
X579400Y626000D03*
D243*
X579400Y656100D03*
D50*
X579400Y671700D03*
D218*
X579400Y689700D03*
D47*
X579400Y706700D03*
X579400Y719500D03*
D37*
X579400Y735800D03*
D217*
X579400Y756400D03*
D244*
X579400Y777500D03*
D207*
X579400Y825400D03*
D245*
X579600Y523900D03*
D16*
X579600Y571400D03*
D48*
X579600Y587000D03*
D246*
X579600Y606200D03*
D217*
X579600Y626000D03*
D16*
X579600Y656200D03*
D50*
X579600Y671700D03*
D218*
X579600Y689700D03*
D47*
X579600Y706700D03*
X579600Y719500D03*
D37*
X579600Y735800D03*
D217*
X579600Y756400D03*
D247*
X579600Y777700D03*
D207*
X579600Y825400D03*
D245*
X579800Y523900D03*
D248*
X579800Y571500D03*
D48*
X579800Y587000D03*
D247*
X579800Y606300D03*
D217*
X579800Y626000D03*
D248*
X579800Y656300D03*
D50*
X579800Y671700D03*
D218*
X579800Y689700D03*
D47*
X579800Y706700D03*
X579800Y719500D03*
D37*
X579800Y735800D03*
D217*
X579800Y756400D03*
D249*
X579800Y777800D03*
D236*
X579800Y807600D03*
D66*
X579800Y834600D03*
D250*
X580000Y523900D03*
D251*
X580000Y571600D03*
D48*
X580000Y587000D03*
D249*
X580000Y606400D03*
D217*
X580000Y626000D03*
D251*
X580000Y656400D03*
D50*
X580000Y671700D03*
D218*
X580000Y689700D03*
D47*
X580000Y706700D03*
X580000Y719500D03*
D37*
X580000Y735800D03*
D217*
X580000Y756400D03*
D17*
X580000Y777900D03*
D238*
X580000Y807500D03*
D13*
X580000Y817800D03*
D87*
X580000Y835200D03*
D252*
X580200Y524000D03*
D253*
X580200Y571700D03*
D48*
X580200Y587000D03*
D254*
X580200Y606600D03*
D217*
X580200Y626000D03*
D253*
X580200Y656500D03*
D50*
X580200Y671700D03*
D218*
X580200Y689700D03*
D47*
X580200Y706700D03*
X580200Y719500D03*
D37*
X580200Y735800D03*
D217*
X580200Y756400D03*
D254*
X580200Y778000D03*
D17*
X580200Y807100D03*
D85*
X580200Y835400D03*
D255*
X580400Y524000D03*
D256*
X580400Y571800D03*
D48*
X580400Y587000D03*
D49*
X580400Y606700D03*
D217*
X580400Y626000D03*
D256*
X580400Y656600D03*
D50*
X580400Y671700D03*
D218*
X580400Y689700D03*
D47*
X580400Y706700D03*
X580400Y719500D03*
D37*
X580400Y735800D03*
D217*
X580400Y756400D03*
D49*
X580400Y778100D03*
D254*
X580400Y807000D03*
D85*
X580400Y835400D03*
D255*
X580600Y524200D03*
D257*
X580600Y571900D03*
D48*
X580600Y587000D03*
D217*
X580600Y606800D03*
X580600Y626000D03*
D257*
X580600Y656700D03*
D50*
X580600Y671700D03*
D218*
X580600Y689700D03*
D47*
X580600Y706700D03*
X580600Y719500D03*
D37*
X580600Y735800D03*
D217*
X580600Y756400D03*
X580600Y778200D03*
D254*
X580600Y807000D03*
D85*
X580600Y835400D03*
D258*
X580800Y524100D03*
D13*
X580800Y561000D03*
D259*
X580800Y572000D03*
D48*
X580800Y587000D03*
D216*
X580800Y606900D03*
D217*
X580800Y626000D03*
D259*
X580800Y656800D03*
D50*
X580800Y671700D03*
D218*
X580800Y689700D03*
D47*
X580800Y706700D03*
X580800Y719500D03*
D37*
X580800Y735800D03*
D217*
X580800Y756400D03*
D216*
X580800Y778300D03*
D49*
X580800Y807100D03*
D83*
X580800Y835600D03*
D255*
X581000Y524200D03*
D13*
X581000Y561200D03*
D260*
X581000Y572100D03*
D48*
X581000Y587000D03*
D144*
X581000Y607000D03*
D217*
X581000Y626000D03*
D260*
X581000Y656900D03*
D50*
X581000Y671700D03*
D218*
X581000Y689700D03*
D47*
X581000Y706700D03*
X581000Y719500D03*
D37*
X581000Y735800D03*
D217*
X581000Y756400D03*
D144*
X581000Y778400D03*
D49*
X581000Y807100D03*
D43*
X581000Y835900D03*
D261*
X581200Y524300D03*
D13*
X581200Y561400D03*
D262*
X581200Y572200D03*
D48*
X581200Y587000D03*
D229*
X581200Y607100D03*
D217*
X581200Y626000D03*
D262*
X581200Y657000D03*
D50*
X581200Y671700D03*
D218*
X581200Y689700D03*
D47*
X581200Y706700D03*
X581200Y719500D03*
D37*
X581200Y735800D03*
D217*
X581200Y756400D03*
D229*
X581200Y778500D03*
D217*
X581200Y807000D03*
D42*
X581200Y836000D03*
D263*
X581400Y524400D03*
D13*
X581400Y561600D03*
D264*
X581400Y572300D03*
D48*
X581400Y587000D03*
D143*
X581400Y607200D03*
D217*
X581400Y626000D03*
D264*
X581400Y657100D03*
D50*
X581400Y671700D03*
D218*
X581400Y689700D03*
D47*
X581400Y706700D03*
X581400Y719500D03*
D37*
X581400Y735800D03*
D217*
X581400Y756400D03*
D143*
X581400Y778600D03*
D216*
X581400Y806900D03*
D43*
X581400Y836100D03*
D265*
X581600Y524500D03*
D13*
X581600Y561800D03*
D266*
X581600Y572400D03*
D48*
X581600Y587000D03*
D145*
X581600Y607300D03*
D217*
X581600Y626000D03*
D266*
X581600Y657200D03*
D50*
X581600Y671700D03*
D218*
X581600Y689700D03*
D47*
X581600Y706700D03*
X581600Y719500D03*
D37*
X581600Y735800D03*
D217*
X581600Y756400D03*
D145*
X581600Y778700D03*
D144*
X581600Y806800D03*
D40*
X581600Y836200D03*
D267*
X581800Y524500D03*
D13*
X581800Y562000D03*
D268*
X581800Y572500D03*
D48*
X581800Y587000D03*
D235*
X581800Y607400D03*
D217*
X581800Y626000D03*
D268*
X581800Y657300D03*
D50*
X581800Y671700D03*
D218*
X581800Y689700D03*
D47*
X581800Y706700D03*
X581800Y719500D03*
D37*
X581800Y735800D03*
D217*
X581800Y756400D03*
D235*
X581800Y778800D03*
D145*
X581800Y806500D03*
D38*
X581800Y836300D03*
D269*
X582000Y524600D03*
D13*
X582000Y562200D03*
D48*
X582000Y572600D03*
X582000Y587000D03*
D34*
X582000Y607500D03*
D217*
X582000Y626000D03*
D48*
X582000Y657400D03*
D50*
X582000Y671700D03*
D218*
X582000Y689700D03*
D47*
X582000Y706700D03*
X582000Y719500D03*
D37*
X582000Y735800D03*
D217*
X582000Y756400D03*
D34*
X582000Y778900D03*
D235*
X582000Y806600D03*
D36*
X582000Y836400D03*
D270*
X582200Y524700D03*
D13*
X582200Y562400D03*
D50*
X582200Y572700D03*
D48*
X582200Y587000D03*
D240*
X582200Y607600D03*
D217*
X582200Y626000D03*
D50*
X582200Y657500D03*
X582200Y671700D03*
D218*
X582200Y689700D03*
D47*
X582200Y706700D03*
X582200Y719500D03*
D37*
X582200Y735800D03*
D217*
X582200Y756400D03*
D243*
X582200Y779100D03*
D240*
X582200Y806600D03*
D271*
X582200Y836500D03*
D272*
X582400Y524800D03*
D13*
X582400Y562600D03*
D240*
X582400Y806600D03*
D271*
X582400Y836500D03*
D273*
X582600Y524900D03*
D13*
X582600Y562800D03*
D240*
X582600Y806600D03*
D271*
X582600Y836700D03*
D274*
X582800Y525000D03*
D13*
X582800Y563000D03*
D243*
X582800Y806500D03*
D271*
X582800Y836700D03*
D275*
X583000Y525100D03*
D13*
X583000Y563200D03*
D16*
X583000Y806400D03*
D276*
X583000Y836800D03*
D277*
X583200Y525200D03*
D13*
X583200Y563400D03*
D16*
X583200Y806400D03*
D276*
X583200Y836800D03*
D278*
X583400Y525300D03*
D13*
X583400Y563600D03*
D251*
X583400Y806400D03*
D279*
X583400Y836900D03*
D280*
X583600Y525400D03*
D13*
X583600Y563800D03*
D253*
X583600Y806500D03*
D279*
X583600Y836900D03*
D281*
X583800Y525500D03*
D13*
X583800Y564000D03*
D253*
X583800Y806500D03*
D35*
X583800Y837000D03*
D282*
X584000Y525600D03*
D13*
X584000Y564200D03*
D253*
X584000Y806500D03*
D279*
X584000Y837100D03*
D283*
X584200Y525800D03*
D253*
X584200Y806500D03*
D279*
X584200Y837100D03*
D284*
X584400Y525900D03*
D257*
X584400Y806500D03*
D35*
X584400Y837200D03*
D284*
X584600Y525700D03*
D13*
X584600Y564600D03*
D257*
X584600Y806500D03*
D33*
X584600Y837100D03*
D285*
X584800Y525800D03*
D13*
X584800Y564800D03*
D257*
X584800Y806500D03*
D286*
X584800Y837200D03*
D287*
X585000Y525900D03*
D13*
X585000Y565000D03*
D260*
X585000Y806500D03*
D288*
X585000Y837300D03*
D289*
X585200Y526000D03*
D13*
X585200Y565200D03*
D260*
X585200Y806500D03*
D286*
X585200Y837400D03*
D290*
X585400Y526100D03*
D13*
X585400Y565400D03*
D260*
X585400Y806500D03*
D286*
X585400Y837400D03*
D291*
X585600Y526200D03*
D13*
X585600Y565600D03*
D262*
X585600Y806600D03*
D286*
X585600Y837400D03*
D292*
X585800Y526300D03*
D13*
X585800Y565800D03*
D262*
X585800Y806600D03*
D286*
X585800Y837400D03*
D293*
X586000Y526400D03*
D13*
X586000Y566000D03*
D262*
X586000Y806600D03*
D286*
X586000Y837400D03*
D294*
X586200Y526500D03*
D13*
X586200Y566200D03*
D47*
X586200Y680900D03*
D254*
X586200Y701600D03*
D47*
X586200Y715700D03*
X586200Y728500D03*
D295*
X586200Y738200D03*
D68*
X586200Y747500D03*
D295*
X586200Y756800D03*
D47*
X586200Y782900D03*
D262*
X586200Y806600D03*
D30*
X586200Y837600D03*
D296*
X586400Y526600D03*
D13*
X586400Y566400D03*
D47*
X586400Y680900D03*
D254*
X586400Y701600D03*
D47*
X586400Y715700D03*
X586400Y728500D03*
D295*
X586400Y738200D03*
D68*
X586400Y747500D03*
D295*
X586400Y756800D03*
D47*
X586400Y782900D03*
D266*
X586400Y806800D03*
D30*
X586400Y837600D03*
D297*
X586600Y526800D03*
D47*
X586600Y680900D03*
D254*
X586600Y701600D03*
D47*
X586600Y715700D03*
X586600Y728500D03*
D295*
X586600Y738200D03*
D298*
X586600Y747600D03*
D295*
X586600Y756800D03*
D47*
X586600Y782900D03*
D268*
X586600Y806700D03*
D30*
X586600Y837600D03*
D299*
X586800Y526700D03*
D13*
X586800Y566600D03*
D47*
X586800Y680900D03*
D254*
X586800Y701600D03*
D47*
X586800Y715700D03*
X586800Y728500D03*
D295*
X586800Y738200D03*
D298*
X586800Y747600D03*
D295*
X586800Y756800D03*
D47*
X586800Y782900D03*
D266*
X586800Y806800D03*
D30*
X586800Y837800D03*
D297*
X587000Y526800D03*
D13*
X587000Y566800D03*
D47*
X587000Y680900D03*
D254*
X587000Y701600D03*
D47*
X587000Y715700D03*
X587000Y728500D03*
D295*
X587000Y738200D03*
D300*
X587000Y747500D03*
D295*
X587000Y756800D03*
D47*
X587000Y782900D03*
D268*
X587000Y806900D03*
D30*
X587000Y837800D03*
D301*
X587200Y526900D03*
D13*
X587200Y567000D03*
D47*
X587200Y680900D03*
D254*
X587200Y701600D03*
D47*
X587200Y715700D03*
X587200Y728500D03*
D295*
X587200Y738200D03*
D300*
X587200Y747500D03*
D295*
X587200Y756800D03*
D47*
X587200Y782900D03*
D48*
X587200Y806800D03*
D29*
X587200Y837700D03*
D302*
X587400Y527000D03*
D13*
X587400Y567200D03*
D47*
X587400Y680900D03*
D254*
X587400Y701600D03*
D47*
X587400Y715700D03*
X587400Y728500D03*
D295*
X587400Y738200D03*
D303*
X587400Y747600D03*
D295*
X587400Y756800D03*
D47*
X587400Y782900D03*
D48*
X587400Y806800D03*
D29*
X587400Y837700D03*
D304*
X587600Y527100D03*
D13*
X587600Y567400D03*
D47*
X587600Y680900D03*
D254*
X587600Y701600D03*
D47*
X587600Y715700D03*
X587600Y728500D03*
D295*
X587600Y738200D03*
D303*
X587600Y747600D03*
D295*
X587600Y756800D03*
D47*
X587600Y782900D03*
D305*
X587600Y806800D03*
D306*
X587600Y837800D03*
D307*
X587800Y527200D03*
D13*
X587800Y567600D03*
D47*
X587800Y680900D03*
D254*
X587800Y701600D03*
D47*
X587800Y715700D03*
X587800Y728500D03*
D295*
X587800Y738200D03*
D71*
X587800Y747500D03*
D295*
X587800Y756800D03*
D47*
X587800Y782900D03*
D308*
X587800Y806900D03*
D309*
X587800Y837900D03*
D310*
X588000Y527300D03*
D47*
X588000Y680900D03*
D254*
X588000Y701600D03*
D47*
X588000Y715700D03*
X588000Y728500D03*
D295*
X588000Y738200D03*
D71*
X588000Y747500D03*
D295*
X588000Y756800D03*
D47*
X588000Y782900D03*
D308*
X588000Y806900D03*
D309*
X588000Y837900D03*
D311*
X588200Y527200D03*
D13*
X588200Y567800D03*
D47*
X588200Y680900D03*
D254*
X588200Y701600D03*
D47*
X588200Y715700D03*
X588200Y728500D03*
D295*
X588200Y738200D03*
D75*
X588200Y747600D03*
D295*
X588200Y756800D03*
D47*
X588200Y782900D03*
D308*
X588200Y807100D03*
D306*
X588200Y838000D03*
D310*
X588400Y527300D03*
D13*
X588400Y568000D03*
D47*
X588400Y680900D03*
D254*
X588400Y701600D03*
D47*
X588400Y715700D03*
X588400Y728500D03*
D295*
X588400Y738200D03*
D75*
X588400Y747600D03*
D295*
X588400Y756800D03*
D47*
X588400Y782900D03*
D312*
X588400Y807200D03*
D309*
X588400Y838100D03*
D313*
X588600Y527400D03*
D13*
X588600Y568200D03*
D47*
X588600Y680900D03*
D254*
X588600Y701600D03*
D47*
X588600Y715700D03*
X588600Y728500D03*
D295*
X588600Y738200D03*
D78*
X588600Y747500D03*
D295*
X588600Y756800D03*
D47*
X588600Y782900D03*
D312*
X588600Y807200D03*
D309*
X588600Y838100D03*
D314*
X588800Y527500D03*
D13*
X588800Y568400D03*
D47*
X588800Y680900D03*
D254*
X588800Y701600D03*
D47*
X588800Y715700D03*
X588800Y728500D03*
D295*
X588800Y738200D03*
D78*
X588800Y747500D03*
D295*
X588800Y756800D03*
D47*
X588800Y782900D03*
D312*
X588800Y807200D03*
D309*
X588800Y838100D03*
D314*
X589000Y527700D03*
D13*
X589000Y568600D03*
D47*
X589000Y680900D03*
D254*
X589000Y701600D03*
D47*
X589000Y715700D03*
X589000Y728500D03*
D295*
X589000Y738200D03*
D315*
X589000Y747600D03*
D295*
X589000Y756800D03*
D47*
X589000Y782900D03*
D316*
X589000Y807300D03*
D28*
X589000Y838200D03*
D317*
X589200Y527800D03*
D47*
X589200Y680900D03*
D254*
X589200Y701600D03*
D47*
X589200Y715700D03*
X589200Y728500D03*
D295*
X589200Y738200D03*
D315*
X589200Y747600D03*
D295*
X589200Y756800D03*
D47*
X589200Y782900D03*
D318*
X589200Y807400D03*
D28*
X589200Y838200D03*
D319*
X589400Y527700D03*
D13*
X589400Y568800D03*
D47*
X589400Y680900D03*
D254*
X589400Y701600D03*
D47*
X589400Y715700D03*
X589400Y728500D03*
D295*
X589400Y738200D03*
D320*
X589400Y747500D03*
D295*
X589400Y756800D03*
D47*
X589400Y782900D03*
D321*
X589400Y807300D03*
D28*
X589400Y838200D03*
D317*
X589600Y527800D03*
D13*
X589600Y569000D03*
D47*
X589600Y680900D03*
D254*
X589600Y701600D03*
D47*
X589600Y715700D03*
X589600Y728500D03*
D295*
X589600Y738200D03*
D320*
X589600Y747500D03*
D295*
X589600Y756800D03*
D47*
X589600Y782900D03*
D321*
X589600Y807500D03*
D309*
X589600Y838300D03*
D322*
X589800Y527900D03*
D13*
X589800Y569200D03*
D47*
X589800Y680900D03*
D254*
X589800Y701600D03*
D47*
X589800Y715700D03*
X589800Y728500D03*
D295*
X589800Y738200D03*
D31*
X589800Y747600D03*
D295*
X589800Y756800D03*
D47*
X589800Y782900D03*
D321*
X589800Y807500D03*
D323*
X589800Y838300D03*
D324*
X590000Y528000D03*
D13*
X590000Y569400D03*
D47*
X590000Y680900D03*
D254*
X590000Y701600D03*
D47*
X590000Y715700D03*
X590000Y728500D03*
D295*
X590000Y738200D03*
D31*
X590000Y747600D03*
D295*
X590000Y756800D03*
D47*
X590000Y782900D03*
D325*
X590000Y807600D03*
D323*
X590000Y838300D03*
D326*
X590200Y528200D03*
D47*
X590200Y680900D03*
D254*
X590200Y701600D03*
D47*
X590200Y715700D03*
X590200Y728500D03*
D295*
X590200Y738200D03*
D327*
X590200Y747500D03*
D295*
X590200Y756800D03*
D47*
X590200Y782900D03*
D325*
X590200Y807600D03*
D323*
X590200Y838300D03*
D328*
X590400Y528100D03*
D13*
X590400Y569600D03*
D47*
X590400Y680900D03*
D254*
X590400Y701600D03*
D47*
X590400Y715700D03*
X590400Y728500D03*
D295*
X590400Y738200D03*
D327*
X590400Y747500D03*
D295*
X590400Y756800D03*
D47*
X590400Y782900D03*
D329*
X590400Y807700D03*
D27*
X590400Y838400D03*
D326*
X590600Y528200D03*
D13*
X590600Y569800D03*
D47*
X590600Y680900D03*
D254*
X590600Y701600D03*
D47*
X590600Y715700D03*
X590600Y728500D03*
D295*
X590600Y738200D03*
D330*
X590600Y747600D03*
D295*
X590600Y756800D03*
D47*
X590600Y782900D03*
D329*
X590600Y807700D03*
D331*
X590600Y838500D03*
D332*
X590800Y528300D03*
D13*
X590800Y570000D03*
D47*
X590800Y680900D03*
D254*
X590800Y701600D03*
D47*
X590800Y715700D03*
X590800Y728500D03*
D295*
X590800Y738200D03*
D333*
X590800Y747500D03*
D295*
X590800Y756800D03*
D47*
X590800Y782900D03*
D334*
X590800Y807800D03*
D331*
X590800Y838500D03*
D335*
X591000Y528500D03*
D47*
X591000Y680900D03*
D254*
X591000Y701600D03*
D47*
X591000Y715700D03*
X591000Y728500D03*
D295*
X591000Y738200D03*
D333*
X591000Y747500D03*
D295*
X591000Y756800D03*
D47*
X591000Y782900D03*
D334*
X591000Y808000D03*
D27*
X591000Y838600D03*
D336*
X591200Y528400D03*
D13*
X591200Y570200D03*
D47*
X591200Y680900D03*
D254*
X591200Y701600D03*
D47*
X591200Y715700D03*
X591200Y728500D03*
D295*
X591200Y738200D03*
D333*
X591200Y747500D03*
D295*
X591200Y756800D03*
D47*
X591200Y782900D03*
D329*
X591200Y808100D03*
D27*
X591200Y838600D03*
D335*
X591400Y528500D03*
D13*
X591400Y570400D03*
D47*
X591400Y680900D03*
D254*
X591400Y701600D03*
D47*
X591400Y715700D03*
X591400Y728500D03*
D295*
X591400Y738200D03*
D337*
X591400Y747600D03*
D295*
X591400Y756800D03*
D47*
X591400Y782900D03*
D329*
X591400Y808100D03*
D27*
X591400Y838600D03*
D338*
X591600Y528600D03*
D13*
X591600Y570600D03*
D47*
X591600Y680900D03*
D254*
X591600Y701600D03*
D47*
X591600Y715700D03*
X591600Y728500D03*
D295*
X591600Y738200D03*
D339*
X591600Y747500D03*
D295*
X591600Y756800D03*
D47*
X591600Y782900D03*
D329*
X591600Y808100D03*
D331*
X591600Y838700D03*
D340*
X591800Y528800D03*
D47*
X591800Y680900D03*
D254*
X591800Y701600D03*
D47*
X591800Y715700D03*
X591800Y728500D03*
D295*
X591800Y738200D03*
D339*
X591800Y747500D03*
D295*
X591800Y756800D03*
D47*
X591800Y782900D03*
D341*
X591800Y808400D03*
D82*
X591800Y838800D03*
D342*
X592000Y528700D03*
D13*
X592000Y570800D03*
D47*
X592000Y680900D03*
D254*
X592000Y701600D03*
D47*
X592000Y715700D03*
X592000Y728500D03*
D295*
X592000Y738200D03*
D339*
X592000Y747500D03*
D295*
X592000Y756800D03*
D47*
X592000Y782900D03*
D341*
X592000Y808400D03*
D82*
X592000Y838800D03*
D340*
X592200Y528800D03*
D13*
X592200Y571000D03*
D47*
X592200Y680900D03*
D254*
X592200Y701600D03*
D47*
X592200Y715700D03*
X592200Y728500D03*
D295*
X592200Y738200D03*
D343*
X592200Y747600D03*
D295*
X592200Y756800D03*
D47*
X592200Y782900D03*
D341*
X592200Y808400D03*
D25*
X592200Y838700D03*
D344*
X592400Y528900D03*
D13*
X592400Y571200D03*
D47*
X592400Y680900D03*
X592400Y696900D03*
X592400Y715700D03*
X592400Y728500D03*
D295*
X592400Y738200D03*
D345*
X592400Y747500D03*
D295*
X592400Y756800D03*
D47*
X592400Y782900D03*
D341*
X592400Y808600D03*
D25*
X592400Y838900D03*
D346*
X592600Y529000D03*
D47*
X592600Y680900D03*
X592600Y696900D03*
X592600Y715700D03*
X592600Y728500D03*
D295*
X592600Y738200D03*
D345*
X592600Y747500D03*
D295*
X592600Y756800D03*
D47*
X592600Y782900D03*
D347*
X592600Y808700D03*
D25*
X592600Y838900D03*
D348*
X592800Y528900D03*
D13*
X592800Y571400D03*
D47*
X592800Y680900D03*
X592800Y696900D03*
X592800Y715700D03*
X592800Y728500D03*
D295*
X592800Y738200D03*
D345*
X592800Y747500D03*
D295*
X592800Y756800D03*
D47*
X592800Y782900D03*
D347*
X592800Y808700D03*
D25*
X592800Y838900D03*
D348*
X593000Y529100D03*
D13*
X593000Y571600D03*
D47*
X593000Y680900D03*
X593000Y696900D03*
X593000Y715700D03*
X593000Y728500D03*
D295*
X593000Y738200D03*
D349*
X593000Y747600D03*
D295*
X593000Y756800D03*
D47*
X593000Y782900D03*
D350*
X593000Y809000D03*
D26*
X593000Y839000D03*
D351*
X593200Y529300D03*
D47*
X593200Y680900D03*
X593200Y696900D03*
X593200Y715700D03*
X593200Y728500D03*
D295*
X593200Y738200D03*
D352*
X593200Y747500D03*
D295*
X593200Y756800D03*
D47*
X593200Y782900D03*
D353*
X593200Y809100D03*
D26*
X593200Y839000D03*
D346*
X593400Y529200D03*
D13*
X593400Y571800D03*
D47*
X593400Y680900D03*
X593400Y696900D03*
X593400Y715700D03*
X593400Y728500D03*
D295*
X593400Y738200D03*
D352*
X593400Y747500D03*
D295*
X593400Y756800D03*
D47*
X593400Y782900D03*
D353*
X593400Y809100D03*
D77*
X593400Y839100D03*
D354*
X593600Y529200D03*
D13*
X593600Y572000D03*
D47*
X593600Y680900D03*
X593600Y696900D03*
X593600Y715700D03*
X593600Y728500D03*
D295*
X593600Y738200D03*
D352*
X593600Y747500D03*
D295*
X593600Y756800D03*
D47*
X593600Y782900D03*
D355*
X593600Y809100D03*
D77*
X593600Y839100D03*
D356*
X593800Y529400D03*
D47*
X593800Y680900D03*
X593800Y696900D03*
X593800Y715700D03*
X593800Y728500D03*
D295*
X593800Y738200D03*
D357*
X593800Y747600D03*
D295*
X593800Y756800D03*
D47*
X593800Y782900D03*
D350*
X593800Y809400D03*
D26*
X593800Y839200D03*
D358*
X594000Y529300D03*
D13*
X594000Y572200D03*
D47*
X594000Y680900D03*
X594000Y696900D03*
X594000Y715700D03*
X594000Y728500D03*
D295*
X594000Y738200D03*
D359*
X594000Y747500D03*
D295*
X594000Y756800D03*
D47*
X594000Y782900D03*
D353*
X594000Y809500D03*
D26*
X594000Y839200D03*
D356*
X594200Y529400D03*
D13*
X594200Y572400D03*
D47*
X594200Y680900D03*
X594200Y696900D03*
X594200Y715700D03*
X594200Y728500D03*
D295*
X594200Y738200D03*
D359*
X594200Y747500D03*
D295*
X594200Y756800D03*
D47*
X594200Y782900D03*
D353*
X594200Y809700D03*
D77*
X594200Y839300D03*
D360*
X594400Y529600D03*
D47*
X594400Y680900D03*
X594400Y696900D03*
X594400Y715700D03*
X594400Y728500D03*
D295*
X594400Y738200D03*
D359*
X594400Y747500D03*
D295*
X594400Y756800D03*
D47*
X594400Y782900D03*
D361*
X594400Y809800D03*
D74*
X594400Y839400D03*
D362*
X594600Y529500D03*
D13*
X594600Y572600D03*
D47*
X594600Y680900D03*
X594600Y696900D03*
X594600Y715700D03*
X594600Y728500D03*
D295*
X594600Y738200D03*
X594600Y747600D03*
X594600Y756800D03*
D47*
X594600Y782900D03*
D361*
X594600Y809800D03*
D74*
X594600Y839400D03*
D360*
X594800Y529600D03*
D13*
X594800Y572800D03*
D47*
X594800Y680900D03*
X594800Y696900D03*
X594800Y715700D03*
X594800Y728500D03*
D295*
X594800Y738200D03*
D120*
X594800Y747500D03*
D295*
X594800Y756800D03*
D47*
X594800Y782900D03*
D363*
X594800Y810000D03*
D364*
X594800Y839300D03*
D365*
X595000Y529800D03*
D47*
X595000Y680900D03*
X595000Y696900D03*
X595000Y715700D03*
X595000Y728500D03*
D295*
X595000Y738200D03*
D120*
X595000Y747500D03*
D295*
X595000Y756800D03*
D47*
X595000Y782900D03*
X595000Y810100D03*
D364*
X595000Y839300D03*
D366*
X595200Y529700D03*
D13*
X595200Y573000D03*
D47*
X595200Y680900D03*
X595200Y696900D03*
X595200Y715700D03*
X595200Y728500D03*
D295*
X595200Y738200D03*
D120*
X595200Y747500D03*
D295*
X595200Y756800D03*
D47*
X595200Y782900D03*
D363*
X595200Y810400D03*
D364*
X595200Y839500D03*
D365*
X595400Y529800D03*
D13*
X595400Y573200D03*
D47*
X595400Y680900D03*
X595400Y696900D03*
X595400Y715700D03*
X595400Y728500D03*
D295*
X595400Y738200D03*
D52*
X595400Y747600D03*
D295*
X595400Y756800D03*
D47*
X595400Y782900D03*
X595400Y810500D03*
D364*
X595400Y839500D03*
D367*
X595600Y530000D03*
D47*
X595600Y680900D03*
X595600Y696900D03*
X595600Y715700D03*
X595600Y728500D03*
D295*
X595600Y738200D03*
D47*
X595600Y747500D03*
D295*
X595600Y756800D03*
D47*
X595600Y782900D03*
X595600Y810500D03*
D364*
X595600Y839500D03*
D368*
X595800Y529900D03*
D13*
X595800Y573400D03*
D47*
X595800Y680900D03*
X595800Y696900D03*
X595800Y715700D03*
X595800Y728500D03*
D295*
X595800Y738200D03*
D47*
X595800Y747500D03*
D295*
X595800Y756800D03*
D47*
X595800Y782900D03*
D52*
X595800Y810600D03*
D369*
X595800Y839700D03*
D367*
X596000Y530000D03*
D47*
X596000Y680900D03*
X596000Y696900D03*
X596000Y715700D03*
X596000Y728500D03*
D295*
X596000Y738200D03*
D47*
X596000Y747500D03*
D295*
X596000Y756800D03*
D47*
X596000Y782900D03*
D52*
X596000Y810800D03*
D369*
X596000Y839700D03*
D367*
X596200Y530000D03*
D13*
X596200Y573600D03*
D47*
X596200Y680900D03*
X596200Y696900D03*
X596200Y715700D03*
X596200Y728500D03*
D295*
X596200Y738200D03*
D363*
X596200Y747600D03*
D295*
X596200Y756800D03*
D47*
X596200Y782900D03*
D52*
X596200Y810800D03*
D370*
X596200Y839800D03*
D371*
X596400Y530100D03*
D13*
X596400Y573800D03*
D47*
X596400Y680900D03*
X596400Y696900D03*
X596400Y715700D03*
X596400Y728500D03*
D295*
X596400Y738200D03*
D372*
X596400Y747500D03*
D295*
X596400Y756800D03*
D47*
X596400Y782900D03*
D120*
X596400Y810900D03*
D370*
X596400Y839800D03*
D373*
X596600Y530300D03*
D47*
X596600Y680900D03*
X596600Y696900D03*
X596600Y715700D03*
X596600Y728500D03*
D295*
X596600Y738200D03*
D372*
X596600Y747500D03*
D295*
X596600Y756800D03*
D47*
X596600Y782900D03*
D295*
X596600Y811200D03*
D369*
X596600Y839900D03*
D373*
X596800Y530100D03*
D13*
X596800Y574000D03*
D47*
X596800Y680900D03*
X596800Y696900D03*
X596800Y715700D03*
X596800Y728500D03*
D295*
X596800Y738200D03*
D372*
X596800Y747500D03*
D295*
X596800Y756800D03*
D47*
X596800Y782900D03*
D295*
X596800Y811400D03*
D369*
X596800Y839900D03*
D374*
X597000Y530300D03*
D47*
X597000Y680900D03*
X597000Y696900D03*
D51*
X597000Y722100D03*
D295*
X597000Y738200D03*
D361*
X597000Y747600D03*
D295*
X597000Y756800D03*
D47*
X597000Y782900D03*
D359*
X597000Y811500D03*
D369*
X597000Y839900D03*
D375*
X597200Y530200D03*
D13*
X597200Y574200D03*
D47*
X597200Y680900D03*
X597200Y696900D03*
D51*
X597200Y722100D03*
D295*
X597200Y738200D03*
D353*
X597200Y747500D03*
D295*
X597200Y756800D03*
D47*
X597200Y782900D03*
D359*
X597200Y811700D03*
D70*
X597200Y840000D03*
D374*
X597400Y530300D03*
D13*
X597400Y574400D03*
D47*
X597400Y680900D03*
X597400Y696900D03*
D51*
X597400Y722100D03*
D295*
X597400Y738200D03*
D353*
X597400Y747500D03*
D295*
X597400Y756800D03*
D47*
X597400Y782900D03*
D359*
X597400Y811700D03*
D70*
X597400Y840000D03*
D376*
X597600Y530500D03*
D47*
X597600Y680900D03*
X597600Y696900D03*
D51*
X597600Y722100D03*
D295*
X597600Y738200D03*
D353*
X597600Y747500D03*
D295*
X597600Y756800D03*
D47*
X597600Y782900D03*
D352*
X597600Y811900D03*
D70*
X597600Y840000D03*
D377*
X597800Y530400D03*
D13*
X597800Y574600D03*
D47*
X597800Y680900D03*
X597800Y696900D03*
D51*
X597800Y722100D03*
D295*
X597800Y738200D03*
D350*
X597800Y747600D03*
D295*
X597800Y756800D03*
D47*
X597800Y782900D03*
D349*
X597800Y812200D03*
D23*
X597800Y840100D03*
D44*
X598000Y498000D03*
D200*
X598000Y542200D03*
D47*
X598000Y680900D03*
X598000Y696900D03*
D51*
X598000Y722100D03*
D295*
X598000Y738200D03*
D355*
X598000Y747500D03*
D295*
X598000Y756800D03*
D47*
X598000Y782900D03*
D352*
X598000Y812500D03*
D70*
X598000Y840200D03*
D44*
X598200Y498000D03*
D378*
X598200Y542100D03*
D13*
X598200Y574800D03*
D47*
X598200Y680900D03*
X598200Y696900D03*
D51*
X598200Y722100D03*
D295*
X598200Y738200D03*
D355*
X598200Y747500D03*
D295*
X598200Y756800D03*
D47*
X598200Y782900D03*
D349*
X598200Y812600D03*
D70*
X598200Y840200D03*
D379*
X598400Y497800D03*
D202*
X598400Y542100D03*
D47*
X598400Y680900D03*
X598400Y696900D03*
D51*
X598400Y722100D03*
D295*
X598400Y738200D03*
D355*
X598400Y747500D03*
D295*
X598400Y756800D03*
D47*
X598400Y782900D03*
D343*
X598400Y812800D03*
D70*
X598400Y840200D03*
D380*
X598600Y530500D03*
D13*
X598600Y575000D03*
D47*
X598600Y680900D03*
X598600Y696900D03*
D51*
X598600Y722100D03*
D295*
X598600Y738200D03*
D15*
X598600Y747600D03*
D295*
X598600Y756800D03*
D47*
X598600Y782900D03*
D345*
X598600Y812900D03*
D67*
X598600Y840400D03*
D381*
X598800Y497700D03*
D203*
X598800Y542200D03*
D47*
X598800Y680900D03*
X598800Y696900D03*
D51*
X598800Y722100D03*
D295*
X598800Y738200D03*
D347*
X598800Y747500D03*
D295*
X598800Y756800D03*
D47*
X598800Y782900D03*
D333*
X598800Y813300D03*
D67*
X598800Y840400D03*
D381*
X599000Y497700D03*
D13*
X599000Y509200D03*
D201*
X599000Y542200D03*
D13*
X599000Y575200D03*
D47*
X599000Y680900D03*
X599000Y696900D03*
D51*
X599000Y722100D03*
D295*
X599000Y738200D03*
D347*
X599000Y747500D03*
D295*
X599000Y756800D03*
D47*
X599000Y782900D03*
D330*
X599000Y813400D03*
D67*
X599000Y840600D03*
D41*
X599200Y497600D03*
D13*
X599200Y509200D03*
D203*
X599200Y542400D03*
D47*
X599200Y680900D03*
X599200Y696900D03*
D51*
X599200Y722100D03*
D295*
X599200Y738200D03*
D347*
X599200Y747500D03*
D295*
X599200Y756800D03*
D47*
X599200Y782900D03*
D333*
X599200Y813700D03*
D67*
X599200Y840600D03*
D41*
X599400Y497400D03*
D13*
X599400Y509200D03*
D202*
X599400Y542300D03*
D13*
X599400Y575400D03*
D47*
X599400Y680900D03*
X599400Y696900D03*
D51*
X599400Y722100D03*
D295*
X599400Y738200D03*
D341*
X599400Y747600D03*
D295*
X599400Y756800D03*
D47*
X599400Y782900D03*
D337*
X599400Y813800D03*
D23*
X599400Y840700D03*
D41*
X599600Y497400D03*
D382*
X599600Y542300D03*
D47*
X599600Y680900D03*
X599600Y696900D03*
D51*
X599600Y722100D03*
D295*
X599600Y738200D03*
D383*
X599600Y747500D03*
D295*
X599600Y756800D03*
D47*
X599600Y782900D03*
D333*
X599600Y813900D03*
D384*
X599600Y840700D03*
D19*
X599800Y497300D03*
D206*
X599800Y542200D03*
D13*
X599800Y575600D03*
D47*
X599800Y680900D03*
X599800Y696900D03*
D51*
X599800Y722100D03*
D295*
X599800Y738200D03*
D383*
X599800Y747500D03*
D295*
X599800Y756800D03*
D47*
X599800Y782900D03*
D21*
X599800Y812100D03*
D320*
X599800Y814300D03*
D22*
X599800Y840800D03*
D385*
X600000Y497200D03*
D209*
X600000Y542300D03*
D47*
X600000Y680900D03*
X600000Y696900D03*
D51*
X600000Y722100D03*
D295*
X600000Y738200D03*
D383*
X600000Y747500D03*
D295*
X600000Y756800D03*
D47*
X600000Y782900D03*
D315*
X600000Y814400D03*
D22*
X600000Y840800D03*
D385*
X600200Y497200D03*
D13*
X600200Y509000D03*
D206*
X600200Y542400D03*
D13*
X600200Y575800D03*
D47*
X600200Y680900D03*
X600200Y696900D03*
D51*
X600200Y722100D03*
D295*
X600200Y738200D03*
D386*
X600200Y747600D03*
D295*
X600200Y756800D03*
D47*
X600200Y782900D03*
D315*
X600200Y814600D03*
D22*
X600200Y840800D03*
D387*
X600400Y497100D03*
D13*
X600400Y509000D03*
D208*
X600400Y542600D03*
D47*
X600400Y680900D03*
D144*
X600400Y701200D03*
D51*
X600400Y722100D03*
D295*
X600400Y738200D03*
D329*
X600400Y747500D03*
D295*
X600400Y756800D03*
D47*
X600400Y782900D03*
D315*
X600400Y814600D03*
D65*
X600400Y840900D03*
D385*
X600600Y497000D03*
D209*
X600600Y542300D03*
D13*
X600600Y576000D03*
D47*
X600600Y680900D03*
D144*
X600600Y701200D03*
D51*
X600600Y722100D03*
D295*
X600600Y738200D03*
D329*
X600600Y747500D03*
D295*
X600600Y756800D03*
D47*
X600600Y782900D03*
D31*
X600600Y814800D03*
D62*
X600600Y841000D03*
D387*
X600800Y496900D03*
D209*
X600800Y542300D03*
D13*
X600800Y576000D03*
D47*
X600800Y680900D03*
D144*
X600800Y701200D03*
D51*
X600800Y722100D03*
D295*
X600800Y738200D03*
D334*
X600800Y747600D03*
D295*
X600800Y756800D03*
D47*
X600800Y782900D03*
D13*
X600800Y813200D03*
D78*
X600800Y815300D03*
D65*
X600800Y841100D03*
D388*
X601000Y496800D03*
D210*
X601000Y542500D03*
D47*
X601000Y680900D03*
D144*
X601000Y701200D03*
D51*
X601000Y722100D03*
D295*
X601000Y738200D03*
D334*
X601000Y747600D03*
D295*
X601000Y756800D03*
D47*
X601000Y782900D03*
D75*
X601000Y815600D03*
D65*
X601000Y841100D03*
D39*
X601200Y496700D03*
D210*
X601200Y542300D03*
D13*
X601200Y576200D03*
D47*
X601200Y680900D03*
D144*
X601200Y701200D03*
D51*
X601200Y722100D03*
D295*
X601200Y738200D03*
D32*
X601200Y747500D03*
D295*
X601200Y756800D03*
D47*
X601200Y782900D03*
D75*
X601200Y815600D03*
D389*
X601200Y841300D03*
D388*
X601400Y496800D03*
D13*
X601400Y508800D03*
D210*
X601400Y542700D03*
D47*
X601400Y680900D03*
D144*
X601400Y701200D03*
D51*
X601400Y722100D03*
D295*
X601400Y738200D03*
D32*
X601400Y747500D03*
D295*
X601400Y756800D03*
D47*
X601400Y782900D03*
D300*
X601400Y815900D03*
D389*
X601400Y841300D03*
D390*
X601600Y496600D03*
D13*
X601600Y508800D03*
D391*
X601600Y542600D03*
D13*
X601600Y576400D03*
D47*
X601600Y680900D03*
D144*
X601600Y701200D03*
D51*
X601600Y722100D03*
D295*
X601600Y738200D03*
D325*
X601600Y747600D03*
D295*
X601600Y756800D03*
D47*
X601600Y782900D03*
D303*
X601600Y816000D03*
D392*
X601600Y841400D03*
D39*
X601800Y496500D03*
D13*
X601800Y508800D03*
D391*
X601800Y542600D03*
D13*
X601800Y576400D03*
D47*
X601800Y680900D03*
D144*
X601800Y701200D03*
D51*
X601800Y722100D03*
D295*
X601800Y738200D03*
D325*
X601800Y747600D03*
D295*
X601800Y756800D03*
D47*
X601800Y782900D03*
D300*
X601800Y816100D03*
D392*
X601800Y841400D03*
D39*
X602000Y496500D03*
D212*
X602000Y542500D03*
D47*
X602000Y680900D03*
D144*
X602000Y701200D03*
D51*
X602000Y722100D03*
D295*
X602000Y738200D03*
D321*
X602000Y747500D03*
D295*
X602000Y756800D03*
D47*
X602000Y782900D03*
D21*
X602000Y815100D03*
D298*
X602000Y816600D03*
D392*
X602000Y841400D03*
D393*
X602200Y496300D03*
D212*
X602200Y542500D03*
D13*
X602200Y576600D03*
D47*
X602200Y680900D03*
D144*
X602200Y701200D03*
D51*
X602200Y722100D03*
D295*
X602200Y738200D03*
D321*
X602200Y747500D03*
D295*
X602200Y756800D03*
D47*
X602200Y782900D03*
D68*
X602200Y816900D03*
D392*
X602200Y841600D03*
D393*
X602400Y496300D03*
D214*
X602400Y542700D03*
D47*
X602400Y680900D03*
D144*
X602400Y701200D03*
D51*
X602400Y722100D03*
D295*
X602400Y738200D03*
D318*
X602400Y747600D03*
D295*
X602400Y756800D03*
D47*
X602400Y782900D03*
D68*
X602400Y816900D03*
D392*
X602400Y841600D03*
D394*
X602600Y496100D03*
D213*
X602600Y542600D03*
D13*
X602600Y576800D03*
D47*
X602600Y680900D03*
D144*
X602600Y701200D03*
D51*
X602600Y722100D03*
D295*
X602600Y738200D03*
D318*
X602600Y747600D03*
D295*
X602600Y756800D03*
D47*
X602600Y782900D03*
D300*
X602600Y817100D03*
D395*
X602600Y841800D03*
D394*
X602800Y495900D03*
D13*
X602800Y508600D03*
D212*
X602800Y542700D03*
D13*
X602800Y576800D03*
D47*
X602800Y680900D03*
D144*
X602800Y701200D03*
D51*
X602800Y722100D03*
D295*
X602800Y738200D03*
D345*
X602800Y744900D03*
D343*
X602800Y750200D03*
D295*
X602800Y756800D03*
D47*
X602800Y782900D03*
D60*
X602800Y817400D03*
D395*
X602800Y841800D03*
D396*
X603000Y496000D03*
D13*
X603000Y508600D03*
D214*
X603000Y542900D03*
D47*
X603000Y680900D03*
D144*
X603000Y701200D03*
D51*
X603000Y722100D03*
D295*
X603000Y738200D03*
D345*
X603000Y744900D03*
D343*
X603000Y750200D03*
D295*
X603000Y756800D03*
D47*
X603000Y782900D03*
D14*
X603000Y817700D03*
D397*
X603000Y841900D03*
D394*
X603200Y495700D03*
D13*
X603200Y508600D03*
D213*
X603200Y542800D03*
D13*
X603200Y577000D03*
D47*
X603200Y680900D03*
D144*
X603200Y701200D03*
D47*
X603200Y715700D03*
X603200Y728500D03*
D295*
X603200Y738200D03*
D343*
X603200Y744800D03*
D345*
X603200Y750300D03*
D295*
X603200Y756800D03*
D47*
X603200Y782900D03*
D14*
X603200Y817900D03*
D397*
X603200Y841900D03*
D398*
X603400Y495600D03*
D13*
X603400Y508600D03*
D213*
X603400Y542800D03*
D13*
X603400Y577000D03*
D47*
X603400Y680900D03*
D144*
X603400Y701200D03*
D47*
X603400Y715700D03*
X603400Y728500D03*
D295*
X603400Y738200D03*
D343*
X603400Y744800D03*
D345*
X603400Y750300D03*
D295*
X603400Y756800D03*
D47*
X603400Y782900D03*
D63*
X603400Y818300D03*
D56*
X603400Y842000D03*
D399*
X603600Y495500D03*
D219*
X603600Y542800D03*
D47*
X603600Y680900D03*
D144*
X603600Y701200D03*
D47*
X603600Y715700D03*
X603600Y728500D03*
D295*
X603600Y738200D03*
D345*
X603600Y744700D03*
D343*
X603600Y750400D03*
D295*
X603600Y756800D03*
D47*
X603600Y782900D03*
D63*
X603600Y818300D03*
D397*
X603600Y842100D03*
D398*
X603800Y495600D03*
D215*
X603800Y542700D03*
D13*
X603800Y577200D03*
D47*
X603800Y680900D03*
D144*
X603800Y701200D03*
D47*
X603800Y715700D03*
X603800Y728500D03*
D295*
X603800Y738200D03*
D343*
X603800Y744600D03*
X603800Y750400D03*
D295*
X603800Y756800D03*
D47*
X603800Y782900D03*
D11*
X603800Y818600D03*
D56*
X603800Y842200D03*
D399*
X604000Y495500D03*
D215*
X604000Y542700D03*
D13*
X604000Y577200D03*
D47*
X604000Y680900D03*
D144*
X604000Y701200D03*
D47*
X604000Y715700D03*
X604000Y728500D03*
D295*
X604000Y738200D03*
D343*
X604000Y744600D03*
D345*
X604000Y750500D03*
D295*
X604000Y756800D03*
D47*
X604000Y782900D03*
D11*
X604000Y818800D03*
D400*
X604000Y842300D03*
D401*
X604200Y495200D03*
D220*
X604200Y542900D03*
D47*
X604200Y680900D03*
D144*
X604200Y701200D03*
D47*
X604200Y715700D03*
X604200Y728500D03*
D295*
X604200Y738200D03*
D343*
X604200Y744600D03*
X604200Y750600D03*
D295*
X604200Y756800D03*
D47*
X604200Y782900D03*
D21*
X604200Y819100D03*
D54*
X604200Y842400D03*
D37*
X604400Y495000D03*
D219*
X604400Y542800D03*
D13*
X604400Y577400D03*
D47*
X604400Y680900D03*
D144*
X604400Y701200D03*
D47*
X604400Y715700D03*
X604400Y728500D03*
D295*
X604400Y738200D03*
D345*
X604400Y744500D03*
D343*
X604400Y750600D03*
D295*
X604400Y756800D03*
D47*
X604400Y782900D03*
D10*
X604400Y819300D03*
D46*
X604400Y842500D03*
D18*
X604600Y494900D03*
D13*
X604600Y508400D03*
D215*
X604600Y542900D03*
D13*
X604600Y577400D03*
D47*
X604600Y680900D03*
D144*
X604600Y701200D03*
D47*
X604600Y715700D03*
X604600Y728500D03*
D295*
X604600Y738200D03*
D343*
X604600Y744400D03*
X604600Y750600D03*
D295*
X604600Y756800D03*
D47*
X604600Y782900D03*
D11*
X604600Y819400D03*
D46*
X604600Y842500D03*
D18*
X604800Y494700D03*
D13*
X604800Y508400D03*
D220*
X604800Y543100D03*
D47*
X604800Y680900D03*
D144*
X604800Y701200D03*
D47*
X604800Y715700D03*
X604800Y728500D03*
D295*
X604800Y738200D03*
D343*
X604800Y744400D03*
D345*
X604800Y750700D03*
D295*
X604800Y756800D03*
D47*
X604800Y782900D03*
D13*
X604800Y820000D03*
D54*
X604800Y842600D03*
D18*
X605000Y494700D03*
D13*
X605000Y508400D03*
D219*
X605000Y543000D03*
D13*
X605000Y577600D03*
D47*
X605000Y680900D03*
D144*
X605000Y701200D03*
D47*
X605000Y715700D03*
X605000Y728500D03*
D295*
X605000Y738200D03*
D345*
X605000Y744300D03*
D343*
X605000Y750800D03*
D295*
X605000Y756800D03*
D47*
X605000Y782900D03*
D54*
X605000Y842800D03*
D18*
X605200Y494700D03*
D13*
X605200Y508400D03*
D219*
X605200Y543000D03*
D13*
X605200Y577600D03*
D47*
X605200Y680900D03*
D144*
X605200Y701200D03*
D47*
X605200Y715700D03*
X605200Y728500D03*
D295*
X605200Y738200D03*
D343*
X605200Y744200D03*
X605200Y750800D03*
D295*
X605200Y756800D03*
D47*
X605200Y782900D03*
D13*
X605200Y820600D03*
D54*
X605200Y842800D03*
D130*
X605400Y494600D03*
D13*
X605400Y508400D03*
D221*
X605400Y543200D03*
D47*
X605400Y680900D03*
D144*
X605400Y701200D03*
D47*
X605400Y715700D03*
X605400Y728500D03*
D295*
X605400Y738200D03*
D343*
X605400Y744200D03*
X605400Y750800D03*
D295*
X605400Y756800D03*
D47*
X605400Y782900D03*
D13*
X605400Y820600D03*
X605400Y831000D03*
D402*
X605400Y843100D03*
D130*
X605600Y494400D03*
D403*
X605600Y542900D03*
D47*
X605600Y680900D03*
D144*
X605600Y701200D03*
D47*
X605600Y715700D03*
X605600Y728500D03*
D295*
X605600Y738200D03*
D343*
X605600Y744200D03*
X605600Y751000D03*
D295*
X605600Y756800D03*
D47*
X605600Y782900D03*
D402*
X605600Y843100D03*
D130*
X605800Y494200D03*
D403*
X605800Y542900D03*
D13*
X605800Y577800D03*
D47*
X605800Y680900D03*
D144*
X605800Y701200D03*
D47*
X605800Y715700D03*
X605800Y728500D03*
D295*
X605800Y738200D03*
D345*
X605800Y744100D03*
D343*
X605800Y751000D03*
D295*
X605800Y756800D03*
D47*
X605800Y782900D03*
D404*
X605800Y843200D03*
D131*
X606000Y494100D03*
D403*
X606000Y542900D03*
D13*
X606000Y577800D03*
D47*
X606000Y680900D03*
D144*
X606000Y701200D03*
D47*
X606000Y715700D03*
X606000Y728500D03*
D295*
X606000Y738200D03*
D343*
X606000Y744000D03*
X606000Y751000D03*
D295*
X606000Y756800D03*
D47*
X606000Y782900D03*
D405*
X606000Y843300D03*
D227*
X606200Y494000D03*
D223*
X606200Y543100D03*
D47*
X606200Y680900D03*
D144*
X606200Y701200D03*
D47*
X606200Y715700D03*
X606200Y728500D03*
D295*
X606200Y738200D03*
D343*
X606200Y744000D03*
X606200Y751000D03*
D295*
X606200Y756800D03*
D47*
X606200Y782900D03*
D404*
X606200Y843400D03*
D233*
X606400Y493700D03*
D222*
X606400Y543000D03*
D47*
X606400Y680900D03*
X606400Y696900D03*
X606400Y715700D03*
X606400Y728500D03*
D295*
X606400Y738200D03*
D343*
X606400Y744000D03*
D50*
X606400Y754300D03*
D47*
X606400Y782900D03*
D404*
X606400Y843400D03*
D233*
X606600Y493500D03*
D222*
X606600Y543000D03*
D13*
X606600Y578000D03*
D47*
X606600Y680900D03*
X606600Y696900D03*
X606600Y715700D03*
X606600Y728500D03*
D50*
X606600Y740700D03*
X606600Y754300D03*
D47*
X606600Y782900D03*
D405*
X606600Y843500D03*
D238*
X606800Y493300D03*
D225*
X606800Y543100D03*
D47*
X606800Y680900D03*
X606800Y696900D03*
X606800Y715700D03*
X606800Y728500D03*
D50*
X606800Y740700D03*
X606800Y754300D03*
D47*
X606800Y782900D03*
D44*
X606800Y843800D03*
D236*
X607000Y493200D03*
D13*
X607000Y508200D03*
D223*
X607000Y543300D03*
D47*
X607000Y680900D03*
X607000Y696900D03*
X607000Y715700D03*
X607000Y728500D03*
D50*
X607000Y740700D03*
X607000Y754300D03*
D47*
X607000Y782900D03*
D406*
X607000Y843900D03*
D236*
X607200Y493000D03*
D13*
X607200Y508200D03*
D222*
X607200Y543200D03*
D13*
X607200Y578200D03*
D47*
X607200Y680900D03*
X607200Y696900D03*
X607200Y715700D03*
X607200Y728500D03*
D50*
X607200Y740700D03*
D305*
X607200Y754400D03*
D47*
X607200Y782900D03*
D406*
X607200Y843900D03*
D238*
X607400Y492900D03*
D13*
X607400Y508200D03*
D222*
X607400Y543200D03*
D13*
X607400Y578200D03*
D47*
X607400Y680900D03*
X607400Y696900D03*
X607400Y715700D03*
X607400Y728500D03*
D305*
X607400Y740600D03*
X607400Y754400D03*
D47*
X607400Y782900D03*
D379*
X607400Y844000D03*
D246*
X607600Y492600D03*
D13*
X607600Y508200D03*
D224*
X607600Y543400D03*
D47*
X607600Y680900D03*
X607600Y696900D03*
X607600Y715700D03*
X607600Y728500D03*
D305*
X607600Y740600D03*
X607600Y754400D03*
D47*
X607600Y782900D03*
D406*
X607600Y844100D03*
D246*
X607800Y492400D03*
D13*
X607800Y508200D03*
D224*
X607800Y543400D03*
D47*
X607800Y680900D03*
X607800Y696900D03*
X607800Y715700D03*
X607800Y728500D03*
D305*
X607800Y740600D03*
D308*
X607800Y754500D03*
D47*
X607800Y782900D03*
D379*
X607800Y844400D03*
D249*
X608000Y492200D03*
D13*
X608000Y500800D03*
X608000Y508200D03*
D224*
X608000Y543400D03*
D47*
X608000Y680900D03*
X608000Y696900D03*
X608000Y715700D03*
X608000Y728500D03*
D305*
X608000Y740600D03*
D308*
X608000Y754500D03*
D47*
X608000Y782900D03*
D41*
X608000Y844600D03*
D249*
X608200Y492000D03*
D13*
X608200Y508200D03*
D223*
X608200Y543300D03*
D13*
X608200Y578400D03*
D47*
X608200Y680900D03*
X608200Y696900D03*
X608200Y715700D03*
X608200Y728500D03*
D308*
X608200Y740500D03*
X608200Y754500D03*
D47*
X608200Y782900D03*
D19*
X608200Y844700D03*
D249*
X608400Y491800D03*
D225*
X608400Y543100D03*
D13*
X608400Y578400D03*
D47*
X608400Y680900D03*
X608400Y696900D03*
X608400Y715700D03*
X608400Y728500D03*
D308*
X608400Y740500D03*
X608400Y754500D03*
D47*
X608400Y782900D03*
D385*
X608400Y844800D03*
D254*
X608600Y491600D03*
D13*
X608600Y500000D03*
D228*
X608600Y543300D03*
D47*
X608600Y680900D03*
X608600Y696900D03*
X608600Y715700D03*
X608600Y728500D03*
D308*
X608600Y740500D03*
D312*
X608600Y754600D03*
D47*
X608600Y782900D03*
D387*
X608600Y844900D03*
D49*
X608800Y491500D03*
D228*
X608800Y543300D03*
D47*
X608800Y680900D03*
X608800Y696900D03*
X608800Y715700D03*
X608800Y728500D03*
D312*
X608800Y740400D03*
X608800Y754600D03*
D47*
X608800Y782900D03*
D387*
X608800Y844900D03*
D217*
X609000Y491200D03*
D228*
X609000Y543300D03*
D47*
X609000Y680900D03*
X609000Y696900D03*
X609000Y715700D03*
X609000Y728500D03*
D312*
X609000Y740400D03*
X609000Y754600D03*
D47*
X609000Y782900D03*
D19*
X609000Y845100D03*
D216*
X609200Y491100D03*
D226*
X609200Y543200D03*
D13*
X609200Y578600D03*
D47*
X609200Y680900D03*
X609200Y696900D03*
X609200Y715700D03*
X609200Y728500D03*
D312*
X609200Y740400D03*
D316*
X609200Y754700D03*
D47*
X609200Y782900D03*
D387*
X609200Y845300D03*
D144*
X609400Y490800D03*
D13*
X609400Y498800D03*
D226*
X609400Y543200D03*
D13*
X609400Y578600D03*
D47*
X609400Y680900D03*
X609400Y696900D03*
X609400Y715700D03*
X609400Y728500D03*
D312*
X609400Y740400D03*
D316*
X609400Y754700D03*
D47*
X609400Y782900D03*
D388*
X609400Y845400D03*
D144*
X609600Y490600D03*
D226*
X609600Y543200D03*
D13*
X609600Y578600D03*
D47*
X609600Y680900D03*
X609600Y696900D03*
X609600Y715700D03*
X609600Y728500D03*
D316*
X609600Y740300D03*
X609600Y754700D03*
D47*
X609600Y782900D03*
D388*
X609600Y845600D03*
D143*
X609800Y490400D03*
D230*
X609800Y543400D03*
D47*
X609800Y680900D03*
X609800Y696900D03*
X609800Y715700D03*
X609800Y728500D03*
D316*
X609800Y740300D03*
X609800Y754700D03*
D47*
X609800Y782900D03*
D39*
X609800Y845700D03*
D143*
X610000Y490200D03*
D132*
X610000Y531500D03*
D303*
X610000Y556600D03*
D398*
X610000Y568600D03*
D47*
X610000Y680900D03*
X610000Y696900D03*
X610000Y715700D03*
X610000Y728500D03*
D316*
X610000Y740300D03*
D318*
X610000Y754800D03*
D47*
X610000Y782900D03*
D13*
X610000Y835400D03*
D396*
X610000Y846000D03*
D145*
X610200Y489900D03*
D124*
X610200Y531200D03*
D12*
X610200Y555000D03*
D14*
X610200Y558300D03*
D131*
X610200Y569100D03*
D47*
X610200Y680900D03*
X610200Y696900D03*
X610200Y715700D03*
X610200Y728500D03*
D318*
X610200Y740200D03*
X610200Y754800D03*
D47*
X610200Y782900D03*
D394*
X610200Y846100D03*
D235*
X610400Y489600D03*
D124*
X610400Y531000D03*
D13*
X610400Y554400D03*
D10*
X610400Y559300D03*
D227*
X610400Y569200D03*
D13*
X610400Y578800D03*
D47*
X610400Y680900D03*
X610400Y696900D03*
X610400Y715700D03*
X610400Y728500D03*
D318*
X610400Y740200D03*
X610400Y754800D03*
D50*
X610400Y780700D03*
D394*
X610400Y846300D03*
D240*
X610600Y489400D03*
D121*
X610600Y530800D03*
D21*
X610600Y554100D03*
X610600Y559900D03*
D231*
X610600Y569400D03*
D13*
X610600Y578800D03*
D47*
X610600Y680900D03*
X610600Y696900D03*
X610600Y715700D03*
X610600Y728500D03*
D318*
X610600Y740200D03*
D321*
X610600Y754900D03*
D50*
X610600Y780700D03*
D398*
X610600Y846600D03*
D243*
X610800Y489100D03*
D123*
X610800Y530700D03*
D13*
X610800Y553800D03*
D21*
X610800Y560300D03*
D236*
X610800Y569600D03*
D13*
X610800Y578800D03*
D47*
X610800Y680900D03*
X610800Y696900D03*
X610800Y715700D03*
X610800Y728500D03*
D318*
X610800Y740200D03*
D321*
X610800Y754900D03*
D50*
X610800Y780700D03*
D394*
X610800Y846700D03*
D248*
X611000Y488900D03*
D122*
X611000Y530600D03*
D13*
X611000Y553600D03*
D21*
X611000Y560700D03*
D236*
X611000Y570000D03*
D47*
X611000Y680900D03*
X611000Y696900D03*
X611000Y715700D03*
X611000Y728500D03*
D321*
X611000Y740100D03*
X611000Y754900D03*
D50*
X611000Y780700D03*
D398*
X611000Y846800D03*
D248*
X611200Y488500D03*
D13*
X611200Y508000D03*
D119*
X611200Y530700D03*
D13*
X611200Y553400D03*
X611200Y561000D03*
D241*
X611200Y570200D03*
D47*
X611200Y680900D03*
X611200Y696900D03*
X611200Y715700D03*
X611200Y728500D03*
D321*
X611200Y740100D03*
X611200Y754900D03*
D50*
X611200Y780700D03*
D399*
X611200Y846900D03*
D256*
X611400Y488400D03*
D13*
X611400Y508000D03*
D407*
X611400Y530800D03*
D13*
X611400Y561400D03*
D244*
X611400Y570300D03*
D47*
X611400Y680900D03*
X611400Y696900D03*
X611400Y715700D03*
X611400Y728500D03*
D321*
X611400Y740100D03*
D325*
X611400Y755000D03*
D48*
X611400Y780600D03*
D13*
X611400Y837000D03*
D51*
X611400Y847300D03*
D256*
X611600Y488000D03*
D13*
X611600Y508000D03*
D118*
X611600Y530600D03*
D13*
X611600Y553200D03*
D21*
X611600Y561700D03*
D247*
X611600Y570500D03*
D47*
X611600Y680900D03*
X611600Y696900D03*
X611600Y715700D03*
X611600Y728500D03*
D325*
X611600Y740000D03*
X611600Y755000D03*
D48*
X611600Y780600D03*
D37*
X611600Y847400D03*
D259*
X611800Y487600D03*
D13*
X611800Y508000D03*
D117*
X611800Y530500D03*
D13*
X611800Y553000D03*
D21*
X611800Y562100D03*
D254*
X611800Y570600D03*
D13*
X611800Y579000D03*
D47*
X611800Y680900D03*
X611800Y696900D03*
X611800Y715700D03*
X611800Y728500D03*
D325*
X611800Y740000D03*
X611800Y755000D03*
D48*
X611800Y780600D03*
D51*
X611800Y847700D03*
D262*
X612000Y487400D03*
D13*
X612000Y508000D03*
D117*
X612000Y530500D03*
D21*
X612000Y562500D03*
D217*
X612000Y570800D03*
D13*
X612000Y579000D03*
D47*
X612000Y680900D03*
X612000Y696900D03*
X612000Y715700D03*
X612000Y728500D03*
D325*
X612000Y740000D03*
X612000Y755000D03*
D48*
X612000Y780600D03*
D130*
X612000Y848000D03*
D264*
X612200Y486900D03*
D13*
X612200Y508000D03*
D408*
X612200Y530400D03*
D13*
X612200Y552800D03*
X612200Y562800D03*
D216*
X612200Y570900D03*
D13*
X612200Y579000D03*
D47*
X612200Y680900D03*
X612200Y696900D03*
X612200Y715700D03*
X612200Y728500D03*
D325*
X612200Y740000D03*
D32*
X612200Y755100D03*
D268*
X612200Y780500D03*
D131*
X612200Y848100D03*
D268*
X612400Y486700D03*
D13*
X612400Y508000D03*
D408*
X612400Y530400D03*
D13*
X612400Y552800D03*
D21*
X612400Y563100D03*
D229*
X612400Y571100D03*
D13*
X612400Y579000D03*
D47*
X612400Y680900D03*
X612400Y696900D03*
X612400Y715700D03*
X612400Y728500D03*
D32*
X612400Y739900D03*
X612400Y755100D03*
D268*
X612400Y780500D03*
D131*
X612400Y848100D03*
D305*
X612600Y486400D03*
D13*
X612600Y508000D03*
D117*
X612600Y530500D03*
D13*
X612600Y563400D03*
D144*
X612600Y571400D03*
D47*
X612600Y680900D03*
X612600Y696900D03*
X612600Y715700D03*
X612600Y728500D03*
D32*
X612600Y739900D03*
X612600Y755100D03*
D268*
X612600Y780500D03*
D131*
X612600Y848300D03*
D305*
X612800Y486000D03*
D13*
X612800Y508000D03*
D116*
X612800Y530300D03*
D13*
X612800Y552600D03*
D21*
X612800Y563700D03*
D143*
X612800Y571600D03*
D47*
X612800Y680900D03*
X612800Y696900D03*
X612800Y715700D03*
X612800Y728500D03*
D32*
X612800Y739900D03*
D334*
X612800Y755200D03*
D268*
X612800Y780500D03*
D231*
X612800Y848600D03*
D316*
X613000Y485500D03*
D13*
X613000Y508000D03*
D116*
X613000Y530300D03*
D13*
X613000Y552600D03*
X613000Y564000D03*
D235*
X613000Y571800D03*
D37*
X613000Y680800D03*
D217*
X613000Y701400D03*
D51*
X613000Y722100D03*
D334*
X613000Y739800D03*
X613000Y755200D03*
D268*
X613000Y780500D03*
D233*
X613000Y848900D03*
D32*
X613200Y485300D03*
D13*
X613200Y508000D03*
D408*
X613200Y530400D03*
D13*
X613200Y564400D03*
D34*
X613200Y571900D03*
D37*
X613200Y680800D03*
D217*
X613200Y701400D03*
D51*
X613200Y722100D03*
D334*
X613200Y739800D03*
X613200Y755200D03*
D266*
X613200Y780400D03*
D13*
X613200Y840000D03*
D236*
X613200Y849200D03*
D334*
X613400Y484800D03*
D13*
X613400Y508000D03*
D408*
X613400Y530400D03*
D13*
X613400Y564600D03*
D240*
X613400Y572000D03*
D37*
X613400Y680800D03*
D217*
X613400Y701400D03*
D51*
X613400Y722100D03*
D334*
X613400Y739800D03*
X613400Y755200D03*
D266*
X613400Y780400D03*
D236*
X613400Y849400D03*
D386*
X613600Y484200D03*
D13*
X613600Y508000D03*
D408*
X613600Y530400D03*
D21*
X613600Y564900D03*
D16*
X613600Y572200D03*
D37*
X613600Y680800D03*
D217*
X613600Y701400D03*
D51*
X613600Y722100D03*
D334*
X613600Y739800D03*
D329*
X613600Y755300D03*
D266*
X613600Y780400D03*
D241*
X613600Y849600D03*
D15*
X613800Y484000D03*
D13*
X613800Y508000D03*
D408*
X613800Y530400D03*
D13*
X613800Y565200D03*
D251*
X613800Y572200D03*
D13*
X613800Y579200D03*
D37*
X613800Y680800D03*
D217*
X613800Y701400D03*
D51*
X613800Y722100D03*
D329*
X613800Y739700D03*
X613800Y755300D03*
D266*
X613800Y780400D03*
D241*
X613800Y849800D03*
D361*
X614000Y483400D03*
D13*
X614000Y487400D03*
D118*
X614000Y530200D03*
D21*
X614000Y565500D03*
D256*
X614000Y572400D03*
D13*
X614000Y579200D03*
D37*
X614000Y680800D03*
D217*
X614000Y701400D03*
D37*
X614000Y722200D03*
D329*
X614000Y739700D03*
X614000Y755300D03*
D266*
X614000Y780400D03*
D246*
X614000Y850000D03*
D47*
X614200Y482700D03*
D13*
X614200Y486400D03*
D408*
X614200Y530000D03*
D13*
X614200Y552400D03*
D21*
X614200Y565700D03*
D257*
X614200Y572500D03*
D13*
X614200Y579200D03*
D37*
X614200Y680800D03*
D217*
X614200Y701400D03*
D18*
X614200Y722300D03*
D329*
X614200Y739700D03*
D386*
X614200Y755400D03*
D264*
X614200Y780300D03*
D13*
X614200Y841600D03*
D247*
X614200Y850300D03*
D357*
X614400Y482000D03*
D408*
X614400Y530000D03*
D13*
X614400Y552400D03*
X614400Y566000D03*
D259*
X614400Y572600D03*
D13*
X614400Y579200D03*
D37*
X614400Y680800D03*
D217*
X614400Y701400D03*
D130*
X614400Y722400D03*
D329*
X614400Y739700D03*
D386*
X614400Y755400D03*
D264*
X614400Y780300D03*
D249*
X614400Y850600D03*
D339*
X614600Y481500D03*
D13*
X614600Y484400D03*
D118*
X614600Y530200D03*
D13*
X614600Y566200D03*
D260*
X614600Y572700D03*
D13*
X614600Y579200D03*
D37*
X614600Y680800D03*
D217*
X614600Y701400D03*
D131*
X614600Y722500D03*
D386*
X614600Y739600D03*
X614600Y755400D03*
D266*
X614600Y780400D03*
D13*
X614600Y842800D03*
D49*
X614600Y851100D03*
D71*
X614800Y480500D03*
D13*
X614800Y482200D03*
D118*
X614800Y530200D03*
D13*
X614800Y566400D03*
D262*
X614800Y572800D03*
D13*
X614800Y579200D03*
D37*
X614800Y680800D03*
D217*
X614800Y701400D03*
D227*
X614800Y722600D03*
D386*
X614800Y739600D03*
X614800Y755400D03*
D268*
X614800Y780500D03*
D254*
X614800Y851200D03*
D10*
X615000Y479300D03*
D21*
X615000Y480300D03*
D118*
X615000Y530200D03*
D257*
X615000Y572900D03*
D37*
X615000Y680800D03*
D217*
X615000Y701400D03*
D218*
X615000Y722700D03*
D386*
X615000Y739600D03*
D383*
X615000Y755500D03*
D48*
X615000Y780600D03*
D217*
X615000Y851400D03*
D118*
X615200Y530200D03*
D13*
X615200Y567000D03*
D264*
X615200Y573300D03*
D37*
X615200Y680800D03*
D217*
X615200Y701400D03*
D231*
X615200Y722800D03*
D383*
X615200Y739500D03*
X615200Y755500D03*
D50*
X615200Y780700D03*
D144*
X615200Y851600D03*
D118*
X615400Y530200D03*
D13*
X615400Y567200D03*
D266*
X615400Y573400D03*
D37*
X615400Y680800D03*
D217*
X615400Y701400D03*
D233*
X615400Y722900D03*
D383*
X615400Y739500D03*
X615400Y755500D03*
D305*
X615400Y780800D03*
D144*
X615400Y851800D03*
D13*
X615600Y508000D03*
D116*
X615600Y530300D03*
D13*
X615600Y552600D03*
X615600Y567400D03*
D268*
X615600Y573500D03*
D37*
X615600Y680800D03*
D217*
X615600Y701400D03*
D236*
X615600Y723000D03*
D383*
X615600Y739500D03*
D341*
X615600Y755600D03*
D312*
X615600Y781000D03*
D235*
X615600Y852200D03*
D13*
X615800Y508000D03*
D116*
X615800Y530300D03*
D13*
X615800Y552600D03*
X615800Y567600D03*
D48*
X615800Y573600D03*
D37*
X615800Y680800D03*
D217*
X615800Y701400D03*
D238*
X615800Y723100D03*
D383*
X615800Y739500D03*
D341*
X615800Y755600D03*
D316*
X615800Y781100D03*
D143*
X615800Y852800D03*
D13*
X616000Y508000D03*
D116*
X616000Y530300D03*
D13*
X616000Y552600D03*
X616000Y567800D03*
D50*
X616000Y573700D03*
D37*
X616000Y680800D03*
D217*
X616000Y701400D03*
D241*
X616000Y723200D03*
D341*
X616000Y739400D03*
X616000Y755600D03*
D318*
X616000Y781200D03*
D235*
X616000Y853000D03*
D13*
X616200Y508000D03*
D117*
X616200Y530500D03*
D13*
X616200Y568000D03*
D305*
X616200Y573800D03*
D37*
X616200Y680800D03*
D217*
X616200Y701400D03*
D244*
X616200Y723300D03*
D341*
X616200Y739400D03*
X616200Y755600D03*
D321*
X616200Y781300D03*
D243*
X616200Y853300D03*
D13*
X616400Y508000D03*
D408*
X616400Y530400D03*
D13*
X616400Y552800D03*
D50*
X616400Y573700D03*
D37*
X616400Y680800D03*
D217*
X616400Y701400D03*
D246*
X616400Y723400D03*
D341*
X616400Y739400D03*
D347*
X616400Y755700D03*
D325*
X616400Y781400D03*
D243*
X616400Y853500D03*
D117*
X616600Y530300D03*
D13*
X616600Y552800D03*
X616600Y568200D03*
D308*
X616600Y573900D03*
D37*
X616600Y680800D03*
D217*
X616600Y701400D03*
D247*
X616600Y723500D03*
D347*
X616600Y739300D03*
X616600Y755700D03*
D32*
X616600Y781500D03*
D248*
X616600Y853700D03*
D119*
X616800Y530500D03*
D13*
X616800Y568400D03*
D312*
X616800Y574000D03*
D37*
X616800Y680800D03*
D217*
X616800Y701400D03*
D249*
X616800Y723600D03*
D347*
X616800Y739300D03*
X616800Y755700D03*
D334*
X616800Y781600D03*
D260*
X616800Y854300D03*
D118*
X617000Y530400D03*
D13*
X617000Y553000D03*
X617000Y568600D03*
D316*
X617000Y574100D03*
D37*
X617000Y680800D03*
D217*
X617000Y701400D03*
D17*
X617000Y723700D03*
D347*
X617000Y739300D03*
D15*
X617000Y755800D03*
D386*
X617000Y781800D03*
D260*
X617000Y854500D03*
D118*
X617200Y530400D03*
D13*
X617200Y553000D03*
X617200Y568800D03*
D318*
X617200Y574200D03*
D37*
X617200Y680800D03*
D217*
X617200Y701400D03*
D254*
X617200Y723800D03*
D347*
X617200Y739300D03*
D15*
X617200Y755800D03*
D383*
X617200Y781900D03*
D13*
X617200Y848600D03*
D262*
X617200Y855200D03*
D407*
X617400Y530600D03*
D13*
X617400Y569000D03*
D321*
X617400Y574300D03*
D37*
X617400Y680800D03*
D217*
X617400Y701400D03*
D49*
X617400Y723900D03*
D15*
X617400Y739200D03*
X617400Y755800D03*
D341*
X617400Y782000D03*
D268*
X617400Y855500D03*
D119*
X617600Y530500D03*
D13*
X617600Y553200D03*
D316*
X617600Y574300D03*
D37*
X617600Y680800D03*
D217*
X617600Y701400D03*
X617600Y724000D03*
D15*
X617600Y739200D03*
X617600Y755800D03*
D347*
X617600Y782100D03*
D50*
X617600Y855700D03*
D119*
X617800Y530500D03*
D13*
X617800Y553200D03*
X617800Y569200D03*
D321*
X617800Y574500D03*
D37*
X617800Y680800D03*
D217*
X617800Y701400D03*
D216*
X617800Y724100D03*
D15*
X617800Y739200D03*
D355*
X617800Y755900D03*
D15*
X617800Y782200D03*
D305*
X617800Y856200D03*
D13*
X618000Y508200D03*
D119*
X618000Y530900D03*
D13*
X618000Y569400D03*
D325*
X618000Y574600D03*
D37*
X618000Y680800D03*
D217*
X618000Y701400D03*
D144*
X618000Y724200D03*
D355*
X618000Y739100D03*
X618000Y755900D03*
X618000Y782300D03*
D13*
X618000Y851600D03*
D325*
X618000Y857000D03*
D13*
X618200Y508200D03*
D118*
X618200Y530800D03*
D13*
X618200Y553400D03*
X618200Y569600D03*
D32*
X618200Y574700D03*
D37*
X618200Y680800D03*
D217*
X618200Y701400D03*
D229*
X618200Y724300D03*
D355*
X618200Y739100D03*
X618200Y755900D03*
D350*
X618200Y782400D03*
D32*
X618200Y857100D03*
D13*
X618400Y508200D03*
D407*
X618400Y531000D03*
D325*
X618400Y574600D03*
D37*
X618400Y680800D03*
D217*
X618400Y701400D03*
D143*
X618400Y724400D03*
D355*
X618400Y739100D03*
X618400Y755900D03*
D361*
X618400Y782600D03*
D355*
X618400Y857900D03*
D13*
X618600Y508200D03*
D119*
X618600Y530900D03*
D13*
X618600Y553600D03*
X618600Y569800D03*
D334*
X618600Y574800D03*
D37*
X618600Y680800D03*
D217*
X618600Y701400D03*
D145*
X618600Y724500D03*
D355*
X618600Y739100D03*
D350*
X618600Y756000D03*
D372*
X618600Y782700D03*
D15*
X618600Y858200D03*
D13*
X618800Y508200D03*
D409*
X618800Y531100D03*
D13*
X618800Y570000D03*
D386*
X618800Y574800D03*
D37*
X618800Y680800D03*
D217*
X618800Y701400D03*
D34*
X618800Y724700D03*
D350*
X618800Y739000D03*
X618800Y756000D03*
D363*
X618800Y782800D03*
D372*
X618800Y859100D03*
D13*
X619000Y508200D03*
D407*
X619000Y531000D03*
D13*
X619000Y553800D03*
D329*
X619000Y574700D03*
D21*
X619000Y857100D03*
D345*
X619000Y860300D03*
D121*
X619200Y531000D03*
D13*
X619200Y570200D03*
D383*
X619200Y574900D03*
D12*
X619200Y858400D03*
D10*
X619200Y859700D03*
D300*
X619200Y861500D03*
D122*
X619400Y531000D03*
D13*
X619400Y554000D03*
X619400Y570400D03*
D341*
X619400Y575000D03*
D10*
X619400Y861100D03*
D21*
X619400Y862500D03*
D121*
X619600Y531200D03*
D13*
X619600Y570400D03*
D341*
X619600Y575000D03*
D13*
X619600Y863000D03*
D123*
X619800Y531100D03*
D13*
X619800Y554200D03*
X619800Y570600D03*
D347*
X619800Y575100D03*
D128*
X620000Y531300D03*
D341*
X620000Y575000D03*
D121*
X620200Y531200D03*
D13*
X620200Y554400D03*
X620200Y570800D03*
D15*
X620200Y575200D03*
D13*
X620400Y508400D03*
D121*
X620400Y531600D03*
D13*
X620400Y571000D03*
D355*
X620400Y575300D03*
D13*
X620600Y508400D03*
D123*
X620600Y531500D03*
D13*
X620600Y554600D03*
X620600Y571000D03*
D355*
X620600Y575300D03*
D13*
X620800Y508400D03*
D128*
X620800Y531700D03*
D13*
X620800Y571200D03*
D350*
X620800Y575400D03*
D13*
X621000Y508400D03*
D121*
X621000Y531600D03*
D13*
X621000Y554800D03*
D350*
X621000Y575400D03*
D13*
X621200Y508400D03*
D124*
X621200Y531800D03*
D13*
X621200Y571400D03*
D353*
X621200Y575500D03*
D125*
X621400Y531500D03*
D13*
X621400Y555000D03*
D353*
X621400Y575500D03*
D410*
X621600Y531800D03*
D13*
X621600Y571600D03*
D361*
X621600Y575600D03*
D125*
X621800Y531700D03*
D13*
X621800Y555200D03*
D353*
X621800Y575500D03*
D132*
X622000Y531900D03*
D13*
X622000Y571800D03*
D47*
X622000Y575500D03*
D13*
X622000Y579200D03*
D410*
X622200Y531800D03*
D13*
X622200Y555400D03*
D363*
X622200Y575400D03*
D13*
X622200Y579200D03*
D126*
X622400Y532000D03*
D13*
X622400Y572000D03*
D52*
X622400Y575600D03*
D13*
X622400Y579200D03*
X622600Y508600D03*
D125*
X622600Y532100D03*
D13*
X622600Y555600D03*
D52*
X622600Y575600D03*
D13*
X622600Y579200D03*
X622800Y508600D03*
D132*
X622800Y532300D03*
D13*
X622800Y572200D03*
D120*
X622800Y575700D03*
D13*
X622800Y579200D03*
X623000Y508600D03*
D410*
X623000Y532200D03*
D13*
X623000Y555800D03*
X623000Y572200D03*
D120*
X623000Y575700D03*
D13*
X623000Y579200D03*
D136*
X623200Y532200D03*
D52*
X623200Y575600D03*
D13*
X623200Y579200D03*
D126*
X623400Y532200D03*
D13*
X623400Y556000D03*
X623400Y572400D03*
D52*
X623400Y576000D03*
D127*
X623600Y532300D03*
D52*
X623600Y575800D03*
D127*
X623800Y532300D03*
D13*
X623800Y556200D03*
X623800Y572600D03*
D295*
X623800Y576000D03*
D13*
X624000Y508800D03*
D126*
X624000Y532600D03*
D13*
X624000Y556400D03*
D120*
X624000Y575900D03*
D13*
X624200Y508800D03*
D136*
X624200Y532800D03*
D13*
X624200Y572800D03*
D359*
X624200Y576100D03*
D13*
X624400Y508800D03*
D127*
X624400Y532700D03*
D13*
X624400Y556600D03*
X624400Y572800D03*
D359*
X624400Y576100D03*
D13*
X624600Y508800D03*
D133*
X624600Y532900D03*
D295*
X624600Y576000D03*
D133*
X624800Y532700D03*
D13*
X624800Y556800D03*
X624800Y573000D03*
D349*
X624800Y576000D03*
D13*
X624800Y579000D03*
D129*
X625000Y532800D03*
D352*
X625000Y575900D03*
D13*
X625000Y579000D03*
D129*
X625200Y532800D03*
D13*
X625200Y557000D03*
X625200Y573200D03*
D345*
X625200Y576100D03*
D13*
X625200Y579000D03*
X625400Y509000D03*
D133*
X625400Y533100D03*
D13*
X625400Y557200D03*
X625400Y573200D03*
D345*
X625400Y576100D03*
D13*
X625400Y579000D03*
X625600Y509000D03*
D134*
X625600Y533300D03*
D349*
X625600Y576000D03*
D13*
X625600Y579000D03*
X625800Y509000D03*
D129*
X625800Y533200D03*
D13*
X625800Y557400D03*
X625800Y573400D03*
D345*
X625800Y576300D03*
D13*
X626000Y509000D03*
D146*
X626000Y533400D03*
D345*
X626000Y576300D03*
D146*
X626200Y533200D03*
D13*
X626200Y557600D03*
D349*
X626200Y576200D03*
D151*
X626400Y533400D03*
D13*
X626400Y573600D03*
D343*
X626400Y576400D03*
D149*
X626600Y533300D03*
D13*
X626600Y557800D03*
D345*
X626600Y576300D03*
D13*
X626800Y509200D03*
D146*
X626800Y533600D03*
D339*
X626800Y576100D03*
D13*
X626800Y578800D03*
X627000Y509200D03*
D146*
X627000Y533600D03*
D13*
X627000Y558000D03*
X627000Y573800D03*
D333*
X627000Y576300D03*
D13*
X627000Y578800D03*
D151*
X627200Y533600D03*
D13*
X627200Y558200D03*
D337*
X627200Y576200D03*
D13*
X627200Y578800D03*
D137*
X627400Y533800D03*
D13*
X627400Y574000D03*
D330*
X627400Y576400D03*
D13*
X627400Y578800D03*
D135*
X627600Y533700D03*
D13*
X627600Y558400D03*
X627600Y574000D03*
D330*
X627600Y576400D03*
D13*
X627800Y509400D03*
D135*
X627800Y534100D03*
D337*
X627800Y576400D03*
D13*
X628000Y509400D03*
D151*
X628000Y534000D03*
D13*
X628000Y558600D03*
D337*
X628000Y576400D03*
D139*
X628200Y534100D03*
D13*
X628200Y574200D03*
D330*
X628200Y576600D03*
D137*
X628400Y534000D03*
D13*
X628400Y558800D03*
D330*
X628400Y576600D03*
D139*
X628600Y534100D03*
D327*
X628600Y576300D03*
D13*
X628600Y578600D03*
X628800Y509600D03*
D135*
X628800Y534300D03*
D13*
X628800Y559000D03*
X628800Y574400D03*
D320*
X628800Y576500D03*
D13*
X628800Y578600D03*
X629000Y509600D03*
D137*
X629000Y534400D03*
D13*
X629000Y559200D03*
X629000Y574400D03*
D320*
X629000Y576500D03*
D13*
X629000Y578600D03*
D140*
X629200Y534400D03*
D31*
X629200Y576400D03*
D13*
X629200Y578600D03*
D155*
X629400Y534400D03*
D13*
X629400Y559400D03*
D327*
X629400Y576500D03*
D140*
X629600Y534600D03*
D13*
X629600Y574600D03*
D320*
X629600Y576700D03*
D13*
X629800Y509800D03*
D139*
X629800Y534700D03*
D13*
X629800Y559600D03*
D320*
X629800Y576700D03*
D13*
X630000Y509800D03*
D138*
X630000Y534900D03*
D31*
X630000Y576600D03*
D138*
X630200Y534700D03*
D13*
X630200Y559800D03*
X630200Y574800D03*
D75*
X630200Y576600D03*
D13*
X630200Y578400D03*
D160*
X630400Y534900D03*
D13*
X630400Y574800D03*
D75*
X630400Y576600D03*
D13*
X630400Y578400D03*
X630600Y510000D03*
D155*
X630600Y535000D03*
D13*
X630600Y560000D03*
D78*
X630600Y576500D03*
D13*
X630600Y578400D03*
X630800Y510000D03*
D140*
X630800Y535200D03*
D315*
X630800Y576600D03*
D140*
X631000Y535000D03*
D13*
X631000Y560200D03*
X631000Y575000D03*
D75*
X631000Y576800D03*
D163*
X631200Y535200D03*
D13*
X631200Y575000D03*
D75*
X631200Y576800D03*
D13*
X631400Y510200D03*
D138*
X631400Y535300D03*
D13*
X631400Y560400D03*
D75*
X631400Y576800D03*
D13*
X631600Y510200D03*
D140*
X631600Y535400D03*
D71*
X631600Y576500D03*
D13*
X631600Y578200D03*
D160*
X631800Y535300D03*
D13*
X631800Y560600D03*
D71*
X631800Y576500D03*
D13*
X631800Y578200D03*
X632000Y510400D03*
D140*
X632000Y535600D03*
D13*
X632000Y560800D03*
X632000Y575200D03*
D300*
X632000Y576700D03*
D13*
X632000Y578200D03*
X632200Y510400D03*
D140*
X632200Y535600D03*
D13*
X632200Y560800D03*
X632200Y575200D03*
D303*
X632200Y576800D03*
D163*
X632400Y535600D03*
D13*
X632400Y561000D03*
D71*
X632400Y576700D03*
D13*
X632600Y510600D03*
D163*
X632600Y536000D03*
D71*
X632600Y576700D03*
D13*
X632800Y510600D03*
D160*
X632800Y535900D03*
D13*
X632800Y561200D03*
X632800Y575400D03*
D68*
X632800Y576700D03*
D13*
X632800Y578000D03*
D142*
X633000Y536000D03*
D13*
X633000Y575400D03*
D68*
X633000Y576700D03*
D13*
X633000Y578000D03*
D141*
X633200Y535900D03*
D13*
X633200Y561400D03*
X633200Y575400D03*
D68*
X633200Y576700D03*
D13*
X633200Y578000D03*
X633400Y510800D03*
D141*
X633400Y536300D03*
D300*
X633400Y576700D03*
D141*
X633600Y536100D03*
D13*
X633600Y561600D03*
D300*
X633600Y576700D03*
D147*
X633800Y536300D03*
D300*
X633800Y576700D03*
D13*
X634000Y511000D03*
D163*
X634000Y536400D03*
D13*
X634000Y561800D03*
X634000Y575600D03*
D68*
X634000Y576900D03*
D147*
X634200Y536500D03*
D13*
X634200Y575600D03*
D63*
X634200Y576700D03*
D13*
X634200Y577800D03*
X634400Y511200D03*
D163*
X634400Y536600D03*
D13*
X634400Y562000D03*
X634400Y575600D03*
D63*
X634400Y576700D03*
D13*
X634400Y577800D03*
X634600Y511200D03*
D142*
X634600Y536800D03*
D68*
X634600Y576500D03*
D13*
X634600Y577800D03*
D142*
X634800Y536600D03*
D13*
X634800Y562200D03*
D68*
X634800Y576700D03*
D13*
X635000Y511400D03*
D163*
X635000Y536800D03*
D13*
X635000Y562200D03*
D68*
X635000Y576700D03*
D13*
X635200Y511400D03*
D141*
X635200Y536900D03*
D13*
X635200Y562400D03*
D68*
X635200Y576700D03*
D142*
X635400Y536800D03*
D13*
X635400Y562400D03*
X635400Y575800D03*
D14*
X635400Y576700D03*
D13*
X635400Y577600D03*
X635600Y511600D03*
D141*
X635600Y537100D03*
D13*
X635600Y575800D03*
D14*
X635600Y576700D03*
D13*
X635600Y577600D03*
D142*
X635800Y537000D03*
D13*
X635800Y562600D03*
X635800Y575800D03*
D14*
X635800Y576700D03*
D13*
X635800Y577600D03*
X636000Y511800D03*
D141*
X636000Y537300D03*
D13*
X636000Y575800D03*
D57*
X636000Y576800D03*
D13*
X636200Y511800D03*
D141*
X636200Y537300D03*
D13*
X636200Y562800D03*
D63*
X636200Y576700D03*
D147*
X636400Y537300D03*
D63*
X636400Y576700D03*
D13*
X636600Y512000D03*
D141*
X636600Y537500D03*
D13*
X636600Y563000D03*
D14*
X636600Y576500D03*
D13*
X636600Y577400D03*
D168*
X636800Y537600D03*
D14*
X636800Y576500D03*
D13*
X636800Y577400D03*
X637000Y512200D03*
D141*
X637000Y537700D03*
D13*
X637000Y563200D03*
X637000Y576000D03*
D10*
X637000Y576700D03*
D13*
X637000Y577400D03*
D168*
X637200Y537800D03*
D13*
X637200Y576000D03*
D11*
X637200Y576800D03*
D13*
X637400Y512400D03*
D141*
X637400Y537900D03*
D13*
X637400Y563400D03*
X637400Y576000D03*
D11*
X637400Y576800D03*
D168*
X637600Y538000D03*
D13*
X637600Y576000D03*
D11*
X637600Y576800D03*
D13*
X637800Y512600D03*
D141*
X637800Y538100D03*
D13*
X637800Y576000D03*
D12*
X637800Y576600D03*
D13*
X637800Y577200D03*
X638000Y512600D03*
D141*
X638000Y538100D03*
D13*
X638000Y563600D03*
D11*
X638000Y576400D03*
D13*
X638000Y577200D03*
X638200Y512800D03*
D142*
X638200Y538400D03*
D10*
X638200Y576500D03*
D13*
X638200Y577200D03*
X638400Y512800D03*
D141*
X638400Y538300D03*
D13*
X638400Y563800D03*
D11*
X638400Y576600D03*
D168*
X638600Y538400D03*
D11*
X638600Y576600D03*
D13*
X638800Y513000D03*
D141*
X638800Y538500D03*
D13*
X638800Y564000D03*
D11*
X638800Y576600D03*
D13*
X639000Y513200D03*
D142*
X639000Y538800D03*
D12*
X639000Y576400D03*
D13*
X639000Y577000D03*
X639200Y513200D03*
D141*
X639200Y538700D03*
D13*
X639200Y576200D03*
X639200Y576600D03*
X639200Y577000D03*
X639400Y513400D03*
D163*
X639400Y538800D03*
D13*
X639400Y564200D03*
X639400Y576200D03*
X639400Y576600D03*
D142*
X639600Y539000D03*
D13*
X639600Y576200D03*
D21*
X639600Y576700D03*
D13*
X639800Y513600D03*
D163*
X639800Y539000D03*
D13*
X639800Y564400D03*
X639800Y576200D03*
D21*
X639800Y576700D03*
D142*
X640000Y539200D03*
D13*
X640000Y576200D03*
X640000Y576800D03*
X640200Y513800D03*
D163*
X640200Y539200D03*
D13*
X640200Y564600D03*
X640200Y576200D03*
X640200Y576800D03*
D141*
X640400Y539100D03*
D13*
X640400Y564600D03*
D21*
X640400Y576300D03*
D13*
X640400Y576800D03*
X640600Y514000D03*
D141*
X640600Y539500D03*
D21*
X640600Y576500D03*
D141*
X640800Y539300D03*
D13*
X640800Y564800D03*
D21*
X640800Y576500D03*
D13*
X641000Y514200D03*
D141*
X641000Y539700D03*
D21*
X641000Y576500D03*
D13*
X641200Y514400D03*
D160*
X641200Y539700D03*
D21*
X641200Y576500D03*
D163*
X641400Y539600D03*
D13*
X641400Y565000D03*
D21*
X641400Y576500D03*
D13*
X641600Y514600D03*
D163*
X641600Y540000D03*
D21*
X641600Y576500D03*
D163*
X641800Y539800D03*
D13*
X641800Y565200D03*
X641800Y576400D03*
X642000Y514800D03*
D140*
X642000Y540000D03*
D13*
X642000Y565200D03*
X642000Y576400D03*
X642200Y515000D03*
D160*
X642200Y540300D03*
D13*
X642200Y576400D03*
D160*
X642400Y540100D03*
D13*
X642400Y565400D03*
X642600Y515200D03*
D160*
X642600Y540500D03*
D13*
X642800Y515400D03*
D140*
X642800Y540600D03*
X643000Y540400D03*
D13*
X643000Y565600D03*
X643200Y515600D03*
D140*
X643200Y540800D03*
D13*
X643400Y515800D03*
D155*
X643400Y540800D03*
X643600Y540800D03*
D13*
X643600Y565800D03*
X643800Y516000D03*
D138*
X643800Y541100D03*
D13*
X644000Y516200D03*
D139*
X644000Y541100D03*
D155*
X644200Y541000D03*
D13*
X644200Y566000D03*
X644400Y516400D03*
D155*
X644400Y541400D03*
D13*
X644600Y516600D03*
D139*
X644600Y541500D03*
X644800Y541300D03*
D13*
X644800Y566200D03*
D139*
X645000Y541700D03*
D13*
X645200Y517000D03*
D137*
X645200Y541800D03*
D13*
X645400Y517200D03*
D151*
X645400Y541800D03*
D13*
X645400Y566400D03*
D135*
X645600Y541700D03*
D13*
X645600Y566400D03*
X645800Y517400D03*
D135*
X645800Y542100D03*
D13*
X646000Y517600D03*
D151*
X646000Y542200D03*
D13*
X646200Y517800D03*
D146*
X646200Y542200D03*
D13*
X646200Y566600D03*
X646400Y518000D03*
D134*
X646400Y542300D03*
D13*
X646400Y566600D03*
D151*
X646600Y542400D03*
D13*
X646800Y518200D03*
D134*
X646800Y542500D03*
D13*
X646800Y566800D03*
X647000Y518400D03*
D129*
X647000Y542600D03*
D13*
X647000Y566800D03*
X647200Y518600D03*
D134*
X647200Y542900D03*
D13*
X647400Y518800D03*
D129*
X647400Y543000D03*
X647600Y542800D03*
D13*
X647600Y567000D03*
X647800Y519000D03*
D136*
X647800Y543000D03*
D13*
X647800Y567000D03*
X648000Y519200D03*
D127*
X648000Y543100D03*
D13*
X648000Y567000D03*
X648200Y519400D03*
D136*
X648200Y543400D03*
D13*
X648400Y519600D03*
D127*
X648400Y543500D03*
D13*
X648600Y519800D03*
D132*
X648600Y543500D03*
D13*
X648600Y567200D03*
D126*
X648800Y543400D03*
D13*
X648800Y567200D03*
D127*
X649000Y543700D03*
D13*
X649200Y520200D03*
D132*
X649200Y543900D03*
D13*
X649400Y520400D03*
D410*
X649400Y544000D03*
D13*
X649600Y520600D03*
D124*
X649600Y544000D03*
D13*
X649600Y567400D03*
X649800Y520800D03*
D128*
X649800Y544100D03*
D13*
X649800Y567400D03*
X650000Y521000D03*
D124*
X650000Y544400D03*
D13*
X650200Y521200D03*
D128*
X650200Y544500D03*
D13*
X650400Y521400D03*
D121*
X650400Y544600D03*
X650600Y544400D03*
D13*
X650600Y567600D03*
D122*
X650800Y544600D03*
D13*
X650800Y567600D03*
X651000Y521800D03*
D409*
X651000Y544700D03*
D13*
X651000Y567600D03*
X651200Y522000D03*
D407*
X651200Y544800D03*
D13*
X651200Y567600D03*
X651400Y522200D03*
D409*
X651400Y545100D03*
D13*
X651600Y522400D03*
D407*
X651600Y545200D03*
D13*
X651800Y522600D03*
D119*
X651800Y545300D03*
D13*
X652000Y522800D03*
D117*
X652000Y545300D03*
D13*
X652000Y567800D03*
X652200Y523000D03*
D408*
X652200Y545400D03*
D13*
X652200Y567800D03*
X652400Y523200D03*
D116*
X652400Y545500D03*
D13*
X652400Y567800D03*
X652600Y523400D03*
D113*
X652600Y545600D03*
D13*
X652600Y567800D03*
X652800Y523600D03*
D116*
X652800Y545900D03*
D13*
X653000Y523800D03*
D113*
X653000Y546000D03*
D13*
X653200Y524000D03*
D115*
X653200Y546100D03*
D13*
X653400Y524200D03*
D112*
X653400Y546200D03*
D13*
X653600Y524400D03*
D114*
X653600Y546300D03*
D112*
X653800Y546200D03*
X654000Y546400D03*
D111*
X654200Y546300D03*
D13*
X654200Y568000D03*
X654400Y525000D03*
D109*
X654400Y546500D03*
D13*
X654400Y568000D03*
X654600Y525200D03*
D107*
X654600Y546600D03*
D13*
X654600Y568000D03*
X654800Y525400D03*
D411*
X654800Y546700D03*
D13*
X654800Y568000D03*
X655000Y525600D03*
D106*
X655000Y546800D03*
D13*
X655000Y568000D03*
X655200Y525800D03*
D104*
X655200Y546900D03*
D13*
X655200Y568000D03*
X655400Y526000D03*
D103*
X655400Y547000D03*
D13*
X655400Y568000D03*
X655600Y526200D03*
D102*
X655600Y547100D03*
D13*
X655600Y568000D03*
X655800Y526400D03*
D103*
X655800Y547400D03*
D13*
X656000Y526600D03*
D102*
X656000Y547500D03*
D13*
X656200Y526800D03*
D108*
X656200Y547600D03*
D13*
X656400Y527000D03*
D101*
X656400Y547700D03*
D13*
X656600Y527200D03*
D99*
X656600Y547800D03*
D13*
X656800Y527400D03*
D412*
X656800Y547900D03*
D13*
X657000Y527600D03*
D105*
X657000Y548000D03*
D13*
X657200Y527800D03*
D98*
X657200Y548100D03*
D13*
X657400Y528000D03*
D96*
X657400Y548200D03*
D13*
X657600Y528200D03*
D95*
X657600Y548300D03*
D13*
X657800Y528400D03*
D94*
X657800Y548400D03*
D13*
X658000Y528600D03*
D413*
X658000Y548500D03*
D13*
X658200Y528800D03*
D93*
X658200Y548600D03*
D13*
X658400Y529000D03*
D91*
X658400Y548700D03*
D13*
X658600Y529200D03*
D89*
X658600Y548800D03*
D13*
X658800Y529400D03*
D414*
X658800Y548900D03*
D13*
X659000Y529600D03*
D84*
X659000Y548800D03*
D13*
X659000Y568000D03*
X659200Y529800D03*
D86*
X659200Y548900D03*
D13*
X659200Y568000D03*
X659400Y530000D03*
D97*
X659400Y549000D03*
D13*
X659400Y568000D03*
X659600Y530200D03*
D81*
X659600Y549100D03*
D13*
X659600Y568000D03*
X659800Y530400D03*
D415*
X659800Y549200D03*
D13*
X659800Y568000D03*
X660000Y530600D03*
D79*
X660000Y549300D03*
D13*
X660000Y568000D03*
X660200Y530800D03*
D80*
X660200Y549400D03*
D13*
X660200Y568000D03*
X660400Y531000D03*
D79*
X660400Y549700D03*
D13*
X660600Y531200D03*
D73*
X660600Y549700D03*
D13*
X660800Y531400D03*
D76*
X660800Y549800D03*
D13*
X661000Y531600D03*
D416*
X661000Y549900D03*
D13*
X661200Y531800D03*
D69*
X661200Y550000D03*
D13*
X661400Y532000D03*
D92*
X661400Y550100D03*
D13*
X661600Y532200D03*
D66*
X661600Y550200D03*
D13*
X661800Y532400D03*
D90*
X661800Y550300D03*
D13*
X662000Y532600D03*
D64*
X662000Y550400D03*
D13*
X662200Y532800D03*
D55*
X662200Y550300D03*
D13*
X662200Y567800D03*
X662400Y533000D03*
D87*
X662400Y550400D03*
D13*
X662400Y567800D03*
X662600Y533200D03*
D53*
X662600Y550500D03*
D13*
X662600Y567800D03*
X662800Y533400D03*
D87*
X662800Y550800D03*
D13*
X663000Y533600D03*
D85*
X663000Y550800D03*
D13*
X663200Y533800D03*
D45*
X663200Y550900D03*
D13*
X663400Y534000D03*
D83*
X663400Y551000D03*
D13*
X663600Y534200D03*
D43*
X663600Y550900D03*
D13*
X663600Y567600D03*
X663800Y534400D03*
D40*
X663800Y551000D03*
D13*
X663800Y567600D03*
X664000Y534600D03*
D38*
X664000Y551100D03*
D13*
X664000Y567600D03*
X664200Y534800D03*
D36*
X664200Y551200D03*
D13*
X664200Y567600D03*
X664400Y535000D03*
D36*
X664400Y551400D03*
D13*
X664600Y535200D03*
D271*
X664600Y551500D03*
D13*
X664800Y535400D03*
D276*
X664800Y551600D03*
D13*
X665000Y535600D03*
D279*
X665000Y551700D03*
D13*
X665200Y535800D03*
D286*
X665200Y551600D03*
D13*
X665200Y567400D03*
X665400Y536000D03*
D288*
X665400Y551700D03*
D13*
X665400Y567400D03*
X665600Y536200D03*
D30*
X665600Y551800D03*
D13*
X665600Y567400D03*
X665800Y536400D03*
D29*
X665800Y551900D03*
D13*
X666000Y536600D03*
D29*
X666000Y552100D03*
D13*
X666200Y536800D03*
D306*
X666200Y552200D03*
D13*
X666400Y537000D03*
D323*
X666400Y552100D03*
D13*
X666400Y567200D03*
X666600Y537200D03*
D27*
X666600Y552200D03*
D13*
X666600Y567200D03*
X666800Y537400D03*
D331*
X666800Y552300D03*
D13*
X666800Y567200D03*
X667000Y537600D03*
D331*
X667000Y552500D03*
D13*
X667200Y537800D03*
D82*
X667200Y552600D03*
D13*
X667400Y538000D03*
D77*
X667400Y552500D03*
D13*
X667400Y567000D03*
X667600Y538200D03*
D74*
X667600Y552600D03*
D13*
X667600Y567000D03*
D77*
X667800Y552500D03*
D13*
X667800Y567000D03*
D77*
X668000Y552700D03*
D13*
X668200Y538600D03*
D364*
X668200Y552900D03*
D13*
X668400Y538800D03*
D370*
X668400Y552800D03*
D13*
X668400Y566800D03*
X668600Y539000D03*
D72*
X668600Y552900D03*
D13*
X668600Y566800D03*
X668800Y539200D03*
D70*
X668800Y553000D03*
D13*
X668800Y566800D03*
X669000Y539400D03*
D70*
X669000Y553200D03*
D13*
X669200Y539600D03*
D23*
X669200Y553300D03*
D13*
X669400Y539800D03*
D22*
X669400Y553200D03*
D13*
X669400Y566600D03*
X669600Y540000D03*
D65*
X669600Y553300D03*
D13*
X669600Y566600D03*
X669800Y540200D03*
D65*
X669800Y553500D03*
D22*
X670000Y553400D03*
D13*
X670200Y540400D03*
D392*
X670200Y553400D03*
D13*
X670200Y566400D03*
X670400Y540600D03*
D59*
X670400Y553500D03*
D13*
X670400Y566400D03*
X670600Y540800D03*
D59*
X670600Y553700D03*
D13*
X670800Y541000D03*
D395*
X670800Y553800D03*
D13*
X671000Y541200D03*
D400*
X671000Y553700D03*
D13*
X671000Y566200D03*
X671200Y541400D03*
D54*
X671200Y553800D03*
D13*
X671200Y566200D03*
D56*
X671400Y553800D03*
D13*
X671600Y541600D03*
D54*
X671600Y554000D03*
D13*
X671800Y541800D03*
D402*
X671800Y553900D03*
D13*
X671800Y566000D03*
X672000Y542000D03*
D404*
X672000Y554000D03*
D13*
X672200Y542200D03*
D404*
X672200Y554200D03*
D405*
X672400Y553900D03*
D13*
X672400Y565800D03*
X672600Y542400D03*
D406*
X672600Y554100D03*
D13*
X672600Y565800D03*
X672800Y542600D03*
D406*
X672800Y554300D03*
D13*
X673000Y542800D03*
D379*
X673000Y554400D03*
D13*
X673200Y543000D03*
D19*
X673200Y554300D03*
D13*
X673200Y565600D03*
D41*
X673400Y554200D03*
D13*
X673600Y543200D03*
D19*
X673600Y554500D03*
D13*
X673800Y543400D03*
D388*
X673800Y554400D03*
D13*
X673800Y565400D03*
D387*
X674000Y554300D03*
D13*
X674200Y543600D03*
D388*
X674200Y554600D03*
D13*
X674400Y543800D03*
D393*
X674400Y554500D03*
D13*
X674400Y565200D03*
X674600Y544000D03*
D396*
X674600Y554600D03*
D390*
X674800Y554600D03*
D13*
X675000Y544200D03*
D398*
X675000Y554600D03*
D13*
X675000Y565000D03*
X675200Y544400D03*
D399*
X675200Y554700D03*
D13*
X675200Y565000D03*
D394*
X675400Y554700D03*
D13*
X675600Y544600D03*
D51*
X675600Y554700D03*
D13*
X675600Y564800D03*
X675800Y544800D03*
D37*
X675800Y554800D03*
D13*
X675800Y564800D03*
D401*
X676000Y554800D03*
D13*
X676200Y545000D03*
D130*
X676200Y554800D03*
D13*
X676200Y564600D03*
X676400Y545200D03*
D131*
X676400Y554900D03*
D18*
X676600Y554900D03*
D13*
X676800Y545400D03*
D218*
X676800Y554900D03*
D13*
X676800Y564400D03*
X677000Y545600D03*
D218*
X677000Y555100D03*
D233*
X677200Y554900D03*
D13*
X677200Y564200D03*
X677400Y545800D03*
D236*
X677400Y555000D03*
D13*
X677400Y564200D03*
D231*
X677600Y555000D03*
D13*
X677800Y546000D03*
D241*
X677800Y555000D03*
D13*
X677800Y564000D03*
X678000Y546200D03*
D241*
X678000Y555200D03*
D13*
X678200Y546200D03*
D246*
X678200Y555000D03*
D13*
X678200Y563800D03*
X678400Y546400D03*
D247*
X678400Y555100D03*
D13*
X678400Y563800D03*
D244*
X678600Y555100D03*
D13*
X678800Y546600D03*
D17*
X678800Y555100D03*
D13*
X678800Y563600D03*
D249*
X679000Y555000D03*
D13*
X679200Y546800D03*
D17*
X679200Y555300D03*
D254*
X679400Y555000D03*
D13*
X679400Y563400D03*
X679600Y547000D03*
D49*
X679600Y555300D03*
D217*
X679800Y555000D03*
D13*
X679800Y563200D03*
X680000Y547200D03*
D216*
X680000Y555300D03*
D144*
X680200Y555000D03*
D13*
X680200Y563000D03*
X680400Y547400D03*
D229*
X680400Y555300D03*
D143*
X680600Y555000D03*
D13*
X680600Y562800D03*
X680800Y547600D03*
D235*
X680800Y555200D03*
X681000Y555000D03*
D13*
X681000Y562600D03*
X681200Y547800D03*
D240*
X681200Y555200D03*
D13*
X681200Y562600D03*
D34*
X681400Y555300D03*
D13*
X681600Y548000D03*
D16*
X681600Y555200D03*
D13*
X681600Y562400D03*
X681800Y548000D03*
D243*
X681800Y555300D03*
D16*
X682000Y555000D03*
D13*
X682000Y562200D03*
X682200Y548200D03*
D248*
X682200Y555300D03*
D251*
X682400Y555000D03*
D13*
X682400Y562000D03*
X682600Y548400D03*
D253*
X682600Y555300D03*
D13*
X682800Y548400D03*
D257*
X682800Y555100D03*
D13*
X682800Y561800D03*
D253*
X683000Y555100D03*
D13*
X683200Y548600D03*
D260*
X683200Y555100D03*
D13*
X683200Y561600D03*
D257*
X683400Y555100D03*
D260*
X683600Y554900D03*
D13*
X683600Y561400D03*
X683800Y548800D03*
D262*
X683800Y555200D03*
D264*
X684000Y554900D03*
D13*
X684000Y561200D03*
X684200Y549000D03*
D266*
X684200Y555200D03*
D13*
X684400Y549000D03*
D48*
X684400Y555000D03*
D13*
X684400Y561000D03*
D266*
X684600Y555000D03*
D13*
X684800Y549200D03*
D305*
X684800Y555000D03*
D13*
X684800Y560800D03*
X685000Y549200D03*
D308*
X685000Y554900D03*
D13*
X685000Y560600D03*
D50*
X685200Y554900D03*
D13*
X685400Y549400D03*
D316*
X685400Y554900D03*
D13*
X685400Y560400D03*
X685600Y549400D03*
D312*
X685600Y555000D03*
D316*
X685800Y554700D03*
D13*
X685800Y560200D03*
D318*
X686000Y554600D03*
D13*
X686000Y560000D03*
X686200Y549600D03*
D325*
X686200Y554800D03*
D13*
X686200Y560000D03*
X686400Y549600D03*
D32*
X686400Y554700D03*
D13*
X686400Y559800D03*
D321*
X686600Y554700D03*
D32*
X686800Y554500D03*
D13*
X686800Y559600D03*
X687000Y549800D03*
D334*
X687000Y554800D03*
D13*
X687200Y549800D03*
D386*
X687200Y554600D03*
D13*
X687200Y559400D03*
D386*
X687400Y554400D03*
D13*
X687400Y559200D03*
D329*
X687600Y554500D03*
D13*
X687800Y550000D03*
D347*
X687800Y554500D03*
D13*
X687800Y559000D03*
X688000Y550000D03*
D15*
X688000Y554400D03*
D13*
X688000Y558800D03*
D347*
X688200Y554300D03*
D15*
X688400Y554200D03*
D13*
X688400Y558600D03*
X688600Y550200D03*
D355*
X688600Y554500D03*
D13*
X688800Y550200D03*
D353*
X688800Y554300D03*
X689000Y554100D03*
D13*
X689000Y558200D03*
D350*
X689200Y554200D03*
D13*
X689400Y550400D03*
D363*
X689400Y554200D03*
D13*
X689400Y558000D03*
X689600Y550400D03*
D47*
X689600Y554100D03*
D13*
X689600Y557800D03*
X689800Y550400D03*
D363*
X689800Y554200D03*
D47*
X690000Y553900D03*
D13*
X690000Y557600D03*
D52*
X690200Y553800D03*
D13*
X690200Y557400D03*
D120*
X690400Y553700D03*
D13*
X690400Y557200D03*
X690600Y550600D03*
D359*
X690600Y553900D03*
D13*
X690800Y550600D03*
D357*
X690800Y553800D03*
D13*
X690800Y557000D03*
D357*
X691000Y553600D03*
D13*
X691000Y556800D03*
D359*
X691200Y553700D03*
D352*
X691400Y553500D03*
D13*
X691400Y556600D03*
X691600Y550800D03*
D343*
X691600Y553600D03*
D13*
X691600Y556400D03*
X691800Y550800D03*
D345*
X691800Y553700D03*
D13*
X692000Y550800D03*
D339*
X692000Y553500D03*
D13*
X692000Y556200D03*
D339*
X692200Y553300D03*
D13*
X692200Y556000D03*
D337*
X692400Y553200D03*
D13*
X692400Y555800D03*
D339*
X692600Y553300D03*
D333*
X692800Y553100D03*
D13*
X692800Y555600D03*
X693000Y551000D03*
D31*
X693000Y553200D03*
D13*
X693000Y555400D03*
X693200Y551000D03*
D320*
X693200Y553100D03*
D13*
X693200Y555200D03*
X693400Y551000D03*
D31*
X693400Y553200D03*
D320*
X693600Y552900D03*
D13*
X693600Y555000D03*
D315*
X693800Y552800D03*
D13*
X693800Y554800D03*
D78*
X694000Y552700D03*
D13*
X694000Y554600D03*
D315*
X694200Y552800D03*
D13*
X694400Y551200D03*
D303*
X694400Y552800D03*
D13*
X694400Y554400D03*
X694600Y551200D03*
D300*
X694600Y552700D03*
D13*
X694600Y554200D03*
X694800Y551200D03*
D298*
X694800Y552600D03*
D13*
X694800Y554000D03*
X695000Y551200D03*
D300*
X695000Y552700D03*
D298*
X695200Y552400D03*
D13*
X695200Y553800D03*
D68*
X695400Y552300D03*
D13*
X695400Y553600D03*
D60*
X695600Y552200D03*
D13*
X695600Y553400D03*
D63*
X695800Y552100D03*
D13*
X695800Y553200D03*
D60*
X696000Y552200D03*
D13*
X696200Y551400D03*
D11*
X696200Y552200D03*
D13*
X696200Y553000D03*
X696400Y551400D03*
D10*
X696400Y552100D03*
D13*
X696400Y552800D03*
X696600Y551400D03*
D12*
X696600Y552000D03*
D13*
X696600Y552600D03*
X696800Y551400D03*
D10*
X696800Y552100D03*
D12*
X697000Y551800D03*
D13*
X697000Y552400D03*
D21*
X697200Y551700D03*
D13*
X697200Y552200D03*
X697400Y551600D03*
X697400Y552000D03*
D21*
X697600Y551700D03*
D13*
X697800Y551600D03*
D417*
X178Y-1000D02*
X89Y-1000D01*
X72Y-998D01*
X55Y-993D01*
X40Y-985D01*
X26Y-974D01*
X15Y-960D01*
X7Y-945D01*
X2Y-928D01*
X0Y-911D01*
X0Y-689D01*
X2Y-672D01*
X7Y-655D01*
X15Y-640D01*
X26Y-626D01*
X40Y-615D01*
X55Y-607D01*
X72Y-602D01*
X89Y-600D01*
X178Y-600D01*
X304Y-944D02*
X304Y-967D01*
X304Y-944D02*
X327Y-944D01*
X327Y-967D01*
X304Y-967D01*
X304Y-789D02*
X304Y-767D01*
X327Y-767D01*
X327Y-789D01*
X304Y-789D01*
X455Y-1044D02*
X632Y-556D01*
X768Y-600D02*
X768Y-889D01*
X769Y-889D02*
X771Y-908D01*
X776Y-927D01*
X784Y-944D01*
X795Y-960D01*
X809Y-974D01*
X824Y-985D01*
X842Y-993D01*
X861Y-998D01*
X880Y-1000D01*
X899Y-998D01*
X918Y-993D01*
X935Y-985D01*
X951Y-974D01*
X965Y-960D01*
X976Y-945D01*
X984Y-927D01*
X989Y-908D01*
X991Y-889D01*
X991Y-600D01*
X1172Y-844D02*
X1283Y-889D01*
X1171Y-845D02*
X1160Y-838D01*
X1150Y-830D01*
X1142Y-819D01*
X1137Y-806D01*
X1135Y-793D01*
X1136Y-780D01*
X1140Y-767D01*
X1147Y-755D01*
X1157Y-746D01*
X1168Y-739D01*
X1181Y-734D01*
X1194Y-733D01*
X1195Y-733D02*
X1220Y-735D01*
X1246Y-739D01*
X1270Y-746D01*
X1294Y-755D01*
X1284Y-888D02*
X1295Y-895D01*
X1305Y-903D01*
X1313Y-914D01*
X1318Y-927D01*
X1320Y-940D01*
X1319Y-953D01*
X1315Y-966D01*
X1308Y-978D01*
X1298Y-987D01*
X1287Y-994D01*
X1274Y-999D01*
X1261Y-1000D01*
X1230Y-998D01*
X1199Y-994D01*
X1168Y-987D01*
X1138Y-978D01*
X1517Y-1000D02*
X1628Y-1000D01*
X1517Y-1000D02*
X1502Y-998D01*
X1488Y-993D01*
X1475Y-985D01*
X1465Y-975D01*
X1457Y-962D01*
X1452Y-948D01*
X1450Y-933D01*
X1451Y-933D02*
X1451Y-822D01*
X1453Y-803D01*
X1459Y-786D01*
X1468Y-770D01*
X1480Y-756D01*
X1496Y-745D01*
X1512Y-737D01*
X1531Y-733D01*
X1549Y-733D01*
X1568Y-737D01*
X1585Y-745D01*
X1600Y-756D01*
X1612Y-770D01*
X1621Y-786D01*
X1627Y-803D01*
X1629Y-822D01*
X1628Y-822D02*
X1628Y-867D01*
X1451Y-867D01*
X1776Y-1000D02*
X1776Y-733D01*
X1909Y-733D01*
X1909Y-778D01*
X2048Y-844D02*
X2159Y-889D01*
X2047Y-845D02*
X2036Y-838D01*
X2026Y-830D01*
X2018Y-819D01*
X2013Y-806D01*
X2011Y-793D01*
X2012Y-780D01*
X2016Y-767D01*
X2023Y-755D01*
X2033Y-746D01*
X2044Y-739D01*
X2057Y-734D01*
X2070Y-733D01*
X2071Y-733D02*
X2096Y-735D01*
X2122Y-739D01*
X2146Y-746D01*
X2170Y-755D01*
X2160Y-888D02*
X2171Y-895D01*
X2181Y-903D01*
X2189Y-914D01*
X2194Y-927D01*
X2196Y-940D01*
X2195Y-953D01*
X2191Y-966D01*
X2184Y-978D01*
X2174Y-987D01*
X2163Y-994D01*
X2150Y-999D01*
X2137Y-1000D01*
X2106Y-998D01*
X2075Y-994D01*
X2044Y-987D01*
X2014Y-978D01*
X2315Y-1044D02*
X2492Y-556D01*
X2705Y-1000D02*
X2794Y-1000D01*
X2705Y-1000D02*
X2688Y-998D01*
X2671Y-993D01*
X2656Y-985D01*
X2642Y-974D01*
X2631Y-960D01*
X2623Y-945D01*
X2618Y-928D01*
X2616Y-911D01*
X2616Y-689D01*
X2618Y-672D01*
X2623Y-655D01*
X2631Y-640D01*
X2642Y-626D01*
X2656Y-615D01*
X2671Y-607D01*
X2688Y-602D01*
X2705Y-600D01*
X2794Y-600D01*
X2915Y-822D02*
X2915Y-911D01*
X2914Y-822D02*
X2916Y-803D01*
X2922Y-786D01*
X2931Y-770D01*
X2943Y-756D01*
X2959Y-745D01*
X2975Y-737D01*
X2994Y-733D01*
X3012Y-733D01*
X3031Y-737D01*
X3048Y-745D01*
X3063Y-756D01*
X3075Y-770D01*
X3084Y-786D01*
X3090Y-803D01*
X3092Y-822D01*
X3092Y-911D01*
X3090Y-930D01*
X3084Y-947D01*
X3075Y-963D01*
X3063Y-977D01*
X3048Y-988D01*
X3031Y-996D01*
X3012Y-1000D01*
X2994Y-1000D01*
X2975Y-996D01*
X2959Y-988D01*
X2943Y-977D01*
X2931Y-963D01*
X2922Y-947D01*
X2916Y-930D01*
X2914Y-911D01*
X3403Y-1000D02*
X3403Y-600D01*
X3403Y-1000D02*
X3292Y-1000D01*
X3277Y-998D01*
X3263Y-993D01*
X3250Y-985D01*
X3240Y-975D01*
X3232Y-962D01*
X3227Y-948D01*
X3225Y-933D01*
X3226Y-933D02*
X3226Y-800D01*
X3225Y-800D02*
X3227Y-785D01*
X3232Y-771D01*
X3240Y-758D01*
X3250Y-748D01*
X3263Y-740D01*
X3277Y-735D01*
X3292Y-733D01*
X3403Y-733D01*
X3539Y-1133D02*
X3583Y-1133D01*
X3716Y-733D01*
X3539Y-733D02*
X3627Y-1000D01*
X3962Y-1000D02*
X3979Y-998D01*
X3996Y-993D01*
X4011Y-985D01*
X4025Y-974D01*
X4036Y-960D01*
X4044Y-945D01*
X4049Y-928D01*
X4051Y-911D01*
X3962Y-1000D02*
X3937Y-998D01*
X3913Y-994D01*
X3890Y-986D01*
X3868Y-975D01*
X3847Y-961D01*
X3829Y-944D01*
X3839Y-689D02*
X3841Y-672D01*
X3846Y-655D01*
X3854Y-640D01*
X3865Y-626D01*
X3879Y-615D01*
X3894Y-607D01*
X3911Y-602D01*
X3928Y-600D01*
X3949Y-601D01*
X3971Y-606D01*
X3991Y-612D01*
X4010Y-622D01*
X4028Y-633D01*
X3840Y-689D02*
X3842Y-708D01*
X3848Y-725D01*
X3857Y-742D01*
X3869Y-755D01*
X3884Y-767D01*
X4006Y-833D02*
X4021Y-845D01*
X4033Y-858D01*
X4042Y-875D01*
X4048Y-892D01*
X4050Y-911D01*
X4006Y-833D02*
X3884Y-767D01*
X4163Y-1044D02*
X4340Y-556D01*
X4464Y-711D02*
X4464Y-889D01*
X4464Y-711D02*
X4466Y-692D01*
X4471Y-673D01*
X4479Y-655D01*
X4490Y-640D01*
X4504Y-626D01*
X4520Y-615D01*
X4537Y-607D01*
X4556Y-602D01*
X4575Y-600D01*
X4594Y-602D01*
X4613Y-607D01*
X4631Y-615D01*
X4646Y-626D01*
X4660Y-640D01*
X4671Y-656D01*
X4679Y-673D01*
X4684Y-692D01*
X4686Y-711D01*
X4687Y-711D02*
X4687Y-889D01*
X4686Y-889D02*
X4684Y-908D01*
X4679Y-927D01*
X4671Y-945D01*
X4660Y-960D01*
X4646Y-974D01*
X4631Y-985D01*
X4613Y-993D01*
X4594Y-998D01*
X4575Y-1000D01*
X4556Y-998D01*
X4537Y-993D01*
X4520Y-985D01*
X4504Y-974D01*
X4490Y-960D01*
X4479Y-944D01*
X4471Y-927D01*
X4466Y-908D01*
X4464Y-889D01*
X4835Y-1000D02*
X4835Y-733D01*
X4946Y-733D01*
X4961Y-735D01*
X4975Y-740D01*
X4988Y-748D01*
X4998Y-758D01*
X5006Y-771D01*
X5011Y-785D01*
X5013Y-800D01*
X5012Y-800D02*
X5012Y-1000D01*
X5225Y-1000D02*
X5336Y-1000D01*
X5225Y-1000D02*
X5210Y-998D01*
X5196Y-993D01*
X5183Y-985D01*
X5173Y-975D01*
X5165Y-962D01*
X5160Y-948D01*
X5158Y-933D01*
X5159Y-933D02*
X5159Y-822D01*
X5158Y-822D02*
X5160Y-803D01*
X5166Y-786D01*
X5175Y-770D01*
X5187Y-756D01*
X5203Y-745D01*
X5219Y-737D01*
X5238Y-733D01*
X5256Y-733D01*
X5275Y-737D01*
X5292Y-745D01*
X5307Y-756D01*
X5319Y-770D01*
X5328Y-786D01*
X5334Y-803D01*
X5336Y-822D01*
X5336Y-867D01*
X5159Y-867D01*
X5484Y-1000D02*
X5484Y-600D01*
X5595Y-600D01*
X5614Y-602D01*
X5633Y-607D01*
X5651Y-615D01*
X5666Y-626D01*
X5680Y-640D01*
X5691Y-656D01*
X5699Y-673D01*
X5704Y-692D01*
X5706Y-711D01*
X5706Y-889D01*
X5704Y-908D01*
X5699Y-927D01*
X5691Y-945D01*
X5680Y-960D01*
X5666Y-974D01*
X5650Y-985D01*
X5633Y-993D01*
X5614Y-998D01*
X5595Y-1000D01*
X5484Y-1000D01*
X5868Y-1000D02*
X5868Y-733D01*
X6001Y-733D01*
X6001Y-778D01*
X6111Y-733D02*
X6111Y-1000D01*
X6100Y-622D02*
X6100Y-600D01*
X6122Y-600D01*
X6122Y-622D01*
X6100Y-622D01*
X6238Y-733D02*
X6327Y-1000D01*
X6416Y-733D01*
X6605Y-1000D02*
X6716Y-1000D01*
X6605Y-1000D02*
X6590Y-998D01*
X6576Y-993D01*
X6563Y-985D01*
X6553Y-975D01*
X6545Y-962D01*
X6540Y-948D01*
X6538Y-933D01*
X6538Y-822D01*
X6540Y-803D01*
X6546Y-786D01*
X6555Y-770D01*
X6567Y-756D01*
X6583Y-745D01*
X6599Y-737D01*
X6618Y-733D01*
X6636Y-733D01*
X6655Y-737D01*
X6672Y-745D01*
X6687Y-756D01*
X6699Y-770D01*
X6708Y-786D01*
X6714Y-803D01*
X6716Y-822D01*
X6716Y-867D01*
X6538Y-867D01*
X7046Y-844D02*
X7313Y-844D01*
X7655Y-889D02*
X7655Y-711D01*
X7657Y-692D01*
X7662Y-673D01*
X7670Y-655D01*
X7681Y-640D01*
X7695Y-626D01*
X7711Y-615D01*
X7728Y-607D01*
X7747Y-602D01*
X7766Y-600D01*
X7785Y-602D01*
X7804Y-607D01*
X7822Y-615D01*
X7837Y-626D01*
X7851Y-640D01*
X7862Y-656D01*
X7870Y-673D01*
X7875Y-692D01*
X7877Y-711D01*
X7877Y-889D01*
X7875Y-908D01*
X7870Y-927D01*
X7862Y-945D01*
X7851Y-960D01*
X7837Y-974D01*
X7822Y-985D01*
X7804Y-993D01*
X7785Y-998D01*
X7766Y-1000D01*
X7747Y-998D01*
X7728Y-993D01*
X7711Y-985D01*
X7695Y-974D01*
X7681Y-960D01*
X7670Y-944D01*
X7662Y-927D01*
X7657Y-908D01*
X7655Y-889D01*
X7832Y-911D02*
X7921Y-1000D01*
X8026Y-933D02*
X8026Y-733D01*
X8026Y-933D02*
X8028Y-948D01*
X8033Y-962D01*
X8041Y-975D01*
X8051Y-985D01*
X8064Y-993D01*
X8078Y-998D01*
X8093Y-1000D01*
X8204Y-1000D01*
X8204Y-733D01*
X8417Y-1000D02*
X8528Y-1000D01*
X8417Y-1000D02*
X8402Y-998D01*
X8388Y-993D01*
X8375Y-985D01*
X8365Y-975D01*
X8357Y-962D01*
X8352Y-948D01*
X8350Y-933D01*
X8350Y-822D01*
X8352Y-803D01*
X8358Y-786D01*
X8367Y-770D01*
X8379Y-756D01*
X8395Y-745D01*
X8411Y-737D01*
X8430Y-733D01*
X8448Y-733D01*
X8467Y-737D01*
X8484Y-745D01*
X8499Y-756D01*
X8511Y-770D01*
X8520Y-786D01*
X8526Y-803D01*
X8528Y-822D01*
X8528Y-867D01*
X8350Y-867D01*
X8729Y-1000D02*
X8840Y-1000D01*
X8729Y-1000D02*
X8714Y-998D01*
X8700Y-993D01*
X8687Y-985D01*
X8677Y-975D01*
X8669Y-962D01*
X8664Y-948D01*
X8662Y-933D01*
X8662Y-822D01*
X8664Y-803D01*
X8670Y-786D01*
X8679Y-770D01*
X8691Y-756D01*
X8707Y-745D01*
X8723Y-737D01*
X8742Y-733D01*
X8760Y-733D01*
X8779Y-737D01*
X8796Y-745D01*
X8811Y-756D01*
X8823Y-770D01*
X8832Y-786D01*
X8838Y-803D01*
X8840Y-822D01*
X8840Y-867D01*
X8662Y-867D01*
X8986Y-1000D02*
X8986Y-733D01*
X9097Y-733D01*
X9112Y-735D01*
X9126Y-740D01*
X9139Y-748D01*
X9149Y-758D01*
X9157Y-771D01*
X9162Y-785D01*
X9164Y-800D01*
X9164Y-1000D01*
X9344Y-844D02*
X9455Y-889D01*
X9343Y-845D02*
X9332Y-838D01*
X9322Y-830D01*
X9314Y-819D01*
X9309Y-806D01*
X9307Y-793D01*
X9308Y-780D01*
X9312Y-767D01*
X9319Y-755D01*
X9329Y-746D01*
X9340Y-739D01*
X9353Y-734D01*
X9366Y-733D01*
X9391Y-735D01*
X9417Y-739D01*
X9441Y-746D01*
X9465Y-755D01*
X9455Y-888D02*
X9466Y-895D01*
X9476Y-903D01*
X9484Y-914D01*
X9489Y-927D01*
X9491Y-940D01*
X9490Y-953D01*
X9486Y-966D01*
X9479Y-978D01*
X9469Y-987D01*
X9458Y-994D01*
X9445Y-999D01*
X9432Y-1000D01*
X9433Y-1000D02*
X9402Y-998D01*
X9371Y-994D01*
X9340Y-987D01*
X9310Y-978D01*
X9631Y-933D02*
X9631Y-600D01*
X9630Y-933D02*
X9632Y-948D01*
X9637Y-962D01*
X9645Y-975D01*
X9655Y-985D01*
X9668Y-993D01*
X9682Y-998D01*
X9697Y-1000D01*
X9891Y-844D02*
X9991Y-844D01*
X9891Y-844D02*
X9875Y-846D01*
X9859Y-851D01*
X9845Y-859D01*
X9833Y-870D01*
X9823Y-883D01*
X9817Y-898D01*
X9813Y-914D01*
X9813Y-930D01*
X9817Y-946D01*
X9823Y-961D01*
X9833Y-974D01*
X9845Y-985D01*
X9859Y-993D01*
X9875Y-998D01*
X9891Y-1000D01*
X9991Y-1000D01*
X9991Y-800D01*
X9989Y-785D01*
X9984Y-771D01*
X9976Y-758D01*
X9966Y-748D01*
X9953Y-740D01*
X9939Y-735D01*
X9924Y-733D01*
X9836Y-733D01*
X10150Y-733D02*
X10150Y-1000D01*
X10150Y-733D02*
X10261Y-733D01*
X10276Y-735D01*
X10290Y-740D01*
X10303Y-748D01*
X10313Y-758D01*
X10321Y-771D01*
X10326Y-785D01*
X10328Y-800D01*
X10328Y-1000D01*
X10651Y-1000D02*
X10651Y-600D01*
X10651Y-1000D02*
X10540Y-1000D01*
X10525Y-998D01*
X10511Y-993D01*
X10498Y-985D01*
X10488Y-975D01*
X10480Y-962D01*
X10475Y-948D01*
X10473Y-933D01*
X10473Y-800D01*
X10475Y-785D01*
X10480Y-771D01*
X10488Y-758D01*
X10498Y-748D01*
X10511Y-740D01*
X10525Y-735D01*
X10540Y-733D01*
X10651Y-733D01*
X11004Y-600D02*
X11004Y-889D01*
X11006Y-908D01*
X11011Y-927D01*
X11019Y-944D01*
X11030Y-960D01*
X11044Y-974D01*
X11060Y-985D01*
X11077Y-993D01*
X11096Y-998D01*
X11115Y-1000D01*
X11134Y-998D01*
X11153Y-993D01*
X11171Y-985D01*
X11186Y-974D01*
X11200Y-960D01*
X11211Y-945D01*
X11219Y-927D01*
X11224Y-908D01*
X11226Y-889D01*
X11226Y-600D01*
X11386Y-733D02*
X11386Y-1000D01*
X11386Y-733D02*
X11497Y-733D01*
X11512Y-735D01*
X11526Y-740D01*
X11539Y-748D01*
X11549Y-758D01*
X11557Y-771D01*
X11562Y-785D01*
X11564Y-800D01*
X11564Y-1000D01*
X11715Y-1000D02*
X11715Y-733D01*
X11704Y-622D02*
X11704Y-600D01*
X11726Y-600D01*
X11726Y-622D01*
X11704Y-622D01*
X11842Y-733D02*
X11931Y-1000D01*
X12020Y-733D01*
X12209Y-1000D02*
X12320Y-1000D01*
X12209Y-1000D02*
X12194Y-998D01*
X12180Y-993D01*
X12167Y-985D01*
X12157Y-975D01*
X12149Y-962D01*
X12144Y-948D01*
X12142Y-933D01*
X12142Y-822D01*
X12144Y-803D01*
X12150Y-786D01*
X12159Y-770D01*
X12171Y-756D01*
X12187Y-745D01*
X12203Y-737D01*
X12222Y-733D01*
X12240Y-733D01*
X12259Y-737D01*
X12276Y-745D01*
X12291Y-756D01*
X12303Y-770D01*
X12312Y-786D01*
X12318Y-803D01*
X12320Y-822D01*
X12320Y-867D01*
X12142Y-867D01*
X12467Y-1000D02*
X12467Y-733D01*
X12601Y-733D01*
X12601Y-778D01*
X12739Y-844D02*
X12851Y-889D01*
X12739Y-845D02*
X12728Y-838D01*
X12718Y-830D01*
X12710Y-819D01*
X12705Y-806D01*
X12703Y-793D01*
X12704Y-780D01*
X12708Y-767D01*
X12715Y-755D01*
X12725Y-746D01*
X12736Y-739D01*
X12749Y-734D01*
X12762Y-733D01*
X12787Y-735D01*
X12813Y-739D01*
X12837Y-746D01*
X12861Y-755D01*
X12851Y-888D02*
X12862Y-895D01*
X12872Y-903D01*
X12880Y-914D01*
X12885Y-927D01*
X12887Y-940D01*
X12886Y-953D01*
X12882Y-966D01*
X12875Y-978D01*
X12865Y-987D01*
X12854Y-994D01*
X12841Y-999D01*
X12828Y-1000D01*
X12829Y-1000D02*
X12798Y-998D01*
X12767Y-994D01*
X12736Y-987D01*
X12706Y-978D01*
X13023Y-1000D02*
X13023Y-733D01*
X13012Y-622D02*
X13012Y-600D01*
X13034Y-600D01*
X13034Y-622D01*
X13012Y-622D01*
X13135Y-733D02*
X13268Y-733D01*
X13179Y-600D02*
X13179Y-933D01*
X13181Y-948D01*
X13186Y-962D01*
X13194Y-975D01*
X13204Y-985D01*
X13217Y-993D01*
X13231Y-998D01*
X13246Y-1000D01*
X13268Y-1000D01*
X13378Y-1133D02*
X13423Y-1133D01*
X13556Y-733D01*
X13378Y-733D02*
X13467Y-1000D01*
X13870Y-911D02*
X13870Y-822D01*
X13872Y-803D01*
X13878Y-786D01*
X13887Y-770D01*
X13899Y-756D01*
X13915Y-745D01*
X13931Y-737D01*
X13950Y-733D01*
X13968Y-733D01*
X13987Y-737D01*
X14004Y-745D01*
X14019Y-756D01*
X14031Y-770D01*
X14040Y-786D01*
X14046Y-803D01*
X14048Y-822D01*
X14048Y-911D01*
X14046Y-930D01*
X14040Y-947D01*
X14031Y-963D01*
X14019Y-977D01*
X14004Y-988D01*
X13987Y-996D01*
X13968Y-1000D01*
X13950Y-1000D01*
X13931Y-996D01*
X13915Y-988D01*
X13899Y-977D01*
X13887Y-963D01*
X13878Y-947D01*
X13872Y-930D01*
X13870Y-911D01*
X14204Y-1000D02*
X14204Y-667D01*
X14206Y-652D01*
X14211Y-638D01*
X14219Y-625D01*
X14229Y-615D01*
X14242Y-607D01*
X14256Y-602D01*
X14271Y-600D01*
X14293Y-600D01*
X14293Y-733D02*
X14160Y-733D01*
X14667Y-600D02*
X14667Y-1000D01*
X14556Y-600D02*
X14778Y-600D01*
X14957Y-1000D02*
X15068Y-1000D01*
X14957Y-1000D02*
X14942Y-998D01*
X14928Y-993D01*
X14915Y-985D01*
X14905Y-975D01*
X14897Y-962D01*
X14892Y-948D01*
X14890Y-933D01*
X14890Y-822D01*
X14892Y-803D01*
X14898Y-786D01*
X14907Y-770D01*
X14919Y-756D01*
X14935Y-745D01*
X14951Y-737D01*
X14970Y-733D01*
X14988Y-733D01*
X15007Y-737D01*
X15024Y-745D01*
X15039Y-756D01*
X15051Y-770D01*
X15060Y-786D01*
X15066Y-803D01*
X15068Y-822D01*
X15068Y-867D01*
X14890Y-867D01*
X15269Y-1000D02*
X15358Y-1000D01*
X15269Y-1000D02*
X15254Y-998D01*
X15240Y-993D01*
X15227Y-985D01*
X15217Y-975D01*
X15209Y-962D01*
X15204Y-948D01*
X15202Y-933D01*
X15202Y-800D01*
X15204Y-785D01*
X15209Y-771D01*
X15217Y-758D01*
X15227Y-748D01*
X15240Y-740D01*
X15254Y-735D01*
X15269Y-733D01*
X15358Y-733D01*
X15490Y-600D02*
X15490Y-1000D01*
X15490Y-733D02*
X15601Y-733D01*
X15616Y-735D01*
X15630Y-740D01*
X15643Y-748D01*
X15653Y-758D01*
X15661Y-771D01*
X15666Y-785D01*
X15668Y-800D01*
X15668Y-1000D01*
X15826Y-1000D02*
X15826Y-733D01*
X15937Y-733D01*
X15952Y-735D01*
X15966Y-740D01*
X15979Y-748D01*
X15989Y-758D01*
X15997Y-771D01*
X16002Y-785D01*
X16004Y-800D01*
X16004Y-1000D01*
X16150Y-911D02*
X16150Y-822D01*
X16152Y-803D01*
X16158Y-786D01*
X16167Y-770D01*
X16179Y-756D01*
X16195Y-745D01*
X16211Y-737D01*
X16230Y-733D01*
X16248Y-733D01*
X16267Y-737D01*
X16284Y-745D01*
X16299Y-756D01*
X16311Y-770D01*
X16320Y-786D01*
X16326Y-803D01*
X16328Y-822D01*
X16328Y-911D01*
X16326Y-930D01*
X16320Y-947D01*
X16311Y-963D01*
X16299Y-977D01*
X16284Y-988D01*
X16267Y-996D01*
X16248Y-1000D01*
X16230Y-1000D01*
X16211Y-996D01*
X16195Y-988D01*
X16179Y-977D01*
X16167Y-963D01*
X16158Y-947D01*
X16152Y-930D01*
X16150Y-911D01*
X16470Y-933D02*
X16470Y-600D01*
X16470Y-933D02*
X16472Y-948D01*
X16477Y-962D01*
X16485Y-975D01*
X16495Y-985D01*
X16508Y-993D01*
X16522Y-998D01*
X16537Y-1000D01*
X16654Y-911D02*
X16654Y-822D01*
X16656Y-803D01*
X16662Y-786D01*
X16671Y-770D01*
X16683Y-756D01*
X16699Y-745D01*
X16715Y-737D01*
X16734Y-733D01*
X16752Y-733D01*
X16771Y-737D01*
X16788Y-745D01*
X16803Y-756D01*
X16815Y-770D01*
X16824Y-786D01*
X16830Y-803D01*
X16832Y-822D01*
X16832Y-911D01*
X16830Y-930D01*
X16824Y-947D01*
X16815Y-963D01*
X16803Y-977D01*
X16788Y-988D01*
X16771Y-996D01*
X16752Y-1000D01*
X16734Y-1000D01*
X16715Y-996D01*
X16699Y-988D01*
X16683Y-977D01*
X16671Y-963D01*
X16662Y-947D01*
X16656Y-930D01*
X16654Y-911D01*
X17032Y-1000D02*
X17143Y-1000D01*
X17032Y-1000D02*
X17017Y-998D01*
X17003Y-993D01*
X16990Y-985D01*
X16980Y-975D01*
X16972Y-962D01*
X16967Y-948D01*
X16965Y-933D01*
X16965Y-800D01*
X16967Y-785D01*
X16972Y-771D01*
X16980Y-758D01*
X16990Y-748D01*
X17003Y-740D01*
X17017Y-735D01*
X17032Y-733D01*
X17143Y-733D01*
X17143Y-1067D01*
X17141Y-1082D01*
X17136Y-1096D01*
X17128Y-1109D01*
X17118Y-1119D01*
X17105Y-1127D01*
X17091Y-1132D01*
X17076Y-1134D01*
X17076Y-1133D02*
X16987Y-1133D01*
X17278Y-1133D02*
X17322Y-1133D01*
X17456Y-733D01*
X17278Y-733D02*
X17367Y-1000D01*
X17566Y-1044D02*
X17744Y-556D01*
X17880Y-600D02*
X17880Y-889D01*
X17882Y-908D01*
X17887Y-927D01*
X17895Y-944D01*
X17906Y-960D01*
X17920Y-974D01*
X17936Y-985D01*
X17953Y-993D01*
X17972Y-998D01*
X17991Y-1000D01*
X18010Y-998D01*
X18029Y-993D01*
X18047Y-985D01*
X18062Y-974D01*
X18076Y-960D01*
X18087Y-945D01*
X18095Y-927D01*
X18100Y-908D01*
X18102Y-889D01*
X18102Y-600D01*
X18262Y-733D02*
X18262Y-1000D01*
X18262Y-733D02*
X18373Y-733D01*
X18388Y-735D01*
X18402Y-740D01*
X18415Y-748D01*
X18425Y-758D01*
X18433Y-771D01*
X18438Y-785D01*
X18440Y-800D01*
X18440Y-1000D01*
X18591Y-1000D02*
X18591Y-733D01*
X18580Y-622D02*
X18580Y-600D01*
X18602Y-600D01*
X18602Y-622D01*
X18580Y-622D01*
X19012Y-1000D02*
X19101Y-1000D01*
X19012Y-1000D02*
X18995Y-998D01*
X18978Y-993D01*
X18963Y-985D01*
X18949Y-974D01*
X18938Y-960D01*
X18930Y-945D01*
X18925Y-928D01*
X18923Y-911D01*
X18923Y-689D01*
X18925Y-672D01*
X18930Y-655D01*
X18938Y-640D01*
X18949Y-626D01*
X18963Y-615D01*
X18978Y-607D01*
X18995Y-602D01*
X19012Y-600D01*
X19101Y-600D01*
X19222Y-822D02*
X19222Y-911D01*
X19222Y-822D02*
X19224Y-803D01*
X19230Y-786D01*
X19239Y-770D01*
X19251Y-756D01*
X19267Y-745D01*
X19283Y-737D01*
X19302Y-733D01*
X19320Y-733D01*
X19339Y-737D01*
X19356Y-745D01*
X19371Y-756D01*
X19383Y-770D01*
X19392Y-786D01*
X19398Y-803D01*
X19400Y-822D01*
X19400Y-911D01*
X19398Y-930D01*
X19392Y-947D01*
X19383Y-963D01*
X19371Y-977D01*
X19356Y-988D01*
X19339Y-996D01*
X19320Y-1000D01*
X19302Y-1000D01*
X19283Y-996D01*
X19267Y-988D01*
X19251Y-977D01*
X19239Y-963D01*
X19230Y-947D01*
X19224Y-930D01*
X19222Y-911D01*
X19546Y-933D02*
X19546Y-733D01*
X19545Y-933D02*
X19547Y-948D01*
X19552Y-962D01*
X19560Y-975D01*
X19570Y-985D01*
X19583Y-993D01*
X19597Y-998D01*
X19612Y-1000D01*
X19613Y-1000D02*
X19724Y-1000D01*
X19724Y-733D01*
X19883Y-733D02*
X19883Y-1000D01*
X19883Y-733D02*
X20016Y-733D01*
X20016Y-778D01*
X20155Y-844D02*
X20266Y-889D01*
X20155Y-845D02*
X20144Y-838D01*
X20134Y-830D01*
X20126Y-819D01*
X20121Y-806D01*
X20119Y-793D01*
X20120Y-780D01*
X20124Y-767D01*
X20131Y-755D01*
X20141Y-746D01*
X20152Y-739D01*
X20165Y-734D01*
X20178Y-733D01*
X20203Y-735D01*
X20229Y-739D01*
X20253Y-746D01*
X20277Y-755D01*
X20267Y-888D02*
X20278Y-895D01*
X20288Y-903D01*
X20296Y-914D01*
X20301Y-927D01*
X20303Y-940D01*
X20302Y-953D01*
X20298Y-966D01*
X20291Y-978D01*
X20281Y-987D01*
X20270Y-994D01*
X20257Y-999D01*
X20244Y-1000D01*
X20213Y-998D01*
X20182Y-994D01*
X20151Y-987D01*
X20121Y-978D01*
X20500Y-1000D02*
X20612Y-1000D01*
X20500Y-1000D02*
X20485Y-998D01*
X20471Y-993D01*
X20458Y-985D01*
X20448Y-975D01*
X20440Y-962D01*
X20435Y-948D01*
X20433Y-933D01*
X20434Y-933D02*
X20434Y-822D01*
X20436Y-803D01*
X20442Y-786D01*
X20451Y-770D01*
X20463Y-756D01*
X20479Y-745D01*
X20495Y-737D01*
X20514Y-733D01*
X20532Y-733D01*
X20551Y-737D01*
X20568Y-745D01*
X20583Y-756D01*
X20595Y-770D01*
X20604Y-786D01*
X20610Y-803D01*
X20612Y-822D01*
X20612Y-867D01*
X20434Y-867D01*
X20737Y-733D02*
X20804Y-1000D01*
X20871Y-822D01*
X20937Y-1000D01*
X21004Y-733D01*
X21130Y-822D02*
X21130Y-911D01*
X21130Y-822D02*
X21132Y-803D01*
X21138Y-786D01*
X21147Y-770D01*
X21159Y-756D01*
X21175Y-745D01*
X21191Y-737D01*
X21210Y-733D01*
X21228Y-733D01*
X21247Y-737D01*
X21264Y-745D01*
X21279Y-756D01*
X21291Y-770D01*
X21300Y-786D01*
X21306Y-803D01*
X21308Y-822D01*
X21308Y-911D01*
X21306Y-930D01*
X21300Y-947D01*
X21291Y-963D01*
X21279Y-977D01*
X21264Y-988D01*
X21247Y-996D01*
X21228Y-1000D01*
X21210Y-1000D01*
X21191Y-996D01*
X21175Y-988D01*
X21159Y-977D01*
X21147Y-963D01*
X21138Y-947D01*
X21132Y-930D01*
X21130Y-911D01*
X21455Y-1000D02*
X21455Y-733D01*
X21588Y-733D01*
X21588Y-778D01*
X21708Y-600D02*
X21708Y-1000D01*
X21708Y-867D02*
X21886Y-733D01*
X21786Y-811D02*
X21886Y-1000D01*
X21994Y-1044D02*
X22171Y-556D01*
X22418Y-600D02*
X22435Y-602D01*
X22452Y-606D01*
X22468Y-613D01*
X22482Y-623D01*
X22495Y-636D01*
X22505Y-650D01*
X22512Y-666D01*
X22516Y-683D01*
X22518Y-700D01*
X22418Y-600D02*
X22398Y-602D01*
X22378Y-606D01*
X22360Y-614D01*
X22343Y-624D01*
X22327Y-638D01*
X22314Y-653D01*
X22304Y-670D01*
X22296Y-689D01*
X22484Y-778D02*
X22495Y-765D01*
X22505Y-750D01*
X22511Y-734D01*
X22516Y-717D01*
X22517Y-700D01*
X22484Y-778D02*
X22295Y-1000D01*
X22518Y-1000D01*
X22655Y-800D02*
X22656Y-770D01*
X22660Y-740D01*
X22667Y-711D01*
X22676Y-683D01*
X22688Y-655D01*
X22689Y-655D02*
X22697Y-640D01*
X22707Y-626D01*
X22719Y-615D01*
X22734Y-607D01*
X22750Y-602D01*
X22767Y-600D01*
X22784Y-602D01*
X22800Y-607D01*
X22815Y-615D01*
X22827Y-626D01*
X22837Y-640D01*
X22845Y-655D01*
X22856Y-683D01*
X22866Y-711D01*
X22873Y-740D01*
X22877Y-770D01*
X22878Y-800D01*
X22655Y-800D02*
X22656Y-830D01*
X22660Y-860D01*
X22667Y-889D01*
X22676Y-917D01*
X22688Y-945D01*
X22689Y-945D02*
X22697Y-960D01*
X22707Y-974D01*
X22719Y-985D01*
X22734Y-993D01*
X22750Y-998D01*
X22767Y-1000D01*
X22845Y-945D02*
X22856Y-917D01*
X22866Y-889D01*
X22873Y-860D01*
X22877Y-830D01*
X22878Y-800D01*
X22845Y-945D02*
X22837Y-960D01*
X22827Y-974D01*
X22815Y-985D01*
X22800Y-993D01*
X22784Y-998D01*
X22767Y-1000D01*
X22678Y-911D02*
X22855Y-689D01*
X23138Y-600D02*
X23155Y-602D01*
X23172Y-606D01*
X23188Y-613D01*
X23202Y-623D01*
X23215Y-636D01*
X23225Y-650D01*
X23232Y-666D01*
X23236Y-683D01*
X23238Y-700D01*
X23138Y-600D02*
X23118Y-602D01*
X23098Y-606D01*
X23080Y-614D01*
X23063Y-624D01*
X23047Y-638D01*
X23034Y-653D01*
X23024Y-670D01*
X23016Y-689D01*
X23204Y-778D02*
X23215Y-765D01*
X23225Y-750D01*
X23231Y-734D01*
X23236Y-717D01*
X23237Y-700D01*
X23204Y-778D02*
X23015Y-1000D01*
X23238Y-1000D01*
X23375Y-689D02*
X23486Y-600D01*
X23486Y-1000D01*
X23375Y-1000D02*
X23598Y-1000D01*
X23722Y-1044D02*
X23899Y-556D01*
X24036Y-1000D02*
X24213Y-1000D01*
X24036Y-1000D02*
X24036Y-600D01*
X24213Y-600D01*
X24169Y-778D02*
X24036Y-778D01*
X24503Y-778D02*
X24570Y-778D01*
X24570Y-1000D01*
X24436Y-1000D01*
X24419Y-998D01*
X24402Y-993D01*
X24387Y-985D01*
X24373Y-974D01*
X24362Y-960D01*
X24354Y-945D01*
X24349Y-928D01*
X24347Y-911D01*
X24347Y-689D01*
X24349Y-672D01*
X24354Y-655D01*
X24362Y-640D01*
X24373Y-626D01*
X24387Y-615D01*
X24402Y-607D01*
X24419Y-602D01*
X24436Y-600D01*
X24570Y-600D01*
X24731Y-600D02*
X24731Y-1000D01*
X24731Y-778D02*
X24954Y-778D01*
X24954Y-600D02*
X24954Y-1000D01*
X25103Y-911D02*
X25192Y-600D01*
X25103Y-911D02*
X25325Y-911D01*
X25259Y-822D02*
X25259Y-1000D01*
X25463Y-689D02*
X25574Y-600D01*
X25574Y-1000D01*
X25463Y-1000D02*
X25685Y-1000D01*
X25912Y-822D02*
X26045Y-822D01*
X25912Y-822D02*
X25895Y-820D01*
X25878Y-815D01*
X25863Y-807D01*
X25849Y-796D01*
X25838Y-782D01*
X25830Y-767D01*
X25825Y-750D01*
X25823Y-733D01*
X25823Y-711D01*
X25825Y-692D01*
X25830Y-673D01*
X25838Y-655D01*
X25849Y-640D01*
X25863Y-626D01*
X25879Y-615D01*
X25896Y-607D01*
X25915Y-602D01*
X25934Y-600D01*
X25953Y-602D01*
X25972Y-607D01*
X25990Y-615D01*
X26005Y-626D01*
X26019Y-640D01*
X26030Y-656D01*
X26038Y-673D01*
X26043Y-692D01*
X26045Y-711D01*
X26045Y-822D01*
X26046Y-822D02*
X26044Y-847D01*
X26039Y-872D01*
X26030Y-896D01*
X26018Y-918D01*
X26003Y-939D01*
X25985Y-957D01*
X25964Y-972D01*
X25942Y-984D01*
X25918Y-993D01*
X25893Y-998D01*
X25868Y-1000D01*
X26543Y-778D02*
X26609Y-778D01*
X26609Y-1000D01*
X26476Y-1000D01*
X26459Y-998D01*
X26442Y-993D01*
X26427Y-985D01*
X26413Y-974D01*
X26402Y-960D01*
X26394Y-945D01*
X26389Y-928D01*
X26387Y-911D01*
X26387Y-689D01*
X26389Y-672D01*
X26394Y-655D01*
X26402Y-640D01*
X26413Y-626D01*
X26427Y-615D01*
X26442Y-607D01*
X26459Y-602D01*
X26476Y-600D01*
X26609Y-600D01*
X26770Y-733D02*
X26770Y-1000D01*
X26770Y-733D02*
X26904Y-733D01*
X26904Y-778D01*
X27009Y-822D02*
X27009Y-911D01*
X27009Y-822D02*
X27011Y-803D01*
X27017Y-786D01*
X27026Y-770D01*
X27038Y-756D01*
X27054Y-745D01*
X27070Y-737D01*
X27089Y-733D01*
X27107Y-733D01*
X27126Y-737D01*
X27143Y-745D01*
X27158Y-756D01*
X27170Y-770D01*
X27179Y-786D01*
X27185Y-803D01*
X27187Y-822D01*
X27187Y-911D01*
X27185Y-930D01*
X27179Y-947D01*
X27170Y-963D01*
X27158Y-977D01*
X27143Y-988D01*
X27126Y-996D01*
X27107Y-1000D01*
X27089Y-1000D01*
X27070Y-996D01*
X27054Y-988D01*
X27038Y-977D01*
X27026Y-963D01*
X27017Y-947D01*
X27011Y-930D01*
X27009Y-911D01*
X27333Y-933D02*
X27333Y-733D01*
X27333Y-933D02*
X27335Y-948D01*
X27340Y-962D01*
X27348Y-975D01*
X27358Y-985D01*
X27371Y-993D01*
X27385Y-998D01*
X27400Y-1000D01*
X27511Y-1000D01*
X27511Y-733D01*
X27670Y-733D02*
X27670Y-1133D01*
X27670Y-733D02*
X27781Y-733D01*
X27796Y-735D01*
X27810Y-740D01*
X27823Y-748D01*
X27833Y-758D01*
X27841Y-771D01*
X27846Y-785D01*
X27848Y-800D01*
X27848Y-933D01*
X27846Y-948D01*
X27841Y-962D01*
X27833Y-975D01*
X27823Y-985D01*
X27810Y-993D01*
X27796Y-998D01*
X27781Y-1000D01*
X27670Y-1000D01*
X28175Y-689D02*
X28286Y-600D01*
X28286Y-1000D01*
X28175Y-1000D02*
X28397Y-1000D01*
X28848Y-1000D02*
X28865Y-998D01*
X28882Y-993D01*
X28897Y-985D01*
X28911Y-974D01*
X28922Y-960D01*
X28930Y-945D01*
X28935Y-928D01*
X28937Y-911D01*
X28848Y-1000D02*
X28823Y-998D01*
X28799Y-994D01*
X28776Y-986D01*
X28754Y-975D01*
X28733Y-961D01*
X28715Y-944D01*
X28726Y-689D02*
X28728Y-672D01*
X28733Y-655D01*
X28741Y-640D01*
X28752Y-626D01*
X28766Y-615D01*
X28781Y-607D01*
X28798Y-602D01*
X28815Y-600D01*
X28836Y-601D01*
X28858Y-606D01*
X28878Y-612D01*
X28897Y-622D01*
X28915Y-633D01*
X28726Y-689D02*
X28728Y-708D01*
X28734Y-725D01*
X28743Y-742D01*
X28755Y-755D01*
X28770Y-767D01*
X28893Y-833D02*
X28908Y-845D01*
X28920Y-858D01*
X28929Y-875D01*
X28935Y-892D01*
X28937Y-911D01*
X28893Y-833D02*
X28771Y-767D01*
X29073Y-600D02*
X29073Y-1000D01*
X29073Y-733D02*
X29184Y-733D01*
X29199Y-735D01*
X29213Y-740D01*
X29226Y-748D01*
X29236Y-758D01*
X29244Y-771D01*
X29249Y-785D01*
X29251Y-800D01*
X29251Y-1000D01*
X29474Y-844D02*
X29574Y-844D01*
X29474Y-844D02*
X29458Y-846D01*
X29442Y-851D01*
X29428Y-859D01*
X29416Y-870D01*
X29406Y-883D01*
X29400Y-898D01*
X29396Y-914D01*
X29396Y-930D01*
X29400Y-946D01*
X29406Y-961D01*
X29416Y-974D01*
X29428Y-985D01*
X29442Y-993D01*
X29458Y-998D01*
X29474Y-1000D01*
X29574Y-1000D01*
X29574Y-800D01*
X29572Y-785D01*
X29567Y-771D01*
X29559Y-758D01*
X29549Y-748D01*
X29536Y-740D01*
X29522Y-735D01*
X29507Y-733D01*
X29419Y-733D01*
X29734Y-733D02*
X29734Y-1000D01*
X29734Y-733D02*
X29868Y-733D01*
X29868Y-778D01*
X30040Y-1000D02*
X30151Y-1000D01*
X30040Y-1000D02*
X30025Y-998D01*
X30011Y-993D01*
X29998Y-985D01*
X29988Y-975D01*
X29980Y-962D01*
X29975Y-948D01*
X29973Y-933D01*
X29973Y-822D01*
X29975Y-803D01*
X29981Y-786D01*
X29990Y-770D01*
X30002Y-756D01*
X30018Y-745D01*
X30034Y-737D01*
X30053Y-733D01*
X30071Y-733D01*
X30090Y-737D01*
X30107Y-745D01*
X30122Y-756D01*
X30134Y-770D01*
X30143Y-786D01*
X30149Y-803D01*
X30151Y-822D01*
X30151Y-867D01*
X29973Y-867D01*
X30462Y-1000D02*
X30462Y-600D01*
X30462Y-1000D02*
X30351Y-1000D01*
X30336Y-998D01*
X30322Y-993D01*
X30309Y-985D01*
X30299Y-975D01*
X30291Y-962D01*
X30286Y-948D01*
X30284Y-933D01*
X30284Y-800D01*
X30286Y-785D01*
X30291Y-771D01*
X30299Y-758D01*
X30309Y-748D01*
X30322Y-740D01*
X30336Y-735D01*
X30351Y-733D01*
X30462Y-733D01*
X30815Y-600D02*
X30815Y-1000D01*
X30815Y-600D02*
X30993Y-600D01*
X30993Y-778D02*
X30815Y-778D01*
X31113Y-822D02*
X31113Y-911D01*
X31113Y-822D02*
X31115Y-803D01*
X31121Y-786D01*
X31130Y-770D01*
X31142Y-756D01*
X31158Y-745D01*
X31174Y-737D01*
X31193Y-733D01*
X31211Y-733D01*
X31230Y-737D01*
X31247Y-745D01*
X31262Y-756D01*
X31274Y-770D01*
X31283Y-786D01*
X31289Y-803D01*
X31291Y-822D01*
X31291Y-911D01*
X31289Y-930D01*
X31283Y-947D01*
X31274Y-963D01*
X31262Y-977D01*
X31247Y-988D01*
X31230Y-996D01*
X31211Y-1000D01*
X31193Y-1000D01*
X31174Y-996D01*
X31158Y-988D01*
X31142Y-977D01*
X31130Y-963D01*
X31121Y-947D01*
X31115Y-930D01*
X31113Y-911D01*
X31433Y-933D02*
X31433Y-600D01*
X31433Y-933D02*
X31435Y-948D01*
X31440Y-962D01*
X31448Y-975D01*
X31458Y-985D01*
X31471Y-993D01*
X31485Y-998D01*
X31500Y-1000D01*
X31794Y-1000D02*
X31794Y-600D01*
X31794Y-1000D02*
X31683Y-1000D01*
X31668Y-998D01*
X31654Y-993D01*
X31641Y-985D01*
X31631Y-975D01*
X31623Y-962D01*
X31618Y-948D01*
X31616Y-933D01*
X31616Y-800D01*
X31618Y-785D01*
X31623Y-771D01*
X31631Y-758D01*
X31641Y-748D01*
X31654Y-740D01*
X31668Y-735D01*
X31683Y-733D01*
X31794Y-733D01*
X32008Y-1000D02*
X32119Y-1000D01*
X32008Y-1000D02*
X31993Y-998D01*
X31979Y-993D01*
X31966Y-985D01*
X31956Y-975D01*
X31948Y-962D01*
X31943Y-948D01*
X31941Y-933D01*
X31941Y-822D01*
X31943Y-803D01*
X31949Y-786D01*
X31958Y-770D01*
X31970Y-756D01*
X31986Y-745D01*
X32002Y-737D01*
X32021Y-733D01*
X32039Y-733D01*
X32058Y-737D01*
X32075Y-745D01*
X32090Y-756D01*
X32102Y-770D01*
X32111Y-786D01*
X32117Y-803D01*
X32119Y-822D01*
X32119Y-867D01*
X31941Y-867D01*
X32266Y-1000D02*
X32266Y-733D01*
X32399Y-733D01*
X32399Y-778D01*
X32493Y-1044D02*
X32671Y-556D01*
X32962Y-778D02*
X33029Y-778D01*
X33029Y-1000D01*
X32896Y-1000D01*
X32879Y-998D01*
X32862Y-993D01*
X32847Y-985D01*
X32833Y-974D01*
X32822Y-960D01*
X32814Y-945D01*
X32809Y-928D01*
X32807Y-911D01*
X32807Y-689D01*
X32809Y-672D01*
X32814Y-655D01*
X32822Y-640D01*
X32833Y-626D01*
X32847Y-615D01*
X32862Y-607D01*
X32879Y-602D01*
X32896Y-600D01*
X33029Y-600D01*
X33182Y-733D02*
X33182Y-1000D01*
X33171Y-622D02*
X33171Y-600D01*
X33193Y-600D01*
X33193Y-622D01*
X33171Y-622D01*
X33294Y-733D02*
X33427Y-733D01*
X33338Y-600D02*
X33338Y-933D01*
X33340Y-948D01*
X33345Y-962D01*
X33353Y-975D01*
X33363Y-985D01*
X33376Y-993D01*
X33390Y-998D01*
X33405Y-1000D01*
X33427Y-1000D01*
X33864Y-1000D02*
X33881Y-998D01*
X33898Y-993D01*
X33913Y-985D01*
X33927Y-974D01*
X33938Y-960D01*
X33946Y-945D01*
X33951Y-928D01*
X33953Y-911D01*
X33864Y-1000D02*
X33839Y-998D01*
X33815Y-994D01*
X33792Y-986D01*
X33770Y-975D01*
X33749Y-961D01*
X33731Y-944D01*
X33742Y-689D02*
X33744Y-672D01*
X33749Y-655D01*
X33757Y-640D01*
X33768Y-626D01*
X33782Y-615D01*
X33797Y-607D01*
X33814Y-602D01*
X33831Y-600D01*
X33852Y-601D01*
X33874Y-606D01*
X33894Y-612D01*
X33913Y-622D01*
X33931Y-633D01*
X33742Y-689D02*
X33744Y-708D01*
X33750Y-725D01*
X33759Y-742D01*
X33771Y-755D01*
X33786Y-767D01*
X33909Y-833D02*
X33924Y-845D01*
X33936Y-858D01*
X33945Y-875D01*
X33951Y-892D01*
X33953Y-911D01*
X33908Y-833D02*
X33786Y-767D01*
X34050Y-733D02*
X34183Y-733D01*
X34094Y-600D02*
X34094Y-933D01*
X34096Y-948D01*
X34101Y-962D01*
X34109Y-975D01*
X34119Y-985D01*
X34132Y-993D01*
X34146Y-998D01*
X34161Y-1000D01*
X34183Y-1000D01*
X34317Y-933D02*
X34317Y-733D01*
X34317Y-933D02*
X34319Y-948D01*
X34324Y-962D01*
X34332Y-975D01*
X34342Y-985D01*
X34355Y-993D01*
X34369Y-998D01*
X34384Y-1000D01*
X34495Y-1000D01*
X34495Y-733D01*
X34663Y-667D02*
X34663Y-1000D01*
X34662Y-667D02*
X34664Y-652D01*
X34669Y-638D01*
X34677Y-625D01*
X34687Y-615D01*
X34700Y-607D01*
X34714Y-602D01*
X34729Y-600D01*
X34752Y-600D01*
X34752Y-733D02*
X34618Y-733D01*
X34867Y-667D02*
X34867Y-1000D01*
X34866Y-667D02*
X34868Y-652D01*
X34873Y-638D01*
X34881Y-625D01*
X34891Y-615D01*
X34904Y-607D01*
X34918Y-602D01*
X34933Y-600D01*
X34956Y-600D01*
X34956Y-733D02*
X34822Y-733D01*
X35037Y-1044D02*
X35215Y-556D01*
X35351Y-1000D02*
X35529Y-1000D01*
X35351Y-1000D02*
X35351Y-600D01*
X35529Y-600D01*
X35484Y-778D02*
X35351Y-778D01*
X35818Y-778D02*
X35885Y-778D01*
X35885Y-1000D01*
X35751Y-1000D01*
X35734Y-998D01*
X35717Y-993D01*
X35702Y-985D01*
X35688Y-974D01*
X35677Y-960D01*
X35669Y-945D01*
X35664Y-928D01*
X35662Y-911D01*
X35663Y-911D02*
X35663Y-689D01*
X35662Y-689D02*
X35664Y-672D01*
X35669Y-655D01*
X35677Y-640D01*
X35688Y-626D01*
X35702Y-615D01*
X35717Y-607D01*
X35734Y-602D01*
X35751Y-600D01*
X35885Y-600D01*
X36047Y-600D02*
X36047Y-1000D01*
X36047Y-778D02*
X36269Y-778D01*
X36269Y-600D02*
X36269Y-1000D01*
X36418Y-911D02*
X36507Y-600D01*
X36418Y-911D02*
X36641Y-911D01*
X36574Y-822D02*
X36574Y-1000D01*
X36778Y-689D02*
X36890Y-600D01*
X36890Y-1000D01*
X37001Y-1000D02*
X36778Y-1000D01*
X37227Y-822D02*
X37361Y-822D01*
X37227Y-822D02*
X37210Y-820D01*
X37193Y-815D01*
X37178Y-807D01*
X37164Y-796D01*
X37153Y-782D01*
X37145Y-767D01*
X37140Y-750D01*
X37138Y-733D01*
X37138Y-711D01*
X37139Y-711D02*
X37141Y-692D01*
X37146Y-673D01*
X37154Y-655D01*
X37165Y-640D01*
X37179Y-626D01*
X37195Y-615D01*
X37212Y-607D01*
X37231Y-602D01*
X37250Y-600D01*
X37269Y-602D01*
X37288Y-607D01*
X37306Y-615D01*
X37321Y-626D01*
X37335Y-640D01*
X37346Y-656D01*
X37354Y-673D01*
X37359Y-692D01*
X37361Y-711D01*
X37361Y-822D01*
X37359Y-847D01*
X37354Y-872D01*
X37345Y-896D01*
X37333Y-918D01*
X37318Y-939D01*
X37300Y-957D01*
X37279Y-972D01*
X37257Y-984D01*
X37233Y-993D01*
X37208Y-998D01*
X37183Y-1000D01*
X37485Y-1044D02*
X37662Y-556D01*
X37799Y-600D02*
X37799Y-1000D01*
X37977Y-1000D01*
X38098Y-889D02*
X38098Y-711D01*
X38100Y-692D01*
X38105Y-673D01*
X38113Y-655D01*
X38124Y-640D01*
X38138Y-626D01*
X38154Y-615D01*
X38171Y-607D01*
X38190Y-602D01*
X38209Y-600D01*
X38228Y-602D01*
X38247Y-607D01*
X38265Y-615D01*
X38280Y-626D01*
X38294Y-640D01*
X38305Y-656D01*
X38313Y-673D01*
X38318Y-692D01*
X38320Y-711D01*
X38321Y-711D02*
X38321Y-889D01*
X38320Y-889D02*
X38318Y-908D01*
X38313Y-927D01*
X38305Y-945D01*
X38294Y-960D01*
X38280Y-974D01*
X38265Y-985D01*
X38247Y-993D01*
X38228Y-998D01*
X38209Y-1000D01*
X38190Y-998D01*
X38171Y-993D01*
X38154Y-985D01*
X38138Y-974D01*
X38124Y-960D01*
X38113Y-944D01*
X38105Y-927D01*
X38100Y-908D01*
X38098Y-889D01*
X38626Y-778D02*
X38693Y-778D01*
X38693Y-1000D01*
X38559Y-1000D01*
X38542Y-998D01*
X38525Y-993D01*
X38510Y-985D01*
X38496Y-974D01*
X38485Y-960D01*
X38477Y-945D01*
X38472Y-928D01*
X38470Y-911D01*
X38470Y-689D01*
X38472Y-672D01*
X38477Y-655D01*
X38485Y-640D01*
X38496Y-626D01*
X38510Y-615D01*
X38525Y-607D01*
X38542Y-602D01*
X38559Y-600D01*
X38693Y-600D01*
X38842Y-711D02*
X38842Y-889D01*
X38842Y-711D02*
X38844Y-692D01*
X38849Y-673D01*
X38857Y-655D01*
X38868Y-640D01*
X38882Y-626D01*
X38898Y-615D01*
X38915Y-607D01*
X38934Y-602D01*
X38953Y-600D01*
X38972Y-602D01*
X38991Y-607D01*
X39009Y-615D01*
X39024Y-626D01*
X39038Y-640D01*
X39049Y-656D01*
X39057Y-673D01*
X39062Y-692D01*
X39064Y-711D01*
X39065Y-711D02*
X39065Y-889D01*
X39064Y-889D02*
X39062Y-908D01*
X39057Y-927D01*
X39049Y-945D01*
X39038Y-960D01*
X39024Y-974D01*
X39009Y-985D01*
X38991Y-993D01*
X38972Y-998D01*
X38953Y-1000D01*
X38934Y-998D01*
X38915Y-993D01*
X38898Y-985D01*
X38882Y-974D01*
X38868Y-960D01*
X38857Y-944D01*
X38849Y-927D01*
X38844Y-908D01*
X38842Y-889D01*
X39194Y-978D02*
X39194Y-1000D01*
X39194Y-978D02*
X39216Y-978D01*
X39216Y-1000D01*
X39194Y-1000D01*
X39357Y-1000D02*
X39357Y-600D01*
X39357Y-1000D02*
X39468Y-1000D01*
X39483Y-998D01*
X39497Y-993D01*
X39510Y-985D01*
X39520Y-975D01*
X39528Y-962D01*
X39533Y-948D01*
X39535Y-933D01*
X39535Y-800D01*
X39533Y-785D01*
X39528Y-771D01*
X39520Y-758D01*
X39510Y-748D01*
X39497Y-740D01*
X39483Y-735D01*
X39468Y-733D01*
X39357Y-733D01*
X39684Y-733D02*
X39684Y-1000D01*
X39684Y-733D02*
X39884Y-733D01*
X39899Y-735D01*
X39913Y-740D01*
X39926Y-748D01*
X39936Y-758D01*
X39944Y-771D01*
X39949Y-785D01*
X39951Y-800D01*
X39951Y-1000D01*
X39817Y-1000D02*
X39817Y-733D01*
X40113Y-733D02*
X40113Y-1133D01*
X40113Y-733D02*
X40224Y-733D01*
X40239Y-735D01*
X40253Y-740D01*
X40266Y-748D01*
X40276Y-758D01*
X40284Y-771D01*
X40289Y-785D01*
X40291Y-800D01*
X40291Y-933D01*
X40289Y-948D01*
X40284Y-962D01*
X40276Y-975D01*
X40266Y-985D01*
X40253Y-993D01*
X40239Y-998D01*
X40224Y-1000D01*
X40113Y-1000D01*
D418*
X415850Y914270D02*
X428550Y914270D01*
M02*
