G04 EAGLE Gerber RS-274X export*
G75*
%MOMM*%
%FSLAX34Y34*%
%LPD*%
%INSoldermask Bottom*%
%IPPOS*%
%AMOC8*
5,1,8,0,0,1.08239X$1,22.5*%
G01*
%ADD10C,1.625600*%
%ADD11C,2.082800*%
%ADD12P,2.034460X8X22.500000*%
%ADD13P,1.649562X8X112.500000*%
%ADD14P,1.649562X8X292.500000*%
%ADD15R,2.703200X2.703200*%
%ADD16C,3.203200*%
%ADD17C,3.022600*%
%ADD18C,1.611200*%
%ADD19C,1.711200*%
%ADD20C,1.879600*%
%ADD21C,3.505200*%
%ADD22C,0.959600*%


D10*
X1034300Y582300D03*
X1034300Y602300D03*
D11*
X422200Y929700D03*
X422200Y955100D03*
X447600Y929700D03*
X447600Y955100D03*
X473000Y929700D03*
X473000Y955100D03*
X498400Y929700D03*
X498400Y955100D03*
X523800Y929700D03*
X523800Y955100D03*
X549200Y929700D03*
X549200Y955100D03*
X574600Y929700D03*
X574600Y955100D03*
X600000Y929700D03*
X600000Y955100D03*
X625400Y929700D03*
X625400Y955100D03*
X650800Y929700D03*
X650800Y955100D03*
X676200Y929700D03*
X676200Y955100D03*
X701600Y929700D03*
X701600Y955100D03*
X727000Y929700D03*
X727000Y955100D03*
X752400Y929700D03*
X752400Y955100D03*
X777800Y929700D03*
X777800Y955100D03*
X803200Y929700D03*
X803200Y955100D03*
X828600Y929700D03*
X828600Y955100D03*
X854000Y929700D03*
X854000Y955100D03*
X879400Y929700D03*
X879400Y955100D03*
X904800Y929700D03*
X904800Y955100D03*
D12*
X764800Y342300D03*
X790200Y342300D03*
X405300Y342300D03*
X430700Y342300D03*
X528300Y342300D03*
X553700Y342300D03*
X646400Y342500D03*
X671800Y342500D03*
D13*
X717900Y317500D03*
X717900Y368300D03*
D14*
X354100Y368200D03*
X354100Y317400D03*
D13*
X472900Y318100D03*
X472900Y368900D03*
X596900Y317900D03*
X596900Y368700D03*
D15*
X788720Y668340D03*
X788720Y841060D03*
X392480Y841060D03*
X392480Y668340D03*
D16*
X735380Y678500D03*
X438200Y830900D03*
D17*
X889700Y441700D03*
X936690Y441700D03*
X842710Y441700D03*
X864300Y314700D03*
X915100Y314700D03*
D10*
X1034900Y714500D03*
X1034900Y734500D03*
D18*
X248300Y718000D03*
X268300Y718000D03*
X248300Y698000D03*
X268300Y698000D03*
X248300Y678000D03*
X268300Y678000D03*
X248300Y658000D03*
X268300Y658000D03*
X248300Y638000D03*
X268300Y638000D03*
X248300Y618000D03*
X268300Y618000D03*
X248300Y598000D03*
X268300Y598000D03*
X247700Y874400D03*
X267700Y874400D03*
X247700Y854400D03*
X267700Y854400D03*
X247700Y834400D03*
X267700Y834400D03*
X247700Y814400D03*
X267700Y814400D03*
X247700Y794400D03*
X267700Y794400D03*
X247700Y774400D03*
X267700Y774400D03*
X247700Y754400D03*
X267700Y754400D03*
D15*
X789020Y437840D03*
X789020Y610560D03*
X392780Y610560D03*
X392780Y437840D03*
D16*
X735680Y448000D03*
X438500Y600400D03*
D19*
X303600Y528440D02*
X303600Y513360D01*
X278200Y513360D02*
X278200Y528440D01*
X252800Y528440D02*
X252800Y513360D01*
X303600Y465440D02*
X303600Y450360D01*
X278200Y450360D02*
X278200Y465440D01*
X252800Y465440D02*
X252800Y450360D01*
D20*
X885600Y569018D02*
X885600Y585782D01*
X911000Y585782D02*
X911000Y569018D01*
X936400Y569018D02*
X936400Y585782D01*
D21*
X911000Y727260D03*
D22*
X698958Y676338D03*
X236379Y806403D03*
X254475Y954564D03*
X755508Y843726D03*
X294060Y801879D03*
X294060Y680862D03*
X741936Y763425D03*
X755508Y776997D03*
X428649Y909324D03*
X549666Y901407D03*
X636753Y867477D03*
X758901Y746460D03*
M02*
