G04 EAGLE Gerber RS-274X export*
G75*
%MOMM*%
%FSLAX34Y34*%
%LPD*%
%INSoldermask Top*%
%IPPOS*%
%AMOC8*
5,1,8,0,0,1.08239X$1,22.5*%
G01*
%ADD10C,1.625600*%
%ADD11C,2.082800*%
%ADD12P,2.034460X8X22.500000*%
%ADD13P,1.649562X8X112.500000*%
%ADD14P,1.649562X8X292.500000*%
%ADD15R,2.703200X2.703200*%
%ADD16C,3.203200*%
%ADD17C,3.022600*%
%ADD18C,1.611200*%
%ADD19C,1.711200*%
%ADD20C,1.879600*%
%ADD21C,3.505200*%
%ADD22C,0.959600*%


D10*
X1034300Y582300D03*
X1034300Y602300D03*
D11*
X422200Y929700D03*
X422200Y955100D03*
X447600Y929700D03*
X447600Y955100D03*
X473000Y929700D03*
X473000Y955100D03*
X498400Y929700D03*
X498400Y955100D03*
X523800Y929700D03*
X523800Y955100D03*
X549200Y929700D03*
X549200Y955100D03*
X574600Y929700D03*
X574600Y955100D03*
X600000Y929700D03*
X600000Y955100D03*
X625400Y929700D03*
X625400Y955100D03*
X650800Y929700D03*
X650800Y955100D03*
X676200Y929700D03*
X676200Y955100D03*
X701600Y929700D03*
X701600Y955100D03*
X727000Y929700D03*
X727000Y955100D03*
X752400Y929700D03*
X752400Y955100D03*
X777800Y929700D03*
X777800Y955100D03*
X803200Y929700D03*
X803200Y955100D03*
X828600Y929700D03*
X828600Y955100D03*
X854000Y929700D03*
X854000Y955100D03*
X879400Y929700D03*
X879400Y955100D03*
X904800Y929700D03*
X904800Y955100D03*
D12*
X764800Y342300D03*
X790200Y342300D03*
X405300Y342300D03*
X430700Y342300D03*
X528300Y342300D03*
X553700Y342300D03*
X646400Y342500D03*
X671800Y342500D03*
D13*
X717900Y317500D03*
X717900Y368300D03*
D14*
X354100Y368200D03*
X354100Y317400D03*
D13*
X472900Y318100D03*
X472900Y368900D03*
X596900Y317900D03*
X596900Y368700D03*
D15*
X788720Y668340D03*
X788720Y841060D03*
X392480Y841060D03*
X392480Y668340D03*
D16*
X735380Y678500D03*
X438200Y830900D03*
D17*
X889700Y441700D03*
X936690Y441700D03*
X842710Y441700D03*
X864300Y314700D03*
X915100Y314700D03*
D10*
X1034900Y714500D03*
X1034900Y734500D03*
D18*
X248300Y718000D03*
X268300Y718000D03*
X248300Y698000D03*
X268300Y698000D03*
X248300Y678000D03*
X268300Y678000D03*
X248300Y658000D03*
X268300Y658000D03*
X248300Y638000D03*
X268300Y638000D03*
X248300Y618000D03*
X268300Y618000D03*
X248300Y598000D03*
X268300Y598000D03*
X247700Y874400D03*
X267700Y874400D03*
X247700Y854400D03*
X267700Y854400D03*
X247700Y834400D03*
X267700Y834400D03*
X247700Y814400D03*
X267700Y814400D03*
X247700Y794400D03*
X267700Y794400D03*
X247700Y774400D03*
X267700Y774400D03*
X247700Y754400D03*
X267700Y754400D03*
D15*
X789020Y437840D03*
X789020Y610560D03*
X392780Y610560D03*
X392780Y437840D03*
D16*
X735680Y448000D03*
X438500Y600400D03*
D19*
X303600Y528440D02*
X303600Y513360D01*
X278200Y513360D02*
X278200Y528440D01*
X252800Y528440D02*
X252800Y513360D01*
X303600Y465440D02*
X303600Y450360D01*
X278200Y450360D02*
X278200Y465440D01*
X252800Y465440D02*
X252800Y450360D01*
D20*
X885600Y569018D02*
X885600Y585782D01*
X911000Y585782D02*
X911000Y569018D01*
X936400Y569018D02*
X936400Y585782D01*
D21*
X911000Y727260D03*
D11*
X308000Y846000D03*
X308000Y871400D03*
D22*
X384000Y760000D03*
X606000Y718000D03*
X507000Y831000D03*
X217000Y982000D03*
X354000Y746000D03*
X225000Y731250D03*
X225000Y647500D03*
X357500Y822500D03*
X357500Y686250D03*
X357500Y660000D03*
X317500Y772500D03*
X317500Y747500D03*
X695000Y818750D03*
X726250Y850000D03*
X707500Y807500D03*
X750000Y850000D03*
X333750Y776250D03*
X776250Y776250D03*
X925000Y977500D03*
X486250Y730000D03*
X513750Y892500D03*
X412500Y638750D03*
X631250Y857500D03*
X768750Y857500D03*
X287500Y686250D03*
X308750Y707500D03*
X356250Y807500D03*
X333750Y897500D03*
X385000Y950000D03*
X385000Y972500D03*
X800000Y768750D03*
X928750Y897500D03*
X492500Y707500D03*
X642500Y872500D03*
X323750Y911250D03*
X420000Y695000D03*
X468750Y810000D03*
X468750Y857500D03*
X468750Y892500D03*
X365000Y715000D03*
X420000Y892500D03*
X407500Y903750D03*
X307500Y722500D03*
X371250Y882500D03*
X371250Y903750D03*
X393750Y890000D03*
X396250Y972500D03*
X222500Y837500D03*
X316250Y903750D03*
X802500Y865000D03*
X496250Y737500D03*
X632500Y873750D03*
X232500Y838750D03*
X232500Y926250D03*
X355000Y942500D03*
X378750Y918750D03*
X378750Y897500D03*
X302500Y800000D03*
X518750Y800000D03*
X616250Y897500D03*
X340000Y825000D03*
X540000Y897500D03*
X791250Y791250D03*
X478750Y892500D03*
X805000Y905000D03*
X783750Y782500D03*
M02*
