G04 EAGLE Gerber RS-274X export*
G75*
%MOMM*%
%FSLAX34Y34*%
%LPD*%
%INSoldermask Top*%
%IPPOS*%
%AMOC8*
5,1,8,0,0,1.08239X$1,22.5*%
G01*
%ADD10C,1.625600*%
%ADD11C,2.082800*%
%ADD12P,2.034460X8X22.500000*%
%ADD13P,1.649562X8X112.500000*%
%ADD14P,1.649562X8X292.500000*%
%ADD15R,2.703200X2.703200*%
%ADD16C,3.203200*%
%ADD17C,3.022600*%
%ADD18C,1.711200*%
%ADD19C,1.879600*%
%ADD20C,3.505200*%
%ADD21P,1.759533X8X112.500000*%
%ADD22C,0.959600*%


D10*
X1034300Y582300D03*
X1034300Y602300D03*
D11*
X422200Y929700D03*
X422200Y955100D03*
X447600Y929700D03*
X447600Y955100D03*
X473000Y929700D03*
X473000Y955100D03*
X498400Y929700D03*
X498400Y955100D03*
X523800Y929700D03*
X523800Y955100D03*
X549200Y929700D03*
X549200Y955100D03*
X574600Y929700D03*
X574600Y955100D03*
X600000Y929700D03*
X600000Y955100D03*
X625400Y929700D03*
X625400Y955100D03*
X650800Y929700D03*
X650800Y955100D03*
X676200Y929700D03*
X676200Y955100D03*
X701600Y929700D03*
X701600Y955100D03*
X727000Y929700D03*
X727000Y955100D03*
X752400Y929700D03*
X752400Y955100D03*
X777800Y929700D03*
X777800Y955100D03*
X803200Y929700D03*
X803200Y955100D03*
X828600Y929700D03*
X828600Y955100D03*
X854000Y929700D03*
X854000Y955100D03*
X879400Y929700D03*
X879400Y955100D03*
X904800Y929700D03*
X904800Y955100D03*
D12*
X764800Y342300D03*
X790200Y342300D03*
X405300Y342300D03*
X430700Y342300D03*
X528300Y342300D03*
X553700Y342300D03*
X646400Y342500D03*
X671800Y342500D03*
D13*
X717900Y317500D03*
X717900Y368300D03*
D14*
X354100Y368200D03*
X354100Y317400D03*
D13*
X472900Y318100D03*
X472900Y368900D03*
X596900Y317900D03*
X596900Y368700D03*
D15*
X788720Y668340D03*
X788720Y841060D03*
X392480Y841060D03*
X392480Y668340D03*
D16*
X735380Y678500D03*
X438200Y830900D03*
D17*
X889700Y441700D03*
X936690Y441700D03*
X842710Y441700D03*
X864300Y314700D03*
X915100Y314700D03*
D10*
X1034900Y714500D03*
X1034900Y734500D03*
D15*
X789020Y437840D03*
X789020Y610560D03*
X392780Y610560D03*
X392780Y437840D03*
D16*
X735680Y448000D03*
X438500Y600400D03*
D18*
X269640Y500600D02*
X254560Y500600D01*
X254560Y475200D02*
X269640Y475200D01*
X269640Y449800D02*
X254560Y449800D01*
X298560Y500600D02*
X313640Y500600D01*
X313640Y475200D02*
X298560Y475200D01*
X298560Y449800D02*
X313640Y449800D01*
D19*
X885600Y569018D02*
X885600Y585782D01*
X911000Y585782D02*
X911000Y569018D01*
X936400Y569018D02*
X936400Y585782D01*
D20*
X911000Y727260D03*
D11*
X234000Y951000D03*
X234000Y925600D03*
D10*
X242300Y541800D03*
D21*
X267700Y541800D03*
X242300Y567200D03*
X267700Y567200D03*
X242300Y592600D03*
X267700Y592600D03*
X242300Y618000D03*
X267700Y618000D03*
X242300Y643400D03*
X267700Y643400D03*
X242300Y668800D03*
X267700Y668800D03*
X242300Y694200D03*
X267700Y694200D03*
D10*
X241300Y733800D03*
D21*
X266700Y733800D03*
X241300Y759200D03*
X266700Y759200D03*
X241300Y784600D03*
X266700Y784600D03*
X241300Y810000D03*
X266700Y810000D03*
X241300Y835400D03*
X266700Y835400D03*
X241300Y860800D03*
X266700Y860800D03*
X241300Y886200D03*
X266700Y886200D03*
D22*
X560000Y648750D03*
X712500Y801250D03*
X802500Y891250D03*
X916250Y977500D03*
X317500Y673750D03*
X362500Y700000D03*
X530000Y870000D03*
X592500Y570000D03*
X705000Y727500D03*
X226250Y733750D03*
X316250Y903750D03*
X612500Y977500D03*
X610000Y641250D03*
X652500Y641250D03*
X610000Y631250D03*
X631250Y631250D03*
X343750Y673750D03*
X348750Y697500D03*
X448750Y885000D03*
X363750Y668750D03*
X372500Y701250D03*
X475000Y803750D03*
X298750Y673750D03*
X295000Y886250D03*
X390000Y886250D03*
X438750Y886250D03*
X565000Y890000D03*
X316250Y893750D03*
X296250Y820000D03*
X428750Y796250D03*
X488750Y796250D03*
X518750Y796250D03*
X635000Y912500D03*
X322500Y775000D03*
X423750Y783750D03*
X488750Y783750D03*
X638750Y875000D03*
X328750Y745000D03*
X385000Y745000D03*
X440000Y745000D03*
X612500Y867500D03*
X293750Y873750D03*
X350000Y846250D03*
X745000Y898750D03*
X308750Y877500D03*
X381250Y877500D03*
X467500Y877500D03*
X623750Y890000D03*
X296250Y838750D03*
X571250Y897500D03*
X496250Y707500D03*
X706250Y808750D03*
X398750Y975000D03*
M02*
